# Blender v2.83.1 OBJ File: 'jigsaw-15x12-3-step2.blend'
# www.blender.org
mtllib piece.143.mtl
o path654
v -0.550772 0.037500 0.142803
v -0.533482 0.037500 0.053262
v -0.473024 0.037500 0.050252
v -0.391187 0.037500 0.087708
v -0.318421 0.037500 0.098591
v -0.280164 0.037500 0.037328
v -0.281805 0.037500 -0.055761
v -0.323721 0.037500 -0.118884
v -0.400857 0.037500 -0.111159
v -0.486395 0.037500 -0.075344
v -0.548087 0.037500 -0.075104
v -0.563008 0.037500 -0.154507
v -0.545545 0.037500 -0.279222
v -0.496851 0.037500 -0.489141
v -0.302410 0.037500 -0.540416
v -0.185953 0.037500 -0.556158
v -0.109683 0.037500 -0.532757
v -0.104813 0.037500 -0.454407
v -0.131237 0.037500 -0.352298
v -0.131024 0.037500 -0.269366
v -0.065425 0.037500 -0.239499
v 0.027574 0.037500 -0.260380
v 0.090803 0.037500 -0.320641
v 0.086948 0.037500 -0.406176
v 0.058118 0.037500 -0.491920
v 0.066277 0.037500 -0.550071
v 0.153939 0.037500 -0.561426
v 0.505058 0.037500 -0.489141
v 0.555552 0.037500 -0.290801
v 0.573407 0.037500 -0.172544
v 0.557204 0.037500 -0.096301
v 0.491602 0.037500 -0.094263
v 0.399220 0.037500 -0.125203
v 0.312171 0.037500 -0.129538
v 0.258025 0.037500 -0.066995
v 0.246190 0.037500 0.025470
v 0.281527 0.037500 0.091591
v 0.361928 0.037500 0.094226
v 0.457390 0.037500 0.072727
v 0.530937 0.037500 0.085570
v 0.555734 0.037500 0.172837
v 0.545499 0.037500 0.301013
v 0.505058 0.037500 0.512557
v 0.150454 0.037500 0.536304
v 0.061553 0.037500 0.516365
v 0.052643 0.037500 0.464925
v 0.081307 0.037500 0.397549
v 0.085622 0.037500 0.335824
v 0.023468 0.037500 0.298450
v -0.068056 0.037500 0.292574
v -0.132046 0.037500 0.322451
v -0.130779 0.037500 0.386905
v -0.103241 0.037500 0.463034
v -0.107598 0.037500 0.522504
v -0.184080 0.037500 0.544683
v -0.301181 0.037500 0.539731
v -0.496851 0.037500 0.512557
v -0.550772 -0.037498 0.142803
v -0.533482 -0.037500 0.053262
v -0.473024 -0.037500 0.050252
v -0.391187 -0.037500 0.087708
v -0.318421 -0.037500 0.098591
v -0.280164 -0.037500 0.037328
v -0.281805 -0.037500 -0.055761
v -0.323721 -0.037500 -0.118884
v -0.400857 -0.037500 -0.111159
v -0.486395 -0.037500 -0.075344
v -0.548087 -0.037500 -0.075104
v -0.563008 -0.037498 -0.154507
v -0.545545 -0.037498 -0.279222
v -0.496851 -0.037500 -0.489141
v -0.302410 -0.037500 -0.540416
v -0.185953 -0.037500 -0.556158
v -0.109683 -0.037498 -0.532757
v -0.104813 -0.037500 -0.454407
v -0.131237 -0.037500 -0.352298
v -0.131024 -0.037500 -0.269366
v -0.065425 -0.037500 -0.239499
v 0.027574 -0.037498 -0.260380
v 0.090803 -0.037500 -0.320641
v 0.086948 -0.037500 -0.406176
v 0.058118 -0.037500 -0.491920
v 0.066277 -0.037500 -0.550071
v 0.153939 -0.037500 -0.561426
v 0.505058 -0.037500 -0.489141
v 0.555552 -0.037500 -0.290801
v 0.573407 -0.037498 -0.172544
v 0.557204 -0.037500 -0.096301
v 0.491602 -0.037500 -0.094263
v 0.399220 -0.037500 -0.125203
v 0.312171 -0.037500 -0.129538
v 0.258025 -0.037498 -0.066995
v 0.246190 -0.037500 0.025470
v 0.281527 -0.037500 0.091591
v 0.361928 -0.037500 0.094226
v 0.457390 -0.037500 0.072727
v 0.530937 -0.037500 0.085570
v 0.555734 -0.037500 0.172837
v 0.545499 -0.037500 0.301013
v 0.505058 -0.037500 0.512557
v 0.150454 -0.037500 0.536304
v 0.061553 -0.037498 0.516365
v 0.052643 -0.037500 0.464925
v 0.081307 -0.037500 0.397549
v 0.085622 -0.037500 0.335824
v 0.023468 -0.037500 0.298450
v -0.068056 -0.037500 0.292574
v -0.132046 -0.037500 0.322451
v -0.130779 -0.037500 0.386905
v -0.103241 -0.037500 0.463034
v -0.107598 -0.037500 0.522504
v -0.184080 -0.037498 0.544683
v -0.301181 -0.037498 0.539731
v -0.496851 -0.037498 0.512557
v 0.066277 0.037500 -0.550071
v 0.066277 0.037500 -0.550071
v 0.153939 0.037500 -0.561426
v -0.302410 0.037500 -0.540416
v -0.185953 0.037500 -0.556158
v -0.109683 0.037500 -0.532757
v -0.109683 0.037500 -0.532757
v 0.058118 0.037500 -0.491920
v -0.104813 0.037500 -0.454407
v -0.496851 0.037500 -0.489141
v -0.496851 0.037500 -0.489141
v 0.505058 0.037500 -0.489141
v 0.505058 0.037500 -0.489141
v 0.086948 0.037500 -0.406176
v -0.131237 0.037500 -0.352298
v 0.090803 0.037500 -0.320641
v 0.555552 0.037500 -0.290801
v -0.545545 0.037500 -0.279222
v -0.131024 0.037500 -0.269366
v -0.131024 0.037500 -0.269366
v 0.027574 0.037500 -0.260380
v 0.573407 0.037500 -0.172544
v -0.563008 0.037500 -0.154507
v -0.065425 0.037500 -0.239499
v 0.399220 0.037500 -0.125203
v 0.312171 0.037500 -0.129538
v 0.557204 0.037500 -0.096301
v 0.557204 0.037500 -0.096301
v -0.548087 0.037500 -0.075104
v -0.548087 0.037500 -0.075104
v -0.323721 0.037500 -0.118884
v -0.323721 0.037500 -0.118884
v -0.400857 0.037500 -0.111159
v 0.258025 0.037500 -0.066995
v 0.491602 0.037500 -0.094263
v -0.281805 0.037500 -0.055761
v -0.486395 0.037500 -0.075344
v 0.246190 0.037500 0.025470
v -0.280164 0.037500 0.037328
v 0.281527 0.037500 0.091591
v -0.318421 0.037500 0.098591
v -0.318421 0.037500 0.098591
v -0.533482 0.037500 0.053262
v -0.533482 0.037500 0.053262
v -0.473024 0.037500 0.050252
v -0.391187 0.037500 0.087708
v -0.550772 0.037500 0.142803
v 0.361928 0.037500 0.094226
v 0.457390 0.037500 0.072727
v 0.530937 0.037500 0.085570
v 0.530937 0.037500 0.085570
v 0.555734 0.037500 0.172837
v 0.545499 0.037500 0.301013
v -0.068056 0.037500 0.292574
v -0.132046 0.037500 0.322451
v -0.132046 0.037500 0.322451
v 0.023468 0.037500 0.298450
v 0.085622 0.037500 0.335824
v 0.085622 0.037500 0.335824
v -0.130779 0.037500 0.386905
v 0.081307 0.037500 0.397549
v -0.103241 0.037500 0.463034
v 0.052643 0.037500 0.464925
v -0.107598 0.037500 0.522504
v -0.107598 0.037500 0.522504
v 0.061553 0.037500 0.516365
v 0.061553 0.037500 0.516365
v -0.496851 0.037500 0.512557
v -0.496851 0.037500 0.512557
v 0.505058 0.037500 0.512557
v 0.505058 0.037500 0.512557
v 0.150454 0.037500 0.536304
v -0.184080 0.037500 0.544683
v -0.301181 0.037500 0.539731
v 0.066277 -0.037500 -0.550071
v 0.066277 -0.037500 -0.550071
v 0.153939 -0.037500 -0.561426
v -0.302410 -0.037500 -0.540416
v -0.185953 -0.037500 -0.556158
v -0.109683 -0.037498 -0.532757
v -0.109683 -0.037498 -0.532757
v 0.058118 -0.037500 -0.491920
v -0.104813 -0.037500 -0.454407
v -0.496851 -0.037500 -0.489141
v -0.496851 -0.037500 -0.489141
v 0.505058 -0.037500 -0.489141
v 0.505058 -0.037500 -0.489141
v 0.086948 -0.037500 -0.406176
v -0.131237 -0.037500 -0.352298
v 0.090803 -0.037500 -0.320641
v 0.555552 -0.037500 -0.290801
v -0.545545 -0.037498 -0.279222
v -0.131024 -0.037500 -0.269366
v -0.131024 -0.037500 -0.269366
v 0.027574 -0.037498 -0.260380
v 0.573407 -0.037498 -0.172544
v -0.563008 -0.037498 -0.154507
v -0.065425 -0.037500 -0.239499
v 0.399220 -0.037500 -0.125203
v 0.312171 -0.037500 -0.129538
v 0.557204 -0.037500 -0.096301
v 0.557204 -0.037500 -0.096301
v -0.548087 -0.037500 -0.075104
v -0.548087 -0.037500 -0.075104
v -0.323721 -0.037500 -0.118884
v -0.323721 -0.037500 -0.118884
v -0.400857 -0.037500 -0.111159
v 0.258025 -0.037498 -0.066995
v 0.491602 -0.037500 -0.094263
v -0.281805 -0.037500 -0.055761
v -0.486395 -0.037500 -0.075344
v 0.246190 -0.037500 0.025470
v -0.280164 -0.037500 0.037328
v 0.281527 -0.037500 0.091591
v -0.318421 -0.037500 0.098591
v -0.318421 -0.037500 0.098591
v -0.533482 -0.037500 0.053262
v -0.533482 -0.037500 0.053262
v -0.473024 -0.037500 0.050252
v -0.391187 -0.037500 0.087708
v -0.550772 -0.037498 0.142803
v 0.361928 -0.037500 0.094226
v 0.457390 -0.037500 0.072727
v 0.530937 -0.037500 0.085570
v 0.530937 -0.037500 0.085570
v 0.555734 -0.037500 0.172837
v 0.545499 -0.037500 0.301013
v -0.068056 -0.037500 0.292574
v -0.132046 -0.037500 0.322451
v -0.132046 -0.037500 0.322451
v 0.023468 -0.037500 0.298450
v 0.085622 -0.037500 0.335824
v 0.085622 -0.037500 0.335824
v -0.130779 -0.037500 0.386905
v 0.081307 -0.037500 0.397549
v -0.103241 -0.037500 0.463034
v 0.052643 -0.037500 0.464925
v -0.107598 -0.037500 0.522504
v -0.107598 -0.037500 0.522504
v 0.061553 -0.037498 0.516365
v 0.061553 -0.037498 0.516365
v -0.496851 -0.037498 0.512557
v -0.496851 -0.037498 0.512557
v 0.505058 -0.037500 0.512557
v 0.505058 -0.037500 0.512557
v 0.150454 -0.037500 0.536304
v -0.184080 -0.037498 0.544683
v -0.301181 -0.037498 0.539731
vt 0.500000 0.500000
vt 0.500000 0.500000
vt 0.500000 0.500000
vt 0.500000 0.500000
vt 0.500000 0.500000
vt 0.500000 0.500000
vt 0.500000 0.500000
vt 0.500000 0.500000
vt 0.500000 0.500000
vt 0.500000 0.500000
vt 0.500000 0.500000
vt 0.500000 0.500000
vt 0.500000 0.500000
vt 0.500000 0.500000
vt 0.500000 0.500000
vt 0.500000 0.500000
vt 0.500000 0.500000
vt 0.500000 0.500000
vt 0.500000 0.500000
vt 0.500000 0.500000
vt 0.500000 0.500000
vt 0.500000 0.500000
vt 0.500000 0.500000
vt 0.500000 0.500000
vt 0.500000 0.500000
vt 0.500000 0.500000
vt 0.500000 0.500000
vt 0.500000 0.500000
vt 0.500000 0.500000
vt 0.500000 0.500000
vt 0.500000 0.500000
vt 0.500000 0.500000
vt 0.500000 0.500000
vt 0.500000 0.500000
vt 0.500000 0.500000
vt 0.500000 0.500000
vt 0.500000 0.500000
vt 0.500000 0.500000
vt 0.500000 0.500000
vt 0.500000 0.500000
vt 0.500000 0.500000
vt 0.500000 0.500000
vt 0.500000 0.500000
vt 0.500000 0.500000
vt 0.500000 0.500000
vt 0.500000 0.500000
vt 0.500000 0.500000
vt 0.500000 0.500000
vt 0.500000 0.500000
vt 0.500000 0.500000
vt 0.500000 0.500000
vt 0.500000 0.500000
vt 0.500000 0.500000
vt 0.500000 0.500000
vt 0.500000 0.500000
vt 0.500000 0.500000
vt 0.500000 0.500000
vt 0.500000 0.500000
vt 0.500000 0.500000
vt 0.500000 0.500000
vt 0.500000 0.500000
vt 0.500000 0.500000
vt 0.500000 0.500000
vt 0.500000 0.500000
vt 0.500000 0.500000
vt 0.500000 0.500000
vt 0.500000 0.500000
vt 0.500000 0.500000
vt 0.500000 0.500000
vt 0.500000 0.500000
vt 0.500000 0.500000
vt 0.500000 0.500000
vt 0.500000 0.500000
vt 0.500000 0.500000
vt 0.500000 0.500000
vt 0.500000 0.500000
vt 0.500000 0.500000
vt 0.500000 0.500000
vt 0.500000 0.500000
vt 0.500000 0.500000
vt 0.500000 0.500000
vt 0.500000 0.500000
vt 0.500000 0.500000
vt 0.500000 0.500000
vt 0.500000 0.500000
vt 0.500000 0.500000
vt 0.500000 0.500000
vt 0.500000 0.500000
vt 0.500000 0.500000
vt 0.500000 0.500000
vt 0.500000 0.500000
vt 0.500000 0.500000
vt 0.500000 0.500000
vt 0.500000 0.500000
vt 0.500000 0.500000
vt 0.500000 0.500000
vt 0.500000 0.500000
vt 0.500000 0.500000
vt 0.500000 0.500000
vt 0.500000 0.500000
vt 0.500000 0.500000
vt 0.500000 0.500000
vt 0.500000 0.500000
vt 0.500000 0.500000
vt 0.500000 0.500000
vt 0.500000 0.500000
vt 0.500000 0.500000
vt 0.500000 0.500000
vt 0.500000 0.500000
vt 0.500000 0.500000
vt 0.500000 0.500000
vt 0.500000 0.500000
vt 0.500000 0.500000
vt 0.500000 0.500000
vt 0.500000 0.500000
vt 0.500000 0.500000
vt 0.500000 0.500000
vt 0.500000 0.500000
vt 0.500000 0.500000
vt 0.500000 0.500000
vt 0.500000 0.500000
vt 0.500000 0.500000
vt 0.500000 0.500000
vt 0.500000 0.500000
vt 0.500000 0.500000
vt 0.500000 0.500000
vt 0.500000 0.500000
vt 0.500000 0.500000
vt 0.500000 0.500000
vt 0.500000 0.500000
vt 0.500000 0.500000
vt 0.500000 0.500000
vt 0.500000 0.500000
vt 0.500000 0.500000
vt 0.500000 0.500000
vt 0.500000 0.500000
vt 0.500000 0.500000
vt 0.500000 0.500000
vt 0.500000 0.500000
vt 0.500000 0.500000
vt 0.500000 0.500000
vt 0.500000 0.500000
vt 0.500000 0.500000
vt 0.500000 0.500000
vt 0.500000 0.500000
vt 0.500000 0.500000
vt 0.500000 0.500000
vt 0.500000 0.500000
vt 0.500000 0.500000
vt 0.500000 0.500000
vt 0.500000 0.500000
vt 0.500000 0.500000
vt 0.500000 0.500000
vt 0.500000 0.500000
vt 0.500000 0.500000
vt 0.500000 0.500000
vt 0.500000 0.500000
vt 0.500000 0.500000
vt 0.500000 0.500000
vt 0.500000 0.500000
vt 0.500000 0.500000
vt 0.500000 0.500000
vt 0.500000 0.500000
vt 0.500000 0.500000
vt 0.500000 0.500000
vt 0.500000 0.500000
vt 0.500000 0.500000
vt 0.500000 0.500000
vt 0.500000 0.500000
vt 0.500000 0.500000
vt 0.500000 0.500000
vt 0.500000 0.500000
vt 0.500000 0.500000
vt 0.500000 0.500000
vt 0.500000 0.500000
vt 0.500000 0.500000
vt 0.500000 0.500000
vt 0.500000 0.500000
vt 0.500000 0.500000
vt 0.500000 0.500000
vt 0.500000 0.500000
vt 0.500000 0.500000
vt 0.500000 0.500000
vt 0.500000 0.500000
vt 0.500000 0.500000
vt 0.500000 0.500000
vt 0.500000 0.500000
vt 0.500000 0.500000
vt 0.500000 0.500000
vt 0.500000 0.500000
vt 0.500000 0.500000
vt 0.500000 0.500000
vt 0.500000 0.500000
vt 0.500000 0.500000
vt 0.500000 0.500000
vt 0.500000 0.500000
vt 0.500000 0.500000
vt 0.500000 0.500000
vt 0.500000 0.500000
vt 0.500000 0.500000
vt 0.500000 0.500000
vt 0.500000 0.500000
vt 0.500000 0.500000
vt 0.500000 0.500000
vt 0.500000 0.500000
vt 0.479686 0.164406
vt 0.487478 0.163994
vt 0.491025 0.177120
vt 0.536705 0.194929
vt 0.535055 0.202189
vt 0.530162 0.203257
vt 0.478539 0.201105
vt 0.473697 0.202011
vt 0.466667 0.166667
vt 0.478187 0.219198
vt 0.480976 0.213946
vt 0.491009 0.231716
vt 0.537881 0.223662
vt 0.536693 0.233500
vt 0.526291 0.219723
vt 0.495374 0.229232
vt 0.516108 0.207188
vt 0.501562 0.230969
vt 0.503230 0.170629
vt 0.503823 0.166350
vt 0.509738 0.164691
vt 0.462265 0.222161
vt 0.473054 0.218555
vt 0.463427 0.232536
vt 0.490941 0.182482
vt 0.495198 0.184968
vt 0.501288 0.184479
vt 0.518460 0.201688
vt 0.505137 0.176235
vt 0.468252 0.205127
vt 0.463079 0.197427
vt 0.523809 0.201469
vt 0.505424 0.181370
vt 0.490994 0.238616
vt 0.492753 0.247111
vt 0.479605 0.254266
vt 0.533333 0.250000
vt 0.509970 0.256014
vt 0.505512 0.243098
vt 0.481085 0.206202
vt 0.463257 0.215555
vt 0.467362 0.215575
vt 0.466667 0.250000
vt 0.504137 0.255069
vt 0.503594 0.250231
vt 0.520499 0.220084
vt 0.505769 0.235982
vt 0.464229 0.204876
vt 0.492567 0.165839
vt 0.492857 0.170787
vt 0.516896 0.214881
vt 0.487354 0.255575
vt 0.532438 0.217149
vt 0.536803 0.217319
vt 0.533333 0.166667
vt 0.536024 0.184265
vt 0.492429 0.253629
vn -0.0000 -1.0000 0.0000
vn -0.0000 -1.0000 0.0001
vn -0.1285 0.0000 -0.9917
vn -0.1340 0.0000 -0.9910
vn 0.2933 0.0000 -0.9560
vn -0.9903 0.0000 -0.1389
vn 0.9981 0.0000 -0.0620
vn -0.2550 0.0000 -0.9669
vn 0.2016 0.0000 -0.9795
vn -0.9479 0.0000 0.3187
vn 0.9681 0.0000 0.2505
vn -0.9990 0.0000 0.0450
vn 0.9691 0.0000 -0.2467
vn -0.9741 0.0000 -0.2260
vn 1.0000 0.0000 -0.0026
vn -0.6899 0.0000 -0.7239
vn 0.9888 0.0000 -0.1493
vn -0.9903 0.0000 -0.1387
vn 0.4144 0.0000 -0.9101
vn -0.2191 0.0000 -0.9757
vn -0.0497 0.0000 0.9988
vn 0.9782 0.0000 0.2079
vn -0.9828 0.0000 0.1847
vn 0.0996 0.0000 0.9950
vn 0.7560 0.0000 0.6545
vn -0.3176 0.0000 0.9482
vn 0.0311 0.0000 0.9995
vn -0.8331 0.0000 0.5532
vn 0.0039 0.0000 1.0000
vn 0.3862 0.0000 0.9224
vn 0.9919 0.0000 0.1270
vn -0.9998 0.0000 0.0176
vn 0.8819 0.0000 -0.4713
vn -0.8482 0.0000 -0.5297
vn -0.0497 0.0000 -0.9988
vn 0.4162 0.0000 -0.9093
vn -0.9819 0.0000 -0.1896
vn -0.2197 0.0000 -0.9756
vn 0.1720 0.0000 -0.9851
vn 0.9619 0.0000 -0.2733
vn 0.1479 0.0000 -0.9890
vn 0.0328 0.0000 -0.9995
vn 0.9968 0.0000 0.0796
vn 0.4231 0.0000 0.9061
vn -0.0641 0.0000 0.9979
vn -0.5153 0.0000 0.8570
vn 0.9998 0.0000 -0.0197
vn -0.9976 0.0000 -0.0697
vn 0.9404 0.0000 -0.3402
vn -0.9202 0.0000 -0.3915
vn 0.9973 0.0000 0.0731
vn -0.9853 0.0000 0.1707
vn -0.9895 0.0000 0.1443
vn 0.9822 0.0000 0.1878
vn -0.2188 0.0000 0.9758
vn 0.2785 0.0000 0.9604
vn 0.0668 0.0000 0.9978
vn -0.1376 0.0000 0.9905
vn -0.0423 0.0000 0.9991
vn 0.0000 1.0000 0.0000
usemtl BackMat.001
s off
f 262/1/1 248/2/1 261/3/1
f 240/4/1 237/5/1 238/6/1
f 229/7/1 256/8/1 234/9/1
f 219/10/1 207/11/1 224/12/1
f 210/13/1 213/14/1 205/15/1
f 212/16/1 209/17/1 226/18/1
f 251/19/2 260/20/2 254/21/2
f 211/22/1 206/23/1 221/24/1
f 229/7/1 242/25/1 243/26/1
f 226/18/1 228/27/1 245/28/1
f 224/12/1 207/11/1 212/16/1
f 249/29/1 260/20/1 251/19/1
f 234/9/1 235/30/1 233/31/1
f 236/32/1 237/5/1 240/4/1
f 249/29/1 246/33/1 260/20/1
f 236/32/1 246/33/1 228/27/1
f 203/34/1 192/35/1 197/36/1
f 200/37/1 202/38/1 191/39/1
f 227/40/1 242/25/1 229/7/1
f 242/25/1 226/18/1 245/28/1
f 217/41/1 211/22/1 225/42/1
f 198/43/1 192/35/1 206/23/1
f 191/39/1 196/44/1 189/45/1
f 205/15/1 214/46/1 200/37/1
f 200/37/1 214/46/1 204/47/1
f 233/31/1 235/30/1 231/48/1
f 202/38/1 196/44/1 191/39/1
f 261/3/1 250/49/1 252/50/1
f 225/42/1 211/22/1 221/24/1
f 262/1/1 243/26/1 248/2/1
f 204/47/1 222/51/1 209/17/1
f 193/52/1 197/36/1 192/35/1
f 223/53/1 210/13/1 215/54/1
f 262/1/1 229/7/1 243/26/1
f 227/40/1 212/16/1 226/18/1
f 213/14/1 210/13/1 223/53/1
f 213/14/1 214/46/1 205/15/1
f 258/55/1 246/33/1 241/56/1
f 226/18/1 209/17/1 222/51/1
f 200/37/1 204/47/1 202/38/1
f 241/56/1 236/32/1 240/4/1
f 245/28/1 228/27/1 246/33/1
f 227/40/1 226/18/1 242/25/1
f 203/34/1 219/10/1 206/23/1
f 224/12/1 212/16/1 227/40/1
f 203/34/1 206/23/1 192/35/1
f 221/24/1 206/23/1 219/10/1
f 222/51/1 204/47/1 214/46/1
f 197/36/1 193/52/1 194/57/1
f 241/56/1 246/33/1 236/32/1
f 207/11/1 219/10/1 203/34/1
f 260/20/1 246/33/1 258/55/1
f 235/30/1 234/9/1 256/8/1
f 261/3/1 248/2/1 250/49/1
f 256/8/1 229/7/1 262/1/1
f 116/58/3 27/59/3 84/60/3 190/61/3
f 15/62/4 16/63/4 73/64/4 72/65/4
f 16/63/5 121/66/5 195/67/5 73/64/5
f 25/68/6 26/69/6 83/70/6 82/71/6
f 17/72/7 18/73/7 75/74/7 74/75/7
f 125/76/8 15/62/8 72/65/8 199/77/8
f 27/59/9 127/78/9 201/79/9 84/60/9
f 24/80/10 25/68/10 82/71/10 81/81/10
f 18/73/11 19/82/11 76/83/11 75/74/11
f 23/84/12 24/80/12 81/81/12 80/85/12
f 28/86/13 29/87/13 86/88/13 85/89/13
f 13/90/14 14/91/14 71/92/14 70/93/14
f 19/82/15 134/94/15 208/95/15 76/83/15
f 22/96/16 23/84/16 80/85/16 79/97/16
f 29/87/17 30/98/17 87/99/17 86/88/17
f 12/100/18 13/90/18 70/93/18 69/101/18
f 20/102/19 21/103/19 78/104/19 77/105/19
f 21/103/20 22/96/20 79/97/20 78/104/20
f 33/106/21 34/107/21 91/108/21 90/109/21
f 30/98/22 142/110/22 216/111/22 87/99/22
f 144/112/23 12/100/23 69/101/23 218/113/23
f 146/114/24 9/115/24 66/116/24 220/117/24
f 34/107/25 35/118/25 92/119/25 91/108/25
f 32/120/26 33/106/26 90/109/26 89/121/26
f 31/122/27 32/120/27 89/121/27 88/123/27
f 7/124/28 8/125/28 65/126/28 64/127/28
f 10/128/29 11/129/29 68/130/29 67/131/29
f 9/115/30 10/128/30 67/131/30 66/116/30
f 35/118/31 36/132/31 93/133/31 92/119/31
f 6/134/32 7/124/32 64/127/32 63/135/32
f 36/132/33 37/136/33 94/137/33 93/133/33
f 156/138/34 6/134/34 63/135/34 230/139/34
f 158/140/35 3/141/35 60/142/35 232/143/35
f 3/141/36 4/144/36 61/145/36 60/142/36
f 1/146/37 2/147/37 59/148/37 58/149/37
f 38/150/38 39/151/38 96/152/38 95/153/38
f 39/151/39 165/154/39 239/155/39 96/152/39
f 40/156/40 41/157/40 98/158/40 97/159/40
f 4/144/41 5/160/41 62/161/41 61/145/41
f 37/136/42 38/150/42 95/153/42 94/137/42
f 41/157/43 42/162/43 99/163/43 98/158/43
f 50/164/44 170/165/44 244/166/44 107/167/44
f 49/168/45 50/164/45 107/167/45 106/169/45
f 173/170/46 49/168/46 106/169/46 247/171/46
f 51/172/47 52/173/47 109/174/47 108/175/47
f 47/176/48 48/177/48 105/178/48 104/179/48
f 52/173/49 53/180/49 110/181/49 109/174/49
f 46/182/50 47/176/50 104/179/50 103/183/50
f 53/180/51 179/184/51 253/185/51 110/181/51
f 181/186/52 46/182/52 103/183/52 255/187/52
f 183/188/53 1/146/53 58/149/53 257/189/53
f 42/162/54 185/190/54 259/191/54 99/163/54
f 44/192/55 45/193/55 102/194/55 101/195/55
f 54/196/56 55/197/56 112/198/56 111/199/56
f 43/200/57 44/192/57 101/195/57 100/201/57
f 56/202/58 57/203/58 114/204/58 113/205/58
f 55/197/59 56/202/59 113/205/59 112/198/59
usemtl FrontMat.001
f 188/206/60 187/207/60 174/208/60
f 166/209/60 164/210/60 163/211/60
f 155/212/60 160/213/60 182/214/60
f 145/215/60 150/216/60 133/217/60
f 136/218/60 131/219/60 139/220/60
f 138/221/60 152/222/60 135/223/60
f 177/224/60 180/225/60 186/226/60
f 137/227/60 147/228/60 132/229/60
f 155/212/60 169/230/60 168/231/60
f 152/222/60 171/232/60 154/233/60
f 150/216/60 138/221/60 133/217/60
f 175/234/60 177/224/60 186/226/60
f 160/213/60 159/235/60 161/236/60
f 162/237/60 166/209/60 163/211/60
f 175/234/60 186/226/60 172/238/60
f 162/237/60 154/233/60 172/238/60
f 129/239/60 123/240/60 118/241/60
f 126/242/60 117/243/60 128/244/60
f 153/245/60 155/212/60 168/231/60
f 168/231/60 171/232/60 152/222/60
f 143/246/60 151/247/60 137/227/60
f 124/248/60 132/229/60 118/241/60
f 117/243/60 115/249/60 122/250/60
f 131/219/60 126/242/60 140/251/60
f 126/242/60 130/252/60 140/251/60
f 159/235/60 157/253/60 161/236/60
f 128/244/60 117/243/60 122/250/60
f 187/207/60 178/254/60 176/255/60
f 151/247/60 147/228/60 137/227/60
f 188/206/60 174/208/60 169/230/60
f 130/252/60 135/223/60 148/256/60
f 119/257/60 118/241/60 123/240/60
f 149/258/60 141/259/60 136/218/60
f 188/206/60 169/230/60 155/212/60
f 153/245/60 152/222/60 138/221/60
f 139/220/60 149/258/60 136/218/60
f 139/220/60 131/219/60 140/251/60
f 184/260/60 167/261/60 172/238/60
f 152/222/60 148/256/60 135/223/60
f 126/242/60 128/244/60 130/252/60
f 167/261/60 166/209/60 162/237/60
f 171/232/60 172/238/60 154/233/60
f 153/245/60 168/231/60 152/222/60
f 129/239/60 132/229/60 145/215/60
f 150/216/60 153/245/60 138/221/60
f 129/239/60 118/241/60 132/229/60
f 147/228/60 145/215/60 132/229/60
f 148/256/60 140/251/60 130/252/60
f 123/240/60 120/262/60 119/257/60
f 167/261/60 162/237/60 172/238/60
f 133/217/60 129/239/60 145/215/60
f 186/226/60 184/260/60 172/238/60
f 161/236/60 182/214/60 160/213/60
f 187/207/60 176/255/60 174/208/60
f 182/214/60 188/206/60 155/212/60
