# Blender v2.83.1 OBJ File: 'jigsaw-15x12-3-step2.blend'
# www.blender.org
mtllib piece.126.mtl
o path620
v 0.559620 0.037500 -0.302245
v 0.564184 0.037500 -0.185010
v 0.538640 0.037500 -0.107939
v 0.471595 0.037500 -0.102497
v 0.384608 0.037500 -0.129261
v 0.307480 0.037500 -0.131092
v 0.265124 0.037500 -0.069468
v 0.262923 0.037500 0.019645
v 0.301371 0.037500 0.081659
v 0.375923 0.037500 0.080893
v 0.461879 0.037500 0.057281
v 0.529496 0.037500 0.069663
v 0.557095 0.037500 0.158243
v 0.555261 0.037500 0.288686
v 0.530847 0.037500 0.504141
v 0.322384 0.037500 0.524421
v 0.198192 0.037500 0.523913
v 0.118351 0.037500 0.495075
v 0.116689 0.037500 0.428169
v 0.149465 0.037500 0.344431
v 0.153543 0.037500 0.272840
v 0.086595 0.037500 0.237523
v -0.010486 0.037500 0.243179
v -0.075995 0.037500 0.289655
v -0.069373 0.037500 0.371532
v -0.034623 0.037500 0.462316
v -0.036890 0.037500 0.530244
v -0.121162 0.037500 0.552550
v -0.251795 0.037500 0.542445
v -0.470851 0.037500 0.504141
v -0.436285 0.037500 0.133709
v -0.456193 0.037500 0.041363
v -0.512690 0.037500 0.033132
v -0.587592 0.037500 0.064604
v -0.655570 0.037500 0.070921
v -0.694871 0.037500 0.008019
v -0.698052 0.037500 -0.085008
v -0.661250 0.037500 -0.148274
v -0.586677 0.037500 -0.142110
v -0.500907 0.037500 -0.107712
v -0.436596 0.037500 -0.106490
v -0.417239 0.037500 -0.181076
v -0.429684 0.037500 -0.298974
v -0.470851 0.037500 -0.497769
v -0.244904 0.037500 -0.542828
v -0.110343 0.037500 -0.554915
v -0.023942 0.037500 -0.529275
v -0.022651 0.037500 -0.451163
v -0.060289 0.037500 -0.350527
v -0.069895 0.037500 -0.268486
v -0.005778 0.037500 -0.237322
v 0.092660 0.037500 -0.253974
v 0.164746 0.037500 -0.306541
v 0.169608 0.037500 -0.381374
v 0.145590 0.037500 -0.457838
v 0.150837 0.037500 -0.513549
v 0.225791 0.037500 -0.532750
v 0.340088 0.037500 -0.526175
v 0.530847 0.037500 -0.497769
v 0.559620 -0.037500 -0.302245
v 0.564184 -0.037498 -0.185010
v 0.538640 -0.037500 -0.107939
v 0.471595 -0.037500 -0.102497
v 0.384608 -0.037500 -0.129261
v 0.307480 -0.037500 -0.131092
v 0.265124 -0.037500 -0.069468
v 0.262923 -0.037498 0.019645
v 0.301371 -0.037500 0.081659
v 0.375923 -0.037498 0.080893
v 0.461879 -0.037500 0.057281
v 0.529496 -0.037500 0.069663
v 0.557095 -0.037500 0.158243
v 0.555261 -0.037498 0.288686
v 0.530847 -0.037500 0.504141
v 0.322384 -0.037500 0.524421
v 0.198192 -0.037500 0.523913
v 0.118351 -0.037500 0.495075
v 0.116689 -0.037500 0.428169
v 0.149465 -0.037498 0.344431
v 0.153543 -0.037500 0.272840
v 0.086595 -0.037500 0.237523
v -0.010486 -0.037500 0.243179
v -0.075995 -0.037500 0.289655
v -0.069373 -0.037500 0.371532
v -0.034623 -0.037500 0.462316
v -0.036890 -0.037500 0.530244
v -0.121162 -0.037500 0.552550
v -0.251795 -0.037500 0.542445
v -0.470851 -0.037500 0.504141
v -0.436285 -0.037500 0.133709
v -0.456193 -0.037500 0.041363
v -0.512690 -0.037498 0.033132
v -0.587592 -0.037500 0.064604
v -0.655570 -0.037500 0.070921
v -0.694871 -0.037500 0.008019
v -0.698052 -0.037500 -0.085008
v -0.661250 -0.037500 -0.148274
v -0.586677 -0.037500 -0.142110
v -0.500907 -0.037500 -0.107712
v -0.436596 -0.037500 -0.106490
v -0.417239 -0.037500 -0.181076
v -0.429684 -0.037500 -0.298974
v -0.470851 -0.037498 -0.497769
v -0.244904 -0.037500 -0.542828
v -0.110343 -0.037500 -0.554915
v -0.023942 -0.037500 -0.529275
v -0.022651 -0.037500 -0.451163
v -0.060289 -0.037500 -0.350527
v -0.069895 -0.037500 -0.268486
v -0.005778 -0.037498 -0.237322
v 0.092660 -0.037498 -0.253974
v 0.164746 -0.037500 -0.306541
v 0.169608 -0.037500 -0.381374
v 0.145590 -0.037500 -0.457838
v 0.150837 -0.037500 -0.513549
v 0.225791 -0.037498 -0.532750
v 0.340088 -0.037500 -0.526175
v 0.530847 -0.037498 -0.497769
v 0.559620 0.037500 -0.302245
v 0.564184 0.037500 -0.185010
v 0.538640 0.037500 -0.107939
v 0.538640 0.037500 -0.107939
v 0.529496 0.037500 0.069663
v 0.529496 0.037500 0.069663
v 0.557095 0.037500 0.158243
v 0.555261 0.037500 0.288686
v 0.471595 0.037500 -0.102497
v 0.530847 0.037500 -0.497769
v 0.530847 0.037500 -0.497769
v 0.530847 0.037500 0.504141
v 0.530847 0.037500 0.504141
v 0.461879 0.037500 0.057281
v 0.384608 0.037500 -0.129261
v 0.375923 0.037500 0.080893
v 0.340088 0.037500 -0.526175
v 0.322384 0.037500 0.524421
v 0.307480 0.037500 -0.131092
v 0.301371 0.037500 0.081659
v 0.225791 0.037500 -0.532750
v 0.198192 0.037500 0.523913
v 0.265124 0.037500 -0.069468
v 0.262923 0.037500 0.019645
v 0.150837 0.037500 -0.513549
v 0.150837 0.037500 -0.513549
v 0.149465 0.037500 0.344431
v 0.153543 0.037500 0.272840
v 0.153543 0.037500 0.272840
v 0.118351 0.037500 0.495075
v 0.118351 0.037500 0.495075
v 0.145590 0.037500 -0.457838
v 0.169608 0.037500 -0.381374
v 0.164746 0.037500 -0.306541
v 0.092660 0.037500 -0.253974
v 0.086595 0.037500 0.237523
v 0.116689 0.037500 0.428169
v -0.005778 0.037500 -0.237322
v -0.010486 0.037500 0.243179
v -0.069895 0.037500 -0.268486
v -0.069895 0.037500 -0.268486
v -0.075995 0.037500 0.289655
v -0.023942 0.037500 -0.529275
v -0.023942 0.037500 -0.529275
v -0.022651 0.037500 -0.451163
v -0.060289 0.037500 -0.350527
v -0.110343 0.037500 -0.554915
v -0.069373 0.037500 0.371532
v -0.034623 0.037500 0.462316
v -0.036890 0.037500 0.530244
v -0.036890 0.037500 0.530244
v -0.121162 0.037500 0.552550
v -0.244904 0.037500 -0.542828
v -0.251795 0.037500 0.542445
v -0.470851 0.037500 -0.497769
v -0.470851 0.037500 -0.497769
v -0.429684 0.037500 -0.298974
v -0.417239 0.037500 -0.181076
v -0.436596 0.037500 -0.106490
v -0.436596 0.037500 -0.106490
v -0.436285 0.037500 0.133709
v -0.456193 0.037500 0.041363
v -0.456193 0.037500 0.041363
v -0.500907 0.037500 -0.107712
v -0.470851 0.037500 0.504141
v -0.470851 0.037500 0.504141
v -0.512690 0.037500 0.033132
v -0.586677 0.037500 -0.142110
v -0.587592 0.037500 0.064604
v -0.661250 0.037500 -0.148274
v -0.661250 0.037500 -0.148274
v -0.655570 0.037500 0.070921
v -0.655570 0.037500 0.070921
v -0.694871 0.037500 0.008019
v -0.698052 0.037500 -0.085008
v 0.559620 -0.037500 -0.302245
v 0.564184 -0.037498 -0.185010
v 0.538640 -0.037500 -0.107939
v 0.538640 -0.037500 -0.107939
v 0.529496 -0.037500 0.069663
v 0.529496 -0.037500 0.069663
v 0.557095 -0.037500 0.158243
v 0.555261 -0.037498 0.288686
v 0.471595 -0.037500 -0.102497
v 0.530847 -0.037498 -0.497769
v 0.530847 -0.037498 -0.497769
v 0.530847 -0.037500 0.504141
v 0.530847 -0.037500 0.504141
v 0.461879 -0.037500 0.057281
v 0.384608 -0.037500 -0.129261
v 0.375923 -0.037498 0.080893
v 0.340088 -0.037500 -0.526175
v 0.322384 -0.037500 0.524421
v 0.307480 -0.037500 -0.131092
v 0.301371 -0.037500 0.081659
v 0.225791 -0.037498 -0.532750
v 0.198192 -0.037500 0.523913
v 0.265124 -0.037500 -0.069468
v 0.262923 -0.037498 0.019645
v 0.150837 -0.037500 -0.513549
v 0.150837 -0.037500 -0.513549
v 0.149465 -0.037498 0.344431
v 0.153543 -0.037500 0.272840
v 0.153543 -0.037500 0.272840
v 0.118351 -0.037500 0.495075
v 0.118351 -0.037500 0.495075
v 0.145590 -0.037500 -0.457838
v 0.169608 -0.037500 -0.381374
v 0.164746 -0.037500 -0.306541
v 0.092660 -0.037498 -0.253974
v 0.086595 -0.037500 0.237523
v 0.116689 -0.037500 0.428169
v -0.005778 -0.037498 -0.237322
v -0.010486 -0.037500 0.243179
v -0.069895 -0.037500 -0.268486
v -0.069895 -0.037500 -0.268486
v -0.075995 -0.037500 0.289655
v -0.023942 -0.037500 -0.529275
v -0.023942 -0.037500 -0.529275
v -0.022651 -0.037500 -0.451163
v -0.060289 -0.037500 -0.350527
v -0.110343 -0.037500 -0.554915
v -0.069373 -0.037500 0.371532
v -0.034623 -0.037500 0.462316
v -0.036890 -0.037500 0.530244
v -0.036890 -0.037500 0.530244
v -0.121162 -0.037500 0.552550
v -0.244904 -0.037500 -0.542828
v -0.251795 -0.037500 0.542445
v -0.470851 -0.037498 -0.497769
v -0.470851 -0.037498 -0.497769
v -0.429684 -0.037500 -0.298974
v -0.417239 -0.037500 -0.181076
v -0.436596 -0.037500 -0.106490
v -0.436596 -0.037500 -0.106490
v -0.436285 -0.037500 0.133709
v -0.456193 -0.037500 0.041363
v -0.456193 -0.037500 0.041363
v -0.500907 -0.037500 -0.107712
v -0.470851 -0.037500 0.504141
v -0.470851 -0.037500 0.504141
v -0.512690 -0.037498 0.033132
v -0.586677 -0.037500 -0.142110
v -0.587592 -0.037500 0.064604
v -0.661250 -0.037500 -0.148274
v -0.661250 -0.037500 -0.148274
v -0.655570 -0.037500 0.070921
v -0.655570 -0.037500 0.070921
v -0.694871 -0.037500 0.008019
v -0.698052 -0.037500 -0.085008
vt 0.500000 0.500000
vt 0.500000 0.500000
vt 0.500000 0.500000
vt 0.500000 0.500000
vt 0.500000 0.500000
vt 0.500000 0.500000
vt 0.500000 0.500000
vt 0.500000 0.500000
vt 0.500000 0.500000
vt 0.500000 0.500000
vt 0.500000 0.500000
vt 0.500000 0.500000
vt 0.500000 0.500000
vt 0.500000 0.500000
vt 0.500000 0.500000
vt 0.500000 0.500000
vt 0.500000 0.500000
vt 0.500000 0.500000
vt 0.500000 0.500000
vt 0.500000 0.500000
vt 0.500000 0.500000
vt 0.500000 0.500000
vt 0.500000 0.500000
vt 0.500000 0.500000
vt 0.500000 0.500000
vt 0.500000 0.500000
vt 0.500000 0.500000
vt 0.500000 0.500000
vt 0.500000 0.500000
vt 0.500000 0.500000
vt 0.500000 0.500000
vt 0.500000 0.500000
vt 0.500000 0.500000
vt 0.500000 0.500000
vt 0.500000 0.500000
vt 0.500000 0.500000
vt 0.500000 0.500000
vt 0.500000 0.500000
vt 0.500000 0.500000
vt 0.500000 0.500000
vt 0.500000 0.500000
vt 0.500000 0.500000
vt 0.500000 0.500000
vt 0.500000 0.500000
vt 0.500000 0.500000
vt 0.500000 0.500000
vt 0.500000 0.500000
vt 0.500000 0.500000
vt 0.500000 0.500000
vt 0.500000 0.500000
vt 0.500000 0.500000
vt 0.500000 0.500000
vt 0.500000 0.500000
vt 0.500000 0.500000
vt 0.500000 0.500000
vt 0.500000 0.500000
vt 0.500000 0.500000
vt 0.500000 0.500000
vt 0.500000 0.500000
vt 0.500000 0.500000
vt 0.500000 0.500000
vt 0.500000 0.500000
vt 0.500000 0.500000
vt 0.500000 0.500000
vt 0.500000 0.500000
vt 0.500000 0.500000
vt 0.500000 0.500000
vt 0.500000 0.500000
vt 0.500000 0.500000
vt 0.500000 0.500000
vt 0.500000 0.500000
vt 0.500000 0.500000
vt 0.500000 0.500000
vt 0.500000 0.500000
vt 0.500000 0.500000
vt 0.500000 0.500000
vt 0.500000 0.500000
vt 0.500000 0.500000
vt 0.500000 0.500000
vt 0.500000 0.500000
vt 0.500000 0.500000
vt 0.500000 0.500000
vt 0.500000 0.500000
vt 0.500000 0.500000
vt 0.500000 0.500000
vt 0.500000 0.500000
vt 0.500000 0.500000
vt 0.500000 0.500000
vt 0.500000 0.500000
vt 0.500000 0.500000
vt 0.500000 0.500000
vt 0.500000 0.500000
vt 0.500000 0.500000
vt 0.500000 0.500000
vt 0.500000 0.500000
vt 0.500000 0.500000
vt 0.500000 0.500000
vt 0.500000 0.500000
vt 0.500000 0.500000
vt 0.500000 0.500000
vt 0.500000 0.500000
vt 0.500000 0.500000
vt 0.500000 0.500000
vt 0.500000 0.500000
vt 0.500000 0.500000
vt 0.500000 0.500000
vt 0.500000 0.500000
vt 0.500000 0.500000
vt 0.500000 0.500000
vt 0.500000 0.500000
vt 0.500000 0.500000
vt 0.500000 0.500000
vt 0.500000 0.500000
vt 0.500000 0.500000
vt 0.500000 0.500000
vt 0.500000 0.500000
vt 0.500000 0.500000
vt 0.500000 0.500000
vt 0.500000 0.500000
vt 0.500000 0.500000
vt 0.500000 0.500000
vt 0.500000 0.500000
vt 0.500000 0.500000
vt 0.500000 0.500000
vt 0.500000 0.500000
vt 0.500000 0.500000
vt 0.500000 0.500000
vt 0.500000 0.500000
vt 0.500000 0.500000
vt 0.500000 0.500000
vt 0.500000 0.500000
vt 0.500000 0.500000
vt 0.500000 0.500000
vt 0.500000 0.500000
vt 0.500000 0.500000
vt 0.500000 0.500000
vt 0.500000 0.500000
vt 0.500000 0.500000
vt 0.500000 0.500000
vt 0.500000 0.500000
vt 0.500000 0.500000
vt 0.500000 0.500000
vt 0.500000 0.500000
vt 0.500000 0.500000
vt 0.500000 0.500000
vt 0.500000 0.500000
vt 0.500000 0.500000
vt 0.500000 0.500000
vt 0.500000 0.500000
vt 0.500000 0.500000
vt 0.500000 0.500000
vt 0.500000 0.500000
vt 0.500000 0.500000
vt 0.500000 0.500000
vt 0.500000 0.500000
vt 0.500000 0.500000
vt 0.500000 0.500000
vt 0.500000 0.500000
vt 0.500000 0.500000
vt 0.500000 0.500000
vt 0.500000 0.500000
vt 0.500000 0.500000
vt 0.500000 0.500000
vt 0.500000 0.500000
vt 0.500000 0.500000
vt 0.500000 0.500000
vt 0.500000 0.500000
vt 0.500000 0.500000
vt 0.500000 0.500000
vt 0.500000 0.500000
vt 0.500000 0.500000
vt 0.500000 0.500000
vt 0.500000 0.500000
vt 0.500000 0.500000
vt 0.500000 0.500000
vt 0.500000 0.500000
vt 0.500000 0.500000
vt 0.500000 0.500000
vt 0.500000 0.500000
vt 0.500000 0.500000
vt 0.500000 0.500000
vt 0.500000 0.500000
vt 0.500000 0.500000
vt 0.500000 0.500000
vt 0.500000 0.500000
vt 0.500000 0.500000
vt 0.500000 0.500000
vt 0.500000 0.500000
vt 0.500000 0.500000
vt 0.500000 0.500000
vt 0.500000 0.500000
vt 0.500000 0.500000
vt 0.500000 0.500000
vt 0.500000 0.500000
vt 0.500000 0.500000
vt 0.500000 0.500000
vt 0.500000 0.500000
vt 0.500000 0.500000
vt 0.500000 0.500000
vt 0.500000 0.500000
vt 0.500000 0.500000
vt 0.500000 0.500000
vt 0.500000 0.500000
vt 0.500000 0.500000
vt 0.500000 0.500000
vt 0.500000 0.500000
vt 0.500000 0.500000
vt 0.500000 0.500000
vt 0.500000 0.500000
vt 0.343131 0.284155
vt 0.336434 0.287287
vt 0.329531 0.279991
vt 0.359635 0.328404
vt 0.359272 0.333982
vt 0.354144 0.336107
vt 0.385728 0.282849
vt 0.382636 0.288299
vt 0.375352 0.252876
vt 0.371837 0.320445
vt 0.384609 0.301945
vt 0.385664 0.335364
vt 0.357732 0.314751
vt 0.357854 0.321167
vt 0.346058 0.302877
vt 0.359369 0.252850
vt 0.369207 0.251219
vt 0.371888 0.314243
vt 0.367762 0.311044
vt 0.382259 0.296375
vt 0.401349 0.315991
vt 0.389373 0.301605
vt 0.401316 0.305659
vt 0.402549 0.268224
vt 0.346561 0.253425
vt 0.348590 0.283356
vt 0.331443 0.317464
vt 0.331006 0.307955
vt 0.341078 0.303281
vt 0.330335 0.268797
vt 0.403221 0.279091
vt 0.397217 0.286291
vt 0.391176 0.283400
vt 0.370753 0.240288
vt 0.368659 0.246519
vt 0.356999 0.240364
vt 0.361832 0.311227
vt 0.350663 0.288690
vt 0.354406 0.254460
vt 0.394945 0.298879
vt 0.399397 0.299017
vt 0.346343 0.335727
vt 0.331237 0.287179
vt 0.349555 0.296880
vt 0.370266 0.327596
vt 0.376984 0.335517
vt 0.335990 0.301283
vt 0.400000 0.250000
vt 0.401737 0.286102
vt 0.359288 0.247500
vt 0.366988 0.231363
vt 0.360798 0.231099
vt 0.400000 0.333333
vt 0.371174 0.234633
vt 0.371090 0.333221
vt 0.333333 0.250000
vt 0.332283 0.301720
vt 0.333333 0.333333
vt 0.356589 0.234160
vn 0.0000 -1.0000 0.0000
vn 0.9992 0.0000 -0.0389
vn 0.9492 0.0000 0.3146
vn 0.9547 0.0000 -0.2975
vn 0.9999 0.0000 0.0141
vn 0.0809 0.0000 0.9967
vn 0.9893 0.0000 -0.1456
vn 0.9936 0.0000 0.1126
vn 0.1801 0.0000 -0.9836
vn -0.2941 0.0000 0.9558
vn -0.2649 0.0000 -0.9643
vn 0.1473 0.0000 -0.9891
vn 0.0968 0.0000 0.9953
vn -0.0237 0.0000 0.9997
vn -0.0103 0.0000 -0.9999
vn 0.0574 0.0000 -0.9983
vn -0.0041 0.0000 1.0000
vn 0.8241 0.0000 0.5664
vn 0.8499 0.0000 -0.5269
vn 0.9997 0.0000 0.0247
vn -0.2481 0.0000 -0.9687
vn -0.9984 0.0000 -0.0569
vn -0.3397 0.0000 0.9405
vn -0.9956 0.0000 -0.0938
vn -0.9540 0.0000 0.2997
vn -0.9979 0.0000 -0.0648
vn -0.5892 0.0000 -0.8080
vn -0.4666 0.0000 0.8845
vn -0.9312 0.0000 -0.3645
vn -0.9997 0.0000 0.0248
vn -0.1668 0.0000 -0.9860
vn 0.0582 0.0000 0.9983
vn 0.4371 0.0000 -0.8994
vn 0.5786 0.0000 0.8156
vn 0.9999 0.0000 -0.0165
vn 0.9366 0.0000 0.3503
vn 0.2845 0.0000 -0.9587
vn 0.9339 0.0000 -0.3575
vn 0.9994 0.0000 0.0334
vn 0.2559 0.0000 0.9667
vn 0.9932 0.0000 0.1163
vn 0.9967 0.0000 -0.0806
vn -0.0895 0.0000 -0.9960
vn -0.0771 0.0000 0.9970
vn -0.1956 0.0000 -0.9807
vn -0.9792 0.0000 0.2028
vn -0.9945 0.0000 0.1050
vn -0.9679 0.0000 -0.2512
vn -0.9775 0.0000 0.2107
vn 0.0190 0.0000 -0.9998
vn -0.9957 0.0000 -0.0929
vn -0.1722 0.0000 0.9851
vn -0.1442 0.0000 0.9896
vn 0.3722 0.0000 -0.9281
vn 0.3874 0.0000 0.9219
vn 0.0824 0.0000 -0.9966
vn 0.0925 0.0000 0.9957
vn -0.8481 0.0000 0.5299
vn -0.8644 0.0000 -0.5028
vn -0.9994 0.0000 0.0342
vn 0.0000 1.0000 -0.0000
usemtl BackMat.001
s off
f 239/1/1 240/2/1 238/3/1
f 202/4/1 195/5/1 196/6/1
f 235/7/1 254/8/1 232/9/1
f 209/10/1 201/11/1 221/12/1
f 212/13/1 227/14/1 208/15/1
f 252/16/1 232/9/1 255/17/1
f 213/18/1 229/19/1 217/20/1
f 211/21/1 215/22/1 220/23/1
f 254/8/1 235/7/1 247/24/1
f 239/1/1 233/25/1 250/26/1
f 210/27/1 226/28/1 214/29/1
f 209/10/1 221/12/1 213/18/1
f 240/2/1 239/1/1 246/30/1
f 245/31/1 241/32/1 242/33/1
f 262/34/1 261/35/1 260/36/1
f 217/20/1 231/37/1 216/38/1
f 247/24/1 241/32/1 245/31/1
f 246/30/1 239/1/1 250/26/1
f 210/27/1 227/14/1 226/28/1
f 220/23/1 221/12/1 201/11/1
f 233/25/1 252/16/1 251/39/1
f 230/40/1 215/22/1 223/41/1
f 208/15/1 227/14/1 194/42/1
f 217/20/1 232/9/1 231/37/1
f 229/19/1 213/18/1 221/12/1
f 231/37/1 232/9/1 233/25/1
f 238/3/1 240/2/1 236/43/1
f 216/38/1 228/44/1 212/13/1
f 255/17/1 232/9/1 254/8/1
f 212/13/1 228/44/1 227/14/1
f 235/7/1 241/32/1 247/24/1
f 220/23/1 215/22/1 230/40/1
f 207/45/1 200/46/1 209/10/1
f 226/28/1 225/47/1 214/29/1
f 254/8/1 247/24/1 258/48/1
f 194/42/1 227/14/1 210/27/1
f 245/31/1 242/33/1 243/49/1
f 257/50/1 260/36/1 261/35/1
f 257/50/1 255/17/1 260/36/1
f 267/51/1 268/52/1 261/35/1
f 205/53/1 211/21/1 201/11/1
f 211/21/1 220/23/1 201/11/1
f 267/51/1 262/34/1 265/54/1
f 217/20/1 229/19/1 232/9/1
f 198/55/1 200/46/1 207/45/1
f 252/16/1 255/17/1 257/50/1
f 246/30/1 250/26/1 248/56/1
f 233/25/1 251/39/1 250/26/1
f 216/38/1 231/37/1 228/44/1
f 233/25/1 232/9/1 252/16/1
f 208/15/1 195/5/1 202/4/1
f 200/46/1 201/11/1 209/10/1
f 214/29/1 225/47/1 218/57/1
f 267/51/1 261/35/1 262/34/1
f 195/5/1 208/15/1 194/42/1
f 194/42/1 210/27/1 203/58/1
f 261/35/1 268/52/1 263/59/1
f 1/60/2 2/61/2 61/62/2 60/63/2
f 2/61/3 122/64/3 197/65/3 61/62/3
f 124/66/4 13/67/4 72/68/4 199/69/4
f 13/67/5 14/70/5 73/71/5 72/68/5
f 3/72/6 4/73/6 63/74/6 62/75/6
f 129/76/7 1/60/7 60/63/7 204/77/7
f 14/70/8 131/78/8 206/79/8 73/71/8
f 11/80/9 12/81/9 71/82/9 70/83/9
f 4/73/10 5/84/10 64/85/10 63/74/10
f 10/86/11 11/80/11 70/83/11 69/87/11
f 58/88/12 59/89/12 118/90/12 117/91/12
f 15/92/13 16/93/13 75/94/13 74/95/13
f 5/84/14 6/96/14 65/97/14 64/85/14
f 9/98/15 10/86/15 69/87/15 68/99/15
f 57/100/16 58/88/16 117/91/16 116/101/16
f 16/93/17 17/102/17 76/103/17 75/94/17
f 6/96/18 7/104/18 66/105/18 65/97/18
f 8/106/19 9/98/19 68/99/19 67/107/19
f 7/104/20 8/106/20 67/107/20 66/105/20
f 144/108/21 57/100/21 116/101/21 219/109/21
f 20/110/22 147/111/22 222/112/22 79/113/22
f 17/102/23 149/114/23 224/115/23 76/103/23
f 55/116/24 56/117/24 115/118/24 114/119/24
f 54/120/25 55/116/25 114/119/25 113/121/25
f 53/122/26 54/120/26 113/121/26 112/123/26
f 52/124/27 53/122/27 112/123/27 111/125/27
f 21/126/28 22/127/28 81/128/28 80/129/28
f 19/130/29 20/110/29 79/113/29 78/131/29
f 18/132/30 19/130/30 78/131/30 77/133/30
f 51/134/31 52/124/31 111/125/31 110/135/31
f 22/127/32 23/136/32 82/137/32 81/128/32
f 159/138/33 51/134/33 110/135/33 234/139/33
f 23/136/34 24/140/34 83/141/34 82/137/34
f 162/142/35 48/143/35 107/144/35 237/145/35
f 48/143/36 49/146/36 108/147/36 107/144/36
f 46/148/37 47/149/37 106/150/37 105/151/37
f 25/152/38 26/153/38 85/154/38 84/155/38
f 26/153/39 169/156/39 244/157/39 85/154/39
f 27/158/40 28/159/40 87/160/40 86/161/40
f 49/146/41 50/162/41 109/163/41 108/147/41
f 24/140/42 25/152/42 84/155/42 83/141/42
f 45/164/43 46/148/43 105/151/43 104/165/43
f 28/159/44 29/166/44 88/167/44 87/160/44
f 174/168/45 45/164/45 104/165/45 249/169/45
f 43/170/46 44/171/46 103/172/46 102/173/46
f 42/174/47 43/170/47 102/173/47 101/175/47
f 178/176/48 42/174/48 101/175/48 253/177/48
f 31/178/49 181/179/49 256/180/49 90/181/49
f 40/182/50 41/183/50 100/184/50 99/185/50
f 184/186/51 31/178/51 90/181/51 259/187/51
f 29/166/52 30/188/52 89/189/52 88/167/52
f 32/190/53 33/191/53 92/192/53 91/193/53
f 39/194/54 40/182/54 99/185/54 98/195/54
f 33/191/55 34/196/55 93/197/55 92/192/55
f 189/198/56 39/194/56 98/195/56 264/199/56
f 34/196/57 191/200/57 266/201/57 93/197/57
f 35/202/58 36/203/58 95/204/58 94/205/58
f 37/206/59 38/207/59 97/208/59 96/209/59
f 36/203/60 37/206/60 96/209/60 95/204/60
usemtl FrontMat.001
f 164/210/61 163/211/61 165/212/61
f 127/213/61 121/214/61 120/215/61
f 160/216/61 157/217/61 179/218/61
f 134/219/61 146/220/61 126/221/61
f 137/222/61 133/223/61 152/224/61
f 177/225/61 180/226/61 157/217/61
f 138/227/61 142/228/61 154/229/61
f 136/230/61 145/231/61 140/232/61
f 179/218/61 172/233/61 160/216/61
f 164/210/61 175/234/61 158/235/61
f 135/236/61 139/237/61 151/238/61
f 134/219/61 138/227/61 146/220/61
f 165/212/61 171/239/61 164/210/61
f 170/240/61 167/241/61 166/242/61
f 187/243/61 185/244/61 186/245/61
f 142/228/61 141/246/61 156/247/61
f 172/233/61 170/240/61 166/242/61
f 171/239/61 175/234/61 164/210/61
f 135/236/61 151/238/61 152/224/61
f 145/231/61 126/221/61 146/220/61
f 158/235/61 176/248/61 177/225/61
f 155/249/61 148/250/61 140/232/61
f 133/223/61 119/251/61 152/224/61
f 142/228/61 156/247/61 157/217/61
f 154/229/61 146/220/61 138/227/61
f 156/247/61 158/235/61 157/217/61
f 163/211/61 161/252/61 165/212/61
f 141/246/61 137/222/61 153/253/61
f 180/226/61 179/218/61 157/217/61
f 137/222/61 152/224/61 153/253/61
f 160/216/61 172/233/61 166/242/61
f 145/231/61 155/249/61 140/232/61
f 132/254/61 134/219/61 125/255/61
f 151/238/61 139/237/61 150/256/61
f 179/218/61 183/257/61 172/233/61
f 119/251/61 135/236/61 152/224/61
f 170/240/61 168/258/61 167/241/61
f 182/259/61 186/245/61 185/244/61
f 182/259/61 185/244/61 180/226/61
f 192/260/61 186/245/61 193/261/61
f 130/262/61 126/221/61 136/230/61
f 136/230/61 126/221/61 145/231/61
f 192/260/61 190/263/61 187/243/61
f 142/228/61 157/217/61 154/229/61
f 123/264/61 132/254/61 125/255/61
f 177/225/61 182/259/61 180/226/61
f 171/239/61 173/265/61 175/234/61
f 158/235/61 175/234/61 176/248/61
f 141/246/61 153/253/61 156/247/61
f 158/235/61 177/225/61 157/217/61
f 133/223/61 127/213/61 120/215/61
f 125/255/61 134/219/61 126/221/61
f 139/237/61 143/266/61 150/256/61
f 192/260/61 187/243/61 186/245/61
f 120/215/61 119/251/61 133/223/61
f 119/251/61 128/267/61 135/236/61
f 186/245/61 188/268/61 193/261/61
