# Blender v2.83.1 OBJ File: 'jigsaw-15x12-3-step2.blend'
# www.blender.org
mtllib piece.45.mtl
o path458
v -0.460853 0.037500 0.278952
v -0.462809 0.037500 0.165035
v -0.491811 0.037500 0.093247
v -0.556530 0.037500 0.094799
v -0.634772 0.037500 0.126880
v -0.696629 0.037500 0.128164
v -0.718310 0.037500 0.057862
v -0.700494 0.037500 -0.042683
v -0.649981 0.037500 -0.111599
v -0.576404 0.037500 -0.108233
v -0.500746 0.037500 -0.076806
v -0.446823 0.037500 -0.082765
v -0.431338 0.037500 -0.171219
v -0.478137 0.037500 -0.530666
v 0.523561 0.037500 -0.530666
v 0.573642 0.037500 -0.305265
v 0.591315 0.037500 -0.171248
v 0.575138 0.037500 -0.085692
v 0.510341 0.037500 -0.085357
v 0.421756 0.037500 -0.122768
v 0.344110 0.037500 -0.129407
v 0.305579 0.037500 -0.058970
v 0.308127 0.037500 0.046014
v 0.347165 0.037500 0.120793
v 0.414640 0.037500 0.121832
v 0.488664 0.037500 0.090458
v 0.543888 0.037500 0.089212
v 0.562174 0.037500 0.161854
v 0.554234 0.037500 0.276982
v 0.523561 0.037500 0.471243
v 0.308731 0.037500 0.450460
v 0.180489 0.037500 0.450153
v 0.097462 0.037500 0.477285
v 0.094275 0.037500 0.541348
v 0.125655 0.037500 0.621417
v 0.126360 0.037500 0.688964
v 0.052744 0.037500 0.720268
v -0.052441 0.037500 0.710847
v -0.124843 0.037500 0.661031
v -0.121629 0.037500 0.576594
v -0.086047 0.037500 0.485085
v -0.082860 0.037500 0.419486
v -0.157301 0.037500 0.403140
v -0.276478 0.037500 0.420870
v -0.478137 0.037500 0.471243
v -0.460853 -0.037500 0.278952
v -0.462809 -0.037500 0.165035
v -0.491811 -0.037500 0.093247
v -0.556530 -0.037500 0.094799
v -0.634772 -0.037500 0.126880
v -0.696629 -0.037500 0.128164
v -0.718310 -0.037500 0.057862
v -0.700494 -0.037500 -0.042683
v -0.649981 -0.037500 -0.111599
v -0.576404 -0.037500 -0.108233
v -0.500746 -0.037500 -0.076806
v -0.446823 -0.037500 -0.082765
v -0.431338 -0.037500 -0.171219
v -0.478137 -0.037500 -0.530666
v 0.523561 -0.037500 -0.530666
v 0.573642 -0.037500 -0.305265
v 0.591315 -0.037500 -0.171248
v 0.575138 -0.037498 -0.085692
v 0.510341 -0.037500 -0.085357
v 0.421756 -0.037500 -0.122768
v 0.344110 -0.037500 -0.129407
v 0.305579 -0.037500 -0.058970
v 0.308127 -0.037498 0.046014
v 0.347165 -0.037500 0.120793
v 0.414640 -0.037500 0.121832
v 0.488664 -0.037500 0.090458
v 0.543888 -0.037498 0.089212
v 0.562174 -0.037500 0.161854
v 0.554234 -0.037500 0.276982
v 0.523561 -0.037500 0.471243
v 0.308731 -0.037500 0.450460
v 0.180489 -0.037500 0.450153
v 0.097462 -0.037500 0.477285
v 0.094275 -0.037500 0.541348
v 0.125655 -0.037498 0.621417
v 0.126360 -0.037500 0.688964
v 0.052744 -0.037500 0.720268
v -0.052441 -0.037498 0.710847
v -0.124843 -0.037500 0.661031
v -0.121629 -0.037500 0.576594
v -0.086047 -0.037498 0.485085
v -0.082860 -0.037500 0.419486
v -0.157301 -0.037500 0.403140
v -0.276478 -0.037500 0.420870
v -0.478137 -0.037500 0.471243
v -0.696629 0.037500 0.128164
v -0.696629 0.037500 0.128164
v -0.718310 0.037500 0.057862
v -0.700494 0.037500 -0.042683
v -0.649981 0.037500 -0.111599
v -0.634772 0.037500 0.126880
v -0.576404 0.037500 -0.108233
v -0.556530 0.037500 0.094799
v -0.500746 0.037500 -0.076806
v -0.491811 0.037500 0.093247
v -0.491811 0.037500 0.093247
v -0.446823 0.037500 -0.082765
v -0.446823 0.037500 -0.082765
v -0.462809 0.037500 0.165035
v -0.478137 0.037500 -0.530666
v -0.478137 0.037500 -0.530666
v 0.523561 0.037500 -0.530666
v 0.523561 0.037500 -0.530666
v -0.478137 0.037500 0.471243
v -0.478137 0.037500 0.471243
v -0.460853 0.037500 0.278952
v -0.431338 0.037500 -0.171219
v -0.276478 0.037500 0.420870
v -0.157301 0.037500 0.403140
v -0.082860 0.037500 0.419486
v -0.082860 0.037500 0.419486
v -0.052441 0.037500 0.710847
v -0.124843 0.037500 0.661031
v -0.121629 0.037500 0.576594
v -0.086047 0.037500 0.485085
v 0.052744 0.037500 0.720268
v 0.126360 0.037500 0.688964
v 0.126360 0.037500 0.688964
v 0.097462 0.037500 0.477285
v 0.097462 0.037500 0.477285
v 0.094275 0.037500 0.541348
v 0.125655 0.037500 0.621417
v 0.180489 0.037500 0.450153
v 0.308731 0.037500 0.450460
v 0.305579 0.037500 -0.058970
v 0.308127 0.037500 0.046014
v 0.344110 0.037500 -0.129407
v 0.344110 0.037500 -0.129407
v 0.347165 0.037500 0.120793
v 0.347165 0.037500 0.120793
v 0.421756 0.037500 -0.122768
v 0.414640 0.037500 0.121832
v 0.488664 0.037500 0.090458
v 0.510341 0.037500 -0.085357
v 0.523561 0.037500 0.471243
v 0.523561 0.037500 0.471243
v 0.543888 0.037500 0.089212
v 0.543888 0.037500 0.089212
v 0.575138 0.037500 -0.085692
v 0.575138 0.037500 -0.085692
v 0.554234 0.037500 0.276982
v 0.562174 0.037500 0.161854
v 0.573642 0.037500 -0.305265
v 0.591315 0.037500 -0.171248
v -0.696629 -0.037500 0.128164
v -0.696629 -0.037500 0.128164
v -0.718310 -0.037500 0.057862
v -0.700494 -0.037500 -0.042683
v -0.649981 -0.037500 -0.111599
v -0.634772 -0.037500 0.126880
v -0.576404 -0.037500 -0.108233
v -0.556530 -0.037500 0.094799
v -0.500746 -0.037500 -0.076806
v -0.491811 -0.037500 0.093247
v -0.491811 -0.037500 0.093247
v -0.446823 -0.037500 -0.082765
v -0.446823 -0.037500 -0.082765
v -0.462809 -0.037500 0.165035
v -0.478137 -0.037500 -0.530666
v -0.478137 -0.037500 -0.530666
v 0.523561 -0.037500 -0.530666
v 0.523561 -0.037500 -0.530666
v -0.478137 -0.037500 0.471243
v -0.478137 -0.037500 0.471243
v -0.460853 -0.037500 0.278952
v -0.431338 -0.037500 -0.171219
v -0.276478 -0.037500 0.420870
v -0.157301 -0.037500 0.403140
v -0.082860 -0.037500 0.419486
v -0.082860 -0.037500 0.419486
v -0.052441 -0.037498 0.710847
v -0.124843 -0.037500 0.661031
v -0.121629 -0.037500 0.576594
v -0.086047 -0.037498 0.485085
v 0.052744 -0.037500 0.720268
v 0.126360 -0.037500 0.688964
v 0.126360 -0.037500 0.688964
v 0.097462 -0.037500 0.477285
v 0.097462 -0.037500 0.477285
v 0.094275 -0.037500 0.541348
v 0.125655 -0.037498 0.621417
v 0.180489 -0.037500 0.450153
v 0.308731 -0.037500 0.450460
v 0.305579 -0.037500 -0.058970
v 0.308127 -0.037498 0.046014
v 0.344110 -0.037500 -0.129407
v 0.344110 -0.037500 -0.129407
v 0.347165 -0.037500 0.120793
v 0.347165 -0.037500 0.120793
v 0.421756 -0.037500 -0.122768
v 0.414640 -0.037500 0.121832
v 0.488664 -0.037500 0.090458
v 0.510341 -0.037500 -0.085357
v 0.523561 -0.037500 0.471243
v 0.523561 -0.037500 0.471243
v 0.543888 -0.037498 0.089212
v 0.543888 -0.037498 0.089212
v 0.575138 -0.037498 -0.085692
v 0.575138 -0.037498 -0.085692
v 0.554234 -0.037500 0.276982
v 0.562174 -0.037500 0.161854
v 0.573642 -0.037500 -0.305265
v 0.591315 -0.037500 -0.171248
vt 0.500000 0.500000
vt 0.500000 0.500000
vt 0.500000 0.500000
vt 0.500000 0.500000
vt 0.500000 0.500000
vt 0.500000 0.500000
vt 0.500000 0.500000
vt 0.500000 0.500000
vt 0.500000 0.500000
vt 0.500000 0.500000
vt 0.500000 0.500000
vt 0.500000 0.500000
vt 0.500000 0.500000
vt 0.500000 0.500000
vt 0.500000 0.500000
vt 0.500000 0.500000
vt 0.500000 0.500000
vt 0.500000 0.500000
vt 0.500000 0.500000
vt 0.500000 0.500000
vt 0.500000 0.500000
vt 0.500000 0.500000
vt 0.500000 0.500000
vt 0.500000 0.500000
vt 0.500000 0.500000
vt 0.500000 0.500000
vt 0.500000 0.500000
vt 0.500000 0.500000
vt 0.500000 0.500000
vt 0.500000 0.500000
vt 0.500000 0.500000
vt 0.500000 0.500000
vt 0.500000 0.500000
vt 0.500000 0.500000
vt 0.500000 0.500000
vt 0.500000 0.500000
vt 0.500000 0.500000
vt 0.500000 0.500000
vt 0.500000 0.500000
vt 0.500000 0.500000
vt 0.500000 0.500000
vt 0.500000 0.500000
vt 0.500000 0.500000
vt 0.500000 0.500000
vt 0.500000 0.500000
vt 0.500000 0.500000
vt 0.500000 0.500000
vt 0.500000 0.500000
vt 0.500000 0.500000
vt 0.500000 0.500000
vt 0.500000 0.500000
vt 0.500000 0.500000
vt 0.500000 0.500000
vt 0.500000 0.500000
vt 0.500000 0.500000
vt 0.500000 0.500000
vt 0.500000 0.500000
vt 0.500000 0.500000
vt 0.500000 0.500000
vt 0.500000 0.500000
vt 0.500000 0.500000
vt 0.500000 0.500000
vt 0.500000 0.500000
vt 0.500000 0.500000
vt 0.500000 0.500000
vt 0.500000 0.500000
vt 0.500000 0.500000
vt 0.500000 0.500000
vt 0.500000 0.500000
vt 0.500000 0.500000
vt 0.500000 0.500000
vt 0.500000 0.500000
vt 0.500000 0.500000
vt 0.500000 0.500000
vt 0.500000 0.500000
vt 0.500000 0.500000
vt 0.500000 0.500000
vt 0.500000 0.500000
vt 0.500000 0.500000
vt 0.500000 0.500000
vt 0.500000 0.500000
vt 0.500000 0.500000
vt 0.500000 0.500000
vt 0.500000 0.500000
vt 0.500000 0.500000
vt 0.500000 0.500000
vt 0.500000 0.500000
vt 0.500000 0.500000
vt 0.500000 0.500000
vt 0.500000 0.500000
vt 0.500000 0.500000
vt 0.500000 0.500000
vt 0.500000 0.500000
vt 0.500000 0.500000
vt 0.500000 0.500000
vt 0.500000 0.500000
vt 0.500000 0.500000
vt 0.500000 0.500000
vt 0.500000 0.500000
vt 0.500000 0.500000
vt 0.500000 0.500000
vt 0.500000 0.500000
vt 0.500000 0.500000
vt 0.500000 0.500000
vt 0.500000 0.500000
vt 0.500000 0.500000
vt 0.500000 0.500000
vt 0.500000 0.500000
vt 0.500000 0.500000
vt 0.500000 0.500000
vt 0.500000 0.500000
vt 0.500000 0.500000
vt 0.500000 0.500000
vt 0.500000 0.500000
vt 0.500000 0.500000
vt 0.500000 0.500000
vt 0.500000 0.500000
vt 0.500000 0.500000
vt 0.500000 0.500000
vt 0.500000 0.500000
vt 0.500000 0.500000
vt 0.500000 0.500000
vt 0.500000 0.500000
vt 0.500000 0.500000
vt 0.500000 0.500000
vt 0.500000 0.500000
vt 0.500000 0.500000
vt 0.500000 0.500000
vt 0.500000 0.500000
vt 0.500000 0.500000
vt 0.500000 0.500000
vt 0.500000 0.500000
vt 0.500000 0.500000
vt 0.500000 0.500000
vt 0.500000 0.500000
vt 0.500000 0.500000
vt 0.500000 0.500000
vt 0.500000 0.500000
vt 0.500000 0.500000
vt 0.500000 0.500000
vt 0.500000 0.500000
vt 0.500000 0.500000
vt 0.500000 0.500000
vt 0.500000 0.500000
vt 0.500000 0.500000
vt 0.500000 0.500000
vt 0.500000 0.500000
vt 0.500000 0.500000
vt 0.500000 0.500000
vt 0.500000 0.500000
vt 0.500000 0.500000
vt 0.500000 0.500000
vt 0.500000 0.500000
vt 0.500000 0.500000
vt 0.500000 0.500000
vt 0.500000 0.500000
vt 0.500000 0.500000
vt 0.500000 0.500000
vt 0.500000 0.500000
vt 0.500000 0.500000
vt 0.500000 0.500000
vt 0.500000 0.500000
vt 0.500000 0.500000
vt 0.960840 0.853314
vt 0.956162 0.851510
vt 0.956247 0.846364
vt 0.934716 0.767872
vt 0.933333 0.750000
vt 0.946259 0.747448
vt 0.976083 0.829440
vt 0.970197 0.830728
vt 0.968613 0.768134
vt 0.958382 0.839855
vt 0.971891 0.841508
vt 0.967530 0.851832
vt 0.916763 0.789168
vt 0.918846 0.783044
vt 0.923341 0.783103
vt 0.961628 0.767922
vt 0.936777 0.800449
vt 0.934737 0.778541
vt 0.969800 0.835214
vt 0.958485 0.834471
vt 0.932412 0.800714
vt 0.932931 0.785448
vt 0.917390 0.797919
vt 0.928669 0.785713
vt 0.985002 0.745834
vt 1.000000 0.750000
vt 0.973300 0.764929
vt 0.976084 0.744363
vt 0.972859 0.758469
vt 0.953708 0.832058
vt 0.946128 0.831895
vt 0.936685 0.816557
vt 0.970369 0.751100
vt 0.972115 0.847629
vt 1.000000 0.833333
vt 0.958753 0.748309
vt 0.958671 0.752903
vt 0.953920 0.746788
vt 0.937865 0.806642
vt 0.956583 0.759061
vt 0.926323 0.803675
vt 0.956652 0.764675
vt 0.933333 0.833333
vt 0.970392 0.745709
vt 0.920705 0.803942
vn 0.0000 -1.0000 0.0000
vn -0.9556 0.0000 0.2947
vn -0.9847 0.0000 -0.1745
vn -0.8065 0.0000 -0.5912
vn 0.0208 0.0000 0.9998
vn 0.0457 0.0000 -0.9990
vn 0.3794 0.0000 0.9252
vn 0.3836 0.0000 -0.9235
vn 0.0240 0.0000 0.9997
vn -0.1098 0.0000 -0.9940
vn -0.9272 0.0000 0.3746
vn 0.0000 0.0000 -1.0000
vn -0.9960 0.0000 -0.0895
vn -0.9999 0.0000 0.0172
vn -0.9850 0.0000 -0.1724
vn -0.9916 0.0000 0.1291
vn 0.2423 0.0000 0.9702
vn 0.1471 0.0000 0.9891
vn -0.2145 0.0000 0.9767
vn -0.5668 0.0000 0.8238
vn -0.9993 0.0000 -0.0380
vn -0.9320 0.0000 -0.3624
vn -0.9988 0.0000 -0.0485
vn -0.0892 0.0000 0.9960
vn 0.3913 0.0000 0.9203
vn 0.9988 0.0000 0.0497
vn 0.9999 0.0000 -0.0104
vn 0.9310 0.0000 -0.3649
vn 0.3106 0.0000 0.9505
vn -0.0024 0.0000 1.0000
vn 0.9997 0.0000 -0.0243
vn 0.8773 0.0000 0.4799
vn 0.8865 0.0000 -0.4628
vn -0.0852 0.0000 0.9964
vn 0.0154 0.0000 -0.9999
vn -0.3902 0.0000 -0.9207
vn -0.3890 0.0000 0.9212
vn -0.0963 0.0000 0.9954
vn -0.0225 0.0000 -0.9997
vn 0.0052 0.0000 1.0000
vn 0.9878 0.0000 0.1560
vn 0.9976 0.0000 0.0688
vn 0.9697 0.0000 -0.2441
vn 0.9762 0.0000 -0.2169
vn 0.9826 0.0000 0.1858
vn 0.9914 0.0000 -0.1307
vn 0.0000 1.0000 -0.0000
usemtl BackMat.001
s off
f 152/1/1 155/2/1 150/3/1
f 188/4/1 205/5/1 199/6/1
f 171/7/1 189/8/1 161/9/1
f 157/10/1 153/11/1 156/12/1
f 180/13/1 186/14/1 181/15/1
f 190/16/1 187/17/1 174/18/1
f 161/9/1 159/19/1 158/20/1
f 174/18/1 183/21/1 179/22/1
f 190/16/1 161/9/1 189/8/1
f 176/23/1 185/24/1 180/13/1
f 207/25/1 191/26/1 166/27/1
f 159/19/1 157/10/1 158/20/1
f 208/28/1 195/29/1 207/25/1
f 163/30/1 172/31/1 170/32/1
f 195/29/1 208/28/1 198/33/1
f 161/9/1 163/30/1 159/19/1
f 152/1/1 157/10/1 155/2/1
f 156/12/1 153/11/1 154/34/1
f 166/27/1 191/26/1 164/35/1
f 201/36/1 206/37/1 197/38/1
f 174/18/1 187/17/1 183/21/1
f 161/9/1 173/39/1 163/30/1
f 173/39/1 172/31/1 163/30/1
f 164/35/1 191/26/1 171/7/1
f 205/5/1 196/40/1 206/37/1
f 179/22/1 185/24/1 178/41/1
f 187/17/1 193/42/1 188/4/1
f 173/39/1 190/16/1 174/18/1
f 193/42/1 187/17/1 190/16/1
f 207/25/1 195/29/1 191/26/1
f 170/32/1 172/31/1 168/43/1
f 198/33/1 208/28/1 203/44/1
f 185/24/1 186/14/1 180/13/1
f 197/38/1 206/37/1 196/40/1
f 178/41/1 176/23/1 177/45/1
f 196/40/1 188/4/1 193/42/1
f 158/20/1 157/10/1 156/12/1
f 178/41/1 185/24/1 176/23/1
f 161/9/1 190/16/1 173/39/1
f 153/11/1 157/10/1 152/1/1
f 191/26/1 189/8/1 171/7/1
f 179/22/1 183/21/1 185/24/1
f 205/5/1 188/4/1 196/40/1
f 92/46/2 7/47/2 52/48/2 151/49/2
f 7/47/3 8/50/3 53/51/3 52/48/3
f 8/50/4 9/52/4 54/53/4 53/51/4
f 5/54/5 6/55/5 51/56/5 50/57/5
f 9/52/6 10/58/6 55/59/6 54/53/6
f 4/60/7 5/54/7 50/57/7 49/61/7
f 10/58/8 11/62/8 56/63/8 55/59/8
f 101/64/9 4/60/9 49/61/9 160/65/9
f 11/62/10 103/66/10 162/67/10 56/63/10
f 2/68/11 3/69/11 48/70/11 47/71/11
f 106/72/12 108/73/12 167/74/12 165/75/12
f 110/76/13 1/77/13 46/78/13 169/79/13
f 1/77/14 2/68/14 47/71/14 46/78/14
f 12/80/15 13/81/15 58/82/15 57/83/15
f 13/81/16 14/84/16 59/85/16 58/82/16
f 44/86/17 45/87/17 90/88/17 89/89/17
f 43/90/18 44/86/18 89/89/18 88/91/18
f 116/92/19 43/90/19 88/91/19 175/93/19
f 38/94/20 39/95/20 84/96/20 83/97/20
f 39/95/21 40/98/21 85/99/21 84/96/21
f 40/98/22 41/100/22 86/101/22 85/99/22
f 41/100/23 42/102/23 87/103/23 86/101/23
f 37/104/24 38/94/24 83/97/24 82/105/24
f 123/106/25 37/104/25 82/105/25 182/107/25
f 125/108/26 34/109/26 79/110/26 184/111/26
f 35/112/27 36/113/27 81/114/27 80/115/27
f 34/109/28 35/112/28 80/115/28 79/110/28
f 32/116/29 33/117/29 78/118/29 77/119/29
f 31/120/30 32/116/30 77/119/30 76/121/30
f 22/122/31 23/123/31 68/124/31 67/125/31
f 133/126/32 22/122/32 67/125/32 192/127/32
f 23/123/33 135/128/33 194/129/33 68/124/33
f 20/130/34 21/131/34 66/132/34 65/133/34
f 24/134/35 25/135/35 70/136/35 69/137/35
f 25/135/36 26/138/36 71/139/36 70/136/36
f 19/140/37 20/130/37 65/133/37 64/141/37
f 141/142/38 31/120/38 76/121/38 200/143/38
f 26/138/39 143/144/39 202/145/39 71/139/39
f 145/146/40 19/140/40 64/141/40 204/147/40
f 29/148/41 30/149/41 75/150/41 74/151/41
f 28/152/42 29/148/42 74/151/42 73/153/42
f 27/154/43 28/152/43 73/153/43 72/155/43
f 15/156/44 16/157/44 61/158/44 60/159/44
f 17/160/45 18/161/45 63/162/45 62/163/45
f 16/157/46 17/160/46 62/163/46 61/158/46
usemtl FrontMat.001
f 93/164/47 91/165/47 96/166/47
f 129/167/47 140/168/47 146/169/47
f 112/170/47 102/171/47 130/172/47
f 98/173/47 97/174/47 94/175/47
f 121/176/47 122/177/47 127/178/47
f 131/179/47 115/180/47 128/181/47
f 102/171/47 99/182/47 100/183/47
f 115/180/47 120/184/47 124/185/47
f 131/179/47 130/172/47 102/171/47
f 117/186/47 121/176/47 126/187/47
f 148/188/47 107/189/47 132/190/47
f 100/183/47 99/182/47 98/173/47
f 149/191/47 148/188/47 136/192/47
f 104/193/47 111/194/47 113/195/47
f 136/192/47 139/196/47 149/191/47
f 102/171/47 100/183/47 104/193/47
f 93/164/47 96/166/47 98/173/47
f 97/174/47 95/197/47 94/175/47
f 107/189/47 105/198/47 132/190/47
f 142/199/47 138/200/47 147/201/47
f 115/180/47 124/185/47 128/181/47
f 102/171/47 104/193/47 114/202/47
f 114/202/47 104/193/47 113/195/47
f 105/198/47 112/170/47 132/190/47
f 146/169/47 147/201/47 137/203/47
f 120/184/47 119/204/47 126/187/47
f 128/181/47 129/167/47 134/205/47
f 114/202/47 115/180/47 131/179/47
f 134/205/47 131/179/47 128/181/47
f 148/188/47 132/190/47 136/192/47
f 111/194/47 109/206/47 113/195/47
f 139/196/47 144/207/47 149/191/47
f 126/187/47 121/176/47 127/178/47
f 138/200/47 137/203/47 147/201/47
f 119/204/47 118/208/47 117/186/47
f 137/203/47 134/205/47 129/167/47
f 99/182/47 97/174/47 98/173/47
f 119/204/47 117/186/47 126/187/47
f 102/171/47 114/202/47 131/179/47
f 94/175/47 93/164/47 98/173/47
f 132/190/47 112/170/47 130/172/47
f 120/184/47 126/187/47 124/185/47
f 146/169/47 137/203/47 129/167/47
