# Blender v2.83.1 OBJ File: 'jigsaw-12x16-3-step2.blend'
# www.blender.org
mtllib piece.87.mtl
o path174
v -0.449158 0.037500 0.297405
v -0.430973 0.037500 0.169253
v -0.446889 0.037500 0.082390
v -0.512225 0.037500 0.070250
v -0.603851 0.037500 0.091440
v -0.689028 0.037500 0.085857
v -0.739818 0.037500 0.013375
v -0.747486 0.037500 -0.086190
v -0.708098 0.037500 -0.153046
v -0.624668 0.037500 -0.147749
v -0.527979 0.037500 -0.112266
v -0.455762 0.037500 -0.108912
v -0.435152 0.037500 -0.181130
v -0.450908 0.037500 -0.296851
v -0.500151 0.037500 -0.492713
v -0.283101 0.037500 -0.531550
v -0.153508 0.037500 -0.540606
v -0.069549 0.037500 -0.514547
v -0.066380 0.037500 -0.439988
v -0.099224 0.037500 -0.344679
v -0.103326 0.037500 -0.266654
v -0.035167 0.037500 -0.236088
v 0.063821 0.037500 -0.251730
v 0.130968 0.037500 -0.304472
v 0.124837 0.037500 -0.382507
v 0.088937 0.037500 -0.463231
v 0.088008 0.037500 -0.521343
v 0.166983 0.037500 -0.539040
v 0.501546 0.037500 -0.492713
v 0.464820 0.037500 -0.297650
v 0.454774 0.037500 -0.181105
v 0.475106 0.037500 -0.105420
v 0.538265 0.037500 -0.101935
v 0.622734 0.037500 -0.129442
v 0.698507 0.037500 -0.128603
v 0.740309 0.037500 -0.059937
v 0.741778 0.037500 0.036583
v 0.701282 0.037500 0.101120
v 0.622961 0.037500 0.094624
v 0.534070 0.037500 0.061180
v 0.467640 0.037500 0.065656
v 0.447391 0.037500 0.152709
v 0.459797 0.037500 0.286149
v 0.501546 0.037500 0.509197
v 0.309494 0.037500 0.534671
v 0.194737 0.037500 0.539643
v 0.120190 0.037500 0.519737
v 0.116707 0.037500 0.465274
v 0.143764 0.037500 0.393703
v 0.142992 0.037500 0.329260
v 0.075510 0.037500 0.292483
v -0.019610 0.037500 0.289119
v -0.083805 0.037500 0.321215
v -0.078877 0.037500 0.385945
v -0.048077 0.037500 0.460999
v -0.055021 0.037500 0.519196
v -0.143402 0.037500 0.540798
v -0.500151 0.037500 0.509197
v -0.449158 -0.037500 0.297405
v -0.430973 -0.037498 0.169253
v -0.446889 -0.037500 0.082390
v -0.512225 -0.037500 0.070250
v -0.603851 -0.037500 0.091440
v -0.689028 -0.037498 0.085857
v -0.739818 -0.037500 0.013375
v -0.747486 -0.037500 -0.086190
v -0.708098 -0.037500 -0.153046
v -0.624668 -0.037500 -0.147749
v -0.527979 -0.037500 -0.112266
v -0.455762 -0.037500 -0.108912
v -0.435152 -0.037500 -0.181130
v -0.450908 -0.037500 -0.296851
v -0.500151 -0.037500 -0.492713
v -0.283101 -0.037500 -0.531550
v -0.153508 -0.037500 -0.540606
v -0.069549 -0.037498 -0.514547
v -0.066380 -0.037500 -0.439988
v -0.099224 -0.037500 -0.344679
v -0.103326 -0.037500 -0.266654
v -0.035167 -0.037500 -0.236088
v 0.063821 -0.037500 -0.251730
v 0.130968 -0.037500 -0.304472
v 0.124837 -0.037500 -0.382507
v 0.088937 -0.037500 -0.463231
v 0.088008 -0.037500 -0.521343
v 0.166983 -0.037500 -0.539040
v 0.501546 -0.037498 -0.492713
v 0.464820 -0.037500 -0.297650
v 0.454774 -0.037500 -0.181105
v 0.475106 -0.037500 -0.105420
v 0.538265 -0.037498 -0.101935
v 0.622734 -0.037500 -0.129442
v 0.698507 -0.037500 -0.128603
v 0.740309 -0.037500 -0.059937
v 0.741778 -0.037498 0.036583
v 0.701282 -0.037500 0.101120
v 0.622961 -0.037498 0.094624
v 0.534070 -0.037500 0.061180
v 0.467640 -0.037500 0.065656
v 0.447391 -0.037500 0.152709
v 0.459797 -0.037500 0.286149
v 0.501546 -0.037498 0.509197
v 0.309494 -0.037500 0.534671
v 0.194737 -0.037498 0.539643
v 0.120190 -0.037498 0.519737
v 0.116707 -0.037500 0.465274
v 0.143764 -0.037498 0.393703
v 0.142992 -0.037500 0.329260
v 0.075510 -0.037500 0.292483
v -0.019610 -0.037500 0.289119
v -0.083805 -0.037500 0.321215
v -0.078877 -0.037500 0.385945
v -0.048077 -0.037500 0.460999
v -0.055021 -0.037498 0.519196
v -0.143402 -0.037500 0.540798
v -0.500151 -0.037500 0.509197
v 0.740309 0.037500 -0.059937
v 0.741778 0.037500 0.036583
v 0.701282 0.037500 0.101120
v 0.701282 0.037500 0.101120
v 0.698507 0.037500 -0.128603
v 0.622961 0.037500 0.094624
v 0.622734 0.037500 -0.129442
v 0.534070 0.037500 0.061180
v 0.538265 0.037500 -0.101935
v 0.475106 0.037500 -0.105420
v 0.475106 0.037500 -0.105420
v 0.467640 0.037500 0.065656
v 0.467640 0.037500 0.065656
v 0.501546 0.037500 -0.492713
v 0.501546 0.037500 -0.492713
v 0.464820 0.037500 -0.297650
v 0.459797 0.037500 0.286149
v 0.501546 0.037500 0.509197
v 0.501546 0.037500 0.509197
v 0.454774 0.037500 -0.181105
v 0.447391 0.037500 0.152709
v 0.309494 0.037500 0.534671
v 0.194737 0.037500 0.539643
v 0.166983 0.037500 -0.539040
v 0.120190 0.037500 0.519737
v 0.120190 0.037500 0.519737
v 0.088008 0.037500 -0.521343
v 0.088008 0.037500 -0.521343
v 0.130968 0.037500 -0.304472
v 0.124837 0.037500 -0.382507
v 0.143764 0.037500 0.393703
v 0.142992 0.037500 0.329260
v 0.142992 0.037500 0.329260
v 0.116707 0.037500 0.465274
v 0.075510 0.037500 0.292483
v 0.063821 0.037500 -0.251730
v 0.088937 0.037500 -0.463231
v -0.019610 0.037500 0.289119
v -0.035167 0.037500 -0.236088
v -0.083805 0.037500 0.321215
v -0.083805 0.037500 0.321215
v -0.103326 0.037500 -0.266654
v -0.103326 0.037500 -0.266654
v -0.078877 0.037500 0.385945
v -0.048077 0.037500 0.460999
v -0.055021 0.037500 0.519196
v -0.055021 0.037500 0.519196
v -0.143402 0.037500 0.540798
v -0.069549 0.037500 -0.514547
v -0.069549 0.037500 -0.514547
v -0.066380 0.037500 -0.439988
v -0.099224 0.037500 -0.344679
v -0.153508 0.037500 -0.540606
v -0.283101 0.037500 -0.531550
v -0.500151 0.037500 -0.492713
v -0.500151 0.037500 -0.492713
v -0.435152 0.037500 -0.181130
v -0.450908 0.037500 -0.296851
v -0.430973 0.037500 0.169253
v -0.446889 0.037500 0.082390
v -0.446889 0.037500 0.082390
v -0.449158 0.037500 0.297405
v -0.455762 0.037500 -0.108912
v -0.455762 0.037500 -0.108912
v -0.512225 0.037500 0.070250
v -0.527979 0.037500 -0.112266
v -0.500151 0.037500 0.509197
v -0.500151 0.037500 0.509197
v -0.603851 0.037500 0.091440
v -0.624668 0.037500 -0.147749
v -0.689028 0.037500 0.085857
v -0.708098 0.037500 -0.153046
v -0.708098 0.037500 -0.153046
v -0.739818 0.037500 0.013375
v -0.747486 0.037500 -0.086190
v 0.740309 -0.037500 -0.059937
v 0.741778 -0.037498 0.036583
v 0.701282 -0.037500 0.101120
v 0.701282 -0.037500 0.101120
v 0.698507 -0.037500 -0.128603
v 0.622961 -0.037498 0.094624
v 0.622734 -0.037500 -0.129442
v 0.534070 -0.037500 0.061180
v 0.538265 -0.037498 -0.101935
v 0.475106 -0.037500 -0.105420
v 0.475106 -0.037500 -0.105420
v 0.467640 -0.037500 0.065656
v 0.467640 -0.037500 0.065656
v 0.501546 -0.037498 -0.492713
v 0.501546 -0.037498 -0.492713
v 0.464820 -0.037500 -0.297650
v 0.459797 -0.037500 0.286149
v 0.501546 -0.037498 0.509197
v 0.501546 -0.037498 0.509197
v 0.454774 -0.037500 -0.181105
v 0.447391 -0.037500 0.152709
v 0.309494 -0.037500 0.534671
v 0.194737 -0.037498 0.539643
v 0.166983 -0.037500 -0.539040
v 0.120190 -0.037498 0.519737
v 0.120190 -0.037498 0.519737
v 0.088008 -0.037500 -0.521343
v 0.088008 -0.037500 -0.521343
v 0.130968 -0.037500 -0.304472
v 0.124837 -0.037500 -0.382507
v 0.143764 -0.037498 0.393703
v 0.142992 -0.037500 0.329260
v 0.142992 -0.037500 0.329260
v 0.116707 -0.037500 0.465274
v 0.075510 -0.037500 0.292483
v 0.063821 -0.037500 -0.251730
v 0.088937 -0.037500 -0.463231
v -0.019610 -0.037500 0.289119
v -0.035167 -0.037500 -0.236088
v -0.083805 -0.037500 0.321215
v -0.083805 -0.037500 0.321215
v -0.103326 -0.037500 -0.266654
v -0.103326 -0.037500 -0.266654
v -0.078877 -0.037500 0.385945
v -0.048077 -0.037500 0.460999
v -0.055021 -0.037498 0.519196
v -0.055021 -0.037498 0.519196
v -0.143402 -0.037500 0.540798
v -0.069549 -0.037498 -0.514547
v -0.069549 -0.037498 -0.514547
v -0.066380 -0.037500 -0.439988
v -0.099224 -0.037500 -0.344679
v -0.153508 -0.037500 -0.540606
v -0.283101 -0.037500 -0.531550
v -0.500151 -0.037500 -0.492713
v -0.500151 -0.037500 -0.492713
v -0.435152 -0.037500 -0.181130
v -0.450908 -0.037500 -0.296851
v -0.430973 -0.037498 0.169253
v -0.446889 -0.037500 0.082390
v -0.446889 -0.037500 0.082390
v -0.449158 -0.037500 0.297405
v -0.455762 -0.037500 -0.108912
v -0.455762 -0.037500 -0.108912
v -0.512225 -0.037500 0.070250
v -0.527979 -0.037500 -0.112266
v -0.500151 -0.037500 0.509197
v -0.500151 -0.037500 0.509197
v -0.603851 -0.037500 0.091440
v -0.624668 -0.037500 -0.147749
v -0.689028 -0.037498 0.085857
v -0.708098 -0.037500 -0.153046
v -0.708098 -0.037500 -0.153046
v -0.739818 -0.037500 0.013375
v -0.747486 -0.037500 -0.086190
vt 0.500000 0.500000
vt 0.500000 0.500000
vt 0.500000 0.500000
vt 0.500000 0.500000
vt 0.500000 0.500000
vt 0.500000 0.500000
vt 0.500000 0.500000
vt 0.500000 0.500000
vt 0.500000 0.500000
vt 0.500000 0.500000
vt 0.500000 0.500000
vt 0.500000 0.500000
vt 0.500000 0.500000
vt 0.500000 0.500000
vt 0.500000 0.500000
vt 0.500000 0.500000
vt 0.500000 0.500000
vt 0.500000 0.500000
vt 0.500000 0.500000
vt 0.500000 0.500000
vt 0.500000 0.500000
vt 0.500000 0.500000
vt 0.500000 0.500000
vt 0.500000 0.500000
vt 0.500000 0.500000
vt 0.500000 0.500000
vt 0.500000 0.500000
vt 0.500000 0.500000
vt 0.500000 0.500000
vt 0.500000 0.500000
vt 0.500000 0.500000
vt 0.500000 0.500000
vt 0.500000 0.500000
vt 0.500000 0.500000
vt 0.500000 0.500000
vt 0.500000 0.500000
vt 0.500000 0.500000
vt 0.500000 0.500000
vt 0.500000 0.500000
vt 0.500000 0.500000
vt 0.500000 0.500000
vt 0.500000 0.500000
vt 0.500000 0.500000
vt 0.500000 0.500000
vt 0.500000 0.500000
vt 0.500000 0.500000
vt 0.500000 0.500000
vt 0.500000 0.500000
vt 0.500000 0.500000
vt 0.500000 0.500000
vt 0.500000 0.500000
vt 0.500000 0.500000
vt 0.500000 0.500000
vt 0.500000 0.500000
vt 0.500000 0.500000
vt 0.500000 0.500000
vt 0.500000 0.500000
vt 0.500000 0.500000
vt 0.500000 0.500000
vt 0.500000 0.500000
vt 0.500000 0.500000
vt 0.500000 0.500000
vt 0.500000 0.500000
vt 0.500000 0.500000
vt 0.500000 0.500000
vt 0.500000 0.500000
vt 0.500000 0.500000
vt 0.500000 0.500000
vt 0.500000 0.500000
vt 0.500000 0.500000
vt 0.500000 0.500000
vt 0.500000 0.500000
vt 0.500000 0.500000
vt 0.500000 0.500000
vt 0.500000 0.500000
vt 0.500000 0.500000
vt 0.500000 0.500000
vt 0.500000 0.500000
vt 0.500000 0.500000
vt 0.500000 0.500000
vt 0.500000 0.500000
vt 0.500000 0.500000
vt 0.500000 0.500000
vt 0.500000 0.500000
vt 0.500000 0.500000
vt 0.500000 0.500000
vt 0.500000 0.500000
vt 0.500000 0.500000
vt 0.500000 0.500000
vt 0.500000 0.500000
vt 0.500000 0.500000
vt 0.500000 0.500000
vt 0.500000 0.500000
vt 0.500000 0.500000
vt 0.500000 0.500000
vt 0.500000 0.500000
vt 0.500000 0.500000
vt 0.500000 0.500000
vt 0.500000 0.500000
vt 0.500000 0.500000
vt 0.500000 0.500000
vt 0.500000 0.500000
vt 0.500000 0.500000
vt 0.500000 0.500000
vt 0.500000 0.500000
vt 0.500000 0.500000
vt 0.500000 0.500000
vt 0.500000 0.500000
vt 0.500000 0.500000
vt 0.500000 0.500000
vt 0.500000 0.500000
vt 0.500000 0.500000
vt 0.500000 0.500000
vt 0.500000 0.500000
vt 0.500000 0.500000
vt 0.500000 0.500000
vt 0.500000 0.500000
vt 0.500000 0.500000
vt 0.500000 0.500000
vt 0.500000 0.500000
vt 0.500000 0.500000
vt 0.500000 0.500000
vt 0.500000 0.500000
vt 0.500000 0.500000
vt 0.500000 0.500000
vt 0.500000 0.500000
vt 0.500000 0.500000
vt 0.500000 0.500000
vt 0.500000 0.500000
vt 0.500000 0.500000
vt 0.500000 0.500000
vt 0.500000 0.500000
vt 0.500000 0.500000
vt 0.500000 0.500000
vt 0.500000 0.500000
vt 0.500000 0.500000
vt 0.500000 0.500000
vt 0.500000 0.500000
vt 0.500000 0.500000
vt 0.500000 0.500000
vt 0.500000 0.500000
vt 0.500000 0.500000
vt 0.500000 0.500000
vt 0.500000 0.500000
vt 0.500000 0.500000
vt 0.500000 0.500000
vt 0.500000 0.500000
vt 0.500000 0.500000
vt 0.500000 0.500000
vt 0.500000 0.500000
vt 0.500000 0.500000
vt 0.500000 0.500000
vt 0.500000 0.500000
vt 0.500000 0.500000
vt 0.500000 0.500000
vt 0.500000 0.500000
vt 0.500000 0.500000
vt 0.500000 0.500000
vt 0.500000 0.500000
vt 0.500000 0.500000
vt 0.500000 0.500000
vt 0.500000 0.500000
vt 0.500000 0.500000
vt 0.500000 0.500000
vt 0.500000 0.500000
vt 0.500000 0.500000
vt 0.500000 0.500000
vt 0.500000 0.500000
vt 0.500000 0.500000
vt 0.500000 0.500000
vt 0.500000 0.500000
vt 0.500000 0.500000
vt 0.500000 0.500000
vt 0.500000 0.500000
vt 0.500000 0.500000
vt 0.500000 0.500000
vt 0.500000 0.500000
vt 0.500000 0.500000
vt 0.500000 0.500000
vt 0.500000 0.500000
vt 0.500000 0.500000
vt 0.500000 0.500000
vt 0.500000 0.500000
vt 0.500000 0.500000
vt 0.500000 0.500000
vt 0.500000 0.500000
vt 0.500000 0.500000
vt 0.500000 0.500000
vt 0.500000 0.500000
vt 0.500000 0.500000
vt 0.500000 0.500000
vt 0.500000 0.500000
vt 0.500000 0.500000
vt 0.500000 0.500000
vt 0.500000 0.500000
vt 0.500000 0.500000
vt 0.500000 0.500000
vt 0.500000 0.500000
vt 0.500000 0.500000
vt 0.500000 0.500000
vt 0.500000 0.500000
vt 0.500000 0.500000
vt 0.500000 0.500000
vt 0.500000 0.500000
vt 0.500000 0.500000
vt 0.500000 0.500000
vt 0.500000 0.500000
vt 0.500000 0.500000
vt 0.235034 0.540128
vt 0.220349 0.559121
vt 0.231975 0.535918
vt 0.232384 0.503182
vt 0.250000 0.500000
vt 0.252628 0.522259
vt 0.234365 0.525977
vt 0.239748 0.526285
vt 0.250877 0.538706
vt 0.252532 0.543357
vt 0.246347 0.538488
vt 0.221725 0.504316
vt 0.214501 0.503323
vt 0.198310 0.498264
vt 0.195359 0.492231
vt 0.215253 0.493530
vt 0.240394 0.540176
vt 0.192584 0.559582
vt 0.182891 0.560208
vt 0.182324 0.539378
vt 0.188011 0.529012
vt 0.185469 0.524760
vt 0.252119 0.550517
vt 0.213491 0.499247
vt 0.198589 0.502770
vt 0.213109 0.560384
vt 0.212736 0.564529
vt 0.198879 0.560850
vt 0.162813 0.541625
vt 0.164285 0.536698
vt 0.169119 0.536756
vt 0.171052 0.527065
vt 0.164851 0.526867
vt 0.162683 0.521628
vt 0.163436 0.513543
vt 0.166667 0.500000
vt 0.182957 0.503072
vt 0.192582 0.504056
vt 0.215518 0.570075
vt 0.196882 0.570061
vt 0.186710 0.535188
vt 0.199169 0.564791
vt 0.231448 0.559895
vt 0.178979 0.525015
vt 0.175833 0.538996
vt 0.250832 0.527773
vt 0.245991 0.528207
vt 0.216058 0.574962
vt 0.210690 0.577489
vt 0.202663 0.577397
vt 0.194918 0.487025
vt 0.200479 0.484568
vt 0.231695 0.529983
vt 0.208760 0.485046
vt 0.196951 0.574789
vt 0.250000 0.562500
vt 0.166667 0.562500
vt 0.214789 0.488215
vn 0.0000 -1.0000 -0.0000
vn -0.0000 -1.0000 -0.0001
vn -0.0000 -1.0000 0.0001
vn 0.9999 0.0000 -0.0152
vn 0.8470 0.0000 0.5315
vn 0.8542 0.0000 -0.5200
vn -0.0827 0.0000 0.9966
vn 0.0111 0.0000 -0.9999
vn -0.3521 0.0000 0.9359
vn -0.3097 0.0000 -0.9509
vn 0.0551 0.0000 -0.9985
vn 0.0672 0.0000 0.9977
vn 0.9827 0.0000 0.1850
vn 0.9829 0.0000 -0.1840
vn 0.9658 0.0000 -0.2594
vn 0.9740 0.0000 0.2266
vn 0.9963 0.0000 0.0859
vn 0.9957 0.0000 -0.0926
vn 0.1315 0.0000 0.9913
vn 0.0433 0.0000 0.9991
vn 0.1372 0.0000 -0.9905
vn -0.2580 0.0000 0.9662
vn -0.2187 0.0000 -0.9758
vn -0.9969 0.0000 0.0783
vn -0.9999 0.0000 0.0120
vn -0.9354 0.0000 -0.3536
vn -0.9980 0.0000 0.0638
vn -0.4785 0.0000 0.8781
vn -0.6177 0.0000 -0.7864
vn -0.9999 0.0000 0.0160
vn -0.9137 0.0000 0.4064
vn -0.0353 0.0000 0.9994
vn -0.1561 0.0000 -0.9877
vn 0.4472 0.0000 0.8944
vn 0.4092 0.0000 -0.9124
vn 0.9251 0.0000 -0.3796
vn 0.9930 0.0000 0.1185
vn 0.2374 0.0000 0.9714
vn 0.9991 0.0000 -0.0425
vn 0.9454 0.0000 0.3258
vn 0.2964 0.0000 -0.9551
vn 0.9971 0.0000 -0.0759
vn 0.9986 0.0000 0.0525
vn -0.0697 0.0000 -0.9976
vn -0.1761 0.0000 -0.9844
vn -0.9909 0.0000 0.1349
vn -0.9836 0.0000 0.1802
vn -0.9901 0.0000 -0.1405
vn -0.9616 0.0000 -0.2744
vn -0.1827 0.0000 0.9832
vn 0.0464 0.0000 -0.9989
vn -0.0882 0.0000 0.9961
vn -0.9698 0.0000 0.2438
vn -0.9722 0.0000 -0.2341
vn 0.2253 0.0000 0.9743
vn 0.3445 0.0000 -0.9388
vn -0.0654 0.0000 0.9979
vn 0.0634 0.0000 -0.9980
vn -0.8190 0.0000 0.5739
vn -0.8616 0.0000 -0.5076
vn -0.9970 0.0000 0.0768
vn 0.0000 1.0000 0.0000
usemtl BackMat.001
s off
f 223/1/1 226/2/1 212/3/1
f 253/4/1 239/5/1 258/6/1
f 231/7/1 235/8/1 253/4/1
f 216/9/1 225/10/1 214/11/1
f 250/12/1 251/13/1 231/7/1
f 257/14/1 260/15/1 261/16/1
f 222/17/1 214/11/1 225/10/1
f 211/18/1 220/19/1 207/20/1
f 251/13/1 233/21/1 230/22/1
f 214/11/1 222/17/1 213/23/1
f 256/24/1 254/25/1 251/13/1
f 203/26/1 201/27/1 199/28/1
f 215/29/1 228/30/1 218/31/1
f 242/32/1 244/33/1 240/34/1
f 245/35/1 249/36/1 246/37/1
f 254/25/1 248/38/1 233/21/1
f 199/28/1 198/39/1 197/40/1
f 201/27/1 227/41/1 211/18/1
f 250/12/1 231/7/1 253/4/1
f 199/28/1 200/42/1 198/39/1
f 208/43/1 223/1/1 212/3/1
f 244/33/1 243/44/1 245/35/1
f 199/28/1 201/27/1 200/42/1
f 226/2/1 227/41/1 203/26/1
f 221/45/1 228/30/1 215/29/1
f 260/15/1 257/14/1 256/24/1
f 237/46/1 239/5/1 236/47/1
f 197/40/2 193/48/2 194/49/2
f 197/40/1 192/50/1 193/48/1
f 251/13/1 254/25/1 233/21/1
f 263/51/1 261/16/1 266/52/1
f 243/44/1 244/33/1 242/32/1
f 233/21/1 249/36/1 243/44/1
f 229/53/1 230/22/1 226/2/1
f 192/50/1 197/40/1 198/39/1
f 265/54/1 261/16/1 260/15/1
f 236/47/1 239/5/1 235/8/1
f 226/2/1 230/22/1 227/41/1
f 266/52/1 261/16/1 265/54/1
f 222/17/1 223/1/1 208/43/1
f 192/50/1 198/39/1 196/55/1
f 213/23/1 208/43/1 209/56/1
f 254/25/1 256/24/1 257/14/1
f 213/23/1 222/17/1 208/43/1
f 207/20/1 215/29/1 205/57/1
f 207/20/1 221/45/1 215/29/1
f 253/4/1 235/8/1 239/5/1
f 207/20/1 220/19/1 221/45/1
f 262/58/3 265/54/3 260/15/3
f 249/36/1 233/21/1 248/38/1
f 245/35/1 243/44/1 249/36/1
f 212/3/1 226/2/1 203/26/1
f 220/19/1 211/18/1 227/41/1
f 231/7/1 251/13/1 229/53/1
f 203/26/1 227/41/1 201/27/1
f 229/53/1 251/13/1 230/22/1
f 36/59/4 37/60/4 95/61/4 94/62/4
f 37/60/5 120/63/5 195/64/5 95/61/5
f 35/65/6 36/59/6 94/62/6 93/66/6
f 38/67/7 39/68/7 97/69/7 96/70/7
f 34/71/8 35/65/8 93/66/8 92/72/8
f 39/68/9 40/73/9 98/74/9 97/69/9
f 33/75/10 34/71/10 92/72/10 91/76/10
f 127/77/11 33/75/11 91/76/11 202/78/11
f 40/73/12 129/79/12 204/80/12 98/74/12
f 131/81/13 30/82/13 88/83/13 206/84/13
f 43/85/14 135/86/14 210/87/14 101/88/14
f 31/89/15 32/90/15 90/91/15 89/92/15
f 41/93/16 42/94/16 100/95/16 99/96/16
f 30/82/17 31/89/17 89/92/17 88/83/17
f 42/94/18 43/85/18 101/88/18 100/95/18
f 44/97/19 45/98/19 103/99/19 102/100/19
f 45/98/20 46/101/20 104/102/20 103/99/20
f 28/103/21 29/104/21 87/105/21 86/106/21
f 46/101/22 142/107/22 217/108/22 104/102/22
f 144/109/23 28/103/23 86/106/23 219/110/23
f 24/111/24 25/112/24 83/113/24 82/114/24
f 49/115/25 149/116/25 224/117/25 107/118/25
f 48/119/26 49/115/26 107/118/26 106/120/26
f 47/121/27 48/119/27 106/120/27 105/122/27
f 50/123/28 51/124/28 109/125/28 108/126/28
f 23/127/29 24/111/29 82/114/29 81/128/29
f 26/129/30 27/130/30 85/131/30 84/132/30
f 25/112/31 26/129/31 84/132/31 83/113/31
f 51/124/32 52/133/32 110/134/32 109/125/32
f 22/135/33 23/127/33 81/128/33 80/136/33
f 52/133/34 157/137/34 232/138/34 110/134/34
f 159/139/35 22/135/35 80/136/35 234/140/35
f 54/141/36 55/142/36 113/143/36 112/144/36
f 55/142/37 163/145/37 238/146/37 113/143/37
f 56/147/38 57/148/38 115/149/38 114/150/38
f 166/151/39 19/152/39 77/153/39 241/154/39
f 19/152/40 20/155/40 78/156/40 77/153/40
f 17/157/41 18/158/41 76/159/41 75/160/41
f 53/161/42 54/141/42 112/144/42 111/162/42
f 20/155/43 21/163/43 79/164/43 78/156/43
f 16/165/44 17/157/44 75/160/44 74/166/44
f 172/167/45 16/165/45 74/166/45 247/168/45
f 13/169/46 14/170/46 72/171/46 71/172/46
f 2/173/47 177/174/47 252/175/47 60/176/47
f 1/177/48 2/173/48 60/176/48 59/178/48
f 180/179/49 13/169/49 71/172/49 255/180/49
f 3/181/50 4/182/50 62/183/50 61/184/50
f 11/185/51 12/186/51 70/187/51 69/188/51
f 57/148/52 184/189/52 259/190/52 115/149/52
f 14/170/53 15/191/53 73/192/53 72/171/53
f 58/193/54 1/177/54 59/178/54 116/194/54
f 4/182/55 5/195/55 63/196/55 62/183/55
f 10/197/56 11/185/56 69/188/56 68/198/56
f 5/195/57 6/199/57 64/200/57 63/196/57
f 189/201/58 10/197/58 68/198/58 264/202/58
f 6/199/59 7/203/59 65/204/59 64/200/59
f 8/205/60 9/206/60 67/207/60 66/208/60
f 7/203/61 8/205/61 66/208/61 65/204/61
usemtl FrontMat.001
f 148/209/62 137/210/62 151/211/62
f 178/212/62 183/213/62 164/214/62
f 156/215/62 178/212/62 160/216/62
f 141/217/62 139/218/62 150/219/62
f 175/220/62 156/215/62 176/221/62
f 182/222/62 186/223/62 185/224/62
f 147/225/62 150/219/62 139/218/62
f 136/226/62 132/227/62 145/228/62
f 176/221/62 155/229/62 158/230/62
f 139/218/62 138/231/62 147/225/62
f 181/232/62 176/221/62 179/233/62
f 128/234/62 124/235/62 126/236/62
f 140/237/62 143/238/62 153/239/62
f 167/240/62 165/241/62 169/242/62
f 170/243/62 171/244/62 174/245/62
f 179/233/62 158/230/62 173/246/62
f 124/235/62 122/247/62 123/248/62
f 126/236/62 136/226/62 152/249/62
f 175/220/62 178/212/62 156/215/62
f 124/235/62 123/248/62 125/250/62
f 133/251/62 137/210/62 148/209/62
f 169/242/62 170/243/62 168/252/62
f 124/235/62 125/250/62 126/236/62
f 151/211/62 128/234/62 152/249/62
f 146/253/62 140/237/62 153/239/62
f 185/224/62 181/232/62 182/222/62
f 162/254/62 161/255/62 164/214/62
f 122/247/62 119/256/62 118/257/62
f 122/247/62 118/257/62 117/258/62
f 176/221/62 158/230/62 179/233/62
f 188/259/62 191/260/62 186/223/62
f 168/252/62 167/240/62 169/242/62
f 158/230/62 168/252/62 174/245/62
f 154/261/62 151/211/62 155/229/62
f 117/258/62 123/248/62 122/247/62
f 190/262/62 185/224/62 186/223/62
f 161/255/62 160/216/62 164/214/62
f 151/211/62 152/249/62 155/229/62
f 191/260/62 190/262/62 186/223/62
f 147/225/62 133/251/62 148/209/62
f 117/258/62 121/263/62 123/248/62
f 138/231/62 134/264/62 133/251/62
f 179/233/62 182/222/62 181/232/62
f 138/231/62 133/251/62 147/225/62
f 132/227/62 130/265/62 140/237/62
f 132/227/62 140/237/62 146/253/62
f 178/212/62 164/214/62 160/216/62
f 132/227/62 146/253/62 145/228/62
f 187/266/62 185/224/62 190/262/62
f 174/245/62 173/246/62 158/230/62
f 170/243/62 174/245/62 168/252/62
f 137/210/62 128/234/62 151/211/62
f 145/228/62 152/249/62 136/226/62
f 156/215/62 154/261/62 176/221/62
f 128/234/62 126/236/62 152/249/62
f 154/261/62 155/229/62 176/221/62
