# Blender v2.83.1 OBJ File: 'jigsaw-12x16-3-step2.blend'
# www.blender.org
mtllib piece.55.mtl
o path110
v -0.548899 0.037500 0.302655
v -0.565834 0.037500 0.189251
v -0.547058 0.037500 0.117204
v -0.477337 0.037500 0.117290
v -0.383194 0.037500 0.146874
v -0.301592 0.037500 0.144969
v -0.262537 0.037500 0.071220
v -0.268210 0.037500 -0.032169
v -0.313840 0.037500 -0.102364
v -0.390635 0.037500 -0.098075
v -0.473725 0.037500 -0.064218
v -0.534221 0.037500 -0.067256
v -0.551606 0.037500 -0.153157
v -0.498479 0.037500 -0.508265
v -0.294497 0.037500 -0.470082
v -0.173851 0.037500 -0.459277
v -0.098273 0.037500 -0.479367
v -0.101187 0.037500 -0.542840
v -0.137960 0.037500 -0.626472
v -0.144449 0.037500 -0.698115
v -0.077431 0.037500 -0.731909
v 0.022619 0.037500 -0.727154
v 0.094306 0.037500 -0.689439
v 0.096763 0.037500 -0.627023
v 0.071226 0.037500 -0.558882
v 0.079463 0.037500 -0.506666
v 0.164137 0.037500 -0.485968
v 0.503219 0.037500 -0.508265
v 0.529442 0.037500 -0.155891
v 0.505961 0.037500 -0.067157
v 0.446571 0.037500 -0.057534
v 0.370640 0.037500 -0.085169
v 0.304787 0.037500 -0.088920
v 0.271389 0.037500 -0.027290
v 0.275848 0.037500 0.062619
v 0.319324 0.037500 0.124059
v 0.397480 0.037500 0.119652
v 0.483988 0.037500 0.089506
v 0.547026 0.037500 0.093101
v 0.563927 0.037500 0.171490
v 0.548658 0.037500 0.292013
v 0.503219 0.037500 0.493644
v 0.272626 0.037500 0.463375
v 0.135393 0.037500 0.458240
v 0.047491 0.037500 0.484142
v 0.046566 0.037500 0.552928
v 0.084799 0.037500 0.642521
v 0.093005 0.037500 0.722364
v 0.024499 0.037500 0.766540
v -0.077411 0.037500 0.767704
v -0.146918 0.037500 0.723154
v -0.140195 0.037500 0.636681
v -0.101328 0.037500 0.538057
v -0.096384 0.037500 0.463553
v -0.171457 0.037500 0.439291
v -0.292744 0.037500 0.450817
v -0.498479 0.037500 0.493644
v -0.548899 -0.037500 0.302655
v -0.565834 -0.037500 0.189251
v -0.547058 -0.037500 0.117204
v -0.477337 -0.037500 0.117290
v -0.383194 -0.037500 0.146874
v -0.301592 -0.037500 0.144969
v -0.262537 -0.037500 0.071220
v -0.268210 -0.037500 -0.032169
v -0.313840 -0.037500 -0.102364
v -0.390635 -0.037498 -0.098075
v -0.473725 -0.037500 -0.064218
v -0.534221 -0.037500 -0.067256
v -0.551606 -0.037500 -0.153157
v -0.498479 -0.037498 -0.508265
v -0.294497 -0.037498 -0.470082
v -0.173851 -0.037500 -0.459277
v -0.098273 -0.037500 -0.479367
v -0.101187 -0.037500 -0.542840
v -0.137960 -0.037500 -0.626472
v -0.144449 -0.037500 -0.698115
v -0.077431 -0.037500 -0.731909
v 0.022619 -0.037500 -0.727154
v 0.094306 -0.037500 -0.689439
v 0.096763 -0.037500 -0.627023
v 0.071226 -0.037500 -0.558882
v 0.079463 -0.037500 -0.506666
v 0.164137 -0.037500 -0.485968
v 0.503219 -0.037500 -0.508265
v 0.529442 -0.037500 -0.155891
v 0.505961 -0.037500 -0.067157
v 0.446571 -0.037500 -0.057534
v 0.370640 -0.037500 -0.085169
v 0.304787 -0.037500 -0.088920
v 0.271389 -0.037500 -0.027290
v 0.275848 -0.037500 0.062619
v 0.319324 -0.037500 0.124059
v 0.397480 -0.037500 0.119652
v 0.483988 -0.037500 0.089506
v 0.547026 -0.037500 0.093101
v 0.563927 -0.037500 0.171490
v 0.548658 -0.037500 0.292013
v 0.503219 -0.037500 0.493644
v 0.272626 -0.037500 0.463375
v 0.135393 -0.037500 0.458240
v 0.047491 -0.037500 0.484142
v 0.046566 -0.037498 0.552928
v 0.084799 -0.037498 0.642521
v 0.093005 -0.037500 0.722364
v 0.024499 -0.037500 0.766540
v -0.077411 -0.037500 0.767704
v -0.146918 -0.037500 0.723154
v -0.140195 -0.037500 0.636681
v -0.101328 -0.037500 0.538057
v -0.096384 -0.037498 0.463553
v -0.171457 -0.037500 0.439291
v -0.292744 -0.037500 0.450817
v -0.498479 -0.037500 0.493644
v -0.548899 0.037500 0.302655
v -0.565834 0.037500 0.189251
v -0.547058 0.037500 0.117204
v -0.547058 0.037500 0.117204
v -0.534221 0.037500 -0.067256
v -0.534221 0.037500 -0.067256
v -0.551606 0.037500 -0.153157
v -0.477337 0.037500 0.117290
v -0.473725 0.037500 -0.064218
v -0.498479 0.037500 0.493644
v -0.498479 0.037500 0.493644
v -0.498479 0.037500 -0.508265
v -0.498479 0.037500 -0.508265
v -0.383194 0.037500 0.146874
v -0.390635 0.037500 -0.098075
v -0.294497 0.037500 -0.470082
v -0.292744 0.037500 0.450817
v -0.313840 0.037500 -0.102364
v -0.301592 0.037500 0.144969
v -0.301592 0.037500 0.144969
v -0.268210 0.037500 -0.032169
v -0.262537 0.037500 0.071220
v -0.173851 0.037500 -0.459277
v -0.171457 0.037500 0.439291
v -0.098273 0.037500 -0.479367
v -0.098273 0.037500 -0.479367
v -0.096384 0.037500 0.463553
v -0.096384 0.037500 0.463553
v -0.077411 0.037500 0.767704
v -0.146918 0.037500 0.723154
v -0.146918 0.037500 0.723154
v -0.140195 0.037500 0.636681
v -0.137960 0.037500 -0.626472
v -0.144449 0.037500 -0.698115
v -0.144449 0.037500 -0.698115
v -0.077431 0.037500 -0.731909
v -0.101328 0.037500 0.538057
v -0.101187 0.037500 -0.542840
v 0.022619 0.037500 -0.727154
v 0.024499 0.037500 0.766540
v 0.094306 0.037500 -0.689439
v 0.093005 0.037500 0.722364
v 0.093005 0.037500 0.722364
v 0.047491 0.037500 0.484142
v 0.047491 0.037500 0.484142
v 0.046566 0.037500 0.552928
v 0.084799 0.037500 0.642521
v 0.135393 0.037500 0.458240
v 0.071226 0.037500 -0.558882
v 0.079463 0.037500 -0.506666
v 0.079463 0.037500 -0.506666
v 0.096763 0.037500 -0.627023
v 0.164137 0.037500 -0.485968
v 0.272626 0.037500 0.463375
v 0.271389 0.037500 -0.027290
v 0.275848 0.037500 0.062619
v 0.304787 0.037500 -0.088920
v 0.304787 0.037500 -0.088920
v 0.319324 0.037500 0.124059
v 0.370640 0.037500 -0.085169
v 0.397480 0.037500 0.119652
v 0.446571 0.037500 -0.057534
v 0.483988 0.037500 0.089506
v 0.503219 0.037500 0.493644
v 0.503219 0.037500 0.493644
v 0.505961 0.037500 -0.067157
v 0.505961 0.037500 -0.067157
v 0.503219 0.037500 -0.508265
v 0.503219 0.037500 -0.508265
v 0.547026 0.037500 0.093101
v 0.547026 0.037500 0.093101
v 0.529442 0.037500 -0.155891
v 0.548658 0.037500 0.292013
v 0.563927 0.037500 0.171490
v -0.548899 -0.037500 0.302655
v -0.565834 -0.037500 0.189251
v -0.547058 -0.037500 0.117204
v -0.547058 -0.037500 0.117204
v -0.534221 -0.037500 -0.067256
v -0.534221 -0.037500 -0.067256
v -0.551606 -0.037500 -0.153157
v -0.477337 -0.037500 0.117290
v -0.473725 -0.037500 -0.064218
v -0.498479 -0.037500 0.493644
v -0.498479 -0.037500 0.493644
v -0.498479 -0.037498 -0.508265
v -0.498479 -0.037498 -0.508265
v -0.383194 -0.037500 0.146874
v -0.390635 -0.037498 -0.098075
v -0.294497 -0.037498 -0.470082
v -0.292744 -0.037500 0.450817
v -0.313840 -0.037500 -0.102364
v -0.301592 -0.037500 0.144969
v -0.301592 -0.037500 0.144969
v -0.268210 -0.037500 -0.032169
v -0.262537 -0.037500 0.071220
v -0.173851 -0.037500 -0.459277
v -0.171457 -0.037500 0.439291
v -0.098273 -0.037500 -0.479367
v -0.098273 -0.037500 -0.479367
v -0.096384 -0.037498 0.463553
v -0.096384 -0.037498 0.463553
v -0.077411 -0.037500 0.767704
v -0.146918 -0.037500 0.723154
v -0.146918 -0.037500 0.723154
v -0.140195 -0.037500 0.636681
v -0.137960 -0.037500 -0.626472
v -0.144449 -0.037500 -0.698115
v -0.144449 -0.037500 -0.698115
v -0.077431 -0.037500 -0.731909
v -0.101328 -0.037500 0.538057
v -0.101187 -0.037500 -0.542840
v 0.022619 -0.037500 -0.727154
v 0.024499 -0.037500 0.766540
v 0.094306 -0.037500 -0.689439
v 0.093005 -0.037500 0.722364
v 0.093005 -0.037500 0.722364
v 0.047491 -0.037500 0.484142
v 0.047491 -0.037500 0.484142
v 0.046566 -0.037498 0.552928
v 0.084799 -0.037498 0.642521
v 0.135393 -0.037500 0.458240
v 0.071226 -0.037500 -0.558882
v 0.079463 -0.037500 -0.506666
v 0.079463 -0.037500 -0.506666
v 0.096763 -0.037500 -0.627023
v 0.164137 -0.037500 -0.485968
v 0.272626 -0.037500 0.463375
v 0.271389 -0.037500 -0.027290
v 0.275848 -0.037500 0.062619
v 0.304787 -0.037500 -0.088920
v 0.304787 -0.037500 -0.088920
v 0.319324 -0.037500 0.124059
v 0.370640 -0.037500 -0.085169
v 0.397480 -0.037500 0.119652
v 0.446571 -0.037500 -0.057534
v 0.483988 -0.037500 0.089506
v 0.503219 -0.037500 0.493644
v 0.503219 -0.037500 0.493644
v 0.505961 -0.037500 -0.067157
v 0.505961 -0.037500 -0.067157
v 0.503219 -0.037500 -0.508265
v 0.503219 -0.037500 -0.508265
v 0.547026 -0.037500 0.093101
v 0.547026 -0.037500 0.093101
v 0.529442 -0.037500 -0.155891
v 0.548658 -0.037500 0.292013
v 0.563927 -0.037500 0.171490
vt 0.500000 0.500000
vt 0.500000 0.500000
vt 0.500000 0.500000
vt 0.500000 0.500000
vt 0.500000 0.500000
vt 0.500000 0.500000
vt 0.500000 0.500000
vt 0.500000 0.500000
vt 0.500000 0.500000
vt 0.500000 0.500000
vt 0.500000 0.500000
vt 0.500000 0.500000
vt 0.500000 0.500000
vt 0.500000 0.500000
vt 0.500000 0.500000
vt 0.500000 0.500000
vt 0.500000 0.500000
vt 0.500000 0.500000
vt 0.500000 0.500000
vt 0.500000 0.500000
vt 0.500000 0.500000
vt 0.500000 0.500000
vt 0.500000 0.500000
vt 0.500000 0.500000
vt 0.500000 0.500000
vt 0.500000 0.500000
vt 0.500000 0.500000
vt 0.500000 0.500000
vt 0.500000 0.500000
vt 0.500000 0.500000
vt 0.500000 0.500000
vt 0.500000 0.500000
vt 0.500000 0.500000
vt 0.500000 0.500000
vt 0.500000 0.500000
vt 0.500000 0.500000
vt 0.500000 0.500000
vt 0.500000 0.500000
vt 0.500000 0.500000
vt 0.500000 0.500000
vt 0.500000 0.500000
vt 0.500000 0.500000
vt 0.500000 0.500000
vt 0.500000 0.500000
vt 0.500000 0.500000
vt 0.500000 0.500000
vt 0.500000 0.500000
vt 0.500000 0.500000
vt 0.500000 0.500000
vt 0.500000 0.500000
vt 0.500000 0.500000
vt 0.500000 0.500000
vt 0.500000 0.500000
vt 0.500000 0.500000
vt 0.500000 0.500000
vt 0.500000 0.500000
vt 0.500000 0.500000
vt 0.500000 0.500000
vt 0.500000 0.500000
vt 0.500000 0.500000
vt 0.500000 0.500000
vt 0.500000 0.500000
vt 0.500000 0.500000
vt 0.500000 0.500000
vt 0.500000 0.500000
vt 0.500000 0.500000
vt 0.500000 0.500000
vt 0.500000 0.500000
vt 0.500000 0.500000
vt 0.500000 0.500000
vt 0.500000 0.500000
vt 0.500000 0.500000
vt 0.500000 0.500000
vt 0.500000 0.500000
vt 0.500000 0.500000
vt 0.500000 0.500000
vt 0.500000 0.500000
vt 0.500000 0.500000
vt 0.500000 0.500000
vt 0.500000 0.500000
vt 0.500000 0.500000
vt 0.500000 0.500000
vt 0.500000 0.500000
vt 0.500000 0.500000
vt 0.500000 0.500000
vt 0.500000 0.500000
vt 0.500000 0.500000
vt 0.500000 0.500000
vt 0.500000 0.500000
vt 0.500000 0.500000
vt 0.500000 0.500000
vt 0.500000 0.500000
vt 0.500000 0.500000
vt 0.500000 0.500000
vt 0.500000 0.500000
vt 0.500000 0.500000
vt 0.500000 0.500000
vt 0.500000 0.500000
vt 0.500000 0.500000
vt 0.500000 0.500000
vt 0.500000 0.500000
vt 0.500000 0.500000
vt 0.500000 0.500000
vt 0.500000 0.500000
vt 0.500000 0.500000
vt 0.500000 0.500000
vt 0.500000 0.500000
vt 0.500000 0.500000
vt 0.500000 0.500000
vt 0.500000 0.500000
vt 0.500000 0.500000
vt 0.500000 0.500000
vt 0.500000 0.500000
vt 0.500000 0.500000
vt 0.500000 0.500000
vt 0.500000 0.500000
vt 0.500000 0.500000
vt 0.500000 0.500000
vt 0.500000 0.500000
vt 0.500000 0.500000
vt 0.500000 0.500000
vt 0.500000 0.500000
vt 0.500000 0.500000
vt 0.500000 0.500000
vt 0.500000 0.500000
vt 0.500000 0.500000
vt 0.500000 0.500000
vt 0.500000 0.500000
vt 0.500000 0.500000
vt 0.500000 0.500000
vt 0.500000 0.500000
vt 0.500000 0.500000
vt 0.500000 0.500000
vt 0.500000 0.500000
vt 0.500000 0.500000
vt 0.500000 0.500000
vt 0.500000 0.500000
vt 0.500000 0.500000
vt 0.500000 0.500000
vt 0.500000 0.500000
vt 0.500000 0.500000
vt 0.500000 0.500000
vt 0.500000 0.500000
vt 0.500000 0.500000
vt 0.500000 0.500000
vt 0.500000 0.500000
vt 0.500000 0.500000
vt 0.500000 0.500000
vt 0.500000 0.500000
vt 0.500000 0.500000
vt 0.500000 0.500000
vt 0.500000 0.500000
vt 0.500000 0.500000
vt 0.500000 0.500000
vt 0.500000 0.500000
vt 0.500000 0.500000
vt 0.500000 0.500000
vt 0.500000 0.500000
vt 0.500000 0.500000
vt 0.500000 0.500000
vt 0.500000 0.500000
vt 0.500000 0.500000
vt 0.500000 0.500000
vt 0.500000 0.500000
vt 0.500000 0.500000
vt 0.500000 0.500000
vt 0.500000 0.500000
vt 0.500000 0.500000
vt 0.500000 0.500000
vt 0.500000 0.500000
vt 0.500000 0.500000
vt 0.500000 0.500000
vt 0.500000 0.500000
vt 0.500000 0.500000
vt 0.500000 0.500000
vt 0.500000 0.500000
vt 0.500000 0.500000
vt 0.500000 0.500000
vt 0.500000 0.500000
vt 0.500000 0.500000
vt 0.500000 0.500000
vt 0.500000 0.500000
vt 0.500000 0.500000
vt 0.500000 0.500000
vt 0.500000 0.500000
vt 0.500000 0.500000
vt 0.500000 0.500000
vt 0.500000 0.500000
vt 0.500000 0.500000
vt 0.500000 0.500000
vt 0.500000 0.500000
vt 0.500000 0.500000
vt 0.500000 0.500000
vt 0.500000 0.500000
vt 0.500000 0.500000
vt 0.500000 0.500000
vt 0.500000 0.500000
vt 0.500000 0.500000
vt 0.500000 0.500000
vt 0.500000 0.500000
vt 0.500000 0.500000
vt 0.500000 0.500000
vt 0.500000 0.500000
vt 0.500000 0.500000
vt 0.500000 0.500000
vt 0.587543 0.714454
vt 0.593211 0.712860
vt 0.601539 0.717486
vt 0.586209 0.725211
vt 0.502518 0.701887
vt 0.516771 0.684665
vt 0.530740 0.698974
vt 0.496306 0.725220
vt 0.488103 0.727645
vt 0.495069 0.715992
vt 0.580157 0.737273
vt 0.583333 0.750000
vt 0.553797 0.753315
vt 0.543328 0.701965
vt 0.535135 0.735278
vt 0.535850 0.701687
vt 0.529001 0.737715
vt 0.504521 0.729596
vt 0.583333 0.687500
vt 0.581479 0.708657
vt 0.548454 0.699881
vt 0.583200 0.713940
vt 0.502503 0.724912
vt 0.502945 0.710450
vt 0.477205 0.723728
vt 0.487617 0.713607
vt 0.533614 0.688700
vt 0.531107 0.694098
vt 0.526795 0.683712
vt 0.477302 0.717369
vt 0.480976 0.713095
vt 0.533315 0.684767
vt 0.549216 0.743271
vt 0.548142 0.695772
vt 0.545844 0.691034
vt 0.554025 0.685864
vt 0.601935 0.723729
vt 0.593165 0.727506
vt 0.543734 0.735633
vt 0.599124 0.727911
vt 0.580930 0.725029
vt 0.579259 0.729745
vt 0.546653 0.752230
vt 0.546400 0.748455
vt 0.500790 0.715935
vt 0.480911 0.728065
vt 0.531303 0.748681
vt 0.531310 0.753031
vt 0.525318 0.754202
vt 0.500000 0.687500
vt 0.549573 0.738479
vt 0.528842 0.742807
vt 0.515885 0.753146
vt 0.503562 0.737163
vt 0.546644 0.687329
vt 0.598402 0.713014
vt 0.500000 0.750000
vn 0.0000 -1.0000 0.0000
vn -0.9890 0.0000 0.1477
vn -0.9677 0.0000 -0.2522
vn -0.9801 0.0000 0.1984
vn 0.0012 0.0000 -1.0000
vn -0.0502 0.0000 0.9987
vn -0.9669 0.0000 0.2552
vn -0.9890 0.0000 -0.1480
vn 0.2998 0.0000 -0.9540
vn 0.3774 0.0000 0.9261
vn 0.1840 0.0000 -0.9829
vn 0.2038 0.0000 0.9790
vn 0.0558 0.0000 0.9984
vn -0.0233 0.0000 -0.9997
vn -0.8384 0.0000 0.5450
vn -0.8837 0.0000 -0.4680
vn 0.0892 0.0000 -0.9960
vn 0.0946 0.0000 0.9955
vn -0.9985 0.0000 0.0548
vn -0.2569 0.0000 -0.9664
vn -0.3075 0.0000 0.9515
vn -0.5396 0.0000 0.8419
vn -0.9970 0.0000 -0.0775
vn -0.9959 0.0000 0.0902
vn -0.4503 0.0000 -0.8929
vn -0.9304 0.0000 -0.3667
vn -0.9154 0.0000 0.4025
vn -0.9978 0.0000 -0.0662
vn -0.9989 0.0000 0.0459
vn 0.0475 0.0000 -0.9989
vn 0.0114 0.0000 0.9999
vn 0.4656 0.0000 -0.8850
vn 0.5419 0.0000 0.8404
vn 0.9999 0.0000 0.0134
vn 0.9948 0.0000 -0.1022
vn 0.9198 0.0000 -0.3925
vn 0.2827 0.0000 0.9592
vn 0.9878 0.0000 -0.1558
vn 0.9364 0.0000 0.3509
vn 0.9992 0.0000 -0.0393
vn 0.2374 0.0000 -0.9714
vn -0.0374 0.0000 0.9993
vn 0.9988 0.0000 -0.0495
vn 0.8792 0.0000 0.4765
vn 0.8163 0.0000 -0.5776
vn -0.0569 0.0000 0.9984
vn -0.0563 0.0000 -0.9984
vn -0.3420 0.0000 0.9397
vn -0.3291 0.0000 -0.9443
vn -0.1302 0.0000 0.9915
vn 0.1599 0.0000 0.9871
vn -0.0656 0.0000 -0.9978
vn 0.0569 0.0000 -0.9984
vn 0.9667 0.0000 0.2558
vn 0.9972 0.0000 -0.0742
vn 0.9755 0.0000 0.2198
vn 0.9921 0.0000 0.1257
vn 0.9775 0.0000 -0.2108
vn 0.0000 1.0000 0.0000
usemtl BackMat.001
s off
f 237/1/1 227/2/1 240/3/1
f 237/1/1 226/4/1 227/2/1
f 242/5/1 247/6/1 261/7/1
f 225/8/1 234/9/1 220/10/1
f 204/11/1 195/12/1 200/13/1
f 243/14/1 244/15/1 210/16/1
f 210/16/1 212/17/1 207/18/1
f 256/19/1 245/20/1 241/21/1
f 241/21/1 245/20/1 238/22/1
f 244/15/1 236/23/1 215/24/1
f 220/10/1 235/25/1 217/26/1
f 215/24/1 212/17/1 210/16/1
f 251/27/1 262/28/1 249/29/1
f 228/30/1 235/25/1 230/31/1
f 258/32/1 262/28/1 251/27/1
f 204/11/1 203/33/1 195/12/1
f 247/6/1 236/23/1 244/15/1
f 248/34/1 260/35/1 250/36/1
f 244/15/1 215/24/1 210/16/1
f 217/26/1 235/25/1 228/30/1
f 224/37/1 227/2/1 221/38/1
f 209/39/1 243/14/1 210/16/1
f 222/40/1 224/37/1 221/38/1
f 213/41/1 243/14/1 209/39/1
f 213/41/1 209/39/1 211/42/1
f 195/12/1 197/43/1 193/44/1
f 261/7/1 249/29/1 262/28/1
f 213/41/1 245/20/1 243/14/1
f 234/9/1 235/25/1 220/10/1
f 249/29/1 261/7/1 247/6/1
f 215/24/1 232/45/1 225/8/1
f 236/23/1 247/6/1 242/5/1
f 220/10/1 217/26/1 218/46/1
f 234/9/1 225/8/1 232/45/1
f 196/47/1 190/48/1 191/49/1
f 242/5/1 261/7/1 252/50/1
f 211/42/1 206/51/1 204/11/1
f 202/52/1 189/53/1 190/48/1
f 207/18/1 205/54/1 202/52/1
f 189/53/1 202/52/1 205/54/1
f 254/55/1 250/36/1 260/35/1
f 236/23/1 232/45/1 215/24/1
f 195/12/1 203/33/1 197/43/1
f 202/52/1 190/48/1 196/47/1
f 226/4/1 238/22/1 213/41/1
f 211/42/1 209/39/1 206/51/1
f 206/51/1 203/33/1 204/11/1
f 229/56/1 240/3/1 227/2/1
f 189/53/1 205/54/1 198/57/1
f 237/1/1 238/22/1 226/4/1
f 221/38/1 227/2/1 226/4/1
f 205/54/1 207/18/1 212/17/1
f 238/22/1 245/20/1 213/41/1
f 260/35/1 248/34/1 256/19/1
f 248/34/1 245/20/1 256/19/1
f 1/58/2 2/59/2 59/60/2 58/61/2
f 2/59/3 118/62/3 192/63/3 59/60/3
f 120/64/4 13/65/4 70/66/4 194/67/4
f 3/68/5 4/69/5 61/70/5 60/71/5
f 11/72/6 12/73/6 69/74/6 68/75/6
f 125/76/7 1/58/7 58/61/7 199/77/7
f 13/65/8 127/78/8 201/79/8 70/66/8
f 4/69/9 5/80/9 62/81/9 61/70/9
f 10/82/10 11/72/10 68/75/10 67/83/10
f 14/84/11 15/85/11 72/86/11 71/87/11
f 56/88/12 57/89/12 114/90/12 113/91/12
f 9/92/13 10/82/13 67/83/13 66/93/13
f 5/80/14 134/94/14 208/95/14 62/81/14
f 8/96/15 9/92/15 66/93/15 65/97/15
f 6/98/16 7/99/16 64/100/16 63/101/16
f 15/85/17 16/102/17 73/103/17 72/86/17
f 55/104/18 56/88/18 113/91/18 112/105/18
f 7/99/19 8/96/19 65/97/19 64/100/19
f 16/102/20 140/106/20 214/107/20 73/103/20
f 142/108/21 55/104/21 112/105/21 216/109/21
f 50/110/22 145/111/22 219/112/22 107/113/22
f 51/114/23 52/115/23 109/116/23 108/117/23
f 19/118/24 149/119/24 223/120/24 76/121/24
f 20/122/25 21/123/25 78/124/25 77/125/25
f 52/115/26 53/126/26 110/127/26 109/116/26
f 18/128/27 19/118/27 76/121/27 75/129/27
f 53/126/28 54/130/28 111/131/28 110/127/28
f 17/132/29 18/128/29 75/129/29 74/133/29
f 21/123/30 22/134/30 79/135/30 78/124/30
f 49/136/31 50/110/31 107/113/31 106/137/31
f 22/134/32 23/138/32 80/139/32 79/135/32
f 157/140/33 49/136/33 106/137/33 231/141/33
f 159/142/34 46/143/34 103/144/34 233/145/34
f 47/146/35 48/147/35 105/148/35 104/149/35
f 46/143/36 47/146/36 104/149/36 103/144/36
f 44/150/37 45/151/37 102/152/37 101/153/37
f 25/154/38 165/155/38 239/156/38 82/157/38
f 24/158/39 25/154/39 82/157/39 81/159/39
f 23/138/40 24/158/40 81/159/40 80/139/40
f 26/160/41 27/161/41 84/162/41 83/163/41
f 43/164/42 44/150/42 101/153/42 100/165/42
f 34/166/43 35/167/43 92/168/43 91/169/43
f 172/170/44 34/166/44 91/169/44 246/171/44
f 35/167/45 36/172/45 93/173/45 92/168/45
f 32/174/46 33/175/46 90/176/46 89/177/46
f 36/172/47 37/178/47 94/179/47 93/173/47
f 31/180/48 32/174/48 89/177/48 88/181/48
f 37/178/49 38/182/49 95/183/49 94/179/49
f 179/184/50 43/164/50 100/165/50 253/185/50
f 181/186/51 31/180/51 88/181/51 255/187/51
f 27/161/52 183/188/52 257/189/52 84/162/52
f 38/182/53 185/190/53 259/191/53 95/183/53
f 29/192/54 30/193/54 87/194/54 86/195/54
f 28/196/55 29/192/55 86/195/55 85/197/55
f 41/198/56 42/199/56 99/200/56 98/201/56
f 40/202/57 41/198/57 98/201/57 97/203/57
f 39/204/58 40/202/58 97/203/58 96/205/58
usemtl FrontMat.001
f 163/206/59 166/207/59 153/208/59
f 163/206/59 153/208/59 152/209/59
f 168/210/59 187/211/59 173/212/59
f 151/213/59 146/214/59 160/215/59
f 130/216/59 126/217/59 121/218/59
f 169/219/59 136/220/59 170/221/59
f 136/220/59 133/222/59 138/223/59
f 182/224/59 167/225/59 171/226/59
f 167/225/59 164/227/59 171/226/59
f 170/221/59 141/228/59 162/229/59
f 146/214/59 143/230/59 161/231/59
f 141/228/59 136/220/59 138/223/59
f 177/232/59 175/233/59 188/234/59
f 154/235/59 156/236/59 161/231/59
f 184/237/59 177/232/59 188/234/59
f 130/216/59 121/218/59 129/238/59
f 173/212/59 170/221/59 162/229/59
f 174/239/59 176/240/59 186/241/59
f 170/221/59 136/220/59 141/228/59
f 143/230/59 154/235/59 161/231/59
f 150/242/59 147/243/59 153/208/59
f 135/244/59 136/220/59 169/219/59
f 148/245/59 147/243/59 150/242/59
f 139/246/59 135/244/59 169/219/59
f 139/246/59 137/247/59 135/244/59
f 121/218/59 119/248/59 123/249/59
f 187/211/59 188/234/59 175/233/59
f 139/246/59 169/219/59 171/226/59
f 160/215/59 146/214/59 161/231/59
f 175/233/59 173/212/59 187/211/59
f 141/228/59 151/213/59 158/250/59
f 162/229/59 168/210/59 173/212/59
f 146/214/59 144/251/59 143/230/59
f 160/215/59 158/250/59 151/213/59
f 122/252/59 117/253/59 116/254/59
f 168/210/59 178/255/59 187/211/59
f 137/247/59 130/216/59 132/256/59
f 128/257/59 116/254/59 115/258/59
f 133/222/59 128/257/59 131/259/59
f 115/258/59 131/259/59 128/257/59
f 180/260/59 186/241/59 176/240/59
f 162/229/59 141/228/59 158/250/59
f 121/218/59 123/249/59 129/238/59
f 128/257/59 122/252/59 116/254/59
f 152/209/59 139/246/59 164/227/59
f 137/247/59 132/256/59 135/244/59
f 132/256/59 130/216/59 129/238/59
f 155/261/59 153/208/59 166/207/59
f 115/258/59 124/262/59 131/259/59
f 163/206/59 152/209/59 164/227/59
f 147/243/59 152/209/59 153/208/59
f 131/259/59 138/223/59 133/222/59
f 164/227/59 139/246/59 171/226/59
f 186/241/59 182/224/59 174/239/59
f 174/239/59 182/224/59 171/226/59
