# Blender v2.83.1 OBJ File: 'jigsaw-4x4-3-step2.blend'
# www.blender.org
mtllib piece.11.mtl
o path22_path22.001
v 0.167031 0.037500 0.552043
v 0.091474 0.037500 0.535411
v 0.097795 0.037500 0.476160
v 0.139417 0.037500 0.392866
v 0.149481 0.037500 0.312022
v 0.083036 0.037500 0.257099
v -0.017261 0.037500 0.239492
v -0.086844 0.037500 0.267578
v -0.082974 0.037500 0.342266
v -0.050202 0.037500 0.434614
v -0.054902 0.037500 0.508213
v -0.142888 0.037500 0.536355
v -0.277735 0.037500 0.531132
v -0.503123 0.037500 0.499007
v -0.451643 0.037500 0.300264
v -0.435697 0.037500 0.181138
v -0.458782 0.037500 0.102916
v -0.537224 0.037500 0.097657
v -0.642561 0.037500 0.125519
v -0.735129 0.037500 0.128687
v -0.782764 0.037500 0.068239
v -0.783284 0.037500 -0.019161
v -0.742002 0.037500 -0.077953
v -0.667835 0.037500 -0.072070
v -0.584053 0.037500 -0.043415
v -0.517530 0.037500 -0.053385
v -0.487890 0.037500 -0.143886
v -0.485753 0.037500 -0.278871
v -0.503123 0.037500 -0.502690
v -0.271686 0.037500 -0.531265
v -0.133300 0.037500 -0.535634
v -0.043185 0.037500 -0.509790
v -0.038987 0.037500 -0.442249
v -0.074554 0.037500 -0.354206
v -0.082788 0.037500 -0.275028
v -0.018246 0.037500 -0.229646
v 0.077898 0.037500 -0.225270
v 0.142812 0.037500 -0.264673
v 0.134864 0.037500 -0.344590
v 0.097221 0.037500 -0.437602
v 0.094246 0.037500 -0.510246
v 0.170660 0.037500 -0.538177
v 0.292612 0.037500 -0.533493
v 0.498787 0.037500 -0.502691
v 0.474241 0.037500 -0.284100
v 0.472784 0.037500 -0.153096
v 0.501657 0.037500 -0.067112
v 0.571588 0.037500 -0.061484
v 0.659711 0.037500 -0.092688
v 0.734765 0.037500 -0.097487
v 0.771101 0.037500 -0.033036
v 0.765532 0.037500 0.061944
v 0.720488 0.037500 0.128342
v 0.642767 0.037500 0.126918
v 0.556644 0.037500 0.097918
v 0.490763 0.037500 0.101461
v 0.465776 0.037500 0.179186
v 0.470369 0.037500 0.298813
v 0.498787 0.037500 0.499007
v 0.167031 -0.037500 0.552043
v 0.091474 -0.037500 0.535411
v 0.097795 -0.037500 0.476160
v 0.139417 -0.037500 0.392866
v 0.149481 -0.037500 0.312022
v 0.083036 -0.037500 0.257099
v -0.017261 -0.037500 0.239492
v -0.086844 -0.037500 0.267578
v -0.082974 -0.037498 0.342266
v -0.050202 -0.037500 0.434614
v -0.054902 -0.037500 0.508213
v -0.142888 -0.037500 0.536355
v -0.277735 -0.037498 0.531132
v -0.503123 -0.037500 0.499007
v -0.451643 -0.037498 0.300264
v -0.435697 -0.037500 0.181138
v -0.458782 -0.037500 0.102916
v -0.537224 -0.037498 0.097657
v -0.642561 -0.037500 0.125519
v -0.735129 -0.037500 0.128687
v -0.782764 -0.037500 0.068239
v -0.783284 -0.037500 -0.019161
v -0.742002 -0.037500 -0.077953
v -0.667835 -0.037500 -0.072070
v -0.584053 -0.037500 -0.043415
v -0.517530 -0.037500 -0.053385
v -0.487890 -0.037500 -0.143886
v -0.485753 -0.037500 -0.278871
v -0.503123 -0.037498 -0.502690
v -0.271686 -0.037500 -0.531265
v -0.133300 -0.037498 -0.535634
v -0.043185 -0.037500 -0.509790
v -0.038987 -0.037500 -0.442249
v -0.074554 -0.037500 -0.354206
v -0.082788 -0.037500 -0.275028
v -0.018246 -0.037500 -0.229646
v 0.077898 -0.037500 -0.225270
v 0.142812 -0.037500 -0.264673
v 0.134864 -0.037500 -0.344590
v 0.097221 -0.037500 -0.437602
v 0.094246 -0.037500 -0.510246
v 0.170660 -0.037500 -0.538177
v 0.292612 -0.037500 -0.533493
v 0.498787 -0.037500 -0.502691
v 0.474241 -0.037500 -0.284100
v 0.472784 -0.037500 -0.153096
v 0.501657 -0.037500 -0.067112
v 0.571588 -0.037500 -0.061484
v 0.659711 -0.037500 -0.092688
v 0.734765 -0.037500 -0.097487
v 0.771101 -0.037500 -0.033036
v 0.765532 -0.037500 0.061944
v 0.720488 -0.037500 0.128342
v 0.642767 -0.037500 0.126918
v 0.556644 -0.037500 0.097918
v 0.490763 -0.037500 0.101461
v 0.465776 -0.037500 0.179186
v 0.470369 -0.037500 0.298813
v 0.498787 -0.037500 0.499007
v 0.167031 0.037500 0.552043
v 0.091474 0.037500 0.535411
v 0.091474 0.037500 0.535411
v -0.054902 0.037500 0.508213
v -0.054902 0.037500 0.508213
v -0.142888 0.037500 0.536355
v -0.277735 0.037500 0.531132
v 0.097795 0.037500 0.476160
v -0.050202 0.037500 0.434614
v 0.498787 0.037500 0.499007
v 0.498787 0.037500 0.499007
v -0.503123 0.037500 0.499007
v -0.503123 0.037500 0.499007
v 0.139417 0.037500 0.392866
v -0.082974 0.037500 0.342266
v -0.451643 0.037500 0.300264
v 0.470369 0.037500 0.298813
v 0.149481 0.037500 0.312022
v -0.086844 0.037500 0.267578
v -0.086844 0.037500 0.267578
v 0.083036 0.037500 0.257099
v -0.435697 0.037500 0.181138
v 0.465776 0.037500 0.179186
v -0.017261 0.037500 0.239492
v -0.458782 0.037500 0.102916
v -0.458782 0.037500 0.102916
v 0.490763 0.037500 0.101461
v 0.490763 0.037500 0.101461
v -0.642561 0.037500 0.125519
v -0.735129 0.037500 0.128687
v -0.782764 0.037500 0.068239
v 0.765532 0.037500 0.061944
v 0.720488 0.037500 0.128342
v 0.642767 0.037500 0.126918
v 0.556644 0.037500 0.097918
v -0.537224 0.037500 0.097657
v -0.783284 0.037500 -0.019161
v 0.771101 0.037500 -0.033036
v -0.742002 0.037500 -0.077953
v 0.734765 0.037500 -0.097487
v 0.734765 0.037500 -0.097487
v -0.584053 0.037500 -0.043415
v -0.517530 0.037500 -0.053385
v -0.517530 0.037500 -0.053385
v -0.667835 0.037500 -0.072070
v -0.487890 0.037500 -0.143886
v 0.659711 0.037500 -0.092688
v 0.571588 0.037500 -0.061484
v 0.501657 0.037500 -0.067112
v 0.501657 0.037500 -0.067112
v 0.472784 0.037500 -0.153096
v -0.485753 0.037500 -0.278871
v 0.474241 0.037500 -0.284100
v -0.018246 0.037500 -0.229646
v 0.077898 0.037500 -0.225270
v 0.142812 0.037500 -0.264673
v 0.142812 0.037500 -0.264673
v -0.082788 0.037500 -0.275028
v -0.082788 0.037500 -0.275028
v 0.134864 0.037500 -0.344590
v -0.074554 0.037500 -0.354206
v 0.097221 0.037500 -0.437602
v -0.038987 0.037500 -0.442249
v 0.498787 0.037500 -0.502691
v 0.498787 0.037500 -0.502691
v 0.094246 0.037500 -0.510246
v 0.094246 0.037500 -0.510246
v -0.043185 0.037500 -0.509790
v -0.043185 0.037500 -0.509790
v -0.503123 0.037500 -0.502690
v -0.503123 0.037500 -0.502690
v -0.133300 0.037500 -0.535634
v 0.170660 0.037500 -0.538177
v -0.271686 0.037500 -0.531265
v 0.292612 0.037500 -0.533493
v 0.167031 -0.037500 0.552043
v 0.091474 -0.037500 0.535411
v 0.091474 -0.037500 0.535411
v -0.054902 -0.037500 0.508213
v -0.054902 -0.037500 0.508213
v -0.142888 -0.037500 0.536355
v -0.277735 -0.037498 0.531132
v 0.097795 -0.037500 0.476160
v -0.050202 -0.037500 0.434614
v 0.498787 -0.037500 0.499007
v 0.498787 -0.037500 0.499007
v -0.503123 -0.037500 0.499007
v -0.503123 -0.037500 0.499007
v 0.139417 -0.037500 0.392866
v -0.082974 -0.037498 0.342266
v -0.451643 -0.037498 0.300264
v 0.470369 -0.037500 0.298813
v 0.149481 -0.037500 0.312022
v -0.086844 -0.037500 0.267578
v -0.086844 -0.037500 0.267578
v 0.083036 -0.037500 0.257099
v -0.435697 -0.037500 0.181138
v 0.465776 -0.037500 0.179186
v -0.017261 -0.037500 0.239492
v -0.458782 -0.037500 0.102916
v -0.458782 -0.037500 0.102916
v 0.490763 -0.037500 0.101461
v 0.490763 -0.037500 0.101461
v -0.642561 -0.037500 0.125519
v -0.735129 -0.037500 0.128687
v -0.782764 -0.037500 0.068239
v 0.765532 -0.037500 0.061944
v 0.720488 -0.037500 0.128342
v 0.642767 -0.037500 0.126918
v 0.556644 -0.037500 0.097918
v -0.537224 -0.037498 0.097657
v -0.783284 -0.037500 -0.019161
v 0.771101 -0.037500 -0.033036
v -0.742002 -0.037500 -0.077953
v 0.734765 -0.037500 -0.097487
v 0.734765 -0.037500 -0.097487
v -0.584053 -0.037500 -0.043415
v -0.517530 -0.037500 -0.053385
v -0.517530 -0.037500 -0.053385
v -0.667835 -0.037500 -0.072070
v -0.487890 -0.037500 -0.143886
v 0.659711 -0.037500 -0.092688
v 0.571588 -0.037500 -0.061484
v 0.501657 -0.037500 -0.067112
v 0.501657 -0.037500 -0.067112
v 0.472784 -0.037500 -0.153096
v -0.485753 -0.037500 -0.278871
v 0.474241 -0.037500 -0.284100
v -0.018246 -0.037500 -0.229646
v 0.077898 -0.037500 -0.225270
v 0.142812 -0.037500 -0.264673
v 0.142812 -0.037500 -0.264673
v -0.082788 -0.037500 -0.275028
v -0.082788 -0.037500 -0.275028
v 0.134864 -0.037500 -0.344590
v -0.074554 -0.037500 -0.354206
v 0.097221 -0.037500 -0.437602
v -0.038987 -0.037500 -0.442249
v 0.498787 -0.037500 -0.502691
v 0.498787 -0.037500 -0.502691
v 0.094246 -0.037500 -0.510246
v 0.094246 -0.037500 -0.510246
v -0.043185 -0.037500 -0.509790
v -0.043185 -0.037500 -0.509790
v -0.503123 -0.037498 -0.502690
v -0.503123 -0.037498 -0.502690
v -0.133300 -0.037498 -0.535634
v 0.170660 -0.037500 -0.538177
v -0.271686 -0.037500 -0.531265
v 0.292612 -0.037500 -0.533493
vt 0.500000 0.500000
vt 0.500000 0.500000
vt 0.500000 0.500000
vt 0.500000 0.500000
vt 0.500000 0.500000
vt 0.500000 0.500000
vt 0.500000 0.500000
vt 0.500000 0.500000
vt 0.500000 0.500000
vt 0.500000 0.500000
vt 0.500000 0.500000
vt 0.500000 0.500000
vt 0.500000 0.500000
vt 0.500000 0.500000
vt 0.500000 0.500000
vt 0.500000 0.500000
vt 0.500000 0.500000
vt 0.500000 0.500000
vt 0.500000 0.500000
vt 0.500000 0.500000
vt 0.500000 0.500000
vt 0.500000 0.500000
vt 0.500000 0.500000
vt 0.500000 0.500000
vt 0.500000 0.500000
vt 0.500000 0.500000
vt 0.500000 0.500000
vt 0.500000 0.500000
vt 0.500000 0.500000
vt 0.500000 0.500000
vt 0.500000 0.500000
vt 0.500000 0.500000
vt 0.500000 0.500000
vt 0.500000 0.500000
vt 0.500000 0.500000
vt 0.500000 0.500000
vt 0.500000 0.500000
vt 0.500000 0.500000
vt 0.500000 0.500000
vt 0.500000 0.500000
vt 0.500000 0.500000
vt 0.500000 0.500000
vt 0.500000 0.500000
vt 0.500000 0.500000
vt 0.500000 0.500000
vt 0.500000 0.500000
vt 0.500000 0.500000
vt 0.500000 0.500000
vt 0.500000 0.500000
vt 0.500000 0.500000
vt 0.500000 0.500000
vt 0.500000 0.500000
vt 0.500000 0.500000
vt 0.500000 0.500000
vt 0.500000 0.500000
vt 0.500000 0.500000
vt 0.500000 0.500000
vt 0.500000 0.500000
vt 0.500000 0.500000
vt 0.500000 0.500000
vt 0.500000 0.500000
vt 0.500000 0.500000
vt 0.500000 0.500000
vt 0.500000 0.500000
vt 0.500000 0.500000
vt 0.500000 0.500000
vt 0.500000 0.500000
vt 0.500000 0.500000
vt 0.500000 0.500000
vt 0.500000 0.500000
vt 0.500000 0.500000
vt 0.500000 0.500000
vt 0.500000 0.500000
vt 0.500000 0.500000
vt 0.500000 0.500000
vt 0.500000 0.500000
vt 0.500000 0.500000
vt 0.500000 0.500000
vt 0.500000 0.500000
vt 0.500000 0.500000
vt 0.500000 0.500000
vt 0.500000 0.500000
vt 0.500000 0.500000
vt 0.500000 0.500000
vt 0.500000 0.500000
vt 0.500000 0.500000
vt 0.500000 0.500000
vt 0.500000 0.500000
vt 0.500000 0.500000
vt 0.500000 0.500000
vt 0.500000 0.500000
vt 0.500000 0.500000
vt 0.500000 0.500000
vt 0.500000 0.500000
vt 0.500000 0.500000
vt 0.500000 0.500000
vt 0.500000 0.500000
vt 0.500000 0.500000
vt 0.500000 0.500000
vt 0.500000 0.500000
vt 0.500000 0.500000
vt 0.500000 0.500000
vt 0.500000 0.500000
vt 0.500000 0.500000
vt 0.500000 0.500000
vt 0.500000 0.500000
vt 0.500000 0.500000
vt 0.500000 0.500000
vt 0.500000 0.500000
vt 0.500000 0.500000
vt 0.500000 0.500000
vt 0.500000 0.500000
vt 0.500000 0.500000
vt 0.500000 0.500000
vt 0.500000 0.500000
vt 0.500000 0.500000
vt 0.500000 0.500000
vt 0.500000 0.500000
vt 0.500000 0.500000
vt 0.500000 0.500000
vt 0.500000 0.500000
vt 0.500000 0.500000
vt 0.500000 0.500000
vt 0.500000 0.500000
vt 0.500000 0.500000
vt 0.500000 0.500000
vt 0.500000 0.500000
vt 0.500000 0.500000
vt 0.500000 0.500000
vt 0.500000 0.500000
vt 0.500000 0.500000
vt 0.500000 0.500000
vt 0.500000 0.500000
vt 0.500000 0.500000
vt 0.500000 0.500000
vt 0.500000 0.500000
vt 0.500000 0.500000
vt 0.500000 0.500000
vt 0.500000 0.500000
vt 0.500000 0.500000
vt 0.500000 0.500000
vt 0.500000 0.500000
vt 0.500000 0.500000
vt 0.500000 0.500000
vt 0.500000 0.500000
vt 0.500000 0.500000
vt 0.500000 0.500000
vt 0.500000 0.500000
vt 0.500000 0.500000
vt 0.500000 0.500000
vt 0.500000 0.500000
vt 0.500000 0.500000
vt 0.500000 0.500000
vt 0.500000 0.500000
vt 0.500000 0.500000
vt 0.500000 0.500000
vt 0.500000 0.500000
vt 0.500000 0.500000
vt 0.500000 0.500000
vt 0.500000 0.500000
vt 0.500000 0.500000
vt 0.500000 0.500000
vt 0.500000 0.500000
vt 0.500000 0.500000
vt 0.500000 0.500000
vt 0.500000 0.500000
vt 0.500000 0.500000
vt 0.500000 0.500000
vt 0.500000 0.500000
vt 0.500000 0.500000
vt 0.500000 0.500000
vt 0.500000 0.500000
vt 0.500000 0.500000
vt 0.500000 0.500000
vt 0.500000 0.500000
vt 0.500000 0.500000
vt 0.500000 0.500000
vt 0.500000 0.500000
vt 0.500000 0.500000
vt 0.500000 0.500000
vt 0.500000 0.500000
vt 0.500000 0.500000
vt 0.500000 0.500000
vt 0.500000 0.500000
vt 0.500000 0.500000
vt 0.500000 0.500000
vt 0.500000 0.500000
vt 0.500000 0.500000
vt 0.500000 0.500000
vt 0.500000 0.500000
vt 0.500000 0.500000
vt 0.500000 0.500000
vt 0.500000 0.500000
vt 0.500000 0.500000
vt 0.500000 0.500000
vt 0.500000 0.500000
vt 0.500000 0.500000
vt 0.500000 0.500000
vt 0.500000 0.500000
vt 0.500000 0.500000
vt 0.500000 0.500000
vt 0.500000 0.500000
vt 0.500000 0.500000
vt 0.500000 0.500000
vt 0.500000 0.500000
vt 0.500000 0.500000
vt 0.500000 0.500000
vt 0.500000 0.500000
vt 0.500000 0.500000
vt 0.589671 0.473510
vt 0.507091 0.450036
vt 0.587160 0.453333
vt 0.508237 0.420180
vt 0.603740 0.439625
vt 0.660113 0.509321
vt 0.645163 0.460881
vt 0.693761 0.508018
vt 0.500000 0.500000
vt 0.737155 0.450398
vt 0.588824 0.309404
vt 0.506125 0.304555
vt 0.590807 0.289458
vt 0.432051 0.367215
vt 0.441118 0.351129
vt 0.459845 0.352327
vt 0.502002 0.400782
vt 0.605021 0.319238
vt 0.628766 0.435231
vt 0.746199 0.339549
vt 0.753595 0.362136
vt 0.738936 0.401145
vt 0.485563 0.399898
vt 0.464074 0.407135
vt 0.481834 0.360115
vt 0.506488 0.337251
vt 0.770194 0.364624
vt 0.791100 0.357473
vt 0.784793 0.406786
vt 0.629012 0.318145
vt 0.645117 0.306819
vt 0.733176 0.420667
vt 0.646129 0.442241
vt 0.581875 0.241144
vt 0.600200 0.266245
vt 0.819777 0.392490
vt 0.444680 0.407491
vt 0.433441 0.390920
vt 0.758509 0.399832
vt 0.499284 0.358710
vt 0.582781 0.513236
vt 0.638159 0.502298
vt 0.636986 0.483929
vt 0.551445 0.242312
vt 0.500000 0.250000
vt 0.643062 0.287058
vt 0.634187 0.265085
vt 0.657720 0.241778
vt 0.692251 0.242868
vt 0.819907 0.370677
vt 0.809606 0.356004
vt 0.745666 0.305860
vt 0.750000 0.250000
vt 0.807891 0.407577
vt 0.600942 0.248114
vt 0.750000 0.500000
vt 0.635235 0.248228
vt 0.600057 0.494298
vt 0.601634 0.509086
vn 0.0000 -1.0000 -0.0000
vn -0.2150 0.0000 0.9766
vn 0.3046 0.0000 0.9525
vn -0.0387 0.0000 0.9993
vn -0.9944 0.0000 -0.1061
vn 0.9980 0.0000 0.0637
vn 0.1579 0.0000 0.9875
vn -0.1411 0.0000 0.9900
vn -0.8945 0.0000 -0.4470
vn 0.9424 0.0000 -0.3344
vn -0.9681 0.0000 -0.2508
vn 0.9901 0.0000 -0.1405
vn -0.9923 0.0000 -0.1235
vn 0.9987 0.0000 -0.0517
vn -0.6371 0.0000 0.7708
vn -0.9912 0.0000 -0.1327
vn 0.9993 0.0000 -0.0384
vn 0.3743 0.0000 0.9273
vn -0.1729 0.0000 0.9849
vn -0.9591 0.0000 0.2830
vn 0.9520 0.0000 0.3060
vn 0.0342 0.0000 0.9994
vn -0.7854 0.0000 0.6189
vn 0.8275 0.0000 0.5614
vn -0.0183 0.0000 0.9998
vn -0.3191 0.0000 0.9477
vn 0.2557 0.0000 0.9668
vn -0.0669 0.0000 0.9978
vn 0.0537 0.0000 0.9986
vn -1.0000 0.0000 0.0059
vn 0.9983 0.0000 0.0585
vn -0.8184 0.0000 -0.5747
vn 0.8711 0.0000 -0.4911
vn -0.1482 0.0000 -0.9890
vn 0.3236 0.0000 -0.9462
vn 0.0791 0.0000 -0.9969
vn -0.9503 0.0000 -0.3112
vn -0.0638 0.0000 -0.9980
vn -0.3338 0.0000 -0.9426
vn 0.0802 0.0000 -0.9968
vn 0.9480 0.0000 -0.3183
vn -0.9999 0.0000 -0.0158
vn 0.9999 0.0000 0.0111
vn 0.0455 0.0000 -0.9990
vn -0.5189 0.0000 -0.8548
vn 0.5752 0.0000 -0.8180
vn -0.9951 0.0000 0.0990
vn 0.9946 0.0000 0.1034
vn -0.9270 0.0000 0.3752
vn 0.9272 0.0000 0.3746
vn 0.9938 0.0000 0.1116
vn -0.9992 0.0000 0.0409
vn 0.9981 0.0000 -0.0620
vn -0.9970 0.0000 0.0774
vn 0.2757 0.0000 -0.9613
vn -0.3433 0.0000 -0.9392
vn -0.0316 0.0000 -0.9995
vn -0.1225 0.0000 -0.9925
vn 0.1478 0.0000 -0.9890
vn 0.0384 0.0000 -0.9993
vn 0.0000 1.0000 -0.0000
usemtl BackMat.001
s off
f 207/1/1 211/2/1 210/3/1
f 211/2/1 214/4/1 216/5/1
f 199/6/1 200/7/1 208/8/1
f 203/9/1 207/1/1 210/3/1
f 200/7/1 209/10/1 208/8/1
f 249/11/1 253/12/1 246/13/1
f 231/14/1 240/15/1 233/16/1
f 214/4/1 248/17/1 220/18/1
f 217/19/1 248/17/1 214/4/1
f 239/20/1 218/21/1 236/22/1
f 228/23/1 241/24/1 227/25/1
f 244/26/1 249/11/1 246/13/1
f 241/24/1 240/15/1 227/25/1
f 235/27/1 222/28/1 238/29/1
f 210/3/1 211/2/1 216/5/1
f 218/21/1 251/30/1 247/31/1
f 215/32/1 212/33/1 209/10/1
f 253/12/1 255/34/1 266/35/1
f 224/36/1 238/29/1 222/28/1
f 227/25/1 225/37/1 226/38/1
f 222/28/1 235/27/1 229/39/1
f 235/27/1 236/22/1 229/39/1
f 212/33/1 247/31/1 217/19/1
f 242/40/1 249/11/1 244/26/1
f 194/41/1 207/1/1 203/9/1
f 197/42/1 199/6/1 202/43/1
f 246/13/1 253/12/1 268/44/1
f 248/17/1 249/11/1 242/40/1
f 246/13/1 268/44/1 257/45/1
f 225/37/1 240/15/1 231/14/1
f 217/19/1 247/31/1 248/17/1
f 254/46/1 265/47/1 256/48/1
f 265/47/1 254/46/1 267/49/1
f 230/50/1 238/29/1 224/36/1
f 228/23/1 242/40/1 241/24/1
f 232/51/1 238/29/1 230/50/1
f 245/52/1 251/30/1 239/20/1
f 267/49/1 245/52/1 263/53/1
f 239/20/1 251/30/1 218/21/1
f 216/5/1 214/4/1 220/18/1
f 220/18/1 242/40/1 228/23/1
f 223/54/1 224/36/1 222/28/1
f 218/21/1 247/31/1 212/33/1
f 202/43/1 199/6/1 208/8/1
f 229/39/1 236/22/1 218/21/1
f 248/17/1 242/40/1 220/18/1
f 245/52/1 267/49/1 251/30/1
f 266/35/1 255/34/1 259/55/1
f 218/21/1 212/33/1 215/32/1
f 205/56/1 209/10/1 200/7/1
f 261/57/1 256/48/1 265/47/1
f 268/44/1 253/12/1 266/35/1
f 201/58/1 194/41/1 195/59/1
f 208/8/1 209/10/1 212/33/1
f 251/30/1 267/49/1 254/46/1
f 227/25/1 240/15/1 225/37/1
f 207/1/1 194/41/1 201/58/1
f 1/60/2 121/61/2 196/62/2 60/63/2
f 123/64/3 12/65/3 71/66/3 198/67/3
f 12/65/4 13/68/4 72/69/4 71/66/4
f 2/70/5 3/71/5 62/72/5 61/73/5
f 10/74/6 11/75/6 70/76/6 69/77/6
f 129/78/7 1/60/7 60/63/7 204/79/7
f 13/68/8 131/80/8 206/81/8 72/69/8
f 3/71/9 4/82/9 63/83/9 62/72/9
f 9/84/10 10/74/10 69/77/10 68/85/10
f 14/86/11 15/87/11 74/88/11 73/89/11
f 58/90/12 59/91/12 118/92/12 117/93/12
f 4/82/13 5/94/13 64/95/13 63/83/13
f 138/96/14 9/84/14 68/85/14 213/97/14
f 5/94/15 6/98/15 65/99/15 64/95/15
f 15/87/16 16/100/16 75/101/16 74/88/16
f 57/102/17 58/90/17 117/93/17 116/103/17
f 7/104/18 8/105/18 67/106/18 66/107/18
f 6/98/19 7/104/19 66/107/19 65/99/19
f 16/100/20 144/108/20 219/109/20 75/101/20
f 146/110/21 57/102/21 116/103/21 221/111/21
f 19/112/22 20/113/22 79/114/22 78/115/22
f 20/113/23 21/116/23 80/117/23 79/114/23
f 52/118/24 53/119/24 112/120/24 111/121/24
f 53/119/25 54/122/25 113/123/25 112/120/25
f 54/122/26 55/124/26 114/125/26 113/123/26
f 18/126/27 19/112/27 78/115/27 77/127/27
f 17/128/28 18/126/28 77/127/28 76/129/28
f 55/124/29 56/130/29 115/131/29 114/125/29
f 21/116/30 22/132/30 81/133/30 80/117/30
f 51/134/31 52/118/31 111/121/31 110/135/31
f 22/132/32 23/136/32 82/137/32 81/133/32
f 159/138/33 51/134/33 110/135/33 234/139/33
f 25/140/34 162/141/34 237/142/34 84/143/34
f 24/144/35 25/140/35 84/143/35 83/145/35
f 23/136/36 24/144/36 83/145/36 82/137/36
f 26/146/37 27/147/37 86/148/37 85/149/37
f 49/150/38 50/151/38 109/152/38 108/153/38
f 48/154/39 49/150/39 108/153/39 107/155/39
f 168/156/40 48/154/40 107/155/40 243/157/40
f 46/158/41 47/159/41 106/160/41 105/161/41
f 27/147/42 28/162/42 87/163/42 86/148/42
f 45/164/43 46/158/43 105/161/43 104/165/43
f 36/166/44 37/167/44 96/168/44 95/169/44
f 37/167/45 175/170/45 250/171/45 96/168/45
f 177/172/46 36/166/46 95/169/46 252/173/46
f 38/174/47 39/175/47 98/176/47 97/177/47
f 34/178/48 35/179/48 94/180/48 93/181/48
f 39/175/49 40/182/49 99/183/49 98/176/49
f 33/184/50 34/178/50 93/181/50 92/185/50
f 183/186/51 45/164/51 104/165/51 258/187/51
f 40/182/52 185/188/52 260/189/52 99/183/52
f 187/190/53 33/184/53 92/185/53 262/191/53
f 28/162/54 189/192/54 264/193/54 87/163/54
f 31/194/55 32/195/55 91/196/55 90/197/55
f 41/198/56 42/199/56 101/200/56 100/201/56
f 30/202/57 31/194/57 90/197/57 89/203/57
f 29/204/58 30/202/58 89/203/58 88/205/58
f 43/206/59 44/207/59 103/208/59 102/209/59
f 42/199/60 43/206/60 102/209/60 101/200/60
usemtl FrontMat.001
f 132/210/61 135/211/61 136/212/61
f 136/212/61 141/213/61 139/214/61
f 124/215/61 133/216/61 125/217/61
f 128/218/61 135/211/61 132/210/61
f 125/217/61 133/216/61 134/219/61
f 174/220/61 171/221/61 178/222/61
f 156/223/61 158/224/61 165/225/61
f 139/214/61 145/226/61 173/227/61
f 142/228/61 139/214/61 173/227/61
f 164/229/61 161/230/61 143/231/61
f 153/232/61 152/233/61 166/234/61
f 169/235/61 171/221/61 174/220/61
f 166/234/61 152/233/61 165/225/61
f 160/236/61 163/237/61 147/238/61
f 135/211/61 141/213/61 136/212/61
f 143/231/61 172/239/61 176/240/61
f 140/241/61 134/219/61 137/242/61
f 178/222/61 191/243/61 180/244/61
f 149/245/61 147/238/61 163/237/61
f 152/233/61 151/246/61 150/247/61
f 147/238/61 154/248/61 160/236/61
f 160/236/61 154/248/61 161/230/61
f 137/242/61 142/228/61 172/239/61
f 167/249/61 169/235/61 174/220/61
f 119/250/61 128/218/61 132/210/61
f 122/251/61 127/252/61 124/215/61
f 171/221/61 193/253/61 178/222/61
f 173/227/61 167/249/61 174/220/61
f 171/221/61 182/254/61 193/253/61
f 150/247/61 156/223/61 165/225/61
f 142/228/61 173/227/61 172/239/61
f 179/255/61 181/256/61 190/257/61
f 190/257/61 192/258/61 179/255/61
f 155/259/61 149/245/61 163/237/61
f 153/232/61 166/234/61 167/249/61
f 157/260/61 155/259/61 163/237/61
f 170/261/61 164/229/61 176/240/61
f 192/258/61 188/262/61 170/261/61
f 164/229/61 143/231/61 176/240/61
f 141/213/61 145/226/61 139/214/61
f 145/226/61 153/232/61 167/249/61
f 148/263/61 147/238/61 149/245/61
f 143/231/61 137/242/61 172/239/61
f 127/252/61 133/216/61 124/215/61
f 154/248/61 143/231/61 161/230/61
f 173/227/61 145/226/61 167/249/61
f 170/261/61 176/240/61 192/258/61
f 191/243/61 184/264/61 180/244/61
f 143/231/61 140/241/61 137/242/61
f 130/265/61 125/217/61 134/219/61
f 186/266/61 190/257/61 181/256/61
f 193/253/61 191/243/61 178/222/61
f 126/267/61 120/268/61 119/250/61
f 133/216/61 137/242/61 134/219/61
f 176/240/61 179/255/61 192/258/61
f 152/233/61 150/247/61 165/225/61
f 132/210/61 126/267/61 119/250/61
