# Blender v2.83.1 OBJ File: 'jigsaw-48x27-3-step2.blend'
# www.blender.org
mtllib piece.1232.mtl
o path2464
v -0.548084 0.037500 0.106630
v -0.532825 0.037500 0.017698
v -0.481607 0.037500 0.012329
v -0.409069 0.037500 0.044983
v -0.336279 0.037500 0.049583
v -0.282841 0.037500 -0.018400
v -0.262444 0.037500 -0.117239
v -0.287317 0.037500 -0.183651
v -0.361229 0.037500 -0.175718
v -0.454147 0.037500 -0.137018
v -0.527582 0.037500 -0.132492
v -0.553352 0.037500 -0.207357
v -0.544476 0.037500 -0.327978
v -0.506269 0.037500 -0.532429
v -0.305780 0.037500 -0.564003
v -0.187227 0.037500 -0.569239
v -0.113031 0.037500 -0.541874
v -0.116009 0.037500 -0.469639
v -0.152035 0.037500 -0.376108
v -0.157734 0.037500 -0.293875
v -0.090502 0.037500 -0.250237
v 0.009190 0.037500 -0.251324
v 0.080097 0.037500 -0.297983
v 0.081583 0.037500 -0.385040
v 0.055429 0.037500 -0.483334
v 0.064016 0.037500 -0.557695
v 0.150368 0.037500 -0.582798
v 0.280085 0.037500 -0.572721
v 0.495640 0.037500 -0.532429
v 0.558216 0.037500 -0.201729
v 0.546085 0.037500 -0.123085
v 0.491440 0.037500 -0.123003
v 0.413610 0.037500 -0.158194
v 0.340103 0.037500 -0.166058
v 0.294655 0.037500 -0.104256
v 0.285906 0.037500 -0.011488
v 0.318712 0.037500 0.053282
v 0.391445 0.037500 0.051195
v 0.476509 0.037500 0.023777
v 0.539829 0.037500 0.032667
v 0.556911 0.037500 0.120186
v 0.541515 0.037500 0.251385
v 0.495640 0.037500 0.469269
v 0.267031 0.037500 0.433388
v 0.130629 0.037500 0.425621
v 0.042463 0.037500 0.451447
v 0.039785 0.037500 0.523808
v 0.076176 0.037500 0.617582
v 0.084299 0.037500 0.698130
v 0.018515 0.037500 0.737209
v -0.080074 0.037500 0.732195
v -0.148674 0.037500 0.686859
v -0.145401 0.037500 0.609102
v -0.112028 0.037500 0.523348
v -0.111242 0.037500 0.458149
v -0.186668 0.037500 0.434048
v -0.305685 0.037500 0.439550
v -0.506269 0.037500 0.469269
v -0.548084 -0.037500 0.106630
v -0.532825 -0.037498 0.017698
v -0.481607 -0.037500 0.012329
v -0.409069 -0.037500 0.044983
v -0.336279 -0.037500 0.049583
v -0.282841 -0.037500 -0.018400
v -0.262444 -0.037498 -0.117239
v -0.287317 -0.037500 -0.183651
v -0.361229 -0.037498 -0.175718
v -0.454147 -0.037500 -0.137018
v -0.527582 -0.037500 -0.132492
v -0.553352 -0.037500 -0.207357
v -0.544476 -0.037500 -0.327978
v -0.506269 -0.037498 -0.532429
v -0.305780 -0.037500 -0.564003
v -0.187227 -0.037500 -0.569239
v -0.113031 -0.037500 -0.541874
v -0.116009 -0.037500 -0.469639
v -0.152035 -0.037500 -0.376108
v -0.157734 -0.037500 -0.293875
v -0.090502 -0.037500 -0.250237
v 0.009190 -0.037500 -0.251324
v 0.080097 -0.037500 -0.297983
v 0.081583 -0.037500 -0.385040
v 0.055429 -0.037500 -0.483334
v 0.064016 -0.037500 -0.557695
v 0.150368 -0.037500 -0.582798
v 0.280085 -0.037500 -0.572721
v 0.495640 -0.037500 -0.532429
v 0.558216 -0.037500 -0.201729
v 0.546085 -0.037500 -0.123085
v 0.491440 -0.037500 -0.123003
v 0.413610 -0.037498 -0.158194
v 0.340103 -0.037500 -0.166058
v 0.294655 -0.037500 -0.104256
v 0.285906 -0.037500 -0.011488
v 0.318712 -0.037498 0.053282
v 0.391445 -0.037500 0.051195
v 0.476509 -0.037500 0.023777
v 0.539829 -0.037498 0.032667
v 0.556911 -0.037498 0.120186
v 0.541515 -0.037500 0.251385
v 0.495640 -0.037500 0.469269
v 0.267031 -0.037500 0.433388
v 0.130629 -0.037500 0.425621
v 0.042463 -0.037500 0.451447
v 0.039785 -0.037500 0.523808
v 0.076176 -0.037500 0.617582
v 0.084299 -0.037500 0.698130
v 0.018515 -0.037500 0.737209
v -0.080074 -0.037498 0.732195
v -0.148674 -0.037500 0.686859
v -0.145401 -0.037498 0.609102
v -0.112028 -0.037500 0.523348
v -0.111242 -0.037500 0.458149
v -0.186668 -0.037500 0.434048
v -0.305685 -0.037500 0.439550
v -0.506269 -0.037500 0.469269
v 0.064016 0.037500 -0.557695
v 0.064016 0.037500 -0.557695
v 0.150368 0.037500 -0.582798
v 0.280085 0.037500 -0.572721
v -0.305780 0.037500 -0.564003
v -0.187227 0.037500 -0.569239
v -0.113031 0.037500 -0.541874
v -0.113031 0.037500 -0.541874
v 0.055429 0.037500 -0.483334
v -0.506269 0.037500 -0.532429
v -0.506269 0.037500 -0.532429
v -0.116009 0.037500 -0.469639
v 0.495640 0.037500 -0.532429
v 0.495640 0.037500 -0.532429
v 0.081583 0.037500 -0.385040
v -0.152035 0.037500 -0.376108
v -0.544476 0.037500 -0.327978
v 0.080097 0.037500 -0.297983
v -0.157734 0.037500 -0.293875
v -0.157734 0.037500 -0.293875
v -0.553352 0.037500 -0.207357
v 0.558216 0.037500 -0.201729
v 0.009190 0.037500 -0.251324
v -0.090502 0.037500 -0.250237
v -0.527582 0.037500 -0.132492
v -0.527582 0.037500 -0.132492
v -0.287317 0.037500 -0.183651
v -0.287317 0.037500 -0.183651
v -0.361229 0.037500 -0.175718
v 0.413610 0.037500 -0.158194
v 0.340103 0.037500 -0.166058
v 0.546085 0.037500 -0.123085
v 0.546085 0.037500 -0.123085
v -0.262444 0.037500 -0.117239
v -0.454147 0.037500 -0.137018
v 0.294655 0.037500 -0.104256
v 0.491440 0.037500 -0.123003
v -0.282841 0.037500 -0.018400
v 0.285906 0.037500 -0.011488
v -0.336279 0.037500 0.049583
v 0.318712 0.037500 0.053282
v 0.318712 0.037500 0.053282
v -0.532825 0.037500 0.017698
v -0.532825 0.037500 0.017698
v -0.481607 0.037500 0.012329
v -0.409069 0.037500 0.044983
v -0.548084 0.037500 0.106630
v 0.391445 0.037500 0.051195
v 0.476509 0.037500 0.023777
v 0.539829 0.037500 0.032667
v 0.539829 0.037500 0.032667
v 0.556911 0.037500 0.120186
v 0.541515 0.037500 0.251385
v 0.130629 0.037500 0.425621
v 0.042463 0.037500 0.451447
v 0.042463 0.037500 0.451447
v 0.267031 0.037500 0.433388
v -0.186668 0.037500 0.434048
v -0.305685 0.037500 0.439550
v -0.111242 0.037500 0.458149
v -0.111242 0.037500 0.458149
v -0.506269 0.037500 0.469269
v -0.506269 0.037500 0.469269
v 0.495640 0.037500 0.469269
v 0.495640 0.037500 0.469269
v 0.039785 0.037500 0.523808
v -0.112028 0.037500 0.523348
v -0.145401 0.037500 0.609102
v 0.076176 0.037500 0.617582
v -0.148674 0.037500 0.686859
v 0.084299 0.037500 0.698130
v 0.084299 0.037500 0.698130
v -0.080074 0.037500 0.732195
v 0.018515 0.037500 0.737209
v 0.064016 -0.037500 -0.557695
v 0.064016 -0.037500 -0.557695
v 0.150368 -0.037500 -0.582798
v 0.280085 -0.037500 -0.572721
v -0.305780 -0.037500 -0.564003
v -0.187227 -0.037500 -0.569239
v -0.113031 -0.037500 -0.541874
v -0.113031 -0.037500 -0.541874
v 0.055429 -0.037500 -0.483334
v -0.506269 -0.037498 -0.532429
v -0.506269 -0.037498 -0.532429
v -0.116009 -0.037500 -0.469639
v 0.495640 -0.037500 -0.532429
v 0.495640 -0.037500 -0.532429
v 0.081583 -0.037500 -0.385040
v -0.152035 -0.037500 -0.376108
v -0.544476 -0.037500 -0.327978
v 0.080097 -0.037500 -0.297983
v -0.157734 -0.037500 -0.293875
v -0.157734 -0.037500 -0.293875
v -0.553352 -0.037500 -0.207357
v 0.558216 -0.037500 -0.201729
v 0.009190 -0.037500 -0.251324
v -0.090502 -0.037500 -0.250237
v -0.527582 -0.037500 -0.132492
v -0.527582 -0.037500 -0.132492
v -0.287317 -0.037500 -0.183651
v -0.287317 -0.037500 -0.183651
v -0.361229 -0.037498 -0.175718
v 0.413610 -0.037498 -0.158194
v 0.340103 -0.037500 -0.166058
v 0.546085 -0.037500 -0.123085
v 0.546085 -0.037500 -0.123085
v -0.262444 -0.037498 -0.117239
v -0.454147 -0.037500 -0.137018
v 0.294655 -0.037500 -0.104256
v 0.491440 -0.037500 -0.123003
v -0.282841 -0.037500 -0.018400
v 0.285906 -0.037500 -0.011488
v -0.336279 -0.037500 0.049583
v 0.318712 -0.037498 0.053282
v 0.318712 -0.037498 0.053282
v -0.532825 -0.037498 0.017698
v -0.532825 -0.037498 0.017698
v -0.481607 -0.037500 0.012329
v -0.409069 -0.037500 0.044983
v -0.548084 -0.037500 0.106630
v 0.391445 -0.037500 0.051195
v 0.476509 -0.037500 0.023777
v 0.539829 -0.037498 0.032667
v 0.539829 -0.037498 0.032667
v 0.556911 -0.037498 0.120186
v 0.541515 -0.037500 0.251385
v 0.130629 -0.037500 0.425621
v 0.042463 -0.037500 0.451447
v 0.042463 -0.037500 0.451447
v 0.267031 -0.037500 0.433388
v -0.186668 -0.037500 0.434048
v -0.305685 -0.037500 0.439550
v -0.111242 -0.037500 0.458149
v -0.111242 -0.037500 0.458149
v -0.506269 -0.037500 0.469269
v -0.506269 -0.037500 0.469269
v 0.495640 -0.037500 0.469269
v 0.495640 -0.037500 0.469269
v 0.039785 -0.037500 0.523808
v -0.112028 -0.037500 0.523348
v -0.145401 -0.037498 0.609102
v 0.076176 -0.037500 0.617582
v -0.148674 -0.037500 0.686859
v 0.084299 -0.037500 0.698130
v 0.084299 -0.037500 0.698130
v -0.080074 -0.037498 0.732195
v 0.018515 -0.037500 0.737209
vt 0.500000 0.500000
vt 0.500000 0.500000
vt 0.500000 0.500000
vt 0.500000 0.500000
vt 0.500000 0.500000
vt 0.500000 0.500000
vt 0.500000 0.500000
vt 0.500000 0.500000
vt 0.500000 0.500000
vt 0.500000 0.500000
vt 0.500000 0.500000
vt 0.500000 0.500000
vt 0.500000 0.500000
vt 0.500000 0.500000
vt 0.500000 0.500000
vt 0.500000 0.500000
vt 0.500000 0.500000
vt 0.500000 0.500000
vt 0.500000 0.500000
vt 0.500000 0.500000
vt 0.500000 0.500000
vt 0.500000 0.500000
vt 0.500000 0.500000
vt 0.500000 0.500000
vt 0.500000 0.500000
vt 0.500000 0.500000
vt 0.500000 0.500000
vt 0.500000 0.500000
vt 0.500000 0.500000
vt 0.500000 0.500000
vt 0.500000 0.500000
vt 0.500000 0.500000
vt 0.500000 0.500000
vt 0.500000 0.500000
vt 0.500000 0.500000
vt 0.500000 0.500000
vt 0.500000 0.500000
vt 0.500000 0.500000
vt 0.500000 0.500000
vt 0.500000 0.500000
vt 0.500000 0.500000
vt 0.500000 0.500000
vt 0.500000 0.500000
vt 0.500000 0.500000
vt 0.500000 0.500000
vt 0.500000 0.500000
vt 0.500000 0.500000
vt 0.500000 0.500000
vt 0.500000 0.500000
vt 0.500000 0.500000
vt 0.500000 0.500000
vt 0.500000 0.500000
vt 0.500000 0.500000
vt 0.500000 0.500000
vt 0.500000 0.500000
vt 0.500000 0.500000
vt 0.500000 0.500000
vt 0.500000 0.500000
vt 0.500000 0.500000
vt 0.500000 0.500000
vt 0.500000 0.500000
vt 0.500000 0.500000
vt 0.500000 0.500000
vt 0.500000 0.500000
vt 0.500000 0.500000
vt 0.500000 0.500000
vt 0.500000 0.500000
vt 0.500000 0.500000
vt 0.500000 0.500000
vt 0.500000 0.500000
vt 0.500000 0.500000
vt 0.500000 0.500000
vt 0.500000 0.500000
vt 0.500000 0.500000
vt 0.500000 0.500000
vt 0.500000 0.500000
vt 0.500000 0.500000
vt 0.500000 0.500000
vt 0.500000 0.500000
vt 0.500000 0.500000
vt 0.500000 0.500000
vt 0.500000 0.500000
vt 0.500000 0.500000
vt 0.500000 0.500000
vt 0.500000 0.500000
vt 0.500000 0.500000
vt 0.500000 0.500000
vt 0.500000 0.500000
vt 0.500000 0.500000
vt 0.500000 0.500000
vt 0.500000 0.500000
vt 0.500000 0.500000
vt 0.500000 0.500000
vt 0.500000 0.500000
vt 0.500000 0.500000
vt 0.500000 0.500000
vt 0.500000 0.500000
vt 0.500000 0.500000
vt 0.500000 0.500000
vt 0.500000 0.500000
vt 0.500000 0.500000
vt 0.500000 0.500000
vt 0.500000 0.500000
vt 0.500000 0.500000
vt 0.500000 0.500000
vt 0.500000 0.500000
vt 0.500000 0.500000
vt 0.500000 0.500000
vt 0.500000 0.500000
vt 0.500000 0.500000
vt 0.500000 0.500000
vt 0.500000 0.500000
vt 0.500000 0.500000
vt 0.500000 0.500000
vt 0.500000 0.500000
vt 0.500000 0.500000
vt 0.500000 0.500000
vt 0.500000 0.500000
vt 0.500000 0.500000
vt 0.500000 0.500000
vt 0.500000 0.500000
vt 0.500000 0.500000
vt 0.500000 0.500000
vt 0.500000 0.500000
vt 0.500000 0.500000
vt 0.500000 0.500000
vt 0.500000 0.500000
vt 0.500000 0.500000
vt 0.500000 0.500000
vt 0.500000 0.500000
vt 0.500000 0.500000
vt 0.500000 0.500000
vt 0.500000 0.500000
vt 0.500000 0.500000
vt 0.500000 0.500000
vt 0.500000 0.500000
vt 0.500000 0.500000
vt 0.500000 0.500000
vt 0.500000 0.500000
vt 0.500000 0.500000
vt 0.500000 0.500000
vt 0.500000 0.500000
vt 0.500000 0.500000
vt 0.500000 0.500000
vt 0.500000 0.500000
vt 0.500000 0.500000
vt 0.500000 0.500000
vt 0.500000 0.500000
vt 0.500000 0.500000
vt 0.500000 0.500000
vt 0.500000 0.500000
vt 0.500000 0.500000
vt 0.500000 0.500000
vt 0.500000 0.500000
vt 0.500000 0.500000
vt 0.500000 0.500000
vt 0.500000 0.500000
vt 0.500000 0.500000
vt 0.500000 0.500000
vt 0.500000 0.500000
vt 0.500000 0.500000
vt 0.500000 0.500000
vt 0.500000 0.500000
vt 0.500000 0.500000
vt 0.500000 0.500000
vt 0.500000 0.500000
vt 0.500000 0.500000
vt 0.500000 0.500000
vt 0.500000 0.500000
vt 0.500000 0.500000
vt 0.500000 0.500000
vt 0.500000 0.500000
vt 0.500000 0.500000
vt 0.500000 0.500000
vt 0.500000 0.500000
vt 0.500000 0.500000
vt 0.500000 0.500000
vt 0.500000 0.500000
vt 0.500000 0.500000
vt 0.500000 0.500000
vt 0.500000 0.500000
vt 0.500000 0.500000
vt 0.500000 0.500000
vt 0.500000 0.500000
vt 0.500000 0.500000
vt 0.500000 0.500000
vt 0.500000 0.500000
vt 0.500000 0.500000
vt 0.500000 0.500000
vt 0.500000 0.500000
vt 0.500000 0.500000
vt 0.500000 0.500000
vt 0.500000 0.500000
vt 0.500000 0.500000
vt 0.500000 0.500000
vt 0.500000 0.500000
vt 0.500000 0.500000
vt 0.500000 0.500000
vt 0.500000 0.500000
vt 0.500000 0.500000
vt 0.500000 0.500000
vt 0.500000 0.500000
vt 0.500000 0.500000
vt 0.500000 0.500000
vt 0.500000 0.500000
vt 0.500000 0.500000
vt 0.654047 0.037448
vt 0.650479 0.055068
vt 0.652479 0.038339
vt 0.657243 0.037696
vt 0.659077 0.038651
vt 0.662184 0.075564
vt 0.658057 0.068624
vt 0.663432 0.060528
vt 0.667585 0.053180
vt 0.666269 0.053509
vt 0.667941 0.049944
vt 0.656551 0.063680
vt 0.654478 0.063640
vt 0.662305 0.054813
vt 0.661913 0.038364
vt 0.662988 0.052418
vt 0.659487 0.075936
vt 0.657513 0.072259
vt 0.658113 0.028575
vt 0.657944 0.031553
vt 0.656745 0.027130
vt 0.645039 0.066515
vt 0.644854 0.062055
vt 0.648849 0.060885
vt 0.664500 0.052495
vt 0.667620 0.045093
vt 0.653199 0.068294
vt 0.653948 0.071752
vt 0.652467 0.075435
vt 0.650002 0.075241
vt 0.653337 0.031867
vt 0.654695 0.027315
vt 0.650903 0.058723
vt 0.650386 0.061178
vt 0.647854 0.052725
vt 0.644964 0.050445
vt 0.650004 0.038136
vt 0.645833 0.074074
vt 0.657188 0.035020
vt 0.654031 0.035037
vt 0.646346 0.053932
vt 0.666667 0.037037
vt 0.654010 0.074423
vt 0.649368 0.052555
vt 0.645390 0.059287
vt 0.646917 0.059454
vt 0.645833 0.037037
vt 0.664961 0.060237
vt 0.666667 0.074074
vt 0.645281 0.053733
vt 0.658026 0.065406
vt 0.662487 0.058243
vt 0.657692 0.075008
vt 0.666579 0.058936
vt 0.667968 0.061847
vt 0.653269 0.028992
vt 0.653081 0.065254
vt 0.667715 0.058939
vn 0.0000 -1.0000 0.0000
vn 0.0001 -1.0000 -0.0000
vn -0.2791 0.0000 -0.9602
vn 0.0774 0.0000 -0.9970
vn -0.0441 0.0000 -0.9990
vn 0.3460 0.0000 -0.9382
vn -0.9934 0.0000 -0.1147
vn -0.1556 0.0000 -0.9878
vn 0.9992 0.0000 0.0412
vn 0.1837 0.0000 -0.9830
vn -0.9664 0.0000 0.2571
vn 0.9332 0.0000 0.3594
vn -0.9830 0.0000 -0.1837
vn -0.9999 0.0000 -0.0171
vn 0.9976 0.0000 0.0691
vn -0.9973 0.0000 -0.0734
vn 0.9826 0.0000 -0.1859
vn -0.5497 0.0000 -0.8354
vn 0.5444 0.0000 -0.8388
vn -0.0109 0.0000 -0.9999
vn -0.9455 0.0000 0.3255
vn 0.1067 0.0000 0.9943
vn -0.1064 0.0000 0.9943
vn 0.9883 0.0000 0.1524
vn -0.9365 0.0000 0.3507
vn 0.0615 0.0000 0.9981
vn 0.3845 0.0000 0.9231
vn 0.8056 0.0000 0.5924
vn -0.4120 0.0000 0.9112
vn 0.0015 0.0000 1.0000
vn -0.9794 0.0000 -0.2021
vn 0.9956 0.0000 0.0939
vn -0.7862 0.0000 -0.6180
vn 0.8921 0.0000 -0.4519
vn -0.1043 0.0000 -0.9946
vn 0.4105 0.0000 -0.9119
vn -0.9856 0.0000 -0.1691
vn -0.3068 0.0000 -0.9518
vn 0.1390 0.0000 -0.9903
vn 0.9815 0.0000 -0.1916
vn 0.0631 0.0000 -0.9980
vn -0.0287 0.0000 -0.9996
vn 0.9932 0.0000 0.1165
vn 0.2811 0.0000 0.9597
vn -0.0568 0.0000 0.9984
vn 0.0462 0.0000 0.9989
vn -0.3044 0.0000 0.9526
vn -0.9934 0.0000 0.1145
vn 0.1466 0.0000 0.9892
vn -0.1551 0.0000 0.9879
vn 0.9785 0.0000 0.2060
vn 0.9993 0.0000 0.0370
vn -0.9999 0.0000 -0.0121
vn -0.9319 0.0000 -0.3627
vn 0.9323 0.0000 -0.3618
vn -0.9991 0.0000 -0.0421
vn 0.9950 0.0000 -0.1003
vn -0.5514 0.0000 0.8343
vn -0.0508 0.0000 0.9987
vn 0.5107 0.0000 0.8597
vn 0.0000 1.0000 0.0000
usemtl BackMat.001
s off
f 250/1/1 248/2/1 228/3/1
f 245/4/1 228/3/1 244/5/1
f 194/6/1 221/7/1 205/8/1
f 240/9/1 242/10/1 239/11/1
f 213/12/1 228/3/1 214/13/1
f 244/5/1 228/3/1 229/14/1
f 244/5/1 231/15/1 247/16/1
f 205/8/1 199/17/1 193/18/1
f 261/19/1 264/20/1 259/21/1
f 207/22/1 219/23/1 211/24/1
f 245/4/1 250/1/1 228/3/1
f 238/25/1 243/26/1 231/15/1
f 206/27/1 196/28/1 202/29/1
f 195/30/1 219/23/1 207/22/1
f 258/31/1 259/21/1 263/32/1
f 224/33/1 217/34/1 214/13/1
f 236/35/1 249/36/1 237/37/1
f 195/30/1 207/22/1 200/38/1
f 259/21/1 258/31/1 256/39/1
f 250/1/1 256/39/1 257/40/1
f 206/27/1 195/30/1 196/28/1
f 256/39/1 250/1/1 245/4/1
f 236/35/1 237/37/1 235/41/1
f 194/6/1 205/8/1 193/18/1
f 264/20/1 263/32/1 259/21/1
f 254/42/1 247/16/1 243/26/1
f 202/29/1 196/28/1 197/43/1
f 228/3/1 224/33/1 214/13/1
f 228/3/1 248/2/1 230/44/1
f 211/24/1 225/45/1 215/46/1
f 237/37/1 249/36/1 252/47/1
f 247/16/1 231/15/1 243/26/1
f 220/48/1 221/7/1 203/49/1
f 203/49/1 221/7/1 194/6/1
f 211/24/1 219/23/1 225/45/1
f 235/41/1 237/37/1 233/50/1
f 221/7/1 226/51/1 208/52/1
f 257/40/1 256/39/1 258/31/1
f 248/2/1 249/36/1 230/44/1
f 193/18/1 199/17/1 191/53/1
f 231/15/1 244/5/1 229/14/1
f 219/23/1 195/30/1 206/27/1
f 217/34/1 219/23/1 206/27/1
f 227/54/1 220/48/1 212/55/1
f 260/56/2 258/31/2 263/32/2
f 230/44/1 249/36/1 236/35/1
f 212/55/1 220/48/1 203/49/1
f 208/52/1 226/51/1 213/12/1
f 226/51/1 229/14/1 213/12/1
f 239/11/1 242/10/1 238/25/1
f 209/57/1 217/34/1 206/27/1
f 227/54/1 212/55/1 222/58/1
f 205/8/1 221/7/1 208/52/1
f 229/14/1 228/3/1 213/12/1
f 214/13/1 217/34/1 209/57/1
f 242/10/1 243/26/1 238/25/1
f 118/59/3 27/60/3 85/61/3 192/62/3
f 27/60/4 28/63/4 86/64/4 85/61/4
f 15/65/5 16/66/5 74/67/5 73/68/5
f 16/66/6 124/69/6 198/70/6 74/67/6
f 25/71/7 26/72/7 84/73/7 83/74/7
f 127/75/8 15/65/8 73/68/8 201/76/8
f 17/77/9 18/78/9 76/79/9 75/80/9
f 28/63/10 130/81/10 204/82/10 86/64/10
f 24/83/11 25/71/11 83/74/11 82/84/11
f 18/78/12 19/85/12 77/86/12 76/79/12
f 13/87/13 14/88/13 72/89/13 71/90/13
f 23/91/14 24/83/14 82/84/14 81/92/14
f 19/85/15 136/93/15 210/94/15 77/86/15
f 12/95/16 13/87/16 71/90/16 70/96/16
f 29/97/17 30/98/17 88/99/17 87/100/17
f 22/101/18 23/91/18 81/92/18 80/102/18
f 20/103/19 21/104/19 79/105/19 78/106/19
f 21/104/20 22/101/20 80/102/20 79/105/20
f 142/107/21 12/95/21 70/96/21 216/108/21
f 144/109/22 9/110/22 67/111/22 218/112/22
f 33/113/23 34/114/23 92/115/23 91/116/23
f 30/98/24 149/117/24 223/118/24 88/99/24
f 7/119/25 8/120/25 66/121/25 65/122/25
f 10/123/26 11/124/26 69/125/26 68/126/26
f 9/110/27 10/123/27 68/126/27 67/111/27
f 34/114/28 35/127/28 93/128/28 92/115/28
f 32/129/29 33/113/29 91/116/29 90/130/29
f 31/131/30 32/129/30 90/130/30 89/132/30
f 6/133/31 7/119/31 65/122/31 64/134/31
f 35/127/32 36/135/32 94/136/32 93/128/32
f 5/137/33 6/133/33 64/134/33 63/138/33
f 36/135/34 158/139/34 232/140/34 94/136/34
f 160/141/35 3/142/35 61/143/35 234/144/35
f 3/142/36 4/145/36 62/146/36 61/143/36
f 1/147/37 2/148/37 60/149/37 59/150/37
f 38/151/38 39/152/38 97/153/38 96/154/38
f 39/152/39 167/155/39 241/156/39 97/153/39
f 40/157/40 41/158/40 99/159/40 98/160/40
f 4/145/41 5/137/41 63/138/41 62/146/41
f 37/161/42 38/151/42 96/154/42 95/162/42
f 41/158/43 42/163/43 100/164/43 99/159/43
f 45/165/44 172/166/44 246/167/44 103/168/44
f 44/169/45 45/165/45 103/168/45 102/170/45
f 56/171/46 57/172/46 115/173/46 114/174/46
f 177/175/47 56/171/47 114/174/47 251/176/47
f 179/177/48 1/147/48 59/150/48 253/178/48
f 57/172/49 58/179/49 116/180/49 115/173/49
f 181/181/50 44/169/50 102/170/50 255/182/50
f 42/163/51 43/183/51 101/184/51 100/164/51
f 46/185/52 47/186/52 105/187/52 104/188/52
f 54/189/53 55/190/53 113/191/53 112/192/53
f 53/193/54 54/189/54 112/192/54 111/194/54
f 47/186/55 48/195/55 106/196/55 105/187/55
f 52/197/56 53/193/56 111/194/56 110/198/56
f 48/195/57 188/199/57 262/200/57 106/196/57
f 51/201/58 52/197/58 110/198/58 109/202/58
f 50/203/59 51/201/59 109/202/59 108/204/59
f 49/205/60 50/203/60 108/204/60 107/206/60
usemtl FrontMat.001
f 176/207/61 154/208/61 174/209/61
f 171/210/61 170/211/61 154/208/61
f 120/212/61 131/213/61 147/214/61
f 166/215/61 165/216/61 168/217/61
f 139/218/61 140/219/61 154/208/61
f 170/211/61 155/220/61 154/208/61
f 170/211/61 173/221/61 157/222/61
f 131/213/61 119/223/61 125/224/61
f 187/225/61 185/226/61 190/227/61
f 133/228/61 137/229/61 145/230/61
f 171/210/61 154/208/61 176/207/61
f 164/231/61 157/222/61 169/232/61
f 132/233/61 128/234/61 122/235/61
f 121/236/61 133/228/61 145/230/61
f 184/237/61 189/238/61 185/226/61
f 150/239/61 140/219/61 143/240/61
f 162/241/61 163/242/61 175/243/61
f 121/236/61 126/244/61 133/228/61
f 185/226/61 182/245/61 184/237/61
f 176/207/61 183/246/61 182/245/61
f 132/233/61 122/235/61 121/236/61
f 182/245/61 171/210/61 176/207/61
f 162/241/61 161/247/61 163/242/61
f 120/212/61 119/223/61 131/213/61
f 190/227/61 185/226/61 189/238/61
f 180/248/61 169/232/61 173/221/61
f 128/234/61 123/249/61 122/235/61
f 154/208/61 140/219/61 150/239/61
f 154/208/61 156/250/61 174/209/61
f 137/229/61 141/251/61 151/252/61
f 163/242/61 178/253/61 175/243/61
f 173/221/61 169/232/61 157/222/61
f 146/254/61 129/255/61 147/214/61
f 129/255/61 120/212/61 147/214/61
f 137/229/61 151/252/61 145/230/61
f 161/247/61 159/256/61 163/242/61
f 147/214/61 134/257/61 152/258/61
f 183/246/61 184/237/61 182/245/61
f 174/209/61 156/250/61 175/243/61
f 119/223/61 117/259/61 125/224/61
f 157/222/61 155/220/61 170/211/61
f 145/230/61 132/233/61 121/236/61
f 143/240/61 132/233/61 145/230/61
f 153/260/61 138/261/61 146/254/61
f 186/262/61 189/238/61 184/237/61
f 156/250/61 162/241/61 175/243/61
f 138/261/61 129/255/61 146/254/61
f 134/257/61 139/218/61 152/258/61
f 152/258/61 139/218/61 155/220/61
f 165/216/61 164/231/61 168/217/61
f 135/263/61 132/233/61 143/240/61
f 153/260/61 148/264/61 138/261/61
f 131/213/61 134/257/61 147/214/61
f 155/220/61 139/218/61 154/208/61
f 140/219/61 135/263/61 143/240/61
f 168/217/61 164/231/61 169/232/61
