# Blender v2.83.1 OBJ File: 'jigsaw-48x27-3-step2.blend'
# www.blender.org
mtllib piece.501.mtl
o path1002
v 0.564899 0.037500 -0.310157
v 0.568134 0.037500 -0.188155
v 0.538914 0.037500 -0.113012
v 0.465355 0.037500 -0.118899
v 0.371328 0.037500 -0.159365
v 0.289637 0.037500 -0.167795
v 0.247318 0.037500 -0.099477
v 0.248375 0.037500 0.002776
v 0.291040 0.037500 0.074254
v 0.368980 0.037500 0.072009
v 0.457527 0.037500 0.040147
v 0.527431 0.037500 0.044534
v 0.557364 0.037500 0.130733
v 0.557705 0.037500 0.263051
v 0.536264 0.037500 0.484311
v 0.175714 0.037500 0.429916
v 0.085775 0.037500 0.445741
v 0.077618 0.037500 0.503687
v 0.107885 0.037500 0.583576
v 0.113306 0.037500 0.656995
v 0.051014 0.037500 0.700101
v -0.040255 0.037500 0.707335
v -0.101360 0.037500 0.677711
v -0.093388 0.037500 0.614859
v -0.058331 0.037500 0.540878
v -0.058409 0.037500 0.482484
v -0.136652 0.037500 0.459192
v -0.259306 0.037500 0.461690
v -0.465645 0.037500 0.484311
v -0.435337 0.037500 0.262428
v -0.429411 0.037500 0.129652
v -0.453060 0.037500 0.042956
v -0.517597 0.037500 0.038301
v -0.601538 0.037500 0.071198
v -0.675154 0.037500 0.077034
v -0.713793 0.037500 0.012189
v -0.713114 0.037500 -0.083034
v -0.673851 0.037500 -0.147355
v -0.601295 0.037500 -0.140325
v -0.519266 0.037500 -0.104832
v -0.456171 0.037500 -0.104592
v -0.432556 0.037500 -0.183741
v -0.437510 0.037500 -0.308084
v -0.465645 0.037500 -0.517387
v -0.261522 0.037500 -0.568306
v -0.139900 0.037500 -0.585084
v -0.061665 0.037500 -0.565175
v -0.059870 0.037500 -0.493145
v -0.091406 0.037500 -0.396779
v -0.094126 0.037500 -0.314671
v -0.026424 0.037500 -0.277666
v 0.071146 0.037500 -0.285626
v 0.137487 0.037500 -0.330667
v 0.132425 0.037500 -0.402143
v 0.099483 0.037500 -0.478343
v 0.103102 0.037500 -0.534795
v 0.187767 0.037500 -0.554076
v 0.536264 0.037500 -0.517387
v 0.564899 -0.037498 -0.310157
v 0.568134 -0.037498 -0.188155
v 0.538914 -0.037500 -0.113012
v 0.465355 -0.037500 -0.118899
v 0.371328 -0.037500 -0.159365
v 0.289637 -0.037500 -0.167795
v 0.247318 -0.037498 -0.099477
v 0.248375 -0.037500 0.002776
v 0.291040 -0.037500 0.074254
v 0.368980 -0.037500 0.072009
v 0.457527 -0.037498 0.040147
v 0.527431 -0.037500 0.044534
v 0.557364 -0.037500 0.130733
v 0.557705 -0.037500 0.263051
v 0.536264 -0.037500 0.484311
v 0.175714 -0.037500 0.429916
v 0.085775 -0.037500 0.445741
v 0.077618 -0.037498 0.503687
v 0.107885 -0.037500 0.583576
v 0.113306 -0.037500 0.656995
v 0.051014 -0.037498 0.700101
v -0.040255 -0.037500 0.707335
v -0.101360 -0.037500 0.677711
v -0.093388 -0.037498 0.614859
v -0.058331 -0.037500 0.540878
v -0.058409 -0.037500 0.482484
v -0.136652 -0.037500 0.459192
v -0.259306 -0.037500 0.461690
v -0.465645 -0.037500 0.484311
v -0.435337 -0.037498 0.262428
v -0.429411 -0.037500 0.129652
v -0.453060 -0.037500 0.042956
v -0.517597 -0.037498 0.038301
v -0.601538 -0.037500 0.071198
v -0.675154 -0.037500 0.077034
v -0.713793 -0.037500 0.012189
v -0.713114 -0.037500 -0.083034
v -0.673851 -0.037500 -0.147355
v -0.601295 -0.037500 -0.140325
v -0.519266 -0.037500 -0.104832
v -0.456171 -0.037500 -0.104592
v -0.432556 -0.037500 -0.183741
v -0.437510 -0.037498 -0.308084
v -0.465645 -0.037498 -0.517387
v -0.261522 -0.037500 -0.568306
v -0.139900 -0.037500 -0.585084
v -0.061665 -0.037500 -0.565175
v -0.059870 -0.037500 -0.493145
v -0.091406 -0.037498 -0.396779
v -0.094126 -0.037500 -0.314671
v -0.026424 -0.037500 -0.277666
v 0.071146 -0.037500 -0.285626
v 0.137487 -0.037500 -0.330667
v 0.132425 -0.037500 -0.402143
v 0.099483 -0.037500 -0.478343
v 0.103102 -0.037498 -0.534795
v 0.187767 -0.037500 -0.554076
v 0.536264 -0.037500 -0.517387
v -0.261522 0.037500 -0.568306
v -0.139900 0.037500 -0.585084
v -0.061665 0.037500 -0.565175
v -0.061665 0.037500 -0.565175
v -0.059870 0.037500 -0.493145
v 0.103102 0.037500 -0.534795
v 0.103102 0.037500 -0.534795
v 0.187767 0.037500 -0.554076
v -0.465645 0.037500 -0.517387
v -0.465645 0.037500 -0.517387
v 0.099483 0.037500 -0.478343
v 0.536264 0.037500 -0.517387
v 0.536264 0.037500 -0.517387
v -0.091406 0.037500 -0.396779
v 0.132425 0.037500 -0.402143
v 0.564899 0.037500 -0.310157
v -0.437510 0.037500 -0.308084
v 0.137487 0.037500 -0.330667
v -0.094126 0.037500 -0.314671
v -0.094126 0.037500 -0.314671
v 0.071146 0.037500 -0.285626
v -0.026424 0.037500 -0.277666
v 0.568134 0.037500 -0.188155
v -0.432556 0.037500 -0.183741
v 0.371328 0.037500 -0.159365
v 0.289637 0.037500 -0.167795
v 0.289637 0.037500 -0.167795
v 0.538914 0.037500 -0.113012
v 0.538914 0.037500 -0.113012
v -0.456171 0.037500 -0.104592
v -0.456171 0.037500 -0.104592
v 0.247318 0.037500 -0.099477
v 0.465355 0.037500 -0.118899
v -0.713114 0.037500 -0.083034
v -0.673851 0.037500 -0.147355
v -0.673851 0.037500 -0.147355
v -0.601295 0.037500 -0.140325
v -0.519266 0.037500 -0.104832
v 0.248375 0.037500 0.002776
v -0.713793 0.037500 0.012189
v 0.291040 0.037500 0.074254
v 0.291040 0.037500 0.074254
v -0.675154 0.037500 0.077034
v -0.675154 0.037500 0.077034
v -0.601538 0.037500 0.071198
v -0.517597 0.037500 0.038301
v -0.453060 0.037500 0.042956
v -0.453060 0.037500 0.042956
v 0.368980 0.037500 0.072009
v 0.457527 0.037500 0.040147
v 0.527431 0.037500 0.044534
v 0.527431 0.037500 0.044534
v -0.429411 0.037500 0.129652
v 0.557364 0.037500 0.130733
v -0.435337 0.037500 0.262428
v 0.557705 0.037500 0.263051
v -0.465645 0.037500 0.484311
v -0.465645 0.037500 0.484311
v 0.175714 0.037500 0.429916
v 0.085775 0.037500 0.445741
v 0.085775 0.037500 0.445741
v -0.136652 0.037500 0.459192
v -0.259306 0.037500 0.461690
v 0.077618 0.037500 0.503687
v 0.536264 0.037500 0.484311
v 0.536264 0.037500 0.484311
v -0.058409 0.037500 0.482484
v -0.058409 0.037500 0.482484
v -0.058331 0.037500 0.540878
v 0.107885 0.037500 0.583576
v -0.093388 0.037500 0.614859
v 0.113306 0.037500 0.656995
v -0.101360 0.037500 0.677711
v -0.101360 0.037500 0.677711
v 0.051014 0.037500 0.700101
v -0.040255 0.037500 0.707335
v -0.261522 -0.037500 -0.568306
v -0.139900 -0.037500 -0.585084
v -0.061665 -0.037500 -0.565175
v -0.061665 -0.037500 -0.565175
v -0.059870 -0.037500 -0.493145
v 0.103102 -0.037498 -0.534795
v 0.103102 -0.037498 -0.534795
v 0.187767 -0.037500 -0.554076
v -0.465645 -0.037498 -0.517387
v -0.465645 -0.037498 -0.517387
v 0.099483 -0.037500 -0.478343
v 0.536264 -0.037500 -0.517387
v 0.536264 -0.037500 -0.517387
v -0.091406 -0.037498 -0.396779
v 0.132425 -0.037500 -0.402143
v 0.564899 -0.037498 -0.310157
v -0.437510 -0.037498 -0.308084
v 0.137487 -0.037500 -0.330667
v -0.094126 -0.037500 -0.314671
v -0.094126 -0.037500 -0.314671
v 0.071146 -0.037500 -0.285626
v -0.026424 -0.037500 -0.277666
v 0.568134 -0.037498 -0.188155
v -0.432556 -0.037500 -0.183741
v 0.371328 -0.037500 -0.159365
v 0.289637 -0.037500 -0.167795
v 0.289637 -0.037500 -0.167795
v 0.538914 -0.037500 -0.113012
v 0.538914 -0.037500 -0.113012
v -0.456171 -0.037500 -0.104592
v -0.456171 -0.037500 -0.104592
v 0.247318 -0.037498 -0.099477
v 0.465355 -0.037500 -0.118899
v -0.713114 -0.037500 -0.083034
v -0.673851 -0.037500 -0.147355
v -0.673851 -0.037500 -0.147355
v -0.601295 -0.037500 -0.140325
v -0.519266 -0.037500 -0.104832
v 0.248375 -0.037500 0.002776
v -0.713793 -0.037500 0.012189
v 0.291040 -0.037500 0.074254
v 0.291040 -0.037500 0.074254
v -0.675154 -0.037500 0.077034
v -0.675154 -0.037500 0.077034
v -0.601538 -0.037500 0.071198
v -0.517597 -0.037498 0.038301
v -0.453060 -0.037500 0.042956
v -0.453060 -0.037500 0.042956
v 0.368980 -0.037500 0.072009
v 0.457527 -0.037498 0.040147
v 0.527431 -0.037500 0.044534
v 0.527431 -0.037500 0.044534
v -0.429411 -0.037500 0.129652
v 0.557364 -0.037500 0.130733
v -0.435337 -0.037498 0.262428
v 0.557705 -0.037500 0.263051
v -0.465645 -0.037500 0.484311
v -0.465645 -0.037500 0.484311
v 0.175714 -0.037500 0.429916
v 0.085775 -0.037500 0.445741
v 0.085775 -0.037500 0.445741
v -0.136652 -0.037500 0.459192
v -0.259306 -0.037500 0.461690
v 0.077618 -0.037498 0.503687
v 0.536264 -0.037500 0.484311
v 0.536264 -0.037500 0.484311
v -0.058409 -0.037500 0.482484
v -0.058409 -0.037500 0.482484
v -0.058331 -0.037500 0.540878
v 0.107885 -0.037500 0.583576
v -0.093388 -0.037498 0.614859
v 0.113306 -0.037500 0.656995
v -0.101360 -0.037500 0.677711
v -0.101360 -0.037500 0.677711
v 0.051014 -0.037498 0.700101
v -0.040255 -0.037500 0.707335
vt 0.500000 0.500000
vt 0.500000 0.500000
vt 0.500000 0.500000
vt 0.500000 0.500000
vt 0.500000 0.500000
vt 0.500000 0.500000
vt 0.500000 0.500000
vt 0.500000 0.500000
vt 0.500000 0.500000
vt 0.500000 0.500000
vt 0.500000 0.500000
vt 0.500000 0.500000
vt 0.500000 0.500000
vt 0.500000 0.500000
vt 0.500000 0.500000
vt 0.500000 0.500000
vt 0.500000 0.500000
vt 0.500000 0.500000
vt 0.500000 0.500000
vt 0.500000 0.500000
vt 0.500000 0.500000
vt 0.500000 0.500000
vt 0.500000 0.500000
vt 0.500000 0.500000
vt 0.500000 0.500000
vt 0.500000 0.500000
vt 0.500000 0.500000
vt 0.500000 0.500000
vt 0.500000 0.500000
vt 0.500000 0.500000
vt 0.500000 0.500000
vt 0.500000 0.500000
vt 0.500000 0.500000
vt 0.500000 0.500000
vt 0.500000 0.500000
vt 0.500000 0.500000
vt 0.500000 0.500000
vt 0.500000 0.500000
vt 0.500000 0.500000
vt 0.500000 0.500000
vt 0.500000 0.500000
vt 0.500000 0.500000
vt 0.500000 0.500000
vt 0.500000 0.500000
vt 0.500000 0.500000
vt 0.500000 0.500000
vt 0.500000 0.500000
vt 0.500000 0.500000
vt 0.500000 0.500000
vt 0.500000 0.500000
vt 0.500000 0.500000
vt 0.500000 0.500000
vt 0.500000 0.500000
vt 0.500000 0.500000
vt 0.500000 0.500000
vt 0.500000 0.500000
vt 0.500000 0.500000
vt 0.500000 0.500000
vt 0.500000 0.500000
vt 0.500000 0.500000
vt 0.500000 0.500000
vt 0.500000 0.500000
vt 0.500000 0.500000
vt 0.500000 0.500000
vt 0.500000 0.500000
vt 0.500000 0.500000
vt 0.500000 0.500000
vt 0.500000 0.500000
vt 0.500000 0.500000
vt 0.500000 0.500000
vt 0.500000 0.500000
vt 0.500000 0.500000
vt 0.500000 0.500000
vt 0.500000 0.500000
vt 0.500000 0.500000
vt 0.500000 0.500000
vt 0.500000 0.500000
vt 0.500000 0.500000
vt 0.500000 0.500000
vt 0.500000 0.500000
vt 0.500000 0.500000
vt 0.500000 0.500000
vt 0.500000 0.500000
vt 0.500000 0.500000
vt 0.500000 0.500000
vt 0.500000 0.500000
vt 0.500000 0.500000
vt 0.500000 0.500000
vt 0.500000 0.500000
vt 0.500000 0.500000
vt 0.500000 0.500000
vt 0.500000 0.500000
vt 0.500000 0.500000
vt 0.500000 0.500000
vt 0.500000 0.500000
vt 0.500000 0.500000
vt 0.500000 0.500000
vt 0.500000 0.500000
vt 0.500000 0.500000
vt 0.500000 0.500000
vt 0.500000 0.500000
vt 0.500000 0.500000
vt 0.500000 0.500000
vt 0.500000 0.500000
vt 0.500000 0.500000
vt 0.500000 0.500000
vt 0.500000 0.500000
vt 0.500000 0.500000
vt 0.500000 0.500000
vt 0.500000 0.500000
vt 0.500000 0.500000
vt 0.500000 0.500000
vt 0.500000 0.500000
vt 0.500000 0.500000
vt 0.500000 0.500000
vt 0.500000 0.500000
vt 0.500000 0.500000
vt 0.500000 0.500000
vt 0.500000 0.500000
vt 0.500000 0.500000
vt 0.500000 0.500000
vt 0.500000 0.500000
vt 0.500000 0.500000
vt 0.500000 0.500000
vt 0.500000 0.500000
vt 0.500000 0.500000
vt 0.500000 0.500000
vt 0.500000 0.500000
vt 0.500000 0.500000
vt 0.500000 0.500000
vt 0.500000 0.500000
vt 0.500000 0.500000
vt 0.500000 0.500000
vt 0.500000 0.500000
vt 0.500000 0.500000
vt 0.500000 0.500000
vt 0.500000 0.500000
vt 0.500000 0.500000
vt 0.500000 0.500000
vt 0.500000 0.500000
vt 0.500000 0.500000
vt 0.500000 0.500000
vt 0.500000 0.500000
vt 0.500000 0.500000
vt 0.500000 0.500000
vt 0.500000 0.500000
vt 0.500000 0.500000
vt 0.500000 0.500000
vt 0.500000 0.500000
vt 0.500000 0.500000
vt 0.500000 0.500000
vt 0.500000 0.500000
vt 0.500000 0.500000
vt 0.500000 0.500000
vt 0.500000 0.500000
vt 0.500000 0.500000
vt 0.500000 0.500000
vt 0.500000 0.500000
vt 0.500000 0.500000
vt 0.500000 0.500000
vt 0.500000 0.500000
vt 0.500000 0.500000
vt 0.500000 0.500000
vt 0.500000 0.500000
vt 0.500000 0.500000
vt 0.500000 0.500000
vt 0.500000 0.500000
vt 0.500000 0.500000
vt 0.500000 0.500000
vt 0.500000 0.500000
vt 0.500000 0.500000
vt 0.500000 0.500000
vt 0.500000 0.500000
vt 0.500000 0.500000
vt 0.500000 0.500000
vt 0.500000 0.500000
vt 0.500000 0.500000
vt 0.500000 0.500000
vt 0.500000 0.500000
vt 0.500000 0.500000
vt 0.500000 0.500000
vt 0.500000 0.500000
vt 0.500000 0.500000
vt 0.500000 0.500000
vt 0.500000 0.500000
vt 0.500000 0.500000
vt 0.500000 0.500000
vt 0.500000 0.500000
vt 0.500000 0.500000
vt 0.500000 0.500000
vt 0.500000 0.500000
vt 0.500000 0.500000
vt 0.500000 0.500000
vt 0.500000 0.500000
vt 0.500000 0.500000
vt 0.500000 0.500000
vt 0.500000 0.500000
vt 0.500000 0.500000
vt 0.500000 0.500000
vt 0.500000 0.500000
vt 0.500000 0.500000
vt 0.500000 0.500000
vt 0.500000 0.500000
vt 0.500000 0.500000
vt 0.500000 0.500000
vt 0.500000 0.500000
vt 0.500000 0.500000
vt 0.500000 0.500000
vt 0.500000 0.500000
vt 0.500000 0.500000
vt 0.437500 0.629630
vt 0.430253 0.630986
vt 0.429103 0.625369
vt 0.424448 0.625170
vt 0.420911 0.631512
vt 0.417252 0.621891
vt 0.430003 0.594604
vt 0.437946 0.600774
vt 0.434021 0.607837
vt 0.432372 0.616704
vt 0.429208 0.622726
vt 0.427828 0.621060
vt 0.417355 0.617293
vt 0.416864 0.614367
vt 0.424392 0.622134
vt 0.411521 0.613570
vt 0.411507 0.610049
vt 0.413846 0.615688
vt 0.436025 0.614896
vt 0.437555 0.614678
vt 0.438163 0.617456
vt 0.417297 0.600797
vt 0.416667 0.592593
vt 0.420957 0.593429
vt 0.417420 0.605706
vt 0.431514 0.610397
vt 0.425800 0.620766
vt 0.428133 0.594019
vt 0.432401 0.607754
vt 0.423508 0.593521
vt 0.423440 0.632133
vt 0.437939 0.605666
vt 0.437316 0.608853
vt 0.435863 0.609015
vt 0.416928 0.608911
vt 0.431492 0.614178
vt 0.428418 0.628186
vt 0.427410 0.584614
vt 0.428705 0.586208
vt 0.428592 0.588922
vt 0.434070 0.616392
vt 0.415586 0.609083
vt 0.415552 0.614376
vt 0.412337 0.615948
vt 0.438095 0.621967
vt 0.428493 0.630273
vt 0.437500 0.592593
vt 0.425136 0.590501
vt 0.425512 0.584347
vt 0.424407 0.587766
vt 0.427963 0.591876
vt 0.425135 0.592660
vt 0.416667 0.629630
vt 0.413841 0.607867
vt 0.425104 0.628733
vt 0.425067 0.631397
vt 0.424241 0.585442
vt 0.412310 0.607651
vn 0.0000 -1.0000 0.0000
vn -0.1367 0.0000 -0.9906
vn 0.2466 0.0000 -0.9691
vn 0.9997 0.0000 -0.0249
vn -0.2221 0.0000 -0.9750
vn -0.2420 0.0000 -0.9703
vn -0.9980 0.0000 -0.0640
vn 0.1047 0.0000 -0.9945
vn 0.9504 0.0000 0.3110
vn -0.9179 0.0000 0.3968
vn 0.9906 0.0000 -0.1369
vn -0.9911 0.0000 0.1332
vn -0.9975 0.0000 0.0706
vn 0.9995 0.0000 0.0331
vn -0.5617 0.0000 -0.8273
vn 0.4796 0.0000 -0.8775
vn 0.9996 0.0000 -0.0265
vn -0.9992 0.0000 0.0398
vn -0.0813 0.0000 -0.9967
vn -0.1027 0.0000 0.9947
vn 0.9320 0.0000 0.3624
vn -0.9583 0.0000 -0.2859
vn 0.8501 0.0000 0.5266
vn -0.3953 0.0000 0.9185
vn -0.0798 0.0000 0.9968
vn -0.8535 0.0000 -0.5210
vn 0.0964 0.0000 -0.9953
vn 0.3971 0.0000 -0.9178
vn 0.0038 0.0000 -1.0000
vn 0.9999 0.0000 -0.0103
vn -1.0000 0.0000 -0.0071
vn 0.8587 0.0000 -0.5125
vn -0.8591 0.0000 0.5119
vn 0.0790 0.0000 0.9969
vn 0.3649 0.0000 0.9311
vn -0.0719 0.0000 0.9974
vn -0.3386 0.0000 -0.9409
vn 0.0626 0.0000 -0.9980
vn -0.9647 0.0000 0.2632
vn 0.9447 0.0000 -0.3280
vn -0.0288 0.0000 -0.9996
vn -0.9990 0.0000 -0.0446
vn 1.0000 0.0000 -0.0026
vn -0.9908 0.0000 -0.1353
vn 0.1733 0.0000 0.9849
vn 0.0204 0.0000 0.9998
vn 0.9902 0.0000 0.1394
vn -0.1492 0.0000 0.9888
vn 0.9953 0.0000 0.0965
vn -0.2853 0.0000 0.9584
vn 0.1090 0.0000 0.9940
vn -1.0000 0.0000 0.0013
vn 0.9351 0.0000 -0.3543
vn -0.9037 0.0000 -0.4282
vn 0.9973 0.0000 -0.0736
vn -0.9921 0.0000 -0.1258
vn 0.5690 0.0000 0.8223
vn -0.4362 0.0000 0.8998
vn 0.0000 1.0000 0.0000
usemtl BackMat.001
s off
f 204/1/1 207/2/1 200/3/1
f 206/4/1 209/5/1 193/6/1
f 251/7/1 241/8/1 248/9/1
f 218/10/1 213/11/1 210/12/1
f 216/13/1 211/14/1 222/15/1
f 226/16/1 229/17/1 232/18/1
f 225/19/1 215/20/1 220/21/1
f 247/22/1 255/23/1 249/24/1
f 245/25/1 214/26/1 231/27/1
f 252/28/1 231/27/1 233/29/1
f 245/25/1 231/27/1 254/30/1
f 194/31/1 206/4/1 193/6/1
f 246/32/1 242/33/1 243/34/1
f 222/15/1 214/26/1 239/35/1
f 248/9/1 241/8/1 246/32/1
f 245/25/1 254/30/1 247/22/1
f 224/36/1 213/11/1 218/10/1
f 207/2/1 203/37/1 200/3/1
f 267/38/1 262/39/1 264/40/1
f 218/10/1 210/12/1 217/41/1
f 238/42/1 230/43/1 222/15/1
f 227/44/1 229/17/1 226/16/1
f 238/42/1 222/15/1 239/35/1
f 208/45/1 217/41/1 210/12/1
f 200/3/1 203/37/1 198/46/1
f 222/15/1 211/14/1 214/26/1
f 214/26/1 224/36/1 231/27/1
f 255/23/1 247/22/1 254/30/1
f 217/41/1 208/45/1 215/20/1
f 251/7/1 248/9/1 257/47/1
f 267/38/1 261/48/1 262/39/1
f 252/28/1 233/29/1 251/7/1
f 210/12/1 207/2/1 208/45/1
f 268/49/1 263/50/1 267/38/1
f 209/5/1 211/14/1 216/13/1
f 208/45/1 207/2/1 204/1/1
f 262/39/1 261/48/1 256/51/1
f 259/52/1 252/28/1 256/51/1
f 193/6/1 209/5/1 201/53/1
f 246/32/1 241/8/1 242/33/1
f 259/52/1 256/51/1 261/48/1
f 239/35/1 214/26/1 245/25/1
f 254/30/1 252/28/1 259/52/1
f 261/48/1 267/38/1 263/50/1
f 217/41/1 215/20/1 225/19/1
f 251/7/1 233/29/1 241/8/1
f 230/43/1 237/54/1 229/17/1
f 214/26/1 213/11/1 224/36/1
f 206/4/1 194/31/1 197/55/1
f 195/56/1 197/55/1 194/31/1
f 211/14/1 209/5/1 206/4/1
f 265/57/1 263/50/1 268/49/1
f 254/30/1 231/27/1 252/28/1
f 235/58/1 232/18/1 237/54/1
f 237/54/1 230/43/1 238/42/1
f 232/18/1 229/17/1 237/54/1
f 45/59/2 46/60/2 104/61/2 103/62/2
f 46/60/3 120/63/3 196/64/3 104/61/3
f 47/65/4 48/66/4 106/67/4 105/68/4
f 123/69/5 57/70/5 115/71/5 199/72/5
f 126/73/6 45/59/6 103/62/6 202/74/6
f 55/75/7 56/76/7 114/77/7 113/78/7
f 57/70/8 129/79/8 205/80/8 115/71/8
f 48/66/9 49/81/9 107/82/9 106/67/9
f 54/83/10 55/75/10 113/78/10 112/84/10
f 58/85/11 1/86/11 59/87/11 116/88/11
f 43/89/12 44/90/12 102/91/12 101/92/12
f 53/93/13 54/83/13 112/84/13 111/94/13
f 49/81/14 136/95/14 212/96/14 107/82/14
f 52/97/15 53/93/15 111/94/15 110/98/15
f 50/99/16 51/100/16 109/101/16 108/102/16
f 1/86/17 2/103/17 60/104/17 59/87/17
f 42/105/18 43/89/18 101/92/18 100/106/18
f 51/100/19 52/97/19 110/98/19 109/101/19
f 5/107/20 143/108/20 219/109/20 63/110/20
f 2/103/21 145/111/21 221/112/21 60/104/21
f 147/113/22 42/105/22 100/106/22 223/114/22
f 6/115/23 7/116/23 65/117/23 64/118/23
f 4/119/24 5/107/24 63/110/24 62/120/24
f 3/121/25 4/119/25 62/120/25 61/122/25
f 37/123/26 152/124/26 228/125/26 95/126/26
f 38/127/27 39/128/27 97/129/27 96/130/27
f 39/128/28 40/131/28 98/132/28 97/129/28
f 40/131/29 41/133/29 99/134/29 98/132/29
f 7/116/30 8/135/30 66/136/30 65/117/30
f 36/137/31 37/123/31 95/126/31 94/138/31
f 8/135/32 158/139/32 234/140/32 66/136/32
f 160/141/33 36/137/33 94/138/33 236/142/33
f 34/143/34 35/144/34 93/145/34 92/146/34
f 33/147/35 34/143/35 92/146/35 91/148/35
f 164/149/36 33/147/36 91/148/36 240/150/36
f 10/151/37 11/152/37 69/153/37 68/154/37
f 11/152/38 168/155/38 244/156/38 69/153/38
f 31/157/39 32/158/39 90/159/39 89/160/39
f 12/161/40 13/162/40 71/163/40 70/164/40
f 9/165/41 10/151/41 68/154/41 67/166/41
f 30/167/42 31/157/42 89/160/42 88/168/42
f 13/162/43 14/169/43 72/170/43 71/163/43
f 174/171/44 30/167/44 88/168/44 250/172/44
f 16/173/45 177/174/45 253/175/45 74/176/45
f 27/177/46 28/178/46 86/179/46 85/180/46
f 17/181/47 18/182/47 76/183/47 75/184/47
f 182/185/48 16/173/48 74/176/48 258/186/48
f 14/169/49 15/187/49 73/188/49 72/170/49
f 184/189/50 27/177/50 85/180/50 260/190/50
f 28/178/51 29/191/51 87/192/51 86/179/51
f 25/193/52 26/194/52 84/195/52 83/196/52
f 18/182/53 19/197/53 77/198/53 76/183/53
f 24/199/54 25/193/54 83/196/54 82/200/54
f 19/197/55 20/201/55 78/202/55 77/198/55
f 190/203/56 24/199/56 82/200/56 266/204/56
f 20/201/57 21/205/57 79/206/57 78/202/57
f 22/207/58 23/208/58 81/209/58 80/210/58
f 21/205/34 22/207/34 80/210/34 79/206/34
usemtl FrontMat.001
f 128/211/59 124/212/59 131/213/59
f 130/214/59 117/215/59 133/216/59
f 175/217/59 172/218/59 165/219/59
f 142/220/59 134/221/59 137/222/59
f 140/223/59 146/224/59 135/225/59
f 150/226/59 156/227/59 153/228/59
f 149/229/59 144/230/59 139/231/59
f 171/232/59 173/233/59 179/234/59
f 169/235/59 155/236/59 138/237/59
f 176/238/59 157/239/59 155/236/59
f 169/235/59 178/240/59 155/236/59
f 118/241/59 117/215/59 130/214/59
f 170/242/59 167/243/59 166/244/59
f 146/224/59 163/245/59 138/237/59
f 172/218/59 170/242/59 165/219/59
f 169/235/59 171/232/59 178/240/59
f 148/246/59 142/220/59 137/222/59
f 131/213/59 124/212/59 127/247/59
f 191/248/59 188/249/59 186/250/59
f 142/220/59 141/251/59 134/221/59
f 162/252/59 146/224/59 154/253/59
f 151/254/59 150/226/59 153/228/59
f 162/252/59 163/245/59 146/224/59
f 132/255/59 134/221/59 141/251/59
f 124/212/59 122/256/59 127/247/59
f 146/224/59 138/237/59 135/225/59
f 138/237/59 155/236/59 148/246/59
f 179/234/59 178/240/59 171/232/59
f 141/251/59 139/231/59 132/255/59
f 175/217/59 181/257/59 172/218/59
f 191/248/59 186/250/59 185/258/59
f 176/238/59 175/217/59 157/239/59
f 134/221/59 132/255/59 131/213/59
f 192/259/59 191/248/59 187/260/59
f 133/216/59 140/223/59 135/225/59
f 132/255/59 128/211/59 131/213/59
f 186/250/59 180/261/59 185/258/59
f 183/262/59 180/261/59 176/238/59
f 117/215/59 125/263/59 133/216/59
f 170/242/59 166/244/59 165/219/59
f 183/262/59 185/258/59 180/261/59
f 163/245/59 169/235/59 138/237/59
f 178/240/59 183/262/59 176/238/59
f 185/258/59 187/260/59 191/248/59
f 141/251/59 149/229/59 139/231/59
f 175/217/59 165/219/59 157/239/59
f 154/253/59 153/228/59 161/264/59
f 138/237/59 148/246/59 137/222/59
f 130/214/59 121/265/59 118/241/59
f 119/266/59 118/241/59 121/265/59
f 135/225/59 130/214/59 133/216/59
f 189/267/59 192/259/59 187/260/59
f 178/240/59 176/238/59 155/236/59
f 159/268/59 161/264/59 156/227/59
f 161/264/59 162/252/59 154/253/59
f 156/227/59 161/264/59 153/228/59
