# Blender v2.83.1 OBJ File: 'jigsaw-48x27-3-step2.blend'
# www.blender.org
mtllib piece.149.mtl
o path298
v -0.265831 0.037500 -0.423652
v -0.142364 0.037500 -0.410271
v -0.062830 0.037500 -0.433110
v -0.060974 0.037500 -0.506980
v -0.094267 0.037500 -0.604933
v -0.101112 0.037500 -0.689579
v -0.039902 0.037500 -0.730356
v 0.050994 0.037500 -0.724005
v 0.113216 0.037500 -0.674095
v 0.108506 0.037500 -0.589023
v 0.079020 0.037500 -0.496484
v 0.087019 0.037500 -0.429005
v 0.175194 0.037500 -0.409705
v 0.307965 0.037500 -0.424098
v 0.528738 0.037500 -0.469425
v 0.571504 0.037500 -0.257776
v 0.583924 0.037500 -0.130631
v 0.562340 0.037500 -0.046507
v 0.492598 0.037500 -0.039195
v 0.398615 0.037500 -0.065639
v 0.313827 0.037500 -0.063567
v 0.265989 0.037500 0.008717
v 0.260135 0.037500 0.110609
v 0.295620 0.037500 0.180934
v 0.367126 0.037500 0.179064
v 0.450661 0.037500 0.146557
v 0.517560 0.037500 0.145524
v 0.546803 0.037500 0.219266
v 0.547949 0.037500 0.335865
v 0.528738 0.037500 0.532485
v 0.184932 0.037500 0.553841
v 0.099976 0.037500 0.531646
v 0.093521 0.037500 0.476859
v 0.122334 0.037500 0.405518
v 0.123743 0.037500 0.339882
v 0.055495 0.037500 0.299373
v -0.042991 0.037500 0.292072
v -0.111874 0.037500 0.323227
v -0.111361 0.037500 0.392121
v -0.081852 0.037500 0.474176
v -0.083797 0.037500 0.538849
v -0.159209 0.037500 0.563835
v -0.276369 0.037500 0.559770
v -0.472960 0.037500 0.532485
v -0.413191 0.037500 0.201624
v -0.427819 0.037500 0.122550
v -0.486059 0.037500 0.121700
v -0.567658 0.037500 0.156044
v -0.643931 0.037500 0.163325
v -0.690621 0.037500 0.101483
v -0.701191 0.037500 0.009225
v -0.673534 0.037500 -0.054550
v -0.610524 0.037500 -0.051112
v -0.534950 0.037500 -0.022413
v -0.474579 0.037500 -0.030575
v -0.449779 0.037500 -0.118243
v -0.472960 0.037500 -0.469425
v -0.265831 -0.037498 -0.423652
v -0.142364 -0.037500 -0.410271
v -0.062830 -0.037500 -0.433110
v -0.060974 -0.037498 -0.506980
v -0.094267 -0.037500 -0.604933
v -0.101112 -0.037500 -0.689579
v -0.039902 -0.037498 -0.730356
v 0.050994 -0.037500 -0.724005
v 0.113216 -0.037500 -0.674095
v 0.108506 -0.037500 -0.589023
v 0.079020 -0.037500 -0.496484
v 0.087019 -0.037500 -0.429005
v 0.175194 -0.037498 -0.409705
v 0.307965 -0.037500 -0.424098
v 0.528738 -0.037500 -0.469425
v 0.571504 -0.037500 -0.257776
v 0.583924 -0.037500 -0.130631
v 0.562340 -0.037500 -0.046507
v 0.492598 -0.037500 -0.039195
v 0.398615 -0.037500 -0.065639
v 0.313827 -0.037500 -0.063567
v 0.265989 -0.037500 0.008717
v 0.260135 -0.037500 0.110609
v 0.295620 -0.037500 0.180934
v 0.367126 -0.037500 0.179064
v 0.450661 -0.037498 0.146557
v 0.517560 -0.037500 0.145524
v 0.546803 -0.037500 0.219266
v 0.547949 -0.037500 0.335865
v 0.528738 -0.037500 0.532485
v 0.184932 -0.037498 0.553841
v 0.099976 -0.037500 0.531646
v 0.093521 -0.037500 0.476859
v 0.122334 -0.037498 0.405518
v 0.123743 -0.037500 0.339882
v 0.055495 -0.037500 0.299373
v -0.042991 -0.037500 0.292072
v -0.111874 -0.037500 0.323227
v -0.111361 -0.037500 0.392121
v -0.081852 -0.037500 0.474176
v -0.083797 -0.037500 0.538849
v -0.159209 -0.037500 0.563835
v -0.276369 -0.037500 0.559770
v -0.472960 -0.037500 0.532485
v -0.413191 -0.037500 0.201624
v -0.427819 -0.037500 0.122550
v -0.486059 -0.037498 0.121700
v -0.567658 -0.037500 0.156044
v -0.643931 -0.037500 0.163325
v -0.690621 -0.037500 0.101483
v -0.701191 -0.037498 0.009225
v -0.673534 -0.037500 -0.054550
v -0.610524 -0.037500 -0.051112
v -0.534950 -0.037500 -0.022413
v -0.474579 -0.037500 -0.030575
v -0.449779 -0.037500 -0.118243
v -0.472960 -0.037500 -0.469425
v -0.690621 0.037500 0.101483
v -0.701191 0.037500 0.009225
v -0.673534 0.037500 -0.054550
v -0.673534 0.037500 -0.054550
v -0.643931 0.037500 0.163325
v -0.610524 0.037500 -0.051112
v -0.567658 0.037500 0.156044
v -0.534950 0.037500 -0.022413
v -0.486059 0.037500 0.121700
v -0.474579 0.037500 -0.030575
v -0.474579 0.037500 -0.030575
v -0.427819 0.037500 0.122550
v -0.427819 0.037500 0.122550
v -0.449779 0.037500 -0.118243
v -0.472960 0.037500 -0.469425
v -0.472960 0.037500 -0.469425
v -0.472960 0.037500 0.532485
v -0.472960 0.037500 0.532485
v -0.413191 0.037500 0.201624
v -0.276369 0.037500 0.559770
v -0.265831 0.037500 -0.423652
v -0.159209 0.037500 0.563835
v -0.142364 0.037500 -0.410271
v -0.083797 0.037500 0.538849
v -0.083797 0.037500 0.538849
v -0.111874 0.037500 0.323227
v -0.111874 0.037500 0.323227
v -0.111361 0.037500 0.392121
v -0.062830 0.037500 -0.433110
v -0.062830 0.037500 -0.433110
v -0.042991 0.037500 0.292072
v -0.081852 0.037500 0.474176
v -0.094267 0.037500 -0.604933
v -0.101112 0.037500 -0.689579
v -0.101112 0.037500 -0.689579
v -0.039902 0.037500 -0.730356
v -0.060974 0.037500 -0.506980
v 0.055495 0.037500 0.299373
v 0.050994 0.037500 -0.724005
v 0.113216 0.037500 -0.674095
v 0.123743 0.037500 0.339882
v 0.123743 0.037500 0.339882
v 0.079020 0.037500 -0.496484
v 0.087019 0.037500 -0.429005
v 0.087019 0.037500 -0.429005
v 0.108506 0.037500 -0.589023
v 0.175194 0.037500 -0.409705
v 0.099976 0.037500 0.531646
v 0.099976 0.037500 0.531646
v 0.093521 0.037500 0.476859
v 0.122334 0.037500 0.405518
v 0.184932 0.037500 0.553841
v 0.307965 0.037500 -0.424098
v 0.265989 0.037500 0.008717
v 0.260135 0.037500 0.110609
v 0.295620 0.037500 0.180934
v 0.295620 0.037500 0.180934
v 0.313827 0.037500 -0.063567
v 0.367126 0.037500 0.179064
v 0.398615 0.037500 -0.065639
v 0.450661 0.037500 0.146557
v 0.492598 0.037500 -0.039195
v 0.528738 0.037500 0.532485
v 0.528738 0.037500 0.532485
v 0.517560 0.037500 0.145524
v 0.517560 0.037500 0.145524
v 0.562340 0.037500 -0.046507
v 0.562340 0.037500 -0.046507
v 0.528738 0.037500 -0.469425
v 0.528738 0.037500 -0.469425
v 0.546803 0.037500 0.219266
v 0.547949 0.037500 0.335865
v 0.571504 0.037500 -0.257776
v 0.583924 0.037500 -0.130631
v -0.690621 -0.037500 0.101483
v -0.701191 -0.037498 0.009225
v -0.673534 -0.037500 -0.054550
v -0.673534 -0.037500 -0.054550
v -0.643931 -0.037500 0.163325
v -0.610524 -0.037500 -0.051112
v -0.567658 -0.037500 0.156044
v -0.534950 -0.037500 -0.022413
v -0.486059 -0.037498 0.121700
v -0.474579 -0.037500 -0.030575
v -0.474579 -0.037500 -0.030575
v -0.427819 -0.037500 0.122550
v -0.427819 -0.037500 0.122550
v -0.449779 -0.037500 -0.118243
v -0.472960 -0.037500 -0.469425
v -0.472960 -0.037500 -0.469425
v -0.472960 -0.037500 0.532485
v -0.472960 -0.037500 0.532485
v -0.413191 -0.037500 0.201624
v -0.276369 -0.037500 0.559770
v -0.265831 -0.037498 -0.423652
v -0.159209 -0.037500 0.563835
v -0.142364 -0.037500 -0.410271
v -0.083797 -0.037500 0.538849
v -0.083797 -0.037500 0.538849
v -0.111874 -0.037500 0.323227
v -0.111874 -0.037500 0.323227
v -0.111361 -0.037500 0.392121
v -0.062830 -0.037500 -0.433110
v -0.062830 -0.037500 -0.433110
v -0.042991 -0.037500 0.292072
v -0.081852 -0.037500 0.474176
v -0.094267 -0.037500 -0.604933
v -0.101112 -0.037500 -0.689579
v -0.101112 -0.037500 -0.689579
v -0.039902 -0.037498 -0.730356
v -0.060974 -0.037498 -0.506980
v 0.055495 -0.037500 0.299373
v 0.050994 -0.037500 -0.724005
v 0.113216 -0.037500 -0.674095
v 0.123743 -0.037500 0.339882
v 0.123743 -0.037500 0.339882
v 0.079020 -0.037500 -0.496484
v 0.087019 -0.037500 -0.429005
v 0.087019 -0.037500 -0.429005
v 0.108506 -0.037500 -0.589023
v 0.175194 -0.037498 -0.409705
v 0.099976 -0.037500 0.531646
v 0.099976 -0.037500 0.531646
v 0.093521 -0.037500 0.476859
v 0.122334 -0.037498 0.405518
v 0.184932 -0.037498 0.553841
v 0.307965 -0.037500 -0.424098
v 0.265989 -0.037500 0.008717
v 0.260135 -0.037500 0.110609
v 0.295620 -0.037500 0.180934
v 0.295620 -0.037500 0.180934
v 0.313827 -0.037500 -0.063567
v 0.367126 -0.037500 0.179064
v 0.398615 -0.037500 -0.065639
v 0.450661 -0.037498 0.146557
v 0.492598 -0.037500 -0.039195
v 0.528738 -0.037500 0.532485
v 0.528738 -0.037500 0.532485
v 0.517560 -0.037500 0.145524
v 0.517560 -0.037500 0.145524
v 0.562340 -0.037500 -0.046507
v 0.562340 -0.037500 -0.046507
v 0.528738 -0.037500 -0.469425
v 0.528738 -0.037500 -0.469425
v 0.546803 -0.037500 0.219266
v 0.547949 -0.037500 0.335865
v 0.571504 -0.037500 -0.257776
v 0.583924 -0.037500 -0.130631
vt 0.500000 0.500000
vt 0.500000 0.500000
vt 0.500000 0.500000
vt 0.500000 0.500000
vt 0.500000 0.500000
vt 0.500000 0.500000
vt 0.500000 0.500000
vt 0.500000 0.500000
vt 0.500000 0.500000
vt 0.500000 0.500000
vt 0.500000 0.500000
vt 0.500000 0.500000
vt 0.500000 0.500000
vt 0.500000 0.500000
vt 0.500000 0.500000
vt 0.500000 0.500000
vt 0.500000 0.500000
vt 0.500000 0.500000
vt 0.500000 0.500000
vt 0.500000 0.500000
vt 0.500000 0.500000
vt 0.500000 0.500000
vt 0.500000 0.500000
vt 0.500000 0.500000
vt 0.500000 0.500000
vt 0.500000 0.500000
vt 0.500000 0.500000
vt 0.500000 0.500000
vt 0.500000 0.500000
vt 0.500000 0.500000
vt 0.500000 0.500000
vt 0.500000 0.500000
vt 0.500000 0.500000
vt 0.500000 0.500000
vt 0.500000 0.500000
vt 0.500000 0.500000
vt 0.500000 0.500000
vt 0.500000 0.500000
vt 0.500000 0.500000
vt 0.500000 0.500000
vt 0.500000 0.500000
vt 0.500000 0.500000
vt 0.500000 0.500000
vt 0.500000 0.500000
vt 0.500000 0.500000
vt 0.500000 0.500000
vt 0.500000 0.500000
vt 0.500000 0.500000
vt 0.500000 0.500000
vt 0.500000 0.500000
vt 0.500000 0.500000
vt 0.500000 0.500000
vt 0.500000 0.500000
vt 0.500000 0.500000
vt 0.500000 0.500000
vt 0.500000 0.500000
vt 0.500000 0.500000
vt 0.500000 0.500000
vt 0.500000 0.500000
vt 0.500000 0.500000
vt 0.500000 0.500000
vt 0.500000 0.500000
vt 0.500000 0.500000
vt 0.500000 0.500000
vt 0.500000 0.500000
vt 0.500000 0.500000
vt 0.500000 0.500000
vt 0.500000 0.500000
vt 0.500000 0.500000
vt 0.500000 0.500000
vt 0.500000 0.500000
vt 0.500000 0.500000
vt 0.500000 0.500000
vt 0.500000 0.500000
vt 0.500000 0.500000
vt 0.500000 0.500000
vt 0.500000 0.500000
vt 0.500000 0.500000
vt 0.500000 0.500000
vt 0.500000 0.500000
vt 0.500000 0.500000
vt 0.500000 0.500000
vt 0.500000 0.500000
vt 0.500000 0.500000
vt 0.500000 0.500000
vt 0.500000 0.500000
vt 0.500000 0.500000
vt 0.500000 0.500000
vt 0.500000 0.500000
vt 0.500000 0.500000
vt 0.500000 0.500000
vt 0.500000 0.500000
vt 0.500000 0.500000
vt 0.500000 0.500000
vt 0.500000 0.500000
vt 0.500000 0.500000
vt 0.500000 0.500000
vt 0.500000 0.500000
vt 0.500000 0.500000
vt 0.500000 0.500000
vt 0.500000 0.500000
vt 0.500000 0.500000
vt 0.500000 0.500000
vt 0.500000 0.500000
vt 0.500000 0.500000
vt 0.500000 0.500000
vt 0.500000 0.500000
vt 0.500000 0.500000
vt 0.500000 0.500000
vt 0.500000 0.500000
vt 0.500000 0.500000
vt 0.500000 0.500000
vt 0.500000 0.500000
vt 0.500000 0.500000
vt 0.500000 0.500000
vt 0.500000 0.500000
vt 0.500000 0.500000
vt 0.500000 0.500000
vt 0.500000 0.500000
vt 0.500000 0.500000
vt 0.500000 0.500000
vt 0.500000 0.500000
vt 0.500000 0.500000
vt 0.500000 0.500000
vt 0.500000 0.500000
vt 0.500000 0.500000
vt 0.500000 0.500000
vt 0.500000 0.500000
vt 0.500000 0.500000
vt 0.500000 0.500000
vt 0.500000 0.500000
vt 0.500000 0.500000
vt 0.500000 0.500000
vt 0.500000 0.500000
vt 0.500000 0.500000
vt 0.500000 0.500000
vt 0.500000 0.500000
vt 0.500000 0.500000
vt 0.500000 0.500000
vt 0.500000 0.500000
vt 0.500000 0.500000
vt 0.500000 0.500000
vt 0.500000 0.500000
vt 0.500000 0.500000
vt 0.500000 0.500000
vt 0.500000 0.500000
vt 0.500000 0.500000
vt 0.500000 0.500000
vt 0.500000 0.500000
vt 0.500000 0.500000
vt 0.500000 0.500000
vt 0.500000 0.500000
vt 0.500000 0.500000
vt 0.500000 0.500000
vt 0.500000 0.500000
vt 0.500000 0.500000
vt 0.500000 0.500000
vt 0.500000 0.500000
vt 0.500000 0.500000
vt 0.500000 0.500000
vt 0.500000 0.500000
vt 0.500000 0.500000
vt 0.500000 0.500000
vt 0.500000 0.500000
vt 0.500000 0.500000
vt 0.500000 0.500000
vt 0.500000 0.500000
vt 0.500000 0.500000
vt 0.500000 0.500000
vt 0.500000 0.500000
vt 0.500000 0.500000
vt 0.500000 0.500000
vt 0.500000 0.500000
vt 0.500000 0.500000
vt 0.500000 0.500000
vt 0.500000 0.500000
vt 0.500000 0.500000
vt 0.500000 0.500000
vt 0.500000 0.500000
vt 0.500000 0.500000
vt 0.500000 0.500000
vt 0.500000 0.500000
vt 0.500000 0.500000
vt 0.500000 0.500000
vt 0.500000 0.500000
vt 0.500000 0.500000
vt 0.500000 0.500000
vt 0.500000 0.500000
vt 0.500000 0.500000
vt 0.500000 0.500000
vt 0.500000 0.500000
vt 0.500000 0.500000
vt 0.500000 0.500000
vt 0.500000 0.500000
vt 0.500000 0.500000
vt 0.500000 0.500000
vt 0.500000 0.500000
vt 0.500000 0.500000
vt 0.500000 0.500000
vt 0.500000 0.500000
vt 0.500000 0.500000
vt 0.500000 0.500000
vt 0.500000 0.500000
vt 0.500000 0.500000
vt 0.500000 0.500000
vt 0.102937 0.876665
vt 0.103215 0.881231
vt 0.096864 0.888032
vt 0.091009 0.895210
vt 0.091161 0.892390
vt 0.092295 0.896937
vt 0.090682 0.857827
vt 0.089846 0.851184
vt 0.091358 0.854739
vt 0.085973 0.866878
vt 0.084490 0.867944
vt 0.082889 0.864564
vt 0.090643 0.860471
vt 0.094872 0.891181
vt 0.091875 0.889373
vt 0.095041 0.888949
vt 0.090213 0.886679
vt 0.082766 0.881620
vt 0.086252 0.875519
vt 0.108744 0.875140
vt 0.106984 0.874887
vt 0.109592 0.872877
vt 0.091380 0.852265
vt 0.087422 0.851142
vt 0.082681 0.877288
vt 0.083201 0.874500
vt 0.084546 0.874428
vt 0.088332 0.872991
vt 0.094224 0.861567
vt 0.109460 0.869516
vt 0.097122 0.849811
vt 0.099766 0.850271
vt 0.095770 0.856663
vt 0.094214 0.897328
vt 0.095468 0.893975
vt 0.104729 0.868480
vt 0.106654 0.867390
vt 0.104948 0.873656
vt 0.095727 0.859798
vt 0.103224 0.860015
vt 0.102925 0.864924
vt 0.095221 0.853188
vt 0.087685 0.875538
vt 0.103326 0.868184
vt 0.091857 0.887220
vt 0.088181 0.869350
vt 0.087338 0.866826
vt 0.092106 0.861783
vt 0.104167 0.888889
vt 0.104167 0.851852
vt 0.103411 0.873725
vt 0.083351 0.867705
vt 0.095373 0.850609
vt 0.108422 0.867216
vt 0.083333 0.851852
vt 0.083333 0.888889
vt 0.095540 0.896305
vn -0.0000 -1.0000 -0.0000
vn -0.9935 0.0000 0.1138
vn -0.9174 0.0000 -0.3979
vn -0.7981 0.0000 0.6025
vn 0.0545 0.0000 -0.9985
vn 0.0950 0.0000 0.9955
vn 0.3550 0.0000 -0.9349
vn 0.3879 0.0000 0.9217
vn -0.1340 0.0000 -0.9910
vn -0.0146 0.0000 0.9999
vn -0.9622 0.0000 -0.2722
vn -0.9978 0.0000 0.0659
vn -0.9841 0.0000 -0.1778
vn -0.9833 0.0000 0.1819
vn -0.1375 0.0000 0.9905
vn 0.2158 0.0000 -0.9764
vn -0.0347 0.0000 0.9994
vn 0.1077 0.0000 -0.9942
vn 0.3145 0.0000 0.9493
vn 1.0000 0.0000 -0.0074
vn -0.2760 0.0000 -0.9612
vn 0.4121 0.0000 0.9111
vn 0.9995 0.0000 0.0300
vn 0.9410 0.0000 -0.3384
vn -0.9967 0.0000 0.0806
vn -0.5544 0.0000 -0.8322
vn -0.9468 0.0000 0.3218
vn -0.9997 0.0000 -0.0251
vn -0.0739 0.0000 0.9973
vn 0.0697 0.0000 -0.9976
vn 0.6257 0.0000 -0.7801
vn -0.5104 0.0000 0.8599
vn 0.9930 0.0000 -0.1177
vn 0.9528 0.0000 0.3036
vn 0.9985 0.0000 0.0553
vn 0.2138 0.0000 -0.9769
vn -0.9931 0.0000 0.1170
vn -0.9272 0.0000 -0.3745
vn -0.2528 0.0000 0.9675
vn -0.9998 0.0000 -0.0215
vn -0.1078 0.0000 -0.9942
vn 0.9984 0.0000 0.0574
vn 0.8928 0.0000 -0.4505
vn 0.8339 0.0000 0.5519
vn -0.0262 0.0000 -0.9997
vn 0.0244 0.0000 0.9997
vn -0.3626 0.0000 -0.9319
vn -0.2708 0.0000 0.9626
vn 0.0620 0.0000 0.9981
vn -0.0155 0.0000 -0.9999
vn 0.1043 0.0000 0.9945
vn -0.2011 0.0000 -0.9796
vn 0.9296 0.0000 -0.3686
vn 0.9953 0.0000 0.0972
vn 1.0000 0.0000 -0.0098
vn 0.9802 0.0000 -0.1981
vn 0.9686 0.0000 0.2485
vn 0.9953 0.0000 -0.0972
vn 0.0000 1.0000 -0.0000
usemtl BackMat.001
s off
f 211/1/1 202/2/1 209/3/1
f 193/4/1 189/5/1 195/6/1
f 247/7/1 249/8/1 259/9/1
f 239/10/1 240/11/1 238/12/1
f 244/13/1 247/7/1 239/10/1
f 196/14/1 198/15/1 197/16/1
f 207/17/1 216/18/1 208/19/1
f 222/20/1 224/21/1 221/22/1
f 259/9/1 249/8/1 253/23/1
f 239/10/1 247/7/1 260/24/1
f 210/25/1 220/26/1 212/27/1
f 211/1/1 242/28/1 219/29/1
f 224/21/1 227/30/1 221/22/1
f 262/31/1 248/32/1 261/33/1
f 190/34/1 194/35/1 189/5/1
f 231/36/1 225/37/1 234/38/1
f 246/39/1 241/40/1 248/32/1
f 202/2/1 211/1/1 219/29/1
f 239/10/1 260/24/1 240/11/1
f 241/40/1 246/39/1 235/41/1
f 210/25/1 216/18/1 220/26/1
f 208/19/1 216/18/1 210/25/1
f 196/14/1 189/5/1 194/35/1
f 248/32/1 262/31/1 250/42/1
f 207/17/1 214/43/1 216/18/1
f 232/44/1 235/41/1 246/39/1
f 242/28/1 232/44/1 246/39/1
f 200/45/1 214/43/1 207/17/1
f 200/45/1 219/29/1 214/43/1
f 226/46/1 243/47/1 229/48/1
f 209/3/1 202/2/1 203/49/1
f 261/33/1 241/40/1 257/50/1
f 261/33/1 248/32/1 241/40/1
f 225/37/1 231/36/1 217/51/1
f 217/51/1 232/44/1 242/28/1
f 200/45/1 202/2/1 219/29/1
f 197/16/1 198/15/1 200/45/1
f 219/29/1 243/47/1 226/46/1
f 238/12/1 240/11/1 236/52/1
f 250/42/1 262/31/1 255/53/1
f 234/38/1 227/30/1 228/54/1
f 229/48/1 243/47/1 244/13/1
f 240/11/1 260/24/1 251/55/1
f 205/56/1 207/17/1 208/19/1
f 260/24/1 247/7/1 259/9/1
f 229/48/1 244/13/1 239/10/1
f 217/51/1 231/36/1 232/44/1
f 227/30/1 234/38/1 221/22/1
f 189/5/1 196/14/1 195/6/1
f 198/15/1 202/2/1 200/45/1
f 195/6/1 196/14/1 197/16/1
f 242/28/1 243/47/1 219/29/1
f 191/57/1 194/35/1 190/34/1
f 211/1/1 217/51/1 242/28/1
f 221/22/1 234/38/1 225/37/1
f 50/58/2 51/59/2 108/60/2 107/61/2
f 51/59/3 118/62/3 192/63/3 108/60/3
f 49/64/4 50/58/4 107/61/4 106/65/4
f 52/66/5 53/67/5 110/68/5 109/69/5
f 48/70/6 49/64/6 106/65/6 105/71/6
f 53/67/7 54/72/7 111/73/7 110/68/7
f 47/74/8 48/70/8 105/71/8 104/75/8
f 54/72/9 125/76/9 199/77/9 111/73/9
f 127/78/10 47/74/10 104/75/10 201/79/10
f 55/80/11 56/81/11 113/82/11 112/83/11
f 56/81/12 130/84/12 204/85/12 113/82/12
f 132/86/13 45/87/13 102/88/13 206/89/13
f 45/87/14 46/90/14 103/91/14 102/88/14
f 43/92/15 44/93/15 101/94/15 100/95/15
f 57/96/16 1/97/16 58/98/16 114/99/16
f 42/100/17 43/92/17 100/95/17 99/101/17
f 1/97/18 2/102/18 59/103/18 58/98/18
f 139/104/19 42/100/19 99/101/19 213/105/19
f 141/106/20 39/107/20 96/108/20 215/109/20
f 2/102/21 144/110/21 218/111/21 59/103/21
f 37/112/22 38/113/22 95/114/22 94/115/22
f 40/116/23 41/117/23 98/118/23 97/119/23
f 39/107/24 40/116/24 97/119/24 96/108/24
f 5/120/25 149/121/25 223/122/25 62/123/25
f 6/124/26 7/125/26 64/126/26 63/127/26
f 4/128/27 5/120/27 62/123/27 61/129/27
f 3/130/28 4/128/28 61/129/28 60/131/28
f 36/132/29 37/112/29 94/115/29 93/133/29
f 7/125/30 8/134/30 65/135/30 64/126/30
f 8/134/31 9/136/31 66/137/31 65/135/31
f 156/138/32 36/132/32 93/133/32 230/139/32
f 11/140/33 159/141/33 233/142/33 68/143/33
f 10/144/34 11/140/34 68/143/34 67/145/34
f 9/136/35 10/144/35 67/145/35 66/137/35
f 12/146/36 13/147/36 70/148/36 69/149/36
f 163/150/37 33/151/37 90/152/37 237/153/37
f 33/151/38 34/154/38 91/155/38 90/152/38
f 31/156/39 32/157/39 89/158/39 88/159/39
f 34/154/40 35/160/40 92/161/40 91/155/40
f 13/147/41 14/162/41 71/163/41 70/148/41
f 22/164/42 23/165/42 80/166/42 79/167/42
f 23/165/43 171/168/43 245/169/43 80/166/43
f 21/170/44 22/164/44 79/167/44 78/171/44
f 24/172/45 25/173/45 82/174/45 81/175/45
f 20/176/46 21/170/46 78/171/46 77/177/46
f 25/173/47 26/178/47 83/179/47 82/174/47
f 19/180/48 20/176/48 77/177/48 76/181/48
f 178/182/49 31/156/49 88/159/49 252/183/49
f 26/178/50 180/184/50 254/185/50 83/179/50
f 182/186/51 19/180/51 76/181/51 256/187/51
f 14/162/52 184/188/52 258/189/52 71/163/52
f 27/190/53 28/191/53 85/192/53 84/193/53
f 29/194/54 30/195/54 87/196/54 86/197/54
f 28/191/55 29/194/55 86/197/55 85/192/55
f 15/198/56 16/199/56 73/200/56 72/201/56
f 17/202/57 18/203/57 75/204/57 74/205/57
f 16/199/58 17/202/58 74/205/58 73/200/58
usemtl FrontMat.001
f 137/206/59 135/207/59 128/208/59
f 119/209/59 121/210/59 115/211/59
f 173/212/59 185/213/59 175/214/59
f 165/215/59 164/216/59 166/217/59
f 170/218/59 165/215/59 173/212/59
f 122/219/59 123/220/59 124/221/59
f 133/222/59 134/223/59 142/224/59
f 148/225/59 147/226/59 150/227/59
f 185/213/59 179/228/59 175/214/59
f 165/215/59 186/229/59 173/212/59
f 136/230/59 138/231/59 146/232/59
f 137/206/59 145/233/59 168/234/59
f 150/227/59 147/226/59 153/235/59
f 188/236/59 187/237/59 174/238/59
f 116/239/59 115/211/59 120/240/59
f 157/241/59 160/242/59 151/243/59
f 172/244/59 174/238/59 167/245/59
f 128/208/59 145/233/59 137/206/59
f 165/215/59 166/217/59 186/229/59
f 167/245/59 161/246/59 172/244/59
f 136/230/59 146/232/59 142/224/59
f 134/223/59 136/230/59 142/224/59
f 122/219/59 120/240/59 115/211/59
f 174/238/59 176/247/59 188/236/59
f 133/222/59 142/224/59 140/248/59
f 158/249/59 172/244/59 161/246/59
f 168/234/59 172/244/59 158/249/59
f 126/250/59 133/222/59 140/248/59
f 126/250/59 140/248/59 145/233/59
f 152/251/59 155/252/59 169/253/59
f 135/207/59 129/254/59 128/208/59
f 187/237/59 183/255/59 167/245/59
f 187/237/59 167/245/59 174/238/59
f 151/243/59 143/256/59 157/241/59
f 143/256/59 168/234/59 158/249/59
f 126/250/59 145/233/59 128/208/59
f 123/220/59 126/250/59 124/221/59
f 145/233/59 152/251/59 169/253/59
f 164/216/59 162/257/59 166/217/59
f 176/247/59 181/258/59 188/236/59
f 160/242/59 154/259/59 153/235/59
f 155/252/59 170/218/59 169/253/59
f 166/217/59 177/260/59 186/229/59
f 131/261/59 134/223/59 133/222/59
f 186/229/59 185/213/59 173/212/59
f 155/252/59 165/215/59 170/218/59
f 143/256/59 158/249/59 157/241/59
f 153/235/59 147/226/59 160/242/59
f 115/211/59 121/210/59 122/219/59
f 124/221/59 126/250/59 128/208/59
f 121/210/59 123/220/59 122/219/59
f 168/234/59 145/233/59 169/253/59
f 117/262/59 116/239/59 120/240/59
f 137/206/59 168/234/59 143/256/59
f 147/226/59 151/243/59 160/242/59
