# Blender v2.83.1 OBJ File: 'jigsaw-48x27-3-step2.blend'
# www.blender.org
mtllib piece.308.mtl
o path616
v 0.546484 0.037500 -0.286887
v 0.557077 0.037500 -0.163359
v 0.533388 0.037500 -0.086152
v 0.461725 0.037500 -0.089769
v 0.367373 0.037500 -0.129480
v 0.285395 0.037500 -0.140747
v 0.244457 0.037500 -0.079977
v 0.247635 0.037500 0.012646
v 0.291607 0.037500 0.075996
v 0.368820 0.037500 0.069945
v 0.454493 0.037500 0.038361
v 0.519579 0.037500 0.046110
v 0.543179 0.037500 0.137657
v 0.536945 0.037500 0.275855
v 0.506083 0.037500 0.505826
v 0.159561 0.037500 0.433873
v 0.076077 0.037500 0.445043
v 0.073814 0.037500 0.502278
v 0.107891 0.037500 0.584626
v 0.113386 0.037500 0.662215
v 0.046396 0.037500 0.709783
v -0.052908 0.037500 0.720497
v -0.123343 0.037500 0.692130
v -0.124073 0.037500 0.627687
v -0.095665 0.037500 0.551090
v -0.099037 0.037500 0.491495
v -0.176493 0.037500 0.470115
v -0.295902 0.037500 0.476409
v -0.495827 0.037500 0.505826
v -0.567038 0.037500 0.140700
v -0.551718 0.037500 0.050781
v -0.486843 0.037500 0.044785
v -0.396935 0.037500 0.077881
v -0.316460 0.037500 0.084784
v -0.273695 0.037500 0.021048
v -0.272125 0.037500 -0.074405
v -0.309046 0.037500 -0.141813
v -0.377607 0.037500 -0.141265
v -0.454721 0.037500 -0.112246
v -0.513186 0.037500 -0.114092
v -0.533415 0.037500 -0.188048
v -0.526258 0.037500 -0.302987
v -0.495827 0.037500 -0.495872
v -0.303476 0.037500 -0.467439
v -0.189625 0.037500 -0.462390
v -0.118118 0.037500 -0.486064
v -0.120169 0.037500 -0.549137
v -0.152439 0.037500 -0.629505
v -0.152966 0.037500 -0.696867
v -0.080526 0.037500 -0.726685
v 0.023136 0.037500 -0.717465
v 0.095539 0.037500 -0.673475
v 0.095367 0.037500 -0.602502
v 0.065958 0.037500 -0.526412
v 0.071814 0.037500 -0.470591
v 0.157537 0.037500 -0.453076
v 0.506083 0.037500 -0.495872
v 0.546484 -0.037500 -0.286887
v 0.557077 -0.037500 -0.163359
v 0.533388 -0.037500 -0.086152
v 0.461725 -0.037500 -0.089769
v 0.367373 -0.037500 -0.129480
v 0.285395 -0.037500 -0.140747
v 0.244457 -0.037500 -0.079977
v 0.247635 -0.037500 0.012646
v 0.291607 -0.037500 0.075996
v 0.368820 -0.037500 0.069945
v 0.454493 -0.037500 0.038361
v 0.519579 -0.037500 0.046110
v 0.543179 -0.037498 0.137657
v 0.536945 -0.037500 0.275855
v 0.506083 -0.037500 0.505826
v 0.159561 -0.037500 0.433873
v 0.076077 -0.037500 0.445043
v 0.073814 -0.037500 0.502278
v 0.107891 -0.037500 0.584626
v 0.113386 -0.037500 0.662215
v 0.046396 -0.037500 0.709783
v -0.052908 -0.037500 0.720497
v -0.123343 -0.037500 0.692130
v -0.124073 -0.037500 0.627687
v -0.095665 -0.037498 0.551090
v -0.099037 -0.037500 0.491495
v -0.176493 -0.037500 0.470115
v -0.295902 -0.037500 0.476409
v -0.495827 -0.037500 0.505826
v -0.567038 -0.037498 0.140700
v -0.551718 -0.037500 0.050781
v -0.486843 -0.037500 0.044785
v -0.396935 -0.037500 0.077881
v -0.316460 -0.037500 0.084784
v -0.273695 -0.037498 0.021048
v -0.272125 -0.037500 -0.074405
v -0.309046 -0.037500 -0.141813
v -0.377607 -0.037500 -0.141265
v -0.454721 -0.037500 -0.112246
v -0.513186 -0.037500 -0.114092
v -0.533415 -0.037500 -0.188048
v -0.526258 -0.037500 -0.302987
v -0.495827 -0.037500 -0.495872
v -0.303476 -0.037498 -0.467439
v -0.189625 -0.037498 -0.462390
v -0.118118 -0.037500 -0.486064
v -0.120169 -0.037498 -0.549137
v -0.152439 -0.037500 -0.629505
v -0.152966 -0.037500 -0.696867
v -0.080526 -0.037500 -0.726685
v 0.023136 -0.037500 -0.717465
v 0.095539 -0.037500 -0.673475
v 0.095367 -0.037500 -0.602502
v 0.065958 -0.037498 -0.526412
v 0.071814 -0.037500 -0.470591
v 0.157537 -0.037500 -0.453076
v 0.506083 -0.037500 -0.495872
v -0.152966 0.037500 -0.696867
v -0.152966 0.037500 -0.696867
v -0.080526 0.037500 -0.726685
v 0.023136 0.037500 -0.717465
v 0.095539 0.037500 -0.673475
v -0.152439 0.037500 -0.629505
v 0.095367 0.037500 -0.602502
v -0.120169 0.037500 -0.549137
v 0.065958 0.037500 -0.526412
v -0.118118 0.037500 -0.486064
v -0.118118 0.037500 -0.486064
v 0.071814 0.037500 -0.470591
v 0.071814 0.037500 -0.470591
v -0.189625 0.037500 -0.462390
v -0.495827 0.037500 -0.495872
v -0.495827 0.037500 -0.495872
v -0.303476 0.037500 -0.467439
v 0.157537 0.037500 -0.453076
v 0.506083 0.037500 -0.495872
v 0.506083 0.037500 -0.495872
v -0.526258 0.037500 -0.302987
v 0.546484 0.037500 -0.286887
v -0.533415 0.037500 -0.188048
v 0.557077 0.037500 -0.163359
v -0.513186 0.037500 -0.114092
v -0.513186 0.037500 -0.114092
v -0.309046 0.037500 -0.141813
v -0.309046 0.037500 -0.141813
v -0.377607 0.037500 -0.141265
v 0.367373 0.037500 -0.129480
v 0.285395 0.037500 -0.140747
v 0.285395 0.037500 -0.140747
v 0.533388 0.037500 -0.086152
v 0.533388 0.037500 -0.086152
v -0.272125 0.037500 -0.074405
v -0.454721 0.037500 -0.112246
v 0.244457 0.037500 -0.079977
v 0.461725 0.037500 -0.089769
v 0.247635 0.037500 0.012646
v -0.273695 0.037500 0.021048
v 0.291607 0.037500 0.075996
v -0.316460 0.037500 0.084784
v -0.316460 0.037500 0.084784
v 0.368820 0.037500 0.069945
v 0.454493 0.037500 0.038361
v 0.519579 0.037500 0.046110
v 0.519579 0.037500 0.046110
v -0.551718 0.037500 0.050781
v -0.551718 0.037500 0.050781
v -0.486843 0.037500 0.044785
v -0.396935 0.037500 0.077881
v 0.543179 0.037500 0.137657
v -0.567038 0.037500 0.140700
v 0.536945 0.037500 0.275855
v -0.495827 0.037500 0.505826
v -0.495827 0.037500 0.505826
v -0.295902 0.037500 0.476409
v 0.159561 0.037500 0.433873
v 0.076077 0.037500 0.445043
v 0.076077 0.037500 0.445043
v -0.176493 0.037500 0.470115
v 0.073814 0.037500 0.502278
v -0.099037 0.037500 0.491495
v -0.099037 0.037500 0.491495
v 0.506083 0.037500 0.505826
v 0.506083 0.037500 0.505826
v -0.095665 0.037500 0.551090
v 0.107891 0.037500 0.584626
v -0.124073 0.037500 0.627687
v 0.113386 0.037500 0.662215
v -0.123343 0.037500 0.692130
v -0.123343 0.037500 0.692130
v 0.046396 0.037500 0.709783
v -0.052908 0.037500 0.720497
v -0.152966 -0.037500 -0.696867
v -0.152966 -0.037500 -0.696867
v -0.080526 -0.037500 -0.726685
v 0.023136 -0.037500 -0.717465
v 0.095539 -0.037500 -0.673475
v -0.152439 -0.037500 -0.629505
v 0.095367 -0.037500 -0.602502
v -0.120169 -0.037498 -0.549137
v 0.065958 -0.037498 -0.526412
v -0.118118 -0.037500 -0.486064
v -0.118118 -0.037500 -0.486064
v 0.071814 -0.037500 -0.470591
v 0.071814 -0.037500 -0.470591
v -0.189625 -0.037498 -0.462390
v -0.495827 -0.037500 -0.495872
v -0.495827 -0.037500 -0.495872
v -0.303476 -0.037498 -0.467439
v 0.157537 -0.037500 -0.453076
v 0.506083 -0.037500 -0.495872
v 0.506083 -0.037500 -0.495872
v -0.526258 -0.037500 -0.302987
v 0.546484 -0.037500 -0.286887
v -0.533415 -0.037500 -0.188048
v 0.557077 -0.037500 -0.163359
v -0.513186 -0.037500 -0.114092
v -0.513186 -0.037500 -0.114092
v -0.309046 -0.037500 -0.141813
v -0.309046 -0.037500 -0.141813
v -0.377607 -0.037500 -0.141265
v 0.367373 -0.037500 -0.129480
v 0.285395 -0.037500 -0.140747
v 0.285395 -0.037500 -0.140747
v 0.533388 -0.037500 -0.086152
v 0.533388 -0.037500 -0.086152
v -0.272125 -0.037500 -0.074405
v -0.454721 -0.037500 -0.112246
v 0.244457 -0.037500 -0.079977
v 0.461725 -0.037500 -0.089769
v 0.247635 -0.037500 0.012646
v -0.273695 -0.037498 0.021048
v 0.291607 -0.037500 0.075996
v -0.316460 -0.037500 0.084784
v -0.316460 -0.037500 0.084784
v 0.368820 -0.037500 0.069945
v 0.454493 -0.037500 0.038361
v 0.519579 -0.037500 0.046110
v 0.519579 -0.037500 0.046110
v -0.551718 -0.037500 0.050781
v -0.551718 -0.037500 0.050781
v -0.486843 -0.037500 0.044785
v -0.396935 -0.037500 0.077881
v 0.543179 -0.037498 0.137657
v -0.567038 -0.037498 0.140700
v 0.536945 -0.037500 0.275855
v -0.495827 -0.037500 0.505826
v -0.495827 -0.037500 0.505826
v -0.295902 -0.037500 0.476409
v 0.159561 -0.037500 0.433873
v 0.076077 -0.037500 0.445043
v 0.076077 -0.037500 0.445043
v -0.176493 -0.037500 0.470115
v 0.073814 -0.037500 0.502278
v -0.099037 -0.037500 0.491495
v -0.099037 -0.037500 0.491495
v 0.506083 -0.037500 0.505826
v 0.506083 -0.037500 0.505826
v -0.095665 -0.037498 0.551090
v 0.107891 -0.037500 0.584626
v -0.124073 -0.037500 0.627687
v 0.113386 -0.037500 0.662215
v -0.123343 -0.037500 0.692130
v -0.123343 -0.037500 0.692130
v 0.046396 -0.037500 0.709783
v -0.052908 -0.037500 0.720497
vt 0.500000 0.500000
vt 0.500000 0.500000
vt 0.500000 0.500000
vt 0.500000 0.500000
vt 0.500000 0.500000
vt 0.500000 0.500000
vt 0.500000 0.500000
vt 0.500000 0.500000
vt 0.500000 0.500000
vt 0.500000 0.500000
vt 0.500000 0.500000
vt 0.500000 0.500000
vt 0.500000 0.500000
vt 0.500000 0.500000
vt 0.500000 0.500000
vt 0.500000 0.500000
vt 0.500000 0.500000
vt 0.500000 0.500000
vt 0.500000 0.500000
vt 0.500000 0.500000
vt 0.500000 0.500000
vt 0.500000 0.500000
vt 0.500000 0.500000
vt 0.500000 0.500000
vt 0.500000 0.500000
vt 0.500000 0.500000
vt 0.500000 0.500000
vt 0.500000 0.500000
vt 0.500000 0.500000
vt 0.500000 0.500000
vt 0.500000 0.500000
vt 0.500000 0.500000
vt 0.500000 0.500000
vt 0.500000 0.500000
vt 0.500000 0.500000
vt 0.500000 0.500000
vt 0.500000 0.500000
vt 0.500000 0.500000
vt 0.500000 0.500000
vt 0.500000 0.500000
vt 0.500000 0.500000
vt 0.500000 0.500000
vt 0.500000 0.500000
vt 0.500000 0.500000
vt 0.500000 0.500000
vt 0.500000 0.500000
vt 0.500000 0.500000
vt 0.500000 0.500000
vt 0.500000 0.500000
vt 0.500000 0.500000
vt 0.500000 0.500000
vt 0.500000 0.500000
vt 0.500000 0.500000
vt 0.500000 0.500000
vt 0.500000 0.500000
vt 0.500000 0.500000
vt 0.500000 0.500000
vt 0.500000 0.500000
vt 0.500000 0.500000
vt 0.500000 0.500000
vt 0.500000 0.500000
vt 0.500000 0.500000
vt 0.500000 0.500000
vt 0.500000 0.500000
vt 0.500000 0.500000
vt 0.500000 0.500000
vt 0.500000 0.500000
vt 0.500000 0.500000
vt 0.500000 0.500000
vt 0.500000 0.500000
vt 0.500000 0.500000
vt 0.500000 0.500000
vt 0.500000 0.500000
vt 0.500000 0.500000
vt 0.500000 0.500000
vt 0.500000 0.500000
vt 0.500000 0.500000
vt 0.500000 0.500000
vt 0.500000 0.500000
vt 0.500000 0.500000
vt 0.500000 0.500000
vt 0.500000 0.500000
vt 0.500000 0.500000
vt 0.500000 0.500000
vt 0.500000 0.500000
vt 0.500000 0.500000
vt 0.500000 0.500000
vt 0.500000 0.500000
vt 0.500000 0.500000
vt 0.500000 0.500000
vt 0.500000 0.500000
vt 0.500000 0.500000
vt 0.500000 0.500000
vt 0.500000 0.500000
vt 0.500000 0.500000
vt 0.500000 0.500000
vt 0.500000 0.500000
vt 0.500000 0.500000
vt 0.500000 0.500000
vt 0.500000 0.500000
vt 0.500000 0.500000
vt 0.500000 0.500000
vt 0.500000 0.500000
vt 0.500000 0.500000
vt 0.500000 0.500000
vt 0.500000 0.500000
vt 0.500000 0.500000
vt 0.500000 0.500000
vt 0.500000 0.500000
vt 0.500000 0.500000
vt 0.500000 0.500000
vt 0.500000 0.500000
vt 0.500000 0.500000
vt 0.500000 0.500000
vt 0.500000 0.500000
vt 0.500000 0.500000
vt 0.500000 0.500000
vt 0.500000 0.500000
vt 0.500000 0.500000
vt 0.500000 0.500000
vt 0.500000 0.500000
vt 0.500000 0.500000
vt 0.500000 0.500000
vt 0.500000 0.500000
vt 0.500000 0.500000
vt 0.500000 0.500000
vt 0.500000 0.500000
vt 0.500000 0.500000
vt 0.500000 0.500000
vt 0.500000 0.500000
vt 0.500000 0.500000
vt 0.500000 0.500000
vt 0.500000 0.500000
vt 0.500000 0.500000
vt 0.500000 0.500000
vt 0.500000 0.500000
vt 0.500000 0.500000
vt 0.500000 0.500000
vt 0.500000 0.500000
vt 0.500000 0.500000
vt 0.500000 0.500000
vt 0.500000 0.500000
vt 0.500000 0.500000
vt 0.500000 0.500000
vt 0.500000 0.500000
vt 0.500000 0.500000
vt 0.500000 0.500000
vt 0.500000 0.500000
vt 0.500000 0.500000
vt 0.500000 0.500000
vt 0.500000 0.500000
vt 0.500000 0.500000
vt 0.500000 0.500000
vt 0.500000 0.500000
vt 0.500000 0.500000
vt 0.500000 0.500000
vt 0.500000 0.500000
vt 0.500000 0.500000
vt 0.500000 0.500000
vt 0.500000 0.500000
vt 0.500000 0.500000
vt 0.500000 0.500000
vt 0.500000 0.500000
vt 0.500000 0.500000
vt 0.500000 0.500000
vt 0.500000 0.500000
vt 0.500000 0.500000
vt 0.500000 0.500000
vt 0.500000 0.500000
vt 0.500000 0.500000
vt 0.500000 0.500000
vt 0.500000 0.500000
vt 0.500000 0.500000
vt 0.500000 0.500000
vt 0.500000 0.500000
vt 0.500000 0.500000
vt 0.500000 0.500000
vt 0.500000 0.500000
vt 0.500000 0.500000
vt 0.500000 0.500000
vt 0.500000 0.500000
vt 0.500000 0.500000
vt 0.500000 0.500000
vt 0.500000 0.500000
vt 0.500000 0.500000
vt 0.500000 0.500000
vt 0.500000 0.500000
vt 0.500000 0.500000
vt 0.500000 0.500000
vt 0.500000 0.500000
vt 0.500000 0.500000
vt 0.500000 0.500000
vt 0.500000 0.500000
vt 0.500000 0.500000
vt 0.500000 0.500000
vt 0.500000 0.500000
vt 0.500000 0.500000
vt 0.500000 0.500000
vt 0.500000 0.500000
vt 0.500000 0.500000
vt 0.500000 0.500000
vt 0.500000 0.500000
vt 0.500000 0.500000
vt 0.500000 0.500000
vt 0.500000 0.500000
vt 0.417438 0.754354
vt 0.416947 0.757738
vt 0.415594 0.758025
vt 0.402200 0.776540
vt 0.399833 0.776727
vt 0.399717 0.764687
vt 0.417507 0.770051
vt 0.416667 0.777778
vt 0.409419 0.776195
vt 0.397890 0.756564
vt 0.399990 0.741828
vt 0.399563 0.756309
vt 0.404084 0.741271
vt 0.404154 0.739067
vt 0.407678 0.740872
vt 0.409461 0.743401
vt 0.416667 0.740741
vt 0.417308 0.749244
vt 0.407108 0.733200
vt 0.408501 0.734958
vt 0.408387 0.737827
vt 0.412078 0.764647
vt 0.403687 0.777415
vt 0.402963 0.785209
vt 0.402974 0.782719
vt 0.404469 0.786312
vt 0.408126 0.781720
vt 0.406624 0.785971
vt 0.403645 0.779747
vt 0.411293 0.758976
vt 0.407725 0.742988
vt 0.412207 0.756633
vt 0.400452 0.758665
vt 0.417727 0.765483
vt 0.413782 0.764231
vt 0.417234 0.762629
vt 0.415744 0.762762
vt 0.402473 0.742061
vt 0.395472 0.763662
vt 0.396688 0.763594
vt 0.395052 0.766396
vt 0.407515 0.778907
vt 0.403563 0.736235
vt 0.405043 0.732803
vt 0.398291 0.764666
vt 0.395833 0.777778
vt 0.395200 0.770646
vt 0.400485 0.762194
vt 0.407637 0.776843
vt 0.413812 0.756857
vt 0.411226 0.762400
vt 0.408130 0.784344
vt 0.403579 0.733852
vt 0.394353 0.754241
vt 0.395833 0.740741
vt 0.396020 0.757787
vt 0.394671 0.757566
vn -0.0000 -1.0000 0.0000
vn -0.3806 0.0000 -0.9247
vn 0.0886 0.0000 -0.9961
vn 0.5192 0.0000 -0.8546
vn -1.0000 0.0000 0.0078
vn 1.0000 0.0000 0.0024
vn -0.9280 0.0000 0.3726
vn 0.9328 0.0000 0.3605
vn -0.9995 0.0000 0.0325
vn 0.9945 0.0000 -0.1043
vn -0.3143 0.0000 -0.9493
vn 0.1462 0.0000 -0.9893
vn 0.2002 0.0000 -0.9798
vn 0.0443 0.0000 -0.9990
vn -0.1219 0.0000 -0.9925
vn -0.9878 0.0000 -0.1558
vn 0.9818 0.0000 -0.1898
vn -0.9981 0.0000 -0.0621
vn 0.9963 0.0000 -0.0854
vn -0.9646 0.0000 0.2638
vn 0.0080 0.0000 1.0000
vn -0.1362 0.0000 0.9907
vn 0.9560 0.0000 0.2933
vn -0.8771 0.0000 0.4804
vn -0.0316 0.0000 0.9995
vn 0.3522 0.0000 0.9359
vn 0.8294 0.0000 0.5587
vn -0.3879 0.0000 0.9217
vn -0.0504 0.0000 0.9987
vn 0.9994 0.0000 -0.0343
vn -0.9999 0.0000 -0.0164
vn 0.8215 0.0000 -0.5702
vn -0.8304 0.0000 -0.5572
vn -0.3459 0.0000 -0.9383
vn 0.1182 0.0000 -0.9930
vn -0.0920 0.0000 -0.9958
vn 0.3454 0.0000 -0.9384
vn 0.9683 0.0000 -0.2496
vn -0.9858 0.0000 -0.1680
vn -0.0781 0.0000 -0.9969
vn 0.0855 0.0000 -0.9963
vn 0.9990 0.0000 0.0451
vn -0.9815 0.0000 0.1914
vn 0.1456 0.0000 0.9893
vn 0.1326 0.0000 0.9912
vn 0.0526 0.0000 0.9986
vn 0.9992 0.0000 0.0395
vn -0.2661 0.0000 0.9640
vn -0.2033 0.0000 0.9791
vn 0.9911 0.0000 0.1330
vn -0.9984 0.0000 0.0565
vn 0.9240 0.0000 -0.3824
vn -0.9376 0.0000 -0.3477
vn 0.9975 0.0000 -0.0706
vn -0.9999 0.0000 0.0113
vn 0.5790 0.0000 0.8154
vn -0.3736 0.0000 0.9276
vn 0.1073 0.0000 0.9942
vn 0.0000 1.0000 0.0000
usemtl BackMat.001
s off
f 240/1/1 233/2/1 234/3/1
f 202/4/1 215/5/1 205/6/1
f 210/7/1 206/8/1 207/9/1
f 239/10/1 230/11/1 245/12/1
f 251/13/1 250/14/1 255/15/1
f 246/16/1 242/17/1 253/18/1
f 261/19/1 256/20/1 258/21/1
f 219/22/1 206/8/1 210/7/1
f 198/23/1 215/5/1 202/4/1
f 189/24/1 191/25/1 194/26/1
f 195/27/1 196/28/1 192/29/1
f 227/30/1 229/31/1 247/32/1
f 228/33/1 227/30/1 247/32/1
f 212/34/1 218/35/1 210/7/1
f 221/36/1 226/37/1 212/34/1
f 247/32/1 229/31/1 246/16/1
f 230/11/1 247/32/1 249/38/1
f 213/39/1 211/40/1 224/41/1
f 196/28/1 197/42/1 198/23/1
f 195/27/1 197/42/1 196/28/1
f 255/15/1 262/43/1 257/44/1
f 224/41/1 211/40/1 217/45/1
f 205/6/1 209/46/1 203/47/1
f 223/48/1 198/23/1 200/49/1
f 242/17/1 232/50/1 240/1/1
f 200/49/1 225/51/1 223/48/1
f 193/52/1 195/27/1 192/29/1
f 228/33/1 247/32/1 230/11/1
f 257/44/1 262/43/1 259/53/1
f 240/1/1 232/50/1 233/2/1
f 223/48/1 227/30/1 228/33/1
f 251/13/1 247/32/1 250/14/1
f 255/15/1 261/19/1 262/43/1
f 206/8/1 219/22/1 225/51/1
f 218/35/1 212/34/1 226/37/1
f 197/42/1 200/49/1 198/23/1
f 205/6/1 217/45/1 209/46/1
f 241/54/1 245/12/1 243/55/1
f 215/5/1 217/45/1 205/6/1
f 194/26/1 191/25/1 196/28/1
f 206/8/1 225/51/1 200/49/1
f 246/16/1 229/31/1 242/17/1
f 245/12/1 230/11/1 249/38/1
f 249/38/1 247/32/1 251/13/1
f 239/10/1 241/54/1 238/56/1
f 250/14/1 256/20/1 255/15/1
f 209/46/1 217/45/1 211/40/1
f 238/56/1 241/54/1 236/57/1
f 191/25/1 192/29/1 196/28/1
f 261/19/1 255/15/1 256/20/1
f 219/22/1 210/7/1 218/35/1
f 225/51/1 227/30/1 223/48/1
f 242/17/1 229/31/1 232/50/1
f 215/5/1 198/23/1 223/48/1
f 241/54/1 239/10/1 245/12/1
f 116/58/2 50/59/2 107/60/2 190/61/2
f 50/59/3 51/62/3 108/63/3 107/60/3
f 51/62/4 52/64/4 109/65/4 108/63/4
f 48/66/5 49/67/5 106/68/5 105/69/5
f 52/64/6 53/70/6 110/71/6 109/65/6
f 47/72/7 48/66/7 105/69/7 104/73/7
f 53/70/8 54/74/8 111/75/8 110/71/8
f 125/76/9 47/72/9 104/73/9 199/77/9
f 54/74/10 127/78/10 201/79/10 111/75/10
f 45/80/11 46/81/11 103/82/11 102/83/11
f 130/84/12 44/85/12 101/86/12 204/87/12
f 55/88/13 56/89/13 113/90/13 112/91/13
f 44/85/14 45/80/14 102/83/14 101/86/14
f 56/89/15 134/92/15 208/93/15 113/90/15
f 42/94/16 43/95/16 100/96/16 99/97/16
f 57/98/17 1/99/17 58/100/17 114/101/17
f 41/102/18 42/94/18 99/97/18 98/103/18
f 1/99/19 2/104/19 59/105/19 58/100/19
f 140/106/20 41/102/20 98/103/20 214/107/20
f 142/108/21 38/109/21 95/110/21 216/111/21
f 5/112/22 146/113/22 220/114/22 62/115/22
f 2/104/23 148/116/23 222/117/23 59/105/23
f 36/118/24 37/119/24 94/120/24 93/121/24
f 39/122/25 40/123/25 97/124/25 96/125/25
f 38/109/26 39/122/26 96/125/26 95/110/26
f 6/126/27 7/127/27 64/128/27 63/129/27
f 4/130/28 5/112/28 62/115/28 61/131/28
f 3/132/29 4/130/29 61/131/29 60/133/29
f 7/127/30 8/134/30 65/135/30 64/128/30
f 35/136/31 36/118/31 93/121/31 92/137/31
f 8/134/32 9/138/32 66/139/32 65/135/32
f 157/140/33 35/136/33 92/137/33 231/141/33
f 10/142/34 11/143/34 68/144/34 67/145/34
f 11/143/35 161/146/35 235/147/35 68/144/35
f 163/148/36 32/149/36 89/150/36 237/151/36
f 32/149/37 33/152/37 90/153/37 89/150/37
f 12/154/38 13/155/38 70/156/38 69/157/38
f 30/158/39 31/159/39 88/160/39 87/161/39
f 9/138/40 10/142/40 67/145/40 66/139/40
f 33/152/41 34/162/41 91/163/41 90/153/41
f 13/155/42 14/164/42 71/165/42 70/156/42
f 170/166/43 30/158/43 87/161/43 244/167/43
f 28/168/44 29/169/44 86/170/44 85/171/44
f 16/172/45 174/173/45 248/174/45 73/175/45
f 27/176/46 28/168/46 85/171/46 84/177/46
f 17/178/47 18/179/47 75/180/47 74/181/47
f 178/182/48 27/176/48 84/177/48 252/183/48
f 180/184/49 16/172/49 73/175/49 254/185/49
f 14/164/50 15/186/50 72/187/50 71/165/50
f 25/188/51 26/189/51 83/190/51 82/191/51
f 18/179/52 19/192/52 76/193/52 75/180/52
f 24/194/53 25/188/53 82/191/53 81/195/53
f 19/192/54 20/196/54 77/197/54 76/193/54
f 186/198/55 24/194/55 81/195/55 260/199/55
f 20/196/56 21/200/56 78/201/56 77/197/56
f 22/202/57 23/203/57 80/204/57 79/205/57
f 21/200/58 22/202/58 79/205/58 78/201/58
usemtl FrontMat.001
f 166/206/59 160/207/59 159/208/59
f 128/209/59 131/210/59 141/211/59
f 136/212/59 133/213/59 132/214/59
f 165/215/59 171/216/59 156/217/59
f 177/218/59 181/219/59 176/220/59
f 172/221/59 179/222/59 168/223/59
f 187/224/59 184/225/59 182/226/59
f 145/227/59 136/212/59 132/214/59
f 124/228/59 128/209/59 141/211/59
f 115/229/59 120/230/59 117/231/59
f 121/232/59 118/233/59 122/234/59
f 153/235/59 173/236/59 155/237/59
f 154/238/59 173/236/59 153/235/59
f 138/239/59 136/212/59 144/240/59
f 147/241/59 138/239/59 152/242/59
f 173/236/59 172/221/59 155/237/59
f 156/217/59 175/243/59 173/236/59
f 139/244/59 150/245/59 137/246/59
f 122/234/59 124/228/59 123/247/59
f 121/232/59 122/234/59 123/247/59
f 181/219/59 183/248/59 188/249/59
f 150/245/59 143/250/59 137/246/59
f 131/210/59 129/251/59 135/252/59
f 149/253/59 126/254/59 124/228/59
f 168/223/59 166/206/59 158/255/59
f 126/254/59 149/253/59 151/256/59
f 119/257/59 118/233/59 121/232/59
f 154/238/59 156/217/59 173/236/59
f 183/248/59 185/258/59 188/249/59
f 166/206/59 159/208/59 158/255/59
f 149/253/59 154/238/59 153/235/59
f 177/218/59 176/220/59 173/236/59
f 181/219/59 188/249/59 187/224/59
f 132/214/59 151/256/59 145/227/59
f 144/240/59 152/242/59 138/239/59
f 123/247/59 124/228/59 126/254/59
f 131/210/59 135/252/59 143/250/59
f 167/259/59 169/260/59 171/216/59
f 141/211/59 131/210/59 143/250/59
f 120/230/59 122/234/59 117/231/59
f 132/214/59 126/254/59 151/256/59
f 172/221/59 168/223/59 155/237/59
f 171/216/59 175/243/59 156/217/59
f 175/243/59 177/218/59 173/236/59
f 165/215/59 164/261/59 167/259/59
f 176/220/59 181/219/59 182/226/59
f 135/252/59 137/246/59 143/250/59
f 164/261/59 162/262/59 167/259/59
f 117/231/59 122/234/59 118/233/59
f 187/224/59 182/226/59 181/219/59
f 145/227/59 144/240/59 136/212/59
f 151/256/59 149/253/59 153/235/59
f 168/223/59 158/255/59 155/237/59
f 141/211/59 149/253/59 124/228/59
f 167/259/59 171/216/59 165/215/59
