# Blender v2.83.1 OBJ File: 'jigsaw-48x27-3-step2.blend'
# www.blender.org
mtllib piece.626.mtl
o path1252_path1252.001
v -0.296865 0.037500 -0.546339
v -0.179923 0.037500 -0.563839
v -0.103523 0.037500 -0.548068
v -0.099151 0.037500 -0.484153
v -0.126800 0.037500 -0.394830
v -0.128589 0.037500 -0.312234
v -0.065710 0.037500 -0.263204
v 0.024357 0.037500 -0.253368
v 0.085060 0.037500 -0.283065
v 0.079637 0.037500 -0.348004
v 0.050489 0.037500 -0.425351
v 0.059811 0.037500 -0.487645
v 0.150127 0.037500 -0.514694
v 0.285298 0.037500 -0.515422
v 0.509656 0.037500 -0.496932
v 0.457535 0.037500 -0.303696
v 0.438596 0.037500 -0.187808
v 0.453846 0.037500 -0.111565
v 0.518680 0.037500 -0.105840
v 0.609518 0.037500 -0.130675
v 0.693038 0.037500 -0.128404
v 0.741578 0.037500 -0.060782
v 0.750122 0.037500 0.032722
v 0.719313 0.037500 0.093225
v 0.654197 0.037500 0.082649
v 0.577434 0.037500 0.046165
v 0.516086 0.037500 0.049751
v 0.489991 0.037500 0.138714
v 0.509656 0.037500 0.504766
v 0.152893 0.037500 0.527233
v 0.062976 0.037500 0.507972
v 0.052978 0.037500 0.458486
v 0.080082 0.037500 0.393658
v 0.081854 0.037500 0.334150
v 0.016089 0.037500 0.297911
v -0.078510 0.037500 0.292054
v -0.143013 0.037500 0.320978
v -0.138432 0.037500 0.383725
v -0.105541 0.037500 0.457899
v -0.105053 0.037500 0.515746
v -0.179136 0.037500 0.537061
v -0.295784 0.037500 0.531846
v -0.492254 0.037500 0.504766
v -0.467756 0.037500 0.275664
v -0.465968 0.037500 0.138264
v -0.493816 0.037500 0.047867
v -0.562108 0.037500 0.041714
v -0.649833 0.037500 0.075585
v -0.728024 0.037500 0.084910
v -0.772087 0.037500 0.025613
v -0.774914 0.037500 -0.064404
v -0.733767 0.037500 -0.126742
v -0.652007 0.037500 -0.122709
v -0.557369 0.037500 -0.092461
v -0.483686 0.037500 -0.095860
v -0.455546 0.037500 -0.174257
v -0.460569 0.037500 -0.294947
v -0.492254 0.037500 -0.496932
v -0.296865 -0.037500 -0.546339
v -0.179923 -0.037500 -0.563839
v -0.103523 -0.037498 -0.548068
v -0.099151 -0.037500 -0.484153
v -0.126800 -0.037500 -0.394830
v -0.128589 -0.037500 -0.312234
v -0.065710 -0.037500 -0.263204
v 0.024357 -0.037500 -0.253368
v 0.085060 -0.037500 -0.283065
v 0.079637 -0.037500 -0.348004
v 0.050489 -0.037500 -0.425351
v 0.059811 -0.037500 -0.487645
v 0.150127 -0.037500 -0.514694
v 0.285298 -0.037500 -0.515422
v 0.509656 -0.037500 -0.496932
v 0.457535 -0.037500 -0.303696
v 0.438596 -0.037500 -0.187808
v 0.453846 -0.037500 -0.111565
v 0.518680 -0.037500 -0.105840
v 0.609518 -0.037500 -0.130675
v 0.693038 -0.037500 -0.128404
v 0.741578 -0.037500 -0.060782
v 0.750122 -0.037500 0.032722
v 0.719313 -0.037500 0.093225
v 0.654197 -0.037500 0.082649
v 0.577434 -0.037500 0.046165
v 0.516086 -0.037500 0.049751
v 0.489991 -0.037500 0.138714
v 0.509656 -0.037500 0.504766
v 0.152893 -0.037500 0.527233
v 0.062976 -0.037500 0.507972
v 0.052978 -0.037500 0.458486
v 0.080082 -0.037500 0.393658
v 0.081854 -0.037500 0.334150
v 0.016089 -0.037500 0.297911
v -0.078510 -0.037498 0.292054
v -0.143013 -0.037500 0.320978
v -0.138432 -0.037500 0.383725
v -0.105541 -0.037500 0.457899
v -0.105053 -0.037500 0.515746
v -0.179136 -0.037500 0.537061
v -0.295784 -0.037500 0.531846
v -0.492254 -0.037500 0.504766
v -0.467756 -0.037500 0.275664
v -0.465968 -0.037500 0.138264
v -0.493816 -0.037500 0.047867
v -0.562108 -0.037500 0.041714
v -0.649833 -0.037500 0.075585
v -0.728024 -0.037500 0.084910
v -0.772087 -0.037500 0.025613
v -0.774914 -0.037498 -0.064404
v -0.733767 -0.037500 -0.126742
v -0.652007 -0.037500 -0.122709
v -0.557369 -0.037500 -0.092461
v -0.483686 -0.037500 -0.095860
v -0.455546 -0.037498 -0.174257
v -0.460569 -0.037500 -0.294947
v -0.492254 -0.037500 -0.496932
v -0.296865 0.037500 -0.546339
v -0.179923 0.037500 -0.563839
v -0.103523 0.037500 -0.548068
v -0.103523 0.037500 -0.548068
v -0.099151 0.037500 -0.484153
v 0.150127 0.037500 -0.514694
v 0.285298 0.037500 -0.515422
v 0.059811 0.037500 -0.487645
v 0.059811 0.037500 -0.487645
v -0.492254 0.037500 -0.496932
v -0.492254 0.037500 -0.496932
v 0.509656 0.037500 -0.496932
v 0.509656 0.037500 -0.496932
v 0.050489 0.037500 -0.425351
v -0.126800 0.037500 -0.394830
v 0.079637 0.037500 -0.348004
v 0.457535 0.037500 -0.303696
v -0.460569 0.037500 -0.294947
v -0.128589 0.037500 -0.312234
v 0.085060 0.037500 -0.283065
v 0.085060 0.037500 -0.283065
v -0.065710 0.037500 -0.263204
v 0.438596 0.037500 -0.187808
v -0.455546 0.037500 -0.174257
v 0.024357 0.037500 -0.253368
v 0.453846 0.037500 -0.111565
v 0.453846 0.037500 -0.111565
v -0.483686 0.037500 -0.095860
v -0.483686 0.037500 -0.095860
v 0.518680 0.037500 -0.105840
v 0.609518 0.037500 -0.130675
v 0.693038 0.037500 -0.128404
v 0.741578 0.037500 -0.060782
v -0.774914 0.037500 -0.064404
v -0.733767 0.037500 -0.126742
v -0.652007 0.037500 -0.122709
v -0.557369 0.037500 -0.092461
v -0.772087 0.037500 0.025613
v 0.750122 0.037500 0.032722
v -0.728024 0.037500 0.084910
v 0.719313 0.037500 0.093225
v 0.719313 0.037500 0.093225
v -0.649833 0.037500 0.075585
v -0.562108 0.037500 0.041714
v -0.493816 0.037500 0.047867
v -0.493816 0.037500 0.047867
v 0.577434 0.037500 0.046165
v 0.516086 0.037500 0.049751
v 0.516086 0.037500 0.049751
v 0.654197 0.037500 0.082649
v -0.465968 0.037500 0.138264
v 0.489991 0.037500 0.138714
v -0.467756 0.037500 0.275664
v 0.016089 0.037500 0.297911
v -0.078510 0.037500 0.292054
v -0.143013 0.037500 0.320978
v -0.143013 0.037500 0.320978
v 0.081854 0.037500 0.334150
v 0.081854 0.037500 0.334150
v -0.138432 0.037500 0.383725
v 0.080082 0.037500 0.393658
v -0.105541 0.037500 0.457899
v 0.052978 0.037500 0.458486
v -0.492254 0.037500 0.504766
v -0.492254 0.037500 0.504766
v -0.105053 0.037500 0.515746
v -0.105053 0.037500 0.515746
v 0.062976 0.037500 0.507972
v 0.062976 0.037500 0.507972
v 0.509656 0.037500 0.504766
v 0.509656 0.037500 0.504766
v 0.152893 0.037500 0.527233
v -0.179136 0.037500 0.537061
v -0.295784 0.037500 0.531846
v -0.296865 -0.037500 -0.546339
v -0.179923 -0.037500 -0.563839
v -0.103523 -0.037498 -0.548068
v -0.103523 -0.037498 -0.548068
v -0.099151 -0.037500 -0.484153
v 0.150127 -0.037500 -0.514694
v 0.285298 -0.037500 -0.515422
v 0.059811 -0.037500 -0.487645
v 0.059811 -0.037500 -0.487645
v -0.492254 -0.037500 -0.496932
v -0.492254 -0.037500 -0.496932
v 0.509656 -0.037500 -0.496932
v 0.509656 -0.037500 -0.496932
v 0.050489 -0.037500 -0.425351
v -0.126800 -0.037500 -0.394830
v 0.079637 -0.037500 -0.348004
v 0.457535 -0.037500 -0.303696
v -0.460569 -0.037500 -0.294947
v -0.128589 -0.037500 -0.312234
v 0.085060 -0.037500 -0.283065
v 0.085060 -0.037500 -0.283065
v -0.065710 -0.037500 -0.263204
v 0.438596 -0.037500 -0.187808
v -0.455546 -0.037498 -0.174257
v 0.024357 -0.037500 -0.253368
v 0.453846 -0.037500 -0.111565
v 0.453846 -0.037500 -0.111565
v -0.483686 -0.037500 -0.095860
v -0.483686 -0.037500 -0.095860
v 0.518680 -0.037500 -0.105840
v 0.609518 -0.037500 -0.130675
v 0.693038 -0.037500 -0.128404
v 0.741578 -0.037500 -0.060782
v -0.774914 -0.037498 -0.064404
v -0.733767 -0.037500 -0.126742
v -0.652007 -0.037500 -0.122709
v -0.557369 -0.037500 -0.092461
v -0.772087 -0.037500 0.025613
v 0.750122 -0.037500 0.032722
v -0.728024 -0.037500 0.084910
v 0.719313 -0.037500 0.093225
v 0.719313 -0.037500 0.093225
v -0.649833 -0.037500 0.075585
v -0.562108 -0.037500 0.041714
v -0.493816 -0.037500 0.047867
v -0.493816 -0.037500 0.047867
v 0.577434 -0.037500 0.046165
v 0.516086 -0.037500 0.049751
v 0.516086 -0.037500 0.049751
v 0.654197 -0.037500 0.082649
v -0.465968 -0.037500 0.138264
v 0.489991 -0.037500 0.138714
v -0.467756 -0.037500 0.275664
v 0.016089 -0.037500 0.297911
v -0.078510 -0.037498 0.292054
v -0.143013 -0.037500 0.320978
v -0.143013 -0.037500 0.320978
v 0.081854 -0.037500 0.334150
v 0.081854 -0.037500 0.334150
v -0.138432 -0.037500 0.383725
v 0.080082 -0.037500 0.393658
v -0.105541 -0.037500 0.457899
v 0.052978 -0.037500 0.458486
v -0.492254 -0.037500 0.504766
v -0.492254 -0.037500 0.504766
v -0.105053 -0.037500 0.515746
v -0.105053 -0.037500 0.515746
v 0.062976 -0.037500 0.507972
v 0.062976 -0.037500 0.507972
v 0.509656 -0.037500 0.504766
v 0.509656 -0.037500 0.504766
v 0.152893 -0.037500 0.527233
v -0.179136 -0.037500 0.537061
v -0.295784 -0.037500 0.531846
vt 0.500000 0.500000
vt 0.500000 0.500000
vt 0.500000 0.500000
vt 0.500000 0.500000
vt 0.500000 0.500000
vt 0.500000 0.500000
vt 0.500000 0.500000
vt 0.500000 0.500000
vt 0.500000 0.500000
vt 0.500000 0.500000
vt 0.500000 0.500000
vt 0.500000 0.500000
vt 0.500000 0.500000
vt 0.500000 0.500000
vt 0.500000 0.500000
vt 0.500000 0.500000
vt 0.500000 0.500000
vt 0.500000 0.500000
vt 0.500000 0.500000
vt 0.500000 0.500000
vt 0.500000 0.500000
vt 0.500000 0.500000
vt 0.500000 0.500000
vt 0.500000 0.500000
vt 0.500000 0.500000
vt 0.500000 0.500000
vt 0.500000 0.500000
vt 0.500000 0.500000
vt 0.500000 0.500000
vt 0.500000 0.500000
vt 0.500000 0.500000
vt 0.500000 0.500000
vt 0.500000 0.500000
vt 0.500000 0.500000
vt 0.500000 0.500000
vt 0.500000 0.500000
vt 0.500000 0.500000
vt 0.500000 0.500000
vt 0.500000 0.500000
vt 0.500000 0.500000
vt 0.500000 0.500000
vt 0.500000 0.500000
vt 0.500000 0.500000
vt 0.500000 0.500000
vt 0.500000 0.500000
vt 0.500000 0.500000
vt 0.500000 0.500000
vt 0.500000 0.500000
vt 0.500000 0.500000
vt 0.500000 0.500000
vt 0.500000 0.500000
vt 0.500000 0.500000
vt 0.500000 0.500000
vt 0.500000 0.500000
vt 0.500000 0.500000
vt 0.500000 0.500000
vt 0.500000 0.500000
vt 0.500000 0.500000
vt 0.500000 0.500000
vt 0.500000 0.500000
vt 0.500000 0.500000
vt 0.500000 0.500000
vt 0.500000 0.500000
vt 0.500000 0.500000
vt 0.500000 0.500000
vt 0.500000 0.500000
vt 0.500000 0.500000
vt 0.500000 0.500000
vt 0.500000 0.500000
vt 0.500000 0.500000
vt 0.500000 0.500000
vt 0.500000 0.500000
vt 0.500000 0.500000
vt 0.500000 0.500000
vt 0.500000 0.500000
vt 0.500000 0.500000
vt 0.500000 0.500000
vt 0.500000 0.500000
vt 0.500000 0.500000
vt 0.500000 0.500000
vt 0.500000 0.500000
vt 0.500000 0.500000
vt 0.500000 0.500000
vt 0.500000 0.500000
vt 0.500000 0.500000
vt 0.500000 0.500000
vt 0.500000 0.500000
vt 0.500000 0.500000
vt 0.500000 0.500000
vt 0.500000 0.500000
vt 0.500000 0.500000
vt 0.500000 0.500000
vt 0.500000 0.500000
vt 0.500000 0.500000
vt 0.500000 0.500000
vt 0.500000 0.500000
vt 0.500000 0.500000
vt 0.500000 0.500000
vt 0.500000 0.500000
vt 0.500000 0.500000
vt 0.500000 0.500000
vt 0.500000 0.500000
vt 0.500000 0.500000
vt 0.500000 0.500000
vt 0.500000 0.500000
vt 0.500000 0.500000
vt 0.500000 0.500000
vt 0.500000 0.500000
vt 0.500000 0.500000
vt 0.500000 0.500000
vt 0.500000 0.500000
vt 0.500000 0.500000
vt 0.500000 0.500000
vt 0.500000 0.500000
vt 0.500000 0.500000
vt 0.500000 0.500000
vt 0.500000 0.500000
vt 0.500000 0.500000
vt 0.500000 0.500000
vt 0.500000 0.500000
vt 0.500000 0.500000
vt 0.500000 0.500000
vt 0.500000 0.500000
vt 0.500000 0.500000
vt 0.500000 0.500000
vt 0.500000 0.500000
vt 0.500000 0.500000
vt 0.500000 0.500000
vt 0.500000 0.500000
vt 0.500000 0.500000
vt 0.500000 0.500000
vt 0.500000 0.500000
vt 0.500000 0.500000
vt 0.500000 0.500000
vt 0.500000 0.500000
vt 0.500000 0.500000
vt 0.500000 0.500000
vt 0.500000 0.500000
vt 0.500000 0.500000
vt 0.500000 0.500000
vt 0.500000 0.500000
vt 0.500000 0.500000
vt 0.500000 0.500000
vt 0.500000 0.500000
vt 0.500000 0.500000
vt 0.500000 0.500000
vt 0.500000 0.500000
vt 0.500000 0.500000
vt 0.500000 0.500000
vt 0.500000 0.500000
vt 0.500000 0.500000
vt 0.500000 0.500000
vt 0.500000 0.500000
vt 0.500000 0.500000
vt 0.500000 0.500000
vt 0.500000 0.500000
vt 0.500000 0.500000
vt 0.500000 0.500000
vt 0.500000 0.500000
vt 0.500000 0.500000
vt 0.500000 0.500000
vt 0.500000 0.500000
vt 0.500000 0.500000
vt 0.500000 0.500000
vt 0.500000 0.500000
vt 0.500000 0.500000
vt 0.500000 0.500000
vt 0.500000 0.500000
vt 0.500000 0.500000
vt 0.500000 0.500000
vt 0.500000 0.500000
vt 0.500000 0.500000
vt 0.500000 0.500000
vt 0.500000 0.500000
vt 0.500000 0.500000
vt 0.500000 0.500000
vt 0.500000 0.500000
vt 0.500000 0.500000
vt 0.500000 0.500000
vt 0.500000 0.500000
vt 0.500000 0.500000
vt 0.500000 0.500000
vt 0.500000 0.500000
vt 0.500000 0.500000
vt 0.500000 0.500000
vt 0.500000 0.500000
vt 0.500000 0.500000
vt 0.500000 0.500000
vt 0.500000 0.500000
vt 0.500000 0.500000
vt 0.500000 0.500000
vt 0.500000 0.500000
vt 0.500000 0.500000
vt 0.500000 0.500000
vt 0.500000 0.500000
vt 0.500000 0.500000
vt 0.500000 0.500000
vt 0.500000 0.500000
vt 0.500000 0.500000
vt 0.500000 0.500000
vt 0.500000 0.500000
vt 0.500000 0.500000
vt 0.500000 0.500000
vt 0.500000 0.500000
vt 0.500000 0.500000
vt 0.500000 0.500000
vt 0.034248 0.480651
vt 0.041667 0.481481
vt 0.032771 0.487790
vt 0.040583 0.511374
vt 0.037001 0.519202
vt 0.032838 0.510611
vt 0.041667 0.518518
vt 0.041800 0.498305
vt 0.041854 0.504058
vt 0.040506 0.504270
vt 0.028395 0.511689
vt 0.028432 0.514743
vt 0.021492 0.511050
vt 0.041258 0.495016
vt 0.031576 0.509513
vt 0.031404 0.489130
vt 0.021597 0.506588
vt 0.015015 0.499198
vt 0.017557 0.497350
vt 0.014956 0.502526
vt 0.021380 0.495033
vt 0.029437 0.489346
vt 0.029703 0.509877
vt 0.017512 0.504682
vt 0.015811 0.504831
vt 0.040189 0.507089
vt 0.028916 0.520409
vt 0.027328 0.520992
vt 0.029007 0.518046
vt 0.021011 0.503689
vt 0.034191 0.519175
vt 0.032725 0.513012
vt 0.032734 0.485590
vt 0.024896 0.520345
vt 0.043076 0.498438
vt 0.044672 0.497089
vt 0.046489 0.502392
vt 0.019479 0.503564
vt 0.020801 0.498375
vt 0.019381 0.498602
vt 0.046026 0.496698
vt 0.046667 0.498935
vt 0.027344 0.480287
vt 0.028885 0.481075
vt 0.028875 0.483214
vt 0.043743 0.504977
vt 0.032313 0.518175
vt 0.032119 0.515872
vt 0.020833 0.481481
vt 0.024919 0.480480
vt 0.021343 0.489952
vt 0.032171 0.483193
vt 0.028191 0.485957
vt 0.020833 0.518518
vt 0.015931 0.497005
vt 0.028095 0.488277
vt 0.045480 0.504892
vt 0.032379 0.481363
vn 0.0000 -1.0000 0.0000
vn -0.1480 0.0000 -0.9890
vn 0.2022 0.0000 -0.9794
vn 0.9977 0.0000 -0.0682
vn -0.0054 0.0000 -1.0000
vn -0.2869 0.0000 -0.9580
vn -0.2451 0.0000 -0.9695
vn 0.0821 0.0000 -0.9966
vn -0.9890 0.0000 -0.1480
vn 0.9553 0.0000 0.2957
vn -0.9358 0.0000 0.3526
vn 0.9655 0.0000 0.2604
vn -0.9879 0.0000 0.1550
vn 0.9998 0.0000 0.0217
vn -0.9965 0.0000 0.0832
vn 0.6149 0.0000 -0.7886
vn 0.9869 0.0000 0.1613
vn -0.9991 0.0000 0.0416
vn -0.4394 0.0000 -0.8983
vn 0.1086 0.0000 -0.9941
vn 0.9806 0.0000 -0.1961
vn -0.9412 0.0000 -0.3378
vn -0.2637 0.0000 -0.9646
vn 0.0272 0.0000 -0.9996
vn 0.8124 0.0000 -0.5831
vn -0.8346 0.0000 -0.5509
vn 0.0493 0.0000 -0.9988
vn 0.3045 0.0000 -0.9525
vn 0.0880 0.0000 -0.9961
vn -0.0461 0.0000 -0.9989
vn -0.9995 0.0000 0.0314
vn 0.9959 0.0000 -0.0910
vn -0.8027 0.0000 0.5964
vn 0.8911 0.0000 0.4538
vn 0.1184 0.0000 0.9930
vn 0.3602 0.0000 0.9329
vn -0.0897 0.0000 0.9960
vn 0.0584 0.0000 0.9983
vn -0.4293 0.0000 0.9032
vn -0.1603 0.0000 0.9871
vn -0.9557 0.0000 0.2944
vn 0.9596 0.0000 0.2815
vn -0.9999 0.0000 -0.0130
vn -0.0618 0.0000 0.9981
vn 0.4092 0.0000 0.9125
vn -0.4826 0.0000 0.8758
vn 0.9973 0.0000 -0.0728
vn -0.9996 0.0000 -0.0298
vn 0.9142 0.0000 -0.4054
vn -0.9226 0.0000 -0.3857
vn -0.9943 0.0000 -0.1063
vn 1.0000 0.0000 -0.0084
vn -0.9802 0.0000 0.1980
vn 0.9986 0.0000 -0.0536
vn -0.2095 0.0000 0.9778
vn 0.0628 0.0000 0.9980
vn 0.2765 0.0000 0.9610
vn -0.1365 0.0000 0.9906
vn -0.0447 0.0000 0.9990
vn 0.0000 1.0000 0.0000
usemtl BackMat.001
s off
f 262/1/1 248/2/1 260/3/1
f 207/4/1 210/5/1 197/6/1
f 207/4/1 197/6/1 202/7/1
f 238/8/1 216/9/1 220/10/1
f 209/11/1 208/12/1 205/13/1
f 260/3/1 248/2/1 242/14/1
f 215/15/1 216/9/1 244/16/1
f 208/12/1 209/11/1 214/17/1
f 216/9/1 215/15/1 210/5/1
f 228/18/1 224/19/1 233/20/1
f 241/21/1 212/22/1 245/23/1
f 226/24/1 224/19/1 225/25/1
f 216/9/1 210/5/1 213/26/1
f 193/27/1 195/28/1 192/29/1
f 214/17/1 212/22/1 218/30/1
f 197/6/1 206/31/1 196/32/1
f 248/2/1 262/1/1 251/33/1
f 191/34/1 205/13/1 208/12/1
f 237/35/1 223/36/1 240/37/1
f 218/30/1 235/38/1 227/39/1
f 233/20/1 226/24/1 234/40/1
f 240/37/1 229/41/1 231/42/1
f 197/6/1 210/5/1 206/31/1
f 248/2/1 216/9/1 242/14/1
f 263/43/1 252/44/1 256/45/1
f 221/46/1 237/35/1 220/10/1
f 224/19/1 226/24/1 233/20/1
f 192/29/1 205/13/1 191/34/1
f 240/37/1 223/36/1 229/41/1
f 205/13/1 192/29/1 195/28/1
f 196/32/1 204/47/1 198/48/1
f 235/38/1 212/22/1 241/21/1
f 213/26/1 210/5/1 207/4/1
f 235/38/1 218/30/1 212/22/1
f 227/39/1 234/40/1 226/24/1
f 206/31/1 204/47/1 196/32/1
f 254/49/1 243/50/1 264/51/1
f 244/16/1 216/9/1 248/2/1
f 242/14/1 216/9/1 238/8/1
f 251/33/1 262/1/1 253/52/1
f 245/23/1 215/15/1 244/16/1
f 237/35/1 221/46/1 223/36/1
f 234/40/1 227/39/1 235/38/1
f 264/51/1 250/53/1 263/43/1
f 191/34/1 208/12/1 200/54/1
f 214/17/1 209/11/1 212/22/1
f 230/55/1 228/18/1 233/20/1
f 246/56/1 250/53/1 264/51/1
f 241/21/1 245/23/1 246/56/1
f 212/22/1 215/15/1 245/23/1
f 223/36/1 221/46/1 222/57/1
f 238/8/1 220/10/1 237/35/1
f 241/21/1 246/56/1 243/50/1
f 253/52/1 262/1/1 258/58/1
f 243/50/1 246/56/1 264/51/1
f 263/43/1 250/53/1 252/44/1
f 1/59/2 2/60/2 60/61/2 59/62/2
f 2/60/3 120/63/3 194/64/3 60/61/3
f 3/65/4 4/66/4 62/67/4 61/68/4
f 13/69/5 14/70/5 72/71/5 71/72/5
f 125/73/6 13/69/6 71/72/6 199/74/6
f 127/75/7 1/59/7 59/62/7 201/76/7
f 14/70/8 129/77/8 203/78/8 72/71/8
f 11/79/9 12/80/9 70/81/9 69/82/9
f 4/66/10 5/83/10 63/84/10 62/67/10
f 10/85/11 11/79/11 69/82/11 68/86/11
f 15/87/12 16/88/12 74/89/12 73/90/12
f 57/91/13 58/92/13 116/93/13 115/94/13
f 5/83/14 6/95/14 64/96/14 63/84/14
f 137/97/15 10/85/15 68/86/15 211/98/15
f 6/95/16 7/99/16 65/100/16 64/96/16
f 16/88/17 17/101/17 75/102/17 74/89/17
f 56/103/18 57/91/18 115/94/18 114/104/18
f 8/105/19 9/106/19 67/107/19 66/108/19
f 7/99/20 8/105/20 66/108/20 65/100/20
f 17/101/21 143/109/21 217/110/21 75/102/21
f 145/111/22 56/103/22 114/104/22 219/112/22
f 19/113/23 20/114/23 78/115/23 77/116/23
f 20/114/24 21/117/24 79/118/24 78/115/24
f 21/117/25 22/119/25 80/120/25 79/118/25
f 51/121/26 52/122/26 110/123/26 109/124/26
f 52/122/27 53/125/27 111/126/27 110/123/27
f 53/125/28 54/127/28 112/128/28 111/126/28
f 18/129/29 19/113/29 77/116/29 76/130/29
f 54/127/30 55/131/30 113/132/30 112/128/30
f 50/133/31 51/121/31 109/124/31 108/134/31
f 22/119/32 23/135/32 81/136/32 80/120/32
f 49/137/33 50/133/33 108/134/33 107/138/33
f 23/135/34 158/139/34 232/140/34 81/136/34
f 48/141/35 49/137/35 107/138/35 106/142/35
f 47/143/36 48/141/36 106/142/36 105/144/36
f 162/145/37 47/143/37 105/144/37 236/146/37
f 26/147/38 165/148/38 239/149/38 84/150/38
f 25/151/39 26/147/39 84/150/39 83/152/39
f 24/153/40 25/151/40 83/152/40 82/154/40
f 45/155/41 46/156/41 104/157/41 103/158/41
f 27/159/42 28/160/42 86/161/42 85/162/42
f 44/163/43 45/155/43 103/158/43 102/164/43
f 35/165/44 36/166/44 94/167/44 93/168/44
f 36/166/45 173/169/45 247/170/45 94/167/45
f 175/171/46 35/165/46 93/168/46 249/172/46
f 37/173/47 38/174/47 96/175/47 95/176/47
f 33/177/48 34/178/48 92/179/48 91/180/48
f 38/174/49 39/181/49 97/182/49 96/175/49
f 32/183/50 33/177/50 91/180/50 90/184/50
f 181/185/51 44/163/51 102/164/51 255/186/51
f 39/181/52 183/187/52 257/188/52 97/182/52
f 185/189/53 32/183/53 90/184/53 259/190/53
f 28/160/54 187/191/54 261/192/54 86/161/54
f 30/193/55 31/194/55 89/195/55 88/196/55
f 29/197/56 30/193/56 88/196/56 87/198/56
f 40/199/57 41/200/57 99/201/57 98/202/57
f 42/203/58 43/204/58 101/205/58 100/206/58
f 41/200/59 42/203/59 100/206/59 99/201/59
usemtl FrontMat.001
f 188/207/60 186/208/60 174/209/60
f 133/210/60 123/211/60 136/212/60
f 133/210/60 128/213/60 123/211/60
f 164/214/60 146/215/60 142/216/60
f 135/217/60 131/218/60 134/219/60
f 186/208/60 168/220/60 174/209/60
f 141/221/60 170/222/60 142/216/60
f 134/219/60 140/223/60 135/217/60
f 142/216/60 136/212/60 141/221/60
f 154/224/60 159/225/60 150/226/60
f 167/227/60 171/228/60 138/229/60
f 152/230/60 151/231/60 150/226/60
f 142/216/60 139/232/60 136/212/60
f 119/233/60 118/234/60 121/235/60
f 140/223/60 144/236/60 138/229/60
f 123/211/60 122/237/60 132/238/60
f 174/209/60 177/239/60 188/207/60
f 117/240/60 134/219/60 131/218/60
f 163/241/60 166/242/60 149/243/60
f 144/236/60 153/244/60 161/245/60
f 159/225/60 160/246/60 152/230/60
f 166/242/60 157/247/60 155/248/60
f 123/211/60 132/238/60 136/212/60
f 174/209/60 168/220/60 142/216/60
f 189/249/60 182/250/60 178/251/60
f 147/252/60 146/215/60 163/241/60
f 150/226/60 159/225/60 152/230/60
f 118/234/60 117/240/60 131/218/60
f 166/242/60 155/248/60 149/243/60
f 131/218/60 121/235/60 118/234/60
f 122/237/60 124/253/60 130/254/60
f 161/245/60 167/227/60 138/229/60
f 139/232/60 133/210/60 136/212/60
f 161/245/60 138/229/60 144/236/60
f 153/244/60 152/230/60 160/246/60
f 132/238/60 122/237/60 130/254/60
f 180/255/60 190/256/60 169/257/60
f 170/222/60 174/209/60 142/216/60
f 168/220/60 164/214/60 142/216/60
f 177/239/60 179/258/60 188/207/60
f 171/228/60 170/222/60 141/221/60
f 163/241/60 149/243/60 147/252/60
f 160/246/60 161/245/60 153/244/60
f 190/256/60 189/249/60 176/259/60
f 117/240/60 126/260/60 134/219/60
f 140/223/60 138/229/60 135/217/60
f 156/261/60 159/225/60 154/224/60
f 172/262/60 190/256/60 176/259/60
f 167/227/60 172/262/60 171/228/60
f 138/229/60 171/228/60 141/221/60
f 149/243/60 148/263/60 147/252/60
f 164/214/60 163/241/60 146/215/60
f 167/227/60 169/257/60 172/262/60
f 179/258/60 184/264/60 188/207/60
f 169/257/60 190/256/60 172/262/60
f 189/249/60 178/251/60 176/259/60
