# Blender v2.83.1 OBJ File: 'jigsaw-48x27-3-step2.blend'
# www.blender.org
mtllib piece.726.mtl
o path1452_path1452.001
v 0.477337 0.037500 -0.302423
v 0.474630 0.037500 -0.167172
v 0.500428 0.037500 -0.080137
v 0.565034 0.037500 -0.078484
v 0.646959 0.037500 -0.116383
v 0.716767 0.037500 -0.127256
v 0.750316 0.037500 -0.065631
v 0.744650 0.037500 0.029602
v 0.702111 0.037500 0.098447
v 0.629163 0.037500 0.100693
v 0.548762 0.037500 0.075270
v 0.487987 0.037500 0.080887
v 0.466289 0.037500 0.158249
v 0.472603 0.037500 0.275963
v 0.502297 0.037500 0.472309
v 0.296472 0.037500 0.447001
v 0.174594 0.037500 0.444740
v 0.097922 0.037500 0.472309
v 0.100109 0.037500 0.540152
v 0.136306 0.037500 0.624555
v 0.142042 0.037500 0.693269
v 0.074051 0.037500 0.720290
v -0.026107 0.037500 0.704570
v -0.095664 0.037500 0.651308
v -0.093084 0.037500 0.569633
v -0.061748 0.037500 0.484376
v -0.066266 0.037500 0.424289
v -0.151296 0.037500 0.409534
v -0.499612 0.037500 0.472309
v -0.461482 0.037500 0.279322
v -0.451424 0.037500 0.164877
v -0.473616 0.037500 0.092497
v -0.541113 0.037500 0.093410
v -0.630772 0.037500 0.124615
v -0.710406 0.037500 0.124560
v -0.753263 0.037500 0.052365
v -0.754345 0.037500 -0.050104
v -0.714093 0.037500 -0.120306
v -0.637963 0.037500 -0.117078
v -0.551491 0.037500 -0.084744
v -0.485229 0.037500 -0.089015
v -0.461262 0.037500 -0.175298
v -0.467784 0.037500 -0.307797
v -0.499612 0.037500 -0.529388
v -0.278263 0.037500 -0.557997
v -0.146192 0.037500 -0.562559
v -0.060829 0.037500 -0.537231
v -0.058275 0.037500 -0.470983
v -0.093763 0.037500 -0.386916
v -0.102310 0.037500 -0.316622
v -0.039856 0.037500 -0.285430
v 0.053971 0.037500 -0.293647
v 0.118619 0.037500 -0.335323
v 0.114028 0.037500 -0.401808
v 0.082114 0.037500 -0.473639
v 0.085283 0.037500 -0.528658
v 0.166649 0.037500 -0.550919
v 0.502297 0.037500 -0.529388
v 0.477337 -0.037498 -0.302423
v 0.474630 -0.037500 -0.167172
v 0.500428 -0.037500 -0.080137
v 0.565034 -0.037500 -0.078484
v 0.646959 -0.037500 -0.116383
v 0.716767 -0.037500 -0.127256
v 0.750316 -0.037500 -0.065631
v 0.744650 -0.037500 0.029602
v 0.702111 -0.037500 0.098447
v 0.629163 -0.037500 0.100693
v 0.548762 -0.037500 0.075270
v 0.487987 -0.037500 0.080887
v 0.466289 -0.037500 0.158249
v 0.472603 -0.037500 0.275963
v 0.502297 -0.037500 0.472309
v 0.296472 -0.037500 0.447001
v 0.174594 -0.037500 0.444740
v 0.097922 -0.037500 0.472309
v 0.100109 -0.037500 0.540152
v 0.136306 -0.037500 0.624555
v 0.142042 -0.037500 0.693269
v 0.074051 -0.037500 0.720290
v -0.026107 -0.037498 0.704570
v -0.095664 -0.037500 0.651308
v -0.093084 -0.037500 0.569633
v -0.061748 -0.037500 0.484376
v -0.066266 -0.037500 0.424289
v -0.151296 -0.037498 0.409534
v -0.499612 -0.037500 0.472309
v -0.461482 -0.037500 0.279322
v -0.451424 -0.037498 0.164877
v -0.473616 -0.037500 0.092497
v -0.541113 -0.037500 0.093410
v -0.630772 -0.037500 0.124615
v -0.710406 -0.037498 0.124560
v -0.753263 -0.037500 0.052365
v -0.754345 -0.037500 -0.050104
v -0.714093 -0.037500 -0.120306
v -0.637963 -0.037500 -0.117078
v -0.551491 -0.037500 -0.084744
v -0.485229 -0.037500 -0.089015
v -0.461262 -0.037500 -0.175298
v -0.467784 -0.037500 -0.307797
v -0.499612 -0.037500 -0.529388
v -0.278263 -0.037500 -0.557997
v -0.146192 -0.037500 -0.562559
v -0.060829 -0.037498 -0.537231
v -0.058275 -0.037500 -0.470983
v -0.093763 -0.037500 -0.386916
v -0.102310 -0.037500 -0.316622
v -0.039856 -0.037500 -0.285430
v 0.053971 -0.037500 -0.293647
v 0.118619 -0.037500 -0.335323
v 0.114028 -0.037498 -0.401808
v 0.082114 -0.037500 -0.473639
v 0.085283 -0.037500 -0.528658
v 0.166649 -0.037500 -0.550919
v 0.502297 -0.037500 -0.529388
v 0.142042 0.037500 0.693269
v 0.142042 0.037500 0.693269
v 0.074051 0.037500 0.720290
v -0.026107 0.037500 0.704570
v -0.095664 0.037500 0.651308
v 0.136306 0.037500 0.624555
v -0.093084 0.037500 0.569633
v 0.100109 0.037500 0.540152
v -0.061748 0.037500 0.484376
v 0.097922 0.037500 0.472309
v 0.097922 0.037500 0.472309
v -0.066266 0.037500 0.424289
v -0.066266 0.037500 0.424289
v 0.174594 0.037500 0.444740
v 0.502297 0.037500 0.472309
v 0.502297 0.037500 0.472309
v 0.296472 0.037500 0.447001
v -0.151296 0.037500 0.409534
v -0.499612 0.037500 0.472309
v -0.499612 0.037500 0.472309
v -0.461482 0.037500 0.279322
v 0.472603 0.037500 0.275963
v -0.451424 0.037500 0.164877
v 0.466289 0.037500 0.158249
v -0.473616 0.037500 0.092497
v -0.473616 0.037500 0.092497
v 0.487987 0.037500 0.080887
v 0.487987 0.037500 0.080887
v -0.541113 0.037500 0.093410
v -0.630772 0.037500 0.124615
v -0.710406 0.037500 0.124560
v -0.753263 0.037500 0.052365
v 0.702111 0.037500 0.098447
v 0.629163 0.037500 0.100693
v 0.548762 0.037500 0.075270
v 0.744650 0.037500 0.029602
v -0.754345 0.037500 -0.050104
v 0.750316 0.037500 -0.065631
v -0.714093 0.037500 -0.120306
v -0.714093 0.037500 -0.120306
v 0.716767 0.037500 -0.127256
v 0.716767 0.037500 -0.127256
v 0.646959 0.037500 -0.116383
v 0.565034 0.037500 -0.078484
v 0.500428 0.037500 -0.080137
v 0.500428 0.037500 -0.080137
v 0.474630 0.037500 -0.167172
v -0.551491 0.037500 -0.084744
v -0.485229 0.037500 -0.089015
v -0.485229 0.037500 -0.089015
v -0.637963 0.037500 -0.117078
v -0.461262 0.037500 -0.175298
v 0.477337 0.037500 -0.302423
v -0.467784 0.037500 -0.307797
v -0.039856 0.037500 -0.285430
v 0.053971 0.037500 -0.293647
v -0.102310 0.037500 -0.316622
v -0.102310 0.037500 -0.316622
v 0.118619 0.037500 -0.335323
v 0.118619 0.037500 -0.335323
v -0.093763 0.037500 -0.386916
v 0.114028 0.037500 -0.401808
v -0.058275 0.037500 -0.470983
v 0.082114 0.037500 -0.473639
v -0.060829 0.037500 -0.537231
v -0.060829 0.037500 -0.537231
v 0.085283 0.037500 -0.528658
v 0.085283 0.037500 -0.528658
v 0.502297 0.037500 -0.529388
v 0.502297 0.037500 -0.529388
v -0.499612 0.037500 -0.529388
v -0.499612 0.037500 -0.529388
v 0.166649 0.037500 -0.550919
v -0.146192 0.037500 -0.562559
v -0.278263 0.037500 -0.557997
v 0.142042 -0.037500 0.693269
v 0.142042 -0.037500 0.693269
v 0.074051 -0.037500 0.720290
v -0.026107 -0.037498 0.704570
v -0.095664 -0.037500 0.651308
v 0.136306 -0.037500 0.624555
v -0.093084 -0.037500 0.569633
v 0.100109 -0.037500 0.540152
v -0.061748 -0.037500 0.484376
v 0.097922 -0.037500 0.472309
v 0.097922 -0.037500 0.472309
v -0.066266 -0.037500 0.424289
v -0.066266 -0.037500 0.424289
v 0.174594 -0.037500 0.444740
v 0.502297 -0.037500 0.472309
v 0.502297 -0.037500 0.472309
v 0.296472 -0.037500 0.447001
v -0.151296 -0.037498 0.409534
v -0.499612 -0.037500 0.472309
v -0.499612 -0.037500 0.472309
v -0.461482 -0.037500 0.279322
v 0.472603 -0.037500 0.275963
v -0.451424 -0.037498 0.164877
v 0.466289 -0.037500 0.158249
v -0.473616 -0.037500 0.092497
v -0.473616 -0.037500 0.092497
v 0.487987 -0.037500 0.080887
v 0.487987 -0.037500 0.080887
v -0.541113 -0.037500 0.093410
v -0.630772 -0.037500 0.124615
v -0.710406 -0.037498 0.124560
v -0.753263 -0.037500 0.052365
v 0.702111 -0.037500 0.098447
v 0.629163 -0.037500 0.100693
v 0.548762 -0.037500 0.075270
v 0.744650 -0.037500 0.029602
v -0.754345 -0.037500 -0.050104
v 0.750316 -0.037500 -0.065631
v -0.714093 -0.037500 -0.120306
v -0.714093 -0.037500 -0.120306
v 0.716767 -0.037500 -0.127256
v 0.716767 -0.037500 -0.127256
v 0.646959 -0.037500 -0.116383
v 0.565034 -0.037500 -0.078484
v 0.500428 -0.037500 -0.080137
v 0.500428 -0.037500 -0.080137
v 0.474630 -0.037500 -0.167172
v -0.551491 -0.037500 -0.084744
v -0.485229 -0.037500 -0.089015
v -0.485229 -0.037500 -0.089015
v -0.637963 -0.037500 -0.117078
v -0.461262 -0.037500 -0.175298
v 0.477337 -0.037498 -0.302423
v -0.467784 -0.037500 -0.307797
v -0.039856 -0.037500 -0.285430
v 0.053971 -0.037500 -0.293647
v -0.102310 -0.037500 -0.316622
v -0.102310 -0.037500 -0.316622
v 0.118619 -0.037500 -0.335323
v 0.118619 -0.037500 -0.335323
v -0.093763 -0.037500 -0.386916
v 0.114028 -0.037498 -0.401808
v -0.058275 -0.037500 -0.470983
v 0.082114 -0.037500 -0.473639
v -0.060829 -0.037498 -0.537231
v -0.060829 -0.037498 -0.537231
v 0.085283 -0.037500 -0.528658
v 0.085283 -0.037500 -0.528658
v 0.502297 -0.037500 -0.529388
v 0.502297 -0.037500 -0.529388
v -0.499612 -0.037500 -0.529388
v -0.499612 -0.037500 -0.529388
v 0.166649 -0.037500 -0.550919
v -0.146192 -0.037500 -0.562559
v -0.278263 -0.037500 -0.557997
vt 0.500000 0.500000
vt 0.500000 0.500000
vt 0.500000 0.500000
vt 0.500000 0.500000
vt 0.500000 0.500000
vt 0.500000 0.500000
vt 0.500000 0.500000
vt 0.500000 0.500000
vt 0.500000 0.500000
vt 0.500000 0.500000
vt 0.500000 0.500000
vt 0.500000 0.500000
vt 0.500000 0.500000
vt 0.500000 0.500000
vt 0.500000 0.500000
vt 0.500000 0.500000
vt 0.500000 0.500000
vt 0.500000 0.500000
vt 0.500000 0.500000
vt 0.500000 0.500000
vt 0.500000 0.500000
vt 0.500000 0.500000
vt 0.500000 0.500000
vt 0.500000 0.500000
vt 0.500000 0.500000
vt 0.500000 0.500000
vt 0.500000 0.500000
vt 0.500000 0.500000
vt 0.500000 0.500000
vt 0.500000 0.500000
vt 0.500000 0.500000
vt 0.500000 0.500000
vt 0.500000 0.500000
vt 0.500000 0.500000
vt 0.500000 0.500000
vt 0.500000 0.500000
vt 0.500000 0.500000
vt 0.500000 0.500000
vt 0.500000 0.500000
vt 0.500000 0.500000
vt 0.500000 0.500000
vt 0.500000 0.500000
vt 0.500000 0.500000
vt 0.500000 0.500000
vt 0.500000 0.500000
vt 0.500000 0.500000
vt 0.500000 0.500000
vt 0.500000 0.500000
vt 0.500000 0.500000
vt 0.500000 0.500000
vt 0.500000 0.500000
vt 0.500000 0.500000
vt 0.500000 0.500000
vt 0.500000 0.500000
vt 0.500000 0.500000
vt 0.500000 0.500000
vt 0.500000 0.500000
vt 0.500000 0.500000
vt 0.500000 0.500000
vt 0.500000 0.500000
vt 0.500000 0.500000
vt 0.500000 0.500000
vt 0.500000 0.500000
vt 0.500000 0.500000
vt 0.500000 0.500000
vt 0.500000 0.500000
vt 0.500000 0.500000
vt 0.500000 0.500000
vt 0.500000 0.500000
vt 0.500000 0.500000
vt 0.500000 0.500000
vt 0.500000 0.500000
vt 0.500000 0.500000
vt 0.500000 0.500000
vt 0.500000 0.500000
vt 0.500000 0.500000
vt 0.500000 0.500000
vt 0.500000 0.500000
vt 0.500000 0.500000
vt 0.500000 0.500000
vt 0.500000 0.500000
vt 0.500000 0.500000
vt 0.500000 0.500000
vt 0.500000 0.500000
vt 0.500000 0.500000
vt 0.500000 0.500000
vt 0.500000 0.500000
vt 0.500000 0.500000
vt 0.500000 0.500000
vt 0.500000 0.500000
vt 0.500000 0.500000
vt 0.500000 0.500000
vt 0.500000 0.500000
vt 0.500000 0.500000
vt 0.500000 0.500000
vt 0.500000 0.500000
vt 0.500000 0.500000
vt 0.500000 0.500000
vt 0.500000 0.500000
vt 0.500000 0.500000
vt 0.500000 0.500000
vt 0.500000 0.500000
vt 0.500000 0.500000
vt 0.500000 0.500000
vt 0.500000 0.500000
vt 0.500000 0.500000
vt 0.500000 0.500000
vt 0.500000 0.500000
vt 0.500000 0.500000
vt 0.500000 0.500000
vt 0.500000 0.500000
vt 0.500000 0.500000
vt 0.500000 0.500000
vt 0.500000 0.500000
vt 0.500000 0.500000
vt 0.500000 0.500000
vt 0.500000 0.500000
vt 0.500000 0.500000
vt 0.500000 0.500000
vt 0.500000 0.500000
vt 0.500000 0.500000
vt 0.500000 0.500000
vt 0.500000 0.500000
vt 0.500000 0.500000
vt 0.500000 0.500000
vt 0.500000 0.500000
vt 0.500000 0.500000
vt 0.500000 0.500000
vt 0.500000 0.500000
vt 0.500000 0.500000
vt 0.500000 0.500000
vt 0.500000 0.500000
vt 0.500000 0.500000
vt 0.500000 0.500000
vt 0.500000 0.500000
vt 0.500000 0.500000
vt 0.500000 0.500000
vt 0.500000 0.500000
vt 0.500000 0.500000
vt 0.500000 0.500000
vt 0.500000 0.500000
vt 0.500000 0.500000
vt 0.500000 0.500000
vt 0.500000 0.500000
vt 0.500000 0.500000
vt 0.500000 0.500000
vt 0.500000 0.500000
vt 0.500000 0.500000
vt 0.500000 0.500000
vt 0.500000 0.500000
vt 0.500000 0.500000
vt 0.500000 0.500000
vt 0.500000 0.500000
vt 0.500000 0.500000
vt 0.500000 0.500000
vt 0.500000 0.500000
vt 0.500000 0.500000
vt 0.500000 0.500000
vt 0.500000 0.500000
vt 0.500000 0.500000
vt 0.500000 0.500000
vt 0.500000 0.500000
vt 0.500000 0.500000
vt 0.500000 0.500000
vt 0.500000 0.500000
vt 0.500000 0.500000
vt 0.500000 0.500000
vt 0.500000 0.500000
vt 0.500000 0.500000
vt 0.500000 0.500000
vt 0.500000 0.500000
vt 0.500000 0.500000
vt 0.500000 0.500000
vt 0.500000 0.500000
vt 0.500000 0.500000
vt 0.500000 0.500000
vt 0.500000 0.500000
vt 0.500000 0.500000
vt 0.500000 0.500000
vt 0.500000 0.500000
vt 0.500000 0.500000
vt 0.500000 0.500000
vt 0.500000 0.500000
vt 0.500000 0.500000
vt 0.500000 0.500000
vt 0.500000 0.500000
vt 0.500000 0.500000
vt 0.500000 0.500000
vt 0.500000 0.500000
vt 0.500000 0.500000
vt 0.500000 0.500000
vt 0.500000 0.500000
vt 0.500000 0.500000
vt 0.500000 0.500000
vt 0.500000 0.500000
vt 0.500000 0.500000
vt 0.500000 0.500000
vt 0.500000 0.500000
vt 0.500000 0.500000
vt 0.500000 0.500000
vt 0.500000 0.500000
vt 0.500000 0.500000
vt 0.500000 0.500000
vt 0.500000 0.500000
vt 0.500000 0.500000
vt 0.500000 0.500000
vt 0.500000 0.500000
vt 0.500000 0.500000
vt 0.120397 0.406350
vt 0.124338 0.415601
vt 0.116739 0.415274
vt 0.102862 0.424079
vt 0.104206 0.424018
vt 0.103200 0.429764
vt 0.104464 0.429972
vt 0.113489 0.416124
vt 0.104915 0.432832
vt 0.115440 0.416428
vt 0.115989 0.442669
vt 0.104686 0.415799
vt 0.104167 0.407407
vt 0.111146 0.406611
vt 0.104742 0.420800
vt 0.112145 0.414583
vt 0.112838 0.407434
vt 0.112904 0.409469
vt 0.127877 0.422652
vt 0.130297 0.425129
vt 0.130274 0.428917
vt 0.116547 0.448043
vt 0.116600 0.451063
vt 0.115154 0.453032
vt 0.112575 0.444444
vt 0.110981 0.443425
vt 0.108446 0.443509
vt 0.115895 0.444891
vt 0.112530 0.446953
vt 0.117651 0.406181
vt 0.116561 0.412675
vt 0.125863 0.430435
vt 0.126079 0.423848
vt 0.127727 0.431589
vt 0.115823 0.409567
vt 0.124203 0.420500
vt 0.124701 0.423690
vt 0.112240 0.412125
vt 0.123998 0.433077
vt 0.124207 0.437309
vt 0.117757 0.442123
vt 0.101159 0.422678
vt 0.099127 0.428076
vt 0.099009 0.424554
vt 0.099707 0.422276
vt 0.125000 0.444444
vt 0.101529 0.430704
vt 0.113071 0.453613
vt 0.111658 0.452614
vt 0.111777 0.450074
vt 0.129460 0.422533
vt 0.124459 0.430401
vt 0.100012 0.430621
vt 0.115876 0.407117
vt 0.125000 0.407407
vt 0.104784 0.437185
vt 0.104167 0.444444
vt 0.129383 0.431587
vn 0.0000 -1.0000 0.0000
vn 0.3693 0.0000 0.9293
vn -0.1551 0.0000 0.9879
vn -0.6080 0.0000 0.7940
vn 0.9965 0.0000 -0.0832
vn -0.9995 0.0000 -0.0316
vn 0.9190 0.0000 -0.3941
vn -0.9386 0.0000 -0.3450
vn 0.9995 0.0000 -0.0322
vn -0.9972 0.0000 0.0750
vn 0.3384 0.0000 0.9410
vn -0.1220 0.0000 0.9925
vn -0.0185 0.0000 0.9998
vn 0.1774 0.0000 0.9841
vn -0.1710 0.0000 0.9853
vn -0.9810 0.0000 -0.1938
vn 0.9888 0.0000 -0.1495
vn -0.9962 0.0000 -0.0875
vn 0.9986 0.0000 -0.0536
vn -0.9561 0.0000 0.2931
vn 0.9628 0.0000 0.2701
vn 0.3287 0.0000 0.9444
vn -0.0007 0.0000 1.0000
vn -0.8599 0.0000 0.5105
vn 0.0308 0.0000 0.9995
vn -0.3015 0.0000 0.9535
vn 0.8507 0.0000 0.5256
vn 0.0135 0.0000 0.9999
vn 0.0920 0.0000 0.9958
vn -0.9999 0.0000 0.0106
vn 0.9982 0.0000 0.0594
vn -0.8675 0.0000 -0.4974
vn 0.8783 0.0000 -0.4781
vn -0.1539 0.0000 -0.9881
vn -0.4199 0.0000 -0.9076
vn 0.0256 0.0000 -0.9997
vn 0.9588 0.0000 -0.2842
vn -0.0643 0.0000 -0.9979
vn 0.3502 0.0000 -0.9367
vn 0.0424 0.0000 -0.9991
vn -0.9635 0.0000 -0.2676
vn 0.9998 0.0000 0.0200
vn -0.9988 0.0000 0.0492
vn -0.0872 0.0000 -0.9962
vn 0.4468 0.0000 -0.8946
vn -0.5418 0.0000 -0.8405
vn 0.9927 0.0000 0.1207
vn -0.9976 0.0000 0.0689
vn 0.9213 0.0000 0.3889
vn -0.9139 0.0000 0.4060
vn 0.9993 0.0000 -0.0385
vn -0.9983 0.0000 -0.0575
vn 0.9940 0.0000 0.1093
vn -0.9898 0.0000 0.1422
vn -0.2639 0.0000 -0.9646
vn 0.2845 0.0000 -0.9587
vn 0.0640 0.0000 -0.9979
vn -0.0345 0.0000 -0.9994
vn -0.1282 0.0000 -0.9918
vn 0.0000 1.0000 0.0000
usemtl BackMat.001
s off
f 266/1/1 248/2/1 245/3/1
f 235/4/1 226/5/1 236/6/1
f 218/7/1 215/8/1 247/9/1
f 247/9/1 203/10/1 246/11/1
f 247/9/1 236/6/1 218/7/1
f 244/12/1 264/13/1 260/14/1
f 238/15/1 250/16/1 244/12/1
f 258/17/1 264/13/1 255/18/1
f 242/19/1 223/20/1 228/21/1
f 198/22/1 195/23/1 196/24/1
f 201/25/1 203/10/1 205/26/1
f 205/26/1 215/8/1 208/27/1
f 247/9/1 205/26/1 203/10/1
f 200/28/1 199/29/1 198/22/1
f 265/30/1 252/31/1 266/1/1
f 203/10/1 201/25/1 200/28/1
f 220/32/1 221/33/1 239/34/1
f 248/2/1 266/1/1 252/31/1
f 252/31/1 265/30/1 254/35/1
f 243/36/1 248/2/1 240/37/1
f 264/13/1 244/12/1 253/38/1
f 236/6/1 247/9/1 238/15/1
f 246/11/1 240/37/1 248/2/1
f 214/39/1 209/40/1 212/41/1
f 246/11/1 203/10/1 209/40/1
f 234/42/1 229/43/1 227/44/1
f 232/45/1 229/43/1 234/42/1
f 212/41/1 209/40/1 210/46/1
f 250/16/1 238/15/1 247/9/1
f 225/47/1 235/4/1 227/44/1
f 194/48/1 197/49/1 192/50/1
f 242/19/1 228/21/1 230/51/1
f 253/38/1 244/12/1 250/16/1
f 240/37/1 216/52/1 220/32/1
f 246/11/1 209/40/1 214/39/1
f 198/22/1 199/29/1 195/23/1
f 236/6/1 226/5/1 218/7/1
f 239/34/1 221/33/1 242/19/1
f 255/18/1 264/13/1 253/38/1
f 197/49/1 195/23/1 199/29/1
f 195/23/1 197/49/1 194/48/1
f 247/9/1 215/8/1 205/26/1
f 225/47/1 227/44/1 224/53/1
f 254/35/1 265/30/1 256/54/1
f 245/3/1 248/2/1 243/36/1
f 234/42/1 227/44/1 235/4/1
f 200/28/1 201/25/1 199/29/1
f 266/1/1 245/3/1 262/55/1
f 208/27/1 215/8/1 213/56/1
f 208/27/1 213/56/1 206/57/1
f 226/5/1 235/4/1 225/47/1
f 246/11/1 216/52/1 240/37/1
f 246/11/1 214/39/1 216/52/1
f 221/33/1 223/20/1 242/19/1
f 240/37/1 220/32/1 239/34/1
f 223/20/1 221/33/1 222/58/1
f 118/59/2 22/60/2 80/61/2 193/62/2
f 22/60/3 23/63/3 81/64/3 80/61/3
f 23/63/4 24/65/4 82/66/4 81/64/4
f 20/67/5 21/68/5 79/69/5 78/70/5
f 24/65/6 25/71/6 83/72/6 82/66/6
f 19/73/7 20/67/7 78/70/7 77/74/7
f 25/71/8 26/75/8 84/76/8 83/72/8
f 127/77/9 19/73/9 77/74/9 202/78/9
f 26/75/10 129/79/10 204/80/10 84/76/10
f 17/81/11 18/82/11 76/83/11 75/84/11
f 132/85/12 16/86/12 74/87/12 207/88/12
f 16/86/13 17/81/13 75/84/13 74/87/13
f 28/89/14 136/90/14 211/91/14 86/92/14
f 27/93/15 28/89/15 86/92/15 85/94/15
f 29/95/16 30/96/16 88/97/16 87/98/16
f 14/99/17 15/100/17 73/101/17 72/102/17
f 30/96/18 31/103/18 89/104/18 88/97/18
f 13/105/19 14/99/19 72/102/19 71/106/19
f 31/103/20 142/107/20 217/108/20 89/104/20
f 144/109/21 13/105/21 71/106/21 219/110/21
f 33/111/22 34/112/22 92/113/22 91/114/22
f 34/112/23 35/115/23 93/116/23 92/113/23
f 35/115/24 36/117/24 94/118/24 93/116/24
f 9/119/25 10/120/25 68/121/25 67/122/25
f 10/120/26 11/123/26 69/124/26 68/121/26
f 8/125/27 9/119/27 67/122/27 66/126/27
f 32/127/28 33/111/28 91/114/28 90/128/28
f 11/123/29 12/129/29 70/130/29 69/124/29
f 36/117/30 37/131/30 95/132/30 94/118/30
f 7/133/31 8/125/31 66/126/31 65/134/31
f 37/131/32 156/135/32 231/136/32 95/132/32
f 158/137/33 7/133/33 65/134/33 233/138/33
f 5/139/34 6/140/34 64/141/34 63/142/34
f 4/143/35 5/139/35 63/142/35 62/144/35
f 162/145/36 4/143/36 62/144/36 237/146/36
f 2/147/37 3/148/37 61/149/37 60/150/37
f 40/151/38 166/152/38 241/153/38 98/154/38
f 39/155/39 40/151/39 98/154/39 97/156/39
f 38/157/40 39/155/40 97/156/40 96/158/40
f 41/159/41 42/160/41 100/161/41 99/162/41
f 1/163/42 2/147/42 60/150/42 59/164/42
f 42/160/43 43/165/43 101/166/43 100/161/43
f 51/167/44 52/168/44 110/169/44 109/170/44
f 174/171/45 51/167/45 109/170/45 249/172/45
f 52/168/46 176/173/46 251/174/46 110/169/46
f 49/175/47 50/176/47 108/177/47 107/178/47
f 53/179/48 54/180/48 112/181/48 111/182/48
f 48/183/49 49/175/49 107/178/49 106/184/49
f 54/180/50 55/185/50 113/186/50 112/181/50
f 182/187/51 48/183/51 106/184/51 257/188/51
f 55/185/52 184/189/52 259/190/52 113/186/52
f 186/191/53 1/163/53 59/164/53 261/192/53
f 43/165/54 188/193/54 263/194/54 101/166/54
f 56/195/55 57/196/55 115/197/55 114/198/55
f 46/199/56 47/200/56 105/201/56 104/202/56
f 57/196/57 58/203/57 116/204/57 115/197/57
f 45/205/58 46/199/58 104/202/58 103/206/58
f 44/207/59 45/205/59 103/206/59 102/208/59
usemtl FrontMat.001
f 191/209/60 170/210/60 173/211/60
f 160/212/60 161/213/60 151/214/60
f 143/215/60 172/216/60 140/217/60
f 172/216/60 171/218/60 128/219/60
f 172/216/60 143/215/60 161/213/60
f 169/220/60 185/221/60 189/222/60
f 163/223/60 169/220/60 175/224/60
f 183/225/60 180/226/60 189/222/60
f 167/227/60 153/228/60 148/229/60
f 123/230/60 121/231/60 120/232/60
f 126/233/60 130/234/60 128/219/60
f 130/234/60 133/235/60 140/217/60
f 172/216/60 128/219/60 130/234/60
f 125/236/60 123/230/60 124/237/60
f 190/238/60 191/209/60 177/239/60
f 128/219/60 125/236/60 126/233/60
f 145/240/60 164/241/60 146/242/60
f 173/211/60 177/239/60 191/209/60
f 177/239/60 179/243/60 190/238/60
f 168/244/60 165/245/60 173/211/60
f 189/222/60 178/246/60 169/220/60
f 161/213/60 163/223/60 172/216/60
f 171/218/60 173/211/60 165/245/60
f 139/247/60 137/248/60 134/249/60
f 171/218/60 134/249/60 128/219/60
f 159/250/60 152/251/60 154/252/60
f 157/253/60 159/250/60 154/252/60
f 137/248/60 135/254/60 134/249/60
f 175/224/60 172/216/60 163/223/60
f 150/255/60 152/251/60 160/212/60
f 119/256/60 117/257/60 122/258/60
f 167/227/60 155/259/60 153/228/60
f 178/246/60 175/224/60 169/220/60
f 165/245/60 145/240/60 141/260/60
f 171/218/60 139/247/60 134/249/60
f 123/230/60 120/232/60 124/237/60
f 161/213/60 143/215/60 151/214/60
f 164/241/60 167/227/60 146/242/60
f 180/226/60 178/246/60 189/222/60
f 122/258/60 124/237/60 120/232/60
f 120/232/60 119/256/60 122/258/60
f 172/216/60 130/234/60 140/217/60
f 150/255/60 149/261/60 152/251/60
f 179/243/60 181/262/60 190/238/60
f 170/210/60 168/244/60 173/211/60
f 159/250/60 160/212/60 152/251/60
f 125/236/60 124/237/60 126/233/60
f 191/209/60 187/263/60 170/210/60
f 133/235/60 138/264/60 140/217/60
f 133/235/60 131/265/60 138/264/60
f 151/214/60 150/255/60 160/212/60
f 171/218/60 165/245/60 141/260/60
f 171/218/60 141/260/60 139/247/60
f 146/242/60 167/227/60 148/229/60
f 165/245/60 164/241/60 145/240/60
f 148/229/60 147/266/60 146/242/60
