# Blender v2.83.1 OBJ File: 'jigsaw-48x27-3-step2.blend'
# www.blender.org
mtllib piece.223.mtl
o path446
v -0.467630 0.037500 0.334653
v -0.459288 0.037500 0.220012
v -0.480907 0.037500 0.147693
v -0.544102 0.037500 0.149153
v -0.625875 0.037500 0.181733
v -0.694536 0.037500 0.184245
v -0.724529 0.037500 0.115951
v -0.714832 0.037500 0.017929
v -0.670551 0.037500 -0.048290
v -0.600119 0.037500 -0.042457
v -0.525272 0.037500 -0.009457
v -0.471075 0.037500 -0.015453
v -0.455254 0.037500 -0.105939
v -0.501640 0.037500 -0.473589
v -0.280781 0.037500 -0.455471
v -0.147572 0.037500 -0.458162
v -0.058237 0.037500 -0.490429
v -0.048058 0.037500 -0.561937
v -0.074284 0.037500 -0.649809
v -0.074658 0.037500 -0.723033
v -0.007296 0.037500 -0.755994
v 0.088198 0.037500 -0.744668
v 0.151838 0.037500 -0.690426
v 0.144121 0.037500 -0.600095
v 0.107437 0.037500 -0.502298
v 0.104650 0.037500 -0.431110
v 0.179430 0.037500 -0.410733
v 0.298687 0.037500 -0.425867
v 0.500269 0.037500 -0.473590
v 0.482079 0.037500 -0.110375
v 0.506121 0.037500 -0.022087
v 0.562601 0.037500 -0.018496
v 0.632843 0.037500 -0.054662
v 0.691441 0.037500 -0.065129
v 0.717701 0.037500 -0.005065
v 0.709827 0.037500 0.087856
v 0.670750 0.037500 0.155335
v 0.606728 0.037500 0.158314
v 0.537331 0.037500 0.134683
v 0.485455 0.037500 0.141573
v 0.467474 0.037500 0.218525
v 0.500269 0.037500 0.528108
v 0.290670 0.037500 0.550836
v 0.166069 0.037500 0.551219
v 0.086578 0.037500 0.521677
v 0.086578 0.037500 0.452289
v 0.122828 0.037500 0.368067
v 0.132687 0.037500 0.302759
v 0.073591 0.037500 0.282801
v -0.016710 0.037500 0.305394
v -0.080385 0.037500 0.360429
v -0.079290 0.037500 0.435731
v -0.054050 0.037500 0.510842
v -0.064964 0.037500 0.563238
v -0.153343 0.037500 0.577297
v -0.501640 0.037500 0.528108
v -0.467630 -0.037500 0.334653
v -0.459288 -0.037500 0.220012
v -0.480907 -0.037500 0.147693
v -0.544102 -0.037498 0.149153
v -0.625875 -0.037500 0.181733
v -0.694536 -0.037500 0.184245
v -0.724529 -0.037500 0.115951
v -0.714832 -0.037500 0.017929
v -0.670551 -0.037500 -0.048290
v -0.600119 -0.037500 -0.042457
v -0.525272 -0.037500 -0.009457
v -0.471075 -0.037500 -0.015453
v -0.455254 -0.037500 -0.105939
v -0.501640 -0.037498 -0.473589
v -0.280781 -0.037500 -0.455471
v -0.147572 -0.037498 -0.458162
v -0.058237 -0.037500 -0.490429
v -0.048058 -0.037500 -0.561937
v -0.074284 -0.037498 -0.649809
v -0.074658 -0.037500 -0.723033
v -0.007296 -0.037500 -0.755994
v 0.088198 -0.037500 -0.744668
v 0.151838 -0.037500 -0.690426
v 0.144121 -0.037498 -0.600095
v 0.107437 -0.037500 -0.502298
v 0.104650 -0.037500 -0.431110
v 0.179430 -0.037500 -0.410733
v 0.298687 -0.037500 -0.425867
v 0.500269 -0.037500 -0.473590
v 0.482079 -0.037500 -0.110375
v 0.506121 -0.037500 -0.022087
v 0.562601 -0.037498 -0.018496
v 0.632843 -0.037500 -0.054662
v 0.691441 -0.037500 -0.065129
v 0.717701 -0.037500 -0.005065
v 0.709827 -0.037500 0.087856
v 0.670750 -0.037500 0.155335
v 0.606728 -0.037500 0.158314
v 0.537331 -0.037500 0.134683
v 0.485455 -0.037500 0.141573
v 0.467474 -0.037500 0.218525
v 0.500269 -0.037500 0.528108
v 0.290670 -0.037500 0.550836
v 0.166069 -0.037500 0.551219
v 0.086578 -0.037500 0.521677
v 0.086578 -0.037500 0.452289
v 0.122828 -0.037500 0.368067
v 0.132687 -0.037500 0.302759
v 0.073591 -0.037500 0.282801
v -0.016710 -0.037500 0.305394
v -0.080385 -0.037500 0.360429
v -0.079290 -0.037500 0.435731
v -0.054050 -0.037500 0.510842
v -0.064964 -0.037498 0.563238
v -0.153343 -0.037500 0.577297
v -0.501640 -0.037500 0.528108
v -0.064964 0.037500 0.563238
v -0.064964 0.037500 0.563238
v -0.153343 0.037500 0.577297
v -0.054050 0.037500 0.510842
v 0.290670 0.037500 0.550836
v 0.166069 0.037500 0.551219
v 0.086578 0.037500 0.521677
v 0.086578 0.037500 0.521677
v 0.500269 0.037500 0.528108
v 0.500269 0.037500 0.528108
v -0.501640 0.037500 0.528108
v -0.501640 0.037500 0.528108
v 0.086578 0.037500 0.452289
v -0.079290 0.037500 0.435731
v 0.122828 0.037500 0.368067
v -0.467630 0.037500 0.334653
v -0.080385 0.037500 0.360429
v 0.132687 0.037500 0.302759
v 0.132687 0.037500 0.302759
v -0.016710 0.037500 0.305394
v 0.467474 0.037500 0.218525
v -0.459288 0.037500 0.220012
v 0.073591 0.037500 0.282801
v -0.480907 0.037500 0.147693
v -0.480907 0.037500 0.147693
v 0.485455 0.037500 0.141573
v 0.485455 0.037500 0.141573
v -0.625875 0.037500 0.181733
v -0.694536 0.037500 0.184245
v -0.694536 0.037500 0.184245
v -0.724529 0.037500 0.115951
v -0.544102 0.037500 0.149153
v 0.670750 0.037500 0.155335
v 0.606728 0.037500 0.158314
v 0.537331 0.037500 0.134683
v 0.709827 0.037500 0.087856
v -0.714832 0.037500 0.017929
v 0.717701 0.037500 -0.005065
v -0.670551 0.037500 -0.048290
v -0.670551 0.037500 -0.048290
v 0.691441 0.037500 -0.065129
v 0.691441 0.037500 -0.065129
v -0.525272 0.037500 -0.009457
v -0.471075 0.037500 -0.015453
v -0.471075 0.037500 -0.015453
v -0.600119 0.037500 -0.042457
v 0.506121 0.037500 -0.022087
v 0.506121 0.037500 -0.022087
v 0.562601 0.037500 -0.018496
v -0.455254 0.037500 -0.105939
v 0.632843 0.037500 -0.054662
v 0.482079 0.037500 -0.110375
v 0.500269 0.037500 -0.473590
v 0.500269 0.037500 -0.473590
v 0.179430 0.037500 -0.410733
v 0.298687 0.037500 -0.425867
v 0.104650 0.037500 -0.431110
v 0.104650 0.037500 -0.431110
v 0.107437 0.037500 -0.502298
v -0.280781 0.037500 -0.455471
v -0.147572 0.037500 -0.458162
v -0.501640 0.037500 -0.473589
v -0.501640 0.037500 -0.473589
v -0.058237 0.037500 -0.490429
v -0.058237 0.037500 -0.490429
v -0.048058 0.037500 -0.561937
v 0.144121 0.037500 -0.600095
v -0.074284 0.037500 -0.649809
v 0.151838 0.037500 -0.690426
v -0.074658 0.037500 -0.723033
v -0.074658 0.037500 -0.723033
v 0.088198 0.037500 -0.744668
v -0.007296 0.037500 -0.755994
v -0.064964 -0.037498 0.563238
v -0.064964 -0.037498 0.563238
v -0.153343 -0.037500 0.577297
v -0.054050 -0.037500 0.510842
v 0.290670 -0.037500 0.550836
v 0.166069 -0.037500 0.551219
v 0.086578 -0.037500 0.521677
v 0.086578 -0.037500 0.521677
v 0.500269 -0.037500 0.528108
v 0.500269 -0.037500 0.528108
v -0.501640 -0.037500 0.528108
v -0.501640 -0.037500 0.528108
v 0.086578 -0.037500 0.452289
v -0.079290 -0.037500 0.435731
v 0.122828 -0.037500 0.368067
v -0.467630 -0.037500 0.334653
v -0.080385 -0.037500 0.360429
v 0.132687 -0.037500 0.302759
v 0.132687 -0.037500 0.302759
v -0.016710 -0.037500 0.305394
v 0.467474 -0.037500 0.218525
v -0.459288 -0.037500 0.220012
v 0.073591 -0.037500 0.282801
v -0.480907 -0.037500 0.147693
v -0.480907 -0.037500 0.147693
v 0.485455 -0.037500 0.141573
v 0.485455 -0.037500 0.141573
v -0.625875 -0.037500 0.181733
v -0.694536 -0.037500 0.184245
v -0.694536 -0.037500 0.184245
v -0.724529 -0.037500 0.115951
v -0.544102 -0.037498 0.149153
v 0.670750 -0.037500 0.155335
v 0.606728 -0.037500 0.158314
v 0.537331 -0.037500 0.134683
v 0.709827 -0.037500 0.087856
v -0.714832 -0.037500 0.017929
v 0.717701 -0.037500 -0.005065
v -0.670551 -0.037500 -0.048290
v -0.670551 -0.037500 -0.048290
v 0.691441 -0.037500 -0.065129
v 0.691441 -0.037500 -0.065129
v -0.525272 -0.037500 -0.009457
v -0.471075 -0.037500 -0.015453
v -0.471075 -0.037500 -0.015453
v -0.600119 -0.037500 -0.042457
v 0.506121 -0.037500 -0.022087
v 0.506121 -0.037500 -0.022087
v 0.562601 -0.037498 -0.018496
v -0.455254 -0.037500 -0.105939
v 0.632843 -0.037500 -0.054662
v 0.482079 -0.037500 -0.110375
v 0.500269 -0.037500 -0.473590
v 0.500269 -0.037500 -0.473590
v 0.179430 -0.037500 -0.410733
v 0.298687 -0.037500 -0.425867
v 0.104650 -0.037500 -0.431110
v 0.104650 -0.037500 -0.431110
v 0.107437 -0.037500 -0.502298
v -0.280781 -0.037500 -0.455471
v -0.147572 -0.037498 -0.458162
v -0.501640 -0.037498 -0.473589
v -0.501640 -0.037498 -0.473589
v -0.058237 -0.037500 -0.490429
v -0.058237 -0.037500 -0.490429
v -0.048058 -0.037500 -0.561937
v 0.144121 -0.037498 -0.600095
v -0.074284 -0.037498 -0.649809
v 0.151838 -0.037500 -0.690426
v -0.074658 -0.037500 -0.723033
v -0.074658 -0.037500 -0.723033
v 0.088198 -0.037500 -0.744668
v -0.007296 -0.037500 -0.755994
vt 0.500000 0.500000
vt 0.500000 0.500000
vt 0.500000 0.500000
vt 0.500000 0.500000
vt 0.500000 0.500000
vt 0.500000 0.500000
vt 0.500000 0.500000
vt 0.500000 0.500000
vt 0.500000 0.500000
vt 0.500000 0.500000
vt 0.500000 0.500000
vt 0.500000 0.500000
vt 0.500000 0.500000
vt 0.500000 0.500000
vt 0.500000 0.500000
vt 0.500000 0.500000
vt 0.500000 0.500000
vt 0.500000 0.500000
vt 0.500000 0.500000
vt 0.500000 0.500000
vt 0.500000 0.500000
vt 0.500000 0.500000
vt 0.500000 0.500000
vt 0.500000 0.500000
vt 0.500000 0.500000
vt 0.500000 0.500000
vt 0.500000 0.500000
vt 0.500000 0.500000
vt 0.500000 0.500000
vt 0.500000 0.500000
vt 0.500000 0.500000
vt 0.500000 0.500000
vt 0.500000 0.500000
vt 0.500000 0.500000
vt 0.500000 0.500000
vt 0.500000 0.500000
vt 0.500000 0.500000
vt 0.500000 0.500000
vt 0.500000 0.500000
vt 0.500000 0.500000
vt 0.500000 0.500000
vt 0.500000 0.500000
vt 0.500000 0.500000
vt 0.500000 0.500000
vt 0.500000 0.500000
vt 0.500000 0.500000
vt 0.500000 0.500000
vt 0.500000 0.500000
vt 0.500000 0.500000
vt 0.500000 0.500000
vt 0.500000 0.500000
vt 0.500000 0.500000
vt 0.500000 0.500000
vt 0.500000 0.500000
vt 0.500000 0.500000
vt 0.500000 0.500000
vt 0.500000 0.500000
vt 0.500000 0.500000
vt 0.500000 0.500000
vt 0.500000 0.500000
vt 0.500000 0.500000
vt 0.500000 0.500000
vt 0.500000 0.500000
vt 0.500000 0.500000
vt 0.500000 0.500000
vt 0.500000 0.500000
vt 0.500000 0.500000
vt 0.500000 0.500000
vt 0.500000 0.500000
vt 0.500000 0.500000
vt 0.500000 0.500000
vt 0.500000 0.500000
vt 0.500000 0.500000
vt 0.500000 0.500000
vt 0.500000 0.500000
vt 0.500000 0.500000
vt 0.500000 0.500000
vt 0.500000 0.500000
vt 0.500000 0.500000
vt 0.500000 0.500000
vt 0.500000 0.500000
vt 0.500000 0.500000
vt 0.500000 0.500000
vt 0.500000 0.500000
vt 0.500000 0.500000
vt 0.500000 0.500000
vt 0.500000 0.500000
vt 0.500000 0.500000
vt 0.500000 0.500000
vt 0.500000 0.500000
vt 0.500000 0.500000
vt 0.500000 0.500000
vt 0.500000 0.500000
vt 0.500000 0.500000
vt 0.500000 0.500000
vt 0.500000 0.500000
vt 0.500000 0.500000
vt 0.500000 0.500000
vt 0.500000 0.500000
vt 0.500000 0.500000
vt 0.500000 0.500000
vt 0.500000 0.500000
vt 0.500000 0.500000
vt 0.500000 0.500000
vt 0.500000 0.500000
vt 0.500000 0.500000
vt 0.500000 0.500000
vt 0.500000 0.500000
vt 0.500000 0.500000
vt 0.500000 0.500000
vt 0.500000 0.500000
vt 0.500000 0.500000
vt 0.500000 0.500000
vt 0.500000 0.500000
vt 0.500000 0.500000
vt 0.500000 0.500000
vt 0.500000 0.500000
vt 0.500000 0.500000
vt 0.500000 0.500000
vt 0.500000 0.500000
vt 0.500000 0.500000
vt 0.500000 0.500000
vt 0.500000 0.500000
vt 0.500000 0.500000
vt 0.500000 0.500000
vt 0.500000 0.500000
vt 0.500000 0.500000
vt 0.500000 0.500000
vt 0.500000 0.500000
vt 0.500000 0.500000
vt 0.500000 0.500000
vt 0.500000 0.500000
vt 0.500000 0.500000
vt 0.500000 0.500000
vt 0.500000 0.500000
vt 0.500000 0.500000
vt 0.500000 0.500000
vt 0.500000 0.500000
vt 0.500000 0.500000
vt 0.500000 0.500000
vt 0.500000 0.500000
vt 0.500000 0.500000
vt 0.500000 0.500000
vt 0.500000 0.500000
vt 0.500000 0.500000
vt 0.500000 0.500000
vt 0.500000 0.500000
vt 0.500000 0.500000
vt 0.500000 0.500000
vt 0.500000 0.500000
vt 0.500000 0.500000
vt 0.500000 0.500000
vt 0.500000 0.500000
vt 0.500000 0.500000
vt 0.500000 0.500000
vt 0.500000 0.500000
vt 0.500000 0.500000
vt 0.500000 0.500000
vt 0.500000 0.500000
vt 0.500000 0.500000
vt 0.500000 0.500000
vt 0.500000 0.500000
vt 0.500000 0.500000
vt 0.500000 0.500000
vt 0.500000 0.500000
vt 0.500000 0.500000
vt 0.500000 0.500000
vt 0.500000 0.500000
vt 0.500000 0.500000
vt 0.500000 0.500000
vt 0.500000 0.500000
vt 0.500000 0.500000
vt 0.500000 0.500000
vt 0.500000 0.500000
vt 0.500000 0.500000
vt 0.500000 0.500000
vt 0.500000 0.500000
vt 0.500000 0.500000
vt 0.500000 0.500000
vt 0.500000 0.500000
vt 0.500000 0.500000
vt 0.500000 0.500000
vt 0.500000 0.500000
vt 0.500000 0.500000
vt 0.500000 0.500000
vt 0.500000 0.500000
vt 0.500000 0.500000
vt 0.500000 0.500000
vt 0.500000 0.500000
vt 0.500000 0.500000
vt 0.500000 0.500000
vt 0.500000 0.500000
vt 0.500000 0.500000
vt 0.500000 0.500000
vt 0.500000 0.500000
vt 0.500000 0.500000
vt 0.500000 0.500000
vt 0.500000 0.500000
vt 0.500000 0.500000
vt 0.500000 0.500000
vt 0.500000 0.500000
vt 0.500000 0.500000
vt 0.647881 0.830756
vt 0.650266 0.832988
vt 0.646716 0.837840
vt 0.638471 0.815385
vt 0.633872 0.842782
vt 0.633226 0.816385
vt 0.636402 0.811548
vt 0.636613 0.814192
vt 0.633168 0.813753
vt 0.636947 0.808299
vt 0.632405 0.810137
vt 0.633568 0.804792
vt 0.645198 0.831754
vt 0.635750 0.843617
vt 0.644869 0.828408
vt 0.622243 0.830304
vt 0.623704 0.831642
vt 0.620642 0.835574
vt 0.631671 0.817139
vt 0.625378 0.828245
vt 0.645126 0.844699
vt 0.645833 0.851852
vt 0.638591 0.853671
vt 0.636526 0.851213
vt 0.637051 0.848436
vt 0.635554 0.804373
vt 0.632643 0.843520
vt 0.625308 0.837560
vt 0.624878 0.831509
vt 0.632848 0.845935
vt 0.629358 0.852692
vt 0.637074 0.845652
vt 0.629192 0.816579
vt 0.624229 0.837305
vt 0.622786 0.838179
vt 0.646325 0.831976
vt 0.641241 0.815485
vt 0.650468 0.836613
vt 0.648416 0.839045
vt 0.644952 0.840460
vt 0.633602 0.849048
vt 0.631949 0.852706
vt 0.645833 0.814815
vt 0.625682 0.840405
vt 0.620479 0.832138
vt 0.621025 0.829917
vt 0.621455 0.838069
vt 0.633602 0.851614
vt 0.645402 0.837786
vt 0.625000 0.851852
vt 0.636955 0.805592
vt 0.649844 0.839138
vt 0.649345 0.830540
vt 0.632245 0.806797
vt 0.625000 0.814815
vt 0.636753 0.853151
vn 0.0000 -1.0000 0.0000
vn 0.0000 -1.0000 0.0001
vn 0.1571 0.0000 0.9876
vn 0.9790 0.0000 0.2039
vn 0.0031 0.0000 1.0000
vn -0.3484 0.0000 0.9374
vn 0.1078 0.0000 0.9942
vn -0.1398 0.0000 0.9902
vn -1.0000 0.0000 0.0000
vn 0.9479 0.0000 -0.3185
vn -0.9185 0.0000 -0.3953
vn -0.9849 0.0000 -0.1731
vn 0.9999 0.0000 -0.0145
vn -0.9888 0.0000 -0.1493
vn 0.6539 0.0000 0.7566
vn 0.9944 0.0000 -0.1053
vn -0.9974 0.0000 -0.0726
vn 0.2427 0.0000 0.9701
vn -0.3200 0.0000 0.9474
vn -0.9581 0.0000 0.2864
vn 0.9738 0.0000 0.2275
vn 0.0366 0.0000 0.9993
vn -0.9156 0.0000 0.4021
vn 0.3701 0.0000 0.9290
vn 0.0465 0.0000 0.9989
vn -0.3223 0.0000 0.9466
vn 0.8654 0.0000 0.5011
vn 0.0231 0.0000 0.9997
vn 0.1317 0.0000 0.9913
vn -0.9951 0.0000 -0.0984
vn 0.9964 0.0000 0.0844
vn -0.8313 0.0000 -0.5559
vn 0.9163 0.0000 -0.4006
vn -0.1100 0.0000 -0.9939
vn 0.4034 0.0000 -0.9150
vn 0.0825 0.0000 -0.9966
vn 0.0635 0.0000 -0.9980
vn -0.9851 0.0000 -0.1722
vn -0.1758 0.0000 -0.9844
vn -0.4578 0.0000 -0.8891
vn 0.9649 0.0000 -0.2627
vn 0.9987 0.0000 0.0500
vn -0.1259 0.0000 -0.9920
vn 0.2629 0.0000 -0.9648
vn 0.9992 0.0000 0.0391
vn -0.0202 0.0000 -0.9998
vn 0.0818 0.0000 -0.9967
vn -0.9921 0.0000 0.1252
vn -0.2304 0.0000 -0.9731
vn -0.3397 0.0000 -0.9405
vn -0.9900 0.0000 -0.1409
vn 0.9363 0.0000 0.3512
vn -0.9582 0.0000 0.2860
vn 0.9964 0.0000 0.0851
vn -1.0000 0.0000 0.0051
vn 0.6487 0.0000 -0.7611
vn 0.1178 0.0000 -0.9930
vn -0.4395 0.0000 -0.8982
vn 0.0000 1.0000 0.0000
usemtl BackMat.001
s off
f 231/1/1 217/2/1 222/3/1
f 246/4/1 242/5/1 208/6/1
f 251/7/1 244/8/1 249/9/1
f 253/10/1 257/11/1 252/12/1
f 229/13/1 235/14/1 205/15/1
f 236/16/1 221/17/1 234/18/1
f 240/19/1 237/20/1 208/6/1
f 201/21/1 188/22/1 196/23/1
f 188/22/1 199/24/1 189/25/1
f 258/26/1 257/11/1 253/10/1
f 235/14/1 246/4/1 205/15/1
f 203/27/1 232/28/1 211/29/1
f 203/27/1 190/30/1 200/31/1
f 202/32/1 199/24/1 201/21/1
f 241/33/1 237/20/1 240/19/1
f 220/34/1 234/18/1 219/35/1
f 228/36/1 217/2/1 231/1/1
f 208/6/1 237/20/1 203/27/1
f 246/4/1 235/14/1 245/37/1
f 216/38/1 222/3/1 213/39/1
f 205/15/1 246/4/1 208/6/1
f 207/40/1 205/15/1 202/32/1
f 242/5/1 240/19/1 208/6/1
f 220/34/1 232/28/1 234/18/1
f 200/31/1 191/41/1 198/42/1
f 245/37/1 235/14/1 247/43/1
f 219/35/1 234/18/1 221/17/1
f 200/31/1 190/30/1 191/41/1
f 206/44/1 203/27/1 211/29/1
f 244/8/1 251/7/1 252/12/1
f 223/45/1 236/16/1 226/46/1
f 219/35/1 221/17/1 218/47/1
f 198/42/1 191/41/1 192/48/1
f 209/49/1 205/15/1 207/40/1
f 229/13/1 209/49/1 228/36/1
f 213/39/1 222/3/1 217/2/1
f 249/9/1 244/8/1 242/5/1
f 190/30/1 206/44/1 194/50/1
f 246/4/1 249/9/1 242/5/1
f 255/51/1 258/26/1 253/10/1
f 217/2/1 228/36/1 209/49/1
f 214/52/1 216/38/1 213/39/1
f 253/10/1 252/12/1 251/7/1
f 201/21/1 199/24/1 188/22/1
f 209/49/1 229/13/1 205/15/1
f 190/30/1 203/27/1 206/44/1
f 224/53/1 231/1/1 222/3/1
f 254/54/1 252/12/1 257/11/1
f 211/29/1 232/28/1 220/34/1
f 237/20/1 232/28/1 203/27/1
f 221/17/1 236/16/1 223/45/1
f 237/20/1 241/33/1 238/55/1
f 188/22/2 189/25/2 186/56/2
f 207/40/1 202/32/1 201/21/1
f 114/57/3 55/58/3 111/59/3 187/60/3
f 53/61/4 54/62/4 110/63/4 109/64/4
f 43/65/5 44/66/5 100/67/5 99/68/5
f 44/66/6 120/69/6 193/70/6 100/67/6
f 122/71/7 43/65/7 99/68/7 195/72/7
f 55/58/8 124/73/8 197/74/8 111/59/8
f 45/75/9 46/76/9 102/77/9 101/78/9
f 52/79/10 53/61/10 109/64/10 108/80/10
f 46/76/11 47/81/11 103/82/11 102/77/11
f 56/83/12 1/84/12 57/85/12 112/86/12
f 51/87/13 52/79/13 108/80/13 107/88/13
f 47/81/14 131/89/14 204/90/14 103/82/14
f 50/91/15 51/87/15 107/88/15 106/92/15
f 41/93/16 42/94/16 98/95/16 97/96/16
f 1/84/17 2/97/17 58/98/17 57/85/17
f 49/99/18 50/91/18 106/92/18 105/100/18
f 48/101/19 49/99/19 105/100/19 104/102/19
f 2/97/20 137/103/20 210/104/20 58/98/20
f 139/105/21 41/93/21 97/96/21 212/106/21
f 5/107/22 142/108/22 215/109/22 61/110/22
f 6/111/23 7/112/23 63/113/23 62/114/23
f 4/115/24 5/107/24 61/110/24 60/116/24
f 37/117/25 38/118/25 94/119/25 93/120/25
f 38/118/26 39/121/26 95/122/26 94/119/26
f 36/123/27 37/117/27 93/120/27 92/124/27
f 3/125/28 4/115/28 60/116/28 59/126/28
f 39/121/29 40/127/29 96/128/29 95/122/29
f 7/112/30 8/129/30 64/130/30 63/113/30
f 35/131/31 36/123/31 92/124/31 91/132/31
f 8/129/32 152/133/32 225/134/32 64/130/32
f 154/135/33 35/131/33 91/132/33 227/136/33
f 11/137/34 157/138/34 230/139/34 67/140/34
f 10/141/35 11/137/35 67/140/35 66/142/35
f 9/143/36 10/141/36 66/142/36 65/144/36
f 160/145/37 32/146/37 88/147/37 233/148/37
f 12/149/38 13/150/38 69/151/38 68/152/38
f 33/153/39 34/154/39 90/155/39 89/156/39
f 32/146/40 33/153/40 89/156/40 88/147/40
f 30/157/41 31/158/41 87/159/41 86/160/41
f 166/161/42 30/157/42 86/160/42 239/162/42
f 27/163/43 28/164/43 84/165/43 83/166/43
f 170/167/44 27/163/44 83/166/44 243/168/44
f 25/169/45 26/170/45 82/171/45 81/172/45
f 15/173/46 16/174/46 72/175/46 71/176/46
f 175/177/47 15/173/47 71/176/47 248/178/47
f 13/150/48 14/179/48 70/180/48 69/151/48
f 28/164/49 29/181/49 85/182/49 84/165/49
f 16/174/50 177/183/50 250/184/50 72/175/50
f 17/185/51 18/186/51 74/187/51 73/188/51
f 24/189/52 25/169/52 81/172/52 80/190/52
f 18/186/53 19/191/53 75/192/53 74/187/53
f 23/193/54 24/189/54 80/190/54 79/194/54
f 19/191/55 183/195/55 256/196/55 75/192/55
f 22/197/56 23/193/56 79/194/56 78/198/56
f 21/199/57 22/197/57 78/198/57 77/200/57
f 20/201/58 21/199/58 77/200/58 76/202/58
usemtl FrontMat.001
f 158/203/59 149/204/59 144/205/59
f 173/206/59 135/207/59 169/208/59
f 178/209/59 176/210/59 171/211/59
f 180/212/59 179/213/59 184/214/59
f 156/215/59 132/216/59 162/217/59
f 163/218/59 161/219/59 148/220/59
f 167/221/59 135/207/59 164/222/59
f 128/223/59 123/224/59 115/225/59
f 115/225/59 116/226/59 126/227/59
f 185/228/59 180/212/59 184/214/59
f 162/217/59 132/216/59 173/206/59
f 130/229/59 138/230/59 159/231/59
f 130/229/59 127/232/59 117/233/59
f 129/234/59 128/223/59 126/227/59
f 168/235/59 167/221/59 164/222/59
f 147/236/59 146/237/59 161/219/59
f 155/238/59 158/203/59 144/205/59
f 135/207/59 130/229/59 164/222/59
f 173/206/59 172/239/59 162/217/59
f 143/240/59 140/241/59 149/204/59
f 132/216/59 135/207/59 173/206/59
f 134/242/59 129/234/59 132/216/59
f 169/208/59 135/207/59 167/221/59
f 147/236/59 161/219/59 159/231/59
f 127/232/59 125/243/59 118/244/59
f 172/239/59 174/245/59 162/217/59
f 146/237/59 148/220/59 161/219/59
f 127/232/59 118/244/59 117/233/59
f 133/246/59 138/230/59 130/229/59
f 171/211/59 179/213/59 178/209/59
f 150/247/59 153/248/59 163/218/59
f 146/237/59 145/249/59 148/220/59
f 125/243/59 119/250/59 118/244/59
f 136/251/59 134/242/59 132/216/59
f 156/215/59 155/238/59 136/251/59
f 140/241/59 144/205/59 149/204/59
f 176/210/59 169/208/59 171/211/59
f 117/233/59 121/252/59 133/246/59
f 173/206/59 169/208/59 176/210/59
f 182/253/59 180/212/59 185/228/59
f 144/205/59 136/251/59 155/238/59
f 141/254/59 140/241/59 143/240/59
f 180/212/59 178/209/59 179/213/59
f 128/223/59 115/225/59 126/227/59
f 136/251/59 132/216/59 156/215/59
f 117/233/59 133/246/59 130/229/59
f 151/255/59 149/204/59 158/203/59
f 181/256/59 184/214/59 179/213/59
f 138/230/59 147/236/59 159/231/59
f 164/222/59 130/229/59 159/231/59
f 148/220/59 150/247/59 163/218/59
f 164/222/59 165/257/59 168/235/59
f 115/225/59 113/258/59 116/226/59
f 134/242/59 128/223/59 129/234/59
