# Blender v2.83.1 OBJ File: 'jigsaw-48x27-3-step2.blend'
# www.blender.org
mtllib piece.1124.mtl
o path2248_path2248.001
v 0.452381 0.037500 -0.292044
v 0.439524 0.037500 -0.171328
v 0.462704 0.037500 -0.093527
v 0.536793 0.037500 -0.091421
v 0.636000 0.037500 -0.122456
v 0.724365 0.037500 -0.125250
v 0.771835 0.037500 -0.058577
v 0.771938 0.037500 0.038179
v 0.724110 0.037500 0.105476
v 0.634075 0.037500 0.104025
v 0.532774 0.037500 0.075573
v 0.457445 0.037500 0.082115
v 0.434782 0.037500 0.166397
v 0.449274 0.037500 0.294209
v 0.497280 0.037500 0.507172
v 0.144638 0.037500 0.560755
v 0.057528 0.037500 0.546938
v 0.050987 0.037500 0.493544
v 0.080763 0.037500 0.420185
v 0.082685 0.037500 0.354387
v 0.013432 0.037500 0.319159
v -0.086941 0.037500 0.319424
v -0.157522 0.037500 0.355589
v -0.157625 0.037500 0.423269
v -0.127449 0.037500 0.498627
v -0.127415 0.037500 0.553009
v -0.199675 0.037500 0.566027
v -0.504629 0.037500 0.507172
v -0.467329 0.037500 0.289688
v -0.459425 0.037500 0.158133
v -0.486767 0.037500 0.069046
v -0.562725 0.037500 0.057186
v -0.660109 0.037500 0.082031
v -0.741583 0.037500 0.084242
v -0.777073 0.037500 0.023638
v -0.765543 0.037500 -0.063292
v -0.713230 0.037500 -0.120893
v -0.630178 0.037500 -0.112856
v -0.541658 0.037500 -0.080193
v -0.476751 0.037500 -0.083248
v -0.456120 0.037500 -0.163546
v -0.466658 0.037500 -0.287315
v -0.504629 0.037500 -0.494526
v -0.309502 0.037500 -0.548136
v -0.192415 0.037500 -0.565111
v -0.115232 0.037500 -0.542147
v -0.109213 0.037500 -0.462469
v -0.134661 0.037500 -0.355415
v -0.134138 0.037500 -0.261847
v -0.069328 0.037500 -0.215302
v 0.021654 0.037500 -0.220083
v 0.081587 0.037500 -0.273172
v 0.073404 0.037500 -0.365986
v 0.040657 0.037500 -0.467665
v 0.047062 0.037500 -0.541792
v 0.136263 0.037500 -0.562458
v 0.271643 0.037500 -0.545782
v 0.497280 0.037500 -0.494526
v 0.452381 -0.037500 -0.292044
v 0.439524 -0.037500 -0.171328
v 0.462704 -0.037500 -0.093527
v 0.536793 -0.037498 -0.091421
v 0.636000 -0.037500 -0.122456
v 0.724365 -0.037500 -0.125250
v 0.771835 -0.037498 -0.058577
v 0.771938 -0.037500 0.038179
v 0.724110 -0.037500 0.105476
v 0.634075 -0.037500 0.104025
v 0.532774 -0.037500 0.075573
v 0.457445 -0.037500 0.082115
v 0.434782 -0.037498 0.166397
v 0.449274 -0.037500 0.294209
v 0.497280 -0.037500 0.507172
v 0.144638 -0.037498 0.560755
v 0.057528 -0.037500 0.546938
v 0.050987 -0.037500 0.493544
v 0.080763 -0.037500 0.420185
v 0.082685 -0.037500 0.354387
v 0.013432 -0.037500 0.319159
v -0.086941 -0.037498 0.319424
v -0.157522 -0.037500 0.355589
v -0.157625 -0.037500 0.423269
v -0.127449 -0.037500 0.498627
v -0.127415 -0.037500 0.553009
v -0.199675 -0.037500 0.566027
v -0.504629 -0.037500 0.507172
v -0.467329 -0.037500 0.289688
v -0.459425 -0.037500 0.158133
v -0.486767 -0.037500 0.069046
v -0.562725 -0.037500 0.057186
v -0.660109 -0.037500 0.082031
v -0.741583 -0.037500 0.084242
v -0.777073 -0.037500 0.023638
v -0.765543 -0.037500 -0.063292
v -0.713230 -0.037500 -0.120893
v -0.630178 -0.037500 -0.112856
v -0.541658 -0.037500 -0.080193
v -0.476751 -0.037500 -0.083248
v -0.456120 -0.037498 -0.163546
v -0.466658 -0.037498 -0.287315
v -0.504629 -0.037500 -0.494526
v -0.309502 -0.037498 -0.548136
v -0.192415 -0.037500 -0.565111
v -0.115232 -0.037500 -0.542147
v -0.109213 -0.037500 -0.462469
v -0.134661 -0.037500 -0.355415
v -0.134138 -0.037500 -0.261847
v -0.069328 -0.037498 -0.215302
v 0.021654 -0.037500 -0.220083
v 0.081587 -0.037500 -0.273172
v 0.073404 -0.037500 -0.365986
v 0.040657 -0.037500 -0.467665
v 0.047062 -0.037500 -0.541792
v 0.136263 -0.037500 -0.562458
v 0.271643 -0.037500 -0.545782
v 0.497280 -0.037500 -0.494526
v -0.309502 0.037500 -0.548136
v -0.192415 0.037500 -0.565111
v -0.115232 0.037500 -0.542147
v -0.115232 0.037500 -0.542147
v 0.047062 0.037500 -0.541792
v 0.047062 0.037500 -0.541792
v 0.136263 0.037500 -0.562458
v 0.271643 0.037500 -0.545782
v -0.109213 0.037500 -0.462469
v 0.040657 0.037500 -0.467665
v -0.504629 0.037500 -0.494526
v -0.504629 0.037500 -0.494526
v 0.497280 0.037500 -0.494526
v 0.497280 0.037500 -0.494526
v 0.073404 0.037500 -0.365986
v -0.134661 0.037500 -0.355415
v 0.452381 0.037500 -0.292044
v -0.466658 0.037500 -0.287315
v 0.081587 0.037500 -0.273172
v -0.134138 0.037500 -0.261847
v 0.439524 0.037500 -0.171328
v -0.456120 0.037500 -0.163546
v 0.021654 0.037500 -0.220083
v -0.069328 0.037500 -0.215302
v 0.462704 0.037500 -0.093527
v 0.462704 0.037500 -0.093527
v -0.476751 0.037500 -0.083248
v -0.476751 0.037500 -0.083248
v 0.636000 0.037500 -0.122456
v 0.724365 0.037500 -0.125250
v 0.771835 0.037500 -0.058577
v 0.536793 0.037500 -0.091421
v -0.765543 0.037500 -0.063292
v -0.713230 0.037500 -0.120893
v -0.630178 0.037500 -0.112856
v -0.541658 0.037500 -0.080193
v -0.777073 0.037500 0.023638
v 0.771938 0.037500 0.038179
v -0.741583 0.037500 0.084242
v -0.741583 0.037500 0.084242
v 0.724110 0.037500 0.105476
v -0.660109 0.037500 0.082031
v -0.562725 0.037500 0.057186
v -0.486767 0.037500 0.069046
v -0.486767 0.037500 0.069046
v -0.459425 0.037500 0.158133
v 0.532774 0.037500 0.075573
v 0.457445 0.037500 0.082115
v 0.457445 0.037500 0.082115
v 0.634075 0.037500 0.104025
v 0.434782 0.037500 0.166397
v -0.467329 0.037500 0.289688
v 0.449274 0.037500 0.294209
v 0.013432 0.037500 0.319159
v -0.086941 0.037500 0.319424
v 0.082685 0.037500 0.354387
v 0.082685 0.037500 0.354387
v -0.157522 0.037500 0.355589
v -0.157522 0.037500 0.355589
v 0.080763 0.037500 0.420185
v -0.157625 0.037500 0.423269
v -0.504629 0.037500 0.507172
v -0.504629 0.037500 0.507172
v 0.050987 0.037500 0.493544
v -0.127449 0.037500 0.498627
v 0.497280 0.037500 0.507172
v 0.497280 0.037500 0.507172
v 0.057528 0.037500 0.546938
v 0.057528 0.037500 0.546938
v -0.127415 0.037500 0.553009
v -0.127415 0.037500 0.553009
v 0.144638 0.037500 0.560755
v -0.199675 0.037500 0.566027
v -0.309502 -0.037498 -0.548136
v -0.192415 -0.037500 -0.565111
v -0.115232 -0.037500 -0.542147
v -0.115232 -0.037500 -0.542147
v 0.047062 -0.037500 -0.541792
v 0.047062 -0.037500 -0.541792
v 0.136263 -0.037500 -0.562458
v 0.271643 -0.037500 -0.545782
v -0.109213 -0.037500 -0.462469
v 0.040657 -0.037500 -0.467665
v -0.504629 -0.037500 -0.494526
v -0.504629 -0.037500 -0.494526
v 0.497280 -0.037500 -0.494526
v 0.497280 -0.037500 -0.494526
v 0.073404 -0.037500 -0.365986
v -0.134661 -0.037500 -0.355415
v 0.452381 -0.037500 -0.292044
v -0.466658 -0.037498 -0.287315
v 0.081587 -0.037500 -0.273172
v -0.134138 -0.037500 -0.261847
v 0.439524 -0.037500 -0.171328
v -0.456120 -0.037498 -0.163546
v 0.021654 -0.037500 -0.220083
v -0.069328 -0.037498 -0.215302
v 0.462704 -0.037500 -0.093527
v 0.462704 -0.037500 -0.093527
v -0.476751 -0.037500 -0.083248
v -0.476751 -0.037500 -0.083248
v 0.636000 -0.037500 -0.122456
v 0.724365 -0.037500 -0.125250
v 0.771835 -0.037498 -0.058577
v 0.536793 -0.037498 -0.091421
v -0.765543 -0.037500 -0.063292
v -0.713230 -0.037500 -0.120893
v -0.630178 -0.037500 -0.112856
v -0.541658 -0.037500 -0.080193
v -0.777073 -0.037500 0.023638
v 0.771938 -0.037500 0.038179
v -0.741583 -0.037500 0.084242
v -0.741583 -0.037500 0.084242
v 0.724110 -0.037500 0.105476
v -0.660109 -0.037500 0.082031
v -0.562725 -0.037500 0.057186
v -0.486767 -0.037500 0.069046
v -0.486767 -0.037500 0.069046
v -0.459425 -0.037500 0.158133
v 0.532774 -0.037500 0.075573
v 0.457445 -0.037500 0.082115
v 0.457445 -0.037500 0.082115
v 0.634075 -0.037500 0.104025
v 0.434782 -0.037498 0.166397
v -0.467329 -0.037500 0.289688
v 0.449274 -0.037500 0.294209
v 0.013432 -0.037500 0.319159
v -0.086941 -0.037498 0.319424
v 0.082685 -0.037500 0.354387
v 0.082685 -0.037500 0.354387
v -0.157522 -0.037500 0.355589
v -0.157522 -0.037500 0.355589
v 0.080763 -0.037500 0.420185
v -0.157625 -0.037500 0.423269
v -0.504629 -0.037500 0.507172
v -0.504629 -0.037500 0.507172
v 0.050987 -0.037500 0.493544
v -0.127449 -0.037500 0.498627
v 0.497280 -0.037500 0.507172
v 0.497280 -0.037500 0.507172
v 0.057528 -0.037500 0.546938
v 0.057528 -0.037500 0.546938
v -0.127415 -0.037500 0.553009
v -0.127415 -0.037500 0.553009
v 0.144638 -0.037498 0.560755
v -0.199675 -0.037500 0.566027
vt 0.500000 0.500000
vt 0.500000 0.500000
vt 0.500000 0.500000
vt 0.500000 0.500000
vt 0.500000 0.500000
vt 0.500000 0.500000
vt 0.500000 0.500000
vt 0.500000 0.500000
vt 0.500000 0.500000
vt 0.500000 0.500000
vt 0.500000 0.500000
vt 0.500000 0.500000
vt 0.500000 0.500000
vt 0.500000 0.500000
vt 0.500000 0.500000
vt 0.500000 0.500000
vt 0.500000 0.500000
vt 0.500000 0.500000
vt 0.500000 0.500000
vt 0.500000 0.500000
vt 0.500000 0.500000
vt 0.500000 0.500000
vt 0.500000 0.500000
vt 0.500000 0.500000
vt 0.500000 0.500000
vt 0.500000 0.500000
vt 0.500000 0.500000
vt 0.500000 0.500000
vt 0.500000 0.500000
vt 0.500000 0.500000
vt 0.500000 0.500000
vt 0.500000 0.500000
vt 0.500000 0.500000
vt 0.500000 0.500000
vt 0.500000 0.500000
vt 0.500000 0.500000
vt 0.500000 0.500000
vt 0.500000 0.500000
vt 0.500000 0.500000
vt 0.500000 0.500000
vt 0.500000 0.500000
vt 0.500000 0.500000
vt 0.500000 0.500000
vt 0.500000 0.500000
vt 0.500000 0.500000
vt 0.500000 0.500000
vt 0.500000 0.500000
vt 0.500000 0.500000
vt 0.500000 0.500000
vt 0.500000 0.500000
vt 0.500000 0.500000
vt 0.500000 0.500000
vt 0.500000 0.500000
vt 0.500000 0.500000
vt 0.500000 0.500000
vt 0.500000 0.500000
vt 0.500000 0.500000
vt 0.500000 0.500000
vt 0.500000 0.500000
vt 0.500000 0.500000
vt 0.500000 0.500000
vt 0.500000 0.500000
vt 0.500000 0.500000
vt 0.500000 0.500000
vt 0.500000 0.500000
vt 0.500000 0.500000
vt 0.500000 0.500000
vt 0.500000 0.500000
vt 0.500000 0.500000
vt 0.500000 0.500000
vt 0.500000 0.500000
vt 0.500000 0.500000
vt 0.500000 0.500000
vt 0.500000 0.500000
vt 0.500000 0.500000
vt 0.500000 0.500000
vt 0.500000 0.500000
vt 0.500000 0.500000
vt 0.500000 0.500000
vt 0.500000 0.500000
vt 0.500000 0.500000
vt 0.500000 0.500000
vt 0.500000 0.500000
vt 0.500000 0.500000
vt 0.500000 0.500000
vt 0.500000 0.500000
vt 0.500000 0.500000
vt 0.500000 0.500000
vt 0.500000 0.500000
vt 0.500000 0.500000
vt 0.500000 0.500000
vt 0.500000 0.500000
vt 0.500000 0.500000
vt 0.500000 0.500000
vt 0.500000 0.500000
vt 0.500000 0.500000
vt 0.500000 0.500000
vt 0.500000 0.500000
vt 0.500000 0.500000
vt 0.500000 0.500000
vt 0.500000 0.500000
vt 0.500000 0.500000
vt 0.500000 0.500000
vt 0.500000 0.500000
vt 0.500000 0.500000
vt 0.500000 0.500000
vt 0.500000 0.500000
vt 0.500000 0.500000
vt 0.500000 0.500000
vt 0.500000 0.500000
vt 0.500000 0.500000
vt 0.500000 0.500000
vt 0.500000 0.500000
vt 0.500000 0.500000
vt 0.500000 0.500000
vt 0.500000 0.500000
vt 0.500000 0.500000
vt 0.500000 0.500000
vt 0.500000 0.500000
vt 0.500000 0.500000
vt 0.500000 0.500000
vt 0.500000 0.500000
vt 0.500000 0.500000
vt 0.500000 0.500000
vt 0.500000 0.500000
vt 0.500000 0.500000
vt 0.500000 0.500000
vt 0.500000 0.500000
vt 0.500000 0.500000
vt 0.500000 0.500000
vt 0.500000 0.500000
vt 0.500000 0.500000
vt 0.500000 0.500000
vt 0.500000 0.500000
vt 0.500000 0.500000
vt 0.500000 0.500000
vt 0.500000 0.500000
vt 0.500000 0.500000
vt 0.500000 0.500000
vt 0.500000 0.500000
vt 0.500000 0.500000
vt 0.500000 0.500000
vt 0.500000 0.500000
vt 0.500000 0.500000
vt 0.500000 0.500000
vt 0.500000 0.500000
vt 0.500000 0.500000
vt 0.500000 0.500000
vt 0.500000 0.500000
vt 0.500000 0.500000
vt 0.500000 0.500000
vt 0.500000 0.500000
vt 0.500000 0.500000
vt 0.500000 0.500000
vt 0.500000 0.500000
vt 0.500000 0.500000
vt 0.500000 0.500000
vt 0.500000 0.500000
vt 0.500000 0.500000
vt 0.500000 0.500000
vt 0.500000 0.500000
vt 0.500000 0.500000
vt 0.500000 0.500000
vt 0.500000 0.500000
vt 0.500000 0.500000
vt 0.500000 0.500000
vt 0.500000 0.500000
vt 0.500000 0.500000
vt 0.500000 0.500000
vt 0.500000 0.500000
vt 0.500000 0.500000
vt 0.500000 0.500000
vt 0.500000 0.500000
vt 0.500000 0.500000
vt 0.500000 0.500000
vt 0.500000 0.500000
vt 0.500000 0.500000
vt 0.500000 0.500000
vt 0.500000 0.500000
vt 0.500000 0.500000
vt 0.500000 0.500000
vt 0.500000 0.500000
vt 0.500000 0.500000
vt 0.500000 0.500000
vt 0.500000 0.500000
vt 0.500000 0.500000
vt 0.500000 0.500000
vt 0.500000 0.500000
vt 0.500000 0.500000
vt 0.500000 0.500000
vt 0.500000 0.500000
vt 0.500000 0.500000
vt 0.500000 0.500000
vt 0.500000 0.500000
vt 0.500000 0.500000
vt 0.500000 0.500000
vt 0.500000 0.500000
vt 0.500000 0.500000
vt 0.500000 0.500000
vt 0.500000 0.500000
vt 0.500000 0.500000
vt 0.500000 0.500000
vt 0.500000 0.500000
vt 0.500000 0.500000
vt 0.396413 0.132941
vt 0.395063 0.132828
vt 0.396205 0.127310
vt 0.404885 0.137824
vt 0.396773 0.124017
vt 0.404519 0.118053
vt 0.409334 0.109130
vt 0.415668 0.118985
vt 0.408006 0.114327
vt 0.415733 0.140661
vt 0.411975 0.150043
vt 0.407853 0.143395
vt 0.399891 0.150130
vt 0.395833 0.148148
vt 0.396623 0.140487
vt 0.417488 0.133244
vt 0.415948 0.133321
vt 0.417405 0.127069
vt 0.396609 0.119152
vt 0.403051 0.116716
vt 0.407305 0.149896
vt 0.407172 0.147155
vt 0.409160 0.150660
vt 0.407387 0.111615
vt 0.394625 0.127749
vt 0.393223 0.134036
vt 0.392600 0.126830
vt 0.406606 0.118063
vt 0.408046 0.116760
vt 0.415367 0.123711
vt 0.404055 0.146963
vt 0.403930 0.149909
vt 0.402325 0.150758
vt 0.421383 0.125963
vt 0.422378 0.128452
vt 0.419511 0.126017
vt 0.395833 0.111111
vt 0.403049 0.114213
vt 0.402174 0.108935
vt 0.390408 0.132203
vt 0.390168 0.128989
vt 0.406777 0.138001
vt 0.415838 0.126827
vt 0.391496 0.134333
vt 0.415466 0.136198
vt 0.408023 0.139964
vt 0.396842 0.135910
vt 0.403537 0.139545
vt 0.419551 0.134391
vt 0.403526 0.143005
vt 0.422376 0.132029
vt 0.403676 0.111427
vt 0.390906 0.126749
vt 0.416667 0.148148
vt 0.403677 0.109416
vt 0.407523 0.109641
vt 0.421389 0.134494
vt 0.416667 0.111111
vn 0.0000 -1.0000 0.0000
vn -0.1435 0.0000 -0.9897
vn 0.2852 0.0000 -0.9585
vn -0.2257 0.0000 -0.9742
vn 0.1223 0.0000 -0.9925
vn 0.9972 0.0000 -0.0753
vn -0.9963 0.0000 -0.0861
vn -0.2649 0.0000 -0.9643
vn 0.2215 0.0000 -0.9752
vn -0.9519 0.0000 0.3066
vn 0.9729 0.0000 0.2313
vn 0.9763 0.0000 0.2165
vn -0.9836 0.0000 0.1802
vn -0.9961 0.0000 0.0878
vn 1.0000 0.0000 -0.0056
vn 0.9944 0.0000 0.1059
vn -0.9964 0.0000 0.0848
vn -0.6631 0.0000 -0.7486
vn 0.5833 0.0000 -0.8122
vn -0.0525 0.0000 -0.9986
vn 0.9584 0.0000 -0.2855
vn -0.9685 0.0000 -0.2489
vn -0.0316 0.0000 -0.9995
vn 0.8146 0.0000 -0.5800
vn -0.2986 0.0000 -0.9544
vn -0.7403 0.0000 -0.6723
vn 0.0963 0.0000 -0.9953
vn 0.3462 0.0000 -0.9382
vn 0.0284 0.0000 -0.9996
vn -0.0470 0.0000 -0.9989
vn -0.9913 0.0000 -0.1315
vn 1.0000 0.0000 -0.0011
vn -0.8629 0.0000 0.5053
vn 0.8151 0.0000 0.5793
vn 0.0271 0.0000 0.9996
vn 0.2472 0.0000 0.9690
vn -0.1543 0.0000 0.9880
vn -0.9560 0.0000 0.2934
vn 0.0865 0.0000 0.9962
vn -0.2704 0.0000 0.9627
vn -0.0161 0.0000 0.9999
vn 0.9657 0.0000 0.2597
vn -0.9982 0.0000 -0.0600
vn 0.9936 0.0000 -0.1127
vn 0.0026 0.0000 1.0000
vn -0.4534 0.0000 0.8913
vn 0.4560 0.0000 0.8900
vn -0.9996 0.0000 -0.0292
vn 1.0000 0.0000 0.0015
vn -0.9856 0.0000 -0.1690
vn -0.9266 0.0000 -0.3761
vn 0.9283 0.0000 -0.3717
vn 0.9755 0.0000 -0.2199
vn -0.9926 0.0000 0.1216
vn 1.0000 0.0000 -0.0006
vn -0.1567 0.0000 0.9877
vn 0.1502 0.0000 0.9887
vn -0.1895 0.0000 0.9819
vn 0.1773 0.0000 0.9842
vn 0.0000 1.0000 0.0000
usemtl BackMat.001
s off
f 216/1/1 233/2/1 225/3/1
f 213/4/1 244/5/1 235/6/1
f 261/7/1 249/8/1 242/9/1
f 206/10/1 204/11/1 197/12/1
f 190/13/1 207/14/1 200/15/1
f 221/16/1 236/17/1 214/18/1
f 235/6/1 247/19/1 241/20/1
f 194/21/1 196/22/1 199/23/1
f 249/8/1 261/7/1 253/24/1
f 213/4/1 233/2/1 216/1/1
f 232/25/1 231/26/1 224/27/1
f 243/28/1 240/29/1 245/30/1
f 198/31/1 191/32/1 192/33/1
f 230/34/1 239/35/1 227/36/1
f 245/30/1 242/9/1 249/8/1
f 213/4/1 243/28/1 244/5/1
f 241/20/1 250/37/1 251/38/1
f 251/38/1 250/37/1 262/39/1
f 235/6/1 244/5/1 247/19/1
f 222/40/1 231/26/1 226/41/1
f 236/17/1 221/16/1 239/35/1
f 212/42/1 214/18/1 237/43/1
f 224/27/1 222/40/1 223/44/1
f 210/45/1 208/46/1 206/10/1
f 242/9/1 245/30/1 240/29/1
f 214/18/1 236/17/1 237/43/1
f 211/47/1 209/48/1 216/1/1
f 207/14/1 209/48/1 211/47/1
f 224/27/1 231/26/1 222/40/1
f 218/49/1 239/35/1 221/16/1
f 212/42/1 240/29/1 243/28/1
f 212/42/1 243/28/1 213/4/1
f 205/50/1 190/13/1 198/31/1
f 199/23/1 196/22/1 204/11/1
f 241/20/1 247/19/1 250/37/1
f 220/51/1 227/36/1 218/49/1
f 262/39/1 250/37/1 254/52/1
f 190/13/1 205/50/1 207/14/1
f 237/43/1 240/29/1 212/42/1
f 209/48/1 207/14/1 205/50/1
f 225/3/1 232/25/1 224/27/1
f 213/4/1 235/6/1 233/2/1
f 226/41/1 231/26/1 228/53/1
f 202/54/1 206/10/1 197/12/1
f 262/39/1 254/52/1 259/55/1
f 208/46/1 210/45/1 212/42/1
f 206/10/1 208/46/1 204/11/1
f 253/24/1 261/7/1 257/56/1
f 197/12/1 204/11/1 196/22/1
f 190/13/1 191/32/1 198/31/1
f 239/35/1 218/49/1 227/36/1
f 213/4/1 216/1/1 209/48/1
f 214/18/1 212/42/1 210/45/1
f 219/57/1 220/51/1 218/49/1
f 261/7/1 242/9/1 255/58/1
f 225/3/1 233/2/1 232/25/1
f 44/59/2 45/60/2 103/61/2 102/62/2
f 45/60/3 120/63/3 193/64/3 103/61/3
f 122/65/4 56/66/4 114/67/4 195/68/4
f 56/66/5 57/69/5 115/70/5 114/67/5
f 46/71/6 47/72/6 105/73/6 104/74/6
f 54/75/7 55/76/7 113/77/7 112/78/7
f 128/79/8 44/59/8 102/62/8 201/80/8
f 57/69/9 130/81/9 203/82/9 115/70/9
f 53/83/10 54/75/10 112/78/10 111/84/10
f 47/72/11 48/85/11 106/86/11 105/73/11
f 58/87/12 1/88/12 59/89/12 116/90/12
f 42/91/13 43/92/13 101/93/13 100/94/13
f 52/95/14 53/83/14 111/84/14 110/96/14
f 48/85/15 49/97/15 107/98/15 106/86/15
f 1/88/16 2/99/16 60/100/16 59/89/16
f 41/101/17 42/91/17 100/94/17 99/102/17
f 51/103/18 52/95/18 110/96/18 109/104/18
f 49/97/19 50/105/19 108/106/19 107/98/19
f 50/105/20 51/103/20 109/104/20 108/106/20
f 2/99/21 142/107/21 215/108/21 60/100/21
f 144/109/22 41/101/22 99/102/22 217/110/22
f 5/111/23 6/112/23 64/113/23 63/114/23
f 6/112/24 7/115/24 65/116/24 64/113/24
f 4/117/25 5/111/25 63/114/25 62/118/25
f 36/119/26 37/120/26 95/121/26 94/122/26
f 37/120/27 38/123/27 96/124/27 95/121/27
f 38/123/28 39/125/28 97/126/28 96/124/28
f 3/127/29 4/117/29 62/118/29 61/128/29
f 39/125/30 40/129/30 98/130/30 97/126/30
f 35/131/31 36/119/31 94/122/31 93/132/31
f 7/115/32 8/133/32 66/134/32 65/116/32
f 156/135/33 35/131/33 93/132/33 229/136/33
f 8/133/34 9/137/34 67/138/34 66/134/34
f 33/139/35 34/140/35 92/141/35 91/142/35
f 32/143/36 33/139/36 91/142/36 90/144/36
f 161/145/37 32/143/37 90/144/37 234/146/37
f 30/147/38 31/148/38 89/149/38 88/150/38
f 11/151/39 165/152/39 238/153/39 69/154/39
f 10/155/40 11/151/40 69/154/40 68/156/40
f 9/137/41 10/155/41 68/156/41 67/138/41
f 12/157/42 13/158/42 71/159/42 70/160/42
f 29/161/43 30/147/43 88/150/43 87/162/43
f 13/158/44 14/163/44 72/164/44 71/159/44
f 21/165/45 22/166/45 80/167/45 79/168/45
f 173/169/46 21/165/46 79/168/46 246/170/46
f 22/166/47 175/171/47 248/172/47 80/167/47
f 19/173/48 20/174/48 78/175/48 77/176/48
f 23/177/49 24/178/49 82/179/49 81/180/49
f 179/181/50 29/161/50 87/162/50 252/182/50
f 18/183/51 19/173/51 77/176/51 76/184/51
f 24/178/52 25/185/52 83/186/52 82/179/52
f 14/163/53 183/187/53 256/188/53 72/164/53
f 185/189/54 18/183/54 76/184/54 258/190/54
f 25/185/55 187/191/55 260/192/55 83/186/55
f 16/193/56 17/194/56 75/195/56 74/196/56
f 15/197/57 16/193/57 74/196/57 73/198/57
f 27/199/58 28/200/58 86/201/58 85/202/58
f 26/203/59 27/199/59 85/202/59 84/204/59
usemtl FrontMat.001
f 143/205/60 152/206/60 160/207/60
f 140/208/60 162/209/60 171/210/60
f 188/211/60 169/212/60 176/213/60
f 133/214/60 124/215/60 131/216/60
f 117/217/60 127/218/60 134/219/60
f 148/220/60 141/221/60 163/222/60
f 162/209/60 168/223/60 174/224/60
f 121/225/60 126/226/60 123/227/60
f 176/213/60 180/228/60 188/211/60
f 140/208/60 143/205/60 160/207/60
f 159/229/60 151/230/60 158/231/60
f 170/232/60 172/233/60 167/234/60
f 125/235/60 119/236/60 118/237/60
f 157/238/60 154/239/60 166/240/60
f 172/233/60 176/213/60 169/212/60
f 140/208/60 171/210/60 170/232/60
f 168/223/60 178/241/60 177/242/60
f 178/241/60 189/243/60 177/242/60
f 162/209/60 174/224/60 171/210/60
f 149/244/60 153/245/60 158/231/60
f 163/222/60 166/240/60 148/220/60
f 139/246/60 164/247/60 141/221/60
f 151/230/60 150/248/60 149/244/60
f 137/249/60 133/214/60 135/250/60
f 169/212/60 167/234/60 172/233/60
f 141/221/60 164/247/60 163/222/60
f 138/251/60 143/205/60 136/252/60
f 134/219/60 138/251/60 136/252/60
f 151/230/60 149/244/60 158/231/60
f 145/253/60 148/220/60 166/240/60
f 139/246/60 170/232/60 167/234/60
f 139/246/60 140/208/60 170/232/60
f 132/254/60 125/235/60 117/217/60
f 126/226/60 131/216/60 123/227/60
f 168/223/60 177/242/60 174/224/60
f 147/255/60 145/253/60 154/239/60
f 189/243/60 181/256/60 177/242/60
f 117/217/60 134/219/60 132/254/60
f 164/247/60 139/246/60 167/234/60
f 136/252/60 132/254/60 134/219/60
f 152/206/60 151/230/60 159/229/60
f 140/208/60 160/207/60 162/209/60
f 153/245/60 155/257/60 158/231/60
f 129/258/60 124/215/60 133/214/60
f 189/243/60 186/259/60 181/256/60
f 135/250/60 139/246/60 137/249/60
f 133/214/60 131/216/60 135/250/60
f 180/228/60 184/260/60 188/211/60
f 124/215/60 123/227/60 131/216/60
f 117/217/60 125/235/60 118/237/60
f 166/240/60 154/239/60 145/253/60
f 140/208/60 136/252/60 143/205/60
f 141/221/60 137/249/60 139/246/60
f 146/261/60 145/253/60 147/255/60
f 188/211/60 182/262/60 169/212/60
f 152/206/60 159/229/60 160/207/60
