# Blender v2.83.1 OBJ File: 'jigsaw-48x27-3-step2.blend'
# www.blender.org
mtllib piece.543.mtl
o path1086
v -0.465552 0.037500 0.310569
v -0.458196 0.037500 0.195747
v -0.483368 0.037500 0.120408
v -0.553617 0.037500 0.115095
v -0.644855 0.037500 0.139504
v -0.723832 0.037500 0.135607
v -0.763326 0.037500 0.065127
v -0.760219 0.037500 -0.031207
v -0.717421 0.037500 -0.092915
v -0.642054 0.037500 -0.080896
v -0.558034 0.037500 -0.041573
v -0.493494 0.037500 -0.042747
v -0.468755 0.037500 -0.131083
v -0.472869 0.037500 -0.268681
v -0.500071 0.037500 -0.499737
v -0.302728 0.037500 -0.551934
v -0.185370 0.037500 -0.569935
v -0.110391 0.037500 -0.551855
v -0.109724 0.037500 -0.482154
v -0.140662 0.037500 -0.387586
v -0.141845 0.037500 -0.305479
v -0.072223 0.037500 -0.266211
v 0.028031 0.037500 -0.272340
v 0.098445 0.037500 -0.319476
v 0.099004 0.037500 -0.398901
v 0.071518 0.037500 -0.484534
v 0.078260 0.037500 -0.545967
v 0.162262 0.037500 -0.561687
v 0.289560 0.037500 -0.545748
v 0.501627 0.037500 -0.499737
v 0.480569 0.037500 -0.279026
v 0.480906 0.037500 -0.147171
v 0.510292 0.037500 -0.061584
v 0.578580 0.037500 -0.058030
v 0.663224 0.037500 -0.091336
v 0.733579 0.037500 -0.096098
v 0.764438 0.037500 -0.028172
v 0.752373 0.037500 0.071546
v 0.699391 0.037500 0.140888
v 0.612599 0.037500 0.138471
v 0.519522 0.037500 0.106018
v 0.452787 0.037500 0.106032
v 0.435464 0.037500 0.181994
v 0.452373 0.037500 0.301319
v 0.501627 0.037500 0.502172
v 0.134343 0.037500 0.548626
v 0.042813 0.037500 0.529669
v 0.034690 0.037500 0.469480
v 0.065793 0.037500 0.389094
v 0.071632 0.037500 0.317808
v 0.008313 0.037500 0.280135
v -0.085697 0.037500 0.281466
v -0.151344 0.037500 0.322416
v -0.149297 0.037500 0.398229
v -0.119106 0.037500 0.482797
v -0.120050 0.037500 0.544658
v -0.193317 0.037500 0.561366
v -0.307755 0.037500 0.546543
v -0.500071 0.037500 0.502172
v -0.465552 -0.037500 0.310569
v -0.458196 -0.037498 0.195747
v -0.483368 -0.037500 0.120408
v -0.553617 -0.037500 0.115095
v -0.644855 -0.037498 0.139504
v -0.723832 -0.037500 0.135607
v -0.763326 -0.037500 0.065127
v -0.760219 -0.037500 -0.031207
v -0.717421 -0.037500 -0.092915
v -0.642054 -0.037500 -0.080896
v -0.558034 -0.037500 -0.041573
v -0.493494 -0.037500 -0.042747
v -0.468755 -0.037498 -0.131083
v -0.472869 -0.037500 -0.268681
v -0.500071 -0.037500 -0.499737
v -0.302728 -0.037500 -0.551934
v -0.185370 -0.037500 -0.569935
v -0.110391 -0.037500 -0.551855
v -0.109724 -0.037500 -0.482154
v -0.140662 -0.037498 -0.387586
v -0.141845 -0.037500 -0.305479
v -0.072223 -0.037500 -0.266211
v 0.028031 -0.037500 -0.272340
v 0.098445 -0.037500 -0.319476
v 0.099004 -0.037500 -0.398901
v 0.071518 -0.037500 -0.484534
v 0.078260 -0.037500 -0.545967
v 0.162262 -0.037500 -0.561687
v 0.289560 -0.037500 -0.545748
v 0.501627 -0.037500 -0.499737
v 0.480569 -0.037498 -0.279026
v 0.480906 -0.037500 -0.147171
v 0.510292 -0.037500 -0.061584
v 0.578580 -0.037498 -0.058030
v 0.663224 -0.037498 -0.091336
v 0.733579 -0.037500 -0.096098
v 0.764438 -0.037500 -0.028172
v 0.752373 -0.037500 0.071546
v 0.699391 -0.037500 0.140888
v 0.612599 -0.037500 0.138471
v 0.519522 -0.037500 0.106018
v 0.452787 -0.037500 0.106032
v 0.435464 -0.037500 0.181994
v 0.452373 -0.037498 0.301319
v 0.501627 -0.037500 0.502172
v 0.134343 -0.037500 0.548626
v 0.042813 -0.037500 0.529669
v 0.034690 -0.037500 0.469480
v 0.065793 -0.037498 0.389094
v 0.071632 -0.037500 0.317808
v 0.008313 -0.037500 0.280135
v -0.085697 -0.037498 0.281466
v -0.151344 -0.037500 0.322416
v -0.149297 -0.037498 0.398229
v -0.119106 -0.037498 0.482797
v -0.120050 -0.037500 0.544658
v -0.193317 -0.037500 0.561366
v -0.307755 -0.037500 0.546543
v -0.500071 -0.037500 0.502172
v -0.723832 0.037500 0.135607
v -0.763326 0.037500 0.065127
v -0.760219 0.037500 -0.031207
v -0.717421 0.037500 -0.092915
v -0.717421 0.037500 -0.092915
v -0.644855 0.037500 0.139504
v -0.642054 0.037500 -0.080896
v -0.553617 0.037500 0.115095
v -0.558034 0.037500 -0.041573
v -0.493494 0.037500 -0.042747
v -0.493494 0.037500 -0.042747
v -0.483368 0.037500 0.120408
v -0.483368 0.037500 0.120408
v -0.468755 0.037500 -0.131083
v -0.472869 0.037500 -0.268681
v -0.500071 0.037500 -0.499737
v -0.500071 0.037500 -0.499737
v -0.500071 0.037500 0.502172
v -0.500071 0.037500 0.502172
v -0.465552 0.037500 0.310569
v -0.458196 0.037500 0.195747
v -0.307755 0.037500 0.546543
v -0.302728 0.037500 -0.551934
v -0.193317 0.037500 0.561366
v -0.185370 0.037500 -0.569935
v -0.120050 0.037500 0.544658
v -0.120050 0.037500 0.544658
v -0.151344 0.037500 0.322416
v -0.149297 0.037500 0.398229
v -0.110391 0.037500 -0.551855
v -0.110391 0.037500 -0.551855
v -0.085697 0.037500 0.281466
v -0.140662 0.037500 -0.387586
v -0.141845 0.037500 -0.305479
v -0.141845 0.037500 -0.305479
v -0.119106 0.037500 0.482797
v -0.072223 0.037500 -0.266211
v -0.109724 0.037500 -0.482154
v 0.008313 0.037500 0.280135
v 0.028031 0.037500 -0.272340
v 0.071632 0.037500 0.317808
v 0.071632 0.037500 0.317808
v 0.098445 0.037500 -0.319476
v 0.042813 0.037500 0.529669
v 0.042813 0.037500 0.529669
v 0.034690 0.037500 0.469480
v 0.065793 0.037500 0.389094
v 0.134343 0.037500 0.548626
v 0.099004 0.037500 -0.398901
v 0.071518 0.037500 -0.484534
v 0.078260 0.037500 -0.545967
v 0.078260 0.037500 -0.545967
v 0.162262 0.037500 -0.561687
v 0.289560 0.037500 -0.545748
v 0.501627 0.037500 0.502172
v 0.501627 0.037500 0.502172
v 0.435464 0.037500 0.181994
v 0.452373 0.037500 0.301319
v 0.452787 0.037500 0.106032
v 0.452787 0.037500 0.106032
v 0.519522 0.037500 0.106018
v 0.480569 0.037500 -0.279026
v 0.480906 0.037500 -0.147171
v 0.501627 0.037500 -0.499737
v 0.501627 0.037500 -0.499737
v 0.510292 0.037500 -0.061584
v 0.510292 0.037500 -0.061584
v 0.578580 0.037500 -0.058030
v 0.612599 0.037500 0.138471
v 0.663224 0.037500 -0.091336
v 0.699391 0.037500 0.140888
v 0.733579 0.037500 -0.096098
v 0.733579 0.037500 -0.096098
v 0.752373 0.037500 0.071546
v 0.764438 0.037500 -0.028172
v -0.723832 -0.037500 0.135607
v -0.763326 -0.037500 0.065127
v -0.760219 -0.037500 -0.031207
v -0.717421 -0.037500 -0.092915
v -0.717421 -0.037500 -0.092915
v -0.644855 -0.037498 0.139504
v -0.642054 -0.037500 -0.080896
v -0.553617 -0.037500 0.115095
v -0.558034 -0.037500 -0.041573
v -0.493494 -0.037500 -0.042747
v -0.493494 -0.037500 -0.042747
v -0.483368 -0.037500 0.120408
v -0.483368 -0.037500 0.120408
v -0.468755 -0.037498 -0.131083
v -0.472869 -0.037500 -0.268681
v -0.500071 -0.037500 -0.499737
v -0.500071 -0.037500 -0.499737
v -0.500071 -0.037500 0.502172
v -0.500071 -0.037500 0.502172
v -0.465552 -0.037500 0.310569
v -0.458196 -0.037498 0.195747
v -0.307755 -0.037500 0.546543
v -0.302728 -0.037500 -0.551934
v -0.193317 -0.037500 0.561366
v -0.185370 -0.037500 -0.569935
v -0.120050 -0.037500 0.544658
v -0.120050 -0.037500 0.544658
v -0.151344 -0.037500 0.322416
v -0.149297 -0.037498 0.398229
v -0.110391 -0.037500 -0.551855
v -0.110391 -0.037500 -0.551855
v -0.085697 -0.037498 0.281466
v -0.140662 -0.037498 -0.387586
v -0.141845 -0.037500 -0.305479
v -0.141845 -0.037500 -0.305479
v -0.119106 -0.037498 0.482797
v -0.072223 -0.037500 -0.266211
v -0.109724 -0.037500 -0.482154
v 0.008313 -0.037500 0.280135
v 0.028031 -0.037500 -0.272340
v 0.071632 -0.037500 0.317808
v 0.071632 -0.037500 0.317808
v 0.098445 -0.037500 -0.319476
v 0.042813 -0.037500 0.529669
v 0.042813 -0.037500 0.529669
v 0.034690 -0.037500 0.469480
v 0.065793 -0.037498 0.389094
v 0.134343 -0.037500 0.548626
v 0.099004 -0.037500 -0.398901
v 0.071518 -0.037500 -0.484534
v 0.078260 -0.037500 -0.545967
v 0.078260 -0.037500 -0.545967
v 0.162262 -0.037500 -0.561687
v 0.289560 -0.037500 -0.545748
v 0.501627 -0.037500 0.502172
v 0.501627 -0.037500 0.502172
v 0.435464 -0.037500 0.181994
v 0.452373 -0.037498 0.301319
v 0.452787 -0.037500 0.106032
v 0.452787 -0.037500 0.106032
v 0.519522 -0.037500 0.106018
v 0.480569 -0.037498 -0.279026
v 0.480906 -0.037500 -0.147171
v 0.501627 -0.037500 -0.499737
v 0.501627 -0.037500 -0.499737
v 0.510292 -0.037500 -0.061584
v 0.510292 -0.037500 -0.061584
v 0.578580 -0.037498 -0.058030
v 0.612599 -0.037500 0.138471
v 0.663224 -0.037498 -0.091336
v 0.699391 -0.037500 0.140888
v 0.733579 -0.037500 -0.096098
v 0.733579 -0.037500 -0.096098
v 0.752373 -0.037500 0.071546
v 0.764438 -0.037500 -0.028172
vt 0.500000 0.500000
vt 0.500000 0.500000
vt 0.500000 0.500000
vt 0.500000 0.500000
vt 0.500000 0.500000
vt 0.500000 0.500000
vt 0.500000 0.500000
vt 0.500000 0.500000
vt 0.500000 0.500000
vt 0.500000 0.500000
vt 0.500000 0.500000
vt 0.500000 0.500000
vt 0.500000 0.500000
vt 0.500000 0.500000
vt 0.500000 0.500000
vt 0.500000 0.500000
vt 0.500000 0.500000
vt 0.500000 0.500000
vt 0.500000 0.500000
vt 0.500000 0.500000
vt 0.500000 0.500000
vt 0.500000 0.500000
vt 0.500000 0.500000
vt 0.500000 0.500000
vt 0.500000 0.500000
vt 0.500000 0.500000
vt 0.500000 0.500000
vt 0.500000 0.500000
vt 0.500000 0.500000
vt 0.500000 0.500000
vt 0.500000 0.500000
vt 0.500000 0.500000
vt 0.500000 0.500000
vt 0.500000 0.500000
vt 0.500000 0.500000
vt 0.500000 0.500000
vt 0.500000 0.500000
vt 0.500000 0.500000
vt 0.500000 0.500000
vt 0.500000 0.500000
vt 0.500000 0.500000
vt 0.500000 0.500000
vt 0.500000 0.500000
vt 0.500000 0.500000
vt 0.500000 0.500000
vt 0.500000 0.500000
vt 0.500000 0.500000
vt 0.500000 0.500000
vt 0.500000 0.500000
vt 0.500000 0.500000
vt 0.500000 0.500000
vt 0.500000 0.500000
vt 0.500000 0.500000
vt 0.500000 0.500000
vt 0.500000 0.500000
vt 0.500000 0.500000
vt 0.500000 0.500000
vt 0.500000 0.500000
vt 0.500000 0.500000
vt 0.500000 0.500000
vt 0.500000 0.500000
vt 0.500000 0.500000
vt 0.500000 0.500000
vt 0.500000 0.500000
vt 0.500000 0.500000
vt 0.500000 0.500000
vt 0.500000 0.500000
vt 0.500000 0.500000
vt 0.500000 0.500000
vt 0.500000 0.500000
vt 0.500000 0.500000
vt 0.500000 0.500000
vt 0.500000 0.500000
vt 0.500000 0.500000
vt 0.500000 0.500000
vt 0.500000 0.500000
vt 0.500000 0.500000
vt 0.500000 0.500000
vt 0.500000 0.500000
vt 0.500000 0.500000
vt 0.500000 0.500000
vt 0.500000 0.500000
vt 0.500000 0.500000
vt 0.500000 0.500000
vt 0.500000 0.500000
vt 0.500000 0.500000
vt 0.500000 0.500000
vt 0.500000 0.500000
vt 0.500000 0.500000
vt 0.500000 0.500000
vt 0.500000 0.500000
vt 0.500000 0.500000
vt 0.500000 0.500000
vt 0.500000 0.500000
vt 0.500000 0.500000
vt 0.500000 0.500000
vt 0.500000 0.500000
vt 0.500000 0.500000
vt 0.500000 0.500000
vt 0.500000 0.500000
vt 0.500000 0.500000
vt 0.500000 0.500000
vt 0.500000 0.500000
vt 0.500000 0.500000
vt 0.500000 0.500000
vt 0.500000 0.500000
vt 0.500000 0.500000
vt 0.500000 0.500000
vt 0.500000 0.500000
vt 0.500000 0.500000
vt 0.500000 0.500000
vt 0.500000 0.500000
vt 0.500000 0.500000
vt 0.500000 0.500000
vt 0.500000 0.500000
vt 0.500000 0.500000
vt 0.500000 0.500000
vt 0.500000 0.500000
vt 0.500000 0.500000
vt 0.500000 0.500000
vt 0.500000 0.500000
vt 0.500000 0.500000
vt 0.500000 0.500000
vt 0.500000 0.500000
vt 0.500000 0.500000
vt 0.500000 0.500000
vt 0.500000 0.500000
vt 0.500000 0.500000
vt 0.500000 0.500000
vt 0.500000 0.500000
vt 0.500000 0.500000
vt 0.500000 0.500000
vt 0.500000 0.500000
vt 0.500000 0.500000
vt 0.500000 0.500000
vt 0.500000 0.500000
vt 0.500000 0.500000
vt 0.500000 0.500000
vt 0.500000 0.500000
vt 0.500000 0.500000
vt 0.500000 0.500000
vt 0.500000 0.500000
vt 0.500000 0.500000
vt 0.500000 0.500000
vt 0.500000 0.500000
vt 0.500000 0.500000
vt 0.500000 0.500000
vt 0.500000 0.500000
vt 0.500000 0.500000
vt 0.500000 0.500000
vt 0.500000 0.500000
vt 0.500000 0.500000
vt 0.500000 0.500000
vt 0.500000 0.500000
vt 0.500000 0.500000
vt 0.500000 0.500000
vt 0.500000 0.500000
vt 0.500000 0.500000
vt 0.500000 0.500000
vt 0.500000 0.500000
vt 0.500000 0.500000
vt 0.500000 0.500000
vt 0.500000 0.500000
vt 0.500000 0.500000
vt 0.500000 0.500000
vt 0.500000 0.500000
vt 0.500000 0.500000
vt 0.500000 0.500000
vt 0.500000 0.500000
vt 0.500000 0.500000
vt 0.500000 0.500000
vt 0.500000 0.500000
vt 0.500000 0.500000
vt 0.500000 0.500000
vt 0.500000 0.500000
vt 0.500000 0.500000
vt 0.500000 0.500000
vt 0.500000 0.500000
vt 0.500000 0.500000
vt 0.500000 0.500000
vt 0.500000 0.500000
vt 0.500000 0.500000
vt 0.500000 0.500000
vt 0.500000 0.500000
vt 0.500000 0.500000
vt 0.500000 0.500000
vt 0.500000 0.500000
vt 0.500000 0.500000
vt 0.500000 0.500000
vt 0.500000 0.500000
vt 0.500000 0.500000
vt 0.500000 0.500000
vt 0.500000 0.500000
vt 0.500000 0.500000
vt 0.500000 0.500000
vt 0.500000 0.500000
vt 0.500000 0.500000
vt 0.500000 0.500000
vt 0.500000 0.500000
vt 0.500000 0.500000
vt 0.500000 0.500000
vt 0.500000 0.500000
vt 0.500000 0.500000
vt 0.500000 0.500000
vt 0.500000 0.500000
vt 0.500000 0.500000
vt 0.500000 0.500000
vt 0.500000 0.500000
vt 0.500000 0.500000
vt 0.308461 0.579347
vt 0.307695 0.591587
vt 0.304834 0.591435
vt 0.299605 0.591975
vt 0.302997 0.592349
vt 0.299715 0.594573
vt 0.295651 0.591316
vt 0.290744 0.585482
vt 0.293828 0.579623
vt 0.305169 0.556322
vt 0.308752 0.570463
vt 0.307772 0.573066
vt 0.296256 0.577271
vt 0.298038 0.591044
vt 0.295404 0.579699
vt 0.299904 0.554894
vt 0.299229 0.551452
vt 0.303315 0.552710
vt 0.313457 0.563397
vt 0.313788 0.568103
vt 0.310403 0.570442
vt 0.313585 0.585296
vt 0.312500 0.592593
vt 0.299904 0.557361
vt 0.303389 0.555235
vt 0.296284 0.573795
vt 0.295500 0.571454
vt 0.303791 0.597842
vt 0.304041 0.600629
vt 0.302758 0.602211
vt 0.307644 0.576773
vt 0.299208 0.597946
vt 0.300754 0.602326
vt 0.307911 0.556334
vt 0.312500 0.555556
vt 0.304008 0.549581
vt 0.300621 0.546284
vt 0.295843 0.557377
vt 0.298324 0.558002
vt 0.312134 0.578160
vt 0.313584 0.578184
vt 0.313960 0.580957
vt 0.290436 0.581251
vt 0.310168 0.579304
vt 0.292070 0.578507
vt 0.312184 0.571459
vt 0.302973 0.594736
vt 0.299289 0.600866
vt 0.291667 0.592593
vt 0.290783 0.578542
vt 0.302694 0.545838
vt 0.304107 0.546979
vt 0.299179 0.548243
vt 0.294018 0.571670
vt 0.290701 0.569136
vt 0.313461 0.571209
vt 0.291095 0.572520
vt 0.292346 0.572820
vt 0.291667 0.555556
vn 0.0000 -1.0000 0.0000
vn -0.8724 0.0000 0.4888
vn -0.9995 0.0000 -0.0322
vn -0.8217 0.0000 -0.5699
vn -0.0493 0.0000 0.9988
vn 0.1575 0.0000 -0.9875
vn 0.2584 0.0000 0.9660
vn 0.4239 0.0000 -0.9057
vn -0.0182 0.0000 -0.9998
vn -0.0754 0.0000 0.9972
vn -0.9629 0.0000 -0.2697
vn -0.9931 0.0000 0.1169
vn -0.9842 0.0000 -0.1773
vn -0.9485 0.0000 0.3169
vn -0.9996 0.0000 0.0299
vn -0.9980 0.0000 -0.0639
vn -0.2248 0.0000 0.9744
vn -0.2557 0.0000 -0.9668
vn -0.1285 0.0000 0.9917
vn -0.1516 0.0000 -0.9884
vn 0.2223 0.0000 0.9750
vn 0.9996 0.0000 -0.0270
vn 0.2344 0.0000 -0.9721
vn 0.5293 0.0000 0.8485
vn 0.9999 0.0000 0.0144
vn 0.9999 0.0000 0.0153
vn 0.9418 0.0000 -0.3362
vn 0.4913 0.0000 -0.8710
vn 0.9504 0.0000 0.3109
vn 1.0000 0.0000 -0.0096
vn 0.0141 0.0000 0.9999
vn -0.0610 0.0000 -0.9981
vn -0.5113 0.0000 0.8594
vn -0.5563 0.0000 -0.8310
vn -0.9910 0.0000 0.1338
vn -0.9326 0.0000 -0.3609
vn -0.2028 0.0000 0.9792
vn -0.9967 0.0000 -0.0816
vn -0.9522 0.0000 0.3056
vn -0.9940 0.0000 -0.1091
vn -0.1839 0.0000 -0.9829
vn -1.0000 0.0000 -0.0070
vn 0.1242 0.0000 -0.9923
vn 0.1255 0.0000 0.9921
vn 0.9901 0.0000 -0.1403
vn 0.9750 0.0000 0.2223
vn 0.0002 0.0000 1.0000
vn 1.0000 0.0000 -0.0026
vn 0.9955 0.0000 0.0950
vn 0.2120 0.0000 -0.9773
vn 0.9458 0.0000 -0.3247
vn 0.9712 0.0000 -0.2382
vn 0.0520 0.0000 -0.9986
vn -0.3292 0.0000 0.9443
vn -0.3662 0.0000 -0.9306
vn -0.0278 0.0000 0.9996
vn -0.0675 0.0000 -0.9977
vn 0.7946 0.0000 0.6071
vn 0.9928 0.0000 0.1201
vn 0.9105 0.0000 -0.4136
vn 0.0000 1.0000 -0.0000
usemtl BackMat.001
s off
f 227/1/1 207/2/1 208/3/1
f 205/4/1 201/5/1 203/6/1
f 213/7/1 222/8/1 215/9/1
f 256/10/1 233/11/1 236/12/1
f 225/13/1 214/14/1 205/4/1
f 222/8/1 213/7/1 221/15/1
f 254/16/1 261/17/1 262/18/1
f 247/19/1 242/20/1 246/21/1
f 216/22/1 208/3/1 209/23/1
f 252/24/1 259/25/1 254/16/1
f 252/24/1 234/26/1 232/27/1
f 200/28/1 196/29/1 197/30/1
f 230/31/1 225/13/1 203/6/1
f 233/11/1 232/27/1 230/31/1
f 261/17/1 254/16/1 259/25/1
f 199/32/1 195/33/1 200/28/1
f 255/34/1 247/19/1 257/35/1
f 263/36/1 267/37/1 261/17/1
f 230/31/1 203/6/1 207/2/1
f 251/38/1 234/26/1 250/39/1
f 231/40/1 218/41/1 223/42/1
f 215/9/1 222/8/1 217/43/1
f 255/34/1 236/12/1 247/19/1
f 226/44/1 227/1/1 208/3/1
f 256/10/1 236/12/1 255/34/1
f 259/25/1 252/24/1 256/10/1
f 229/45/1 217/43/1 222/8/1
f 242/20/1 243/46/1 246/21/1
f 202/47/1 199/32/1 200/28/1
f 199/32/1 202/47/1 201/5/1
f 195/33/1 199/32/1 194/48/1
f 213/7/1 215/9/1 211/49/1
f 200/28/1 195/33/1 196/29/1
f 221/15/1 214/14/1 225/13/1
f 219/50/1 217/43/1 229/45/1
f 268/51/1 267/37/1 263/36/1
f 265/52/1 268/51/1 263/36/1
f 264/53/1 262/18/1 267/37/1
f 225/13/1 205/4/1 203/6/1
f 252/24/1 232/27/1 233/11/1
f 203/6/1 201/5/1 202/47/1
f 234/26/1 251/38/1 240/54/1
f 256/10/1 252/24/1 233/11/1
f 218/41/1 226/44/1 216/22/1
f 216/22/1 226/44/1 208/3/1
f 241/55/1 240/54/1 251/38/1
f 246/21/1 243/46/1 244/56/1
f 261/17/1 267/37/1 262/18/1
f 226/44/1 218/41/1 231/40/1
f 237/57/1 239/58/1 241/55/1
f 240/54/1 241/55/1 239/58/1
f 214/14/1 221/15/1 213/7/1
f 230/31/1 207/2/1 227/1/1
f 241/55/1 251/38/1 248/59/1
f 247/19/1 236/12/1 242/20/1
f 232/27/1 225/13/1 230/31/1
f 250/39/1 234/26/1 252/24/1
f 6/60/2 7/61/2 66/62/2 65/63/2
f 7/61/3 8/64/3 67/65/3 66/62/3
f 8/64/4 123/66/4 198/67/4 67/65/4
f 5/68/5 6/60/5 65/63/5 64/69/5
f 9/70/6 10/71/6 69/72/6 68/73/6
f 4/74/7 5/68/7 64/69/7 63/75/7
f 10/71/8 11/76/8 70/77/8 69/72/8
f 11/76/9 129/78/9 204/79/9 70/77/9
f 131/80/10 4/74/10 63/75/10 206/81/10
f 12/82/11 13/83/11 72/84/11 71/85/11
f 14/86/12 135/87/12 210/88/12 73/89/12
f 137/90/13 1/91/13 60/92/13 212/93/13
f 2/94/14 3/95/14 62/96/14 61/97/14
f 13/83/15 14/86/15 73/89/15 72/84/15
f 1/91/16 2/94/16 61/97/16 60/92/16
f 58/98/17 59/99/17 118/100/17 117/101/17
f 15/102/18 16/103/18 75/104/18 74/105/18
f 57/106/19 58/98/19 117/101/19 116/107/19
f 16/103/20 17/108/20 76/109/20 75/104/20
f 145/110/21 57/106/21 116/107/21 220/111/21
f 53/112/22 54/113/22 113/114/22 112/115/22
f 17/108/23 149/116/23 224/117/23 76/109/23
f 52/118/24 53/112/24 112/115/24 111/119/24
f 20/120/25 153/121/25 228/122/25 79/123/25
f 55/124/26 56/125/26 115/126/26 114/127/26
f 54/113/27 55/124/27 114/127/27 113/114/27
f 21/128/28 22/129/28 81/130/28 80/131/28
f 19/132/29 20/120/29 79/123/29 78/133/29
f 18/134/30 19/132/30 78/133/30 77/135/30
f 51/136/31 52/118/31 111/119/31 110/137/31
f 22/129/32 23/138/32 82/139/32 81/130/32
f 160/140/33 51/136/33 110/137/33 235/141/33
f 23/138/34 24/142/34 83/143/34 82/139/34
f 163/144/35 48/145/35 107/146/35 238/147/35
f 48/145/36 49/148/36 108/149/36 107/146/36
f 46/150/37 47/151/37 106/152/37 105/153/37
f 49/148/38 50/154/38 109/155/38 108/149/38
f 25/156/39 26/157/39 85/158/39 84/159/39
f 26/157/40 170/160/40 245/161/40 85/158/40
f 27/162/41 28/163/41 87/164/41 86/165/41
f 24/142/42 25/156/42 84/159/42 83/143/42
f 28/163/43 29/166/43 88/167/43 87/164/43
f 174/168/44 46/150/44 105/153/44 249/169/44
f 43/170/45 44/171/45 103/172/45 102/173/45
f 178/174/46 43/170/46 102/173/46 253/175/46
f 41/176/47 42/177/47 101/178/47 100/179/47
f 31/180/48 32/181/48 91/182/48 90/183/48
f 183/184/49 31/180/49 90/183/49 258/185/49
f 29/166/50 30/186/50 89/187/50 88/167/50
f 32/181/51 185/188/51 260/189/51 91/182/51
f 44/171/52 45/190/52 104/191/52 103/172/52
f 33/192/53 34/193/53 93/194/53 92/195/53
f 40/196/54 41/176/54 100/179/54 99/197/54
f 34/193/55 35/198/55 94/199/55 93/194/55
f 39/200/56 40/196/56 99/197/56 98/201/56
f 35/198/57 191/202/57 266/203/57 94/199/57
f 38/204/58 39/200/58 98/201/58 97/205/58
f 37/206/59 38/204/59 97/205/59 96/207/59
f 36/208/60 37/206/60 96/207/60 95/209/60
usemtl FrontMat.001
f 152/210/61 133/211/61 132/212/61
f 130/213/61 128/214/61 126/215/61
f 138/216/61 140/217/61 147/218/61
f 181/219/61 161/220/61 158/221/61
f 150/222/61 130/213/61 139/223/61
f 147/218/61 146/224/61 138/216/61
f 179/225/61 187/226/61 186/227/61
f 172/228/61 171/229/61 167/230/61
f 141/231/61 134/232/61 133/211/61
f 177/233/61 179/225/61 184/234/61
f 177/233/61 157/235/61 159/236/61
f 125/237/61 122/238/61 121/239/61
f 155/240/61 128/214/61 150/222/61
f 158/221/61 155/240/61 157/235/61
f 186/227/61 184/234/61 179/225/61
f 124/241/61 125/237/61 120/242/61
f 180/243/61 182/244/61 172/228/61
f 188/245/61 186/227/61 192/246/61
f 155/240/61 132/212/61 128/214/61
f 176/247/61 175/248/61 159/236/61
f 156/249/61 148/250/61 143/251/61
f 140/217/61 142/252/61 147/218/61
f 180/243/61 172/228/61 161/220/61
f 151/253/61 133/211/61 152/210/61
f 181/219/61 180/243/61 161/220/61
f 184/234/61 181/219/61 177/233/61
f 154/254/61 147/218/61 142/252/61
f 167/230/61 171/229/61 168/255/61
f 127/256/61 125/237/61 124/241/61
f 124/241/61 126/215/61 127/256/61
f 120/242/61 119/257/61 124/241/61
f 138/216/61 136/258/61 140/217/61
f 125/237/61 121/239/61 120/242/61
f 146/224/61 150/222/61 139/223/61
f 144/259/61 154/254/61 142/252/61
f 193/260/61 188/245/61 192/246/61
f 190/261/61 188/245/61 193/260/61
f 189/262/61 192/246/61 187/226/61
f 150/222/61 128/214/61 130/213/61
f 177/233/61 158/221/61 157/235/61
f 128/214/61 127/256/61 126/215/61
f 159/236/61 165/263/61 176/247/61
f 181/219/61 158/221/61 177/233/61
f 143/251/61 141/231/61 151/253/61
f 141/231/61 133/211/61 151/253/61
f 166/264/61 176/247/61 165/263/61
f 171/229/61 169/265/61 168/255/61
f 186/227/61 187/226/61 192/246/61
f 151/253/61 156/249/61 143/251/61
f 162/266/61 166/264/61 164/267/61
f 165/263/61 164/267/61 166/264/61
f 139/223/61 138/216/61 146/224/61
f 155/240/61 152/210/61 132/212/61
f 166/264/61 173/268/61 176/247/61
f 172/228/61 167/230/61 161/220/61
f 157/235/61 155/240/61 150/222/61
f 175/248/61 177/233/61 159/236/61
