# Blender v2.83.1 OBJ File: 'jigsaw-48x27-3-step2.blend'
# www.blender.org
mtllib piece.1260.mtl
o path2520
v -0.323007 0.037500 -0.530066
v -0.200442 0.037500 -0.534796
v -0.122535 0.037500 -0.511465
v -0.123054 0.037500 -0.449707
v -0.158525 0.037500 -0.371344
v -0.166177 0.037500 -0.306229
v -0.103495 0.037500 -0.278309
v -0.009006 0.037500 -0.287899
v 0.058498 0.037500 -0.329399
v 0.060043 0.037500 -0.394470
v 0.035914 0.037500 -0.463837
v 0.046216 0.037500 -0.515480
v 0.132286 0.037500 -0.533707
v 0.472513 0.037500 -0.502575
v 0.432174 0.037500 -0.300819
v 0.422446 0.037500 -0.181435
v 0.448578 0.037500 -0.106516
v 0.524103 0.037500 -0.108995
v 0.619781 0.037500 -0.144375
v 0.695647 0.037500 -0.148779
v 0.720558 0.037500 -0.079615
v 0.698643 0.037500 0.020596
v 0.642846 0.037500 0.088057
v 0.567572 0.037500 0.080873
v 0.493050 0.037500 0.044741
v 0.440975 0.037500 0.047256
v 0.426377 0.037500 0.135080
v 0.472513 0.037500 0.499123
v -0.529397 0.037500 0.499123
v -0.567402 0.037500 0.283077
v -0.576941 0.037500 0.153534
v -0.553402 0.037500 0.068363
v -0.483382 0.037500 0.062300
v -0.389740 0.037500 0.091599
v -0.304419 0.037500 0.092907
v -0.254407 0.037500 0.023605
v -0.246869 0.037500 -0.075974
v -0.284010 0.037500 -0.144753
v -0.362188 0.037500 -0.142185
v -0.454307 0.037500 -0.109800
v -0.527412 0.037500 -0.109655
v -0.557398 0.037500 -0.184938
v -0.555559 0.037500 -0.303297
v -0.529397 0.037500 -0.502575
v -0.323007 -0.037500 -0.530066
v -0.200442 -0.037498 -0.534796
v -0.122535 -0.037500 -0.511465
v -0.123054 -0.037500 -0.449707
v -0.158525 -0.037498 -0.371344
v -0.166177 -0.037500 -0.306229
v -0.103495 -0.037500 -0.278309
v -0.009006 -0.037500 -0.287899
v 0.058498 -0.037500 -0.329399
v 0.060043 -0.037500 -0.394470
v 0.035914 -0.037500 -0.463837
v 0.046216 -0.037500 -0.515480
v 0.132286 -0.037500 -0.533707
v 0.472513 -0.037500 -0.502575
v 0.432174 -0.037498 -0.300819
v 0.422446 -0.037500 -0.181435
v 0.448578 -0.037500 -0.106516
v 0.524103 -0.037500 -0.108995
v 0.619781 -0.037500 -0.144375
v 0.695647 -0.037498 -0.148779
v 0.720558 -0.037500 -0.079615
v 0.698643 -0.037500 0.020596
v 0.642846 -0.037500 0.088057
v 0.567572 -0.037500 0.080873
v 0.493050 -0.037500 0.044741
v 0.440975 -0.037500 0.047256
v 0.426377 -0.037500 0.135080
v 0.472513 -0.037500 0.499123
v -0.529397 -0.037500 0.499123
v -0.567402 -0.037500 0.283077
v -0.576941 -0.037500 0.153534
v -0.553402 -0.037500 0.068363
v -0.483382 -0.037500 0.062300
v -0.389740 -0.037500 0.091599
v -0.304419 -0.037500 0.092907
v -0.254407 -0.037500 0.023605
v -0.246869 -0.037498 -0.075974
v -0.284010 -0.037500 -0.144753
v -0.362188 -0.037498 -0.142185
v -0.454307 -0.037500 -0.109800
v -0.527412 -0.037498 -0.109655
v -0.557398 -0.037500 -0.184938
v -0.555559 -0.037498 -0.303297
v -0.529397 -0.037500 -0.502575
v -0.323007 0.037500 -0.530066
v -0.200442 0.037500 -0.534796
v -0.122535 0.037500 -0.511465
v -0.122535 0.037500 -0.511465
v 0.046216 0.037500 -0.515480
v 0.046216 0.037500 -0.515480
v 0.132286 0.037500 -0.533707
v 0.035914 0.037500 -0.463837
v -0.123054 0.037500 -0.449707
v -0.529397 0.037500 -0.502575
v -0.529397 0.037500 -0.502575
v 0.472513 0.037500 -0.502575
v 0.472513 0.037500 -0.502575
v 0.060043 0.037500 -0.394470
v -0.158525 0.037500 -0.371344
v -0.555559 0.037500 -0.303297
v 0.432174 0.037500 -0.300819
v 0.058498 0.037500 -0.329399
v -0.166177 0.037500 -0.306229
v -0.166177 0.037500 -0.306229
v -0.009006 0.037500 -0.287899
v -0.103495 0.037500 -0.278309
v -0.557398 0.037500 -0.184938
v 0.422446 0.037500 -0.181435
v -0.527412 0.037500 -0.109655
v -0.527412 0.037500 -0.109655
v -0.284010 0.037500 -0.144753
v -0.284010 0.037500 -0.144753
v -0.362188 0.037500 -0.142185
v 0.448578 0.037500 -0.106516
v 0.448578 0.037500 -0.106516
v 0.619781 0.037500 -0.144375
v 0.695647 0.037500 -0.148779
v 0.695647 0.037500 -0.148779
v 0.720558 0.037500 -0.079615
v -0.246869 0.037500 -0.075974
v 0.524103 0.037500 -0.108995
v -0.454307 0.037500 -0.109800
v 0.698643 0.037500 0.020596
v -0.254407 0.037500 0.023605
v 0.642846 0.037500 0.088057
v -0.304419 0.037500 0.092907
v 0.493050 0.037500 0.044741
v 0.440975 0.037500 0.047256
v 0.440975 0.037500 0.047256
v 0.567572 0.037500 0.080873
v 0.426377 0.037500 0.135080
v -0.553402 0.037500 0.068363
v -0.553402 0.037500 0.068363
v -0.483382 0.037500 0.062300
v -0.389740 0.037500 0.091599
v -0.576941 0.037500 0.153534
v -0.567402 0.037500 0.283077
v -0.529397 0.037500 0.499123
v -0.529397 0.037500 0.499123
v 0.472513 0.037500 0.499123
v 0.472513 0.037500 0.499123
v -0.323007 -0.037500 -0.530066
v -0.200442 -0.037498 -0.534796
v -0.122535 -0.037500 -0.511465
v -0.122535 -0.037500 -0.511465
v 0.046216 -0.037500 -0.515480
v 0.046216 -0.037500 -0.515480
v 0.132286 -0.037500 -0.533707
v 0.035914 -0.037500 -0.463837
v -0.123054 -0.037500 -0.449707
v -0.529397 -0.037500 -0.502575
v -0.529397 -0.037500 -0.502575
v 0.472513 -0.037500 -0.502575
v 0.472513 -0.037500 -0.502575
v 0.060043 -0.037500 -0.394470
v -0.158525 -0.037498 -0.371344
v -0.555559 -0.037498 -0.303297
v 0.432174 -0.037498 -0.300819
v 0.058498 -0.037500 -0.329399
v -0.166177 -0.037500 -0.306229
v -0.166177 -0.037500 -0.306229
v -0.009006 -0.037500 -0.287899
v -0.103495 -0.037500 -0.278309
v -0.557398 -0.037500 -0.184938
v 0.422446 -0.037500 -0.181435
v -0.527412 -0.037498 -0.109655
v -0.527412 -0.037498 -0.109655
v -0.284010 -0.037500 -0.144753
v -0.284010 -0.037500 -0.144753
v -0.362188 -0.037498 -0.142185
v 0.448578 -0.037500 -0.106516
v 0.448578 -0.037500 -0.106516
v 0.619781 -0.037500 -0.144375
v 0.695647 -0.037498 -0.148779
v 0.695647 -0.037498 -0.148779
v 0.720558 -0.037500 -0.079615
v -0.246869 -0.037498 -0.075974
v 0.524103 -0.037500 -0.108995
v -0.454307 -0.037500 -0.109800
v 0.698643 -0.037500 0.020596
v -0.254407 -0.037500 0.023605
v 0.642846 -0.037500 0.088057
v -0.304419 -0.037500 0.092907
v 0.493050 -0.037500 0.044741
v 0.440975 -0.037500 0.047256
v 0.440975 -0.037500 0.047256
v 0.567572 -0.037500 0.080873
v 0.426377 -0.037500 0.135080
v -0.553402 -0.037500 0.068363
v -0.553402 -0.037500 0.068363
v -0.483382 -0.037500 0.062300
v -0.389740 -0.037500 0.091599
v -0.576941 -0.037500 0.153534
v -0.567402 -0.037500 0.283077
v -0.529397 -0.037500 0.499123
v -0.529397 -0.037500 0.499123
v 0.472513 -0.037500 0.499123
v 0.472513 -0.037500 0.499123
vt 0.500000 0.500000
vt 0.500000 0.500000
vt 0.500000 0.500000
vt 0.500000 0.500000
vt 0.500000 0.500000
vt 0.500000 0.500000
vt 0.500000 0.500000
vt 0.500000 0.500000
vt 0.500000 0.500000
vt 0.500000 0.500000
vt 0.500000 0.500000
vt 0.500000 0.500000
vt 0.500000 0.500000
vt 0.500000 0.500000
vt 0.500000 0.500000
vt 0.500000 0.500000
vt 0.500000 0.500000
vt 0.500000 0.500000
vt 0.500000 0.500000
vt 0.500000 0.500000
vt 0.500000 0.500000
vt 0.500000 0.500000
vt 0.500000 0.500000
vt 0.500000 0.500000
vt 0.500000 0.500000
vt 0.500000 0.500000
vt 0.500000 0.500000
vt 0.500000 0.500000
vt 0.500000 0.500000
vt 0.500000 0.500000
vt 0.500000 0.500000
vt 0.500000 0.500000
vt 0.500000 0.500000
vt 0.500000 0.500000
vt 0.500000 0.500000
vt 0.500000 0.500000
vt 0.500000 0.500000
vt 0.500000 0.500000
vt 0.500000 0.500000
vt 0.500000 0.500000
vt 0.500000 0.500000
vt 0.500000 0.500000
vt 0.500000 0.500000
vt 0.500000 0.500000
vt 0.500000 0.500000
vt 0.500000 0.500000
vt 0.500000 0.500000
vt 0.500000 0.500000
vt 0.500000 0.500000
vt 0.500000 0.500000
vt 0.500000 0.500000
vt 0.500000 0.500000
vt 0.500000 0.500000
vt 0.500000 0.500000
vt 0.500000 0.500000
vt 0.500000 0.500000
vt 0.500000 0.500000
vt 0.500000 0.500000
vt 0.500000 0.500000
vt 0.500000 0.500000
vt 0.500000 0.500000
vt 0.500000 0.500000
vt 0.500000 0.500000
vt 0.500000 0.500000
vt 0.500000 0.500000
vt 0.500000 0.500000
vt 0.500000 0.500000
vt 0.500000 0.500000
vt 0.500000 0.500000
vt 0.500000 0.500000
vt 0.500000 0.500000
vt 0.500000 0.500000
vt 0.500000 0.500000
vt 0.500000 0.500000
vt 0.500000 0.500000
vt 0.500000 0.500000
vt 0.500000 0.500000
vt 0.500000 0.500000
vt 0.500000 0.500000
vt 0.500000 0.500000
vt 0.500000 0.500000
vt 0.500000 0.500000
vt 0.500000 0.500000
vt 0.500000 0.500000
vt 0.500000 0.500000
vt 0.500000 0.500000
vt 0.500000 0.500000
vt 0.500000 0.500000
vt 0.500000 0.500000
vt 0.500000 0.500000
vt 0.500000 0.500000
vt 0.500000 0.500000
vt 0.500000 0.500000
vt 0.500000 0.500000
vt 0.500000 0.500000
vt 0.500000 0.500000
vt 0.500000 0.500000
vt 0.500000 0.500000
vt 0.500000 0.500000
vt 0.500000 0.500000
vt 0.500000 0.500000
vt 0.500000 0.500000
vt 0.500000 0.500000
vt 0.500000 0.500000
vt 0.500000 0.500000
vt 0.500000 0.500000
vt 0.500000 0.500000
vt 0.500000 0.500000
vt 0.500000 0.500000
vt 0.500000 0.500000
vt 0.500000 0.500000
vt 0.500000 0.500000
vt 0.500000 0.500000
vt 0.500000 0.500000
vt 0.500000 0.500000
vt 0.500000 0.500000
vt 0.500000 0.500000
vt 0.500000 0.500000
vt 0.500000 0.500000
vt 0.500000 0.500000
vt 0.500000 0.500000
vt 0.500000 0.500000
vt 0.500000 0.500000
vt 0.500000 0.500000
vt 0.500000 0.500000
vt 0.500000 0.500000
vt 0.500000 0.500000
vt 0.500000 0.500000
vt 0.500000 0.500000
vt 0.500000 0.500000
vt 0.500000 0.500000
vt 0.500000 0.500000
vt 0.500000 0.500000
vt 0.500000 0.500000
vt 0.500000 0.500000
vt 0.500000 0.500000
vt 0.500000 0.500000
vt 0.500000 0.500000
vt 0.500000 0.500000
vt 0.500000 0.500000
vt 0.500000 0.500000
vt 0.500000 0.500000
vt 0.500000 0.500000
vt 0.500000 0.500000
vt 0.500000 0.500000
vt 0.500000 0.500000
vt 0.500000 0.500000
vt 0.500000 0.500000
vt 0.500000 0.500000
vt 0.500000 0.500000
vt 0.500000 0.500000
vt 0.500000 0.500000
vt 0.500000 0.500000
vt 0.500000 0.500000
vt 0.500000 0.500000
vt 0.500000 0.500000
vt 0.500000 0.500000
vt 0.500000 0.500000
vt 0.233458 0.038053
vt 0.232643 0.023712
vt 0.236719 0.029777
vt 0.249344 0.016707
vt 0.250427 0.016800
vt 0.249502 0.022393
vt 0.229167 0.000000
vt 0.250000 0.000000
vt 0.233845 0.015019
vt 0.228376 0.007988
vt 0.232071 0.015068
vt 0.251977 0.015464
vt 0.251073 0.022485
vt 0.254702 0.017693
vt 0.239987 0.029100
vt 0.238023 0.028745
vt 0.235041 0.021264
vt 0.242925 0.038188
vt 0.241136 0.037514
vt 0.240922 0.035605
vt 0.234269 0.023807
vt 0.230123 0.016151
vt 0.228178 0.012778
vt 0.228623 0.029669
vt 0.237616 0.035082
vt 0.237627 0.037366
vt 0.236007 0.038228
vt 0.253062 0.023793
vt 0.249041 0.013460
vt 0.236878 0.032185
vt 0.228667 0.015927
vt 0.253542 0.015199
vt 0.234885 0.017582
vt 0.248959 0.025163
vt 0.250000 0.037037
vt 0.249161 0.029577
vt 0.241423 0.033040
vt 0.228584 0.025293
vt 0.229208 0.022509
vt 0.230728 0.022514
vt 0.241391 0.030634
vt 0.254640 0.023956
vt 0.255158 0.021398
vt 0.229167 0.037037
vn -0.0000 -1.0000 0.0000
vn -0.0386 0.0000 -0.9993
vn 0.2869 0.0000 -0.9580
vn -0.2072 0.0000 -0.9783
vn -0.9807 0.0000 -0.1956
vn 1.0000 0.0000 0.0084
vn -0.1320 0.0000 -0.9912
vn 0.0911 0.0000 -0.9958
vn -0.9445 0.0000 0.3285
vn 0.9110 0.0000 0.4124
vn -0.9915 0.0000 -0.1302
vn 0.9806 0.0000 0.1961
vn -0.9997 0.0000 -0.0237
vn 0.9932 0.0000 0.1167
vn -0.5237 0.0000 -0.8519
vn 0.4069 0.0000 -0.9135
vn -0.9999 0.0000 -0.0155
vn 0.9967 0.0000 0.0812
vn -0.1010 0.0000 -0.9949
vn -0.9290 0.0000 0.3700
vn 0.0328 0.0000 0.9995
vn 0.9442 0.0000 -0.3293
vn -0.0580 0.0000 -0.9983
vn 0.9408 0.0000 -0.3389
vn -0.8799 0.0000 0.4752
vn -0.3468 0.0000 -0.9379
vn 0.0020 0.0000 1.0000
vn 0.3317 0.0000 0.9434
vn -0.0328 0.0000 -0.9995
vn 0.9769 0.0000 0.2136
vn -0.9971 0.0000 -0.0755
vn 0.7706 0.0000 0.6373
vn -0.8109 0.0000 -0.5852
vn 0.0483 0.0000 0.9988
vn -0.4363 0.0000 0.8998
vn -0.0950 0.0000 0.9955
vn 0.9865 0.0000 0.1640
vn -0.0863 0.0000 -0.9963
vn 0.2986 0.0000 -0.9544
vn -0.9639 0.0000 -0.2664
vn 0.0153 0.0000 -0.9999
vn -0.9973 0.0000 0.0734
vn -0.9849 0.0000 0.1733
vn 0.0000 0.0000 1.0000
vn 0.9921 0.0000 -0.1257
vn 0.0000 1.0000 -0.0000
usemtl BackMat.001
s off
f 146/1/1 164/2/1 174/3/1
f 189/4/1 175/5/1 188/6/1
f 199/7/1 187/8/1 201/9/1
f 198/10/1 196/11/1 187/8/1
f 191/12/1 188/6/1 182/13/1
f 191/12/1 182/13/1 184/14/1
f 166/15/1 181/16/1 167/17/1
f 152/18/1 153/19/1 150/20/1
f 174/3/1 164/2/1 172/21/1
f 196/11/1 197/22/1 195/23/1
f 146/1/1 174/3/1 161/24/1
f 154/25/1 147/26/1 148/27/1
f 177/28/1 184/14/1 182/13/1
f 201/9/1 187/8/1 192/29/1
f 182/13/1 188/6/1 175/5/1
f 160/30/1 147/26/1 154/25/1
f 193/31/1 195/23/1 197/22/1
f 186/32/1 191/12/1 184/14/1
f 166/15/1 185/33/1 181/16/1
f 185/33/1 192/29/1 187/8/1
f 181/16/1 172/21/1 167/17/1
f 192/29/1 185/33/1 166/15/1
f 175/5/1 166/15/1 169/34/1
f 157/35/1 162/36/1 152/18/1
f 159/37/1 153/19/1 152/18/1
f 168/38/1 183/39/1 170/40/1
f 198/10/1 187/8/1 199/7/1
f 161/24/1 174/3/1 168/38/1
f 169/34/1 166/15/1 163/41/1
f 174/3/1 183/39/1 168/38/1
f 160/30/1 164/2/1 146/1/1
f 178/42/1 180/43/1 177/28/1
f 180/43/1 184/14/1 177/28/1
f 189/4/1 192/29/1 166/15/1
f 169/34/1 163/41/1 162/36/1
f 152/18/1 162/36/1 159/37/1
f 147/26/1 160/30/1 146/1/1
f 175/5/1 189/4/1 166/15/1
f 162/36/1 163/41/1 159/37/1
f 167/17/1 172/21/1 164/2/1
f 197/22/1 196/11/1 198/10/1
f 146/1/1 161/24/1 155/44/1
f 1/45/2 2/46/2 46/47/2 45/48/2
f 2/46/3 92/49/3 149/50/3 46/47/3
f 94/51/4 13/52/4 57/53/4 151/54/4
f 11/55/5 12/56/5 56/57/5 55/58/5
f 3/59/6 4/60/6 48/61/6 47/62/6
f 99/63/7 1/45/7 45/48/7 156/64/7
f 13/52/8 101/65/8 158/66/8 57/53/8
f 10/67/9 11/55/9 55/58/9 54/68/9
f 4/60/10 5/69/10 49/70/10 48/61/10
f 43/71/11 44/72/11 88/73/11 87/74/11
f 14/75/12 15/76/12 59/77/12 58/78/12
f 9/79/13 10/67/13 54/68/13 53/80/13
f 5/69/14 108/81/14 165/82/14 49/70/14
f 8/83/15 9/79/15 53/80/15 52/84/15
f 6/85/16 7/86/16 51/87/16 50/88/16
f 42/89/17 43/71/17 87/74/17 86/90/17
f 15/76/18 16/91/18 60/92/18 59/77/18
f 7/86/19 8/83/19 52/84/19 51/87/19
f 114/93/20 42/89/20 86/90/20 171/94/20
f 116/95/21 39/96/21 83/97/21 173/98/21
f 16/91/22 119/99/22 176/100/22 60/92/22
f 19/101/23 122/102/23 179/103/23 63/104/23
f 20/105/24 21/106/24 65/107/24 64/108/24
f 37/109/25 38/110/25 82/111/25 81/112/25
f 18/113/26 19/101/26 63/104/26 62/114/26
f 40/115/27 41/116/27 85/117/27 84/118/27
f 39/96/28 40/115/28 84/118/28 83/97/28
f 17/119/29 18/113/29 62/114/29 61/120/29
f 21/106/30 22/121/30 66/122/30 65/107/30
f 36/123/31 37/109/31 81/112/31 80/124/31
f 22/121/32 23/125/32 67/126/32 66/122/32
f 35/127/33 36/123/33 80/124/33 79/128/33
f 25/129/34 133/130/34 190/131/34 69/132/34
f 24/133/35 25/129/35 69/132/35 68/134/35
f 23/125/36 24/133/36 68/134/36 67/126/36
f 26/135/37 27/136/37 71/137/37 70/138/37
f 137/139/38 33/140/38 77/141/38 194/142/38
f 33/140/39 34/143/39 78/144/39 77/141/39
f 31/145/40 32/146/40 76/147/40 75/148/40
f 34/143/41 35/127/41 79/128/41 78/144/41
f 30/149/42 31/145/42 75/148/42 74/150/42
f 143/151/43 30/149/43 74/150/43 200/152/43
f 145/153/44 29/154/44 73/155/44 202/156/44
f 27/136/45 28/157/45 72/158/45 71/137/45
usemtl FrontMat.001
f 89/159/46 117/160/46 107/161/46
f 132/162/46 131/163/46 118/164/46
f 142/165/46 144/166/46 130/167/46
f 141/168/46 130/167/46 139/169/46
f 134/170/46 125/171/46 131/163/46
f 134/170/46 127/172/46 125/171/46
f 109/173/46 110/174/46 124/175/46
f 95/176/46 93/177/46 96/178/46
f 117/160/46 115/179/46 107/161/46
f 139/169/46 138/180/46 140/181/46
f 89/159/46 104/182/46 117/160/46
f 97/183/46 91/184/46 90/185/46
f 120/186/46 125/171/46 127/172/46
f 144/166/46 135/187/46 130/167/46
f 125/171/46 118/164/46 131/163/46
f 103/188/46 97/183/46 90/185/46
f 136/189/46 140/181/46 138/180/46
f 129/190/46 127/172/46 134/170/46
f 109/173/46 124/175/46 128/191/46
f 128/191/46 130/167/46 135/187/46
f 124/175/46 110/174/46 115/179/46
f 135/187/46 109/173/46 128/191/46
f 118/164/46 112/192/46 109/173/46
f 100/193/46 95/176/46 105/194/46
f 102/195/46 95/176/46 96/178/46
f 111/196/46 113/197/46 126/198/46
f 141/168/46 142/165/46 130/167/46
f 104/182/46 111/196/46 117/160/46
f 112/192/46 106/199/46 109/173/46
f 117/160/46 111/196/46 126/198/46
f 103/188/46 89/159/46 107/161/46
f 121/200/46 120/186/46 123/201/46
f 123/201/46 120/186/46 127/172/46
f 132/162/46 109/173/46 135/187/46
f 112/192/46 105/194/46 106/199/46
f 95/176/46 102/195/46 105/194/46
f 90/185/46 89/159/46 103/188/46
f 118/164/46 109/173/46 132/162/46
f 105/194/46 102/195/46 106/199/46
f 110/174/46 107/161/46 115/179/46
f 140/181/46 141/168/46 139/169/46
f 89/159/46 98/202/46 104/182/46
