# Blender v2.83.1 OBJ File: 'jigsaw-5x4-3-step2.blend'
# www.blender.org
mtllib piece.10.mtl
o path20_path20.001
v 0.535945 0.037500 -0.287397
v 0.543820 0.037500 -0.158871
v 0.521147 0.037500 -0.075269
v 0.456254 0.037500 -0.071384
v 0.373146 0.037500 -0.103278
v 0.304750 0.037500 -0.107329
v 0.277219 0.037500 -0.040620
v 0.289608 0.037500 0.056952
v 0.334202 0.037500 0.124783
v 0.400960 0.037500 0.122675
v 0.470545 0.037500 0.092033
v 0.521298 0.037500 0.094662
v 0.537910 0.037500 0.173407
v 0.502164 0.037500 0.499497
v 0.272524 0.037500 0.553106
v 0.135924 0.037500 0.570011
v 0.048580 0.037500 0.546846
v 0.048031 0.037500 0.467187
v 0.086633 0.037500 0.362394
v 0.095451 0.037500 0.275773
v 0.027783 0.037500 0.241374
v -0.074133 0.037500 0.256208
v -0.145820 0.037500 0.308032
v -0.144080 0.037500 0.382847
v -0.110816 0.037500 0.459658
v -0.109206 0.037500 0.515714
v -0.183343 0.037500 0.534979
v -0.499534 0.037500 0.499497
v -0.538212 0.037500 0.305145
v -0.547148 0.037500 0.189055
v -0.520957 0.037500 0.113730
v -0.446126 0.037500 0.110554
v -0.349705 0.037500 0.139152
v -0.268886 0.037500 0.141210
v -0.233767 0.037500 0.077538
v -0.246084 0.037500 -0.014544
v -0.300479 0.037500 -0.078593
v -0.387250 0.037500 -0.077637
v -0.479308 0.037500 -0.052588
v -0.545217 0.037500 -0.063832
v -0.562796 0.037500 -0.152714
v -0.546876 0.037500 -0.284432
v -0.499534 0.037500 -0.502412
v 0.502164 0.037500 -0.502412
v 0.535945 -0.037498 -0.287397
v 0.543820 -0.037500 -0.158871
v 0.521147 -0.037500 -0.075269
v 0.456254 -0.037500 -0.071384
v 0.373146 -0.037500 -0.103278
v 0.304750 -0.037500 -0.107329
v 0.277219 -0.037500 -0.040620
v 0.289608 -0.037500 0.056952
v 0.334202 -0.037500 0.124783
v 0.400960 -0.037500 0.122675
v 0.470545 -0.037500 0.092033
v 0.521298 -0.037500 0.094662
v 0.537910 -0.037500 0.173407
v 0.502164 -0.037500 0.499497
v 0.272524 -0.037500 0.553106
v 0.135924 -0.037498 0.570011
v 0.048580 -0.037500 0.546846
v 0.048031 -0.037500 0.467187
v 0.086633 -0.037498 0.362394
v 0.095451 -0.037500 0.275773
v 0.027783 -0.037498 0.241374
v -0.074133 -0.037500 0.256208
v -0.145820 -0.037500 0.308032
v -0.144080 -0.037498 0.382847
v -0.110816 -0.037500 0.459658
v -0.109206 -0.037500 0.515714
v -0.183343 -0.037500 0.534979
v -0.499534 -0.037500 0.499497
v -0.538212 -0.037500 0.305145
v -0.547148 -0.037500 0.189055
v -0.520957 -0.037500 0.113730
v -0.446126 -0.037498 0.110554
v -0.349705 -0.037498 0.139152
v -0.268886 -0.037500 0.141210
v -0.233767 -0.037498 0.077538
v -0.246084 -0.037500 -0.014544
v -0.300479 -0.037500 -0.078593
v -0.387250 -0.037500 -0.077637
v -0.479308 -0.037500 -0.052588
v -0.545217 -0.037500 -0.063832
v -0.562796 -0.037500 -0.152714
v -0.546876 -0.037500 -0.284432
v -0.499534 -0.037500 -0.502412
v 0.502164 -0.037500 -0.502412
v -0.545217 0.037500 -0.063832
v -0.545217 0.037500 -0.063832
v -0.562796 0.037500 -0.152714
v -0.546876 0.037500 -0.284432
v -0.538212 0.037500 0.305145
v -0.547148 0.037500 0.189055
v -0.520957 0.037500 0.113730
v -0.520957 0.037500 0.113730
v -0.479308 0.037500 -0.052588
v -0.446126 0.037500 0.110554
v -0.499534 0.037500 0.499497
v -0.499534 0.037500 0.499497
v -0.499534 0.037500 -0.502412
v -0.499534 0.037500 -0.502412
v 0.502164 0.037500 -0.502412
v 0.502164 0.037500 -0.502412
v -0.387250 0.037500 -0.077637
v -0.349705 0.037500 0.139152
v -0.300479 0.037500 -0.078593
v -0.268886 0.037500 0.141210
v -0.268886 0.037500 0.141210
v -0.183343 0.037500 0.534979
v -0.246084 0.037500 -0.014544
v -0.233767 0.037500 0.077538
v -0.109206 0.037500 0.515714
v -0.109206 0.037500 0.515714
v -0.145820 0.037500 0.308032
v -0.144080 0.037500 0.382847
v -0.074133 0.037500 0.256208
v -0.110816 0.037500 0.459658
v 0.027783 0.037500 0.241374
v 0.095451 0.037500 0.275773
v 0.095451 0.037500 0.275773
v 0.048580 0.037500 0.546846
v 0.048580 0.037500 0.546846
v 0.048031 0.037500 0.467187
v 0.086633 0.037500 0.362394
v 0.135924 0.037500 0.570011
v 0.304750 0.037500 -0.107329
v 0.304750 0.037500 -0.107329
v 0.277219 0.037500 -0.040620
v 0.272524 0.037500 0.553106
v 0.289608 0.037500 0.056952
v 0.334202 0.037500 0.124783
v 0.373146 0.037500 -0.103278
v 0.400960 0.037500 0.122675
v 0.456254 0.037500 -0.071384
v 0.502164 0.037500 0.499497
v 0.502164 0.037500 0.499497
v 0.470545 0.037500 0.092033
v 0.521147 0.037500 -0.075269
v 0.521147 0.037500 -0.075269
v 0.521298 0.037500 0.094662
v 0.521298 0.037500 0.094662
v 0.535945 0.037500 -0.287397
v 0.543820 0.037500 -0.158871
v 0.537910 0.037500 0.173407
v -0.545217 -0.037500 -0.063832
v -0.545217 -0.037500 -0.063832
v -0.562796 -0.037500 -0.152714
v -0.546876 -0.037500 -0.284432
v -0.538212 -0.037500 0.305145
v -0.547148 -0.037500 0.189055
v -0.520957 -0.037500 0.113730
v -0.520957 -0.037500 0.113730
v -0.479308 -0.037500 -0.052588
v -0.446126 -0.037498 0.110554
v -0.499534 -0.037500 0.499497
v -0.499534 -0.037500 0.499497
v -0.499534 -0.037500 -0.502412
v -0.499534 -0.037500 -0.502412
v 0.502164 -0.037500 -0.502412
v 0.502164 -0.037500 -0.502412
v -0.387250 -0.037500 -0.077637
v -0.349705 -0.037498 0.139152
v -0.300479 -0.037500 -0.078593
v -0.268886 -0.037500 0.141210
v -0.268886 -0.037500 0.141210
v -0.183343 -0.037500 0.534979
v -0.246084 -0.037500 -0.014544
v -0.233767 -0.037498 0.077538
v -0.109206 -0.037500 0.515714
v -0.109206 -0.037500 0.515714
v -0.145820 -0.037500 0.308032
v -0.144080 -0.037498 0.382847
v -0.074133 -0.037500 0.256208
v -0.110816 -0.037500 0.459658
v 0.027783 -0.037498 0.241374
v 0.095451 -0.037500 0.275773
v 0.095451 -0.037500 0.275773
v 0.048580 -0.037500 0.546846
v 0.048580 -0.037500 0.546846
v 0.048031 -0.037500 0.467187
v 0.086633 -0.037498 0.362394
v 0.135924 -0.037498 0.570011
v 0.304750 -0.037500 -0.107329
v 0.304750 -0.037500 -0.107329
v 0.277219 -0.037500 -0.040620
v 0.272524 -0.037500 0.553106
v 0.289608 -0.037500 0.056952
v 0.334202 -0.037500 0.124783
v 0.373146 -0.037500 -0.103278
v 0.400960 -0.037500 0.122675
v 0.456254 -0.037500 -0.071384
v 0.502164 -0.037500 0.499497
v 0.502164 -0.037500 0.499497
v 0.470545 -0.037500 0.092033
v 0.521147 -0.037500 -0.075269
v 0.521147 -0.037500 -0.075269
v 0.521298 -0.037500 0.094662
v 0.521298 -0.037500 0.094662
v 0.535945 -0.037498 -0.287397
v 0.543820 -0.037500 -0.158871
v 0.537910 -0.037500 0.173407
vt 0.500000 0.500000
vt 0.500000 0.500000
vt 0.500000 0.500000
vt 0.500000 0.500000
vt 0.500000 0.500000
vt 0.500000 0.500000
vt 0.500000 0.500000
vt 0.500000 0.500000
vt 0.500000 0.500000
vt 0.500000 0.500000
vt 0.500000 0.500000
vt 0.500000 0.500000
vt 0.500000 0.500000
vt 0.500000 0.500000
vt 0.500000 0.500000
vt 0.500000 0.500000
vt 0.500000 0.500000
vt 0.500000 0.500000
vt 0.500000 0.500000
vt 0.500000 0.500000
vt 0.500000 0.500000
vt 0.500000 0.500000
vt 0.500000 0.500000
vt 0.500000 0.500000
vt 0.500000 0.500000
vt 0.500000 0.500000
vt 0.500000 0.500000
vt 0.500000 0.500000
vt 0.500000 0.500000
vt 0.500000 0.500000
vt 0.500000 0.500000
vt 0.500000 0.500000
vt 0.500000 0.500000
vt 0.500000 0.500000
vt 0.500000 0.500000
vt 0.500000 0.500000
vt 0.500000 0.500000
vt 0.500000 0.500000
vt 0.500000 0.500000
vt 0.500000 0.500000
vt 0.500000 0.500000
vt 0.500000 0.500000
vt 0.500000 0.500000
vt 0.500000 0.500000
vt 0.500000 0.500000
vt 0.500000 0.500000
vt 0.500000 0.500000
vt 0.500000 0.500000
vt 0.500000 0.500000
vt 0.500000 0.500000
vt 0.500000 0.500000
vt 0.500000 0.500000
vt 0.500000 0.500000
vt 0.500000 0.500000
vt 0.500000 0.500000
vt 0.500000 0.500000
vt 0.500000 0.500000
vt 0.500000 0.500000
vt 0.500000 0.500000
vt 0.500000 0.500000
vt 0.500000 0.500000
vt 0.500000 0.500000
vt 0.500000 0.500000
vt 0.500000 0.500000
vt 0.500000 0.500000
vt 0.500000 0.500000
vt 0.500000 0.500000
vt 0.500000 0.500000
vt 0.500000 0.500000
vt 0.500000 0.500000
vt 0.500000 0.500000
vt 0.500000 0.500000
vt 0.500000 0.500000
vt 0.500000 0.500000
vt 0.500000 0.500000
vt 0.500000 0.500000
vt 0.500000 0.500000
vt 0.500000 0.500000
vt 0.500000 0.500000
vt 0.500000 0.500000
vt 0.500000 0.500000
vt 0.500000 0.500000
vt 0.500000 0.500000
vt 0.500000 0.500000
vt 0.500000 0.500000
vt 0.500000 0.500000
vt 0.500000 0.500000
vt 0.500000 0.500000
vt 0.500000 0.500000
vt 0.500000 0.500000
vt 0.500000 0.500000
vt 0.500000 0.500000
vt 0.500000 0.500000
vt 0.500000 0.500000
vt 0.500000 0.500000
vt 0.500000 0.500000
vt 0.500000 0.500000
vt 0.500000 0.500000
vt 0.500000 0.500000
vt 0.500000 0.500000
vt 0.500000 0.500000
vt 0.500000 0.500000
vt 0.500000 0.500000
vt 0.500000 0.500000
vt 0.500000 0.500000
vt 0.500000 0.500000
vt 0.500000 0.500000
vt 0.500000 0.500000
vt 0.500000 0.500000
vt 0.500000 0.500000
vt 0.500000 0.500000
vt 0.500000 0.500000
vt 0.500000 0.500000
vt 0.500000 0.500000
vt 0.500000 0.500000
vt 0.500000 0.500000
vt 0.500000 0.500000
vt 0.500000 0.500000
vt 0.500000 0.500000
vt 0.500000 0.500000
vt 0.500000 0.500000
vt 0.500000 0.500000
vt 0.500000 0.500000
vt 0.500000 0.500000
vt 0.500000 0.500000
vt 0.500000 0.500000
vt 0.500000 0.500000
vt 0.500000 0.500000
vt 0.500000 0.500000
vt 0.500000 0.500000
vt 0.500000 0.500000
vt 0.500000 0.500000
vt 0.500000 0.500000
vt 0.500000 0.500000
vt 0.500000 0.500000
vt 0.500000 0.500000
vt 0.500000 0.500000
vt 0.500000 0.500000
vt 0.500000 0.500000
vt 0.500000 0.500000
vt 0.500000 0.500000
vt 0.500000 0.500000
vt 0.500000 0.500000
vt 0.500000 0.500000
vt 0.500000 0.500000
vt 0.500000 0.500000
vt 0.500000 0.500000
vt 0.500000 0.500000
vt 0.500000 0.500000
vt 0.500000 0.500000
vt 0.500000 0.500000
vt 0.500000 0.500000
vt 0.500000 0.500000
vt 0.500000 0.500000
vt 0.500000 0.500000
vt 0.500000 0.500000
vt 0.500000 0.500000
vt 0.500000 0.500000
vt 1.000000 0.500000
vt 1.000000 0.750000
vt 0.921134 0.549270
vt 0.956487 0.761816
vt 0.930194 0.765789
vt 0.915207 0.721977
vt 0.877640 0.736670
vt 0.877006 0.755346
vt 0.861970 0.761884
vt 0.848565 0.643830
vt 0.851526 0.618395
vt 0.884231 0.683671
vt 0.844660 0.601506
vt 0.874800 0.541919
vt 0.888340 0.553049
vt 0.920325 0.532200
vt 0.913959 0.511458
vt 0.931423 0.489604
vt 0.957079 0.491569
vt 0.907818 0.556141
vt 0.789299 0.557313
vt 0.800000 0.500000
vt 0.902612 0.686745
vt 0.915398 0.700321
vt 0.871521 0.692436
vt 0.800000 0.750000
vt 0.792917 0.671086
vt 0.823285 0.661287
vt 0.871932 0.712606
vt 0.838220 0.661721
vt 0.838796 0.759653
vt 0.785924 0.591405
vt 0.827368 0.603707
vt 0.912451 0.761401
vt 0.910207 0.744952
vt 0.865094 0.491079
vt 0.875221 0.525258
vt 0.881338 0.507891
vt 0.806450 0.613341
vt 0.914734 0.495262
vt 0.807953 0.652985
vt 0.790548 0.613204
vt 0.796763 0.652583
vt 0.880813 0.495225
vn 0.0000 -1.0000 -0.0000
vn -0.9810 0.0000 0.1940
vn -0.9928 0.0000 -0.1200
vn -0.9971 0.0000 0.0768
vn -0.9445 0.0000 -0.3284
vn -0.1682 0.0000 0.9858
vn -0.0424 0.0000 -0.9991
vn -0.9808 0.0000 0.1952
vn -0.9772 0.0000 -0.2122
vn 0.0000 0.0000 -1.0000
vn 0.2626 0.0000 0.9649
vn 0.2844 0.0000 -0.9587
vn 0.0110 0.0000 0.9999
vn 0.0255 0.0000 -0.9997
vn -0.1115 0.0000 0.9938
vn -0.7622 0.0000 0.6473
vn -0.8756 0.0000 -0.4830
vn -0.9912 0.0000 0.1326
vn 0.2515 0.0000 0.9679
vn 0.9997 0.0000 -0.0233
vn 0.5859 0.0000 0.8104
vn 0.9996 0.0000 -0.0287
vn 0.9176 0.0000 -0.3974
vn 0.1440 0.0000 0.9896
vn -0.4532 0.0000 0.8914
vn -1.0000 0.0000 0.0069
vn -0.9384 0.0000 -0.3457
vn -0.2564 0.0000 0.9666
vn -0.9949 0.0000 -0.1013
vn 0.9244 0.0000 0.3815
vn 0.1228 0.0000 0.9924
vn 0.9920 0.0000 -0.1260
vn 0.8356 0.0000 -0.5493
vn -0.0591 0.0000 0.9982
vn -0.0316 0.0000 -0.9995
vn -0.3583 0.0000 0.9336
vn 0.2273 0.0000 0.9738
vn -0.4030 0.0000 -0.9152
vn 0.0598 0.0000 0.9982
vn 0.0517 0.0000 -0.9987
vn 0.9879 0.0000 -0.1552
vn 0.9651 0.0000 0.2617
vn 0.9981 0.0000 -0.0612
vn 0.9940 0.0000 0.1090
vn 0.9785 0.0000 -0.2064
vn 0.0000 1.0000 -0.0000
usemtl BackMat.001
s off
f 160/1/1 184/2/1 158/3/1
f 149/4/1 162/5/1 148/6/1
f 155/7/1 151/8/1 152/9/1
f 174/10/1 169/11/1 176/12/1
f 177/13/1 188/14/1 189/15/1
f 190/16/1 201/17/1 192/18/1
f 201/17/1 190/16/1 200/19/1
f 176/12/1 186/20/1 188/14/1
f 187/21/1 189/15/1 193/22/1
f 169/11/1 168/23/1 176/12/1
f 158/3/1 164/24/1 149/4/1
f 174/10/1 165/25/1 169/11/1
f 184/2/1 168/23/1 164/24/1
f 176/12/1 168/23/1 186/20/1
f 156/26/1 173/27/1 167/28/1
f 163/29/1 151/8/1 155/7/1
f 176/12/1 188/14/1 177/13/1
f 184/2/1 164/24/1 158/3/1
f 172/30/1 150/31/1 163/29/1
f 186/20/1 168/23/1 184/2/1
f 177/13/1 189/15/1 187/21/1
f 151/8/1 163/29/1 150/31/1
f 172/30/1 163/29/1 165/25/1
f 200/19/1 190/16/1 184/2/1
f 183/32/1 182/33/1 187/21/1
f 177/13/1 187/21/1 182/33/1
f 148/6/1 154/34/1 146/35/1
f 149/4/1 164/24/1 162/5/1
f 193/22/1 191/36/1 202/37/1
f 202/37/1 191/36/1 195/38/1
f 182/33/1 183/32/1 181/39/1
f 172/30/1 165/25/1 174/10/1
f 200/19/1 184/2/1 160/1/1
f 162/5/1 154/34/1 148/6/1
f 192/18/1 201/17/1 196/40/1
f 175/41/1 167/28/1 173/27/1
f 193/22/1 189/15/1 191/36/1
f 179/42/1 181/39/1 183/32/1
f 173/27/1 150/31/1 172/30/1
f 170/43/1 167/28/1 175/41/1
f 150/31/1 173/27/1 156/26/1
f 202/37/1 195/38/1 198/44/1
f 90/45/2 41/46/2 85/47/2 147/48/2
f 41/46/3 42/49/3 86/50/3 85/47/3
f 29/51/4 30/52/4 74/53/4 73/54/4
f 30/52/5 96/55/5 153/56/5 74/53/5
f 39/57/6 40/58/6 84/59/6 83/60/6
f 31/61/7 32/62/7 76/63/7 75/64/7
f 100/65/8 29/51/8 73/54/8 157/66/8
f 42/49/9 102/67/9 159/68/9 86/50/9
f 43/69/10 104/70/10 161/71/10 87/72/10
f 38/73/11 39/57/11 83/60/11 82/74/11
f 32/62/12 33/75/12 77/76/12 76/63/12
f 37/77/13 38/73/13 82/74/13 81/78/13
f 33/75/14 109/79/14 166/80/14 77/76/14
f 27/81/15 28/82/15 72/83/15 71/84/15
f 36/85/16 37/77/16 81/78/16 80/86/16
f 34/87/17 35/88/17 79/89/17 78/90/17
f 35/88/18 36/85/18 80/86/18 79/89/18
f 114/91/19 27/81/19 71/84/19 171/92/19
f 23/93/20 24/94/20 68/95/20 67/96/20
f 22/97/21 23/93/21 67/96/21 66/98/21
f 25/99/22 26/100/22 70/101/22 69/102/22
f 24/94/23 25/99/23 69/102/23 68/95/23
f 21/103/24 22/97/24 66/98/24 65/104/24
f 121/105/25 21/103/25 65/104/25 178/106/25
f 123/107/26 18/108/26 62/109/26 180/110/26
f 18/108/27 19/111/27 63/112/27 62/109/27
f 16/113/28 17/114/28 61/115/28 60/116/28
f 19/111/29 20/117/29 64/118/29 63/112/29
f 128/119/30 7/120/30 51/121/30 185/122/30
f 15/123/31 16/113/31 60/116/31 59/124/31
f 7/120/32 8/125/32 52/126/32 51/121/32
f 8/125/33 9/127/33 53/128/33 52/126/33
f 5/129/34 6/130/34 50/131/34 49/132/34
f 9/127/35 10/133/35 54/134/35 53/128/35
f 4/135/36 5/129/36 49/132/36 48/136/36
f 137/137/37 15/123/37 59/124/37 194/138/37
f 10/133/38 11/139/38 55/140/38 54/134/38
f 140/141/39 4/135/39 48/136/39 197/142/39
f 11/139/40 142/143/40 199/144/40 55/140/40
f 44/145/41 1/146/41 45/147/41 88/148/41
f 2/149/42 3/150/42 47/151/42 46/152/42
f 1/146/43 2/149/43 46/152/43 45/147/43
f 13/153/44 14/154/44 58/155/44 57/156/44
f 12/157/45 13/153/45 57/156/45 56/158/45
usemtl FrontMat.001
f 103/159/46 101/160/46 127/161/46
f 92/162/46 91/163/46 105/164/46
f 98/165/46 95/166/46 94/167/46
f 117/168/46 119/169/46 112/170/46
f 120/171/46 132/172/46 131/173/46
f 133/174/46 135/175/46 144/176/46
f 144/176/46 143/177/46 133/174/46
f 119/169/46 131/173/46 129/178/46
f 130/179/46 136/180/46 132/172/46
f 112/170/46 119/169/46 111/181/46
f 101/160/46 92/162/46 107/182/46
f 117/168/46 112/170/46 108/183/46
f 127/161/46 107/182/46 111/181/46
f 119/169/46 129/178/46 111/181/46
f 99/184/46 110/185/46 116/186/46
f 106/187/46 98/165/46 94/167/46
f 119/169/46 120/171/46 131/173/46
f 127/161/46 101/160/46 107/182/46
f 115/188/46 106/187/46 93/189/46
f 129/178/46 127/161/46 111/181/46
f 120/171/46 130/179/46 132/172/46
f 94/167/46 93/189/46 106/187/46
f 115/188/46 108/183/46 106/187/46
f 143/177/46 127/161/46 133/174/46
f 126/190/46 130/179/46 125/191/46
f 120/171/46 125/191/46 130/179/46
f 91/163/46 89/192/46 97/193/46
f 92/162/46 105/164/46 107/182/46
f 136/180/46 145/194/46 134/195/46
f 145/194/46 138/196/46 134/195/46
f 125/191/46 124/197/46 126/190/46
f 115/188/46 117/168/46 108/183/46
f 143/177/46 103/159/46 127/161/46
f 105/164/46 91/163/46 97/193/46
f 135/175/46 139/198/46 144/176/46
f 118/199/46 116/186/46 110/185/46
f 136/180/46 134/195/46 132/172/46
f 122/200/46 126/190/46 124/197/46
f 116/186/46 115/188/46 93/189/46
f 113/201/46 118/199/46 110/185/46
f 93/189/46 99/184/46 116/186/46
f 145/194/46 141/202/46 138/196/46
