# Blender v2.83.1 OBJ File: 'jigsaw-5x4-3-step2.blend'
# www.blender.org
mtllib piece.19.mtl
o path38_path38.001
v -0.276245 0.037500 -0.554432
v -0.161130 0.037500 -0.573543
v -0.087452 0.037500 -0.559833
v -0.086463 0.037500 -0.498490
v -0.116260 0.037500 -0.412767
v -0.116656 0.037500 -0.335430
v -0.047679 0.037500 -0.293612
v 0.049776 0.037500 -0.291897
v 0.114597 0.037500 -0.329239
v 0.106939 0.037500 -0.399871
v 0.072030 0.037500 -0.479162
v 0.076369 0.037500 -0.537764
v 0.165702 0.037500 -0.554678
v 0.531983 0.037500 -0.503079
v 0.531983 0.037500 0.498830
v 0.309620 0.037500 0.542891
v 0.175767 0.037500 0.555959
v 0.086589 0.037500 0.534518
v 0.077925 0.037500 0.464486
v 0.107274 0.037500 0.371940
v 0.112552 0.037500 0.293000
v 0.051464 0.037500 0.256809
v -0.039121 0.037500 0.264609
v -0.102545 0.037500 0.310666
v -0.101247 0.037500 0.385707
v -0.074073 0.037500 0.466304
v -0.078965 0.037500 0.525491
v -0.155964 0.037500 0.544092
v -0.273497 0.037500 0.534117
v -0.469715 0.037500 0.498830
v -0.451430 0.037500 0.305439
v -0.453657 0.037500 0.189651
v -0.484792 0.037500 0.113910
v -0.554570 0.037500 0.109346
v -0.641755 0.037500 0.136360
v -0.717363 0.037500 0.137669
v -0.756733 0.037500 0.074773
v -0.752481 0.037500 -0.015704
v -0.701543 0.037500 -0.078355
v -0.607791 0.037500 -0.076985
v -0.502840 0.037500 -0.052251
v -0.425240 0.037500 -0.064021
v -0.402570 0.037500 -0.153230
v -0.418525 0.037500 -0.285073
v -0.469715 0.037500 -0.503079
v -0.276245 -0.037500 -0.554432
v -0.161130 -0.037498 -0.573543
v -0.087452 -0.037500 -0.559833
v -0.086463 -0.037500 -0.498490
v -0.116260 -0.037500 -0.412767
v -0.116656 -0.037500 -0.335430
v -0.047679 -0.037500 -0.293612
v 0.049776 -0.037500 -0.291897
v 0.114597 -0.037498 -0.329239
v 0.106939 -0.037500 -0.399871
v 0.072030 -0.037498 -0.479162
v 0.076369 -0.037500 -0.537764
v 0.165702 -0.037500 -0.554678
v 0.531983 -0.037500 -0.503079
v 0.531983 -0.037500 0.498830
v 0.309620 -0.037500 0.542891
v 0.175767 -0.037500 0.555959
v 0.086589 -0.037500 0.534518
v 0.077925 -0.037500 0.464486
v 0.107274 -0.037500 0.371940
v 0.112552 -0.037500 0.293000
v 0.051464 -0.037500 0.256809
v -0.039121 -0.037500 0.264609
v -0.102545 -0.037500 0.310666
v -0.101247 -0.037500 0.385707
v -0.074073 -0.037500 0.466304
v -0.078965 -0.037498 0.525491
v -0.155964 -0.037500 0.544092
v -0.273497 -0.037500 0.534117
v -0.469715 -0.037500 0.498830
v -0.451430 -0.037500 0.305439
v -0.453657 -0.037498 0.189651
v -0.484792 -0.037500 0.113910
v -0.554570 -0.037498 0.109346
v -0.641755 -0.037498 0.136360
v -0.717363 -0.037498 0.137669
v -0.756733 -0.037500 0.074773
v -0.752481 -0.037500 -0.015704
v -0.701543 -0.037500 -0.078355
v -0.607791 -0.037500 -0.076985
v -0.502840 -0.037498 -0.052251
v -0.425240 -0.037500 -0.064021
v -0.402570 -0.037500 -0.153230
v -0.418525 -0.037498 -0.285073
v -0.469715 -0.037500 -0.503079
v -0.717363 0.037500 0.137669
v -0.756733 0.037500 0.074773
v -0.752481 0.037500 -0.015704
v -0.701543 0.037500 -0.078355
v -0.641755 0.037500 0.136360
v -0.607791 0.037500 -0.076985
v -0.554570 0.037500 0.109346
v -0.502840 0.037500 -0.052251
v -0.484792 0.037500 0.113910
v -0.484792 0.037500 0.113910
v -0.425240 0.037500 -0.064021
v -0.425240 0.037500 -0.064021
v -0.453657 0.037500 0.189651
v -0.469715 0.037500 0.498830
v -0.469715 0.037500 0.498830
v -0.451430 0.037500 0.305439
v -0.418525 0.037500 -0.285073
v -0.469715 0.037500 -0.503079
v -0.469715 0.037500 -0.503079
v -0.402570 0.037500 -0.153230
v -0.276245 0.037500 -0.554432
v -0.273497 0.037500 0.534117
v -0.161130 0.037500 -0.573543
v -0.155964 0.037500 0.544092
v -0.087452 0.037500 -0.559833
v -0.087452 0.037500 -0.559833
v -0.078965 0.037500 0.525491
v -0.078965 0.037500 0.525491
v -0.116260 0.037500 -0.412767
v -0.116656 0.037500 -0.335430
v -0.102545 0.037500 0.310666
v -0.101247 0.037500 0.385707
v -0.047679 0.037500 -0.293612
v -0.086463 0.037500 -0.498490
v -0.039121 0.037500 0.264609
v -0.074073 0.037500 0.466304
v 0.049776 0.037500 -0.291897
v 0.051464 0.037500 0.256809
v 0.114597 0.037500 -0.329239
v 0.114597 0.037500 -0.329239
v 0.112552 0.037500 0.293000
v 0.112552 0.037500 0.293000
v 0.106939 0.037500 -0.399871
v 0.072030 0.037500 -0.479162
v 0.076369 0.037500 -0.537764
v 0.076369 0.037500 -0.537764
v 0.165702 0.037500 -0.554678
v 0.086589 0.037500 0.534518
v 0.086589 0.037500 0.534518
v 0.077925 0.037500 0.464486
v 0.107274 0.037500 0.371940
v 0.175767 0.037500 0.555959
v 0.309620 0.037500 0.542891
v 0.531983 0.037500 0.498830
v 0.531983 0.037500 0.498830
v 0.531983 0.037500 -0.503079
v 0.531983 0.037500 -0.503079
v -0.717363 -0.037498 0.137669
v -0.756733 -0.037500 0.074773
v -0.752481 -0.037500 -0.015704
v -0.701543 -0.037500 -0.078355
v -0.641755 -0.037498 0.136360
v -0.607791 -0.037500 -0.076985
v -0.554570 -0.037498 0.109346
v -0.502840 -0.037498 -0.052251
v -0.484792 -0.037500 0.113910
v -0.484792 -0.037500 0.113910
v -0.425240 -0.037500 -0.064021
v -0.425240 -0.037500 -0.064021
v -0.453657 -0.037498 0.189651
v -0.469715 -0.037500 0.498830
v -0.469715 -0.037500 0.498830
v -0.451430 -0.037500 0.305439
v -0.418525 -0.037498 -0.285073
v -0.469715 -0.037500 -0.503079
v -0.469715 -0.037500 -0.503079
v -0.402570 -0.037500 -0.153230
v -0.276245 -0.037500 -0.554432
v -0.273497 -0.037500 0.534117
v -0.161130 -0.037498 -0.573543
v -0.155964 -0.037500 0.544092
v -0.087452 -0.037500 -0.559833
v -0.087452 -0.037500 -0.559833
v -0.078965 -0.037498 0.525491
v -0.078965 -0.037498 0.525491
v -0.116260 -0.037500 -0.412767
v -0.116656 -0.037500 -0.335430
v -0.102545 -0.037500 0.310666
v -0.101247 -0.037500 0.385707
v -0.047679 -0.037500 -0.293612
v -0.086463 -0.037500 -0.498490
v -0.039121 -0.037500 0.264609
v -0.074073 -0.037500 0.466304
v 0.049776 -0.037500 -0.291897
v 0.051464 -0.037500 0.256809
v 0.114597 -0.037498 -0.329239
v 0.114597 -0.037498 -0.329239
v 0.112552 -0.037500 0.293000
v 0.112552 -0.037500 0.293000
v 0.106939 -0.037500 -0.399871
v 0.072030 -0.037498 -0.479162
v 0.076369 -0.037500 -0.537764
v 0.076369 -0.037500 -0.537764
v 0.165702 -0.037500 -0.554678
v 0.086589 -0.037500 0.534518
v 0.086589 -0.037500 0.534518
v 0.077925 -0.037500 0.464486
v 0.107274 -0.037500 0.371940
v 0.175767 -0.037500 0.555959
v 0.309620 -0.037500 0.542891
v 0.531983 -0.037500 0.498830
v 0.531983 -0.037500 0.498830
v 0.531983 -0.037500 -0.503079
v 0.531983 -0.037500 -0.503079
vt 0.500000 0.500000
vt 0.500000 0.500000
vt 0.500000 0.500000
vt 0.500000 0.500000
vt 0.500000 0.500000
vt 0.500000 0.500000
vt 0.500000 0.500000
vt 0.500000 0.500000
vt 0.500000 0.500000
vt 0.500000 0.500000
vt 0.500000 0.500000
vt 0.500000 0.500000
vt 0.500000 0.500000
vt 0.500000 0.500000
vt 0.500000 0.500000
vt 0.500000 0.500000
vt 0.500000 0.500000
vt 0.500000 0.500000
vt 0.500000 0.500000
vt 0.500000 0.500000
vt 0.500000 0.500000
vt 0.500000 0.500000
vt 0.500000 0.500000
vt 0.500000 0.500000
vt 0.500000 0.500000
vt 0.500000 0.500000
vt 0.500000 0.500000
vt 0.500000 0.500000
vt 0.500000 0.500000
vt 0.500000 0.500000
vt 0.500000 0.500000
vt 0.500000 0.500000
vt 0.500000 0.500000
vt 0.500000 0.500000
vt 0.500000 0.500000
vt 0.500000 0.500000
vt 0.500000 0.500000
vt 0.500000 0.500000
vt 0.500000 0.500000
vt 0.500000 0.500000
vt 0.500000 0.500000
vt 0.500000 0.500000
vt 0.500000 0.500000
vt 0.500000 0.500000
vt 0.500000 0.500000
vt 0.500000 0.500000
vt 0.500000 0.500000
vt 0.500000 0.500000
vt 0.500000 0.500000
vt 0.500000 0.500000
vt 0.500000 0.500000
vt 0.500000 0.500000
vt 0.500000 0.500000
vt 0.500000 0.500000
vt 0.500000 0.500000
vt 0.500000 0.500000
vt 0.500000 0.500000
vt 0.500000 0.500000
vt 0.500000 0.500000
vt 0.500000 0.500000
vt 0.500000 0.500000
vt 0.500000 0.500000
vt 0.500000 0.500000
vt 0.500000 0.500000
vt 0.500000 0.500000
vt 0.500000 0.500000
vt 0.500000 0.500000
vt 0.500000 0.500000
vt 0.500000 0.500000
vt 0.500000 0.500000
vt 0.500000 0.500000
vt 0.500000 0.500000
vt 0.500000 0.500000
vt 0.500000 0.500000
vt 0.500000 0.500000
vt 0.500000 0.500000
vt 0.500000 0.500000
vt 0.500000 0.500000
vt 0.500000 0.500000
vt 0.500000 0.500000
vt 0.500000 0.500000
vt 0.500000 0.500000
vt 0.500000 0.500000
vt 0.500000 0.500000
vt 0.500000 0.500000
vt 0.500000 0.500000
vt 0.500000 0.500000
vt 0.500000 0.500000
vt 0.500000 0.500000
vt 0.500000 0.500000
vt 0.500000 0.500000
vt 0.500000 0.500000
vt 0.500000 0.500000
vt 0.500000 0.500000
vt 0.500000 0.500000
vt 0.500000 0.500000
vt 0.500000 0.500000
vt 0.500000 0.500000
vt 0.500000 0.500000
vt 0.500000 0.500000
vt 0.500000 0.500000
vt 0.500000 0.500000
vt 0.500000 0.500000
vt 0.500000 0.500000
vt 0.500000 0.500000
vt 0.500000 0.500000
vt 0.500000 0.500000
vt 0.500000 0.500000
vt 0.500000 0.500000
vt 0.500000 0.500000
vt 0.500000 0.500000
vt 0.500000 0.500000
vt 0.500000 0.500000
vt 0.500000 0.500000
vt 0.500000 0.500000
vt 0.500000 0.500000
vt 0.500000 0.500000
vt 0.500000 0.500000
vt 0.500000 0.500000
vt 0.500000 0.500000
vt 0.500000 0.500000
vt 0.500000 0.500000
vt 0.500000 0.500000
vt 0.500000 0.500000
vt 0.500000 0.500000
vt 0.500000 0.500000
vt 0.500000 0.500000
vt 0.500000 0.500000
vt 0.500000 0.500000
vt 0.500000 0.500000
vt 0.500000 0.500000
vt 0.500000 0.500000
vt 0.500000 0.500000
vt 0.500000 0.500000
vt 0.500000 0.500000
vt 0.500000 0.500000
vt 0.500000 0.500000
vt 0.500000 0.500000
vt 0.500000 0.500000
vt 0.500000 0.500000
vt 0.500000 0.500000
vt 0.500000 0.500000
vt 0.500000 0.500000
vt 0.500000 0.500000
vt 0.500000 0.500000
vt 0.500000 0.500000
vt 0.500000 0.500000
vt 0.500000 0.500000
vt 0.500000 0.500000
vt 0.500000 0.500000
vt 0.500000 0.500000
vt 0.500000 0.500000
vt 0.500000 0.500000
vt 0.500000 0.500000
vt 0.500000 0.500000
vt 0.500000 0.500000
vt 0.500000 0.500000
vt 0.500000 0.500000
vt 0.500000 0.500000
vt 0.712356 0.238900
vt 0.661718 0.245992
vt 0.637562 0.158363
vt 0.714944 0.284461
vt 0.715217 0.307859
vt 0.702711 0.320572
vt 0.638605 0.245437
vt 0.600000 0.250000
vt 0.592956 0.201029
vt 0.710006 0.258267
vt 0.677749 0.271178
vt 0.756482 0.237224
vt 0.730164 0.233242
vt 0.766534 0.161885
vt 0.676837 0.253763
vt 0.795226 0.114793
vt 0.779398 0.106081
vt 0.810300 0.091415
vt 0.622582 0.158039
vt 0.800000 0.000000
vt 0.765298 0.104170
vt 0.641088 0.104680
vt 0.646755 0.142534
vt 0.600000 0.000000
vt 0.757844 0.120347
vt 0.648312 0.119926
vt 0.672356 0.292937
vt 0.781972 0.161786
vt 0.799084 0.154349
vt 0.814066 0.172984
vt 0.758187 0.144670
vt 0.810251 0.201715
vt 0.588596 0.088903
vt 0.591205 0.055497
vt 0.625330 0.105997
vt 0.811329 0.154596
vt 0.684650 0.321633
vt 0.672095 0.311807
vt 0.806924 0.113711
vt 0.590965 0.171695
vt 0.800000 0.250000
vt 0.606856 0.113322
vt 0.592876 0.111160
vt 0.606493 0.151257
vt 0.594678 0.152478
vn -0.0000 -1.0000 0.0000
vn -0.8476 0.0000 0.5306
vn -0.9989 0.0000 -0.0469
vn -0.7759 0.0000 -0.6309
vn 0.0173 0.0000 0.9999
vn 0.0146 0.0000 -0.9999
vn 0.2960 0.0000 0.9552
vn 0.2294 0.0000 -0.9733
vn -0.0653 0.0000 0.9979
vn -0.1500 0.0000 -0.9887
vn -0.9249 0.0000 0.3802
vn -0.9956 0.0000 -0.0941
vn -0.9998 0.0000 0.0192
vn -0.9735 0.0000 0.2286
vn -0.9692 0.0000 -0.2463
vn -0.9928 0.0000 0.1201
vn -0.2565 0.0000 -0.9665
vn -0.1770 0.0000 0.9842
vn -0.1638 0.0000 -0.9865
vn -0.0846 0.0000 0.9964
vn 0.1829 0.0000 -0.9831
vn 0.2348 0.0000 0.9720
vn 1.0000 0.0000 0.0051
vn 0.9999 0.0000 -0.0173
vn 0.5184 0.0000 -0.8551
vn 0.9446 0.0000 0.3283
vn 0.9999 0.0000 -0.0161
vn 0.5876 0.0000 0.8092
vn 0.9966 0.0000 0.0824
vn 0.9476 0.0000 -0.3195
vn 0.0176 0.0000 -0.9998
vn 0.0858 0.0000 0.9963
vn -0.4992 0.0000 -0.8665
vn -0.5097 0.0000 0.8604
vn -0.9152 0.0000 0.4029
vn -0.9973 0.0000 -0.0738
vn -0.1860 0.0000 -0.9825
vn -0.9924 0.0000 0.1228
vn -0.9532 0.0000 -0.3023
vn -0.2338 0.0000 0.9723
vn -0.9942 0.0000 0.1078
vn -0.9978 0.0000 -0.0667
vn 0.0972 0.0000 0.9953
vn 0.1944 0.0000 0.9809
vn 1.0000 0.0000 0.0000
vn 0.1395 0.0000 -0.9902
vn 0.0000 1.0000 0.0000
usemtl BackMat.001
s off
f 158/1/1 178/2/1 160/3/1
f 153/4/1 150/5/1 151/6/1
f 163/7/1 169/8/1 161/9/1
f 155/10/1 154/11/1 153/4/1
f 164/12/1 177/13/1 167/14/1
f 158/1/1 156/15/1 155/10/1
f 155/10/1 156/15/1 154/11/1
f 191/16/1 194/17/1 190/18/1
f 163/7/1 179/19/1 169/8/1
f 178/2/1 179/19/1 163/7/1
f 203/20/1 188/21/1 186/22/1
f 160/3/1 178/2/1 163/7/1
f 182/23/1 178/2/1 158/1/1
f 201/24/1 188/21/1 203/20/1
f 186/22/1 185/25/1 184/26/1
f 154/11/1 152/27/1 153/4/1
f 176/28/1 170/29/1 181/30/1
f 184/26/1 185/25/1 180/31/1
f 153/4/1 152/27/1 150/5/1
f 170/29/1 176/28/1 168/32/1
f 194/17/1 203/20/1 190/18/1
f 199/33/1 198/34/1 200/35/1
f 158/1/1 160/3/1 156/15/1
f 181/30/1 170/29/1 172/36/1
f 149/37/1 152/27/1 148/38/1
f 192/39/1 194/17/1 191/16/1
f 190/18/1 203/20/1 186/22/1
f 177/13/1 164/12/1 176/28/1
f 169/8/1 179/19/1 171/40/1
f 168/32/1 176/28/1 164/12/1
f 168/32/1 164/12/1 165/41/1
f 197/42/1 199/33/1 195/43/1
f 180/31/1 185/25/1 182/23/1
f 200/35/1 188/21/1 201/24/1
f 198/34/1 199/33/1 197/42/1
f 150/5/1 152/27/1 149/37/1
f 177/13/1 180/31/1 167/14/1
f 180/31/1 182/23/1 158/1/1
f 185/25/1 186/22/1 188/21/1
f 200/35/1 198/34/1 188/21/1
f 179/19/1 183/44/1 171/40/1
f 167/14/1 180/31/1 158/1/1
f 171/40/1 183/44/1 174/45/1
f 36/46/2 37/47/2 82/48/2 81/49/2
f 37/47/3 38/50/3 83/51/3 82/48/3
f 38/50/4 39/52/4 84/53/4 83/51/4
f 35/54/5 36/46/5 81/49/5 80/55/5
f 39/52/6 40/56/6 85/57/6 84/53/6
f 34/58/7 35/54/7 80/55/7 79/59/7
f 40/56/8 41/60/8 86/61/8 85/57/8
f 100/62/9 34/58/9 79/59/9 157/63/9
f 41/60/10 102/64/10 159/65/10 86/61/10
f 32/66/11 33/67/11 78/68/11 77/69/11
f 105/70/12 31/71/12 76/72/12 162/73/12
f 31/71/13 32/66/13 77/69/13 76/72/13
f 44/74/14 109/75/14 166/76/14 89/77/14
f 42/78/15 43/79/15 88/80/15 87/81/15
f 43/79/16 44/74/16 89/77/16 88/80/16
f 45/82/17 1/83/17 46/84/17 90/85/17
f 29/86/18 30/87/18 75/88/18 74/89/18
f 1/83/19 2/90/19 47/91/19 46/84/19
f 28/92/20 29/86/20 74/89/20 73/93/20
f 2/90/21 116/94/21 173/95/21 47/91/21
f 118/96/22 28/92/22 73/93/22 175/97/22
f 5/98/23 6/99/23 51/100/23 50/101/23
f 24/102/24 25/103/24 70/104/24 69/105/24
f 6/99/25 7/106/25 52/107/25 51/100/25
f 4/108/26 5/98/26 50/101/26 49/109/26
f 3/110/27 4/108/27 49/109/27 48/111/27
f 23/112/28 24/102/28 69/105/28 68/113/28
f 26/114/29 27/115/29 72/116/29 71/117/29
f 25/103/30 26/114/30 71/117/30 70/104/30
f 7/106/31 8/118/31 53/119/31 52/107/31
f 22/120/32 23/112/32 68/113/32 67/121/32
f 8/118/33 130/122/33 187/123/33 53/119/33
f 132/124/34 22/120/34 67/121/34 189/125/34
f 10/126/35 11/127/35 56/128/35 55/129/35
f 11/127/36 136/130/36 193/131/36 56/128/36
f 12/132/37 13/133/37 58/134/37 57/135/37
f 139/136/38 19/137/38 64/138/38 196/139/38
f 19/137/39 20/140/39 65/141/39 64/138/39
f 17/142/40 18/143/40 63/144/40 62/145/40
f 9/146/41 10/126/41 55/129/41 54/147/41
f 20/140/42 21/148/42 66/149/42 65/141/42
f 16/150/43 17/142/43 62/145/43 61/151/43
f 145/152/44 16/150/44 61/151/44 202/153/44
f 147/154/45 15/155/45 60/156/45 204/157/45
f 13/133/46 14/158/46 59/159/46 58/134/46
usemtl FrontMat.001
f 101/160/47 103/161/47 121/162/47
f 96/163/47 94/164/47 93/165/47
f 106/166/47 104/167/47 112/168/47
f 98/169/47 96/163/47 97/170/47
f 107/171/47 110/172/47 120/173/47
f 101/160/47 98/169/47 99/174/47
f 98/169/47 97/170/47 99/174/47
f 134/175/47 133/176/47 137/177/47
f 106/166/47 112/168/47 122/178/47
f 121/162/47 106/166/47 122/178/47
f 146/179/47 129/180/47 131/181/47
f 103/161/47 106/166/47 121/162/47
f 125/182/47 101/160/47 121/162/47
f 144/183/47 146/179/47 131/181/47
f 129/180/47 127/184/47 128/185/47
f 97/170/47 96/163/47 95/186/47
f 119/187/47 124/188/47 113/189/47
f 127/184/47 123/190/47 128/185/47
f 96/163/47 93/165/47 95/186/47
f 113/189/47 111/191/47 119/187/47
f 137/177/47 133/176/47 146/179/47
f 142/192/47 143/193/47 141/194/47
f 101/160/47 99/174/47 103/161/47
f 124/188/47 115/195/47 113/189/47
f 92/196/47 91/197/47 95/186/47
f 135/198/47 134/175/47 137/177/47
f 133/176/47 129/180/47 146/179/47
f 120/173/47 119/187/47 107/171/47
f 112/168/47 114/199/47 122/178/47
f 111/191/47 107/171/47 119/187/47
f 111/191/47 108/200/47 107/171/47
f 140/201/47 138/202/47 142/192/47
f 123/190/47 125/182/47 128/185/47
f 143/193/47 144/183/47 131/181/47
f 141/194/47 140/201/47 142/192/47
f 93/165/47 92/196/47 95/186/47
f 120/173/47 110/172/47 123/190/47
f 123/190/47 101/160/47 125/182/47
f 128/185/47 131/181/47 129/180/47
f 143/193/47 131/181/47 141/194/47
f 122/178/47 114/199/47 126/203/47
f 110/172/47 101/160/47 123/190/47
f 114/199/47 117/204/47 126/203/47
