# Blender v2.83.1 OBJ File: 'jigsaw-32x20-3-step2.blend'
# www.blender.org
mtllib piece.147.mtl
o path3902
v 0.448090 0.037500 -0.186964
v 0.467443 0.037500 -0.113705
v 0.520795 0.037500 -0.116751
v 0.592137 0.037500 -0.152515
v 0.659035 0.037500 -0.158411
v 0.701798 0.037500 -0.092325
v 0.711695 0.037500 0.005911
v 0.682741 0.037500 0.075995
v 0.615113 0.037500 0.077967
v 0.533663 0.037500 0.053251
v 0.469407 0.037500 0.063620
v 0.445015 0.037500 0.151590
v 0.449765 0.037500 0.282602
v 0.478080 0.037500 0.499737
v 0.162158 0.037500 0.526913
v 0.087204 0.037500 0.506121
v 0.087173 0.037500 0.451460
v 0.119071 0.037500 0.379793
v 0.121124 0.037500 0.314587
v 0.052220 0.037500 0.276192
v -0.046081 0.037500 0.272495
v -0.111555 0.037500 0.308275
v -0.103524 0.037500 0.382034
v -0.067496 0.037500 0.467403
v -0.070528 0.037500 0.531754
v -0.158825 0.037500 0.551580
v -0.295189 0.037500 0.539814
v -0.523617 0.037500 0.499737
v -0.564268 0.037500 0.286352
v -0.576214 0.037500 0.157188
v -0.556114 0.037500 0.069521
v -0.490660 0.037500 0.057138
v -0.402789 0.037500 0.079063
v -0.324493 0.037500 0.075632
v -0.282272 0.037500 0.006941
v -0.280639 0.037500 -0.087929
v -0.318614 0.037500 -0.150129
v -0.390583 0.037500 -0.141146
v -0.472400 0.037500 -0.103783
v -0.535284 0.037500 -0.101166
v -0.558415 0.037500 -0.177084
v -0.552821 0.037500 -0.297962
v -0.523617 0.037500 -0.502172
v -0.166242 0.037500 -0.551989
v -0.079282 0.037500 -0.532736
v -0.075512 0.037500 -0.469927
v -0.110477 0.037500 -0.383430
v -0.119501 0.037500 -0.301344
v -0.058360 0.037500 -0.248095
v 0.035354 0.037500 -0.233421
v 0.103591 0.037500 -0.263403
v 0.107459 0.037500 -0.337381
v 0.084682 0.037500 -0.427858
v 0.092138 0.037500 -0.500607
v 0.169200 0.037500 -0.530464
v 0.285204 0.037500 -0.528513
v 0.478080 0.037500 -0.502172
v 0.448090 -0.037500 -0.186964
v 0.467443 -0.037500 -0.113705
v 0.520795 -0.037500 -0.116751
v 0.592137 -0.037500 -0.152515
v 0.659035 -0.037500 -0.158411
v 0.701798 -0.037500 -0.092325
v 0.711695 -0.037500 0.005911
v 0.682741 -0.037500 0.075995
v 0.615113 -0.037500 0.077967
v 0.533663 -0.037498 0.053251
v 0.469407 -0.037500 0.063620
v 0.445015 -0.037500 0.151590
v 0.449765 -0.037500 0.282602
v 0.478080 -0.037500 0.499737
v 0.162158 -0.037500 0.526913
v 0.087204 -0.037500 0.506121
v 0.087173 -0.037498 0.451460
v 0.119071 -0.037500 0.379793
v 0.121124 -0.037500 0.314587
v 0.052220 -0.037500 0.276192
v -0.046081 -0.037500 0.272495
v -0.111555 -0.037500 0.308275
v -0.103524 -0.037500 0.382034
v -0.067496 -0.037500 0.467403
v -0.070528 -0.037500 0.531754
v -0.158825 -0.037498 0.551580
v -0.295189 -0.037500 0.539814
v -0.523617 -0.037500 0.499737
v -0.564268 -0.037500 0.286352
v -0.576214 -0.037500 0.157188
v -0.556114 -0.037500 0.069521
v -0.490660 -0.037500 0.057138
v -0.402789 -0.037498 0.079063
v -0.324493 -0.037500 0.075632
v -0.282272 -0.037500 0.006941
v -0.280639 -0.037500 -0.087929
v -0.318614 -0.037500 -0.150129
v -0.390583 -0.037500 -0.141146
v -0.472400 -0.037498 -0.103783
v -0.535284 -0.037500 -0.101166
v -0.558415 -0.037500 -0.177084
v -0.552821 -0.037498 -0.297962
v -0.523617 -0.037500 -0.502172
v -0.166242 -0.037500 -0.551989
v -0.079282 -0.037498 -0.532736
v -0.075512 -0.037500 -0.469927
v -0.110477 -0.037500 -0.383430
v -0.119501 -0.037500 -0.301344
v -0.058360 -0.037500 -0.248095
v 0.035354 -0.037500 -0.233421
v 0.103591 -0.037500 -0.263403
v 0.107459 -0.037498 -0.337381
v 0.084682 -0.037500 -0.427858
v 0.092138 -0.037500 -0.500607
v 0.169200 -0.037500 -0.530464
v 0.285204 -0.037500 -0.528513
v 0.478080 -0.037500 -0.502172
v 0.701798 0.037500 -0.092325
v 0.711695 0.037500 0.005911
v 0.682741 0.037500 0.075995
v 0.682741 0.037500 0.075995
v 0.659035 0.037500 -0.158411
v 0.659035 0.037500 -0.158411
v 0.615113 0.037500 0.077967
v 0.592137 0.037500 -0.152515
v 0.533663 0.037500 0.053251
v 0.520795 0.037500 -0.116751
v 0.469407 0.037500 0.063620
v 0.469407 0.037500 0.063620
v 0.467443 0.037500 -0.113705
v 0.467443 0.037500 -0.113705
v 0.445015 0.037500 0.151590
v 0.448090 0.037500 -0.186964
v 0.449765 0.037500 0.282602
v 0.478080 0.037500 0.499737
v 0.478080 0.037500 0.499737
v 0.478080 0.037500 -0.502172
v 0.478080 0.037500 -0.502172
v 0.285204 0.037500 -0.528513
v 0.169200 0.037500 -0.530464
v 0.162158 0.037500 0.526913
v 0.092138 0.037500 -0.500607
v 0.092138 0.037500 -0.500607
v 0.119071 0.037500 0.379793
v 0.121124 0.037500 0.314587
v 0.121124 0.037500 0.314587
v 0.087204 0.037500 0.506121
v 0.087204 0.037500 0.506121
v 0.103591 0.037500 -0.263403
v 0.103591 0.037500 -0.263403
v 0.107459 0.037500 -0.337381
v 0.052220 0.037500 0.276192
v 0.087173 0.037500 0.451460
v 0.084682 0.037500 -0.427858
v 0.035354 0.037500 -0.233421
v -0.046081 0.037500 0.272495
v -0.058360 0.037500 -0.248095
v -0.111555 0.037500 0.308275
v -0.111555 0.037500 0.308275
v -0.119501 0.037500 -0.301344
v -0.103524 0.037500 0.382034
v -0.067496 0.037500 0.467403
v -0.070528 0.037500 0.531754
v -0.070528 0.037500 0.531754
v -0.158825 0.037500 0.551580
v -0.079282 0.037500 -0.532736
v -0.079282 0.037500 -0.532736
v -0.075512 0.037500 -0.469927
v -0.110477 0.037500 -0.383430
v -0.166242 0.037500 -0.551989
v -0.295189 0.037500 0.539814
v -0.282272 0.037500 0.006941
v -0.280639 0.037500 -0.087929
v -0.318614 0.037500 -0.150129
v -0.318614 0.037500 -0.150129
v -0.324493 0.037500 0.075632
v -0.390583 0.037500 -0.141146
v -0.402789 0.037500 0.079063
v -0.472400 0.037500 -0.103783
v -0.490660 0.037500 0.057138
v -0.523617 0.037500 -0.502172
v -0.523617 0.037500 -0.502172
v -0.535284 0.037500 -0.101166
v -0.535284 0.037500 -0.101166
v -0.556114 0.037500 0.069521
v -0.556114 0.037500 0.069521
v -0.523617 0.037500 0.499737
v -0.523617 0.037500 0.499737
v -0.558415 0.037500 -0.177084
v -0.552821 0.037500 -0.297962
v -0.564268 0.037500 0.286352
v -0.576214 0.037500 0.157188
v 0.701798 -0.037500 -0.092325
v 0.711695 -0.037500 0.005911
v 0.682741 -0.037500 0.075995
v 0.682741 -0.037500 0.075995
v 0.659035 -0.037500 -0.158411
v 0.659035 -0.037500 -0.158411
v 0.615113 -0.037500 0.077967
v 0.592137 -0.037500 -0.152515
v 0.533663 -0.037498 0.053251
v 0.520795 -0.037500 -0.116751
v 0.469407 -0.037500 0.063620
v 0.469407 -0.037500 0.063620
v 0.467443 -0.037500 -0.113705
v 0.467443 -0.037500 -0.113705
v 0.445015 -0.037500 0.151590
v 0.448090 -0.037500 -0.186964
v 0.449765 -0.037500 0.282602
v 0.478080 -0.037500 0.499737
v 0.478080 -0.037500 0.499737
v 0.478080 -0.037500 -0.502172
v 0.478080 -0.037500 -0.502172
v 0.285204 -0.037500 -0.528513
v 0.169200 -0.037500 -0.530464
v 0.162158 -0.037500 0.526913
v 0.092138 -0.037500 -0.500607
v 0.092138 -0.037500 -0.500607
v 0.119071 -0.037500 0.379793
v 0.121124 -0.037500 0.314587
v 0.121124 -0.037500 0.314587
v 0.087204 -0.037500 0.506121
v 0.087204 -0.037500 0.506121
v 0.103591 -0.037500 -0.263403
v 0.103591 -0.037500 -0.263403
v 0.107459 -0.037498 -0.337381
v 0.052220 -0.037500 0.276192
v 0.087173 -0.037498 0.451460
v 0.084682 -0.037500 -0.427858
v 0.035354 -0.037500 -0.233421
v -0.046081 -0.037500 0.272495
v -0.058360 -0.037500 -0.248095
v -0.111555 -0.037500 0.308275
v -0.111555 -0.037500 0.308275
v -0.119501 -0.037500 -0.301344
v -0.103524 -0.037500 0.382034
v -0.067496 -0.037500 0.467403
v -0.070528 -0.037500 0.531754
v -0.070528 -0.037500 0.531754
v -0.158825 -0.037498 0.551580
v -0.079282 -0.037498 -0.532736
v -0.079282 -0.037498 -0.532736
v -0.075512 -0.037500 -0.469927
v -0.110477 -0.037500 -0.383430
v -0.166242 -0.037500 -0.551989
v -0.295189 -0.037500 0.539814
v -0.282272 -0.037500 0.006941
v -0.280639 -0.037500 -0.087929
v -0.318614 -0.037500 -0.150129
v -0.318614 -0.037500 -0.150129
v -0.324493 -0.037500 0.075632
v -0.390583 -0.037500 -0.141146
v -0.402789 -0.037498 0.079063
v -0.472400 -0.037498 -0.103783
v -0.490660 -0.037500 0.057138
v -0.523617 -0.037500 -0.502172
v -0.523617 -0.037500 -0.502172
v -0.535284 -0.037500 -0.101166
v -0.535284 -0.037500 -0.101166
v -0.556114 -0.037500 0.069521
v -0.556114 -0.037500 0.069521
v -0.523617 -0.037500 0.499737
v -0.523617 -0.037500 0.499737
v -0.558415 -0.037500 -0.177084
v -0.552821 -0.037498 -0.297962
v -0.564268 -0.037500 0.286352
v -0.576214 -0.037500 0.157188
vt 0.500000 0.500000
vt 0.500000 0.500000
vt 0.500000 0.500000
vt 0.500000 0.500000
vt 0.500000 0.500000
vt 0.500000 0.500000
vt 0.500000 0.500000
vt 0.500000 0.500000
vt 0.500000 0.500000
vt 0.500000 0.500000
vt 0.500000 0.500000
vt 0.500000 0.500000
vt 0.500000 0.500000
vt 0.500000 0.500000
vt 0.500000 0.500000
vt 0.500000 0.500000
vt 0.500000 0.500000
vt 0.500000 0.500000
vt 0.500000 0.500000
vt 0.500000 0.500000
vt 0.500000 0.500000
vt 0.500000 0.500000
vt 0.500000 0.500000
vt 0.500000 0.500000
vt 0.500000 0.500000
vt 0.500000 0.500000
vt 0.500000 0.500000
vt 0.500000 0.500000
vt 0.500000 0.500000
vt 0.500000 0.500000
vt 0.500000 0.500000
vt 0.500000 0.500000
vt 0.500000 0.500000
vt 0.500000 0.500000
vt 0.500000 0.500000
vt 0.500000 0.500000
vt 0.500000 0.500000
vt 0.500000 0.500000
vt 0.500000 0.500000
vt 0.500000 0.500000
vt 0.500000 0.500000
vt 0.500000 0.500000
vt 0.500000 0.500000
vt 0.500000 0.500000
vt 0.500000 0.500000
vt 0.500000 0.500000
vt 0.500000 0.500000
vt 0.500000 0.500000
vt 0.500000 0.500000
vt 0.500000 0.500000
vt 0.500000 0.500000
vt 0.500000 0.500000
vt 0.500000 0.500000
vt 0.500000 0.500000
vt 0.500000 0.500000
vt 0.500000 0.500000
vt 0.500000 0.500000
vt 0.500000 0.500000
vt 0.500000 0.500000
vt 0.500000 0.500000
vt 0.500000 0.500000
vt 0.500000 0.500000
vt 0.500000 0.500000
vt 0.500000 0.500000
vt 0.500000 0.500000
vt 0.500000 0.500000
vt 0.500000 0.500000
vt 0.500000 0.500000
vt 0.500000 0.500000
vt 0.500000 0.500000
vt 0.500000 0.500000
vt 0.500000 0.500000
vt 0.500000 0.500000
vt 0.500000 0.500000
vt 0.500000 0.500000
vt 0.500000 0.500000
vt 0.500000 0.500000
vt 0.500000 0.500000
vt 0.500000 0.500000
vt 0.500000 0.500000
vt 0.500000 0.500000
vt 0.500000 0.500000
vt 0.500000 0.500000
vt 0.500000 0.500000
vt 0.500000 0.500000
vt 0.500000 0.500000
vt 0.500000 0.500000
vt 0.500000 0.500000
vt 0.500000 0.500000
vt 0.500000 0.500000
vt 0.500000 0.500000
vt 0.500000 0.500000
vt 0.500000 0.500000
vt 0.500000 0.500000
vt 0.500000 0.500000
vt 0.500000 0.500000
vt 0.500000 0.500000
vt 0.500000 0.500000
vt 0.500000 0.500000
vt 0.500000 0.500000
vt 0.500000 0.500000
vt 0.500000 0.500000
vt 0.500000 0.500000
vt 0.500000 0.500000
vt 0.500000 0.500000
vt 0.500000 0.500000
vt 0.500000 0.500000
vt 0.500000 0.500000
vt 0.500000 0.500000
vt 0.500000 0.500000
vt 0.500000 0.500000
vt 0.500000 0.500000
vt 0.500000 0.500000
vt 0.500000 0.500000
vt 0.500000 0.500000
vt 0.500000 0.500000
vt 0.500000 0.500000
vt 0.500000 0.500000
vt 0.500000 0.500000
vt 0.500000 0.500000
vt 0.500000 0.500000
vt 0.500000 0.500000
vt 0.500000 0.500000
vt 0.500000 0.500000
vt 0.500000 0.500000
vt 0.500000 0.500000
vt 0.500000 0.500000
vt 0.500000 0.500000
vt 0.500000 0.500000
vt 0.500000 0.500000
vt 0.500000 0.500000
vt 0.500000 0.500000
vt 0.500000 0.500000
vt 0.500000 0.500000
vt 0.500000 0.500000
vt 0.500000 0.500000
vt 0.500000 0.500000
vt 0.500000 0.500000
vt 0.500000 0.500000
vt 0.500000 0.500000
vt 0.500000 0.500000
vt 0.500000 0.500000
vt 0.500000 0.500000
vt 0.500000 0.500000
vt 0.500000 0.500000
vt 0.500000 0.500000
vt 0.500000 0.500000
vt 0.500000 0.500000
vt 0.500000 0.500000
vt 0.500000 0.500000
vt 0.500000 0.500000
vt 0.500000 0.500000
vt 0.500000 0.500000
vt 0.500000 0.500000
vt 0.500000 0.500000
vt 0.500000 0.500000
vt 0.500000 0.500000
vt 0.500000 0.500000
vt 0.500000 0.500000
vt 0.500000 0.500000
vt 0.500000 0.500000
vt 0.500000 0.500000
vt 0.500000 0.500000
vt 0.500000 0.500000
vt 0.500000 0.500000
vt 0.500000 0.500000
vt 0.500000 0.500000
vt 0.500000 0.500000
vt 0.500000 0.500000
vt 0.500000 0.500000
vt 0.500000 0.500000
vt 0.500000 0.500000
vt 0.500000 0.500000
vt 0.500000 0.500000
vt 0.500000 0.500000
vt 0.500000 0.500000
vt 0.500000 0.500000
vt 0.500000 0.500000
vt 0.500000 0.500000
vt 0.500000 0.500000
vt 0.500000 0.500000
vt 0.500000 0.500000
vt 0.500000 0.500000
vt 0.500000 0.500000
vt 0.500000 0.500000
vt 0.500000 0.500000
vt 0.500000 0.500000
vt 0.500000 0.500000
vt 0.500000 0.500000
vt 0.500000 0.500000
vt 0.500000 0.500000
vt 0.500000 0.500000
vt 0.500000 0.500000
vt 0.500000 0.500000
vt 0.500000 0.500000
vt 0.500000 0.500000
vt 0.500000 0.500000
vt 0.500000 0.500000
vt 0.500000 0.500000
vt 0.500000 0.500000
vt 0.500000 0.500000
vt 0.500000 0.500000
vt 0.500000 0.500000
vt 0.500000 0.500000
vt 0.500000 0.500000
vt 0.500000 0.500000
vt 0.500000 0.500000
vt 0.592741 0.772768
vt 0.590079 0.770969
vt 0.595367 0.768209
vt 0.580147 0.799567
vt 0.579824 0.802774
vt 0.574616 0.799469
vt 0.590009 0.782080
vt 0.586977 0.798587
vt 0.587975 0.782183
vt 0.569947 0.781307
vt 0.574926 0.752557
vt 0.573761 0.756641
vt 0.572640 0.748263
vt 0.580595 0.806840
vt 0.575283 0.811167
vt 0.595000 0.761402
vt 0.587778 0.770568
vt 0.573480 0.760233
vt 0.568869 0.748542
vt 0.582891 0.798350
vt 0.575008 0.749418
vt 0.566204 0.770622
vt 0.563506 0.772367
vt 0.560946 0.767838
vt 0.562500 0.750000
vt 0.580331 0.748378
vt 0.583066 0.747375
vt 0.579945 0.751645
vt 0.586778 0.778743
vt 0.570883 0.777901
vt 0.575420 0.762128
vt 0.568764 0.770172
vt 0.561618 0.784582
vt 0.564818 0.780363
vt 0.567640 0.781500
vt 0.592244 0.780488
vt 0.593949 0.780489
vt 0.594598 0.784231
vt 0.580522 0.759939
vt 0.580629 0.756031
vt 0.587094 0.747971
vt 0.572331 0.798503
vt 0.561678 0.790373
vt 0.586662 0.773836
vt 0.574522 0.802132
vt 0.593750 0.750000
vt 0.570425 0.773223
vt 0.593750 0.800000
vt 0.561547 0.772179
vt 0.578380 0.762047
vt 0.573222 0.809032
vt 0.573406 0.805693
vt 0.580533 0.810216
vt 0.578347 0.811661
vt 0.562549 0.780736
vt 0.562500 0.800000
vt 0.594749 0.772616
vn -0.0000 -1.0000 0.0000
vn 0.9950 0.0000 -0.1002
vn 0.9242 0.0000 0.3818
vn 0.8396 0.0000 -0.5433
vn 0.0292 0.0000 0.9996
vn -0.0878 0.0000 -0.9961
vn -0.2904 0.0000 0.9569
vn -0.4482 0.0000 -0.8940
vn 0.1593 0.0000 0.9872
vn -0.0570 0.0000 -0.9984
vn 0.9636 0.0000 0.2672
vn 0.9668 0.0000 -0.2554
vn 0.9916 0.0000 -0.1293
vn 0.9955 0.0000 0.0947
vn 0.9993 0.0000 -0.0362
vn 0.1353 0.0000 -0.9908
vn 0.0168 0.0000 -0.9999
vn 0.0857 0.0000 0.9963
vn -0.3613 0.0000 -0.9325
vn -0.9995 0.0000 -0.0315
vn -0.2673 0.0000 0.9636
vn -0.9986 0.0000 -0.0522
vn -0.4868 0.0000 0.8735
vn -0.9136 0.0000 -0.4066
vn -1.0000 0.0000 0.0006
vn -0.9948 0.0000 -0.1020
vn -0.9697 0.0000 0.2441
vn -0.4023 0.0000 -0.9155
vn -0.0376 0.0000 0.9993
vn 0.1547 0.0000 -0.9880
vn 0.4795 0.0000 0.8775
vn 0.6568 0.0000 -0.7541
vn 0.9213 0.0000 -0.3888
vn 0.9989 0.0000 0.0471
vn 0.2191 0.0000 0.9757
vn 0.9982 0.0000 -0.0599
vn 0.9271 0.0000 0.3748
vn 0.2162 0.0000 -0.9764
vn 0.9941 0.0000 -0.1082
vn 0.9940 0.0000 0.1093
vn -0.0860 0.0000 0.9963
vn -0.9999 0.0000 -0.0172
vn -0.8535 0.0000 0.5211
vn -0.8519 0.0000 -0.5236
vn 0.1239 0.0000 0.9923
vn -0.0438 0.0000 -0.9990
vn 0.4154 0.0000 0.9096
vn 0.2421 0.0000 -0.9703
vn -0.1381 0.0000 -0.9904
vn 0.0416 0.0000 0.9991
vn -0.1859 0.0000 -0.9826
vn -0.1728 0.0000 0.9850
vn -0.9566 0.0000 0.2915
vn -0.9899 0.0000 -0.1416
vn -0.9989 0.0000 -0.0462
vn -0.9823 0.0000 0.1871
vn -0.9747 0.0000 -0.2235
vn -0.9957 0.0000 0.0921
vn 0.0000 1.0000 0.0000
usemtl BackMat.001
s off
f 234/1/1 237/2/1 233/3/1
f 200/4/1 202/5/1 198/6/1
f 216/7/1 217/8/1 206/9/1
f 200/4/1 221/10/1 202/5/1
f 251/11/1 261/12/1 249/13/1
f 198/6/1 190/14/1 196/15/1
f 243/16/1 230/17/1 233/3/1
f 249/13/1 262/18/1 246/19/1
f 206/9/1 217/8/1 204/20/1
f 255/21/1 261/12/1 251/11/1
f 243/16/1 233/3/1 237/2/1
f 241/22/1 242/23/1 240/24/1
f 242/23/1 241/22/1 253/25/1
f 257/26/1 252/27/1 264/28/1
f 224/29/1 227/30/1 200/4/1
f 246/19/1 232/31/1 245/32/1
f 212/33/1 223/34/1 226/35/1
f 225/36/1 213/37/1 219/38/1
f 248/39/1 263/40/1 250/41/1
f 205/42/1 223/34/1 211/43/1
f 228/44/1 227/30/1 224/29/1
f 230/17/1 248/39/1 228/44/1
f 213/37/1 216/7/1 206/9/1
f 199/45/1 190/14/1 198/6/1
f 250/41/1 264/28/1 252/27/1
f 198/6/1 202/5/1 199/45/1
f 202/5/1 221/10/1 205/42/1
f 263/40/1 243/16/1 259/46/1
f 245/32/1 232/31/1 229/47/1
f 262/18/1 249/13/1 261/12/1
f 213/37/1 206/9/1 207/48/1
f 248/39/1 230/17/1 263/40/1
f 217/8/1 224/29/1 204/20/1
f 264/28/1 250/41/1 263/40/1
f 238/49/1 240/24/1 242/23/1
f 211/43/1 223/34/1 212/33/1
f 244/50/1 229/47/1 227/30/1
f 216/7/1 213/37/1 225/36/1
f 190/14/1 197/51/1 194/52/1
f 196/15/1 191/53/1 192/54/1
f 212/33/1 226/35/1 214/55/1
f 205/42/1 221/10/1 223/34/1
f 244/50/1 227/30/1 228/44/1
f 196/15/1 190/14/1 191/53/1
f 205/42/1 211/43/1 209/56/1
f 235/57/1 237/2/1 234/1/1
f 204/20/1 224/29/1 200/4/1
f 246/19/1 253/25/1 241/22/1
f 227/30/1 221/10/1 200/4/1
f 263/40/1 230/17/1 243/16/1
f 246/19/1 241/22/1 232/31/1
f 253/25/1 246/19/1 262/18/1
f 245/32/1 229/47/1 244/50/1
f 244/50/1 228/44/1 248/39/1
f 199/45/1 197/51/1 190/14/1
f 6/58/2 7/59/2 64/60/2 63/61/2
f 7/59/3 118/62/3 193/63/3 64/60/3
f 120/64/4 6/58/4 63/61/4 195/65/4
f 8/66/5 9/67/5 66/68/5 65/69/5
f 4/70/6 5/71/6 62/72/6 61/73/6
f 9/67/7 10/74/7 67/75/7 66/68/7
f 3/76/8 4/70/8 61/73/8 60/77/8
f 10/74/9 126/78/9 201/79/9 67/75/9
f 128/80/10 3/76/10 60/77/10 203/81/10
f 11/82/11 12/83/11 69/84/11 68/85/11
f 1/86/12 2/87/12 59/88/12 58/89/12
f 13/90/13 133/91/13 208/92/13 70/93/13
f 135/94/14 1/86/14 58/89/14 210/95/14
f 12/83/15 13/90/15 70/93/15 69/84/15
f 56/96/16 57/97/16 114/98/16 113/99/16
f 55/100/17 56/96/17 113/99/17 112/101/17
f 14/102/18 15/103/18 72/104/18 71/105/18
f 140/106/19 55/100/19 112/101/19 215/107/19
f 18/108/20 143/109/20 218/110/20 75/111/20
f 15/103/21 145/112/21 220/113/21 72/104/21
f 147/114/22 52/115/22 109/116/22 222/117/22
f 19/118/23 20/119/23 77/120/23 76/121/23
f 17/122/24 18/108/24 75/111/24 74/123/24
f 16/124/25 17/122/25 74/123/25 73/125/25
f 53/126/26 54/127/26 111/128/26 110/129/26
f 52/115/27 53/126/27 110/129/27 109/116/27
f 50/130/28 51/131/28 108/132/28 107/133/28
f 20/119/29 21/134/29 78/135/29 77/120/29
f 49/136/30 50/130/30 107/133/30 106/137/30
f 21/134/31 156/138/31 231/139/31 78/135/31
f 48/140/32 49/136/32 106/137/32 105/141/32
f 23/142/33 24/143/33 81/144/33 80/145/33
f 24/143/34 161/146/34 236/147/34 81/144/34
f 25/148/35 26/149/35 83/150/35 82/151/35
f 164/152/36 46/153/36 103/154/36 239/155/36
f 46/153/37 47/156/37 104/157/37 103/154/37
f 44/158/38 45/159/38 102/160/38 101/161/38
f 22/162/39 23/142/39 80/145/39 79/163/39
f 47/156/40 48/140/40 105/141/40 104/157/40
f 26/149/41 27/164/41 84/165/41 83/150/41
f 35/166/42 36/167/42 93/168/42 92/169/42
f 36/167/43 172/170/43 247/171/43 93/168/43
f 34/172/44 35/166/44 92/169/44 91/173/44
f 37/174/45 38/175/45 95/176/45 94/177/45
f 33/178/46 34/172/46 91/173/46 90/179/46
f 38/175/47 39/180/47 96/181/47 95/176/47
f 32/182/48 33/178/48 90/179/48 89/183/48
f 179/184/49 44/158/49 101/161/49 254/185/49
f 39/180/50 181/186/50 256/187/50 96/181/50
f 183/188/51 32/182/51 89/183/51 258/189/51
f 27/164/52 185/190/52 260/191/52 84/165/52
f 40/192/53 41/193/53 98/194/53 97/195/53
f 42/196/54 43/197/54 100/198/54 99/199/54
f 41/193/55 42/196/55 99/199/55 98/194/55
f 28/200/56 29/201/56 86/202/56 85/203/56
f 30/204/57 31/205/57 88/206/57 87/207/57
f 29/201/58 30/204/58 87/207/58 86/202/58
usemtl FrontMat.001
f 159/208/59 158/209/59 162/210/59
f 125/211/59 123/212/59 127/213/59
f 141/214/59 131/215/59 142/216/59
f 125/211/59 127/213/59 146/217/59
f 176/218/59 174/219/59 186/220/59
f 123/212/59 121/221/59 115/222/59
f 168/223/59 158/209/59 155/224/59
f 174/219/59 171/225/59 187/226/59
f 131/215/59 129/227/59 142/216/59
f 180/228/59 176/218/59 186/220/59
f 168/223/59 162/210/59 158/209/59
f 166/229/59 165/230/59 167/231/59
f 167/231/59 178/232/59 166/229/59
f 182/233/59 189/234/59 177/235/59
f 149/236/59 125/211/59 152/237/59
f 171/225/59 170/238/59 157/239/59
f 137/240/59 151/241/59 148/242/59
f 150/243/59 144/244/59 138/245/59
f 173/246/59 175/247/59 188/248/59
f 130/249/59 136/250/59 148/242/59
f 153/251/59 149/236/59 152/237/59
f 155/224/59 153/251/59 173/246/59
f 138/245/59 131/215/59 141/214/59
f 124/252/59 123/212/59 115/222/59
f 175/247/59 177/235/59 189/234/59
f 123/212/59 124/252/59 127/213/59
f 127/213/59 130/249/59 146/217/59
f 188/248/59 184/253/59 168/223/59
f 170/238/59 154/254/59 157/239/59
f 187/226/59 186/220/59 174/219/59
f 138/245/59 132/255/59 131/215/59
f 173/246/59 188/248/59 155/224/59
f 142/216/59 129/227/59 149/236/59
f 189/234/59 188/248/59 175/247/59
f 163/256/59 167/231/59 165/230/59
f 136/250/59 137/240/59 148/242/59
f 169/257/59 152/237/59 154/254/59
f 141/214/59 150/243/59 138/245/59
f 115/222/59 119/258/59 122/259/59
f 121/221/59 117/260/59 116/261/59
f 137/240/59 139/262/59 151/241/59
f 130/249/59 148/242/59 146/217/59
f 169/257/59 153/251/59 152/237/59
f 121/221/59 116/261/59 115/222/59
f 130/249/59 134/263/59 136/250/59
f 160/264/59 159/208/59 162/210/59
f 129/227/59 125/211/59 149/236/59
f 171/225/59 166/229/59 178/232/59
f 152/237/59 125/211/59 146/217/59
f 188/248/59 168/223/59 155/224/59
f 171/225/59 157/239/59 166/229/59
f 178/232/59 187/226/59 171/225/59
f 170/238/59 169/257/59 154/254/59
f 169/257/59 173/246/59 153/251/59
f 124/252/59 115/222/59 122/259/59
