# Blender v2.83.1 OBJ File: 'jigsaw-32x20-3-step2.blend'
# www.blender.org
mtllib piece.526.mtl
o path4660
v -0.319963 0.037500 -0.532438
v -0.201998 0.037500 -0.540572
v -0.125399 0.037500 -0.514363
v -0.121986 0.037500 -0.440500
v -0.150558 0.037500 -0.344508
v -0.151653 0.037500 -0.261611
v -0.085646 0.037500 -0.220888
v 0.007725 0.037500 -0.226870
v 0.068871 0.037500 -0.277942
v 0.059124 0.037500 -0.366967
v 0.023470 0.037500 -0.464718
v 0.027803 0.037500 -0.536442
v 0.117348 0.037500 -0.557378
v 0.254686 0.037500 -0.542686
v 0.484287 0.037500 -0.495479
v 0.432230 0.037500 -0.281724
v 0.413408 0.037500 -0.152299
v 0.428913 0.037500 -0.064390
v 0.494097 0.037500 -0.051997
v 0.584913 0.037500 -0.074920
v 0.667473 0.037500 -0.074410
v 0.713409 0.037500 -0.010916
v 0.716507 0.037500 0.078026
v 0.676088 0.037500 0.135653
v 0.597237 0.037500 0.125071
v 0.507961 0.037500 0.088844
v 0.442020 0.037500 0.089405
v 0.423594 0.037500 0.169781
v 0.438492 0.037500 0.295352
v 0.484287 0.037500 0.506431
v 0.137287 0.037500 0.528124
v 0.053438 0.037500 0.506932
v 0.050735 0.037500 0.453930
v 0.084660 0.037500 0.384344
v 0.090719 0.037500 0.319416
v 0.025198 0.037500 0.278025
v -0.072538 0.037500 0.269608
v -0.142363 0.037500 0.301251
v -0.144119 0.037500 0.373316
v -0.117569 0.037500 0.459302
v -0.122438 0.037500 0.525992
v -0.200169 0.037500 0.549236
v -0.318977 0.037500 0.541116
v -0.517410 0.037500 0.506431
v -0.562915 0.037500 0.307233
v -0.579085 0.037500 0.189512
v -0.564720 0.037500 0.115988
v -0.505730 0.037500 0.119309
v -0.420853 0.037500 0.155587
v -0.337040 0.037500 0.161796
v -0.278313 0.037500 0.095613
v -0.256962 0.037500 -0.002459
v -0.282347 0.037500 -0.071224
v -0.356081 0.037500 -0.070271
v -0.448811 0.037500 -0.042340
v -0.523432 0.037500 -0.050964
v -0.552644 0.037500 -0.139860
v -0.548349 0.037500 -0.273457
v -0.517410 0.037500 -0.495479
v -0.319963 -0.037500 -0.532438
v -0.201998 -0.037500 -0.540572
v -0.125399 -0.037500 -0.514363
v -0.121986 -0.037500 -0.440500
v -0.150558 -0.037500 -0.344508
v -0.151653 -0.037500 -0.261611
v -0.085646 -0.037500 -0.220888
v 0.007725 -0.037498 -0.226870
v 0.068871 -0.037500 -0.277942
v 0.059124 -0.037500 -0.366967
v 0.023470 -0.037498 -0.464718
v 0.027803 -0.037500 -0.536442
v 0.117348 -0.037498 -0.557378
v 0.254686 -0.037500 -0.542686
v 0.484287 -0.037500 -0.495479
v 0.432230 -0.037500 -0.281724
v 0.413408 -0.037500 -0.152299
v 0.428913 -0.037500 -0.064390
v 0.494097 -0.037498 -0.051997
v 0.584913 -0.037500 -0.074920
v 0.667473 -0.037500 -0.074410
v 0.713409 -0.037500 -0.010916
v 0.716507 -0.037500 0.078026
v 0.676088 -0.037500 0.135653
v 0.597237 -0.037500 0.125071
v 0.507961 -0.037498 0.088844
v 0.442020 -0.037500 0.089405
v 0.423594 -0.037500 0.169781
v 0.438492 -0.037500 0.295352
v 0.484287 -0.037500 0.506431
v 0.137287 -0.037498 0.528124
v 0.053438 -0.037498 0.506932
v 0.050735 -0.037500 0.453930
v 0.084660 -0.037500 0.384344
v 0.090719 -0.037500 0.319416
v 0.025198 -0.037498 0.278025
v -0.072538 -0.037500 0.269608
v -0.142363 -0.037500 0.301251
v -0.144119 -0.037498 0.373316
v -0.117569 -0.037500 0.459302
v -0.122438 -0.037500 0.525992
v -0.200169 -0.037500 0.549236
v -0.318977 -0.037498 0.541116
v -0.517410 -0.037498 0.506431
v -0.562915 -0.037500 0.307233
v -0.579085 -0.037500 0.189512
v -0.564720 -0.037500 0.115988
v -0.505730 -0.037500 0.119309
v -0.420853 -0.037500 0.155587
v -0.337040 -0.037500 0.161796
v -0.278313 -0.037500 0.095613
v -0.256962 -0.037500 -0.002459
v -0.282347 -0.037498 -0.071224
v -0.356081 -0.037498 -0.070271
v -0.448811 -0.037500 -0.042340
v -0.523432 -0.037500 -0.050964
v -0.552644 -0.037500 -0.139860
v -0.548349 -0.037500 -0.273457
v -0.517410 -0.037500 -0.495479
v -0.562915 0.037500 0.307233
v -0.579085 0.037500 0.189512
v -0.564720 0.037500 0.115988
v -0.564720 0.037500 0.115988
v -0.505730 0.037500 0.119309
v -0.523432 0.037500 -0.050964
v -0.523432 0.037500 -0.050964
v -0.552644 0.037500 -0.139860
v -0.548349 0.037500 -0.273457
v -0.517410 0.037500 0.506431
v -0.517410 0.037500 0.506431
v -0.448811 0.037500 -0.042340
v -0.517410 0.037500 -0.495479
v -0.517410 0.037500 -0.495479
v -0.420853 0.037500 0.155587
v -0.356081 0.037500 -0.070271
v -0.319963 0.037500 -0.532438
v -0.318977 0.037500 0.541116
v -0.337040 0.037500 0.161796
v -0.282347 0.037500 -0.071224
v -0.282347 0.037500 -0.071224
v -0.278313 0.037500 0.095613
v -0.201998 0.037500 -0.540572
v -0.200169 0.037500 0.549236
v -0.256962 0.037500 -0.002459
v -0.125399 0.037500 -0.514363
v -0.125399 0.037500 -0.514363
v -0.122438 0.037500 0.525992
v -0.122438 0.037500 0.525992
v -0.150558 0.037500 -0.344508
v -0.151653 0.037500 -0.261611
v -0.142363 0.037500 0.301251
v -0.142363 0.037500 0.301251
v -0.144119 0.037500 0.373316
v -0.085646 0.037500 -0.220888
v -0.121986 0.037500 -0.440500
v -0.117569 0.037500 0.459302
v -0.072538 0.037500 0.269608
v 0.007725 0.037500 -0.226870
v 0.025198 0.037500 0.278025
v 0.068871 0.037500 -0.277942
v 0.059124 0.037500 -0.366967
v 0.023470 0.037500 -0.464718
v 0.027803 0.037500 -0.536442
v 0.027803 0.037500 -0.536442
v 0.090719 0.037500 0.319416
v 0.090719 0.037500 0.319416
v 0.117348 0.037500 -0.557378
v 0.053438 0.037500 0.506932
v 0.053438 0.037500 0.506932
v 0.050735 0.037500 0.453930
v 0.084660 0.037500 0.384344
v 0.137287 0.037500 0.528124
v 0.254686 0.037500 -0.542686
v 0.484287 0.037500 0.506431
v 0.484287 0.037500 0.506431
v 0.423594 0.037500 0.169781
v 0.438492 0.037500 0.295352
v 0.413408 0.037500 -0.152299
v 0.428913 0.037500 -0.064390
v 0.428913 0.037500 -0.064390
v 0.432230 0.037500 -0.281724
v 0.442020 0.037500 0.089405
v 0.442020 0.037500 0.089405
v 0.494097 0.037500 -0.051997
v 0.507961 0.037500 0.088844
v 0.484287 0.037500 -0.495479
v 0.484287 0.037500 -0.495479
v 0.584913 0.037500 -0.074920
v 0.597237 0.037500 0.125071
v 0.667473 0.037500 -0.074410
v 0.676088 0.037500 0.135653
v 0.676088 0.037500 0.135653
v 0.713409 0.037500 -0.010916
v 0.716507 0.037500 0.078026
v -0.562915 -0.037500 0.307233
v -0.579085 -0.037500 0.189512
v -0.564720 -0.037500 0.115988
v -0.564720 -0.037500 0.115988
v -0.505730 -0.037500 0.119309
v -0.523432 -0.037500 -0.050964
v -0.523432 -0.037500 -0.050964
v -0.552644 -0.037500 -0.139860
v -0.548349 -0.037500 -0.273457
v -0.517410 -0.037498 0.506431
v -0.517410 -0.037498 0.506431
v -0.448811 -0.037500 -0.042340
v -0.517410 -0.037500 -0.495479
v -0.517410 -0.037500 -0.495479
v -0.420853 -0.037500 0.155587
v -0.356081 -0.037498 -0.070271
v -0.319963 -0.037500 -0.532438
v -0.318977 -0.037498 0.541116
v -0.337040 -0.037500 0.161796
v -0.282347 -0.037498 -0.071224
v -0.282347 -0.037498 -0.071224
v -0.278313 -0.037500 0.095613
v -0.201998 -0.037500 -0.540572
v -0.200169 -0.037500 0.549236
v -0.256962 -0.037500 -0.002459
v -0.125399 -0.037500 -0.514363
v -0.125399 -0.037500 -0.514363
v -0.122438 -0.037500 0.525992
v -0.122438 -0.037500 0.525992
v -0.150558 -0.037500 -0.344508
v -0.151653 -0.037500 -0.261611
v -0.142363 -0.037500 0.301251
v -0.142363 -0.037500 0.301251
v -0.144119 -0.037498 0.373316
v -0.085646 -0.037500 -0.220888
v -0.121986 -0.037500 -0.440500
v -0.117569 -0.037500 0.459302
v -0.072538 -0.037500 0.269608
v 0.007725 -0.037498 -0.226870
v 0.025198 -0.037498 0.278025
v 0.068871 -0.037500 -0.277942
v 0.059124 -0.037500 -0.366967
v 0.023470 -0.037498 -0.464718
v 0.027803 -0.037500 -0.536442
v 0.027803 -0.037500 -0.536442
v 0.090719 -0.037500 0.319416
v 0.090719 -0.037500 0.319416
v 0.117348 -0.037498 -0.557378
v 0.053438 -0.037498 0.506932
v 0.053438 -0.037498 0.506932
v 0.050735 -0.037500 0.453930
v 0.084660 -0.037500 0.384344
v 0.137287 -0.037498 0.528124
v 0.254686 -0.037500 -0.542686
v 0.484287 -0.037500 0.506431
v 0.484287 -0.037500 0.506431
v 0.423594 -0.037500 0.169781
v 0.438492 -0.037500 0.295352
v 0.413408 -0.037500 -0.152299
v 0.428913 -0.037500 -0.064390
v 0.428913 -0.037500 -0.064390
v 0.432230 -0.037500 -0.281724
v 0.442020 -0.037500 0.089405
v 0.442020 -0.037500 0.089405
v 0.494097 -0.037498 -0.051997
v 0.507961 -0.037498 0.088844
v 0.484287 -0.037500 -0.495479
v 0.484287 -0.037500 -0.495479
v 0.584913 -0.037500 -0.074920
v 0.597237 -0.037500 0.125071
v 0.667473 -0.037500 -0.074410
v 0.676088 -0.037500 0.135653
v 0.676088 -0.037500 0.135653
v 0.713409 -0.037500 -0.010916
v 0.716507 -0.037500 0.078026
vt 0.500000 0.500000
vt 0.500000 0.500000
vt 0.500000 0.500000
vt 0.500000 0.500000
vt 0.500000 0.500000
vt 0.500000 0.500000
vt 0.500000 0.500000
vt 0.500000 0.500000
vt 0.500000 0.500000
vt 0.500000 0.500000
vt 0.500000 0.500000
vt 0.500000 0.500000
vt 0.500000 0.500000
vt 0.500000 0.500000
vt 0.500000 0.500000
vt 0.500000 0.500000
vt 0.500000 0.500000
vt 0.500000 0.500000
vt 0.500000 0.500000
vt 0.500000 0.500000
vt 0.500000 0.500000
vt 0.500000 0.500000
vt 0.500000 0.500000
vt 0.500000 0.500000
vt 0.500000 0.500000
vt 0.500000 0.500000
vt 0.500000 0.500000
vt 0.500000 0.500000
vt 0.500000 0.500000
vt 0.500000 0.500000
vt 0.500000 0.500000
vt 0.500000 0.500000
vt 0.500000 0.500000
vt 0.500000 0.500000
vt 0.500000 0.500000
vt 0.500000 0.500000
vt 0.500000 0.500000
vt 0.500000 0.500000
vt 0.500000 0.500000
vt 0.500000 0.500000
vt 0.500000 0.500000
vt 0.500000 0.500000
vt 0.500000 0.500000
vt 0.500000 0.500000
vt 0.500000 0.500000
vt 0.500000 0.500000
vt 0.500000 0.500000
vt 0.500000 0.500000
vt 0.500000 0.500000
vt 0.500000 0.500000
vt 0.500000 0.500000
vt 0.500000 0.500000
vt 0.500000 0.500000
vt 0.500000 0.500000
vt 0.500000 0.500000
vt 0.500000 0.500000
vt 0.500000 0.500000
vt 0.500000 0.500000
vt 0.500000 0.500000
vt 0.500000 0.500000
vt 0.500000 0.500000
vt 0.500000 0.500000
vt 0.500000 0.500000
vt 0.500000 0.500000
vt 0.500000 0.500000
vt 0.500000 0.500000
vt 0.500000 0.500000
vt 0.500000 0.500000
vt 0.500000 0.500000
vt 0.500000 0.500000
vt 0.500000 0.500000
vt 0.500000 0.500000
vt 0.500000 0.500000
vt 0.500000 0.500000
vt 0.500000 0.500000
vt 0.500000 0.500000
vt 0.500000 0.500000
vt 0.500000 0.500000
vt 0.500000 0.500000
vt 0.500000 0.500000
vt 0.500000 0.500000
vt 0.500000 0.500000
vt 0.500000 0.500000
vt 0.500000 0.500000
vt 0.500000 0.500000
vt 0.500000 0.500000
vt 0.500000 0.500000
vt 0.500000 0.500000
vt 0.500000 0.500000
vt 0.500000 0.500000
vt 0.500000 0.500000
vt 0.500000 0.500000
vt 0.500000 0.500000
vt 0.500000 0.500000
vt 0.500000 0.500000
vt 0.500000 0.500000
vt 0.500000 0.500000
vt 0.500000 0.500000
vt 0.500000 0.500000
vt 0.500000 0.500000
vt 0.500000 0.500000
vt 0.500000 0.500000
vt 0.500000 0.500000
vt 0.500000 0.500000
vt 0.500000 0.500000
vt 0.500000 0.500000
vt 0.500000 0.500000
vt 0.500000 0.500000
vt 0.500000 0.500000
vt 0.500000 0.500000
vt 0.500000 0.500000
vt 0.500000 0.500000
vt 0.500000 0.500000
vt 0.500000 0.500000
vt 0.500000 0.500000
vt 0.500000 0.500000
vt 0.500000 0.500000
vt 0.500000 0.500000
vt 0.500000 0.500000
vt 0.500000 0.500000
vt 0.500000 0.500000
vt 0.500000 0.500000
vt 0.500000 0.500000
vt 0.500000 0.500000
vt 0.500000 0.500000
vt 0.500000 0.500000
vt 0.500000 0.500000
vt 0.500000 0.500000
vt 0.500000 0.500000
vt 0.500000 0.500000
vt 0.500000 0.500000
vt 0.500000 0.500000
vt 0.500000 0.500000
vt 0.500000 0.500000
vt 0.500000 0.500000
vt 0.500000 0.500000
vt 0.500000 0.500000
vt 0.500000 0.500000
vt 0.500000 0.500000
vt 0.500000 0.500000
vt 0.500000 0.500000
vt 0.500000 0.500000
vt 0.500000 0.500000
vt 0.500000 0.500000
vt 0.500000 0.500000
vt 0.500000 0.500000
vt 0.500000 0.500000
vt 0.500000 0.500000
vt 0.500000 0.500000
vt 0.500000 0.500000
vt 0.500000 0.500000
vt 0.500000 0.500000
vt 0.500000 0.500000
vt 0.500000 0.500000
vt 0.500000 0.500000
vt 0.500000 0.500000
vt 0.500000 0.500000
vt 0.500000 0.500000
vt 0.500000 0.500000
vt 0.500000 0.500000
vt 0.500000 0.500000
vt 0.500000 0.500000
vt 0.500000 0.500000
vt 0.500000 0.500000
vt 0.500000 0.500000
vt 0.500000 0.500000
vt 0.500000 0.500000
vt 0.500000 0.500000
vt 0.500000 0.500000
vt 0.500000 0.500000
vt 0.500000 0.500000
vt 0.500000 0.500000
vt 0.500000 0.500000
vt 0.500000 0.500000
vt 0.500000 0.500000
vt 0.500000 0.500000
vt 0.500000 0.500000
vt 0.500000 0.500000
vt 0.500000 0.500000
vt 0.500000 0.500000
vt 0.500000 0.500000
vt 0.500000 0.500000
vt 0.500000 0.500000
vt 0.500000 0.500000
vt 0.500000 0.500000
vt 0.500000 0.500000
vt 0.500000 0.500000
vt 0.500000 0.500000
vt 0.500000 0.500000
vt 0.500000 0.500000
vt 0.500000 0.500000
vt 0.500000 0.500000
vt 0.500000 0.500000
vt 0.500000 0.500000
vt 0.500000 0.500000
vt 0.500000 0.500000
vt 0.500000 0.500000
vt 0.500000 0.500000
vt 0.500000 0.500000
vt 0.500000 0.500000
vt 0.500000 0.500000
vt 0.500000 0.500000
vt 0.500000 0.500000
vt 0.500000 0.500000
vt 0.500000 0.500000
vt 0.500000 0.500000
vt 0.500000 0.500000
vt 0.500000 0.500000
vt 0.500000 0.500000
vt 0.416999 0.190997
vt 0.417193 0.195180
vt 0.412463 0.202271
vt 0.426796 0.153538
vt 0.430833 0.152599
vt 0.430715 0.170736
vt 0.430575 0.201544
vt 0.426408 0.201759
vt 0.424238 0.191947
vt 0.418145 0.144362
vt 0.422386 0.138563
vt 0.424383 0.144977
vt 0.435785 0.180262
vt 0.438089 0.180433
vt 0.438907 0.184256
vt 0.410058 0.169948
vt 0.407888 0.171641
vt 0.405573 0.167321
vt 0.432791 0.181688
vt 0.430206 0.181743
vt 0.438653 0.190144
vt 0.429122 0.173788
vt 0.422123 0.187000
vt 0.413637 0.177794
vt 0.439431 0.168316
vt 0.433492 0.171222
vt 0.438972 0.161461
vt 0.405168 0.190095
vt 0.424054 0.152764
vt 0.412834 0.152286
vt 0.412083 0.169645
vt 0.423366 0.196576
vt 0.419612 0.138409
vt 0.416750 0.153030
vt 0.419257 0.152110
vt 0.413374 0.172915
vt 0.423635 0.200301
vt 0.418325 0.199417
vt 0.418428 0.202361
vt 0.416135 0.203078
vt 0.436541 0.173002
vt 0.406250 0.200000
vt 0.419064 0.188065
vt 0.412650 0.181279
vt 0.423668 0.149510
vt 0.419275 0.148818
vt 0.404915 0.184165
vt 0.407720 0.180042
vt 0.410402 0.181367
vt 0.424267 0.188267
vt 0.428935 0.178448
vt 0.406250 0.150000
vt 0.437500 0.150000
vt 0.424367 0.140856
vt 0.405640 0.180285
vt 0.438778 0.172785
vt 0.437500 0.200000
vt 0.406234 0.171506
vt 0.417815 0.140426
vn 0.0000 -1.0000 0.0000
vn -0.9907 0.0000 0.1361
vn -0.9814 0.0000 -0.1918
vn 0.0562 0.0000 -0.9984
vn -0.9500 0.0000 0.3122
vn -0.9995 0.0000 -0.0321
vn -0.9749 0.0000 0.2227
vn -0.1148 0.0000 0.9934
vn -0.9904 0.0000 -0.1380
vn 0.3930 0.0000 -0.9195
vn 0.2884 0.0000 0.9575
vn -0.1840 0.0000 -0.9829
vn -0.1722 0.0000 0.9851
vn 0.0739 0.0000 -0.9973
vn 0.0129 0.0000 0.9999
vn -0.7480 0.0000 -0.6637
vn -0.0688 0.0000 -0.9976
vn -0.0682 0.0000 0.9977
vn -0.9381 0.0000 0.3463
vn -0.9771 0.0000 -0.2127
vn 0.3237 0.0000 -0.9461
vn 0.2865 0.0000 0.9581
vn 0.9999 0.0000 0.0132
vn 0.9997 0.0000 0.0244
vn 0.5251 0.0000 -0.8511
vn 0.9584 0.0000 0.2853
vn 0.9989 0.0000 -0.0461
vn 0.9973 0.0000 0.0728
vn 0.9555 0.0000 -0.2950
vn 0.4128 0.0000 0.9108
vn -0.0639 0.0000 -0.9980
vn -0.0858 0.0000 0.9963
vn -0.6411 0.0000 -0.7675
vn -0.9395 0.0000 0.3427
vn -0.9982 0.0000 -0.0603
vn -0.5341 0.0000 0.8454
vn -0.2277 0.0000 -0.9737
vn -0.9987 0.0000 0.0509
vn -0.8989 0.0000 -0.4382
vn -0.2450 0.0000 0.9695
vn -0.9941 0.0000 0.1088
vn -0.9957 0.0000 -0.0929
vn 0.1064 0.0000 -0.9943
vn 0.0624 0.0000 0.9981
vn 0.9930 0.0000 -0.1178
vn 0.9848 0.0000 -0.1737
vn 0.9896 0.0000 0.1439
vn 0.9747 0.0000 0.2235
vn 0.1868 0.0000 -0.9824
vn 0.0085 0.0000 1.0000
vn 0.9716 0.0000 0.2366
vn 0.2014 0.0000 -0.9795
vn 0.9773 0.0000 -0.2120
vn -0.2447 0.0000 -0.9696
vn -0.3760 0.0000 0.9266
vn 0.0062 0.0000 -1.0000
vn -0.1330 0.0000 0.9911
vn 0.8102 0.0000 -0.5862
vn 0.8187 0.0000 0.5742
vn 0.9994 0.0000 -0.0348
vn 0.0000 1.0000 0.0000
usemtl BackMat.001
s off
f 212/1/1 194/2/1 208/3/1
f 252/4/1 234/5/1 255/6/1
f 202/7/1 209/8/1 201/9/1
f 263/10/1 262/11/1 267/12/1
f 229/13/1 216/14/1 219/15/1
f 245/16/1 246/17/1 244/18/1
f 223/19/1 224/20/1 202/7/1
f 210/21/1 223/19/1 202/7/1
f 232/22/1 231/23/1 218/24/1
f 241/25/1 247/26/1 235/27/1
f 212/1/1 211/28/1 194/2/1
f 252/4/1 253/29/1 232/22/1
f 251/30/1 245/16/1 239/31/1
f 209/8/1 205/32/1 201/9/1
f 268/33/1 263/10/1 267/12/1
f 250/34/1 233/35/1 256/36/1
f 201/9/1 205/32/1 199/37/1
f 216/14/1 223/19/1 210/21/1
f 250/34/1 239/31/1 233/35/1
f 198/38/1 195/39/1 196/40/1
f 236/41/1 241/25/1 235/27/1
f 194/2/1 211/28/1 203/42/1
f 232/22/1 253/29/1 233/35/1
f 215/43/1 225/44/1 212/1/1
f 208/3/1 194/2/1 195/39/1
f 262/11/1 259/45/1 258/46/1
f 217/47/1 227/48/1 230/49/1
f 213/50/1 228/51/1 218/24/1
f 209/8/1 224/20/1 213/50/1
f 211/28/1 227/48/1 217/47/1
f 258/46/1 259/45/1 256/36/1
f 212/1/1 225/44/1 227/48/1
f 246/17/1 251/30/1 248/52/1
f 260/53/1 255/6/1 247/26/1
f 246/17/1 245/16/1 251/30/1
f 264/54/1 267/12/1 262/11/1
f 225/44/1 215/43/1 231/23/1
f 217/47/1 230/49/1 221/55/1
f 251/30/1 239/31/1 250/34/1
f 259/45/1 262/11/1 263/10/1
f 258/46/1 256/36/1 253/29/1
f 208/3/1 195/39/1 198/38/1
f 235/27/1 255/6/1 234/5/1
f 202/7/1 224/20/1 209/8/1
f 247/26/1 255/6/1 235/27/1
f 212/1/1 227/48/1 211/28/1
f 223/19/1 216/14/1 229/13/1
f 233/35/1 231/23/1 232/22/1
f 256/36/1 233/35/1 253/29/1
f 218/24/1 231/23/1 215/43/1
f 237/56/1 241/25/1 236/41/1
f 234/5/1 252/4/1 232/22/1
f 228/51/1 232/22/1 218/24/1
f 210/21/1 202/7/1 206/57/1
f 244/18/1 246/17/1 242/58/1
f 224/20/1 228/51/1 213/50/1
f 265/59/1 263/10/1 268/33/1
f 45/60/2 46/61/2 105/62/2 104/63/2
f 46/61/3 122/64/3 197/65/3 105/62/3
f 47/66/4 48/67/4 107/68/4 106/69/4
f 125/70/5 57/71/5 116/72/5 200/73/5
f 57/71/6 58/74/6 117/75/6 116/72/6
f 129/76/7 45/60/7 104/63/7 204/77/7
f 55/78/8 56/79/8 115/80/8 114/81/8
f 58/74/9 132/82/9 207/83/9 117/75/9
f 48/67/10 49/84/10 108/85/10 107/68/10
f 54/86/11 55/78/11 114/81/11 113/87/11
f 59/88/12 1/89/12 60/90/12 118/91/12
f 43/92/13 44/93/13 103/94/13 102/95/13
f 49/84/14 50/96/14 109/97/14 108/85/14
f 139/98/15 54/86/15 113/87/15 214/99/15
f 50/96/16 51/100/16 110/101/16 109/97/16
f 1/89/17 2/102/17 61/103/17 60/90/17
f 42/104/18 43/92/18 102/95/18 101/105/18
f 52/106/19 53/107/19 112/108/19 111/109/19
f 51/100/20 52/106/20 111/109/20 110/101/20
f 2/102/21 145/110/21 220/111/21 61/103/21
f 147/112/22 42/104/22 101/105/22 222/113/22
f 5/114/23 6/115/23 65/116/23 64/117/23
f 151/118/24 39/119/24 98/120/24 226/121/24
f 6/115/25 7/122/25 66/123/25 65/116/25
f 4/124/26 5/114/26 64/117/26 63/125/26
f 3/126/27 4/124/27 63/125/27 62/127/27
f 40/128/28 41/129/28 100/130/28 99/131/28
f 39/119/29 40/128/29 99/131/29 98/120/29
f 37/132/30 38/133/30 97/134/30 96/135/30
f 7/122/31 8/136/31 67/137/31 66/123/31
f 36/138/32 37/132/32 96/135/32 95/139/32
f 8/136/33 9/140/33 68/141/33 67/137/33
f 10/142/34 11/143/34 70/144/34 69/145/34
f 11/143/35 163/146/35 238/147/35 70/144/35
f 165/148/36 36/138/36 95/139/36 240/149/36
f 12/150/37 13/151/37 72/152/37 71/153/37
f 168/154/38 33/155/38 92/156/38 243/157/38
f 33/155/39 34/158/39 93/159/39 92/156/39
f 31/160/40 32/161/40 91/162/40 90/163/40
f 9/140/41 10/142/41 69/145/41 68/141/41
f 34/158/42 35/164/42 94/165/42 93/159/42
f 13/151/43 14/166/43 73/167/43 72/152/43
f 174/168/44 31/160/44 90/163/44 249/169/44
f 28/170/45 29/171/45 88/172/45 87/173/45
f 17/174/46 179/175/46 254/176/46 76/177/46
f 16/178/47 17/174/47 76/177/47 75/179/47
f 182/180/48 28/170/48 87/173/48 257/181/48
f 18/182/49 19/183/49 78/184/49 77/185/49
f 26/186/50 27/187/50 86/188/50 85/189/50
f 186/190/51 16/178/51 75/179/51 261/191/51
f 14/166/52 15/192/52 74/193/52 73/167/52
f 29/171/53 30/194/53 89/195/53 88/172/53
f 19/183/54 20/196/54 79/197/54 78/184/54
f 25/198/55 26/186/55 85/189/55 84/199/55
f 20/196/56 21/200/56 80/201/56 79/197/56
f 191/202/57 25/198/57 84/199/57 266/203/57
f 21/200/58 22/204/58 81/205/58 80/201/58
f 23/206/59 24/207/59 83/208/59 82/209/59
f 22/204/60 23/206/60 82/209/60 81/205/60
usemtl FrontMat.001
f 137/210/61 133/211/61 119/212/61
f 177/213/61 180/214/61 159/215/61
f 127/216/61 126/217/61 134/218/61
f 188/219/61 192/220/61 187/221/61
f 154/222/61 144/223/61 141/224/61
f 170/225/61 169/226/61 171/227/61
f 148/228/61 127/216/61 149/229/61
f 135/230/61 127/216/61 148/228/61
f 157/231/61 143/232/61 156/233/61
f 166/234/61 160/235/61 172/236/61
f 137/210/61 119/212/61 136/237/61
f 177/213/61 157/231/61 178/238/61
f 176/239/61 164/240/61 170/225/61
f 134/218/61 126/217/61 130/241/61
f 193/242/61 192/220/61 188/219/61
f 175/243/61 181/244/61 158/245/61
f 126/217/61 124/246/61 130/241/61
f 141/224/61 135/230/61 148/228/61
f 175/243/61 158/245/61 164/240/61
f 123/247/61 121/248/61 120/249/61
f 161/250/61 160/235/61 166/234/61
f 119/212/61 128/251/61 136/237/61
f 157/231/61 158/245/61 178/238/61
f 140/252/61 137/210/61 150/253/61
f 133/211/61 120/249/61 119/212/61
f 187/221/61 183/254/61 184/255/61
f 142/256/61 155/257/61 152/258/61
f 138/259/61 143/232/61 153/260/61
f 134/218/61 138/259/61 149/229/61
f 136/237/61 142/256/61 152/258/61
f 183/254/61 181/244/61 184/255/61
f 137/210/61 152/258/61 150/253/61
f 171/227/61 173/261/61 176/239/61
f 185/262/61 172/236/61 180/214/61
f 171/227/61 176/239/61 170/225/61
f 189/263/61 187/221/61 192/220/61
f 150/253/61 156/233/61 140/252/61
f 142/256/61 146/264/61 155/257/61
f 176/239/61 175/243/61 164/240/61
f 184/255/61 188/219/61 187/221/61
f 183/254/61 178/238/61 181/244/61
f 133/211/61 123/247/61 120/249/61
f 160/235/61 159/215/61 180/214/61
f 127/216/61 134/218/61 149/229/61
f 172/236/61 160/235/61 180/214/61
f 137/210/61 136/237/61 152/258/61
f 148/228/61 154/222/61 141/224/61
f 158/245/61 157/231/61 156/233/61
f 181/244/61 178/238/61 158/245/61
f 143/232/61 140/252/61 156/233/61
f 162/265/61 161/250/61 166/234/61
f 159/215/61 157/231/61 177/213/61
f 153/260/61 143/232/61 157/231/61
f 135/230/61 131/266/61 127/216/61
f 169/226/61 167/267/61 171/227/61
f 149/229/61 138/259/61 153/260/61
f 190/268/61 193/242/61 188/219/61
