# Blender v2.83.1 OBJ File: 'jigsaw-32x20-3-step2.blend'
# www.blender.org
mtllib piece.114.mtl
o path3836
v 0.546212 0.037500 -0.170187
v 0.525327 0.037500 -0.092030
v 0.470977 0.037500 -0.094749
v 0.400411 0.037500 -0.133259
v 0.337491 0.037500 -0.142565
v 0.302451 0.037500 -0.078964
v 0.301029 0.037500 0.015999
v 0.335337 0.037500 0.079472
v 0.402460 0.037500 0.070280
v 0.479387 0.037500 0.033915
v 0.538081 0.037500 0.037533
v 0.558290 0.037500 0.127325
v 0.519974 0.037500 0.496985
v 0.320308 0.037500 0.548929
v 0.201728 0.037500 0.565161
v 0.126334 0.037500 0.542282
v 0.126638 0.037500 0.464291
v 0.159837 0.037500 0.361753
v 0.164298 0.037500 0.276873
v 0.098727 0.037500 0.242863
v 0.003158 0.037500 0.257006
v -0.062036 0.037500 0.307592
v -0.057272 0.037500 0.381109
v -0.026121 0.037500 0.456835
v -0.032943 0.037500 0.512249
v -0.121968 0.037500 0.531452
v -0.481723 0.037500 0.496984
v -0.430434 0.037500 0.272438
v -0.412002 0.037500 0.137312
v -0.427601 0.037500 0.047384
v -0.492445 0.037500 0.038729
v -0.582848 0.037500 0.067648
v -0.665405 0.037500 0.070518
v -0.712252 0.037500 0.004467
v -0.717707 0.037500 -0.090324
v -0.681631 0.037500 -0.152914
v -0.609028 0.037500 -0.143202
v -0.525457 0.037500 -0.104490
v -0.461621 0.037500 -0.100924
v -0.439711 0.037500 -0.177017
v -0.447879 0.037500 -0.298824
v -0.481723 0.037500 -0.504925
v -0.139926 0.037500 -0.531183
v -0.053639 0.037500 -0.512545
v -0.043775 0.037500 -0.462120
v -0.069375 0.037500 -0.393600
v -0.070710 0.037500 -0.326340
v -0.007417 0.037500 -0.278168
v 0.083407 0.037500 -0.260786
v 0.145304 0.037500 -0.284370
v 0.141174 0.037500 -0.351801
v 0.111355 0.037500 -0.436745
v 0.115547 0.037500 -0.505569
v 0.194930 0.037500 -0.533474
v 0.316602 0.037500 -0.530994
v 0.519974 0.037500 -0.504925
v 0.546212 -0.037500 -0.170187
v 0.525327 -0.037498 -0.092030
v 0.470977 -0.037498 -0.094749
v 0.400411 -0.037498 -0.133259
v 0.337491 -0.037500 -0.142565
v 0.302451 -0.037500 -0.078964
v 0.301029 -0.037500 0.015999
v 0.335337 -0.037500 0.079472
v 0.402460 -0.037500 0.070280
v 0.479387 -0.037500 0.033915
v 0.538081 -0.037500 0.037533
v 0.558290 -0.037500 0.127325
v 0.519974 -0.037498 0.496985
v 0.320308 -0.037500 0.548929
v 0.201728 -0.037500 0.565161
v 0.126334 -0.037500 0.542282
v 0.126638 -0.037498 0.464291
v 0.159837 -0.037498 0.361753
v 0.164298 -0.037500 0.276873
v 0.098727 -0.037500 0.242863
v 0.003158 -0.037500 0.257006
v -0.062036 -0.037498 0.307592
v -0.057272 -0.037500 0.381109
v -0.026121 -0.037500 0.456835
v -0.032943 -0.037498 0.512249
v -0.121968 -0.037498 0.531452
v -0.481723 -0.037500 0.496984
v -0.430434 -0.037500 0.272438
v -0.412002 -0.037500 0.137312
v -0.427601 -0.037500 0.047384
v -0.492445 -0.037500 0.038729
v -0.582848 -0.037500 0.067648
v -0.665405 -0.037500 0.070518
v -0.712252 -0.037500 0.004467
v -0.717707 -0.037500 -0.090324
v -0.681631 -0.037500 -0.152914
v -0.609028 -0.037500 -0.143202
v -0.525457 -0.037500 -0.104490
v -0.461621 -0.037500 -0.100924
v -0.439711 -0.037498 -0.177017
v -0.447879 -0.037500 -0.298824
v -0.481723 -0.037500 -0.504925
v -0.139926 -0.037500 -0.531183
v -0.053639 -0.037500 -0.512545
v -0.043775 -0.037500 -0.462120
v -0.069375 -0.037500 -0.393600
v -0.070710 -0.037500 -0.326340
v -0.007417 -0.037498 -0.278168
v 0.083407 -0.037500 -0.260786
v 0.145304 -0.037500 -0.284370
v 0.141174 -0.037500 -0.351801
v 0.111355 -0.037500 -0.436745
v 0.115547 -0.037500 -0.505569
v 0.194930 -0.037500 -0.533474
v 0.316602 -0.037500 -0.530994
v 0.519974 -0.037500 -0.504925
v 0.538081 0.037500 0.037533
v 0.538081 0.037500 0.037533
v 0.558290 0.037500 0.127325
v 0.546212 0.037500 -0.170187
v 0.525327 0.037500 -0.092030
v 0.525327 0.037500 -0.092030
v 0.479387 0.037500 0.033915
v 0.470977 0.037500 -0.094749
v 0.519974 0.037500 0.496985
v 0.519974 0.037500 0.496985
v 0.519974 0.037500 -0.504925
v 0.519974 0.037500 -0.504925
v 0.402460 0.037500 0.070280
v 0.400411 0.037500 -0.133259
v 0.320308 0.037500 0.548929
v 0.316602 0.037500 -0.530994
v 0.335337 0.037500 0.079472
v 0.335337 0.037500 0.079472
v 0.337491 0.037500 -0.142565
v 0.337491 0.037500 -0.142565
v 0.302451 0.037500 -0.078964
v 0.301029 0.037500 0.015999
v 0.201728 0.037500 0.565161
v 0.194930 0.037500 -0.533474
v 0.159837 0.037500 0.361753
v 0.164298 0.037500 0.276873
v 0.164298 0.037500 0.276873
v 0.126334 0.037500 0.542282
v 0.126334 0.037500 0.542282
v 0.115547 0.037500 -0.505569
v 0.115547 0.037500 -0.505569
v 0.145304 0.037500 -0.284370
v 0.145304 0.037500 -0.284370
v 0.141174 0.037500 -0.351801
v 0.098727 0.037500 0.242863
v 0.126638 0.037500 0.464291
v 0.083407 0.037500 -0.260786
v 0.111355 0.037500 -0.436745
v 0.003158 0.037500 0.257006
v -0.007417 0.037500 -0.278168
v -0.062036 0.037500 0.307592
v -0.070710 0.037500 -0.326340
v -0.057272 0.037500 0.381109
v -0.026121 0.037500 0.456835
v -0.032943 0.037500 0.512249
v -0.032943 0.037500 0.512249
v -0.121968 0.037500 0.531452
v -0.053639 0.037500 -0.512545
v -0.053639 0.037500 -0.512545
v -0.043775 0.037500 -0.462120
v -0.069375 0.037500 -0.393600
v -0.139926 0.037500 -0.531183
v -0.481723 0.037500 -0.504925
v -0.481723 0.037500 -0.504925
v -0.439711 0.037500 -0.177017
v -0.447879 0.037500 -0.298824
v -0.412002 0.037500 0.137312
v -0.427601 0.037500 0.047384
v -0.427601 0.037500 0.047384
v -0.430434 0.037500 0.272438
v -0.492445 0.037500 0.038729
v -0.461621 0.037500 -0.100924
v -0.461621 0.037500 -0.100924
v -0.481723 0.037500 0.496984
v -0.481723 0.037500 0.496984
v -0.525457 0.037500 -0.104490
v -0.582848 0.037500 0.067648
v -0.609028 0.037500 -0.143202
v -0.665405 0.037500 0.070518
v -0.681631 0.037500 -0.152914
v -0.681631 0.037500 -0.152914
v -0.712252 0.037500 0.004467
v -0.717707 0.037500 -0.090324
v 0.538081 -0.037500 0.037533
v 0.538081 -0.037500 0.037533
v 0.558290 -0.037500 0.127325
v 0.546212 -0.037500 -0.170187
v 0.525327 -0.037498 -0.092030
v 0.525327 -0.037498 -0.092030
v 0.479387 -0.037500 0.033915
v 0.470977 -0.037498 -0.094749
v 0.519974 -0.037498 0.496985
v 0.519974 -0.037498 0.496985
v 0.519974 -0.037500 -0.504925
v 0.519974 -0.037500 -0.504925
v 0.402460 -0.037500 0.070280
v 0.400411 -0.037498 -0.133259
v 0.320308 -0.037500 0.548929
v 0.316602 -0.037500 -0.530994
v 0.335337 -0.037500 0.079472
v 0.335337 -0.037500 0.079472
v 0.337491 -0.037500 -0.142565
v 0.337491 -0.037500 -0.142565
v 0.302451 -0.037500 -0.078964
v 0.301029 -0.037500 0.015999
v 0.201728 -0.037500 0.565161
v 0.194930 -0.037500 -0.533474
v 0.159837 -0.037498 0.361753
v 0.164298 -0.037500 0.276873
v 0.164298 -0.037500 0.276873
v 0.126334 -0.037500 0.542282
v 0.126334 -0.037500 0.542282
v 0.115547 -0.037500 -0.505569
v 0.115547 -0.037500 -0.505569
v 0.145304 -0.037500 -0.284370
v 0.145304 -0.037500 -0.284370
v 0.141174 -0.037500 -0.351801
v 0.098727 -0.037500 0.242863
v 0.126638 -0.037498 0.464291
v 0.083407 -0.037500 -0.260786
v 0.111355 -0.037500 -0.436745
v 0.003158 -0.037500 0.257006
v -0.007417 -0.037498 -0.278168
v -0.062036 -0.037498 0.307592
v -0.070710 -0.037500 -0.326340
v -0.057272 -0.037500 0.381109
v -0.026121 -0.037500 0.456835
v -0.032943 -0.037498 0.512249
v -0.032943 -0.037498 0.512249
v -0.121968 -0.037498 0.531452
v -0.053639 -0.037500 -0.512545
v -0.053639 -0.037500 -0.512545
v -0.043775 -0.037500 -0.462120
v -0.069375 -0.037500 -0.393600
v -0.139926 -0.037500 -0.531183
v -0.481723 -0.037500 -0.504925
v -0.481723 -0.037500 -0.504925
v -0.439711 -0.037498 -0.177017
v -0.447879 -0.037500 -0.298824
v -0.412002 -0.037500 0.137312
v -0.427601 -0.037500 0.047384
v -0.427601 -0.037500 0.047384
v -0.430434 -0.037500 0.272438
v -0.492445 -0.037500 0.038729
v -0.461621 -0.037500 -0.100924
v -0.461621 -0.037500 -0.100924
v -0.481723 -0.037500 0.496984
v -0.481723 -0.037500 0.496984
v -0.525457 -0.037500 -0.104490
v -0.582848 -0.037500 0.067648
v -0.609028 -0.037500 -0.143202
v -0.665405 -0.037500 0.070518
v -0.681631 -0.037500 -0.152914
v -0.681631 -0.037500 -0.152914
v -0.712252 -0.037500 0.004467
v -0.717707 -0.037500 -0.090324
vt 0.500000 0.500000
vt 0.500000 0.500000
vt 0.500000 0.500000
vt 0.500000 0.500000
vt 0.500000 0.500000
vt 0.500000 0.500000
vt 0.500000 0.500000
vt 0.500000 0.500000
vt 0.500000 0.500000
vt 0.500000 0.500000
vt 0.500000 0.500000
vt 0.500000 0.500000
vt 0.500000 0.500000
vt 0.500000 0.500000
vt 0.500000 0.500000
vt 0.500000 0.500000
vt 0.500000 0.500000
vt 0.500000 0.500000
vt 0.500000 0.500000
vt 0.500000 0.500000
vt 0.500000 0.500000
vt 0.500000 0.500000
vt 0.500000 0.500000
vt 0.500000 0.500000
vt 0.500000 0.500000
vt 0.500000 0.500000
vt 0.500000 0.500000
vt 0.500000 0.500000
vt 0.500000 0.500000
vt 0.500000 0.500000
vt 0.500000 0.500000
vt 0.500000 0.500000
vt 0.500000 0.500000
vt 0.500000 0.500000
vt 0.500000 0.500000
vt 0.500000 0.500000
vt 0.500000 0.500000
vt 0.500000 0.500000
vt 0.500000 0.500000
vt 0.500000 0.500000
vt 0.500000 0.500000
vt 0.500000 0.500000
vt 0.500000 0.500000
vt 0.500000 0.500000
vt 0.500000 0.500000
vt 0.500000 0.500000
vt 0.500000 0.500000
vt 0.500000 0.500000
vt 0.500000 0.500000
vt 0.500000 0.500000
vt 0.500000 0.500000
vt 0.500000 0.500000
vt 0.500000 0.500000
vt 0.500000 0.500000
vt 0.500000 0.500000
vt 0.500000 0.500000
vt 0.500000 0.500000
vt 0.500000 0.500000
vt 0.500000 0.500000
vt 0.500000 0.500000
vt 0.500000 0.500000
vt 0.500000 0.500000
vt 0.500000 0.500000
vt 0.500000 0.500000
vt 0.500000 0.500000
vt 0.500000 0.500000
vt 0.500000 0.500000
vt 0.500000 0.500000
vt 0.500000 0.500000
vt 0.500000 0.500000
vt 0.500000 0.500000
vt 0.500000 0.500000
vt 0.500000 0.500000
vt 0.500000 0.500000
vt 0.500000 0.500000
vt 0.500000 0.500000
vt 0.500000 0.500000
vt 0.500000 0.500000
vt 0.500000 0.500000
vt 0.500000 0.500000
vt 0.500000 0.500000
vt 0.500000 0.500000
vt 0.500000 0.500000
vt 0.500000 0.500000
vt 0.500000 0.500000
vt 0.500000 0.500000
vt 0.500000 0.500000
vt 0.500000 0.500000
vt 0.500000 0.500000
vt 0.500000 0.500000
vt 0.500000 0.500000
vt 0.500000 0.500000
vt 0.500000 0.500000
vt 0.500000 0.500000
vt 0.500000 0.500000
vt 0.500000 0.500000
vt 0.500000 0.500000
vt 0.500000 0.500000
vt 0.500000 0.500000
vt 0.500000 0.500000
vt 0.500000 0.500000
vt 0.500000 0.500000
vt 0.500000 0.500000
vt 0.500000 0.500000
vt 0.500000 0.500000
vt 0.500000 0.500000
vt 0.500000 0.500000
vt 0.500000 0.500000
vt 0.500000 0.500000
vt 0.500000 0.500000
vt 0.500000 0.500000
vt 0.500000 0.500000
vt 0.500000 0.500000
vt 0.500000 0.500000
vt 0.500000 0.500000
vt 0.500000 0.500000
vt 0.500000 0.500000
vt 0.500000 0.500000
vt 0.500000 0.500000
vt 0.500000 0.500000
vt 0.500000 0.500000
vt 0.500000 0.500000
vt 0.500000 0.500000
vt 0.500000 0.500000
vt 0.500000 0.500000
vt 0.500000 0.500000
vt 0.500000 0.500000
vt 0.500000 0.500000
vt 0.500000 0.500000
vt 0.500000 0.500000
vt 0.500000 0.500000
vt 0.500000 0.500000
vt 0.500000 0.500000
vt 0.500000 0.500000
vt 0.500000 0.500000
vt 0.500000 0.500000
vt 0.500000 0.500000
vt 0.500000 0.500000
vt 0.500000 0.500000
vt 0.500000 0.500000
vt 0.500000 0.500000
vt 0.500000 0.500000
vt 0.500000 0.500000
vt 0.500000 0.500000
vt 0.500000 0.500000
vt 0.500000 0.500000
vt 0.500000 0.500000
vt 0.500000 0.500000
vt 0.500000 0.500000
vt 0.500000 0.500000
vt 0.500000 0.500000
vt 0.500000 0.500000
vt 0.500000 0.500000
vt 0.500000 0.500000
vt 0.500000 0.500000
vt 0.500000 0.500000
vt 0.500000 0.500000
vt 0.500000 0.500000
vt 0.500000 0.500000
vt 0.500000 0.500000
vt 0.500000 0.500000
vt 0.500000 0.500000
vt 0.500000 0.500000
vt 0.500000 0.500000
vt 0.500000 0.500000
vt 0.500000 0.500000
vt 0.500000 0.500000
vt 0.500000 0.500000
vt 0.500000 0.500000
vt 0.500000 0.500000
vt 0.500000 0.500000
vt 0.500000 0.500000
vt 0.500000 0.500000
vt 0.500000 0.500000
vt 0.500000 0.500000
vt 0.500000 0.500000
vt 0.500000 0.500000
vt 0.500000 0.500000
vt 0.500000 0.500000
vt 0.500000 0.500000
vt 0.500000 0.500000
vt 0.500000 0.500000
vt 0.500000 0.500000
vt 0.500000 0.500000
vt 0.500000 0.500000
vt 0.500000 0.500000
vt 0.500000 0.500000
vt 0.500000 0.500000
vt 0.500000 0.500000
vt 0.500000 0.500000
vt 0.500000 0.500000
vt 0.500000 0.500000
vt 0.500000 0.500000
vt 0.500000 0.500000
vt 0.500000 0.500000
vt 0.500000 0.500000
vt 0.500000 0.500000
vt 0.500000 0.500000
vt 0.500000 0.500000
vt 0.500000 0.500000
vt 0.500000 0.500000
vt 0.500000 0.500000
vt 0.548477 0.802701
vt 0.551282 0.803480
vt 0.555015 0.824203
vt 0.549198 0.790831
vt 0.549109 0.794952
vt 0.547138 0.788493
vt 0.538865 0.828209
vt 0.544536 0.839142
vt 0.538129 0.831298
vt 0.563575 0.817957
vt 0.562976 0.822401
vt 0.561248 0.822742
vt 0.542552 0.840891
vt 0.542843 0.844032
vt 0.531250 0.850000
vt 0.536820 0.820516
vt 0.534722 0.820582
vt 0.537678 0.801689
vt 0.554574 0.828973
vt 0.547498 0.839071
vt 0.536026 0.831092
vt 0.530437 0.839849
vt 0.544044 0.847554
vt 0.544128 0.850267
vt 0.541691 0.851310
vt 0.542229 0.790021
vt 0.544182 0.788221
vt 0.542532 0.793646
vt 0.558282 0.832024
vt 0.561480 0.830366
vt 0.564120 0.840034
vt 0.548207 0.799465
vt 0.543851 0.801003
vt 0.555496 0.802560
vt 0.562500 0.800000
vt 0.543740 0.797817
vt 0.562500 0.850000
vt 0.549191 0.844134
vt 0.549478 0.840784
vt 0.531012 0.821368
vt 0.530431 0.817061
vt 0.532585 0.821860
vt 0.530360 0.833775
vt 0.531230 0.829813
vt 0.533377 0.829604
vt 0.555635 0.832246
vt 0.541478 0.802097
vt 0.550970 0.851913
vt 0.548057 0.847974
vt 0.538323 0.823675
vt 0.558886 0.821187
vt 0.531250 0.800000
vt 0.556593 0.820949
vt 0.548170 0.850904
vt 0.563913 0.830351
vt 0.564626 0.834115
vn 0.0000 -1.0000 0.0000
vn 0.0001 -1.0000 -0.0000
vn 0.9756 0.0000 -0.2196
vn 0.9661 0.0000 0.2582
vn 0.0615 0.0000 -0.9981
vn -0.0500 0.0000 0.9988
vn 0.9947 0.0000 0.1031
vn 0.9969 0.0000 -0.0781
vn -0.4274 0.0000 -0.9041
vn -0.4790 0.0000 0.8778
vn 0.2518 0.0000 0.9678
vn 0.1271 0.0000 -0.9919
vn -0.1357 0.0000 -0.9908
vn -0.1463 0.0000 0.9892
vn 0.8759 0.0000 0.4825
vn 0.8797 0.0000 -0.4755
vn 0.1356 0.0000 0.9908
vn 0.0204 0.0000 -0.9998
vn 0.9999 0.0000 0.0150
vn -0.9986 0.0000 -0.0525
vn -0.2904 0.0000 0.9569
vn -0.3316 0.0000 -0.9434
vn -0.9981 0.0000 0.0611
vn -0.4604 0.0000 0.8877
vn -0.9514 0.0000 -0.3080
vn -1.0000 0.0000 -0.0039
vn -0.3561 0.0000 -0.9345
vn -0.9982 0.0000 -0.0608
vn -0.9436 0.0000 0.3312
vn 0.1464 0.0000 0.9892
vn 0.1880 0.0000 -0.9822
vn 0.6130 0.0000 0.7901
vn 0.6056 0.0000 -0.7957
vn 0.9248 0.0000 -0.3804
vn 0.9925 0.0000 0.1222
vn 0.2109 0.0000 0.9775
vn 0.9814 0.0000 -0.1920
vn 0.9368 0.0000 0.3500
vn 0.2111 0.0000 -0.9775
vn 0.9979 0.0000 -0.0647
vn 0.9998 0.0000 0.0198
vn -0.0766 0.0000 -0.9971
vn -0.9978 0.0000 0.0669
vn -0.9853 0.0000 0.1709
vn -0.9908 0.0000 -0.1352
vn -0.1323 0.0000 0.9912
vn -0.9610 0.0000 -0.2767
vn -0.9749 0.0000 -0.2227
vn -0.0954 0.0000 0.9954
vn 0.0558 0.0000 -0.9984
vn -0.9868 0.0000 0.1620
vn 0.3047 0.0000 0.9525
vn 0.4203 0.0000 -0.9074
vn 0.0347 0.0000 0.9994
vn 0.1326 0.0000 -0.9912
vn -0.8157 0.0000 0.5785
vn -0.8664 0.0000 -0.4994
vn -0.9983 0.0000 0.0574
vn 0.0000 1.0000 0.0000
usemtl BackMat.001
s off
f 243/1/1 224/2/1 242/3/1
f 254/4/1 257/5/1 252/6/1
f 222/7/1 217/8/1 206/9/1
f 232/10/1 229/11/1 230/12/1
f 204/13/1 196/14/1 199/15/1
f 227/16/1 241/17/1 236/18/1
f 220/19/1 222/7/1 207/20/1
f 219/21/1 201/22/1 204/13/1
f 193/23/1 189/24/1 190/25/1
f 196/14/1 204/13/1 201/22/1
f 207/20/1 222/7/1 206/9/1
f 255/26/1 253/27/1 258/28/1
f 210/29/1 200/30/1 221/31/1
f 246/32/1 247/33/1 243/1/1
f 245/34/1 232/10/1 249/35/1
f 251/36/1 247/33/1 246/32/1
f 194/37/1 202/38/1 198/39/1
f 233/40/1 235/41/1 237/42/1
f 258/28/1 253/27/1 257/5/1
f 252/6/1 253/27/1 251/36/1
f 252/6/1 251/36/1 246/32/1
f 209/43/1 223/44/1 215/45/1
f 220/19/1 202/38/1 211/46/1
f 219/21/1 223/44/1 209/43/1
f 241/17/1 227/16/1 240/47/1
f 198/39/1 192/48/1 188/49/1
f 200/30/1 210/29/1 194/37/1
f 201/22/1 219/21/1 209/43/1
f 207/20/1 202/38/1 220/19/1
f 225/50/1 222/7/1 224/2/1
f 199/15/1 189/24/1 193/23/1
f 247/33/2 240/47/2 243/1/2
f 224/2/1 222/7/1 220/19/1
f 243/1/1 225/50/1 224/2/1
f 245/34/1 228/51/1 232/10/1
f 237/42/1 241/17/1 238/52/1
f 217/8/1 219/21/1 204/13/1
f 194/37/1 211/46/1 202/38/1
f 236/18/1 237/42/1 235/41/1
f 225/50/1 240/47/1 227/16/1
f 189/24/1 199/15/1 196/14/1
f 226/53/1 228/51/1 245/34/1
f 232/10/1 228/51/1 229/11/1
f 257/5/1 253/27/1 252/6/1
f 188/49/1 192/48/1 186/54/1
f 211/46/1 194/37/1 210/29/1
f 243/1/1 240/47/1 225/50/1
f 237/42/1 236/18/1 241/17/1
f 206/9/1 217/8/1 204/13/1
f 221/31/1 208/55/1 213/56/1
f 221/31/1 200/30/1 208/55/1
f 194/37/1 198/39/1 188/49/1
f 242/3/1 224/2/1 226/53/1
f 242/3/1 226/53/1 245/34/1
f 114/57/3 12/58/3 68/59/3 187/60/3
f 1/61/4 118/62/4 191/63/4 57/64/4
f 10/65/5 11/66/5 67/67/5 66/68/5
f 2/69/6 3/70/6 59/71/6 58/72/6
f 12/58/7 122/73/7 195/74/7 68/59/7
f 124/75/8 1/61/8 57/64/8 197/76/8
f 9/77/9 10/65/9 66/68/9 65/78/9
f 3/70/10 4/79/10 60/80/10 59/71/10
f 13/81/11 14/82/11 70/83/11 69/84/11
f 55/85/12 56/86/12 112/87/12 111/88/12
f 130/89/13 9/77/13 65/78/13 203/90/13
f 4/79/14 132/91/14 205/92/14 60/80/14
f 5/93/15 6/94/15 62/95/15 61/96/15
f 7/97/16 8/98/16 64/99/16 63/100/16
f 14/82/17 15/101/17 71/102/17 70/83/17
f 54/103/18 55/85/18 111/88/18 110/104/18
f 6/94/19 7/97/19 63/100/19 62/95/19
f 18/105/20 139/106/20 212/107/20 74/108/20
f 15/101/21 141/109/21 214/110/21 71/102/21
f 143/111/22 54/103/22 110/104/22 216/112/22
f 145/113/23 51/114/23 107/115/23 218/116/23
f 19/117/24 20/118/24 76/119/24 75/120/24
f 17/121/25 18/105/25 74/108/25 73/122/25
f 16/123/26 17/121/26 73/122/26 72/124/26
f 49/125/27 50/126/27 106/127/27 105/128/27
f 52/129/28 53/130/28 109/131/28 108/132/28
f 51/114/29 52/129/29 108/132/29 107/115/29
f 20/118/30 21/133/30 77/134/30 76/119/30
f 48/135/31 49/125/31 105/128/31 104/136/31
f 21/133/32 22/137/32 78/138/32 77/134/32
f 47/139/33 48/135/33 104/136/33 103/140/33
f 23/141/34 24/142/34 80/143/34 79/144/34
f 24/142/35 158/145/35 231/146/35 80/143/35
f 25/147/36 26/148/36 82/149/36 81/150/36
f 161/151/37 45/152/37 101/153/37 234/154/37
f 45/152/38 46/155/38 102/156/38 101/153/38
f 43/157/39 44/158/39 100/159/39 99/160/39
f 22/137/40 23/141/40 79/144/40 78/138/40
f 46/155/41 47/139/41 103/140/41 102/156/41
f 166/161/42 43/157/42 99/160/42 239/162/42
f 40/163/43 41/164/43 97/165/43 96/166/43
f 29/167/44 171/168/44 244/169/44 85/170/44
f 28/171/45 29/167/45 85/170/45 84/172/45
f 30/173/46 31/174/46 87/175/46 86/176/46
f 175/177/47 40/163/47 96/166/47 248/178/47
f 177/179/48 28/171/48 84/172/48 250/180/48
f 26/148/49 27/181/49 83/182/49 82/149/49
f 38/183/50 39/184/50 95/185/50 94/186/50
f 41/164/51 42/187/51 98/188/51 97/165/51
f 31/174/52 32/189/52 88/190/52 87/175/52
f 37/191/53 38/183/53 94/186/53 93/192/53
f 32/189/54 33/193/54 89/194/54 88/190/54
f 183/195/55 37/191/55 93/192/55 256/196/55
f 33/193/56 34/197/56 90/198/56 89/194/56
f 35/199/57 36/200/57 92/201/57 91/202/57
f 34/197/58 35/199/58 91/202/58 90/198/58
usemtl FrontMat.001
f 170/203/59 169/204/59 151/205/59
f 181/206/59 179/207/59 184/208/59
f 149/209/59 133/210/59 144/211/59
f 159/212/59 157/213/59 156/214/59
f 131/215/59 126/216/59 123/217/59
f 154/218/59 163/219/59 168/220/59
f 147/221/59 134/222/59 149/209/59
f 146/223/59 131/215/59 128/224/59
f 120/225/59 117/226/59 116/227/59
f 123/217/59 128/224/59 131/215/59
f 134/222/59 133/210/59 149/209/59
f 182/228/59 185/229/59 180/230/59
f 137/231/59 148/232/59 127/233/59
f 173/234/59 170/203/59 174/235/59
f 172/236/59 176/237/59 159/212/59
f 178/238/59 173/234/59 174/235/59
f 121/239/59 125/240/59 129/241/59
f 160/242/59 164/243/59 162/244/59
f 185/229/59 184/208/59 180/230/59
f 179/207/59 178/238/59 180/230/59
f 179/207/59 173/234/59 178/238/59
f 136/245/59 142/246/59 150/247/59
f 147/221/59 138/248/59 129/241/59
f 146/223/59 136/245/59 150/247/59
f 168/220/59 167/249/59 154/218/59
f 125/240/59 115/250/59 119/251/59
f 127/233/59 121/239/59 137/231/59
f 128/224/59 136/245/59 146/223/59
f 134/222/59 147/221/59 129/241/59
f 152/252/59 151/205/59 149/209/59
f 126/216/59 120/225/59 116/227/59
f 174/235/59 170/203/59 167/249/59
f 151/205/59 147/221/59 149/209/59
f 170/203/59 151/205/59 152/252/59
f 172/236/59 159/212/59 155/253/59
f 164/243/59 165/254/59 168/220/59
f 144/211/59 131/215/59 146/223/59
f 121/239/59 129/241/59 138/248/59
f 163/219/59 162/244/59 164/243/59
f 152/252/59 154/218/59 167/249/59
f 116/227/59 123/217/59 126/216/59
f 153/255/59 172/236/59 155/253/59
f 159/212/59 156/214/59 155/253/59
f 184/208/59 179/207/59 180/230/59
f 115/250/59 113/256/59 119/251/59
f 138/248/59 137/231/59 121/239/59
f 170/203/59 152/252/59 167/249/59
f 164/243/59 168/220/59 163/219/59
f 133/210/59 131/215/59 144/211/59
f 148/232/59 140/257/59 135/258/59
f 148/232/59 135/258/59 127/233/59
f 121/239/59 115/250/59 125/240/59
f 169/204/59 153/255/59 151/205/59
f 169/204/59 172/236/59 153/255/59
