# Blender v2.83.1 OBJ File: 'jigsaw-32x20-3-step2.blend'
# www.blender.org
mtllib piece.611.mtl
o path4830
v 0.273798 0.037500 0.468529
v 0.155306 0.037500 0.454167
v 0.077959 0.037500 0.473604
v 0.073536 0.037500 0.541063
v 0.100687 0.037500 0.631861
v 0.099789 0.037500 0.711592
v 0.031050 0.037500 0.751953
v -0.065914 0.037500 0.749069
v -0.131651 0.037500 0.705170
v -0.127195 0.037500 0.627246
v -0.095486 0.037500 0.541303
v -0.099949 0.037500 0.478103
v -0.184343 0.037500 0.459590
v -0.313683 0.037500 0.472449
v -0.529865 0.037500 0.513890
v -0.529865 0.037500 -0.488019
v -0.314556 0.037500 -0.462908
v -0.185005 0.037500 -0.460235
v -0.098827 0.037500 -0.486334
v -0.090351 0.037500 -0.551917
v -0.116295 0.037500 -0.636885
v -0.113983 0.037500 -0.713434
v -0.041405 0.037500 -0.757614
v 0.060835 0.037500 -0.760874
v 0.131464 0.037500 -0.718513
v 0.129707 0.037500 -0.632792
v 0.096790 0.037500 -0.533795
v 0.094440 0.037500 -0.458566
v 0.165781 0.037500 -0.433853
v 0.279545 0.037500 -0.445213
v 0.471832 0.037500 -0.488019
v 0.452635 0.037500 -0.160990
v 0.472130 0.037500 -0.086263
v 0.520908 0.037500 -0.092041
v 0.586842 0.037500 -0.132729
v 0.652718 0.037500 -0.142829
v 0.702112 0.037500 -0.078202
v 0.721773 0.037500 0.019859
v 0.699245 0.037500 0.088698
v 0.630075 0.037500 0.086853
v 0.541853 0.037500 0.057618
v 0.470169 0.037500 0.065474
v 0.441286 0.037500 0.154806
v 0.444197 0.037500 0.289605
v 0.471832 0.037500 0.513890
v 0.273798 -0.037500 0.468529
v 0.155306 -0.037500 0.454167
v 0.077959 -0.037500 0.473604
v 0.073536 -0.037498 0.541063
v 0.100687 -0.037500 0.631861
v 0.099789 -0.037500 0.711592
v 0.031050 -0.037500 0.751953
v -0.065914 -0.037498 0.749069
v -0.131651 -0.037500 0.705170
v -0.127195 -0.037500 0.627246
v -0.095486 -0.037500 0.541303
v -0.099949 -0.037500 0.478103
v -0.184343 -0.037500 0.459590
v -0.313683 -0.037500 0.472449
v -0.529865 -0.037500 0.513890
v -0.529865 -0.037500 -0.488019
v -0.314556 -0.037498 -0.462908
v -0.185005 -0.037500 -0.460235
v -0.098827 -0.037500 -0.486334
v -0.090351 -0.037500 -0.551917
v -0.116295 -0.037500 -0.636885
v -0.113983 -0.037500 -0.713434
v -0.041405 -0.037500 -0.757614
v 0.060835 -0.037500 -0.760874
v 0.131464 -0.037500 -0.718513
v 0.129707 -0.037500 -0.632792
v 0.096790 -0.037500 -0.533795
v 0.094440 -0.037500 -0.458566
v 0.165781 -0.037500 -0.433853
v 0.279545 -0.037500 -0.445213
v 0.471832 -0.037500 -0.488019
v 0.452635 -0.037498 -0.160990
v 0.472130 -0.037500 -0.086263
v 0.520908 -0.037500 -0.092041
v 0.586842 -0.037500 -0.132729
v 0.652718 -0.037500 -0.142829
v 0.702112 -0.037500 -0.078202
v 0.721773 -0.037500 0.019859
v 0.699245 -0.037500 0.088698
v 0.630075 -0.037500 0.086853
v 0.541853 -0.037498 0.057618
v 0.470169 -0.037500 0.065474
v 0.441286 -0.037500 0.154806
v 0.444197 -0.037500 0.289605
v 0.471832 -0.037498 0.513890
v 0.702112 0.037500 -0.078202
v 0.721773 0.037500 0.019859
v 0.699245 0.037500 0.088698
v 0.699245 0.037500 0.088698
v 0.652718 0.037500 -0.142829
v 0.652718 0.037500 -0.142829
v 0.630075 0.037500 0.086853
v 0.586842 0.037500 -0.132729
v 0.541853 0.037500 0.057618
v 0.520908 0.037500 -0.092041
v 0.470169 0.037500 0.065474
v 0.470169 0.037500 0.065474
v 0.472130 0.037500 -0.086263
v 0.472130 0.037500 -0.086263
v 0.452635 0.037500 -0.160990
v 0.441286 0.037500 0.154806
v 0.444197 0.037500 0.289605
v 0.471832 0.037500 0.513890
v 0.471832 0.037500 0.513890
v 0.471832 0.037500 -0.488019
v 0.471832 0.037500 -0.488019
v 0.279545 0.037500 -0.445213
v 0.273798 0.037500 0.468529
v 0.165781 0.037500 -0.433853
v 0.155306 0.037500 0.454167
v 0.094440 0.037500 -0.458566
v 0.094440 0.037500 -0.458566
v 0.077959 0.037500 0.473604
v 0.077959 0.037500 0.473604
v 0.060835 0.037500 -0.760874
v 0.131464 0.037500 -0.718513
v 0.131464 0.037500 -0.718513
v 0.129707 0.037500 -0.632792
v 0.096790 0.037500 -0.533795
v 0.073536 0.037500 0.541063
v 0.100687 0.037500 0.631861
v 0.099789 0.037500 0.711592
v 0.031050 0.037500 0.751953
v -0.041405 0.037500 -0.757614
v -0.065914 0.037500 0.749069
v -0.113983 0.037500 -0.713434
v -0.131651 0.037500 0.705170
v -0.116295 0.037500 -0.636885
v -0.090351 0.037500 -0.551917
v -0.098827 0.037500 -0.486334
v -0.098827 0.037500 -0.486334
v -0.095486 0.037500 0.541303
v -0.099949 0.037500 0.478103
v -0.099949 0.037500 0.478103
v -0.127195 0.037500 0.627246
v -0.185005 0.037500 -0.460235
v -0.184343 0.037500 0.459590
v -0.313683 0.037500 0.472449
v -0.314556 0.037500 -0.462908
v -0.529865 0.037500 -0.488019
v -0.529865 0.037500 -0.488019
v -0.529865 0.037500 0.513890
v -0.529865 0.037500 0.513890
v 0.702112 -0.037500 -0.078202
v 0.721773 -0.037500 0.019859
v 0.699245 -0.037500 0.088698
v 0.699245 -0.037500 0.088698
v 0.652718 -0.037500 -0.142829
v 0.652718 -0.037500 -0.142829
v 0.630075 -0.037500 0.086853
v 0.586842 -0.037500 -0.132729
v 0.541853 -0.037498 0.057618
v 0.520908 -0.037500 -0.092041
v 0.470169 -0.037500 0.065474
v 0.470169 -0.037500 0.065474
v 0.472130 -0.037500 -0.086263
v 0.472130 -0.037500 -0.086263
v 0.452635 -0.037498 -0.160990
v 0.441286 -0.037500 0.154806
v 0.444197 -0.037500 0.289605
v 0.471832 -0.037498 0.513890
v 0.471832 -0.037498 0.513890
v 0.471832 -0.037500 -0.488019
v 0.471832 -0.037500 -0.488019
v 0.279545 -0.037500 -0.445213
v 0.273798 -0.037500 0.468529
v 0.165781 -0.037500 -0.433853
v 0.155306 -0.037500 0.454167
v 0.094440 -0.037500 -0.458566
v 0.094440 -0.037500 -0.458566
v 0.077959 -0.037500 0.473604
v 0.077959 -0.037500 0.473604
v 0.060835 -0.037500 -0.760874
v 0.131464 -0.037500 -0.718513
v 0.131464 -0.037500 -0.718513
v 0.129707 -0.037500 -0.632792
v 0.096790 -0.037500 -0.533795
v 0.073536 -0.037498 0.541063
v 0.100687 -0.037500 0.631861
v 0.099789 -0.037500 0.711592
v 0.031050 -0.037500 0.751953
v -0.041405 -0.037500 -0.757614
v -0.065914 -0.037498 0.749069
v -0.113983 -0.037500 -0.713434
v -0.131651 -0.037500 0.705170
v -0.116295 -0.037500 -0.636885
v -0.090351 -0.037500 -0.551917
v -0.098827 -0.037500 -0.486334
v -0.098827 -0.037500 -0.486334
v -0.095486 -0.037500 0.541303
v -0.099949 -0.037500 0.478103
v -0.099949 -0.037500 0.478103
v -0.127195 -0.037500 0.627246
v -0.185005 -0.037500 -0.460235
v -0.184343 -0.037500 0.459590
v -0.313683 -0.037500 0.472449
v -0.314556 -0.037498 -0.462908
v -0.529865 -0.037500 -0.488019
v -0.529865 -0.037500 -0.488019
v -0.529865 -0.037500 0.513890
v -0.529865 -0.037500 0.513890
vt 0.500000 0.500000
vt 0.500000 0.500000
vt 0.500000 0.500000
vt 0.500000 0.500000
vt 0.500000 0.500000
vt 0.500000 0.500000
vt 0.500000 0.500000
vt 0.500000 0.500000
vt 0.500000 0.500000
vt 0.500000 0.500000
vt 0.500000 0.500000
vt 0.500000 0.500000
vt 0.500000 0.500000
vt 0.500000 0.500000
vt 0.500000 0.500000
vt 0.500000 0.500000
vt 0.500000 0.500000
vt 0.500000 0.500000
vt 0.500000 0.500000
vt 0.500000 0.500000
vt 0.500000 0.500000
vt 0.500000 0.500000
vt 0.500000 0.500000
vt 0.500000 0.500000
vt 0.500000 0.500000
vt 0.500000 0.500000
vt 0.500000 0.500000
vt 0.500000 0.500000
vt 0.500000 0.500000
vt 0.500000 0.500000
vt 0.500000 0.500000
vt 0.500000 0.500000
vt 0.500000 0.500000
vt 0.500000 0.500000
vt 0.500000 0.500000
vt 0.500000 0.500000
vt 0.500000 0.500000
vt 0.500000 0.500000
vt 0.500000 0.500000
vt 0.500000 0.500000
vt 0.500000 0.500000
vt 0.500000 0.500000
vt 0.500000 0.500000
vt 0.500000 0.500000
vt 0.500000 0.500000
vt 0.500000 0.500000
vt 0.500000 0.500000
vt 0.500000 0.500000
vt 0.500000 0.500000
vt 0.500000 0.500000
vt 0.500000 0.500000
vt 0.500000 0.500000
vt 0.500000 0.500000
vt 0.500000 0.500000
vt 0.500000 0.500000
vt 0.500000 0.500000
vt 0.500000 0.500000
vt 0.500000 0.500000
vt 0.500000 0.500000
vt 0.500000 0.500000
vt 0.500000 0.500000
vt 0.500000 0.500000
vt 0.500000 0.500000
vt 0.500000 0.500000
vt 0.500000 0.500000
vt 0.500000 0.500000
vt 0.500000 0.500000
vt 0.500000 0.500000
vt 0.500000 0.500000
vt 0.500000 0.500000
vt 0.500000 0.500000
vt 0.500000 0.500000
vt 0.500000 0.500000
vt 0.500000 0.500000
vt 0.500000 0.500000
vt 0.500000 0.500000
vt 0.500000 0.500000
vt 0.500000 0.500000
vt 0.500000 0.500000
vt 0.500000 0.500000
vt 0.500000 0.500000
vt 0.500000 0.500000
vt 0.500000 0.500000
vt 0.500000 0.500000
vt 0.500000 0.500000
vt 0.500000 0.500000
vt 0.500000 0.500000
vt 0.500000 0.500000
vt 0.500000 0.500000
vt 0.500000 0.500000
vt 0.500000 0.500000
vt 0.500000 0.500000
vt 0.500000 0.500000
vt 0.500000 0.500000
vt 0.500000 0.500000
vt 0.500000 0.500000
vt 0.500000 0.500000
vt 0.500000 0.500000
vt 0.500000 0.500000
vt 0.500000 0.500000
vt 0.500000 0.500000
vt 0.500000 0.500000
vt 0.500000 0.500000
vt 0.500000 0.500000
vt 0.500000 0.500000
vt 0.500000 0.500000
vt 0.500000 0.500000
vt 0.500000 0.500000
vt 0.500000 0.500000
vt 0.500000 0.500000
vt 0.500000 0.500000
vt 0.500000 0.500000
vt 0.500000 0.500000
vt 0.500000 0.500000
vt 0.500000 0.500000
vt 0.500000 0.500000
vt 0.500000 0.500000
vt 0.500000 0.500000
vt 0.500000 0.500000
vt 0.500000 0.500000
vt 0.500000 0.500000
vt 0.500000 0.500000
vt 0.500000 0.500000
vt 0.500000 0.500000
vt 0.500000 0.500000
vt 0.500000 0.500000
vt 0.500000 0.500000
vt 0.500000 0.500000
vt 0.500000 0.500000
vt 0.500000 0.500000
vt 0.500000 0.500000
vt 0.500000 0.500000
vt 0.500000 0.500000
vt 0.500000 0.500000
vt 0.500000 0.500000
vt 0.500000 0.500000
vt 0.500000 0.500000
vt 0.500000 0.500000
vt 0.500000 0.500000
vt 0.500000 0.500000
vt 0.500000 0.500000
vt 0.500000 0.500000
vt 0.500000 0.500000
vt 0.500000 0.500000
vt 0.500000 0.500000
vt 0.500000 0.500000
vt 0.500000 0.500000
vt 0.500000 0.500000
vt 0.500000 0.500000
vt 0.500000 0.500000
vt 0.500000 0.500000
vt 0.500000 0.500000
vt 0.500000 0.500000
vt 0.500000 0.500000
vt 0.500000 0.500000
vt 0.500000 0.500000
vt 0.500000 0.500000
vt 0.500000 0.500000
vt 0.500000 0.500000
vt 0.500000 0.500000
vt 0.500000 0.500000
vt 0.092634 0.021459
vt 0.094605 0.021682
vt 0.094598 0.030119
vt 0.092493 0.030340
vt 0.091887 0.034201
vt 0.082550 0.048475
vt 0.060507 0.021939
vt 0.062553 0.021515
vt 0.061072 0.031280
vt 0.053990 0.029485
vt 0.054091 0.024382
vt 0.057984 0.032923
vt 0.097286 0.020099
vt 0.099716 0.019877
vt 0.101085 0.023158
vt 0.072700 0.049042
vt 0.062500 0.050000
vt 0.063835 0.040402
vt 0.063283 0.010747
vt 0.062500 0.000000
vt 0.092457 0.010791
vt 0.097430 0.031474
vt 0.101175 0.027998
vt 0.063419 0.031162
vt 0.073582 0.055741
vt 0.074851 0.052450
vt 0.079519 0.053495
vt 0.075031 0.050015
vt 0.079764 0.049917
vt 0.064189 0.034723
vt 0.073267 0.059029
vt 0.075282 0.061494
vt 0.063367 0.017214
vt 0.092056 0.017247
vt 0.080431 0.057899
vt 0.080488 0.061351
vt 0.078341 0.062476
vt 0.099916 0.031429
vt 0.092335 0.040115
vt 0.086754 0.048621
vt 0.057857 0.020643
vt 0.055311 0.033010
vt 0.093750 0.050000
vt 0.055469 0.020759
vt 0.093750 0.000000
vn 0.0000 -1.0000 -0.0000
vn -0.0001 -1.0000 -0.0000
vn 0.9805 0.0000 -0.1966
vn 0.9504 0.0000 0.3110
vn 0.7945 0.0000 -0.6072
vn -0.0267 0.0000 0.9996
vn -0.1515 0.0000 -0.9884
vn -0.3146 0.0000 0.9492
vn -0.5252 0.0000 -0.8510
vn 0.1089 0.0000 0.9940
vn -0.1176 0.0000 -0.9931
vn 0.9676 0.0000 -0.2524
vn 0.9515 0.0000 0.3076
vn 0.9925 0.0000 -0.1223
vn 0.9983 0.0000 0.0586
vn 0.9998 0.0000 -0.0216
vn -0.2173 0.0000 -0.9761
vn -0.2233 0.0000 0.9748
vn -0.0994 0.0000 -0.9951
vn -0.1203 0.0000 0.9927
vn 0.3273 0.0000 -0.9449
vn 0.2437 0.0000 0.9698
vn 0.5143 0.0000 -0.8576
vn 0.9998 0.0000 0.0205
vn 0.9489 0.0000 0.3155
vn 0.9581 0.0000 -0.2865
vn 0.9999 0.0000 0.0113
vn 0.5063 0.0000 0.8623
vn 0.9995 0.0000 0.0312
vn 0.9979 0.0000 0.0654
vn -0.0319 0.0000 -0.9995
vn -0.0297 0.0000 0.9996
vn -0.5200 0.0000 -0.8542
vn -0.5554 0.0000 0.8316
vn -0.9995 0.0000 -0.0302
vn -0.9564 0.0000 0.2920
vn -0.9918 0.0000 -0.1282
vn -0.9975 0.0000 0.0704
vn -0.9382 0.0000 -0.3462
vn -0.9984 0.0000 -0.0571
vn -0.2899 0.0000 -0.9571
vn -0.2143 0.0000 0.9768
vn 0.0989 0.0000 0.9951
vn 0.0206 0.0000 -0.9998
vn 0.1158 0.0000 -0.9933
vn -1.0000 0.0000 0.0000
vn 0.1883 0.0000 0.9821
vn 0.0000 1.0000 0.0000
usemtl BackMat.001
s off
f 196/1/1 183/2/1 195/3/1
f 176/4/1 164/5/1 173/6/1
f 192/7/1 182/8/1 193/9/1
f 178/10/1 181/11/1 187/12/1
f 198/13/1 188/14/1 190/15/1
f 163/16/1 170/17/1 168/18/1
f 202/19/1 201/20/1 203/21/1
f 184/22/1 186/23/1 198/13/1
f 193/9/1 182/8/1 174/24/1
f 156/25/1 157/26/1 158/27/1
f 161/28/1 159/29/1 164/5/1
f 158/27/1 157/26/1 161/28/1
f 174/24/1 172/30/1 196/1/1
f 153/31/1 149/32/1 156/25/1
f 199/33/1 174/24/1 200/34/1
f 195/3/1 184/22/1 198/13/1
f 196/1/1 172/30/1 176/4/1
f 163/16/2 161/28/2 164/5/2
f 184/22/1 195/3/1 183/2/1
f 176/4/1 183/2/1 196/1/1
f 170/17/1 163/16/1 172/30/1
f 157/26/1 149/32/1 155/35/1
f 155/35/1 150/36/1 151/37/1
f 186/23/1 184/22/1 185/38/1
f 173/6/1 165/39/1 171/40/1
f 187/12/1 181/11/1 191/41/1
f 182/8/1 192/7/1 181/11/1
f 179/42/1 181/11/1 178/10/1
f 198/13/1 186/23/1 188/14/1
f 171/40/1 165/39/1 166/43/1
f 172/30/1 164/5/1 176/4/1
f 199/33/1 200/34/1 202/19/1
f 193/9/1 174/24/1 199/33/1
f 149/32/1 157/26/1 156/25/1
f 200/34/1 174/24/1 196/1/1
f 164/5/1 172/30/1 163/16/1
f 165/39/1 173/6/1 164/5/1
f 191/41/1 181/11/1 192/7/1
f 189/44/1 187/12/1 191/41/1
f 161/28/1 157/26/1 159/29/1
f 203/21/1 201/20/1 205/45/1
f 202/19/1 200/34/1 201/20/1
f 150/36/1 155/35/1 149/32/1
f 37/46/3 38/47/3 83/48/3 82/49/3
f 38/47/4 94/50/4 152/51/4 83/48/4
f 96/52/5 37/46/5 82/49/5 154/53/5
f 39/54/6 40/55/6 85/56/6 84/57/6
f 35/58/7 36/59/7 81/60/7 80/61/7
f 40/55/8 41/62/8 86/63/8 85/56/8
f 34/64/9 35/58/9 80/61/9 79/65/9
f 41/62/10 102/66/10 160/67/10 86/63/10
f 104/68/11 34/64/11 79/65/11 162/69/11
f 32/70/12 33/71/12 78/72/12 77/73/12
f 42/74/13 43/75/13 88/76/13 87/77/13
f 44/78/14 109/79/14 167/80/14 89/81/14
f 111/82/15 32/70/15 77/73/15 169/83/15
f 43/75/16 44/78/16 89/81/16 88/76/16
f 30/84/17 31/85/17 76/86/17 75/87/17
f 45/88/18 1/89/18 46/90/18 90/91/18
f 29/92/19 30/84/19 75/87/19 74/93/19
f 1/89/20 2/94/20 47/95/20 46/90/20
f 117/96/21 29/92/21 74/93/21 175/97/21
f 2/94/22 119/98/22 177/99/22 47/95/22
f 24/100/23 122/101/23 180/102/23 69/103/23
f 25/104/24 26/105/24 71/106/24 70/107/24
f 26/105/25 27/108/25 72/109/25 71/106/25
f 4/110/26 5/111/26 50/112/26 49/113/26
f 5/111/27 6/114/27 51/115/27 50/112/27
f 6/114/28 7/116/28 52/117/28 51/115/28
f 27/108/29 28/118/29 73/119/29 72/109/29
f 3/120/30 4/110/30 49/113/30 48/121/30
f 23/122/31 24/100/31 69/103/31 68/123/31
f 7/116/32 8/124/32 53/125/32 52/117/32
f 22/126/33 23/122/33 68/123/33 67/127/33
f 8/124/34 9/128/34 54/129/34 53/125/34
f 21/130/35 22/126/35 67/127/35 66/131/35
f 20/132/36 21/130/36 66/131/36 65/133/36
f 136/134/37 20/132/37 65/133/37 194/135/37
f 11/136/38 139/137/38 197/138/38 56/139/38
f 10/140/39 11/136/39 56/139/39 55/141/39
f 9/128/40 10/140/40 55/141/40 54/129/40
f 18/142/41 19/143/41 64/144/41 63/145/41
f 12/146/42 13/147/42 58/148/42 57/149/42
f 13/147/43 14/150/43 59/151/43 58/148/43
f 17/152/44 18/142/44 63/145/44 62/153/44
f 146/154/45 17/152/45 62/153/45 204/155/45
f 148/156/46 16/157/46 61/158/46 206/159/46
f 14/150/47 15/160/47 60/161/47 59/151/47
usemtl FrontMat.001
f 138/162/48 137/163/48 125/164/48
f 118/165/48 115/166/48 106/167/48
f 134/168/48 135/169/48 124/170/48
f 120/171/48 129/172/48 123/173/48
f 140/174/48 132/175/48 130/176/48
f 105/177/48 110/178/48 112/179/48
f 144/180/48 145/181/48 143/182/48
f 126/183/48 140/174/48 128/184/48
f 135/169/48 116/185/48 124/170/48
f 98/186/48 100/187/48 99/188/48
f 103/189/48 106/167/48 101/190/48
f 100/187/48 103/189/48 99/188/48
f 116/185/48 138/162/48 114/191/48
f 95/192/48 98/186/48 91/193/48
f 141/194/48 142/195/48 116/185/48
f 137/163/48 140/174/48 126/183/48
f 138/162/48 118/165/48 114/191/48
f 105/177/48 106/167/48 103/189/48
f 126/183/48 125/164/48 137/163/48
f 118/165/48 138/162/48 125/164/48
f 112/179/48 114/191/48 105/177/48
f 99/188/48 97/196/48 91/193/48
f 97/196/48 93/197/48 92/198/48
f 128/184/48 127/199/48 126/183/48
f 115/166/48 113/200/48 107/201/48
f 129/172/48 133/202/48 123/173/48
f 124/170/48 123/173/48 134/168/48
f 121/203/48 120/171/48 123/173/48
f 140/174/48 130/176/48 128/184/48
f 113/200/48 108/204/48 107/201/48
f 114/191/48 118/165/48 106/167/48
f 141/194/48 144/180/48 142/195/48
f 135/169/48 141/194/48 116/185/48
f 91/193/48 98/186/48 99/188/48
f 142/195/48 138/162/48 116/185/48
f 106/167/48 105/177/48 114/191/48
f 107/201/48 106/167/48 115/166/48
f 133/202/48 134/168/48 123/173/48
f 131/205/48 133/202/48 129/172/48
f 103/189/48 101/190/48 99/188/48
f 145/181/48 147/206/48 143/182/48
f 144/180/48 143/182/48 142/195/48
f 92/198/48 91/193/48 97/196/48
