# Blender v2.83.1 OBJ File: 'jigsaw-32x20-3-step2.blend'
# www.blender.org
mtllib piece.595.mtl
o path4798
v 0.475046 0.037500 -0.290380
v 0.472248 0.037500 -0.173817
v 0.498615 0.037500 -0.101204
v 0.564468 0.037500 -0.104750
v 0.646675 0.037500 -0.139925
v 0.713747 0.037500 -0.143011
v 0.740211 0.037500 -0.071402
v 0.724646 0.037500 0.033138
v 0.671646 0.037500 0.107733
v 0.589930 0.037500 0.110508
v 0.504702 0.037500 0.083643
v 0.445295 0.037500 0.090313
v 0.432243 0.037500 0.174282
v 0.500622 0.037500 0.513937
v 0.135824 0.037500 0.463974
v 0.044905 0.037500 0.479031
v 0.036924 0.037500 0.533115
v 0.068546 0.037500 0.606455
v 0.076374 0.037500 0.671431
v 0.017273 0.037500 0.705027
v -0.070938 0.037500 0.702726
v -0.130180 0.037500 0.664616
v -0.122274 0.037500 0.595612
v -0.088619 0.037500 0.519575
v -0.090504 0.037500 0.465164
v -0.170204 0.037500 0.452696
v -0.501287 0.037500 0.513937
v -0.443336 0.037500 0.162769
v -0.459248 0.037500 0.078398
v -0.518967 0.037500 0.076694
v -0.600969 0.037500 0.112658
v -0.675034 0.037500 0.121052
v -0.716124 0.037500 0.057436
v -0.719938 0.037500 -0.039522
v -0.687368 0.037500 -0.110373
v -0.623495 0.037500 -0.115208
v -0.550144 0.037500 -0.092312
v -0.493322 0.037500 -0.099504
v -0.471901 0.037500 -0.176876
v -0.476179 0.037500 -0.293591
v -0.501287 0.037500 -0.487761
v -0.297974 0.037500 -0.469128
v -0.177591 0.037500 -0.469465
v -0.101891 0.037500 -0.495651
v -0.104034 0.037500 -0.556295
v -0.139297 0.037500 -0.630465
v -0.143478 0.037500 -0.689857
v -0.073805 0.037500 -0.711695
v 0.026766 0.037500 -0.695274
v 0.093845 0.037500 -0.645414
v 0.085186 0.037500 -0.570469
v 0.047113 0.037500 -0.492994
v 0.048090 0.037500 -0.439085
v 0.135410 0.037500 -0.426964
v 0.500622 0.037500 -0.487761
v 0.475046 -0.037500 -0.290380
v 0.472248 -0.037500 -0.173817
v 0.498615 -0.037500 -0.101204
v 0.564468 -0.037498 -0.104750
v 0.646675 -0.037500 -0.139925
v 0.713747 -0.037500 -0.143011
v 0.740211 -0.037500 -0.071402
v 0.724646 -0.037500 0.033138
v 0.671646 -0.037500 0.107733
v 0.589930 -0.037500 0.110508
v 0.504702 -0.037500 0.083643
v 0.445295 -0.037500 0.090313
v 0.432243 -0.037498 0.174282
v 0.500622 -0.037500 0.513937
v 0.135824 -0.037498 0.463974
v 0.044905 -0.037500 0.479031
v 0.036924 -0.037500 0.533115
v 0.068546 -0.037500 0.606455
v 0.076374 -0.037500 0.671431
v 0.017273 -0.037500 0.705027
v -0.070938 -0.037500 0.702726
v -0.130180 -0.037500 0.664616
v -0.122274 -0.037500 0.595612
v -0.088619 -0.037500 0.519575
v -0.090504 -0.037500 0.465164
v -0.170204 -0.037500 0.452696
v -0.501287 -0.037500 0.513937
v -0.443336 -0.037500 0.162769
v -0.459248 -0.037500 0.078398
v -0.518967 -0.037500 0.076694
v -0.600969 -0.037500 0.112658
v -0.675034 -0.037500 0.121052
v -0.716124 -0.037500 0.057436
v -0.719938 -0.037500 -0.039522
v -0.687368 -0.037500 -0.110373
v -0.623495 -0.037498 -0.115208
v -0.550144 -0.037498 -0.092312
v -0.493322 -0.037500 -0.099504
v -0.471901 -0.037498 -0.176876
v -0.476179 -0.037500 -0.293591
v -0.501287 -0.037498 -0.487761
v -0.297974 -0.037500 -0.469128
v -0.177591 -0.037500 -0.469465
v -0.101891 -0.037500 -0.495651
v -0.104034 -0.037500 -0.556295
v -0.139297 -0.037500 -0.630465
v -0.143478 -0.037498 -0.689857
v -0.073805 -0.037500 -0.711695
v 0.026766 -0.037500 -0.695274
v 0.093845 -0.037500 -0.645414
v 0.085186 -0.037500 -0.570469
v 0.047113 -0.037500 -0.492994
v 0.048090 -0.037500 -0.439085
v 0.135410 -0.037500 -0.426964
v 0.500622 -0.037500 -0.487761
v -0.143478 0.037500 -0.689857
v -0.143478 0.037500 -0.689857
v -0.073805 0.037500 -0.711695
v 0.026766 0.037500 -0.695274
v 0.093845 0.037500 -0.645414
v -0.139297 0.037500 -0.630465
v 0.085186 0.037500 -0.570469
v -0.104034 0.037500 -0.556295
v 0.047113 0.037500 -0.492994
v -0.101891 0.037500 -0.495651
v -0.101891 0.037500 -0.495651
v -0.177591 0.037500 -0.469465
v 0.048090 0.037500 -0.439085
v 0.048090 0.037500 -0.439085
v -0.501287 0.037500 -0.487761
v -0.501287 0.037500 -0.487761
v -0.297974 0.037500 -0.469128
v 0.135410 0.037500 -0.426964
v 0.500622 0.037500 -0.487761
v 0.500622 0.037500 -0.487761
v -0.476179 0.037500 -0.293591
v 0.475046 0.037500 -0.290380
v -0.471901 0.037500 -0.176876
v 0.472248 0.037500 -0.173817
v -0.493322 0.037500 -0.099504
v -0.493322 0.037500 -0.099504
v 0.498615 0.037500 -0.101204
v 0.498615 0.037500 -0.101204
v 0.646675 0.037500 -0.139925
v 0.713747 0.037500 -0.143011
v 0.713747 0.037500 -0.143011
v 0.740211 0.037500 -0.071402
v 0.564468 0.037500 -0.104750
v -0.687368 0.037500 -0.110373
v -0.687368 0.037500 -0.110373
v -0.623495 0.037500 -0.115208
v -0.550144 0.037500 -0.092312
v -0.719938 0.037500 -0.039522
v 0.724646 0.037500 0.033138
v -0.716124 0.037500 0.057436
v 0.671646 0.037500 0.107733
v -0.675034 0.037500 0.121052
v -0.675034 0.037500 0.121052
v -0.600969 0.037500 0.112658
v -0.518967 0.037500 0.076694
v -0.459248 0.037500 0.078398
v -0.459248 0.037500 0.078398
v -0.443336 0.037500 0.162769
v 0.504702 0.037500 0.083643
v 0.445295 0.037500 0.090313
v 0.445295 0.037500 0.090313
v 0.589930 0.037500 0.110508
v 0.432243 0.037500 0.174282
v -0.501287 0.037500 0.513937
v -0.501287 0.037500 0.513937
v -0.090504 0.037500 0.465164
v -0.090504 0.037500 0.465164
v -0.170204 0.037500 0.452696
v 0.135824 0.037500 0.463974
v 0.044905 0.037500 0.479031
v 0.044905 0.037500 0.479031
v -0.088619 0.037500 0.519575
v 0.036924 0.037500 0.533115
v 0.500622 0.037500 0.513937
v 0.500622 0.037500 0.513937
v -0.122274 0.037500 0.595612
v 0.068546 0.037500 0.606455
v -0.130180 0.037500 0.664616
v -0.130180 0.037500 0.664616
v 0.076374 0.037500 0.671431
v 0.076374 0.037500 0.671431
v -0.070938 0.037500 0.702726
v 0.017273 0.037500 0.705027
v -0.143478 -0.037498 -0.689857
v -0.143478 -0.037498 -0.689857
v -0.073805 -0.037500 -0.711695
v 0.026766 -0.037500 -0.695274
v 0.093845 -0.037500 -0.645414
v -0.139297 -0.037500 -0.630465
v 0.085186 -0.037500 -0.570469
v -0.104034 -0.037500 -0.556295
v 0.047113 -0.037500 -0.492994
v -0.101891 -0.037500 -0.495651
v -0.101891 -0.037500 -0.495651
v -0.177591 -0.037500 -0.469465
v 0.048090 -0.037500 -0.439085
v 0.048090 -0.037500 -0.439085
v -0.501287 -0.037498 -0.487761
v -0.501287 -0.037498 -0.487761
v -0.297974 -0.037500 -0.469128
v 0.135410 -0.037500 -0.426964
v 0.500622 -0.037500 -0.487761
v 0.500622 -0.037500 -0.487761
v -0.476179 -0.037500 -0.293591
v 0.475046 -0.037500 -0.290380
v -0.471901 -0.037498 -0.176876
v 0.472248 -0.037500 -0.173817
v -0.493322 -0.037500 -0.099504
v -0.493322 -0.037500 -0.099504
v 0.498615 -0.037500 -0.101204
v 0.498615 -0.037500 -0.101204
v 0.646675 -0.037500 -0.139925
v 0.713747 -0.037500 -0.143011
v 0.713747 -0.037500 -0.143011
v 0.740211 -0.037500 -0.071402
v 0.564468 -0.037498 -0.104750
v -0.687368 -0.037500 -0.110373
v -0.687368 -0.037500 -0.110373
v -0.623495 -0.037498 -0.115208
v -0.550144 -0.037498 -0.092312
v -0.719938 -0.037500 -0.039522
v 0.724646 -0.037500 0.033138
v -0.716124 -0.037500 0.057436
v 0.671646 -0.037500 0.107733
v -0.675034 -0.037500 0.121052
v -0.675034 -0.037500 0.121052
v -0.600969 -0.037500 0.112658
v -0.518967 -0.037500 0.076694
v -0.459248 -0.037500 0.078398
v -0.459248 -0.037500 0.078398
v -0.443336 -0.037500 0.162769
v 0.504702 -0.037500 0.083643
v 0.445295 -0.037500 0.090313
v 0.445295 -0.037500 0.090313
v 0.589930 -0.037500 0.110508
v 0.432243 -0.037498 0.174282
v -0.501287 -0.037500 0.513937
v -0.501287 -0.037500 0.513937
v -0.090504 -0.037500 0.465164
v -0.090504 -0.037500 0.465164
v -0.170204 -0.037500 0.452696
v 0.135824 -0.037498 0.463974
v 0.044905 -0.037500 0.479031
v 0.044905 -0.037500 0.479031
v -0.088619 -0.037500 0.519575
v 0.036924 -0.037500 0.533115
v 0.500622 -0.037500 0.513937
v 0.500622 -0.037500 0.513937
v -0.122274 -0.037500 0.595612
v 0.068546 -0.037500 0.606455
v -0.130180 -0.037500 0.664616
v -0.130180 -0.037500 0.664616
v 0.076374 -0.037500 0.671431
v 0.076374 -0.037500 0.671431
v -0.070938 -0.037500 0.702726
v 0.017273 -0.037500 0.705027
vt 0.500000 0.500000
vt 0.500000 0.500000
vt 0.500000 0.500000
vt 0.500000 0.500000
vt 0.500000 0.500000
vt 0.500000 0.500000
vt 0.500000 0.500000
vt 0.500000 0.500000
vt 0.500000 0.500000
vt 0.500000 0.500000
vt 0.500000 0.500000
vt 0.500000 0.500000
vt 0.500000 0.500000
vt 0.500000 0.500000
vt 0.500000 0.500000
vt 0.500000 0.500000
vt 0.500000 0.500000
vt 0.500000 0.500000
vt 0.500000 0.500000
vt 0.500000 0.500000
vt 0.500000 0.500000
vt 0.500000 0.500000
vt 0.500000 0.500000
vt 0.500000 0.500000
vt 0.500000 0.500000
vt 0.500000 0.500000
vt 0.500000 0.500000
vt 0.500000 0.500000
vt 0.500000 0.500000
vt 0.500000 0.500000
vt 0.500000 0.500000
vt 0.500000 0.500000
vt 0.500000 0.500000
vt 0.500000 0.500000
vt 0.500000 0.500000
vt 0.500000 0.500000
vt 0.500000 0.500000
vt 0.500000 0.500000
vt 0.500000 0.500000
vt 0.500000 0.500000
vt 0.500000 0.500000
vt 0.500000 0.500000
vt 0.500000 0.500000
vt 0.500000 0.500000
vt 0.500000 0.500000
vt 0.500000 0.500000
vt 0.500000 0.500000
vt 0.500000 0.500000
vt 0.500000 0.500000
vt 0.500000 0.500000
vt 0.500000 0.500000
vt 0.500000 0.500000
vt 0.500000 0.500000
vt 0.500000 0.500000
vt 0.500000 0.500000
vt 0.500000 0.500000
vt 0.500000 0.500000
vt 0.500000 0.500000
vt 0.500000 0.500000
vt 0.500000 0.500000
vt 0.500000 0.500000
vt 0.500000 0.500000
vt 0.500000 0.500000
vt 0.500000 0.500000
vt 0.500000 0.500000
vt 0.500000 0.500000
vt 0.500000 0.500000
vt 0.500000 0.500000
vt 0.500000 0.500000
vt 0.500000 0.500000
vt 0.500000 0.500000
vt 0.500000 0.500000
vt 0.500000 0.500000
vt 0.500000 0.500000
vt 0.500000 0.500000
vt 0.500000 0.500000
vt 0.500000 0.500000
vt 0.500000 0.500000
vt 0.500000 0.500000
vt 0.500000 0.500000
vt 0.500000 0.500000
vt 0.500000 0.500000
vt 0.500000 0.500000
vt 0.500000 0.500000
vt 0.500000 0.500000
vt 0.500000 0.500000
vt 0.500000 0.500000
vt 0.500000 0.500000
vt 0.500000 0.500000
vt 0.500000 0.500000
vt 0.500000 0.500000
vt 0.500000 0.500000
vt 0.500000 0.500000
vt 0.500000 0.500000
vt 0.500000 0.500000
vt 0.500000 0.500000
vt 0.500000 0.500000
vt 0.500000 0.500000
vt 0.500000 0.500000
vt 0.500000 0.500000
vt 0.500000 0.500000
vt 0.500000 0.500000
vt 0.500000 0.500000
vt 0.500000 0.500000
vt 0.500000 0.500000
vt 0.500000 0.500000
vt 0.500000 0.500000
vt 0.500000 0.500000
vt 0.500000 0.500000
vt 0.500000 0.500000
vt 0.500000 0.500000
vt 0.500000 0.500000
vt 0.500000 0.500000
vt 0.500000 0.500000
vt 0.500000 0.500000
vt 0.500000 0.500000
vt 0.500000 0.500000
vt 0.500000 0.500000
vt 0.500000 0.500000
vt 0.500000 0.500000
vt 0.500000 0.500000
vt 0.500000 0.500000
vt 0.500000 0.500000
vt 0.500000 0.500000
vt 0.500000 0.500000
vt 0.500000 0.500000
vt 0.500000 0.500000
vt 0.500000 0.500000
vt 0.500000 0.500000
vt 0.500000 0.500000
vt 0.500000 0.500000
vt 0.500000 0.500000
vt 0.500000 0.500000
vt 0.500000 0.500000
vt 0.500000 0.500000
vt 0.500000 0.500000
vt 0.500000 0.500000
vt 0.500000 0.500000
vt 0.500000 0.500000
vt 0.500000 0.500000
vt 0.500000 0.500000
vt 0.500000 0.500000
vt 0.500000 0.500000
vt 0.500000 0.500000
vt 0.500000 0.500000
vt 0.500000 0.500000
vt 0.500000 0.500000
vt 0.500000 0.500000
vt 0.500000 0.500000
vt 0.500000 0.500000
vt 0.500000 0.500000
vt 0.500000 0.500000
vt 0.500000 0.500000
vt 0.500000 0.500000
vt 0.500000 0.500000
vt 0.500000 0.500000
vt 0.500000 0.500000
vt 0.500000 0.500000
vt 0.500000 0.500000
vt 0.500000 0.500000
vt 0.500000 0.500000
vt 0.500000 0.500000
vt 0.500000 0.500000
vt 0.500000 0.500000
vt 0.500000 0.500000
vt 0.500000 0.500000
vt 0.500000 0.500000
vt 0.500000 0.500000
vt 0.500000 0.500000
vt 0.500000 0.500000
vt 0.500000 0.500000
vt 0.500000 0.500000
vt 0.500000 0.500000
vt 0.500000 0.500000
vt 0.500000 0.500000
vt 0.500000 0.500000
vt 0.500000 0.500000
vt 0.500000 0.500000
vt 0.500000 0.500000
vt 0.500000 0.500000
vt 0.500000 0.500000
vt 0.500000 0.500000
vt 0.500000 0.500000
vt 0.500000 0.500000
vt 0.500000 0.500000
vt 0.500000 0.500000
vt 0.500000 0.500000
vt 0.500000 0.500000
vt 0.500000 0.500000
vt 0.500000 0.500000
vt 0.500000 0.500000
vt 0.500000 0.500000
vt 0.500000 0.500000
vt 0.500000 0.500000
vt 0.500000 0.500000
vt 0.500000 0.500000
vt 0.500000 0.500000
vt 0.500000 0.500000
vt 0.500000 0.500000
vt 0.500000 0.500000
vt 0.500000 0.500000
vt 0.578674 0.040462
vt 0.580518 0.042139
vt 0.580273 0.045382
vt 0.579536 0.051742
vt 0.582372 0.052494
vt 0.592024 0.071145
vt 0.591617 0.066954
vt 0.563811 0.071740
vt 0.562748 0.080620
vt 0.561949 0.071825
vt 0.575312 0.052435
vt 0.575371 0.049719
vt 0.599084 0.070276
vt 0.600737 0.073999
vt 0.596536 0.070137
vt 0.564308 0.067529
vt 0.593750 0.050000
vt 0.593877 0.071478
vt 0.593687 0.080705
vt 0.574322 0.045923
vt 0.579287 0.049043
vt 0.560976 0.080261
vt 0.558688 0.081404
vt 0.555680 0.077626
vt 0.562500 0.050000
vt 0.572827 0.053057
vt 0.574957 0.100394
vt 0.579605 0.100261
vt 0.574891 0.103421
vt 0.595741 0.080882
vt 0.578970 0.110358
vt 0.575833 0.111178
vt 0.592952 0.090148
vt 0.582359 0.096965
vt 0.592865 0.084329
vt 0.568842 0.099070
vt 0.563283 0.090308
vt 0.563417 0.084482
vt 0.562500 0.100000
vt 0.559391 0.070030
vt 0.555799 0.072786
vt 0.573791 0.107123
vt 0.579635 0.097570
vt 0.572596 0.099087
vt 0.575923 0.040576
vt 0.573660 0.110088
vt 0.598306 0.082638
vt 0.601223 0.079217
vt 0.580792 0.104128
vt 0.581063 0.107869
vt 0.557081 0.069611
vt 0.593750 0.100000
vt 0.556696 0.081163
vt 0.600398 0.082792
vt 0.574075 0.042479
vn 0.0000 -1.0000 -0.0000
vn 0.0001 -1.0000 -0.0000
vn -0.2991 0.0000 -0.9542
vn 0.1611 0.0000 -0.9869
vn 0.5966 0.0000 -0.8026
vn -0.9975 0.0000 0.0702
vn 0.9934 0.0000 0.1148
vn -0.9031 0.0000 0.4294
vn 0.8975 0.0000 0.4410
vn -0.9994 0.0000 0.0353
vn -0.3269 0.0000 -0.9451
vn 0.9998 0.0000 -0.0181
vn 0.0913 0.0000 -0.9958
vn -0.0028 0.0000 -1.0000
vn -0.1642 0.0000 -0.9864
vn 0.1375 0.0000 -0.9905
vn -0.9917 0.0000 0.1282
vn 0.9917 0.0000 0.1285
vn -0.9993 0.0000 0.0366
vn 0.9997 0.0000 0.0240
vn -0.9637 0.0000 -0.2668
vn 0.9399 0.0000 -0.3413
vn -0.0460 0.0000 -0.9989
vn 0.9380 0.0000 -0.3467
vn -0.3934 0.0000 -0.9194
vn -0.0755 0.0000 -0.9971
vn 0.2980 0.0000 -0.9546
vn -0.9086 0.0000 -0.4177
vn -0.0538 0.0000 -0.9986
vn -0.1256 0.0000 -0.9921
vn 0.9891 0.0000 0.1473
vn -0.9992 0.0000 0.0393
vn 0.8152 0.0000 0.5792
vn -0.8400 0.0000 0.5426
vn 0.1126 0.0000 0.9936
vn 0.4016 0.0000 0.9158
vn -0.0285 0.0000 0.9996
vn -0.9827 0.0000 0.1853
vn 0.1116 0.0000 0.9938
vn -0.3006 0.0000 0.9537
vn 0.0339 0.0000 0.9994
vn 0.9881 0.0000 0.1536
vn -0.9867 0.0000 -0.1628
vn -0.1546 0.0000 0.9880
vn 0.1634 0.0000 0.9866
vn -0.9994 0.0000 0.0346
vn 0.9893 0.0000 0.1460
vn -0.1357 0.0000 0.9908
vn 0.9803 0.0000 -0.1974
vn 0.1819 0.0000 0.9833
vn -0.9144 0.0000 -0.4047
vn 0.9183 0.0000 -0.3959
vn -0.9935 0.0000 -0.1138
vn 0.9928 0.0000 -0.1196
vn -0.5410 0.0000 0.8410
vn -0.0261 0.0000 0.9997
vn 0.4942 0.0000 0.8694
vn 0.0000 1.0000 0.0000
usemtl BackMat.001
s off
f 256/1/1 250/2/1 253/3/1
f 243/4/1 233/5/1 242/6/1
f 236/7/1 242/6/1 233/5/1
f 229/8/1 228/9/1 208/10/1
f 239/11/1 243/4/1 245/12/1
f 224/13/1 235/14/1 222/15/1
f 229/8/1 239/11/1 231/16/1
f 242/6/1 236/7/1 247/17/1
f 232/18/1 233/5/1 210/19/1
f 245/12/1 246/20/1 249/21/1
f 220/22/1 221/23/1 219/24/1
f 231/16/1 241/25/1 237/26/1
f 193/27/1 191/28/1 192/29/1
f 216/30/1 222/15/1 235/14/1
f 208/10/1 228/9/1 220/22/1
f 187/31/1 191/28/1 186/32/1
f 205/33/1 207/34/1 201/35/1
f 246/20/1 245/12/1 243/4/1
f 200/36/1 206/37/1 204/38/1
f 207/34/1 210/19/1 233/5/1
f 200/36/1 204/38/1 198/39/1
f 227/40/1 223/41/1 221/23/1
f 232/18/1 216/30/1 235/14/1
f 233/5/1 239/11/1 229/8/1
f 186/32/1 191/28/1 189/42/1
f 196/43/1 193/27/1 192/29/1
f 195/44/1 206/37/1 200/36/1
f 233/5/1 243/4/1 239/11/1
f 255/45/1 250/2/1 256/1/1
f 196/43/1 195/44/1 193/27/1
f 186/32/1 189/42/1 184/46/1
f 212/47/1 215/48/1 216/30/1
f 249/21/1 250/2/1 255/45/1
f 190/49/1 187/31/1 188/50/1
f 196/43/1 206/37/1 195/44/1
f 201/35/1 233/5/1 196/43/1
f 207/34/1 233/5/1 201/35/1
f 220/22/1 227/40/1 221/23/1
f 196/43/1 233/5/1 229/8/1
f 223/41/1 227/40/1 225/51/1
f 231/16/1 239/11/1 241/25/1
f 205/33/1 201/35/1 202/52/1
f 219/24/1 221/23/1 217/53/1
f 215/48/1 222/15/1 216/30/1
f 191/28/1 187/31/1 190/49/1
f 192/29/1 191/28/1 190/49/1
f 229/8/2 208/10/2 206/37/2
f 213/54/1 215/48/1 212/47/1
f 227/40/1 220/22/1 228/9/1
f 246/20/1 250/2/1 249/21/1
f 216/30/1 232/18/1 210/19/1
f 249/21/1 255/45/1 251/55/1
f 196/43/1 229/8/1 206/37/1
f 112/56/3 48/57/3 103/58/3 185/59/3
f 48/57/4 49/60/4 104/61/4 103/58/4
f 49/60/5 50/62/5 105/63/5 104/61/5
f 46/64/6 47/65/6 102/66/6 101/67/6
f 50/62/7 51/68/7 106/69/7 105/63/7
f 45/70/8 46/64/8 101/67/8 100/71/8
f 51/68/9 52/72/9 107/73/9 106/69/9
f 121/74/10 45/70/10 100/71/10 194/75/10
f 43/76/11 44/77/11 99/78/11 98/79/11
f 52/72/12 124/80/12 197/81/12 107/73/12
f 126/82/13 42/83/13 97/84/13 199/85/13
f 42/83/14 43/76/14 98/79/14 97/84/14
f 54/86/15 130/87/15 203/88/15 109/89/15
f 53/90/16 54/86/16 109/89/16 108/91/16
f 40/92/17 41/93/17 96/94/17 95/95/17
f 55/96/18 1/97/18 56/98/18 110/99/18
f 39/100/19 40/92/19 95/95/19 94/101/19
f 1/97/20 2/102/20 57/103/20 56/98/20
f 136/104/21 39/100/21 94/101/21 209/105/21
f 2/102/22 138/106/22 211/107/22 57/103/22
f 5/108/23 141/109/23 214/110/23 60/111/23
f 6/112/24 7/113/24 62/114/24 61/115/24
f 4/116/25 5/108/25 60/111/25 59/117/25
f 145/118/26 36/119/26 91/120/26 218/121/26
f 36/119/27 37/122/27 92/123/27 91/120/27
f 34/124/28 35/125/28 90/126/28 89/127/28
f 3/128/29 4/116/29 59/117/29 58/129/29
f 37/122/30 38/130/30 93/131/30 92/123/30
f 7/113/31 8/132/31 63/133/31 62/114/31
f 33/134/32 34/124/32 89/127/32 88/135/32
f 8/132/33 9/136/33 64/137/33 63/133/33
f 153/138/34 33/134/34 88/135/34 226/139/34
f 31/140/35 32/141/35 87/142/35 86/143/35
f 30/144/36 31/140/36 86/143/36 85/145/36
f 157/146/37 30/144/37 85/145/37 230/147/37
f 28/148/38 29/149/38 84/150/38 83/151/38
f 11/152/39 161/153/39 234/154/39 66/155/39
f 10/156/40 11/152/40 66/155/40 65/157/40
f 9/136/41 10/156/41 65/157/41 64/137/41
f 12/158/42 13/159/42 68/160/42 67/161/42
f 165/162/43 28/148/43 83/151/43 238/163/43
f 167/164/44 26/165/44 81/166/44 240/167/44
f 15/168/45 171/169/45 244/170/45 70/171/45
f 24/172/46 25/173/46 80/174/46 79/175/46
f 16/176/47 17/177/47 72/178/47 71/179/47
f 175/180/48 15/168/48 70/171/48 248/181/48
f 13/159/49 14/182/49 69/183/49 68/160/49
f 26/165/50 27/184/50 82/185/50 81/166/50
f 23/186/51 24/172/51 79/175/51 78/187/51
f 17/177/52 18/188/52 73/189/52 72/178/52
f 179/190/53 23/186/53 78/187/53 252/191/53
f 18/188/54 181/192/54 254/193/54 73/189/54
f 21/194/55 22/195/55 77/196/55 76/197/55
f 20/198/56 21/194/56 76/197/56 75/199/56
f 19/200/57 20/198/57 75/199/57 74/201/57
usemtl FrontMat.001
f 183/202/58 180/203/58 177/204/58
f 170/205/58 169/206/58 160/207/58
f 163/208/58 160/207/58 169/206/58
f 156/209/58 135/210/58 155/211/58
f 166/212/58 172/213/58 170/205/58
f 151/214/58 149/215/58 162/216/58
f 156/209/58 158/217/58 166/212/58
f 169/206/58 174/218/58 163/208/58
f 159/219/58 137/220/58 160/207/58
f 172/213/58 176/221/58 173/222/58
f 147/223/58 146/224/58 148/225/58
f 158/217/58 164/226/58 168/227/58
f 120/228/58 119/229/58 118/230/58
f 143/231/58 162/216/58 149/215/58
f 135/210/58 147/223/58 155/211/58
f 114/232/58 113/233/58 118/230/58
f 132/234/58 128/235/58 134/236/58
f 173/222/58 170/205/58 172/213/58
f 127/237/58 131/238/58 133/239/58
f 134/236/58 160/207/58 137/220/58
f 127/237/58 125/240/58 131/238/58
f 154/241/58 148/225/58 150/242/58
f 159/219/58 162/216/58 143/231/58
f 160/207/58 156/209/58 166/212/58
f 113/233/58 116/243/58 118/230/58
f 123/244/58 119/229/58 120/228/58
f 122/245/58 127/237/58 133/239/58
f 160/207/58 166/212/58 170/205/58
f 182/246/58 183/202/58 177/204/58
f 123/244/58 120/228/58 122/245/58
f 113/233/58 111/247/58 116/243/58
f 139/248/58 143/231/58 142/249/58
f 176/221/58 182/246/58 177/204/58
f 117/250/58 115/251/58 114/232/58
f 123/244/58 122/245/58 133/239/58
f 128/235/58 123/244/58 160/207/58
f 134/236/58 128/235/58 160/207/58
f 147/223/58 148/225/58 154/241/58
f 123/244/58 156/209/58 160/207/58
f 150/242/58 152/252/58 154/241/58
f 158/217/58 168/227/58 166/212/58
f 132/234/58 129/253/58 128/235/58
f 146/224/58 144/254/58 148/225/58
f 142/249/58 143/231/58 149/215/58
f 118/230/58 117/250/58 114/232/58
f 119/229/58 117/250/58 118/230/58
f 156/209/58 133/239/58 135/210/58
f 140/255/58 139/248/58 142/249/58
f 154/241/58 155/211/58 147/223/58
f 173/222/58 176/221/58 177/204/58
f 143/231/58 137/220/58 159/219/58
f 176/221/58 178/256/58 182/246/58
f 123/244/58 133/239/58 156/209/58
