# Blender v2.83.1 OBJ File: 'jigsaw-80x45-3-step2.blend'
# www.blender.org
mtllib piece.2925.mtl
o path5850
v -0.427986 0.037500 0.279018
v -0.411705 0.037500 0.146202
v -0.429211 0.037500 0.059166
v -0.495304 0.037500 0.053883
v -0.586536 0.037500 0.086655
v -0.669903 0.037500 0.093868
v -0.717552 0.037500 0.032101
v -0.722164 0.037500 -0.061256
v -0.681564 0.037500 -0.128609
v -0.599869 0.037500 -0.131470
v -0.506336 0.037500 -0.107796
v -0.436527 0.037500 -0.114658
v -0.415977 0.037500 -0.191559
v -0.430183 0.037500 -0.307690
v -0.476063 0.037500 -0.500965
v -0.273865 0.037500 -0.534283
v -0.153244 0.037500 -0.541229
v -0.075340 0.037500 -0.516483
v -0.072887 0.037500 -0.447742
v -0.103737 0.037500 -0.357944
v -0.107002 0.037500 -0.278839
v -0.042030 0.037500 -0.236629
v 0.050930 0.037500 -0.235382
v 0.111401 0.037500 -0.273632
v 0.100117 0.037500 -0.345535
v 0.062679 0.037500 -0.427868
v 0.065903 0.037500 -0.493038
v 0.155674 0.037500 -0.520912
v 0.294090 0.037500 -0.521141
v 0.525848 0.037500 -0.500965
v 0.555096 0.037500 -0.293514
v 0.560371 0.037500 -0.170746
v 0.536259 0.037500 -0.093689
v 0.471878 0.037500 -0.096344
v 0.390121 0.037500 -0.133675
v 0.322308 0.037500 -0.140865
v 0.293381 0.037500 -0.074532
v 0.302708 0.037500 0.022949
v 0.343266 0.037500 0.087761
v 0.405884 0.037500 0.078098
v 0.472717 0.037500 0.040161
v 0.523762 0.037500 0.042160
v 0.544655 0.037500 0.131104
v 0.525848 0.037500 0.500732
v 0.294731 0.037500 0.531887
v 0.156792 0.037500 0.536552
v 0.067551 0.037500 0.508102
v 0.064690 0.037500 0.434593
v 0.101570 0.037500 0.342358
v 0.110466 0.037500 0.267315
v 0.045444 0.037500 0.238037
v -0.052242 0.037500 0.253712
v -0.119560 0.037500 0.306194
v -0.114536 0.037500 0.384441
v -0.079475 0.037500 0.465885
v -0.077751 0.037500 0.525078
v -0.153446 0.037500 0.544052
v -0.273483 0.037500 0.534763
v -0.476063 0.037500 0.500732
v -0.427986 -0.037498 0.279018
v -0.411705 -0.037500 0.146202
v -0.429211 -0.037500 0.059166
v -0.495304 -0.037498 0.053883
v -0.586536 -0.037498 0.086655
v -0.669903 -0.037500 0.093868
v -0.717552 -0.037500 0.032101
v -0.722164 -0.037500 -0.061256
v -0.681564 -0.037500 -0.128609
v -0.599869 -0.037498 -0.131470
v -0.506336 -0.037500 -0.107796
v -0.436527 -0.037500 -0.114658
v -0.415977 -0.037498 -0.191559
v -0.430183 -0.037500 -0.307690
v -0.476063 -0.037500 -0.500965
v -0.273865 -0.037500 -0.534283
v -0.153244 -0.037500 -0.541229
v -0.075340 -0.037500 -0.516483
v -0.072887 -0.037498 -0.447742
v -0.103737 -0.037500 -0.357944
v -0.107002 -0.037500 -0.278839
v -0.042030 -0.037500 -0.236629
v 0.050930 -0.037500 -0.235382
v 0.111401 -0.037500 -0.273632
v 0.100117 -0.037500 -0.345535
v 0.062679 -0.037500 -0.427868
v 0.065903 -0.037498 -0.493038
v 0.155674 -0.037500 -0.520912
v 0.294090 -0.037500 -0.521141
v 0.525848 -0.037498 -0.500965
v 0.555096 -0.037500 -0.293514
v 0.560371 -0.037500 -0.170746
v 0.536259 -0.037498 -0.093689
v 0.471878 -0.037500 -0.096344
v 0.390121 -0.037500 -0.133675
v 0.322308 -0.037500 -0.140865
v 0.293381 -0.037500 -0.074532
v 0.302708 -0.037500 0.022949
v 0.343266 -0.037500 0.087761
v 0.405884 -0.037500 0.078098
v 0.472717 -0.037500 0.040161
v 0.523762 -0.037500 0.042160
v 0.544655 -0.037500 0.131104
v 0.525848 -0.037500 0.500732
v 0.294731 -0.037500 0.531887
v 0.156792 -0.037500 0.536552
v 0.067551 -0.037500 0.508102
v 0.064690 -0.037500 0.434593
v 0.101570 -0.037500 0.342358
v 0.110466 -0.037500 0.267315
v 0.045444 -0.037498 0.238037
v -0.052242 -0.037500 0.253712
v -0.119560 -0.037500 0.306194
v -0.114536 -0.037498 0.384441
v -0.079475 -0.037500 0.465885
v -0.077751 -0.037500 0.525078
v -0.153446 -0.037500 0.544052
v -0.273483 -0.037500 0.534763
v -0.476063 -0.037500 0.500732
v -0.273865 0.037500 -0.534283
v -0.153244 0.037500 -0.541229
v -0.075340 0.037500 -0.516483
v -0.075340 0.037500 -0.516483
v 0.155674 0.037500 -0.520912
v 0.294090 0.037500 -0.521141
v 0.065903 0.037500 -0.493038
v 0.065903 0.037500 -0.493038
v -0.476063 0.037500 -0.500965
v -0.476063 0.037500 -0.500965
v -0.072887 0.037500 -0.447742
v 0.525848 0.037500 -0.500965
v 0.525848 0.037500 -0.500965
v 0.062679 0.037500 -0.427868
v -0.103737 0.037500 -0.357944
v 0.100117 0.037500 -0.345535
v -0.430183 0.037500 -0.307690
v 0.555096 0.037500 -0.293514
v -0.107002 0.037500 -0.278839
v 0.111401 0.037500 -0.273632
v 0.111401 0.037500 -0.273632
v -0.415977 0.037500 -0.191559
v 0.560371 0.037500 -0.170746
v -0.042030 0.037500 -0.236629
v 0.050930 0.037500 -0.235382
v -0.436527 0.037500 -0.114658
v -0.436527 0.037500 -0.114658
v 0.390121 0.037500 -0.133675
v 0.322308 0.037500 -0.140865
v 0.322308 0.037500 -0.140865
v 0.536259 0.037500 -0.093689
v 0.536259 0.037500 -0.093689
v 0.293381 0.037500 -0.074532
v 0.471878 0.037500 -0.096344
v -0.681564 0.037500 -0.128609
v -0.599869 0.037500 -0.131470
v -0.506336 0.037500 -0.107796
v -0.722164 0.037500 -0.061256
v 0.302708 0.037500 0.022949
v -0.717552 0.037500 0.032101
v 0.343266 0.037500 0.087761
v 0.343266 0.037500 0.087761
v -0.669903 0.037500 0.093868
v 0.405884 0.037500 0.078098
v 0.472717 0.037500 0.040161
v 0.523762 0.037500 0.042160
v 0.523762 0.037500 0.042160
v 0.544655 0.037500 0.131104
v -0.586536 0.037500 0.086655
v -0.495304 0.037500 0.053883
v -0.429211 0.037500 0.059166
v -0.429211 0.037500 0.059166
v -0.411705 0.037500 0.146202
v -0.427986 0.037500 0.279018
v 0.045444 0.037500 0.238037
v -0.052242 0.037500 0.253712
v 0.110466 0.037500 0.267315
v 0.110466 0.037500 0.267315
v -0.119560 0.037500 0.306194
v 0.101570 0.037500 0.342358
v -0.114536 0.037500 0.384441
v 0.064690 0.037500 0.434593
v -0.079475 0.037500 0.465885
v 0.067551 0.037500 0.508102
v 0.067551 0.037500 0.508102
v -0.077751 0.037500 0.525078
v -0.077751 0.037500 0.525078
v 0.525848 0.037500 0.500732
v 0.525848 0.037500 0.500732
v -0.476063 0.037500 0.500732
v -0.476063 0.037500 0.500732
v 0.156792 0.037500 0.536552
v 0.294731 0.037500 0.531887
v -0.273483 0.037500 0.534763
v -0.153446 0.037500 0.544052
v -0.273865 -0.037500 -0.534283
v -0.153244 -0.037500 -0.541229
v -0.075340 -0.037500 -0.516483
v -0.075340 -0.037500 -0.516483
v 0.155674 -0.037500 -0.520912
v 0.294090 -0.037500 -0.521141
v 0.065903 -0.037498 -0.493038
v 0.065903 -0.037498 -0.493038
v -0.476063 -0.037500 -0.500965
v -0.476063 -0.037500 -0.500965
v -0.072887 -0.037498 -0.447742
v 0.525848 -0.037498 -0.500965
v 0.525848 -0.037498 -0.500965
v 0.062679 -0.037500 -0.427868
v -0.103737 -0.037500 -0.357944
v 0.100117 -0.037500 -0.345535
v -0.430183 -0.037500 -0.307690
v 0.555096 -0.037500 -0.293514
v -0.107002 -0.037500 -0.278839
v 0.111401 -0.037500 -0.273632
v 0.111401 -0.037500 -0.273632
v -0.415977 -0.037498 -0.191559
v 0.560371 -0.037500 -0.170746
v -0.042030 -0.037500 -0.236629
v 0.050930 -0.037500 -0.235382
v -0.436527 -0.037500 -0.114658
v -0.436527 -0.037500 -0.114658
v 0.390121 -0.037500 -0.133675
v 0.322308 -0.037500 -0.140865
v 0.322308 -0.037500 -0.140865
v 0.536259 -0.037498 -0.093689
v 0.536259 -0.037498 -0.093689
v 0.293381 -0.037500 -0.074532
v 0.471878 -0.037500 -0.096344
v -0.681564 -0.037500 -0.128609
v -0.599869 -0.037498 -0.131470
v -0.506336 -0.037500 -0.107796
v -0.722164 -0.037500 -0.061256
v 0.302708 -0.037500 0.022949
v -0.717552 -0.037500 0.032101
v 0.343266 -0.037500 0.087761
v 0.343266 -0.037500 0.087761
v -0.669903 -0.037500 0.093868
v 0.405884 -0.037500 0.078098
v 0.472717 -0.037500 0.040161
v 0.523762 -0.037500 0.042160
v 0.523762 -0.037500 0.042160
v 0.544655 -0.037500 0.131104
v -0.586536 -0.037498 0.086655
v -0.495304 -0.037498 0.053883
v -0.429211 -0.037500 0.059166
v -0.429211 -0.037500 0.059166
v -0.411705 -0.037500 0.146202
v -0.427986 -0.037498 0.279018
v 0.045444 -0.037498 0.238037
v -0.052242 -0.037500 0.253712
v 0.110466 -0.037500 0.267315
v 0.110466 -0.037500 0.267315
v -0.119560 -0.037500 0.306194
v 0.101570 -0.037500 0.342358
v -0.114536 -0.037498 0.384441
v 0.064690 -0.037500 0.434593
v -0.079475 -0.037500 0.465885
v 0.067551 -0.037500 0.508102
v 0.067551 -0.037500 0.508102
v -0.077751 -0.037500 0.525078
v -0.077751 -0.037500 0.525078
v 0.525848 -0.037500 0.500732
v 0.525848 -0.037500 0.500732
v -0.476063 -0.037500 0.500732
v -0.476063 -0.037500 0.500732
v 0.156792 -0.037500 0.536552
v 0.294731 -0.037500 0.531887
v -0.273483 -0.037500 0.534763
v -0.153446 -0.037500 0.544052
vt 0.500000 0.500000
vt 0.500000 0.500000
vt 0.500000 0.500000
vt 0.500000 0.500000
vt 0.500000 0.500000
vt 0.500000 0.500000
vt 0.500000 0.500000
vt 0.500000 0.500000
vt 0.500000 0.500000
vt 0.500000 0.500000
vt 0.500000 0.500000
vt 0.500000 0.500000
vt 0.500000 0.500000
vt 0.500000 0.500000
vt 0.500000 0.500000
vt 0.500000 0.500000
vt 0.500000 0.500000
vt 0.500000 0.500000
vt 0.500000 0.500000
vt 0.500000 0.500000
vt 0.500000 0.500000
vt 0.500000 0.500000
vt 0.500000 0.500000
vt 0.500000 0.500000
vt 0.500000 0.500000
vt 0.500000 0.500000
vt 0.500000 0.500000
vt 0.500000 0.500000
vt 0.500000 0.500000
vt 0.500000 0.500000
vt 0.500000 0.500000
vt 0.500000 0.500000
vt 0.500000 0.500000
vt 0.500000 0.500000
vt 0.500000 0.500000
vt 0.500000 0.500000
vt 0.500000 0.500000
vt 0.500000 0.500000
vt 0.500000 0.500000
vt 0.500000 0.500000
vt 0.500000 0.500000
vt 0.500000 0.500000
vt 0.500000 0.500000
vt 0.500000 0.500000
vt 0.500000 0.500000
vt 0.500000 0.500000
vt 0.500000 0.500000
vt 0.500000 0.500000
vt 0.500000 0.500000
vt 0.500000 0.500000
vt 0.500000 0.500000
vt 0.500000 0.500000
vt 0.500000 0.500000
vt 0.500000 0.500000
vt 0.500000 0.500000
vt 0.500000 0.500000
vt 0.500000 0.500000
vt 0.500000 0.500000
vt 0.500000 0.500000
vt 0.500000 0.500000
vt 0.500000 0.500000
vt 0.500000 0.500000
vt 0.500000 0.500000
vt 0.500000 0.500000
vt 0.500000 0.500000
vt 0.500000 0.500000
vt 0.500000 0.500000
vt 0.500000 0.500000
vt 0.500000 0.500000
vt 0.500000 0.500000
vt 0.500000 0.500000
vt 0.500000 0.500000
vt 0.500000 0.500000
vt 0.500000 0.500000
vt 0.500000 0.500000
vt 0.500000 0.500000
vt 0.500000 0.500000
vt 0.500000 0.500000
vt 0.500000 0.500000
vt 0.500000 0.500000
vt 0.500000 0.500000
vt 0.500000 0.500000
vt 0.500000 0.500000
vt 0.500000 0.500000
vt 0.500000 0.500000
vt 0.500000 0.500000
vt 0.500000 0.500000
vt 0.500000 0.500000
vt 0.500000 0.500000
vt 0.500000 0.500000
vt 0.500000 0.500000
vt 0.500000 0.500000
vt 0.500000 0.500000
vt 0.500000 0.500000
vt 0.500000 0.500000
vt 0.500000 0.500000
vt 0.500000 0.500000
vt 0.500000 0.500000
vt 0.500000 0.500000
vt 0.500000 0.500000
vt 0.500000 0.500000
vt 0.500000 0.500000
vt 0.500000 0.500000
vt 0.500000 0.500000
vt 0.500000 0.500000
vt 0.500000 0.500000
vt 0.500000 0.500000
vt 0.500000 0.500000
vt 0.500000 0.500000
vt 0.500000 0.500000
vt 0.500000 0.500000
vt 0.500000 0.500000
vt 0.500000 0.500000
vt 0.500000 0.500000
vt 0.500000 0.500000
vt 0.500000 0.500000
vt 0.500000 0.500000
vt 0.500000 0.500000
vt 0.500000 0.500000
vt 0.500000 0.500000
vt 0.500000 0.500000
vt 0.500000 0.500000
vt 0.500000 0.500000
vt 0.500000 0.500000
vt 0.500000 0.500000
vt 0.500000 0.500000
vt 0.500000 0.500000
vt 0.500000 0.500000
vt 0.500000 0.500000
vt 0.500000 0.500000
vt 0.500000 0.500000
vt 0.500000 0.500000
vt 0.500000 0.500000
vt 0.500000 0.500000
vt 0.500000 0.500000
vt 0.500000 0.500000
vt 0.500000 0.500000
vt 0.500000 0.500000
vt 0.500000 0.500000
vt 0.500000 0.500000
vt 0.500000 0.500000
vt 0.500000 0.500000
vt 0.500000 0.500000
vt 0.500000 0.500000
vt 0.500000 0.500000
vt 0.500000 0.500000
vt 0.500000 0.500000
vt 0.500000 0.500000
vt 0.500000 0.500000
vt 0.500000 0.500000
vt 0.500000 0.500000
vt 0.500000 0.500000
vt 0.500000 0.500000
vt 0.500000 0.500000
vt 0.500000 0.500000
vt 0.500000 0.500000
vt 0.500000 0.500000
vt 0.500000 0.500000
vt 0.500000 0.500000
vt 0.500000 0.500000
vt 0.500000 0.500000
vt 0.500000 0.500000
vt 0.500000 0.500000
vt 0.500000 0.500000
vt 0.500000 0.500000
vt 0.500000 0.500000
vt 0.500000 0.500000
vt 0.500000 0.500000
vt 0.500000 0.500000
vt 0.500000 0.500000
vt 0.500000 0.500000
vt 0.500000 0.500000
vt 0.500000 0.500000
vt 0.500000 0.500000
vt 0.500000 0.500000
vt 0.500000 0.500000
vt 0.500000 0.500000
vt 0.500000 0.500000
vt 0.500000 0.500000
vt 0.500000 0.500000
vt 0.500000 0.500000
vt 0.500000 0.500000
vt 0.500000 0.500000
vt 0.500000 0.500000
vt 0.500000 0.500000
vt 0.500000 0.500000
vt 0.500000 0.500000
vt 0.500000 0.500000
vt 0.500000 0.500000
vt 0.500000 0.500000
vt 0.500000 0.500000
vt 0.500000 0.500000
vt 0.500000 0.500000
vt 0.500000 0.500000
vt 0.500000 0.500000
vt 0.500000 0.500000
vt 0.500000 0.500000
vt 0.500000 0.500000
vt 0.500000 0.500000
vt 0.500000 0.500000
vt 0.500000 0.500000
vt 0.500000 0.500000
vt 0.500000 0.500000
vt 0.500000 0.500000
vt 0.500000 0.500000
vt 0.500000 0.500000
vt 0.500000 0.500000
vt 0.500000 0.500000
vt 0.500000 0.500000
vt 0.548622 0.186964
vt 0.549760 0.187691
vt 0.549622 0.191278
vt 0.562500 0.177778
vt 0.562735 0.185978
vt 0.560222 0.186939
vt 0.550493 0.191430
vt 0.559617 0.177087
vt 0.557318 0.182956
vt 0.559716 0.188377
vt 0.556506 0.183606
vt 0.556575 0.194108
vt 0.550584 0.187574
vt 0.554645 0.196827
vt 0.554027 0.200893
vt 0.552523 0.200739
vt 0.547436 0.191740
vt 0.546930 0.190245
vt 0.548455 0.191803
vt 0.554025 0.176817
vt 0.554510 0.180358
vt 0.552527 0.177023
vt 0.550000 0.200000
vt 0.550572 0.195712
vt 0.550750 0.193136
vt 0.554604 0.195072
vt 0.555030 0.198819
vt 0.562865 0.195398
vt 0.562500 0.200000
vt 0.559609 0.200448
vt 0.560807 0.191852
vt 0.561827 0.191024
vt 0.562931 0.192674
vt 0.559961 0.192011
vt 0.557329 0.194957
vt 0.554969 0.177238
vt 0.554948 0.178551
vt 0.559600 0.190540
vt 0.557207 0.181291
vt 0.556746 0.179245
vt 0.557896 0.176983
vt 0.561003 0.187154
vt 0.555415 0.194136
vt 0.546987 0.188174
vt 0.557882 0.200443
vt 0.556762 0.199824
vt 0.556721 0.198378
vt 0.550000 0.177778
vt 0.550600 0.182696
vt 0.555288 0.183258
vt 0.550803 0.185643
vt 0.554448 0.182094
vt 0.547582 0.186804
vt 0.557189 0.196552
vt 0.554999 0.200344
vt 0.562630 0.190965
vt 0.561837 0.187995
vt 0.562474 0.187951
vt 0.556782 0.177614
vn 0.0000 -1.0000 0.0000
vn -0.0575 0.0000 -0.9983
vn 0.3027 0.0000 -0.9531
vn -0.0017 0.0000 -1.0000
vn -0.2965 0.0000 -0.9550
vn -0.1626 0.0000 -0.9867
vn 0.9994 0.0000 -0.0357
vn 0.0867 0.0000 -0.9962
vn -0.9988 0.0000 -0.0494
vn 0.9457 0.0000 0.3249
vn -0.9103 0.0000 0.4139
vn -0.9730 0.0000 0.2310
vn 0.9902 0.0000 -0.1396
vn 0.9991 0.0000 0.0412
vn -0.9879 0.0000 0.1550
vn -0.9926 0.0000 0.1214
vn 0.9991 0.0000 -0.0429
vn 0.5448 0.0000 -0.8386
vn -0.5346 0.0000 -0.8451
vn 0.0134 0.0000 -0.9999
vn -0.9661 0.0000 -0.2582
vn -0.1054 0.0000 0.9944
vn 0.9544 0.0000 0.2986
vn 0.9166 0.0000 0.3997
vn -0.4154 0.0000 0.9097
vn -0.0412 0.0000 0.9992
vn -0.0350 0.0000 -0.9994
vn 0.2454 0.0000 -0.9694
vn -0.8564 0.0000 -0.5163
vn -0.0978 0.0000 -0.9952
vn 0.9955 0.0000 -0.0952
vn -0.9988 0.0000 0.0493
vn 0.8477 0.0000 -0.5305
vn -0.7918 0.0000 0.6108
vn -0.4937 0.0000 -0.8697
vn 0.0391 0.0000 -0.9992
vn 0.9735 0.0000 -0.2287
vn 0.0862 0.0000 0.9963
vn 0.3381 0.0000 0.9411
vn -0.0797 0.0000 0.9968
vn -0.9804 0.0000 0.1972
vn -0.1525 0.0000 -0.9883
vn -0.9926 0.0000 -0.1217
vn 0.1584 0.0000 0.9874
vn -0.4106 0.0000 0.9118
vn 0.6148 0.0000 0.7886
vn -0.9930 0.0000 -0.1177
vn 0.9979 0.0000 -0.0641
vn -0.9285 0.0000 -0.3713
vn 0.9185 0.0000 -0.3954
vn -0.9992 0.0000 0.0389
vn 0.9996 0.0000 -0.0291
vn 0.9987 0.0000 0.0508
vn -0.9773 0.0000 -0.2119
vn -0.3037 0.0000 0.9528
vn 0.0338 0.0000 0.9994
vn 0.1336 0.0000 0.9910
vn -0.1657 0.0000 0.9862
vn -0.0772 0.0000 0.9970
vn 0.2431 0.0000 0.9700
vn 0.0000 1.0000 -0.0000
usemtl BackMat.001
s off
f 242/1/1 230/2/1 243/3/1
f 261/4/1 234/5/1 241/6/1
f 219/7/1 243/3/1 230/2/1
f 266/8/1 234/5/1 261/4/1
f 250/9/1 232/10/1 234/5/1
f 248/11/1 218/12/1 232/10/1
f 243/3/1 219/7/1 244/13/1
f 208/14/1 194/15/1 195/16/1
f 228/17/1 229/18/1 231/19/1
f 268/20/1 267/21/1 254/22/1
f 194/15/1 210/23/1 202/24/1
f 210/23/1 212/25/1 215/26/1
f 208/14/1 195/16/1 204/27/1
f 211/28/1 199/29/1 205/30/1
f 221/31/1 216/32/1 227/33/1
f 222/34/1 213/35/1 199/29/1
f 259/36/1 268/20/1 256/37/1
f 218/12/1 213/35/1 226/38/1
f 253/39/1 265/40/1 255/41/1
f 234/5/1 237/42/1 241/6/1
f 244/13/1 219/7/1 217/43/1
f 233/44/1 231/19/1 242/1/1
f 198/45/1 207/46/1 200/47/1
f 263/48/1 247/49/1 267/21/1
f 249/50/1 244/13/1 217/43/1
f 246/51/1 252/52/1 247/49/1
f 219/7/1 215/26/1 212/25/1
f 236/53/1 233/44/1 242/1/1
f 216/32/1 221/31/1 211/28/1
f 249/50/1 246/51/1 244/13/1
f 194/15/1 208/14/1 210/23/1
f 211/28/1 221/31/1 222/34/1
f 230/2/1 242/1/1 229/18/1
f 199/29/1 209/54/1 198/45/1
f 229/18/1 242/1/1 231/19/1
f 198/45/1 209/54/1 207/46/1
f 232/10/1 218/12/1 226/38/1
f 250/9/1 266/8/1 253/39/1
f 266/8/1 250/9/1 234/5/1
f 248/11/1 217/43/1 218/12/1
f 248/11/1 232/10/1 250/9/1
f 265/40/1 253/39/1 266/8/1
f 217/43/1 219/7/1 212/25/1
f 267/21/1 247/49/1 254/22/1
f 204/27/1 195/16/1 196/55/1
f 254/22/1 247/49/1 252/52/1
f 227/33/1 216/32/1 224/56/1
f 241/6/1 237/42/1 238/57/1
f 249/50/1 217/43/1 248/11/1
f 212/25/1 210/23/1 208/14/1
f 241/6/1 238/57/1 239/58/1
f 256/37/1 268/20/1 254/22/1
f 213/35/1 209/54/1 199/29/1
f 252/52/1 246/51/1 249/50/1
f 211/28/1 222/34/1 199/29/1
f 255/41/1 265/40/1 257/59/1
f 226/38/1 213/35/1 222/34/1
f 16/60/2 17/61/2 76/62/2 75/63/2
f 17/61/3 122/64/3 197/65/3 76/62/3
f 28/66/4 29/67/4 88/68/4 87/69/4
f 126/70/5 28/66/5 87/69/5 201/71/5
f 128/72/6 16/60/6 75/63/6 203/73/6
f 18/74/7 19/75/7 78/76/7 77/77/7
f 29/67/8 131/78/8 206/79/8 88/68/8
f 26/80/9 27/81/9 86/82/9 85/83/9
f 19/75/10 20/84/10 79/85/10 78/76/10
f 25/86/11 26/80/11 85/83/11 84/87/11
f 14/88/12 15/89/12 74/90/12 73/91/12
f 30/92/13 31/93/13 90/94/13 89/95/13
f 20/84/14 21/96/14 80/97/14 79/85/14
f 139/98/15 25/86/15 84/87/15 214/99/15
f 13/100/16 14/88/16 73/91/16 72/101/16
f 31/93/17 32/102/17 91/103/17 90/94/17
f 21/96/18 22/104/18 81/105/18 80/97/18
f 23/106/19 24/107/19 83/108/19 82/109/19
f 22/104/20 23/106/20 82/109/20 81/105/20
f 145/110/21 13/100/21 72/101/21 220/111/21
f 35/112/22 148/113/22 223/114/22 94/115/22
f 32/102/23 150/116/23 225/117/23 91/103/23
f 36/118/24 37/119/24 96/120/24 95/121/24
f 34/122/25 35/112/25 94/115/25 93/123/25
f 33/124/26 34/122/26 93/123/26 92/125/26
f 9/126/27 10/127/27 69/128/27 68/129/27
f 10/127/28 11/130/28 70/131/28 69/128/28
f 8/132/29 9/126/29 68/129/29 67/133/29
f 11/130/30 12/134/30 71/135/30 70/131/30
f 37/119/31 38/136/31 97/137/31 96/120/31
f 7/138/32 8/132/32 67/133/32 66/139/32
f 38/136/33 160/140/33 235/141/33 97/137/33
f 6/142/34 7/138/34 66/139/34 65/143/34
f 40/144/35 41/145/35 100/146/35 99/147/35
f 41/145/36 165/148/36 240/149/36 100/146/36
f 42/150/37 43/151/37 102/152/37 101/153/37
f 5/154/38 6/142/38 65/143/38 64/155/38
f 4/156/39 5/154/39 64/155/39 63/157/39
f 170/158/40 4/156/40 63/157/40 245/159/40
f 2/160/41 3/161/41 62/162/41 61/163/41
f 39/164/42 40/144/42 99/147/42 98/165/42
f 1/166/43 2/160/43 61/163/43 60/167/43
f 51/168/44 52/169/44 111/170/44 110/171/44
f 176/172/45 51/168/45 110/171/45 251/173/45
f 52/169/46 53/174/46 112/175/46 111/170/46
f 49/176/47 50/177/47 109/178/47 108/179/47
f 53/174/48 54/180/48 113/181/48 112/175/48
f 48/182/49 49/176/49 108/179/49 107/183/49
f 54/180/50 55/184/50 114/185/50 113/181/50
f 183/186/51 48/182/51 107/183/51 258/187/51
f 55/184/52 185/188/52 260/189/52 114/185/52
f 43/151/53 187/190/53 262/191/53 102/152/53
f 189/192/54 1/166/54 60/167/54 264/193/54
f 46/194/55 47/195/55 106/196/55 105/197/55
f 45/198/56 46/194/56 105/197/56 104/199/56
f 44/200/57 45/198/57 104/199/57 103/201/57
f 58/202/58 59/203/58 118/204/58 117/205/58
f 57/206/59 58/202/59 117/205/59 116/207/59
f 56/208/60 57/206/60 116/207/60 115/209/60
usemtl FrontMat.001
f 167/210/61 168/211/61 155/212/61
f 186/213/61 166/214/61 159/215/61
f 144/216/61 155/212/61 168/211/61
f 191/217/61 186/213/61 159/215/61
f 175/218/61 159/215/61 157/219/61
f 173/220/61 157/219/61 143/221/61
f 168/211/61 169/222/61 144/216/61
f 133/223/61 120/224/61 119/225/61
f 153/226/61 156/227/61 154/228/61
f 193/229/61 179/230/61 192/231/61
f 119/225/61 127/232/61 135/233/61
f 135/233/61 140/234/61 137/235/61
f 133/223/61 129/236/61 120/224/61
f 136/237/61 130/238/61 124/239/61
f 146/240/61 152/241/61 141/242/61
f 147/243/61 124/239/61 138/244/61
f 184/245/61 181/246/61 193/229/61
f 143/221/61 151/247/61 138/244/61
f 178/248/61 180/249/61 190/250/61
f 159/215/61 166/214/61 162/251/61
f 169/222/61 142/252/61 144/216/61
f 158/253/61 167/210/61 156/227/61
f 123/254/61 125/255/61 132/256/61
f 188/257/61 192/231/61 172/258/61
f 174/259/61 142/252/61 169/222/61
f 171/260/61 172/258/61 177/261/61
f 144/216/61 137/235/61 140/234/61
f 161/262/61 167/210/61 158/253/61
f 141/242/61 136/237/61 146/240/61
f 174/259/61 169/222/61 171/260/61
f 119/225/61 135/233/61 133/223/61
f 136/237/61 147/243/61 146/240/61
f 155/212/61 154/228/61 167/210/61
f 124/239/61 123/254/61 134/263/61
f 154/228/61 156/227/61 167/210/61
f 123/254/61 132/256/61 134/263/61
f 157/219/61 151/247/61 143/221/61
f 175/218/61 178/248/61 191/217/61
f 191/217/61 159/215/61 175/218/61
f 173/220/61 143/221/61 142/252/61
f 173/220/61 175/218/61 157/219/61
f 190/250/61 191/217/61 178/248/61
f 142/252/61 137/235/61 144/216/61
f 192/231/61 179/230/61 172/258/61
f 129/236/61 121/264/61 120/224/61
f 179/230/61 177/261/61 172/258/61
f 152/241/61 149/265/61 141/242/61
f 166/214/61 163/266/61 162/251/61
f 174/259/61 173/220/61 142/252/61
f 137/235/61 133/223/61 135/233/61
f 166/214/61 164/267/61 163/266/61
f 181/246/61 179/230/61 193/229/61
f 138/244/61 124/239/61 134/263/61
f 177/261/61 174/259/61 171/260/61
f 136/237/61 124/239/61 147/243/61
f 180/249/61 182/268/61 190/250/61
f 151/247/61 147/243/61 138/244/61
