# Blender v2.83.1 OBJ File: 'jigsaw-80x45-3-step2.blend'
# www.blender.org
mtllib piece.308.mtl
o path616
v -0.311462 0.037500 -0.462075
v -0.196693 0.037500 -0.449848
v -0.121338 0.037500 -0.470677
v -0.116051 0.037500 -0.538436
v -0.141403 0.037500 -0.630312
v -0.140404 0.037500 -0.714319
v -0.075012 0.037500 -0.763618
v 0.017090 0.037500 -0.771956
v 0.079308 0.037500 -0.738227
v 0.074821 0.037500 -0.666501
v 0.045929 0.037500 -0.581558
v 0.054718 0.037500 -0.513352
v 0.143715 0.037500 -0.483877
v 0.277222 0.037500 -0.483287
v 0.498978 0.037500 -0.503868
v 0.533203 0.037500 -0.303902
v 0.541740 0.037500 -0.185654
v 0.520409 0.037500 -0.111630
v 0.456924 0.037500 -0.114473
v 0.371445 0.037500 -0.149745
v 0.292191 0.037500 -0.153737
v 0.243759 0.037500 -0.083815
v 0.236397 0.037500 0.018351
v 0.276718 0.037500 0.090019
v 0.363632 0.037500 0.089600
v 0.465149 0.037500 0.060135
v 0.541565 0.037500 0.065820
v 0.564240 0.037500 0.151044
v 0.548889 0.037500 0.280980
v 0.498978 0.037500 0.497830
v 0.158676 0.037500 0.467080
v 0.072174 0.037500 0.488862
v 0.061058 0.037500 0.547561
v 0.084251 0.037500 0.626291
v 0.082001 0.037500 0.701318
v 0.014297 0.037500 0.751489
v -0.079590 0.037500 0.765953
v -0.140625 0.037500 0.736437
v -0.130280 0.037500 0.661904
v -0.092072 0.037500 0.570271
v -0.090034 0.037500 0.496694
v -0.168503 0.037500 0.467011
v -0.292915 0.037500 0.469803
v -0.502930 0.037500 0.497830
v -0.538040 0.037500 0.286000
v -0.545395 0.037500 0.158866
v -0.519432 0.037500 0.075015
v -0.447685 0.037500 0.068286
v -0.356636 0.037500 0.095206
v -0.282501 0.037500 0.092968
v -0.253937 0.037500 0.019779
v -0.269333 0.037500 -0.082131
v -0.319504 0.037500 -0.149521
v -0.392967 0.037500 -0.140760
v -0.468849 0.037500 -0.100650
v -0.523949 0.037500 -0.095600
v -0.541916 0.037500 -0.171856
v -0.502930 0.037500 -0.503868
v -0.311462 -0.037500 -0.462075
v -0.196693 -0.037500 -0.449848
v -0.121338 -0.037500 -0.470677
v -0.116051 -0.037500 -0.538436
v -0.141403 -0.037498 -0.630312
v -0.140404 -0.037500 -0.714319
v -0.075012 -0.037500 -0.763618
v 0.017090 -0.037500 -0.771956
v 0.079308 -0.037500 -0.738227
v 0.074821 -0.037500 -0.666501
v 0.045929 -0.037498 -0.581558
v 0.054718 -0.037500 -0.513352
v 0.143715 -0.037500 -0.483877
v 0.277222 -0.037498 -0.483287
v 0.498978 -0.037500 -0.503868
v 0.533203 -0.037500 -0.303902
v 0.541740 -0.037500 -0.185654
v 0.520409 -0.037498 -0.111630
v 0.456924 -0.037500 -0.114473
v 0.371445 -0.037500 -0.149745
v 0.292191 -0.037500 -0.153737
v 0.243759 -0.037500 -0.083815
v 0.236397 -0.037500 0.018351
v 0.276718 -0.037500 0.090019
v 0.363632 -0.037500 0.089600
v 0.465149 -0.037500 0.060135
v 0.541565 -0.037500 0.065820
v 0.564240 -0.037500 0.151044
v 0.548889 -0.037500 0.280980
v 0.498978 -0.037500 0.497830
v 0.158676 -0.037500 0.467080
v 0.072174 -0.037500 0.488862
v 0.061058 -0.037500 0.547561
v 0.084251 -0.037500 0.626291
v 0.082001 -0.037500 0.701318
v 0.014297 -0.037500 0.751489
v -0.079590 -0.037500 0.765953
v -0.140625 -0.037500 0.736437
v -0.130280 -0.037500 0.661904
v -0.092072 -0.037500 0.570271
v -0.090034 -0.037500 0.496694
v -0.168503 -0.037500 0.467011
v -0.292915 -0.037500 0.469803
v -0.502930 -0.037500 0.497830
v -0.538040 -0.037500 0.286000
v -0.545395 -0.037500 0.158866
v -0.519432 -0.037500 0.075015
v -0.447685 -0.037500 0.068286
v -0.356636 -0.037500 0.095206
v -0.282501 -0.037500 0.092968
v -0.253937 -0.037500 0.019779
v -0.269333 -0.037498 -0.082131
v -0.319504 -0.037500 -0.149521
v -0.392967 -0.037498 -0.140760
v -0.468849 -0.037500 -0.100650
v -0.523949 -0.037500 -0.095600
v -0.541916 -0.037500 -0.171856
v -0.502930 -0.037498 -0.503868
v -0.075012 0.037500 -0.763618
v 0.017090 0.037500 -0.771956
v 0.079308 0.037500 -0.738227
v 0.079308 0.037500 -0.738227
v -0.140404 0.037500 -0.714319
v 0.074821 0.037500 -0.666501
v -0.141403 0.037500 -0.630312
v 0.045929 0.037500 -0.581558
v -0.116051 0.037500 -0.538436
v 0.054718 0.037500 -0.513352
v 0.054718 0.037500 -0.513352
v -0.121338 0.037500 -0.470677
v -0.121338 0.037500 -0.470677
v 0.143715 0.037500 -0.483877
v 0.277222 0.037500 -0.483287
v 0.498978 0.037500 -0.503868
v 0.498978 0.037500 -0.503868
v -0.502930 0.037500 -0.503868
v -0.502930 0.037500 -0.503868
v -0.311462 0.037500 -0.462075
v -0.196693 0.037500 -0.449848
v 0.533203 0.037500 -0.303902
v 0.541740 0.037500 -0.185654
v -0.541916 0.037500 -0.171856
v 0.371445 0.037500 -0.149745
v 0.292191 0.037500 -0.153737
v 0.520409 0.037500 -0.111630
v 0.520409 0.037500 -0.111630
v -0.523949 0.037500 -0.095600
v -0.523949 0.037500 -0.095600
v -0.319504 0.037500 -0.149521
v -0.392967 0.037500 -0.140760
v 0.243759 0.037500 -0.083815
v 0.456924 0.037500 -0.114473
v -0.269333 0.037500 -0.082131
v -0.468849 0.037500 -0.100650
v 0.236397 0.037500 0.018351
v -0.253937 0.037500 0.019779
v 0.276718 0.037500 0.090019
v 0.276718 0.037500 0.090019
v -0.282501 0.037500 0.092968
v -0.282501 0.037500 0.092968
v 0.363632 0.037500 0.089600
v 0.465149 0.037500 0.060135
v 0.541565 0.037500 0.065820
v 0.541565 0.037500 0.065820
v 0.564240 0.037500 0.151044
v -0.519432 0.037500 0.075015
v -0.519432 0.037500 0.075015
v -0.447685 0.037500 0.068286
v -0.356636 0.037500 0.095206
v -0.545395 0.037500 0.158866
v 0.548889 0.037500 0.280980
v -0.538040 0.037500 0.286000
v -0.502930 0.037500 0.497830
v -0.502930 0.037500 0.497830
v -0.168503 0.037500 0.467011
v -0.292915 0.037500 0.469803
v -0.090034 0.037500 0.496694
v -0.090034 0.037500 0.496694
v 0.158676 0.037500 0.467080
v 0.072174 0.037500 0.488862
v 0.072174 0.037500 0.488862
v 0.498978 0.037500 0.497830
v 0.498978 0.037500 0.497830
v 0.061058 0.037500 0.547561
v -0.092072 0.037500 0.570271
v 0.084251 0.037500 0.626291
v -0.130280 0.037500 0.661904
v 0.082001 0.037500 0.701318
v -0.140625 0.037500 0.736437
v -0.140625 0.037500 0.736437
v 0.014297 0.037500 0.751489
v -0.079590 0.037500 0.765953
v -0.075012 -0.037500 -0.763618
v 0.017090 -0.037500 -0.771956
v 0.079308 -0.037500 -0.738227
v 0.079308 -0.037500 -0.738227
v -0.140404 -0.037500 -0.714319
v 0.074821 -0.037500 -0.666501
v -0.141403 -0.037498 -0.630312
v 0.045929 -0.037498 -0.581558
v -0.116051 -0.037500 -0.538436
v 0.054718 -0.037500 -0.513352
v 0.054718 -0.037500 -0.513352
v -0.121338 -0.037500 -0.470677
v -0.121338 -0.037500 -0.470677
v 0.143715 -0.037500 -0.483877
v 0.277222 -0.037498 -0.483287
v 0.498978 -0.037500 -0.503868
v 0.498978 -0.037500 -0.503868
v -0.502930 -0.037498 -0.503868
v -0.502930 -0.037498 -0.503868
v -0.311462 -0.037500 -0.462075
v -0.196693 -0.037500 -0.449848
v 0.533203 -0.037500 -0.303902
v 0.541740 -0.037500 -0.185654
v -0.541916 -0.037500 -0.171856
v 0.371445 -0.037500 -0.149745
v 0.292191 -0.037500 -0.153737
v 0.520409 -0.037498 -0.111630
v 0.520409 -0.037498 -0.111630
v -0.523949 -0.037500 -0.095600
v -0.523949 -0.037500 -0.095600
v -0.319504 -0.037500 -0.149521
v -0.392967 -0.037498 -0.140760
v 0.243759 -0.037500 -0.083815
v 0.456924 -0.037500 -0.114473
v -0.269333 -0.037498 -0.082131
v -0.468849 -0.037500 -0.100650
v 0.236397 -0.037500 0.018351
v -0.253937 -0.037500 0.019779
v 0.276718 -0.037500 0.090019
v 0.276718 -0.037500 0.090019
v -0.282501 -0.037500 0.092968
v -0.282501 -0.037500 0.092968
v 0.363632 -0.037500 0.089600
v 0.465149 -0.037500 0.060135
v 0.541565 -0.037500 0.065820
v 0.541565 -0.037500 0.065820
v 0.564240 -0.037500 0.151044
v -0.519432 -0.037500 0.075015
v -0.519432 -0.037500 0.075015
v -0.447685 -0.037500 0.068286
v -0.356636 -0.037500 0.095206
v -0.545395 -0.037500 0.158866
v 0.548889 -0.037500 0.280980
v -0.538040 -0.037500 0.286000
v -0.502930 -0.037500 0.497830
v -0.502930 -0.037500 0.497830
v -0.168503 -0.037500 0.467011
v -0.292915 -0.037500 0.469803
v -0.090034 -0.037500 0.496694
v -0.090034 -0.037500 0.496694
v 0.158676 -0.037500 0.467080
v 0.072174 -0.037500 0.488862
v 0.072174 -0.037500 0.488862
v 0.498978 -0.037500 0.497830
v 0.498978 -0.037500 0.497830
v 0.061058 -0.037500 0.547561
v -0.092072 -0.037500 0.570271
v 0.084251 -0.037500 0.626291
v -0.130280 -0.037500 0.661904
v 0.082001 -0.037500 0.701318
v -0.140625 -0.037500 0.736437
v -0.140625 -0.037500 0.736437
v 0.014297 -0.037500 0.751489
v -0.079590 -0.037500 0.765953
vt 0.500000 0.500000
vt 0.500000 0.500000
vt 0.500000 0.500000
vt 0.500000 0.500000
vt 0.500000 0.500000
vt 0.500000 0.500000
vt 0.500000 0.500000
vt 0.500000 0.500000
vt 0.500000 0.500000
vt 0.500000 0.500000
vt 0.500000 0.500000
vt 0.500000 0.500000
vt 0.500000 0.500000
vt 0.500000 0.500000
vt 0.500000 0.500000
vt 0.500000 0.500000
vt 0.500000 0.500000
vt 0.500000 0.500000
vt 0.500000 0.500000
vt 0.500000 0.500000
vt 0.500000 0.500000
vt 0.500000 0.500000
vt 0.500000 0.500000
vt 0.500000 0.500000
vt 0.500000 0.500000
vt 0.500000 0.500000
vt 0.500000 0.500000
vt 0.500000 0.500000
vt 0.500000 0.500000
vt 0.500000 0.500000
vt 0.500000 0.500000
vt 0.500000 0.500000
vt 0.500000 0.500000
vt 0.500000 0.500000
vt 0.500000 0.500000
vt 0.500000 0.500000
vt 0.500000 0.500000
vt 0.500000 0.500000
vt 0.500000 0.500000
vt 0.500000 0.500000
vt 0.500000 0.500000
vt 0.500000 0.500000
vt 0.500000 0.500000
vt 0.500000 0.500000
vt 0.500000 0.500000
vt 0.500000 0.500000
vt 0.500000 0.500000
vt 0.500000 0.500000
vt 0.500000 0.500000
vt 0.500000 0.500000
vt 0.500000 0.500000
vt 0.500000 0.500000
vt 0.500000 0.500000
vt 0.500000 0.500000
vt 0.500000 0.500000
vt 0.500000 0.500000
vt 0.500000 0.500000
vt 0.500000 0.500000
vt 0.500000 0.500000
vt 0.500000 0.500000
vt 0.500000 0.500000
vt 0.500000 0.500000
vt 0.500000 0.500000
vt 0.500000 0.500000
vt 0.500000 0.500000
vt 0.500000 0.500000
vt 0.500000 0.500000
vt 0.500000 0.500000
vt 0.500000 0.500000
vt 0.500000 0.500000
vt 0.500000 0.500000
vt 0.500000 0.500000
vt 0.500000 0.500000
vt 0.500000 0.500000
vt 0.500000 0.500000
vt 0.500000 0.500000
vt 0.500000 0.500000
vt 0.500000 0.500000
vt 0.500000 0.500000
vt 0.500000 0.500000
vt 0.500000 0.500000
vt 0.500000 0.500000
vt 0.500000 0.500000
vt 0.500000 0.500000
vt 0.500000 0.500000
vt 0.500000 0.500000
vt 0.500000 0.500000
vt 0.500000 0.500000
vt 0.500000 0.500000
vt 0.500000 0.500000
vt 0.500000 0.500000
vt 0.500000 0.500000
vt 0.500000 0.500000
vt 0.500000 0.500000
vt 0.500000 0.500000
vt 0.500000 0.500000
vt 0.500000 0.500000
vt 0.500000 0.500000
vt 0.500000 0.500000
vt 0.500000 0.500000
vt 0.500000 0.500000
vt 0.500000 0.500000
vt 0.500000 0.500000
vt 0.500000 0.500000
vt 0.500000 0.500000
vt 0.500000 0.500000
vt 0.500000 0.500000
vt 0.500000 0.500000
vt 0.500000 0.500000
vt 0.500000 0.500000
vt 0.500000 0.500000
vt 0.500000 0.500000
vt 0.500000 0.500000
vt 0.500000 0.500000
vt 0.500000 0.500000
vt 0.500000 0.500000
vt 0.500000 0.500000
vt 0.500000 0.500000
vt 0.500000 0.500000
vt 0.500000 0.500000
vt 0.500000 0.500000
vt 0.500000 0.500000
vt 0.500000 0.500000
vt 0.500000 0.500000
vt 0.500000 0.500000
vt 0.500000 0.500000
vt 0.500000 0.500000
vt 0.500000 0.500000
vt 0.500000 0.500000
vt 0.500000 0.500000
vt 0.500000 0.500000
vt 0.500000 0.500000
vt 0.500000 0.500000
vt 0.500000 0.500000
vt 0.500000 0.500000
vt 0.500000 0.500000
vt 0.500000 0.500000
vt 0.500000 0.500000
vt 0.500000 0.500000
vt 0.500000 0.500000
vt 0.500000 0.500000
vt 0.500000 0.500000
vt 0.500000 0.500000
vt 0.500000 0.500000
vt 0.500000 0.500000
vt 0.500000 0.500000
vt 0.500000 0.500000
vt 0.500000 0.500000
vt 0.500000 0.500000
vt 0.500000 0.500000
vt 0.500000 0.500000
vt 0.500000 0.500000
vt 0.500000 0.500000
vt 0.500000 0.500000
vt 0.500000 0.500000
vt 0.500000 0.500000
vt 0.500000 0.500000
vt 0.500000 0.500000
vt 0.500000 0.500000
vt 0.500000 0.500000
vt 0.500000 0.500000
vt 0.500000 0.500000
vt 0.500000 0.500000
vt 0.500000 0.500000
vt 0.500000 0.500000
vt 0.500000 0.500000
vt 0.500000 0.500000
vt 0.500000 0.500000
vt 0.500000 0.500000
vt 0.500000 0.500000
vt 0.500000 0.500000
vt 0.500000 0.500000
vt 0.500000 0.500000
vt 0.500000 0.500000
vt 0.500000 0.500000
vt 0.500000 0.500000
vt 0.500000 0.500000
vt 0.500000 0.500000
vt 0.500000 0.500000
vt 0.500000 0.500000
vt 0.500000 0.500000
vt 0.500000 0.500000
vt 0.500000 0.500000
vt 0.500000 0.500000
vt 0.500000 0.500000
vt 0.500000 0.500000
vt 0.500000 0.500000
vt 0.500000 0.500000
vt 0.500000 0.500000
vt 0.500000 0.500000
vt 0.500000 0.500000
vt 0.500000 0.500000
vt 0.500000 0.500000
vt 0.500000 0.500000
vt 0.500000 0.500000
vt 0.500000 0.500000
vt 0.500000 0.500000
vt 0.500000 0.500000
vt 0.500000 0.500000
vt 0.500000 0.500000
vt 0.500000 0.500000
vt 0.500000 0.500000
vt 0.500000 0.500000
vt 0.500000 0.500000
vt 0.500000 0.500000
vt 0.500000 0.500000
vt 0.842261 0.932597
vt 0.841321 0.932135
vt 0.840414 0.923977
vt 0.839788 0.925472
vt 0.846724 0.921748
vt 0.840250 0.920093
vt 0.844675 0.911310
vt 0.847227 0.920158
vt 0.845754 0.911793
vt 0.848311 0.920168
vt 0.844708 0.936941
vt 0.844764 0.938533
vt 0.843988 0.939281
vt 0.850427 0.928897
vt 0.850000 0.933333
vt 0.847233 0.932877
vt 0.839889 0.932406
vt 0.845568 0.932890
vt 0.844457 0.933544
vt 0.842626 0.909504
vt 0.842149 0.907471
vt 0.843953 0.905484
vt 0.844348 0.935057
vt 0.842327 0.934100
vt 0.846816 0.924015
vt 0.842651 0.911136
vt 0.841672 0.911795
vt 0.839325 0.920043
vt 0.840120 0.911733
vt 0.842010 0.936139
vt 0.849475 0.924695
vt 0.850267 0.924632
vt 0.850533 0.926274
vt 0.844826 0.908261
vt 0.842020 0.905818
vt 0.842782 0.905163
vt 0.837500 0.933333
vt 0.837014 0.925968
vt 0.847420 0.925566
vt 0.848409 0.925477
vt 0.838872 0.925278
vt 0.837925 0.924388
vt 0.840607 0.921716
vt 0.837238 0.924276
vt 0.844798 0.906597
vt 0.837062 0.915811
vt 0.837500 0.911111
vt 0.844536 0.910008
vt 0.838189 0.920640
vt 0.836970 0.918631
vt 0.850000 0.911111
vt 0.850623 0.915922
vt 0.842839 0.939096
vt 0.849578 0.920821
vt 0.850814 0.918804
vt 0.842023 0.938002
vt 0.837294 0.920491
vt 0.850531 0.920695
vn 0.0000 -1.0000 0.0000
vn -0.0902 0.0000 -0.9959
vn 0.4766 0.0000 -0.8791
vn -0.6020 0.0000 -0.7985
vn 0.9980 0.0000 0.0624
vn -0.9999 0.0000 -0.0119
vn 0.9467 0.0000 0.3220
vn -0.9640 0.0000 0.2660
vn 0.9918 0.0000 -0.1278
vn -0.9970 0.0000 -0.0778
vn 0.3144 0.0000 -0.9493
vn -0.0924 0.0000 -0.9957
vn 0.2133 0.0000 -0.9770
vn 0.0044 0.0000 -1.0000
vn -0.2664 0.0000 -0.9639
vn 0.1059 0.0000 -0.9944
vn 0.9857 0.0000 -0.1687
vn 0.9974 0.0000 -0.0720
vn -0.9932 0.0000 -0.1166
vn -0.0503 0.0000 0.9987
vn 0.9609 0.0000 0.2769
vn -0.9733 0.0000 0.2293
vn 0.1184 0.0000 0.9930
vn 0.8221 0.0000 0.5694
vn -0.3814 0.0000 0.9244
vn -0.0447 0.0000 0.9990
vn -0.8021 0.0000 0.5972
vn 0.0913 0.0000 0.9958
vn 0.4673 0.0000 0.8841
vn 0.9974 0.0000 0.0719
vn -0.9888 0.0000 0.1494
vn 0.8715 0.0000 -0.4903
vn -0.9316 0.0000 -0.3636
vn -0.2787 0.0000 -0.9604
vn 0.0742 0.0000 -0.9972
vn 0.9664 0.0000 -0.2571
vn -0.0934 0.0000 -0.9956
vn 0.2835 0.0000 -0.9590
vn -0.9553 0.0000 -0.2958
vn -0.0048 0.0000 -1.0000
vn -0.0302 0.0000 -0.9995
vn 0.9931 0.0000 0.1173
vn -0.9983 0.0000 0.0578
vn -0.9865 0.0000 0.1635
vn 0.0224 0.0000 0.9997
vn -0.3538 0.0000 0.9353
vn 0.2442 0.0000 0.9697
vn -0.0900 0.0000 0.9959
vn 0.9745 0.0000 0.2243
vn 0.1323 0.0000 0.9912
vn 0.9825 0.0000 0.1861
vn -0.9996 0.0000 -0.0277
vn 0.9592 0.0000 -0.2826
vn -0.9230 0.0000 -0.3849
vn 0.9996 0.0000 0.0300
vn -0.9905 0.0000 -0.1375
vn 0.5954 0.0000 0.8034
vn -0.4354 0.0000 0.9003
vn 0.1523 0.0000 0.9883
vn 0.0000 1.0000 0.0000
usemtl BackMat.001
s off
f 202/1/1 225/2/1 211/3/1
f 221/4/1 211/3/1 225/2/1
f 227/5/1 252/6/1 231/7/1
f 229/8/1 252/6/1 227/5/1
f 251/9/1 229/8/1 233/10/1
f 196/11/1 192/12/1 193/13/1
f 212/14/1 205/15/1 206/16/1
f 211/3/1 221/4/1 210/17/1
f 204/18/1 202/1/1 200/19/1
f 257/20/1 263/21/1 259/22/1
f 200/19/1 199/23/1 198/24/1
f 223/25/1 202/1/1 204/18/1
f 249/26/1 247/27/1 231/7/1
f 231/7/1 248/28/1 241/29/1
f 198/24/1 197/30/1 196/11/1
f 199/23/1 197/30/1 198/24/1
f 224/31/1 213/32/1 217/33/1
f 263/21/1 257/20/1 258/34/1
f 261/35/1 259/22/1 264/36/1
f 210/17/1 214/37/1 208/38/1
f 216/39/1 205/15/1 215/40/1
f 205/15/1 216/39/1 204/18/1
f 215/40/1 213/32/1 224/31/1
f 222/41/1 226/42/1 214/37/1
f 212/14/1 215/40/1 205/15/1
f 223/25/1 228/43/1 225/2/1
f 248/28/1 231/7/1 247/27/1
f 216/39/1 223/25/1 204/18/1
f 214/37/1 226/42/1 219/44/1
f 260/45/1 263/21/1 258/34/1
f 244/46/1 248/28/1 245/47/1
f 258/34/1 257/20/1 256/48/1
f 252/6/1 249/26/1 231/7/1
f 241/29/1 242/49/1 240/50/1
f 251/9/1 252/6/1 229/8/1
f 244/46/1 241/29/1 248/28/1
f 264/36/1 259/22/1 263/21/1
f 254/51/1 251/9/1 243/52/1
f 210/17/1 222/41/1 214/37/1
f 196/11/1 191/53/1 192/12/1
f 234/54/1 237/55/1 233/10/1
f 196/11/1 197/30/1 191/53/1
f 256/48/1 249/26/1 252/6/1
f 227/5/1 228/43/1 223/25/1
f 249/26/1 256/48/1 257/20/1
f 191/53/1 197/30/1 195/56/1
f 213/32/1 215/40/1 212/14/1
f 243/52/1 233/10/1 237/55/1
f 223/25/1 225/2/1 202/1/1
f 227/5/1 231/7/1 228/43/1
f 251/9/1 233/10/1 243/52/1
f 240/50/1 242/49/1 238/57/1
f 210/17/1 221/4/1 222/41/1
f 235/58/1 237/55/1 234/54/1
f 242/49/1 241/29/1 244/46/1
f 200/19/1 202/1/1 199/23/1
f 7/59/2 8/60/2 66/61/2 65/62/2
f 8/60/3 120/63/3 194/64/3 66/61/3
f 6/65/4 7/59/4 65/62/4 64/66/4
f 9/67/5 10/68/5 68/69/5 67/70/5
f 5/71/6 6/65/6 64/66/6 63/72/6
f 10/68/7 11/73/7 69/74/7 68/69/7
f 4/75/8 5/71/8 63/72/8 62/76/8
f 11/73/9 127/77/9 201/78/9 69/74/9
f 129/79/10 4/75/10 62/76/10 203/80/10
f 12/81/11 13/82/11 71/83/11 70/84/11
f 14/85/12 133/86/12 207/87/12 72/88/12
f 135/89/13 1/90/13 59/91/13 209/92/13
f 13/82/14 14/85/14 72/88/14 71/83/14
f 2/93/15 3/94/15 61/95/15 60/96/15
f 1/90/16 2/93/16 60/96/16 59/91/16
f 15/97/17 16/98/17 74/99/17 73/100/17
f 16/98/18 17/101/18 75/102/18 74/99/18
f 57/103/19 58/104/19 116/105/19 115/106/19
f 20/107/20 21/108/20 79/109/20 78/110/20
f 17/101/21 144/111/21 218/112/21 75/102/21
f 146/113/22 57/103/22 115/106/22 220/114/22
f 53/115/23 54/116/23 112/117/23 111/118/23
f 21/108/24 22/119/24 80/120/24 79/109/24
f 19/121/25 20/107/25 78/110/25 77/122/25
f 18/123/26 19/121/26 77/122/26 76/124/26
f 52/125/27 53/115/27 111/118/27 110/126/27
f 55/127/28 56/128/28 114/129/28 113/130/28
f 54/116/29 55/127/29 113/130/29 112/117/29
f 22/119/30 23/131/30 81/132/30 80/120/30
f 51/133/31 52/125/31 110/126/31 109/134/31
f 23/131/32 156/135/32 230/136/32 81/132/32
f 158/137/33 51/133/33 109/134/33 232/138/33
f 25/139/34 26/140/34 84/141/34 83/142/34
f 26/140/35 162/143/35 236/144/35 84/141/35
f 27/145/36 28/146/36 86/147/36 85/148/36
f 165/149/37 48/150/37 106/151/37 239/152/37
f 48/150/38 49/153/38 107/154/38 106/151/38
f 46/155/39 47/156/39 105/157/39 104/158/39
f 24/159/40 25/139/40 83/142/40 82/160/40
f 49/153/41 50/161/41 108/162/41 107/154/41
f 28/146/42 29/163/42 87/164/42 86/147/42
f 45/165/43 46/155/43 104/158/43 103/166/43
f 172/167/44 45/165/44 103/166/44 246/168/44
f 42/169/45 43/170/45 101/171/45 100/172/45
f 176/173/46 42/169/46 100/172/46 250/174/46
f 31/175/47 179/176/47 253/177/47 89/178/47
f 181/179/48 31/175/48 89/178/48 255/180/48
f 29/163/49 30/181/49 88/182/49 87/164/49
f 43/170/50 44/183/50 102/184/50 101/171/50
f 32/185/51 33/186/51 91/187/51 90/188/51
f 40/189/52 41/190/52 99/191/52 98/192/52
f 33/186/53 34/193/53 92/194/53 91/187/53
f 39/195/54 40/189/54 98/192/54 97/196/54
f 34/193/55 35/197/55 93/198/55 92/194/55
f 188/199/56 39/195/56 97/196/56 262/200/56
f 35/197/57 36/201/57 94/202/57 93/198/57
f 37/203/58 38/204/58 96/205/58 95/206/58
f 36/201/59 37/203/59 95/206/59 94/202/59
usemtl FrontMat.001
f 128/207/60 137/208/60 151/209/60
f 147/210/60 151/209/60 137/208/60
f 153/211/60 157/212/60 178/213/60
f 155/214/60 153/211/60 178/213/60
f 177/215/60 159/216/60 155/214/60
f 122/217/60 119/218/60 118/219/60
f 138/220/60 132/221/60 131/222/60
f 137/208/60 136/223/60 147/210/60
f 130/224/60 126/225/60 128/207/60
f 183/226/60 185/227/60 189/228/60
f 126/225/60 124/229/60 125/230/60
f 149/231/60 130/224/60 128/207/60
f 175/232/60 157/212/60 173/233/60
f 157/212/60 167/234/60 174/235/60
f 124/229/60 122/217/60 123/236/60
f 125/230/60 124/229/60 123/236/60
f 150/237/60 143/238/60 139/239/60
f 189/228/60 184/240/60 183/226/60
f 187/241/60 190/242/60 185/227/60
f 136/223/60 134/243/60 140/244/60
f 142/245/60 141/246/60 131/222/60
f 131/222/60 130/224/60 142/245/60
f 141/246/60 150/237/60 139/239/60
f 148/247/60 140/244/60 152/248/60
f 138/220/60 131/222/60 141/246/60
f 149/231/60 151/209/60 154/249/60
f 174/235/60 173/233/60 157/212/60
f 142/245/60 130/224/60 149/231/60
f 140/244/60 145/250/60 152/248/60
f 186/251/60 184/240/60 189/228/60
f 170/252/60 171/253/60 174/235/60
f 184/240/60 182/254/60 183/226/60
f 178/213/60 157/212/60 175/232/60
f 167/234/60 166/255/60 168/256/60
f 177/215/60 155/214/60 178/213/60
f 170/252/60 174/235/60 167/234/60
f 190/242/60 189/228/60 185/227/60
f 180/257/60 169/258/60 177/215/60
f 136/223/60 140/244/60 148/247/60
f 122/217/60 118/219/60 117/259/60
f 160/260/60 159/216/60 163/261/60
f 122/217/60 117/259/60 123/236/60
f 182/254/60 178/213/60 175/232/60
f 153/211/60 149/231/60 154/249/60
f 175/232/60 183/226/60 182/254/60
f 117/259/60 121/262/60 123/236/60
f 139/239/60 138/220/60 141/246/60
f 169/258/60 163/261/60 159/216/60
f 149/231/60 128/207/60 151/209/60
f 153/211/60 154/249/60 157/212/60
f 177/215/60 169/258/60 159/216/60
f 166/255/60 164/263/60 168/256/60
f 136/223/60 148/247/60 147/210/60
f 161/264/60 160/260/60 163/261/60
f 168/256/60 170/252/60 167/234/60
f 126/225/60 125/230/60 128/207/60
