# Blender v2.83.1 OBJ File: 'jigsaw-80x45-3-step2.blend'
# www.blender.org
mtllib piece.1693.mtl
o path3386
v -0.564688 0.037500 0.334004
v -0.580068 0.037500 0.213482
v -0.562704 0.037500 0.134852
v -0.498283 0.037500 0.130749
v -0.409262 0.037500 0.160631
v -0.327293 0.037500 0.165653
v -0.279010 0.037500 0.106176
v -0.270966 0.037500 0.019411
v -0.304700 0.037500 -0.038223
v -0.376356 0.037500 -0.030167
v -0.460526 0.037500 0.000700
v -0.526418 0.037500 -0.008364
v -0.551599 0.037500 -0.100172
v -0.547078 0.037500 -0.237766
v -0.518669 0.037500 -0.466247
v -0.305270 0.037500 -0.418770
v -0.177883 0.037500 -0.404572
v -0.095400 0.037500 -0.427330
v -0.092233 0.037500 -0.502577
v -0.123505 0.037500 -0.604372
v -0.124526 0.037500 -0.696430
v -0.051925 0.037500 -0.748201
v 0.052399 0.037500 -0.752090
v 0.125227 0.037500 -0.706245
v 0.124402 0.037500 -0.615568
v 0.092001 0.037500 -0.511789
v 0.091163 0.037500 -0.433384
v 0.165945 0.037500 -0.408066
v 0.284080 0.037500 -0.420548
v 0.483240 0.037500 -0.466248
v 0.465722 0.037500 -0.099192
v 0.489683 0.037500 -0.010735
v 0.545704 0.037500 -0.008576
v 0.615630 0.037500 -0.046614
v 0.674710 0.037500 -0.057816
v 0.702348 0.037500 0.003536
v 0.694547 0.037500 0.097862
v 0.651457 0.037500 0.164259
v 0.578000 0.037500 0.162126
v 0.498131 0.037500 0.132055
v 0.440574 0.037500 0.134939
v 0.425698 0.037500 0.212965
v 0.440428 0.037500 0.333506
v 0.483240 0.037500 0.535450
v 0.275939 0.037500 0.564363
v 0.153059 0.037500 0.567888
v 0.075470 0.037500 0.539127
v 0.077045 0.037500 0.466536
v 0.113011 0.037500 0.375458
v 0.118934 0.037500 0.300449
v 0.051472 0.037500 0.269207
v -0.048322 0.037500 0.281975
v -0.118294 0.037500 0.332132
v -0.117219 0.037500 0.409813
v -0.087571 0.037500 0.492178
v -0.092754 0.037500 0.553146
v -0.176611 0.037500 0.574173
v -0.304727 0.037500 0.566834
v -0.518669 0.037500 0.535450
v -0.564688 -0.037500 0.334004
v -0.580068 -0.037500 0.213482
v -0.562704 -0.037500 0.134852
v -0.498283 -0.037500 0.130749
v -0.409262 -0.037500 0.160631
v -0.327293 -0.037500 0.165653
v -0.279010 -0.037500 0.106176
v -0.270966 -0.037500 0.019411
v -0.304700 -0.037500 -0.038223
v -0.376356 -0.037500 -0.030167
v -0.460526 -0.037500 0.000700
v -0.526418 -0.037500 -0.008364
v -0.551599 -0.037500 -0.100172
v -0.547078 -0.037500 -0.237766
v -0.518669 -0.037498 -0.466247
v -0.305270 -0.037500 -0.418770
v -0.177883 -0.037500 -0.404572
v -0.095400 -0.037500 -0.427330
v -0.092233 -0.037500 -0.502577
v -0.123505 -0.037500 -0.604372
v -0.124526 -0.037500 -0.696430
v -0.051925 -0.037500 -0.748201
v 0.052399 -0.037500 -0.752090
v 0.125227 -0.037500 -0.706245
v 0.124402 -0.037498 -0.615568
v 0.092001 -0.037500 -0.511789
v 0.091163 -0.037500 -0.433384
v 0.165945 -0.037500 -0.408066
v 0.284080 -0.037500 -0.420548
v 0.483240 -0.037500 -0.466248
v 0.465722 -0.037498 -0.099192
v 0.489683 -0.037498 -0.010735
v 0.545704 -0.037500 -0.008576
v 0.615630 -0.037500 -0.046614
v 0.674710 -0.037500 -0.057816
v 0.702348 -0.037498 0.003536
v 0.694547 -0.037500 0.097862
v 0.651457 -0.037500 0.164259
v 0.578000 -0.037500 0.162126
v 0.498131 -0.037500 0.132055
v 0.440574 -0.037500 0.134939
v 0.425698 -0.037500 0.212965
v 0.440428 -0.037498 0.333506
v 0.483240 -0.037500 0.535450
v 0.275939 -0.037500 0.564363
v 0.153059 -0.037498 0.567888
v 0.075470 -0.037500 0.539127
v 0.077045 -0.037500 0.466536
v 0.113011 -0.037500 0.375458
v 0.118934 -0.037500 0.300449
v 0.051472 -0.037500 0.269207
v -0.048322 -0.037500 0.281975
v -0.118294 -0.037500 0.332132
v -0.117219 -0.037500 0.409813
v -0.087571 -0.037500 0.492178
v -0.092754 -0.037500 0.553146
v -0.176611 -0.037500 0.574173
v -0.304727 -0.037498 0.566834
v -0.518669 -0.037498 0.535450
v -0.092754 0.037500 0.553146
v -0.092754 0.037500 0.553146
v -0.176611 0.037500 0.574173
v -0.304727 0.037500 0.566834
v 0.275939 0.037500 0.564363
v 0.153059 0.037500 0.567888
v 0.075470 0.037500 0.539127
v 0.075470 0.037500 0.539127
v -0.087571 0.037500 0.492178
v 0.483240 0.037500 0.535450
v 0.483240 0.037500 0.535450
v -0.518669 0.037500 0.535450
v -0.518669 0.037500 0.535450
v 0.077045 0.037500 0.466536
v -0.117219 0.037500 0.409813
v 0.113011 0.037500 0.375458
v -0.564688 0.037500 0.334004
v 0.440428 0.037500 0.333506
v -0.118294 0.037500 0.332132
v 0.118934 0.037500 0.300449
v 0.118934 0.037500 0.300449
v -0.580068 0.037500 0.213482
v 0.425698 0.037500 0.212965
v -0.048322 0.037500 0.281975
v 0.051472 0.037500 0.269207
v -0.562704 0.037500 0.134852
v -0.562704 0.037500 0.134852
v 0.440574 0.037500 0.134939
v 0.440574 0.037500 0.134939
v -0.409262 0.037500 0.160631
v -0.327293 0.037500 0.165653
v -0.279010 0.037500 0.106176
v 0.694547 0.037500 0.097862
v 0.651457 0.037500 0.164259
v 0.578000 0.037500 0.162126
v 0.498131 0.037500 0.132055
v -0.498283 0.037500 0.130749
v -0.270966 0.037500 0.019411
v 0.702348 0.037500 0.003536
v -0.304700 0.037500 -0.038223
v -0.304700 0.037500 -0.038223
v 0.674710 0.037500 -0.057816
v 0.674710 0.037500 -0.057816
v -0.376356 0.037500 -0.030167
v -0.460526 0.037500 0.000700
v -0.526418 0.037500 -0.008364
v -0.526418 0.037500 -0.008364
v -0.551599 0.037500 -0.100172
v 0.615630 0.037500 -0.046614
v 0.545704 0.037500 -0.008576
v 0.489683 0.037500 -0.010735
v 0.489683 0.037500 -0.010735
v 0.465722 0.037500 -0.099192
v -0.547078 0.037500 -0.237766
v 0.483240 0.037500 -0.466248
v 0.483240 0.037500 -0.466248
v 0.165945 0.037500 -0.408066
v 0.284080 0.037500 -0.420548
v -0.177883 0.037500 -0.404572
v -0.095400 0.037500 -0.427330
v -0.095400 0.037500 -0.427330
v -0.305270 0.037500 -0.418770
v 0.091163 0.037500 -0.433384
v 0.091163 0.037500 -0.433384
v -0.092233 0.037500 -0.502577
v 0.092001 0.037500 -0.511789
v -0.518669 0.037500 -0.466247
v -0.518669 0.037500 -0.466247
v -0.123505 0.037500 -0.604372
v 0.124402 0.037500 -0.615568
v -0.124526 0.037500 -0.696430
v 0.125227 0.037500 -0.706245
v -0.051925 0.037500 -0.748201
v 0.052399 0.037500 -0.752090
v -0.092754 -0.037500 0.553146
v -0.092754 -0.037500 0.553146
v -0.176611 -0.037500 0.574173
v -0.304727 -0.037498 0.566834
v 0.275939 -0.037500 0.564363
v 0.153059 -0.037498 0.567888
v 0.075470 -0.037500 0.539127
v 0.075470 -0.037500 0.539127
v -0.087571 -0.037500 0.492178
v 0.483240 -0.037500 0.535450
v 0.483240 -0.037500 0.535450
v -0.518669 -0.037498 0.535450
v -0.518669 -0.037498 0.535450
v 0.077045 -0.037500 0.466536
v -0.117219 -0.037500 0.409813
v 0.113011 -0.037500 0.375458
v -0.564688 -0.037500 0.334004
v 0.440428 -0.037498 0.333506
v -0.118294 -0.037500 0.332132
v 0.118934 -0.037500 0.300449
v 0.118934 -0.037500 0.300449
v -0.580068 -0.037500 0.213482
v 0.425698 -0.037500 0.212965
v -0.048322 -0.037500 0.281975
v 0.051472 -0.037500 0.269207
v -0.562704 -0.037500 0.134852
v -0.562704 -0.037500 0.134852
v 0.440574 -0.037500 0.134939
v 0.440574 -0.037500 0.134939
v -0.409262 -0.037500 0.160631
v -0.327293 -0.037500 0.165653
v -0.279010 -0.037500 0.106176
v 0.694547 -0.037500 0.097862
v 0.651457 -0.037500 0.164259
v 0.578000 -0.037500 0.162126
v 0.498131 -0.037500 0.132055
v -0.498283 -0.037500 0.130749
v -0.270966 -0.037500 0.019411
v 0.702348 -0.037498 0.003536
v -0.304700 -0.037500 -0.038223
v -0.304700 -0.037500 -0.038223
v 0.674710 -0.037500 -0.057816
v 0.674710 -0.037500 -0.057816
v -0.376356 -0.037500 -0.030167
v -0.460526 -0.037500 0.000700
v -0.526418 -0.037500 -0.008364
v -0.526418 -0.037500 -0.008364
v -0.551599 -0.037500 -0.100172
v 0.615630 -0.037500 -0.046614
v 0.545704 -0.037500 -0.008576
v 0.489683 -0.037498 -0.010735
v 0.489683 -0.037498 -0.010735
v 0.465722 -0.037498 -0.099192
v -0.547078 -0.037500 -0.237766
v 0.483240 -0.037500 -0.466248
v 0.483240 -0.037500 -0.466248
v 0.165945 -0.037500 -0.408066
v 0.284080 -0.037500 -0.420548
v -0.177883 -0.037500 -0.404572
v -0.095400 -0.037500 -0.427330
v -0.095400 -0.037500 -0.427330
v -0.305270 -0.037500 -0.418770
v 0.091163 -0.037500 -0.433384
v 0.091163 -0.037500 -0.433384
v -0.092233 -0.037500 -0.502577
v 0.092001 -0.037500 -0.511789
v -0.518669 -0.037498 -0.466247
v -0.518669 -0.037498 -0.466247
v -0.123505 -0.037500 -0.604372
v 0.124402 -0.037498 -0.615568
v -0.124526 -0.037500 -0.696430
v 0.125227 -0.037500 -0.706245
v -0.051925 -0.037500 -0.748201
v 0.052399 -0.037500 -0.752090
vt 0.500000 0.500000
vt 0.500000 0.500000
vt 0.500000 0.500000
vt 0.500000 0.500000
vt 0.500000 0.500000
vt 0.500000 0.500000
vt 0.500000 0.500000
vt 0.500000 0.500000
vt 0.500000 0.500000
vt 0.500000 0.500000
vt 0.500000 0.500000
vt 0.500000 0.500000
vt 0.500000 0.500000
vt 0.500000 0.500000
vt 0.500000 0.500000
vt 0.500000 0.500000
vt 0.500000 0.500000
vt 0.500000 0.500000
vt 0.500000 0.500000
vt 0.500000 0.500000
vt 0.500000 0.500000
vt 0.500000 0.500000
vt 0.500000 0.500000
vt 0.500000 0.500000
vt 0.500000 0.500000
vt 0.500000 0.500000
vt 0.500000 0.500000
vt 0.500000 0.500000
vt 0.500000 0.500000
vt 0.500000 0.500000
vt 0.500000 0.500000
vt 0.500000 0.500000
vt 0.500000 0.500000
vt 0.500000 0.500000
vt 0.500000 0.500000
vt 0.500000 0.500000
vt 0.500000 0.500000
vt 0.500000 0.500000
vt 0.500000 0.500000
vt 0.500000 0.500000
vt 0.500000 0.500000
vt 0.500000 0.500000
vt 0.500000 0.500000
vt 0.500000 0.500000
vt 0.500000 0.500000
vt 0.500000 0.500000
vt 0.500000 0.500000
vt 0.500000 0.500000
vt 0.500000 0.500000
vt 0.500000 0.500000
vt 0.500000 0.500000
vt 0.500000 0.500000
vt 0.500000 0.500000
vt 0.500000 0.500000
vt 0.500000 0.500000
vt 0.500000 0.500000
vt 0.500000 0.500000
vt 0.500000 0.500000
vt 0.500000 0.500000
vt 0.500000 0.500000
vt 0.500000 0.500000
vt 0.500000 0.500000
vt 0.500000 0.500000
vt 0.500000 0.500000
vt 0.500000 0.500000
vt 0.500000 0.500000
vt 0.500000 0.500000
vt 0.500000 0.500000
vt 0.500000 0.500000
vt 0.500000 0.500000
vt 0.500000 0.500000
vt 0.500000 0.500000
vt 0.500000 0.500000
vt 0.500000 0.500000
vt 0.500000 0.500000
vt 0.500000 0.500000
vt 0.500000 0.500000
vt 0.500000 0.500000
vt 0.500000 0.500000
vt 0.500000 0.500000
vt 0.500000 0.500000
vt 0.500000 0.500000
vt 0.500000 0.500000
vt 0.500000 0.500000
vt 0.500000 0.500000
vt 0.500000 0.500000
vt 0.500000 0.500000
vt 0.500000 0.500000
vt 0.500000 0.500000
vt 0.500000 0.500000
vt 0.500000 0.500000
vt 0.500000 0.500000
vt 0.500000 0.500000
vt 0.500000 0.500000
vt 0.500000 0.500000
vt 0.500000 0.500000
vt 0.500000 0.500000
vt 0.500000 0.500000
vt 0.500000 0.500000
vt 0.500000 0.500000
vt 0.500000 0.500000
vt 0.500000 0.500000
vt 0.500000 0.500000
vt 0.500000 0.500000
vt 0.500000 0.500000
vt 0.500000 0.500000
vt 0.500000 0.500000
vt 0.500000 0.500000
vt 0.500000 0.500000
vt 0.500000 0.500000
vt 0.500000 0.500000
vt 0.500000 0.500000
vt 0.500000 0.500000
vt 0.500000 0.500000
vt 0.500000 0.500000
vt 0.500000 0.500000
vt 0.500000 0.500000
vt 0.500000 0.500000
vt 0.500000 0.500000
vt 0.500000 0.500000
vt 0.500000 0.500000
vt 0.500000 0.500000
vt 0.500000 0.500000
vt 0.500000 0.500000
vt 0.500000 0.500000
vt 0.500000 0.500000
vt 0.500000 0.500000
vt 0.500000 0.500000
vt 0.500000 0.500000
vt 0.500000 0.500000
vt 0.500000 0.500000
vt 0.500000 0.500000
vt 0.500000 0.500000
vt 0.500000 0.500000
vt 0.500000 0.500000
vt 0.500000 0.500000
vt 0.500000 0.500000
vt 0.500000 0.500000
vt 0.500000 0.500000
vt 0.500000 0.500000
vt 0.500000 0.500000
vt 0.500000 0.500000
vt 0.500000 0.500000
vt 0.500000 0.500000
vt 0.500000 0.500000
vt 0.500000 0.500000
vt 0.500000 0.500000
vt 0.500000 0.500000
vt 0.500000 0.500000
vt 0.500000 0.500000
vt 0.500000 0.500000
vt 0.500000 0.500000
vt 0.500000 0.500000
vt 0.500000 0.500000
vt 0.500000 0.500000
vt 0.500000 0.500000
vt 0.500000 0.500000
vt 0.500000 0.500000
vt 0.500000 0.500000
vt 0.500000 0.500000
vt 0.500000 0.500000
vt 0.500000 0.500000
vt 0.500000 0.500000
vt 0.500000 0.500000
vt 0.500000 0.500000
vt 0.500000 0.500000
vt 0.500000 0.500000
vt 0.500000 0.500000
vt 0.500000 0.500000
vt 0.500000 0.500000
vt 0.500000 0.500000
vt 0.500000 0.500000
vt 0.500000 0.500000
vt 0.500000 0.500000
vt 0.500000 0.500000
vt 0.500000 0.500000
vt 0.500000 0.500000
vt 0.500000 0.500000
vt 0.500000 0.500000
vt 0.500000 0.500000
vt 0.500000 0.500000
vt 0.500000 0.500000
vt 0.500000 0.500000
vt 0.500000 0.500000
vt 0.500000 0.500000
vt 0.500000 0.500000
vt 0.500000 0.500000
vt 0.500000 0.500000
vt 0.500000 0.500000
vt 0.500000 0.500000
vt 0.500000 0.500000
vt 0.500000 0.500000
vt 0.500000 0.500000
vt 0.500000 0.500000
vt 0.500000 0.500000
vt 0.500000 0.500000
vt 0.500000 0.500000
vt 0.500000 0.500000
vt 0.500000 0.500000
vt 0.500000 0.500000
vt 0.500000 0.500000
vt 0.500000 0.500000
vt 0.500000 0.500000
vt 0.500000 0.500000
vt 0.500000 0.500000
vt 0.500000 0.500000
vt 0.500000 0.500000
vt 0.157219 0.511975
vt 0.158248 0.512479
vt 0.159830 0.520607
vt 0.157570 0.508047
vt 0.154881 0.510101
vt 0.154477 0.507798
vt 0.157583 0.506005
vt 0.156677 0.504856
vt 0.163074 0.528864
vt 0.162500 0.533333
vt 0.159831 0.534030
vt 0.148818 0.525051
vt 0.147901 0.525099
vt 0.147364 0.523626
vt 0.158232 0.534192
vt 0.157491 0.530546
vt 0.160112 0.525130
vt 0.161135 0.525018
vt 0.157505 0.528823
vt 0.153959 0.512402
vt 0.155387 0.527427
vt 0.150219 0.519254
vt 0.162854 0.516180
vt 0.162911 0.519232
vt 0.160724 0.520785
vt 0.161775 0.521470
vt 0.152586 0.533975
vt 0.150000 0.533333
vt 0.150534 0.528853
vt 0.150532 0.524448
vt 0.154119 0.534053
vt 0.154619 0.529784
vt 0.159838 0.512164
vt 0.150718 0.526179
vt 0.154545 0.528120
vt 0.162500 0.511111
vt 0.157180 0.510305
vt 0.154892 0.511840
vt 0.159410 0.521885
vt 0.163266 0.526191
vt 0.156632 0.527710
vt 0.159510 0.523810
vt 0.157122 0.532373
vt 0.149814 0.524384
vt 0.149221 0.521264
vt 0.149920 0.521216
vt 0.150000 0.511111
vt 0.152485 0.512125
vt 0.155068 0.531805
vt 0.157186 0.533726
vt 0.162246 0.524355
vt 0.163049 0.524446
vt 0.148348 0.520420
vt 0.147266 0.521533
vt 0.155375 0.504770
vt 0.154467 0.505787
vt 0.162597 0.521269
vt 0.155087 0.533415
vt 0.147611 0.520172
vn 0.0000 -1.0000 0.0000
vn 0.2432 0.0000 0.9700
vn -0.0572 0.0000 0.9984
vn 0.0287 0.0000 0.9996
vn -0.3476 0.0000 0.9377
vn 0.9964 0.0000 0.0847
vn 0.1381 0.0000 0.9904
vn -0.1451 0.0000 0.9894
vn -0.9998 0.0000 -0.0217
vn 0.9409 0.0000 -0.3387
vn -0.9301 0.0000 -0.3673
vn -0.9749 0.0000 0.2227
vn 0.9783 0.0000 -0.2074
vn 0.9999 0.0000 -0.0138
vn -0.9969 0.0000 -0.0787
vn -0.9920 0.0000 0.1266
vn 0.9926 0.0000 -0.1213
vn 0.5826 0.0000 0.8128
vn -0.4202 0.0000 0.9074
vn 0.1269 0.0000 0.9919
vn -0.9765 0.0000 -0.2156
vn 0.9823 0.0000 0.1873
vn 0.0612 0.0000 -0.9981
vn -0.7764 0.0000 -0.6303
vn 0.8388 0.0000 0.5444
vn -0.0290 0.0000 0.9996
vn -0.3524 0.0000 0.9359
vn 0.3182 0.0000 -0.9480
vn -0.0636 0.0000 -0.9980
vn 0.0500 0.0000 0.9987
vn -0.9957 0.0000 -0.0923
vn 0.9966 0.0000 0.0824
vn -0.8630 0.0000 0.5051
vn 0.9118 0.0000 -0.4107
vn 0.3443 0.0000 0.9389
vn -0.1363 0.0000 0.9907
vn -0.9644 0.0000 0.2645
vn -0.1863 0.0000 -0.9825
vn -0.4779 0.0000 -0.8784
vn 0.0385 0.0000 -0.9993
vn 0.9652 0.0000 -0.2615
vn 0.1117 0.0000 0.9937
vn -0.9995 0.0000 -0.0328
vn 0.9989 0.0000 0.0477
vn -0.1051 0.0000 -0.9945
vn -0.2660 0.0000 -0.9640
vn 0.1108 0.0000 -0.9938
vn 0.3207 0.0000 -0.9472
vn -0.9991 0.0000 -0.0421
vn 0.9999 0.0000 0.0107
vn 0.2172 0.0000 -0.9761
vn -0.9924 0.0000 -0.1234
vn -0.2237 0.0000 -0.9747
vn -0.9559 0.0000 0.2937
vn 0.9546 0.0000 0.2980
vn -0.9999 0.0000 0.0111
vn 1.0000 0.0000 0.0091
vn -0.5806 0.0000 -0.8142
vn 0.5327 0.0000 -0.8463
vn -0.0373 0.0000 -0.9993
vn 0.0000 1.0000 0.0000
usemtl BackMat.001
s off
f 252/1/1 232/2/1 251/3/1
f 261/4/1 262/5/1 258/6/1
f 263/7/1 265/8/1 261/4/1
f 209/9/1 196/10/1 204/11/1
f 227/12/1 225/13/1 226/14/1
f 196/10/1 207/15/1 195/16/1
f 223/17/1 209/9/1 222/18/1
f 223/17/1 211/19/1 196/10/1
f 249/20/1 245/21/1 217/22/1
f 246/23/1 236/24/1 240/25/1
f 236/24/1 237/26/1 240/25/1
f 197/27/1 210/28/1 202/29/1
f 211/19/1 207/15/1 196/10/1
f 245/21/1 220/30/1 217/22/1
f 198/31/1 208/32/1 197/27/1
f 254/33/1 232/2/1 246/23/1
f 210/28/1 212/34/1 215/35/1
f 254/33/1 246/23/1 259/36/1
f 257/37/1 255/38/1 252/1/1
f 255/38/1 249/20/1 230/39/1
f 222/18/1 209/9/1 214/40/1
f 211/19/1 224/41/1 216/42/1
f 230/39/1 216/42/1 224/41/1
f 252/1/1 230/39/1 232/2/1
f 252/1/1 255/38/1 230/39/1
f 195/16/1 207/15/1 201/43/1
f 261/4/1 258/6/1 257/37/1
f 228/44/1 242/45/1 227/12/1
f 227/12/1 242/45/1 225/13/1
f 212/34/1 210/28/1 208/32/1
f 243/46/1 228/44/1 220/30/1
f 245/21/1 250/47/1 247/48/1
f 208/32/1 198/31/1 206/49/1
f 195/16/1 201/43/1 193/50/1
f 217/22/1 220/30/1 212/34/1
f 197/27/1 208/32/1 210/28/1
f 229/51/1 214/40/1 218/52/1
f 243/46/1 220/30/1 245/21/1
f 241/53/1 225/13/1 242/45/1
f 217/22/1 216/42/1 230/39/1
f 251/3/1 232/2/1 254/33/1
f 242/45/1 228/44/1 243/46/1
f 231/54/1 225/13/1 241/53/1
f 266/55/1 262/5/1 265/8/1
f 250/47/1 245/21/1 249/20/1
f 246/23/1 232/2/1 236/24/1
f 264/56/1 262/5/1 266/55/1
f 258/6/1 255/38/1 257/37/1
f 240/25/1 237/26/1 238/57/1
f 224/41/1 211/19/1 223/17/1
f 223/17/1 196/10/1 209/9/1
f 220/30/1 215/35/1 212/34/1
f 222/18/1 214/40/1 229/51/1
f 206/49/1 198/31/1 199/58/1
f 249/20/1 217/22/1 230/39/1
f 265/8/1 262/5/1 261/4/1
f 234/59/1 231/54/1 241/53/1
f 120/60/2 57/61/2 116/62/2 194/63/2
f 57/61/3 58/64/3 117/65/3 116/62/3
f 45/66/4 46/67/4 105/68/4 104/69/4
f 46/67/5 126/70/5 200/71/5 105/68/5
f 55/72/6 56/73/6 115/74/6 114/75/6
f 129/76/7 45/66/7 104/69/7 203/77/7
f 58/64/8 131/78/8 205/79/8 117/65/8
f 47/80/9 48/81/9 107/82/9 106/83/9
f 54/84/10 55/72/10 114/75/10 113/85/10
f 48/81/11 49/86/11 108/87/11 107/82/11
f 59/88/12 1/89/12 60/90/12 118/91/12
f 43/92/13 44/93/13 103/94/13 102/95/13
f 53/96/14 54/84/14 113/85/14 112/97/14
f 49/86/15 139/98/15 213/99/15 108/87/15
f 1/89/16 2/100/16 61/101/16 60/90/16
f 42/102/17 43/92/17 102/95/17 101/103/17
f 52/104/18 53/96/18 112/97/18 111/105/18
f 50/106/19 51/107/19 110/108/19 109/109/19
f 51/107/20 52/104/20 111/105/20 110/108/20
f 2/100/21 145/110/21 219/111/21 61/101/21
f 147/112/22 42/102/22 101/103/22 221/113/22
f 5/114/23 6/115/23 65/116/23 64/117/23
f 6/115/24 7/118/24 66/119/24 65/116/24
f 37/120/25 38/121/25 97/122/25 96/123/25
f 38/121/26 39/124/26 98/125/26 97/122/26
f 39/124/27 40/126/27 99/127/27 98/125/27
f 4/128/28 5/114/28 64/117/28 63/129/28
f 3/130/29 4/128/29 63/129/29 62/131/29
f 40/126/30 41/132/30 100/133/30 99/127/30
f 7/118/31 8/134/31 67/135/31 66/119/31
f 36/136/32 37/120/32 96/123/32 95/137/32
f 8/134/33 159/138/33 233/139/33 67/135/33
f 161/140/34 36/136/34 95/137/34 235/141/34
f 10/142/35 11/143/35 70/144/35 69/145/35
f 11/143/36 165/146/36 239/147/36 70/144/36
f 12/148/37 13/149/37 72/150/37 71/151/37
f 34/152/38 35/153/38 94/154/38 93/155/38
f 33/156/39 34/152/39 93/155/39 92/157/39
f 170/158/40 33/156/40 92/157/40 244/159/40
f 31/160/41 32/161/41 91/162/41 90/163/41
f 9/164/42 10/142/42 69/145/42 68/165/42
f 13/149/43 14/166/43 73/167/43 72/150/43
f 174/168/44 31/160/44 90/163/44 248/169/44
f 28/170/45 29/171/45 88/172/45 87/173/45
f 17/174/46 179/175/46 253/176/46 76/177/46
f 16/178/47 17/174/47 76/177/47 75/179/47
f 182/180/48 28/170/48 87/173/48 256/181/48
f 18/182/49 19/183/49 78/184/49 77/185/49
f 26/186/50 27/187/50 86/188/50 85/189/50
f 186/190/51 16/178/51 75/179/51 260/191/51
f 14/166/52 15/192/52 74/193/52 73/167/52
f 29/171/53 30/194/53 89/195/53 88/172/53
f 19/183/54 20/196/54 79/197/54 78/184/54
f 25/198/55 26/186/55 85/189/55 84/199/55
f 20/196/56 21/200/56 80/201/56 79/197/56
f 24/202/57 25/198/57 84/199/57 83/203/57
f 21/200/58 22/204/58 81/205/58 80/201/58
f 23/206/59 24/202/59 83/203/59 82/207/59
f 22/204/60 23/206/60 82/207/60 81/205/60
usemtl FrontMat.001
f 178/208/61 177/209/61 158/210/61
f 187/211/61 184/212/61 188/213/61
f 189/214/61 187/211/61 191/215/61
f 135/216/61 130/217/61 122/218/61
f 153/219/61 152/220/61 151/221/61
f 122/218/61 121/222/61 133/223/61
f 149/224/61 148/225/61 135/216/61
f 149/224/61 122/218/61 137/226/61
f 175/227/61 143/228/61 171/229/61
f 172/230/61 166/231/61 162/232/61
f 162/232/61 166/231/61 163/233/61
f 123/234/61 128/235/61 136/236/61
f 137/226/61 122/218/61 133/223/61
f 171/229/61 143/228/61 146/237/61
f 124/238/61 123/234/61 134/239/61
f 180/240/61 172/230/61 158/210/61
f 136/236/61 141/241/61 138/242/61
f 180/240/61 185/243/61 172/230/61
f 183/244/61 178/208/61 181/245/61
f 181/245/61 156/246/61 175/227/61
f 148/225/61 140/247/61 135/216/61
f 137/226/61 142/248/61 150/249/61
f 156/246/61 150/249/61 142/248/61
f 178/208/61 158/210/61 156/246/61
f 178/208/61 156/246/61 181/245/61
f 121/222/61 127/250/61 133/223/61
f 187/211/61 183/244/61 184/212/61
f 154/251/61 153/219/61 168/252/61
f 153/219/61 151/221/61 168/252/61
f 138/242/61 134/239/61 136/236/61
f 169/253/61 146/237/61 154/251/61
f 171/229/61 173/254/61 176/255/61
f 134/239/61 132/256/61 124/238/61
f 121/222/61 119/257/61 127/250/61
f 143/228/61 138/242/61 146/237/61
f 123/234/61 136/236/61 134/239/61
f 155/258/61 144/259/61 140/247/61
f 169/253/61 171/229/61 146/237/61
f 167/260/61 168/252/61 151/221/61
f 143/228/61 156/246/61 142/248/61
f 177/209/61 180/240/61 158/210/61
f 168/252/61 169/253/61 154/251/61
f 157/261/61 167/260/61 151/221/61
f 192/262/61 191/215/61 188/213/61
f 176/255/61 175/227/61 171/229/61
f 172/230/61 162/232/61 158/210/61
f 190/263/61 192/262/61 188/213/61
f 184/212/61 183/244/61 181/245/61
f 166/231/61 164/264/61 163/233/61
f 150/249/61 149/224/61 137/226/61
f 149/224/61 135/216/61 122/218/61
f 146/237/61 138/242/61 141/241/61
f 148/225/61 155/258/61 140/247/61
f 132/256/61 125/265/61 124/238/61
f 175/227/61 156/246/61 143/228/61
f 191/215/61 187/211/61 188/213/61
f 160/266/61 167/260/61 157/261/61
