# Blender v2.83.1 OBJ File: 'jigsaw-80x45-3-step2.blend'
# www.blender.org
mtllib piece.2943.mtl
o path5886
v 0.146538 0.037500 0.539196
v 0.057659 0.037500 0.517609
v 0.052067 0.037500 0.456230
v 0.084213 0.037500 0.374851
v 0.088024 0.037500 0.301052
v 0.018909 0.037500 0.258541
v -0.081799 0.037500 0.255505
v -0.151291 0.037500 0.296246
v -0.147686 0.037500 0.378368
v -0.112862 0.037500 0.472557
v -0.109634 0.037500 0.542767
v -0.181854 0.037500 0.563114
v -0.297558 0.037500 0.548325
v -0.493370 0.037500 0.501400
v -0.537693 0.037500 0.274658
v -0.551113 0.037500 0.138218
v -0.530338 0.037500 0.047428
v -0.461090 0.037500 0.038826
v -0.367943 0.037500 0.068874
v -0.285191 0.037500 0.074009
v -0.241173 0.037500 0.011024
v -0.240440 0.037500 -0.081879
v -0.281582 0.037500 -0.146133
v -0.358376 0.037500 -0.142883
v -0.445057 0.037500 -0.112076
v -0.511024 0.037500 -0.113369
v -0.534222 0.037500 -0.188133
v -0.526714 0.037500 -0.304638
v -0.493370 0.037500 -0.500298
v -0.156853 0.037500 -0.522392
v -0.076729 0.037500 -0.503902
v -0.076591 0.037500 -0.456192
v -0.113071 0.037500 -0.393696
v -0.123302 0.037500 -0.336452
v -0.064766 0.037500 -0.302105
v 0.023682 0.037500 -0.298664
v 0.082840 0.037500 -0.331745
v 0.074112 0.037500 -0.400845
v 0.041233 0.037500 -0.480747
v 0.048534 0.037500 -0.540108
v 0.140007 0.037500 -0.556396
v 0.508537 0.037500 -0.500298
v 0.533218 0.037500 -0.304707
v 0.537529 0.037500 -0.188419
v 0.516785 0.037500 -0.114193
v 0.461124 0.037500 -0.113720
v 0.387230 0.037500 -0.144794
v 0.318394 0.037500 -0.146740
v 0.274857 0.037500 -0.078918
v 0.264744 0.037500 0.019184
v 0.293140 0.037500 0.088055
v 0.359341 0.037500 0.088402
v 0.439503 0.037500 0.061893
v 0.504009 0.037500 0.070435
v 0.531078 0.037500 0.156666
v 0.530304 0.037500 0.286190
v 0.508537 0.037500 0.501400
v 0.146538 -0.037500 0.539196
v 0.057659 -0.037500 0.517609
v 0.052067 -0.037500 0.456230
v 0.084213 -0.037500 0.374851
v 0.088024 -0.037500 0.301052
v 0.018909 -0.037500 0.258541
v -0.081799 -0.037500 0.255505
v -0.151291 -0.037500 0.296246
v -0.147686 -0.037500 0.378368
v -0.112862 -0.037500 0.472557
v -0.109634 -0.037500 0.542767
v -0.181854 -0.037500 0.563114
v -0.297558 -0.037500 0.548325
v -0.493370 -0.037498 0.501400
v -0.537693 -0.037500 0.274658
v -0.551113 -0.037500 0.138218
v -0.530338 -0.037500 0.047428
v -0.461090 -0.037500 0.038826
v -0.367943 -0.037498 0.068874
v -0.285191 -0.037500 0.074009
v -0.241173 -0.037500 0.011024
v -0.240440 -0.037500 -0.081879
v -0.281582 -0.037500 -0.146133
v -0.358376 -0.037500 -0.142883
v -0.445057 -0.037500 -0.112076
v -0.511024 -0.037500 -0.113369
v -0.534222 -0.037500 -0.188133
v -0.526714 -0.037498 -0.304638
v -0.493370 -0.037500 -0.500298
v -0.156853 -0.037500 -0.522392
v -0.076729 -0.037500 -0.503902
v -0.076591 -0.037500 -0.456192
v -0.113071 -0.037498 -0.393696
v -0.123302 -0.037500 -0.336452
v -0.064766 -0.037500 -0.302105
v 0.023682 -0.037500 -0.298664
v 0.082840 -0.037500 -0.331745
v 0.074112 -0.037498 -0.400845
v 0.041233 -0.037500 -0.480747
v 0.048534 -0.037500 -0.540108
v 0.140007 -0.037500 -0.556396
v 0.508537 -0.037500 -0.500298
v 0.533218 -0.037498 -0.304707
v 0.537529 -0.037500 -0.188419
v 0.516785 -0.037498 -0.114193
v 0.461124 -0.037500 -0.113720
v 0.387230 -0.037498 -0.144794
v 0.318394 -0.037500 -0.146740
v 0.274857 -0.037500 -0.078918
v 0.264744 -0.037500 0.019184
v 0.293140 -0.037500 0.088055
v 0.359341 -0.037500 0.088402
v 0.439503 -0.037500 0.061893
v 0.504009 -0.037500 0.070435
v 0.531078 -0.037500 0.156666
v 0.530304 -0.037500 0.286190
v 0.508537 -0.037500 0.501400
v 0.048534 0.037500 -0.540108
v 0.048534 0.037500 -0.540108
v 0.140007 0.037500 -0.556396
v 0.041233 0.037500 -0.480747
v -0.156853 0.037500 -0.522392
v -0.076729 0.037500 -0.503902
v -0.076729 0.037500 -0.503902
v -0.493370 0.037500 -0.500298
v -0.493370 0.037500 -0.500298
v 0.508537 0.037500 -0.500298
v 0.508537 0.037500 -0.500298
v -0.076591 0.037500 -0.456192
v 0.074112 0.037500 -0.400845
v -0.113071 0.037500 -0.393696
v 0.533218 0.037500 -0.304707
v -0.526714 0.037500 -0.304638
v 0.082840 0.037500 -0.331745
v 0.082840 0.037500 -0.331745
v -0.123302 0.037500 -0.336452
v -0.123302 0.037500 -0.336452
v -0.064766 0.037500 -0.302105
v 0.023682 0.037500 -0.298664
v 0.537529 0.037500 -0.188419
v -0.534222 0.037500 -0.188133
v 0.516785 0.037500 -0.114193
v 0.516785 0.037500 -0.114193
v -0.511024 0.037500 -0.113369
v -0.511024 0.037500 -0.113369
v -0.281582 0.037500 -0.146133
v -0.358376 0.037500 -0.142883
v 0.387230 0.037500 -0.144794
v 0.318394 0.037500 -0.146740
v 0.274857 0.037500 -0.078918
v -0.240440 0.037500 -0.081879
v 0.461124 0.037500 -0.113720
v -0.445057 0.037500 -0.112076
v -0.241173 0.037500 0.011024
v 0.264744 0.037500 0.019184
v -0.285191 0.037500 0.074009
v 0.293140 0.037500 0.088055
v 0.293140 0.037500 0.088055
v -0.530338 0.037500 0.047428
v -0.530338 0.037500 0.047428
v -0.461090 0.037500 0.038826
v -0.367943 0.037500 0.068874
v -0.551113 0.037500 0.138218
v 0.359341 0.037500 0.088402
v 0.439503 0.037500 0.061893
v 0.504009 0.037500 0.070435
v 0.504009 0.037500 0.070435
v 0.531078 0.037500 0.156666
v -0.537693 0.037500 0.274658
v 0.018909 0.037500 0.258541
v -0.081799 0.037500 0.255505
v 0.530304 0.037500 0.286190
v -0.151291 0.037500 0.296246
v -0.151291 0.037500 0.296246
v 0.088024 0.037500 0.301052
v 0.088024 0.037500 0.301052
v -0.147686 0.037500 0.378368
v 0.084213 0.037500 0.374851
v 0.052067 0.037500 0.456230
v -0.112862 0.037500 0.472557
v -0.493370 0.037500 0.501400
v -0.493370 0.037500 0.501400
v 0.057659 0.037500 0.517609
v 0.057659 0.037500 0.517609
v -0.109634 0.037500 0.542767
v -0.109634 0.037500 0.542767
v 0.508537 0.037500 0.501400
v 0.508537 0.037500 0.501400
v 0.146538 0.037500 0.539196
v -0.297558 0.037500 0.548325
v -0.181854 0.037500 0.563114
v 0.048534 -0.037500 -0.540108
v 0.048534 -0.037500 -0.540108
v 0.140007 -0.037500 -0.556396
v 0.041233 -0.037500 -0.480747
v -0.156853 -0.037500 -0.522392
v -0.076729 -0.037500 -0.503902
v -0.076729 -0.037500 -0.503902
v -0.493370 -0.037500 -0.500298
v -0.493370 -0.037500 -0.500298
v 0.508537 -0.037500 -0.500298
v 0.508537 -0.037500 -0.500298
v -0.076591 -0.037500 -0.456192
v 0.074112 -0.037498 -0.400845
v -0.113071 -0.037498 -0.393696
v 0.533218 -0.037498 -0.304707
v -0.526714 -0.037498 -0.304638
v 0.082840 -0.037500 -0.331745
v 0.082840 -0.037500 -0.331745
v -0.123302 -0.037500 -0.336452
v -0.123302 -0.037500 -0.336452
v -0.064766 -0.037500 -0.302105
v 0.023682 -0.037500 -0.298664
v 0.537529 -0.037500 -0.188419
v -0.534222 -0.037500 -0.188133
v 0.516785 -0.037498 -0.114193
v 0.516785 -0.037498 -0.114193
v -0.511024 -0.037500 -0.113369
v -0.511024 -0.037500 -0.113369
v -0.281582 -0.037500 -0.146133
v -0.358376 -0.037500 -0.142883
v 0.387230 -0.037498 -0.144794
v 0.318394 -0.037500 -0.146740
v 0.274857 -0.037500 -0.078918
v -0.240440 -0.037500 -0.081879
v 0.461124 -0.037500 -0.113720
v -0.445057 -0.037500 -0.112076
v -0.241173 -0.037500 0.011024
v 0.264744 -0.037500 0.019184
v -0.285191 -0.037500 0.074009
v 0.293140 -0.037500 0.088055
v 0.293140 -0.037500 0.088055
v -0.530338 -0.037500 0.047428
v -0.530338 -0.037500 0.047428
v -0.461090 -0.037500 0.038826
v -0.367943 -0.037498 0.068874
v -0.551113 -0.037500 0.138218
v 0.359341 -0.037500 0.088402
v 0.439503 -0.037500 0.061893
v 0.504009 -0.037500 0.070435
v 0.504009 -0.037500 0.070435
v 0.531078 -0.037500 0.156666
v -0.537693 -0.037500 0.274658
v 0.018909 -0.037500 0.258541
v -0.081799 -0.037500 0.255505
v 0.530304 -0.037500 0.286190
v -0.151291 -0.037500 0.296246
v -0.151291 -0.037500 0.296246
v 0.088024 -0.037500 0.301052
v 0.088024 -0.037500 0.301052
v -0.147686 -0.037500 0.378368
v 0.084213 -0.037500 0.374851
v 0.052067 -0.037500 0.456230
v -0.112862 -0.037500 0.472557
v -0.493370 -0.037498 0.501400
v -0.493370 -0.037498 0.501400
v 0.057659 -0.037500 0.517609
v 0.057659 -0.037500 0.517609
v -0.109634 -0.037500 0.542767
v -0.109634 -0.037500 0.542767
v 0.508537 -0.037500 0.501400
v 0.508537 -0.037500 0.501400
v 0.146538 -0.037500 0.539196
v -0.297558 -0.037500 0.548325
v -0.181854 -0.037500 0.563114
vt 0.500000 0.500000
vt 0.500000 0.500000
vt 0.500000 0.500000
vt 0.500000 0.500000
vt 0.500000 0.500000
vt 0.500000 0.500000
vt 0.500000 0.500000
vt 0.500000 0.500000
vt 0.500000 0.500000
vt 0.500000 0.500000
vt 0.500000 0.500000
vt 0.500000 0.500000
vt 0.500000 0.500000
vt 0.500000 0.500000
vt 0.500000 0.500000
vt 0.500000 0.500000
vt 0.500000 0.500000
vt 0.500000 0.500000
vt 0.500000 0.500000
vt 0.500000 0.500000
vt 0.500000 0.500000
vt 0.500000 0.500000
vt 0.500000 0.500000
vt 0.500000 0.500000
vt 0.500000 0.500000
vt 0.500000 0.500000
vt 0.500000 0.500000
vt 0.500000 0.500000
vt 0.500000 0.500000
vt 0.500000 0.500000
vt 0.500000 0.500000
vt 0.500000 0.500000
vt 0.500000 0.500000
vt 0.500000 0.500000
vt 0.500000 0.500000
vt 0.500000 0.500000
vt 0.500000 0.500000
vt 0.500000 0.500000
vt 0.500000 0.500000
vt 0.500000 0.500000
vt 0.500000 0.500000
vt 0.500000 0.500000
vt 0.500000 0.500000
vt 0.500000 0.500000
vt 0.500000 0.500000
vt 0.500000 0.500000
vt 0.500000 0.500000
vt 0.500000 0.500000
vt 0.500000 0.500000
vt 0.500000 0.500000
vt 0.500000 0.500000
vt 0.500000 0.500000
vt 0.500000 0.500000
vt 0.500000 0.500000
vt 0.500000 0.500000
vt 0.500000 0.500000
vt 0.500000 0.500000
vt 0.500000 0.500000
vt 0.500000 0.500000
vt 0.500000 0.500000
vt 0.500000 0.500000
vt 0.500000 0.500000
vt 0.500000 0.500000
vt 0.500000 0.500000
vt 0.500000 0.500000
vt 0.500000 0.500000
vt 0.500000 0.500000
vt 0.500000 0.500000
vt 0.500000 0.500000
vt 0.500000 0.500000
vt 0.500000 0.500000
vt 0.500000 0.500000
vt 0.500000 0.500000
vt 0.500000 0.500000
vt 0.500000 0.500000
vt 0.500000 0.500000
vt 0.500000 0.500000
vt 0.500000 0.500000
vt 0.500000 0.500000
vt 0.500000 0.500000
vt 0.500000 0.500000
vt 0.500000 0.500000
vt 0.500000 0.500000
vt 0.500000 0.500000
vt 0.500000 0.500000
vt 0.500000 0.500000
vt 0.500000 0.500000
vt 0.500000 0.500000
vt 0.500000 0.500000
vt 0.500000 0.500000
vt 0.500000 0.500000
vt 0.500000 0.500000
vt 0.500000 0.500000
vt 0.500000 0.500000
vt 0.500000 0.500000
vt 0.500000 0.500000
vt 0.500000 0.500000
vt 0.500000 0.500000
vt 0.500000 0.500000
vt 0.500000 0.500000
vt 0.500000 0.500000
vt 0.500000 0.500000
vt 0.500000 0.500000
vt 0.500000 0.500000
vt 0.500000 0.500000
vt 0.500000 0.500000
vt 0.500000 0.500000
vt 0.500000 0.500000
vt 0.500000 0.500000
vt 0.500000 0.500000
vt 0.500000 0.500000
vt 0.500000 0.500000
vt 0.500000 0.500000
vt 0.500000 0.500000
vt 0.500000 0.500000
vt 0.500000 0.500000
vt 0.500000 0.500000
vt 0.500000 0.500000
vt 0.500000 0.500000
vt 0.500000 0.500000
vt 0.500000 0.500000
vt 0.500000 0.500000
vt 0.500000 0.500000
vt 0.500000 0.500000
vt 0.500000 0.500000
vt 0.500000 0.500000
vt 0.500000 0.500000
vt 0.500000 0.500000
vt 0.500000 0.500000
vt 0.500000 0.500000
vt 0.500000 0.500000
vt 0.500000 0.500000
vt 0.500000 0.500000
vt 0.500000 0.500000
vt 0.500000 0.500000
vt 0.500000 0.500000
vt 0.500000 0.500000
vt 0.500000 0.500000
vt 0.500000 0.500000
vt 0.500000 0.500000
vt 0.500000 0.500000
vt 0.500000 0.500000
vt 0.500000 0.500000
vt 0.500000 0.500000
vt 0.500000 0.500000
vt 0.500000 0.500000
vt 0.500000 0.500000
vt 0.500000 0.500000
vt 0.500000 0.500000
vt 0.500000 0.500000
vt 0.500000 0.500000
vt 0.500000 0.500000
vt 0.500000 0.500000
vt 0.500000 0.500000
vt 0.500000 0.500000
vt 0.500000 0.500000
vt 0.500000 0.500000
vt 0.500000 0.500000
vt 0.500000 0.500000
vt 0.500000 0.500000
vt 0.500000 0.500000
vt 0.500000 0.500000
vt 0.500000 0.500000
vt 0.500000 0.500000
vt 0.500000 0.500000
vt 0.500000 0.500000
vt 0.500000 0.500000
vt 0.500000 0.500000
vt 0.500000 0.500000
vt 0.500000 0.500000
vt 0.500000 0.500000
vt 0.500000 0.500000
vt 0.500000 0.500000
vt 0.500000 0.500000
vt 0.500000 0.500000
vt 0.500000 0.500000
vt 0.500000 0.500000
vt 0.500000 0.500000
vt 0.500000 0.500000
vt 0.500000 0.500000
vt 0.500000 0.500000
vt 0.500000 0.500000
vt 0.500000 0.500000
vt 0.500000 0.500000
vt 0.500000 0.500000
vt 0.500000 0.500000
vt 0.500000 0.500000
vt 0.500000 0.500000
vt 0.500000 0.500000
vt 0.500000 0.500000
vt 0.500000 0.500000
vt 0.500000 0.500000
vt 0.500000 0.500000
vt 0.500000 0.500000
vt 0.500000 0.500000
vt 0.500000 0.500000
vt 0.500000 0.500000
vt 0.500000 0.500000
vt 0.500000 0.500000
vt 0.500000 0.500000
vt 0.500000 0.500000
vt 0.500000 0.500000
vt 0.500000 0.500000
vt 0.500000 0.500000
vt 0.500000 0.500000
vt 0.780347 0.195603
vt 0.779617 0.196365
vt 0.777642 0.192143
vt 0.774447 0.182808
vt 0.777443 0.176737
vt 0.779313 0.180507
vt 0.784813 0.186948
vt 0.784458 0.188476
vt 0.781391 0.183166
vt 0.776565 0.187373
vt 0.779268 0.182329
vt 0.777597 0.187259
vt 0.778156 0.190718
vt 0.780200 0.199022
vt 0.780198 0.200080
vt 0.779199 0.200490
vt 0.782984 0.176939
vt 0.787500 0.177778
vt 0.782206 0.180585
vt 0.775000 0.200000
vt 0.774584 0.195659
vt 0.782902 0.201245
vt 0.781761 0.200883
vt 0.781670 0.199566
vt 0.778886 0.176409
vt 0.779788 0.176860
vt 0.779747 0.178418
vt 0.775403 0.188040
vt 0.774539 0.187849
vt 0.774280 0.185835
vt 0.785987 0.192113
vt 0.786908 0.191424
vt 0.787862 0.193081
vt 0.778147 0.188657
vt 0.782189 0.196261
vt 0.787500 0.200000
vt 0.782080 0.197794
vt 0.781451 0.195527
vt 0.787603 0.191435
vt 0.784585 0.190652
vt 0.774490 0.193075
vt 0.776684 0.192071
vt 0.785128 0.192157
vt 0.787808 0.195661
vt 0.787772 0.182552
vt 0.782254 0.182222
vt 0.774780 0.191416
vt 0.775603 0.191388
vt 0.781805 0.178780
vt 0.775000 0.177778
vt 0.786639 0.187528
vt 0.785639 0.186940
vt 0.787781 0.185426
vt 0.779745 0.197635
vt 0.781875 0.177418
vt 0.780135 0.183233
vt 0.787444 0.187339
vn 0.0000 -1.0000 -0.0000
vn 0.0001 -1.0000 -0.0000
vn -0.1753 0.0000 -0.9845
vn -0.9925 0.0000 -0.1221
vn 0.2249 0.0000 -0.9744
vn -0.0655 0.0000 -0.9979
vn 0.1505 0.0000 -0.9886
vn 1.0000 0.0000 -0.0029
vn -0.9248 0.0000 0.3805
vn 0.8636 0.0000 0.5041
vn 0.9921 0.0000 -0.1252
vn -0.9858 0.0000 -0.1680
vn -0.9921 0.0000 0.1253
vn 0.9844 0.0000 0.1759
vn 0.5061 0.0000 -0.8625
vn -0.4881 0.0000 -0.8728
vn 0.9993 0.0000 -0.0370
vn -0.9979 0.0000 -0.0643
vn 0.0389 0.0000 -0.9992
vn 0.9631 0.0000 0.2692
vn -0.9551 0.0000 0.2963
vn 0.0423 0.0000 0.9991
vn -0.0283 0.0000 0.9996
vn 0.8415 0.0000 0.5402
vn -0.8422 0.0000 0.5392
vn -0.3876 0.0000 0.9218
vn 0.0085 0.0000 1.0000
vn -0.0196 0.0000 0.9998
vn 0.3349 0.0000 0.9423
vn -1.0000 0.0000 -0.0079
vn 0.9947 0.0000 0.1025
vn -0.8197 0.0000 -0.5728
vn 0.9245 0.0000 -0.3812
vn -0.1233 0.0000 -0.9924
vn 0.3070 0.0000 -0.9517
vn -0.9748 0.0000 -0.2231
vn -0.3140 0.0000 -0.9494
vn 0.1313 0.0000 -0.9913
vn 0.0619 0.0000 -0.9981
vn 0.9541 0.0000 -0.2995
vn 0.0052 0.0000 -1.0000
vn -0.9952 0.0000 0.0979
vn -0.0301 0.0000 0.9995
vn 1.0000 0.0000 0.0060
vn 0.5058 0.0000 0.8627
vn -0.5239 0.0000 0.8518
vn 0.9990 0.0000 -0.0439
vn -0.9987 0.0000 -0.0516
vn -0.9301 0.0000 -0.3674
vn 0.9379 0.0000 -0.3468
vn -0.9814 0.0000 0.1918
vn -0.9959 0.0000 0.0907
vn 0.9989 0.0000 -0.0459
vn 0.9949 0.0000 0.1006
vn -0.2360 0.0000 0.9717
vn 0.1038 0.0000 0.9946
vn -0.2330 0.0000 0.9725
vn -0.1268 0.0000 0.9919
vn 0.2712 0.0000 0.9625
vn 0.0000 1.0000 -0.0000
usemtl BackMat.001
s off
f 209/1/1 217/2/1 207/3/1
f 240/4/1 248/5/1 261/6/1
f 228/7/1 241/8/1 226/9/1
f 233/10/1 227/11/1 244/12/1
f 222/13/1 217/2/1 209/1/1
f 244/12/1 248/5/1 240/4/1
f 200/14/1 193/15/1 194/16/1
f 233/10/1 244/12/1 240/4/1
f 260/17/1 249/18/1 258/19/1
f 196/20/1 207/3/1 204/21/1
f 191/22/1 192/23/1 189/24/1
f 262/25/1 251/26/1 256/27/1
f 232/28/1 234/29/1 230/30/1
f 248/5/1 251/26/1 262/25/1
f 219/31/1 211/32/1 223/33/1
f 226/9/1 241/8/1 225/34/1
f 205/35/1 201/36/1 198/37/1
f 210/38/1 222/13/1 209/1/1
f 223/33/1 211/32/1 213/39/1
f 205/35/1 221/40/1 210/38/1
f 204/21/1 218/41/1 212/42/1
f 220/43/1 203/44/1 219/31/1
f 243/45/1 246/46/1 228/7/1
f 234/29/1 233/10/1 240/4/1
f 198/37/1 220/43/1 205/35/1
f 212/42/1 224/47/1 215/48/1
f 204/21/1 217/2/1 218/41/1
f 261/6/1 248/5/1 262/25/1
f 258/19/1 249/18/1 243/45/1
f 211/32/1 219/31/1 203/44/1
f 249/18/1 260/17/1 250/49/1
f 233/10/1 234/29/1 232/28/1
f 203/44/1 220/43/1 198/37/1
f 240/4/1 261/6/1 252/50/1
f 236/51/1 239/52/1 235/53/1
f 243/45/1 249/18/1 246/46/1
f 226/9/1 225/34/1 222/13/1
f 207/3/1 217/2/1 204/21/1
f 202/54/1 193/15/1 200/14/1
f 254/55/1 250/49/1 260/17/1
f 241/8/1 228/7/1 246/46/1
f 225/34/1 242/56/1 227/11/1
f 244/12/1 227/11/1 242/56/1
f 239/52/1 243/45/1 235/53/1
f 201/36/1 192/23/1 191/22/1
f 220/43/1 221/40/1 205/35/1
f 237/57/1 239/52/1 236/51/1
f 218/41/1 224/47/1 212/42/1
f 198/37/1 201/36/1 191/22/1
f 226/9/1 222/13/1 210/38/1
f 193/15/1 207/3/1 196/20/1
f 241/8/1 242/56/1 225/34/1
f 193/15/2 202/54/2 207/3/2
f 235/53/1 243/45/1 228/7/1
f 221/40/1 226/9/1 210/38/1
f 116/58/3 41/59/3 98/60/3 190/61/3
f 39/62/4 40/63/4 97/64/4 96/65/4
f 30/66/5 121/67/5 195/68/5 87/69/5
f 123/70/6 30/66/6 87/69/6 197/71/6
f 41/59/7 125/72/7 199/73/7 98/60/7
f 31/74/8 32/75/8 89/76/8 88/77/8
f 38/78/9 39/62/9 96/65/9 95/79/9
f 32/75/10 33/80/10 90/81/10 89/76/10
f 42/82/11 43/83/11 100/84/11 99/85/11
f 28/86/12 29/87/12 86/88/12 85/89/12
f 132/90/13 38/78/13 95/79/13 206/91/13
f 33/80/14 134/92/14 208/93/14 90/81/14
f 34/94/15 35/95/15 92/96/15 91/97/15
f 36/98/16 37/99/16 94/100/16 93/101/16
f 43/83/17 44/102/17 101/103/17 100/84/17
f 27/104/18 28/86/18 85/89/18 84/105/18
f 35/95/19 36/98/19 93/101/19 92/96/19
f 44/102/20 140/106/20 214/107/20 101/103/20
f 142/108/21 27/104/21 84/105/21 216/109/21
f 23/110/22 24/111/22 81/112/22 80/113/22
f 47/114/23 48/115/23 105/116/23 104/117/23
f 48/115/24 49/118/24 106/119/24 105/116/24
f 22/120/25 23/110/25 80/113/25 79/121/25
f 46/122/26 47/114/26 104/117/26 103/123/26
f 45/124/27 46/122/27 103/123/27 102/125/27
f 25/126/28 26/127/28 83/128/28 82/129/28
f 24/111/29 25/126/29 82/129/29 81/112/29
f 21/130/30 22/120/30 79/121/30 78/131/30
f 49/118/31 50/132/31 107/133/31 106/119/31
f 20/134/32 21/130/32 78/131/32 77/135/32
f 50/132/33 155/136/33 229/137/33 107/133/33
f 157/138/34 18/139/34 75/140/34 231/141/34
f 18/139/35 19/142/35 76/143/35 75/140/35
f 16/144/36 17/145/36 74/146/36 73/147/36
f 52/148/37 53/149/37 110/150/37 109/151/37
f 53/149/38 164/152/38 238/153/38 110/150/38
f 19/142/39 20/134/39 77/135/39 76/143/39
f 54/154/40 55/155/40 112/156/40 111/157/40
f 51/158/41 52/148/41 109/151/41 108/159/41
f 15/160/42 16/144/42 73/147/42 72/161/42
f 6/162/43 7/163/43 64/164/43 63/165/43
f 55/155/44 56/166/44 113/167/44 112/156/44
f 7/163/45 171/168/45 245/169/45 64/164/45
f 173/170/46 6/162/46 63/165/46 247/171/46
f 8/172/47 9/173/47 66/174/47 65/175/47
f 4/176/48 5/177/48 62/178/48 61/179/48
f 3/180/49 4/176/49 61/179/49 60/181/49
f 9/173/50 10/182/50 67/183/50 66/174/50
f 179/184/51 15/160/51 72/161/51 253/185/51
f 181/186/52 3/180/52 60/181/52 255/187/52
f 10/182/53 183/188/53 257/189/53 67/183/53
f 56/166/54 185/190/54 259/191/54 113/167/54
f 1/192/55 2/193/55 59/194/55 58/195/55
f 57/196/56 1/192/56 58/195/56 114/197/56
f 13/198/57 14/199/57 71/200/57 70/201/57
f 12/202/58 13/198/58 70/201/58 69/203/58
f 11/204/59 12/202/59 69/203/59 68/205/59
usemtl FrontMat.001
f 135/206/60 133/207/60 143/208/60
f 166/209/60 187/210/60 174/211/60
f 154/212/60 152/213/60 167/214/60
f 159/215/60 170/216/60 153/217/60
f 148/218/60 135/206/60 143/208/60
f 170/216/60 166/209/60 174/211/60
f 126/219/60 120/220/60 119/221/60
f 159/215/60 166/209/60 170/216/60
f 186/222/60 184/223/60 175/224/60
f 122/225/60 130/226/60 133/207/60
f 117/227/60 115/228/60 118/229/60
f 188/230/60 182/231/60 177/232/60
f 158/233/60 156/234/60 160/235/60
f 174/211/60 188/230/60 177/232/60
f 145/236/60 149/237/60 137/238/60
f 152/213/60 151/239/60 167/214/60
f 131/240/60 124/241/60 127/242/60
f 136/243/60 135/206/60 148/218/60
f 149/237/60 139/244/60 137/238/60
f 131/240/60 136/243/60 147/245/60
f 130/226/60 138/246/60 144/247/60
f 146/248/60 145/236/60 129/249/60
f 169/250/60 154/212/60 172/251/60
f 160/235/60 166/209/60 159/215/60
f 124/241/60 131/240/60 146/248/60
f 138/246/60 141/252/60 150/253/60
f 130/226/60 144/247/60 143/208/60
f 187/210/60 188/230/60 174/211/60
f 184/223/60 169/250/60 175/224/60
f 137/238/60 129/249/60 145/236/60
f 175/224/60 176/254/60 186/222/60
f 159/215/60 158/233/60 160/235/60
f 129/249/60 124/241/60 146/248/60
f 166/209/60 178/255/60 187/210/60
f 162/256/60 161/257/60 165/258/60
f 169/250/60 172/251/60 175/224/60
f 152/213/60 148/218/60 151/239/60
f 133/207/60 130/226/60 143/208/60
f 128/259/60 126/219/60 119/221/60
f 180/260/60 186/222/60 176/254/60
f 167/214/60 172/251/60 154/212/60
f 151/239/60 153/217/60 168/261/60
f 170/216/60 168/261/60 153/217/60
f 165/258/60 161/257/60 169/250/60
f 127/242/60 117/227/60 118/229/60
f 146/248/60 131/240/60 147/245/60
f 163/262/60 162/256/60 165/258/60
f 144/247/60 138/246/60 150/253/60
f 124/241/60 117/227/60 127/242/60
f 152/213/60 136/243/60 148/218/60
f 119/221/60 122/225/60 133/207/60
f 167/214/60 151/239/60 168/261/60
f 119/221/60 133/207/60 128/259/60
f 161/257/60 154/212/60 169/250/60
f 147/245/60 136/243/60 152/213/60
