# Blender v2.83.1 OBJ File: 'jigsaw-80x45-3-step2.blend'
# www.blender.org
mtllib piece.1573.mtl
o path3146
v -0.315941 0.037500 -0.435463
v -0.197279 0.037500 -0.423790
v -0.123505 0.037500 -0.448238
v -0.127647 0.037500 -0.522854
v -0.165186 0.037500 -0.618530
v -0.172207 0.037500 -0.695370
v -0.105862 0.037500 -0.722187
v -0.007521 0.037500 -0.702709
v 0.060390 0.037500 -0.649380
v 0.056742 0.037500 -0.576157
v 0.025612 0.037500 -0.502975
v 0.032381 0.037500 -0.451286
v 0.122042 0.037500 -0.436008
v 0.484714 0.037500 -0.478752
v 0.450722 0.037500 -0.136227
v 0.468668 0.037500 -0.050190
v 0.521288 0.037500 -0.041050
v 0.593517 0.037500 -0.066864
v 0.663925 0.037500 -0.066673
v 0.712727 0.037500 0.000587
v 0.726727 0.037500 0.096317
v 0.694384 0.037500 0.162029
v 0.612881 0.037500 0.159069
v 0.514292 0.037500 0.128124
v 0.439421 0.037500 0.129726
v 0.417816 0.037500 0.205868
v 0.433964 0.037500 0.324318
v 0.484715 0.037500 0.523155
v 0.262436 0.037500 0.563377
v 0.129519 0.037500 0.572777
v 0.042946 0.037500 0.545849
v 0.038635 0.037500 0.468967
v 0.071089 0.037500 0.371719
v 0.074450 0.037500 0.294537
v 0.004444 0.037500 0.268909
v -0.096878 0.037500 0.290577
v -0.165888 0.037500 0.346336
v -0.160326 0.037500 0.421608
v -0.123423 0.037500 0.496342
v -0.119780 0.037500 0.549133
v -0.194447 0.037500 0.565105
v -0.516983 0.037500 0.523155
v -0.567858 0.037500 0.313992
v -0.583561 0.037500 0.190399
v -0.560587 0.037500 0.113232
v -0.483335 0.037500 0.117023
v -0.382830 0.037500 0.156883
v -0.301748 0.037500 0.168057
v -0.273502 0.037500 0.106689
v -0.294436 0.037500 0.012554
v -0.351614 0.037500 -0.053680
v -0.430283 0.037500 -0.051918
v -0.508371 0.037500 -0.024334
v -0.561975 0.037500 -0.033665
v -0.574587 0.037500 -0.122990
v -0.516983 0.037500 -0.478752
v -0.315941 -0.037500 -0.435463
v -0.197279 -0.037498 -0.423790
v -0.123505 -0.037500 -0.448238
v -0.127647 -0.037500 -0.522854
v -0.165186 -0.037498 -0.618530
v -0.172207 -0.037500 -0.695370
v -0.105862 -0.037500 -0.722187
v -0.007521 -0.037498 -0.702709
v 0.060390 -0.037500 -0.649380
v 0.056742 -0.037500 -0.576157
v 0.025612 -0.037500 -0.502975
v 0.032381 -0.037500 -0.451286
v 0.122042 -0.037500 -0.436008
v 0.484714 -0.037500 -0.478752
v 0.450722 -0.037500 -0.136227
v 0.468668 -0.037500 -0.050190
v 0.521288 -0.037500 -0.041050
v 0.593517 -0.037500 -0.066864
v 0.663925 -0.037500 -0.066673
v 0.712727 -0.037500 0.000587
v 0.726727 -0.037498 0.096317
v 0.694384 -0.037500 0.162029
v 0.612881 -0.037500 0.159069
v 0.514292 -0.037500 0.128124
v 0.439421 -0.037500 0.129726
v 0.417816 -0.037500 0.205868
v 0.433964 -0.037500 0.324318
v 0.484715 -0.037500 0.523155
v 0.262436 -0.037500 0.563377
v 0.129519 -0.037500 0.572777
v 0.042946 -0.037500 0.545849
v 0.038635 -0.037498 0.468967
v 0.071089 -0.037500 0.371719
v 0.074450 -0.037500 0.294537
v 0.004444 -0.037500 0.268909
v -0.096878 -0.037498 0.290577
v -0.165888 -0.037500 0.346336
v -0.160326 -0.037500 0.421608
v -0.123423 -0.037500 0.496342
v -0.119780 -0.037500 0.549133
v -0.194447 -0.037498 0.565105
v -0.516983 -0.037498 0.523155
v -0.567858 -0.037500 0.313992
v -0.583561 -0.037500 0.190399
v -0.560587 -0.037498 0.113232
v -0.483335 -0.037500 0.117023
v -0.382830 -0.037500 0.156883
v -0.301748 -0.037500 0.168057
v -0.273502 -0.037500 0.106689
v -0.294436 -0.037498 0.012554
v -0.351614 -0.037500 -0.053680
v -0.430283 -0.037498 -0.051918
v -0.508371 -0.037500 -0.024334
v -0.561975 -0.037500 -0.033665
v -0.574587 -0.037500 -0.122990
v -0.516983 -0.037500 -0.478752
v -0.567858 0.037500 0.313992
v -0.583561 0.037500 0.190399
v -0.560587 0.037500 0.113232
v -0.560587 0.037500 0.113232
v -0.561975 0.037500 -0.033665
v -0.561975 0.037500 -0.033665
v -0.574587 0.037500 -0.122990
v -0.508371 0.037500 -0.024334
v -0.483335 0.037500 0.117023
v -0.516983 0.037500 0.523155
v -0.516983 0.037500 0.523155
v -0.516983 0.037500 -0.478752
v -0.516983 0.037500 -0.478752
v -0.430283 0.037500 -0.051918
v -0.382830 0.037500 0.156883
v -0.351614 0.037500 -0.053680
v -0.315941 0.037500 -0.435463
v -0.301748 0.037500 0.168057
v -0.301748 0.037500 0.168057
v -0.294436 0.037500 0.012554
v -0.197279 0.037500 -0.423790
v -0.194447 0.037500 0.565105
v -0.273502 0.037500 0.106689
v -0.123505 0.037500 -0.448238
v -0.123505 0.037500 -0.448238
v -0.119780 0.037500 0.549133
v -0.119780 0.037500 0.549133
v -0.165888 0.037500 0.346336
v -0.160326 0.037500 0.421608
v -0.165186 0.037500 -0.618530
v -0.172207 0.037500 -0.695370
v -0.172207 0.037500 -0.695370
v -0.105862 0.037500 -0.722187
v -0.096878 0.037500 0.290577
v -0.127647 0.037500 -0.522854
v -0.123423 0.037500 0.496342
v -0.007521 0.037500 -0.702709
v 0.004444 0.037500 0.268909
v 0.060390 0.037500 -0.649380
v 0.074450 0.037500 0.294537
v 0.074450 0.037500 0.294537
v 0.025612 0.037500 -0.502975
v 0.032381 0.037500 -0.451286
v 0.032381 0.037500 -0.451286
v 0.056742 0.037500 -0.576157
v 0.122042 0.037500 -0.436008
v 0.042946 0.037500 0.545849
v 0.042946 0.037500 0.545849
v 0.038635 0.037500 0.468967
v 0.071089 0.037500 0.371719
v 0.129519 0.037500 0.572777
v 0.262436 0.037500 0.563377
v 0.484715 0.037500 0.523155
v 0.484715 0.037500 0.523155
v 0.417816 0.037500 0.205868
v 0.433964 0.037500 0.324318
v 0.439421 0.037500 0.129726
v 0.439421 0.037500 0.129726
v 0.514292 0.037500 0.128124
v 0.450722 0.037500 -0.136227
v 0.468668 0.037500 -0.050190
v 0.468668 0.037500 -0.050190
v 0.484714 0.037500 -0.478752
v 0.484714 0.037500 -0.478752
v 0.521288 0.037500 -0.041050
v 0.612881 0.037500 0.159069
v 0.593517 0.037500 -0.066864
v 0.663925 0.037500 -0.066673
v 0.694384 0.037500 0.162029
v 0.694384 0.037500 0.162029
v 0.712727 0.037500 0.000587
v 0.726727 0.037500 0.096317
v -0.567858 -0.037500 0.313992
v -0.583561 -0.037500 0.190399
v -0.560587 -0.037498 0.113232
v -0.560587 -0.037498 0.113232
v -0.561975 -0.037500 -0.033665
v -0.561975 -0.037500 -0.033665
v -0.574587 -0.037500 -0.122990
v -0.508371 -0.037500 -0.024334
v -0.483335 -0.037500 0.117023
v -0.516983 -0.037498 0.523155
v -0.516983 -0.037498 0.523155
v -0.516983 -0.037500 -0.478752
v -0.516983 -0.037500 -0.478752
v -0.430283 -0.037498 -0.051918
v -0.382830 -0.037500 0.156883
v -0.351614 -0.037500 -0.053680
v -0.315941 -0.037500 -0.435463
v -0.301748 -0.037500 0.168057
v -0.301748 -0.037500 0.168057
v -0.294436 -0.037498 0.012554
v -0.197279 -0.037498 -0.423790
v -0.194447 -0.037498 0.565105
v -0.273502 -0.037500 0.106689
v -0.123505 -0.037500 -0.448238
v -0.123505 -0.037500 -0.448238
v -0.119780 -0.037500 0.549133
v -0.119780 -0.037500 0.549133
v -0.165888 -0.037500 0.346336
v -0.160326 -0.037500 0.421608
v -0.165186 -0.037498 -0.618530
v -0.172207 -0.037500 -0.695370
v -0.172207 -0.037500 -0.695370
v -0.105862 -0.037500 -0.722187
v -0.096878 -0.037498 0.290577
v -0.127647 -0.037500 -0.522854
v -0.123423 -0.037500 0.496342
v -0.007521 -0.037498 -0.702709
v 0.004444 -0.037500 0.268909
v 0.060390 -0.037500 -0.649380
v 0.074450 -0.037500 0.294537
v 0.074450 -0.037500 0.294537
v 0.025612 -0.037500 -0.502975
v 0.032381 -0.037500 -0.451286
v 0.032381 -0.037500 -0.451286
v 0.056742 -0.037500 -0.576157
v 0.122042 -0.037500 -0.436008
v 0.042946 -0.037500 0.545849
v 0.042946 -0.037500 0.545849
v 0.038635 -0.037498 0.468967
v 0.071089 -0.037500 0.371719
v 0.129519 -0.037500 0.572777
v 0.262436 -0.037500 0.563377
v 0.484715 -0.037500 0.523155
v 0.484715 -0.037500 0.523155
v 0.417816 -0.037500 0.205868
v 0.433964 -0.037500 0.324318
v 0.439421 -0.037500 0.129726
v 0.439421 -0.037500 0.129726
v 0.514292 -0.037500 0.128124
v 0.450722 -0.037500 -0.136227
v 0.468668 -0.037500 -0.050190
v 0.468668 -0.037500 -0.050190
v 0.484714 -0.037500 -0.478752
v 0.484714 -0.037500 -0.478752
v 0.521288 -0.037500 -0.041050
v 0.612881 -0.037500 0.159069
v 0.593517 -0.037500 -0.066864
v 0.663925 -0.037500 -0.066673
v 0.694384 -0.037500 0.162029
v 0.694384 -0.037500 0.162029
v 0.712727 -0.037500 0.000587
v 0.726727 -0.037498 0.096317
vt 0.500000 0.500000
vt 0.500000 0.500000
vt 0.500000 0.500000
vt 0.500000 0.500000
vt 0.500000 0.500000
vt 0.500000 0.500000
vt 0.500000 0.500000
vt 0.500000 0.500000
vt 0.500000 0.500000
vt 0.500000 0.500000
vt 0.500000 0.500000
vt 0.500000 0.500000
vt 0.500000 0.500000
vt 0.500000 0.500000
vt 0.500000 0.500000
vt 0.500000 0.500000
vt 0.500000 0.500000
vt 0.500000 0.500000
vt 0.500000 0.500000
vt 0.500000 0.500000
vt 0.500000 0.500000
vt 0.500000 0.500000
vt 0.500000 0.500000
vt 0.500000 0.500000
vt 0.500000 0.500000
vt 0.500000 0.500000
vt 0.500000 0.500000
vt 0.500000 0.500000
vt 0.500000 0.500000
vt 0.500000 0.500000
vt 0.500000 0.500000
vt 0.500000 0.500000
vt 0.500000 0.500000
vt 0.500000 0.500000
vt 0.500000 0.500000
vt 0.500000 0.500000
vt 0.500000 0.500000
vt 0.500000 0.500000
vt 0.500000 0.500000
vt 0.500000 0.500000
vt 0.500000 0.500000
vt 0.500000 0.500000
vt 0.500000 0.500000
vt 0.500000 0.500000
vt 0.500000 0.500000
vt 0.500000 0.500000
vt 0.500000 0.500000
vt 0.500000 0.500000
vt 0.500000 0.500000
vt 0.500000 0.500000
vt 0.500000 0.500000
vt 0.500000 0.500000
vt 0.500000 0.500000
vt 0.500000 0.500000
vt 0.500000 0.500000
vt 0.500000 0.500000
vt 0.500000 0.500000
vt 0.500000 0.500000
vt 0.500000 0.500000
vt 0.500000 0.500000
vt 0.500000 0.500000
vt 0.500000 0.500000
vt 0.500000 0.500000
vt 0.500000 0.500000
vt 0.500000 0.500000
vt 0.500000 0.500000
vt 0.500000 0.500000
vt 0.500000 0.500000
vt 0.500000 0.500000
vt 0.500000 0.500000
vt 0.500000 0.500000
vt 0.500000 0.500000
vt 0.500000 0.500000
vt 0.500000 0.500000
vt 0.500000 0.500000
vt 0.500000 0.500000
vt 0.500000 0.500000
vt 0.500000 0.500000
vt 0.500000 0.500000
vt 0.500000 0.500000
vt 0.500000 0.500000
vt 0.500000 0.500000
vt 0.500000 0.500000
vt 0.500000 0.500000
vt 0.500000 0.500000
vt 0.500000 0.500000
vt 0.500000 0.500000
vt 0.500000 0.500000
vt 0.500000 0.500000
vt 0.500000 0.500000
vt 0.500000 0.500000
vt 0.500000 0.500000
vt 0.500000 0.500000
vt 0.500000 0.500000
vt 0.500000 0.500000
vt 0.500000 0.500000
vt 0.500000 0.500000
vt 0.500000 0.500000
vt 0.500000 0.500000
vt 0.500000 0.500000
vt 0.500000 0.500000
vt 0.500000 0.500000
vt 0.500000 0.500000
vt 0.500000 0.500000
vt 0.500000 0.500000
vt 0.500000 0.500000
vt 0.500000 0.500000
vt 0.500000 0.500000
vt 0.500000 0.500000
vt 0.500000 0.500000
vt 0.500000 0.500000
vt 0.500000 0.500000
vt 0.500000 0.500000
vt 0.500000 0.500000
vt 0.500000 0.500000
vt 0.500000 0.500000
vt 0.500000 0.500000
vt 0.500000 0.500000
vt 0.500000 0.500000
vt 0.500000 0.500000
vt 0.500000 0.500000
vt 0.500000 0.500000
vt 0.500000 0.500000
vt 0.500000 0.500000
vt 0.500000 0.500000
vt 0.500000 0.500000
vt 0.500000 0.500000
vt 0.500000 0.500000
vt 0.500000 0.500000
vt 0.500000 0.500000
vt 0.500000 0.500000
vt 0.500000 0.500000
vt 0.500000 0.500000
vt 0.500000 0.500000
vt 0.500000 0.500000
vt 0.500000 0.500000
vt 0.500000 0.500000
vt 0.500000 0.500000
vt 0.500000 0.500000
vt 0.500000 0.500000
vt 0.500000 0.500000
vt 0.500000 0.500000
vt 0.500000 0.500000
vt 0.500000 0.500000
vt 0.500000 0.500000
vt 0.500000 0.500000
vt 0.500000 0.500000
vt 0.500000 0.500000
vt 0.500000 0.500000
vt 0.500000 0.500000
vt 0.500000 0.500000
vt 0.500000 0.500000
vt 0.500000 0.500000
vt 0.500000 0.500000
vt 0.500000 0.500000
vt 0.500000 0.500000
vt 0.500000 0.500000
vt 0.500000 0.500000
vt 0.500000 0.500000
vt 0.500000 0.500000
vt 0.500000 0.500000
vt 0.500000 0.500000
vt 0.500000 0.500000
vt 0.500000 0.500000
vt 0.500000 0.500000
vt 0.500000 0.500000
vt 0.500000 0.500000
vt 0.500000 0.500000
vt 0.500000 0.500000
vt 0.500000 0.500000
vt 0.500000 0.500000
vt 0.500000 0.500000
vt 0.500000 0.500000
vt 0.500000 0.500000
vt 0.500000 0.500000
vt 0.500000 0.500000
vt 0.500000 0.500000
vt 0.500000 0.500000
vt 0.500000 0.500000
vt 0.500000 0.500000
vt 0.500000 0.500000
vt 0.500000 0.500000
vt 0.500000 0.500000
vt 0.500000 0.500000
vt 0.500000 0.500000
vt 0.500000 0.500000
vt 0.500000 0.500000
vt 0.500000 0.500000
vt 0.500000 0.500000
vt 0.500000 0.500000
vt 0.500000 0.500000
vt 0.500000 0.500000
vt 0.500000 0.500000
vt 0.500000 0.500000
vt 0.500000 0.500000
vt 0.500000 0.500000
vt 0.500000 0.500000
vt 0.500000 0.500000
vt 0.500000 0.500000
vt 0.500000 0.500000
vt 0.655196 0.572376
vt 0.654430 0.573003
vt 0.652902 0.568458
vt 0.656520 0.550497
vt 0.657359 0.551580
vt 0.657361 0.553142
vt 0.653172 0.566210
vt 0.662119 0.569049
vt 0.661814 0.570685
vt 0.656370 0.572841
vt 0.650000 0.577778
vt 0.651267 0.569866
vt 0.652206 0.569989
vt 0.665294 0.566476
vt 0.665537 0.568657
vt 0.664244 0.569973
vt 0.657197 0.574109
vt 0.652481 0.556682
vt 0.653959 0.557040
vt 0.652852 0.564657
vt 0.654570 0.574802
vt 0.652610 0.578906
vt 0.649477 0.570623
vt 0.650335 0.569047
vt 0.663050 0.569141
vt 0.655067 0.577031
vt 0.654152 0.579255
vt 0.662157 0.565590
vt 0.665203 0.570129
vt 0.654542 0.552712
vt 0.655325 0.550187
vt 0.661960 0.573318
vt 0.661967 0.563601
vt 0.654909 0.556560
vt 0.657153 0.555912
vt 0.658062 0.579056
vt 0.656831 0.577587
vt 0.657175 0.575855
vt 0.658227 0.556310
vt 0.662802 0.565741
vt 0.662500 0.577778
vt 0.655114 0.578745
vt 0.654929 0.554900
vt 0.662500 0.555556
vt 0.654505 0.550904
vt 0.649498 0.560487
vt 0.650000 0.555556
vt 0.656947 0.578776
vt 0.649717 0.565356
vt 0.649381 0.563435
vt 0.650676 0.565452
vt 0.651889 0.564732
vt 0.657039 0.554744
vt 0.663715 0.565050
vt 0.664629 0.564969
vt 0.649676 0.568966
vn 0.0000 -1.0000 0.0000
vn -0.9920 0.0000 0.1260
vn -0.9584 0.0000 -0.2853
vn -0.9902 0.0000 0.1398
vn -0.1715 0.0000 0.9852
vn 0.0490 0.0000 -0.9988
vn -0.9717 0.0000 0.2363
vn -0.9871 0.0000 -0.1598
vn 0.3331 0.0000 0.9429
vn 0.3687 0.0000 -0.9296
vn 0.0224 0.0000 0.9997
vn 0.2105 0.0000 -0.9776
vn 0.1365 0.0000 -0.9906
vn -0.7570 0.0000 0.6535
vn 0.0979 0.0000 -0.9952
vn -0.1290 0.0000 0.9916
vn -0.9084 0.0000 -0.4181
vn -0.9762 0.0000 0.2171
vn -0.3146 0.0000 -0.9492
vn 0.2092 0.0000 0.9779
vn 0.9973 0.0000 -0.0737
vn -0.9959 0.0000 0.0910
vn -0.3748 0.0000 -0.9271
vn 0.6285 0.0000 0.7778
vn -0.9309 0.0000 0.3652
vn 0.9976 0.0000 -0.0688
vn 0.8966 0.0000 -0.4428
vn -0.9985 0.0000 0.0554
vn 0.1943 0.0000 -0.9809
vn 0.2091 0.0000 0.9779
vn 0.6176 0.0000 -0.7865
vn -0.3438 0.0000 0.9391
vn 0.9915 0.0000 -0.1299
vn 0.9202 0.0000 0.3914
vn 0.9988 0.0000 0.0498
vn 0.1680 0.0000 -0.9858
vn -0.9984 0.0000 0.0560
vn -0.9486 0.0000 -0.3166
vn -0.2970 0.0000 0.9549
vn -0.9991 0.0000 -0.0435
vn 0.0705 0.0000 0.9975
vn 0.1781 0.0000 0.9840
vn 0.9908 0.0000 -0.1351
vn 0.9620 0.0000 0.2730
vn 0.0214 0.0000 0.9998
vn 0.9789 0.0000 -0.2042
vn 0.9951 0.0000 0.0988
vn -0.1170 0.0000 -0.9931
vn 0.9689 0.0000 -0.2473
vn 0.1711 0.0000 -0.9852
vn -0.2995 0.0000 0.9541
vn -0.3365 0.0000 -0.9417
vn 0.0027 0.0000 -1.0000
vn -0.0363 0.0000 0.9993
vn 0.8094 0.0000 -0.5873
vn 0.8972 0.0000 0.4416
vn 0.9895 0.0000 -0.1447
vn 0.0000 1.0000 0.0000
usemtl BackMat.001
s off
f 207/1/1 218/2/1 202/3/1
f 255/4/1 251/5/1 252/6/1
f 218/2/1 207/1/1 222/7/1
f 208/8/1 204/9/1 205/10/1
f 194/11/1 212/12/1 213/13/1
f 221/14/1 214/15/1 217/16/1
f 205/10/1 204/9/1 200/17/1
f 240/18/1 224/19/1 239/20/1
f 202/3/1 185/21/1 199/22/1
f 202/3/1 212/12/1 185/21/1
f 194/11/1 213/13/1 206/23/1
f 220/24/1 206/23/1 213/13/1
f 214/15/1 221/14/1 219/25/1
f 199/22/1 186/26/1 193/27/1
f 227/28/1 204/9/1 208/8/1
f 217/16/1 214/15/1 215/29/1
f 255/4/1 256/30/1 250/31/1
f 205/10/1 200/17/1 201/32/1
f 222/7/1 204/9/1 230/33/1
f 241/34/1 224/19/1 245/35/1
f 245/35/1 224/19/1 222/7/1
f 191/36/1 198/37/1 192/38/1
f 186/26/1 199/22/1 185/21/1
f 245/35/1 222/7/1 244/39/1
f 239/20/1 224/19/1 241/34/1
f 212/12/1 202/3/1 218/2/1
f 226/40/1 208/8/1 219/25/1
f 201/32/1 191/36/1 196/41/1
f 222/7/1 207/1/1 204/9/1
f 187/42/1 193/27/1 186/26/1
f 243/43/1 251/5/1 250/31/1
f 185/21/1 212/12/1 194/11/1
f 244/39/1 230/33/1 247/44/1
f 227/28/1 208/8/1 226/40/1
f 201/32/1 198/37/1 191/36/1
f 250/31/1 256/30/1 253/45/1
f 236/46/1 240/18/1 237/47/1
f 191/36/1 192/38/1 189/48/1
f 231/49/1 233/50/1 235/51/1
f 241/34/1 245/35/1 243/43/1
f 255/4/1 250/31/1 251/5/1
f 235/51/1 234/52/1 236/46/1
f 240/18/1 234/52/1 224/19/1
f 251/5/1 243/43/1 249/53/1
f 230/33/1 204/9/1 227/28/1
f 226/40/1 219/25/1 229/54/1
f 229/54/1 219/25/1 221/14/1
f 229/54/1 221/14/1 223/55/1
f 210/56/1 206/23/1 220/24/1
f 245/35/1 249/53/1 243/43/1
f 244/39/1 222/7/1 230/33/1
f 201/32/1 200/17/1 198/37/1
f 234/52/1 235/51/1 233/50/1
f 236/46/1 234/52/1 240/18/1
f 43/57/2 44/58/2 100/59/2 99/60/2
f 44/58/3 116/61/3 188/62/3 100/59/3
f 118/63/4 55/64/4 111/65/4 190/66/4
f 53/67/5 54/68/5 110/69/5 109/70/5
f 45/71/6 46/72/6 102/73/6 101/74/6
f 123/75/7 43/57/7 99/60/7 195/76/7
f 55/64/8 125/77/8 197/78/8 111/65/8
f 52/79/9 53/67/9 109/70/9 108/80/9
f 46/72/10 47/81/10 103/82/10 102/73/10
f 51/83/11 52/79/11 108/80/11 107/84/11
f 56/85/12 1/86/12 57/87/12 112/88/12
f 47/81/13 131/89/13 203/90/13 103/82/13
f 50/91/14 51/83/14 107/84/14 106/92/14
f 1/86/15 2/93/15 58/94/15 57/87/15
f 41/95/16 42/96/16 98/97/16 97/98/16
f 48/99/17 49/100/17 105/101/17 104/102/17
f 49/100/18 50/91/18 106/92/18 105/101/18
f 2/93/19 137/103/19 209/104/19 58/94/19
f 139/105/20 41/95/20 97/98/20 211/106/20
f 37/107/21 38/108/21 94/109/21 93/110/21
f 5/111/22 144/112/22 216/113/22 61/114/22
f 6/115/23 7/116/23 63/117/23 62/118/23
f 36/119/24 37/107/24 93/110/24 92/120/24
f 4/121/25 5/111/25 61/114/25 60/122/25
f 39/123/26 40/124/26 96/125/26 95/126/26
f 38/108/27 39/123/27 95/126/27 94/109/27
f 3/127/28 4/121/28 60/122/28 59/128/28
f 7/116/29 8/129/29 64/130/29 63/117/29
f 35/131/30 36/119/30 92/120/30 91/132/30
f 8/129/31 9/133/31 65/134/31 64/130/31
f 153/135/32 35/131/32 91/132/32 225/136/32
f 11/137/33 156/138/33 228/139/33 67/140/33
f 10/141/34 11/137/34 67/140/34 66/142/34
f 9/133/35 10/141/35 66/142/35 65/134/35
f 12/143/36 13/144/36 69/145/36 68/146/36
f 160/147/37 32/148/37 88/149/37 232/150/37
f 32/148/38 33/151/38 89/152/38 88/149/38
f 30/153/39 31/154/39 87/155/39 86/156/39
f 33/151/40 34/157/40 90/158/40 89/152/40
f 29/159/41 30/153/41 86/156/41 85/160/41
f 166/161/42 29/159/42 85/160/42 238/162/42
f 26/163/43 27/164/43 83/165/43 82/166/43
f 170/167/44 26/163/44 82/166/44 242/168/44
f 24/169/45 25/170/45 81/171/45 80/172/45
f 15/173/46 174/174/46 246/175/46 71/176/46
f 176/177/47 15/173/47 71/176/47 248/178/47
f 13/144/48 14/179/48 70/180/48 69/145/48
f 27/164/49 28/181/49 84/182/49 83/165/49
f 16/183/50 17/184/50 73/185/50 72/186/50
f 23/187/51 24/169/51 80/172/51 79/188/51
f 17/184/52 18/189/52 74/190/52 73/185/52
f 18/189/53 19/191/53 75/192/53 74/190/53
f 182/193/54 23/187/54 79/188/54 254/194/54
f 19/191/55 20/195/55 76/196/55 75/192/55
f 21/197/56 22/198/56 78/199/56 77/200/56
f 20/195/57 21/197/57 77/200/57 76/196/57
usemtl FrontMat.001
f 135/201/58 130/202/58 146/203/58
f 183/204/58 180/205/58 179/206/58
f 146/203/58 150/207/58 135/201/58
f 136/208/58 133/209/58 132/210/58
f 122/211/58 141/212/58 140/213/58
f 149/214/58 145/215/58 142/216/58
f 133/209/58 128/217/58 132/210/58
f 168/218/58 167/219/58 152/220/58
f 130/202/58 127/221/58 113/222/58
f 130/202/58 113/222/58 140/213/58
f 122/211/58 134/223/58 141/212/58
f 148/224/58 141/212/58 134/223/58
f 142/216/58 147/225/58 149/214/58
f 127/221/58 121/226/58 114/227/58
f 155/228/58 136/208/58 132/210/58
f 145/215/58 143/229/58 142/216/58
f 183/204/58 178/230/58 184/231/58
f 133/209/58 129/232/58 128/217/58
f 150/207/58 158/233/58 132/210/58
f 169/234/58 173/235/58 152/220/58
f 173/235/58 150/207/58 152/220/58
f 119/236/58 120/237/58 126/238/58
f 114/227/58 113/222/58 127/221/58
f 173/235/58 172/239/58 150/207/58
f 167/219/58 169/234/58 152/220/58
f 140/213/58 146/203/58 130/202/58
f 154/240/58 147/225/58 136/208/58
f 129/232/58 124/241/58 119/236/58
f 150/207/58 132/210/58 135/201/58
f 115/242/58 114/227/58 121/226/58
f 171/243/58 178/230/58 179/206/58
f 113/222/58 122/211/58 140/213/58
f 172/239/58 175/244/58 158/233/58
f 155/228/58 154/240/58 136/208/58
f 129/232/58 119/236/58 126/238/58
f 178/230/58 181/245/58 184/231/58
f 164/246/58 165/247/58 168/218/58
f 119/236/58 117/248/58 120/237/58
f 159/249/58 163/250/58 161/251/58
f 169/234/58 171/243/58 173/235/58
f 183/204/58 179/206/58 178/230/58
f 163/250/58 164/246/58 162/252/58
f 168/218/58 152/220/58 162/252/58
f 179/206/58 177/253/58 171/243/58
f 158/233/58 155/228/58 132/210/58
f 154/240/58 157/254/58 147/225/58
f 157/254/58 149/214/58 147/225/58
f 157/254/58 151/255/58 149/214/58
f 138/256/58 148/224/58 134/223/58
f 173/235/58 171/243/58 177/253/58
f 172/239/58 158/233/58 150/207/58
f 129/232/58 126/238/58 128/217/58
f 162/252/58 161/251/58 163/250/58
f 164/246/58 168/218/58 162/252/58
