# Blender v2.83.1 OBJ File: 'jigsaw-80x45-3-step2.blend'
# www.blender.org
mtllib piece.181.mtl
o path362
v -0.294128 0.037500 -0.545717
v -0.174812 0.037500 -0.556038
v -0.097637 0.037500 -0.536429
v -0.094856 0.037500 -0.474617
v -0.124367 0.037500 -0.392096
v -0.125481 0.037500 -0.318800
v -0.057699 0.037500 -0.279724
v 0.038706 0.037500 -0.280107
v 0.103268 0.037500 -0.320252
v 0.096443 0.037500 -0.395265
v 0.062374 0.037500 -0.479485
v 0.066128 0.037500 -0.542056
v 0.152529 0.037500 -0.560874
v 0.507849 0.037500 -0.508935
v 0.450468 0.037500 -0.193270
v 0.463715 0.037500 -0.117062
v 0.518423 0.037500 -0.114555
v 0.597588 0.037500 -0.144265
v 0.676655 0.037500 -0.146348
v 0.733143 0.037500 -0.080685
v 0.752871 0.037500 0.013947
v 0.723734 0.037500 0.079048
v 0.642660 0.037500 0.076244
v 0.542677 0.037500 0.047676
v 0.465851 0.037500 0.055613
v 0.442757 0.037500 0.142843
v 0.457962 0.037500 0.274243
v 0.507849 0.037500 0.492763
v 0.137939 0.037500 0.436277
v 0.046814 0.037500 0.454436
v 0.040798 0.037500 0.517856
v 0.075090 0.037500 0.603646
v 0.084284 0.037500 0.679823
v 0.023905 0.037500 0.719666
v -0.066795 0.037500 0.717493
v -0.127630 0.037500 0.672881
v -0.118927 0.037500 0.591175
v -0.083035 0.037500 0.500789
v -0.082808 0.037500 0.435908
v -0.161705 0.037500 0.420798
v -0.285578 0.037500 0.440057
v -0.494061 0.037500 0.492763
v -0.419874 0.037500 0.146172
v -0.431751 0.037500 0.060812
v -0.491846 0.037500 0.054779
v -0.580168 0.037500 0.083875
v -0.667820 0.037500 0.084158
v -0.729397 0.037500 0.012645
v -0.753437 0.037500 -0.089809
v -0.731962 0.037500 -0.161388
v -0.664042 0.037500 -0.160850
v -0.576923 0.037500 -0.129241
v -0.504913 0.037500 -0.128179
v -0.473457 0.037500 -0.200690
v -0.472595 0.037500 -0.315423
v -0.494061 0.037500 -0.508935
v -0.294128 -0.037500 -0.545717
v -0.174812 -0.037498 -0.556038
v -0.097637 -0.037500 -0.536429
v -0.094856 -0.037500 -0.474617
v -0.124367 -0.037500 -0.392096
v -0.125481 -0.037500 -0.318800
v -0.057699 -0.037500 -0.279724
v 0.038706 -0.037500 -0.280107
v 0.103268 -0.037500 -0.320252
v 0.096443 -0.037500 -0.395265
v 0.062374 -0.037498 -0.479485
v 0.066128 -0.037500 -0.542056
v 0.152529 -0.037500 -0.560874
v 0.507849 -0.037498 -0.508935
v 0.450468 -0.037500 -0.193270
v 0.463715 -0.037500 -0.117062
v 0.518423 -0.037500 -0.114555
v 0.597588 -0.037500 -0.144265
v 0.676655 -0.037500 -0.146348
v 0.733143 -0.037498 -0.080685
v 0.752871 -0.037500 0.013947
v 0.723734 -0.037500 0.079048
v 0.642660 -0.037500 0.076244
v 0.542677 -0.037500 0.047676
v 0.465851 -0.037500 0.055613
v 0.442757 -0.037500 0.142843
v 0.457962 -0.037500 0.274243
v 0.507849 -0.037500 0.492763
v 0.137939 -0.037500 0.436277
v 0.046814 -0.037500 0.454436
v 0.040798 -0.037498 0.517856
v 0.075090 -0.037500 0.603646
v 0.084284 -0.037500 0.679823
v 0.023905 -0.037500 0.719666
v -0.066795 -0.037500 0.717493
v -0.127630 -0.037500 0.672881
v -0.118927 -0.037500 0.591175
v -0.083035 -0.037500 0.500789
v -0.082808 -0.037500 0.435908
v -0.161705 -0.037500 0.420798
v -0.285578 -0.037500 0.440057
v -0.494061 -0.037500 0.492763
v -0.419874 -0.037500 0.146172
v -0.431751 -0.037500 0.060812
v -0.491846 -0.037500 0.054779
v -0.580168 -0.037498 0.083875
v -0.667820 -0.037500 0.084158
v -0.729397 -0.037500 0.012645
v -0.753437 -0.037500 -0.089809
v -0.731962 -0.037498 -0.161388
v -0.664042 -0.037500 -0.160850
v -0.576923 -0.037498 -0.129241
v -0.504913 -0.037500 -0.128179
v -0.473457 -0.037500 -0.200690
v -0.472595 -0.037500 -0.315423
v -0.494061 -0.037500 -0.508935
v 0.066128 0.037500 -0.542056
v 0.066128 0.037500 -0.542056
v 0.152529 0.037500 -0.560874
v -0.294128 0.037500 -0.545717
v -0.174812 0.037500 -0.556038
v -0.097637 0.037500 -0.536429
v -0.097637 0.037500 -0.536429
v 0.062374 0.037500 -0.479485
v -0.094856 0.037500 -0.474617
v 0.507849 0.037500 -0.508935
v 0.507849 0.037500 -0.508935
v -0.494061 0.037500 -0.508935
v -0.494061 0.037500 -0.508935
v 0.096443 0.037500 -0.395265
v -0.124367 0.037500 -0.392096
v -0.472595 0.037500 -0.315423
v 0.103268 0.037500 -0.320252
v 0.103268 0.037500 -0.320252
v -0.125481 0.037500 -0.318800
v -0.125481 0.037500 -0.318800
v 0.038706 0.037500 -0.280107
v -0.057699 0.037500 -0.279724
v -0.473457 0.037500 -0.200690
v 0.450468 0.037500 -0.193270
v -0.504913 0.037500 -0.128179
v -0.504913 0.037500 -0.128179
v 0.463715 0.037500 -0.117062
v 0.463715 0.037500 -0.117062
v -0.753437 0.037500 -0.089809
v -0.731962 0.037500 -0.161388
v -0.731962 0.037500 -0.161388
v -0.664042 0.037500 -0.160850
v -0.576923 0.037500 -0.129241
v 0.597588 0.037500 -0.144265
v 0.676655 0.037500 -0.146348
v 0.733143 0.037500 -0.080685
v 0.518423 0.037500 -0.114555
v -0.729397 0.037500 0.012645
v 0.752871 0.037500 0.013947
v -0.667820 0.037500 0.084158
v 0.723734 0.037500 0.079048
v 0.723734 0.037500 0.079048
v 0.542677 0.037500 0.047676
v 0.465851 0.037500 0.055613
v 0.465851 0.037500 0.055613
v 0.642660 0.037500 0.076244
v -0.580168 0.037500 0.083875
v -0.491846 0.037500 0.054779
v -0.431751 0.037500 0.060812
v -0.431751 0.037500 0.060812
v 0.442757 0.037500 0.142843
v -0.419874 0.037500 0.146172
v 0.457962 0.037500 0.274243
v -0.494061 0.037500 0.492763
v -0.494061 0.037500 0.492763
v -0.161705 0.037500 0.420798
v -0.285578 0.037500 0.440057
v -0.082808 0.037500 0.435908
v -0.082808 0.037500 0.435908
v -0.083035 0.037500 0.500789
v 0.137939 0.037500 0.436277
v 0.046814 0.037500 0.454436
v 0.046814 0.037500 0.454436
v 0.040798 0.037500 0.517856
v 0.507849 0.037500 0.492763
v 0.507849 0.037500 0.492763
v -0.118927 0.037500 0.591175
v 0.075090 0.037500 0.603646
v -0.127630 0.037500 0.672881
v 0.084284 0.037500 0.679823
v 0.084284 0.037500 0.679823
v -0.066795 0.037500 0.717493
v 0.023905 0.037500 0.719666
v 0.066128 -0.037500 -0.542056
v 0.066128 -0.037500 -0.542056
v 0.152529 -0.037500 -0.560874
v -0.294128 -0.037500 -0.545717
v -0.174812 -0.037498 -0.556038
v -0.097637 -0.037500 -0.536429
v -0.097637 -0.037500 -0.536429
v 0.062374 -0.037498 -0.479485
v -0.094856 -0.037500 -0.474617
v 0.507849 -0.037498 -0.508935
v 0.507849 -0.037498 -0.508935
v -0.494061 -0.037500 -0.508935
v -0.494061 -0.037500 -0.508935
v 0.096443 -0.037500 -0.395265
v -0.124367 -0.037500 -0.392096
v -0.472595 -0.037500 -0.315423
v 0.103268 -0.037500 -0.320252
v 0.103268 -0.037500 -0.320252
v -0.125481 -0.037500 -0.318800
v -0.125481 -0.037500 -0.318800
v 0.038706 -0.037500 -0.280107
v -0.057699 -0.037500 -0.279724
v -0.473457 -0.037500 -0.200690
v 0.450468 -0.037500 -0.193270
v -0.504913 -0.037500 -0.128179
v -0.504913 -0.037500 -0.128179
v 0.463715 -0.037500 -0.117062
v 0.463715 -0.037500 -0.117062
v -0.753437 -0.037500 -0.089809
v -0.731962 -0.037498 -0.161388
v -0.731962 -0.037498 -0.161388
v -0.664042 -0.037500 -0.160850
v -0.576923 -0.037498 -0.129241
v 0.597588 -0.037500 -0.144265
v 0.676655 -0.037500 -0.146348
v 0.733143 -0.037498 -0.080685
v 0.518423 -0.037500 -0.114555
v -0.729397 -0.037500 0.012645
v 0.752871 -0.037500 0.013947
v -0.667820 -0.037500 0.084158
v 0.723734 -0.037500 0.079048
v 0.723734 -0.037500 0.079048
v 0.542677 -0.037500 0.047676
v 0.465851 -0.037500 0.055613
v 0.465851 -0.037500 0.055613
v 0.642660 -0.037500 0.076244
v -0.580168 -0.037498 0.083875
v -0.491846 -0.037500 0.054779
v -0.431751 -0.037500 0.060812
v -0.431751 -0.037500 0.060812
v 0.442757 -0.037500 0.142843
v -0.419874 -0.037500 0.146172
v 0.457962 -0.037500 0.274243
v -0.494061 -0.037500 0.492763
v -0.494061 -0.037500 0.492763
v -0.161705 -0.037500 0.420798
v -0.285578 -0.037500 0.440057
v -0.082808 -0.037500 0.435908
v -0.082808 -0.037500 0.435908
v -0.083035 -0.037500 0.500789
v 0.137939 -0.037500 0.436277
v 0.046814 -0.037500 0.454436
v 0.046814 -0.037500 0.454436
v 0.040798 -0.037498 0.517856
v 0.507849 -0.037500 0.492763
v 0.507849 -0.037500 0.492763
v -0.118927 -0.037500 0.591175
v 0.075090 -0.037500 0.603646
v -0.127630 -0.037500 0.672881
v 0.084284 -0.037500 0.679823
v 0.084284 -0.037500 0.679823
v -0.066795 -0.037500 0.717493
v 0.023905 -0.037500 0.719666
vt 0.500000 0.500000
vt 0.500000 0.500000
vt 0.500000 0.500000
vt 0.500000 0.500000
vt 0.500000 0.500000
vt 0.500000 0.500000
vt 0.500000 0.500000
vt 0.500000 0.500000
vt 0.500000 0.500000
vt 0.500000 0.500000
vt 0.500000 0.500000
vt 0.500000 0.500000
vt 0.500000 0.500000
vt 0.500000 0.500000
vt 0.500000 0.500000
vt 0.500000 0.500000
vt 0.500000 0.500000
vt 0.500000 0.500000
vt 0.500000 0.500000
vt 0.500000 0.500000
vt 0.500000 0.500000
vt 0.500000 0.500000
vt 0.500000 0.500000
vt 0.500000 0.500000
vt 0.500000 0.500000
vt 0.500000 0.500000
vt 0.500000 0.500000
vt 0.500000 0.500000
vt 0.500000 0.500000
vt 0.500000 0.500000
vt 0.500000 0.500000
vt 0.500000 0.500000
vt 0.500000 0.500000
vt 0.500000 0.500000
vt 0.500000 0.500000
vt 0.500000 0.500000
vt 0.500000 0.500000
vt 0.500000 0.500000
vt 0.500000 0.500000
vt 0.500000 0.500000
vt 0.500000 0.500000
vt 0.500000 0.500000
vt 0.500000 0.500000
vt 0.500000 0.500000
vt 0.500000 0.500000
vt 0.500000 0.500000
vt 0.500000 0.500000
vt 0.500000 0.500000
vt 0.500000 0.500000
vt 0.500000 0.500000
vt 0.500000 0.500000
vt 0.500000 0.500000
vt 0.500000 0.500000
vt 0.500000 0.500000
vt 0.500000 0.500000
vt 0.500000 0.500000
vt 0.500000 0.500000
vt 0.500000 0.500000
vt 0.500000 0.500000
vt 0.500000 0.500000
vt 0.500000 0.500000
vt 0.500000 0.500000
vt 0.500000 0.500000
vt 0.500000 0.500000
vt 0.500000 0.500000
vt 0.500000 0.500000
vt 0.500000 0.500000
vt 0.500000 0.500000
vt 0.500000 0.500000
vt 0.500000 0.500000
vt 0.500000 0.500000
vt 0.500000 0.500000
vt 0.500000 0.500000
vt 0.500000 0.500000
vt 0.500000 0.500000
vt 0.500000 0.500000
vt 0.500000 0.500000
vt 0.500000 0.500000
vt 0.500000 0.500000
vt 0.500000 0.500000
vt 0.500000 0.500000
vt 0.500000 0.500000
vt 0.500000 0.500000
vt 0.500000 0.500000
vt 0.500000 0.500000
vt 0.500000 0.500000
vt 0.500000 0.500000
vt 0.500000 0.500000
vt 0.500000 0.500000
vt 0.500000 0.500000
vt 0.500000 0.500000
vt 0.500000 0.500000
vt 0.500000 0.500000
vt 0.500000 0.500000
vt 0.500000 0.500000
vt 0.500000 0.500000
vt 0.500000 0.500000
vt 0.500000 0.500000
vt 0.500000 0.500000
vt 0.500000 0.500000
vt 0.500000 0.500000
vt 0.500000 0.500000
vt 0.500000 0.500000
vt 0.500000 0.500000
vt 0.500000 0.500000
vt 0.500000 0.500000
vt 0.500000 0.500000
vt 0.500000 0.500000
vt 0.500000 0.500000
vt 0.500000 0.500000
vt 0.500000 0.500000
vt 0.500000 0.500000
vt 0.500000 0.500000
vt 0.500000 0.500000
vt 0.500000 0.500000
vt 0.500000 0.500000
vt 0.500000 0.500000
vt 0.500000 0.500000
vt 0.500000 0.500000
vt 0.500000 0.500000
vt 0.500000 0.500000
vt 0.500000 0.500000
vt 0.500000 0.500000
vt 0.500000 0.500000
vt 0.500000 0.500000
vt 0.500000 0.500000
vt 0.500000 0.500000
vt 0.500000 0.500000
vt 0.500000 0.500000
vt 0.500000 0.500000
vt 0.500000 0.500000
vt 0.500000 0.500000
vt 0.500000 0.500000
vt 0.500000 0.500000
vt 0.500000 0.500000
vt 0.500000 0.500000
vt 0.500000 0.500000
vt 0.500000 0.500000
vt 0.500000 0.500000
vt 0.500000 0.500000
vt 0.500000 0.500000
vt 0.500000 0.500000
vt 0.500000 0.500000
vt 0.500000 0.500000
vt 0.500000 0.500000
vt 0.500000 0.500000
vt 0.500000 0.500000
vt 0.500000 0.500000
vt 0.500000 0.500000
vt 0.500000 0.500000
vt 0.500000 0.500000
vt 0.500000 0.500000
vt 0.500000 0.500000
vt 0.500000 0.500000
vt 0.500000 0.500000
vt 0.500000 0.500000
vt 0.500000 0.500000
vt 0.500000 0.500000
vt 0.500000 0.500000
vt 0.500000 0.500000
vt 0.500000 0.500000
vt 0.500000 0.500000
vt 0.500000 0.500000
vt 0.500000 0.500000
vt 0.500000 0.500000
vt 0.500000 0.500000
vt 0.500000 0.500000
vt 0.500000 0.500000
vt 0.500000 0.500000
vt 0.500000 0.500000
vt 0.500000 0.500000
vt 0.500000 0.500000
vt 0.500000 0.500000
vt 0.500000 0.500000
vt 0.500000 0.500000
vt 0.500000 0.500000
vt 0.500000 0.500000
vt 0.500000 0.500000
vt 0.500000 0.500000
vt 0.500000 0.500000
vt 0.500000 0.500000
vt 0.500000 0.500000
vt 0.500000 0.500000
vt 0.500000 0.500000
vt 0.500000 0.500000
vt 0.500000 0.500000
vt 0.500000 0.500000
vt 0.500000 0.500000
vt 0.500000 0.500000
vt 0.500000 0.500000
vt 0.500000 0.500000
vt 0.500000 0.500000
vt 0.500000 0.500000
vt 0.500000 0.500000
vt 0.500000 0.500000
vt 0.500000 0.500000
vt 0.500000 0.500000
vt 0.500000 0.500000
vt 0.500000 0.500000
vt 0.500000 0.500000
vt 0.500000 0.500000
vt 0.500000 0.500000
vt 0.261784 0.948553
vt 0.257367 0.953034
vt 0.257452 0.951370
vt 0.261878 0.938181
vt 0.261688 0.941096
vt 0.257885 0.934586
vt 0.256647 0.950479
vt 0.255131 0.934595
vt 0.257215 0.929183
vt 0.257101 0.930874
vt 0.256462 0.928300
vt 0.250257 0.948717
vt 0.249865 0.947109
vt 0.250777 0.942916
vt 0.256673 0.932777
vt 0.254680 0.931150
vt 0.263620 0.947465
vt 0.262934 0.943207
vt 0.264182 0.942574
vt 0.247879 0.947834
vt 0.247032 0.947845
vt 0.246764 0.946258
vt 0.255444 0.950471
vt 0.254598 0.951338
vt 0.254612 0.952964
vt 0.253983 0.956601
vt 0.252494 0.956372
vt 0.250028 0.943050
vt 0.247064 0.943985
vt 0.250926 0.941022
vt 0.261949 0.946862
vt 0.250268 0.951263
vt 0.256748 0.934184
vt 0.255128 0.933155
vt 0.265193 0.942511
vt 0.265557 0.943956
vt 0.254572 0.929338
vt 0.255331 0.928348
vt 0.262500 0.933333
vt 0.262632 0.946806
vt 0.261976 0.943031
vt 0.248926 0.942404
vt 0.248966 0.947132
vt 0.247832 0.942398
vt 0.254146 0.934930
vt 0.254981 0.954794
vt 0.254946 0.956166
vt 0.258067 0.956708
vt 0.256989 0.956290
vt 0.256942 0.954902
vt 0.265311 0.946055
vt 0.262500 0.955556
vt 0.252601 0.934503
vt 0.264606 0.947512
vt 0.250000 0.955556
vt 0.250000 0.933333
vn 0.0000 -1.0000 0.0000
vn -0.2128 0.0000 -0.9771
vn -0.0862 0.0000 -0.9963
vn 0.2463 0.0000 -0.9692
vn -0.9982 0.0000 -0.0599
vn 0.9990 0.0000 -0.0449
vn 0.1446 0.0000 -0.9895
vn -0.1809 0.0000 -0.9835
vn -0.9270 0.0000 0.3750
vn 0.9416 0.0000 0.3367
vn -0.9939 0.0000 0.1102
vn -0.9959 0.0000 0.0906
vn 0.9999 0.0000 0.0152
vn -0.5280 0.0000 -0.8492
vn 0.4994 0.0000 -0.8663
vn -1.0000 0.0000 -0.0075
vn 0.9839 0.0000 0.1788
vn -0.0040 0.0000 -1.0000
vn -0.9174 0.0000 -0.3980
vn 0.9852 0.0000 -0.1713
vn -0.9578 0.0000 -0.2874
vn 0.0079 0.0000 -1.0000
vn 0.3411 0.0000 -0.9400
vn -0.0263 0.0000 -0.9997
vn 0.7581 0.0000 -0.6522
vn -0.3514 0.0000 -0.9362
vn 0.0147 0.0000 -0.9999
vn 0.0458 0.0000 -0.9990
vn -0.9736 0.0000 0.2284
vn 0.9790 0.0000 -0.2041
vn -0.7578 0.0000 0.6525
vn 0.9128 0.0000 0.4085
vn 0.1028 0.0000 0.9947
vn -0.2747 0.0000 0.9615
vn -0.0346 0.0000 0.9994
vn 0.0032 0.0000 1.0000
vn 0.3129 0.0000 0.9498
vn -0.0999 0.0000 0.9950
vn 0.9667 0.0000 0.2559
vn -0.9905 0.0000 0.1378
vn 0.9934 0.0000 -0.1150
vn -0.9779 0.0000 -0.2093
vn 0.1536 0.0000 0.9881
vn -0.1881 0.0000 0.9821
vn -1.0000 0.0000 -0.0035
vn 0.1954 0.0000 0.9807
vn 0.9955 0.0000 0.0944
vn -0.1510 0.0000 0.9885
vn 0.9749 0.0000 -0.2226
vn 0.2451 0.0000 0.9695
vn -0.9294 0.0000 -0.3691
vn 0.9286 0.0000 -0.3712
vn -0.9944 0.0000 -0.1059
vn 0.9928 0.0000 -0.1198
vn -0.5914 0.0000 0.8064
vn -0.0240 0.0000 0.9997
vn 0.5508 0.0000 0.8347
vn 0.0000 1.0000 0.0000
usemtl BackMat.001
s off
f 209/1/1 202/2/1 199/3/1
f 238/4/1 246/5/1 236/6/1
f 246/5/1 243/7/1 206/8/1
f 255/9/1 258/10/1 253/11/1
f 208/12/1 234/13/1 210/14/1
f 253/11/1 252/15/1 249/16/1
f 219/17/1 231/18/1 228/19/1
f 217/20/1 214/21/1 215/22/1
f 207/23/1 234/13/1 204/24/1
f 200/25/1 189/26/1 190/27/1
f 206/8/1 243/7/1 207/23/1
f 233/28/1 210/14/1 234/13/1
f 223/29/1 214/21/1 217/20/1
f 207/23/1 237/30/1 234/13/1
f 212/31/1 202/2/1 209/1/1
f 204/24/1 208/12/1 201/32/1
f 247/33/1 245/34/1 243/7/1
f 226/35/1 231/18/1 224/36/1
f 254/37/1 252/15/1 257/38/1
f 246/5/1 238/4/1 250/39/1
f 222/40/1 229/41/1 212/31/1
f 223/29/1 218/42/1 232/43/1
f 218/42/1 223/29/1 217/20/1
f 232/43/1 218/42/1 233/28/1
f 219/17/1 228/19/1 222/40/1
f 212/31/1 206/8/1 202/2/1
f 223/29/1 232/43/1 225/44/1
f 252/15/1 253/11/1 257/38/1
f 236/6/1 246/5/1 206/8/1
f 207/23/1 241/45/1 237/30/1
f 200/25/1 190/27/1 194/46/1
f 258/10/1 257/38/1 253/11/1
f 245/34/1 249/16/1 252/15/1
f 204/24/1 201/32/1 200/25/1
f 194/46/1 190/27/1 191/47/1
f 188/48/1 193/49/1 186/50/1
f 224/36/1 231/18/1 221/51/1
f 249/16/1 245/34/1 247/33/1
f 246/5/1 247/33/1 243/7/1
f 210/14/1 233/28/1 218/42/1
f 195/52/1 199/3/1 188/48/1
f 237/30/1 241/45/1 242/53/1
f 220/54/1 221/51/1 219/17/1
f 228/19/1 229/41/1 222/40/1
f 189/26/1 201/32/1 197/55/1
f 212/31/1 229/41/1 206/8/1
f 243/7/1 241/45/1 207/23/1
f 204/24/1 234/13/1 208/12/1
f 237/30/1 242/53/1 239/56/1
f 189/26/1 200/25/1 201/32/1
f 188/48/1 199/3/1 193/49/1
f 221/51/1 231/18/1 219/17/1
f 209/1/1 199/3/1 195/52/1
f 229/41/1 236/6/1 206/8/1
f 114/57/2 13/58/2 69/59/2 187/60/2
f 1/61/3 2/62/3 58/63/3 57/64/3
f 2/62/4 119/65/4 192/66/4 58/63/4
f 11/67/5 12/68/5 68/69/5 67/70/5
f 3/71/6 4/72/6 60/73/6 59/74/6
f 13/58/7 123/75/7 196/76/7 69/59/7
f 125/77/8 1/61/8 57/64/8 198/78/8
f 10/79/9 11/67/9 67/70/9 66/80/9
f 4/72/10 5/81/10 61/82/10 60/73/10
f 55/83/11 56/84/11 112/85/11 111/86/11
f 130/87/12 10/79/12 66/80/12 203/88/12
f 5/81/13 132/89/13 205/90/13 61/82/13
f 8/91/14 9/92/14 65/93/14 64/94/14
f 6/95/15 7/96/15 63/97/15 62/98/15
f 54/99/16 55/83/16 111/86/16 110/100/16
f 14/101/17 15/102/17 71/103/17 70/104/17
f 7/96/18 8/91/18 64/94/18 63/97/18
f 138/105/19 54/99/19 110/100/19 211/106/19
f 15/102/20 140/107/20 213/108/20 71/103/20
f 49/109/21 143/110/21 216/111/21 105/112/21
f 50/113/22 51/114/22 107/115/22 106/116/22
f 51/114/23 52/117/23 108/118/23 107/115/23
f 18/119/24 19/120/24 75/121/24 74/122/24
f 19/120/25 20/123/25 76/124/25 75/121/25
f 17/125/26 18/119/26 74/122/26 73/126/26
f 52/117/27 53/127/27 109/128/27 108/118/27
f 16/129/28 17/125/28 73/126/28 72/130/28
f 48/131/29 49/109/29 105/112/29 104/132/29
f 20/123/30 21/133/30 77/134/30 76/124/30
f 47/135/31 48/131/31 104/132/31 103/136/31
f 21/133/32 154/137/32 227/138/32 77/134/32
f 24/139/33 157/140/33 230/141/33 80/142/33
f 23/143/34 24/139/34 80/142/34 79/144/34
f 22/145/35 23/143/35 79/144/35 78/146/35
f 46/147/36 47/135/36 103/136/36 102/148/36
f 45/149/37 46/147/37 102/148/37 101/150/37
f 162/151/38 45/149/38 101/150/38 235/152/38
f 25/153/39 26/154/39 82/155/39 81/156/39
f 43/157/40 44/158/40 100/159/40 99/160/40
f 26/154/41 27/161/41 83/162/41 82/155/41
f 167/163/42 43/157/42 99/160/42 240/164/42
f 40/165/43 41/166/43 97/167/43 96/168/43
f 171/169/44 40/165/44 96/168/44 244/170/44
f 38/171/45 39/172/45 95/173/45 94/174/45
f 29/175/46 175/176/46 248/177/46 85/178/46
f 30/179/47 31/180/47 87/181/47 86/182/47
f 178/183/48 29/175/48 85/178/48 251/184/48
f 27/161/49 28/185/49 84/186/49 83/162/49
f 41/166/50 42/187/50 98/188/50 97/167/50
f 37/189/51 38/171/51 94/174/51 93/190/51
f 31/180/52 32/191/52 88/192/52 87/181/52
f 36/193/53 37/189/53 93/190/53 92/194/53
f 32/191/54 183/195/54 256/196/54 88/192/54
f 35/197/55 36/193/55 92/194/55 91/198/55
f 34/199/56 35/197/56 91/198/56 90/200/56
f 33/201/57 34/199/57 90/200/57 89/202/57
usemtl FrontMat.001
f 136/203/58 126/204/58 129/205/58
f 165/206/58 163/207/58 173/208/58
f 173/208/58 133/209/58 170/210/58
f 182/211/58 180/212/58 185/213/58
f 135/214/58 137/215/58 161/216/58
f 180/212/58 176/217/58 179/218/58
f 146/219/58 155/220/58 158/221/58
f 144/222/58 142/223/58 141/224/58
f 134/225/58 131/226/58 161/216/58
f 127/227/58 117/228/58 116/229/58
f 133/209/58 134/225/58 170/210/58
f 160/230/58 161/216/58 137/215/58
f 150/231/58 144/222/58 141/224/58
f 134/225/58 161/216/58 164/232/58
f 139/233/58 136/203/58 129/205/58
f 131/226/58 128/234/58 135/214/58
f 174/235/58 170/210/58 172/236/58
f 153/237/58 151/238/58 158/221/58
f 181/239/58 184/240/58 179/218/58
f 173/208/58 177/241/58 165/206/58
f 149/242/58 139/233/58 156/243/58
f 150/231/58 159/244/58 145/245/58
f 145/245/58 144/222/58 150/231/58
f 159/244/58 160/230/58 145/245/58
f 146/219/58 149/242/58 155/220/58
f 139/233/58 129/205/58 133/209/58
f 150/231/58 152/246/58 159/244/58
f 179/218/58 184/240/58 180/212/58
f 163/207/58 133/209/58 173/208/58
f 134/225/58 164/232/58 168/247/58
f 127/227/58 121/248/58 117/228/58
f 185/213/58 180/212/58 184/240/58
f 172/236/58 179/218/58 176/217/58
f 131/226/58 127/227/58 128/234/58
f 121/248/58 118/249/58 117/228/58
f 115/250/58 113/251/58 120/252/58
f 151/238/58 148/253/58 158/221/58
f 176/217/58 174/235/58 172/236/58
f 173/208/58 170/210/58 174/235/58
f 137/215/58 145/245/58 160/230/58
f 122/254/58 115/250/58 126/204/58
f 164/232/58 169/255/58 168/247/58
f 147/256/58 146/219/58 148/253/58
f 155/220/58 149/242/58 156/243/58
f 116/229/58 124/257/58 128/234/58
f 139/233/58 133/209/58 156/243/58
f 170/210/58 134/225/58 168/247/58
f 131/226/58 135/214/58 161/216/58
f 164/232/58 166/258/58 169/255/58
f 116/229/58 128/234/58 127/227/58
f 115/250/58 120/252/58 126/204/58
f 148/253/58 146/219/58 158/221/58
f 136/203/58 122/254/58 126/204/58
f 156/243/58 133/209/58 163/207/58
