# Blender v2.83.1 OBJ File: 'jigsaw-80x45-3-step2.blend'
# www.blender.org
mtllib piece.204.mtl
o path408
v -0.534575 0.037500 0.277439
v -0.543586 0.037500 0.156670
v -0.523782 0.037500 0.078121
v -0.463457 0.037500 0.074356
v -0.383074 0.037500 0.103451
v -0.311138 0.037500 0.104839
v -0.271682 0.037500 0.037972
v -0.270852 0.037500 -0.057713
v -0.310317 0.037500 -0.122765
v -0.386142 0.037500 -0.118175
v -0.471959 0.037500 -0.086712
v -0.535794 0.037500 -0.091576
v -0.554716 0.037500 -0.176319
v -0.541971 0.037500 -0.305927
v -0.500474 0.037500 -0.522419
v -0.176144 0.037500 -0.576237
v -0.099721 0.037500 -0.560886
v -0.100853 0.037500 -0.504295
v -0.135680 0.037500 -0.426941
v -0.141073 0.037500 -0.357521
v -0.074770 0.037500 -0.320210
v 0.022026 0.037500 -0.321041
v 0.087239 0.037500 -0.361526
v 0.080173 0.037500 -0.437473
v 0.045633 0.037500 -0.521873
v 0.049802 0.037500 -0.582012
v 0.138245 0.037500 -0.594688
v 0.501224 0.037500 -0.522419
v 0.533175 0.037500 -0.290749
v 0.538898 0.037500 -0.151520
v 0.512442 0.037500 -0.059261
v 0.441540 0.037500 -0.051479
v 0.349511 0.037500 -0.083801
v 0.268568 0.037500 -0.091393
v 0.225656 0.037500 -0.030121
v 0.226642 0.037500 0.061302
v 0.272124 0.037500 0.123455
v 0.356911 0.037500 0.117039
v 0.452623 0.037500 0.083157
v 0.525092 0.037500 0.083038
v 0.549711 0.037500 0.159096
v 0.540127 0.037500 0.278511
v 0.501224 0.037500 0.479488
v 0.288812 0.037500 0.458073
v 0.161860 0.037500 0.457539
v 0.079321 0.037500 0.484886
v 0.075376 0.037500 0.549568
v 0.105593 0.037500 0.629189
v 0.105887 0.037500 0.693386
v 0.033280 0.037500 0.718063
v -0.070786 0.037500 0.704136
v -0.143762 0.037500 0.658779
v -0.143908 0.037500 0.591518
v -0.112721 0.037500 0.521225
v -0.112508 0.037500 0.469112
v -0.186749 0.037500 0.450249
v -0.500474 0.037500 0.479488
v -0.534575 -0.037498 0.277439
v -0.543586 -0.037498 0.156670
v -0.523782 -0.037500 0.078121
v -0.463457 -0.037500 0.074356
v -0.383074 -0.037500 0.103451
v -0.311138 -0.037500 0.104839
v -0.271682 -0.037500 0.037972
v -0.270852 -0.037500 -0.057713
v -0.310317 -0.037500 -0.122765
v -0.386142 -0.037500 -0.118175
v -0.471959 -0.037500 -0.086712
v -0.535794 -0.037500 -0.091576
v -0.554716 -0.037500 -0.176319
v -0.541971 -0.037500 -0.305927
v -0.500474 -0.037498 -0.522419
v -0.176144 -0.037500 -0.576237
v -0.099721 -0.037500 -0.560886
v -0.100853 -0.037500 -0.504295
v -0.135680 -0.037498 -0.426941
v -0.141073 -0.037500 -0.357521
v -0.074770 -0.037500 -0.320210
v 0.022026 -0.037498 -0.321041
v 0.087239 -0.037500 -0.361526
v 0.080173 -0.037500 -0.437473
v 0.045633 -0.037500 -0.521873
v 0.049802 -0.037500 -0.582012
v 0.138245 -0.037500 -0.594688
v 0.501224 -0.037498 -0.522419
v 0.533175 -0.037500 -0.290749
v 0.538898 -0.037498 -0.151520
v 0.512442 -0.037498 -0.059261
v 0.441540 -0.037500 -0.051479
v 0.349511 -0.037500 -0.083801
v 0.268568 -0.037500 -0.091393
v 0.225656 -0.037500 -0.030121
v 0.226642 -0.037498 0.061302
v 0.272124 -0.037500 0.123455
v 0.356911 -0.037498 0.117039
v 0.452623 -0.037498 0.083157
v 0.525092 -0.037500 0.083038
v 0.549711 -0.037500 0.159096
v 0.540127 -0.037498 0.278511
v 0.501224 -0.037500 0.479488
v 0.288812 -0.037500 0.458073
v 0.161860 -0.037500 0.457539
v 0.079321 -0.037500 0.484886
v 0.075376 -0.037500 0.549568
v 0.105593 -0.037500 0.629189
v 0.105887 -0.037500 0.693386
v 0.033280 -0.037500 0.718063
v -0.070786 -0.037500 0.704136
v -0.143762 -0.037498 0.658779
v -0.143908 -0.037498 0.591518
v -0.112721 -0.037498 0.521225
v -0.112508 -0.037500 0.469112
v -0.186749 -0.037498 0.450249
v -0.500474 -0.037500 0.479488
v -0.535794 0.037500 -0.091576
v -0.535794 0.037500 -0.091576
v -0.554716 0.037500 -0.176319
v -0.541971 0.037500 -0.305927
v -0.534575 0.037500 0.277439
v -0.543586 0.037500 0.156670
v -0.523782 0.037500 0.078121
v -0.523782 0.037500 0.078121
v -0.471959 0.037500 -0.086712
v -0.463457 0.037500 0.074356
v -0.500474 0.037500 -0.522419
v -0.500474 0.037500 -0.522419
v -0.500474 0.037500 0.479488
v -0.500474 0.037500 0.479488
v -0.386142 0.037500 -0.118175
v -0.383074 0.037500 0.103451
v -0.310317 0.037500 -0.122765
v -0.310317 0.037500 -0.122765
v -0.311138 0.037500 0.104839
v -0.311138 0.037500 0.104839
v -0.271682 0.037500 0.037972
v -0.270852 0.037500 -0.057713
v -0.186749 0.037500 0.450249
v -0.176144 0.037500 -0.576237
v -0.112508 0.037500 0.469112
v -0.112508 0.037500 0.469112
v -0.135680 0.037500 -0.426941
v -0.141073 0.037500 -0.357521
v -0.141073 0.037500 -0.357521
v -0.099721 0.037500 -0.560886
v -0.099721 0.037500 -0.560886
v -0.143762 0.037500 0.658779
v -0.143908 0.037500 0.591518
v -0.112721 0.037500 0.521225
v -0.070786 0.037500 0.704136
v -0.074770 0.037500 -0.320210
v -0.100853 0.037500 -0.504295
v 0.022026 0.037500 -0.321041
v 0.033280 0.037500 0.718063
v 0.087239 0.037500 -0.361526
v 0.087239 0.037500 -0.361526
v 0.105887 0.037500 0.693386
v 0.105887 0.037500 0.693386
v 0.080173 0.037500 -0.437473
v 0.045633 0.037500 -0.521873
v 0.049802 0.037500 -0.582012
v 0.049802 0.037500 -0.582012
v 0.138245 0.037500 -0.594688
v 0.105593 0.037500 0.629189
v 0.075376 0.037500 0.549568
v 0.079321 0.037500 0.484886
v 0.079321 0.037500 0.484886
v 0.161860 0.037500 0.457539
v 0.288812 0.037500 0.458073
v 0.225656 0.037500 -0.030121
v 0.226642 0.037500 0.061302
v 0.268568 0.037500 -0.091393
v 0.268568 0.037500 -0.091393
v 0.272124 0.037500 0.123455
v 0.349511 0.037500 -0.083801
v 0.356911 0.037500 0.117039
v 0.441540 0.037500 -0.051479
v 0.452623 0.037500 0.083157
v 0.501224 0.037500 0.479488
v 0.501224 0.037500 0.479488
v 0.512442 0.037500 -0.059261
v 0.512442 0.037500 -0.059261
v 0.525092 0.037500 0.083038
v 0.525092 0.037500 0.083038
v 0.501224 0.037500 -0.522419
v 0.501224 0.037500 -0.522419
v 0.538898 0.037500 -0.151520
v 0.533175 0.037500 -0.290749
v 0.540127 0.037500 0.278511
v 0.549711 0.037500 0.159096
v -0.535794 -0.037500 -0.091576
v -0.535794 -0.037500 -0.091576
v -0.554716 -0.037500 -0.176319
v -0.541971 -0.037500 -0.305927
v -0.534575 -0.037498 0.277439
v -0.543586 -0.037498 0.156670
v -0.523782 -0.037500 0.078121
v -0.523782 -0.037500 0.078121
v -0.471959 -0.037500 -0.086712
v -0.463457 -0.037500 0.074356
v -0.500474 -0.037498 -0.522419
v -0.500474 -0.037498 -0.522419
v -0.500474 -0.037500 0.479488
v -0.500474 -0.037500 0.479488
v -0.386142 -0.037500 -0.118175
v -0.383074 -0.037500 0.103451
v -0.310317 -0.037500 -0.122765
v -0.310317 -0.037500 -0.122765
v -0.311138 -0.037500 0.104839
v -0.311138 -0.037500 0.104839
v -0.271682 -0.037500 0.037972
v -0.270852 -0.037500 -0.057713
v -0.186749 -0.037498 0.450249
v -0.176144 -0.037500 -0.576237
v -0.112508 -0.037500 0.469112
v -0.112508 -0.037500 0.469112
v -0.135680 -0.037498 -0.426941
v -0.141073 -0.037500 -0.357521
v -0.141073 -0.037500 -0.357521
v -0.099721 -0.037500 -0.560886
v -0.099721 -0.037500 -0.560886
v -0.143762 -0.037498 0.658779
v -0.143908 -0.037498 0.591518
v -0.112721 -0.037498 0.521225
v -0.070786 -0.037500 0.704136
v -0.074770 -0.037500 -0.320210
v -0.100853 -0.037500 -0.504295
v 0.022026 -0.037498 -0.321041
v 0.033280 -0.037500 0.718063
v 0.087239 -0.037500 -0.361526
v 0.087239 -0.037500 -0.361526
v 0.105887 -0.037500 0.693386
v 0.105887 -0.037500 0.693386
v 0.080173 -0.037500 -0.437473
v 0.045633 -0.037500 -0.521873
v 0.049802 -0.037500 -0.582012
v 0.049802 -0.037500 -0.582012
v 0.138245 -0.037500 -0.594688
v 0.105593 -0.037500 0.629189
v 0.075376 -0.037500 0.549568
v 0.079321 -0.037500 0.484886
v 0.079321 -0.037500 0.484886
v 0.161860 -0.037500 0.457539
v 0.288812 -0.037500 0.458073
v 0.225656 -0.037500 -0.030121
v 0.226642 -0.037498 0.061302
v 0.268568 -0.037500 -0.091393
v 0.268568 -0.037500 -0.091393
v 0.272124 -0.037500 0.123455
v 0.349511 -0.037500 -0.083801
v 0.356911 -0.037498 0.117039
v 0.441540 -0.037500 -0.051479
v 0.452623 -0.037498 0.083157
v 0.501224 -0.037500 0.479488
v 0.501224 -0.037500 0.479488
v 0.512442 -0.037498 -0.059261
v 0.512442 -0.037498 -0.059261
v 0.525092 -0.037500 0.083038
v 0.525092 -0.037500 0.083038
v 0.501224 -0.037498 -0.522419
v 0.501224 -0.037498 -0.522419
v 0.538898 -0.037498 -0.151520
v 0.533175 -0.037500 -0.290749
v 0.540127 -0.037498 0.278511
v 0.549711 -0.037500 0.159096
vt 0.500000 0.500000
vt 0.500000 0.500000
vt 0.500000 0.500000
vt 0.500000 0.500000
vt 0.500000 0.500000
vt 0.500000 0.500000
vt 0.500000 0.500000
vt 0.500000 0.500000
vt 0.500000 0.500000
vt 0.500000 0.500000
vt 0.500000 0.500000
vt 0.500000 0.500000
vt 0.500000 0.500000
vt 0.500000 0.500000
vt 0.500000 0.500000
vt 0.500000 0.500000
vt 0.500000 0.500000
vt 0.500000 0.500000
vt 0.500000 0.500000
vt 0.500000 0.500000
vt 0.500000 0.500000
vt 0.500000 0.500000
vt 0.500000 0.500000
vt 0.500000 0.500000
vt 0.500000 0.500000
vt 0.500000 0.500000
vt 0.500000 0.500000
vt 0.500000 0.500000
vt 0.500000 0.500000
vt 0.500000 0.500000
vt 0.500000 0.500000
vt 0.500000 0.500000
vt 0.500000 0.500000
vt 0.500000 0.500000
vt 0.500000 0.500000
vt 0.500000 0.500000
vt 0.500000 0.500000
vt 0.500000 0.500000
vt 0.500000 0.500000
vt 0.500000 0.500000
vt 0.500000 0.500000
vt 0.500000 0.500000
vt 0.500000 0.500000
vt 0.500000 0.500000
vt 0.500000 0.500000
vt 0.500000 0.500000
vt 0.500000 0.500000
vt 0.500000 0.500000
vt 0.500000 0.500000
vt 0.500000 0.500000
vt 0.500000 0.500000
vt 0.500000 0.500000
vt 0.500000 0.500000
vt 0.500000 0.500000
vt 0.500000 0.500000
vt 0.500000 0.500000
vt 0.500000 0.500000
vt 0.500000 0.500000
vt 0.500000 0.500000
vt 0.500000 0.500000
vt 0.500000 0.500000
vt 0.500000 0.500000
vt 0.500000 0.500000
vt 0.500000 0.500000
vt 0.500000 0.500000
vt 0.500000 0.500000
vt 0.500000 0.500000
vt 0.500000 0.500000
vt 0.500000 0.500000
vt 0.500000 0.500000
vt 0.500000 0.500000
vt 0.500000 0.500000
vt 0.500000 0.500000
vt 0.500000 0.500000
vt 0.500000 0.500000
vt 0.500000 0.500000
vt 0.500000 0.500000
vt 0.500000 0.500000
vt 0.500000 0.500000
vt 0.500000 0.500000
vt 0.500000 0.500000
vt 0.500000 0.500000
vt 0.500000 0.500000
vt 0.500000 0.500000
vt 0.500000 0.500000
vt 0.500000 0.500000
vt 0.500000 0.500000
vt 0.500000 0.500000
vt 0.500000 0.500000
vt 0.500000 0.500000
vt 0.500000 0.500000
vt 0.500000 0.500000
vt 0.500000 0.500000
vt 0.500000 0.500000
vt 0.500000 0.500000
vt 0.500000 0.500000
vt 0.500000 0.500000
vt 0.500000 0.500000
vt 0.500000 0.500000
vt 0.500000 0.500000
vt 0.500000 0.500000
vt 0.500000 0.500000
vt 0.500000 0.500000
vt 0.500000 0.500000
vt 0.500000 0.500000
vt 0.500000 0.500000
vt 0.500000 0.500000
vt 0.500000 0.500000
vt 0.500000 0.500000
vt 0.500000 0.500000
vt 0.500000 0.500000
vt 0.500000 0.500000
vt 0.500000 0.500000
vt 0.500000 0.500000
vt 0.500000 0.500000
vt 0.500000 0.500000
vt 0.500000 0.500000
vt 0.500000 0.500000
vt 0.500000 0.500000
vt 0.500000 0.500000
vt 0.500000 0.500000
vt 0.500000 0.500000
vt 0.500000 0.500000
vt 0.500000 0.500000
vt 0.500000 0.500000
vt 0.500000 0.500000
vt 0.500000 0.500000
vt 0.500000 0.500000
vt 0.500000 0.500000
vt 0.500000 0.500000
vt 0.500000 0.500000
vt 0.500000 0.500000
vt 0.500000 0.500000
vt 0.500000 0.500000
vt 0.500000 0.500000
vt 0.500000 0.500000
vt 0.500000 0.500000
vt 0.500000 0.500000
vt 0.500000 0.500000
vt 0.500000 0.500000
vt 0.500000 0.500000
vt 0.500000 0.500000
vt 0.500000 0.500000
vt 0.500000 0.500000
vt 0.500000 0.500000
vt 0.500000 0.500000
vt 0.500000 0.500000
vt 0.500000 0.500000
vt 0.500000 0.500000
vt 0.500000 0.500000
vt 0.500000 0.500000
vt 0.500000 0.500000
vt 0.500000 0.500000
vt 0.500000 0.500000
vt 0.500000 0.500000
vt 0.500000 0.500000
vt 0.500000 0.500000
vt 0.500000 0.500000
vt 0.500000 0.500000
vt 0.500000 0.500000
vt 0.500000 0.500000
vt 0.500000 0.500000
vt 0.500000 0.500000
vt 0.500000 0.500000
vt 0.500000 0.500000
vt 0.500000 0.500000
vt 0.500000 0.500000
vt 0.500000 0.500000
vt 0.500000 0.500000
vt 0.500000 0.500000
vt 0.500000 0.500000
vt 0.500000 0.500000
vt 0.500000 0.500000
vt 0.500000 0.500000
vt 0.500000 0.500000
vt 0.500000 0.500000
vt 0.500000 0.500000
vt 0.500000 0.500000
vt 0.500000 0.500000
vt 0.500000 0.500000
vt 0.500000 0.500000
vt 0.500000 0.500000
vt 0.500000 0.500000
vt 0.500000 0.500000
vt 0.500000 0.500000
vt 0.500000 0.500000
vt 0.500000 0.500000
vt 0.500000 0.500000
vt 0.500000 0.500000
vt 0.500000 0.500000
vt 0.500000 0.500000
vt 0.500000 0.500000
vt 0.500000 0.500000
vt 0.500000 0.500000
vt 0.500000 0.500000
vt 0.500000 0.500000
vt 0.500000 0.500000
vt 0.500000 0.500000
vt 0.500000 0.500000
vt 0.500000 0.500000
vt 0.500000 0.500000
vt 0.500000 0.500000
vt 0.500000 0.500000
vt 0.500000 0.500000
vt 0.500000 0.500000
vt 0.500000 0.500000
vt 0.500000 0.500000
vt 0.540007 0.932470
vt 0.541497 0.932258
vt 0.542022 0.936535
vt 0.547110 0.932625
vt 0.547993 0.942517
vt 0.544622 0.938495
vt 0.547487 0.943964
vt 0.537433 0.942693
vt 0.537774 0.940862
vt 0.542717 0.939425
vt 0.544124 0.934657
vt 0.544222 0.933085
vt 0.545373 0.932498
vt 0.537865 0.948596
vt 0.537629 0.946949
vt 0.542174 0.951355
vt 0.537500 0.933333
vt 0.537767 0.938046
vt 0.535632 0.942110
vt 0.536626 0.942781
vt 0.534524 0.943714
vt 0.542445 0.934412
vt 0.548809 0.947463
vt 0.550671 0.948361
vt 0.550000 0.955556
vt 0.547477 0.946112
vt 0.547943 0.947583
vt 0.545014 0.951337
vt 0.547299 0.956476
vt 0.545682 0.956759
vt 0.544957 0.953019
vt 0.550902 0.941386
vt 0.550744 0.943348
vt 0.549993 0.943441
vt 0.541942 0.938416
vt 0.544202 0.950462
vt 0.544564 0.954923
vt 0.534831 0.942104
vt 0.541528 0.956512
vt 0.540021 0.956312
vt 0.542192 0.952951
vt 0.544528 0.936699
vt 0.543858 0.939447
vt 0.537500 0.955556
vt 0.543008 0.950480
vt 0.548940 0.942674
vt 0.544625 0.956339
vt 0.535263 0.947642
vt 0.534697 0.946023
vt 0.536102 0.947645
vt 0.536979 0.946953
vt 0.550000 0.933333
vt 0.549774 0.946690
vt 0.542554 0.954735
vt 0.542507 0.956073
vt 0.550480 0.946665
vt 0.542446 0.932804
vn -0.0000 -1.0000 0.0000
vn -0.9760 0.0000 0.2179
vn -0.9952 0.0000 -0.0979
vn -0.9972 0.0000 0.0744
vn -0.9697 0.0000 -0.2445
vn -0.0760 0.0000 0.9971
vn -0.0623 0.0000 -0.9981
vn -0.9821 0.0000 -0.1883
vn -0.9861 0.0000 0.1664
vn 0.3442 0.0000 0.9389
vn 0.3403 0.0000 -0.9403
vn 0.0604 0.0000 0.9982
vn 0.0193 0.0000 -0.9998
vn -0.8613 0.0000 -0.5082
vn -0.8550 0.0000 0.5187
vn 0.0928 0.0000 0.9957
vn -0.1637 0.0000 -0.9865
vn -1.0000 0.0000 -0.0087
vn -0.2463 0.0000 0.9692
vn 0.9970 0.0000 0.0775
vn 0.1969 0.0000 -0.9804
vn -1.0000 0.0000 0.0022
vn -0.9141 0.0000 -0.4055
vn -0.5279 0.0000 0.8493
vn 0.4904 0.0000 -0.8715
vn 0.9118 0.0000 0.4105
vn 0.9998 0.0000 0.0200
vn -1.0000 0.0000 -0.0041
vn -0.0086 0.0000 -1.0000
vn -0.1327 0.0000 0.9912
vn -0.5274 0.0000 -0.8496
vn 0.3218 0.0000 0.9468
vn -0.9255 0.0000 0.3787
vn -0.9976 0.0000 -0.0692
vn -0.1419 0.0000 -0.9899
vn 1.0000 0.0000 -0.0046
vn 0.9349 0.0000 -0.3548
vn 0.9981 0.0000 0.0609
vn 0.3145 0.0000 0.9493
vn -0.9957 0.0000 0.0926
vn -0.0042 0.0000 1.0000
vn 0.9999 0.0000 -0.0108
vn 0.8191 0.0000 0.5737
vn 0.8070 0.0000 -0.5905
vn -0.0934 0.0000 0.9956
vn -0.0755 0.0000 -0.9971
vn -0.3314 0.0000 0.9435
vn -0.3337 0.0000 -0.9427
vn -0.1003 0.0000 0.9950
vn 0.1091 0.0000 0.9940
vn -0.0016 0.0000 -1.0000
vn 0.1953 0.0000 -0.9807
vn 0.9613 0.0000 0.2757
vn 0.9992 0.0000 -0.0411
vn 0.9906 0.0000 -0.1366
vn 0.9818 0.0000 0.1900
vn 0.9968 0.0000 0.0800
vn 0.9514 0.0000 -0.3080
vn 0.0000 1.0000 0.0000
usemtl BackMat.001
s off
f 263/1/1 250/2/1 264/3/1
f 262/4/1 246/5/1 229/6/1
f 246/5/1 227/7/1 229/6/1
f 240/8/1 245/9/1 242/10/1
f 251/11/1 261/12/1 255/13/1
f 212/14/1 208/15/1 214/16/1
f 253/17/1 243/18/1 263/1/1
f 238/19/1 228/20/1 239/21/1
f 264/3/1 250/2/1 252/22/1
f 216/23/1 200/24/1 213/25/1
f 225/26/1 206/27/1 217/28/1
f 193/29/1 204/30/1 192/31/1
f 204/30/1 193/29/1 206/27/1
f 237/32/1 234/33/1 235/34/1
f 242/10/1 248/35/1 243/18/1
f 211/36/1 206/27/1 225/26/1
f 242/10/1 245/9/1 248/35/1
f 192/31/1 204/30/1 198/37/1
f 231/38/1 228/20/1 238/19/1
f 195/39/1 205/40/1 194/41/1
f 249/42/1 261/12/1 251/11/1
f 244/43/1 211/36/1 227/7/1
f 193/29/1 200/24/1 217/28/1
f 206/27/1 193/29/1 217/28/1
f 194/41/1 212/14/1 202/44/1
f 214/16/1 210/45/1 245/9/1
f 249/42/1 246/5/1 262/4/1
f 237/32/1 233/46/1 234/33/1
f 192/31/1 198/37/1 190/47/1
f 205/40/1 208/15/1 194/41/1
f 217/28/1 200/24/1 216/23/1
f 221/48/1 222/49/1 224/50/1
f 223/51/1 224/50/1 222/49/1
f 228/20/1 224/50/1 239/21/1
f 261/12/1 249/42/1 262/4/1
f 245/9/1 210/45/1 244/43/1
f 262/4/1 229/6/1 259/52/1
f 216/23/1 213/25/1 226/53/1
f 205/40/1 195/39/1 199/54/1
f 223/51/1 239/21/1 224/50/1
f 259/52/1 233/46/1 237/32/1
f 214/16/1 240/8/1 223/51/1
f 239/21/1 223/51/1 240/8/1
f 240/8/1 214/16/1 245/9/1
f 199/54/1 195/39/1 196/55/1
f 227/7/1 211/36/1 225/26/1
f 229/6/1 233/46/1 259/52/1
f 243/18/1 250/2/1 263/1/1
f 244/43/1 210/45/1 211/36/1
f 244/43/1 227/7/1 246/5/1
f 226/53/1 213/25/1 219/56/1
f 214/16/1 208/15/1 210/45/1
f 194/41/1 208/15/1 212/14/1
f 264/3/1 252/22/1 257/57/1
f 243/18/1 248/35/1 250/2/1
f 116/58/2 13/59/2 70/60/2 191/61/2
f 13/59/3 14/62/3 71/63/3 70/60/3
f 1/64/4 2/65/4 59/66/4 58/67/4
f 2/65/5 122/68/5 197/69/5 59/66/5
f 11/70/6 12/71/6 69/72/6 68/73/6
f 3/74/7 4/75/7 61/76/7 60/77/7
f 14/62/8 126/78/8 201/79/8 71/63/8
f 128/80/9 1/64/9 58/67/9 203/81/9
f 10/82/10 11/70/10 68/73/10 67/83/10
f 4/75/11 5/84/11 62/85/11 61/76/11
f 132/86/12 10/82/12 67/83/12 207/87/12
f 5/84/13 134/88/13 209/89/13 62/85/13
f 6/90/14 7/91/14 64/92/14 63/93/14
f 8/94/15 9/95/15 66/96/15 65/97/15
f 56/98/16 57/99/16 114/100/16 113/101/16
f 15/102/17 16/103/17 73/104/17 72/105/17
f 7/91/18 8/94/18 65/97/18 64/92/18
f 140/106/19 56/98/19 113/101/19 215/107/19
f 19/108/20 143/109/20 218/110/20 76/111/20
f 16/103/21 145/112/21 220/113/21 73/104/21
f 52/114/22 53/115/22 110/116/22 109/117/22
f 53/115/23 54/118/23 111/119/23 110/116/23
f 51/120/24 52/114/24 109/117/24 108/121/24
f 20/122/25 21/123/25 78/124/25 77/125/25
f 18/126/26 19/108/26 76/111/26 75/127/26
f 17/128/27 18/126/27 75/127/27 74/129/27
f 54/118/28 55/130/28 112/131/28 111/119/28
f 21/123/29 22/132/29 79/133/29 78/124/29
f 50/134/30 51/120/30 108/121/30 107/135/30
f 22/132/31 155/136/31 230/137/31 79/133/31
f 157/138/32 50/134/32 107/135/32 232/139/32
f 24/140/33 25/141/33 82/142/33 81/143/33
f 25/141/34 161/144/34 236/145/34 82/142/34
f 26/146/35 27/147/35 84/148/35 83/149/35
f 48/150/36 49/151/36 106/152/36 105/153/36
f 47/154/37 48/150/37 105/153/37 104/155/37
f 166/156/38 47/154/38 104/155/38 241/157/38
f 45/158/39 46/159/39 103/160/39 102/161/39
f 23/162/40 24/140/40 81/143/40 80/163/40
f 44/164/41 45/158/41 102/161/41 101/165/41
f 35/166/42 36/167/42 93/168/42 92/169/42
f 172/170/43 35/166/43 92/169/43 247/171/43
f 36/167/44 37/172/44 94/173/44 93/168/44
f 33/174/45 34/175/45 91/176/45 90/177/45
f 37/172/46 38/178/46 95/179/46 94/173/46
f 32/180/47 33/174/47 90/177/47 89/181/47
f 38/178/48 39/182/48 96/183/48 95/179/48
f 179/184/49 44/164/49 101/165/49 254/185/49
f 181/186/50 32/180/50 89/181/50 256/187/50
f 39/182/51 183/188/51 258/189/51 96/183/51
f 27/147/52 185/190/52 260/191/52 84/148/52
f 30/192/53 31/193/53 88/194/53 87/195/53
f 29/196/54 30/192/54 87/195/54 86/197/54
f 28/198/55 29/196/55 86/197/55 85/199/55
f 42/200/56 43/201/56 100/202/56 99/203/56
f 41/204/57 42/200/57 99/203/57 98/205/57
f 40/206/58 41/204/58 98/205/58 97/207/58
usemtl FrontMat.001
f 188/208/59 189/209/59 175/210/59
f 187/211/59 154/212/59 171/213/59
f 171/213/59 154/212/59 152/214/59
f 165/215/59 167/216/59 170/217/59
f 176/218/59 180/219/59 186/220/59
f 137/221/59 139/222/59 133/223/59
f 178/224/59 188/208/59 168/225/59
f 163/226/59 164/227/59 153/228/59
f 189/209/59 177/229/59 175/210/59
f 141/230/59 138/231/59 125/232/59
f 150/233/59 142/234/59 131/235/59
f 118/236/59 117/237/59 129/238/59
f 129/238/59 131/235/59 118/236/59
f 162/239/59 160/240/59 159/241/59
f 167/216/59 168/225/59 173/242/59
f 136/243/59 150/233/59 131/235/59
f 167/216/59 173/242/59 170/217/59
f 117/237/59 123/244/59 129/238/59
f 156/245/59 163/226/59 153/228/59
f 120/246/59 119/247/59 130/248/59
f 174/249/59 176/218/59 186/220/59
f 169/250/59 152/214/59 136/243/59
f 118/236/59 142/234/59 125/232/59
f 131/235/59 142/234/59 118/236/59
f 119/247/59 127/251/59 137/221/59
f 139/222/59 170/217/59 135/252/59
f 174/249/59 187/211/59 171/213/59
f 162/239/59 159/241/59 158/253/59
f 117/237/59 115/254/59 123/244/59
f 130/248/59 119/247/59 133/223/59
f 142/234/59 141/230/59 125/232/59
f 146/255/59 149/256/59 147/257/59
f 148/258/59 147/257/59 149/256/59
f 153/228/59 164/227/59 149/256/59
f 186/220/59 187/211/59 174/249/59
f 170/217/59 169/250/59 135/252/59
f 187/211/59 184/259/59 154/212/59
f 141/230/59 151/260/59 138/231/59
f 130/248/59 124/261/59 120/246/59
f 148/258/59 149/256/59 164/227/59
f 184/259/59 162/239/59 158/253/59
f 139/222/59 148/258/59 165/215/59
f 164/227/59 165/215/59 148/258/59
f 165/215/59 170/217/59 139/222/59
f 124/261/59 121/262/59 120/246/59
f 152/214/59 150/233/59 136/243/59
f 154/212/59 184/259/59 158/253/59
f 168/225/59 188/208/59 175/210/59
f 169/250/59 136/243/59 135/252/59
f 169/250/59 171/213/59 152/214/59
f 151/260/59 144/263/59 138/231/59
f 139/222/59 135/252/59 133/223/59
f 119/247/59 137/221/59 133/223/59
f 189/209/59 182/264/59 177/229/59
f 168/225/59 175/210/59 173/242/59
