# Blender v2.83.1 OBJ File: 'jigsaw-80x45-3-step2.blend'
# www.blender.org
mtllib piece.3428.mtl
o path6856
v -0.276302 0.037500 -0.438332
v -0.148613 0.037500 -0.429413
v -0.065807 0.037500 -0.449806
v -0.062412 0.037500 -0.511681
v -0.093971 0.037500 -0.595985
v -0.096279 0.037500 -0.675835
v -0.026211 0.037500 -0.727776
v 0.075005 0.037500 -0.742104
v 0.145054 0.037500 -0.712563
v 0.142536 0.037500 -0.639542
v 0.109756 0.037500 -0.550041
v 0.109932 0.037500 -0.477707
v 0.187027 0.037500 -0.447350
v 0.308010 0.037500 -0.448250
v 0.511597 0.037500 -0.472656
v 0.465679 0.037500 -0.266708
v 0.449326 0.037500 -0.143532
v 0.463718 0.037500 -0.063263
v 0.522751 0.037500 -0.059357
v 0.606056 0.037500 -0.090660
v 0.684715 0.037500 -0.097382
v 0.733822 0.037500 -0.038933
v 0.744629 0.037500 0.048325
v 0.712421 0.037500 0.108810
v 0.638935 0.037500 0.106117
v 0.551735 0.037500 0.080627
v 0.484837 0.037500 0.091896
v 0.462910 0.037500 0.180588
v 0.473190 0.037500 0.311935
v 0.511597 0.037500 0.529251
v 0.308830 0.037500 0.570656
v 0.187950 0.037500 0.582611
v 0.110046 0.037500 0.561501
v 0.108116 0.037500 0.493439
v 0.140400 0.037500 0.400963
v 0.146446 0.037500 0.315727
v 0.085361 0.037500 0.264961
v -0.005634 0.037500 0.258301
v -0.069775 0.037500 0.300972
v -0.069691 0.037500 0.390633
v -0.045593 0.037500 0.494606
v -0.057083 0.037500 0.572662
v -0.144985 0.037500 0.595818
v -0.275024 0.037500 0.580154
v -0.490101 0.037500 0.529251
v -0.454578 0.037500 0.298531
v -0.446850 0.037500 0.160057
v -0.472290 0.037500 0.068741
v -0.543770 0.037500 0.061951
v -0.637146 0.037500 0.094940
v -0.718983 0.037500 0.102425
v -0.761848 0.037500 0.040016
v -0.762348 0.037500 -0.053009
v -0.723087 0.037500 -0.116486
v -0.650711 0.037500 -0.110558
v -0.568211 0.037500 -0.076553
v -0.502628 0.037500 -0.076134
v -0.473724 0.037500 -0.152061
v -0.472145 0.037500 -0.271515
v -0.490101 0.037500 -0.472656
v -0.276302 -0.037500 -0.438332
v -0.148613 -0.037500 -0.429413
v -0.065807 -0.037500 -0.449806
v -0.062412 -0.037498 -0.511681
v -0.093971 -0.037500 -0.595985
v -0.096279 -0.037500 -0.675835
v -0.026211 -0.037500 -0.727776
v 0.075005 -0.037498 -0.742104
v 0.145054 -0.037500 -0.712563
v 0.142536 -0.037500 -0.639542
v 0.109756 -0.037500 -0.550041
v 0.109932 -0.037500 -0.477707
v 0.187027 -0.037498 -0.447350
v 0.308010 -0.037498 -0.448250
v 0.511597 -0.037500 -0.472656
v 0.465679 -0.037500 -0.266708
v 0.449326 -0.037500 -0.143532
v 0.463718 -0.037500 -0.063263
v 0.522751 -0.037500 -0.059357
v 0.606056 -0.037498 -0.090660
v 0.684715 -0.037500 -0.097382
v 0.733822 -0.037500 -0.038933
v 0.744629 -0.037500 0.048325
v 0.712421 -0.037500 0.108810
v 0.638935 -0.037500 0.106117
v 0.551735 -0.037500 0.080627
v 0.484837 -0.037500 0.091896
v 0.462910 -0.037498 0.180588
v 0.473190 -0.037500 0.311935
v 0.511597 -0.037500 0.529251
v 0.308830 -0.037498 0.570656
v 0.187950 -0.037500 0.582611
v 0.110046 -0.037500 0.561501
v 0.108116 -0.037500 0.493439
v 0.140400 -0.037500 0.400963
v 0.146446 -0.037500 0.315727
v 0.085361 -0.037498 0.264961
v -0.005634 -0.037500 0.258301
v -0.069775 -0.037500 0.300972
v -0.069691 -0.037500 0.390633
v -0.045593 -0.037498 0.494606
v -0.057083 -0.037500 0.572662
v -0.144985 -0.037500 0.595818
v -0.275024 -0.037500 0.580154
v -0.490101 -0.037500 0.529251
v -0.454578 -0.037498 0.298531
v -0.446850 -0.037500 0.160057
v -0.472290 -0.037500 0.068741
v -0.543770 -0.037500 0.061951
v -0.637146 -0.037500 0.094940
v -0.718983 -0.037500 0.102425
v -0.761848 -0.037500 0.040016
v -0.762348 -0.037498 -0.053009
v -0.723087 -0.037500 -0.116486
v -0.650711 -0.037500 -0.110558
v -0.568211 -0.037500 -0.076553
v -0.502628 -0.037500 -0.076134
v -0.473724 -0.037500 -0.152061
v -0.472145 -0.037500 -0.271515
v -0.490101 -0.037500 -0.472656
v 0.733822 0.037500 -0.038933
v 0.744629 0.037500 0.048325
v 0.712421 0.037500 0.108810
v 0.712421 0.037500 0.108810
v 0.684715 0.037500 -0.097382
v 0.638935 0.037500 0.106117
v 0.606056 0.037500 -0.090660
v 0.551735 0.037500 0.080627
v 0.522751 0.037500 -0.059357
v 0.484837 0.037500 0.091896
v 0.484837 0.037500 0.091896
v 0.463718 0.037500 -0.063263
v 0.463718 0.037500 -0.063263
v 0.473190 0.037500 0.311935
v 0.511597 0.037500 0.529251
v 0.511597 0.037500 0.529251
v 0.511597 0.037500 -0.472656
v 0.511597 0.037500 -0.472656
v 0.465679 0.037500 -0.266708
v 0.462910 0.037500 0.180588
v 0.449326 0.037500 -0.143532
v 0.308830 0.037500 0.570656
v 0.308010 0.037500 -0.448250
v 0.187950 0.037500 0.582611
v 0.187027 0.037500 -0.447350
v 0.140400 0.037500 0.400963
v 0.146446 0.037500 0.315727
v 0.110046 0.037500 0.561501
v 0.110046 0.037500 0.561501
v 0.109932 0.037500 -0.477707
v 0.109932 0.037500 -0.477707
v 0.085361 0.037500 0.264961
v 0.075005 0.037500 -0.742104
v 0.145054 0.037500 -0.712563
v 0.145054 0.037500 -0.712563
v 0.142536 0.037500 -0.639542
v 0.109756 0.037500 -0.550041
v 0.108116 0.037500 0.493439
v -0.005634 0.037500 0.258301
v -0.026211 0.037500 -0.727776
v -0.069775 0.037500 0.300972
v -0.096279 0.037500 -0.675835
v -0.069691 0.037500 0.390633
v -0.045593 0.037500 0.494606
v -0.057083 0.037500 0.572662
v -0.057083 0.037500 0.572662
v -0.144985 0.037500 0.595818
v -0.093971 0.037500 -0.595985
v -0.062412 0.037500 -0.511681
v -0.065807 0.037500 -0.449806
v -0.065807 0.037500 -0.449806
v -0.148613 0.037500 -0.429413
v -0.275024 0.037500 0.580154
v -0.276302 0.037500 -0.438332
v -0.446850 0.037500 0.160057
v -0.472290 0.037500 0.068741
v -0.472290 0.037500 0.068741
v -0.454578 0.037500 0.298531
v -0.490101 0.037500 0.529251
v -0.490101 0.037500 0.529251
v -0.490101 0.037500 -0.472656
v -0.490101 0.037500 -0.472656
v -0.473724 0.037500 -0.152061
v -0.472145 0.037500 -0.271515
v -0.543770 0.037500 0.061951
v -0.502628 0.037500 -0.076134
v -0.502628 0.037500 -0.076134
v -0.568211 0.037500 -0.076553
v -0.637146 0.037500 0.094940
v -0.650711 0.037500 -0.110558
v -0.718983 0.037500 0.102425
v -0.718983 0.037500 0.102425
v -0.723087 0.037500 -0.116486
v -0.723087 0.037500 -0.116486
v -0.761848 0.037500 0.040016
v -0.762348 0.037500 -0.053009
v 0.733822 -0.037500 -0.038933
v 0.744629 -0.037500 0.048325
v 0.712421 -0.037500 0.108810
v 0.712421 -0.037500 0.108810
v 0.684715 -0.037500 -0.097382
v 0.638935 -0.037500 0.106117
v 0.606056 -0.037498 -0.090660
v 0.551735 -0.037500 0.080627
v 0.522751 -0.037500 -0.059357
v 0.484837 -0.037500 0.091896
v 0.484837 -0.037500 0.091896
v 0.463718 -0.037500 -0.063263
v 0.463718 -0.037500 -0.063263
v 0.473190 -0.037500 0.311935
v 0.511597 -0.037500 0.529251
v 0.511597 -0.037500 0.529251
v 0.511597 -0.037500 -0.472656
v 0.511597 -0.037500 -0.472656
v 0.465679 -0.037500 -0.266708
v 0.462910 -0.037498 0.180588
v 0.449326 -0.037500 -0.143532
v 0.308830 -0.037498 0.570656
v 0.308010 -0.037498 -0.448250
v 0.187950 -0.037500 0.582611
v 0.187027 -0.037498 -0.447350
v 0.140400 -0.037500 0.400963
v 0.146446 -0.037500 0.315727
v 0.110046 -0.037500 0.561501
v 0.110046 -0.037500 0.561501
v 0.109932 -0.037500 -0.477707
v 0.109932 -0.037500 -0.477707
v 0.085361 -0.037498 0.264961
v 0.075005 -0.037498 -0.742104
v 0.145054 -0.037500 -0.712563
v 0.145054 -0.037500 -0.712563
v 0.142536 -0.037500 -0.639542
v 0.109756 -0.037500 -0.550041
v 0.108116 -0.037500 0.493439
v -0.005634 -0.037500 0.258301
v -0.026211 -0.037500 -0.727776
v -0.069775 -0.037500 0.300972
v -0.096279 -0.037500 -0.675835
v -0.069691 -0.037500 0.390633
v -0.045593 -0.037498 0.494606
v -0.057083 -0.037500 0.572662
v -0.057083 -0.037500 0.572662
v -0.144985 -0.037500 0.595818
v -0.093971 -0.037500 -0.595985
v -0.062412 -0.037498 -0.511681
v -0.065807 -0.037500 -0.449806
v -0.065807 -0.037500 -0.449806
v -0.148613 -0.037500 -0.429413
v -0.275024 -0.037500 0.580154
v -0.276302 -0.037500 -0.438332
v -0.446850 -0.037500 0.160057
v -0.472290 -0.037500 0.068741
v -0.472290 -0.037500 0.068741
v -0.454578 -0.037498 0.298531
v -0.490101 -0.037500 0.529251
v -0.490101 -0.037500 0.529251
v -0.490101 -0.037500 -0.472656
v -0.490101 -0.037500 -0.472656
v -0.473724 -0.037500 -0.152061
v -0.472145 -0.037500 -0.271515
v -0.543770 -0.037500 0.061951
v -0.502628 -0.037500 -0.076134
v -0.502628 -0.037500 -0.076134
v -0.568211 -0.037500 -0.076553
v -0.637146 -0.037500 0.094940
v -0.650711 -0.037500 -0.110558
v -0.718983 -0.037500 0.102425
v -0.718983 -0.037500 0.102425
v -0.723087 -0.037500 -0.116486
v -0.723087 -0.037500 -0.116486
v -0.761848 -0.037500 0.040016
v -0.762348 -0.037498 -0.053009
vt 0.500000 0.500000
vt 0.500000 0.500000
vt 0.500000 0.500000
vt 0.500000 0.500000
vt 0.500000 0.500000
vt 0.500000 0.500000
vt 0.500000 0.500000
vt 0.500000 0.500000
vt 0.500000 0.500000
vt 0.500000 0.500000
vt 0.500000 0.500000
vt 0.500000 0.500000
vt 0.500000 0.500000
vt 0.500000 0.500000
vt 0.500000 0.500000
vt 0.500000 0.500000
vt 0.500000 0.500000
vt 0.500000 0.500000
vt 0.500000 0.500000
vt 0.500000 0.500000
vt 0.500000 0.500000
vt 0.500000 0.500000
vt 0.500000 0.500000
vt 0.500000 0.500000
vt 0.500000 0.500000
vt 0.500000 0.500000
vt 0.500000 0.500000
vt 0.500000 0.500000
vt 0.500000 0.500000
vt 0.500000 0.500000
vt 0.500000 0.500000
vt 0.500000 0.500000
vt 0.500000 0.500000
vt 0.500000 0.500000
vt 0.500000 0.500000
vt 0.500000 0.500000
vt 0.500000 0.500000
vt 0.500000 0.500000
vt 0.500000 0.500000
vt 0.500000 0.500000
vt 0.500000 0.500000
vt 0.500000 0.500000
vt 0.500000 0.500000
vt 0.500000 0.500000
vt 0.500000 0.500000
vt 0.500000 0.500000
vt 0.500000 0.500000
vt 0.500000 0.500000
vt 0.500000 0.500000
vt 0.500000 0.500000
vt 0.500000 0.500000
vt 0.500000 0.500000
vt 0.500000 0.500000
vt 0.500000 0.500000
vt 0.500000 0.500000
vt 0.500000 0.500000
vt 0.500000 0.500000
vt 0.500000 0.500000
vt 0.500000 0.500000
vt 0.500000 0.500000
vt 0.500000 0.500000
vt 0.500000 0.500000
vt 0.500000 0.500000
vt 0.500000 0.500000
vt 0.500000 0.500000
vt 0.500000 0.500000
vt 0.500000 0.500000
vt 0.500000 0.500000
vt 0.500000 0.500000
vt 0.500000 0.500000
vt 0.500000 0.500000
vt 0.500000 0.500000
vt 0.500000 0.500000
vt 0.500000 0.500000
vt 0.500000 0.500000
vt 0.500000 0.500000
vt 0.500000 0.500000
vt 0.500000 0.500000
vt 0.500000 0.500000
vt 0.500000 0.500000
vt 0.500000 0.500000
vt 0.500000 0.500000
vt 0.500000 0.500000
vt 0.500000 0.500000
vt 0.500000 0.500000
vt 0.500000 0.500000
vt 0.500000 0.500000
vt 0.500000 0.500000
vt 0.500000 0.500000
vt 0.500000 0.500000
vt 0.500000 0.500000
vt 0.500000 0.500000
vt 0.500000 0.500000
vt 0.500000 0.500000
vt 0.500000 0.500000
vt 0.500000 0.500000
vt 0.500000 0.500000
vt 0.500000 0.500000
vt 0.500000 0.500000
vt 0.500000 0.500000
vt 0.500000 0.500000
vt 0.500000 0.500000
vt 0.500000 0.500000
vt 0.500000 0.500000
vt 0.500000 0.500000
vt 0.500000 0.500000
vt 0.500000 0.500000
vt 0.500000 0.500000
vt 0.500000 0.500000
vt 0.500000 0.500000
vt 0.500000 0.500000
vt 0.500000 0.500000
vt 0.500000 0.500000
vt 0.500000 0.500000
vt 0.500000 0.500000
vt 0.500000 0.500000
vt 0.500000 0.500000
vt 0.500000 0.500000
vt 0.500000 0.500000
vt 0.500000 0.500000
vt 0.500000 0.500000
vt 0.500000 0.500000
vt 0.500000 0.500000
vt 0.500000 0.500000
vt 0.500000 0.500000
vt 0.500000 0.500000
vt 0.500000 0.500000
vt 0.500000 0.500000
vt 0.500000 0.500000
vt 0.500000 0.500000
vt 0.500000 0.500000
vt 0.500000 0.500000
vt 0.500000 0.500000
vt 0.500000 0.500000
vt 0.500000 0.500000
vt 0.500000 0.500000
vt 0.500000 0.500000
vt 0.500000 0.500000
vt 0.500000 0.500000
vt 0.500000 0.500000
vt 0.500000 0.500000
vt 0.500000 0.500000
vt 0.500000 0.500000
vt 0.500000 0.500000
vt 0.500000 0.500000
vt 0.500000 0.500000
vt 0.500000 0.500000
vt 0.500000 0.500000
vt 0.500000 0.500000
vt 0.500000 0.500000
vt 0.500000 0.500000
vt 0.500000 0.500000
vt 0.500000 0.500000
vt 0.500000 0.500000
vt 0.500000 0.500000
vt 0.500000 0.500000
vt 0.500000 0.500000
vt 0.500000 0.500000
vt 0.500000 0.500000
vt 0.500000 0.500000
vt 0.500000 0.500000
vt 0.500000 0.500000
vt 0.500000 0.500000
vt 0.500000 0.500000
vt 0.500000 0.500000
vt 0.500000 0.500000
vt 0.500000 0.500000
vt 0.500000 0.500000
vt 0.500000 0.500000
vt 0.500000 0.500000
vt 0.500000 0.500000
vt 0.500000 0.500000
vt 0.500000 0.500000
vt 0.500000 0.500000
vt 0.500000 0.500000
vt 0.500000 0.500000
vt 0.500000 0.500000
vt 0.500000 0.500000
vt 0.500000 0.500000
vt 0.500000 0.500000
vt 0.500000 0.500000
vt 0.500000 0.500000
vt 0.500000 0.500000
vt 0.500000 0.500000
vt 0.500000 0.500000
vt 0.500000 0.500000
vt 0.500000 0.500000
vt 0.500000 0.500000
vt 0.500000 0.500000
vt 0.500000 0.500000
vt 0.500000 0.500000
vt 0.500000 0.500000
vt 0.500000 0.500000
vt 0.500000 0.500000
vt 0.500000 0.500000
vt 0.500000 0.500000
vt 0.500000 0.500000
vt 0.500000 0.500000
vt 0.500000 0.500000
vt 0.500000 0.500000
vt 0.500000 0.500000
vt 0.500000 0.500000
vt 0.500000 0.500000
vt 0.500000 0.500000
vt 0.500000 0.500000
vt 0.500000 0.500000
vt 0.500000 0.500000
vt 0.500000 0.500000
vt 0.500000 0.500000
vt 0.500000 0.500000
vt 0.500000 0.500000
vt 0.500000 0.500000
vt 0.843896 0.038416
vt 0.842018 0.040881
vt 0.842736 0.038405
vt 0.844675 0.039367
vt 0.844582 0.041182
vt 0.847121 0.045232
vt 0.850000 0.044444
vt 0.850635 0.049216
vt 0.842266 0.068762
vt 0.844403 0.067557
vt 0.844721 0.069492
vt 0.844755 0.071122
vt 0.844000 0.071836
vt 0.835418 0.058479
vt 0.834138 0.056981
vt 0.834317 0.054736
vt 0.842442 0.042712
vt 0.844544 0.066073
vt 0.842608 0.065605
vt 0.846703 0.057211
vt 0.845394 0.045404
vt 0.847152 0.053769
vt 0.838040 0.052020
vt 0.841500 0.044808
vt 0.846620 0.055192
vt 0.848271 0.053771
vt 0.844255 0.044840
vt 0.850517 0.062168
vt 0.847289 0.065815
vt 0.848400 0.058432
vt 0.840069 0.065648
vt 0.837805 0.062150
vt 0.837816 0.059466
vt 0.841606 0.065285
vt 0.850000 0.066667
vt 0.850831 0.052101
vt 0.849568 0.054306
vt 0.842447 0.044167
vt 0.844170 0.043254
vt 0.847336 0.058566
vt 0.845650 0.065587
vt 0.842656 0.066914
vt 0.850542 0.054051
vt 0.837928 0.049188
vt 0.837500 0.044444
vt 0.840009 0.044843
vt 0.837437 0.057756
vt 0.837013 0.053933
vt 0.837785 0.053857
vt 0.850666 0.059487
vt 0.834507 0.058535
vt 0.842911 0.071597
vt 0.841944 0.039276
vt 0.836535 0.057752
vt 0.835961 0.053232
vt 0.837500 0.066667
vt 0.834965 0.053181
vt 0.850402 0.057758
vt 0.849553 0.057716
vt 0.842182 0.070507
vn -0.0000 -1.0000 -0.0000
vn 0.0000 -1.0000 0.0001
vn 0.9924 0.0000 -0.1229
vn 0.8827 0.0000 0.4700
vn 0.7656 0.0000 -0.6433
vn -0.0366 0.0000 0.9993
vn -0.0851 0.0000 -0.9964
vn -0.2806 0.0000 0.9598
vn -0.3518 0.0000 -0.9361
vn 0.1661 0.0000 0.9861
vn 0.0660 0.0000 -0.9978
vn 0.9847 0.0000 -0.1740
vn 0.9760 0.0000 0.2176
vn 0.9708 0.0000 0.2400
vn 0.9970 0.0000 -0.0780
vn 0.9913 0.0000 0.1316
vn 0.9843 0.0000 -0.1765
vn 0.2001 0.0000 0.9798
vn -0.1190 0.0000 -0.9929
vn 0.0984 0.0000 0.9951
vn -0.0074 0.0000 -1.0000
vn -0.9975 0.0000 -0.0708
vn -0.2615 0.0000 0.9652
vn 0.3664 0.0000 -0.9305
vn -0.6392 0.0000 0.7691
vn 0.3886 0.0000 -0.9214
vn 0.9994 0.0000 0.0345
vn 0.9390 0.0000 0.3439
vn -0.9441 0.0000 -0.3296
vn -0.9996 0.0000 0.0283
vn 1.0000 0.0000 -0.0024
vn -0.0730 0.0000 0.9973
vn -0.1402 0.0000 -0.9901
vn 0.5539 0.0000 0.8326
vn -0.5955 0.0000 -0.8033
vn 0.9742 0.0000 -0.2258
vn 0.9893 0.0000 0.1456
vn 0.2547 0.0000 0.9670
vn -0.9996 0.0000 0.0289
vn -0.9365 0.0000 0.3506
vn -0.9985 0.0000 -0.0548
vn -0.2391 0.0000 -0.9710
vn 1.0000 0.0000 -0.0009
vn -0.1196 0.0000 0.9928
vn 0.0697 0.0000 -0.9976
vn -0.9633 0.0000 0.2684
vn -0.9984 0.0000 -0.0557
vn -0.9884 0.0000 -0.1522
vn -0.2303 0.0000 0.9731
vn 0.1585 0.0000 -0.9874
vn -0.9999 0.0000 -0.0132
vn -0.0946 0.0000 0.9955
vn -0.9346 0.0000 -0.3558
vn -0.9960 0.0000 0.0889
vn 0.0064 0.0000 -1.0000
vn 0.3331 0.0000 0.9429
vn 0.3811 0.0000 -0.9245
vn 0.0911 0.0000 0.9958
vn 0.0816 0.0000 -0.9967
vn -0.8243 0.0000 0.5662
vn -0.8505 0.0000 -0.5260
vn -1.0000 0.0000 0.0054
vn 0.0000 1.0000 0.0000
usemtl BackMat.001
s off
f 271/1/1 272/2/1 266/3/1
f 271/1/1 265/4/1 267/5/1
f 254/6/1 249/7/1 255/8/1
f 203/9/1 202/10/1 204/11/1
f 199/12/1 202/10/1 198/13/1
f 232/14/1 236/15/1 229/16/1
f 264/17/1 265/4/1 266/3/1
f 206/18/1 228/19/1 208/20/1
f 251/21/1 237/22/1 254/6/1
f 248/23/1 235/24/1 259/25/1
f 254/6/1 239/26/1 249/7/1
f 235/24/1 252/27/1 259/25/1
f 239/26/1 254/6/1 237/22/1
f 218/28/1 222/29/1 210/30/1
f 252/27/1 235/24/1 251/21/1
f 215/31/1 221/32/1 219/33/1
f 217/34/1 221/32/1 215/31/1
f 218/28/1 210/30/1 211/35/1
f 243/36/1 239/26/1 240/37/1
f 208/20/1 228/19/1 217/34/1
f 252/27/1 261/38/1 262/39/1
f 228/19/1 216/40/1 223/41/1
f 203/9/1 204/11/1 205/42/1
f 228/19/1 235/24/1 221/32/1
f 243/36/1 240/37/1 241/43/1
f 250/44/1 260/45/1 257/46/1
f 210/30/1 223/41/1 216/40/1
f 235/24/1 237/22/1 251/21/1
f 205/42/1 206/18/1 208/20/1
f 204/11/1 206/18/1 205/42/1
f 226/47/1 246/48/1 245/49/1
f 259/25/1 260/45/1 250/44/1
f 220/50/1 222/29/1 218/28/1
f 232/14/1 229/16/1 230/51/1
f 249/7/1 239/26/1 243/36/1
f 221/32/1 235/24/1 246/48/1
f 262/39/1 261/38/1 264/17/1
f 271/1/1 266/3/1 265/4/1
f 198/13/1 202/10/1 197/52/1
f 266/3/1 272/2/1 269/53/1
f 265/4/1 264/17/1 261/38/1
f 233/54/1 236/15/1 232/14/1
f 236/15/1 233/54/1 244/55/1
f 221/32/2 246/48/2 226/47/2
f 215/31/1 219/33/1 213/56/1
f 244/55/1 233/54/1 245/49/1
f 222/29/1 223/41/1 210/30/1
f 236/15/1 244/55/1 238/57/1
f 216/40/1 228/19/1 206/18/1
f 259/25/1 252/27/1 262/39/1
f 224/58/1 234/59/1 220/50/1
f 226/47/1 245/49/1 233/54/1
f 197/52/1 202/10/1 203/9/1
f 222/29/1 220/50/1 234/59/1
f 201/60/1 197/52/1 203/9/1
f 246/48/1 235/24/1 248/23/1
f 217/34/1 228/19/1 221/32/1
f 248/23/1 259/25/1 250/44/1
f 22/61/3 23/62/3 83/63/3 82/64/3
f 23/62/4 124/65/4 200/66/4 83/63/4
f 21/67/5 22/61/5 82/64/5 81/68/5
f 24/69/6 25/70/6 85/71/6 84/72/6
f 20/73/7 21/67/7 81/68/7 80/74/7
f 25/70/8 26/75/8 86/76/8 85/71/8
f 19/77/9 20/73/9 80/74/9 79/78/9
f 26/75/10 131/79/10 207/80/10 86/76/10
f 133/81/11 19/77/11 79/78/11 209/82/11
f 29/83/12 136/84/12 212/85/12 89/86/12
f 138/87/13 16/88/13 76/89/13 214/90/13
f 27/91/14 28/92/14 88/93/14 87/94/14
f 28/92/15 29/83/15 89/86/15 88/93/15
f 16/88/16 17/95/16 77/96/16 76/89/16
f 17/95/17 18/97/17 78/98/17 77/96/17
f 30/99/18 31/100/18 91/101/18 90/102/18
f 14/103/19 15/104/19 75/105/19 74/106/19
f 31/100/20 32/107/20 92/108/20 91/101/20
f 13/109/21 14/103/21 74/106/21 73/110/21
f 35/111/22 36/112/22 96/113/22 95/114/22
f 32/107/23 149/115/23 225/116/23 92/108/23
f 151/117/24 13/109/24 73/110/24 227/118/24
f 36/112/25 37/119/25 97/120/25 96/113/25
f 8/121/26 155/122/26 231/123/26 68/124/26
f 9/125/27 10/126/27 70/127/27 69/128/27
f 10/126/28 11/129/28 71/130/28 70/127/28
f 34/131/29 35/111/29 95/114/29 94/132/29
f 33/133/30 34/131/30 94/132/30 93/134/30
f 11/129/31 12/135/31 72/136/31 71/130/31
f 37/119/32 38/137/32 98/138/32 97/120/32
f 7/139/33 8/121/33 68/124/33 67/140/33
f 38/137/34 39/141/34 99/142/34 98/138/34
f 6/143/35 7/139/35 67/140/35 66/144/35
f 40/145/36 41/146/36 101/147/36 100/148/36
f 41/146/37 166/149/37 242/150/37 101/147/37
f 42/151/38 43/152/38 103/153/38 102/154/38
f 5/155/39 6/143/39 66/144/39 65/156/39
f 4/157/40 5/155/40 65/156/40 64/158/40
f 171/159/41 4/157/41 64/158/41 247/160/41
f 2/161/42 3/162/42 63/163/42 62/164/42
f 39/141/43 40/145/43 100/148/43 99/142/43
f 43/152/44 44/165/44 104/166/44 103/153/44
f 1/167/45 2/161/45 62/164/45 61/168/45
f 47/169/46 177/170/46 253/171/46 107/172/46
f 46/173/47 47/169/47 107/172/47 106/174/47
f 180/175/48 46/173/48 106/174/48 256/176/48
f 44/165/49 45/177/49 105/178/49 104/166/49
f 182/179/50 1/167/50 61/168/50 258/180/50
f 58/181/51 59/182/51 119/183/51 118/184/51
f 48/185/52 49/186/52 109/187/52 108/188/52
f 187/189/53 58/181/53 118/184/53 263/190/53
f 59/182/54 60/191/54 120/192/54 119/183/54
f 56/193/55 57/194/55 117/195/55 116/196/55
f 49/186/56 50/197/56 110/198/56 109/187/56
f 55/199/57 56/193/57 116/196/57 115/200/57
f 50/197/58 192/201/58 268/202/58 110/198/58
f 194/203/59 55/199/59 115/200/59 270/204/59
f 51/205/60 52/206/60 112/207/60 111/208/60
f 53/209/61 54/210/61 114/211/61 113/212/61
f 52/206/62 53/209/62 113/212/62 112/207/62
usemtl FrontMat.001
f 195/213/63 190/214/63 196/215/63
f 195/213/63 191/216/63 189/217/63
f 178/218/63 179/219/63 173/220/63
f 127/221/63 128/222/63 126/223/63
f 123/224/63 122/225/63 126/223/63
f 156/226/63 153/227/63 160/228/63
f 188/229/63 190/214/63 189/217/63
f 130/230/63 132/231/63 152/232/63
f 175/233/63 178/218/63 161/234/63
f 172/235/63 183/236/63 159/237/63
f 178/218/63 173/220/63 163/238/63
f 159/237/63 183/236/63 176/239/63
f 163/238/63 161/234/63 178/218/63
f 142/240/63 134/241/63 146/242/63
f 176/239/63 175/233/63 159/237/63
f 139/243/63 143/244/63 145/245/63
f 141/246/63 139/243/63 145/245/63
f 142/240/63 135/247/63 134/241/63
f 167/248/63 164/249/63 163/238/63
f 132/231/63 141/246/63 152/232/63
f 176/239/63 186/250/63 185/251/63
f 152/232/63 147/252/63 140/253/63
f 127/221/63 129/254/63 128/222/63
f 152/232/63 145/245/63 159/237/63
f 167/248/63 165/255/63 164/249/63
f 174/256/63 181/257/63 184/258/63
f 134/241/63 140/253/63 147/252/63
f 159/237/63 175/233/63 161/234/63
f 129/254/63 132/231/63 130/230/63
f 128/222/63 129/254/63 130/230/63
f 150/259/63 169/260/63 170/261/63
f 183/236/63 174/256/63 184/258/63
f 144/262/63 142/240/63 146/242/63
f 156/226/63 154/263/63 153/227/63
f 173/220/63 167/248/63 163/238/63
f 145/245/63 170/261/63 159/237/63
f 186/250/63 188/229/63 185/251/63
f 195/213/63 189/217/63 190/214/63
f 122/225/63 121/264/63 126/223/63
f 190/214/63 193/265/63 196/215/63
f 189/217/63 185/251/63 188/229/63
f 157/266/63 156/226/63 160/228/63
f 160/228/63 168/267/63 157/266/63
f 145/245/63 150/259/63 170/261/63
f 139/243/63 137/268/63 143/244/63
f 168/267/63 169/260/63 157/266/63
f 146/242/63 134/241/63 147/252/63
f 160/228/63 162/269/63 168/267/63
f 140/253/63 130/230/63 152/232/63
f 183/236/63 186/250/63 176/239/63
f 148/270/63 144/262/63 158/271/63
f 150/259/63 157/266/63 169/260/63
f 121/264/63 127/221/63 126/223/63
f 146/242/63 158/271/63 144/262/63
f 125/272/63 127/221/63 121/264/63
f 170/261/63 172/235/63 159/237/63
f 141/246/63 145/245/63 152/232/63
f 172/235/63 174/256/63 183/236/63
