# Blender v2.83.1 OBJ File: 'jigsaw-80x45-3-step2.blend'
# www.blender.org
mtllib piece.1523.mtl
o path3046
v -0.540152 0.037500 0.296336
v -0.559280 0.037500 0.172080
v -0.545738 0.037500 0.091162
v -0.484232 0.037500 0.087350
v -0.395241 0.037500 0.119041
v -0.308187 0.037500 0.125792
v -0.249159 0.037500 0.066561
v -0.230894 0.037500 -0.022079
v -0.262791 0.037500 -0.084155
v -0.345783 0.037500 -0.082863
v -0.446953 0.037500 -0.058095
v -0.524918 0.037500 -0.068915
v -0.549593 0.037500 -0.155759
v -0.536137 0.037500 -0.284562
v -0.488878 0.037500 -0.497770
v -0.279566 0.037500 -0.527865
v -0.155670 0.037500 -0.534367
v -0.077827 0.037500 -0.512673
v -0.080534 0.037500 -0.451916
v -0.119391 0.037500 -0.373132
v -0.130278 0.037500 -0.305341
v -0.069763 0.037500 -0.272178
v 0.022751 0.037500 -0.275773
v 0.087173 0.037500 -0.312875
v 0.083910 0.037500 -0.376887
v 0.055372 0.037500 -0.447786
v 0.064476 0.037500 -0.502200
v 0.154360 0.037500 -0.523262
v 0.512819 0.037500 -0.497770
v 0.535780 0.037500 -0.270444
v 0.536940 0.037500 -0.135339
v 0.509338 0.037500 -0.049219
v 0.442951 0.037500 -0.049263
v 0.360073 0.037500 -0.087942
v 0.291065 0.037500 -0.096549
v 0.260489 0.037500 -0.028493
v 0.269670 0.037500 0.074343
v 0.314146 0.037500 0.147963
v 0.386030 0.037500 0.149332
v 0.463783 0.037500 0.119270
v 0.522457 0.037500 0.119559
v 0.544176 0.037500 0.193340
v 0.539351 0.037500 0.309181
v 0.512819 0.037500 0.504139
v 0.285183 0.037500 0.537463
v 0.149986 0.037500 0.543869
v 0.064016 0.037500 0.517542
v 0.064684 0.037500 0.445961
v 0.104950 0.037500 0.353098
v 0.116655 0.037500 0.272052
v 0.053343 0.037500 0.229980
v -0.044609 0.037500 0.230302
v -0.115129 0.037500 0.270499
v -0.116568 0.037500 0.343908
v -0.089014 0.037500 0.427323
v -0.092991 0.037500 0.493392
v -0.170521 0.037500 0.522151
v -0.289638 0.037500 0.523200
v -0.488878 0.037500 0.504139
v -0.540152 -0.037500 0.296336
v -0.559280 -0.037500 0.172080
v -0.545738 -0.037500 0.091162
v -0.484232 -0.037500 0.087350
v -0.395241 -0.037500 0.119041
v -0.308187 -0.037500 0.125792
v -0.249159 -0.037500 0.066561
v -0.230894 -0.037498 -0.022079
v -0.262791 -0.037500 -0.084155
v -0.345783 -0.037500 -0.082863
v -0.446953 -0.037500 -0.058095
v -0.524918 -0.037500 -0.068915
v -0.549593 -0.037500 -0.155759
v -0.536137 -0.037500 -0.284562
v -0.488878 -0.037498 -0.497770
v -0.279566 -0.037498 -0.527865
v -0.155670 -0.037498 -0.534367
v -0.077827 -0.037498 -0.512673
v -0.080534 -0.037498 -0.451916
v -0.119391 -0.037500 -0.373132
v -0.130278 -0.037500 -0.305341
v -0.069763 -0.037498 -0.272178
v 0.022751 -0.037498 -0.275773
v 0.087173 -0.037500 -0.312875
v 0.083910 -0.037500 -0.376887
v 0.055372 -0.037500 -0.447786
v 0.064476 -0.037498 -0.502200
v 0.154360 -0.037500 -0.523262
v 0.512819 -0.037500 -0.497770
v 0.535780 -0.037498 -0.270444
v 0.536940 -0.037500 -0.135339
v 0.509338 -0.037500 -0.049219
v 0.442951 -0.037500 -0.049263
v 0.360073 -0.037500 -0.087942
v 0.291065 -0.037500 -0.096549
v 0.260489 -0.037500 -0.028493
v 0.269670 -0.037500 0.074343
v 0.314146 -0.037500 0.147963
v 0.386030 -0.037500 0.149332
v 0.463783 -0.037500 0.119270
v 0.522457 -0.037498 0.119559
v 0.544176 -0.037500 0.193340
v 0.539351 -0.037500 0.309181
v 0.512819 -0.037500 0.504139
v 0.285183 -0.037500 0.537463
v 0.149986 -0.037500 0.543869
v 0.064016 -0.037500 0.517542
v 0.064684 -0.037500 0.445961
v 0.104950 -0.037498 0.353098
v 0.116655 -0.037500 0.272052
v 0.053343 -0.037500 0.229980
v -0.044609 -0.037500 0.230302
v -0.115129 -0.037500 0.270499
v -0.116568 -0.037500 0.343908
v -0.089014 -0.037500 0.427323
v -0.092991 -0.037500 0.493392
v -0.170521 -0.037498 0.522151
v -0.289638 -0.037500 0.523200
v -0.488878 -0.037498 0.504139
v -0.540152 0.037500 0.296336
v -0.559280 0.037500 0.172080
v -0.545738 0.037500 0.091162
v -0.545738 0.037500 0.091162
v -0.524918 0.037500 -0.068915
v -0.524918 0.037500 -0.068915
v -0.549593 0.037500 -0.155759
v -0.536137 0.037500 -0.284562
v -0.484232 0.037500 0.087350
v -0.446953 0.037500 -0.058095
v -0.488878 0.037500 0.504139
v -0.488878 0.037500 0.504139
v -0.488878 0.037500 -0.497770
v -0.488878 0.037500 -0.497770
v -0.395241 0.037500 0.119041
v -0.345783 0.037500 -0.082863
v -0.289638 0.037500 0.523200
v -0.279566 0.037500 -0.527865
v -0.308187 0.037500 0.125792
v -0.262791 0.037500 -0.084155
v -0.262791 0.037500 -0.084155
v -0.249159 0.037500 0.066561
v -0.170521 0.037500 0.522151
v -0.155670 0.037500 -0.534367
v -0.230894 0.037500 -0.022079
v -0.092991 0.037500 0.493392
v -0.092991 0.037500 0.493392
v -0.119391 0.037500 -0.373132
v -0.130278 0.037500 -0.305341
v -0.130278 0.037500 -0.305341
v -0.077827 0.037500 -0.512673
v -0.077827 0.037500 -0.512673
v -0.115129 0.037500 0.270499
v -0.116568 0.037500 0.343908
v -0.069763 0.037500 -0.272178
v -0.080534 0.037500 -0.451916
v -0.089014 0.037500 0.427323
v -0.044609 0.037500 0.230302
v 0.022751 0.037500 -0.275773
v 0.053343 0.037500 0.229980
v 0.087173 0.037500 -0.312875
v 0.087173 0.037500 -0.312875
v 0.116655 0.037500 0.272052
v 0.116655 0.037500 0.272052
v 0.083910 0.037500 -0.376887
v 0.055372 0.037500 -0.447786
v 0.064476 0.037500 -0.502200
v 0.064476 0.037500 -0.502200
v 0.149986 0.037500 0.543869
v 0.064016 0.037500 0.517542
v 0.064016 0.037500 0.517542
v 0.064684 0.037500 0.445961
v 0.154360 0.037500 -0.523262
v 0.104950 0.037500 0.353098
v 0.285183 0.037500 0.537463
v 0.260489 0.037500 -0.028493
v 0.269670 0.037500 0.074343
v 0.291065 0.037500 -0.096549
v 0.291065 0.037500 -0.096549
v 0.314146 0.037500 0.147963
v 0.360073 0.037500 -0.087942
v 0.386030 0.037500 0.149332
v 0.442951 0.037500 -0.049263
v 0.463783 0.037500 0.119270
v 0.512819 0.037500 0.504139
v 0.512819 0.037500 0.504139
v 0.509338 0.037500 -0.049219
v 0.509338 0.037500 -0.049219
v 0.522457 0.037500 0.119559
v 0.522457 0.037500 0.119559
v 0.512819 0.037500 -0.497770
v 0.512819 0.037500 -0.497770
v 0.536940 0.037500 -0.135339
v 0.544176 0.037500 0.193340
v 0.535780 0.037500 -0.270444
v 0.539351 0.037500 0.309181
v -0.540152 -0.037500 0.296336
v -0.559280 -0.037500 0.172080
v -0.545738 -0.037500 0.091162
v -0.545738 -0.037500 0.091162
v -0.524918 -0.037500 -0.068915
v -0.524918 -0.037500 -0.068915
v -0.549593 -0.037500 -0.155759
v -0.536137 -0.037500 -0.284562
v -0.484232 -0.037500 0.087350
v -0.446953 -0.037500 -0.058095
v -0.488878 -0.037498 0.504139
v -0.488878 -0.037498 0.504139
v -0.488878 -0.037498 -0.497770
v -0.488878 -0.037498 -0.497770
v -0.395241 -0.037500 0.119041
v -0.345783 -0.037500 -0.082863
v -0.289638 -0.037500 0.523200
v -0.279566 -0.037498 -0.527865
v -0.308187 -0.037500 0.125792
v -0.262791 -0.037500 -0.084155
v -0.262791 -0.037500 -0.084155
v -0.249159 -0.037500 0.066561
v -0.170521 -0.037498 0.522151
v -0.155670 -0.037498 -0.534367
v -0.230894 -0.037498 -0.022079
v -0.092991 -0.037500 0.493392
v -0.092991 -0.037500 0.493392
v -0.119391 -0.037500 -0.373132
v -0.130278 -0.037500 -0.305341
v -0.130278 -0.037500 -0.305341
v -0.077827 -0.037498 -0.512673
v -0.077827 -0.037498 -0.512673
v -0.115129 -0.037500 0.270499
v -0.116568 -0.037500 0.343908
v -0.069763 -0.037498 -0.272178
v -0.080534 -0.037498 -0.451916
v -0.089014 -0.037500 0.427323
v -0.044609 -0.037500 0.230302
v 0.022751 -0.037498 -0.275773
v 0.053343 -0.037500 0.229980
v 0.087173 -0.037500 -0.312875
v 0.087173 -0.037500 -0.312875
v 0.116655 -0.037500 0.272052
v 0.116655 -0.037500 0.272052
v 0.083910 -0.037500 -0.376887
v 0.055372 -0.037500 -0.447786
v 0.064476 -0.037498 -0.502200
v 0.064476 -0.037498 -0.502200
v 0.149986 -0.037500 0.543869
v 0.064016 -0.037500 0.517542
v 0.064016 -0.037500 0.517542
v 0.064684 -0.037500 0.445961
v 0.154360 -0.037500 -0.523262
v 0.104950 -0.037498 0.353098
v 0.285183 -0.037500 0.537463
v 0.260489 -0.037500 -0.028493
v 0.269670 -0.037500 0.074343
v 0.291065 -0.037500 -0.096549
v 0.291065 -0.037500 -0.096549
v 0.314146 -0.037500 0.147963
v 0.360073 -0.037500 -0.087942
v 0.386030 -0.037500 0.149332
v 0.442951 -0.037500 -0.049263
v 0.463783 -0.037500 0.119270
v 0.512819 -0.037500 0.504139
v 0.512819 -0.037500 0.504139
v 0.509338 -0.037500 -0.049219
v 0.509338 -0.037500 -0.049219
v 0.522457 -0.037498 0.119559
v 0.522457 -0.037498 0.119559
v 0.512819 -0.037500 -0.497770
v 0.512819 -0.037500 -0.497770
v 0.536940 -0.037500 -0.135339
v 0.544176 -0.037500 0.193340
v 0.535780 -0.037498 -0.270444
v 0.539351 -0.037500 0.309181
vt 0.500000 0.500000
vt 0.500000 0.500000
vt 0.500000 0.500000
vt 0.500000 0.500000
vt 0.500000 0.500000
vt 0.500000 0.500000
vt 0.500000 0.500000
vt 0.500000 0.500000
vt 0.500000 0.500000
vt 0.500000 0.500000
vt 0.500000 0.500000
vt 0.500000 0.500000
vt 0.500000 0.500000
vt 0.500000 0.500000
vt 0.500000 0.500000
vt 0.500000 0.500000
vt 0.500000 0.500000
vt 0.500000 0.500000
vt 0.500000 0.500000
vt 0.500000 0.500000
vt 0.500000 0.500000
vt 0.500000 0.500000
vt 0.500000 0.500000
vt 0.500000 0.500000
vt 0.500000 0.500000
vt 0.500000 0.500000
vt 0.500000 0.500000
vt 0.500000 0.500000
vt 0.500000 0.500000
vt 0.500000 0.500000
vt 0.500000 0.500000
vt 0.500000 0.500000
vt 0.500000 0.500000
vt 0.500000 0.500000
vt 0.500000 0.500000
vt 0.500000 0.500000
vt 0.500000 0.500000
vt 0.500000 0.500000
vt 0.500000 0.500000
vt 0.500000 0.500000
vt 0.500000 0.500000
vt 0.500000 0.500000
vt 0.500000 0.500000
vt 0.500000 0.500000
vt 0.500000 0.500000
vt 0.500000 0.500000
vt 0.500000 0.500000
vt 0.500000 0.500000
vt 0.500000 0.500000
vt 0.500000 0.500000
vt 0.500000 0.500000
vt 0.500000 0.500000
vt 0.500000 0.500000
vt 0.500000 0.500000
vt 0.500000 0.500000
vt 0.500000 0.500000
vt 0.500000 0.500000
vt 0.500000 0.500000
vt 0.500000 0.500000
vt 0.500000 0.500000
vt 0.500000 0.500000
vt 0.500000 0.500000
vt 0.500000 0.500000
vt 0.500000 0.500000
vt 0.500000 0.500000
vt 0.500000 0.500000
vt 0.500000 0.500000
vt 0.500000 0.500000
vt 0.500000 0.500000
vt 0.500000 0.500000
vt 0.500000 0.500000
vt 0.500000 0.500000
vt 0.500000 0.500000
vt 0.500000 0.500000
vt 0.500000 0.500000
vt 0.500000 0.500000
vt 0.500000 0.500000
vt 0.500000 0.500000
vt 0.500000 0.500000
vt 0.500000 0.500000
vt 0.500000 0.500000
vt 0.500000 0.500000
vt 0.500000 0.500000
vt 0.500000 0.500000
vt 0.500000 0.500000
vt 0.500000 0.500000
vt 0.500000 0.500000
vt 0.500000 0.500000
vt 0.500000 0.500000
vt 0.500000 0.500000
vt 0.500000 0.500000
vt 0.500000 0.500000
vt 0.500000 0.500000
vt 0.500000 0.500000
vt 0.500000 0.500000
vt 0.500000 0.500000
vt 0.500000 0.500000
vt 0.500000 0.500000
vt 0.500000 0.500000
vt 0.500000 0.500000
vt 0.500000 0.500000
vt 0.500000 0.500000
vt 0.500000 0.500000
vt 0.500000 0.500000
vt 0.500000 0.500000
vt 0.500000 0.500000
vt 0.500000 0.500000
vt 0.500000 0.500000
vt 0.500000 0.500000
vt 0.500000 0.500000
vt 0.500000 0.500000
vt 0.500000 0.500000
vt 0.500000 0.500000
vt 0.500000 0.500000
vt 0.500000 0.500000
vt 0.500000 0.500000
vt 0.500000 0.500000
vt 0.500000 0.500000
vt 0.500000 0.500000
vt 0.500000 0.500000
vt 0.500000 0.500000
vt 0.500000 0.500000
vt 0.500000 0.500000
vt 0.500000 0.500000
vt 0.500000 0.500000
vt 0.500000 0.500000
vt 0.500000 0.500000
vt 0.500000 0.500000
vt 0.500000 0.500000
vt 0.500000 0.500000
vt 0.500000 0.500000
vt 0.500000 0.500000
vt 0.500000 0.500000
vt 0.500000 0.500000
vt 0.500000 0.500000
vt 0.500000 0.500000
vt 0.500000 0.500000
vt 0.500000 0.500000
vt 0.500000 0.500000
vt 0.500000 0.500000
vt 0.500000 0.500000
vt 0.500000 0.500000
vt 0.500000 0.500000
vt 0.500000 0.500000
vt 0.500000 0.500000
vt 0.500000 0.500000
vt 0.500000 0.500000
vt 0.500000 0.500000
vt 0.500000 0.500000
vt 0.500000 0.500000
vt 0.500000 0.500000
vt 0.500000 0.500000
vt 0.500000 0.500000
vt 0.500000 0.500000
vt 0.500000 0.500000
vt 0.500000 0.500000
vt 0.500000 0.500000
vt 0.500000 0.500000
vt 0.500000 0.500000
vt 0.500000 0.500000
vt 0.500000 0.500000
vt 0.500000 0.500000
vt 0.500000 0.500000
vt 0.500000 0.500000
vt 0.500000 0.500000
vt 0.500000 0.500000
vt 0.500000 0.500000
vt 0.500000 0.500000
vt 0.500000 0.500000
vt 0.500000 0.500000
vt 0.500000 0.500000
vt 0.500000 0.500000
vt 0.500000 0.500000
vt 0.500000 0.500000
vt 0.500000 0.500000
vt 0.500000 0.500000
vt 0.500000 0.500000
vt 0.500000 0.500000
vt 0.500000 0.500000
vt 0.500000 0.500000
vt 0.500000 0.500000
vt 0.500000 0.500000
vt 0.500000 0.500000
vt 0.500000 0.500000
vt 0.500000 0.500000
vt 0.500000 0.500000
vt 0.500000 0.500000
vt 0.500000 0.500000
vt 0.500000 0.500000
vt 0.500000 0.500000
vt 0.500000 0.500000
vt 0.500000 0.500000
vt 0.500000 0.500000
vt 0.500000 0.500000
vt 0.500000 0.500000
vt 0.500000 0.500000
vt 0.500000 0.500000
vt 0.500000 0.500000
vt 0.500000 0.500000
vt 0.500000 0.500000
vt 0.500000 0.500000
vt 0.500000 0.500000
vt 0.500000 0.500000
vt 0.500000 0.500000
vt 0.500000 0.500000
vt 0.500000 0.500000
vt 0.500000 0.500000
vt 0.500000 0.500000
vt 0.500000 0.500000
vt 0.500000 0.500000
vt 0.500000 0.500000
vt 0.037957 0.570386
vt 0.037875 0.573134
vt 0.035945 0.569581
vt 0.029444 0.559963
vt 0.030362 0.560950
vt 0.027896 0.564344
vt 0.031645 0.561153
vt 0.031565 0.572055
vt 0.028420 0.565749
vt 0.034840 0.578826
vt 0.033233 0.579125
vt 0.032324 0.574603
vt 0.036928 0.568719
vt 0.026884 0.564604
vt 0.025726 0.565497
vt 0.024504 0.563605
vt 0.027593 0.578915
vt 0.025000 0.577778
vt 0.024762 0.573358
vt 0.029720 0.573769
vt 0.031904 0.557106
vt 0.031904 0.555633
vt 0.032978 0.555021
vt 0.026999 0.569518
vt 0.034730 0.566428
vt 0.034685 0.568480
vt 0.028878 0.554860
vt 0.029427 0.558368
vt 0.027432 0.554967
vt 0.037500 0.555556
vt 0.037818 0.563508
vt 0.034664 0.555046
vt 0.029805 0.575701
vt 0.029143 0.579340
vt 0.035099 0.569822
vt 0.032340 0.572762
vt 0.032494 0.560475
vt 0.035193 0.564998
vt 0.024775 0.570715
vt 0.025134 0.568995
vt 0.025958 0.568907
vt 0.032015 0.576848
vt 0.029798 0.555342
vt 0.029802 0.556643
vt 0.028416 0.567922
vt 0.030459 0.572460
vt 0.027915 0.569486
vt 0.037686 0.568659
vt 0.024584 0.560606
vt 0.030200 0.577675
vt 0.030152 0.579039
vt 0.037555 0.565502
vt 0.036876 0.565704
vt 0.032387 0.558944
vt 0.025000 0.555556
vt 0.037500 0.577778
vt 0.032150 0.578577
vt 0.035992 0.565071
vt 0.024833 0.565512
vn -0.0000 -1.0000 -0.0000
vn -0.9884 0.0000 0.1522
vn -0.9863 0.0000 -0.1651
vn -0.9619 0.0000 0.2733
vn -0.9946 0.0000 -0.1039
vn -0.0619 0.0000 -0.9981
vn -0.1375 0.0000 0.9905
vn -0.9709 0.0000 0.2396
vn -0.9763 0.0000 -0.2164
vn 0.3355 0.0000 -0.9420
vn 0.2378 0.0000 0.9713
vn -0.0952 0.0000 0.9955
vn -0.1423 0.0000 -0.9898
vn 0.0773 0.0000 -0.9970
vn 0.0156 0.0000 0.9999
vn -0.7083 0.0000 -0.7059
vn 0.0088 0.0000 1.0000
vn -0.0524 0.0000 -0.9986
vn -0.8895 0.0000 0.4570
vn -0.9794 0.0000 -0.2018
vn 0.3478 0.0000 0.9376
vn 0.9873 0.0000 0.1586
vn 0.2685 0.0000 -0.9633
vn 0.9998 0.0000 0.0196
vn 0.4806 0.0000 -0.8770
vn 0.8969 0.0000 0.4423
vn 0.9990 0.0000 0.0445
vn 0.9982 0.0000 0.0601
vn 0.9495 0.0000 -0.3137
vn 0.4952 0.0000 0.8688
vn -0.0388 0.0000 -0.9992
vn 0.0033 0.0000 1.0000
vn -0.4991 0.0000 -0.8666
vn -0.5535 0.0000 0.8329
vn -0.9277 0.0000 0.3734
vn -0.9863 0.0000 -0.1650
vn -0.2928 0.0000 0.9562
vn -1.0000 0.0000 -0.0093
vn -0.2281 0.0000 -0.9736
vn -0.9175 0.0000 -0.3978
vn -0.9987 0.0000 0.0509
vn -0.9897 0.0000 -0.1429
vn 0.0473 0.0000 0.9989
vn 0.9960 0.0000 -0.0889
vn 0.9122 0.0000 0.4098
vn 0.8559 0.0000 -0.5171
vn -0.1238 0.0000 0.9923
vn 0.0190 0.0000 -0.9998
vn -0.4229 0.0000 0.9062
vn -0.3606 0.0000 -0.9327
vn 0.1448 0.0000 0.9895
vn -0.0007 0.0000 1.0000
vn 0.0049 0.0000 -1.0000
vn 0.0709 0.0000 -0.9975
vn 0.9523 0.0000 0.3052
vn 0.9593 0.0000 -0.2824
vn 1.0000 0.0000 -0.0086
vn 0.9949 0.0000 -0.1005
vn 0.9909 0.0000 0.1348
vn 0.9991 0.0000 0.0416
vn 0.0000 1.0000 0.0000
usemtl BackMat.001
s off
f 218/1/1 222/2/1 212/3/1
f 254/4/1 237/5/1 251/6/1
f 250/7/1 234/8/1 219/9/1
f 202/10/1 210/11/1 201/12/1
f 222/2/1 218/1/1 230/13/1
f 248/14/1 243/15/1 246/16/1
f 195/17/1 211/18/1 205/19/1
f 195/17/1 213/20/1 211/18/1
f 257/21/1 267/22/1 261/23/1
f 228/24/1 211/18/1 213/20/1
f 233/25/1 219/9/1 229/26/1
f 251/6/1 234/8/1 250/7/1
f 268/27/1 270/28/1 256/29/1
f 265/30/1 269/31/1 247/32/1
f 213/20/1 195/17/1 209/33/1
f 209/33/1 195/17/1 196/34/1
f 229/26/1 214/35/1 223/36/1
f 252/37/1 233/25/1 235/38/1
f 269/31/1 235/38/1 247/32/1
f 217/39/1 231/40/1 220/41/1
f 201/12/1 210/11/1 204/42/1
f 263/43/1 268/27/1 258/44/1
f 232/45/1 227/46/1 216/47/1
f 230/13/1 218/1/1 225/48/1
f 212/3/1 222/2/1 223/36/1
f 237/5/1 254/4/1 248/14/1
f 219/9/1 234/8/1 232/45/1
f 211/18/1 228/24/1 217/39/1
f 258/44/1 268/27/1 256/29/1
f 243/15/1 248/14/1 249/49/1
f 256/29/1 270/28/1 254/4/1
f 229/26/1 219/9/1 214/35/1
f 203/50/1 196/34/1 197/51/1
f 247/32/1 240/52/1 241/53/1
f 217/39/1 228/24/1 231/40/1
f 267/22/1 255/54/1 269/31/1
f 249/49/1 254/4/1 270/28/1
f 213/20/1 227/46/1 228/24/1
f 209/33/1 196/34/1 203/50/1
f 216/47/1 227/46/1 213/20/1
f 259/55/1 249/49/1 270/28/1
f 212/3/1 202/10/1 207/56/1
f 249/49/1 248/14/1 254/4/1
f 255/54/1 267/22/1 257/21/1
f 201/12/1 204/42/1 199/57/1
f 252/37/1 269/31/1 255/54/1
f 223/36/1 214/35/1 210/11/1
f 247/32/1 235/38/1 239/58/1
f 250/7/1 233/25/1 252/37/1
f 269/31/1 252/37/1 235/38/1
f 239/58/1 240/52/1 247/32/1
f 251/6/1 237/5/1 234/8/1
f 250/7/1 219/9/1 233/25/1
f 246/16/1 243/15/1 244/59/1
f 219/9/1 232/45/1 216/47/1
f 223/36/1 202/10/1 212/3/1
f 223/36/1 210/11/1 202/10/1
f 1/60/2 2/61/2 61/62/2 60/63/2
f 2/61/3 122/64/3 198/65/3 61/62/3
f 124/66/4 13/67/4 72/68/4 200/69/4
f 13/67/5 14/70/5 73/71/5 72/68/5
f 3/72/6 4/73/6 63/74/6 62/75/6
f 11/76/7 12/77/7 71/78/7 70/79/7
f 130/80/8 1/60/8 60/63/8 206/81/8
f 14/70/9 132/82/9 208/83/9 73/71/9
f 4/73/10 5/84/10 64/85/10 63/74/10
f 10/86/11 11/76/11 70/79/11 69/87/11
f 58/88/12 59/89/12 118/90/12 117/91/12
f 15/92/13 16/93/13 75/94/13 74/95/13
f 5/84/14 6/96/14 65/97/14 64/85/14
f 139/98/15 10/86/15 69/87/15 215/99/15
f 6/96/16 7/100/16 66/101/16 65/97/16
f 57/102/17 58/88/17 117/91/17 116/103/17
f 16/93/18 17/104/18 76/105/18 75/94/18
f 8/106/19 9/107/19 68/108/19 67/109/19
f 7/100/20 8/106/20 67/109/20 66/101/20
f 145/110/21 57/102/21 116/103/21 221/111/21
f 20/112/22 148/113/22 224/114/22 79/115/22
f 17/104/23 150/116/23 226/117/23 76/105/23
f 53/118/24 54/119/24 113/120/24 112/121/24
f 21/122/25 22/123/25 81/124/25 80/125/25
f 19/126/26 20/112/26 79/115/26 78/127/26
f 18/128/27 19/126/27 78/127/27 77/129/27
f 55/130/28 56/131/28 115/132/28 114/133/28
f 54/119/29 55/130/29 114/133/29 113/120/29
f 52/134/30 53/118/30 112/121/30 111/135/30
f 22/123/31 23/136/31 82/137/31 81/124/31
f 51/138/32 52/134/32 111/135/32 110/139/32
f 23/136/33 160/140/33 236/141/33 82/137/33
f 162/142/34 51/138/34 110/139/34 238/143/34
f 25/144/35 26/145/35 85/146/35 84/147/35
f 26/145/36 166/148/36 242/149/36 85/146/36
f 46/150/37 169/151/37 245/152/37 105/153/37
f 47/154/38 48/155/38 107/156/38 106/157/38
f 27/158/39 28/159/39 87/160/39 86/161/39
f 48/155/40 49/162/40 108/163/40 107/156/40
f 24/164/41 25/144/41 84/147/41 83/165/41
f 49/162/42 50/166/42 109/167/42 108/163/42
f 45/168/43 46/150/43 105/153/43 104/169/43
f 36/170/44 37/171/44 96/172/44 95/173/44
f 177/174/45 36/170/45 95/173/45 253/175/45
f 37/171/46 38/176/46 97/177/46 96/172/46
f 34/178/47 35/179/47 94/180/47 93/181/47
f 38/176/48 39/182/48 98/183/48 97/177/48
f 33/184/49 34/178/49 93/181/49 92/185/49
f 39/182/50 40/186/50 99/187/50 98/183/50
f 184/188/51 45/168/51 104/169/51 260/189/51
f 186/190/52 33/184/52 92/185/52 262/191/52
f 40/186/53 188/192/53 264/193/53 99/187/53
f 28/159/54 190/194/54 266/195/54 87/160/54
f 31/196/55 32/197/55 91/198/55 90/199/55
f 41/200/56 42/201/56 101/202/56 100/203/56
f 30/204/57 31/196/57 90/199/57 89/205/57
f 29/206/58 30/204/58 89/205/58 88/207/58
f 43/208/59 44/209/59 103/210/59 102/211/59
f 42/201/60 43/208/60 102/211/60 101/202/60
usemtl FrontMat.001
f 142/212/61 136/213/61 146/214/61
f 178/215/61 175/216/61 161/217/61
f 174/218/61 143/219/61 158/220/61
f 126/221/61 125/222/61 134/223/61
f 146/214/61 154/224/61 142/212/61
f 172/225/61 170/226/61 167/227/61
f 119/228/61 129/229/61 135/230/61
f 119/228/61 135/230/61 137/231/61
f 181/232/61 185/233/61 191/234/61
f 152/235/61 137/231/61 135/230/61
f 157/236/61 153/237/61 143/219/61
f 175/216/61 174/218/61 158/220/61
f 192/238/61 180/239/61 194/240/61
f 189/241/61 171/242/61 193/243/61
f 137/231/61 133/244/61 119/228/61
f 133/244/61 120/245/61 119/228/61
f 153/237/61 147/246/61 138/247/61
f 176/248/61 159/249/61 157/236/61
f 193/243/61 171/242/61 159/249/61
f 141/250/61 144/251/61 155/252/61
f 125/222/61 128/253/61 134/223/61
f 187/254/61 182/255/61 192/238/61
f 156/256/61 140/257/61 151/258/61
f 154/224/61 149/259/61 142/212/61
f 136/213/61 147/246/61 146/214/61
f 161/217/61 172/225/61 178/215/61
f 143/219/61 156/256/61 158/220/61
f 135/230/61 141/250/61 152/235/61
f 182/255/61 180/239/61 192/238/61
f 167/227/61 173/260/61 172/225/61
f 180/239/61 178/215/61 194/240/61
f 153/237/61 138/247/61 143/219/61
f 127/261/61 121/262/61 120/245/61
f 171/242/61 165/263/61 164/264/61
f 141/250/61 155/252/61 152/235/61
f 191/234/61 193/243/61 179/265/61
f 173/260/61 194/240/61 178/215/61
f 137/231/61 152/235/61 151/258/61
f 133/244/61 127/261/61 120/245/61
f 140/257/61 137/231/61 151/258/61
f 183/266/61 194/240/61 173/260/61
f 136/213/61 131/267/61 126/221/61
f 173/260/61 178/215/61 172/225/61
f 179/265/61 181/232/61 191/234/61
f 125/222/61 123/268/61 128/253/61
f 176/248/61 179/265/61 193/243/61
f 147/246/61 134/223/61 138/247/61
f 171/242/61 163/269/61 159/249/61
f 174/218/61 176/248/61 157/236/61
f 193/243/61 159/249/61 176/248/61
f 163/269/61 171/242/61 164/264/61
f 175/216/61 158/220/61 161/217/61
f 174/218/61 157/236/61 143/219/61
f 170/226/61 168/270/61 167/227/61
f 143/219/61 140/257/61 156/256/61
f 147/246/61 136/213/61 126/221/61
f 147/246/61 126/221/61 134/223/61
