# Blender v2.83.1 OBJ File: 'jigsaw-80x45-3-step2.blend'
# www.blender.org
mtllib piece.2569.mtl
o path5138
v -0.269375 0.037500 -0.556670
v -0.133354 0.037500 -0.557187
v -0.045944 0.037500 -0.528164
v -0.044552 0.037500 -0.459585
v -0.082928 0.037500 -0.375139
v -0.093918 0.037500 -0.306944
v -0.031883 0.037500 -0.280439
v 0.062710 0.037500 -0.294364
v 0.127869 0.037500 -0.340778
v 0.122467 0.037500 -0.409538
v 0.088829 0.037500 -0.481668
v 0.090134 0.037500 -0.535984
v 0.170109 0.037500 -0.557374
v 0.503975 0.037500 -0.534039
v 0.545036 0.037500 -0.212988
v 0.527306 0.037500 -0.139253
v 0.471901 0.037500 -0.143979
v 0.396687 0.037500 -0.181624
v 0.326756 0.037500 -0.186980
v 0.283695 0.037500 -0.116409
v 0.275074 0.037500 -0.012558
v 0.304939 0.037500 0.060357
v 0.371708 0.037500 0.059693
v 0.451183 0.037500 0.029109
v 0.513519 0.037500 0.033837
v 0.536942 0.037500 0.119045
v 0.532001 0.037500 0.249623
v 0.503975 0.037500 0.467871
v 0.301956 0.037500 0.426867
v 0.182301 0.037500 0.416473
v 0.106949 0.037500 0.441567
v 0.108810 0.037500 0.515930
v 0.143322 0.037500 0.611786
v 0.146576 0.037500 0.690966
v 0.075851 0.037500 0.723212
v -0.026856 0.037500 0.709900
v -0.098373 0.037500 0.660314
v -0.096840 0.037500 0.586144
v -0.065647 0.037500 0.508715
v -0.069508 0.037500 0.451752
v -0.153248 0.037500 0.432065
v -0.497723 0.037500 0.467871
v -0.532085 0.037500 0.252532
v -0.539288 0.037500 0.123870
v -0.513874 0.037500 0.040310
v -0.443459 0.037500 0.036789
v -0.353092 0.037500 0.069541
v -0.277168 0.037500 0.075123
v -0.243607 0.037500 0.010386
v -0.254395 0.037500 -0.086650
v -0.305027 0.037500 -0.157667
v -0.386787 0.037500 -0.163554
v -0.474079 0.037500 -0.142014
v -0.537098 0.037500 -0.149952
v -0.554756 0.037500 -0.226820
v -0.540829 0.037500 -0.342253
v -0.497723 0.037500 -0.534039
v -0.269375 -0.037498 -0.556670
v -0.133354 -0.037500 -0.557187
v -0.045944 -0.037500 -0.528164
v -0.044552 -0.037500 -0.459585
v -0.082928 -0.037500 -0.375139
v -0.093918 -0.037500 -0.306944
v -0.031883 -0.037500 -0.280439
v 0.062710 -0.037500 -0.294364
v 0.127869 -0.037500 -0.340778
v 0.122467 -0.037500 -0.409538
v 0.088829 -0.037500 -0.481668
v 0.090134 -0.037500 -0.535984
v 0.170109 -0.037500 -0.557374
v 0.503975 -0.037500 -0.534039
v 0.545036 -0.037500 -0.212988
v 0.527306 -0.037498 -0.139253
v 0.471901 -0.037500 -0.143979
v 0.396687 -0.037500 -0.181624
v 0.326756 -0.037500 -0.186980
v 0.283695 -0.037500 -0.116409
v 0.275074 -0.037500 -0.012558
v 0.304939 -0.037500 0.060357
v 0.371708 -0.037500 0.059693
v 0.451183 -0.037500 0.029109
v 0.513519 -0.037498 0.033837
v 0.536942 -0.037500 0.119045
v 0.532001 -0.037500 0.249623
v 0.503975 -0.037500 0.467871
v 0.301956 -0.037500 0.426867
v 0.182301 -0.037498 0.416473
v 0.106949 -0.037500 0.441567
v 0.108810 -0.037498 0.515930
v 0.143322 -0.037500 0.611786
v 0.146576 -0.037500 0.690966
v 0.075851 -0.037498 0.723212
v -0.026856 -0.037500 0.709900
v -0.098373 -0.037500 0.660314
v -0.096840 -0.037500 0.586144
v -0.065647 -0.037500 0.508715
v -0.069508 -0.037500 0.451752
v -0.153248 -0.037500 0.432065
v -0.497723 -0.037500 0.467871
v -0.532085 -0.037500 0.252532
v -0.539288 -0.037500 0.123870
v -0.513874 -0.037498 0.040310
v -0.443459 -0.037498 0.036789
v -0.353092 -0.037500 0.069541
v -0.277168 -0.037500 0.075123
v -0.243607 -0.037500 0.010386
v -0.254395 -0.037500 -0.086650
v -0.305027 -0.037500 -0.157667
v -0.386787 -0.037500 -0.163554
v -0.474079 -0.037500 -0.142014
v -0.537098 -0.037500 -0.149952
v -0.554756 -0.037500 -0.226820
v -0.540829 -0.037500 -0.342253
v -0.497723 -0.037500 -0.534039
v 0.545036 0.037500 -0.212988
v 0.527306 0.037500 -0.139253
v 0.527306 0.037500 -0.139253
v 0.513519 0.037500 0.033837
v 0.513519 0.037500 0.033837
v 0.536942 0.037500 0.119045
v 0.532001 0.037500 0.249623
v 0.471901 0.037500 -0.143979
v 0.503975 0.037500 -0.534039
v 0.503975 0.037500 -0.534039
v 0.451183 0.037500 0.029109
v 0.503975 0.037500 0.467871
v 0.503975 0.037500 0.467871
v 0.396687 0.037500 -0.181624
v 0.371708 0.037500 0.059693
v 0.301956 0.037500 0.426867
v 0.326756 0.037500 -0.186980
v 0.326756 0.037500 -0.186980
v 0.304939 0.037500 0.060357
v 0.304939 0.037500 0.060357
v 0.283695 0.037500 -0.116409
v 0.275074 0.037500 -0.012558
v 0.182301 0.037500 0.416473
v 0.170109 0.037500 -0.557374
v 0.106949 0.037500 0.441567
v 0.106949 0.037500 0.441567
v 0.090134 0.037500 -0.535984
v 0.090134 0.037500 -0.535984
v 0.127869 0.037500 -0.340778
v 0.122467 0.037500 -0.409538
v 0.143322 0.037500 0.611786
v 0.146576 0.037500 0.690966
v 0.146576 0.037500 0.690966
v 0.075851 0.037500 0.723212
v 0.108810 0.037500 0.515930
v 0.062710 0.037500 -0.294364
v 0.088829 0.037500 -0.481668
v -0.026856 0.037500 0.709900
v -0.031883 0.037500 -0.280439
v -0.098373 0.037500 0.660314
v -0.093918 0.037500 -0.306944
v -0.093918 0.037500 -0.306944
v -0.045944 0.037500 -0.528164
v -0.045944 0.037500 -0.528164
v -0.044552 0.037500 -0.459585
v -0.082928 0.037500 -0.375139
v -0.133354 0.037500 -0.557187
v -0.065647 0.037500 0.508715
v -0.069508 0.037500 0.451752
v -0.069508 0.037500 0.451752
v -0.096840 0.037500 0.586144
v -0.153248 0.037500 0.432065
v -0.269375 0.037500 -0.556670
v -0.243607 0.037500 0.010386
v -0.254395 0.037500 -0.086650
v -0.277168 0.037500 0.075123
v -0.277168 0.037500 0.075123
v -0.305027 0.037500 -0.157667
v -0.353092 0.037500 0.069541
v -0.386787 0.037500 -0.163554
v -0.443459 0.037500 0.036789
v -0.474079 0.037500 -0.142014
v -0.513874 0.037500 0.040310
v -0.513874 0.037500 0.040310
v -0.497723 0.037500 -0.534039
v -0.497723 0.037500 -0.534039
v -0.497723 0.037500 0.467871
v -0.497723 0.037500 0.467871
v -0.537098 0.037500 -0.149952
v -0.537098 0.037500 -0.149952
v -0.539288 0.037500 0.123870
v -0.532085 0.037500 0.252532
v -0.540829 0.037500 -0.342253
v -0.554756 0.037500 -0.226820
v 0.545036 -0.037500 -0.212988
v 0.527306 -0.037498 -0.139253
v 0.527306 -0.037498 -0.139253
v 0.513519 -0.037498 0.033837
v 0.513519 -0.037498 0.033837
v 0.536942 -0.037500 0.119045
v 0.532001 -0.037500 0.249623
v 0.471901 -0.037500 -0.143979
v 0.503975 -0.037500 -0.534039
v 0.503975 -0.037500 -0.534039
v 0.451183 -0.037500 0.029109
v 0.503975 -0.037500 0.467871
v 0.503975 -0.037500 0.467871
v 0.396687 -0.037500 -0.181624
v 0.371708 -0.037500 0.059693
v 0.301956 -0.037500 0.426867
v 0.326756 -0.037500 -0.186980
v 0.326756 -0.037500 -0.186980
v 0.304939 -0.037500 0.060357
v 0.304939 -0.037500 0.060357
v 0.283695 -0.037500 -0.116409
v 0.275074 -0.037500 -0.012558
v 0.182301 -0.037498 0.416473
v 0.170109 -0.037500 -0.557374
v 0.106949 -0.037500 0.441567
v 0.106949 -0.037500 0.441567
v 0.090134 -0.037500 -0.535984
v 0.090134 -0.037500 -0.535984
v 0.127869 -0.037500 -0.340778
v 0.122467 -0.037500 -0.409538
v 0.143322 -0.037500 0.611786
v 0.146576 -0.037500 0.690966
v 0.146576 -0.037500 0.690966
v 0.075851 -0.037498 0.723212
v 0.108810 -0.037498 0.515930
v 0.062710 -0.037500 -0.294364
v 0.088829 -0.037500 -0.481668
v -0.026856 -0.037500 0.709900
v -0.031883 -0.037500 -0.280439
v -0.098373 -0.037500 0.660314
v -0.093918 -0.037500 -0.306944
v -0.093918 -0.037500 -0.306944
v -0.045944 -0.037500 -0.528164
v -0.045944 -0.037500 -0.528164
v -0.044552 -0.037500 -0.459585
v -0.082928 -0.037500 -0.375139
v -0.133354 -0.037500 -0.557187
v -0.065647 -0.037500 0.508715
v -0.069508 -0.037500 0.451752
v -0.069508 -0.037500 0.451752
v -0.096840 -0.037500 0.586144
v -0.153248 -0.037500 0.432065
v -0.269375 -0.037498 -0.556670
v -0.243607 -0.037500 0.010386
v -0.254395 -0.037500 -0.086650
v -0.277168 -0.037500 0.075123
v -0.277168 -0.037500 0.075123
v -0.305027 -0.037500 -0.157667
v -0.353092 -0.037500 0.069541
v -0.386787 -0.037500 -0.163554
v -0.443459 -0.037498 0.036789
v -0.474079 -0.037500 -0.142014
v -0.513874 -0.037498 0.040310
v -0.513874 -0.037498 0.040310
v -0.497723 -0.037500 -0.534039
v -0.497723 -0.037500 -0.534039
v -0.497723 -0.037500 0.467871
v -0.497723 -0.037500 0.467871
v -0.537098 -0.037500 -0.149952
v -0.537098 -0.037500 -0.149952
v -0.539288 -0.037500 0.123870
v -0.532085 -0.037500 0.252532
v -0.540829 -0.037500 -0.342253
v -0.554756 -0.037500 -0.226820
vt 0.500000 0.500000
vt 0.500000 0.500000
vt 0.500000 0.500000
vt 0.500000 0.500000
vt 0.500000 0.500000
vt 0.500000 0.500000
vt 0.500000 0.500000
vt 0.500000 0.500000
vt 0.500000 0.500000
vt 0.500000 0.500000
vt 0.500000 0.500000
vt 0.500000 0.500000
vt 0.500000 0.500000
vt 0.500000 0.500000
vt 0.500000 0.500000
vt 0.500000 0.500000
vt 0.500000 0.500000
vt 0.500000 0.500000
vt 0.500000 0.500000
vt 0.500000 0.500000
vt 0.500000 0.500000
vt 0.500000 0.500000
vt 0.500000 0.500000
vt 0.500000 0.500000
vt 0.500000 0.500000
vt 0.500000 0.500000
vt 0.500000 0.500000
vt 0.500000 0.500000
vt 0.500000 0.500000
vt 0.500000 0.500000
vt 0.500000 0.500000
vt 0.500000 0.500000
vt 0.500000 0.500000
vt 0.500000 0.500000
vt 0.500000 0.500000
vt 0.500000 0.500000
vt 0.500000 0.500000
vt 0.500000 0.500000
vt 0.500000 0.500000
vt 0.500000 0.500000
vt 0.500000 0.500000
vt 0.500000 0.500000
vt 0.500000 0.500000
vt 0.500000 0.500000
vt 0.500000 0.500000
vt 0.500000 0.500000
vt 0.500000 0.500000
vt 0.500000 0.500000
vt 0.500000 0.500000
vt 0.500000 0.500000
vt 0.500000 0.500000
vt 0.500000 0.500000
vt 0.500000 0.500000
vt 0.500000 0.500000
vt 0.500000 0.500000
vt 0.500000 0.500000
vt 0.500000 0.500000
vt 0.500000 0.500000
vt 0.500000 0.500000
vt 0.500000 0.500000
vt 0.500000 0.500000
vt 0.500000 0.500000
vt 0.500000 0.500000
vt 0.500000 0.500000
vt 0.500000 0.500000
vt 0.500000 0.500000
vt 0.500000 0.500000
vt 0.500000 0.500000
vt 0.500000 0.500000
vt 0.500000 0.500000
vt 0.500000 0.500000
vt 0.500000 0.500000
vt 0.500000 0.500000
vt 0.500000 0.500000
vt 0.500000 0.500000
vt 0.500000 0.500000
vt 0.500000 0.500000
vt 0.500000 0.500000
vt 0.500000 0.500000
vt 0.500000 0.500000
vt 0.500000 0.500000
vt 0.500000 0.500000
vt 0.500000 0.500000
vt 0.500000 0.500000
vt 0.500000 0.500000
vt 0.500000 0.500000
vt 0.500000 0.500000
vt 0.500000 0.500000
vt 0.500000 0.500000
vt 0.500000 0.500000
vt 0.500000 0.500000
vt 0.500000 0.500000
vt 0.500000 0.500000
vt 0.500000 0.500000
vt 0.500000 0.500000
vt 0.500000 0.500000
vt 0.500000 0.500000
vt 0.500000 0.500000
vt 0.500000 0.500000
vt 0.500000 0.500000
vt 0.500000 0.500000
vt 0.500000 0.500000
vt 0.500000 0.500000
vt 0.500000 0.500000
vt 0.500000 0.500000
vt 0.500000 0.500000
vt 0.500000 0.500000
vt 0.500000 0.500000
vt 0.500000 0.500000
vt 0.500000 0.500000
vt 0.500000 0.500000
vt 0.500000 0.500000
vt 0.500000 0.500000
vt 0.500000 0.500000
vt 0.500000 0.500000
vt 0.500000 0.500000
vt 0.500000 0.500000
vt 0.500000 0.500000
vt 0.500000 0.500000
vt 0.500000 0.500000
vt 0.500000 0.500000
vt 0.500000 0.500000
vt 0.500000 0.500000
vt 0.500000 0.500000
vt 0.500000 0.500000
vt 0.500000 0.500000
vt 0.500000 0.500000
vt 0.500000 0.500000
vt 0.500000 0.500000
vt 0.500000 0.500000
vt 0.500000 0.500000
vt 0.500000 0.500000
vt 0.500000 0.500000
vt 0.500000 0.500000
vt 0.500000 0.500000
vt 0.500000 0.500000
vt 0.500000 0.500000
vt 0.500000 0.500000
vt 0.500000 0.500000
vt 0.500000 0.500000
vt 0.500000 0.500000
vt 0.500000 0.500000
vt 0.500000 0.500000
vt 0.500000 0.500000
vt 0.500000 0.500000
vt 0.500000 0.500000
vt 0.500000 0.500000
vt 0.500000 0.500000
vt 0.500000 0.500000
vt 0.500000 0.500000
vt 0.500000 0.500000
vt 0.500000 0.500000
vt 0.500000 0.500000
vt 0.500000 0.500000
vt 0.500000 0.500000
vt 0.500000 0.500000
vt 0.500000 0.500000
vt 0.500000 0.500000
vt 0.500000 0.500000
vt 0.500000 0.500000
vt 0.500000 0.500000
vt 0.500000 0.500000
vt 0.500000 0.500000
vt 0.500000 0.500000
vt 0.500000 0.500000
vt 0.500000 0.500000
vt 0.500000 0.500000
vt 0.500000 0.500000
vt 0.500000 0.500000
vt 0.500000 0.500000
vt 0.500000 0.500000
vt 0.500000 0.500000
vt 0.500000 0.500000
vt 0.500000 0.500000
vt 0.500000 0.500000
vt 0.500000 0.500000
vt 0.500000 0.500000
vt 0.500000 0.500000
vt 0.500000 0.500000
vt 0.500000 0.500000
vt 0.500000 0.500000
vt 0.500000 0.500000
vt 0.500000 0.500000
vt 0.500000 0.500000
vt 0.500000 0.500000
vt 0.500000 0.500000
vt 0.500000 0.500000
vt 0.500000 0.500000
vt 0.500000 0.500000
vt 0.500000 0.500000
vt 0.500000 0.500000
vt 0.500000 0.500000
vt 0.500000 0.500000
vt 0.500000 0.500000
vt 0.500000 0.500000
vt 0.500000 0.500000
vt 0.500000 0.500000
vt 0.500000 0.500000
vt 0.500000 0.500000
vt 0.500000 0.500000
vt 0.500000 0.500000
vt 0.500000 0.500000
vt 0.500000 0.500000
vt 0.500000 0.500000
vt 0.500000 0.500000
vt 0.112299 0.276167
vt 0.106792 0.272304
vt 0.107600 0.271560
vt 0.099709 0.281482
vt 0.099976 0.279708
vt 0.100653 0.279679
vt 0.099718 0.271733
vt 0.100000 0.266667
vt 0.102393 0.265710
vt 0.108208 0.265745
vt 0.109813 0.265904
vt 0.107530 0.269875
vt 0.115520 0.277113
vt 0.113100 0.280122
vt 0.113976 0.275560
vt 0.105210 0.284002
vt 0.104330 0.284957
vt 0.102411 0.280545
vt 0.101553 0.280425
vt 0.114295 0.280888
vt 0.115686 0.279391
vt 0.113010 0.276252
vt 0.103164 0.277001
vt 0.102833 0.275625
vt 0.105582 0.272065
vt 0.100000 0.288889
vt 0.109777 0.289511
vt 0.108148 0.289620
vt 0.107407 0.285955
vt 0.106506 0.283811
vt 0.102990 0.279100
vt 0.107085 0.289101
vt 0.107026 0.287718
vt 0.112053 0.274309
vt 0.101982 0.275869
vt 0.112172 0.280081
vt 0.112500 0.266667
vt 0.100929 0.276720
vt 0.100073 0.276689
vt 0.099711 0.274750
vt 0.115283 0.280960
vt 0.104005 0.289800
vt 0.104397 0.286509
vt 0.104866 0.288177
vt 0.104925 0.289406
vt 0.104622 0.269128
vt 0.104696 0.270942
vt 0.107416 0.284473
vt 0.107122 0.267871
vt 0.107166 0.266308
vt 0.103833 0.265401
vt 0.104792 0.265793
vt 0.104891 0.267191
vt 0.114901 0.275526
vt 0.111988 0.284407
vt 0.111859 0.281753
vt 0.112500 0.288889
vn 0.0000 -1.0000 -0.0000
vn 0.9723 0.0000 0.2338
vn 0.9642 0.0000 -0.2651
vn 0.9993 0.0000 0.0378
vn -0.0850 0.0000 0.9964
vn 0.9919 0.0000 -0.1269
vn 0.0756 0.0000 -0.9971
vn 0.9919 0.0000 0.1274
vn -0.4476 0.0000 0.8942
vn -0.3592 0.0000 -0.9333
vn -0.1989 0.0000 0.9800
vn -0.0764 0.0000 0.9971
vn -0.0099 0.0000 -1.0000
vn 0.8536 0.0000 0.5209
vn 0.9254 0.0000 -0.3790
vn -0.0865 0.0000 0.9962
vn 0.0697 0.0000 -0.9976
vn 0.9966 0.0000 0.0827
vn 0.3160 0.0000 0.9488
vn -0.2584 0.0000 -0.9660
vn -0.9969 0.0000 0.0783
vn 0.9992 0.0000 -0.0411
vn 0.4149 0.0000 0.9099
vn 0.9409 0.0000 -0.3387
vn -0.5802 0.0000 -0.8145
vn -0.9997 0.0000 -0.0240
vn -0.9063 0.0000 0.4227
vn 0.9997 0.0000 -0.0250
vn -0.1285 0.0000 0.9917
vn -0.1456 0.0000 -0.9893
vn -0.5698 0.0000 0.8218
vn 0.3929 0.0000 -0.9196
vn 0.9998 0.0000 -0.0203
vn 0.9104 0.0000 0.4137
vn 0.3151 0.0000 -0.9491
vn -0.9977 0.0000 0.0676
vn -0.9276 0.0000 -0.3737
vn -0.9998 0.0000 -0.0207
vn -0.2289 0.0000 0.9735
vn 0.9873 0.0000 0.1591
vn -0.0038 0.0000 -1.0000
vn -0.9939 0.0000 0.1105
vn -0.8878 0.0000 -0.4603
vn -0.8142 0.0000 0.5805
vn 0.0733 0.0000 -0.9973
vn -0.0718 0.0000 0.9974
vn 0.3407 0.0000 -0.9402
vn 0.2396 0.0000 0.9709
vn -0.0499 0.0000 -0.9988
vn -0.0986 0.0000 -0.9951
vn 0.1034 0.0000 0.9946
vn -0.1250 0.0000 0.9922
vn -0.9567 0.0000 -0.2910
vn -0.9984 0.0000 0.0559
vn -0.9875 0.0000 0.1576
vn -0.9757 0.0000 -0.2193
vn -0.9928 0.0000 -0.1198
vn -0.9746 0.0000 0.2239
vn 0.0000 1.0000 -0.0000
usemtl BackMat.001
s off
f 237/1/1 244/2/1 242/3/1
f 212/4/1 225/5/1 215/6/1
f 241/7/1 261/8/1 253/9/1
f 259/10/1 247/11/1 260/12/1
f 226/13/1 239/14/1 223/15/1
f 209/16/1 217/17/1 205/18/1
f 218/19/1 225/5/1 212/4/1
f 219/20/1 222/21/1 226/13/1
f 236/22/1 223/15/1 239/14/1
f 227/23/1 243/24/1 229/25/1
f 197/26/1 205/18/1 218/19/1
f 195/27/1 203/28/1 194/29/1
f 210/30/1 224/31/1 209/16/1
f 192/32/1 194/29/1 199/33/1
f 260/12/1 244/2/1 240/34/1
f 229/25/1 241/7/1 234/35/1
f 223/15/1 236/22/1 213/36/1
f 260/12/1 240/34/1 255/37/1
f 233/38/1 235/39/1 231/40/1
f 217/17/1 209/16/1 224/31/1
f 220/41/1 222/21/1 219/20/1
f 237/1/1 242/3/1 213/36/1
f 189/42/1 202/43/1 197/26/1
f 196/44/1 202/43/1 189/42/1
f 190/45/1 196/44/1 189/42/1
f 234/35/1 241/7/1 235/39/1
f 241/7/1 248/46/1 261/8/1
f 241/7/1 246/47/1 248/46/1
f 210/30/1 227/23/1 224/31/1
f 218/19/1 205/18/1 217/17/1
f 197/26/1 218/19/1 212/4/1
f 213/36/1 242/3/1 207/48/1
f 247/11/1 244/2/1 260/12/1
f 249/49/1 259/10/1 251/50/1
f 262/51/1 250/52/1 257/53/1
f 229/25/1 243/24/1 246/47/1
f 239/14/1 226/13/1 228/54/1
f 242/3/1 243/24/1 227/23/1
f 210/30/1 242/3/1 227/23/1
f 236/22/1 237/1/1 213/36/1
f 205/18/1 197/26/1 202/43/1
f 219/20/1 226/13/1 223/15/1
f 240/34/1 244/2/1 237/1/1
f 199/33/1 194/29/1 203/28/1
f 204/55/1 203/28/1 195/27/1
f 211/56/1 207/48/1 204/55/1
f 261/8/1 248/46/1 262/51/1
f 262/51/1 248/46/1 250/52/1
f 200/57/1 204/55/1 195/27/1
f 211/56/1 213/36/1 207/48/1
f 234/35/1 235/39/1 233/38/1
f 204/55/1 207/48/1 203/28/1
f 229/25/1 246/47/1 241/7/1
f 207/48/1 242/3/1 210/30/1
f 247/11/1 259/10/1 249/49/1
f 15/58/2 117/59/2 191/60/2 72/61/2
f 119/62/3 26/63/3 83/64/3 193/65/3
f 26/63/4 27/66/4 84/67/4 83/64/4
f 16/68/5 17/69/5 74/70/5 73/71/5
f 124/72/6 15/58/6 72/61/6 198/73/6
f 24/74/7 25/75/7 82/76/7 81/77/7
f 27/66/8 127/78/8 201/79/8 84/67/8
f 17/69/9 18/80/9 75/81/9 74/70/9
f 23/82/10 24/74/10 81/77/10 80/83/10
f 28/84/11 29/85/11 86/86/11 85/87/11
f 18/80/12 132/88/12 206/89/12 75/81/12
f 134/90/13 23/82/13 80/83/13 208/91/13
f 19/92/14 20/93/14 77/94/14 76/95/14
f 21/96/15 22/97/15 79/98/15 78/99/15
f 29/85/16 30/100/16 87/101/16 86/86/16
f 13/102/17 14/103/17 71/104/17 70/105/17
f 20/93/18 21/96/18 78/99/18 77/94/18
f 30/100/19 140/106/19 214/107/19 87/101/19
f 142/108/20 13/102/20 70/105/20 216/109/20
f 9/110/21 10/111/21 67/112/21 66/113/21
f 33/114/22 147/115/22 221/116/22 90/117/22
f 34/118/23 35/119/23 92/120/23 91/121/23
f 32/122/24 33/114/24 90/117/24 89/123/24
f 8/124/25 9/110/25 66/113/25 65/125/25
f 11/126/26 12/127/26 69/128/26 68/129/26
f 10/111/27 11/126/27 68/129/27 67/112/27
f 31/130/28 32/122/28 89/123/28 88/131/28
f 35/119/29 36/132/29 93/133/29 92/120/29
f 7/134/30 8/124/30 65/125/30 64/135/30
f 36/132/31 37/136/31 94/137/31 93/133/31
f 156/138/32 7/134/32 64/135/32 230/139/32
f 158/140/33 4/141/33 61/142/33 232/143/33
f 4/141/34 5/144/34 62/145/34 61/142/34
f 2/146/35 3/147/35 60/148/35 59/149/35
f 39/150/36 164/151/36 238/152/36 96/153/36
f 38/154/37 39/150/37 96/153/37 95/155/37
f 37/136/38 38/154/38 95/155/38 94/137/38
f 40/156/39 41/157/39 98/158/39 97/159/39
f 5/144/40 6/160/40 63/161/40 62/145/40
f 1/162/41 2/146/41 59/149/41 58/163/41
f 49/164/42 50/165/42 107/166/42 106/167/42
f 171/168/43 49/164/43 106/167/43 245/169/43
f 50/165/44 51/170/44 108/171/44 107/166/44
f 47/172/45 48/173/45 105/174/45 104/175/45
f 51/170/46 52/176/46 109/177/46 108/171/46
f 46/178/47 47/172/47 104/175/47 103/179/47
f 52/176/48 53/180/48 110/181/48 109/177/48
f 178/182/49 46/178/49 103/179/49 252/183/49
f 180/184/50 1/162/50 58/163/50 254/185/50
f 41/157/51 182/186/51 256/187/51 98/158/51
f 53/180/52 184/188/52 258/189/52 110/181/52
f 44/190/53 45/191/53 102/192/53 101/193/53
f 43/194/54 44/190/54 101/193/54 100/195/54
f 42/196/55 43/194/55 100/195/55 99/197/55
f 56/198/56 57/199/56 114/200/56 113/201/56
f 55/202/57 56/198/57 113/201/57 112/203/57
f 54/204/58 55/202/58 112/203/58 111/205/58
usemtl FrontMat.001
f 163/206/59 168/207/59 170/208/59
f 138/209/59 141/210/59 151/211/59
f 167/212/59 179/213/59 187/214/59
f 185/215/59 186/216/59 173/217/59
f 152/218/59 149/219/59 165/220/59
f 135/221/59 131/222/59 143/223/59
f 144/224/59 138/209/59 151/211/59
f 145/225/59 152/218/59 148/226/59
f 162/227/59 165/220/59 149/219/59
f 153/228/59 155/229/59 169/230/59
f 123/231/59 144/224/59 131/222/59
f 121/232/59 120/233/59 129/234/59
f 136/235/59 135/221/59 150/236/59
f 118/237/59 125/238/59 120/233/59
f 186/216/59 166/239/59 170/208/59
f 155/229/59 160/240/59 167/212/59
f 149/219/59 139/241/59 162/227/59
f 186/216/59 181/242/59 166/239/59
f 159/243/59 157/244/59 161/245/59
f 143/223/59 150/236/59 135/221/59
f 146/246/59 145/225/59 148/226/59
f 163/206/59 139/241/59 168/207/59
f 115/247/59 123/231/59 128/248/59
f 122/249/59 115/247/59 128/248/59
f 116/250/59 115/247/59 122/249/59
f 160/240/59 161/245/59 167/212/59
f 167/212/59 187/214/59 174/251/59
f 167/212/59 174/251/59 172/252/59
f 136/235/59 150/236/59 153/228/59
f 144/224/59 143/223/59 131/222/59
f 123/231/59 138/209/59 144/224/59
f 139/241/59 133/253/59 168/207/59
f 173/217/59 186/216/59 170/208/59
f 175/254/59 177/255/59 185/215/59
f 188/256/59 183/257/59 176/258/59
f 155/229/59 172/252/59 169/230/59
f 165/220/59 154/259/59 152/218/59
f 168/207/59 153/228/59 169/230/59
f 136/235/59 153/228/59 168/207/59
f 162/227/59 139/241/59 163/206/59
f 131/222/59 128/248/59 123/231/59
f 145/225/59 149/219/59 152/218/59
f 166/239/59 163/206/59 170/208/59
f 125/238/59 129/234/59 120/233/59
f 130/260/59 121/232/59 129/234/59
f 137/261/59 130/260/59 133/253/59
f 187/214/59 188/256/59 174/251/59
f 188/256/59 176/258/59 174/251/59
f 126/262/59 121/232/59 130/260/59
f 137/261/59 133/253/59 139/241/59
f 160/240/59 159/243/59 161/245/59
f 130/260/59 129/234/59 133/253/59
f 155/229/59 167/212/59 172/252/59
f 133/253/59 136/235/59 168/207/59
f 173/217/59 175/254/59 185/215/59
