# Blender v2.83.1 OBJ File: 'jigsaw-80x45-3-step2.blend'
# www.blender.org
mtllib piece.2379.mtl
o path4758
v 0.543978 0.037500 -0.272785
v 0.556107 0.037500 -0.149631
v 0.534588 0.037500 -0.069221
v 0.465555 0.037500 -0.064941
v 0.373241 0.037500 -0.095623
v 0.291409 0.037500 -0.101471
v 0.247768 0.037500 -0.042187
v 0.245865 0.037500 0.044548
v 0.283192 0.037500 0.101563
v 0.353207 0.037500 0.091808
v 0.433138 0.037500 0.058754
v 0.496164 0.037500 0.065979
v 0.522730 0.037500 0.156933
v 0.501886 0.037500 0.523312
v 0.311104 0.037500 0.576836
v 0.197479 0.037500 0.594601
v 0.124517 0.037500 0.574036
v 0.122925 0.037500 0.498703
v 0.151199 0.037500 0.396156
v 0.149803 0.037500 0.304958
v 0.079235 0.037500 0.256969
v -0.019812 0.037500 0.257179
v -0.086596 0.037500 0.303860
v -0.081394 0.037500 0.389801
v -0.048574 0.037500 0.485867
v -0.053516 0.037500 0.557426
v -0.141268 0.037500 0.579659
v -0.275522 0.037500 0.567024
v -0.499811 0.037500 0.523312
v -0.539917 0.037500 0.155937
v -0.519665 0.037500 0.066563
v -0.459929 0.037500 0.062633
v -0.380833 0.037500 0.097950
v -0.310356 0.037500 0.105431
v -0.272247 0.037500 0.039577
v -0.273273 0.037500 -0.058689
v -0.315966 0.037500 -0.126865
v -0.396742 0.037500 -0.123264
v -0.487207 0.037500 -0.089504
v -0.552830 0.037500 -0.088024
v -0.569002 0.037500 -0.162304
v -0.550848 0.037500 -0.280006
v -0.499811 0.037500 -0.478596
v -0.285097 0.037500 -0.426613
v -0.156717 0.037500 -0.410152
v -0.073139 0.037500 -0.432434
v -0.069157 0.037500 -0.509365
v -0.101255 0.037500 -0.610645
v -0.106346 0.037500 -0.694439
v -0.041775 0.037500 -0.727798
v 0.053383 0.037500 -0.713413
v 0.119617 0.037500 -0.662865
v 0.117521 0.037500 -0.589577
v 0.088097 0.037500 -0.514294
v 0.092442 0.037500 -0.459606
v 0.172806 0.037500 -0.441429
v 0.501886 0.037500 -0.478596
v 0.543978 -0.037500 -0.272785
v 0.556107 -0.037500 -0.149631
v 0.534588 -0.037500 -0.069221
v 0.465555 -0.037500 -0.064941
v 0.373241 -0.037500 -0.095623
v 0.291409 -0.037500 -0.101471
v 0.247768 -0.037500 -0.042187
v 0.245865 -0.037498 0.044548
v 0.283192 -0.037500 0.101563
v 0.353207 -0.037500 0.091808
v 0.433138 -0.037500 0.058754
v 0.496164 -0.037500 0.065979
v 0.522730 -0.037500 0.156933
v 0.501886 -0.037498 0.523312
v 0.311104 -0.037500 0.576836
v 0.197479 -0.037500 0.594601
v 0.124517 -0.037498 0.574036
v 0.122925 -0.037500 0.498703
v 0.151199 -0.037500 0.396156
v 0.149803 -0.037500 0.304958
v 0.079235 -0.037500 0.256969
v -0.019812 -0.037498 0.257179
v -0.086596 -0.037500 0.303860
v -0.081394 -0.037498 0.389801
v -0.048574 -0.037500 0.485867
v -0.053516 -0.037498 0.557426
v -0.141268 -0.037500 0.579659
v -0.275522 -0.037500 0.567024
v -0.499811 -0.037500 0.523312
v -0.539917 -0.037500 0.155937
v -0.519665 -0.037500 0.066563
v -0.459929 -0.037498 0.062633
v -0.380833 -0.037498 0.097950
v -0.310356 -0.037500 0.105431
v -0.272247 -0.037500 0.039577
v -0.273273 -0.037500 -0.058689
v -0.315966 -0.037500 -0.126865
v -0.396742 -0.037500 -0.123264
v -0.487207 -0.037498 -0.089504
v -0.552830 -0.037500 -0.088024
v -0.569002 -0.037500 -0.162304
v -0.550848 -0.037500 -0.280006
v -0.499811 -0.037500 -0.478596
v -0.285097 -0.037500 -0.426613
v -0.156717 -0.037500 -0.410152
v -0.073139 -0.037500 -0.432434
v -0.069157 -0.037498 -0.509365
v -0.101255 -0.037500 -0.610645
v -0.106346 -0.037500 -0.694439
v -0.041775 -0.037498 -0.727798
v 0.053383 -0.037500 -0.713413
v 0.119617 -0.037500 -0.662865
v 0.117521 -0.037500 -0.589577
v 0.088097 -0.037500 -0.514294
v 0.092442 -0.037500 -0.459606
v 0.172806 -0.037500 -0.441429
v 0.501886 -0.037498 -0.478596
v 0.543978 0.037500 -0.272785
v 0.556107 0.037500 -0.149631
v 0.534588 0.037500 -0.069221
v 0.534588 0.037500 -0.069221
v 0.465555 0.037500 -0.064941
v 0.496164 0.037500 0.065979
v 0.496164 0.037500 0.065979
v 0.522730 0.037500 0.156933
v 0.501886 0.037500 -0.478596
v 0.501886 0.037500 -0.478596
v 0.501886 0.037500 0.523312
v 0.501886 0.037500 0.523312
v 0.433138 0.037500 0.058754
v 0.373241 0.037500 -0.095623
v 0.353207 0.037500 0.091808
v 0.311104 0.037500 0.576836
v 0.291409 0.037500 -0.101471
v 0.283192 0.037500 0.101563
v 0.283192 0.037500 0.101563
v 0.197479 0.037500 0.594601
v 0.172806 0.037500 -0.441429
v 0.247768 0.037500 -0.042187
v 0.245865 0.037500 0.044548
v 0.124517 0.037500 0.574036
v 0.124517 0.037500 0.574036
v 0.092442 0.037500 -0.459606
v 0.092442 0.037500 -0.459606
v 0.151199 0.037500 0.396156
v 0.149803 0.037500 0.304958
v 0.122925 0.037500 0.498703
v 0.079235 0.037500 0.256969
v 0.053383 0.037500 -0.713413
v 0.119617 0.037500 -0.662865
v 0.117521 0.037500 -0.589577
v 0.088097 0.037500 -0.514294
v -0.019812 0.037500 0.257179
v -0.041775 0.037500 -0.727798
v -0.086596 0.037500 0.303860
v -0.106346 0.037500 -0.694439
v -0.106346 0.037500 -0.694439
v -0.081394 0.037500 0.389801
v -0.048574 0.037500 0.485867
v -0.053516 0.037500 0.557426
v -0.053516 0.037500 0.557426
v -0.141268 0.037500 0.579659
v -0.101255 0.037500 -0.610645
v -0.069157 0.037500 -0.509365
v -0.073139 0.037500 -0.432434
v -0.073139 0.037500 -0.432434
v -0.156717 0.037500 -0.410152
v -0.275522 0.037500 0.567024
v -0.285097 0.037500 -0.426613
v -0.272247 0.037500 0.039577
v -0.273273 0.037500 -0.058689
v -0.310356 0.037500 0.105431
v -0.310356 0.037500 0.105431
v -0.315966 0.037500 -0.126865
v -0.315966 0.037500 -0.126865
v -0.380833 0.037500 0.097950
v -0.396742 0.037500 -0.123264
v -0.459929 0.037500 0.062633
v -0.487207 0.037500 -0.089504
v -0.499811 0.037500 -0.478596
v -0.499811 0.037500 -0.478596
v -0.519665 0.037500 0.066563
v -0.519665 0.037500 0.066563
v -0.499811 0.037500 0.523312
v -0.499811 0.037500 0.523312
v -0.552830 0.037500 -0.088024
v -0.552830 0.037500 -0.088024
v -0.539917 0.037500 0.155937
v -0.550848 0.037500 -0.280006
v -0.569002 0.037500 -0.162304
v 0.543978 -0.037500 -0.272785
v 0.556107 -0.037500 -0.149631
v 0.534588 -0.037500 -0.069221
v 0.534588 -0.037500 -0.069221
v 0.465555 -0.037500 -0.064941
v 0.496164 -0.037500 0.065979
v 0.496164 -0.037500 0.065979
v 0.522730 -0.037500 0.156933
v 0.501886 -0.037498 -0.478596
v 0.501886 -0.037498 -0.478596
v 0.501886 -0.037498 0.523312
v 0.501886 -0.037498 0.523312
v 0.433138 -0.037500 0.058754
v 0.373241 -0.037500 -0.095623
v 0.353207 -0.037500 0.091808
v 0.311104 -0.037500 0.576836
v 0.291409 -0.037500 -0.101471
v 0.283192 -0.037500 0.101563
v 0.283192 -0.037500 0.101563
v 0.197479 -0.037500 0.594601
v 0.172806 -0.037500 -0.441429
v 0.247768 -0.037500 -0.042187
v 0.245865 -0.037498 0.044548
v 0.124517 -0.037498 0.574036
v 0.124517 -0.037498 0.574036
v 0.092442 -0.037500 -0.459606
v 0.092442 -0.037500 -0.459606
v 0.151199 -0.037500 0.396156
v 0.149803 -0.037500 0.304958
v 0.122925 -0.037500 0.498703
v 0.079235 -0.037500 0.256969
v 0.053383 -0.037500 -0.713413
v 0.119617 -0.037500 -0.662865
v 0.117521 -0.037500 -0.589577
v 0.088097 -0.037500 -0.514294
v -0.019812 -0.037498 0.257179
v -0.041775 -0.037498 -0.727798
v -0.086596 -0.037500 0.303860
v -0.106346 -0.037500 -0.694439
v -0.106346 -0.037500 -0.694439
v -0.081394 -0.037498 0.389801
v -0.048574 -0.037500 0.485867
v -0.053516 -0.037498 0.557426
v -0.053516 -0.037498 0.557426
v -0.141268 -0.037500 0.579659
v -0.101255 -0.037500 -0.610645
v -0.069157 -0.037498 -0.509365
v -0.073139 -0.037500 -0.432434
v -0.073139 -0.037500 -0.432434
v -0.156717 -0.037500 -0.410152
v -0.275522 -0.037500 0.567024
v -0.285097 -0.037500 -0.426613
v -0.272247 -0.037500 0.039577
v -0.273273 -0.037500 -0.058689
v -0.310356 -0.037500 0.105431
v -0.310356 -0.037500 0.105431
v -0.315966 -0.037500 -0.126865
v -0.315966 -0.037500 -0.126865
v -0.380833 -0.037498 0.097950
v -0.396742 -0.037500 -0.123264
v -0.459929 -0.037498 0.062633
v -0.487207 -0.037498 -0.089504
v -0.499811 -0.037500 -0.478596
v -0.499811 -0.037500 -0.478596
v -0.519665 -0.037500 0.066563
v -0.519665 -0.037500 0.066563
v -0.499811 -0.037500 0.523312
v -0.499811 -0.037500 0.523312
v -0.552830 -0.037500 -0.088024
v -0.552830 -0.037500 -0.088024
v -0.539917 -0.037500 0.155937
v -0.550848 -0.037500 -0.280006
v -0.569002 -0.037500 -0.162304
vt 0.500000 0.500000
vt 0.500000 0.500000
vt 0.500000 0.500000
vt 0.500000 0.500000
vt 0.500000 0.500000
vt 0.500000 0.500000
vt 0.500000 0.500000
vt 0.500000 0.500000
vt 0.500000 0.500000
vt 0.500000 0.500000
vt 0.500000 0.500000
vt 0.500000 0.500000
vt 0.500000 0.500000
vt 0.500000 0.500000
vt 0.500000 0.500000
vt 0.500000 0.500000
vt 0.500000 0.500000
vt 0.500000 0.500000
vt 0.500000 0.500000
vt 0.500000 0.500000
vt 0.500000 0.500000
vt 0.500000 0.500000
vt 0.500000 0.500000
vt 0.500000 0.500000
vt 0.500000 0.500000
vt 0.500000 0.500000
vt 0.500000 0.500000
vt 0.500000 0.500000
vt 0.500000 0.500000
vt 0.500000 0.500000
vt 0.500000 0.500000
vt 0.500000 0.500000
vt 0.500000 0.500000
vt 0.500000 0.500000
vt 0.500000 0.500000
vt 0.500000 0.500000
vt 0.500000 0.500000
vt 0.500000 0.500000
vt 0.500000 0.500000
vt 0.500000 0.500000
vt 0.500000 0.500000
vt 0.500000 0.500000
vt 0.500000 0.500000
vt 0.500000 0.500000
vt 0.500000 0.500000
vt 0.500000 0.500000
vt 0.500000 0.500000
vt 0.500000 0.500000
vt 0.500000 0.500000
vt 0.500000 0.500000
vt 0.500000 0.500000
vt 0.500000 0.500000
vt 0.500000 0.500000
vt 0.500000 0.500000
vt 0.500000 0.500000
vt 0.500000 0.500000
vt 0.500000 0.500000
vt 0.500000 0.500000
vt 0.500000 0.500000
vt 0.500000 0.500000
vt 0.500000 0.500000
vt 0.500000 0.500000
vt 0.500000 0.500000
vt 0.500000 0.500000
vt 0.500000 0.500000
vt 0.500000 0.500000
vt 0.500000 0.500000
vt 0.500000 0.500000
vt 0.500000 0.500000
vt 0.500000 0.500000
vt 0.500000 0.500000
vt 0.500000 0.500000
vt 0.500000 0.500000
vt 0.500000 0.500000
vt 0.500000 0.500000
vt 0.500000 0.500000
vt 0.500000 0.500000
vt 0.500000 0.500000
vt 0.500000 0.500000
vt 0.500000 0.500000
vt 0.500000 0.500000
vt 0.500000 0.500000
vt 0.500000 0.500000
vt 0.500000 0.500000
vt 0.500000 0.500000
vt 0.500000 0.500000
vt 0.500000 0.500000
vt 0.500000 0.500000
vt 0.500000 0.500000
vt 0.500000 0.500000
vt 0.500000 0.500000
vt 0.500000 0.500000
vt 0.500000 0.500000
vt 0.500000 0.500000
vt 0.500000 0.500000
vt 0.500000 0.500000
vt 0.500000 0.500000
vt 0.500000 0.500000
vt 0.500000 0.500000
vt 0.500000 0.500000
vt 0.500000 0.500000
vt 0.500000 0.500000
vt 0.500000 0.500000
vt 0.500000 0.500000
vt 0.500000 0.500000
vt 0.500000 0.500000
vt 0.500000 0.500000
vt 0.500000 0.500000
vt 0.500000 0.500000
vt 0.500000 0.500000
vt 0.500000 0.500000
vt 0.500000 0.500000
vt 0.500000 0.500000
vt 0.500000 0.500000
vt 0.500000 0.500000
vt 0.500000 0.500000
vt 0.500000 0.500000
vt 0.500000 0.500000
vt 0.500000 0.500000
vt 0.500000 0.500000
vt 0.500000 0.500000
vt 0.500000 0.500000
vt 0.500000 0.500000
vt 0.500000 0.500000
vt 0.500000 0.500000
vt 0.500000 0.500000
vt 0.500000 0.500000
vt 0.500000 0.500000
vt 0.500000 0.500000
vt 0.500000 0.500000
vt 0.500000 0.500000
vt 0.500000 0.500000
vt 0.500000 0.500000
vt 0.500000 0.500000
vt 0.500000 0.500000
vt 0.500000 0.500000
vt 0.500000 0.500000
vt 0.500000 0.500000
vt 0.500000 0.500000
vt 0.500000 0.500000
vt 0.500000 0.500000
vt 0.500000 0.500000
vt 0.500000 0.500000
vt 0.500000 0.500000
vt 0.500000 0.500000
vt 0.500000 0.500000
vt 0.500000 0.500000
vt 0.500000 0.500000
vt 0.500000 0.500000
vt 0.500000 0.500000
vt 0.500000 0.500000
vt 0.500000 0.500000
vt 0.500000 0.500000
vt 0.500000 0.500000
vt 0.500000 0.500000
vt 0.500000 0.500000
vt 0.500000 0.500000
vt 0.500000 0.500000
vt 0.500000 0.500000
vt 0.500000 0.500000
vt 0.500000 0.500000
vt 0.500000 0.500000
vt 0.500000 0.500000
vt 0.500000 0.500000
vt 0.500000 0.500000
vt 0.500000 0.500000
vt 0.500000 0.500000
vt 0.500000 0.500000
vt 0.500000 0.500000
vt 0.500000 0.500000
vt 0.500000 0.500000
vt 0.500000 0.500000
vt 0.500000 0.500000
vt 0.500000 0.500000
vt 0.500000 0.500000
vt 0.500000 0.500000
vt 0.500000 0.500000
vt 0.500000 0.500000
vt 0.500000 0.500000
vt 0.500000 0.500000
vt 0.500000 0.500000
vt 0.500000 0.500000
vt 0.500000 0.500000
vt 0.500000 0.500000
vt 0.500000 0.500000
vt 0.500000 0.500000
vt 0.500000 0.500000
vt 0.500000 0.500000
vt 0.500000 0.500000
vt 0.500000 0.500000
vt 0.500000 0.500000
vt 0.500000 0.500000
vt 0.500000 0.500000
vt 0.500000 0.500000
vt 0.500000 0.500000
vt 0.500000 0.500000
vt 0.500000 0.500000
vt 0.500000 0.500000
vt 0.500000 0.500000
vt 0.500000 0.500000
vt 0.500000 0.500000
vt 0.500000 0.500000
vt 0.500000 0.500000
vt 0.734180 0.343982
vt 0.731465 0.338382
vt 0.734762 0.342500
vt 0.732117 0.352257
vt 0.732238 0.350704
vt 0.734776 0.347745
vt 0.735914 0.347776
vt 0.737193 0.347148
vt 0.738168 0.351323
vt 0.737926 0.343234
vt 0.737033 0.343344
vt 0.738203 0.341287
vt 0.727478 0.332201
vt 0.728946 0.331798
vt 0.729433 0.335620
vt 0.721891 0.343495
vt 0.722307 0.342062
vt 0.723353 0.342175
vt 0.734177 0.346179
vt 0.732286 0.337536
vt 0.732193 0.335973
vt 0.737500 0.333333
vt 0.723615 0.347029
vt 0.722701 0.347075
vt 0.722070 0.345606
vt 0.738045 0.338309
vt 0.732917 0.332444
vt 0.727568 0.356489
vt 0.725464 0.348255
vt 0.729705 0.350886
vt 0.731527 0.349876
vt 0.730239 0.338359
vt 0.725854 0.340945
vt 0.729388 0.337412
vt 0.737500 0.355556
vt 0.732929 0.356018
vt 0.725649 0.338097
vt 0.725000 0.333333
vt 0.729104 0.356758
vt 0.729778 0.352702
vt 0.730445 0.349918
vt 0.725576 0.342799
vt 0.735834 0.342616
vt 0.725237 0.346472
vt 0.729854 0.333613
vt 0.731794 0.355429
vt 0.731704 0.354030
vt 0.730161 0.354750
vt 0.724616 0.342887
vt 0.724555 0.346376
vt 0.729873 0.332157
vt 0.738133 0.347184
vt 0.738389 0.348802
vt 0.731752 0.334218
vt 0.730107 0.356281
vt 0.731802 0.332893
vt 0.725000 0.355556
vn 0.0000 -1.0000 -0.0000
vn 0.9952 0.0000 -0.0980
vn 0.9660 0.0000 0.2585
vn 0.0619 0.0000 0.9981
vn 0.9599 0.0000 -0.2804
vn 0.9797 0.0000 -0.2004
vn 0.9984 0.0000 0.0568
vn 0.1139 0.0000 -0.9935
vn -0.3154 0.0000 0.9490
vn -0.3821 0.0000 -0.9241
vn 0.2701 0.0000 0.9628
vn -0.0713 0.0000 0.9975
vn -0.1380 0.0000 -0.9904
vn 0.1545 0.0000 0.9880
vn -0.1122 0.0000 -0.9937
vn 0.8053 0.0000 0.5928
vn 0.8366 0.0000 -0.5477
vn 0.9998 0.0000 0.0219
vn -0.2713 0.0000 0.9625
vn 0.2206 0.0000 -0.9754
vn -0.9999 0.0000 0.0153
vn -0.9640 0.0000 -0.2658
vn -0.9998 0.0000 0.0211
vn -0.5623 0.0000 0.8269
vn 0.6067 0.0000 -0.7949
vn 0.9996 0.0000 0.0286
vn 0.9314 0.0000 0.3640
vn 0.9969 0.0000 -0.0792
vn 0.0021 0.0000 1.0000
vn 0.1495 0.0000 -0.9888
vn 0.5729 0.0000 0.8196
vn -0.4590 0.0000 -0.8884
vn 0.9463 0.0000 -0.3233
vn 0.9976 0.0000 0.0689
vn 0.2456 0.0000 0.9694
vn -0.9982 0.0000 0.0606
vn -0.9533 0.0000 0.3021
vn -0.9987 0.0000 -0.0517
vn -0.2576 0.0000 -0.9663
vn 0.9982 0.0000 -0.0604
vn -0.0937 0.0000 0.9956
vn 0.1272 0.0000 -0.9919
vn -0.9999 0.0000 0.0104
vn -0.8655 0.0000 -0.5009
vn -0.8475 0.0000 0.5307
vn 0.1056 0.0000 -0.9944
vn 0.0445 0.0000 0.9990
vn 0.4077 0.0000 -0.9131
vn 0.3496 0.0000 0.9369
vn 0.2353 0.0000 -0.9719
vn -0.0656 0.0000 -0.9978
vn -0.1913 0.0000 0.9815
vn 0.0225 0.0000 0.9997
vn -0.9753 0.0000 -0.2210
vn -0.9941 0.0000 0.1085
vn -0.9685 0.0000 -0.2489
vn -0.9883 0.0000 -0.1524
vn -0.9771 0.0000 0.2127
vn 0.0000 1.0000 0.0000
usemtl BackMat.001
s off
f 223/1/1 225/2/1 240/3/1
f 202/4/1 216/5/1 205/6/1
f 215/7/1 203/8/1 217/9/1
f 230/10/1 232/11/1 229/12/1
f 259/13/1 247/14/1 260/15/1
f 224/16/1 233/17/1 226/18/1
f 218/19/1 205/6/1 216/5/1
f 242/20/1 254/21/1 246/22/1
f 221/23/1 219/24/1 220/25/1
f 225/2/1 238/26/1 242/20/1
f 258/27/1 246/22/1 254/21/1
f 221/23/1 233/17/1 219/24/1
f 188/28/1 204/29/1 208/30/1
f 223/1/1 210/31/1 218/19/1
f 241/32/1 244/33/1 237/34/1
f 198/35/1 216/5/1 195/36/1
f 239/37/1 259/13/1 250/38/1
f 189/39/1 201/40/1 188/28/1
f 209/41/1 241/32/1 235/42/1
f 195/36/1 216/5/1 202/4/1
f 238/26/1 228/43/1 232/11/1
f 209/41/1 235/42/1 213/44/1
f 240/3/1 225/2/1 242/20/1
f 247/14/1 249/45/1 260/15/1
f 193/46/1 195/36/1 200/47/1
f 229/12/1 232/11/1 228/43/1
f 228/43/1 238/26/1 225/2/1
f 238/26/1 254/21/1 242/20/1
f 201/40/1 189/39/1 192/48/1
f 234/49/1 233/17/1 222/50/1
f 235/42/1 241/32/1 237/34/1
f 209/41/1 213/44/1 204/29/1
f 244/33/1 247/14/1 239/37/1
f 260/15/1 249/45/1 256/51/1
f 209/41/1 223/1/1 240/3/1
f 211/52/1 217/9/1 207/53/1
f 237/34/1 244/33/1 239/37/1
f 208/30/1 204/29/1 213/44/1
f 213/44/1 234/49/1 222/50/1
f 246/22/1 258/27/1 248/54/1
f 215/7/1 216/5/1 198/35/1
f 239/37/1 247/14/1 259/13/1
f 210/31/1 223/1/1 209/41/1
f 200/47/1 195/36/1 202/4/1
f 203/8/1 215/7/1 198/35/1
f 207/53/1 217/9/1 203/8/1
f 204/29/1 188/28/1 201/40/1
f 192/48/1 189/39/1 190/55/1
f 205/6/1 218/19/1 210/31/1
f 248/54/1 258/27/1 252/56/1
f 213/44/1 235/42/1 234/49/1
f 209/41/1 240/3/1 241/32/1
f 222/50/1 233/17/1 221/23/1
f 188/28/1 208/30/1 196/57/1
f 219/24/1 233/17/1 224/16/1
f 1/58/2 2/59/2 59/60/2 58/61/2
f 2/59/3 118/62/3 191/63/3 59/60/3
f 3/64/4 4/65/4 61/66/4 60/67/4
f 121/68/5 13/69/5 70/70/5 194/71/5
f 124/72/6 1/58/6 58/61/6 197/73/6
f 13/69/7 126/74/7 199/75/7 70/70/7
f 11/76/8 12/77/8 69/78/8 68/79/8
f 4/65/9 5/80/9 62/81/9 61/66/9
f 10/82/10 11/76/10 68/79/10 67/83/10
f 14/84/11 15/85/11 72/86/11 71/87/11
f 5/80/12 6/88/12 63/89/12 62/81/12
f 133/90/13 10/82/13 67/83/13 206/91/13
f 15/85/14 16/92/14 73/93/14 72/86/14
f 56/94/15 57/95/15 114/96/15 113/97/15
f 6/88/16 7/98/16 64/99/16 63/89/16
f 8/100/17 9/101/17 66/102/17 65/103/17
f 7/98/18 8/100/18 65/103/18 64/99/18
f 16/92/19 139/104/19 212/105/19 73/93/19
f 141/106/20 56/94/20 113/97/20 214/107/20
f 19/108/21 20/109/21 77/110/21 76/111/21
f 18/112/22 19/108/22 76/111/22 75/113/22
f 17/114/23 18/112/23 75/113/23 74/115/23
f 20/109/24 21/116/24 78/117/24 77/110/24
f 51/118/25 52/119/25 109/120/25 108/121/25
f 52/119/26 53/122/26 110/123/26 109/120/26
f 53/122/27 54/124/27 111/125/27 110/123/27
f 54/124/28 55/126/28 112/127/28 111/125/28
f 21/116/29 22/128/29 79/129/29 78/117/29
f 50/130/30 51/118/30 108/121/30 107/131/30
f 22/128/31 23/132/31 80/133/31 79/129/31
f 154/134/32 50/130/32 107/131/32 227/135/32
f 24/136/33 25/137/33 82/138/33 81/139/33
f 25/137/34 158/140/34 231/141/34 82/138/34
f 26/142/35 27/143/35 84/144/35 83/145/35
f 48/146/36 49/147/36 106/148/36 105/149/36
f 47/150/37 48/146/37 105/149/37 104/151/37
f 163/152/38 47/150/38 104/151/38 236/153/38
f 45/154/39 46/155/39 103/156/39 102/157/39
f 23/132/40 24/136/40 81/139/40 80/133/40
f 27/143/41 28/158/41 85/159/41 84/144/41
f 44/160/42 45/154/42 102/157/42 101/161/42
f 35/162/43 36/163/43 93/164/43 92/165/43
f 170/166/44 35/162/44 92/165/44 243/167/44
f 36/163/45 172/168/45 245/169/45 93/164/45
f 33/170/46 34/171/46 91/172/46 90/173/46
f 37/174/47 38/175/47 95/176/47 94/177/47
f 32/178/48 33/170/48 90/173/48 89/179/48
f 38/175/49 39/180/49 96/181/49 95/176/49
f 178/182/50 44/160/50 101/161/50 251/183/50
f 180/184/51 32/178/51 89/179/51 253/185/51
f 28/158/52 182/186/52 255/187/52 85/159/52
f 39/180/53 184/188/53 257/189/53 96/181/53
f 30/190/54 31/191/54 88/192/54 87/193/54
f 29/194/55 30/190/55 87/193/55 86/195/55
f 42/196/56 43/197/56 100/198/56 99/199/56
f 41/200/57 42/196/57 99/199/57 98/201/57
f 40/202/58 41/200/58 98/201/58 97/203/58
usemtl FrontMat.001
f 150/204/59 167/205/59 152/206/59
f 129/207/59 132/208/59 143/209/59
f 142/210/59 144/211/59 130/212/59
f 157/213/59 156/214/59 159/215/59
f 186/216/59 187/217/59 174/218/59
f 151/219/59 153/220/59 160/221/59
f 145/222/59 143/209/59 132/208/59
f 169/223/59 173/224/59 181/225/59
f 148/226/59 147/227/59 146/228/59
f 152/206/59 169/223/59 165/229/59
f 185/230/59 181/225/59 173/224/59
f 148/226/59 146/228/59 160/221/59
f 115/231/59 135/232/59 131/233/59
f 150/204/59 145/222/59 137/234/59
f 168/235/59 164/236/59 171/237/59
f 125/238/59 122/239/59 143/209/59
f 166/240/59 177/241/59 186/216/59
f 116/242/59 115/231/59 128/243/59
f 136/244/59 162/245/59 168/235/59
f 122/239/59 129/207/59 143/209/59
f 165/229/59 159/215/59 155/246/59
f 136/244/59 140/247/59 162/245/59
f 167/205/59 169/223/59 152/206/59
f 174/218/59 187/217/59 176/248/59
f 120/249/59 127/250/59 122/239/59
f 156/214/59 155/246/59 159/215/59
f 155/246/59 152/206/59 165/229/59
f 165/229/59 169/223/59 181/225/59
f 128/243/59 119/251/59 116/242/59
f 161/252/59 149/253/59 160/221/59
f 162/245/59 164/236/59 168/235/59
f 136/244/59 131/233/59 140/247/59
f 171/237/59 166/240/59 174/218/59
f 187/217/59 183/254/59 176/248/59
f 136/244/59 167/205/59 150/204/59
f 138/255/59 134/256/59 144/211/59
f 164/236/59 166/240/59 171/237/59
f 135/232/59 140/247/59 131/233/59
f 140/247/59 149/253/59 161/252/59
f 173/224/59 175/257/59 185/230/59
f 142/210/59 125/238/59 143/209/59
f 166/240/59 186/216/59 174/218/59
f 137/234/59 136/244/59 150/204/59
f 127/250/59 129/207/59 122/239/59
f 130/212/59 125/238/59 142/210/59
f 134/256/59 130/212/59 144/211/59
f 131/233/59 128/243/59 115/231/59
f 119/251/59 117/258/59 116/242/59
f 132/208/59 137/234/59 145/222/59
f 175/257/59 179/259/59 185/230/59
f 140/247/59 161/252/59 162/245/59
f 136/244/59 168/235/59 167/205/59
f 149/253/59 148/226/59 160/221/59
f 115/231/59 123/260/59 135/232/59
f 146/228/59 151/219/59 160/221/59
