# Blender v2.83.1 OBJ File: 'jigsaw-80x45-3-step2.blend'
# www.blender.org
mtllib piece.2293.mtl
o path4586
v 0.146843 0.037500 0.541874
v 0.064104 0.037500 0.517918
v 0.059217 0.037500 0.462116
v 0.088253 0.037500 0.393147
v 0.087807 0.037500 0.336353
v 0.015600 0.037500 0.312622
v -0.086166 0.037500 0.325005
v -0.154181 0.037500 0.372097
v -0.146688 0.037500 0.447910
v -0.108200 0.037500 0.528103
v -0.104786 0.037500 0.583759
v -0.182411 0.037500 0.594608
v -0.516670 0.037500 0.524635
v -0.548893 0.037500 0.315281
v -0.555769 0.037500 0.191074
v -0.532293 0.037500 0.112389
v -0.466846 0.037500 0.113445
v -0.382381 0.037500 0.149548
v -0.310488 0.037500 0.156269
v -0.276920 0.037500 0.090420
v -0.284046 0.037500 -0.006206
v -0.328390 0.037500 -0.070576
v -0.402494 0.037500 -0.061356
v -0.482964 0.037500 -0.024097
v -0.542416 0.037500 -0.026043
v -0.561325 0.037500 -0.113541
v -0.516670 0.037500 -0.477272
v -0.317091 0.037500 -0.435959
v -0.197580 0.037500 -0.425072
v -0.119375 0.037500 -0.449139
v -0.114708 0.037500 -0.522095
v -0.143240 0.037500 -0.617565
v -0.146490 0.037500 -0.699139
v -0.085150 0.037500 -0.737461
v 0.003466 0.037500 -0.731461
v 0.062878 0.037500 -0.687126
v 0.056391 0.037500 -0.613724
v 0.026443 0.037500 -0.533638
v 0.035261 0.037500 -0.472527
v 0.125368 0.037500 -0.448860
v 0.485027 0.037500 -0.477272
v 0.435894 0.037500 -0.116997
v 0.451952 0.037500 -0.026421
v 0.507816 0.037500 -0.016834
v 0.584389 0.037500 -0.045170
v 0.654797 0.037500 -0.048561
v 0.696323 0.037500 0.015549
v 0.702879 0.037500 0.108494
v 0.672537 0.037500 0.171303
v 0.608305 0.037500 0.165047
v 0.533016 0.037500 0.130985
v 0.474443 0.037500 0.130421
v 0.452780 0.037500 0.205852
v 0.457911 0.037500 0.324615
v 0.485027 0.037500 0.524635
v 0.146843 -0.037500 0.541874
v 0.064104 -0.037500 0.517918
v 0.059217 -0.037500 0.462116
v 0.088253 -0.037500 0.393147
v 0.087807 -0.037498 0.336353
v 0.015600 -0.037500 0.312622
v -0.086166 -0.037500 0.325005
v -0.154181 -0.037500 0.372097
v -0.146688 -0.037500 0.447910
v -0.108200 -0.037500 0.528103
v -0.104786 -0.037498 0.583759
v -0.182411 -0.037500 0.594608
v -0.516670 -0.037500 0.524635
v -0.548893 -0.037498 0.315281
v -0.555769 -0.037500 0.191074
v -0.532293 -0.037500 0.112389
v -0.466846 -0.037500 0.113445
v -0.382381 -0.037500 0.149548
v -0.310488 -0.037498 0.156269
v -0.276920 -0.037500 0.090420
v -0.284046 -0.037500 -0.006206
v -0.328390 -0.037500 -0.070576
v -0.402494 -0.037498 -0.061356
v -0.482964 -0.037500 -0.024097
v -0.542416 -0.037498 -0.026043
v -0.561325 -0.037500 -0.113541
v -0.516670 -0.037500 -0.477272
v -0.317091 -0.037500 -0.435959
v -0.197580 -0.037500 -0.425072
v -0.119375 -0.037500 -0.449139
v -0.114708 -0.037500 -0.522095
v -0.143240 -0.037500 -0.617565
v -0.146490 -0.037500 -0.699139
v -0.085150 -0.037500 -0.737461
v 0.003466 -0.037500 -0.731461
v 0.062878 -0.037500 -0.687126
v 0.056391 -0.037500 -0.613724
v 0.026443 -0.037500 -0.533638
v 0.035261 -0.037500 -0.472527
v 0.125368 -0.037500 -0.448860
v 0.485027 -0.037500 -0.477272
v 0.435894 -0.037500 -0.116997
v 0.451952 -0.037500 -0.026421
v 0.507816 -0.037500 -0.016834
v 0.584389 -0.037500 -0.045170
v 0.654797 -0.037500 -0.048561
v 0.696323 -0.037500 0.015549
v 0.702879 -0.037500 0.108494
v 0.672537 -0.037500 0.171303
v 0.608305 -0.037500 0.165047
v 0.533016 -0.037498 0.130985
v 0.474443 -0.037500 0.130421
v 0.452780 -0.037500 0.205852
v 0.457911 -0.037500 0.324615
v 0.485027 -0.037500 0.524635
v -0.542416 0.037500 -0.026043
v -0.542416 0.037500 -0.026043
v -0.561325 0.037500 -0.113541
v -0.548893 0.037500 0.315281
v -0.555769 0.037500 0.191074
v -0.532293 0.037500 0.112389
v -0.532293 0.037500 0.112389
v -0.482964 0.037500 -0.024097
v -0.466846 0.037500 0.113445
v -0.516670 0.037500 0.524635
v -0.516670 0.037500 0.524635
v -0.516670 0.037500 -0.477272
v -0.516670 0.037500 -0.477272
v -0.402494 0.037500 -0.061356
v -0.382381 0.037500 0.149548
v -0.317091 0.037500 -0.435959
v -0.328390 0.037500 -0.070576
v -0.328390 0.037500 -0.070576
v -0.310488 0.037500 0.156269
v -0.310488 0.037500 0.156269
v -0.284046 0.037500 -0.006206
v -0.197580 0.037500 -0.425072
v -0.276920 0.037500 0.090420
v -0.182411 0.037500 0.594608
v -0.119375 0.037500 -0.449139
v -0.119375 0.037500 -0.449139
v -0.104786 0.037500 0.583759
v -0.104786 0.037500 0.583759
v -0.154181 0.037500 0.372097
v -0.154181 0.037500 0.372097
v -0.146688 0.037500 0.447910
v -0.086166 0.037500 0.325005
v -0.108200 0.037500 0.528103
v -0.143240 0.037500 -0.617565
v -0.146490 0.037500 -0.699139
v -0.146490 0.037500 -0.699139
v -0.085150 0.037500 -0.737461
v -0.114708 0.037500 -0.522095
v 0.015600 0.037500 0.312622
v 0.003466 0.037500 -0.731461
v 0.062878 0.037500 -0.687126
v 0.087807 0.037500 0.336353
v 0.087807 0.037500 0.336353
v 0.026443 0.037500 -0.533638
v 0.035261 0.037500 -0.472527
v 0.035261 0.037500 -0.472527
v 0.056391 0.037500 -0.613724
v 0.125368 0.037500 -0.448860
v 0.064104 0.037500 0.517918
v 0.064104 0.037500 0.517918
v 0.059217 0.037500 0.462116
v 0.088253 0.037500 0.393147
v 0.146843 0.037500 0.541874
v 0.435894 0.037500 -0.116997
v 0.451952 0.037500 -0.026421
v 0.451952 0.037500 -0.026421
v 0.507816 0.037500 -0.016834
v 0.452780 0.037500 0.205852
v 0.457911 0.037500 0.324615
v 0.474443 0.037500 0.130421
v 0.474443 0.037500 0.130421
v 0.485027 0.037500 -0.477272
v 0.485027 0.037500 -0.477272
v 0.485027 0.037500 0.524635
v 0.485027 0.037500 0.524635
v 0.533016 0.037500 0.130985
v 0.584389 0.037500 -0.045170
v 0.608305 0.037500 0.165047
v 0.654797 0.037500 -0.048561
v 0.672537 0.037500 0.171303
v 0.672537 0.037500 0.171303
v 0.696323 0.037500 0.015549
v 0.702879 0.037500 0.108494
v -0.542416 -0.037498 -0.026043
v -0.542416 -0.037498 -0.026043
v -0.561325 -0.037500 -0.113541
v -0.548893 -0.037498 0.315281
v -0.555769 -0.037500 0.191074
v -0.532293 -0.037500 0.112389
v -0.532293 -0.037500 0.112389
v -0.482964 -0.037500 -0.024097
v -0.466846 -0.037500 0.113445
v -0.516670 -0.037500 0.524635
v -0.516670 -0.037500 0.524635
v -0.516670 -0.037500 -0.477272
v -0.516670 -0.037500 -0.477272
v -0.402494 -0.037498 -0.061356
v -0.382381 -0.037500 0.149548
v -0.317091 -0.037500 -0.435959
v -0.328390 -0.037500 -0.070576
v -0.328390 -0.037500 -0.070576
v -0.310488 -0.037498 0.156269
v -0.310488 -0.037498 0.156269
v -0.284046 -0.037500 -0.006206
v -0.197580 -0.037500 -0.425072
v -0.276920 -0.037500 0.090420
v -0.182411 -0.037500 0.594608
v -0.119375 -0.037500 -0.449139
v -0.119375 -0.037500 -0.449139
v -0.104786 -0.037498 0.583759
v -0.104786 -0.037498 0.583759
v -0.154181 -0.037500 0.372097
v -0.154181 -0.037500 0.372097
v -0.146688 -0.037500 0.447910
v -0.086166 -0.037500 0.325005
v -0.108200 -0.037500 0.528103
v -0.143240 -0.037500 -0.617565
v -0.146490 -0.037500 -0.699139
v -0.146490 -0.037500 -0.699139
v -0.085150 -0.037500 -0.737461
v -0.114708 -0.037500 -0.522095
v 0.015600 -0.037500 0.312622
v 0.003466 -0.037500 -0.731461
v 0.062878 -0.037500 -0.687126
v 0.087807 -0.037498 0.336353
v 0.087807 -0.037498 0.336353
v 0.026443 -0.037500 -0.533638
v 0.035261 -0.037500 -0.472527
v 0.035261 -0.037500 -0.472527
v 0.056391 -0.037500 -0.613724
v 0.125368 -0.037500 -0.448860
v 0.064104 -0.037500 0.517918
v 0.064104 -0.037500 0.517918
v 0.059217 -0.037500 0.462116
v 0.088253 -0.037500 0.393147
v 0.146843 -0.037500 0.541874
v 0.435894 -0.037500 -0.116997
v 0.451952 -0.037500 -0.026421
v 0.451952 -0.037500 -0.026421
v 0.507816 -0.037500 -0.016834
v 0.452780 -0.037500 0.205852
v 0.457911 -0.037500 0.324615
v 0.474443 -0.037500 0.130421
v 0.474443 -0.037500 0.130421
v 0.485027 -0.037500 -0.477272
v 0.485027 -0.037500 -0.477272
v 0.485027 -0.037500 0.524635
v 0.485027 -0.037500 0.524635
v 0.533016 -0.037498 0.130985
v 0.584389 -0.037500 -0.045170
v 0.608305 -0.037500 0.165047
v 0.654797 -0.037500 -0.048561
v 0.672537 -0.037500 0.171303
v 0.672537 -0.037500 0.171303
v 0.696323 -0.037500 0.015549
v 0.702879 -0.037500 0.108494
vt 0.500000 0.500000
vt 0.500000 0.500000
vt 0.500000 0.500000
vt 0.500000 0.500000
vt 0.500000 0.500000
vt 0.500000 0.500000
vt 0.500000 0.500000
vt 0.500000 0.500000
vt 0.500000 0.500000
vt 0.500000 0.500000
vt 0.500000 0.500000
vt 0.500000 0.500000
vt 0.500000 0.500000
vt 0.500000 0.500000
vt 0.500000 0.500000
vt 0.500000 0.500000
vt 0.500000 0.500000
vt 0.500000 0.500000
vt 0.500000 0.500000
vt 0.500000 0.500000
vt 0.500000 0.500000
vt 0.500000 0.500000
vt 0.500000 0.500000
vt 0.500000 0.500000
vt 0.500000 0.500000
vt 0.500000 0.500000
vt 0.500000 0.500000
vt 0.500000 0.500000
vt 0.500000 0.500000
vt 0.500000 0.500000
vt 0.500000 0.500000
vt 0.500000 0.500000
vt 0.500000 0.500000
vt 0.500000 0.500000
vt 0.500000 0.500000
vt 0.500000 0.500000
vt 0.500000 0.500000
vt 0.500000 0.500000
vt 0.500000 0.500000
vt 0.500000 0.500000
vt 0.500000 0.500000
vt 0.500000 0.500000
vt 0.500000 0.500000
vt 0.500000 0.500000
vt 0.500000 0.500000
vt 0.500000 0.500000
vt 0.500000 0.500000
vt 0.500000 0.500000
vt 0.500000 0.500000
vt 0.500000 0.500000
vt 0.500000 0.500000
vt 0.500000 0.500000
vt 0.500000 0.500000
vt 0.500000 0.500000
vt 0.500000 0.500000
vt 0.500000 0.500000
vt 0.500000 0.500000
vt 0.500000 0.500000
vt 0.500000 0.500000
vt 0.500000 0.500000
vt 0.500000 0.500000
vt 0.500000 0.500000
vt 0.500000 0.500000
vt 0.500000 0.500000
vt 0.500000 0.500000
vt 0.500000 0.500000
vt 0.500000 0.500000
vt 0.500000 0.500000
vt 0.500000 0.500000
vt 0.500000 0.500000
vt 0.500000 0.500000
vt 0.500000 0.500000
vt 0.500000 0.500000
vt 0.500000 0.500000
vt 0.500000 0.500000
vt 0.500000 0.500000
vt 0.500000 0.500000
vt 0.500000 0.500000
vt 0.500000 0.500000
vt 0.500000 0.500000
vt 0.500000 0.500000
vt 0.500000 0.500000
vt 0.500000 0.500000
vt 0.500000 0.500000
vt 0.500000 0.500000
vt 0.500000 0.500000
vt 0.500000 0.500000
vt 0.500000 0.500000
vt 0.500000 0.500000
vt 0.500000 0.500000
vt 0.500000 0.500000
vt 0.500000 0.500000
vt 0.500000 0.500000
vt 0.500000 0.500000
vt 0.500000 0.500000
vt 0.500000 0.500000
vt 0.500000 0.500000
vt 0.500000 0.500000
vt 0.500000 0.500000
vt 0.500000 0.500000
vt 0.500000 0.500000
vt 0.500000 0.500000
vt 0.500000 0.500000
vt 0.500000 0.500000
vt 0.500000 0.500000
vt 0.500000 0.500000
vt 0.500000 0.500000
vt 0.500000 0.500000
vt 0.500000 0.500000
vt 0.500000 0.500000
vt 0.500000 0.500000
vt 0.500000 0.500000
vt 0.500000 0.500000
vt 0.500000 0.500000
vt 0.500000 0.500000
vt 0.500000 0.500000
vt 0.500000 0.500000
vt 0.500000 0.500000
vt 0.500000 0.500000
vt 0.500000 0.500000
vt 0.500000 0.500000
vt 0.500000 0.500000
vt 0.500000 0.500000
vt 0.500000 0.500000
vt 0.500000 0.500000
vt 0.500000 0.500000
vt 0.500000 0.500000
vt 0.500000 0.500000
vt 0.500000 0.500000
vt 0.500000 0.500000
vt 0.500000 0.500000
vt 0.500000 0.500000
vt 0.500000 0.500000
vt 0.500000 0.500000
vt 0.500000 0.500000
vt 0.500000 0.500000
vt 0.500000 0.500000
vt 0.500000 0.500000
vt 0.500000 0.500000
vt 0.500000 0.500000
vt 0.500000 0.500000
vt 0.500000 0.500000
vt 0.500000 0.500000
vt 0.500000 0.500000
vt 0.500000 0.500000
vt 0.500000 0.500000
vt 0.500000 0.500000
vt 0.500000 0.500000
vt 0.500000 0.500000
vt 0.500000 0.500000
vt 0.500000 0.500000
vt 0.500000 0.500000
vt 0.500000 0.500000
vt 0.500000 0.500000
vt 0.500000 0.500000
vt 0.500000 0.500000
vt 0.500000 0.500000
vt 0.500000 0.500000
vt 0.500000 0.500000
vt 0.500000 0.500000
vt 0.500000 0.500000
vt 0.500000 0.500000
vt 0.500000 0.500000
vt 0.500000 0.500000
vt 0.500000 0.500000
vt 0.500000 0.500000
vt 0.500000 0.500000
vt 0.500000 0.500000
vt 0.500000 0.500000
vt 0.500000 0.500000
vt 0.500000 0.500000
vt 0.500000 0.500000
vt 0.500000 0.500000
vt 0.500000 0.500000
vt 0.500000 0.500000
vt 0.500000 0.500000
vt 0.500000 0.500000
vt 0.500000 0.500000
vt 0.500000 0.500000
vt 0.500000 0.500000
vt 0.500000 0.500000
vt 0.500000 0.500000
vt 0.500000 0.500000
vt 0.500000 0.500000
vt 0.500000 0.500000
vt 0.500000 0.500000
vt 0.500000 0.500000
vt 0.500000 0.500000
vt 0.500000 0.500000
vt 0.500000 0.500000
vt 0.500000 0.500000
vt 0.500000 0.500000
vt 0.500000 0.500000
vt 0.500000 0.500000
vt 0.500000 0.500000
vt 0.500000 0.500000
vt 0.500000 0.500000
vt 0.500000 0.500000
vt 0.500000 0.500000
vt 0.500000 0.500000
vt 0.500000 0.500000
vt 0.652645 0.365970
vt 0.656875 0.356289
vt 0.658005 0.356646
vt 0.655417 0.372459
vt 0.652491 0.368227
vt 0.664250 0.369493
vt 0.663059 0.368860
vt 0.663203 0.365729
vt 0.665118 0.364921
vt 0.665671 0.366239
vt 0.664202 0.365065
vt 0.656846 0.377030
vt 0.657311 0.375245
vt 0.657962 0.378768
vt 0.649127 0.370362
vt 0.649957 0.368716
vt 0.650957 0.369570
vt 0.654596 0.373204
vt 0.665268 0.369566
vt 0.665746 0.368205
vt 0.652349 0.364368
vt 0.653977 0.356271
vt 0.654918 0.355790
vt 0.657426 0.373601
vt 0.656623 0.372617
vt 0.661849 0.370699
vt 0.656352 0.350868
vt 0.657109 0.353351
vt 0.654911 0.354491
vt 0.656756 0.355050
vt 0.652612 0.378493
vt 0.650000 0.377778
vt 0.651903 0.369736
vt 0.662149 0.368964
vt 0.662441 0.365534
vt 0.661985 0.373350
vt 0.649262 0.368640
vt 0.655143 0.378124
vt 0.654162 0.378645
vt 0.655130 0.376673
vt 0.654680 0.374799
vt 0.662500 0.355556
vt 0.662145 0.363534
vt 0.651640 0.364358
vt 0.652496 0.356157
vt 0.657151 0.351789
vt 0.654486 0.352821
vt 0.654408 0.351396
vt 0.655192 0.350723
vt 0.650780 0.365002
vt 0.649785 0.363058
vt 0.650000 0.355556
vt 0.662500 0.377778
vt 0.650084 0.364894
vt 0.656870 0.378349
vn 0.0000 -1.0000 0.0000
vn -0.9774 0.0000 0.2112
vn -0.9985 0.0000 0.0553
vn -0.9583 0.0000 -0.2859
vn -0.0327 0.0000 0.9995
vn 0.0161 0.0000 -0.9999
vn -0.9884 0.0000 0.1521
vn -0.9925 0.0000 -0.1219
vn 0.4202 0.0000 0.9075
vn 0.3930 0.0000 -0.9195
vn 0.2027 0.0000 -0.9792
vn 0.1235 0.0000 0.9923
vn 0.0931 0.0000 -0.9957
vn -0.8235 0.0000 0.5673
vn 0.0907 0.0000 -0.9959
vn -0.8909 0.0000 -0.4542
vn -0.2049 0.0000 0.9788
vn -0.9973 0.0000 0.0735
vn -0.2941 0.0000 -0.9558
vn 0.1384 0.0000 0.9904
vn 0.9952 0.0000 -0.0983
vn 0.5693 0.0000 0.8222
vn 0.9981 0.0000 -0.0612
vn 0.9015 0.0000 -0.4327
vn -0.9992 0.0000 0.0398
vn -0.5298 0.0000 -0.8481
vn -0.9581 0.0000 0.2863
vn -0.9980 0.0000 -0.0638
vn 0.1208 0.0000 0.9927
vn 0.0676 0.0000 -0.9977
vn 0.5981 0.0000 -0.8015
vn -0.3122 0.0000 0.9500
vn 0.9898 0.0000 -0.1428
vn 0.9367 0.0000 0.3503
vn 0.9961 0.0000 0.0880
vn 0.2540 0.0000 -0.9672
vn -0.9962 0.0000 0.0872
vn -0.9217 0.0000 -0.3880
vn -0.2781 0.0000 0.9605
vn -1.0000 0.0000 0.0079
vn 0.9846 0.0000 -0.1746
vn 0.1691 0.0000 -0.9856
vn 0.9991 0.0000 -0.0432
vn 0.9611 0.0000 0.2760
vn 0.9908 0.0000 0.1351
vn -0.0788 0.0000 -0.9969
vn 0.0509 0.0000 0.9987
vn 0.9909 0.0000 -0.1343
vn -0.0096 0.0000 1.0000
vn -0.3470 0.0000 -0.9378
vn -0.4122 0.0000 0.9111
vn -0.0481 0.0000 -0.9988
vn -0.0969 0.0000 0.9953
vn 0.8393 0.0000 -0.5437
vn 0.9004 0.0000 0.4350
vn 0.9975 0.0000 -0.0704
vn 0.0000 1.0000 -0.0000
usemtl BackMat.001
s off
f 222/1/1 237/2/1 238/3/1
f 206/4/1 222/1/1 215/5/1
f 217/6/1 227/7/1 221/8/1
f 224/9/1 230/10/1 223/11/1
f 191/12/1 186/13/1 197/14/1
f 207/15/1 214/16/1 216/17/1
f 206/4/1 215/5/1 202/18/1
f 218/19/1 220/20/1 217/6/1
f 225/21/1 243/22/1 241/23/1
f 200/24/1 205/25/1 204/26/1
f 255/27/1 249/28/1 250/29/1
f 243/22/1 240/30/1 249/28/1
f 187/31/1 212/32/1 193/33/1
f 193/33/1 214/16/1 207/15/1
f 193/33/1 212/32/1 214/16/1
f 204/26/1 222/1/1 206/4/1
f 208/34/1 204/26/1 205/25/1
f 204/26/1 237/2/1 222/1/1
f 227/7/1 217/6/1 230/10/1
f 202/18/1 215/5/1 212/32/1
f 227/7/1 228/35/1 221/8/1
f 200/24/1 197/14/1 199/36/1
f 207/15/1 216/17/1 210/37/1
f 189/38/1 192/39/1 188/40/1
f 221/8/1 228/35/1 208/34/1
f 202/18/1 187/31/1 198/41/1
f 237/2/1 231/42/1 245/43/1
f 220/20/1 223/11/1 217/6/1
f 208/34/1 231/42/1 204/26/1
f 225/21/1 242/44/1 235/45/1
f 255/27/1 250/29/1 252/46/1
f 242/44/1 225/21/1 241/23/1
f 251/47/1 256/48/1 253/49/1
f 243/22/1 238/3/1 240/30/1
f 204/26/1 231/42/1 237/2/1
f 222/1/1 238/3/1 225/21/1
f 240/30/1 250/29/1 249/28/1
f 199/36/1 197/14/1 186/13/1
f 235/45/1 236/50/1 234/51/1
f 236/50/1 242/44/1 247/52/1
f 205/25/1 200/24/1 199/36/1
f 199/36/1 186/13/1 195/53/1
f 234/51/1 236/50/1 232/54/1
f 208/34/1 228/35/1 231/42/1
f 251/47/1 255/27/1 256/48/1
f 230/10/1 217/6/1 223/11/1
f 249/28/1 255/27/1 251/47/1
f 202/18/1 212/32/1 187/31/1
f 225/21/1 238/3/1 243/22/1
f 188/40/1 198/41/1 187/31/1
f 236/50/1 235/45/1 242/44/1
f 184/55/1 186/13/1 191/12/1
f 198/41/1 188/40/1 192/39/1
f 112/56/2 26/57/2 81/58/2 185/59/2
f 14/60/3 15/61/3 70/62/3 69/63/3
f 15/61/4 117/64/4 190/65/4 70/62/4
f 24/66/5 25/67/5 80/68/5 79/69/5
f 16/70/6 17/71/6 72/72/6 71/73/6
f 121/74/7 14/60/7 69/63/7 194/75/7
f 26/57/8 123/76/8 196/77/8 81/58/8
f 23/78/9 24/66/9 79/69/9 78/79/9
f 17/71/10 18/80/10 73/81/10 72/72/10
f 27/82/11 28/83/11 83/84/11 82/85/11
f 128/86/12 23/78/12 78/79/12 201/87/12
f 18/80/13 130/88/13 203/89/13 73/81/13
f 21/90/14 22/91/14 77/92/14 76/93/14
f 28/83/15 29/94/15 84/95/15 83/84/15
f 19/96/16 20/97/16 75/98/16 74/99/16
f 12/100/17 13/101/17 68/102/17 67/103/17
f 20/97/18 21/90/18 76/93/18 75/98/18
f 29/94/19 136/104/19 209/105/19 84/95/19
f 138/106/20 12/100/20 67/103/20 211/107/20
f 140/108/21 9/109/21 64/110/21 213/111/21
f 7/112/22 8/113/22 63/114/22 62/115/22
f 10/116/23 11/117/23 66/118/23 65/119/23
f 9/109/24 10/116/24 65/119/24 64/110/24
f 32/120/25 146/121/25 219/122/25 87/123/25
f 33/124/26 34/125/26 89/126/26 88/127/26
f 31/128/27 32/120/27 87/123/27 86/129/27
f 30/130/28 31/128/28 86/129/28 85/131/28
f 6/132/29 7/112/29 62/115/29 61/133/29
f 34/125/30 35/134/30 90/135/30 89/126/30
f 35/134/31 36/136/31 91/137/31 90/135/31
f 153/138/32 6/132/32 61/133/32 226/139/32
f 38/140/33 156/141/33 229/142/33 93/143/33
f 37/144/34 38/140/34 93/143/34 92/145/34
f 36/136/35 37/144/35 92/145/35 91/137/35
f 39/146/36 40/147/36 95/148/36 94/149/36
f 160/150/37 3/151/37 58/152/37 233/153/37
f 3/151/38 4/154/38 59/155/38 58/152/38
f 1/156/39 2/157/39 57/158/39 56/159/39
f 4/154/40 5/160/40 60/161/40 59/155/40
f 42/162/41 166/163/41 239/164/41 97/165/41
f 43/166/42 44/167/42 99/168/42 98/169/42
f 53/170/43 54/171/43 109/172/43 108/173/43
f 171/174/44 53/170/44 108/173/44 244/175/44
f 173/176/45 42/162/45 97/165/45 246/177/45
f 40/147/46 41/178/46 96/179/46 95/148/46
f 175/180/47 1/156/47 56/159/47 248/181/47
f 54/171/48 55/182/48 110/183/48 109/172/48
f 51/184/49 52/185/49 107/186/49 106/187/49
f 44/167/50 45/188/50 100/189/50 99/168/50
f 50/190/51 51/184/51 106/187/51 105/191/51
f 45/188/52 46/192/52 101/193/52 100/189/52
f 181/194/53 50/190/53 105/191/53 254/195/53
f 46/192/54 47/196/54 102/197/54 101/193/54
f 48/198/55 49/199/55 104/200/55 103/201/55
f 47/196/56 48/198/56 103/201/56 102/197/56
usemtl FrontMat.001
f 149/202/57 165/203/57 164/204/57
f 133/205/57 142/206/57 149/202/57
f 144/207/57 148/208/57 154/209/57
f 151/210/57 150/211/57 157/212/57
f 118/213/57 124/214/57 113/215/57
f 134/216/57 143/217/57 141/218/57
f 133/205/57 129/219/57 142/206/57
f 145/220/57 144/207/57 147/221/57
f 152/222/57 168/223/57 170/224/57
f 127/225/57 131/226/57 132/227/57
f 182/228/57 177/229/57 176/230/57
f 170/224/57 176/230/57 167/231/57
f 114/232/57 120/233/57 139/234/57
f 120/233/57 134/216/57 141/218/57
f 120/233/57 141/218/57 139/234/57
f 131/226/57 133/205/57 149/202/57
f 135/235/57 132/227/57 131/226/57
f 131/226/57 149/202/57 164/204/57
f 154/209/57 157/212/57 144/207/57
f 129/219/57 139/234/57 142/206/57
f 154/209/57 148/208/57 155/236/57
f 127/225/57 126/237/57 124/214/57
f 134/216/57 137/238/57 143/217/57
f 116/239/57 115/240/57 119/241/57
f 148/208/57 135/235/57 155/236/57
f 129/219/57 125/242/57 114/232/57
f 164/204/57 172/243/57 158/244/57
f 147/221/57 144/207/57 150/211/57
f 135/235/57 131/226/57 158/244/57
f 152/222/57 162/245/57 169/246/57
f 182/228/57 179/247/57 177/229/57
f 169/246/57 168/223/57 152/222/57
f 178/248/57 180/249/57 183/250/57
f 170/224/57 167/231/57 165/203/57
f 131/226/57 164/204/57 158/244/57
f 149/202/57 152/222/57 165/203/57
f 167/231/57 176/230/57 177/229/57
f 126/237/57 113/215/57 124/214/57
f 162/245/57 161/251/57 163/252/57
f 163/252/57 174/253/57 169/246/57
f 132/227/57 126/237/57 127/225/57
f 126/237/57 122/254/57 113/215/57
f 161/251/57 159/255/57 163/252/57
f 135/235/57 158/244/57 155/236/57
f 178/248/57 183/250/57 182/228/57
f 157/212/57 150/211/57 144/207/57
f 176/230/57 178/248/57 182/228/57
f 129/219/57 114/232/57 139/234/57
f 152/222/57 170/224/57 165/203/57
f 115/240/57 114/232/57 125/242/57
f 163/252/57 169/246/57 162/245/57
f 111/256/57 118/213/57 113/215/57
f 125/242/57 119/241/57 115/240/57
