# Blender v2.83.1 OBJ File: 'jigsaw-80x45-3-step2.blend'
# www.blender.org
mtllib piece.1559.mtl
o path3118
v 0.567772 0.037500 -0.291527
v 0.582815 0.037500 -0.173618
v 0.564405 0.037500 -0.097259
v 0.498056 0.037500 -0.094395
v 0.406816 0.037500 -0.124035
v 0.323124 0.037500 -0.126949
v 0.274395 0.037500 -0.063290
v 0.267937 0.037500 0.029282
v 0.306026 0.037500 0.093719
v 0.384865 0.037500 0.092587
v 0.476322 0.037500 0.066887
v 0.546183 0.037500 0.077225
v 0.569698 0.037500 0.165165
v 0.560020 0.037500 0.296032
v 0.521700 0.037500 0.512882
v 0.317293 0.037500 0.460918
v 0.196142 0.037500 0.441803
v 0.119665 0.037500 0.456322
v 0.121292 0.037500 0.519840
v 0.157000 0.037500 0.609844
v 0.163403 0.037500 0.694351
v 0.098001 0.037500 0.745983
v 0.001881 0.037500 0.755764
v -0.062977 0.037500 0.719322
v -0.055939 0.037500 0.639153
v -0.021740 0.037500 0.545219
v -0.026457 0.037500 0.474354
v -0.115541 0.037500 0.453117
v -0.251984 0.037500 0.467060
v -0.479998 0.037500 0.512882
v -0.438345 0.037500 0.289219
v -0.425880 0.037500 0.155334
v -0.445833 0.037500 0.067818
v -0.512045 0.037500 0.062893
v -0.603041 0.037500 0.095764
v -0.688499 0.037500 0.101383
v -0.742226 0.037500 0.035862
v -0.754522 0.037500 -0.060005
v -0.719822 0.037500 -0.124260
v -0.639587 0.037500 -0.116032
v -0.543379 0.037500 -0.078747
v -0.467773 0.037500 -0.076920
v -0.439474 0.037500 -0.155281
v -0.445669 0.037500 -0.279472
v -0.479998 0.037500 -0.489029
v -0.251167 0.037500 -0.458401
v -0.115097 0.037500 -0.452229
v -0.028202 0.037500 -0.475601
v -0.028051 0.037500 -0.540234
v -0.067799 0.037500 -0.626366
v -0.079487 0.037500 -0.706337
v -0.016668 0.037500 -0.755981
v 0.081097 0.037500 -0.765060
v 0.152742 0.037500 -0.726818
v 0.157127 0.037500 -0.642044
v 0.132774 0.037500 -0.541691
v 0.138128 0.037500 -0.464256
v 0.213821 0.037500 -0.437675
v 0.329184 0.037500 -0.447712
v 0.521700 0.037500 -0.489029
v 0.567772 -0.037498 -0.291527
v 0.582815 -0.037500 -0.173618
v 0.564405 -0.037500 -0.097259
v 0.498056 -0.037500 -0.094395
v 0.406816 -0.037500 -0.124035
v 0.323124 -0.037500 -0.126949
v 0.274395 -0.037500 -0.063290
v 0.267937 -0.037498 0.029282
v 0.306026 -0.037498 0.093719
v 0.384865 -0.037500 0.092587
v 0.476322 -0.037498 0.066887
v 0.546183 -0.037500 0.077225
v 0.569698 -0.037500 0.165165
v 0.560020 -0.037498 0.296032
v 0.521700 -0.037500 0.512882
v 0.317293 -0.037498 0.460918
v 0.196142 -0.037500 0.441803
v 0.119665 -0.037500 0.456322
v 0.121292 -0.037500 0.519840
v 0.157000 -0.037500 0.609844
v 0.163403 -0.037500 0.694351
v 0.098001 -0.037500 0.745983
v 0.001881 -0.037500 0.755764
v -0.062977 -0.037500 0.719322
v -0.055939 -0.037500 0.639153
v -0.021740 -0.037500 0.545219
v -0.026457 -0.037500 0.474354
v -0.115541 -0.037500 0.453117
v -0.251984 -0.037498 0.467060
v -0.479998 -0.037500 0.512882
v -0.438345 -0.037498 0.289219
v -0.425880 -0.037500 0.155334
v -0.445833 -0.037500 0.067818
v -0.512045 -0.037498 0.062893
v -0.603041 -0.037500 0.095764
v -0.688499 -0.037500 0.101383
v -0.742226 -0.037500 0.035862
v -0.754522 -0.037500 -0.060005
v -0.719822 -0.037500 -0.124260
v -0.639587 -0.037500 -0.116032
v -0.543379 -0.037500 -0.078747
v -0.467773 -0.037500 -0.076920
v -0.439474 -0.037498 -0.155281
v -0.445669 -0.037500 -0.279472
v -0.479998 -0.037498 -0.489029
v -0.251167 -0.037500 -0.458401
v -0.115097 -0.037498 -0.452229
v -0.028202 -0.037500 -0.475601
v -0.028051 -0.037498 -0.540234
v -0.067799 -0.037500 -0.626366
v -0.079487 -0.037500 -0.706337
v -0.016668 -0.037500 -0.755981
v 0.081097 -0.037500 -0.765060
v 0.152742 -0.037500 -0.726818
v 0.157127 -0.037500 -0.642044
v 0.132774 -0.037500 -0.541691
v 0.138128 -0.037500 -0.464256
v 0.213821 -0.037498 -0.437675
v 0.329184 -0.037500 -0.447712
v 0.521700 -0.037500 -0.489029
v 0.567772 0.037500 -0.291527
v 0.582815 0.037500 -0.173618
v 0.564405 0.037500 -0.097259
v 0.564405 0.037500 -0.097259
v 0.546183 0.037500 0.077225
v 0.546183 0.037500 0.077225
v 0.569698 0.037500 0.165165
v 0.560020 0.037500 0.296032
v 0.498056 0.037500 -0.094395
v 0.476322 0.037500 0.066887
v 0.521700 0.037500 -0.489029
v 0.521700 0.037500 -0.489029
v 0.521700 0.037500 0.512882
v 0.521700 0.037500 0.512882
v 0.406816 0.037500 -0.124035
v 0.384865 0.037500 0.092587
v 0.329184 0.037500 -0.447712
v 0.317293 0.037500 0.460918
v 0.323124 0.037500 -0.126949
v 0.306026 0.037500 0.093719
v 0.306026 0.037500 0.093719
v 0.213821 0.037500 -0.437675
v 0.274395 0.037500 -0.063290
v 0.196142 0.037500 0.441803
v 0.267937 0.037500 0.029282
v 0.138128 0.037500 -0.464256
v 0.138128 0.037500 -0.464256
v 0.119665 0.037500 0.456322
v 0.119665 0.037500 0.456322
v 0.157000 0.037500 0.609844
v 0.163403 0.037500 0.694351
v 0.098001 0.037500 0.745983
v 0.152742 0.037500 -0.726818
v 0.157127 0.037500 -0.642044
v 0.132774 0.037500 -0.541691
v 0.121292 0.037500 0.519840
v 0.081097 0.037500 -0.765060
v 0.001881 0.037500 0.755764
v -0.016668 0.037500 -0.755981
v -0.062977 0.037500 0.719322
v -0.062977 0.037500 0.719322
v -0.079487 0.037500 -0.706337
v -0.021740 0.037500 0.545219
v -0.026457 0.037500 0.474354
v -0.026457 0.037500 0.474354
v -0.055939 0.037500 0.639153
v -0.028202 0.037500 -0.475601
v -0.028202 0.037500 -0.475601
v -0.028051 0.037500 -0.540234
v -0.115541 0.037500 0.453117
v -0.067799 0.037500 -0.626366
v -0.115097 0.037500 -0.452229
v -0.251167 0.037500 -0.458401
v -0.251984 0.037500 0.467060
v -0.479998 0.037500 -0.489029
v -0.479998 0.037500 -0.489029
v -0.439474 0.037500 -0.155281
v -0.445669 0.037500 -0.279472
v -0.425880 0.037500 0.155334
v -0.445833 0.037500 0.067818
v -0.445833 0.037500 0.067818
v -0.438345 0.037500 0.289219
v -0.467773 0.037500 -0.076920
v -0.467773 0.037500 -0.076920
v -0.512045 0.037500 0.062893
v -0.479998 0.037500 0.512882
v -0.479998 0.037500 0.512882
v -0.543379 0.037500 -0.078747
v -0.603041 0.037500 0.095764
v -0.639587 0.037500 -0.116032
v -0.688499 0.037500 0.101383
v -0.719822 0.037500 -0.124260
v -0.719822 0.037500 -0.124260
v -0.742226 0.037500 0.035862
v -0.754522 0.037500 -0.060005
v 0.567772 -0.037498 -0.291527
v 0.582815 -0.037500 -0.173618
v 0.564405 -0.037500 -0.097259
v 0.564405 -0.037500 -0.097259
v 0.546183 -0.037500 0.077225
v 0.546183 -0.037500 0.077225
v 0.569698 -0.037500 0.165165
v 0.560020 -0.037498 0.296032
v 0.498056 -0.037500 -0.094395
v 0.476322 -0.037498 0.066887
v 0.521700 -0.037500 -0.489029
v 0.521700 -0.037500 -0.489029
v 0.521700 -0.037500 0.512882
v 0.521700 -0.037500 0.512882
v 0.406816 -0.037500 -0.124035
v 0.384865 -0.037500 0.092587
v 0.329184 -0.037500 -0.447712
v 0.317293 -0.037498 0.460918
v 0.323124 -0.037500 -0.126949
v 0.306026 -0.037498 0.093719
v 0.306026 -0.037498 0.093719
v 0.213821 -0.037498 -0.437675
v 0.274395 -0.037500 -0.063290
v 0.196142 -0.037500 0.441803
v 0.267937 -0.037498 0.029282
v 0.138128 -0.037500 -0.464256
v 0.138128 -0.037500 -0.464256
v 0.119665 -0.037500 0.456322
v 0.119665 -0.037500 0.456322
v 0.157000 -0.037500 0.609844
v 0.163403 -0.037500 0.694351
v 0.098001 -0.037500 0.745983
v 0.152742 -0.037500 -0.726818
v 0.157127 -0.037500 -0.642044
v 0.132774 -0.037500 -0.541691
v 0.121292 -0.037500 0.519840
v 0.081097 -0.037500 -0.765060
v 0.001881 -0.037500 0.755764
v -0.016668 -0.037500 -0.755981
v -0.062977 -0.037500 0.719322
v -0.062977 -0.037500 0.719322
v -0.079487 -0.037500 -0.706337
v -0.021740 -0.037500 0.545219
v -0.026457 -0.037500 0.474354
v -0.026457 -0.037500 0.474354
v -0.055939 -0.037500 0.639153
v -0.028202 -0.037500 -0.475601
v -0.028202 -0.037500 -0.475601
v -0.028051 -0.037498 -0.540234
v -0.115541 -0.037500 0.453117
v -0.067799 -0.037500 -0.626366
v -0.115097 -0.037498 -0.452229
v -0.251167 -0.037500 -0.458401
v -0.251984 -0.037498 0.467060
v -0.479998 -0.037498 -0.489029
v -0.479998 -0.037498 -0.489029
v -0.439474 -0.037498 -0.155281
v -0.445669 -0.037500 -0.279472
v -0.425880 -0.037500 0.155334
v -0.445833 -0.037500 0.067818
v -0.445833 -0.037500 0.067818
v -0.438345 -0.037498 0.289219
v -0.467773 -0.037500 -0.076920
v -0.467773 -0.037500 -0.076920
v -0.512045 -0.037498 0.062893
v -0.479998 -0.037500 0.512882
v -0.479998 -0.037500 0.512882
v -0.543379 -0.037500 -0.078747
v -0.603041 -0.037500 0.095764
v -0.639587 -0.037500 -0.116032
v -0.688499 -0.037500 0.101383
v -0.719822 -0.037500 -0.124260
v -0.719822 -0.037500 -0.124260
v -0.742226 -0.037500 0.035862
v -0.754522 -0.037500 -0.060005
vt 0.500000 0.500000
vt 0.500000 0.500000
vt 0.500000 0.500000
vt 0.500000 0.500000
vt 0.500000 0.500000
vt 0.500000 0.500000
vt 0.500000 0.500000
vt 0.500000 0.500000
vt 0.500000 0.500000
vt 0.500000 0.500000
vt 0.500000 0.500000
vt 0.500000 0.500000
vt 0.500000 0.500000
vt 0.500000 0.500000
vt 0.500000 0.500000
vt 0.500000 0.500000
vt 0.500000 0.500000
vt 0.500000 0.500000
vt 0.500000 0.500000
vt 0.500000 0.500000
vt 0.500000 0.500000
vt 0.500000 0.500000
vt 0.500000 0.500000
vt 0.500000 0.500000
vt 0.500000 0.500000
vt 0.500000 0.500000
vt 0.500000 0.500000
vt 0.500000 0.500000
vt 0.500000 0.500000
vt 0.500000 0.500000
vt 0.500000 0.500000
vt 0.500000 0.500000
vt 0.500000 0.500000
vt 0.500000 0.500000
vt 0.500000 0.500000
vt 0.500000 0.500000
vt 0.500000 0.500000
vt 0.500000 0.500000
vt 0.500000 0.500000
vt 0.500000 0.500000
vt 0.500000 0.500000
vt 0.500000 0.500000
vt 0.500000 0.500000
vt 0.500000 0.500000
vt 0.500000 0.500000
vt 0.500000 0.500000
vt 0.500000 0.500000
vt 0.500000 0.500000
vt 0.500000 0.500000
vt 0.500000 0.500000
vt 0.500000 0.500000
vt 0.500000 0.500000
vt 0.500000 0.500000
vt 0.500000 0.500000
vt 0.500000 0.500000
vt 0.500000 0.500000
vt 0.500000 0.500000
vt 0.500000 0.500000
vt 0.500000 0.500000
vt 0.500000 0.500000
vt 0.500000 0.500000
vt 0.500000 0.500000
vt 0.500000 0.500000
vt 0.500000 0.500000
vt 0.500000 0.500000
vt 0.500000 0.500000
vt 0.500000 0.500000
vt 0.500000 0.500000
vt 0.500000 0.500000
vt 0.500000 0.500000
vt 0.500000 0.500000
vt 0.500000 0.500000
vt 0.500000 0.500000
vt 0.500000 0.500000
vt 0.500000 0.500000
vt 0.500000 0.500000
vt 0.500000 0.500000
vt 0.500000 0.500000
vt 0.500000 0.500000
vt 0.500000 0.500000
vt 0.500000 0.500000
vt 0.500000 0.500000
vt 0.500000 0.500000
vt 0.500000 0.500000
vt 0.500000 0.500000
vt 0.500000 0.500000
vt 0.500000 0.500000
vt 0.500000 0.500000
vt 0.500000 0.500000
vt 0.500000 0.500000
vt 0.500000 0.500000
vt 0.500000 0.500000
vt 0.500000 0.500000
vt 0.500000 0.500000
vt 0.500000 0.500000
vt 0.500000 0.500000
vt 0.500000 0.500000
vt 0.500000 0.500000
vt 0.500000 0.500000
vt 0.500000 0.500000
vt 0.500000 0.500000
vt 0.500000 0.500000
vt 0.500000 0.500000
vt 0.500000 0.500000
vt 0.500000 0.500000
vt 0.500000 0.500000
vt 0.500000 0.500000
vt 0.500000 0.500000
vt 0.500000 0.500000
vt 0.500000 0.500000
vt 0.500000 0.500000
vt 0.500000 0.500000
vt 0.500000 0.500000
vt 0.500000 0.500000
vt 0.500000 0.500000
vt 0.500000 0.500000
vt 0.500000 0.500000
vt 0.500000 0.500000
vt 0.500000 0.500000
vt 0.500000 0.500000
vt 0.500000 0.500000
vt 0.500000 0.500000
vt 0.500000 0.500000
vt 0.500000 0.500000
vt 0.500000 0.500000
vt 0.500000 0.500000
vt 0.500000 0.500000
vt 0.500000 0.500000
vt 0.500000 0.500000
vt 0.500000 0.500000
vt 0.500000 0.500000
vt 0.500000 0.500000
vt 0.500000 0.500000
vt 0.500000 0.500000
vt 0.500000 0.500000
vt 0.500000 0.500000
vt 0.500000 0.500000
vt 0.500000 0.500000
vt 0.500000 0.500000
vt 0.500000 0.500000
vt 0.500000 0.500000
vt 0.500000 0.500000
vt 0.500000 0.500000
vt 0.500000 0.500000
vt 0.500000 0.500000
vt 0.500000 0.500000
vt 0.500000 0.500000
vt 0.500000 0.500000
vt 0.500000 0.500000
vt 0.500000 0.500000
vt 0.500000 0.500000
vt 0.500000 0.500000
vt 0.500000 0.500000
vt 0.500000 0.500000
vt 0.500000 0.500000
vt 0.500000 0.500000
vt 0.500000 0.500000
vt 0.500000 0.500000
vt 0.500000 0.500000
vt 0.500000 0.500000
vt 0.500000 0.500000
vt 0.500000 0.500000
vt 0.500000 0.500000
vt 0.500000 0.500000
vt 0.500000 0.500000
vt 0.500000 0.500000
vt 0.500000 0.500000
vt 0.500000 0.500000
vt 0.500000 0.500000
vt 0.500000 0.500000
vt 0.500000 0.500000
vt 0.500000 0.500000
vt 0.500000 0.500000
vt 0.500000 0.500000
vt 0.500000 0.500000
vt 0.500000 0.500000
vt 0.500000 0.500000
vt 0.500000 0.500000
vt 0.500000 0.500000
vt 0.500000 0.500000
vt 0.500000 0.500000
vt 0.500000 0.500000
vt 0.500000 0.500000
vt 0.500000 0.500000
vt 0.500000 0.500000
vt 0.500000 0.500000
vt 0.500000 0.500000
vt 0.500000 0.500000
vt 0.500000 0.500000
vt 0.500000 0.500000
vt 0.500000 0.500000
vt 0.500000 0.500000
vt 0.500000 0.500000
vt 0.500000 0.500000
vt 0.500000 0.500000
vt 0.500000 0.500000
vt 0.500000 0.500000
vt 0.500000 0.500000
vt 0.500000 0.500000
vt 0.500000 0.500000
vt 0.500000 0.500000
vt 0.500000 0.500000
vt 0.500000 0.500000
vt 0.500000 0.500000
vt 0.500000 0.500000
vt 0.500000 0.500000
vt 0.500000 0.500000
vt 0.500000 0.500000
vt 0.500000 0.500000
vt 0.500000 0.500000
vt 0.475168 0.565579
vt 0.475309 0.569269
vt 0.474343 0.569150
vt 0.475641 0.570948
vt 0.479517 0.573373
vt 0.475515 0.573507
vt 0.481549 0.549738
vt 0.482296 0.552826
vt 0.479654 0.552015
vt 0.473091 0.569690
vt 0.471556 0.568003
vt 0.473287 0.564700
vt 0.490408 0.568378
vt 0.489764 0.569829
vt 0.488710 0.569687
vt 0.478935 0.579134
vt 0.477464 0.578800
vt 0.479554 0.575229
vt 0.486794 0.568859
vt 0.486613 0.570556
vt 0.482270 0.572993
vt 0.481467 0.572148
vt 0.480353 0.549465
vt 0.484710 0.556480
vt 0.487500 0.555556
vt 0.486928 0.560614
vt 0.483039 0.556756
vt 0.486754 0.563641
vt 0.474361 0.565582
vt 0.480119 0.554150
vt 0.472033 0.569593
vt 0.475382 0.560632
vt 0.475000 0.555556
vt 0.477614 0.556317
vt 0.480312 0.572291
vt 0.489075 0.564963
vt 0.490076 0.564807
vt 0.490530 0.566246
vt 0.487019 0.565617
vt 0.487903 0.565722
vt 0.487587 0.568895
vt 0.483162 0.578843
vt 0.481936 0.576771
vt 0.482256 0.574742
vt 0.482065 0.578321
vt 0.479924 0.577253
vt 0.486852 0.573243
vt 0.487500 0.577778
vt 0.484795 0.578628
vt 0.475000 0.577778
vt 0.471669 0.565834
vt 0.481886 0.554845
vt 0.479888 0.578725
vt 0.481947 0.556314
vt 0.472289 0.564441
vt 0.482366 0.550930
vt 0.479164 0.556455
vt 0.475459 0.563651
vt 0.480142 0.555827
vt 0.479551 0.550235
vn 0.0000 -1.0000 0.0000
vn 0.0001 -1.0000 -0.0000
vn 0.9920 0.0000 -0.1266
vn 0.9721 0.0000 0.2344
vn 0.9661 0.0000 -0.2583
vn 0.9973 0.0000 0.0738
vn 0.0431 0.0000 0.9991
vn 0.1464 0.0000 -0.9892
vn 0.9739 0.0000 -0.2272
vn 0.9847 0.0000 0.1740
vn -0.3090 0.0000 0.9511
vn -0.2705 0.0000 -0.9627
vn -0.2098 0.0000 -0.9777
vn -0.2464 0.0000 0.9692
vn -0.0348 0.0000 0.9994
vn -0.0144 0.0000 -0.9999
vn -0.0867 0.0000 -0.9962
vn 0.7941 0.0000 0.6078
vn -0.1559 0.0000 0.9878
vn 0.8609 0.0000 -0.5089
vn 0.9976 0.0000 0.0696
vn 0.3313 0.0000 -0.9435
vn 0.1865 0.0000 0.9825
vn 0.9971 0.0000 -0.0756
vn 0.6196 0.0000 0.7849
vn 0.9987 0.0000 -0.0517
vn 0.9718 0.0000 0.2358
vn 0.9295 0.0000 -0.3688
vn 0.4709 0.0000 -0.8822
vn 0.9976 0.0000 -0.0690
vn 0.9997 0.0000 -0.0256
vn 0.1012 0.0000 0.9949
vn -0.0925 0.0000 -0.9957
vn -0.4898 0.0000 0.8718
vn -0.6200 0.0000 -0.7846
vn -0.9978 0.0000 0.0664
vn -0.9397 0.0000 -0.3421
vn -0.9962 0.0000 -0.0875
vn -1.0000 0.0000 -0.0023
vn -0.2319 0.0000 0.9727
vn -0.9895 0.0000 0.1446
vn -0.9080 0.0000 0.4190
vn -0.2597 0.0000 -0.9657
vn 0.0453 0.0000 -0.9990
vn 0.1017 0.0000 0.9948
vn 0.1327 0.0000 -0.9912
vn -0.9988 0.0000 0.0498
vn -0.9750 0.0000 0.2223
vn -0.9957 0.0000 -0.0927
vn -0.9405 0.0000 -0.3397
vn -0.0742 0.0000 0.9972
vn -0.9831 0.0000 -0.1831
vn 0.1970 0.0000 0.9804
vn -0.9868 0.0000 0.1617
vn 0.0242 0.0000 -0.9997
vn 0.3398 0.0000 0.9405
vn 0.3614 0.0000 -0.9324
vn 0.0656 0.0000 0.9978
vn 0.1020 0.0000 -0.9948
vn -0.7733 0.0000 0.6341
vn -0.8799 0.0000 -0.4752
vn -0.9919 0.0000 0.1272
vn 0.0000 1.0000 -0.0000
usemtl BackMat.001
s off
f 242/1/1 230/2/1 221/3/1
f 217/4/1 212/5/1 214/6/1
f 269/7/1 265/8/1 264/9/1
f 229/10/1 246/11/1 232/12/1
f 227/13/1 225/14/1 226/15/1
f 197/16/1 210/17/1 196/18/1
f 223/19/1 215/20/1 219/21/1
f 220/22/1 215/20/1 223/19/1
f 270/23/1 265/8/1 269/7/1
f 257/24/1 249/25/1 261/26/1
f 254/27/1 220/22/1 245/28/1
f 230/2/1 244/29/1 229/10/1
f 264/9/1 265/8/1 263/30/1
f 228/31/1 229/10/1 232/12/1
f 249/25/1 254/27/1 245/28/1
f 257/24/1 254/27/1 249/25/1
f 248/32/1 253/33/1 250/34/1
f 221/3/1 217/4/1 218/35/1
f 196/18/1 210/17/1 212/5/1
f 242/1/1 221/3/1 218/35/1
f 241/36/1 233/37/1 235/38/1
f 214/6/1 212/5/1 210/17/1
f 239/39/1 231/40/1 238/41/1
f 202/42/1 211/43/1 205/44/1
f 202/42/1 205/44/1 200/45/1
f 210/17/1 197/16/1 204/46/1
f 225/14/1 238/41/1 231/40/1
f 213/47/1 203/48/1 208/49/1
f 196/18/1 212/5/1 206/50/1
f 239/39/1 223/19/1 231/40/1
f 218/35/1 217/4/1 214/6/1
f 225/14/1 227/13/1 241/36/1
f 234/51/1 232/12/1 246/11/1
f 264/9/1 263/30/1 260/52/1
f 244/29/1 230/2/1 242/1/1
f 215/20/1 211/43/1 213/47/1
f 219/21/1 215/20/1 213/47/1
f 204/46/1 197/16/1 198/53/1
f 255/54/1 220/22/1 254/27/1
f 239/39/1 220/22/1 223/19/1
f 237/55/1 234/51/1 246/11/1
f 266/56/1 269/7/1 264/9/1
f 252/57/1 220/22/1 255/54/1
f 253/33/1 248/32/1 252/57/1
f 242/1/1 218/35/1 247/58/1
f 252/57/1 247/58/1 218/35/1
f 258/59/2 252/57/2 255/54/2
f 247/58/1 252/57/1 248/32/1
f 252/57/1 218/35/1 220/22/1
f 238/41/1 225/14/1 241/36/1
f 203/48/1 211/43/1 202/42/1
f 246/11/1 229/10/1 244/29/1
f 267/60/1 265/8/1 270/23/1
f 260/52/1 258/59/1 255/54/1
f 263/30/1 258/59/1 260/52/1
f 241/36/1 227/13/1 233/37/1
f 213/47/1 211/43/1 203/48/1
f 245/28/1 220/22/1 239/39/1
f 1/61/3 2/62/3 62/63/3 61/64/3
f 2/62/4 124/65/4 199/66/4 62/63/4
f 126/67/5 13/68/5 73/69/5 201/70/5
f 13/68/6 14/71/6 74/72/6 73/69/6
f 3/73/7 4/74/7 64/75/7 63/76/7
f 11/77/8 12/78/8 72/79/8 71/80/8
f 132/81/9 1/61/9 61/64/9 207/82/9
f 14/71/10 134/83/10 209/84/10 74/72/10
f 4/74/11 5/85/11 65/86/11 64/75/11
f 10/87/12 11/77/12 71/80/12 70/88/12
f 59/89/13 60/90/13 120/91/13 119/92/13
f 15/93/14 16/94/14 76/95/14 75/96/14
f 5/85/15 6/97/15 66/98/15 65/86/15
f 141/99/16 10/87/16 70/88/16 216/100/16
f 58/101/17 59/89/17 119/92/17 118/102/17
f 6/97/18 7/103/18 67/104/18 66/98/18
f 16/94/19 17/105/19 77/106/19 76/95/19
f 8/107/20 9/108/20 69/109/20 68/110/20
f 7/103/21 8/107/21 68/110/21 67/104/21
f 147/111/22 58/101/22 118/102/22 222/112/22
f 17/105/23 149/113/23 224/114/23 77/106/23
f 20/115/24 21/116/24 81/117/24 80/118/24
f 21/116/25 22/119/25 82/120/25 81/117/25
f 54/121/26 55/122/26 115/123/26 114/124/26
f 55/122/27 56/125/27 116/126/27 115/123/27
f 19/127/28 20/115/28 80/118/28 79/128/28
f 53/129/29 54/121/29 114/124/29 113/130/29
f 56/125/30 57/131/30 117/132/30 116/126/30
f 18/133/31 19/127/31 79/128/31 78/134/31
f 22/119/32 23/135/32 83/136/32 82/120/32
f 52/137/33 53/129/33 113/130/33 112/138/33
f 23/135/34 161/139/34 236/140/34 83/136/34
f 51/141/35 52/137/35 112/138/35 111/142/35
f 26/143/36 165/144/36 240/145/36 86/146/36
f 25/147/37 26/143/37 86/146/37 85/148/37
f 24/149/38 25/147/38 85/148/38 84/150/38
f 168/151/39 49/152/39 109/153/39 243/154/39
f 27/155/40 28/156/40 88/157/40 87/158/40
f 50/159/41 51/141/41 111/142/41 110/160/41
f 49/152/42 50/159/42 110/160/42 109/153/42
f 47/161/43 48/162/43 108/163/43 107/164/43
f 46/165/44 47/161/44 107/164/44 106/166/44
f 28/156/45 29/167/45 89/168/45 88/157/45
f 176/169/46 46/165/46 106/166/46 251/170/46
f 43/171/47 44/172/47 104/173/47 103/174/47
f 32/175/48 181/176/48 256/177/48 92/178/48
f 31/179/49 32/175/49 92/178/49 91/180/49
f 184/181/50 43/171/50 103/174/50 259/182/50
f 33/183/51 34/184/51 94/185/51 93/186/51
f 187/187/52 31/179/52 91/180/52 262/188/52
f 29/167/53 30/189/53 90/190/53 89/168/53
f 44/172/54 45/191/54 105/192/54 104/173/54
f 41/193/55 42/194/55 102/195/55 101/196/55
f 34/184/56 35/197/56 95/198/56 94/185/56
f 40/199/57 41/193/57 101/196/57 100/200/57
f 35/197/58 36/201/58 96/202/58 95/198/58
f 193/203/59 40/199/59 100/200/59 268/204/59
f 36/201/60 37/205/60 97/206/60 96/202/60
f 38/207/61 39/208/61 99/209/61 98/210/61
f 37/205/62 38/207/62 98/210/62 97/206/62
usemtl FrontMat.001
f 167/211/63 146/212/63 155/213/63
f 142/214/63 139/215/63 137/216/63
f 194/217/63 189/218/63 190/219/63
f 154/220/63 157/221/63 171/222/63
f 152/223/63 151/224/63 150/225/63
f 122/226/63 121/227/63 135/228/63
f 148/229/63 144/230/63 140/231/63
f 145/232/63 148/229/63 140/231/63
f 195/233/63 194/217/63 190/219/63
f 182/234/63 186/235/63 174/236/63
f 179/237/63 170/238/63 145/232/63
f 155/213/63 154/220/63 169/239/63
f 189/218/63 188/240/63 190/219/63
f 153/241/63 157/221/63 154/220/63
f 174/236/63 170/238/63 179/237/63
f 182/234/63 174/236/63 179/237/63
f 173/242/63 175/243/63 178/244/63
f 146/212/63 143/245/63 142/214/63
f 121/227/63 137/216/63 135/228/63
f 167/211/63 143/245/63 146/212/63
f 166/246/63 160/247/63 158/248/63
f 139/215/63 135/228/63 137/216/63
f 164/249/63 163/250/63 156/251/63
f 127/252/63 130/253/63 136/254/63
f 127/252/63 125/255/63 130/253/63
f 135/228/63 129/256/63 122/226/63
f 150/225/63 156/251/63 163/250/63
f 138/257/63 133/258/63 128/259/63
f 121/227/63 131/260/63 137/216/63
f 164/249/63 156/251/63 148/229/63
f 143/245/63 139/215/63 142/214/63
f 150/225/63 166/246/63 152/223/63
f 159/261/63 171/222/63 157/221/63
f 189/218/63 185/262/63 188/240/63
f 169/239/63 167/211/63 155/213/63
f 140/231/63 138/257/63 136/254/63
f 144/230/63 138/257/63 140/231/63
f 129/256/63 123/263/63 122/226/63
f 180/264/63 179/237/63 145/232/63
f 164/249/63 148/229/63 145/232/63
f 162/265/63 171/222/63 159/261/63
f 191/266/63 189/218/63 194/217/63
f 177/267/63 180/264/63 145/232/63
f 178/244/63 177/267/63 173/242/63
f 167/211/63 172/268/63 143/245/63
f 177/267/63 143/245/63 172/268/63
f 183/269/63 180/264/63 177/267/63
f 172/268/63 173/242/63 177/267/63
f 177/267/63 145/232/63 143/245/63
f 163/250/63 166/246/63 150/225/63
f 128/259/63 127/252/63 136/254/63
f 171/222/63 169/239/63 154/220/63
f 192/270/63 195/233/63 190/219/63
f 185/262/63 180/264/63 183/269/63
f 188/240/63 185/262/63 183/269/63
f 166/246/63 158/248/63 152/223/63
f 138/257/63 128/259/63 136/254/63
f 170/238/63 164/249/63 145/232/63
