# Blender v2.83.1 OBJ File: 'jigsaw-80x45-3-step2.blend'
# www.blender.org
mtllib piece.425.mtl
o path850
v -0.259770 0.037500 -0.459320
v -0.124450 0.037500 -0.454441
v -0.035655 0.037500 -0.482822
v -0.029856 0.037500 -0.556999
v -0.061916 0.037500 -0.652885
v -0.066296 0.037500 -0.737265
v 0.001121 0.037500 -0.782463
v 0.098753 0.037500 -0.783031
v 0.163597 0.037500 -0.739067
v 0.154066 0.037500 -0.656118
v 0.114238 0.037500 -0.561407
v 0.109611 0.037500 -0.487597
v 0.185730 0.037500 -0.458408
v 0.308329 0.037500 -0.461832
v 0.516120 0.037500 -0.490883
v 0.565718 0.037500 -0.289503
v 0.581671 0.037500 -0.168869
v 0.561148 0.037500 -0.089823
v 0.488947 0.037500 -0.084663
v 0.392838 0.037500 -0.111813
v 0.311334 0.037500 -0.111221
v 0.275375 0.037500 -0.043032
v 0.285631 0.037500 0.051884
v 0.335201 0.037500 0.112463
v 0.413672 0.037500 0.099140
v 0.496576 0.037500 0.058359
v 0.555933 0.037500 0.058058
v 0.572011 0.037500 0.145021
v 0.516120 0.037500 0.511026
v 0.189153 0.037500 0.473919
v 0.109055 0.037500 0.493052
v 0.104293 0.037500 0.549507
v 0.133297 0.037500 0.626518
v 0.135859 0.037500 0.700369
v 0.071534 0.037500 0.749641
v -0.021072 0.037500 0.762110
v -0.083590 0.037500 0.727840
v -0.077831 0.037500 0.645258
v -0.046335 0.037500 0.546158
v -0.051820 0.037500 0.470675
v -0.137415 0.037500 0.447863
v -0.267874 0.037500 0.462515
v -0.485578 0.037500 0.511026
v -0.457751 0.037500 0.294170
v -0.453158 0.037500 0.164656
v -0.477337 0.037500 0.080656
v -0.541118 0.037500 0.077209
v -0.623374 0.037500 0.109301
v -0.694996 0.037500 0.111904
v -0.731477 0.037500 0.041239
v -0.726727 0.037500 -0.061586
v -0.679256 0.037500 -0.134224
v -0.593700 0.037500 -0.134985
v -0.499185 0.037500 -0.104801
v -0.430958 0.037500 -0.105259
v -0.414068 0.037500 -0.179327
v -0.432762 0.037500 -0.295477
v -0.485578 0.037500 -0.490883
v -0.259770 -0.037500 -0.459320
v -0.124450 -0.037498 -0.454441
v -0.035655 -0.037500 -0.482822
v -0.029856 -0.037500 -0.556999
v -0.061916 -0.037500 -0.652885
v -0.066296 -0.037500 -0.737265
v 0.001121 -0.037498 -0.782463
v 0.098753 -0.037500 -0.783031
v 0.163597 -0.037500 -0.739067
v 0.154066 -0.037500 -0.656118
v 0.114238 -0.037500 -0.561407
v 0.109611 -0.037500 -0.487597
v 0.185730 -0.037500 -0.458408
v 0.308329 -0.037500 -0.461832
v 0.516120 -0.037500 -0.490883
v 0.565718 -0.037500 -0.289503
v 0.581671 -0.037500 -0.168869
v 0.561148 -0.037498 -0.089823
v 0.488947 -0.037500 -0.084663
v 0.392838 -0.037500 -0.111813
v 0.311334 -0.037500 -0.111221
v 0.275375 -0.037498 -0.043032
v 0.285631 -0.037498 0.051884
v 0.335201 -0.037500 0.112463
v 0.413672 -0.037500 0.099140
v 0.496576 -0.037500 0.058359
v 0.555933 -0.037500 0.058058
v 0.572011 -0.037498 0.145021
v 0.516120 -0.037498 0.511026
v 0.189153 -0.037500 0.473919
v 0.109055 -0.037500 0.493052
v 0.104293 -0.037500 0.549507
v 0.133297 -0.037500 0.626518
v 0.135859 -0.037500 0.700369
v 0.071534 -0.037500 0.749641
v -0.021072 -0.037500 0.762110
v -0.083590 -0.037500 0.727840
v -0.077831 -0.037500 0.645258
v -0.046335 -0.037500 0.546158
v -0.051820 -0.037500 0.470675
v -0.137415 -0.037500 0.447863
v -0.267874 -0.037500 0.462515
v -0.485578 -0.037500 0.511026
v -0.457751 -0.037500 0.294170
v -0.453158 -0.037500 0.164656
v -0.477337 -0.037500 0.080656
v -0.541118 -0.037500 0.077209
v -0.623374 -0.037498 0.109301
v -0.694996 -0.037500 0.111904
v -0.731477 -0.037500 0.041239
v -0.726727 -0.037500 -0.061586
v -0.679256 -0.037500 -0.134224
v -0.593700 -0.037500 -0.134985
v -0.499185 -0.037500 -0.104801
v -0.430958 -0.037500 -0.105259
v -0.414068 -0.037498 -0.179327
v -0.432762 -0.037500 -0.295477
v -0.485578 -0.037500 -0.490883
v 0.565718 0.037500 -0.289503
v 0.581671 0.037500 -0.168869
v 0.561148 0.037500 -0.089823
v 0.561148 0.037500 -0.089823
v 0.555933 0.037500 0.058058
v 0.555933 0.037500 0.058058
v 0.572011 0.037500 0.145021
v 0.488947 0.037500 -0.084663
v 0.496576 0.037500 0.058359
v 0.516120 0.037500 -0.490883
v 0.516120 0.037500 -0.490883
v 0.516120 0.037500 0.511026
v 0.516120 0.037500 0.511026
v 0.413672 0.037500 0.099140
v 0.392838 0.037500 -0.111813
v 0.308329 0.037500 -0.461832
v 0.335201 0.037500 0.112463
v 0.335201 0.037500 0.112463
v 0.311334 0.037500 -0.111221
v 0.311334 0.037500 -0.111221
v 0.285631 0.037500 0.051884
v 0.189153 0.037500 0.473919
v 0.275375 0.037500 -0.043032
v 0.185730 0.037500 -0.458408
v 0.109055 0.037500 0.493052
v 0.109055 0.037500 0.493052
v 0.109611 0.037500 -0.487597
v 0.109611 0.037500 -0.487597
v 0.098753 0.037500 -0.783031
v 0.163597 0.037500 -0.739067
v 0.163597 0.037500 -0.739067
v 0.154066 0.037500 -0.656118
v 0.114238 0.037500 -0.561407
v 0.133297 0.037500 0.626518
v 0.135859 0.037500 0.700369
v 0.071534 0.037500 0.749641
v 0.104293 0.037500 0.549507
v 0.001121 0.037500 -0.782463
v -0.021072 0.037500 0.762110
v -0.066296 0.037500 -0.737265
v -0.083590 0.037500 0.727840
v -0.083590 0.037500 0.727840
v -0.061916 0.037500 -0.652885
v -0.029856 0.037500 -0.556999
v -0.035655 0.037500 -0.482822
v -0.035655 0.037500 -0.482822
v -0.124450 0.037500 -0.454441
v -0.046335 0.037500 0.546158
v -0.051820 0.037500 0.470675
v -0.051820 0.037500 0.470675
v -0.077831 0.037500 0.645258
v -0.137415 0.037500 0.447863
v -0.259770 0.037500 -0.459320
v -0.267874 0.037500 0.462515
v -0.414068 0.037500 -0.179327
v -0.432762 0.037500 -0.295477
v -0.430958 0.037500 -0.105259
v -0.430958 0.037500 -0.105259
v -0.499185 0.037500 -0.104801
v -0.453158 0.037500 0.164656
v -0.477337 0.037500 0.080656
v -0.477337 0.037500 0.080656
v -0.457751 0.037500 0.294170
v -0.485578 0.037500 -0.490883
v -0.485578 0.037500 -0.490883
v -0.485578 0.037500 0.511026
v -0.485578 0.037500 0.511026
v -0.541118 0.037500 0.077209
v -0.593700 0.037500 -0.134985
v -0.623374 0.037500 0.109301
v -0.679256 0.037500 -0.134224
v -0.694996 0.037500 0.111904
v -0.694996 0.037500 0.111904
v -0.726727 0.037500 -0.061586
v -0.731477 0.037500 0.041239
v 0.565718 -0.037500 -0.289503
v 0.581671 -0.037500 -0.168869
v 0.561148 -0.037498 -0.089823
v 0.561148 -0.037498 -0.089823
v 0.555933 -0.037500 0.058058
v 0.555933 -0.037500 0.058058
v 0.572011 -0.037498 0.145021
v 0.488947 -0.037500 -0.084663
v 0.496576 -0.037500 0.058359
v 0.516120 -0.037500 -0.490883
v 0.516120 -0.037500 -0.490883
v 0.516120 -0.037498 0.511026
v 0.516120 -0.037498 0.511026
v 0.413672 -0.037500 0.099140
v 0.392838 -0.037500 -0.111813
v 0.308329 -0.037500 -0.461832
v 0.335201 -0.037500 0.112463
v 0.335201 -0.037500 0.112463
v 0.311334 -0.037500 -0.111221
v 0.311334 -0.037500 -0.111221
v 0.285631 -0.037498 0.051884
v 0.189153 -0.037500 0.473919
v 0.275375 -0.037498 -0.043032
v 0.185730 -0.037500 -0.458408
v 0.109055 -0.037500 0.493052
v 0.109055 -0.037500 0.493052
v 0.109611 -0.037500 -0.487597
v 0.109611 -0.037500 -0.487597
v 0.098753 -0.037500 -0.783031
v 0.163597 -0.037500 -0.739067
v 0.163597 -0.037500 -0.739067
v 0.154066 -0.037500 -0.656118
v 0.114238 -0.037500 -0.561407
v 0.133297 -0.037500 0.626518
v 0.135859 -0.037500 0.700369
v 0.071534 -0.037500 0.749641
v 0.104293 -0.037500 0.549507
v 0.001121 -0.037498 -0.782463
v -0.021072 -0.037500 0.762110
v -0.066296 -0.037500 -0.737265
v -0.083590 -0.037500 0.727840
v -0.083590 -0.037500 0.727840
v -0.061916 -0.037500 -0.652885
v -0.029856 -0.037500 -0.556999
v -0.035655 -0.037500 -0.482822
v -0.035655 -0.037500 -0.482822
v -0.124450 -0.037498 -0.454441
v -0.046335 -0.037500 0.546158
v -0.051820 -0.037500 0.470675
v -0.051820 -0.037500 0.470675
v -0.077831 -0.037500 0.645258
v -0.137415 -0.037500 0.447863
v -0.259770 -0.037500 -0.459320
v -0.267874 -0.037500 0.462515
v -0.414068 -0.037498 -0.179327
v -0.432762 -0.037500 -0.295477
v -0.430958 -0.037500 -0.105259
v -0.430958 -0.037500 -0.105259
v -0.499185 -0.037500 -0.104801
v -0.453158 -0.037500 0.164656
v -0.477337 -0.037500 0.080656
v -0.477337 -0.037500 0.080656
v -0.457751 -0.037500 0.294170
v -0.485578 -0.037500 -0.490883
v -0.485578 -0.037500 -0.490883
v -0.485578 -0.037500 0.511026
v -0.485578 -0.037500 0.511026
v -0.541118 -0.037500 0.077209
v -0.593700 -0.037500 -0.134985
v -0.623374 -0.037498 0.109301
v -0.679256 -0.037500 -0.134224
v -0.694996 -0.037500 0.111904
v -0.694996 -0.037500 0.111904
v -0.726727 -0.037500 -0.061586
v -0.731477 -0.037500 0.041239
vt 0.500000 0.500000
vt 0.500000 0.500000
vt 0.500000 0.500000
vt 0.500000 0.500000
vt 0.500000 0.500000
vt 0.500000 0.500000
vt 0.500000 0.500000
vt 0.500000 0.500000
vt 0.500000 0.500000
vt 0.500000 0.500000
vt 0.500000 0.500000
vt 0.500000 0.500000
vt 0.500000 0.500000
vt 0.500000 0.500000
vt 0.500000 0.500000
vt 0.500000 0.500000
vt 0.500000 0.500000
vt 0.500000 0.500000
vt 0.500000 0.500000
vt 0.500000 0.500000
vt 0.500000 0.500000
vt 0.500000 0.500000
vt 0.500000 0.500000
vt 0.500000 0.500000
vt 0.500000 0.500000
vt 0.500000 0.500000
vt 0.500000 0.500000
vt 0.500000 0.500000
vt 0.500000 0.500000
vt 0.500000 0.500000
vt 0.500000 0.500000
vt 0.500000 0.500000
vt 0.500000 0.500000
vt 0.500000 0.500000
vt 0.500000 0.500000
vt 0.500000 0.500000
vt 0.500000 0.500000
vt 0.500000 0.500000
vt 0.500000 0.500000
vt 0.500000 0.500000
vt 0.500000 0.500000
vt 0.500000 0.500000
vt 0.500000 0.500000
vt 0.500000 0.500000
vt 0.500000 0.500000
vt 0.500000 0.500000
vt 0.500000 0.500000
vt 0.500000 0.500000
vt 0.500000 0.500000
vt 0.500000 0.500000
vt 0.500000 0.500000
vt 0.500000 0.500000
vt 0.500000 0.500000
vt 0.500000 0.500000
vt 0.500000 0.500000
vt 0.500000 0.500000
vt 0.500000 0.500000
vt 0.500000 0.500000
vt 0.500000 0.500000
vt 0.500000 0.500000
vt 0.500000 0.500000
vt 0.500000 0.500000
vt 0.500000 0.500000
vt 0.500000 0.500000
vt 0.500000 0.500000
vt 0.500000 0.500000
vt 0.500000 0.500000
vt 0.500000 0.500000
vt 0.500000 0.500000
vt 0.500000 0.500000
vt 0.500000 0.500000
vt 0.500000 0.500000
vt 0.500000 0.500000
vt 0.500000 0.500000
vt 0.500000 0.500000
vt 0.500000 0.500000
vt 0.500000 0.500000
vt 0.500000 0.500000
vt 0.500000 0.500000
vt 0.500000 0.500000
vt 0.500000 0.500000
vt 0.500000 0.500000
vt 0.500000 0.500000
vt 0.500000 0.500000
vt 0.500000 0.500000
vt 0.500000 0.500000
vt 0.500000 0.500000
vt 0.500000 0.500000
vt 0.500000 0.500000
vt 0.500000 0.500000
vt 0.500000 0.500000
vt 0.500000 0.500000
vt 0.500000 0.500000
vt 0.500000 0.500000
vt 0.500000 0.500000
vt 0.500000 0.500000
vt 0.500000 0.500000
vt 0.500000 0.500000
vt 0.500000 0.500000
vt 0.500000 0.500000
vt 0.500000 0.500000
vt 0.500000 0.500000
vt 0.500000 0.500000
vt 0.500000 0.500000
vt 0.500000 0.500000
vt 0.500000 0.500000
vt 0.500000 0.500000
vt 0.500000 0.500000
vt 0.500000 0.500000
vt 0.500000 0.500000
vt 0.500000 0.500000
vt 0.500000 0.500000
vt 0.500000 0.500000
vt 0.500000 0.500000
vt 0.500000 0.500000
vt 0.500000 0.500000
vt 0.500000 0.500000
vt 0.500000 0.500000
vt 0.500000 0.500000
vt 0.500000 0.500000
vt 0.500000 0.500000
vt 0.500000 0.500000
vt 0.500000 0.500000
vt 0.500000 0.500000
vt 0.500000 0.500000
vt 0.500000 0.500000
vt 0.500000 0.500000
vt 0.500000 0.500000
vt 0.500000 0.500000
vt 0.500000 0.500000
vt 0.500000 0.500000
vt 0.500000 0.500000
vt 0.500000 0.500000
vt 0.500000 0.500000
vt 0.500000 0.500000
vt 0.500000 0.500000
vt 0.500000 0.500000
vt 0.500000 0.500000
vt 0.500000 0.500000
vt 0.500000 0.500000
vt 0.500000 0.500000
vt 0.500000 0.500000
vt 0.500000 0.500000
vt 0.500000 0.500000
vt 0.500000 0.500000
vt 0.500000 0.500000
vt 0.500000 0.500000
vt 0.500000 0.500000
vt 0.500000 0.500000
vt 0.500000 0.500000
vt 0.500000 0.500000
vt 0.500000 0.500000
vt 0.500000 0.500000
vt 0.500000 0.500000
vt 0.500000 0.500000
vt 0.500000 0.500000
vt 0.500000 0.500000
vt 0.500000 0.500000
vt 0.500000 0.500000
vt 0.500000 0.500000
vt 0.500000 0.500000
vt 0.500000 0.500000
vt 0.500000 0.500000
vt 0.500000 0.500000
vt 0.500000 0.500000
vt 0.500000 0.500000
vt 0.500000 0.500000
vt 0.500000 0.500000
vt 0.500000 0.500000
vt 0.500000 0.500000
vt 0.500000 0.500000
vt 0.500000 0.500000
vt 0.500000 0.500000
vt 0.500000 0.500000
vt 0.500000 0.500000
vt 0.500000 0.500000
vt 0.500000 0.500000
vt 0.500000 0.500000
vt 0.500000 0.500000
vt 0.500000 0.500000
vt 0.500000 0.500000
vt 0.500000 0.500000
vt 0.500000 0.500000
vt 0.500000 0.500000
vt 0.500000 0.500000
vt 0.500000 0.500000
vt 0.500000 0.500000
vt 0.500000 0.500000
vt 0.500000 0.500000
vt 0.500000 0.500000
vt 0.500000 0.500000
vt 0.500000 0.500000
vt 0.500000 0.500000
vt 0.500000 0.500000
vt 0.500000 0.500000
vt 0.500000 0.500000
vt 0.500000 0.500000
vt 0.500000 0.500000
vt 0.500000 0.500000
vt 0.500000 0.500000
vt 0.500000 0.500000
vt 0.500000 0.500000
vt 0.500000 0.500000
vt 0.500000 0.500000
vt 0.500000 0.500000
vt 0.500000 0.500000
vt 0.500000 0.500000
vt 0.500000 0.500000
vt 0.307520 0.862021
vt 0.307488 0.863610
vt 0.306639 0.861212
vt 0.300455 0.874678
vt 0.305587 0.883548
vt 0.300101 0.876648
vt 0.304737 0.884346
vt 0.300041 0.879871
vt 0.311997 0.876289
vt 0.312938 0.876411
vt 0.312276 0.879858
vt 0.306772 0.883776
vt 0.312037 0.881635
vt 0.307527 0.884875
vt 0.305068 0.888286
vt 0.305004 0.889888
vt 0.304017 0.890343
vt 0.307088 0.865435
vt 0.307131 0.866850
vt 0.304817 0.866365
vt 0.313941 0.880396
vt 0.312980 0.879753
vt 0.312500 0.888889
vt 0.307361 0.886616
vt 0.314175 0.875712
vt 0.315205 0.875585
vt 0.315633 0.876972
vt 0.304729 0.886154
vt 0.300362 0.884279
vt 0.305356 0.861317
vt 0.300405 0.881559
vt 0.300394 0.871676
vt 0.300000 0.866667
vt 0.302438 0.867838
vt 0.315477 0.879026
vt 0.304811 0.867878
vt 0.304440 0.864268
vt 0.302512 0.889989
vt 0.300000 0.888889
vt 0.314862 0.880453
vt 0.309794 0.867284
vt 0.312500 0.866667
vt 0.311895 0.871496
vt 0.296904 0.881068
vt 0.296355 0.879630
vt 0.297938 0.880857
vt 0.311712 0.874391
vt 0.303887 0.868253
vt 0.297979 0.876065
vt 0.299175 0.876777
vt 0.299120 0.879973
vt 0.296926 0.875968
vt 0.296362 0.877464
vt 0.307934 0.890129
vt 0.308179 0.867386
vt 0.306852 0.888455
vt 0.306849 0.889772
vt 0.304450 0.862370
vn 0.0000 -1.0000 -0.0000
vn 0.9914 0.0000 -0.1311
vn 0.9679 0.0000 0.2513
vn 0.9833 0.0000 -0.1818
vn 0.0713 0.0000 0.9975
vn -0.0051 0.0000 -1.0000
vn 0.9710 0.0000 -0.2391
vn 0.9885 0.0000 0.1510
vn -0.4414 0.0000 -0.8973
vn -0.2718 0.0000 0.9623
vn -0.1385 0.0000 -0.9904
vn -0.1674 0.0000 -0.9859
vn 0.0073 0.0000 1.0000
vn 0.7739 0.0000 -0.6333
vn -0.1128 0.0000 0.9936
vn 0.8845 0.0000 0.4665
vn -0.0279 0.0000 -0.9996
vn 0.9942 0.0000 -0.1074
vn 0.2323 0.0000 0.9726
vn 0.3580 0.0000 -0.9337
vn 0.5612 0.0000 -0.8277
vn 0.9935 0.0000 0.1142
vn 0.9218 0.0000 0.3876
vn 0.9994 0.0000 -0.0347
vn 0.6081 0.0000 0.7939
vn 0.9358 0.0000 -0.3525
vn 0.9980 0.0000 0.0626
vn 0.9965 0.0000 0.0841
vn -0.0058 0.0000 -1.0000
vn 0.1334 0.0000 0.9911
vn -0.5569 0.0000 -0.8306
vn -0.4807 0.0000 0.8769
vn -0.9987 0.0000 0.0518
vn -0.9484 0.0000 0.3171
vn -0.9970 0.0000 -0.0779
vn -0.3045 0.0000 -0.9525
vn -0.9974 0.0000 0.0725
vn -0.9530 0.0000 -0.3029
vn -0.9976 0.0000 -0.0696
vn -0.2575 0.0000 0.9663
vn 0.0360 0.0000 -0.9994
vn 0.1116 0.0000 0.9938
vn -0.9873 0.0000 0.1589
vn -0.9750 0.0000 -0.2223
vn -0.0067 0.0000 -1.0000
vn -0.9610 0.0000 0.2766
vn -0.9994 0.0000 -0.0354
vn 0.1384 0.0000 -0.9904
vn -0.9919 0.0000 -0.1273
vn 0.2175 0.0000 0.9761
vn -0.9654 0.0000 0.2609
vn -0.0540 0.0000 0.9985
vn 0.3042 0.0000 -0.9526
vn 0.3635 0.0000 0.9316
vn -0.0089 0.0000 -1.0000
vn 0.0363 0.0000 0.9993
vn -0.8371 0.0000 -0.5471
vn -0.9989 0.0000 -0.0462
vn -0.8886 0.0000 0.4587
vn 0.0000 1.0000 0.0000
usemtl BackMat.001
s off
f 263/1/1 266/2/1 261/3/1
f 238/4/1 236/5/1 214/6/1
f 236/5/1 218/7/1 210/8/1
f 240/9/1 216/10/1 239/11/1
f 212/12/1 208/13/1 213/14/1
f 199/15/1 193/16/1 194/17/1
f 259/18/1 250/19/1 252/20/1
f 239/11/1 228/21/1 225/22/1
f 208/13/1 205/23/1 203/24/1
f 242/25/1 230/26/1 232/27/1
f 210/8/1 207/28/1 206/29/1
f 266/2/1 265/30/1 261/3/1
f 218/7/1 215/31/1 210/8/1
f 244/32/1 247/33/1 255/34/1
f 242/25/1 227/35/1 230/26/1
f 207/28/1 210/8/1 215/31/1
f 214/6/1 236/5/1 210/8/1
f 248/36/1 214/6/1 212/12/1
f 260/37/1 259/18/1 265/30/1
f 227/35/1 242/25/1 225/22/1
f 192/38/1 207/28/1 201/39/1
f 227/35/1 225/22/1 226/40/1
f 254/41/1 245/42/1 257/43/1
f 221/44/1 223/45/1 220/46/1
f 243/47/1 212/12/1 240/9/1
f 246/48/1 244/32/1 238/4/1
f 246/48/1 214/6/1 248/36/1
f 213/14/1 208/13/1 203/24/1
f 234/49/1 224/50/1 235/51/1
f 206/29/1 193/16/1 199/15/1
f 231/52/1 229/53/1 234/49/1
f 203/24/1 205/23/1 198/54/1
f 192/38/1 206/29/1 207/28/1
f 229/53/1 223/45/1 234/49/1
f 193/16/1 206/29/1 192/38/1
f 247/33/1 244/32/1 246/48/1
f 212/12/1 213/14/1 216/10/1
f 240/9/1 212/12/1 216/10/1
f 251/55/1 248/36/1 212/12/1
f 250/19/1 259/18/1 260/37/1
f 198/54/1 205/23/1 200/56/1
f 239/11/1 216/10/1 228/21/1
f 248/36/1 252/20/1 250/19/1
f 252/20/1 248/36/1 251/55/1
f 245/42/1 251/55/1 243/47/1
f 198/54/1 200/56/1 196/57/1
f 261/3/1 265/30/1 259/18/1
f 246/48/1 238/4/1 214/6/1
f 254/41/1 251/55/1 245/42/1
f 239/11/1 225/22/1 242/25/1
f 235/51/1 224/50/1 218/7/1
f 262/58/1 260/37/1 265/30/1
f 235/51/1 218/7/1 236/5/1
f 251/55/1 212/12/1 243/47/1
f 220/46/1 223/45/1 229/53/1
f 224/50/1 234/49/1 223/45/1
f 16/59/2 17/60/2 75/61/2 74/62/2
f 17/60/3 120/63/3 195/64/3 75/61/3
f 122/65/4 28/66/4 86/67/4 197/68/4
f 18/69/5 19/70/5 77/71/5 76/72/5
f 26/73/6 27/74/6 85/75/6 84/76/6
f 127/77/7 16/59/7 74/62/7 202/78/7
f 28/66/8 129/79/8 204/80/8 86/67/8
f 25/81/9 26/73/9 84/76/9 83/82/9
f 19/70/10 20/83/10 78/84/10 77/71/10
f 14/85/11 15/86/11 73/87/11 72/88/11
f 134/89/12 25/81/12 83/82/12 209/90/12
f 20/83/13 136/91/13 211/92/13 78/84/13
f 23/93/14 24/94/14 82/95/14 81/96/14
f 29/97/15 30/98/15 88/99/15 87/100/15
f 21/101/16 22/102/16 80/103/16 79/104/16
f 13/105/17 14/85/17 72/88/17 71/106/17
f 22/102/18 23/93/18 81/96/18 80/103/18
f 30/98/19 142/107/19 217/108/19 88/99/19
f 144/109/20 13/105/20 71/106/20 219/110/20
f 8/111/21 147/112/21 222/113/21 66/114/21
f 9/115/22 10/116/22 68/117/22 67/118/22
f 10/116/23 11/119/23 69/120/23 68/117/23
f 33/121/24 34/122/24 92/123/24 91/124/24
f 34/122/25 35/125/25 93/126/25 92/123/25
f 32/127/26 33/121/26 91/124/26 90/128/26
f 11/119/27 12/129/27 70/130/27 69/120/27
f 31/131/28 32/127/28 90/128/28 89/132/28
f 7/133/29 8/111/29 66/114/29 65/134/29
f 35/125/30 36/135/30 94/136/30 93/126/30
f 6/137/31 7/133/31 65/134/31 64/138/31
f 36/135/32 158/139/32 233/140/32 94/136/32
f 5/141/33 6/137/33 64/138/33 63/142/33
f 4/143/34 5/141/34 63/142/34 62/144/34
f 162/145/35 4/143/35 62/144/35 237/146/35
f 2/147/36 3/148/36 61/149/36 60/150/36
f 39/151/37 166/152/37 241/153/37 97/154/37
f 38/155/38 39/151/38 97/154/38 96/156/38
f 37/157/39 38/155/39 96/156/39 95/158/39
f 40/159/40 41/160/40 99/161/40 98/162/40
f 1/163/41 2/147/41 60/150/41 59/164/41
f 41/160/42 42/165/42 100/166/42 99/161/42
f 56/167/43 57/168/43 115/169/43 114/170/43
f 174/171/44 56/167/44 114/170/44 249/172/44
f 54/173/45 55/174/45 113/175/45 112/176/45
f 45/177/46 178/178/46 253/179/46 103/180/46
f 44/181/47 45/177/47 103/180/47 102/182/47
f 181/183/48 1/163/48 59/164/48 256/184/48
f 183/185/49 44/181/49 102/182/49 258/186/49
f 42/165/50 43/187/50 101/188/50 100/166/50
f 57/168/51 58/189/51 116/190/51 115/169/51
f 46/191/52 47/192/52 105/193/52 104/194/52
f 53/195/53 54/173/53 112/176/53 111/196/53
f 47/192/54 48/197/54 106/198/54 105/193/54
f 52/199/55 53/195/55 111/196/55 110/200/55
f 48/197/56 189/201/56 264/202/56 106/198/56
f 51/203/57 52/199/57 110/200/57 109/204/57
f 50/205/58 51/203/58 109/204/58 108/206/58
f 49/207/59 50/205/59 108/206/59 107/208/59
usemtl FrontMat.001
f 188/209/60 186/210/60 191/211/60
f 163/212/60 139/213/60 161/214/60
f 161/214/60 135/215/60 143/216/60
f 165/217/60 164/218/60 141/219/60
f 137/220/60 138/221/60 133/222/60
f 124/223/60 119/224/60 118/225/60
f 184/226/60 177/227/60 175/228/60
f 164/218/60 150/229/60 153/230/60
f 133/222/60 128/231/60 130/232/60
f 167/233/60 157/234/60 155/235/60
f 135/215/60 131/236/60 132/237/60
f 191/211/60 186/210/60 190/238/60
f 143/216/60 135/215/60 140/239/60
f 169/240/60 180/241/60 172/242/60
f 167/233/60 155/235/60 152/243/60
f 132/237/60 140/239/60 135/215/60
f 139/213/60 135/215/60 161/214/60
f 173/244/60 137/220/60 139/213/60
f 185/245/60 190/238/60 184/226/60
f 152/243/60 150/229/60 167/233/60
f 117/246/60 126/247/60 132/237/60
f 152/243/60 151/248/60 150/229/60
f 179/249/60 182/250/60 170/251/60
f 146/252/60 145/253/60 148/254/60
f 168/255/60 165/217/60 137/220/60
f 171/256/60 163/212/60 169/240/60
f 171/256/60 173/244/60 139/213/60
f 138/221/60 128/231/60 133/222/60
f 159/257/60 160/258/60 149/259/60
f 131/236/60 124/223/60 118/225/60
f 156/260/60 159/257/60 154/261/60
f 128/231/60 123/262/60 130/232/60
f 117/246/60 132/237/60 131/236/60
f 154/261/60 159/257/60 148/254/60
f 118/225/60 117/246/60 131/236/60
f 172/242/60 171/256/60 169/240/60
f 137/220/60 141/219/60 138/221/60
f 165/217/60 141/219/60 137/220/60
f 176/263/60 137/220/60 173/244/60
f 175/228/60 185/245/60 184/226/60
f 123/262/60 125/264/60 130/232/60
f 164/218/60 153/230/60 141/219/60
f 173/244/60 175/228/60 177/227/60
f 177/227/60 176/263/60 173/244/60
f 170/251/60 168/255/60 176/263/60
f 123/262/60 121/265/60 125/264/60
f 186/210/60 184/226/60 190/238/60
f 171/256/60 139/213/60 163/212/60
f 179/249/60 170/251/60 176/263/60
f 164/218/60 167/233/60 150/229/60
f 160/258/60 143/216/60 149/259/60
f 187/266/60 190/238/60 185/245/60
f 160/258/60 161/214/60 143/216/60
f 176/263/60 168/255/60 137/220/60
f 145/253/60 154/261/60 148/254/60
f 149/259/60 148/254/60 159/257/60
