# Blender v2.83.1 OBJ File: 'jigsaw-80x45-3-step2.blend'
# www.blender.org
mtllib piece.2311.mtl
o path4622
v 0.135120 0.037500 0.451279
v 0.046804 0.037500 0.468849
v 0.041588 0.037500 0.529160
v 0.075062 0.037500 0.611626
v 0.082588 0.037500 0.687309
v 0.020203 0.037500 0.731895
v -0.073324 0.037500 0.739426
v -0.138550 0.037500 0.708565
v -0.135979 0.037500 0.642830
v -0.105968 0.037500 0.565262
v -0.108828 0.037500 0.503777
v -0.186317 0.037500 0.478775
v -0.306019 0.037500 0.480690
v -0.506542 0.037500 0.503349
v -0.432341 0.037500 0.184296
v -0.443487 0.037500 0.110832
v -0.501549 0.037500 0.115349
v -0.584089 0.037500 0.153618
v -0.659327 0.037500 0.162079
v -0.701004 0.037500 0.097832
v -0.704952 0.037500 0.000519
v -0.672518 0.037500 -0.069580
v -0.609234 0.037500 -0.072433
v -0.537333 0.037500 -0.049065
v -0.483217 0.037500 -0.060760
v -0.465895 0.037500 -0.149590
v -0.506542 0.037500 -0.498558
v -0.315031 0.037500 -0.466194
v -0.200865 0.037500 -0.460411
v -0.127302 0.037500 -0.487267
v -0.125099 0.037500 -0.558609
v -0.152718 0.037500 -0.648209
v -0.150553 0.037500 -0.720261
v -0.079075 0.037500 -0.746735
v 0.020897 0.037500 -0.730614
v 0.088469 0.037500 -0.682640
v 0.083761 0.037500 -0.615044
v 0.050932 0.037500 -0.545830
v 0.055143 0.037500 -0.494469
v 0.141365 0.037500 -0.474739
v 0.495155 0.037500 -0.498558
v 0.449598 0.037500 -0.280273
v 0.437243 0.037500 -0.148811
v 0.462770 0.037500 -0.061066
v 0.541080 0.037500 -0.051964
v 0.642323 0.037500 -0.078667
v 0.725477 0.037500 -0.078911
v 0.758163 0.037500 -0.010849
v 0.742609 0.037500 0.085800
v 0.689688 0.037500 0.150909
v 0.612467 0.037500 0.144798
v 0.532846 0.037500 0.109573
v 0.474920 0.037500 0.107811
v 0.455675 0.037500 0.182976
v 0.463661 0.037500 0.302185
v 0.495155 0.037500 0.503349
v 0.135120 -0.037500 0.451279
v 0.046804 -0.037500 0.468849
v 0.041588 -0.037500 0.529160
v 0.075062 -0.037500 0.611626
v 0.082588 -0.037500 0.687309
v 0.020203 -0.037498 0.731895
v -0.073324 -0.037500 0.739426
v -0.138550 -0.037500 0.708565
v -0.135979 -0.037500 0.642830
v -0.105968 -0.037498 0.565262
v -0.108828 -0.037500 0.503777
v -0.186317 -0.037498 0.478775
v -0.306019 -0.037500 0.480690
v -0.506542 -0.037500 0.503349
v -0.432341 -0.037500 0.184296
v -0.443487 -0.037500 0.110832
v -0.501549 -0.037500 0.115349
v -0.584089 -0.037500 0.153618
v -0.659327 -0.037500 0.162079
v -0.701004 -0.037500 0.097832
v -0.704952 -0.037500 0.000519
v -0.672518 -0.037500 -0.069580
v -0.609234 -0.037500 -0.072433
v -0.537333 -0.037500 -0.049065
v -0.483217 -0.037500 -0.060760
v -0.465895 -0.037500 -0.149590
v -0.506542 -0.037500 -0.498558
v -0.315031 -0.037500 -0.466194
v -0.200865 -0.037500 -0.460411
v -0.127302 -0.037500 -0.487267
v -0.125099 -0.037498 -0.558609
v -0.152718 -0.037500 -0.648209
v -0.150553 -0.037498 -0.720261
v -0.079075 -0.037500 -0.746735
v 0.020897 -0.037500 -0.730614
v 0.088469 -0.037500 -0.682640
v 0.083761 -0.037500 -0.615044
v 0.050932 -0.037500 -0.545830
v 0.055143 -0.037500 -0.494469
v 0.141365 -0.037498 -0.474739
v 0.495155 -0.037500 -0.498558
v 0.449598 -0.037500 -0.280273
v 0.437243 -0.037500 -0.148811
v 0.462770 -0.037500 -0.061066
v 0.541080 -0.037500 -0.051964
v 0.642323 -0.037500 -0.078667
v 0.725477 -0.037500 -0.078911
v 0.758163 -0.037500 -0.010849
v 0.742609 -0.037500 0.085800
v 0.689688 -0.037498 0.150909
v 0.612467 -0.037500 0.144798
v 0.532846 -0.037500 0.109573
v 0.474920 -0.037500 0.107811
v 0.455675 -0.037500 0.182976
v 0.463661 -0.037500 0.302185
v 0.495155 -0.037500 0.503349
v -0.701004 0.037500 0.097832
v -0.704952 0.037500 0.000519
v -0.672518 0.037500 -0.069580
v -0.672518 0.037500 -0.069580
v -0.659327 0.037500 0.162079
v -0.659327 0.037500 0.162079
v -0.609234 0.037500 -0.072433
v -0.584089 0.037500 0.153618
v -0.537333 0.037500 -0.049065
v -0.501549 0.037500 0.115349
v -0.483217 0.037500 -0.060760
v -0.483217 0.037500 -0.060760
v -0.443487 0.037500 0.110832
v -0.443487 0.037500 0.110832
v -0.465895 0.037500 -0.149590
v -0.506542 0.037500 -0.498558
v -0.506542 0.037500 -0.498558
v -0.506542 0.037500 0.503349
v -0.506542 0.037500 0.503349
v -0.432341 0.037500 0.184296
v -0.315031 0.037500 -0.466194
v -0.306019 0.037500 0.480690
v -0.200865 0.037500 -0.460411
v -0.186317 0.037500 0.478775
v -0.127302 0.037500 -0.487267
v -0.127302 0.037500 -0.487267
v -0.108828 0.037500 0.503777
v -0.108828 0.037500 0.503777
v -0.125099 0.037500 -0.558609
v -0.152718 0.037500 -0.648209
v -0.150553 0.037500 -0.720261
v -0.150553 0.037500 -0.720261
v -0.079075 0.037500 -0.746735
v -0.073324 0.037500 0.739426
v -0.138550 0.037500 0.708565
v -0.138550 0.037500 0.708565
v -0.135979 0.037500 0.642830
v -0.105968 0.037500 0.565262
v 0.020897 0.037500 -0.730614
v 0.020203 0.037500 0.731895
v 0.082588 0.037500 0.687309
v 0.088469 0.037500 -0.682640
v 0.075062 0.037500 0.611626
v 0.041588 0.037500 0.529160
v 0.046804 0.037500 0.468849
v 0.046804 0.037500 0.468849
v 0.135120 0.037500 0.451279
v 0.050932 0.037500 -0.545830
v 0.055143 0.037500 -0.494469
v 0.055143 0.037500 -0.494469
v 0.083761 0.037500 -0.615044
v 0.141365 0.037500 -0.474739
v 0.437243 0.037500 -0.148811
v 0.462770 0.037500 -0.061066
v 0.462770 0.037500 -0.061066
v 0.449598 0.037500 -0.280273
v 0.455675 0.037500 0.182976
v 0.463661 0.037500 0.302185
v 0.474920 0.037500 0.107811
v 0.474920 0.037500 0.107811
v 0.541080 0.037500 -0.051964
v 0.495155 0.037500 0.503349
v 0.495155 0.037500 0.503349
v 0.495155 0.037500 -0.498558
v 0.495155 0.037500 -0.498558
v 0.532846 0.037500 0.109573
v 0.612467 0.037500 0.144798
v 0.642323 0.037500 -0.078667
v 0.689688 0.037500 0.150909
v 0.725477 0.037500 -0.078911
v 0.725477 0.037500 -0.078911
v 0.742609 0.037500 0.085800
v 0.758163 0.037500 -0.010849
v -0.701004 -0.037500 0.097832
v -0.704952 -0.037500 0.000519
v -0.672518 -0.037500 -0.069580
v -0.672518 -0.037500 -0.069580
v -0.659327 -0.037500 0.162079
v -0.659327 -0.037500 0.162079
v -0.609234 -0.037500 -0.072433
v -0.584089 -0.037500 0.153618
v -0.537333 -0.037500 -0.049065
v -0.501549 -0.037500 0.115349
v -0.483217 -0.037500 -0.060760
v -0.483217 -0.037500 -0.060760
v -0.443487 -0.037500 0.110832
v -0.443487 -0.037500 0.110832
v -0.465895 -0.037500 -0.149590
v -0.506542 -0.037500 -0.498558
v -0.506542 -0.037500 -0.498558
v -0.506542 -0.037500 0.503349
v -0.506542 -0.037500 0.503349
v -0.432341 -0.037500 0.184296
v -0.315031 -0.037500 -0.466194
v -0.306019 -0.037500 0.480690
v -0.200865 -0.037500 -0.460411
v -0.186317 -0.037498 0.478775
v -0.127302 -0.037500 -0.487267
v -0.127302 -0.037500 -0.487267
v -0.108828 -0.037500 0.503777
v -0.108828 -0.037500 0.503777
v -0.125099 -0.037498 -0.558609
v -0.152718 -0.037500 -0.648209
v -0.150553 -0.037498 -0.720261
v -0.150553 -0.037498 -0.720261
v -0.079075 -0.037500 -0.746735
v -0.073324 -0.037500 0.739426
v -0.138550 -0.037500 0.708565
v -0.138550 -0.037500 0.708565
v -0.135979 -0.037500 0.642830
v -0.105968 -0.037498 0.565262
v 0.020897 -0.037500 -0.730614
v 0.020203 -0.037498 0.731895
v 0.082588 -0.037500 0.687309
v 0.088469 -0.037500 -0.682640
v 0.075062 -0.037500 0.611626
v 0.041588 -0.037500 0.529160
v 0.046804 -0.037500 0.468849
v 0.046804 -0.037500 0.468849
v 0.135120 -0.037500 0.451279
v 0.050932 -0.037500 -0.545830
v 0.055143 -0.037500 -0.494469
v 0.055143 -0.037500 -0.494469
v 0.083761 -0.037500 -0.615044
v 0.141365 -0.037498 -0.474739
v 0.437243 -0.037500 -0.148811
v 0.462770 -0.037500 -0.061066
v 0.462770 -0.037500 -0.061066
v 0.449598 -0.037500 -0.280273
v 0.455675 -0.037500 0.182976
v 0.463661 -0.037500 0.302185
v 0.474920 -0.037500 0.107811
v 0.474920 -0.037500 0.107811
v 0.541080 -0.037500 -0.051964
v 0.495155 -0.037500 0.503349
v 0.495155 -0.037500 0.503349
v 0.495155 -0.037500 -0.498558
v 0.495155 -0.037500 -0.498558
v 0.532846 -0.037500 0.109573
v 0.612467 -0.037500 0.144798
v 0.642323 -0.037500 -0.078667
v 0.689688 -0.037498 0.150909
v 0.725477 -0.037500 -0.078911
v 0.725477 -0.037500 -0.078911
v 0.742609 -0.037500 0.085800
v 0.758163 -0.037500 -0.010849
vt 0.500000 0.500000
vt 0.500000 0.500000
vt 0.500000 0.500000
vt 0.500000 0.500000
vt 0.500000 0.500000
vt 0.500000 0.500000
vt 0.500000 0.500000
vt 0.500000 0.500000
vt 0.500000 0.500000
vt 0.500000 0.500000
vt 0.500000 0.500000
vt 0.500000 0.500000
vt 0.500000 0.500000
vt 0.500000 0.500000
vt 0.500000 0.500000
vt 0.500000 0.500000
vt 0.500000 0.500000
vt 0.500000 0.500000
vt 0.500000 0.500000
vt 0.500000 0.500000
vt 0.500000 0.500000
vt 0.500000 0.500000
vt 0.500000 0.500000
vt 0.500000 0.500000
vt 0.500000 0.500000
vt 0.500000 0.500000
vt 0.500000 0.500000
vt 0.500000 0.500000
vt 0.500000 0.500000
vt 0.500000 0.500000
vt 0.500000 0.500000
vt 0.500000 0.500000
vt 0.500000 0.500000
vt 0.500000 0.500000
vt 0.500000 0.500000
vt 0.500000 0.500000
vt 0.500000 0.500000
vt 0.500000 0.500000
vt 0.500000 0.500000
vt 0.500000 0.500000
vt 0.500000 0.500000
vt 0.500000 0.500000
vt 0.500000 0.500000
vt 0.500000 0.500000
vt 0.500000 0.500000
vt 0.500000 0.500000
vt 0.500000 0.500000
vt 0.500000 0.500000
vt 0.500000 0.500000
vt 0.500000 0.500000
vt 0.500000 0.500000
vt 0.500000 0.500000
vt 0.500000 0.500000
vt 0.500000 0.500000
vt 0.500000 0.500000
vt 0.500000 0.500000
vt 0.500000 0.500000
vt 0.500000 0.500000
vt 0.500000 0.500000
vt 0.500000 0.500000
vt 0.500000 0.500000
vt 0.500000 0.500000
vt 0.500000 0.500000
vt 0.500000 0.500000
vt 0.500000 0.500000
vt 0.500000 0.500000
vt 0.500000 0.500000
vt 0.500000 0.500000
vt 0.500000 0.500000
vt 0.500000 0.500000
vt 0.500000 0.500000
vt 0.500000 0.500000
vt 0.500000 0.500000
vt 0.500000 0.500000
vt 0.500000 0.500000
vt 0.500000 0.500000
vt 0.500000 0.500000
vt 0.500000 0.500000
vt 0.500000 0.500000
vt 0.500000 0.500000
vt 0.500000 0.500000
vt 0.500000 0.500000
vt 0.500000 0.500000
vt 0.500000 0.500000
vt 0.500000 0.500000
vt 0.500000 0.500000
vt 0.500000 0.500000
vt 0.500000 0.500000
vt 0.500000 0.500000
vt 0.500000 0.500000
vt 0.500000 0.500000
vt 0.500000 0.500000
vt 0.500000 0.500000
vt 0.500000 0.500000
vt 0.500000 0.500000
vt 0.500000 0.500000
vt 0.500000 0.500000
vt 0.500000 0.500000
vt 0.500000 0.500000
vt 0.500000 0.500000
vt 0.500000 0.500000
vt 0.500000 0.500000
vt 0.500000 0.500000
vt 0.500000 0.500000
vt 0.500000 0.500000
vt 0.500000 0.500000
vt 0.500000 0.500000
vt 0.500000 0.500000
vt 0.500000 0.500000
vt 0.500000 0.500000
vt 0.500000 0.500000
vt 0.500000 0.500000
vt 0.500000 0.500000
vt 0.500000 0.500000
vt 0.500000 0.500000
vt 0.500000 0.500000
vt 0.500000 0.500000
vt 0.500000 0.500000
vt 0.500000 0.500000
vt 0.500000 0.500000
vt 0.500000 0.500000
vt 0.500000 0.500000
vt 0.500000 0.500000
vt 0.500000 0.500000
vt 0.500000 0.500000
vt 0.500000 0.500000
vt 0.500000 0.500000
vt 0.500000 0.500000
vt 0.500000 0.500000
vt 0.500000 0.500000
vt 0.500000 0.500000
vt 0.500000 0.500000
vt 0.500000 0.500000
vt 0.500000 0.500000
vt 0.500000 0.500000
vt 0.500000 0.500000
vt 0.500000 0.500000
vt 0.500000 0.500000
vt 0.500000 0.500000
vt 0.500000 0.500000
vt 0.500000 0.500000
vt 0.500000 0.500000
vt 0.500000 0.500000
vt 0.500000 0.500000
vt 0.500000 0.500000
vt 0.500000 0.500000
vt 0.500000 0.500000
vt 0.500000 0.500000
vt 0.500000 0.500000
vt 0.500000 0.500000
vt 0.500000 0.500000
vt 0.500000 0.500000
vt 0.500000 0.500000
vt 0.500000 0.500000
vt 0.500000 0.500000
vt 0.500000 0.500000
vt 0.500000 0.500000
vt 0.500000 0.500000
vt 0.500000 0.500000
vt 0.500000 0.500000
vt 0.500000 0.500000
vt 0.500000 0.500000
vt 0.500000 0.500000
vt 0.500000 0.500000
vt 0.500000 0.500000
vt 0.500000 0.500000
vt 0.500000 0.500000
vt 0.500000 0.500000
vt 0.500000 0.500000
vt 0.500000 0.500000
vt 0.500000 0.500000
vt 0.500000 0.500000
vt 0.500000 0.500000
vt 0.500000 0.500000
vt 0.500000 0.500000
vt 0.500000 0.500000
vt 0.500000 0.500000
vt 0.500000 0.500000
vt 0.500000 0.500000
vt 0.500000 0.500000
vt 0.500000 0.500000
vt 0.500000 0.500000
vt 0.500000 0.500000
vt 0.500000 0.500000
vt 0.500000 0.500000
vt 0.500000 0.500000
vt 0.500000 0.500000
vt 0.500000 0.500000
vt 0.500000 0.500000
vt 0.500000 0.500000
vt 0.500000 0.500000
vt 0.500000 0.500000
vt 0.500000 0.500000
vt 0.500000 0.500000
vt 0.500000 0.500000
vt 0.500000 0.500000
vt 0.500000 0.500000
vt 0.500000 0.500000
vt 0.500000 0.500000
vt 0.500000 0.500000
vt 0.500000 0.500000
vt 0.500000 0.500000
vt 0.887203 0.363404
vt 0.887449 0.365317
vt 0.883137 0.356840
vt 0.887359 0.369365
vt 0.887024 0.370996
vt 0.890596 0.368295
vt 0.890266 0.369880
vt 0.889367 0.369928
vt 0.883146 0.376876
vt 0.882038 0.377260
vt 0.879897 0.376379
vt 0.872705 0.364708
vt 0.873649 0.364875
vt 0.872149 0.366092
vt 0.874228 0.368891
vt 0.874678 0.365618
vt 0.874995 0.368955
vt 0.879841 0.377667
vt 0.872440 0.369614
vt 0.872055 0.368167
vt 0.873260 0.369557
vt 0.882184 0.380056
vt 0.882148 0.381460
vt 0.881273 0.382179
vt 0.875650 0.363543
vt 0.879913 0.354719
vt 0.881928 0.354537
vt 0.879935 0.356005
vt 0.882042 0.356274
vt 0.879473 0.352953
vt 0.881892 0.378461
vt 0.879363 0.379498
vt 0.875430 0.365502
vt 0.880059 0.382092
vt 0.879258 0.381167
vt 0.878997 0.356432
vt 0.878981 0.376132
vt 0.875283 0.373329
vt 0.875307 0.370674
vt 0.882261 0.352291
vt 0.881415 0.349721
vt 0.880209 0.350066
vt 0.882264 0.350446
vt 0.887096 0.373529
vt 0.890395 0.366077
vt 0.879397 0.351240
vt 0.887500 0.377778
vt 0.888953 0.364682
vt 0.889797 0.364578
vt 0.884777 0.356566
vt 0.887500 0.355556
vt 0.888090 0.365411
vt 0.875000 0.377778
vt 0.875000 0.355556
vt 0.877510 0.356254
vt 0.888249 0.369316
vn 0.0000 -1.0000 -0.0000
vn -0.0000 -1.0000 -0.0001
vn 0.0000 -1.0000 0.0001
vn -0.9992 0.0000 0.0405
vn -0.9076 0.0000 -0.4199
vn -0.8389 0.0000 0.5442
vn -0.0450 0.0000 -0.9990
vn 0.1118 0.0000 0.9937
vn 0.3091 0.0000 -0.9510
vn 0.4206 0.0000 0.9072
vn -0.2113 0.0000 -0.9774
vn 0.0776 0.0000 0.9970
vn -0.9815 0.0000 -0.1914
vn -0.9933 0.0000 0.1157
vn -0.9740 0.0000 -0.2265
vn -0.9887 0.0000 0.1500
vn 0.1666 0.0000 -0.9860
vn 0.1123 0.0000 0.9937
vn 0.0506 0.0000 -0.9987
vn 0.0160 0.0000 0.9999
vn -0.3429 0.0000 -0.9394
vn -0.3071 0.0000 0.9517
vn -0.9556 0.0000 0.2946
vn -0.9995 0.0000 -0.0300
vn -0.3473 0.0000 -0.9377
vn -0.4277 0.0000 0.9039
vn -0.9992 0.0000 -0.0391
vn -0.9326 0.0000 -0.3608
vn -0.9995 0.0000 -0.0309
vn -0.9989 0.0000 0.0465
vn 0.1592 0.0000 -0.9872
vn 0.0803 0.0000 0.9968
vn 0.5815 0.0000 0.8136
vn 0.5789 0.0000 -0.8154
vn 0.9951 0.0000 -0.0990
vn 0.9266 0.0000 -0.3761
vn 0.9963 0.0000 0.0862
vn 0.1951 0.0000 0.9808
vn 0.9967 0.0000 -0.0817
vn 0.9035 0.0000 0.4286
vn 0.9976 0.0000 0.0695
vn 0.2231 0.0000 -0.9748
vn 0.9602 0.0000 -0.2793
vn 0.9956 0.0000 0.0936
vn 0.9978 0.0000 -0.0668
vn 0.9688 0.0000 0.2480
vn 0.1155 0.0000 -0.9933
vn -0.1431 0.0000 0.9897
vn 0.9880 0.0000 -0.1547
vn 0.9789 0.0000 0.2043
vn -0.0672 0.0000 -0.9977
vn -0.0304 0.0000 0.9995
vn -0.4046 0.0000 0.9145
vn -0.2550 0.0000 -0.9669
vn -0.0789 0.0000 0.9969
vn -0.0029 0.0000 -1.0000
vn 0.7760 0.0000 0.6307
vn 0.9873 0.0000 0.1589
vn 0.9014 0.0000 -0.4329
vn 0.0000 1.0000 -0.0000
usemtl BackMat.001
s off
f 237/1/1 238/2/1 234/3/1
f 234/3/1 208/4/1 210/5/1
f 218/6/1 215/7/1 216/8/1
f 200/9/1 198/10/1 196/11/1
f 226/12/1 225/13/1 228/14/1
f 223/15/1 212/16/1 229/17/1
f 198/10/1 195/18/1 196/11/1
f 220/19/1 222/20/1 219/21/1
f 192/22/1 187/23/1 188/24/1
f 238/2/1 232/25/1 198/10/1
f 251/26/1 244/27/1 246/28/1
f 223/15/1 225/13/1 222/20/1
f 246/28/1 244/27/1 239/29/1
f 208/4/1 198/10/1 200/9/1
f 252/30/1 251/26/1 246/28/1
f 234/3/1 198/10/1 208/4/1
f 194/31/1 193/32/1 187/23/1
f 193/32/1 194/31/1 195/18/1
f 232/25/1 230/33/1 198/10/1
f 239/29/1 232/25/1 238/2/1
f 186/34/1 193/32/1 190/35/1
f 196/11/1 195/18/1 194/31/1
f 242/36/1 239/29/1 244/27/1
f 205/37/1 209/38/1 207/39/1
f 229/17/1 212/16/1 230/33/1
f 230/33/1 205/37/1 198/10/1
f 253/40/1 252/30/1 246/28/1
f 225/13/1 223/15/1 228/14/1
f 219/21/1 222/20/1 225/13/1
f 258/41/1 257/42/1 253/40/1
f 194/31/1 187/23/1 192/22/1
f 255/43/1 258/41/1 253/40/1
f 208/4/1 200/9/1 206/44/1
f 224/45/1 215/7/1 218/6/1
f 209/38/2 230/33/2 212/16/2
f 252/30/1 253/40/1 257/42/1
f 254/46/3 252/30/3 257/42/3
f 206/44/1 200/9/1 201/47/1
f 230/33/1 209/38/1 205/37/1
f 236/48/1 224/45/1 227/49/1
f 187/23/1 193/32/1 186/34/1
f 241/50/1 237/1/1 249/51/1
f 228/14/1 223/15/1 229/17/1
f 234/3/1 210/5/1 233/52/1
f 205/37/1 207/39/1 203/53/1
f 233/52/1 224/45/1 236/48/1
f 232/25/1 243/54/1 247/55/1
f 214/56/1 233/52/1 210/5/1
f 233/52/1 214/56/1 224/45/1
f 238/2/1 198/10/1 234/3/1
f 242/36/1 232/25/1 239/29/1
f 232/25/1 242/36/1 243/54/1
f 215/7/1 224/45/1 214/56/1
f 238/2/1 237/1/1 241/50/1
f 20/57/4 21/58/4 77/59/4 76/60/4
f 21/58/5 116/61/5 189/62/5 77/59/5
f 118/63/6 20/57/6 76/60/6 191/64/6
f 22/65/7 23/66/7 79/67/7 78/68/7
f 18/69/8 19/70/8 75/71/8 74/72/8
f 23/66/9 24/73/9 80/74/9 79/67/9
f 17/75/10 18/69/10 74/72/10 73/76/10
f 24/73/11 124/77/11 197/78/11 80/74/11
f 126/79/12 17/75/12 73/76/12 199/80/12
f 25/81/13 26/82/13 82/83/13 81/84/13
f 26/82/14 129/85/14 202/86/14 82/83/14
f 131/87/15 15/88/15 71/89/15 204/90/15
f 15/88/16 16/91/16 72/92/16 71/89/16
f 27/93/17 28/94/17 84/95/17 83/96/17
f 13/97/18 14/98/18 70/99/18 69/100/18
f 28/94/19 29/101/19 85/102/19 84/95/19
f 12/103/20 13/97/20 69/100/20 68/104/20
f 29/101/21 138/105/21 211/106/21 85/102/21
f 140/107/22 12/103/22 68/104/22 213/108/22
f 31/109/23 32/110/23 88/111/23 87/112/23
f 32/110/24 144/113/24 217/114/24 88/111/24
f 33/115/25 34/116/25 90/117/25 89/118/25
f 7/119/26 148/120/26 221/121/26 63/122/26
f 8/123/27 9/124/27 65/125/27 64/126/27
f 9/124/28 10/127/28 66/128/28 65/125/28
f 30/129/29 31/109/29 87/112/29 86/130/29
f 10/127/30 11/131/30 67/132/30 66/128/30
f 34/116/31 35/133/31 91/134/31 90/117/31
f 6/135/32 7/119/32 63/122/32 62/136/32
f 5/137/33 6/135/33 62/136/33 61/138/33
f 35/133/34 36/139/34 92/140/34 91/134/34
f 4/141/35 5/137/35 61/138/35 60/142/35
f 3/143/36 4/141/36 60/142/36 59/144/36
f 158/145/37 3/143/37 59/144/37 231/146/37
f 1/147/38 2/148/38 58/149/38 57/150/38
f 38/151/39 162/152/39 235/153/39 94/154/39
f 37/155/40 38/151/40 94/154/40 93/156/40
f 36/139/41 37/155/41 93/156/41 92/140/41
f 39/157/42 40/158/42 96/159/42 95/160/42
f 43/161/43 167/162/43 240/163/43 99/164/43
f 42/165/44 43/161/44 99/164/44 98/166/44
f 54/167/45 55/168/45 111/169/45 110/170/45
f 172/171/46 54/167/46 110/170/46 245/172/46
f 44/173/47 45/174/47 101/175/47 100/176/47
f 175/177/48 1/147/48 57/150/48 248/178/48
f 55/168/49 56/179/49 112/180/49 111/169/49
f 177/181/50 42/165/50 98/166/50 250/182/50
f 40/158/51 41/183/51 97/184/51 96/159/51
f 52/185/52 53/186/52 109/187/52 108/188/52
f 51/189/53 52/185/53 108/188/53 107/190/53
f 45/174/54 46/191/54 102/192/54 101/175/54
f 50/193/55 51/189/55 107/190/55 106/194/55
f 46/191/56 183/195/56 256/196/56 102/192/56
f 49/197/57 50/193/57 106/194/57 105/198/57
f 48/199/58 49/197/58 105/198/58 104/200/58
f 47/201/59 48/199/59 104/200/59 103/202/59
usemtl FrontMat.001
f 164/203/60 161/204/60 165/205/60
f 161/204/60 137/206/60 135/207/60
f 145/208/60 143/209/60 142/210/60
f 127/211/60 123/212/60 125/213/60
f 153/214/60 155/215/60 152/216/60
f 150/217/60 156/218/60 139/219/60
f 125/213/60 123/212/60 122/220/60
f 147/221/60 146/222/60 149/223/60
f 119/224/60 115/225/60 114/226/60
f 165/205/60 125/213/60 159/227/60
f 178/228/60 173/229/60 171/230/60
f 150/217/60 149/223/60 152/216/60
f 173/229/60 166/231/60 171/230/60
f 135/207/60 127/211/60 125/213/60
f 179/232/60 173/229/60 178/228/60
f 161/204/60 135/207/60 125/213/60
f 121/233/60 114/226/60 120/234/60
f 120/234/60 122/220/60 121/233/60
f 159/227/60 125/213/60 157/235/60
f 166/231/60 165/205/60 159/227/60
f 113/236/60 117/237/60 120/234/60
f 123/212/60 121/233/60 122/220/60
f 169/238/60 171/230/60 166/231/60
f 132/239/60 134/240/60 136/241/60
f 156/218/60 157/235/60 139/219/60
f 157/235/60 125/213/60 132/239/60
f 180/242/60 173/229/60 179/232/60
f 152/216/60 155/215/60 150/217/60
f 146/222/60 152/216/60 149/223/60
f 185/243/60 180/242/60 184/244/60
f 121/233/60 119/224/60 114/226/60
f 182/245/60 180/242/60 185/243/60
f 135/207/60 133/246/60 127/211/60
f 151/247/60 145/208/60 142/210/60
f 136/241/60 139/219/60 157/235/60
f 179/232/60 184/244/60 180/242/60
f 181/248/60 184/244/60 179/232/60
f 133/246/60 128/249/60 127/211/60
f 157/235/60 132/239/60 136/241/60
f 163/250/60 154/251/60 151/247/60
f 114/226/60 113/236/60 120/234/60
f 168/252/60 176/253/60 164/203/60
f 155/215/60 156/218/60 150/217/60
f 161/204/60 160/254/60 137/206/60
f 132/239/60 130/255/60 134/240/60
f 160/254/60 163/250/60 151/247/60
f 159/227/60 174/256/60 170/257/60
f 141/258/60 137/206/60 160/254/60
f 160/254/60 151/247/60 141/258/60
f 165/205/60 161/204/60 125/213/60
f 169/238/60 166/231/60 159/227/60
f 159/227/60 170/257/60 169/238/60
f 142/210/60 141/258/60 151/247/60
f 165/205/60 168/252/60 164/203/60
