# Blender v2.83.1 OBJ File: 'jigsaw-80x45-3-step2.blend'
# www.blender.org
mtllib piece.654.mtl
o path1308_path1308.001
v 0.521684 0.037500 -0.345886
v 0.518834 0.037500 -0.230188
v 0.487402 0.037500 -0.154879
v 0.418272 0.037500 -0.150942
v 0.334465 0.037500 -0.177280
v 0.267036 0.037500 -0.174767
v 0.240910 0.037500 -0.104287
v 0.256492 0.037500 -0.006773
v 0.308060 0.037500 0.056841
v 0.386467 0.037500 0.046959
v 0.468884 0.037500 0.009364
v 0.529062 0.037500 0.011184
v 0.548420 0.037500 0.098664
v 0.504520 0.037500 0.462508
v 0.303316 0.037500 0.419984
v 0.184482 0.037500 0.407390
v 0.110423 0.037500 0.428144
v 0.114114 0.037500 0.496230
v 0.150915 0.037500 0.588369
v 0.156783 0.037500 0.671968
v 0.088713 0.037500 0.719894
v -0.012125 0.037500 0.726857
v -0.083518 0.037500 0.693019
v -0.084182 0.037500 0.623254
v -0.056537 0.037500 0.541190
v -0.063931 0.037500 0.475158
v -0.150103 0.037500 0.445967
v -0.280353 0.037500 0.444350
v -0.497177 0.037500 0.462508
v -0.534774 0.037500 0.108426
v -0.514377 0.037500 0.019310
v -0.455116 0.037500 0.009507
v -0.374503 0.037500 0.035754
v -0.297261 0.037500 0.035161
v -0.245438 0.037500 -0.034375
v -0.230363 0.037500 -0.131812
v -0.260690 0.037500 -0.195323
v -0.337513 0.037500 -0.184300
v -0.431692 0.037500 -0.143020
v -0.506526 0.037500 -0.136981
v -0.535123 0.037500 -0.211741
v -0.529817 0.037500 -0.333159
v -0.497177 0.037500 -0.539401
v -0.279890 0.037500 -0.564846
v -0.148461 0.037500 -0.568616
v -0.059484 0.037500 -0.545253
v -0.047411 0.037500 -0.484757
v -0.070330 0.037500 -0.407307
v -0.067237 0.037500 -0.340668
v 0.002717 0.037500 -0.307632
v 0.099791 0.037500 -0.311097
v 0.164090 0.037500 -0.348984
v 0.156211 0.037500 -0.415422
v 0.118692 0.037500 -0.489397
v 0.114561 0.037500 -0.546108
v 0.187685 0.037500 -0.567659
v 0.305286 0.037500 -0.563758
v 0.504520 0.037500 -0.539401
v 0.521684 -0.037500 -0.345886
v 0.518834 -0.037500 -0.230188
v 0.487402 -0.037500 -0.154879
v 0.418272 -0.037500 -0.150942
v 0.334465 -0.037500 -0.177280
v 0.267036 -0.037500 -0.174767
v 0.240910 -0.037498 -0.104287
v 0.256492 -0.037498 -0.006773
v 0.308060 -0.037500 0.056841
v 0.386467 -0.037500 0.046959
v 0.468884 -0.037498 0.009364
v 0.529062 -0.037500 0.011184
v 0.548420 -0.037500 0.098664
v 0.504520 -0.037498 0.462508
v 0.303316 -0.037500 0.419984
v 0.184482 -0.037500 0.407390
v 0.110423 -0.037500 0.428144
v 0.114114 -0.037500 0.496230
v 0.150915 -0.037500 0.588369
v 0.156783 -0.037500 0.671968
v 0.088713 -0.037498 0.719894
v -0.012125 -0.037500 0.726857
v -0.083518 -0.037500 0.693019
v -0.084182 -0.037500 0.623254
v -0.056537 -0.037500 0.541190
v -0.063931 -0.037500 0.475158
v -0.150103 -0.037498 0.445967
v -0.280353 -0.037500 0.444350
v -0.497177 -0.037500 0.462508
v -0.534774 -0.037500 0.108426
v -0.514377 -0.037498 0.019310
v -0.455116 -0.037500 0.009507
v -0.374503 -0.037500 0.035754
v -0.297261 -0.037500 0.035161
v -0.245438 -0.037498 -0.034375
v -0.230363 -0.037500 -0.131812
v -0.260690 -0.037500 -0.195323
v -0.337513 -0.037498 -0.184300
v -0.431692 -0.037500 -0.143020
v -0.506526 -0.037500 -0.136981
v -0.535123 -0.037500 -0.211741
v -0.529817 -0.037500 -0.333159
v -0.497177 -0.037500 -0.539401
v -0.279890 -0.037498 -0.564846
v -0.148461 -0.037500 -0.568616
v -0.059484 -0.037500 -0.545253
v -0.047411 -0.037498 -0.484757
v -0.070330 -0.037500 -0.407307
v -0.067237 -0.037500 -0.340668
v 0.002717 -0.037500 -0.307632
v 0.099791 -0.037500 -0.311097
v 0.164090 -0.037500 -0.348984
v 0.156211 -0.037500 -0.415422
v 0.118692 -0.037500 -0.489397
v 0.114561 -0.037498 -0.546108
v 0.187685 -0.037500 -0.567659
v 0.305286 -0.037500 -0.563758
v 0.504520 -0.037500 -0.539401
v 0.529062 0.037500 0.011184
v 0.529062 0.037500 0.011184
v 0.548420 0.037500 0.098664
v 0.468884 0.037500 0.009364
v 0.521684 0.037500 -0.345886
v 0.518834 0.037500 -0.230188
v 0.487402 0.037500 -0.154879
v 0.487402 0.037500 -0.154879
v 0.504520 0.037500 0.462508
v 0.504520 0.037500 0.462508
v 0.504520 0.037500 -0.539401
v 0.504520 0.037500 -0.539401
v 0.418272 0.037500 -0.150942
v 0.386467 0.037500 0.046959
v 0.334465 0.037500 -0.177280
v 0.305286 0.037500 -0.563758
v 0.303316 0.037500 0.419984
v 0.308060 0.037500 0.056841
v 0.267036 0.037500 -0.174767
v 0.267036 0.037500 -0.174767
v 0.256492 0.037500 -0.006773
v 0.187685 0.037500 -0.567659
v 0.184482 0.037500 0.407390
v 0.240910 0.037500 -0.104287
v 0.114561 0.037500 -0.546108
v 0.114561 0.037500 -0.546108
v 0.164090 0.037500 -0.348984
v 0.164090 0.037500 -0.348984
v 0.156211 0.037500 -0.415422
v 0.110423 0.037500 0.428144
v 0.110423 0.037500 0.428144
v 0.099791 0.037500 -0.311097
v 0.150915 0.037500 0.588369
v 0.156783 0.037500 0.671968
v 0.088713 0.037500 0.719894
v 0.118692 0.037500 -0.489397
v 0.114114 0.037500 0.496230
v 0.002717 0.037500 -0.307632
v -0.012125 0.037500 0.726857
v -0.067237 0.037500 -0.340668
v -0.067237 0.037500 -0.340668
v -0.083518 0.037500 0.693019
v -0.083518 0.037500 0.693019
v -0.059484 0.037500 -0.545253
v -0.059484 0.037500 -0.545253
v -0.047411 0.037500 -0.484757
v -0.070330 0.037500 -0.407307
v -0.056537 0.037500 0.541190
v -0.063931 0.037500 0.475158
v -0.063931 0.037500 0.475158
v -0.084182 0.037500 0.623254
v -0.148461 0.037500 -0.568616
v -0.150103 0.037500 0.445967
v -0.279890 0.037500 -0.564846
v -0.280353 0.037500 0.444350
v -0.230363 0.037500 -0.131812
v -0.260690 0.037500 -0.195323
v -0.260690 0.037500 -0.195323
v -0.245438 0.037500 -0.034375
v -0.297261 0.037500 0.035161
v -0.337513 0.037500 -0.184300
v -0.374503 0.037500 0.035754
v -0.431692 0.037500 -0.143020
v -0.455116 0.037500 0.009507
v -0.497177 0.037500 -0.539401
v -0.497177 0.037500 -0.539401
v -0.506526 0.037500 -0.136981
v -0.506526 0.037500 -0.136981
v -0.514377 0.037500 0.019310
v -0.514377 0.037500 0.019310
v -0.497177 0.037500 0.462508
v -0.497177 0.037500 0.462508
v -0.535123 0.037500 -0.211741
v -0.529817 0.037500 -0.333159
v -0.534774 0.037500 0.108426
v 0.529062 -0.037500 0.011184
v 0.529062 -0.037500 0.011184
v 0.548420 -0.037500 0.098664
v 0.468884 -0.037498 0.009364
v 0.521684 -0.037500 -0.345886
v 0.518834 -0.037500 -0.230188
v 0.487402 -0.037500 -0.154879
v 0.487402 -0.037500 -0.154879
v 0.504520 -0.037498 0.462508
v 0.504520 -0.037498 0.462508
v 0.504520 -0.037500 -0.539401
v 0.504520 -0.037500 -0.539401
v 0.418272 -0.037500 -0.150942
v 0.386467 -0.037500 0.046959
v 0.334465 -0.037500 -0.177280
v 0.305286 -0.037500 -0.563758
v 0.303316 -0.037500 0.419984
v 0.308060 -0.037500 0.056841
v 0.267036 -0.037500 -0.174767
v 0.267036 -0.037500 -0.174767
v 0.256492 -0.037498 -0.006773
v 0.187685 -0.037500 -0.567659
v 0.184482 -0.037500 0.407390
v 0.240910 -0.037498 -0.104287
v 0.114561 -0.037498 -0.546108
v 0.114561 -0.037498 -0.546108
v 0.164090 -0.037500 -0.348984
v 0.164090 -0.037500 -0.348984
v 0.156211 -0.037500 -0.415422
v 0.110423 -0.037500 0.428144
v 0.110423 -0.037500 0.428144
v 0.099791 -0.037500 -0.311097
v 0.150915 -0.037500 0.588369
v 0.156783 -0.037500 0.671968
v 0.088713 -0.037498 0.719894
v 0.118692 -0.037500 -0.489397
v 0.114114 -0.037500 0.496230
v 0.002717 -0.037500 -0.307632
v -0.012125 -0.037500 0.726857
v -0.067237 -0.037500 -0.340668
v -0.067237 -0.037500 -0.340668
v -0.083518 -0.037500 0.693019
v -0.083518 -0.037500 0.693019
v -0.059484 -0.037500 -0.545253
v -0.059484 -0.037500 -0.545253
v -0.047411 -0.037498 -0.484757
v -0.070330 -0.037500 -0.407307
v -0.056537 -0.037500 0.541190
v -0.063931 -0.037500 0.475158
v -0.063931 -0.037500 0.475158
v -0.084182 -0.037500 0.623254
v -0.148461 -0.037500 -0.568616
v -0.150103 -0.037498 0.445967
v -0.279890 -0.037498 -0.564846
v -0.280353 -0.037500 0.444350
v -0.230363 -0.037500 -0.131812
v -0.260690 -0.037500 -0.195323
v -0.260690 -0.037500 -0.195323
v -0.245438 -0.037498 -0.034375
v -0.297261 -0.037500 0.035161
v -0.337513 -0.037498 -0.184300
v -0.374503 -0.037500 0.035754
v -0.431692 -0.037500 -0.143020
v -0.455116 -0.037500 0.009507
v -0.497177 -0.037500 -0.539401
v -0.497177 -0.037500 -0.539401
v -0.506526 -0.037500 -0.136981
v -0.506526 -0.037500 -0.136981
v -0.514377 -0.037498 0.019310
v -0.514377 -0.037498 0.019310
v -0.497177 -0.037500 0.462508
v -0.497177 -0.037500 0.462508
v -0.535123 -0.037500 -0.211741
v -0.529817 -0.037500 -0.333159
v -0.534774 -0.037500 0.108426
vt 0.500000 0.500000
vt 0.500000 0.500000
vt 0.500000 0.500000
vt 0.500000 0.500000
vt 0.500000 0.500000
vt 0.500000 0.500000
vt 0.500000 0.500000
vt 0.500000 0.500000
vt 0.500000 0.500000
vt 0.500000 0.500000
vt 0.500000 0.500000
vt 0.500000 0.500000
vt 0.500000 0.500000
vt 0.500000 0.500000
vt 0.500000 0.500000
vt 0.500000 0.500000
vt 0.500000 0.500000
vt 0.500000 0.500000
vt 0.500000 0.500000
vt 0.500000 0.500000
vt 0.500000 0.500000
vt 0.500000 0.500000
vt 0.500000 0.500000
vt 0.500000 0.500000
vt 0.500000 0.500000
vt 0.500000 0.500000
vt 0.500000 0.500000
vt 0.500000 0.500000
vt 0.500000 0.500000
vt 0.500000 0.500000
vt 0.500000 0.500000
vt 0.500000 0.500000
vt 0.500000 0.500000
vt 0.500000 0.500000
vt 0.500000 0.500000
vt 0.500000 0.500000
vt 0.500000 0.500000
vt 0.500000 0.500000
vt 0.500000 0.500000
vt 0.500000 0.500000
vt 0.500000 0.500000
vt 0.500000 0.500000
vt 0.500000 0.500000
vt 0.500000 0.500000
vt 0.500000 0.500000
vt 0.500000 0.500000
vt 0.500000 0.500000
vt 0.500000 0.500000
vt 0.500000 0.500000
vt 0.500000 0.500000
vt 0.500000 0.500000
vt 0.500000 0.500000
vt 0.500000 0.500000
vt 0.500000 0.500000
vt 0.500000 0.500000
vt 0.500000 0.500000
vt 0.500000 0.500000
vt 0.500000 0.500000
vt 0.500000 0.500000
vt 0.500000 0.500000
vt 0.500000 0.500000
vt 0.500000 0.500000
vt 0.500000 0.500000
vt 0.500000 0.500000
vt 0.500000 0.500000
vt 0.500000 0.500000
vt 0.500000 0.500000
vt 0.500000 0.500000
vt 0.500000 0.500000
vt 0.500000 0.500000
vt 0.500000 0.500000
vt 0.500000 0.500000
vt 0.500000 0.500000
vt 0.500000 0.500000
vt 0.500000 0.500000
vt 0.500000 0.500000
vt 0.500000 0.500000
vt 0.500000 0.500000
vt 0.500000 0.500000
vt 0.500000 0.500000
vt 0.500000 0.500000
vt 0.500000 0.500000
vt 0.500000 0.500000
vt 0.500000 0.500000
vt 0.500000 0.500000
vt 0.500000 0.500000
vt 0.500000 0.500000
vt 0.500000 0.500000
vt 0.500000 0.500000
vt 0.500000 0.500000
vt 0.500000 0.500000
vt 0.500000 0.500000
vt 0.500000 0.500000
vt 0.500000 0.500000
vt 0.500000 0.500000
vt 0.500000 0.500000
vt 0.500000 0.500000
vt 0.500000 0.500000
vt 0.500000 0.500000
vt 0.500000 0.500000
vt 0.500000 0.500000
vt 0.500000 0.500000
vt 0.500000 0.500000
vt 0.500000 0.500000
vt 0.500000 0.500000
vt 0.500000 0.500000
vt 0.500000 0.500000
vt 0.500000 0.500000
vt 0.500000 0.500000
vt 0.500000 0.500000
vt 0.500000 0.500000
vt 0.500000 0.500000
vt 0.500000 0.500000
vt 0.500000 0.500000
vt 0.500000 0.500000
vt 0.500000 0.500000
vt 0.500000 0.500000
vt 0.500000 0.500000
vt 0.500000 0.500000
vt 0.500000 0.500000
vt 0.500000 0.500000
vt 0.500000 0.500000
vt 0.500000 0.500000
vt 0.500000 0.500000
vt 0.500000 0.500000
vt 0.500000 0.500000
vt 0.500000 0.500000
vt 0.500000 0.500000
vt 0.500000 0.500000
vt 0.500000 0.500000
vt 0.500000 0.500000
vt 0.500000 0.500000
vt 0.500000 0.500000
vt 0.500000 0.500000
vt 0.500000 0.500000
vt 0.500000 0.500000
vt 0.500000 0.500000
vt 0.500000 0.500000
vt 0.500000 0.500000
vt 0.500000 0.500000
vt 0.500000 0.500000
vt 0.500000 0.500000
vt 0.500000 0.500000
vt 0.500000 0.500000
vt 0.500000 0.500000
vt 0.500000 0.500000
vt 0.500000 0.500000
vt 0.500000 0.500000
vt 0.500000 0.500000
vt 0.500000 0.500000
vt 0.500000 0.500000
vt 0.500000 0.500000
vt 0.500000 0.500000
vt 0.500000 0.500000
vt 0.500000 0.500000
vt 0.500000 0.500000
vt 0.500000 0.500000
vt 0.500000 0.500000
vt 0.500000 0.500000
vt 0.500000 0.500000
vt 0.500000 0.500000
vt 0.500000 0.500000
vt 0.500000 0.500000
vt 0.500000 0.500000
vt 0.500000 0.500000
vt 0.500000 0.500000
vt 0.500000 0.500000
vt 0.500000 0.500000
vt 0.500000 0.500000
vt 0.500000 0.500000
vt 0.500000 0.500000
vt 0.500000 0.500000
vt 0.500000 0.500000
vt 0.500000 0.500000
vt 0.500000 0.500000
vt 0.500000 0.500000
vt 0.500000 0.500000
vt 0.500000 0.500000
vt 0.500000 0.500000
vt 0.500000 0.500000
vt 0.500000 0.500000
vt 0.500000 0.500000
vt 0.500000 0.500000
vt 0.500000 0.500000
vt 0.500000 0.500000
vt 0.500000 0.500000
vt 0.500000 0.500000
vt 0.500000 0.500000
vt 0.500000 0.500000
vt 0.500000 0.500000
vt 0.500000 0.500000
vt 0.500000 0.500000
vt 0.500000 0.500000
vt 0.500000 0.500000
vt 0.500000 0.500000
vt 0.500000 0.500000
vt 0.500000 0.500000
vt 0.500000 0.500000
vt 0.500000 0.500000
vt 0.500000 0.500000
vt 0.500000 0.500000
vt 0.500000 0.500000
vt 0.500000 0.500000
vt 0.500000 0.500000
vt 0.500000 0.500000
vt 0.500000 0.500000
vt 0.500000 0.500000
vt 0.500000 0.500000
vt 0.170582 0.799166
vt 0.175000 0.800000
vt 0.174773 0.804810
vt 0.175421 0.813561
vt 0.174571 0.813479
vt 0.175158 0.809611
vt 0.174794 0.807700
vt 0.175982 0.809775
vt 0.177005 0.809162
vt 0.178211 0.812998
vt 0.164148 0.809470
vt 0.163182 0.809978
vt 0.162136 0.807736
vt 0.164979 0.809538
vt 0.166793 0.805246
vt 0.167585 0.805919
vt 0.167018 0.818450
vt 0.167346 0.820309
vt 0.166358 0.822540
vt 0.170461 0.823196
vt 0.169816 0.819603
vt 0.174470 0.817759
vt 0.169145 0.816720
vt 0.167929 0.816374
vt 0.168801 0.805585
vt 0.178298 0.810761
vt 0.165073 0.799276
vt 0.166588 0.799158
vt 0.166930 0.803542
vt 0.167049 0.816954
vt 0.164876 0.814670
vt 0.165348 0.813243
vt 0.169668 0.804435
vt 0.169676 0.802722
vt 0.174312 0.815122
vt 0.169939 0.817864
vt 0.167521 0.799793
vt 0.167445 0.801453
vt 0.164914 0.822603
vt 0.162500 0.822222
vt 0.162196 0.817802
vt 0.162147 0.815193
vt 0.164047 0.814495
vt 0.162416 0.813571
vt 0.163124 0.813663
vt 0.169346 0.821432
vt 0.169348 0.800933
vt 0.167297 0.821842
vt 0.165392 0.811090
vt 0.169471 0.799618
vt 0.177876 0.809177
vt 0.175000 0.822222
vt 0.176570 0.814378
vt 0.177613 0.814508
vt 0.162183 0.804820
vt 0.169369 0.822767
vt 0.162500 0.800000
vt 0.162427 0.809710
vn 0.0000 -1.0000 0.0000
vn 0.9764 0.0000 -0.2161
vn 0.0302 0.0000 -0.9995
vn 0.9997 0.0000 0.0246
vn 0.9228 0.0000 0.3852
vn 0.9928 0.0000 0.1198
vn 0.9961 0.0000 -0.0883
vn 0.0569 0.0000 0.9984
vn -0.4150 0.0000 -0.9098
vn -0.2998 0.0000 0.9540
vn 0.1213 0.0000 -0.9926
vn -0.2068 0.0000 0.9784
vn -0.1250 0.0000 -0.9922
vn 0.0373 0.0000 0.9993
vn 0.7768 0.0000 -0.6297
vn 0.0332 0.0000 -0.9995
vn -0.1054 0.0000 0.9944
vn 0.9376 0.0000 0.3476
vn 0.9875 0.0000 -0.1578
vn -0.2827 0.0000 -0.9592
vn -0.9930 0.0000 0.1178
vn 0.2698 0.0000 0.9629
vn -0.5077 0.0000 -0.8616
vn 0.9975 0.0000 -0.0700
vn 0.5757 0.0000 0.8177
vn -0.9974 0.0000 0.0727
vn -0.8919 0.0000 0.4523
vn 0.9287 0.0000 -0.3709
vn 0.9985 0.0000 -0.0541
vn -0.0357 0.0000 -0.9994
vn 0.0689 0.0000 0.9976
vn 0.4270 0.0000 -0.9042
vn -0.4283 0.0000 0.9036
vn 0.9807 0.0000 -0.1957
vn 0.9589 0.0000 0.2838
vn -0.9938 0.0000 0.1113
vn -0.9477 0.0000 -0.3192
vn -1.0000 0.0000 0.0095
vn 0.2540 0.0000 -0.9672
vn -0.3208 0.0000 0.9471
vn 0.9989 0.0000 -0.0464
vn -0.0287 0.0000 -0.9996
vn -0.0124 0.0000 0.9999
vn -0.9024 0.0000 0.4309
vn -0.9882 0.0000 -0.1529
vn -0.8018 0.0000 -0.5976
vn 0.1420 0.0000 0.9899
vn -0.0077 0.0000 -1.0000
vn 0.4015 0.0000 0.9159
vn 0.3096 0.0000 -0.9509
vn -0.1163 0.0000 -0.9932
vn 0.0804 0.0000 0.9968
vn -0.1632 0.0000 -0.9866
vn 0.0835 0.0000 0.9965
vn -0.9340 0.0000 0.3573
vn -0.9877 0.0000 -0.1563
vn -0.9990 0.0000 -0.0437
vn -0.9748 0.0000 -0.2231
vn -0.9944 0.0000 0.1056
vn 0.0000 1.0000 0.0000
usemtl BackMat.001
s off
f 266/1/1 246/2/1 262/3/1
f 228/4/1 240/5/1 221/6/1
f 221/6/1 240/5/1 244/7/1
f 239/8/1 226/9/1 242/10/1
f 238/11/1 243/12/1 237/13/1
f 231/14/1 247/15/1 248/16/1
f 206/17/1 197/18/1 204/19/1
f 194/20/1 208/21/1 205/22/1
f 212/23/1 250/24/1 215/25/1
f 230/26/1 242/10/1 226/9/1
f 265/27/1 252/28/1 264/29/1
f 210/30/1 223/31/1 218/32/1
f 251/33/1 246/2/1 253/34/1
f 244/7/1 246/2/1 251/33/1
f 214/35/1 209/36/1 208/21/1
f 264/29/1 254/37/1 258/38/1
f 205/22/1 208/21/1 209/36/1
f 196/39/1 207/40/1 202/41/1
f 196/39/1 218/32/1 207/40/1
f 207/40/1 220/42/1 213/43/1
f 213/43/1 227/44/1 216/45/1
f 210/30/1 218/32/1 206/17/1
f 195/46/1 194/20/1 205/22/1
f 253/34/1 266/1/1 255/47/1
f 197/18/1 206/17/1 196/39/1
f 204/19/1 197/18/1 198/48/1
f 229/49/1 247/15/1 231/14/1
f 266/1/1 253/34/1 246/2/1
f 255/47/1 266/1/1 260/50/1
f 242/10/1 230/26/1 233/51/1
f 208/21/1 194/20/1 200/52/1
f 226/9/1 239/8/1 224/53/1
f 250/24/1 244/7/1 251/33/1
f 212/23/1 221/6/1 250/24/1
f 225/54/1 226/9/1 224/53/1
f 215/25/1 250/24/1 247/15/1
f 209/36/1 214/35/1 212/23/1
f 215/25/1 247/15/1 229/49/1
f 245/55/1 248/16/1 252/28/1
f 207/40/1 218/32/1 220/42/1
f 245/55/1 252/28/1 265/27/1
f 212/23/1 214/35/1 221/6/1
f 220/42/1 227/44/1 213/43/1
f 215/25/1 223/31/1 210/30/1
f 240/5/1 228/4/1 239/8/1
f 221/6/1 244/7/1 250/24/1
f 215/25/1 229/49/1 223/31/1
f 264/29/1 252/28/1 254/37/1
f 238/11/1 231/14/1 248/16/1
f 243/12/1 238/11/1 245/55/1
f 238/11/1 248/16/1 245/55/1
f 192/56/1 194/20/1 195/46/1
f 206/17/1 218/32/1 196/39/1
f 224/53/1 239/8/1 228/4/1
f 245/55/1 265/27/1 256/57/1
f 237/13/1 243/12/1 235/58/1
f 118/59/2 13/60/2 71/61/2 193/62/2
f 11/63/3 12/64/3 70/65/3 69/66/3
f 1/67/4 2/68/4 60/69/4 59/70/4
f 2/68/5 124/71/5 199/72/5 60/69/5
f 13/60/6 126/73/6 201/74/6 71/61/6
f 128/75/7 1/67/7 59/70/7 203/76/7
f 3/77/8 4/78/8 62/79/8 61/80/8
f 10/81/9 11/63/9 69/66/9 68/82/9
f 4/78/10 5/83/10 63/84/10 62/79/10
f 57/85/11 58/86/11 116/87/11 115/88/11
f 14/89/12 15/90/12 73/91/12 72/92/12
f 9/93/13 10/81/13 68/82/13 67/94/13
f 5/83/14 136/95/14 211/96/14 63/84/14
f 8/97/15 9/93/15 67/94/15 66/98/15
f 56/99/16 57/85/16 115/88/16 114/100/16
f 15/90/17 16/101/17 74/102/17 73/91/17
f 6/103/18 7/104/18 65/105/18 64/106/18
f 7/104/19 8/97/19 66/98/19 65/105/19
f 142/107/20 56/99/20 114/100/20 217/108/20
f 144/109/21 53/110/21 111/111/21 219/112/21
f 16/101/22 147/113/22 222/114/22 74/102/22
f 51/115/23 52/116/23 110/117/23 109/118/23
f 19/119/24 20/120/24 78/121/24 77/122/24
f 20/120/25 21/123/25 79/124/25 78/121/25
f 54/125/26 55/126/26 113/127/26 112/128/26
f 53/110/27 54/125/27 112/128/27 111/111/27
f 18/129/28 19/119/28 77/122/28 76/130/28
f 17/131/29 18/129/29 76/130/29 75/132/29
f 50/133/30 51/115/30 109/118/30 108/134/30
f 21/123/31 22/135/31 80/136/31 79/124/31
f 157/137/32 50/133/32 108/134/32 232/138/32
f 22/135/33 159/139/33 234/140/33 80/136/33
f 161/141/34 47/142/34 105/143/34 236/144/34
f 47/142/35 48/145/35 106/146/35 105/143/35
f 25/147/36 166/148/36 241/149/36 83/150/36
f 24/151/37 25/147/37 83/150/37 82/152/37
f 23/153/38 24/151/38 82/152/38 81/154/38
f 45/155/39 46/156/39 104/157/39 103/158/39
f 26/159/40 27/160/40 85/161/40 84/162/40
f 48/145/41 49/163/41 107/164/41 106/146/41
f 44/165/42 45/155/42 103/158/42 102/166/42
f 27/160/43 28/167/43 86/168/43 85/161/43
f 36/169/44 174/170/44 249/171/44 94/172/44
f 35/173/45 36/169/45 94/172/45 93/174/45
f 34/175/46 35/173/46 93/174/46 92/176/46
f 37/177/47 38/178/47 96/179/47 95/180/47
f 33/181/48 34/175/48 92/176/48 91/182/48
f 38/178/49 39/183/49 97/184/49 96/179/49
f 32/185/50 33/181/50 91/182/50 90/186/50
f 182/187/51 44/165/51 102/166/51 257/188/51
f 39/183/52 184/189/52 259/190/52 97/184/52
f 186/191/53 32/185/53 90/186/53 261/192/53
f 28/167/54 188/193/54 263/194/54 86/168/54
f 40/195/55 41/196/55 99/197/55 98/198/55
f 42/199/56 43/200/56 101/201/56 100/202/56
f 41/196/57 42/199/57 100/202/57 99/197/57
f 30/203/58 31/204/58 89/205/58 88/206/58
f 29/207/59 30/203/59 88/206/59 87/208/59
usemtl FrontMat.001
f 191/209/60 187/210/60 171/211/60
f 153/212/60 146/213/60 165/214/60
f 146/213/60 169/215/60 165/214/60
f 164/216/60 167/217/60 151/218/60
f 163/219/60 162/220/60 168/221/60
f 156/222/60 173/223/60 172/224/60
f 131/225/60 129/226/60 122/227/60
f 119/228/60 130/229/60 133/230/60
f 137/231/60 140/232/60 175/233/60
f 155/234/60 151/218/60 167/217/60
f 190/235/60 189/236/60 177/237/60
f 135/238/60 143/239/60 148/240/60
f 176/241/60 178/242/60 171/211/60
f 169/215/60 176/241/60 171/211/60
f 139/243/60 133/230/60 134/244/60
f 189/236/60 183/245/60 179/246/60
f 130/229/60 134/244/60 133/230/60
f 121/247/60 127/248/60 132/249/60
f 121/247/60 132/249/60 143/239/60
f 132/249/60 138/250/60 145/251/60
f 138/250/60 141/252/60 152/253/60
f 135/238/60 131/225/60 143/239/60
f 120/254/60 130/229/60 119/228/60
f 178/242/60 180/255/60 191/209/60
f 122/227/60 121/247/60 131/225/60
f 129/226/60 123/256/60 122/227/60
f 154/257/60 156/222/60 172/224/60
f 191/209/60 171/211/60 178/242/60
f 180/255/60 185/258/60 191/209/60
f 167/217/60 158/259/60 155/234/60
f 133/230/60 125/260/60 119/228/60
f 151/218/60 149/261/60 164/216/60
f 175/233/60 176/241/60 169/215/60
f 137/231/60 175/233/60 146/213/60
f 150/262/60 149/261/60 151/218/60
f 140/232/60 172/224/60 175/233/60
f 134/244/60 137/231/60 139/243/60
f 140/232/60 154/257/60 172/224/60
f 170/263/60 177/237/60 173/223/60
f 132/249/60 145/251/60 143/239/60
f 170/263/60 190/235/60 177/237/60
f 137/231/60 146/213/60 139/243/60
f 145/251/60 138/250/60 152/253/60
f 140/232/60 135/238/60 148/240/60
f 165/214/60 164/216/60 153/212/60
f 146/213/60 175/233/60 169/215/60
f 140/232/60 148/240/60 154/257/60
f 189/236/60 179/246/60 177/237/60
f 163/219/60 173/223/60 156/222/60
f 168/221/60 170/263/60 163/219/60
f 163/219/60 170/263/60 173/223/60
f 117/264/60 120/254/60 119/228/60
f 131/225/60 121/247/60 143/239/60
f 149/261/60 153/212/60 164/216/60
f 170/263/60 181/265/60 190/235/60
f 162/220/60 160/266/60 168/221/60
