# Blender v2.83.1 OBJ File: 'jigsaw-80x45-3-step2.blend'
# www.blender.org
mtllib piece.2816.mtl
o path5632
v -0.289284 0.037500 -0.425503
v -0.165413 0.037500 -0.409282
v -0.086067 0.037500 -0.424953
v -0.085255 0.037500 -0.486450
v -0.119881 0.037500 -0.570820
v -0.127579 0.037500 -0.645893
v -0.066193 0.037500 -0.685486
v 0.025612 0.037500 -0.687399
v 0.088963 0.037500 -0.655411
v 0.085178 0.037500 -0.596334
v 0.056259 0.037500 -0.529350
v 0.064392 0.037500 -0.476692
v 0.152252 0.037500 -0.454546
v 0.504276 0.037500 -0.472076
v 0.556496 0.037500 -0.111545
v 0.538399 0.037500 -0.025758
v 0.477112 0.037500 -0.025514
v 0.394390 0.037500 -0.063357
v 0.320610 0.037500 -0.070734
v 0.280933 0.037500 -0.001316
v 0.279736 0.037500 0.102310
v 0.316196 0.037500 0.175329
v 0.384987 0.037500 0.174300
v 0.462837 0.037500 0.141270
v 0.521988 0.037500 0.139652
v 0.542442 0.037500 0.213741
v 0.535164 0.037500 0.331332
v 0.504276 0.037500 0.529833
v 0.290169 0.037500 0.547027
v 0.161842 0.037500 0.543770
v 0.077595 0.037500 0.511047
v 0.071903 0.037500 0.439463
v 0.101490 0.037500 0.352511
v 0.103638 0.037500 0.281901
v 0.036045 0.037500 0.253327
v -0.061943 0.037500 0.268433
v -0.130569 0.037500 0.322850
v -0.130115 0.037500 0.407970
v -0.101032 0.037500 0.498209
v -0.103806 0.037500 0.563735
v -0.180428 0.037500 0.583430
v -0.298901 0.037500 0.571050
v -0.497421 0.037500 0.529833
v -0.527134 0.037500 0.333707
v -0.530994 0.037500 0.216392
v -0.502148 0.037500 0.139905
v -0.428680 0.037500 0.135909
v -0.335632 0.037500 0.164270
v -0.257252 0.037500 0.166907
v -0.221684 0.037500 0.104782
v -0.232689 0.037500 0.015046
v -0.287922 0.037500 -0.046104
v -0.379627 0.037500 -0.042061
v -0.478367 0.037500 -0.014574
v -0.549290 0.037500 -0.024984
v -0.567734 0.037500 -0.115207
v -0.549797 0.037500 -0.249514
v -0.497421 0.037500 -0.472076
v -0.289284 -0.037500 -0.425503
v -0.165413 -0.037500 -0.409282
v -0.086067 -0.037500 -0.424953
v -0.085255 -0.037498 -0.486450
v -0.119881 -0.037500 -0.570820
v -0.127579 -0.037500 -0.645893
v -0.066193 -0.037500 -0.685486
v 0.025612 -0.037498 -0.687399
v 0.088963 -0.037498 -0.655411
v 0.085178 -0.037500 -0.596334
v 0.056259 -0.037500 -0.529350
v 0.064392 -0.037500 -0.476692
v 0.152252 -0.037500 -0.454546
v 0.504276 -0.037500 -0.472076
v 0.556496 -0.037500 -0.111545
v 0.538399 -0.037500 -0.025758
v 0.477112 -0.037500 -0.025514
v 0.394390 -0.037498 -0.063357
v 0.320610 -0.037500 -0.070734
v 0.280933 -0.037500 -0.001316
v 0.279736 -0.037500 0.102310
v 0.316196 -0.037500 0.175329
v 0.384987 -0.037498 0.174300
v 0.462837 -0.037500 0.141270
v 0.521988 -0.037498 0.139652
v 0.542442 -0.037500 0.213741
v 0.535164 -0.037500 0.331332
v 0.504276 -0.037500 0.529833
v 0.290169 -0.037498 0.547027
v 0.161842 -0.037500 0.543770
v 0.077595 -0.037500 0.511047
v 0.071903 -0.037500 0.439463
v 0.101490 -0.037500 0.352511
v 0.103638 -0.037498 0.281901
v 0.036045 -0.037498 0.253327
v -0.061943 -0.037500 0.268433
v -0.130569 -0.037500 0.322850
v -0.130115 -0.037500 0.407970
v -0.101032 -0.037500 0.498209
v -0.103806 -0.037500 0.563735
v -0.180428 -0.037500 0.583430
v -0.298901 -0.037500 0.571050
v -0.497421 -0.037500 0.529833
v -0.527134 -0.037500 0.333707
v -0.530994 -0.037500 0.216392
v -0.502148 -0.037500 0.139905
v -0.428680 -0.037500 0.135909
v -0.335632 -0.037500 0.164270
v -0.257252 -0.037500 0.166907
v -0.221684 -0.037498 0.104782
v -0.232689 -0.037500 0.015046
v -0.287922 -0.037500 -0.046104
v -0.379627 -0.037500 -0.042061
v -0.478367 -0.037500 -0.014574
v -0.549290 -0.037500 -0.024984
v -0.567734 -0.037500 -0.115207
v -0.549797 -0.037500 -0.249514
v -0.497421 -0.037500 -0.472076
v -0.549290 0.037500 -0.024984
v -0.549290 0.037500 -0.024984
v -0.567734 0.037500 -0.115207
v -0.549797 0.037500 -0.249514
v -0.478367 0.037500 -0.014574
v -0.527134 0.037500 0.333707
v -0.530994 0.037500 0.216392
v -0.502148 0.037500 0.139905
v -0.502148 0.037500 0.139905
v -0.497421 0.037500 0.529833
v -0.497421 0.037500 0.529833
v -0.497421 0.037500 -0.472076
v -0.497421 0.037500 -0.472076
v -0.428680 0.037500 0.135909
v -0.379627 0.037500 -0.042061
v -0.335632 0.037500 0.164270
v -0.298901 0.037500 0.571050
v -0.289284 0.037500 -0.425503
v -0.287922 0.037500 -0.046104
v -0.257252 0.037500 0.166907
v -0.257252 0.037500 0.166907
v -0.180428 0.037500 0.583430
v -0.165413 0.037500 -0.409282
v -0.232689 0.037500 0.015046
v -0.221684 0.037500 0.104782
v -0.103806 0.037500 0.563735
v -0.103806 0.037500 0.563735
v -0.130569 0.037500 0.322850
v -0.130115 0.037500 0.407970
v -0.086067 0.037500 -0.424953
v -0.086067 0.037500 -0.424953
v -0.061943 0.037500 0.268433
v -0.101032 0.037500 0.498209
v -0.119881 0.037500 -0.570820
v -0.127579 0.037500 -0.645893
v -0.127579 0.037500 -0.645893
v -0.066193 0.037500 -0.685486
v -0.085255 0.037500 -0.486450
v 0.025612 0.037500 -0.687399
v 0.036045 0.037500 0.253327
v 0.088963 0.037500 -0.655411
v 0.088963 0.037500 -0.655411
v 0.103638 0.037500 0.281901
v 0.103638 0.037500 0.281901
v 0.056259 0.037500 -0.529350
v 0.064392 0.037500 -0.476692
v 0.064392 0.037500 -0.476692
v 0.085178 0.037500 -0.596334
v 0.152252 0.037500 -0.454546
v 0.077595 0.037500 0.511047
v 0.077595 0.037500 0.511047
v 0.071903 0.037500 0.439463
v 0.101490 0.037500 0.352511
v 0.161842 0.037500 0.543770
v 0.290169 0.037500 0.547027
v 0.279736 0.037500 0.102310
v 0.316196 0.037500 0.175329
v 0.316196 0.037500 0.175329
v 0.280933 0.037500 -0.001316
v 0.320610 0.037500 -0.070734
v 0.320610 0.037500 -0.070734
v 0.384987 0.037500 0.174300
v 0.394390 0.037500 -0.063357
v 0.462837 0.037500 0.141270
v 0.477112 0.037500 -0.025514
v 0.504276 0.037500 0.529833
v 0.504276 0.037500 0.529833
v 0.521988 0.037500 0.139652
v 0.521988 0.037500 0.139652
v 0.538399 0.037500 -0.025758
v 0.538399 0.037500 -0.025758
v 0.504276 0.037500 -0.472076
v 0.504276 0.037500 -0.472076
v 0.535164 0.037500 0.331332
v 0.542442 0.037500 0.213741
v 0.556496 0.037500 -0.111545
v -0.549290 -0.037500 -0.024984
v -0.549290 -0.037500 -0.024984
v -0.567734 -0.037500 -0.115207
v -0.549797 -0.037500 -0.249514
v -0.478367 -0.037500 -0.014574
v -0.527134 -0.037500 0.333707
v -0.530994 -0.037500 0.216392
v -0.502148 -0.037500 0.139905
v -0.502148 -0.037500 0.139905
v -0.497421 -0.037500 0.529833
v -0.497421 -0.037500 0.529833
v -0.497421 -0.037500 -0.472076
v -0.497421 -0.037500 -0.472076
v -0.428680 -0.037500 0.135909
v -0.379627 -0.037500 -0.042061
v -0.335632 -0.037500 0.164270
v -0.298901 -0.037500 0.571050
v -0.289284 -0.037500 -0.425503
v -0.287922 -0.037500 -0.046104
v -0.257252 -0.037500 0.166907
v -0.257252 -0.037500 0.166907
v -0.180428 -0.037500 0.583430
v -0.165413 -0.037500 -0.409282
v -0.232689 -0.037500 0.015046
v -0.221684 -0.037498 0.104782
v -0.103806 -0.037500 0.563735
v -0.103806 -0.037500 0.563735
v -0.130569 -0.037500 0.322850
v -0.130115 -0.037500 0.407970
v -0.086067 -0.037500 -0.424953
v -0.086067 -0.037500 -0.424953
v -0.061943 -0.037500 0.268433
v -0.101032 -0.037500 0.498209
v -0.119881 -0.037500 -0.570820
v -0.127579 -0.037500 -0.645893
v -0.127579 -0.037500 -0.645893
v -0.066193 -0.037500 -0.685486
v -0.085255 -0.037498 -0.486450
v 0.025612 -0.037498 -0.687399
v 0.036045 -0.037498 0.253327
v 0.088963 -0.037498 -0.655411
v 0.088963 -0.037498 -0.655411
v 0.103638 -0.037498 0.281901
v 0.103638 -0.037498 0.281901
v 0.056259 -0.037500 -0.529350
v 0.064392 -0.037500 -0.476692
v 0.064392 -0.037500 -0.476692
v 0.085178 -0.037500 -0.596334
v 0.152252 -0.037500 -0.454546
v 0.077595 -0.037500 0.511047
v 0.077595 -0.037500 0.511047
v 0.071903 -0.037500 0.439463
v 0.101490 -0.037500 0.352511
v 0.161842 -0.037500 0.543770
v 0.290169 -0.037498 0.547027
v 0.279736 -0.037500 0.102310
v 0.316196 -0.037500 0.175329
v 0.316196 -0.037500 0.175329
v 0.280933 -0.037500 -0.001316
v 0.320610 -0.037500 -0.070734
v 0.320610 -0.037500 -0.070734
v 0.384987 -0.037498 0.174300
v 0.394390 -0.037498 -0.063357
v 0.462837 -0.037500 0.141270
v 0.477112 -0.037500 -0.025514
v 0.504276 -0.037500 0.529833
v 0.504276 -0.037500 0.529833
v 0.521988 -0.037498 0.139652
v 0.521988 -0.037498 0.139652
v 0.538399 -0.037500 -0.025758
v 0.538399 -0.037500 -0.025758
v 0.504276 -0.037500 -0.472076
v 0.504276 -0.037500 -0.472076
v 0.535164 -0.037500 0.331332
v 0.542442 -0.037500 0.213741
v 0.556496 -0.037500 -0.111545
vt 0.500000 0.500000
vt 0.500000 0.500000
vt 0.500000 0.500000
vt 0.500000 0.500000
vt 0.500000 0.500000
vt 0.500000 0.500000
vt 0.500000 0.500000
vt 0.500000 0.500000
vt 0.500000 0.500000
vt 0.500000 0.500000
vt 0.500000 0.500000
vt 0.500000 0.500000
vt 0.500000 0.500000
vt 0.500000 0.500000
vt 0.500000 0.500000
vt 0.500000 0.500000
vt 0.500000 0.500000
vt 0.500000 0.500000
vt 0.500000 0.500000
vt 0.500000 0.500000
vt 0.500000 0.500000
vt 0.500000 0.500000
vt 0.500000 0.500000
vt 0.500000 0.500000
vt 0.500000 0.500000
vt 0.500000 0.500000
vt 0.500000 0.500000
vt 0.500000 0.500000
vt 0.500000 0.500000
vt 0.500000 0.500000
vt 0.500000 0.500000
vt 0.500000 0.500000
vt 0.500000 0.500000
vt 0.500000 0.500000
vt 0.500000 0.500000
vt 0.500000 0.500000
vt 0.500000 0.500000
vt 0.500000 0.500000
vt 0.500000 0.500000
vt 0.500000 0.500000
vt 0.500000 0.500000
vt 0.500000 0.500000
vt 0.500000 0.500000
vt 0.500000 0.500000
vt 0.500000 0.500000
vt 0.500000 0.500000
vt 0.500000 0.500000
vt 0.500000 0.500000
vt 0.500000 0.500000
vt 0.500000 0.500000
vt 0.500000 0.500000
vt 0.500000 0.500000
vt 0.500000 0.500000
vt 0.500000 0.500000
vt 0.500000 0.500000
vt 0.500000 0.500000
vt 0.500000 0.500000
vt 0.500000 0.500000
vt 0.500000 0.500000
vt 0.500000 0.500000
vt 0.500000 0.500000
vt 0.500000 0.500000
vt 0.500000 0.500000
vt 0.500000 0.500000
vt 0.500000 0.500000
vt 0.500000 0.500000
vt 0.500000 0.500000
vt 0.500000 0.500000
vt 0.500000 0.500000
vt 0.500000 0.500000
vt 0.500000 0.500000
vt 0.500000 0.500000
vt 0.500000 0.500000
vt 0.500000 0.500000
vt 0.500000 0.500000
vt 0.500000 0.500000
vt 0.500000 0.500000
vt 0.500000 0.500000
vt 0.500000 0.500000
vt 0.500000 0.500000
vt 0.500000 0.500000
vt 0.500000 0.500000
vt 0.500000 0.500000
vt 0.500000 0.500000
vt 0.500000 0.500000
vt 0.500000 0.500000
vt 0.500000 0.500000
vt 0.500000 0.500000
vt 0.500000 0.500000
vt 0.500000 0.500000
vt 0.500000 0.500000
vt 0.500000 0.500000
vt 0.500000 0.500000
vt 0.500000 0.500000
vt 0.500000 0.500000
vt 0.500000 0.500000
vt 0.500000 0.500000
vt 0.500000 0.500000
vt 0.500000 0.500000
vt 0.500000 0.500000
vt 0.500000 0.500000
vt 0.500000 0.500000
vt 0.500000 0.500000
vt 0.500000 0.500000
vt 0.500000 0.500000
vt 0.500000 0.500000
vt 0.500000 0.500000
vt 0.500000 0.500000
vt 0.500000 0.500000
vt 0.500000 0.500000
vt 0.500000 0.500000
vt 0.500000 0.500000
vt 0.500000 0.500000
vt 0.500000 0.500000
vt 0.500000 0.500000
vt 0.500000 0.500000
vt 0.500000 0.500000
vt 0.500000 0.500000
vt 0.500000 0.500000
vt 0.500000 0.500000
vt 0.500000 0.500000
vt 0.500000 0.500000
vt 0.500000 0.500000
vt 0.500000 0.500000
vt 0.500000 0.500000
vt 0.500000 0.500000
vt 0.500000 0.500000
vt 0.500000 0.500000
vt 0.500000 0.500000
vt 0.500000 0.500000
vt 0.500000 0.500000
vt 0.500000 0.500000
vt 0.500000 0.500000
vt 0.500000 0.500000
vt 0.500000 0.500000
vt 0.500000 0.500000
vt 0.500000 0.500000
vt 0.500000 0.500000
vt 0.500000 0.500000
vt 0.500000 0.500000
vt 0.500000 0.500000
vt 0.500000 0.500000
vt 0.500000 0.500000
vt 0.500000 0.500000
vt 0.500000 0.500000
vt 0.500000 0.500000
vt 0.500000 0.500000
vt 0.500000 0.500000
vt 0.500000 0.500000
vt 0.500000 0.500000
vt 0.500000 0.500000
vt 0.500000 0.500000
vt 0.500000 0.500000
vt 0.500000 0.500000
vt 0.500000 0.500000
vt 0.500000 0.500000
vt 0.500000 0.500000
vt 0.500000 0.500000
vt 0.500000 0.500000
vt 0.500000 0.500000
vt 0.500000 0.500000
vt 0.500000 0.500000
vt 0.500000 0.500000
vt 0.500000 0.500000
vt 0.500000 0.500000
vt 0.500000 0.500000
vt 0.500000 0.500000
vt 0.500000 0.500000
vt 0.500000 0.500000
vt 0.500000 0.500000
vt 0.500000 0.500000
vt 0.500000 0.500000
vt 0.500000 0.500000
vt 0.500000 0.500000
vt 0.500000 0.500000
vt 0.500000 0.500000
vt 0.500000 0.500000
vt 0.500000 0.500000
vt 0.500000 0.500000
vt 0.500000 0.500000
vt 0.500000 0.500000
vt 0.500000 0.500000
vt 0.500000 0.500000
vt 0.500000 0.500000
vt 0.500000 0.500000
vt 0.500000 0.500000
vt 0.500000 0.500000
vt 0.500000 0.500000
vt 0.500000 0.500000
vt 0.500000 0.500000
vt 0.500000 0.500000
vt 0.500000 0.500000
vt 0.500000 0.500000
vt 0.500000 0.500000
vt 0.500000 0.500000
vt 0.500000 0.500000
vt 0.500000 0.500000
vt 0.500000 0.500000
vt 0.500000 0.500000
vt 0.500000 0.500000
vt 0.500000 0.500000
vt 0.500000 0.500000
vt 0.500000 0.500000
vt 0.500000 0.500000
vt 0.500000 0.500000
vt 0.500000 0.500000
vt 0.500000 0.500000
vt 0.500000 0.500000
vt 0.500000 0.500000
vt 0.500000 0.500000
vt 0.189947 0.222881
vt 0.187500 0.222222
vt 0.186986 0.217818
vt 0.189712 0.208936
vt 0.191923 0.204172
vt 0.190593 0.208888
vt 0.189977 0.199315
vt 0.191444 0.199153
vt 0.191936 0.202646
vt 0.195548 0.223782
vt 0.194635 0.219609
vt 0.197223 0.223384
vt 0.192803 0.216105
vt 0.192028 0.216894
vt 0.190761 0.212561
vt 0.192415 0.220697
vt 0.192365 0.222327
vt 0.191411 0.222967
vt 0.202169 0.214018
vt 0.201232 0.213847
vt 0.202663 0.212656
vt 0.190950 0.210388
vt 0.190082 0.214084
vt 0.187285 0.204750
vt 0.194292 0.221800
vt 0.187500 0.200000
vt 0.189020 0.214074
vt 0.200179 0.213079
vt 0.199412 0.213097
vt 0.200058 0.209759
vt 0.187326 0.207597
vt 0.188627 0.209592
vt 0.194422 0.223373
vt 0.186831 0.215190
vt 0.199419 0.217605
vt 0.187895 0.213429
vt 0.187734 0.209466
vt 0.192061 0.218633
vt 0.194429 0.200603
vt 0.194432 0.199243
vt 0.195502 0.198842
vt 0.193923 0.216349
vt 0.194685 0.217575
vt 0.199217 0.214857
vt 0.200715 0.209939
vt 0.201550 0.209298
vt 0.202686 0.210619
vt 0.194901 0.202438
vt 0.200000 0.200000
vt 0.192368 0.199607
vt 0.192348 0.200919
vt 0.192834 0.204981
vt 0.194993 0.204075
vt 0.194127 0.204955
vt 0.199781 0.207810
vt 0.202287 0.209214
vt 0.200000 0.222222
vt 0.187077 0.213490
vn 0.0000 -1.0000 0.0000
vn -0.9797 0.0000 0.2003
vn -0.9912 0.0000 -0.1324
vn -0.1452 0.0000 0.9894
vn -0.9995 0.0000 0.0329
vn -0.9357 0.0000 -0.3529
vn -0.9887 0.0000 0.1498
vn -0.9734 0.0000 -0.2291
vn -0.0543 0.0000 -0.9985
vn 0.2682 0.0000 0.9634
vn 0.2916 0.0000 -0.9566
vn -0.2033 0.0000 0.9791
vn 0.2184 0.0000 -0.9759
vn 0.0441 0.0000 0.9990
vn 0.0336 0.0000 -0.9994
vn -0.1039 0.0000 0.9946
vn 0.1298 0.0000 -0.9915
vn -0.7421 0.0000 0.6703
vn -0.8678 0.0000 -0.4969
vn -0.9926 0.0000 0.1217
vn 0.2490 0.0000 0.9685
vn 1.0000 0.0000 -0.0053
vn -0.1938 0.0000 -0.9810
vn 0.6213 0.0000 0.7836
vn 0.9991 0.0000 0.0423
vn 0.9518 0.0000 -0.3068
vn -0.9948 0.0000 0.1020
vn -0.5420 0.0000 -0.8404
vn -0.9251 0.0000 0.3797
vn -0.9999 0.0000 -0.0132
vn -0.0208 0.0000 -0.9998
vn 0.1524 0.0000 0.9883
vn 0.4507 0.0000 -0.8927
vn -0.3894 0.0000 0.9211
vn 0.9883 0.0000 -0.1526
vn 0.9181 0.0000 0.3964
vn 0.9980 0.0000 0.0639
vn 0.2444 0.0000 -0.9697
vn -0.9969 0.0000 0.0793
vn -0.9467 0.0000 -0.3221
vn -0.3621 0.0000 0.9322
vn -0.9995 0.0000 -0.0304
vn -0.0254 0.0000 0.9997
vn 0.8947 0.0000 -0.4467
vn 0.9999 0.0000 0.0116
vn 0.8682 0.0000 0.4962
vn -0.0150 0.0000 -0.9999
vn -0.0995 0.0000 0.9950
vn -0.3906 0.0000 -0.9206
vn -0.4160 0.0000 0.9094
vn 0.0800 0.0000 0.9968
vn -0.0273 0.0000 -0.9996
vn 0.0040 0.0000 1.0000
vn -0.0497 0.0000 -0.9988
vn 0.9881 0.0000 0.1538
vn 0.9981 0.0000 0.0618
vn 0.9639 0.0000 -0.2661
vn 0.9785 0.0000 0.2064
vn 0.9897 0.0000 -0.1433
vn 0.0000 1.0000 0.0000
usemtl BackMat.001
s off
f 198/1/1 209/2/1 202/3/1
f 245/4/1 235/5/1 249/6/1
f 266/7/1 254/8/1 267/9/1
f 195/10/1 196/11/1 207/12/1
f 217/13/1 224/14/1 212/15/1
f 206/16/1 199/17/1 200/18/1
f 227/19/1 229/20/1 226/21/1
f 217/13/1 232/22/1 224/14/1
f 212/15/1 224/14/1 220/23/1
f 247/24/1 249/6/1 266/7/1
f 197/25/1 195/10/1 207/12/1
f 247/24/1 266/7/1 258/26/1
f 220/23/1 221/27/1 198/1/1
f 230/28/1 238/29/1 222/30/1
f 246/31/1 245/4/1 247/24/1
f 245/4/1 246/31/1 244/32/1
f 193/33/1 195/10/1 197/25/1
f 209/2/1 221/27/1 214/34/1
f 196/11/1 210/35/1 207/12/1
f 221/27/1 225/36/1 214/34/1
f 244/32/1 246/31/1 242/37/1
f 212/15/1 220/23/1 208/38/1
f 208/38/1 199/17/1 206/16/1
f 257/39/1 268/40/1 262/41/1
f 216/42/1 232/22/1 217/13/1
f 208/38/1 220/23/1 198/1/1
f 210/35/1 215/43/1 211/44/1
f 237/45/1 231/46/1 240/47/1
f 255/48/1 264/49/1 268/40/1
f 267/9/1 256/50/1 260/51/1
f 235/5/1 248/52/1 249/6/1
f 252/53/1 264/49/1 255/48/1
f 211/44/1 215/43/1 216/42/1
f 249/6/1 254/8/1 266/7/1
f 232/22/1 251/54/1 248/52/1
f 226/21/1 237/45/1 230/28/1
f 216/42/1 251/54/1 232/22/1
f 230/28/1 237/45/1 238/29/1
f 264/49/1 252/53/1 241/55/1
f 232/22/1 248/52/1 235/5/1
f 240/47/1 231/46/1 233/56/1
f 255/48/1 268/40/1 257/39/1
f 245/4/1 249/6/1 247/24/1
f 267/9/1 254/8/1 256/50/1
f 222/30/1 241/55/1 252/53/1
f 229/20/1 237/45/1 226/21/1
f 238/29/1 241/55/1 222/30/1
f 237/45/1 229/20/1 231/46/1
f 207/12/1 210/35/1 211/44/1
f 204/57/1 210/35/1 196/11/1
f 251/54/1 222/30/1 252/53/1
f 198/1/1 221/27/1 209/2/1
f 199/17/1 208/38/1 198/1/1
f 216/42/1 215/43/1 222/30/1
f 214/34/1 225/36/1 218/58/1
f 216/42/1 222/30/1 251/54/1
f 118/59/2 56/60/2 114/61/2 194/62/2
f 56/60/3 57/63/3 115/64/3 114/61/3
f 54/65/4 55/66/4 113/67/4 112/68/4
f 44/69/5 45/70/5 103/71/5 102/72/5
f 45/70/6 125/73/6 201/74/6 103/71/6
f 127/75/7 44/69/7 102/72/7 203/76/7
f 57/63/8 129/77/8 205/78/8 115/64/8
f 46/79/9 47/80/9 105/81/9 104/82/9
f 53/83/10 54/65/10 112/68/10 111/84/10
f 47/80/11 48/85/11 106/86/11 105/81/11
f 42/87/12 43/88/12 101/89/12 100/90/12
f 58/91/13 1/92/13 59/93/13 116/94/13
f 52/95/14 53/83/14 111/84/14 110/96/14
f 48/85/15 137/97/15 213/98/15 106/86/15
f 41/99/16 42/87/16 100/90/16 99/100/16
f 1/92/17 2/101/17 60/102/17 59/93/17
f 51/103/18 52/95/18 110/96/18 109/104/18
f 49/105/19 50/106/19 108/107/19 107/108/19
f 50/106/20 51/103/20 109/104/20 108/107/20
f 143/109/21 41/99/21 99/100/21 219/110/21
f 37/111/22 38/112/22 96/113/22 95/114/22
f 2/101/23 147/115/23 223/116/23 60/102/23
f 36/117/24 37/111/24 95/114/24 94/118/24
f 39/119/25 40/120/25 98/121/25 97/122/25
f 38/112/26 39/119/26 97/122/26 96/113/26
f 5/123/27 152/124/27 228/125/27 63/126/27
f 6/127/28 7/128/28 65/129/28 64/130/28
f 4/131/29 5/123/29 63/126/29 62/132/29
f 3/133/30 4/131/30 62/132/30 61/134/30
f 7/128/31 8/135/31 66/136/31 65/129/31
f 35/137/32 36/117/32 94/118/32 93/138/32
f 8/135/33 158/139/33 234/140/33 66/136/33
f 160/141/34 35/137/34 93/138/34 236/142/34
f 11/143/35 163/144/35 239/145/35 69/146/35
f 10/147/36 11/143/36 69/146/36 68/148/36
f 9/149/37 10/147/37 68/148/37 67/150/37
f 12/151/38 13/152/38 71/153/38 70/154/38
f 167/155/39 32/156/39 90/157/39 243/158/39
f 32/156/40 33/159/40 91/160/40 90/157/40
f 30/161/41 31/162/41 89/163/41 88/164/41
f 33/159/42 34/165/42 92/166/42 91/160/42
f 29/167/43 30/161/43 88/164/43 87/168/43
f 21/169/44 174/170/44 250/171/44 79/172/44
f 20/173/45 21/169/45 79/172/45 78/174/45
f 177/175/46 20/173/46 78/174/46 253/176/46
f 22/177/47 23/178/47 81/179/47 80/180/47
f 18/181/48 19/182/48 77/183/48 76/184/48
f 23/178/49 24/185/49 82/186/49 81/179/49
f 17/187/50 18/181/50 76/184/50 75/188/50
f 183/189/51 29/167/51 87/168/51 259/190/51
f 24/185/52 185/191/52 261/192/52 82/186/52
f 187/193/53 17/187/53 75/188/53 263/194/53
f 13/152/54 189/195/54 265/196/54 71/153/54
f 27/197/55 28/198/55 86/199/55 85/200/55
f 26/201/56 27/197/56 85/200/56 84/202/56
f 25/203/57 26/201/57 84/202/57 83/204/57
f 15/205/58 16/206/58 74/207/58 73/208/58
f 14/209/59 15/205/59 73/208/59 72/210/59
usemtl FrontMat.001
f 122/211/60 126/212/60 133/213/60
f 169/214/60 173/215/60 159/216/60
f 190/217/60 191/218/60 178/219/60
f 119/220/60 131/221/60 120/222/60
f 141/223/60 136/224/60 148/225/60
f 130/226/60 124/227/60 123/228/60
f 151/229/60 150/230/60 153/231/60
f 141/223/60 148/225/60 156/232/60
f 136/224/60 144/233/60 148/225/60
f 171/234/60 190/217/60 173/215/60
f 121/235/60 131/221/60 119/220/60
f 171/234/60 182/236/60 190/217/60
f 144/233/60 122/211/60 145/237/60
f 154/238/60 146/239/60 162/240/60
f 170/241/60 171/234/60 169/214/60
f 169/214/60 168/242/60 170/241/60
f 117/243/60 121/235/60 119/220/60
f 133/213/60 138/244/60 145/237/60
f 120/222/60 131/221/60 134/245/60
f 145/237/60 138/244/60 149/246/60
f 168/242/60 166/247/60 170/241/60
f 136/224/60 132/248/60 144/233/60
f 132/248/60 130/226/60 123/228/60
f 181/249/60 186/250/60 192/251/60
f 140/252/60 141/223/60 156/232/60
f 132/248/60 122/211/60 144/233/60
f 134/245/60 135/253/60 139/254/60
f 161/255/60 164/256/60 155/257/60
f 179/258/60 192/251/60 188/259/60
f 191/218/60 184/260/60 180/261/60
f 159/216/60 173/215/60 172/262/60
f 176/263/60 179/258/60 188/259/60
f 135/253/60 140/252/60 139/254/60
f 173/215/60 190/217/60 178/219/60
f 156/232/60 172/262/60 175/264/60
f 150/230/60 154/238/60 161/255/60
f 140/252/60 156/232/60 175/264/60
f 154/238/60 162/240/60 161/255/60
f 188/259/60 165/265/60 176/263/60
f 156/232/60 159/216/60 172/262/60
f 164/256/60 157/266/60 155/257/60
f 179/258/60 181/249/60 192/251/60
f 169/214/60 171/234/60 173/215/60
f 191/218/60 180/261/60 178/219/60
f 146/239/60 176/263/60 165/265/60
f 153/231/60 150/230/60 161/255/60
f 162/240/60 146/239/60 165/265/60
f 161/255/60 155/257/60 153/231/60
f 131/221/60 135/253/60 134/245/60
f 128/267/60 120/222/60 134/245/60
f 175/264/60 176/263/60 146/239/60
f 122/211/60 133/213/60 145/237/60
f 123/228/60 122/211/60 132/248/60
f 140/252/60 146/239/60 139/254/60
f 138/244/60 142/268/60 149/246/60
f 140/252/60 175/264/60 146/239/60
