# Blender v2.83.1 OBJ File: 'jigsaw-80x45-3-step2.blend'
# www.blender.org
mtllib piece.701.mtl
o path1402_path1402.001
v -0.575191 0.037500 0.285624
v -0.593380 0.037500 0.156518
v -0.577469 0.037500 0.070479
v -0.512333 0.037500 0.061858
v -0.422096 0.037500 0.088638
v -0.340679 0.037500 0.089712
v -0.296425 0.037500 0.023811
v -0.295246 0.037500 -0.070965
v -0.337471 0.037500 -0.136676
v -0.417725 0.037500 -0.134974
v -0.507668 0.037500 -0.105871
v -0.573250 0.037500 -0.108974
v -0.590191 0.037500 -0.185576
v -0.573254 0.037500 -0.303741
v -0.524193 0.037500 -0.501616
v -0.188999 0.037500 -0.540054
v -0.110191 0.037500 -0.520882
v -0.111797 0.037500 -0.464257
v -0.148911 0.037500 -0.390188
v -0.156757 0.037500 -0.326333
v -0.091824 0.037500 -0.295305
v 0.004398 0.037500 -0.299541
v 0.069157 0.037500 -0.336432
v 0.061230 0.037500 -0.399821
v 0.025551 0.037500 -0.469380
v 0.028584 0.037500 -0.521235
v 0.116123 0.037500 -0.538302
v 0.477715 0.037500 -0.501616
v 0.456741 0.037500 -0.302032
v 0.456669 0.037500 -0.183042
v 0.484753 0.037500 -0.106349
v 0.550808 0.037500 -0.104230
v 0.633915 0.037500 -0.134585
v 0.705475 0.037500 -0.136724
v 0.741409 0.037500 -0.069961
v 0.735771 0.037500 0.026331
v 0.687138 0.037500 0.092767
v 0.600174 0.037500 0.090291
v 0.503868 0.037500 0.061149
v 0.433300 0.037500 0.067913
v 0.413483 0.037500 0.153679
v 0.429180 0.037500 0.283620
v 0.477715 0.037500 0.500081
v 0.251926 0.037500 0.550517
v 0.117718 0.037500 0.567292
v 0.032139 0.037500 0.548027
v 0.032150 0.037500 0.477574
v 0.070755 0.037500 0.383556
v 0.079967 0.037500 0.304288
v 0.013710 0.037500 0.270271
v -0.086571 0.037500 0.280771
v -0.157528 0.037500 0.327239
v -0.156765 0.037500 0.398546
v -0.125721 0.037500 0.473228
v -0.126801 0.037500 0.527241
v -0.203423 0.037500 0.543611
v -0.524193 0.037500 0.500081
v -0.575191 -0.037500 0.285624
v -0.593380 -0.037500 0.156518
v -0.577469 -0.037498 0.070479
v -0.512333 -0.037500 0.061858
v -0.422096 -0.037500 0.088638
v -0.340679 -0.037500 0.089712
v -0.296425 -0.037498 0.023811
v -0.295246 -0.037498 -0.070965
v -0.337471 -0.037500 -0.136676
v -0.417725 -0.037500 -0.134974
v -0.507668 -0.037500 -0.105871
v -0.573250 -0.037500 -0.108974
v -0.590191 -0.037500 -0.185576
v -0.573254 -0.037498 -0.303741
v -0.524193 -0.037500 -0.501616
v -0.188999 -0.037500 -0.540054
v -0.110191 -0.037500 -0.520882
v -0.111797 -0.037498 -0.464257
v -0.148911 -0.037498 -0.390188
v -0.156757 -0.037500 -0.326333
v -0.091824 -0.037498 -0.295305
v 0.004398 -0.037500 -0.299541
v 0.069157 -0.037498 -0.336432
v 0.061230 -0.037500 -0.399821
v 0.025551 -0.037500 -0.469380
v 0.028584 -0.037498 -0.521235
v 0.116123 -0.037500 -0.538302
v 0.477715 -0.037500 -0.501616
v 0.456741 -0.037500 -0.302032
v 0.456669 -0.037500 -0.183042
v 0.484753 -0.037500 -0.106349
v 0.550808 -0.037500 -0.104230
v 0.633915 -0.037500 -0.134585
v 0.705475 -0.037500 -0.136724
v 0.741409 -0.037500 -0.069961
v 0.735771 -0.037500 0.026331
v 0.687138 -0.037500 0.092767
v 0.600174 -0.037500 0.090291
v 0.503868 -0.037500 0.061149
v 0.433300 -0.037500 0.067913
v 0.413483 -0.037500 0.153679
v 0.429180 -0.037500 0.283620
v 0.477715 -0.037500 0.500081
v 0.251926 -0.037500 0.550517
v 0.117718 -0.037498 0.567292
v 0.032139 -0.037500 0.548027
v 0.032150 -0.037500 0.477574
v 0.070755 -0.037500 0.383556
v 0.079967 -0.037500 0.304288
v 0.013710 -0.037500 0.270271
v -0.086571 -0.037500 0.280771
v -0.157528 -0.037500 0.327239
v -0.156765 -0.037500 0.398546
v -0.125721 -0.037500 0.473228
v -0.126801 -0.037500 0.527241
v -0.203423 -0.037500 0.543611
v -0.524193 -0.037498 0.500081
v -0.188999 0.037500 -0.540054
v -0.110191 0.037500 -0.520882
v -0.110191 0.037500 -0.520882
v 0.028584 0.037500 -0.521235
v 0.028584 0.037500 -0.521235
v 0.116123 0.037500 -0.538302
v 0.025551 0.037500 -0.469380
v -0.111797 0.037500 -0.464257
v -0.524193 0.037500 -0.501616
v -0.524193 0.037500 -0.501616
v 0.477715 0.037500 -0.501616
v 0.477715 0.037500 -0.501616
v 0.061230 0.037500 -0.399821
v -0.148911 0.037500 -0.390188
v -0.573254 0.037500 -0.303741
v 0.456741 0.037500 -0.302032
v 0.069157 0.037500 -0.336432
v 0.069157 0.037500 -0.336432
v -0.156757 0.037500 -0.326333
v -0.156757 0.037500 -0.326333
v 0.004398 0.037500 -0.299541
v -0.091824 0.037500 -0.295305
v -0.590191 0.037500 -0.185576
v 0.456669 0.037500 -0.183042
v -0.573250 0.037500 -0.108974
v -0.573250 0.037500 -0.108974
v -0.337471 0.037500 -0.136676
v -0.417725 0.037500 -0.134974
v 0.484753 0.037500 -0.106349
v 0.484753 0.037500 -0.106349
v 0.633915 0.037500 -0.134585
v 0.705475 0.037500 -0.136724
v 0.705475 0.037500 -0.136724
v 0.741409 0.037500 -0.069961
v -0.295246 0.037500 -0.070965
v -0.507668 0.037500 -0.105871
v 0.550808 0.037500 -0.104230
v -0.296425 0.037500 0.023811
v 0.735771 0.037500 0.026331
v -0.340679 0.037500 0.089712
v 0.687138 0.037500 0.092767
v 0.503868 0.037500 0.061149
v 0.433300 0.037500 0.067913
v 0.433300 0.037500 0.067913
v 0.600174 0.037500 0.090291
v -0.577469 0.037500 0.070479
v -0.577469 0.037500 0.070479
v -0.512333 0.037500 0.061858
v -0.422096 0.037500 0.088638
v 0.413483 0.037500 0.153679
v -0.593380 0.037500 0.156518
v 0.429180 0.037500 0.283620
v -0.575191 0.037500 0.285624
v 0.013710 0.037500 0.270271
v -0.086571 0.037500 0.280771
v 0.079967 0.037500 0.304288
v 0.079967 0.037500 0.304288
v -0.157528 0.037500 0.327239
v 0.070755 0.037500 0.383556
v -0.156765 0.037500 0.398546
v 0.032150 0.037500 0.477574
v -0.125721 0.037500 0.473228
v -0.126801 0.037500 0.527241
v -0.126801 0.037500 0.527241
v 0.477715 0.037500 0.500081
v 0.477715 0.037500 0.500081
v -0.524193 0.037500 0.500081
v -0.524193 0.037500 0.500081
v 0.032139 0.037500 0.548027
v 0.032139 0.037500 0.548027
v 0.251926 0.037500 0.550517
v -0.203423 0.037500 0.543611
v 0.117718 0.037500 0.567292
v -0.188999 -0.037500 -0.540054
v -0.110191 -0.037500 -0.520882
v -0.110191 -0.037500 -0.520882
v 0.028584 -0.037498 -0.521235
v 0.028584 -0.037498 -0.521235
v 0.116123 -0.037500 -0.538302
v 0.025551 -0.037500 -0.469380
v -0.111797 -0.037498 -0.464257
v -0.524193 -0.037500 -0.501616
v -0.524193 -0.037500 -0.501616
v 0.477715 -0.037500 -0.501616
v 0.477715 -0.037500 -0.501616
v 0.061230 -0.037500 -0.399821
v -0.148911 -0.037498 -0.390188
v -0.573254 -0.037498 -0.303741
v 0.456741 -0.037500 -0.302032
v 0.069157 -0.037498 -0.336432
v 0.069157 -0.037498 -0.336432
v -0.156757 -0.037500 -0.326333
v -0.156757 -0.037500 -0.326333
v 0.004398 -0.037500 -0.299541
v -0.091824 -0.037498 -0.295305
v -0.590191 -0.037500 -0.185576
v 0.456669 -0.037500 -0.183042
v -0.573250 -0.037500 -0.108974
v -0.573250 -0.037500 -0.108974
v -0.337471 -0.037500 -0.136676
v -0.417725 -0.037500 -0.134974
v 0.484753 -0.037500 -0.106349
v 0.484753 -0.037500 -0.106349
v 0.633915 -0.037500 -0.134585
v 0.705475 -0.037500 -0.136724
v 0.705475 -0.037500 -0.136724
v 0.741409 -0.037500 -0.069961
v -0.295246 -0.037498 -0.070965
v -0.507668 -0.037500 -0.105871
v 0.550808 -0.037500 -0.104230
v -0.296425 -0.037498 0.023811
v 0.735771 -0.037500 0.026331
v -0.340679 -0.037500 0.089712
v 0.687138 -0.037500 0.092767
v 0.503868 -0.037500 0.061149
v 0.433300 -0.037500 0.067913
v 0.433300 -0.037500 0.067913
v 0.600174 -0.037500 0.090291
v -0.577469 -0.037498 0.070479
v -0.577469 -0.037498 0.070479
v -0.512333 -0.037500 0.061858
v -0.422096 -0.037500 0.088638
v 0.413483 -0.037500 0.153679
v -0.593380 -0.037500 0.156518
v 0.429180 -0.037500 0.283620
v -0.575191 -0.037500 0.285624
v 0.013710 -0.037500 0.270271
v -0.086571 -0.037500 0.280771
v 0.079967 -0.037500 0.304288
v 0.079967 -0.037500 0.304288
v -0.157528 -0.037500 0.327239
v 0.070755 -0.037500 0.383556
v -0.156765 -0.037500 0.398546
v 0.032150 -0.037500 0.477574
v -0.125721 -0.037500 0.473228
v -0.126801 -0.037500 0.527241
v -0.126801 -0.037500 0.527241
v 0.477715 -0.037500 0.500081
v 0.477715 -0.037500 0.500081
v -0.524193 -0.037498 0.500081
v -0.524193 -0.037498 0.500081
v 0.032139 -0.037500 0.548027
v 0.032139 -0.037500 0.548027
v 0.251926 -0.037500 0.550517
v -0.203423 -0.037500 0.543611
v 0.117718 -0.037498 0.567292
vt 0.500000 0.500000
vt 0.500000 0.500000
vt 0.500000 0.500000
vt 0.500000 0.500000
vt 0.500000 0.500000
vt 0.500000 0.500000
vt 0.500000 0.500000
vt 0.500000 0.500000
vt 0.500000 0.500000
vt 0.500000 0.500000
vt 0.500000 0.500000
vt 0.500000 0.500000
vt 0.500000 0.500000
vt 0.500000 0.500000
vt 0.500000 0.500000
vt 0.500000 0.500000
vt 0.500000 0.500000
vt 0.500000 0.500000
vt 0.500000 0.500000
vt 0.500000 0.500000
vt 0.500000 0.500000
vt 0.500000 0.500000
vt 0.500000 0.500000
vt 0.500000 0.500000
vt 0.500000 0.500000
vt 0.500000 0.500000
vt 0.500000 0.500000
vt 0.500000 0.500000
vt 0.500000 0.500000
vt 0.500000 0.500000
vt 0.500000 0.500000
vt 0.500000 0.500000
vt 0.500000 0.500000
vt 0.500000 0.500000
vt 0.500000 0.500000
vt 0.500000 0.500000
vt 0.500000 0.500000
vt 0.500000 0.500000
vt 0.500000 0.500000
vt 0.500000 0.500000
vt 0.500000 0.500000
vt 0.500000 0.500000
vt 0.500000 0.500000
vt 0.500000 0.500000
vt 0.500000 0.500000
vt 0.500000 0.500000
vt 0.500000 0.500000
vt 0.500000 0.500000
vt 0.500000 0.500000
vt 0.500000 0.500000
vt 0.500000 0.500000
vt 0.500000 0.500000
vt 0.500000 0.500000
vt 0.500000 0.500000
vt 0.500000 0.500000
vt 0.500000 0.500000
vt 0.500000 0.500000
vt 0.500000 0.500000
vt 0.500000 0.500000
vt 0.500000 0.500000
vt 0.500000 0.500000
vt 0.500000 0.500000
vt 0.500000 0.500000
vt 0.500000 0.500000
vt 0.500000 0.500000
vt 0.500000 0.500000
vt 0.500000 0.500000
vt 0.500000 0.500000
vt 0.500000 0.500000
vt 0.500000 0.500000
vt 0.500000 0.500000
vt 0.500000 0.500000
vt 0.500000 0.500000
vt 0.500000 0.500000
vt 0.500000 0.500000
vt 0.500000 0.500000
vt 0.500000 0.500000
vt 0.500000 0.500000
vt 0.500000 0.500000
vt 0.500000 0.500000
vt 0.500000 0.500000
vt 0.500000 0.500000
vt 0.500000 0.500000
vt 0.500000 0.500000
vt 0.500000 0.500000
vt 0.500000 0.500000
vt 0.500000 0.500000
vt 0.500000 0.500000
vt 0.500000 0.500000
vt 0.500000 0.500000
vt 0.500000 0.500000
vt 0.500000 0.500000
vt 0.500000 0.500000
vt 0.500000 0.500000
vt 0.500000 0.500000
vt 0.500000 0.500000
vt 0.500000 0.500000
vt 0.500000 0.500000
vt 0.500000 0.500000
vt 0.500000 0.500000
vt 0.500000 0.500000
vt 0.500000 0.500000
vt 0.500000 0.500000
vt 0.500000 0.500000
vt 0.500000 0.500000
vt 0.500000 0.500000
vt 0.500000 0.500000
vt 0.500000 0.500000
vt 0.500000 0.500000
vt 0.500000 0.500000
vt 0.500000 0.500000
vt 0.500000 0.500000
vt 0.500000 0.500000
vt 0.500000 0.500000
vt 0.500000 0.500000
vt 0.500000 0.500000
vt 0.500000 0.500000
vt 0.500000 0.500000
vt 0.500000 0.500000
vt 0.500000 0.500000
vt 0.500000 0.500000
vt 0.500000 0.500000
vt 0.500000 0.500000
vt 0.500000 0.500000
vt 0.500000 0.500000
vt 0.500000 0.500000
vt 0.500000 0.500000
vt 0.500000 0.500000
vt 0.500000 0.500000
vt 0.500000 0.500000
vt 0.500000 0.500000
vt 0.500000 0.500000
vt 0.500000 0.500000
vt 0.500000 0.500000
vt 0.500000 0.500000
vt 0.500000 0.500000
vt 0.500000 0.500000
vt 0.500000 0.500000
vt 0.500000 0.500000
vt 0.500000 0.500000
vt 0.500000 0.500000
vt 0.500000 0.500000
vt 0.500000 0.500000
vt 0.500000 0.500000
vt 0.500000 0.500000
vt 0.500000 0.500000
vt 0.500000 0.500000
vt 0.500000 0.500000
vt 0.500000 0.500000
vt 0.500000 0.500000
vt 0.500000 0.500000
vt 0.500000 0.500000
vt 0.500000 0.500000
vt 0.500000 0.500000
vt 0.500000 0.500000
vt 0.500000 0.500000
vt 0.500000 0.500000
vt 0.500000 0.500000
vt 0.500000 0.500000
vt 0.500000 0.500000
vt 0.500000 0.500000
vt 0.500000 0.500000
vt 0.500000 0.500000
vt 0.500000 0.500000
vt 0.500000 0.500000
vt 0.500000 0.500000
vt 0.500000 0.500000
vt 0.500000 0.500000
vt 0.500000 0.500000
vt 0.500000 0.500000
vt 0.500000 0.500000
vt 0.500000 0.500000
vt 0.500000 0.500000
vt 0.500000 0.500000
vt 0.500000 0.500000
vt 0.500000 0.500000
vt 0.500000 0.500000
vt 0.500000 0.500000
vt 0.500000 0.500000
vt 0.500000 0.500000
vt 0.500000 0.500000
vt 0.500000 0.500000
vt 0.500000 0.500000
vt 0.500000 0.500000
vt 0.500000 0.500000
vt 0.500000 0.500000
vt 0.500000 0.500000
vt 0.500000 0.500000
vt 0.500000 0.500000
vt 0.500000 0.500000
vt 0.500000 0.500000
vt 0.500000 0.500000
vt 0.500000 0.500000
vt 0.500000 0.500000
vt 0.500000 0.500000
vt 0.500000 0.500000
vt 0.500000 0.500000
vt 0.500000 0.500000
vt 0.500000 0.500000
vt 0.500000 0.500000
vt 0.500000 0.500000
vt 0.500000 0.500000
vt 0.500000 0.500000
vt 0.756859 0.821507
vt 0.757304 0.819964
vt 0.757989 0.823036
vt 0.765720 0.810510
vt 0.765790 0.812646
vt 0.764449 0.814080
vt 0.750206 0.813443
vt 0.751328 0.814088
vt 0.749177 0.815211
vt 0.752330 0.814126
vt 0.749388 0.817833
vt 0.757403 0.818558
vt 0.761946 0.809588
vt 0.762237 0.815155
vt 0.750148 0.809722
vt 0.749335 0.809531
vt 0.749137 0.807622
vt 0.757538 0.804344
vt 0.761894 0.804802
vt 0.761699 0.807685
vt 0.752856 0.812668
vt 0.754584 0.818334
vt 0.752290 0.809104
vt 0.751274 0.809128
vt 0.749364 0.804758
vt 0.755394 0.817645
vt 0.754002 0.799034
vt 0.754971 0.800596
vt 0.754584 0.802253
vt 0.756897 0.822657
vt 0.756595 0.817739
vt 0.758009 0.798509
vt 0.759683 0.798881
vt 0.757423 0.802585
vt 0.762500 0.800000
vt 0.763412 0.813406
vt 0.764028 0.809091
vt 0.756711 0.805098
vt 0.756941 0.800499
vt 0.756941 0.798936
vt 0.752842 0.810566
vt 0.755460 0.804865
vt 0.754182 0.823075
vt 0.750000 0.822222
vt 0.754682 0.819750
vt 0.762238 0.817795
vt 0.762500 0.822222
vt 0.762826 0.809738
vt 0.762588 0.813453
vt 0.765342 0.814127
vt 0.765113 0.809036
vt 0.749388 0.813512
vt 0.754575 0.803834
vt 0.750000 0.800000
vt 0.754958 0.799397
vt 0.755145 0.821393
vt 0.755165 0.822650
vn 0.0000 -1.0000 0.0000
vn 0.2364 0.0000 -0.9717
vn -0.1914 0.0000 -0.9815
vn -0.9983 0.0000 -0.0584
vn 0.9996 0.0000 0.0284
vn -0.1139 0.0000 -0.9935
vn 0.1009 0.0000 -0.9949
vn -0.8898 0.0000 0.4564
vn 0.8940 0.0000 0.4480
vn -0.9706 0.0000 -0.2407
vn 0.9945 0.0000 0.1045
vn -0.9923 0.0000 0.1241
vn 0.9925 0.0000 0.1220
vn -0.4950 0.0000 -0.8689
vn 0.4311 0.0000 -0.9023
vn -0.9899 0.0000 -0.1419
vn 1.0000 0.0000 0.0006
vn -0.0440 0.0000 -0.9990
vn -0.9764 0.0000 0.2159
vn 0.0212 0.0000 0.9998
vn 0.9390 0.0000 -0.3439
vn -0.0299 0.0000 -0.9996
vn 0.8806 0.0000 -0.4739
vn -0.8413 0.0000 0.5406
vn -0.0473 0.0000 0.9989
vn 0.3079 0.0000 0.9514
vn -0.3431 0.0000 -0.9393
vn 0.0321 0.0000 -0.9995
vn -0.9999 0.0000 -0.0124
vn 0.9983 0.0000 0.0585
vn -0.8302 0.0000 -0.5575
vn 0.8069 0.0000 0.5907
vn 0.0954 0.0000 0.9954
vn -0.2896 0.0000 0.9571
vn -0.0285 0.0000 0.9996
vn -0.1312 0.0000 -0.9914
vn 0.2845 0.0000 -0.9587
vn 0.9743 0.0000 0.2251
vn -0.9833 0.0000 -0.1818
vn 0.0132 0.0000 -0.9999
vn 0.9928 0.0000 -0.1199
vn -0.9902 0.0000 0.1395
vn 0.1041 0.0000 0.9946
vn -0.4567 0.0000 0.8896
vn 0.5478 0.0000 0.8366
vn -0.9933 0.0000 -0.1154
vn 0.9999 0.0000 -0.0107
vn -0.9251 0.0000 -0.3798
vn 0.9234 0.0000 -0.3838
vn 0.9998 0.0000 0.0200
vn 0.9758 0.0000 -0.2188
vn -0.9729 0.0000 0.2314
vn -1.0000 0.0000 -0.0002
vn 0.2180 0.0000 0.9759
vn -0.1345 0.0000 0.9909
vn 0.2089 0.0000 0.9779
vn -0.2196 0.0000 0.9756
vn 0.1240 0.0000 0.9923
vn 0.0000 1.0000 0.0000
usemtl BackMat.001
s off
f 194/1/1 193/2/1 200/3/1
f 226/4/1 218/5/1 221/6/1
f 223/7/1 210/8/1 215/9/1
f 215/9/1 202/10/1 214/11/1
f 204/12/1 211/13/1 230/14/1
f 235/15/1 238/16/1 233/17/1
f 243/18/1 237/19/1 239/20/1
f 214/11/1 206/21/1 222/22/1
f 227/23/1 240/24/1 236/25/1
f 222/22/1 206/21/1 209/26/1
f 202/10/1 206/21/1 214/11/1
f 259/27/1 247/28/1 249/29/1
f 191/30/1 193/2/1 194/1/1
f 222/22/1 209/26/1 208/31/1
f 260/32/1 246/33/1 258/34/1
f 258/34/1 239/20/1 252/35/1
f 243/18/1 258/34/1 246/33/1
f 224/36/1 218/5/1 232/37/1
f 241/38/1 230/14/1 237/19/1
f 241/38/1 237/19/1 243/18/1
f 248/39/1 260/32/1 256/40/1
f 222/22/1 208/31/1 225/41/1
f 225/41/1 241/38/1 242/42/1
f 188/43/1 201/44/1 196/45/1
f 203/46/1 193/2/1 198/47/1
f 204/12/1 203/46/1 211/13/1
f 196/45/1 206/21/1 202/10/1
f 225/41/1 208/31/1 241/38/1
f 208/31/1 204/12/1 230/14/1
f 229/48/1 224/36/1 232/37/1
f 258/34/1 243/18/1 239/20/1
f 230/14/1 211/13/1 216/49/1
f 221/6/1 218/5/1 219/50/1
f 216/49/1 224/36/1 229/48/1
f 200/3/1 203/46/1 204/12/1
f 232/37/1 226/4/1 228/51/1
f 212/52/1 210/8/1 223/7/1
f 226/4/1 232/37/1 218/5/1
f 236/25/1 238/16/1 235/15/1
f 225/41/1 242/42/1 227/23/1
f 240/24/1 227/23/1 245/53/1
f 254/54/1 245/53/1 247/28/1
f 227/23/1 242/42/1 245/53/1
f 259/27/1 249/29/1 250/55/1
f 238/16/1 236/25/1 240/24/1
f 254/54/1 247/28/1 259/27/1
f 246/33/1 260/32/1 248/39/1
f 203/46/1 200/3/1 193/2/1
f 201/44/1 188/43/1 195/56/1
f 230/14/1 216/49/1 229/48/1
f 206/21/1 196/45/1 201/44/1
f 240/24/1 245/53/1 254/54/1
f 189/57/1 195/56/1 188/43/1
f 241/38/1 208/31/1 230/14/1
f 210/8/1 202/10/1 215/9/1
f 16/58/2 117/59/2 190/60/2 73/61/2
f 119/62/3 27/63/3 84/64/3 192/65/3
f 25/66/4 26/67/4 83/68/4 82/69/4
f 17/70/5 18/71/5 75/72/5 74/73/5
f 124/74/6 16/58/6 73/61/6 197/75/6
f 27/63/7 126/76/7 199/77/7 84/64/7
f 24/78/8 25/66/8 82/69/8 81/79/8
f 18/71/9 19/80/9 76/81/9 75/72/9
f 14/82/10 15/83/10 72/84/10 71/85/10
f 28/86/11 29/87/11 86/88/11 85/89/11
f 132/90/12 24/78/12 81/79/12 205/91/12
f 19/80/13 134/92/13 207/93/13 76/81/13
f 22/94/14 23/95/14 80/96/14 79/97/14
f 20/98/15 21/99/15 78/100/15 77/101/15
f 13/102/16 14/82/16 71/85/16 70/103/16
f 29/87/17 30/104/17 87/105/17 86/88/17
f 21/99/18 22/94/18 79/97/18 78/100/18
f 140/106/19 13/102/19 70/103/19 213/107/19
f 9/108/20 10/109/20 67/110/20 66/111/20
f 30/104/21 144/112/21 217/113/21 87/105/21
f 33/114/22 147/115/22 220/116/22 90/117/22
f 34/118/23 35/119/23 92/120/23 91/121/23
f 8/122/24 9/108/24 66/111/24 65/123/24
f 11/124/25 12/125/25 69/126/25 68/127/25
f 10/109/26 11/124/26 68/127/26 67/110/26
f 32/128/27 33/114/27 90/117/27 89/129/27
f 31/130/28 32/128/28 89/129/28 88/131/28
f 7/132/29 8/122/29 65/123/29 64/133/29
f 35/119/30 36/134/30 93/135/30 92/120/30
f 6/136/31 7/132/31 64/133/31 63/137/31
f 36/134/32 37/138/32 94/139/32 93/135/32
f 39/140/33 158/141/33 231/142/33 96/143/33
f 38/144/34 39/140/34 96/143/34 95/145/34
f 37/138/35 38/144/35 95/145/35 94/139/35
f 161/146/36 4/147/36 61/148/36 234/149/36
f 4/147/37 5/150/37 62/151/37 61/148/37
f 40/152/38 41/153/38 98/154/38 97/155/38
f 2/156/39 3/157/39 60/158/39 59/159/39
f 5/150/40 6/136/40 63/137/40 62/151/40
f 41/153/41 42/160/41 99/161/41 98/154/41
f 1/162/42 2/156/42 59/159/42 58/163/42
f 50/164/43 51/165/43 108/166/43 107/167/43
f 171/168/44 50/164/44 107/167/44 244/169/44
f 51/165/45 52/170/45 109/171/45 108/166/45
f 48/172/46 49/173/46 106/174/46 105/175/46
f 52/170/47 53/176/47 110/177/47 109/171/47
f 47/178/48 48/172/48 105/175/48 104/179/48
f 53/176/49 54/180/49 111/181/49 110/177/49
f 54/180/50 178/182/50 251/183/50 111/181/50
f 42/160/51 180/184/51 253/185/51 99/161/51
f 182/186/52 1/162/52 58/163/52 255/187/52
f 184/188/53 47/178/53 104/179/53 257/189/53
f 43/190/54 44/191/54 101/192/54 100/193/54
f 56/194/55 57/195/55 114/196/55 113/197/55
f 55/198/56 56/194/56 113/197/56 112/199/56
f 45/200/57 46/201/57 103/202/57 102/203/57
f 44/191/58 45/200/58 102/203/58 101/192/58
usemtl FrontMat.001
f 121/204/59 127/205/59 120/206/59
f 153/207/59 148/208/59 145/209/59
f 150/210/59 142/211/59 137/212/59
f 142/211/59 141/213/59 129/214/59
f 131/215/59 157/216/59 138/217/59
f 162/218/59 160/219/59 165/220/59
f 170/221/59 166/222/59 164/223/59
f 141/213/59 149/224/59 133/225/59
f 154/226/59 163/227/59 167/228/59
f 149/224/59 136/229/59 133/225/59
f 129/214/59 141/213/59 133/225/59
f 186/230/59 176/231/59 174/232/59
f 118/233/59 121/204/59 120/206/59
f 149/224/59 135/234/59 136/229/59
f 187/235/59 185/236/59 173/237/59
f 185/236/59 179/238/59 166/222/59
f 170/221/59 173/237/59 185/236/59
f 151/239/59 159/240/59 145/209/59
f 168/241/59 164/223/59 157/216/59
f 168/241/59 170/221/59 164/223/59
f 175/242/59 183/243/59 187/235/59
f 149/224/59 152/244/59 135/234/59
f 152/244/59 169/245/59 168/241/59
f 115/246/59 123/247/59 128/248/59
f 130/249/59 125/250/59 120/206/59
f 131/215/59 138/217/59 130/249/59
f 123/247/59 129/214/59 133/225/59
f 152/244/59 168/241/59 135/234/59
f 135/234/59 157/216/59 131/215/59
f 156/251/59 159/240/59 151/239/59
f 185/236/59 166/222/59 170/221/59
f 157/216/59 143/252/59 138/217/59
f 148/208/59 146/253/59 145/209/59
f 143/252/59 156/251/59 151/239/59
f 127/205/59 131/215/59 130/249/59
f 159/240/59 155/254/59 153/207/59
f 139/255/59 150/210/59 137/212/59
f 153/207/59 145/209/59 159/240/59
f 163/227/59 162/218/59 165/220/59
f 152/244/59 154/226/59 169/245/59
f 167/228/59 172/256/59 154/226/59
f 181/257/59 174/232/59 172/256/59
f 154/226/59 172/256/59 169/245/59
f 186/230/59 177/258/59 176/231/59
f 165/220/59 167/228/59 163/227/59
f 181/257/59 186/230/59 174/232/59
f 173/237/59 175/242/59 187/235/59
f 130/249/59 120/206/59 127/205/59
f 128/248/59 122/259/59 115/246/59
f 157/216/59 156/251/59 143/252/59
f 133/225/59 128/248/59 123/247/59
f 167/228/59 181/257/59 172/256/59
f 116/260/59 115/246/59 122/259/59
f 168/241/59 157/216/59 135/234/59
f 137/212/59 142/211/59 129/214/59
