# Blender v2.83.1 OBJ File: 'jigsaw-80x45-3-step2.blend'
# www.blender.org
mtllib piece.15.mtl
o path30
v 0.315763 0.037500 0.428152
v 0.189302 0.037500 0.416911
v 0.106726 0.037500 0.442343
v 0.102085 0.037500 0.518907
v 0.132032 0.037500 0.618543
v 0.133878 0.037500 0.702564
v 0.065282 0.037500 0.739592
v -0.034677 0.037500 0.727490
v -0.106562 0.037500 0.671433
v -0.110618 0.037500 0.581272
v -0.085830 0.037500 0.485571
v -0.090860 0.037500 0.417576
v -0.166497 0.037500 0.400705
v -0.281991 0.037500 0.419094
v -0.474822 0.037500 0.471232
v -0.436061 0.037500 0.258058
v -0.426818 0.037500 0.130029
v -0.452229 0.037500 0.045389
v -0.525761 0.037500 0.038435
v -0.621038 0.037500 0.066980
v -0.701726 0.037500 0.069711
v -0.738513 0.037500 0.005128
v -0.730194 0.037500 -0.089029
v -0.682579 0.037500 -0.155212
v -0.605060 0.037500 -0.155267
v -0.521339 0.037500 -0.128625
v -0.458705 0.037500 -0.134112
v -0.436655 0.037500 -0.212410
v -0.443563 0.037500 -0.331612
v -0.474822 0.037500 -0.530466
v 0.527087 0.037500 -0.530466
v 0.548968 0.037500 -0.225158
v 0.529993 0.037500 -0.151950
v 0.481209 0.037500 -0.150411
v 0.416287 0.037500 -0.179586
v 0.354366 0.037500 -0.180554
v 0.313003 0.037500 -0.114064
v 0.303426 0.037500 -0.019546
v 0.335281 0.037500 0.043899
v 0.410519 0.037500 0.037798
v 0.500326 0.037500 0.006189
v 0.568205 0.037500 0.013735
v 0.587767 0.037500 0.104771
v 0.573143 0.037500 0.242308
v 0.527087 0.037500 0.471232
v 0.315763 -0.037500 0.428152
v 0.189302 -0.037500 0.416911
v 0.106726 -0.037500 0.442343
v 0.102085 -0.037500 0.518907
v 0.132032 -0.037500 0.618543
v 0.133878 -0.037500 0.702564
v 0.065282 -0.037500 0.739592
v -0.034677 -0.037498 0.727490
v -0.106562 -0.037500 0.671433
v -0.110618 -0.037500 0.581272
v -0.085830 -0.037498 0.485571
v -0.090860 -0.037500 0.417576
v -0.166497 -0.037500 0.400705
v -0.281991 -0.037500 0.419094
v -0.474822 -0.037500 0.471232
v -0.436061 -0.037500 0.258058
v -0.426818 -0.037498 0.130029
v -0.452229 -0.037500 0.045389
v -0.525761 -0.037500 0.038435
v -0.621038 -0.037500 0.066980
v -0.701726 -0.037500 0.069711
v -0.738513 -0.037500 0.005128
v -0.730194 -0.037500 -0.089029
v -0.682579 -0.037500 -0.155212
v -0.605060 -0.037500 -0.155267
v -0.521339 -0.037498 -0.128625
v -0.458705 -0.037500 -0.134112
v -0.436655 -0.037500 -0.212410
v -0.443563 -0.037500 -0.331612
v -0.474822 -0.037500 -0.530466
v 0.527087 -0.037500 -0.530466
v 0.548968 -0.037500 -0.225158
v 0.529993 -0.037500 -0.151950
v 0.481209 -0.037500 -0.150411
v 0.416287 -0.037500 -0.179586
v 0.354366 -0.037500 -0.180554
v 0.313003 -0.037498 -0.114064
v 0.303426 -0.037500 -0.019546
v 0.335281 -0.037498 0.043899
v 0.410519 -0.037500 0.037798
v 0.500326 -0.037500 0.006189
v 0.568205 -0.037500 0.013735
v 0.587767 -0.037498 0.104771
v 0.573143 -0.037500 0.242308
v 0.527087 -0.037500 0.471232
v -0.474822 0.037500 -0.530466
v -0.474822 0.037500 -0.530466
v 0.527087 0.037500 -0.530466
v 0.527087 0.037500 -0.530466
v -0.443563 0.037500 -0.331612
v 0.548968 0.037500 -0.225158
v -0.436655 0.037500 -0.212410
v 0.529993 0.037500 -0.151950
v 0.529993 0.037500 -0.151950
v -0.458705 0.037500 -0.134112
v -0.458705 0.037500 -0.134112
v 0.416287 0.037500 -0.179586
v 0.354366 0.037500 -0.180554
v 0.313003 0.037500 -0.114064
v 0.481209 0.037500 -0.150411
v -0.682579 0.037500 -0.155212
v -0.605060 0.037500 -0.155267
v -0.521339 0.037500 -0.128625
v -0.730194 0.037500 -0.089029
v 0.303426 0.037500 -0.019546
v -0.738513 0.037500 0.005128
v 0.335281 0.037500 0.043899
v 0.335281 0.037500 0.043899
v -0.701726 0.037500 0.069711
v -0.701726 0.037500 0.069711
v 0.410519 0.037500 0.037798
v 0.500326 0.037500 0.006189
v 0.568205 0.037500 0.013735
v 0.568205 0.037500 0.013735
v 0.587767 0.037500 0.104771
v -0.621038 0.037500 0.066980
v -0.525761 0.037500 0.038435
v -0.452229 0.037500 0.045389
v -0.452229 0.037500 0.045389
v -0.426818 0.037500 0.130029
v 0.573143 0.037500 0.242308
v -0.436061 0.037500 0.258058
v -0.474822 0.037500 0.471232
v -0.474822 0.037500 0.471232
v -0.281991 0.037500 0.419094
v -0.166497 0.037500 0.400705
v -0.090860 0.037500 0.417576
v -0.090860 0.037500 0.417576
v 0.189302 0.037500 0.416911
v 0.106726 0.037500 0.442343
v 0.106726 0.037500 0.442343
v 0.315763 0.037500 0.428152
v -0.085830 0.037500 0.485571
v 0.102085 0.037500 0.518907
v 0.527087 0.037500 0.471232
v 0.527087 0.037500 0.471232
v -0.110618 0.037500 0.581272
v 0.132032 0.037500 0.618543
v -0.106562 0.037500 0.671433
v 0.133878 0.037500 0.702564
v 0.133878 0.037500 0.702564
v -0.034677 0.037500 0.727490
v 0.065282 0.037500 0.739592
v -0.474822 -0.037500 -0.530466
v -0.474822 -0.037500 -0.530466
v 0.527087 -0.037500 -0.530466
v 0.527087 -0.037500 -0.530466
v -0.443563 -0.037500 -0.331612
v 0.548968 -0.037500 -0.225158
v -0.436655 -0.037500 -0.212410
v 0.529993 -0.037500 -0.151950
v 0.529993 -0.037500 -0.151950
v -0.458705 -0.037500 -0.134112
v -0.458705 -0.037500 -0.134112
v 0.416287 -0.037500 -0.179586
v 0.354366 -0.037500 -0.180554
v 0.313003 -0.037498 -0.114064
v 0.481209 -0.037500 -0.150411
v -0.682579 -0.037500 -0.155212
v -0.605060 -0.037500 -0.155267
v -0.521339 -0.037498 -0.128625
v -0.730194 -0.037500 -0.089029
v 0.303426 -0.037500 -0.019546
v -0.738513 -0.037500 0.005128
v 0.335281 -0.037498 0.043899
v 0.335281 -0.037498 0.043899
v -0.701726 -0.037500 0.069711
v -0.701726 -0.037500 0.069711
v 0.410519 -0.037500 0.037798
v 0.500326 -0.037500 0.006189
v 0.568205 -0.037500 0.013735
v 0.568205 -0.037500 0.013735
v 0.587767 -0.037498 0.104771
v -0.621038 -0.037500 0.066980
v -0.525761 -0.037500 0.038435
v -0.452229 -0.037500 0.045389
v -0.452229 -0.037500 0.045389
v -0.426818 -0.037498 0.130029
v 0.573143 -0.037500 0.242308
v -0.436061 -0.037500 0.258058
v -0.474822 -0.037500 0.471232
v -0.474822 -0.037500 0.471232
v -0.281991 -0.037500 0.419094
v -0.166497 -0.037500 0.400705
v -0.090860 -0.037500 0.417576
v -0.090860 -0.037500 0.417576
v 0.189302 -0.037500 0.416911
v 0.106726 -0.037500 0.442343
v 0.106726 -0.037500 0.442343
v 0.315763 -0.037500 0.428152
v -0.085830 -0.037498 0.485571
v 0.102085 -0.037500 0.518907
v 0.527087 -0.037500 0.471232
v 0.527087 -0.037500 0.471232
v -0.110618 -0.037500 0.581272
v 0.132032 -0.037500 0.618543
v -0.106562 -0.037500 0.671433
v 0.133878 -0.037500 0.702564
v 0.133878 -0.037500 0.702564
v -0.034677 -0.037498 0.727490
v 0.065282 -0.037500 0.739592
vt 0.500000 0.500000
vt 0.500000 0.500000
vt 0.500000 0.500000
vt 0.500000 0.500000
vt 0.500000 0.500000
vt 0.500000 0.500000
vt 0.500000 0.500000
vt 0.500000 0.500000
vt 0.500000 0.500000
vt 0.500000 0.500000
vt 0.500000 0.500000
vt 0.500000 0.500000
vt 0.500000 0.500000
vt 0.500000 0.500000
vt 0.500000 0.500000
vt 0.500000 0.500000
vt 0.500000 0.500000
vt 0.500000 0.500000
vt 0.500000 0.500000
vt 0.500000 0.500000
vt 0.500000 0.500000
vt 0.500000 0.500000
vt 0.500000 0.500000
vt 0.500000 0.500000
vt 0.500000 0.500000
vt 0.500000 0.500000
vt 0.500000 0.500000
vt 0.500000 0.500000
vt 0.500000 0.500000
vt 0.500000 0.500000
vt 0.500000 0.500000
vt 0.500000 0.500000
vt 0.500000 0.500000
vt 0.500000 0.500000
vt 0.500000 0.500000
vt 0.500000 0.500000
vt 0.500000 0.500000
vt 0.500000 0.500000
vt 0.500000 0.500000
vt 0.500000 0.500000
vt 0.500000 0.500000
vt 0.500000 0.500000
vt 0.500000 0.500000
vt 0.500000 0.500000
vt 0.500000 0.500000
vt 0.500000 0.500000
vt 0.500000 0.500000
vt 0.500000 0.500000
vt 0.500000 0.500000
vt 0.500000 0.500000
vt 0.500000 0.500000
vt 0.500000 0.500000
vt 0.500000 0.500000
vt 0.500000 0.500000
vt 0.500000 0.500000
vt 0.500000 0.500000
vt 0.500000 0.500000
vt 0.500000 0.500000
vt 0.500000 0.500000
vt 0.500000 0.500000
vt 0.500000 0.500000
vt 0.500000 0.500000
vt 0.500000 0.500000
vt 0.500000 0.500000
vt 0.500000 0.500000
vt 0.500000 0.500000
vt 0.500000 0.500000
vt 0.500000 0.500000
vt 0.500000 0.500000
vt 0.500000 0.500000
vt 0.500000 0.500000
vt 0.500000 0.500000
vt 0.500000 0.500000
vt 0.500000 0.500000
vt 0.500000 0.500000
vt 0.500000 0.500000
vt 0.500000 0.500000
vt 0.500000 0.500000
vt 0.500000 0.500000
vt 0.500000 0.500000
vt 0.500000 0.500000
vt 0.500000 0.500000
vt 0.500000 0.500000
vt 0.500000 0.500000
vt 0.500000 0.500000
vt 0.500000 0.500000
vt 0.500000 0.500000
vt 0.500000 0.500000
vt 0.500000 0.500000
vt 0.500000 0.500000
vt 0.500000 0.500000
vt 0.500000 0.500000
vt 0.500000 0.500000
vt 0.500000 0.500000
vt 0.500000 0.500000
vt 0.500000 0.500000
vt 0.500000 0.500000
vt 0.500000 0.500000
vt 0.500000 0.500000
vt 0.500000 0.500000
vt 0.500000 0.500000
vt 0.500000 0.500000
vt 0.500000 0.500000
vt 0.500000 0.500000
vt 0.500000 0.500000
vt 0.500000 0.500000
vt 0.500000 0.500000
vt 0.500000 0.500000
vt 0.500000 0.500000
vt 0.500000 0.500000
vt 0.500000 0.500000
vt 0.500000 0.500000
vt 0.500000 0.500000
vt 0.500000 0.500000
vt 0.500000 0.500000
vt 0.500000 0.500000
vt 0.500000 0.500000
vt 0.500000 0.500000
vt 0.500000 0.500000
vt 0.500000 0.500000
vt 0.500000 0.500000
vt 0.500000 0.500000
vt 0.500000 0.500000
vt 0.500000 0.500000
vt 0.500000 0.500000
vt 0.500000 0.500000
vt 0.500000 0.500000
vt 0.500000 0.500000
vt 0.500000 0.500000
vt 0.500000 0.500000
vt 0.500000 0.500000
vt 0.500000 0.500000
vt 0.500000 0.500000
vt 0.500000 0.500000
vt 0.500000 0.500000
vt 0.500000 0.500000
vt 0.500000 0.500000
vt 0.500000 0.500000
vt 0.500000 0.500000
vt 0.500000 0.500000
vt 0.500000 0.500000
vt 0.500000 0.500000
vt 0.500000 0.500000
vt 0.500000 0.500000
vt 0.500000 0.500000
vt 0.500000 0.500000
vt 0.500000 0.500000
vt 0.500000 0.500000
vt 0.500000 0.500000
vt 0.500000 0.500000
vt 0.500000 0.500000
vt 0.500000 0.500000
vt 0.500000 0.500000
vt 0.500000 0.500000
vt 0.500000 0.500000
vt 0.500000 0.500000
vt 0.500000 0.500000
vt 0.500000 0.500000
vt 0.500000 0.500000
vt 0.500000 0.500000
vt 0.500000 0.500000
vt 0.175201 0.991207
vt 0.184710 0.988665
vt 0.175476 0.992944
vt 0.182198 0.976720
vt 0.182255 0.978419
vt 0.179853 0.977460
vt 0.184829 0.990762
vt 0.188075 0.982856
vt 0.188257 0.985908
vt 0.186046 0.987393
vt 0.182571 0.974510
vt 0.179544 0.975337
vt 0.179790 0.978968
vt 0.175484 0.982507
vt 0.178847 0.979342
vt 0.175599 0.985347
vt 0.185107 0.987258
vt 0.174364 0.987379
vt 0.175282 0.987225
vt 0.184863 0.978733
vt 0.187500 0.977778
vt 0.174420 0.991085
vt 0.186118 0.992216
vt 0.187773 0.993227
vt 0.187500 1.000000
vt 0.183286 0.978983
vt 0.179594 0.973336
vt 0.180491 0.972093
vt 0.177406 0.978935
vt 0.187166 0.988095
vt 0.173375 0.991676
vt 0.171814 0.990207
vt 0.173176 0.986746
vt 0.171710 0.988118
vt 0.175000 1.000000
vt 0.175390 0.995589
vt 0.185345 0.992237
vt 0.172169 0.986685
vt 0.172408 0.991675
vt 0.181738 0.971824
vt 0.188013 0.987927
vt 0.186928 0.991569
vt 0.175000 0.977778
vt 0.187536 0.991603
vt 0.182594 0.972646
vn 0.0000 -1.0000 -0.0000
vn 0.0000 0.0000 -1.0000
vn -0.9879 0.0000 0.1553
vn 0.9974 0.0000 -0.0715
vn -0.9983 0.0000 0.0579
vn 0.9680 0.0000 0.2509
vn -0.9626 0.0000 -0.2711
vn -0.0156 0.0000 0.9999
vn 0.8491 0.0000 0.5282
vn -0.4099 0.0000 0.9121
vn 0.0315 0.0000 0.9995
vn -0.0007 0.0000 -1.0000
vn 0.3032 0.0000 -0.9529
vn -0.8117 0.0000 -0.5840
vn -0.0873 0.0000 -0.9962
vn 0.9949 0.0000 0.1008
vn -0.9961 0.0000 -0.0880
vn 0.8937 0.0000 -0.4487
vn -0.8689 0.0000 0.4949
vn -0.3320 0.0000 -0.9433
vn 0.1105 0.0000 -0.9939
vn 0.9777 0.0000 -0.2101
vn -0.0808 0.0000 -0.9967
vn 0.0338 0.0000 0.9994
vn 0.2870 0.0000 0.9579
vn -0.0941 0.0000 0.9956
vn -0.9578 0.0000 0.2876
vn 0.9944 0.0000 0.1057
vn -0.9974 0.0000 -0.0720
vn -0.9839 0.0000 -0.1789
vn 0.2610 0.0000 0.9653
vn 0.1572 0.0000 0.9876
vn -0.2177 0.0000 0.9760
vn 0.2943 0.0000 0.9557
vn -0.0885 0.0000 0.9961
vn -0.9973 0.0000 0.0738
vn 0.9982 0.0000 0.0605
vn -0.1997 0.0000 0.9798
vn 0.9804 0.0000 0.1972
vn -0.9681 0.0000 -0.2507
vn 0.9577 0.0000 -0.2878
vn -0.9990 0.0000 0.0449
vn 0.9998 0.0000 -0.0220
vn -0.6149 0.0000 0.7886
vn -0.1202 0.0000 0.9928
vn 0.4750 0.0000 0.8800
vn 0.0000 1.0000 0.0000
usemtl BackMat.001
s off
f 158/1/1 155/2/1 168/3/1
f 197/4/1 196/5/1 193/6/1
f 168/3/1 155/2/1 162/7/1
f 184/8/1 174/9/1 178/10/1
f 201/11/1 200/12/1 197/4/1
f 190/13/1 193/6/1 196/5/1
f 185/14/1 183/15/1 189/16/1
f 193/6/1 168/3/1 170/17/1
f 184/8/1 170/17/1 174/9/1
f 180/18/1 158/1/1 181/19/1
f 195/20/1 184/8/1 198/21/1
f 158/1/1 180/18/1 166/22/1
f 160/23/1 151/24/1 154/25/1
f 192/26/1 170/17/1 195/20/1
f 195/20/1 170/17/1 184/8/1
f 193/6/1 170/17/1 192/26/1
f 202/27/1 200/12/1 205/28/1
f 183/15/1 181/19/1 168/3/1
f 188/29/1 185/14/1 189/16/1
f 174/9/1 175/30/1 178/10/1
f 166/22/1 180/18/1 165/31/1
f 167/32/1 165/31/1 179/33/1
f 190/13/1 189/16/1 168/3/1
f 167/32/1 179/33/1 169/34/1
f 149/35/1 161/36/1 153/37/1
f 205/28/1 200/12/1 201/11/1
f 153/37/1 162/7/1 155/2/1
f 172/38/1 169/34/1 179/33/1
f 179/33/1 165/31/1 180/18/1
f 165/31/1 167/32/1 164/39/1
f 151/24/1 161/36/1 149/35/1
f 193/6/1 190/13/1 168/3/1
f 206/40/1 205/28/1 201/11/1
f 162/7/1 153/37/1 161/36/1
f 178/10/1 175/30/1 176/41/1
f 160/23/1 154/25/1 163/42/1
f 196/5/1 197/4/1 200/12/1
f 185/14/1 188/29/1 186/43/1
f 181/19/1 158/1/1 168/3/1
f 163/42/1 154/25/1 156/44/1
f 189/16/1 183/15/1 168/3/1
f 203/45/1 206/40/1 201/11/1
f 161/36/1 151/24/1 160/23/1
f 92/46/2 94/47/2 152/48/2 150/49/2
f 29/50/3 30/51/3 75/52/3 74/53/3
f 31/54/4 32/55/4 77/56/4 76/57/4
f 28/58/5 29/50/5 74/53/5 73/59/5
f 32/55/6 99/60/6 157/61/6 77/56/6
f 101/62/7 28/58/7 73/59/7 159/63/7
f 35/64/8 36/65/8 81/66/8 80/67/8
f 36/65/9 37/68/9 82/69/9 81/66/9
f 34/70/10 35/64/10 80/67/10 79/71/10
f 33/72/11 34/70/11 79/71/11 78/73/11
f 24/74/12 25/75/12 70/76/12 69/77/12
f 25/75/13 26/78/13 71/79/13 70/76/13
f 23/80/14 24/74/14 69/77/14 68/81/14
f 26/78/15 27/82/15 72/83/15 71/79/15
f 37/68/16 38/84/16 83/85/16 82/69/16
f 22/86/17 23/80/17 68/81/17 67/87/17
f 38/84/18 113/88/18 171/89/18 83/85/18
f 115/90/19 22/86/19 67/87/19 173/91/19
f 40/92/20 41/93/20 86/94/20 85/95/20
f 41/93/21 119/96/21 177/97/21 86/94/21
f 42/98/22 43/99/22 88/100/22 87/101/22
f 39/102/23 40/92/23 85/95/23 84/103/23
f 20/104/24 21/105/24 66/106/24 65/107/24
f 19/108/25 20/104/25 65/107/25 64/109/25
f 124/110/26 19/108/26 64/109/26 182/111/26
f 17/112/27 18/113/27 63/114/27 62/115/27
f 43/99/28 44/116/28 89/117/28 88/100/28
f 16/118/29 17/112/29 62/115/29 61/119/29
f 129/120/30 16/118/30 61/119/30 187/121/30
f 14/122/31 15/123/31 60/124/31 59/125/31
f 13/126/32 14/122/32 59/125/32 58/127/32
f 133/128/33 13/126/33 58/127/33 191/129/33
f 2/130/34 136/131/34 194/132/34 47/133/34
f 1/134/35 2/130/35 47/133/35 46/135/35
f 11/136/36 12/137/36 57/138/36 56/139/36
f 3/140/37 4/141/37 49/142/37 48/143/37
f 141/144/38 1/134/38 46/135/38 199/145/38
f 44/116/39 45/146/39 90/147/39 89/117/39
f 10/148/40 11/136/40 56/139/40 55/149/40
f 4/141/41 5/150/41 50/151/41 49/142/41
f 9/152/42 10/148/42 55/149/42 54/153/42
f 5/150/43 146/154/43 204/155/43 50/151/43
f 8/156/44 9/152/44 54/153/44 53/157/44
f 7/158/45 8/156/45 53/157/45 52/159/45
f 6/160/46 7/158/46 52/159/46 51/161/46
usemtl FrontMat.001
f 100/162/47 110/163/47 97/164/47
f 139/165/47 135/166/47 138/167/47
f 110/163/47 104/168/47 97/164/47
f 126/169/47 120/170/47 116/171/47
f 143/172/47 139/165/47 142/173/47
f 132/174/47 138/167/47 135/166/47
f 127/175/47 131/176/47 125/177/47
f 135/166/47 112/178/47 110/163/47
f 126/169/47 116/171/47 112/178/47
f 122/179/47 123/180/47 100/162/47
f 137/181/47 140/182/47 126/169/47
f 100/162/47 108/183/47 122/179/47
f 102/184/47 96/185/47 93/186/47
f 134/187/47 137/181/47 112/178/47
f 137/181/47 126/169/47 112/178/47
f 135/166/47 134/187/47 112/178/47
f 144/188/47 147/189/47 142/173/47
f 125/177/47 110/163/47 123/180/47
f 130/190/47 131/176/47 127/175/47
f 116/171/47 120/170/47 117/191/47
f 108/183/47 107/192/47 122/179/47
f 109/193/47 121/194/47 107/192/47
f 132/174/47 110/163/47 131/176/47
f 109/193/47 111/195/47 121/194/47
f 91/196/47 95/197/47 103/198/47
f 147/189/47 143/172/47 142/173/47
f 95/197/47 97/164/47 104/168/47
f 114/199/47 121/194/47 111/195/47
f 121/194/47 122/179/47 107/192/47
f 107/192/47 106/200/47 109/193/47
f 93/186/47 91/196/47 103/198/47
f 135/166/47 110/163/47 132/174/47
f 148/201/47 143/172/47 147/189/47
f 104/168/47 103/198/47 95/197/47
f 120/170/47 118/202/47 117/191/47
f 102/184/47 105/203/47 96/185/47
f 138/167/47 142/173/47 139/165/47
f 127/175/47 128/204/47 130/190/47
f 123/180/47 110/163/47 100/162/47
f 105/203/47 98/205/47 96/185/47
f 131/176/47 110/163/47 125/177/47
f 145/206/47 143/172/47 148/201/47
f 103/198/47 102/184/47 93/186/47
