# Blender v2.83.1 OBJ File: 'jigsaw-80x45-3-step2.blend'
# www.blender.org
mtllib piece.3281.mtl
o path6562
v 0.214956 0.037500 0.548935
v 0.137963 0.037500 0.529896
v 0.133305 0.037500 0.477028
v 0.160228 0.037500 0.405598
v 0.159894 0.037500 0.337143
v 0.092951 0.037500 0.290993
v -0.002009 0.037500 0.277565
v -0.066907 0.037500 0.305080
v -0.063696 0.037500 0.374832
v -0.034451 0.037500 0.460342
v -0.041279 0.037500 0.528217
v -0.126908 0.037500 0.553986
v -0.256563 0.037500 0.548920
v -0.472508 0.037500 0.518871
v -0.448244 0.037500 0.311169
v -0.447154 0.037500 0.188686
v -0.476711 0.037500 0.112793
v -0.547346 0.037500 0.117596
v -0.634227 0.037500 0.156605
v -0.703703 0.037500 0.163189
v -0.728852 0.037500 0.092651
v -0.709670 0.037500 -0.011906
v -0.652882 0.037500 -0.085434
v -0.568839 0.037500 -0.084618
v -0.482406 0.037500 -0.053078
v -0.422075 0.037500 -0.056175
v -0.407739 0.037500 -0.139275
v -0.472508 0.037500 -0.482826
v -0.121733 0.037500 -0.423592
v -0.034602 0.037500 -0.439747
v -0.027276 0.037500 -0.500431
v -0.056725 0.037500 -0.582905
v -0.060340 0.037500 -0.655407
v 0.004165 0.037500 -0.691887
v 0.097766 0.037500 -0.689144
v 0.161116 0.037500 -0.649700
v 0.155103 0.037500 -0.580166
v 0.121565 0.037500 -0.503811
v 0.122579 0.037500 -0.448029
v 0.201099 0.037500 -0.432327
v 0.529402 0.037500 -0.482826
v 0.529402 0.037500 0.518871
v 0.214956 -0.037500 0.548935
v 0.137963 -0.037500 0.529896
v 0.133305 -0.037500 0.477028
v 0.160228 -0.037500 0.405598
v 0.159894 -0.037500 0.337143
v 0.092951 -0.037500 0.290993
v -0.002009 -0.037500 0.277565
v -0.066907 -0.037500 0.305080
v -0.063696 -0.037498 0.374832
v -0.034451 -0.037500 0.460342
v -0.041279 -0.037500 0.528217
v -0.126908 -0.037500 0.553986
v -0.256563 -0.037500 0.548920
v -0.472508 -0.037500 0.518871
v -0.448244 -0.037500 0.311169
v -0.447154 -0.037500 0.188686
v -0.476711 -0.037500 0.112793
v -0.547346 -0.037500 0.117596
v -0.634227 -0.037500 0.156605
v -0.703703 -0.037500 0.163189
v -0.728852 -0.037500 0.092651
v -0.709670 -0.037500 -0.011906
v -0.652882 -0.037500 -0.085434
v -0.568839 -0.037500 -0.084618
v -0.482406 -0.037500 -0.053078
v -0.422075 -0.037500 -0.056175
v -0.407739 -0.037500 -0.139275
v -0.472508 -0.037500 -0.482826
v -0.121733 -0.037500 -0.423592
v -0.034602 -0.037500 -0.439747
v -0.027276 -0.037498 -0.500431
v -0.056725 -0.037500 -0.582905
v -0.060340 -0.037500 -0.655407
v 0.004165 -0.037500 -0.691887
v 0.097766 -0.037500 -0.689144
v 0.161116 -0.037500 -0.649700
v 0.155103 -0.037500 -0.580166
v 0.121565 -0.037500 -0.503811
v 0.122579 -0.037500 -0.448029
v 0.201099 -0.037500 -0.432327
v 0.529402 -0.037500 -0.482826
v 0.529402 -0.037500 0.518871
v -0.041279 0.037500 0.528217
v -0.041279 0.037500 0.528217
v -0.126908 0.037500 0.553986
v -0.256563 0.037500 0.548920
v 0.214956 0.037500 0.548935
v 0.137963 0.037500 0.529896
v 0.137963 0.037500 0.529896
v 0.133305 0.037500 0.477028
v -0.034451 0.037500 0.460342
v -0.472508 0.037500 0.518871
v -0.472508 0.037500 0.518871
v 0.529402 0.037500 0.518871
v 0.529402 0.037500 0.518871
v 0.529402 0.037500 -0.482826
v 0.529402 0.037500 -0.482826
v 0.160228 0.037500 0.405598
v -0.063696 0.037500 0.374832
v -0.448244 0.037500 0.311169
v 0.159894 0.037500 0.337143
v -0.066907 0.037500 0.305080
v -0.066907 0.037500 0.305080
v 0.092951 0.037500 0.290993
v -0.447154 0.037500 0.188686
v -0.002009 0.037500 0.277565
v -0.476711 0.037500 0.112793
v -0.476711 0.037500 0.112793
v -0.634227 0.037500 0.156605
v -0.703703 0.037500 0.163189
v -0.703703 0.037500 0.163189
v -0.728852 0.037500 0.092651
v -0.547346 0.037500 0.117596
v -0.709670 0.037500 -0.011906
v -0.482406 0.037500 -0.053078
v -0.422075 0.037500 -0.056175
v -0.422075 0.037500 -0.056175
v -0.652882 0.037500 -0.085434
v -0.568839 0.037500 -0.084618
v -0.407739 0.037500 -0.139275
v 0.201099 0.037500 -0.432327
v -0.121733 0.037500 -0.423592
v -0.034602 0.037500 -0.439747
v -0.034602 0.037500 -0.439747
v 0.122579 0.037500 -0.448029
v 0.122579 0.037500 -0.448029
v -0.027276 0.037500 -0.500431
v 0.121565 0.037500 -0.503811
v -0.472508 0.037500 -0.482826
v -0.472508 0.037500 -0.482826
v -0.056725 0.037500 -0.582905
v 0.155103 0.037500 -0.580166
v 0.161116 0.037500 -0.649700
v 0.161116 0.037500 -0.649700
v -0.060340 0.037500 -0.655407
v -0.060340 0.037500 -0.655407
v 0.097766 0.037500 -0.689144
v 0.004165 0.037500 -0.691887
v -0.041279 -0.037500 0.528217
v -0.041279 -0.037500 0.528217
v -0.126908 -0.037500 0.553986
v -0.256563 -0.037500 0.548920
v 0.214956 -0.037500 0.548935
v 0.137963 -0.037500 0.529896
v 0.137963 -0.037500 0.529896
v 0.133305 -0.037500 0.477028
v -0.034451 -0.037500 0.460342
v -0.472508 -0.037500 0.518871
v -0.472508 -0.037500 0.518871
v 0.529402 -0.037500 0.518871
v 0.529402 -0.037500 0.518871
v 0.529402 -0.037500 -0.482826
v 0.529402 -0.037500 -0.482826
v 0.160228 -0.037500 0.405598
v -0.063696 -0.037498 0.374832
v -0.448244 -0.037500 0.311169
v 0.159894 -0.037500 0.337143
v -0.066907 -0.037500 0.305080
v -0.066907 -0.037500 0.305080
v 0.092951 -0.037500 0.290993
v -0.447154 -0.037500 0.188686
v -0.002009 -0.037500 0.277565
v -0.476711 -0.037500 0.112793
v -0.476711 -0.037500 0.112793
v -0.634227 -0.037500 0.156605
v -0.703703 -0.037500 0.163189
v -0.703703 -0.037500 0.163189
v -0.728852 -0.037500 0.092651
v -0.547346 -0.037500 0.117596
v -0.709670 -0.037500 -0.011906
v -0.482406 -0.037500 -0.053078
v -0.422075 -0.037500 -0.056175
v -0.422075 -0.037500 -0.056175
v -0.652882 -0.037500 -0.085434
v -0.568839 -0.037500 -0.084618
v -0.407739 -0.037500 -0.139275
v 0.201099 -0.037500 -0.432327
v -0.121733 -0.037500 -0.423592
v -0.034602 -0.037500 -0.439747
v -0.034602 -0.037500 -0.439747
v 0.122579 -0.037500 -0.448029
v 0.122579 -0.037500 -0.448029
v -0.027276 -0.037498 -0.500431
v 0.121565 -0.037500 -0.503811
v -0.472508 -0.037500 -0.482826
v -0.472508 -0.037500 -0.482826
v -0.056725 -0.037500 -0.582905
v 0.155103 -0.037500 -0.580166
v 0.161116 -0.037500 -0.649700
v 0.161116 -0.037500 -0.649700
v -0.060340 -0.037500 -0.655407
v -0.060340 -0.037500 -0.655407
v 0.097766 -0.037500 -0.689144
v 0.004165 -0.037500 -0.691887
vt 0.500000 0.500000
vt 0.500000 0.500000
vt 0.500000 0.500000
vt 0.500000 0.500000
vt 0.500000 0.500000
vt 0.500000 0.500000
vt 0.500000 0.500000
vt 0.500000 0.500000
vt 0.500000 0.500000
vt 0.500000 0.500000
vt 0.500000 0.500000
vt 0.500000 0.500000
vt 0.500000 0.500000
vt 0.500000 0.500000
vt 0.500000 0.500000
vt 0.500000 0.500000
vt 0.500000 0.500000
vt 0.500000 0.500000
vt 0.500000 0.500000
vt 0.500000 0.500000
vt 0.500000 0.500000
vt 0.500000 0.500000
vt 0.500000 0.500000
vt 0.500000 0.500000
vt 0.500000 0.500000
vt 0.500000 0.500000
vt 0.500000 0.500000
vt 0.500000 0.500000
vt 0.500000 0.500000
vt 0.500000 0.500000
vt 0.500000 0.500000
vt 0.500000 0.500000
vt 0.500000 0.500000
vt 0.500000 0.500000
vt 0.500000 0.500000
vt 0.500000 0.500000
vt 0.500000 0.500000
vt 0.500000 0.500000
vt 0.500000 0.500000
vt 0.500000 0.500000
vt 0.500000 0.500000
vt 0.500000 0.500000
vt 0.500000 0.500000
vt 0.500000 0.500000
vt 0.500000 0.500000
vt 0.500000 0.500000
vt 0.500000 0.500000
vt 0.500000 0.500000
vt 0.500000 0.500000
vt 0.500000 0.500000
vt 0.500000 0.500000
vt 0.500000 0.500000
vt 0.500000 0.500000
vt 0.500000 0.500000
vt 0.500000 0.500000
vt 0.500000 0.500000
vt 0.500000 0.500000
vt 0.500000 0.500000
vt 0.500000 0.500000
vt 0.500000 0.500000
vt 0.500000 0.500000
vt 0.500000 0.500000
vt 0.500000 0.500000
vt 0.500000 0.500000
vt 0.500000 0.500000
vt 0.500000 0.500000
vt 0.500000 0.500000
vt 0.500000 0.500000
vt 0.500000 0.500000
vt 0.500000 0.500000
vt 0.500000 0.500000
vt 0.500000 0.500000
vt 0.500000 0.500000
vt 0.500000 0.500000
vt 0.500000 0.500000
vt 0.500000 0.500000
vt 0.500000 0.500000
vt 0.500000 0.500000
vt 0.500000 0.500000
vt 0.500000 0.500000
vt 0.500000 0.500000
vt 0.500000 0.500000
vt 0.500000 0.500000
vt 0.500000 0.500000
vt 0.500000 0.500000
vt 0.500000 0.500000
vt 0.500000 0.500000
vt 0.500000 0.500000
vt 0.500000 0.500000
vt 0.500000 0.500000
vt 0.500000 0.500000
vt 0.500000 0.500000
vt 0.500000 0.500000
vt 0.500000 0.500000
vt 0.500000 0.500000
vt 0.500000 0.500000
vt 0.500000 0.500000
vt 0.500000 0.500000
vt 0.500000 0.500000
vt 0.500000 0.500000
vt 0.500000 0.500000
vt 0.500000 0.500000
vt 0.500000 0.500000
vt 0.500000 0.500000
vt 0.500000 0.500000
vt 0.500000 0.500000
vt 0.500000 0.500000
vt 0.500000 0.500000
vt 0.500000 0.500000
vt 0.500000 0.500000
vt 0.500000 0.500000
vt 0.500000 0.500000
vt 0.500000 0.500000
vt 0.500000 0.500000
vt 0.500000 0.500000
vt 0.500000 0.500000
vt 0.500000 0.500000
vt 0.500000 0.500000
vt 0.500000 0.500000
vt 0.500000 0.500000
vt 0.500000 0.500000
vt 0.500000 0.500000
vt 0.500000 0.500000
vt 0.500000 0.500000
vt 0.500000 0.500000
vt 0.500000 0.500000
vt 0.500000 0.500000
vt 0.500000 0.500000
vt 0.500000 0.500000
vt 0.500000 0.500000
vt 0.500000 0.500000
vt 0.500000 0.500000
vt 0.500000 0.500000
vt 0.500000 0.500000
vt 0.500000 0.500000
vt 0.500000 0.500000
vt 0.500000 0.500000
vt 0.500000 0.500000
vt 0.500000 0.500000
vt 0.500000 0.500000
vt 0.500000 0.500000
vt 0.500000 0.500000
vt 0.500000 0.500000
vt 0.500000 0.500000
vt 0.500000 0.500000
vt 0.500000 0.500000
vt 0.500000 0.500000
vt 0.500000 0.500000
vt 0.500000 0.500000
vt 0.500000 0.500000
vt 0.500000 0.500000
vt 0.500000 0.500000
vt 0.500000 0.500000
vt 0.500000 0.500000
vt 0.012184 0.081564
vt 0.012197 0.084281
vt 0.007440 0.084146
vt 0.014518 0.080852
vt 0.013434 0.079987
vt 0.015459 0.077114
vt 0.006945 0.066276
vt 0.005076 0.067439
vt 0.005088 0.066201
vt 0.013702 0.075501
vt 0.009806 0.089556
vt 0.008188 0.089668
vt 0.007400 0.085693
vt 0.012500 0.088889
vt 0.007313 0.064446
vt 0.006630 0.083536
vt 0.005445 0.083834
vt 0.004096 0.067787
vt 0.015698 0.079433
vt 0.003923 0.089556
vt 0.000000 0.088889
vt 0.004606 0.086376
vt 0.007037 0.067622
vt 0.011871 0.076132
vt 0.006553 0.062029
vt 0.005385 0.062090
vt 0.004595 0.062965
vt 0.004670 0.064507
vt 0.007358 0.062838
vt 0.007120 0.089096
vt 0.007035 0.087590
vt 0.015384 0.080998
vt 0.004610 0.084857
vt 0.000000 0.066667
vt 0.008124 0.067981
vt 0.012500 0.066667
vt 0.011692 0.074288
vt 0.012552 0.079880
vt 0.004942 0.087961
vt 0.012623 0.076200
vt 0.014750 0.075483
vt 0.004884 0.089133
vn 0.0000 -1.0000 -0.0000
vn 0.2882 0.0000 0.9576
vn -0.0390 0.0000 0.9992
vn -0.2401 0.0000 0.9708
vn -0.9961 0.0000 0.0878
vn 0.9950 0.0000 0.1001
vn -0.1378 0.0000 0.9905
vn 0.0952 0.0000 0.9955
vn 1.0000 0.0000 -0.0000
vn -0.9357 0.0000 -0.3527
vn 0.9462 0.0000 -0.3236
vn -0.9932 0.0000 -0.1160
vn -1.0000 0.0000 0.0049
vn 0.9989 0.0000 -0.0460
vn -0.5676 0.0000 0.8233
vn -1.0000 0.0000 -0.0089
vn 0.3903 0.0000 0.9207
vn -0.1400 0.0000 0.9901
vn -0.9318 0.0000 0.3629
vn 0.0943 0.0000 0.9955
vn -0.9419 0.0000 0.3358
vn 0.4096 0.0000 0.9123
vn 0.0678 0.0000 0.9977
vn -0.9836 0.0000 -0.1804
vn -0.0513 0.0000 -0.9987
vn -0.7914 0.0000 -0.6113
vn 0.3428 0.0000 -0.9394
vn 0.0097 0.0000 -1.0000
vn -0.9854 0.0000 -0.1700
vn -0.1520 0.0000 -0.9884
vn -0.1823 0.0000 -0.9832
vn 0.1961 0.0000 -0.9806
vn -0.9928 0.0000 -0.1198
vn 0.9998 0.0000 -0.0182
vn 0.1665 0.0000 -0.9860
vn -0.9827 0.0000 0.1853
vn -0.9418 0.0000 0.3363
vn 0.9156 0.0000 0.4021
vn 0.9963 0.0000 0.0862
vn -0.9988 0.0000 0.0498
vn 0.5286 0.0000 -0.8489
vn 0.0293 0.0000 -0.9996
vn -0.4923 0.0000 -0.8704
vn 0.0000 1.0000 -0.0000
usemtl BackMat.001
s off
f 163/1/1 160/2/1 158/3/1
f 167/4/1 172/5/1 171/6/1
f 185/7/1 186/8/1 183/9/1
f 177/10/1 171/6/1 172/5/1
f 144/11/1 157/12/1 143/13/1
f 158/3/1 144/11/1 150/14/1
f 158/3/1 157/12/1 144/11/1
f 189/15/1 186/8/1 185/7/1
f 164/16/1 179/17/1 162/18/1
f 172/5/1 167/4/1 170/19/1
f 183/9/1 179/17/1 164/16/1
f 160/2/1 157/12/1 158/3/1
f 145/20/1 156/21/1 152/22/1
f 185/7/1 183/9/1 181/23/1
f 164/16/1 160/2/1 174/24/1
f 174/24/1 160/2/1 163/1/1
f 196/25/1 195/26/1 189/15/1
f 191/27/1 190/28/1 195/26/1
f 193/29/1 196/25/1 189/15/1
f 143/13/1 149/30/1 141/31/1
f 170/19/1 167/4/1 168/32/1
f 159/33/1 152/22/1 156/21/1
f 157/12/1 149/30/1 143/13/1
f 181/23/1 183/9/1 164/16/1
f 154/34/1 159/33/1 179/17/1
f 180/35/1 178/36/1 187/37/1
f 190/28/1 189/15/1 195/26/1
f 174/24/1 163/1/1 165/38/1
f 156/21/1 145/20/1 148/39/1
f 174/24/1 165/38/1 173/40/1
f 178/36/1 164/16/1 174/24/1
f 152/22/1 159/33/1 154/34/1
f 159/33/1 162/18/1 179/17/1
f 181/23/1 164/16/1 180/35/1
f 165/38/1 171/6/1 173/40/1
f 173/40/1 171/6/1 177/10/1
f 180/35/1 164/16/1 178/36/1
f 186/8/1 189/15/1 190/28/1
f 177/10/1 172/5/1 176/41/1
f 146/42/1 148/39/1 145/20/1
f 86/43/2 12/44/2 54/45/2 142/46/2
f 12/44/3 13/47/3 55/48/3 54/45/3
f 1/49/4 91/50/4 147/51/4 43/52/4
f 2/53/5 3/54/5 45/55/5 44/56/5
f 10/57/6 11/58/6 53/59/6 52/60/6
f 13/47/7 95/61/7 151/62/7 55/48/7
f 97/63/8 1/49/8 43/52/8 153/64/8
f 99/65/9 42/66/9 84/67/9 155/68/9
f 3/54/10 4/69/10 46/70/10 45/55/10
f 9/71/11 10/57/11 52/60/11 51/72/11
f 14/73/12 15/74/12 57/75/12 56/76/12
f 4/69/13 5/77/13 47/78/13 46/70/13
f 105/79/14 9/71/14 51/72/14 161/80/14
f 5/77/15 6/81/15 48/82/15 47/78/15
f 15/74/16 16/83/16 58/84/16 57/75/16
f 7/85/17 8/86/17 50/87/17 49/88/17
f 6/81/18 7/85/18 49/88/18 48/82/18
f 16/83/19 110/89/19 166/90/19 58/84/19
f 19/91/20 113/92/20 169/93/20 61/94/20
f 20/95/21 21/96/21 63/97/21 62/98/21
f 18/99/22 19/91/22 61/94/22 60/100/22
f 17/101/23 18/99/23 60/100/23 59/102/23
f 21/96/24 22/103/24 64/104/24 63/97/24
f 25/105/25 119/106/25 175/107/25 67/108/25
f 22/103/26 23/109/26 65/110/26 64/104/26
f 24/111/27 25/105/27 67/108/27 66/112/27
f 23/109/28 24/111/28 66/112/28 65/110/28
f 26/113/29 27/114/29 69/115/29 68/116/29
f 40/117/30 41/118/30 83/119/30 82/120/30
f 29/121/31 126/122/31 182/123/31 71/124/31
f 128/125/32 40/117/32 82/120/32 184/126/32
f 30/127/33 31/128/33 73/129/33 72/130/33
f 38/131/34 39/132/34 81/133/34 80/134/34
f 132/135/35 29/121/35 71/124/35 188/136/35
f 27/114/36 28/137/36 70/138/36 69/115/36
f 31/128/37 32/139/37 74/140/37 73/129/37
f 37/141/38 38/131/38 80/134/38 79/142/38
f 136/143/39 37/141/39 79/142/39 192/144/39
f 32/139/40 138/145/40 194/146/40 74/140/40
f 35/147/41 36/148/41 78/149/41 77/150/41
f 34/151/42 35/147/42 77/150/42 76/152/42
f 33/153/43 34/151/43 76/152/43 75/154/43
usemtl FrontMat.001
f 107/155/44 102/156/44 104/157/44
f 111/158/44 115/159/44 116/160/44
f 129/161/44 127/162/44 130/163/44
f 121/164/44 116/160/44 115/159/44
f 88/165/44 87/166/44 101/167/44
f 102/156/44 94/168/44 88/165/44
f 102/156/44 88/165/44 101/167/44
f 133/169/44 129/161/44 130/163/44
f 108/170/44 106/171/44 123/172/44
f 116/160/44 114/173/44 111/158/44
f 127/162/44 108/170/44 123/172/44
f 104/157/44 102/156/44 101/167/44
f 89/174/44 96/175/44 100/176/44
f 129/161/44 125/177/44 127/162/44
f 108/170/44 118/178/44 104/157/44
f 118/178/44 107/155/44 104/157/44
f 140/179/44 133/169/44 139/180/44
f 135/181/44 139/180/44 134/182/44
f 137/183/44 133/169/44 140/179/44
f 87/166/44 85/184/44 93/185/44
f 114/173/44 112/186/44 111/158/44
f 103/187/44 100/176/44 96/175/44
f 101/167/44 87/166/44 93/185/44
f 125/177/44 108/170/44 127/162/44
f 98/188/44 123/172/44 103/187/44
f 124/189/44 131/190/44 122/191/44
f 134/182/44 139/180/44 133/169/44
f 118/178/44 109/192/44 107/155/44
f 100/176/44 92/193/44 89/174/44
f 118/178/44 117/194/44 109/192/44
f 122/191/44 118/178/44 108/170/44
f 96/175/44 98/188/44 103/187/44
f 103/187/44 123/172/44 106/171/44
f 125/177/44 124/189/44 108/170/44
f 109/192/44 117/194/44 115/159/44
f 117/194/44 121/164/44 115/159/44
f 124/189/44 122/191/44 108/170/44
f 130/163/44 134/182/44 133/169/44
f 121/164/44 120/195/44 116/160/44
f 90/196/44 89/174/44 92/193/44
