# Blender v2.83.1 OBJ File: 'jigsaw-80x45-3-step2.blend'
# www.blender.org
mtllib piece.2571.mtl
o path5142
v 0.561623 0.037500 -0.313003
v 0.577934 0.037500 -0.190667
v 0.561417 0.037500 -0.110744
v 0.497852 0.037500 -0.106256
v 0.411102 0.037500 -0.135801
v 0.334560 0.037500 -0.139358
v 0.295849 0.037500 -0.076451
v 0.299500 0.037500 0.015265
v 0.344276 0.037500 0.078600
v 0.423721 0.037500 0.076000
v 0.510544 0.037500 0.048472
v 0.572243 0.037500 0.056659
v 0.585825 0.037500 0.142210
v 0.566334 0.037500 0.270801
v 0.514225 0.037500 0.484503
v 0.192490 0.037500 0.454347
v 0.113522 0.037500 0.473572
v 0.108620 0.037500 0.526535
v 0.137478 0.037500 0.596135
v 0.141567 0.037500 0.658630
v 0.081390 0.037500 0.693867
v -0.006397 0.037500 0.696041
v -0.066116 0.037500 0.662939
v -0.061497 0.037500 0.597375
v -0.033882 0.037500 0.522060
v -0.044033 0.037500 0.464721
v -0.133457 0.037500 0.445362
v -0.487473 0.037500 0.484503
v -0.437778 0.037500 0.125888
v -0.452812 0.037500 0.040544
v -0.507164 0.037500 0.040361
v -0.583366 0.037500 0.078559
v -0.656582 0.037500 0.087462
v -0.704872 0.037500 0.021200
v -0.717930 0.037500 -0.078876
v -0.688347 0.037500 -0.149609
v -0.615788 0.037500 -0.148762
v -0.528187 0.037500 -0.117789
v -0.460545 0.037500 -0.119061
v -0.438313 0.037500 -0.195948
v -0.448677 0.037500 -0.315899
v -0.487473 0.037500 -0.517406
v -0.273407 0.037500 -0.566824
v -0.144699 0.037500 -0.581489
v -0.059296 0.037500 -0.557461
v -0.051540 0.037500 -0.479184
v -0.079086 0.037500 -0.377071
v -0.080421 0.037500 -0.293032
v -0.014050 0.037500 -0.260143
v 0.081478 0.037500 -0.276176
v 0.147610 0.037500 -0.330073
v 0.145584 0.037500 -0.408484
v 0.115837 0.037500 -0.488895
v 0.118614 0.037500 -0.546494
v 0.195652 0.037500 -0.563874
v 0.314720 0.037500 -0.553230
v 0.514225 0.037500 -0.517406
v 0.561623 -0.037500 -0.313003
v 0.577934 -0.037500 -0.190667
v 0.561417 -0.037500 -0.110744
v 0.497852 -0.037500 -0.106256
v 0.411102 -0.037500 -0.135801
v 0.334560 -0.037500 -0.139358
v 0.295849 -0.037500 -0.076451
v 0.299500 -0.037498 0.015265
v 0.344276 -0.037500 0.078600
v 0.423721 -0.037500 0.076000
v 0.510544 -0.037500 0.048472
v 0.572243 -0.037500 0.056659
v 0.585825 -0.037500 0.142210
v 0.566334 -0.037500 0.270801
v 0.514225 -0.037500 0.484503
v 0.192490 -0.037498 0.454347
v 0.113522 -0.037500 0.473572
v 0.108620 -0.037498 0.526535
v 0.137478 -0.037500 0.596135
v 0.141567 -0.037500 0.658630
v 0.081390 -0.037500 0.693867
v -0.006397 -0.037500 0.696041
v -0.066116 -0.037500 0.662939
v -0.061497 -0.037500 0.597375
v -0.033882 -0.037500 0.522060
v -0.044033 -0.037500 0.464721
v -0.133457 -0.037500 0.445362
v -0.487473 -0.037500 0.484503
v -0.437778 -0.037498 0.125888
v -0.452812 -0.037500 0.040544
v -0.507164 -0.037500 0.040361
v -0.583366 -0.037500 0.078559
v -0.656582 -0.037500 0.087462
v -0.704872 -0.037500 0.021200
v -0.717930 -0.037498 -0.078876
v -0.688347 -0.037500 -0.149609
v -0.615788 -0.037500 -0.148762
v -0.528187 -0.037498 -0.117789
v -0.460545 -0.037500 -0.119061
v -0.438313 -0.037500 -0.195948
v -0.448677 -0.037500 -0.315899
v -0.487473 -0.037498 -0.517406
v -0.273407 -0.037498 -0.566824
v -0.144699 -0.037500 -0.581489
v -0.059296 -0.037500 -0.557461
v -0.051540 -0.037500 -0.479184
v -0.079086 -0.037500 -0.377071
v -0.080421 -0.037500 -0.293032
v -0.014050 -0.037500 -0.260143
v 0.081478 -0.037498 -0.276176
v 0.147610 -0.037500 -0.330073
v 0.145584 -0.037500 -0.408484
v 0.115837 -0.037498 -0.488895
v 0.118614 -0.037500 -0.546494
v 0.195652 -0.037500 -0.563874
v 0.314720 -0.037500 -0.553230
v 0.514225 -0.037498 -0.517406
v 0.572243 0.037500 0.056659
v 0.572243 0.037500 0.056659
v 0.585825 0.037500 0.142210
v 0.566334 0.037500 0.270801
v 0.561623 0.037500 -0.313003
v 0.577934 0.037500 -0.190667
v 0.561417 0.037500 -0.110744
v 0.561417 0.037500 -0.110744
v 0.510544 0.037500 0.048472
v 0.497852 0.037500 -0.106256
v 0.514225 0.037500 0.484503
v 0.514225 0.037500 0.484503
v 0.514225 0.037500 -0.517406
v 0.514225 0.037500 -0.517406
v 0.423721 0.037500 0.076000
v 0.411102 0.037500 -0.135801
v 0.314720 0.037500 -0.553230
v 0.344276 0.037500 0.078600
v 0.334560 0.037500 -0.139358
v 0.334560 0.037500 -0.139358
v 0.299500 0.037500 0.015265
v 0.295849 0.037500 -0.076451
v 0.195652 0.037500 -0.563874
v 0.192490 0.037500 0.454347
v 0.118614 0.037500 -0.546494
v 0.118614 0.037500 -0.546494
v 0.147610 0.037500 -0.330073
v 0.145584 0.037500 -0.408484
v 0.113522 0.037500 0.473572
v 0.113522 0.037500 0.473572
v 0.081478 0.037500 -0.276176
v 0.115837 0.037500 -0.488895
v 0.137478 0.037500 0.596135
v 0.141567 0.037500 0.658630
v 0.141567 0.037500 0.658630
v 0.081390 0.037500 0.693867
v 0.108620 0.037500 0.526535
v -0.014050 0.037500 -0.260143
v -0.006397 0.037500 0.696041
v -0.066116 0.037500 0.662939
v -0.066116 0.037500 0.662939
v -0.080421 0.037500 -0.293032
v -0.080421 0.037500 -0.293032
v -0.033882 0.037500 0.522060
v -0.044033 0.037500 0.464721
v -0.044033 0.037500 0.464721
v -0.061497 0.037500 0.597375
v -0.133457 0.037500 0.445362
v -0.059296 0.037500 -0.557461
v -0.059296 0.037500 -0.557461
v -0.051540 0.037500 -0.479184
v -0.079086 0.037500 -0.377071
v -0.144699 0.037500 -0.581489
v -0.273407 0.037500 -0.566824
v -0.487473 0.037500 -0.517406
v -0.487473 0.037500 -0.517406
v -0.438313 0.037500 -0.195948
v -0.448677 0.037500 -0.315899
v -0.437778 0.037500 0.125888
v -0.452812 0.037500 0.040544
v -0.452812 0.037500 0.040544
v -0.460545 0.037500 -0.119061
v -0.460545 0.037500 -0.119061
v -0.507164 0.037500 0.040361
v -0.528187 0.037500 -0.117789
v -0.487473 0.037500 0.484503
v -0.487473 0.037500 0.484503
v -0.583366 0.037500 0.078559
v -0.615788 0.037500 -0.148762
v -0.656582 0.037500 0.087462
v -0.656582 0.037500 0.087462
v -0.688347 0.037500 -0.149609
v -0.688347 0.037500 -0.149609
v -0.704872 0.037500 0.021200
v -0.717930 0.037500 -0.078876
v 0.572243 -0.037500 0.056659
v 0.572243 -0.037500 0.056659
v 0.585825 -0.037500 0.142210
v 0.566334 -0.037500 0.270801
v 0.561623 -0.037500 -0.313003
v 0.577934 -0.037500 -0.190667
v 0.561417 -0.037500 -0.110744
v 0.561417 -0.037500 -0.110744
v 0.510544 -0.037500 0.048472
v 0.497852 -0.037500 -0.106256
v 0.514225 -0.037500 0.484503
v 0.514225 -0.037500 0.484503
v 0.514225 -0.037498 -0.517406
v 0.514225 -0.037498 -0.517406
v 0.423721 -0.037500 0.076000
v 0.411102 -0.037500 -0.135801
v 0.314720 -0.037500 -0.553230
v 0.344276 -0.037500 0.078600
v 0.334560 -0.037500 -0.139358
v 0.334560 -0.037500 -0.139358
v 0.299500 -0.037498 0.015265
v 0.295849 -0.037500 -0.076451
v 0.195652 -0.037500 -0.563874
v 0.192490 -0.037498 0.454347
v 0.118614 -0.037500 -0.546494
v 0.118614 -0.037500 -0.546494
v 0.147610 -0.037500 -0.330073
v 0.145584 -0.037500 -0.408484
v 0.113522 -0.037500 0.473572
v 0.113522 -0.037500 0.473572
v 0.081478 -0.037498 -0.276176
v 0.115837 -0.037498 -0.488895
v 0.137478 -0.037500 0.596135
v 0.141567 -0.037500 0.658630
v 0.141567 -0.037500 0.658630
v 0.081390 -0.037500 0.693867
v 0.108620 -0.037498 0.526535
v -0.014050 -0.037500 -0.260143
v -0.006397 -0.037500 0.696041
v -0.066116 -0.037500 0.662939
v -0.066116 -0.037500 0.662939
v -0.080421 -0.037500 -0.293032
v -0.080421 -0.037500 -0.293032
v -0.033882 -0.037500 0.522060
v -0.044033 -0.037500 0.464721
v -0.044033 -0.037500 0.464721
v -0.061497 -0.037500 0.597375
v -0.133457 -0.037500 0.445362
v -0.059296 -0.037500 -0.557461
v -0.059296 -0.037500 -0.557461
v -0.051540 -0.037500 -0.479184
v -0.079086 -0.037500 -0.377071
v -0.144699 -0.037500 -0.581489
v -0.273407 -0.037498 -0.566824
v -0.487473 -0.037498 -0.517406
v -0.487473 -0.037498 -0.517406
v -0.438313 -0.037500 -0.195948
v -0.448677 -0.037500 -0.315899
v -0.437778 -0.037498 0.125888
v -0.452812 -0.037500 0.040544
v -0.452812 -0.037500 0.040544
v -0.460545 -0.037500 -0.119061
v -0.460545 -0.037500 -0.119061
v -0.507164 -0.037500 0.040361
v -0.528187 -0.037498 -0.117789
v -0.487473 -0.037500 0.484503
v -0.487473 -0.037500 0.484503
v -0.583366 -0.037500 0.078559
v -0.615788 -0.037500 -0.148762
v -0.656582 -0.037500 0.087462
v -0.656582 -0.037500 0.087462
v -0.688347 -0.037500 -0.149609
v -0.688347 -0.037500 -0.149609
v -0.704872 -0.037500 0.021200
v -0.717930 -0.037498 -0.078876
vt 0.500000 0.500000
vt 0.500000 0.500000
vt 0.500000 0.500000
vt 0.500000 0.500000
vt 0.500000 0.500000
vt 0.500000 0.500000
vt 0.500000 0.500000
vt 0.500000 0.500000
vt 0.500000 0.500000
vt 0.500000 0.500000
vt 0.500000 0.500000
vt 0.500000 0.500000
vt 0.500000 0.500000
vt 0.500000 0.500000
vt 0.500000 0.500000
vt 0.500000 0.500000
vt 0.500000 0.500000
vt 0.500000 0.500000
vt 0.500000 0.500000
vt 0.500000 0.500000
vt 0.500000 0.500000
vt 0.500000 0.500000
vt 0.500000 0.500000
vt 0.500000 0.500000
vt 0.500000 0.500000
vt 0.500000 0.500000
vt 0.500000 0.500000
vt 0.500000 0.500000
vt 0.500000 0.500000
vt 0.500000 0.500000
vt 0.500000 0.500000
vt 0.500000 0.500000
vt 0.500000 0.500000
vt 0.500000 0.500000
vt 0.500000 0.500000
vt 0.500000 0.500000
vt 0.500000 0.500000
vt 0.500000 0.500000
vt 0.500000 0.500000
vt 0.500000 0.500000
vt 0.500000 0.500000
vt 0.500000 0.500000
vt 0.500000 0.500000
vt 0.500000 0.500000
vt 0.500000 0.500000
vt 0.500000 0.500000
vt 0.500000 0.500000
vt 0.500000 0.500000
vt 0.500000 0.500000
vt 0.500000 0.500000
vt 0.500000 0.500000
vt 0.500000 0.500000
vt 0.500000 0.500000
vt 0.500000 0.500000
vt 0.500000 0.500000
vt 0.500000 0.500000
vt 0.500000 0.500000
vt 0.500000 0.500000
vt 0.500000 0.500000
vt 0.500000 0.500000
vt 0.500000 0.500000
vt 0.500000 0.500000
vt 0.500000 0.500000
vt 0.500000 0.500000
vt 0.500000 0.500000
vt 0.500000 0.500000
vt 0.500000 0.500000
vt 0.500000 0.500000
vt 0.500000 0.500000
vt 0.500000 0.500000
vt 0.500000 0.500000
vt 0.500000 0.500000
vt 0.500000 0.500000
vt 0.500000 0.500000
vt 0.500000 0.500000
vt 0.500000 0.500000
vt 0.500000 0.500000
vt 0.500000 0.500000
vt 0.500000 0.500000
vt 0.500000 0.500000
vt 0.500000 0.500000
vt 0.500000 0.500000
vt 0.500000 0.500000
vt 0.500000 0.500000
vt 0.500000 0.500000
vt 0.500000 0.500000
vt 0.500000 0.500000
vt 0.500000 0.500000
vt 0.500000 0.500000
vt 0.500000 0.500000
vt 0.500000 0.500000
vt 0.500000 0.500000
vt 0.500000 0.500000
vt 0.500000 0.500000
vt 0.500000 0.500000
vt 0.500000 0.500000
vt 0.500000 0.500000
vt 0.500000 0.500000
vt 0.500000 0.500000
vt 0.500000 0.500000
vt 0.500000 0.500000
vt 0.500000 0.500000
vt 0.500000 0.500000
vt 0.500000 0.500000
vt 0.500000 0.500000
vt 0.500000 0.500000
vt 0.500000 0.500000
vt 0.500000 0.500000
vt 0.500000 0.500000
vt 0.500000 0.500000
vt 0.500000 0.500000
vt 0.500000 0.500000
vt 0.500000 0.500000
vt 0.500000 0.500000
vt 0.500000 0.500000
vt 0.500000 0.500000
vt 0.500000 0.500000
vt 0.500000 0.500000
vt 0.500000 0.500000
vt 0.500000 0.500000
vt 0.500000 0.500000
vt 0.500000 0.500000
vt 0.500000 0.500000
vt 0.500000 0.500000
vt 0.500000 0.500000
vt 0.500000 0.500000
vt 0.500000 0.500000
vt 0.500000 0.500000
vt 0.500000 0.500000
vt 0.500000 0.500000
vt 0.500000 0.500000
vt 0.500000 0.500000
vt 0.500000 0.500000
vt 0.500000 0.500000
vt 0.500000 0.500000
vt 0.500000 0.500000
vt 0.500000 0.500000
vt 0.500000 0.500000
vt 0.500000 0.500000
vt 0.500000 0.500000
vt 0.500000 0.500000
vt 0.500000 0.500000
vt 0.500000 0.500000
vt 0.500000 0.500000
vt 0.500000 0.500000
vt 0.500000 0.500000
vt 0.500000 0.500000
vt 0.500000 0.500000
vt 0.500000 0.500000
vt 0.500000 0.500000
vt 0.500000 0.500000
vt 0.500000 0.500000
vt 0.500000 0.500000
vt 0.500000 0.500000
vt 0.500000 0.500000
vt 0.500000 0.500000
vt 0.500000 0.500000
vt 0.500000 0.500000
vt 0.500000 0.500000
vt 0.500000 0.500000
vt 0.500000 0.500000
vt 0.500000 0.500000
vt 0.500000 0.500000
vt 0.500000 0.500000
vt 0.500000 0.500000
vt 0.500000 0.500000
vt 0.500000 0.500000
vt 0.500000 0.500000
vt 0.500000 0.500000
vt 0.500000 0.500000
vt 0.500000 0.500000
vt 0.500000 0.500000
vt 0.500000 0.500000
vt 0.500000 0.500000
vt 0.500000 0.500000
vt 0.500000 0.500000
vt 0.500000 0.500000
vt 0.500000 0.500000
vt 0.500000 0.500000
vt 0.500000 0.500000
vt 0.500000 0.500000
vt 0.500000 0.500000
vt 0.500000 0.500000
vt 0.500000 0.500000
vt 0.500000 0.500000
vt 0.500000 0.500000
vt 0.500000 0.500000
vt 0.500000 0.500000
vt 0.500000 0.500000
vt 0.500000 0.500000
vt 0.500000 0.500000
vt 0.500000 0.500000
vt 0.500000 0.500000
vt 0.500000 0.500000
vt 0.500000 0.500000
vt 0.500000 0.500000
vt 0.500000 0.500000
vt 0.500000 0.500000
vt 0.500000 0.500000
vt 0.500000 0.500000
vt 0.500000 0.500000
vt 0.500000 0.500000
vt 0.500000 0.500000
vt 0.500000 0.500000
vt 0.500000 0.500000
vt 0.500000 0.500000
vt 0.500000 0.500000
vt 0.128010 0.279289
vt 0.128210 0.277169
vt 0.130501 0.284044
vt 0.133229 0.290477
vt 0.132162 0.290176
vt 0.132060 0.288807
vt 0.124200 0.274271
vt 0.124383 0.271416
vt 0.126751 0.275727
vt 0.129761 0.286601
vt 0.127550 0.289940
vt 0.129717 0.284903
vt 0.133026 0.267769
vt 0.137500 0.266667
vt 0.137012 0.274520
vt 0.130130 0.288526
vt 0.130074 0.289936
vt 0.129076 0.290302
vt 0.131646 0.284125
vt 0.134834 0.290045
vt 0.132403 0.286881
vt 0.132436 0.285119
vt 0.125000 0.288889
vt 0.124553 0.284463
vt 0.137364 0.279999
vt 0.137124 0.281751
vt 0.127514 0.267527
vt 0.129011 0.267757
vt 0.127799 0.275697
vt 0.131959 0.266230
vt 0.129986 0.265763
vt 0.132435 0.264539
vt 0.138024 0.279891
vt 0.138908 0.276117
vt 0.138893 0.280531
vt 0.124420 0.281822
vt 0.126359 0.280711
vt 0.127337 0.280756
vt 0.125000 0.266667
vt 0.129970 0.267264
vt 0.139726 0.276014
vt 0.140139 0.277339
vt 0.137253 0.276504
vt 0.137969 0.276729
vt 0.125477 0.276338
vt 0.140112 0.279287
vt 0.131961 0.267436
vt 0.129599 0.263820
vt 0.130471 0.261554
vt 0.131720 0.261844
vt 0.137500 0.288889
vt 0.124500 0.276166
vt 0.132546 0.262915
vt 0.124637 0.280113
vt 0.125356 0.280051
vt 0.129589 0.262210
vt 0.139672 0.280622
vn 0.0000 -1.0000 -0.0000
vn 0.9876 0.0000 -0.1568
vn 0.9887 0.0000 0.1499
vn 0.9912 0.0000 -0.1322
vn 0.9793 0.0000 0.2024
vn 0.1315 0.0000 -0.9913
vn 0.0704 0.0000 0.9975
vn 0.9715 0.0000 0.2369
vn 0.9742 0.0000 -0.2259
vn -0.3022 0.0000 -0.9532
vn -0.3224 0.0000 0.9466
vn 0.1767 0.0000 -0.9843
vn -0.0327 0.0000 -0.9995
vn -0.0464 0.0000 0.9989
vn 0.8165 0.0000 -0.5773
vn 0.8517 0.0000 0.5241
vn 0.0890 0.0000 -0.9960
vn -0.0933 0.0000 0.9956
vn 0.9992 0.0000 -0.0398
vn -0.2201 0.0000 -0.9755
vn -0.9997 0.0000 0.0258
vn 0.2365 0.0000 0.9716
vn -0.6318 0.0000 -0.7752
vn -0.9988 0.0000 -0.0482
vn -0.9379 0.0000 0.3470
vn 0.9979 0.0000 -0.0653
vn 0.5053 0.0000 0.8629
vn 0.9237 0.0000 -0.3830
vn 0.9957 0.0000 0.0922
vn -0.1655 0.0000 -0.9862
vn 0.0248 0.0000 0.9997
vn -0.4848 0.0000 0.8746
vn 0.4440 0.0000 -0.8960
vn -0.9847 0.0000 0.1743
vn -0.9389 0.0000 -0.3442
vn -0.9975 0.0000 -0.0703
vn -0.2116 0.0000 0.9774
vn 0.9951 0.0000 -0.0986
vn 0.9655 0.0000 0.2604
vn 0.2708 0.0000 -0.9626
vn 0.9999 0.0000 0.0159
vn -0.1132 0.0000 -0.9936
vn -0.2249 0.0000 -0.9744
vn -0.9963 0.0000 0.0861
vn -0.9848 0.0000 0.1735
vn -0.9606 0.0000 -0.2778
vn -0.0034 0.0000 1.0000
vn -0.0188 0.0000 -0.9998
vn -0.9905 0.0000 -0.1373
vn 0.1099 0.0000 0.9939
vn -0.9820 0.0000 0.1891
vn 0.4481 0.0000 0.8940
vn 0.3333 0.0000 -0.9428
vn 0.1207 0.0000 0.9927
vn 0.0117 0.0000 -0.9999
vn -0.8082 0.0000 0.5890
vn -0.9226 0.0000 -0.3858
vn -0.9916 0.0000 0.1294
vn 0.0000 1.0000 0.0000
usemtl BackMat.001
s off
f 220/1/1 211/2/1 227/3/1
f 192/4/1 198/5/1 190/6/1
f 242/7/1 241/8/1 243/9/1
f 205/10/1 208/11/1 194/12/1
f 248/13/1 237/14/1 255/15/1
f 199/16/1 195/17/1 196/18/1
f 227/3/1 210/19/1 237/14/1
f 193/20/1 207/21/1 204/22/1
f 202/23/1 194/12/1 206/24/1
f 218/25/1 210/19/1 213/26/1
f 193/20/1 204/22/1 192/4/1
f 247/27/1 231/28/1 246/29/1
f 253/30/1 257/31/1 254/32/1
f 226/33/1 222/34/1 236/35/1
f 206/24/1 217/36/1 212/37/1
f 216/38/1 206/24/1 194/12/1
f 213/26/1 207/21/1 193/20/1
f 243/9/1 247/27/1 244/39/1
f 246/29/1 231/28/1 251/40/1
f 236/35/1 228/41/1 229/42/1
f 216/38/1 208/11/1 220/1/1
f 234/43/1 218/25/1 233/44/1
f 241/8/1 242/7/1 240/45/1
f 251/40/1 253/30/1 254/32/1
f 236/35/1 225/46/1 228/41/1
f 227/3/1 248/13/1 249/47/1
f 207/21/1 213/26/1 210/19/1
f 233/44/1 218/25/1 226/33/1
f 211/2/1 220/1/1 208/11/1
f 258/48/1 263/49/1 264/50/1
f 194/12/1 208/11/1 216/38/1
f 204/22/1 198/5/1 192/4/1
f 213/26/1 193/20/1 200/51/1
f 234/43/1 210/19/1 218/25/1
f 225/46/1 236/35/1 222/34/1
f 251/40/1 249/47/1 253/30/1
f 195/17/1 205/10/1 194/12/1
f 205/10/1 195/17/1 199/16/1
f 216/38/1 217/36/1 206/24/1
f 237/14/1 210/19/1 234/43/1
f 233/44/1 226/33/1 236/35/1
f 240/45/1 242/7/1 238/52/1
f 231/28/1 247/27/1 241/8/1
f 263/49/1 257/31/1 259/53/1
f 214/54/1 212/37/1 221/55/1
f 227/3/1 211/2/1 210/19/1
f 221/55/1 212/37/1 217/36/1
f 258/48/1 264/50/1 261/56/1
f 227/3/1 249/47/1 231/28/1
f 243/9/1 241/8/1 247/27/1
f 254/32/1 263/49/1 258/48/1
f 263/49/1 254/32/1 257/31/1
f 225/46/1 222/34/1 223/57/1
f 227/3/1 237/14/1 248/13/1
f 231/28/1 249/47/1 251/40/1
f 116/58/2 13/59/2 70/60/2 191/61/2
f 13/59/3 14/62/3 71/63/3 70/60/3
f 1/64/4 2/65/4 59/66/4 58/67/4
f 2/65/5 122/68/5 197/69/5 59/66/5
f 11/70/6 12/71/6 69/72/6 68/73/6
f 3/74/7 4/75/7 61/76/7 60/77/7
f 14/62/8 126/78/8 201/79/8 71/63/8
f 128/80/9 1/64/9 58/67/9 203/81/9
f 10/82/10 11/70/10 68/73/10 67/83/10
f 4/75/11 5/84/11 62/85/11 61/76/11
f 56/86/12 57/87/12 114/88/12 113/89/12
f 9/90/13 10/82/13 67/83/13 66/91/13
f 5/84/14 134/92/14 209/93/14 62/85/14
f 8/94/15 9/90/15 66/91/15 65/95/15
f 6/96/16 7/97/16 64/98/16 63/99/16
f 55/100/17 56/86/17 113/89/17 112/101/17
f 15/102/18 16/103/18 73/104/18 72/105/18
f 7/97/19 8/94/19 65/95/19 64/98/19
f 140/106/20 55/100/20 112/101/20 215/107/20
f 51/108/21 52/109/21 109/110/21 108/111/21
f 16/103/22 144/112/22 219/113/22 73/104/22
f 50/114/23 51/108/23 108/111/23 107/115/23
f 53/116/24 54/117/24 111/118/24 110/119/24
f 52/109/25 53/116/25 110/119/25 109/110/25
f 19/120/26 149/121/26 224/122/26 76/123/26
f 20/124/27 21/125/27 78/126/27 77/127/27
f 18/128/28 19/120/28 76/123/28 75/129/28
f 17/130/29 18/128/29 75/129/29 74/131/29
f 49/132/30 50/114/30 107/115/30 106/133/30
f 21/125/31 22/134/31 79/135/31 78/126/31
f 22/134/32 155/136/32 230/137/32 79/135/32
f 157/138/33 49/132/33 106/133/33 232/139/33
f 25/140/34 160/141/34 235/142/34 82/143/34
f 24/144/35 25/140/35 82/143/35 81/145/35
f 23/146/36 24/144/36 81/145/36 80/147/36
f 26/148/37 27/149/37 84/150/37 83/151/37
f 164/152/38 46/153/38 103/154/38 239/155/38
f 46/153/39 47/156/39 104/157/39 103/154/39
f 44/158/40 45/159/40 102/160/40 101/161/40
f 47/156/41 48/162/41 105/163/41 104/157/41
f 43/164/42 44/158/42 101/161/42 100/165/42
f 170/166/43 43/164/43 100/165/43 245/167/43
f 40/168/44 41/169/44 98/170/44 97/171/44
f 29/172/45 175/173/45 250/174/45 86/175/45
f 177/176/46 40/168/46 97/171/46 252/177/46
f 30/178/47 31/179/47 88/180/47 87/181/47
f 38/182/48 39/183/48 96/184/48 95/185/48
f 181/186/49 29/172/49 86/175/49 256/187/49
f 27/149/50 28/188/50 85/189/50 84/150/50
f 41/169/51 42/190/51 99/191/51 98/170/51
f 31/179/52 32/192/52 89/193/52 88/180/52
f 37/194/53 38/182/53 95/185/53 94/195/53
f 32/192/54 185/196/54 260/197/54 89/193/54
f 187/198/55 37/194/55 94/195/55 262/199/55
f 33/200/56 34/201/56 91/202/56 90/203/56
f 35/204/57 36/205/57 93/206/57 92/207/57
f 34/201/58 35/204/58 92/207/58 91/202/58
usemtl FrontMat.001
f 145/208/59 152/209/59 136/210/59
f 117/211/59 115/212/59 123/213/59
f 167/214/59 168/215/59 166/216/59
f 130/217/59 119/218/59 133/219/59
f 173/220/59 180/221/59 162/222/59
f 124/223/59 121/224/59 120/225/59
f 152/209/59 162/222/59 135/226/59
f 118/227/59 129/228/59 132/229/59
f 127/230/59 131/231/59 119/218/59
f 143/232/59 138/233/59 135/226/59
f 118/227/59 117/211/59 129/228/59
f 172/234/59 171/235/59 156/236/59
f 178/237/59 179/238/59 182/239/59
f 151/240/59 161/241/59 147/242/59
f 131/231/59 137/243/59 142/244/59
f 141/245/59 119/218/59 131/231/59
f 138/233/59 118/227/59 132/229/59
f 168/215/59 169/246/59 172/234/59
f 171/235/59 176/247/59 156/236/59
f 161/241/59 154/248/59 153/249/59
f 141/245/59 145/208/59 133/219/59
f 159/250/59 158/251/59 143/232/59
f 166/216/59 165/252/59 167/214/59
f 176/247/59 179/238/59 178/237/59
f 161/241/59 153/249/59 150/253/59
f 152/209/59 174/254/59 173/220/59
f 132/229/59 135/226/59 138/233/59
f 158/251/59 151/240/59 143/232/59
f 136/210/59 133/219/59 145/208/59
f 183/255/59 189/256/59 188/257/59
f 119/218/59 141/245/59 133/219/59
f 129/228/59 117/211/59 123/213/59
f 138/233/59 125/258/59 118/227/59
f 159/250/59 143/232/59 135/226/59
f 150/253/59 147/242/59 161/241/59
f 176/247/59 178/237/59 174/254/59
f 120/225/59 119/218/59 130/217/59
f 130/217/59 124/223/59 120/225/59
f 141/245/59 131/231/59 142/244/59
f 162/222/59 159/250/59 135/226/59
f 158/251/59 161/241/59 151/240/59
f 165/252/59 163/259/59 167/214/59
f 156/236/59 166/216/59 172/234/59
f 188/257/59 184/260/59 182/239/59
f 139/261/59 146/262/59 137/243/59
f 152/209/59 135/226/59 136/210/59
f 146/262/59 142/244/59 137/243/59
f 183/255/59 186/263/59 189/256/59
f 152/209/59 156/236/59 174/254/59
f 168/215/59 172/234/59 166/216/59
f 179/238/59 183/255/59 188/257/59
f 188/257/59 182/239/59 179/238/59
f 150/253/59 148/264/59 147/242/59
f 152/209/59 173/220/59 162/222/59
f 156/236/59 176/247/59 174/254/59
