# Blender v2.83.1 OBJ File: 'jigsaw-80x45-3-step2.blend'
# www.blender.org
mtllib piece.905.mtl
o path1810_path1810.001
v -0.574195 0.037500 0.337402
v -0.591458 0.037500 0.223351
v -0.577715 0.037500 0.150639
v -0.518729 0.037500 0.150120
v -0.434574 0.037500 0.179022
v -0.353894 0.037500 0.176167
v -0.301264 0.037500 0.101311
v -0.284998 0.037500 -0.002064
v -0.309339 0.037500 -0.069548
v -0.372891 0.037500 -0.059126
v -0.451706 0.037500 -0.018391
v -0.516191 0.037500 -0.017328
v -0.544470 0.037500 -0.104343
v -0.545514 0.037500 -0.241510
v -0.526805 0.037500 -0.472618
v -0.323752 0.037500 -0.433189
v -0.203195 0.037500 -0.423731
v -0.126626 0.037500 -0.449413
v -0.127115 0.037500 -0.523561
v -0.161032 0.037500 -0.618017
v -0.165562 0.037500 -0.694206
v -0.098627 0.037500 -0.721933
v -0.001087 0.037500 -0.704561
v 0.065467 0.037500 -0.653839
v 0.060536 0.037500 -0.582989
v 0.027983 0.037500 -0.511133
v 0.032761 0.037500 -0.458874
v 0.119638 0.037500 -0.440680
v 0.474893 0.037500 -0.472618
v 0.445648 0.037500 -0.250626
v 0.441786 0.037500 -0.118256
v 0.469994 0.037500 -0.032896
v 0.541724 0.037500 -0.030703
v 0.631606 0.037500 -0.066193
v 0.705024 0.037500 -0.073463
v 0.734077 0.037500 -0.007809
v 0.717759 0.037500 0.090712
v 0.661770 0.037500 0.160845
v 0.575903 0.037500 0.161640
v 0.486331 0.037500 0.133324
v 0.423325 0.037500 0.136429
v 0.408110 0.037500 0.213016
v 0.425717 0.037500 0.331251
v 0.474893 0.037500 0.529291
v 0.262149 0.037500 0.550039
v 0.134045 0.037500 0.550959
v 0.048605 0.037500 0.525656
v 0.039742 0.037500 0.464760
v 0.065094 0.037500 0.387352
v 0.063230 0.037500 0.319611
v -0.006853 0.037500 0.283491
v -0.104363 0.037500 0.284052
v -0.168078 0.037500 0.322117
v -0.157895 0.037500 0.393579
v -0.118173 0.037500 0.474934
v -0.114399 0.037500 0.537773
v -0.192027 0.037500 0.561518
v -0.316371 0.037500 0.556900
v -0.526805 0.037500 0.529291
v -0.574195 -0.037500 0.337402
v -0.591458 -0.037500 0.223351
v -0.577715 -0.037500 0.150639
v -0.518729 -0.037498 0.150120
v -0.434574 -0.037500 0.179022
v -0.353894 -0.037500 0.176167
v -0.301264 -0.037500 0.101311
v -0.284998 -0.037500 -0.002064
v -0.309339 -0.037500 -0.069548
v -0.372891 -0.037500 -0.059126
v -0.451706 -0.037500 -0.018391
v -0.516191 -0.037500 -0.017328
v -0.544470 -0.037500 -0.104343
v -0.545514 -0.037500 -0.241510
v -0.526805 -0.037500 -0.472618
v -0.323752 -0.037500 -0.433189
v -0.203195 -0.037500 -0.423731
v -0.126626 -0.037500 -0.449413
v -0.127115 -0.037500 -0.523561
v -0.161032 -0.037500 -0.618017
v -0.165562 -0.037500 -0.694206
v -0.098627 -0.037500 -0.721933
v -0.001087 -0.037500 -0.704561
v 0.065467 -0.037500 -0.653839
v 0.060536 -0.037500 -0.582989
v 0.027983 -0.037498 -0.511133
v 0.032761 -0.037500 -0.458874
v 0.119638 -0.037500 -0.440680
v 0.474893 -0.037500 -0.472618
v 0.445648 -0.037500 -0.250626
v 0.441786 -0.037500 -0.118256
v 0.469994 -0.037500 -0.032896
v 0.541724 -0.037498 -0.030703
v 0.631606 -0.037500 -0.066193
v 0.705024 -0.037498 -0.073463
v 0.734077 -0.037500 -0.007809
v 0.717759 -0.037500 0.090712
v 0.661770 -0.037500 0.160845
v 0.575903 -0.037500 0.161640
v 0.486331 -0.037498 0.133324
v 0.423325 -0.037500 0.136429
v 0.408110 -0.037500 0.213016
v 0.425717 -0.037500 0.331251
v 0.474893 -0.037500 0.529291
v 0.262149 -0.037500 0.550039
v 0.134045 -0.037500 0.550959
v 0.048605 -0.037500 0.525656
v 0.039742 -0.037500 0.464760
v 0.065094 -0.037498 0.387352
v 0.063230 -0.037500 0.319611
v -0.006853 -0.037500 0.283491
v -0.104363 -0.037500 0.284052
v -0.168078 -0.037500 0.322117
v -0.157895 -0.037500 0.393579
v -0.118173 -0.037500 0.474934
v -0.114399 -0.037500 0.537773
v -0.192027 -0.037500 0.561518
v -0.316371 -0.037500 0.556900
v -0.526805 -0.037498 0.529291
v -0.574195 0.037500 0.337402
v -0.591458 0.037500 0.223351
v -0.577715 0.037500 0.150639
v -0.577715 0.037500 0.150639
v -0.518729 0.037500 0.150120
v -0.544470 0.037500 -0.104343
v -0.545514 0.037500 -0.241510
v -0.516191 0.037500 -0.017328
v -0.516191 0.037500 -0.017328
v -0.526805 0.037500 0.529291
v -0.526805 0.037500 0.529291
v -0.526805 0.037500 -0.472618
v -0.526805 0.037500 -0.472618
v -0.434574 0.037500 0.179022
v -0.451706 0.037500 -0.018391
v -0.372891 0.037500 -0.059126
v -0.323752 0.037500 -0.433189
v -0.353894 0.037500 0.176167
v -0.316371 0.037500 0.556900
v -0.309339 0.037500 -0.069548
v -0.309339 0.037500 -0.069548
v -0.301264 0.037500 0.101311
v -0.203195 0.037500 -0.423731
v -0.192027 0.037500 0.561518
v -0.284998 0.037500 -0.002064
v -0.126626 0.037500 -0.449413
v -0.126626 0.037500 -0.449413
v -0.114399 0.037500 0.537773
v -0.114399 0.037500 0.537773
v -0.168078 0.037500 0.322117
v -0.168078 0.037500 0.322117
v -0.157895 0.037500 0.393579
v -0.104363 0.037500 0.284052
v -0.161032 0.037500 -0.618017
v -0.165562 0.037500 -0.694206
v -0.165562 0.037500 -0.694206
v -0.098627 0.037500 -0.721933
v -0.127115 0.037500 -0.523561
v -0.118173 0.037500 0.474934
v -0.006853 0.037500 0.283491
v -0.001087 0.037500 -0.704561
v 0.063230 0.037500 0.319611
v 0.063230 0.037500 0.319611
v 0.065467 0.037500 -0.653839
v 0.027983 0.037500 -0.511133
v 0.032761 0.037500 -0.458874
v 0.032761 0.037500 -0.458874
v 0.060536 0.037500 -0.582989
v 0.119638 0.037500 -0.440680
v 0.048605 0.037500 0.525656
v 0.048605 0.037500 0.525656
v 0.039742 0.037500 0.464760
v 0.065094 0.037500 0.387352
v 0.134045 0.037500 0.550959
v 0.262149 0.037500 0.550039
v 0.474893 0.037500 0.529291
v 0.474893 0.037500 0.529291
v 0.408110 0.037500 0.213016
v 0.425717 0.037500 0.331251
v 0.423325 0.037500 0.136429
v 0.423325 0.037500 0.136429
v 0.486331 0.037500 0.133324
v 0.441786 0.037500 -0.118256
v 0.469994 0.037500 -0.032896
v 0.469994 0.037500 -0.032896
v 0.445648 0.037500 -0.250626
v 0.474893 0.037500 -0.472618
v 0.474893 0.037500 -0.472618
v 0.541724 0.037500 -0.030703
v 0.575903 0.037500 0.161640
v 0.631606 0.037500 -0.066193
v 0.661770 0.037500 0.160845
v 0.705024 0.037500 -0.073463
v 0.705024 0.037500 -0.073463
v 0.717759 0.037500 0.090712
v 0.734077 0.037500 -0.007809
v -0.574195 -0.037500 0.337402
v -0.591458 -0.037500 0.223351
v -0.577715 -0.037500 0.150639
v -0.577715 -0.037500 0.150639
v -0.518729 -0.037498 0.150120
v -0.544470 -0.037500 -0.104343
v -0.545514 -0.037500 -0.241510
v -0.516191 -0.037500 -0.017328
v -0.516191 -0.037500 -0.017328
v -0.526805 -0.037498 0.529291
v -0.526805 -0.037498 0.529291
v -0.526805 -0.037500 -0.472618
v -0.526805 -0.037500 -0.472618
v -0.434574 -0.037500 0.179022
v -0.451706 -0.037500 -0.018391
v -0.372891 -0.037500 -0.059126
v -0.323752 -0.037500 -0.433189
v -0.353894 -0.037500 0.176167
v -0.316371 -0.037500 0.556900
v -0.309339 -0.037500 -0.069548
v -0.309339 -0.037500 -0.069548
v -0.301264 -0.037500 0.101311
v -0.203195 -0.037500 -0.423731
v -0.192027 -0.037500 0.561518
v -0.284998 -0.037500 -0.002064
v -0.126626 -0.037500 -0.449413
v -0.126626 -0.037500 -0.449413
v -0.114399 -0.037500 0.537773
v -0.114399 -0.037500 0.537773
v -0.168078 -0.037500 0.322117
v -0.168078 -0.037500 0.322117
v -0.157895 -0.037500 0.393579
v -0.104363 -0.037500 0.284052
v -0.161032 -0.037500 -0.618017
v -0.165562 -0.037500 -0.694206
v -0.165562 -0.037500 -0.694206
v -0.098627 -0.037500 -0.721933
v -0.127115 -0.037500 -0.523561
v -0.118173 -0.037500 0.474934
v -0.006853 -0.037500 0.283491
v -0.001087 -0.037500 -0.704561
v 0.063230 -0.037500 0.319611
v 0.063230 -0.037500 0.319611
v 0.065467 -0.037500 -0.653839
v 0.027983 -0.037498 -0.511133
v 0.032761 -0.037500 -0.458874
v 0.032761 -0.037500 -0.458874
v 0.060536 -0.037500 -0.582989
v 0.119638 -0.037500 -0.440680
v 0.048605 -0.037500 0.525656
v 0.048605 -0.037500 0.525656
v 0.039742 -0.037500 0.464760
v 0.065094 -0.037498 0.387352
v 0.134045 -0.037500 0.550959
v 0.262149 -0.037500 0.550039
v 0.474893 -0.037500 0.529291
v 0.474893 -0.037500 0.529291
v 0.408110 -0.037500 0.213016
v 0.425717 -0.037500 0.331251
v 0.423325 -0.037500 0.136429
v 0.423325 -0.037500 0.136429
v 0.486331 -0.037498 0.133324
v 0.441786 -0.037500 -0.118256
v 0.469994 -0.037500 -0.032896
v 0.469994 -0.037500 -0.032896
v 0.445648 -0.037500 -0.250626
v 0.474893 -0.037500 -0.472618
v 0.474893 -0.037500 -0.472618
v 0.541724 -0.037498 -0.030703
v 0.575903 -0.037500 0.161640
v 0.631606 -0.037500 -0.066193
v 0.661770 -0.037500 0.160845
v 0.705024 -0.037498 -0.073463
v 0.705024 -0.037498 -0.073463
v 0.717759 -0.037500 0.090712
v 0.734077 -0.037500 -0.007809
vt 0.500000 0.500000
vt 0.500000 0.500000
vt 0.500000 0.500000
vt 0.500000 0.500000
vt 0.500000 0.500000
vt 0.500000 0.500000
vt 0.500000 0.500000
vt 0.500000 0.500000
vt 0.500000 0.500000
vt 0.500000 0.500000
vt 0.500000 0.500000
vt 0.500000 0.500000
vt 0.500000 0.500000
vt 0.500000 0.500000
vt 0.500000 0.500000
vt 0.500000 0.500000
vt 0.500000 0.500000
vt 0.500000 0.500000
vt 0.500000 0.500000
vt 0.500000 0.500000
vt 0.500000 0.500000
vt 0.500000 0.500000
vt 0.500000 0.500000
vt 0.500000 0.500000
vt 0.500000 0.500000
vt 0.500000 0.500000
vt 0.500000 0.500000
vt 0.500000 0.500000
vt 0.500000 0.500000
vt 0.500000 0.500000
vt 0.500000 0.500000
vt 0.500000 0.500000
vt 0.500000 0.500000
vt 0.500000 0.500000
vt 0.500000 0.500000
vt 0.500000 0.500000
vt 0.500000 0.500000
vt 0.500000 0.500000
vt 0.500000 0.500000
vt 0.500000 0.500000
vt 0.500000 0.500000
vt 0.500000 0.500000
vt 0.500000 0.500000
vt 0.500000 0.500000
vt 0.500000 0.500000
vt 0.500000 0.500000
vt 0.500000 0.500000
vt 0.500000 0.500000
vt 0.500000 0.500000
vt 0.500000 0.500000
vt 0.500000 0.500000
vt 0.500000 0.500000
vt 0.500000 0.500000
vt 0.500000 0.500000
vt 0.500000 0.500000
vt 0.500000 0.500000
vt 0.500000 0.500000
vt 0.500000 0.500000
vt 0.500000 0.500000
vt 0.500000 0.500000
vt 0.500000 0.500000
vt 0.500000 0.500000
vt 0.500000 0.500000
vt 0.500000 0.500000
vt 0.500000 0.500000
vt 0.500000 0.500000
vt 0.500000 0.500000
vt 0.500000 0.500000
vt 0.500000 0.500000
vt 0.500000 0.500000
vt 0.500000 0.500000
vt 0.500000 0.500000
vt 0.500000 0.500000
vt 0.500000 0.500000
vt 0.500000 0.500000
vt 0.500000 0.500000
vt 0.500000 0.500000
vt 0.500000 0.500000
vt 0.500000 0.500000
vt 0.500000 0.500000
vt 0.500000 0.500000
vt 0.500000 0.500000
vt 0.500000 0.500000
vt 0.500000 0.500000
vt 0.500000 0.500000
vt 0.500000 0.500000
vt 0.500000 0.500000
vt 0.500000 0.500000
vt 0.500000 0.500000
vt 0.500000 0.500000
vt 0.500000 0.500000
vt 0.500000 0.500000
vt 0.500000 0.500000
vt 0.500000 0.500000
vt 0.500000 0.500000
vt 0.500000 0.500000
vt 0.500000 0.500000
vt 0.500000 0.500000
vt 0.500000 0.500000
vt 0.500000 0.500000
vt 0.500000 0.500000
vt 0.500000 0.500000
vt 0.500000 0.500000
vt 0.500000 0.500000
vt 0.500000 0.500000
vt 0.500000 0.500000
vt 0.500000 0.500000
vt 0.500000 0.500000
vt 0.500000 0.500000
vt 0.500000 0.500000
vt 0.500000 0.500000
vt 0.500000 0.500000
vt 0.500000 0.500000
vt 0.500000 0.500000
vt 0.500000 0.500000
vt 0.500000 0.500000
vt 0.500000 0.500000
vt 0.500000 0.500000
vt 0.500000 0.500000
vt 0.500000 0.500000
vt 0.500000 0.500000
vt 0.500000 0.500000
vt 0.500000 0.500000
vt 0.500000 0.500000
vt 0.500000 0.500000
vt 0.500000 0.500000
vt 0.500000 0.500000
vt 0.500000 0.500000
vt 0.500000 0.500000
vt 0.500000 0.500000
vt 0.500000 0.500000
vt 0.500000 0.500000
vt 0.500000 0.500000
vt 0.500000 0.500000
vt 0.500000 0.500000
vt 0.500000 0.500000
vt 0.500000 0.500000
vt 0.500000 0.500000
vt 0.500000 0.500000
vt 0.500000 0.500000
vt 0.500000 0.500000
vt 0.500000 0.500000
vt 0.500000 0.500000
vt 0.500000 0.500000
vt 0.500000 0.500000
vt 0.500000 0.500000
vt 0.500000 0.500000
vt 0.500000 0.500000
vt 0.500000 0.500000
vt 0.500000 0.500000
vt 0.500000 0.500000
vt 0.500000 0.500000
vt 0.500000 0.500000
vt 0.500000 0.500000
vt 0.500000 0.500000
vt 0.500000 0.500000
vt 0.500000 0.500000
vt 0.500000 0.500000
vt 0.500000 0.500000
vt 0.500000 0.500000
vt 0.500000 0.500000
vt 0.500000 0.500000
vt 0.500000 0.500000
vt 0.500000 0.500000
vt 0.500000 0.500000
vt 0.500000 0.500000
vt 0.500000 0.500000
vt 0.500000 0.500000
vt 0.500000 0.500000
vt 0.500000 0.500000
vt 0.500000 0.500000
vt 0.500000 0.500000
vt 0.500000 0.500000
vt 0.500000 0.500000
vt 0.500000 0.500000
vt 0.500000 0.500000
vt 0.500000 0.500000
vt 0.500000 0.500000
vt 0.500000 0.500000
vt 0.500000 0.500000
vt 0.500000 0.500000
vt 0.500000 0.500000
vt 0.500000 0.500000
vt 0.500000 0.500000
vt 0.500000 0.500000
vt 0.500000 0.500000
vt 0.500000 0.500000
vt 0.500000 0.500000
vt 0.500000 0.500000
vt 0.500000 0.500000
vt 0.500000 0.500000
vt 0.500000 0.500000
vt 0.500000 0.500000
vt 0.500000 0.500000
vt 0.500000 0.500000
vt 0.500000 0.500000
vt 0.500000 0.500000
vt 0.500000 0.500000
vt 0.500000 0.500000
vt 0.500000 0.500000
vt 0.500000 0.500000
vt 0.500000 0.500000
vt 0.500000 0.500000
vt 0.500000 0.500000
vt 0.500000 0.500000
vt 0.500000 0.500000
vt 0.500000 0.500000
vt 0.500000 0.500000
vt 0.500000 0.500000
vt 0.500000 0.500000
vt 0.500000 0.500000
vt 0.302471 0.734424
vt 0.303946 0.734815
vt 0.302616 0.742466
vt 0.304901 0.734477
vt 0.304940 0.733080
vt 0.307014 0.733442
vt 0.312008 0.751051
vt 0.312500 0.755556
vt 0.309617 0.755971
vt 0.299656 0.750887
vt 0.304406 0.751720
vt 0.302394 0.756607
vt 0.303067 0.744021
vt 0.308079 0.734068
vt 0.305340 0.750552
vt 0.302585 0.747597
vt 0.307905 0.755948
vt 0.306833 0.753890
vt 0.307341 0.752141
vt 0.303060 0.746184
vt 0.315611 0.746057
vt 0.315265 0.747542
vt 0.314314 0.747441
vt 0.300678 0.746490
vt 0.301693 0.747371
vt 0.299598 0.748129
vt 0.301771 0.742425
vt 0.300805 0.742987
vt 0.299730 0.740895
vt 0.306701 0.727583
vt 0.307429 0.729857
vt 0.305472 0.727946
vt 0.306629 0.750191
vt 0.306820 0.755320
vt 0.312329 0.743142
vt 0.312981 0.743248
vt 0.312210 0.746678
vt 0.299741 0.738053
vt 0.307520 0.728228
vt 0.306987 0.731851
vt 0.304587 0.731093
vt 0.299894 0.746407
vt 0.312102 0.741215
vt 0.313877 0.742526
vt 0.314761 0.742416
vt 0.315394 0.743893
vt 0.304731 0.755376
vt 0.304724 0.756685
vt 0.303817 0.756990
vt 0.311890 0.748376
vt 0.307471 0.750731
vt 0.313136 0.746689
vt 0.309730 0.733982
vt 0.300045 0.742790
vt 0.304597 0.729188
vt 0.300000 0.733333
vt 0.304370 0.753510
vt 0.300000 0.755556
vt 0.312500 0.733333
vn 0.0000 -1.0000 0.0000
vn -0.9887 0.0000 0.1497
vn -0.9826 0.0000 -0.1857
vn -0.0088 0.0000 -1.0000
vn -1.0000 0.0000 0.0076
vn -0.9510 0.0000 0.3091
vn -0.9708 0.0000 0.2398
vn -0.9967 0.0000 -0.0807
vn 0.3248 0.0000 -0.9458
vn 0.0165 0.0000 0.9999
vn 0.4591 0.0000 0.8884
vn 0.1906 0.0000 -0.9817
vn -0.0354 0.0000 -0.9994
vn -0.1301 0.0000 0.9915
vn 0.1618 0.0000 0.9868
vn -0.8180 0.0000 -0.5752
vn 0.0782 0.0000 -0.9969
vn -0.0371 0.0000 0.9993
vn -0.9407 0.0000 0.3393
vn -0.9878 0.0000 -0.1554
vn -0.3180 0.0000 -0.9481
vn 0.2925 0.0000 0.9563
vn 0.9900 0.0000 -0.1411
vn 0.5129 0.0000 0.8585
vn -0.9982 0.0000 0.0594
vn -0.3827 0.0000 -0.9239
vn -0.9412 0.0000 0.3379
vn 0.9982 0.0000 -0.0599
vn 0.8986 0.0000 -0.4388
vn -1.0000 0.0000 0.0066
vn 0.0058 0.0000 1.0000
vn 0.1753 0.0000 -0.9845
vn -0.4581 0.0000 0.8889
vn 0.6062 0.0000 -0.7953
vn 0.9958 0.0000 -0.0910
vn 0.9109 0.0000 0.4127
vn 0.9976 0.0000 0.0694
vn 0.2050 0.0000 -0.9788
vn -0.9896 0.0000 0.1440
vn -0.9503 0.0000 -0.3112
vn -0.2840 0.0000 0.9588
vn -0.9996 0.0000 0.0275
vn 0.0072 0.0000 1.0000
vn 0.0971 0.0000 0.9953
vn 0.9891 0.0000 -0.1473
vn 0.9808 0.0000 0.1949
vn 0.0492 0.0000 0.9988
vn 0.9495 0.0000 -0.3138
vn 0.9996 0.0000 0.0292
vn 0.9914 0.0000 0.1306
vn -0.0895 0.0000 -0.9960
vn 0.9705 0.0000 -0.2410
vn 0.0306 0.0000 -0.9995
vn -0.3014 0.0000 0.9535
vn -0.3673 0.0000 -0.9301
vn 0.0093 0.0000 1.0000
vn -0.0986 0.0000 -0.9951
vn 0.7815 0.0000 0.6239
vn 0.9866 0.0000 0.1634
vn 0.9145 0.0000 -0.4047
vn 0.0000 1.0000 0.0000
usemtl BackMat.001
s off
f 253/1/1 236/2/1 252/3/1
f 254/4/1 258/5/1 256/6/1
f 211/7/1 201/8/1 206/9/1
f 213/10/1 195/11/1 212/12/1
f 234/13/1 257/14/1 254/4/1
f 216/15/1 224/16/1 212/12/1
f 200/17/1 210/18/1 209/19/1
f 227/20/1 224/16/1 216/15/1
f 258/5/1 254/4/1 257/14/1
f 231/21/1 228/22/1 229/23/1
f 233/24/1 218/25/1 226/26/1
f 247/27/1 248/28/1 246/29/1
f 270/30/1 269/31/1 265/32/1
f 227/20/1 219/33/1 234/13/1
f 200/17/1 209/19/1 202/34/1
f 240/35/1 220/36/1 239/37/1
f 248/28/1 247/27/1 249/38/1
f 213/10/1 226/26/1 218/25/1
f 224/16/1 213/10/1 212/12/1
f 267/39/1 270/30/1 265/32/1
f 253/1/1 247/27/1 236/2/1
f 263/40/1 269/31/1 264/41/1
f 222/42/1 218/25/1 233/24/1
f 257/14/1 234/13/1 243/43/1
f 242/44/1 235/45/1 238/46/1
f 219/33/1 227/20/1 216/15/1
f 265/32/1 269/31/1 263/40/1
f 199/47/1 196/48/1 197/49/1
f 252/3/1 236/2/1 254/4/1
f 217/50/1 214/51/1 211/7/1
f 228/22/1 235/45/1 232/52/1
f 243/43/1 219/33/1 240/35/1
f 243/43/1 234/13/1 219/33/1
f 260/53/1 257/14/1 243/43/1
f 256/6/1 263/40/1 264/41/1
f 214/51/1 210/18/1 201/8/1
f 249/38/1 247/27/1 253/1/1
f 201/8/1 210/18/1 200/17/1
f 235/45/1 228/22/1 231/21/1
f 244/54/1 246/29/1 248/28/1
f 219/33/1 214/51/1 240/35/1
f 236/2/1 234/13/1 254/4/1
f 263/40/1 256/6/1 258/5/1
f 211/7/1 214/51/1 201/8/1
f 242/44/1 232/52/1 235/45/1
f 239/37/1 220/36/1 232/52/1
f 240/35/1 214/51/1 220/36/1
f 266/55/1 264/41/1 269/31/1
f 249/38/1 253/1/1 250/56/1
f 212/12/1 195/11/1 208/57/1
f 239/37/1 232/52/1 242/44/1
f 226/26/1 213/10/1 224/16/1
f 208/57/1 196/48/1 199/47/1
f 195/11/1 213/10/1 204/58/1
f 220/36/1 214/51/1 217/50/1
f 196/48/1 208/57/1 195/11/1
f 260/53/1 243/43/1 261/59/1
f 1/60/2 2/61/2 61/62/2 60/63/2
f 2/61/3 122/64/3 198/65/3 61/62/3
f 3/66/4 4/67/4 63/68/4 62/69/4
f 13/70/5 14/71/5 73/72/5 72/73/5
f 127/74/6 13/70/6 72/73/6 203/75/6
f 129/76/7 1/60/7 60/63/7 205/77/7
f 14/71/8 131/78/8 207/79/8 73/72/8
f 4/67/9 5/80/9 64/81/9 63/68/9
f 11/82/10 12/83/10 71/84/10 70/85/10
f 10/86/11 11/82/11 70/85/11 69/87/11
f 15/88/12 16/89/12 75/90/12 74/91/12
f 5/80/13 6/92/13 65/93/13 64/81/13
f 58/94/14 59/95/14 118/96/14 117/97/14
f 139/98/15 10/86/15 69/87/15 215/99/15
f 6/92/16 7/100/16 66/101/16 65/93/16
f 16/89/17 17/102/17 76/103/17 75/90/17
f 57/104/18 58/94/18 117/97/18 116/105/18
f 8/106/19 9/107/19 68/108/19 67/109/19
f 7/100/20 8/106/20 67/109/20 66/101/20
f 17/102/21 145/110/21 221/111/21 76/103/21
f 147/112/22 57/104/22 116/105/22 223/113/22
f 149/114/23 54/115/23 113/116/23 225/117/23
f 52/118/24 53/119/24 112/120/24 111/121/24
f 20/122/25 154/123/25 230/124/25 79/125/25
f 21/126/26 22/127/26 81/128/26 80/129/26
f 19/130/27 20/122/27 79/125/27 78/131/27
f 55/132/28 56/133/28 115/134/28 114/135/28
f 54/115/29 55/132/29 114/135/29 113/116/29
f 18/136/30 19/130/30 78/131/30 77/137/30
f 51/138/31 52/118/31 111/121/31 110/139/31
f 22/127/32 23/140/32 82/141/32 81/128/32
f 161/142/33 51/138/33 110/139/33 237/143/33
f 23/140/34 24/144/34 83/145/34 82/141/34
f 26/146/35 165/147/35 241/148/35 85/149/35
f 25/150/36 26/146/36 85/149/36 84/151/36
f 24/144/37 25/150/37 84/151/37 83/145/37
f 27/152/38 28/153/38 87/154/38 86/155/38
f 169/156/39 48/157/39 107/158/39 245/159/39
f 48/157/40 49/160/40 108/161/40 107/158/40
f 46/162/41 47/163/41 106/164/41 105/165/41
f 49/160/42 50/166/42 109/167/42 108/161/42
f 45/168/43 46/162/43 105/165/43 104/169/43
f 175/170/44 45/168/44 104/169/44 251/171/44
f 42/172/45 43/173/45 102/174/45 101/175/45
f 179/176/46 42/172/46 101/175/46 255/177/46
f 40/178/47 41/179/47 100/180/47 99/181/47
f 31/182/48 183/183/48 259/184/48 90/185/48
f 30/186/49 31/182/49 90/185/49 89/187/49
f 186/188/50 30/186/50 89/187/50 262/189/50
f 28/153/51 29/190/51 88/191/51 87/154/51
f 43/173/52 44/192/52 103/193/52 102/174/52
f 32/194/53 33/195/53 92/196/53 91/197/53
f 39/198/54 40/178/54 99/181/54 98/199/54
f 33/195/55 34/200/55 93/201/55 92/196/55
f 38/202/56 39/198/56 98/199/56 97/203/56
f 34/200/57 192/204/57 268/205/57 93/201/57
f 37/206/58 38/202/58 97/203/58 96/207/58
f 36/208/59 37/206/59 96/207/59 95/209/59
f 35/210/60 36/208/60 95/209/60 94/211/60
usemtl FrontMat.001
f 177/212/61 176/213/61 160/214/61
f 178/215/61 180/216/61 182/217/61
f 135/218/61 130/219/61 125/220/61
f 137/221/61 136/222/61 119/223/61
f 158/224/61 178/215/61 181/225/61
f 140/226/61 136/222/61 148/227/61
f 124/228/61 133/229/61 134/230/61
f 151/231/61 140/226/61 148/227/61
f 182/217/61 181/225/61 178/215/61
f 155/232/61 153/233/61 152/234/61
f 157/235/61 150/236/61 142/237/61
f 171/238/61 170/239/61 172/240/61
f 194/241/61 189/242/61 193/243/61
f 151/231/61 158/224/61 143/244/61
f 124/228/61 126/245/61 133/229/61
f 164/246/61 163/247/61 144/248/61
f 172/240/61 173/249/61 171/238/61
f 137/221/61 142/237/61 150/236/61
f 148/227/61 136/222/61 137/221/61
f 191/250/61 189/242/61 194/241/61
f 177/212/61 160/214/61 171/238/61
f 187/251/61 188/252/61 193/243/61
f 146/253/61 157/235/61 142/237/61
f 181/225/61 167/254/61 158/224/61
f 166/255/61 162/256/61 159/257/61
f 143/244/61 140/226/61 151/231/61
f 189/242/61 187/251/61 193/243/61
f 123/258/61 121/259/61 120/260/61
f 176/213/61 178/215/61 160/214/61
f 141/261/61 135/218/61 138/262/61
f 152/234/61 156/263/61 159/257/61
f 167/254/61 164/246/61 143/244/61
f 167/254/61 143/244/61 158/224/61
f 184/264/61 167/254/61 181/225/61
f 180/216/61 188/252/61 187/251/61
f 138/262/61 125/220/61 134/230/61
f 173/249/61 177/212/61 171/238/61
f 125/220/61 124/228/61 134/230/61
f 159/257/61 155/232/61 152/234/61
f 168/265/61 172/240/61 170/239/61
f 143/244/61 164/246/61 138/262/61
f 160/214/61 178/215/61 158/224/61
f 187/251/61 182/217/61 180/216/61
f 135/218/61 125/220/61 138/262/61
f 166/255/61 159/257/61 156/263/61
f 163/247/61 156/263/61 144/248/61
f 164/246/61 144/248/61 138/262/61
f 190/266/61 193/243/61 188/252/61
f 173/249/61 174/267/61 177/212/61
f 136/222/61 132/268/61 119/223/61
f 163/247/61 166/255/61 156/263/61
f 150/236/61 148/227/61 137/221/61
f 132/268/61 123/258/61 120/260/61
f 119/223/61 128/269/61 137/221/61
f 144/248/61 141/261/61 138/262/61
f 120/260/61 119/223/61 132/268/61
f 184/264/61 185/270/61 167/254/61
