# Blender v2.83.1 OBJ File: 'jigsaw-80x45-3-step2.blend'
# www.blender.org
mtllib piece.1579.mtl
o path3158
v 0.279400 0.037500 0.546818
v 0.165607 0.037500 0.557949
v 0.092449 0.037500 0.534481
v 0.090767 0.037500 0.462238
v 0.119688 0.037500 0.365692
v 0.120417 0.037500 0.278934
v 0.053505 0.037500 0.230473
v -0.043036 0.037500 0.226467
v -0.111843 0.037500 0.267494
v -0.115053 0.037500 0.348492
v -0.092756 0.037500 0.441879
v -0.104532 0.037500 0.514439
v -0.191278 0.037500 0.542034
v -0.319437 0.037500 0.536922
v -0.531290 0.037500 0.505432
v -0.570158 0.037500 0.145794
v -0.548891 0.037500 0.059540
v -0.487724 0.037500 0.058022
v -0.406988 0.037500 0.094597
v -0.334946 0.037500 0.101795
v -0.295147 0.037500 0.034000
v -0.292307 0.037500 -0.066937
v -0.326431 0.037500 -0.137302
v -0.393040 0.037500 -0.134571
v -0.469921 0.037500 -0.100956
v -0.530397 0.037500 -0.099857
v -0.555025 0.037500 -0.175446
v -0.553291 0.037500 -0.294952
v -0.531290 0.037500 -0.496475
v -0.184721 0.037500 -0.521011
v -0.098158 0.037500 -0.501553
v -0.089909 0.037500 -0.450447
v -0.117414 0.037500 -0.381386
v -0.118813 0.037500 -0.313774
v -0.052332 0.037500 -0.265923
v 0.043375 0.037500 -0.251648
v 0.109562 0.037500 -0.283661
v 0.107309 0.037500 -0.365662
v 0.077019 0.037500 -0.465290
v 0.078920 0.037500 -0.541168
v 0.154799 0.037500 -0.563309
v 0.272656 0.037500 -0.547310
v 0.470408 0.037500 -0.496475
v 0.442945 0.037500 -0.303760
v 0.437086 0.037500 -0.188198
v 0.457100 0.037500 -0.112202
v 0.513538 0.037500 -0.106495
v 0.590078 0.037500 -0.130756
v 0.663671 0.037500 -0.126915
v 0.713289 0.037500 -0.056637
v 0.725965 0.037500 0.039463
v 0.690746 0.037500 0.101040
v 0.605471 0.037500 0.089073
v 0.503111 0.037500 0.049812
v 0.425423 0.037500 0.050838
v 0.402622 0.037500 0.138649
v 0.418755 0.037500 0.275528
v 0.470407 0.037500 0.505432
v 0.279400 -0.037500 0.546818
v 0.165607 -0.037498 0.557949
v 0.092449 -0.037498 0.534481
v 0.090767 -0.037498 0.462238
v 0.119688 -0.037500 0.365692
v 0.120417 -0.037500 0.278934
v 0.053505 -0.037498 0.230473
v -0.043036 -0.037500 0.226467
v -0.111843 -0.037500 0.267494
v -0.115053 -0.037500 0.348492
v -0.092756 -0.037500 0.441879
v -0.104532 -0.037500 0.514439
v -0.191278 -0.037500 0.542034
v -0.319437 -0.037500 0.536922
v -0.531290 -0.037498 0.505432
v -0.570158 -0.037500 0.145794
v -0.548891 -0.037500 0.059540
v -0.487724 -0.037500 0.058022
v -0.406988 -0.037500 0.094597
v -0.334946 -0.037500 0.101795
v -0.295147 -0.037500 0.034000
v -0.292307 -0.037498 -0.066937
v -0.326431 -0.037500 -0.137302
v -0.393040 -0.037500 -0.134571
v -0.469921 -0.037500 -0.100956
v -0.530397 -0.037500 -0.099857
v -0.555025 -0.037500 -0.175446
v -0.553291 -0.037500 -0.294952
v -0.531290 -0.037500 -0.496475
v -0.184721 -0.037498 -0.521011
v -0.098158 -0.037500 -0.501553
v -0.089909 -0.037500 -0.450447
v -0.117414 -0.037500 -0.381386
v -0.118813 -0.037500 -0.313774
v -0.052332 -0.037500 -0.265923
v 0.043375 -0.037500 -0.251648
v 0.109562 -0.037500 -0.283661
v 0.107309 -0.037500 -0.365662
v 0.077019 -0.037500 -0.465290
v 0.078920 -0.037498 -0.541168
v 0.154799 -0.037500 -0.563309
v 0.272656 -0.037500 -0.547310
v 0.470408 -0.037500 -0.496475
v 0.442945 -0.037500 -0.303760
v 0.437086 -0.037500 -0.188198
v 0.457100 -0.037500 -0.112202
v 0.513538 -0.037500 -0.106495
v 0.590078 -0.037500 -0.130756
v 0.663671 -0.037500 -0.126915
v 0.713289 -0.037498 -0.056637
v 0.725965 -0.037500 0.039463
v 0.690746 -0.037498 0.101040
v 0.605471 -0.037500 0.089073
v 0.503111 -0.037500 0.049812
v 0.425423 -0.037500 0.050838
v 0.402622 -0.037500 0.138649
v 0.418755 -0.037500 0.275528
v 0.470407 -0.037500 0.505432
v 0.713289 0.037500 -0.056637
v 0.725965 0.037500 0.039463
v 0.690746 0.037500 0.101040
v 0.690746 0.037500 0.101040
v 0.663671 0.037500 -0.126915
v 0.605471 0.037500 0.089073
v 0.590078 0.037500 -0.130756
v 0.503111 0.037500 0.049812
v 0.513538 0.037500 -0.106495
v 0.457100 0.037500 -0.112202
v 0.457100 0.037500 -0.112202
v 0.425423 0.037500 0.050838
v 0.425423 0.037500 0.050838
v 0.470408 0.037500 -0.496475
v 0.470408 0.037500 -0.496475
v 0.442945 0.037500 -0.303760
v 0.437086 0.037500 -0.188198
v 0.418755 0.037500 0.275528
v 0.470407 0.037500 0.505432
v 0.470407 0.037500 0.505432
v 0.402622 0.037500 0.138649
v 0.279400 0.037500 0.546818
v 0.272656 0.037500 -0.547310
v 0.165607 0.037500 0.557949
v 0.154799 0.037500 -0.563309
v 0.092449 0.037500 0.534481
v 0.092449 0.037500 0.534481
v 0.078920 0.037500 -0.541168
v 0.078920 0.037500 -0.541168
v 0.109562 0.037500 -0.283661
v 0.109562 0.037500 -0.283661
v 0.107309 0.037500 -0.365662
v 0.119688 0.037500 0.365692
v 0.120417 0.037500 0.278934
v 0.053505 0.037500 0.230473
v 0.090767 0.037500 0.462238
v 0.043375 0.037500 -0.251648
v 0.077019 0.037500 -0.465290
v -0.043036 0.037500 0.226467
v -0.052332 0.037500 -0.265923
v -0.111843 0.037500 0.267494
v -0.118813 0.037500 -0.313774
v -0.098158 0.037500 -0.501553
v -0.098158 0.037500 -0.501553
v -0.089909 0.037500 -0.450447
v -0.117414 0.037500 -0.381386
v -0.115053 0.037500 0.348492
v -0.092756 0.037500 0.441879
v -0.104532 0.037500 0.514439
v -0.104532 0.037500 0.514439
v -0.184721 0.037500 -0.521011
v -0.191278 0.037500 0.542034
v -0.295147 0.037500 0.034000
v -0.292307 0.037500 -0.066937
v -0.319437 0.037500 0.536922
v -0.326431 0.037500 -0.137302
v -0.326431 0.037500 -0.137302
v -0.334946 0.037500 0.101795
v -0.334946 0.037500 0.101795
v -0.393040 0.037500 -0.134571
v -0.406988 0.037500 0.094597
v -0.469921 0.037500 -0.100956
v -0.487724 0.037500 0.058022
v -0.531290 0.037500 -0.496475
v -0.531290 0.037500 -0.496475
v -0.530397 0.037500 -0.099857
v -0.530397 0.037500 -0.099857
v -0.548891 0.037500 0.059540
v -0.548891 0.037500 0.059540
v -0.531290 0.037500 0.505432
v -0.531290 0.037500 0.505432
v -0.555025 0.037500 -0.175446
v -0.553291 0.037500 -0.294952
v -0.570158 0.037500 0.145794
v 0.713289 -0.037498 -0.056637
v 0.725965 -0.037500 0.039463
v 0.690746 -0.037498 0.101040
v 0.690746 -0.037498 0.101040
v 0.663671 -0.037500 -0.126915
v 0.605471 -0.037500 0.089073
v 0.590078 -0.037500 -0.130756
v 0.503111 -0.037500 0.049812
v 0.513538 -0.037500 -0.106495
v 0.457100 -0.037500 -0.112202
v 0.457100 -0.037500 -0.112202
v 0.425423 -0.037500 0.050838
v 0.425423 -0.037500 0.050838
v 0.470408 -0.037500 -0.496475
v 0.470408 -0.037500 -0.496475
v 0.442945 -0.037500 -0.303760
v 0.437086 -0.037500 -0.188198
v 0.418755 -0.037500 0.275528
v 0.470407 -0.037500 0.505432
v 0.470407 -0.037500 0.505432
v 0.402622 -0.037500 0.138649
v 0.279400 -0.037500 0.546818
v 0.272656 -0.037500 -0.547310
v 0.165607 -0.037498 0.557949
v 0.154799 -0.037500 -0.563309
v 0.092449 -0.037498 0.534481
v 0.092449 -0.037498 0.534481
v 0.078920 -0.037498 -0.541168
v 0.078920 -0.037498 -0.541168
v 0.109562 -0.037500 -0.283661
v 0.109562 -0.037500 -0.283661
v 0.107309 -0.037500 -0.365662
v 0.119688 -0.037500 0.365692
v 0.120417 -0.037500 0.278934
v 0.053505 -0.037498 0.230473
v 0.090767 -0.037498 0.462238
v 0.043375 -0.037500 -0.251648
v 0.077019 -0.037500 -0.465290
v -0.043036 -0.037500 0.226467
v -0.052332 -0.037500 -0.265923
v -0.111843 -0.037500 0.267494
v -0.118813 -0.037500 -0.313774
v -0.098158 -0.037500 -0.501553
v -0.098158 -0.037500 -0.501553
v -0.089909 -0.037500 -0.450447
v -0.117414 -0.037500 -0.381386
v -0.115053 -0.037500 0.348492
v -0.092756 -0.037500 0.441879
v -0.104532 -0.037500 0.514439
v -0.104532 -0.037500 0.514439
v -0.184721 -0.037498 -0.521011
v -0.191278 -0.037500 0.542034
v -0.295147 -0.037500 0.034000
v -0.292307 -0.037498 -0.066937
v -0.319437 -0.037500 0.536922
v -0.326431 -0.037500 -0.137302
v -0.326431 -0.037500 -0.137302
v -0.334946 -0.037500 0.101795
v -0.334946 -0.037500 0.101795
v -0.393040 -0.037500 -0.134571
v -0.406988 -0.037500 0.094597
v -0.469921 -0.037500 -0.100956
v -0.487724 -0.037500 0.058022
v -0.531290 -0.037500 -0.496475
v -0.531290 -0.037500 -0.496475
v -0.530397 -0.037500 -0.099857
v -0.530397 -0.037500 -0.099857
v -0.548891 -0.037500 0.059540
v -0.548891 -0.037500 0.059540
v -0.531290 -0.037498 0.505432
v -0.531290 -0.037498 0.505432
v -0.555025 -0.037500 -0.175446
v -0.553291 -0.037500 -0.294952
v -0.570158 -0.037500 0.145794
vt 0.500000 0.500000
vt 0.500000 0.500000
vt 0.500000 0.500000
vt 0.500000 0.500000
vt 0.500000 0.500000
vt 0.500000 0.500000
vt 0.500000 0.500000
vt 0.500000 0.500000
vt 0.500000 0.500000
vt 0.500000 0.500000
vt 0.500000 0.500000
vt 0.500000 0.500000
vt 0.500000 0.500000
vt 0.500000 0.500000
vt 0.500000 0.500000
vt 0.500000 0.500000
vt 0.500000 0.500000
vt 0.500000 0.500000
vt 0.500000 0.500000
vt 0.500000 0.500000
vt 0.500000 0.500000
vt 0.500000 0.500000
vt 0.500000 0.500000
vt 0.500000 0.500000
vt 0.500000 0.500000
vt 0.500000 0.500000
vt 0.500000 0.500000
vt 0.500000 0.500000
vt 0.500000 0.500000
vt 0.500000 0.500000
vt 0.500000 0.500000
vt 0.500000 0.500000
vt 0.500000 0.500000
vt 0.500000 0.500000
vt 0.500000 0.500000
vt 0.500000 0.500000
vt 0.500000 0.500000
vt 0.500000 0.500000
vt 0.500000 0.500000
vt 0.500000 0.500000
vt 0.500000 0.500000
vt 0.500000 0.500000
vt 0.500000 0.500000
vt 0.500000 0.500000
vt 0.500000 0.500000
vt 0.500000 0.500000
vt 0.500000 0.500000
vt 0.500000 0.500000
vt 0.500000 0.500000
vt 0.500000 0.500000
vt 0.500000 0.500000
vt 0.500000 0.500000
vt 0.500000 0.500000
vt 0.500000 0.500000
vt 0.500000 0.500000
vt 0.500000 0.500000
vt 0.500000 0.500000
vt 0.500000 0.500000
vt 0.500000 0.500000
vt 0.500000 0.500000
vt 0.500000 0.500000
vt 0.500000 0.500000
vt 0.500000 0.500000
vt 0.500000 0.500000
vt 0.500000 0.500000
vt 0.500000 0.500000
vt 0.500000 0.500000
vt 0.500000 0.500000
vt 0.500000 0.500000
vt 0.500000 0.500000
vt 0.500000 0.500000
vt 0.500000 0.500000
vt 0.500000 0.500000
vt 0.500000 0.500000
vt 0.500000 0.500000
vt 0.500000 0.500000
vt 0.500000 0.500000
vt 0.500000 0.500000
vt 0.500000 0.500000
vt 0.500000 0.500000
vt 0.500000 0.500000
vt 0.500000 0.500000
vt 0.500000 0.500000
vt 0.500000 0.500000
vt 0.500000 0.500000
vt 0.500000 0.500000
vt 0.500000 0.500000
vt 0.500000 0.500000
vt 0.500000 0.500000
vt 0.500000 0.500000
vt 0.500000 0.500000
vt 0.500000 0.500000
vt 0.500000 0.500000
vt 0.500000 0.500000
vt 0.500000 0.500000
vt 0.500000 0.500000
vt 0.500000 0.500000
vt 0.500000 0.500000
vt 0.500000 0.500000
vt 0.500000 0.500000
vt 0.500000 0.500000
vt 0.500000 0.500000
vt 0.500000 0.500000
vt 0.500000 0.500000
vt 0.500000 0.500000
vt 0.500000 0.500000
vt 0.500000 0.500000
vt 0.500000 0.500000
vt 0.500000 0.500000
vt 0.500000 0.500000
vt 0.500000 0.500000
vt 0.500000 0.500000
vt 0.500000 0.500000
vt 0.500000 0.500000
vt 0.500000 0.500000
vt 0.500000 0.500000
vt 0.500000 0.500000
vt 0.500000 0.500000
vt 0.500000 0.500000
vt 0.500000 0.500000
vt 0.500000 0.500000
vt 0.500000 0.500000
vt 0.500000 0.500000
vt 0.500000 0.500000
vt 0.500000 0.500000
vt 0.500000 0.500000
vt 0.500000 0.500000
vt 0.500000 0.500000
vt 0.500000 0.500000
vt 0.500000 0.500000
vt 0.500000 0.500000
vt 0.500000 0.500000
vt 0.500000 0.500000
vt 0.500000 0.500000
vt 0.500000 0.500000
vt 0.500000 0.500000
vt 0.500000 0.500000
vt 0.500000 0.500000
vt 0.500000 0.500000
vt 0.500000 0.500000
vt 0.500000 0.500000
vt 0.500000 0.500000
vt 0.500000 0.500000
vt 0.500000 0.500000
vt 0.500000 0.500000
vt 0.500000 0.500000
vt 0.500000 0.500000
vt 0.500000 0.500000
vt 0.500000 0.500000
vt 0.500000 0.500000
vt 0.500000 0.500000
vt 0.500000 0.500000
vt 0.500000 0.500000
vt 0.500000 0.500000
vt 0.500000 0.500000
vt 0.500000 0.500000
vt 0.500000 0.500000
vt 0.500000 0.500000
vt 0.500000 0.500000
vt 0.500000 0.500000
vt 0.500000 0.500000
vt 0.500000 0.500000
vt 0.500000 0.500000
vt 0.500000 0.500000
vt 0.500000 0.500000
vt 0.500000 0.500000
vt 0.500000 0.500000
vt 0.500000 0.500000
vt 0.500000 0.500000
vt 0.500000 0.500000
vt 0.500000 0.500000
vt 0.500000 0.500000
vt 0.500000 0.500000
vt 0.500000 0.500000
vt 0.500000 0.500000
vt 0.500000 0.500000
vt 0.500000 0.500000
vt 0.500000 0.500000
vt 0.500000 0.500000
vt 0.500000 0.500000
vt 0.500000 0.500000
vt 0.500000 0.500000
vt 0.500000 0.500000
vt 0.500000 0.500000
vt 0.500000 0.500000
vt 0.500000 0.500000
vt 0.500000 0.500000
vt 0.500000 0.500000
vt 0.500000 0.500000
vt 0.500000 0.500000
vt 0.500000 0.500000
vt 0.500000 0.500000
vt 0.500000 0.500000
vt 0.500000 0.500000
vt 0.500000 0.500000
vt 0.500000 0.500000
vt 0.500000 0.500000
vt 0.500000 0.500000
vt 0.500000 0.500000
vt 0.500000 0.500000
vt 0.500000 0.500000
vt 0.500000 0.500000
vt 0.500000 0.500000
vt 0.500000 0.500000
vt 0.500000 0.500000
vt 0.500000 0.500000
vt 0.732455 0.582666
vt 0.731687 0.583447
vt 0.732305 0.580774
vt 0.735757 0.569997
vt 0.738155 0.571016
vt 0.738016 0.573540
vt 0.724442 0.569093
vt 0.725389 0.569051
vt 0.724166 0.570776
vt 0.727279 0.564706
vt 0.726436 0.564737
vt 0.729481 0.560100
vt 0.731828 0.576780
vt 0.731816 0.578503
vt 0.729794 0.577483
vt 0.728846 0.577039
vt 0.727404 0.577169
vt 0.727655 0.569773
vt 0.734674 0.570013
vt 0.734632 0.576632
vt 0.729866 0.578735
vt 0.724694 0.563244
vt 0.727514 0.555068
vt 0.736961 0.569356
vt 0.737862 0.569393
vt 0.729005 0.555029
vt 0.729515 0.558623
vt 0.727876 0.566181
vt 0.730359 0.560857
vt 0.734020 0.566387
vt 0.735542 0.564790
vt 0.737957 0.563099
vt 0.736707 0.565284
vt 0.731618 0.560794
vt 0.732464 0.559911
vt 0.734531 0.564861
vt 0.729611 0.582065
vt 0.729563 0.580433
vt 0.730488 0.583166
vt 0.724366 0.573391
vt 0.726632 0.569723
vt 0.732374 0.558313
vt 0.737893 0.560255
vt 0.725000 0.577778
vt 0.733013 0.554693
vt 0.737500 0.555556
vt 0.731918 0.556522
vt 0.725574 0.565347
vt 0.737500 0.577778
vt 0.734070 0.568529
vt 0.732924 0.576274
vt 0.724937 0.565165
vt 0.729948 0.555575
vt 0.729935 0.556917
vt 0.737612 0.565023
vt 0.728055 0.568304
vt 0.725000 0.555556
vt 0.731937 0.555165
vn 0.0000 -1.0000 0.0000
vn 0.9914 0.0000 -0.1308
vn 0.8680 0.0000 0.4965
vn 0.8169 0.0000 -0.5768
vn -0.1390 0.0000 0.9903
vn 0.0521 0.0000 -0.9986
vn -0.3581 0.0000 0.9337
vn -0.3022 0.0000 -0.9533
vn 0.1006 0.0000 -0.9949
vn 0.0132 0.0000 0.9999
vn 0.9900 0.0000 0.1411
vn 0.9670 0.0000 -0.2547
vn 0.9757 0.0000 -0.2192
vn 0.9987 0.0000 0.0506
vn 0.9679 0.0000 0.2513
vn 0.9931 0.0000 -0.1170
vn 0.2118 0.0000 0.9773
vn 0.2490 0.0000 -0.9685
vn 0.0974 0.0000 0.9952
vn 0.1345 0.0000 -0.9909
vn -0.3055 0.0000 0.9522
vn -0.2801 0.0000 -0.9600
vn -0.9996 0.0000 0.0275
vn -1.0000 0.0000 -0.0084
vn -0.5866 0.0000 0.8099
vn -0.9579 0.0000 -0.2870
vn -0.9997 0.0000 0.0233
vn -0.4354 0.0000 -0.9002
vn -0.9997 0.0000 -0.0251
vn -0.9568 0.0000 0.2909
vn -0.0415 0.0000 0.9991
vn 0.1475 0.0000 -0.9891
vn 0.5121 0.0000 0.8589
vn 0.5842 0.0000 -0.8116
vn 0.9872 0.0000 -0.1594
vn 0.9290 0.0000 0.3700
vn 0.9727 0.0000 -0.2322
vn 0.9871 0.0000 0.1602
vn 0.2193 0.0000 -0.9757
vn 0.3031 0.0000 0.9529
vn 0.9992 0.0000 0.0396
vn 0.9998 0.0000 0.0207
vn -0.9996 0.0000 -0.0281
vn -0.0399 0.0000 0.9992
vn -0.8998 0.0000 0.4364
vn -0.8624 0.0000 -0.5063
vn 0.0410 0.0000 0.9992
vn 0.0994 0.0000 -0.9950
vn 0.4006 0.0000 0.9162
vn 0.4127 0.0000 -0.9109
vn -0.0706 0.0000 -0.9975
vn 0.0182 0.0000 0.9998
vn -0.0248 0.0000 -0.9997
vn -0.1470 0.0000 0.9891
vn -0.9508 0.0000 0.3098
vn -0.9941 0.0000 -0.1085
vn -0.9999 0.0000 -0.0145
vn -0.9709 0.0000 -0.2394
vn -0.9942 0.0000 0.1074
vn 0.0000 1.0000 0.0000
usemtl BackMat.001
s off
f 193/1/1 196/2/1 192/3/1
f 223/4/1 212/5/1 214/6/1
f 218/7/1 215/8/1 228/9/1
f 232/10/1 246/11/1 236/12/1
f 202/13/1 200/14/1 198/15/1
f 207/16/1 220/17/1 206/18/1
f 224/19/1 208/20/1 223/4/1
f 199/21/1 198/15/1 200/14/1
f 241/22/1 236/12/1 263/23/1
f 226/24/1 214/6/1 216/25/1
f 263/23/1 236/12/1 246/11/1
f 263/23/1 250/26/1 262/27/1
f 230/28/1 229/29/1 244/30/1
f 237/31/1 238/32/1 242/33/1
f 243/34/1 231/35/1 248/36/1
f 195/37/1 191/38/1 197/39/1
f 213/40/1 206/18/1 222/41/1
f 220/17/1 207/16/1 200/14/1
f 248/36/1 245/42/1 251/43/1
f 244/30/1 229/29/1 243/34/1
f 237/31/1 248/36/1 231/35/1
f 228/9/1 213/40/1 222/41/1
f 204/44/1 206/18/1 213/40/1
f 264/45/1 251/43/1 260/46/1
f 230/28/1 244/30/1 232/10/1
f 197/39/1 198/15/1 199/21/1
f 251/43/1 264/45/1 253/47/1
f 212/5/1 223/4/1 208/20/1
f 198/15/1 197/39/1 196/2/1
f 232/10/1 244/30/1 246/11/1
f 245/42/1 248/36/1 237/31/1
f 200/14/1 202/13/1 220/17/1
f 236/12/1 241/22/1 235/48/1
f 192/3/1 196/2/1 191/38/1
f 212/5/1 208/20/1 209/49/1
f 202/13/1 211/50/1 225/51/1
f 235/48/1 241/22/1 233/52/1
f 262/27/1 252/53/1 256/54/1
f 222/41/1 206/18/1 220/17/1
f 215/8/1 213/40/1 228/9/1
f 191/38/1 196/2/1 197/39/1
f 263/23/1 246/11/1 250/26/1
f 242/33/1 238/32/1 239/55/1
f 227/56/1 225/51/1 229/29/1
f 227/56/1 202/13/1 225/51/1
f 227/56/1 229/29/1 230/28/1
f 245/42/1 237/31/1 242/33/1
f 229/29/1 231/35/1 243/34/1
f 223/4/1 214/6/1 226/24/1
f 208/20/1 224/19/1 211/50/1
f 254/57/1 241/22/1 263/23/1
f 225/51/1 211/50/1 224/19/1
f 260/46/1 251/43/1 245/42/1
f 262/27/1 250/26/1 252/53/1
f 220/17/1 202/13/1 227/56/1
f 253/47/1 264/45/1 258/58/1
f 50/59/2 51/60/2 109/61/2 108/62/2
f 51/60/3 120/63/3 194/64/3 109/61/3
f 49/65/4 50/59/4 108/62/4 107/66/4
f 52/67/5 53/68/5 111/69/5 110/70/5
f 48/71/6 49/65/6 107/66/6 106/72/6
f 53/68/7 54/73/7 112/74/7 111/69/7
f 47/75/8 48/71/8 106/72/8 105/76/8
f 127/77/9 47/75/9 105/76/9 201/78/9
f 54/73/10 129/79/10 203/80/10 112/74/10
f 131/81/11 44/82/11 102/83/11 205/84/11
f 45/85/12 46/86/12 104/87/12 103/88/12
f 57/89/13 136/90/13 210/91/13 115/92/13
f 44/82/14 45/85/14 103/88/14 102/83/14
f 55/93/15 56/94/15 114/95/15 113/96/15
f 56/94/16 57/89/16 115/92/16 114/95/16
f 58/97/17 1/98/17 59/99/17 116/100/17
f 42/101/18 43/102/18 101/103/18 100/104/18
f 1/98/19 2/105/19 60/106/19 59/99/19
f 41/107/20 42/101/20 100/104/20 99/108/20
f 2/105/21 143/109/21 217/110/21 60/106/21
f 145/111/22 41/107/22 99/108/22 219/112/22
f 147/113/23 38/114/23 96/115/23 221/116/23
f 5/117/24 6/118/24 64/119/24 63/120/24
f 6/118/25 7/121/25 65/122/25 64/119/25
f 4/123/26 5/117/26 63/120/26 62/124/26
f 3/125/27 4/123/27 62/124/27 61/126/27
f 36/127/28 37/128/28 95/129/28 94/130/28
f 39/131/29 40/132/29 98/133/29 97/134/29
f 38/114/30 39/131/30 97/134/30 96/115/30
f 7/121/31 8/135/31 66/136/31 65/122/31
f 35/137/32 36/127/32 94/130/32 93/138/32
f 8/135/33 9/139/33 67/140/33 66/136/33
f 34/141/34 35/137/34 93/138/34 92/142/34
f 160/143/35 32/144/35 90/145/35 234/146/35
f 32/144/36 33/147/36 91/148/36 90/145/36
f 10/149/37 11/150/37 69/151/37 68/152/37
f 11/150/38 166/153/38 240/154/38 69/151/38
f 30/155/39 31/156/39 89/157/39 88/158/39
f 12/159/40 13/160/40 71/161/40 70/162/40
f 9/139/41 10/149/41 68/152/41 67/140/41
f 33/147/42 34/141/42 92/142/42 91/148/42
f 21/163/43 22/164/43 80/165/43 79/166/43
f 13/160/44 14/167/44 72/168/44 71/161/44
f 22/164/45 173/169/45 247/170/45 80/165/45
f 175/171/46 21/163/46 79/166/46 249/172/46
f 23/173/47 24/174/47 82/175/47 81/176/47
f 19/177/48 20/178/48 78/179/48 77/180/48
f 24/174/49 25/181/49 83/182/49 82/175/49
f 18/183/50 19/177/50 77/180/50 76/184/50
f 181/185/51 30/155/51 88/158/51 255/186/51
f 25/181/52 183/187/52 257/188/52 83/182/52
f 185/189/53 18/183/53 76/184/53 259/190/53
f 14/167/54 187/191/54 261/192/54 72/168/54
f 26/193/55 27/194/55 85/195/55 84/196/55
f 28/197/56 29/198/56 87/199/56 86/200/56
f 27/194/57 28/197/57 86/200/57 85/195/57
f 16/201/58 17/202/58 75/203/58 74/204/58
f 15/205/59 16/201/59 74/204/59 73/206/59
usemtl FrontMat.001
f 119/207/60 118/208/60 122/209/60
f 149/210/60 140/211/60 138/212/60
f 144/213/60 154/214/60 141/215/60
f 158/216/60 162/217/60 172/218/60
f 128/219/60 124/220/60 126/221/60
f 133/222/60 132/223/60 146/224/60
f 150/225/60 149/210/60 134/226/60
f 125/227/60 126/221/60 124/220/60
f 167/228/60 189/229/60 162/217/60
f 152/230/60 142/231/60 140/211/60
f 189/229/60 172/218/60 162/217/60
f 189/229/60 188/232/60 176/233/60
f 156/234/60 170/235/60 155/236/60
f 163/237/60 168/238/60 164/239/60
f 169/240/60 174/241/60 157/242/60
f 121/243/60 123/244/60 117/245/60
f 139/246/60 148/247/60 132/223/60
f 146/224/60 126/221/60 133/222/60
f 174/241/60 177/248/60 171/249/60
f 170/235/60 169/240/60 155/236/60
f 163/237/60 157/242/60 174/241/60
f 154/214/60 148/247/60 139/246/60
f 130/250/60 139/246/60 132/223/60
f 190/251/60 186/252/60 177/248/60
f 156/234/60 158/216/60 170/235/60
f 123/244/60 125/227/60 124/220/60
f 177/248/60 179/253/60 190/251/60
f 138/212/60 134/226/60 149/210/60
f 124/220/60 122/209/60 123/244/60
f 158/216/60 172/218/60 170/235/60
f 171/249/60 163/237/60 174/241/60
f 126/221/60 146/224/60 128/219/60
f 162/217/60 161/254/60 167/228/60
f 118/208/60 117/245/60 122/209/60
f 138/212/60 135/255/60 134/226/60
f 128/219/60 151/256/60 137/257/60
f 161/254/60 159/258/60 167/228/60
f 188/232/60 182/259/60 178/260/60
f 148/247/60 146/224/60 132/223/60
f 141/215/60 154/214/60 139/246/60
f 117/245/60 123/244/60 122/209/60
f 189/229/60 176/233/60 172/218/60
f 168/238/60 165/261/60 164/239/60
f 153/262/60 155/236/60 151/256/60
f 153/262/60 151/256/60 128/219/60
f 153/262/60 156/234/60 155/236/60
f 171/249/60 168/238/60 163/237/60
f 155/236/60 169/240/60 157/242/60
f 149/210/60 152/230/60 140/211/60
f 134/226/60 137/257/60 150/225/60
f 180/263/60 189/229/60 167/228/60
f 151/256/60 150/225/60 137/257/60
f 186/252/60 171/249/60 177/248/60
f 188/232/60 178/260/60 176/233/60
f 146/224/60 153/262/60 128/219/60
f 179/253/60 184/264/60 190/251/60
