# Blender v2.83.1 OBJ File: 'jigsaw-80x45-3-step2.blend'
# www.blender.org
mtllib piece.666.mtl
o path1332_path1332.001
v 0.435423 0.037500 -0.290730
v 0.420948 0.037500 -0.172139
v 0.443733 0.037500 -0.096416
v 0.518827 0.037500 -0.095998
v 0.616976 0.037500 -0.128478
v 0.697847 0.037500 -0.132744
v 0.729824 0.037500 -0.067819
v 0.716127 0.037500 0.026713
v 0.668682 0.037500 0.091129
v 0.600750 0.037500 0.086317
v 0.530884 0.037500 0.055593
v 0.478964 0.037500 0.062882
v 0.459080 0.037500 0.152081
v 0.483511 0.037500 0.511520
v 0.261086 0.037500 0.457940
v 0.128016 0.037500 0.440295
v 0.041203 0.037500 0.461272
v 0.036804 0.037500 0.537316
v 0.070633 0.037500 0.640168
v 0.078413 0.037500 0.730392
v 0.016348 0.037500 0.775547
v -0.077412 0.037500 0.771164
v -0.144222 0.037500 0.719768
v -0.144999 0.037500 0.629455
v -0.118837 0.037500 0.530586
v -0.124395 0.037500 0.459092
v -0.202257 0.037500 0.440488
v -0.320751 0.037500 0.458629
v -0.518398 0.037500 0.511520
v -0.546659 0.037500 0.141409
v -0.526533 0.037500 0.048926
v -0.472340 0.037500 0.040438
v -0.399231 0.037500 0.072516
v -0.328609 0.037500 0.081519
v -0.280283 0.037500 0.023849
v -0.267645 0.037500 -0.063902
v -0.302492 0.037500 -0.125090
v -0.387627 0.037500 -0.122169
v -0.489914 0.037500 -0.093962
v -0.567234 0.037500 -0.098387
v -0.589140 0.037500 -0.175421
v -0.571859 0.037500 -0.293281
v -0.518398 0.037500 -0.490177
v -0.320011 0.037500 -0.466086
v -0.202812 0.037500 -0.462853
v -0.129725 0.037500 -0.485950
v -0.133043 0.037500 -0.545400
v -0.167751 0.037500 -0.623267
v -0.169502 0.037500 -0.694628
v -0.095676 0.037500 -0.738071
v 0.009417 0.037500 -0.746236
v 0.079735 0.037500 -0.715277
v 0.071863 0.037500 -0.646894
v 0.032873 0.037500 -0.564974
v 0.032455 0.037500 -0.498953
v 0.118876 0.037500 -0.470476
v 0.254749 0.037500 -0.470028
v 0.483511 0.037500 -0.490177
v 0.435423 -0.037500 -0.290730
v 0.420948 -0.037498 -0.172139
v 0.443733 -0.037500 -0.096416
v 0.518827 -0.037500 -0.095998
v 0.616976 -0.037500 -0.128478
v 0.697847 -0.037500 -0.132744
v 0.729824 -0.037500 -0.067819
v 0.716127 -0.037500 0.026713
v 0.668682 -0.037500 0.091129
v 0.600750 -0.037500 0.086317
v 0.530884 -0.037498 0.055593
v 0.478964 -0.037498 0.062882
v 0.459080 -0.037500 0.152081
v 0.483511 -0.037498 0.511520
v 0.261086 -0.037500 0.457940
v 0.128016 -0.037498 0.440295
v 0.041203 -0.037500 0.461272
v 0.036804 -0.037500 0.537316
v 0.070633 -0.037500 0.640168
v 0.078413 -0.037500 0.730392
v 0.016348 -0.037500 0.775547
v -0.077412 -0.037500 0.771164
v -0.144222 -0.037500 0.719768
v -0.144999 -0.037500 0.629455
v -0.118837 -0.037498 0.530586
v -0.124395 -0.037500 0.459092
v -0.202257 -0.037500 0.440488
v -0.320751 -0.037500 0.458629
v -0.518398 -0.037500 0.511520
v -0.546659 -0.037500 0.141409
v -0.526533 -0.037500 0.048926
v -0.472340 -0.037500 0.040438
v -0.399231 -0.037498 0.072516
v -0.328609 -0.037500 0.081519
v -0.280283 -0.037500 0.023849
v -0.267645 -0.037500 -0.063902
v -0.302492 -0.037498 -0.125090
v -0.387627 -0.037500 -0.122169
v -0.489914 -0.037500 -0.093962
v -0.567234 -0.037500 -0.098387
v -0.589140 -0.037500 -0.175421
v -0.571859 -0.037498 -0.293281
v -0.518398 -0.037500 -0.490177
v -0.320011 -0.037500 -0.466086
v -0.202812 -0.037500 -0.462853
v -0.129725 -0.037500 -0.485950
v -0.133043 -0.037498 -0.545400
v -0.167751 -0.037500 -0.623267
v -0.169502 -0.037500 -0.694628
v -0.095676 -0.037500 -0.738071
v 0.009417 -0.037500 -0.746236
v 0.079735 -0.037500 -0.715277
v 0.071863 -0.037500 -0.646894
v 0.032873 -0.037498 -0.564974
v 0.032455 -0.037500 -0.498953
v 0.118876 -0.037498 -0.470476
v 0.254749 -0.037498 -0.470028
v 0.483511 -0.037500 -0.490177
v -0.095676 0.037500 -0.738071
v 0.009417 0.037500 -0.746236
v 0.079735 0.037500 -0.715277
v 0.079735 0.037500 -0.715277
v -0.169502 0.037500 -0.694628
v -0.169502 0.037500 -0.694628
v 0.071863 0.037500 -0.646894
v -0.167751 0.037500 -0.623267
v 0.032873 0.037500 -0.564974
v -0.133043 0.037500 -0.545400
v 0.032455 0.037500 -0.498953
v 0.032455 0.037500 -0.498953
v -0.129725 0.037500 -0.485950
v -0.129725 0.037500 -0.485950
v 0.118876 0.037500 -0.470476
v -0.202812 0.037500 -0.462853
v 0.254749 0.037500 -0.470028
v 0.483511 0.037500 -0.490177
v 0.483511 0.037500 -0.490177
v -0.518398 0.037500 -0.490177
v -0.518398 0.037500 -0.490177
v -0.320011 0.037500 -0.466086
v -0.571859 0.037500 -0.293281
v 0.435423 0.037500 -0.290730
v -0.589140 0.037500 -0.175421
v 0.420948 0.037500 -0.172139
v -0.567234 0.037500 -0.098387
v -0.567234 0.037500 -0.098387
v -0.302492 0.037500 -0.125090
v -0.302492 0.037500 -0.125090
v -0.387627 0.037500 -0.122169
v 0.443733 0.037500 -0.096416
v 0.443733 0.037500 -0.096416
v 0.616976 0.037500 -0.128478
v 0.697847 0.037500 -0.132744
v 0.697847 0.037500 -0.132744
v 0.729824 0.037500 -0.067819
v 0.518827 0.037500 -0.095998
v -0.267645 0.037500 -0.063902
v -0.489914 0.037500 -0.093962
v 0.716127 0.037500 0.026713
v -0.280283 0.037500 0.023849
v -0.328609 0.037500 0.081519
v 0.668682 0.037500 0.091129
v -0.526533 0.037500 0.048926
v -0.526533 0.037500 0.048926
v -0.472340 0.037500 0.040438
v -0.399231 0.037500 0.072516
v -0.546659 0.037500 0.141409
v 0.530884 0.037500 0.055593
v 0.478964 0.037500 0.062882
v 0.478964 0.037500 0.062882
v 0.600750 0.037500 0.086317
v 0.459080 0.037500 0.152081
v -0.518398 0.037500 0.511520
v -0.518398 0.037500 0.511520
v -0.202257 0.037500 0.440488
v -0.320751 0.037500 0.458629
v 0.128016 0.037500 0.440295
v 0.041203 0.037500 0.461272
v 0.041203 0.037500 0.461272
v 0.261086 0.037500 0.457940
v -0.124395 0.037500 0.459092
v -0.124395 0.037500 0.459092
v -0.118837 0.037500 0.530586
v 0.036804 0.037500 0.537316
v 0.483511 0.037500 0.511520
v 0.483511 0.037500 0.511520
v -0.144999 0.037500 0.629455
v 0.070633 0.037500 0.640168
v -0.144222 0.037500 0.719768
v 0.078413 0.037500 0.730392
v -0.077412 0.037500 0.771164
v 0.016348 0.037500 0.775547
v -0.095676 -0.037500 -0.738071
v 0.009417 -0.037500 -0.746236
v 0.079735 -0.037500 -0.715277
v 0.079735 -0.037500 -0.715277
v -0.169502 -0.037500 -0.694628
v -0.169502 -0.037500 -0.694628
v 0.071863 -0.037500 -0.646894
v -0.167751 -0.037500 -0.623267
v 0.032873 -0.037498 -0.564974
v -0.133043 -0.037498 -0.545400
v 0.032455 -0.037500 -0.498953
v 0.032455 -0.037500 -0.498953
v -0.129725 -0.037500 -0.485950
v -0.129725 -0.037500 -0.485950
v 0.118876 -0.037498 -0.470476
v -0.202812 -0.037500 -0.462853
v 0.254749 -0.037498 -0.470028
v 0.483511 -0.037500 -0.490177
v 0.483511 -0.037500 -0.490177
v -0.518398 -0.037500 -0.490177
v -0.518398 -0.037500 -0.490177
v -0.320011 -0.037500 -0.466086
v -0.571859 -0.037498 -0.293281
v 0.435423 -0.037500 -0.290730
v -0.589140 -0.037500 -0.175421
v 0.420948 -0.037498 -0.172139
v -0.567234 -0.037500 -0.098387
v -0.567234 -0.037500 -0.098387
v -0.302492 -0.037498 -0.125090
v -0.302492 -0.037498 -0.125090
v -0.387627 -0.037500 -0.122169
v 0.443733 -0.037500 -0.096416
v 0.443733 -0.037500 -0.096416
v 0.616976 -0.037500 -0.128478
v 0.697847 -0.037500 -0.132744
v 0.697847 -0.037500 -0.132744
v 0.729824 -0.037500 -0.067819
v 0.518827 -0.037500 -0.095998
v -0.267645 -0.037500 -0.063902
v -0.489914 -0.037500 -0.093962
v 0.716127 -0.037500 0.026713
v -0.280283 -0.037500 0.023849
v -0.328609 -0.037500 0.081519
v 0.668682 -0.037500 0.091129
v -0.526533 -0.037500 0.048926
v -0.526533 -0.037500 0.048926
v -0.472340 -0.037500 0.040438
v -0.399231 -0.037498 0.072516
v -0.546659 -0.037500 0.141409
v 0.530884 -0.037498 0.055593
v 0.478964 -0.037498 0.062882
v 0.478964 -0.037498 0.062882
v 0.600750 -0.037500 0.086317
v 0.459080 -0.037500 0.152081
v -0.518398 -0.037500 0.511520
v -0.518398 -0.037500 0.511520
v -0.202257 -0.037500 0.440488
v -0.320751 -0.037500 0.458629
v 0.128016 -0.037498 0.440295
v 0.041203 -0.037500 0.461272
v 0.041203 -0.037500 0.461272
v 0.261086 -0.037500 0.457940
v -0.124395 -0.037500 0.459092
v -0.124395 -0.037500 0.459092
v -0.118837 -0.037498 0.530586
v 0.036804 -0.037500 0.537316
v 0.483511 -0.037498 0.511520
v 0.483511 -0.037498 0.511520
v -0.144999 -0.037500 0.629455
v 0.070633 -0.037500 0.640168
v -0.144222 -0.037500 0.719768
v 0.078413 -0.037500 0.730392
v -0.077412 -0.037500 0.771164
v 0.016348 -0.037500 0.775547
vt 0.500000 0.500000
vt 0.500000 0.500000
vt 0.500000 0.500000
vt 0.500000 0.500000
vt 0.500000 0.500000
vt 0.500000 0.500000
vt 0.500000 0.500000
vt 0.500000 0.500000
vt 0.500000 0.500000
vt 0.500000 0.500000
vt 0.500000 0.500000
vt 0.500000 0.500000
vt 0.500000 0.500000
vt 0.500000 0.500000
vt 0.500000 0.500000
vt 0.500000 0.500000
vt 0.500000 0.500000
vt 0.500000 0.500000
vt 0.500000 0.500000
vt 0.500000 0.500000
vt 0.500000 0.500000
vt 0.500000 0.500000
vt 0.500000 0.500000
vt 0.500000 0.500000
vt 0.500000 0.500000
vt 0.500000 0.500000
vt 0.500000 0.500000
vt 0.500000 0.500000
vt 0.500000 0.500000
vt 0.500000 0.500000
vt 0.500000 0.500000
vt 0.500000 0.500000
vt 0.500000 0.500000
vt 0.500000 0.500000
vt 0.500000 0.500000
vt 0.500000 0.500000
vt 0.500000 0.500000
vt 0.500000 0.500000
vt 0.500000 0.500000
vt 0.500000 0.500000
vt 0.500000 0.500000
vt 0.500000 0.500000
vt 0.500000 0.500000
vt 0.500000 0.500000
vt 0.500000 0.500000
vt 0.500000 0.500000
vt 0.500000 0.500000
vt 0.500000 0.500000
vt 0.500000 0.500000
vt 0.500000 0.500000
vt 0.500000 0.500000
vt 0.500000 0.500000
vt 0.500000 0.500000
vt 0.500000 0.500000
vt 0.500000 0.500000
vt 0.500000 0.500000
vt 0.500000 0.500000
vt 0.500000 0.500000
vt 0.500000 0.500000
vt 0.500000 0.500000
vt 0.500000 0.500000
vt 0.500000 0.500000
vt 0.500000 0.500000
vt 0.500000 0.500000
vt 0.500000 0.500000
vt 0.500000 0.500000
vt 0.500000 0.500000
vt 0.500000 0.500000
vt 0.500000 0.500000
vt 0.500000 0.500000
vt 0.500000 0.500000
vt 0.500000 0.500000
vt 0.500000 0.500000
vt 0.500000 0.500000
vt 0.500000 0.500000
vt 0.500000 0.500000
vt 0.500000 0.500000
vt 0.500000 0.500000
vt 0.500000 0.500000
vt 0.500000 0.500000
vt 0.500000 0.500000
vt 0.500000 0.500000
vt 0.500000 0.500000
vt 0.500000 0.500000
vt 0.500000 0.500000
vt 0.500000 0.500000
vt 0.500000 0.500000
vt 0.500000 0.500000
vt 0.500000 0.500000
vt 0.500000 0.500000
vt 0.500000 0.500000
vt 0.500000 0.500000
vt 0.500000 0.500000
vt 0.500000 0.500000
vt 0.500000 0.500000
vt 0.500000 0.500000
vt 0.500000 0.500000
vt 0.500000 0.500000
vt 0.500000 0.500000
vt 0.500000 0.500000
vt 0.500000 0.500000
vt 0.500000 0.500000
vt 0.500000 0.500000
vt 0.500000 0.500000
vt 0.500000 0.500000
vt 0.500000 0.500000
vt 0.500000 0.500000
vt 0.500000 0.500000
vt 0.500000 0.500000
vt 0.500000 0.500000
vt 0.500000 0.500000
vt 0.500000 0.500000
vt 0.500000 0.500000
vt 0.500000 0.500000
vt 0.500000 0.500000
vt 0.500000 0.500000
vt 0.500000 0.500000
vt 0.500000 0.500000
vt 0.500000 0.500000
vt 0.500000 0.500000
vt 0.500000 0.500000
vt 0.500000 0.500000
vt 0.500000 0.500000
vt 0.500000 0.500000
vt 0.500000 0.500000
vt 0.500000 0.500000
vt 0.500000 0.500000
vt 0.500000 0.500000
vt 0.500000 0.500000
vt 0.500000 0.500000
vt 0.500000 0.500000
vt 0.500000 0.500000
vt 0.500000 0.500000
vt 0.500000 0.500000
vt 0.500000 0.500000
vt 0.500000 0.500000
vt 0.500000 0.500000
vt 0.500000 0.500000
vt 0.500000 0.500000
vt 0.500000 0.500000
vt 0.500000 0.500000
vt 0.500000 0.500000
vt 0.500000 0.500000
vt 0.500000 0.500000
vt 0.500000 0.500000
vt 0.500000 0.500000
vt 0.500000 0.500000
vt 0.500000 0.500000
vt 0.500000 0.500000
vt 0.500000 0.500000
vt 0.500000 0.500000
vt 0.500000 0.500000
vt 0.500000 0.500000
vt 0.500000 0.500000
vt 0.500000 0.500000
vt 0.500000 0.500000
vt 0.500000 0.500000
vt 0.500000 0.500000
vt 0.500000 0.500000
vt 0.500000 0.500000
vt 0.500000 0.500000
vt 0.500000 0.500000
vt 0.500000 0.500000
vt 0.500000 0.500000
vt 0.500000 0.500000
vt 0.500000 0.500000
vt 0.500000 0.500000
vt 0.500000 0.500000
vt 0.500000 0.500000
vt 0.500000 0.500000
vt 0.500000 0.500000
vt 0.500000 0.500000
vt 0.500000 0.500000
vt 0.500000 0.500000
vt 0.500000 0.500000
vt 0.500000 0.500000
vt 0.500000 0.500000
vt 0.500000 0.500000
vt 0.500000 0.500000
vt 0.500000 0.500000
vt 0.500000 0.500000
vt 0.500000 0.500000
vt 0.500000 0.500000
vt 0.500000 0.500000
vt 0.500000 0.500000
vt 0.500000 0.500000
vt 0.500000 0.500000
vt 0.500000 0.500000
vt 0.500000 0.500000
vt 0.500000 0.500000
vt 0.500000 0.500000
vt 0.500000 0.500000
vt 0.500000 0.500000
vt 0.500000 0.500000
vt 0.500000 0.500000
vt 0.500000 0.500000
vt 0.500000 0.500000
vt 0.500000 0.500000
vt 0.500000 0.500000
vt 0.500000 0.500000
vt 0.500000 0.500000
vt 0.500000 0.500000
vt 0.500000 0.500000
vt 0.500000 0.500000
vt 0.500000 0.500000
vt 0.500000 0.500000
vt 0.320565 0.801580
vt 0.322225 0.801189
vt 0.324695 0.807974
vt 0.314966 0.801173
vt 0.316444 0.801576
vt 0.314868 0.809539
vt 0.324400 0.817798
vt 0.325000 0.822222
vt 0.322146 0.821775
vt 0.312147 0.808211
vt 0.312500 0.800000
vt 0.326665 0.814198
vt 0.325441 0.813478
vt 0.325591 0.810115
vt 0.312855 0.813432
vt 0.314132 0.814058
vt 0.311833 0.817854
vt 0.328073 0.812852
vt 0.327674 0.814293
vt 0.324219 0.815167
vt 0.314975 0.821688
vt 0.315194 0.814123
vt 0.316437 0.821616
vt 0.319864 0.825699
vt 0.319085 0.827903
vt 0.317774 0.827722
vt 0.315628 0.812765
vt 0.324504 0.813487
vt 0.320451 0.821785
vt 0.327902 0.810755
vt 0.317416 0.801163
vt 0.315471 0.810819
vt 0.313075 0.810451
vt 0.312398 0.810263
vt 0.311617 0.815239
vt 0.324943 0.809953
vt 0.319373 0.822417
vt 0.319378 0.823882
vt 0.317308 0.823447
vt 0.325000 0.800000
vt 0.317485 0.799577
vt 0.319482 0.801115
vt 0.317159 0.797384
vt 0.317168 0.795380
vt 0.318002 0.794240
vt 0.319427 0.799428
vt 0.317349 0.822129
vt 0.326463 0.809433
vt 0.316875 0.825175
vt 0.313987 0.809739
vt 0.312500 0.822222
vt 0.316853 0.826758
vt 0.311891 0.813531
vt 0.319962 0.827216
vt 0.319849 0.797146
vt 0.319172 0.794143
vt 0.319946 0.795145
vt 0.327310 0.809326
vn -0.0000 -1.0000 -0.0000
vn 0.0001 -1.0000 -0.0000
vn -0.0775 0.0000 -0.9970
vn 0.4029 0.0000 -0.9152
vn -0.5072 0.0000 -0.8619
vn 0.9934 0.0000 0.1144
vn -0.9997 0.0000 0.0245
vn 0.9029 0.0000 0.4298
vn -0.9134 0.0000 0.4071
vn 1.0000 0.0000 0.0063
vn -0.9984 0.0000 0.0557
vn 0.3130 0.0000 -0.9498
vn -0.3013 0.0000 -0.9535
vn -0.0877 0.0000 -0.9961
vn 0.1205 0.0000 -0.9927
vn 0.0033 0.0000 -1.0000
vn 0.0276 0.0000 -0.9996
vn -0.9651 0.0000 -0.2620
vn 0.9721 0.0000 0.2344
vn -0.9894 0.0000 -0.1451
vn 0.9926 0.0000 0.1212
vn -0.9619 0.0000 0.2735
vn 0.0343 0.0000 0.9994
vn 0.9576 0.0000 -0.2881
vn -0.0527 0.0000 -0.9986
vn 0.8971 0.0000 -0.4418
vn -0.3142 0.0000 -0.9494
vn -0.8690 0.0000 0.4949
vn -0.0571 0.0000 0.9984
vn 0.2658 0.0000 0.9640
vn 0.0056 0.0000 -1.0000
vn 0.9897 0.0000 0.1434
vn -0.9898 0.0000 -0.1426
vn -0.7665 0.0000 -0.6423
vn 0.8052 0.0000 0.5930
vn -0.1547 0.0000 -0.9880
vn 0.4018 0.0000 -0.9157
vn -0.9771 0.0000 -0.2126
vn 0.1390 0.0000 0.9903
vn -0.4026 0.0000 0.9154
vn -0.0707 0.0000 0.9975
vn 0.9760 0.0000 0.2176
vn 0.1265 0.0000 -0.9920
vn -0.9971 0.0000 0.0761
vn 0.1513 0.0000 0.9885
vn 0.2349 0.0000 0.9720
vn -0.1314 0.0000 0.9913
vn -0.2324 0.0000 0.9726
vn -0.9970 0.0000 0.0775
vn 0.9983 0.0000 0.0577
vn -0.2342 0.0000 0.9722
vn 0.9977 0.0000 -0.0678
vn 0.2585 0.0000 0.9660
vn -0.9667 0.0000 -0.2558
vn 0.9499 0.0000 -0.3124
vn -1.0000 0.0000 0.0086
vn 0.9963 0.0000 -0.0859
vn -0.6097 0.0000 0.7926
vn -0.0467 0.0000 0.9989
vn 0.5883 0.0000 0.8086
vn 0.0000 1.0000 0.0000
usemtl BackMat.001
s off
f 249/1/1 244/2/1 252/3/1
f 248/4/1 233/5/1 247/6/1
f 214/7/1 207/8/1 208/9/1
f 239/10/1 248/4/1 245/11/1
f 224/12/1 240/13/1 228/14/1
f 230/15/1 213/16/1 221/17/1
f 227/18/1 224/12/1 225/19/1
f 216/20/1 207/8/1 214/7/1
f 212/21/1 206/22/1 219/23/1
f 197/24/1 191/25/1 192/26/1
f 229/27/1 216/20/1 222/28/1
f 207/8/1 216/20/1 205/29/1
f 231/30/1 224/12/1 227/18/1
f 247/6/1 232/31/1 253/32/1
f 237/33/1 239/10/1 235/34/1
f 215/35/1 213/16/1 230/15/1
f 222/28/1 228/14/1 241/36/1
f 201/37/1 200/38/1 199/39/1
f 252/3/1 244/2/1 257/40/1
f 253/32/1 250/41/1 255/42/1
f 259/43/1 263/44/1 261/45/1
f 256/46/1 255/42/1 250/41/1
f 221/17/1 212/21/1 219/23/1
f 206/22/1 203/47/1 219/23/1
f 212/21/1 221/17/1 213/16/1
f 243/48/1 224/12/1 231/30/1
f 199/39/1 198/49/1 191/25/1
f 250/41/1 232/31/1 249/1/1
f 240/13/1 224/12/1 243/48/1
f 247/6/1 233/5/1 232/31/1
f 239/10/1 238/50/1 248/4/1
f 199/39/1 191/25/1 197/24/1
f 203/47/1 200/38/1 201/37/1
f 248/4/1 238/50/1 233/5/1
f 210/51/1 212/21/1 213/16/1
f 195/52/1 191/25/1 198/49/1
f 217/53/1 215/35/1 230/15/1
f 203/47/1 201/37/1 229/27/1
f 197/24/1 192/26/1 193/54/1
f 198/49/1 199/39/1 200/38/1
f 259/43/1 260/55/1 263/44/1
f 260/55/1 259/43/1 256/46/1
f 241/36/1 228/14/1 240/13/1
f 229/27/1 222/28/1 232/31/1
f 229/27/1 205/29/1 216/20/1
f 253/32/1 232/31/1 250/41/1
f 229/27/1 201/37/1 205/29/1
f 219/23/1 203/47/1 229/27/1
f 260/55/1 264/56/1 263/44/1
f 232/31/1 222/28/1 244/2/1
f 249/1/1 232/31/1 244/2/1
f 264/56/1 260/55/1 262/57/1
f 238/50/1 239/10/1 237/33/1
f 243/48/1 231/30/1 234/58/1
f 255/42/1 256/46/1 259/43/1
f 244/2/2 222/28/2 241/36/2
f 50/59/3 51/60/3 109/61/3 108/62/3
f 51/60/4 120/63/4 194/64/4 109/61/4
f 122/65/5 50/59/5 108/62/5 196/66/5
f 52/67/6 53/68/6 111/69/6 110/70/6
f 48/71/7 49/72/7 107/73/7 106/74/7
f 53/68/8 54/75/8 112/76/8 111/69/8
f 47/77/9 48/71/9 106/74/9 105/78/9
f 54/75/10 128/79/10 202/80/10 112/76/10
f 130/81/11 47/77/11 105/78/11 204/82/11
f 55/83/12 56/84/12 114/85/12 113/86/12
f 45/87/13 46/88/13 104/89/13 103/90/13
f 57/91/14 135/92/14 209/93/14 115/94/14
f 137/95/15 44/96/15 102/97/15 211/98/15
f 56/84/16 57/91/16 115/94/16 114/85/16
f 44/96/17 45/87/17 103/90/17 102/97/17
f 42/99/18 43/100/18 101/101/18 100/102/18
f 58/103/19 1/104/19 59/105/19 116/106/19
f 41/107/20 42/99/20 100/102/20 99/108/20
f 1/104/21 2/109/21 60/110/21 59/105/21
f 144/111/22 41/107/22 99/108/22 218/112/22
f 146/113/23 38/114/23 96/115/23 220/116/23
f 2/109/24 149/117/24 223/118/24 60/110/24
f 5/119/25 152/120/25 226/121/25 63/122/25
f 6/123/26 7/124/26 65/125/26 64/126/26
f 4/127/27 5/119/27 63/122/27 62/128/27
f 36/129/28 37/130/28 95/131/28 94/132/28
f 39/133/29 40/134/29 98/135/29 97/136/29
f 38/114/30 39/133/30 97/136/30 96/115/30
f 3/137/31 4/127/31 62/128/31 61/138/31
f 7/124/32 8/139/32 66/140/32 65/125/32
f 35/141/33 36/129/33 94/132/33 93/142/33
f 34/143/34 35/141/34 93/142/34 92/144/34
f 8/139/35 9/145/35 67/146/35 66/140/35
f 162/147/36 32/148/36 90/149/36 236/150/36
f 32/148/37 33/151/37 91/152/37 90/149/37
f 30/153/38 31/154/38 89/155/38 88/156/38
f 11/157/39 168/158/39 242/159/39 69/160/39
f 10/161/40 11/157/40 69/160/40 68/162/40
f 9/145/41 10/161/41 68/162/41 67/146/41
f 12/163/42 13/164/42 71/165/42 70/166/42
f 33/151/43 34/143/43 92/144/43 91/152/43
f 172/167/44 30/153/44 88/156/44 246/168/44
f 27/169/45 28/170/45 86/171/45 85/172/45
f 16/173/46 177/174/46 251/175/46 74/176/46
f 15/177/47 16/173/47 74/176/47 73/178/47
f 180/179/48 27/169/48 85/172/48 254/180/48
f 25/181/49 26/182/49 84/183/49 83/184/49
f 17/185/50 18/186/50 76/187/50 75/188/50
f 184/189/51 15/177/51 73/178/51 258/190/51
f 13/164/52 14/191/52 72/192/52 71/165/52
f 28/170/53 29/193/53 87/194/53 86/171/53
f 24/195/54 25/181/54 83/184/54 82/196/54
f 18/186/55 19/197/55 77/198/55 76/187/55
f 23/199/56 24/195/56 82/196/56 81/200/56
f 19/197/57 20/201/57 78/202/57 77/198/57
f 22/203/58 23/199/58 81/200/58 80/204/58
f 21/205/59 22/203/59 80/204/59 79/206/59
f 20/201/60 21/205/60 79/206/60 78/202/60
usemtl FrontMat.001
f 175/207/61 178/208/61 170/209/61
f 174/210/61 173/211/61 159/212/61
f 140/213/61 134/214/61 133/215/61
f 165/216/61 171/217/61 174/210/61
f 150/218/61 154/219/61 166/220/61
f 156/221/61 147/222/61 139/223/61
f 153/224/61 151/225/61 150/218/61
f 142/226/61 140/213/61 133/215/61
f 138/227/61 145/228/61 132/229/61
f 123/230/61 118/231/61 117/232/61
f 155/233/61 148/234/61 142/226/61
f 133/215/61 131/235/61 142/226/61
f 157/236/61 153/224/61 150/218/61
f 173/211/61 179/237/61 158/238/61
f 163/239/61 161/240/61 165/216/61
f 141/241/61 156/221/61 139/223/61
f 148/234/61 167/242/61 154/219/61
f 127/243/61 125/244/61 126/245/61
f 178/208/61 183/246/61 170/209/61
f 179/237/61 181/247/61 176/248/61
f 185/249/61 187/250/61 189/251/61
f 182/252/61 176/248/61 181/247/61
f 147/222/61 145/228/61 138/227/61
f 132/229/61 145/228/61 129/253/61
f 138/227/61 139/223/61 147/222/61
f 169/254/61 157/236/61 150/218/61
f 125/244/61 117/232/61 124/255/61
f 176/248/61 175/207/61 158/238/61
f 166/220/61 169/254/61 150/218/61
f 173/211/61 158/238/61 159/212/61
f 165/216/61 174/210/61 164/256/61
f 125/244/61 123/230/61 117/232/61
f 129/253/61 127/243/61 126/245/61
f 174/210/61 159/212/61 164/256/61
f 136/257/61 139/223/61 138/227/61
f 121/258/61 124/255/61 117/232/61
f 143/259/61 156/221/61 141/241/61
f 129/253/61 155/233/61 127/243/61
f 123/230/61 119/260/61 118/231/61
f 124/255/61 126/245/61 125/244/61
f 185/249/61 189/251/61 186/261/61
f 186/261/61 182/252/61 185/249/61
f 167/242/61 166/220/61 154/219/61
f 155/233/61 158/238/61 148/234/61
f 155/233/61 142/226/61 131/235/61
f 179/237/61 176/248/61 158/238/61
f 155/233/61 131/235/61 127/243/61
f 145/228/61 155/233/61 129/253/61
f 186/261/61 189/251/61 190/262/61
f 158/238/61 170/209/61 148/234/61
f 175/207/61 170/209/61 158/238/61
f 190/262/61 188/263/61 186/261/61
f 164/256/61 163/239/61 165/216/61
f 169/254/61 160/264/61 157/236/61
f 181/247/61 185/249/61 182/252/61
f 170/209/61 167/242/61 148/234/61
