# Blender v2.83.1 OBJ File: 'jigsaw-80x45-3-step2.blend'
# www.blender.org
mtllib piece.1148.mtl
o path2296_path2296.001
v 0.541840 0.037500 -0.298826
v 0.552211 0.037500 -0.178875
v 0.527365 0.037500 -0.104691
v 0.453832 0.037500 -0.109837
v 0.360001 0.037500 -0.149244
v 0.284778 0.037500 -0.158182
v 0.258802 0.037500 -0.093096
v 0.279658 0.037500 0.004860
v 0.336665 0.037500 0.073355
v 0.416703 0.037500 0.071201
v 0.496840 0.037500 0.041807
v 0.551698 0.037500 0.049719
v 0.563742 0.037500 0.139355
v 0.501063 0.037500 0.499565
v 0.186425 0.037500 0.517603
v 0.108541 0.037500 0.495707
v 0.102348 0.037500 0.443481
v 0.128295 0.037500 0.377649
v 0.129056 0.037500 0.321087
v 0.066173 0.037500 0.292957
v -0.023331 0.037500 0.297577
v -0.083563 0.037500 0.335535
v -0.078196 0.037500 0.402855
v -0.049164 0.037500 0.477268
v -0.057969 0.037500 0.531925
v -0.146686 0.037500 0.547686
v -0.500634 0.037500 0.499565
v -0.553489 0.037500 0.268873
v -0.570289 0.037500 0.130859
v -0.547843 0.037500 0.040823
v -0.469447 0.037500 0.036329
v -0.362922 0.037500 0.071854
v -0.267221 0.037500 0.081110
v -0.214361 0.037500 0.019066
v -0.208592 0.037500 -0.074259
v -0.247228 0.037500 -0.137589
v -0.323122 0.037500 -0.130369
v -0.411304 0.037500 -0.094963
v -0.482346 0.037500 -0.094454
v -0.514630 0.037500 -0.172554
v -0.517783 0.037500 -0.295429
v -0.500634 0.037500 -0.502344
v -0.272716 0.037500 -0.539711
v -0.135413 0.037500 -0.549139
v -0.043703 0.037500 -0.526148
v -0.034337 0.037500 -0.457644
v -0.064218 0.037500 -0.366308
v -0.070298 0.037500 -0.283796
v -0.009767 0.037500 -0.236715
v 0.079240 0.037500 -0.231504
v 0.138345 0.037500 -0.269558
v 0.129214 0.037500 -0.346695
v 0.093701 0.037500 -0.436453
v 0.093699 0.037500 -0.506796
v 0.171957 0.037500 -0.534391
v 0.294651 0.037500 -0.530708
v 0.501063 0.037500 -0.502344
v 0.541840 -0.037500 -0.298826
v 0.552211 -0.037500 -0.178875
v 0.527365 -0.037500 -0.104691
v 0.453832 -0.037498 -0.109837
v 0.360001 -0.037500 -0.149244
v 0.284778 -0.037500 -0.158182
v 0.258802 -0.037498 -0.093096
v 0.279658 -0.037498 0.004860
v 0.336665 -0.037500 0.073355
v 0.416703 -0.037498 0.071201
v 0.496840 -0.037500 0.041807
v 0.551698 -0.037498 0.049719
v 0.563742 -0.037500 0.139355
v 0.501063 -0.037500 0.499565
v 0.186425 -0.037500 0.517603
v 0.108541 -0.037498 0.495707
v 0.102348 -0.037500 0.443481
v 0.128295 -0.037498 0.377649
v 0.129056 -0.037500 0.321087
v 0.066173 -0.037500 0.292957
v -0.023331 -0.037500 0.297577
v -0.083563 -0.037500 0.335535
v -0.078196 -0.037500 0.402855
v -0.049164 -0.037500 0.477268
v -0.057969 -0.037500 0.531925
v -0.146686 -0.037500 0.547686
v -0.500634 -0.037498 0.499565
v -0.553489 -0.037498 0.268873
v -0.570289 -0.037500 0.130859
v -0.547843 -0.037500 0.040823
v -0.469447 -0.037500 0.036329
v -0.362922 -0.037500 0.071854
v -0.267221 -0.037500 0.081110
v -0.214361 -0.037498 0.019066
v -0.208592 -0.037500 -0.074259
v -0.247228 -0.037500 -0.137589
v -0.323122 -0.037500 -0.130369
v -0.411304 -0.037498 -0.094963
v -0.482346 -0.037498 -0.094454
v -0.514630 -0.037500 -0.172554
v -0.517783 -0.037500 -0.295429
v -0.500634 -0.037498 -0.502344
v -0.272716 -0.037500 -0.539711
v -0.135413 -0.037500 -0.549139
v -0.043703 -0.037500 -0.526148
v -0.034337 -0.037500 -0.457644
v -0.064218 -0.037500 -0.366308
v -0.070298 -0.037500 -0.283796
v -0.009767 -0.037500 -0.236715
v 0.079240 -0.037498 -0.231504
v 0.138345 -0.037500 -0.269558
v 0.129214 -0.037500 -0.346695
v 0.093701 -0.037500 -0.436453
v 0.093699 -0.037498 -0.506796
v 0.171957 -0.037500 -0.534391
v 0.294651 -0.037500 -0.530708
v 0.501063 -0.037500 -0.502344
v 0.551698 0.037500 0.049719
v 0.551698 0.037500 0.049719
v 0.563742 0.037500 0.139355
v 0.541840 0.037500 -0.298826
v 0.552211 0.037500 -0.178875
v 0.527365 0.037500 -0.104691
v 0.527365 0.037500 -0.104691
v 0.496840 0.037500 0.041807
v 0.453832 0.037500 -0.109837
v 0.501063 0.037500 0.499565
v 0.501063 0.037500 0.499565
v 0.501063 0.037500 -0.502344
v 0.501063 0.037500 -0.502344
v 0.416703 0.037500 0.071201
v 0.360001 0.037500 -0.149244
v 0.336665 0.037500 0.073355
v 0.294651 0.037500 -0.530708
v 0.284778 0.037500 -0.158182
v 0.284778 0.037500 -0.158182
v 0.279658 0.037500 0.004860
v 0.186425 0.037500 0.517603
v 0.171957 0.037500 -0.534391
v 0.258802 0.037500 -0.093096
v 0.108541 0.037500 0.495707
v 0.108541 0.037500 0.495707
v 0.093699 0.037500 -0.506796
v 0.093699 0.037500 -0.506796
v 0.138345 0.037500 -0.269558
v 0.138345 0.037500 -0.269558
v 0.129214 0.037500 -0.346695
v 0.079240 0.037500 -0.231504
v 0.128295 0.037500 0.377649
v 0.129056 0.037500 0.321087
v 0.129056 0.037500 0.321087
v 0.093701 0.037500 -0.436453
v 0.066173 0.037500 0.292957
v 0.102348 0.037500 0.443481
v -0.009767 0.037500 -0.236715
v -0.023331 0.037500 0.297577
v -0.070298 0.037500 -0.283796
v -0.083563 0.037500 0.335535
v -0.083563 0.037500 0.335535
v -0.043703 0.037500 -0.526148
v -0.043703 0.037500 -0.526148
v -0.034337 0.037500 -0.457644
v -0.064218 0.037500 -0.366308
v -0.135413 0.037500 -0.549139
v -0.078196 0.037500 0.402855
v -0.049164 0.037500 0.477268
v -0.057969 0.037500 0.531925
v -0.057969 0.037500 0.531925
v -0.146686 0.037500 0.547686
v -0.272716 0.037500 -0.539711
v -0.214361 0.037500 0.019066
v -0.208592 0.037500 -0.074259
v -0.247228 0.037500 -0.137589
v -0.247228 0.037500 -0.137589
v -0.267221 0.037500 0.081110
v -0.323122 0.037500 -0.130369
v -0.362922 0.037500 0.071854
v -0.411304 0.037500 -0.094963
v -0.469447 0.037500 0.036329
v -0.500634 0.037500 -0.502344
v -0.500634 0.037500 -0.502344
v -0.482346 0.037500 -0.094454
v -0.482346 0.037500 -0.094454
v -0.547843 0.037500 0.040823
v -0.547843 0.037500 0.040823
v -0.500634 0.037500 0.499565
v -0.500634 0.037500 0.499565
v -0.514630 0.037500 -0.172554
v -0.517783 0.037500 -0.295429
v -0.553489 0.037500 0.268873
v -0.570289 0.037500 0.130859
v 0.551698 -0.037498 0.049719
v 0.551698 -0.037498 0.049719
v 0.563742 -0.037500 0.139355
v 0.541840 -0.037500 -0.298826
v 0.552211 -0.037500 -0.178875
v 0.527365 -0.037500 -0.104691
v 0.527365 -0.037500 -0.104691
v 0.496840 -0.037500 0.041807
v 0.453832 -0.037498 -0.109837
v 0.501063 -0.037500 0.499565
v 0.501063 -0.037500 0.499565
v 0.501063 -0.037500 -0.502344
v 0.501063 -0.037500 -0.502344
v 0.416703 -0.037498 0.071201
v 0.360001 -0.037500 -0.149244
v 0.336665 -0.037500 0.073355
v 0.294651 -0.037500 -0.530708
v 0.284778 -0.037500 -0.158182
v 0.284778 -0.037500 -0.158182
v 0.279658 -0.037498 0.004860
v 0.186425 -0.037500 0.517603
v 0.171957 -0.037500 -0.534391
v 0.258802 -0.037498 -0.093096
v 0.108541 -0.037498 0.495707
v 0.108541 -0.037498 0.495707
v 0.093699 -0.037498 -0.506796
v 0.093699 -0.037498 -0.506796
v 0.138345 -0.037500 -0.269558
v 0.138345 -0.037500 -0.269558
v 0.129214 -0.037500 -0.346695
v 0.079240 -0.037498 -0.231504
v 0.128295 -0.037498 0.377649
v 0.129056 -0.037500 0.321087
v 0.129056 -0.037500 0.321087
v 0.093701 -0.037500 -0.436453
v 0.066173 -0.037500 0.292957
v 0.102348 -0.037500 0.443481
v -0.009767 -0.037500 -0.236715
v -0.023331 -0.037500 0.297577
v -0.070298 -0.037500 -0.283796
v -0.083563 -0.037500 0.335535
v -0.083563 -0.037500 0.335535
v -0.043703 -0.037500 -0.526148
v -0.043703 -0.037500 -0.526148
v -0.034337 -0.037500 -0.457644
v -0.064218 -0.037500 -0.366308
v -0.135413 -0.037500 -0.549139
v -0.078196 -0.037500 0.402855
v -0.049164 -0.037500 0.477268
v -0.057969 -0.037500 0.531925
v -0.057969 -0.037500 0.531925
v -0.146686 -0.037500 0.547686
v -0.272716 -0.037500 -0.539711
v -0.214361 -0.037498 0.019066
v -0.208592 -0.037500 -0.074259
v -0.247228 -0.037500 -0.137589
v -0.247228 -0.037500 -0.137589
v -0.267221 -0.037500 0.081110
v -0.323122 -0.037500 -0.130369
v -0.362922 -0.037500 0.071854
v -0.411304 -0.037498 -0.094963
v -0.469447 -0.037500 0.036329
v -0.500634 -0.037498 -0.502344
v -0.500634 -0.037498 -0.502344
v -0.482346 -0.037498 -0.094454
v -0.482346 -0.037498 -0.094454
v -0.547843 -0.037500 0.040823
v -0.547843 -0.037500 0.040823
v -0.500634 -0.037498 0.499565
v -0.500634 -0.037498 0.499565
v -0.514630 -0.037500 -0.172554
v -0.517783 -0.037500 -0.295429
v -0.553489 -0.037498 0.268873
v -0.570289 -0.037500 0.130859
vt 0.500000 0.500000
vt 0.500000 0.500000
vt 0.500000 0.500000
vt 0.500000 0.500000
vt 0.500000 0.500000
vt 0.500000 0.500000
vt 0.500000 0.500000
vt 0.500000 0.500000
vt 0.500000 0.500000
vt 0.500000 0.500000
vt 0.500000 0.500000
vt 0.500000 0.500000
vt 0.500000 0.500000
vt 0.500000 0.500000
vt 0.500000 0.500000
vt 0.500000 0.500000
vt 0.500000 0.500000
vt 0.500000 0.500000
vt 0.500000 0.500000
vt 0.500000 0.500000
vt 0.500000 0.500000
vt 0.500000 0.500000
vt 0.500000 0.500000
vt 0.500000 0.500000
vt 0.500000 0.500000
vt 0.500000 0.500000
vt 0.500000 0.500000
vt 0.500000 0.500000
vt 0.500000 0.500000
vt 0.500000 0.500000
vt 0.500000 0.500000
vt 0.500000 0.500000
vt 0.500000 0.500000
vt 0.500000 0.500000
vt 0.500000 0.500000
vt 0.500000 0.500000
vt 0.500000 0.500000
vt 0.500000 0.500000
vt 0.500000 0.500000
vt 0.500000 0.500000
vt 0.500000 0.500000
vt 0.500000 0.500000
vt 0.500000 0.500000
vt 0.500000 0.500000
vt 0.500000 0.500000
vt 0.500000 0.500000
vt 0.500000 0.500000
vt 0.500000 0.500000
vt 0.500000 0.500000
vt 0.500000 0.500000
vt 0.500000 0.500000
vt 0.500000 0.500000
vt 0.500000 0.500000
vt 0.500000 0.500000
vt 0.500000 0.500000
vt 0.500000 0.500000
vt 0.500000 0.500000
vt 0.500000 0.500000
vt 0.500000 0.500000
vt 0.500000 0.500000
vt 0.500000 0.500000
vt 0.500000 0.500000
vt 0.500000 0.500000
vt 0.500000 0.500000
vt 0.500000 0.500000
vt 0.500000 0.500000
vt 0.500000 0.500000
vt 0.500000 0.500000
vt 0.500000 0.500000
vt 0.500000 0.500000
vt 0.500000 0.500000
vt 0.500000 0.500000
vt 0.500000 0.500000
vt 0.500000 0.500000
vt 0.500000 0.500000
vt 0.500000 0.500000
vt 0.500000 0.500000
vt 0.500000 0.500000
vt 0.500000 0.500000
vt 0.500000 0.500000
vt 0.500000 0.500000
vt 0.500000 0.500000
vt 0.500000 0.500000
vt 0.500000 0.500000
vt 0.500000 0.500000
vt 0.500000 0.500000
vt 0.500000 0.500000
vt 0.500000 0.500000
vt 0.500000 0.500000
vt 0.500000 0.500000
vt 0.500000 0.500000
vt 0.500000 0.500000
vt 0.500000 0.500000
vt 0.500000 0.500000
vt 0.500000 0.500000
vt 0.500000 0.500000
vt 0.500000 0.500000
vt 0.500000 0.500000
vt 0.500000 0.500000
vt 0.500000 0.500000
vt 0.500000 0.500000
vt 0.500000 0.500000
vt 0.500000 0.500000
vt 0.500000 0.500000
vt 0.500000 0.500000
vt 0.500000 0.500000
vt 0.500000 0.500000
vt 0.500000 0.500000
vt 0.500000 0.500000
vt 0.500000 0.500000
vt 0.500000 0.500000
vt 0.500000 0.500000
vt 0.500000 0.500000
vt 0.500000 0.500000
vt 0.500000 0.500000
vt 0.500000 0.500000
vt 0.500000 0.500000
vt 0.500000 0.500000
vt 0.500000 0.500000
vt 0.500000 0.500000
vt 0.500000 0.500000
vt 0.500000 0.500000
vt 0.500000 0.500000
vt 0.500000 0.500000
vt 0.500000 0.500000
vt 0.500000 0.500000
vt 0.500000 0.500000
vt 0.500000 0.500000
vt 0.500000 0.500000
vt 0.500000 0.500000
vt 0.500000 0.500000
vt 0.500000 0.500000
vt 0.500000 0.500000
vt 0.500000 0.500000
vt 0.500000 0.500000
vt 0.500000 0.500000
vt 0.500000 0.500000
vt 0.500000 0.500000
vt 0.500000 0.500000
vt 0.500000 0.500000
vt 0.500000 0.500000
vt 0.500000 0.500000
vt 0.500000 0.500000
vt 0.500000 0.500000
vt 0.500000 0.500000
vt 0.500000 0.500000
vt 0.500000 0.500000
vt 0.500000 0.500000
vt 0.500000 0.500000
vt 0.500000 0.500000
vt 0.500000 0.500000
vt 0.500000 0.500000
vt 0.500000 0.500000
vt 0.500000 0.500000
vt 0.500000 0.500000
vt 0.500000 0.500000
vt 0.500000 0.500000
vt 0.500000 0.500000
vt 0.500000 0.500000
vt 0.500000 0.500000
vt 0.500000 0.500000
vt 0.500000 0.500000
vt 0.500000 0.500000
vt 0.500000 0.500000
vt 0.500000 0.500000
vt 0.500000 0.500000
vt 0.500000 0.500000
vt 0.500000 0.500000
vt 0.500000 0.500000
vt 0.500000 0.500000
vt 0.500000 0.500000
vt 0.500000 0.500000
vt 0.500000 0.500000
vt 0.500000 0.500000
vt 0.500000 0.500000
vt 0.500000 0.500000
vt 0.500000 0.500000
vt 0.500000 0.500000
vt 0.500000 0.500000
vt 0.500000 0.500000
vt 0.500000 0.500000
vt 0.500000 0.500000
vt 0.500000 0.500000
vt 0.500000 0.500000
vt 0.500000 0.500000
vt 0.500000 0.500000
vt 0.500000 0.500000
vt 0.500000 0.500000
vt 0.500000 0.500000
vt 0.500000 0.500000
vt 0.500000 0.500000
vt 0.500000 0.500000
vt 0.500000 0.500000
vt 0.500000 0.500000
vt 0.500000 0.500000
vt 0.500000 0.500000
vt 0.500000 0.500000
vt 0.500000 0.500000
vt 0.500000 0.500000
vt 0.500000 0.500000
vt 0.500000 0.500000
vt 0.500000 0.500000
vt 0.500000 0.500000
vt 0.500000 0.500000
vt 0.500000 0.500000
vt 0.337100 0.681588
vt 0.338322 0.679852
vt 0.339442 0.680640
vt 0.340039 0.689793
vt 0.337500 0.688889
vt 0.337146 0.684310
vt 0.344277 0.665619
vt 0.345400 0.665121
vt 0.344221 0.667359
vt 0.340879 0.679531
vt 0.340814 0.677556
vt 0.344005 0.673018
vt 0.343828 0.683977
vt 0.342141 0.670605
vt 0.340081 0.666286
vt 0.341615 0.666356
vt 0.342051 0.672288
vt 0.337034 0.671723
vt 0.349952 0.680181
vt 0.350225 0.681909
vt 0.349300 0.680044
vt 0.341794 0.684091
vt 0.341905 0.685760
vt 0.340227 0.676214
vt 0.342841 0.673146
vt 0.349722 0.676682
vt 0.348793 0.676038
vt 0.350600 0.674519
vt 0.337500 0.666667
vt 0.341536 0.690024
vt 0.350000 0.688889
vt 0.348479 0.680619
vt 0.347422 0.679241
vt 0.342606 0.683515
vt 0.340404 0.680842
vt 0.342589 0.667072
vt 0.342583 0.668649
vt 0.350404 0.676487
vt 0.344683 0.685242
vt 0.347773 0.680636
vt 0.344664 0.669722
vt 0.347122 0.665494
vt 0.344779 0.671845
vt 0.342397 0.687841
vt 0.342461 0.689472
vt 0.347480 0.677256
vt 0.347953 0.675919
vt 0.337444 0.679852
vt 0.344656 0.687017
vt 0.345506 0.690279
vt 0.344289 0.688795
vt 0.344388 0.690012
vt 0.338058 0.677011
vt 0.337203 0.676804
vt 0.336916 0.674769
vt 0.339197 0.676348
vt 0.350000 0.666667
vn 0.0000 -1.0000 0.0000
vn 0.9911 0.0000 -0.1332
vn 0.9963 0.0000 -0.0861
vn 0.9482 0.0000 0.3176
vn 0.1427 0.0000 -0.9898
vn -0.0698 0.0000 0.9976
vn 0.9852 0.0000 0.1714
vn 0.9805 0.0000 -0.1965
vn -0.3444 0.0000 -0.9388
vn -0.3872 0.0000 0.9220
vn -0.0269 0.0000 -0.9996
vn 0.1361 0.0000 -0.9907
vn -0.1180 0.0000 0.9930
vn 0.7686 0.0000 -0.6397
vn 0.0572 0.0000 0.9984
vn 0.0300 0.0000 -0.9995
vn 0.9288 0.0000 0.3707
vn 0.9781 0.0000 -0.2082
vn -0.2706 0.0000 0.9627
vn -0.3326 0.0000 -0.9431
vn -0.9931 0.0000 0.1175
vn -0.5413 0.0000 -0.8408
vn -0.9999 0.0000 -0.0135
vn -1.0000 0.0000 0.0000
vn -0.9299 0.0000 0.3679
vn -0.4083 0.0000 0.9128
vn -0.9303 0.0000 -0.3667
vn -0.9930 0.0000 0.1177
vn 0.0584 0.0000 -0.9983
vn 0.0515 0.0000 0.9987
vn 0.6139 0.0000 -0.7893
vn 0.5332 0.0000 0.8460
vn 0.9908 0.0000 -0.1355
vn 0.9504 0.0000 0.3109
vn 0.2432 0.0000 -0.9700
vn 0.9316 0.0000 -0.3635
vn 0.9873 0.0000 0.1590
vn 0.1749 0.0000 0.9846
vn 0.9973 0.0000 0.0735
vn 0.9968 0.0000 -0.0795
vn -0.0685 0.0000 -0.9977
vn -0.9981 0.0000 -0.0617
vn -0.8537 0.0000 0.5208
vn -0.7612 0.0000 -0.6485
vn 0.0947 0.0000 0.9955
vn 0.0963 0.0000 -0.9954
vn 0.3726 0.0000 0.9280
vn 0.3164 0.0000 -0.9486
vn -0.1618 0.0000 -0.9868
vn 0.0072 0.0000 1.0000
vn -0.0572 0.0000 -0.9984
vn -0.1347 0.0000 0.9909
vn -0.9242 0.0000 0.3820
vn -0.9966 0.0000 -0.0826
vn -0.9997 0.0000 0.0257
vn -0.9747 0.0000 0.2233
vn -0.9703 0.0000 -0.2419
vn -0.9927 0.0000 0.1208
vn 0.0000 1.0000 0.0000
usemtl BackMat.001
s off
f 210/1/1 218/2/1 223/3/1
f 192/4/1 205/5/1 200/6/1
f 255/7/1 250/8/1 262/9/1
f 219/10/1 242/11/1 226/12/1
f 242/11/1 219/10/1 208/13/1
f 247/14/1 259/15/1 260/16/1
f 247/14/1 241/17/1 244/18/1
f 212/19/1 225/20/1 209/21/1
f 206/22/1 205/5/1 203/23/1
f 226/12/1 243/24/1 228/25/1
f 237/26/1 240/27/1 236/28/1
f 241/17/1 260/16/1 251/29/1
f 203/23/1 192/4/1 193/30/1
f 209/21/1 220/31/1 198/32/1
f 224/33/1 242/11/1 208/13/1
f 206/22/1 218/2/1 205/5/1
f 211/34/1 216/35/1 206/22/1
f 253/36/1 259/15/1 249/37/1
f 219/10/1 216/35/1 211/34/1
f 238/38/1 240/27/1 237/26/1
f 244/18/1 241/17/1 228/25/1
f 249/37/1 259/15/1 247/14/1
f 198/32/1 221/39/1 204/40/1
f 248/41/1 246/42/1 261/43/1
f 204/40/1 221/39/1 208/13/1
f 197/44/1 193/30/1 194/45/1
f 227/46/1 246/42/1 242/11/1
f 240/27/1 229/47/1 236/28/1
f 221/39/1 198/32/1 220/31/1
f 205/5/1 218/2/1 210/1/1
f 206/22/1 216/35/1 218/2/1
f 208/13/1 219/10/1 211/34/1
f 210/1/1 223/3/1 214/48/1
f 202/49/1 196/50/1 191/51/1
f 261/43/1 246/42/1 229/47/1
f 248/41/1 262/9/1 250/8/1
f 191/51/1 196/50/1 189/52/1
f 205/5/1 192/4/1 203/23/1
f 233/53/1 235/54/1 231/55/1
f 235/54/1 234/56/1 241/17/1
f 234/56/1 235/54/1 233/53/1
f 221/39/1 224/33/1 208/13/1
f 203/23/1 193/30/1 197/44/1
f 243/24/1 226/12/1 242/11/1
f 262/9/1 248/41/1 261/43/1
f 198/32/1 202/49/1 191/51/1
f 244/18/1 228/25/1 243/24/1
f 220/31/1 209/21/1 225/20/1
f 241/17/1 247/14/1 260/16/1
f 229/47/1 246/42/1 227/46/1
f 257/57/1 229/47/1 240/27/1
f 227/46/1 242/11/1 224/33/1
f 228/25/1 241/17/1 234/56/1
f 198/32/1 204/40/1 202/49/1
f 261/43/1 229/47/1 257/57/1
f 116/58/2 13/59/2 70/60/2 190/61/2
f 1/62/3 2/63/3 59/64/3 58/65/3
f 2/63/4 121/66/4 195/67/4 59/64/4
f 11/68/5 12/69/5 69/70/5 68/71/5
f 3/72/6 4/73/6 61/74/6 60/75/6
f 13/59/7 125/76/7 199/77/7 70/60/7
f 127/78/8 1/62/8 58/65/8 201/79/8
f 10/80/9 11/68/9 68/71/9 67/81/9
f 4/73/10 5/82/10 62/83/10 61/74/10
f 9/84/11 10/80/11 67/81/11 66/85/11
f 56/86/12 57/87/12 114/88/12 113/89/12
f 5/82/13 133/90/13 207/91/13 62/83/13
f 8/92/14 9/84/14 66/85/14 65/93/14
f 14/94/15 15/95/15 72/96/15 71/97/15
f 55/98/16 56/86/16 113/89/16 112/99/16
f 6/100/17 7/101/17 64/102/17 63/103/17
f 7/101/18 8/92/18 65/93/18 64/102/18
f 15/95/19 139/104/19 213/105/19 72/96/19
f 141/106/20 55/98/20 112/99/20 215/107/20
f 143/108/21 52/109/21 109/110/21 217/111/21
f 50/112/22 51/113/22 108/114/22 107/115/22
f 18/116/23 148/117/23 222/118/23 75/119/23
f 53/120/24 54/121/24 111/122/24 110/123/24
f 52/109/25 53/120/25 110/123/25 109/110/25
f 19/124/26 20/125/26 77/126/26 76/127/26
f 17/128/27 18/116/27 75/119/27 74/129/27
f 16/130/28 17/128/28 74/129/28 73/131/28
f 49/132/29 50/112/29 107/115/29 106/133/29
f 20/125/30 21/134/30 78/135/30 77/126/30
f 48/136/31 49/132/31 106/133/31 105/137/31
f 21/134/32 156/138/32 230/139/32 78/135/32
f 158/140/33 46/141/33 103/142/33 232/143/33
f 46/141/34 47/144/34 104/145/34 103/142/34
f 44/146/35 45/147/35 102/148/35 101/149/35
f 23/150/36 24/151/36 81/152/36 80/153/36
f 24/151/37 165/154/37 239/155/37 81/152/37
f 25/156/38 26/157/38 83/158/38 82/159/38
f 47/144/39 48/136/39 105/137/39 104/145/39
f 22/160/40 23/150/40 80/153/40 79/161/40
f 43/162/41 44/146/41 101/149/41 100/163/41
f 34/164/42 35/165/42 92/166/42 91/167/42
f 35/165/43 171/168/43 245/169/43 92/166/43
f 33/170/44 34/164/44 91/167/44 90/171/44
f 36/172/45 37/173/45 94/174/45 93/175/45
f 32/176/46 33/170/46 90/171/46 89/177/46
f 37/173/47 38/178/47 95/179/47 94/174/47
f 31/180/48 32/176/48 89/177/48 88/181/48
f 178/182/49 43/162/49 100/163/49 252/183/49
f 38/178/50 180/184/50 254/185/50 95/179/50
f 182/186/51 31/180/51 88/181/51 256/187/51
f 26/157/52 184/188/52 258/189/52 83/158/52
f 39/190/53 40/191/53 97/192/53 96/193/53
f 41/194/54 42/195/54 99/196/54 98/197/54
f 40/191/55 41/194/55 98/197/55 97/192/55
f 27/198/56 28/199/56 85/200/56 84/201/56
f 29/202/57 30/203/57 87/204/57 86/205/57
f 28/199/58 29/202/58 86/205/58 85/200/58
usemtl FrontMat.001
f 136/206/59 149/207/59 144/208/59
f 118/209/59 126/210/59 131/211/59
f 181/212/59 188/213/59 176/214/59
f 145/215/59 152/216/59 168/217/59
f 168/217/59 134/218/59 145/215/59
f 173/219/59 186/220/59 185/221/59
f 173/219/59 170/222/59 167/223/59
f 138/224/59 135/225/59 151/226/59
f 132/227/59 129/228/59 131/211/59
f 152/216/59 154/229/59 169/230/59
f 163/231/59 162/232/59 166/233/59
f 167/223/59 177/234/59 186/220/59
f 129/228/59 119/235/59 118/209/59
f 135/225/59 124/236/59 146/237/59
f 150/238/59 134/218/59 168/217/59
f 132/227/59 131/211/59 144/208/59
f 137/239/59 132/227/59 142/240/59
f 179/241/59 175/242/59 185/221/59
f 145/215/59 137/239/59 142/240/59
f 164/243/59 163/231/59 166/233/59
f 170/222/59 154/229/59 167/223/59
f 175/242/59 173/219/59 185/221/59
f 124/236/59 130/244/59 147/245/59
f 174/246/59 187/247/59 172/248/59
f 130/244/59 134/218/59 147/245/59
f 123/249/59 120/250/59 119/235/59
f 153/251/59 168/217/59 172/248/59
f 166/233/59 162/232/59 155/252/59
f 147/245/59 146/237/59 124/236/59
f 131/211/59 136/206/59 144/208/59
f 132/227/59 144/208/59 142/240/59
f 134/218/59 137/239/59 145/215/59
f 136/206/59 140/253/59 149/207/59
f 128/254/59 117/255/59 122/256/59
f 187/247/59 155/252/59 172/248/59
f 174/246/59 176/214/59 188/213/59
f 117/255/59 115/257/59 122/256/59
f 131/211/59 129/228/59 118/209/59
f 159/258/59 157/259/59 161/260/59
f 161/260/59 167/223/59 160/261/59
f 160/261/59 159/258/59 161/260/59
f 147/245/59 134/218/59 150/238/59
f 129/228/59 123/249/59 119/235/59
f 169/230/59 168/217/59 152/216/59
f 188/213/59 187/247/59 174/246/59
f 124/236/59 117/255/59 128/254/59
f 170/222/59 169/230/59 154/229/59
f 146/237/59 151/226/59 135/225/59
f 167/223/59 186/220/59 173/219/59
f 155/252/59 153/251/59 172/248/59
f 183/262/59 166/233/59 155/252/59
f 153/251/59 150/238/59 168/217/59
f 154/229/59 160/261/59 167/223/59
f 124/236/59 128/254/59 130/244/59
f 187/247/59 183/262/59 155/252/59
