# Blender v2.83.1 OBJ File: 'jigsaw-80x45-3-step2.blend'
# www.blender.org
mtllib piece.295.mtl
o path590
v 0.286301 0.037500 0.543499
v 0.161625 0.037500 0.559060
v 0.082970 0.037500 0.540074
v 0.084885 0.037500 0.471906
v 0.122658 0.037500 0.380030
v 0.131771 0.037500 0.299943
v 0.068554 0.037500 0.260562
v -0.027328 0.037500 0.264465
v -0.095360 0.037500 0.307647
v -0.095386 0.037500 0.382060
v -0.068687 0.037500 0.463500
v -0.076904 0.037500 0.523718
v -0.162498 0.037500 0.542554
v -0.291233 0.037500 0.532190
v -0.505218 0.037500 0.495888
v -0.460068 0.037500 0.298482
v -0.446346 0.037500 0.180392
v -0.467361 0.037500 0.103374
v -0.537392 0.037500 0.099261
v -0.630306 0.037500 0.127510
v -0.709850 0.037500 0.129484
v -0.746536 0.037500 0.065762
v -0.737915 0.037500 -0.026221
v -0.688297 0.037500 -0.089816
v -0.606434 0.037500 -0.087911
v -0.518784 0.037500 -0.061561
v -0.456245 0.037500 -0.071361
v -0.440624 0.037500 -0.158853
v -0.457420 0.037500 -0.289376
v -0.505219 0.037500 -0.505810
v -0.277714 0.037500 -0.526506
v -0.140896 0.037500 -0.526129
v -0.050037 0.037500 -0.497116
v -0.041962 0.037500 -0.429387
v -0.073429 0.037500 -0.343323
v -0.081200 0.037500 -0.266923
v -0.022148 0.037500 -0.224344
v 0.066322 0.037500 -0.224374
v 0.126682 0.037500 -0.271962
v 0.120998 0.037500 -0.364623
v 0.089683 0.037500 -0.470137
v 0.092750 0.037500 -0.548854
v 0.171589 0.037500 -0.572303
v 0.293148 0.037500 -0.556738
v 0.496689 0.037500 -0.505810
v 0.435635 0.037500 -0.143758
v 0.449692 0.037500 -0.057659
v 0.507614 0.037500 -0.057656
v 0.590214 0.037500 -0.096768
v 0.670063 0.037500 -0.106960
v 0.722900 0.037500 -0.041938
v 0.737114 0.037500 0.057655
v 0.704269 0.037500 0.129439
v 0.623905 0.037500 0.131504
v 0.527424 0.037500 0.103826
v 0.454201 0.037500 0.106852
v 0.432724 0.037500 0.182646
v 0.447949 0.037500 0.299735
v 0.496689 0.037500 0.495888
v 0.286301 -0.037500 0.543499
v 0.161625 -0.037500 0.559060
v 0.082970 -0.037500 0.540074
v 0.084885 -0.037500 0.471906
v 0.122658 -0.037500 0.380030
v 0.131771 -0.037500 0.299943
v 0.068554 -0.037500 0.260562
v -0.027328 -0.037500 0.264465
v -0.095360 -0.037500 0.307647
v -0.095386 -0.037500 0.382060
v -0.068687 -0.037500 0.463500
v -0.076904 -0.037500 0.523718
v -0.162498 -0.037498 0.542554
v -0.291233 -0.037500 0.532190
v -0.505218 -0.037500 0.495888
v -0.460068 -0.037500 0.298482
v -0.446346 -0.037498 0.180392
v -0.467361 -0.037500 0.103374
v -0.537392 -0.037498 0.099261
v -0.630306 -0.037500 0.127510
v -0.709850 -0.037500 0.129484
v -0.746536 -0.037500 0.065762
v -0.737915 -0.037498 -0.026221
v -0.688297 -0.037500 -0.089816
v -0.606434 -0.037500 -0.087911
v -0.518784 -0.037498 -0.061561
v -0.456245 -0.037500 -0.071361
v -0.440624 -0.037498 -0.158853
v -0.457420 -0.037500 -0.289376
v -0.505219 -0.037500 -0.505810
v -0.277714 -0.037498 -0.526506
v -0.140896 -0.037500 -0.526129
v -0.050037 -0.037498 -0.497116
v -0.041962 -0.037500 -0.429387
v -0.073429 -0.037500 -0.343323
v -0.081200 -0.037500 -0.266923
v -0.022148 -0.037500 -0.224344
v 0.066322 -0.037498 -0.224374
v 0.126682 -0.037500 -0.271962
v 0.120998 -0.037500 -0.364623
v 0.089683 -0.037500 -0.470137
v 0.092750 -0.037498 -0.548854
v 0.171589 -0.037500 -0.572303
v 0.293148 -0.037500 -0.556738
v 0.496689 -0.037500 -0.505810
v 0.435635 -0.037500 -0.143758
v 0.449692 -0.037500 -0.057659
v 0.507614 -0.037500 -0.057656
v 0.590214 -0.037500 -0.096768
v 0.670063 -0.037500 -0.106960
v 0.722900 -0.037500 -0.041938
v 0.737114 -0.037498 0.057655
v 0.704269 -0.037500 0.129439
v 0.623905 -0.037500 0.131504
v 0.527424 -0.037500 0.103826
v 0.454201 -0.037500 0.106852
v 0.432724 -0.037498 0.182646
v 0.447949 -0.037498 0.299735
v 0.496689 -0.037498 0.495888
v 0.286301 0.037500 0.543499
v 0.161625 0.037500 0.559060
v 0.082970 0.037500 0.540074
v 0.082970 0.037500 0.540074
v -0.076904 0.037500 0.523718
v -0.076904 0.037500 0.523718
v -0.162498 0.037500 0.542554
v -0.291233 0.037500 0.532190
v 0.084885 0.037500 0.471906
v -0.068687 0.037500 0.463500
v 0.496689 0.037500 0.495888
v 0.496689 0.037500 0.495888
v -0.505218 0.037500 0.495888
v -0.505218 0.037500 0.495888
v 0.122658 0.037500 0.380030
v -0.095386 0.037500 0.382060
v 0.447949 0.037500 0.299735
v -0.460068 0.037500 0.298482
v -0.095360 0.037500 0.307647
v 0.131771 0.037500 0.299943
v 0.131771 0.037500 0.299943
v -0.027328 0.037500 0.264465
v 0.068554 0.037500 0.260562
v 0.432724 0.037500 0.182646
v -0.446346 0.037500 0.180392
v 0.454201 0.037500 0.106852
v 0.454201 0.037500 0.106852
v -0.467361 0.037500 0.103374
v -0.467361 0.037500 0.103374
v 0.704269 0.037500 0.129439
v 0.704269 0.037500 0.129439
v 0.623905 0.037500 0.131504
v 0.527424 0.037500 0.103826
v -0.630306 0.037500 0.127510
v -0.709850 0.037500 0.129484
v -0.709850 0.037500 0.129484
v -0.746536 0.037500 0.065762
v 0.737114 0.037500 0.057655
v -0.537392 0.037500 0.099261
v -0.737915 0.037500 -0.026221
v 0.722900 0.037500 -0.041938
v -0.688297 0.037500 -0.089816
v 0.670063 0.037500 -0.106960
v 0.449692 0.037500 -0.057659
v 0.449692 0.037500 -0.057659
v 0.507614 0.037500 -0.057656
v 0.590214 0.037500 -0.096768
v 0.435635 0.037500 -0.143758
v -0.518784 0.037500 -0.061561
v -0.456245 0.037500 -0.071361
v -0.456245 0.037500 -0.071361
v -0.606434 0.037500 -0.087911
v -0.440624 0.037500 -0.158853
v -0.022148 0.037500 -0.224344
v 0.066322 0.037500 -0.224374
v -0.457420 0.037500 -0.289376
v -0.081200 0.037500 -0.266923
v 0.126682 0.037500 -0.271962
v -0.073429 0.037500 -0.343323
v 0.120998 0.037500 -0.364623
v -0.041962 0.037500 -0.429387
v 0.089683 0.037500 -0.470137
v 0.496689 0.037500 -0.505810
v 0.496689 0.037500 -0.505810
v -0.050037 0.037500 -0.497116
v -0.050037 0.037500 -0.497116
v 0.092750 0.037500 -0.548854
v 0.092750 0.037500 -0.548854
v -0.505219 0.037500 -0.505810
v -0.505219 0.037500 -0.505810
v -0.140896 0.037500 -0.526129
v -0.277714 0.037500 -0.526506
v 0.293148 0.037500 -0.556738
v 0.171589 0.037500 -0.572303
v 0.286301 -0.037500 0.543499
v 0.161625 -0.037500 0.559060
v 0.082970 -0.037500 0.540074
v 0.082970 -0.037500 0.540074
v -0.076904 -0.037500 0.523718
v -0.076904 -0.037500 0.523718
v -0.162498 -0.037498 0.542554
v -0.291233 -0.037500 0.532190
v 0.084885 -0.037500 0.471906
v -0.068687 -0.037500 0.463500
v 0.496689 -0.037498 0.495888
v 0.496689 -0.037498 0.495888
v -0.505218 -0.037500 0.495888
v -0.505218 -0.037500 0.495888
v 0.122658 -0.037500 0.380030
v -0.095386 -0.037500 0.382060
v 0.447949 -0.037498 0.299735
v -0.460068 -0.037500 0.298482
v -0.095360 -0.037500 0.307647
v 0.131771 -0.037500 0.299943
v 0.131771 -0.037500 0.299943
v -0.027328 -0.037500 0.264465
v 0.068554 -0.037500 0.260562
v 0.432724 -0.037498 0.182646
v -0.446346 -0.037498 0.180392
v 0.454201 -0.037500 0.106852
v 0.454201 -0.037500 0.106852
v -0.467361 -0.037500 0.103374
v -0.467361 -0.037500 0.103374
v 0.704269 -0.037500 0.129439
v 0.704269 -0.037500 0.129439
v 0.623905 -0.037500 0.131504
v 0.527424 -0.037500 0.103826
v -0.630306 -0.037500 0.127510
v -0.709850 -0.037500 0.129484
v -0.709850 -0.037500 0.129484
v -0.746536 -0.037500 0.065762
v 0.737114 -0.037498 0.057655
v -0.537392 -0.037498 0.099261
v -0.737915 -0.037498 -0.026221
v 0.722900 -0.037500 -0.041938
v -0.688297 -0.037500 -0.089816
v 0.670063 -0.037500 -0.106960
v 0.449692 -0.037500 -0.057659
v 0.449692 -0.037500 -0.057659
v 0.507614 -0.037500 -0.057656
v 0.590214 -0.037500 -0.096768
v 0.435635 -0.037500 -0.143758
v -0.518784 -0.037498 -0.061561
v -0.456245 -0.037500 -0.071361
v -0.456245 -0.037500 -0.071361
v -0.606434 -0.037500 -0.087911
v -0.440624 -0.037498 -0.158853
v -0.022148 -0.037500 -0.224344
v 0.066322 -0.037498 -0.224374
v -0.457420 -0.037500 -0.289376
v -0.081200 -0.037500 -0.266923
v 0.126682 -0.037500 -0.271962
v -0.073429 -0.037500 -0.343323
v 0.120998 -0.037500 -0.364623
v -0.041962 -0.037500 -0.429387
v 0.089683 -0.037500 -0.470137
v 0.496689 -0.037500 -0.505810
v 0.496689 -0.037500 -0.505810
v -0.050037 -0.037498 -0.497116
v -0.050037 -0.037498 -0.497116
v 0.092750 -0.037498 -0.548854
v 0.092750 -0.037498 -0.548854
v -0.505219 -0.037500 -0.505810
v -0.505219 -0.037500 -0.505810
v -0.140896 -0.037500 -0.526129
v -0.277714 -0.037498 -0.526506
v 0.293148 -0.037500 -0.556738
v 0.171589 -0.037500 -0.572303
vt 0.500000 0.500000
vt 0.500000 0.500000
vt 0.500000 0.500000
vt 0.500000 0.500000
vt 0.500000 0.500000
vt 0.500000 0.500000
vt 0.500000 0.500000
vt 0.500000 0.500000
vt 0.500000 0.500000
vt 0.500000 0.500000
vt 0.500000 0.500000
vt 0.500000 0.500000
vt 0.500000 0.500000
vt 0.500000 0.500000
vt 0.500000 0.500000
vt 0.500000 0.500000
vt 0.500000 0.500000
vt 0.500000 0.500000
vt 0.500000 0.500000
vt 0.500000 0.500000
vt 0.500000 0.500000
vt 0.500000 0.500000
vt 0.500000 0.500000
vt 0.500000 0.500000
vt 0.500000 0.500000
vt 0.500000 0.500000
vt 0.500000 0.500000
vt 0.500000 0.500000
vt 0.500000 0.500000
vt 0.500000 0.500000
vt 0.500000 0.500000
vt 0.500000 0.500000
vt 0.500000 0.500000
vt 0.500000 0.500000
vt 0.500000 0.500000
vt 0.500000 0.500000
vt 0.500000 0.500000
vt 0.500000 0.500000
vt 0.500000 0.500000
vt 0.500000 0.500000
vt 0.500000 0.500000
vt 0.500000 0.500000
vt 0.500000 0.500000
vt 0.500000 0.500000
vt 0.500000 0.500000
vt 0.500000 0.500000
vt 0.500000 0.500000
vt 0.500000 0.500000
vt 0.500000 0.500000
vt 0.500000 0.500000
vt 0.500000 0.500000
vt 0.500000 0.500000
vt 0.500000 0.500000
vt 0.500000 0.500000
vt 0.500000 0.500000
vt 0.500000 0.500000
vt 0.500000 0.500000
vt 0.500000 0.500000
vt 0.500000 0.500000
vt 0.500000 0.500000
vt 0.500000 0.500000
vt 0.500000 0.500000
vt 0.500000 0.500000
vt 0.500000 0.500000
vt 0.500000 0.500000
vt 0.500000 0.500000
vt 0.500000 0.500000
vt 0.500000 0.500000
vt 0.500000 0.500000
vt 0.500000 0.500000
vt 0.500000 0.500000
vt 0.500000 0.500000
vt 0.500000 0.500000
vt 0.500000 0.500000
vt 0.500000 0.500000
vt 0.500000 0.500000
vt 0.500000 0.500000
vt 0.500000 0.500000
vt 0.500000 0.500000
vt 0.500000 0.500000
vt 0.500000 0.500000
vt 0.500000 0.500000
vt 0.500000 0.500000
vt 0.500000 0.500000
vt 0.500000 0.500000
vt 0.500000 0.500000
vt 0.500000 0.500000
vt 0.500000 0.500000
vt 0.500000 0.500000
vt 0.500000 0.500000
vt 0.500000 0.500000
vt 0.500000 0.500000
vt 0.500000 0.500000
vt 0.500000 0.500000
vt 0.500000 0.500000
vt 0.500000 0.500000
vt 0.500000 0.500000
vt 0.500000 0.500000
vt 0.500000 0.500000
vt 0.500000 0.500000
vt 0.500000 0.500000
vt 0.500000 0.500000
vt 0.500000 0.500000
vt 0.500000 0.500000
vt 0.500000 0.500000
vt 0.500000 0.500000
vt 0.500000 0.500000
vt 0.500000 0.500000
vt 0.500000 0.500000
vt 0.500000 0.500000
vt 0.500000 0.500000
vt 0.500000 0.500000
vt 0.500000 0.500000
vt 0.500000 0.500000
vt 0.500000 0.500000
vt 0.500000 0.500000
vt 0.500000 0.500000
vt 0.500000 0.500000
vt 0.500000 0.500000
vt 0.500000 0.500000
vt 0.500000 0.500000
vt 0.500000 0.500000
vt 0.500000 0.500000
vt 0.500000 0.500000
vt 0.500000 0.500000
vt 0.500000 0.500000
vt 0.500000 0.500000
vt 0.500000 0.500000
vt 0.500000 0.500000
vt 0.500000 0.500000
vt 0.500000 0.500000
vt 0.500000 0.500000
vt 0.500000 0.500000
vt 0.500000 0.500000
vt 0.500000 0.500000
vt 0.500000 0.500000
vt 0.500000 0.500000
vt 0.500000 0.500000
vt 0.500000 0.500000
vt 0.500000 0.500000
vt 0.500000 0.500000
vt 0.500000 0.500000
vt 0.500000 0.500000
vt 0.500000 0.500000
vt 0.500000 0.500000
vt 0.500000 0.500000
vt 0.500000 0.500000
vt 0.500000 0.500000
vt 0.500000 0.500000
vt 0.500000 0.500000
vt 0.500000 0.500000
vt 0.500000 0.500000
vt 0.500000 0.500000
vt 0.500000 0.500000
vt 0.500000 0.500000
vt 0.500000 0.500000
vt 0.500000 0.500000
vt 0.500000 0.500000
vt 0.500000 0.500000
vt 0.500000 0.500000
vt 0.500000 0.500000
vt 0.500000 0.500000
vt 0.500000 0.500000
vt 0.500000 0.500000
vt 0.500000 0.500000
vt 0.500000 0.500000
vt 0.500000 0.500000
vt 0.500000 0.500000
vt 0.500000 0.500000
vt 0.500000 0.500000
vt 0.500000 0.500000
vt 0.500000 0.500000
vt 0.500000 0.500000
vt 0.500000 0.500000
vt 0.500000 0.500000
vt 0.500000 0.500000
vt 0.500000 0.500000
vt 0.500000 0.500000
vt 0.500000 0.500000
vt 0.500000 0.500000
vt 0.500000 0.500000
vt 0.500000 0.500000
vt 0.500000 0.500000
vt 0.500000 0.500000
vt 0.500000 0.500000
vt 0.500000 0.500000
vt 0.500000 0.500000
vt 0.500000 0.500000
vt 0.500000 0.500000
vt 0.500000 0.500000
vt 0.500000 0.500000
vt 0.500000 0.500000
vt 0.500000 0.500000
vt 0.500000 0.500000
vt 0.500000 0.500000
vt 0.500000 0.500000
vt 0.500000 0.500000
vt 0.500000 0.500000
vt 0.500000 0.500000
vt 0.500000 0.500000
vt 0.500000 0.500000
vt 0.500000 0.500000
vt 0.500000 0.500000
vt 0.500000 0.500000
vt 0.500000 0.500000
vt 0.500000 0.500000
vt 0.500000 0.500000
vt 0.680342 0.928113
vt 0.675586 0.921053
vt 0.680369 0.917355
vt 0.675762 0.919143
vt 0.679687 0.914243
vt 0.679616 0.916299
vt 0.673833 0.920186
vt 0.673413 0.925250
vt 0.672178 0.921402
vt 0.677625 0.934390
vt 0.675000 0.933333
vt 0.675608 0.928982
vt 0.674617 0.924636
vt 0.687028 0.924626
vt 0.686765 0.926334
vt 0.682387 0.929157
vt 0.682955 0.910660
vt 0.684662 0.910652
vt 0.682113 0.914716
vt 0.687500 0.911111
vt 0.686904 0.915913
vt 0.681538 0.928199
vt 0.681473 0.917355
vt 0.686889 0.920749
vt 0.686937 0.928954
vt 0.682387 0.930808
vt 0.682210 0.916411
vt 0.677539 0.909981
vt 0.679056 0.909636
vt 0.680078 0.911903
vt 0.675798 0.926384
vt 0.675530 0.924703
vt 0.689784 0.920340
vt 0.690403 0.921751
vt 0.688763 0.920382
vt 0.690053 0.925205
vt 0.689061 0.925161
vt 0.690511 0.923791
vt 0.682156 0.933951
vt 0.682054 0.932615
vt 0.683224 0.934369
vt 0.679553 0.928987
vt 0.679667 0.930763
vt 0.684830 0.934139
vt 0.672410 0.925204
vt 0.672000 0.923611
vt 0.687669 0.920967
vt 0.681720 0.912807
vt 0.681821 0.911304
vt 0.687901 0.924534
vt 0.686694 0.918808
vt 0.674864 0.921053
vt 0.672837 0.919960
vt 0.675000 0.911111
vt 0.679180 0.934735
vt 0.687500 0.933333
vt 0.680138 0.932801
vt 0.680162 0.934314
vt 0.680040 0.910156
vn -0.0000 -1.0000 -0.0000
vn 0.1238 0.0000 0.9923
vn -0.2346 0.0000 0.9721
vn 0.2149 0.0000 0.9766
vn -0.0803 0.0000 0.9968
vn -0.9996 0.0000 -0.0281
vn 0.9908 0.0000 0.1352
vn 0.2207 0.0000 0.9753
vn -0.1673 0.0000 0.9859
vn -0.9249 0.0000 -0.3802
vn 0.9502 0.0000 -0.3115
vn 0.9705 0.0000 -0.2411
vn -0.9748 0.0000 -0.2230
vn 1.0000 0.0000 0.0004
vn -0.9936 0.0000 -0.1131
vn 0.5359 0.0000 0.8443
vn -0.5287 0.0000 0.8488
vn 0.9917 0.0000 -0.1289
vn -0.9933 0.0000 -0.1154
vn 0.0407 0.0000 0.9992
vn 0.9621 0.0000 0.2726
vn -0.9647 0.0000 0.2632
vn 0.0257 0.0000 0.9997
vn -0.2757 0.0000 0.9612
vn 0.0248 0.0000 0.9997
vn -0.8666 0.0000 0.4989
vn 0.9093 0.0000 0.4161
vn 0.2909 0.0000 0.9568
vn 0.0413 0.0000 0.9991
vn -0.0586 0.0000 0.9983
vn -0.9956 0.0000 -0.0933
vn 0.9900 0.0000 -0.1413
vn -0.7884 0.0000 -0.6151
vn 0.7761 0.0000 -0.6306
vn 0.0000 0.0000 -1.0000
vn -0.1266 0.0000 -0.9920
vn -0.4280 0.0000 -0.9038
vn 0.9869 0.0000 -0.1611
vn -0.1548 0.0000 -0.9879
vn 0.2879 0.0000 -0.9577
vn 0.0233 0.0000 -0.9997
vn -0.9844 0.0000 -0.1758
vn -0.0003 0.0000 -1.0000
vn -0.9918 0.0000 0.1276
vn 0.5849 0.0000 -0.8111
vn -0.6191 0.0000 -0.7853
vn 0.9949 0.0000 0.1012
vn -0.9981 0.0000 0.0612
vn 0.9392 0.0000 0.3434
vn -0.9587 0.0000 0.2845
vn 0.9861 0.0000 0.1663
vn 0.9930 0.0000 -0.1184
vn -0.9992 0.0000 -0.0389
vn -0.9765 0.0000 0.2156
vn 0.3042 0.0000 -0.9526
vn 0.0028 0.0000 -1.0000
vn -0.0906 0.0000 -0.9959
vn 0.2427 0.0000 -0.9701
vn 0.1270 0.0000 -0.9919
vn -0.2851 0.0000 -0.9585
vn 0.0000 1.0000 0.0000
usemtl BackMat.001
s off
f 215/1/1 247/2/1 236/3/1
f 240/4/1 250/5/1 252/6/1
f 239/7/1 233/8/1 224/9/1
f 193/10/1 209/11/1 203/12/1
f 225/13/1 239/7/1 224/9/1
f 220/14/1 211/15/1 217/16/1
f 263/17/1 251/18/1 264/19/1
f 264/19/1 248/20/1 261/21/1
f 236/3/1 247/2/1 240/4/1
f 214/22/1 246/23/1 215/1/1
f 214/22/1 220/14/1 242/24/1
f 264/19/1 251/18/1 248/20/1
f 211/15/1 208/25/1 210/26/1
f 251/18/1 249/27/1 248/20/1
f 265/28/1 254/29/1 266/30/1
f 216/31/1 215/1/1 218/32/1
f 234/33/1 244/34/1 232/35/1
f 217/16/1 211/15/1 210/26/1
f 227/36/1 229/37/1 226/38/1
f 197/39/1 199/40/1 202/41/1
f 252/6/1 254/29/1 265/28/1
f 240/4/1 252/6/1 265/28/1
f 212/42/1 209/11/1 207/43/1
f 200/44/1 208/25/1 199/40/1
f 224/9/1 230/45/1 222/46/1
f 209/11/1 212/42/1 216/31/1
f 241/47/1 242/24/1 220/14/1
f 253/48/1 263/17/1 257/49/1
f 231/50/1 241/47/1 220/14/1
f 245/51/1 249/27/1 242/24/1
f 242/24/1 249/27/1 246/23/1
f 238/52/1 239/7/1 225/13/1
f 218/32/1 238/52/1 225/13/1
f 229/37/1 232/35/1 226/38/1
f 240/4/1 247/2/1 250/5/1
f 226/38/1 244/34/1 231/50/1
f 215/1/1 236/3/1 218/32/1
f 224/9/1 233/8/1 230/45/1
f 233/8/1 239/7/1 235/53/1
f 226/38/1 232/35/1 244/34/1
f 251/18/1 263/17/1 253/48/1
f 240/4/1 265/28/1 255/54/1
f 194/55/1 207/43/1 193/10/1
f 210/26/1 200/44/1 205/56/1
f 210/26/1 208/25/1 200/44/1
f 201/57/1 194/55/1 195/58/1
f 193/10/1 207/43/1 209/11/1
f 266/30/1 254/29/1 259/59/1
f 215/1/1 246/23/1 247/2/1
f 211/15/1 220/14/1 214/22/1
f 212/42/1 215/1/1 216/31/1
f 202/41/1 199/40/1 208/25/1
f 241/47/1 231/50/1 244/34/1
f 248/20/1 249/27/1 245/51/1
f 218/32/1 236/3/1 238/52/1
f 207/43/1 194/55/1 201/57/1
f 242/24/1 246/23/1 214/22/1
f 1/60/2 2/61/2 61/62/2 60/63/2
f 2/61/3 122/64/3 196/65/3 61/62/3
f 124/66/4 13/67/4 72/68/4 198/69/4
f 13/67/5 14/70/5 73/71/5 72/68/5
f 3/72/6 4/73/6 63/74/6 62/75/6
f 11/76/7 12/77/7 71/78/7 70/79/7
f 130/80/8 1/60/8 60/63/8 204/81/8
f 14/70/9 132/82/9 206/83/9 73/71/9
f 4/73/10 5/84/10 64/85/10 63/74/10
f 10/86/11 11/76/11 70/79/11 69/87/11
f 58/88/12 59/89/12 118/90/12 117/91/12
f 15/92/13 16/93/13 75/94/13 74/95/13
f 9/96/14 10/86/14 69/87/14 68/97/14
f 5/84/15 139/98/15 213/99/15 64/85/15
f 8/100/16 9/96/16 68/97/16 67/101/16
f 6/102/17 7/103/17 66/104/17 65/105/17
f 57/106/18 58/88/18 117/91/18 116/107/18
f 16/93/19 17/108/19 76/109/19 75/94/19
f 7/103/20 8/100/20 67/101/20 66/104/20
f 145/110/21 57/106/21 116/107/21 219/111/21
f 17/108/22 147/112/22 221/113/22 76/109/22
f 149/114/23 54/115/23 113/116/23 223/117/23
f 54/115/24 55/118/24 114/119/24 113/116/24
f 20/120/25 154/121/25 228/122/25 79/123/25
f 21/124/26 22/125/26 81/126/26 80/127/26
f 52/128/27 53/129/27 112/130/27 111/131/27
f 19/132/28 20/120/28 79/123/28 78/133/28
f 55/118/29 56/134/29 115/135/29 114/119/29
f 18/136/30 19/132/30 78/133/30 77/137/30
f 22/125/31 23/138/31 82/139/31 81/126/31
f 51/140/32 52/128/32 111/131/32 110/141/32
f 23/138/33 24/142/33 83/143/33 82/139/33
f 50/144/34 51/140/34 110/141/34 109/145/34
f 163/146/35 48/147/35 107/148/35 237/149/35
f 49/150/36 50/144/36 109/145/36 108/151/36
f 48/147/37 49/150/37 108/151/37 107/148/37
f 46/152/38 47/153/38 106/154/38 105/155/38
f 26/156/39 169/157/39 243/158/39 85/159/39
f 25/160/40 26/156/40 85/159/40 84/161/40
f 24/142/41 25/160/41 84/161/41 83/143/41
f 27/162/42 28/163/42 87/164/42 86/165/42
f 37/166/43 38/167/43 97/168/43 96/169/43
f 28/163/44 29/170/44 88/171/44 87/164/44
f 36/172/45 37/166/45 96/169/45 95/173/45
f 38/167/46 39/174/46 98/175/46 97/168/46
f 35/176/47 36/172/47 95/173/47 94/177/47
f 39/174/48 40/178/48 99/179/48 98/175/48
f 34/180/49 35/176/49 94/177/49 93/181/49
f 40/178/50 41/182/50 100/183/50 99/179/50
f 182/184/51 46/152/51 105/155/51 256/185/51
f 184/186/52 34/180/52 93/181/52 258/187/52
f 41/182/53 186/188/53 260/189/53 100/183/53
f 29/170/54 188/190/54 262/191/54 88/171/54
f 32/192/55 33/193/55 92/194/55 91/195/55
f 31/196/56 32/192/56 91/195/56 90/197/56
f 30/198/57 31/196/57 90/197/57 89/199/57
f 44/200/58 45/201/58 104/202/58 103/203/58
f 43/204/59 44/200/59 103/203/59 102/205/59
f 42/206/60 43/204/60 102/205/60 101/207/60
usemtl FrontMat.001
f 141/208/61 162/209/61 173/210/61
f 166/211/61 178/212/61 176/213/61
f 165/214/61 150/215/61 159/216/61
f 119/217/61 129/218/61 135/219/61
f 151/220/61 150/215/61 165/214/61
f 146/221/61 143/222/61 137/223/61
f 189/224/61 190/225/61 177/226/61
f 190/225/61 187/227/61 174/228/61
f 162/209/61 166/211/61 173/210/61
f 140/229/61 141/208/61 172/230/61
f 140/229/61 168/231/61 146/221/61
f 190/225/61 174/228/61 177/226/61
f 137/223/61 136/232/61 134/233/61
f 177/226/61 174/228/61 175/234/61
f 191/235/61 192/236/61 180/237/61
f 142/238/61 144/239/61 141/208/61
f 160/240/61 158/241/61 170/242/61
f 143/222/61 136/232/61 137/223/61
f 153/243/61 152/244/61 155/245/61
f 123/246/61 128/247/61 125/248/61
f 178/212/61 191/235/61 180/237/61
f 166/211/61 191/235/61 178/212/61
f 138/249/61 133/250/61 135/219/61
f 126/251/61 125/248/61 134/233/61
f 150/215/61 148/252/61 156/253/61
f 135/219/61 142/238/61 138/249/61
f 167/254/61 146/221/61 168/231/61
f 179/255/61 183/256/61 189/224/61
f 157/257/61 146/221/61 167/254/61
f 171/258/61 168/231/61 175/234/61
f 168/231/61 172/230/61 175/234/61
f 164/259/61 151/220/61 165/214/61
f 144/239/61 151/220/61 164/259/61
f 155/245/61 152/244/61 158/241/61
f 166/211/61 176/213/61 173/210/61
f 152/244/61 157/257/61 170/242/61
f 141/208/61 144/239/61 162/209/61
f 150/215/61 156/253/61 159/216/61
f 159/216/61 161/260/61 165/214/61
f 152/244/61 170/242/61 158/241/61
f 177/226/61 179/255/61 189/224/61
f 166/211/61 181/261/61 191/235/61
f 120/262/61 119/217/61 133/250/61
f 136/232/61 131/263/61 126/251/61
f 136/232/61 126/251/61 134/233/61
f 127/264/61 121/265/61 120/262/61
f 119/217/61 135/219/61 133/250/61
f 192/236/61 185/266/61 180/237/61
f 141/208/61 173/210/61 172/230/61
f 137/223/61 140/229/61 146/221/61
f 138/249/61 142/238/61 141/208/61
f 128/247/61 134/233/61 125/248/61
f 167/254/61 170/242/61 157/257/61
f 174/228/61 171/258/61 175/234/61
f 144/239/61 164/259/61 162/209/61
f 133/250/61 127/264/61 120/262/61
f 168/231/61 140/229/61 172/230/61
