# Blender v2.83.1 OBJ File: 'jigsaw-80x45-3-step2.blend'
# www.blender.org
mtllib piece.2581.mtl
o path5162
v -0.531353 0.037500 0.327124
v -0.534466 0.037500 0.207762
v -0.512280 0.037500 0.129221
v -0.455536 0.037500 0.123409
v -0.383560 0.037500 0.149782
v -0.322773 0.037500 0.149670
v -0.294537 0.037500 0.083706
v -0.299980 0.037500 -0.010237
v -0.335159 0.037500 -0.074976
v -0.393429 0.037500 -0.072987
v -0.457310 0.037500 -0.045343
v -0.506618 0.037500 -0.052771
v -0.526772 0.037500 -0.137054
v -0.508198 0.037500 -0.475767
v -0.188087 0.037500 -0.445271
v -0.110806 0.037500 -0.464989
v -0.108406 0.037500 -0.519316
v -0.139511 0.037500 -0.591568
v -0.144257 0.037500 -0.658478
v -0.082390 0.037500 -0.699987
v 0.007908 0.037500 -0.708910
v 0.068871 0.037500 -0.681263
v 0.062839 0.037500 -0.618340
v 0.032646 0.037500 -0.542536
v 0.041260 0.037500 -0.481522
v 0.131744 0.037500 -0.455643
v 0.493500 0.037500 -0.475767
v 0.528461 0.037500 -0.253798
v 0.534939 0.037500 -0.121286
v 0.506611 0.037500 -0.035475
v 0.430275 0.037500 -0.032454
v 0.331318 0.037500 -0.067072
v 0.244843 0.037500 -0.073858
v 0.200039 0.037500 -0.008579
v 0.202507 0.037500 0.088041
v 0.251953 0.037500 0.154045
v 0.342113 0.037500 0.148415
v 0.443188 0.037500 0.113884
v 0.519432 0.037500 0.114140
v 0.545151 0.037500 0.193319
v 0.534813 0.037500 0.317411
v 0.493500 0.037500 0.526142
v 0.277428 0.037500 0.569469
v 0.147999 0.037500 0.583536
v 0.063194 0.037500 0.565989
v 0.057899 0.037500 0.503199
v 0.088627 0.037500 0.417166
v 0.092293 0.037500 0.338797
v 0.026150 0.037500 0.293947
v -0.071190 0.037500 0.288263
v -0.140785 0.037500 0.322344
v -0.143284 0.037500 0.391832
v -0.117661 0.037500 0.472532
v -0.122482 0.037500 0.535284
v -0.198402 0.037500 0.558895
v -0.314430 0.037500 0.554049
v -0.508198 0.037500 0.526142
v -0.531353 -0.037500 0.327124
v -0.534466 -0.037498 0.207762
v -0.512280 -0.037498 0.129221
v -0.455536 -0.037500 0.123409
v -0.383560 -0.037498 0.149782
v -0.322773 -0.037498 0.149670
v -0.294537 -0.037500 0.083706
v -0.299980 -0.037500 -0.010237
v -0.335159 -0.037500 -0.074976
v -0.393429 -0.037500 -0.072987
v -0.457310 -0.037500 -0.045343
v -0.506618 -0.037500 -0.052771
v -0.526772 -0.037500 -0.137054
v -0.508198 -0.037500 -0.475767
v -0.188087 -0.037500 -0.445271
v -0.110806 -0.037500 -0.464989
v -0.108406 -0.037500 -0.519316
v -0.139511 -0.037500 -0.591568
v -0.144257 -0.037500 -0.658478
v -0.082390 -0.037500 -0.699987
v 0.007908 -0.037500 -0.708910
v 0.068871 -0.037500 -0.681263
v 0.062839 -0.037498 -0.618340
v 0.032646 -0.037500 -0.542536
v 0.041260 -0.037500 -0.481522
v 0.131744 -0.037500 -0.455643
v 0.493500 -0.037498 -0.475767
v 0.528461 -0.037500 -0.253798
v 0.534939 -0.037500 -0.121286
v 0.506611 -0.037500 -0.035475
v 0.430275 -0.037500 -0.032454
v 0.331318 -0.037500 -0.067072
v 0.244843 -0.037500 -0.073858
v 0.200039 -0.037498 -0.008579
v 0.202507 -0.037500 0.088041
v 0.251953 -0.037500 0.154045
v 0.342113 -0.037500 0.148415
v 0.443188 -0.037500 0.113884
v 0.519432 -0.037500 0.114140
v 0.545151 -0.037500 0.193319
v 0.534813 -0.037498 0.317411
v 0.493500 -0.037500 0.526142
v 0.277428 -0.037500 0.569469
v 0.147999 -0.037500 0.583536
v 0.063194 -0.037500 0.565989
v 0.057899 -0.037498 0.503199
v 0.088627 -0.037500 0.417166
v 0.092293 -0.037500 0.338797
v 0.026150 -0.037500 0.293947
v -0.071190 -0.037500 0.288263
v -0.140785 -0.037500 0.322344
v -0.143284 -0.037500 0.391832
v -0.117661 -0.037500 0.472532
v -0.122482 -0.037500 0.535284
v -0.198402 -0.037500 0.558895
v -0.314430 -0.037500 0.554049
v -0.508198 -0.037500 0.526142
v -0.531353 0.037500 0.327124
v -0.534466 0.037500 0.207762
v -0.512280 0.037500 0.129221
v -0.512280 0.037500 0.129221
v -0.506618 0.037500 -0.052771
v -0.506618 0.037500 -0.052771
v -0.526772 0.037500 -0.137054
v -0.455536 0.037500 0.123409
v -0.508198 0.037500 0.526142
v -0.508198 0.037500 0.526142
v -0.508198 0.037500 -0.475767
v -0.508198 0.037500 -0.475767
v -0.457310 0.037500 -0.045343
v -0.393429 0.037500 -0.072987
v -0.383560 0.037500 0.149782
v -0.314430 0.037500 0.554049
v -0.335159 0.037500 -0.074976
v -0.335159 0.037500 -0.074976
v -0.322773 0.037500 0.149670
v -0.322773 0.037500 0.149670
v -0.299980 0.037500 -0.010237
v -0.294537 0.037500 0.083706
v -0.198402 0.037500 0.558895
v -0.188087 0.037500 -0.445271
v -0.122482 0.037500 0.535284
v -0.122482 0.037500 0.535284
v -0.140785 0.037500 0.322344
v -0.140785 0.037500 0.322344
v -0.143284 0.037500 0.391832
v -0.110806 0.037500 -0.464989
v -0.110806 0.037500 -0.464989
v -0.139511 0.037500 -0.591568
v -0.144257 0.037500 -0.658478
v -0.082390 0.037500 -0.699987
v -0.117661 0.037500 0.472532
v -0.071190 0.037500 0.288263
v -0.108406 0.037500 -0.519316
v 0.007908 0.037500 -0.708910
v 0.026150 0.037500 0.293947
v 0.068871 0.037500 -0.681263
v 0.068871 0.037500 -0.681263
v 0.092293 0.037500 0.338797
v 0.032646 0.037500 -0.542536
v 0.041260 0.037500 -0.481522
v 0.041260 0.037500 -0.481522
v 0.062839 0.037500 -0.618340
v 0.131744 0.037500 -0.455643
v 0.063194 0.037500 0.565989
v 0.063194 0.037500 0.565989
v 0.057899 0.037500 0.503199
v 0.088627 0.037500 0.417166
v 0.147999 0.037500 0.583536
v 0.277428 0.037500 0.569469
v 0.200039 0.037500 -0.008579
v 0.202507 0.037500 0.088041
v 0.244843 0.037500 -0.073858
v 0.251953 0.037500 0.154045
v 0.331318 0.037500 -0.067072
v 0.342113 0.037500 0.148415
v 0.430275 0.037500 -0.032454
v 0.443188 0.037500 0.113884
v 0.493500 0.037500 0.526142
v 0.493500 0.037500 0.526142
v 0.506611 0.037500 -0.035475
v 0.506611 0.037500 -0.035475
v 0.519432 0.037500 0.114140
v 0.519432 0.037500 0.114140
v 0.493500 0.037500 -0.475767
v 0.493500 0.037500 -0.475767
v 0.534939 0.037500 -0.121286
v 0.528461 0.037500 -0.253798
v 0.534813 0.037500 0.317411
v 0.545151 0.037500 0.193319
v -0.531353 -0.037500 0.327124
v -0.534466 -0.037498 0.207762
v -0.512280 -0.037498 0.129221
v -0.512280 -0.037498 0.129221
v -0.506618 -0.037500 -0.052771
v -0.506618 -0.037500 -0.052771
v -0.526772 -0.037500 -0.137054
v -0.455536 -0.037500 0.123409
v -0.508198 -0.037500 0.526142
v -0.508198 -0.037500 0.526142
v -0.508198 -0.037500 -0.475767
v -0.508198 -0.037500 -0.475767
v -0.457310 -0.037500 -0.045343
v -0.393429 -0.037500 -0.072987
v -0.383560 -0.037498 0.149782
v -0.314430 -0.037500 0.554049
v -0.335159 -0.037500 -0.074976
v -0.335159 -0.037500 -0.074976
v -0.322773 -0.037498 0.149670
v -0.322773 -0.037498 0.149670
v -0.299980 -0.037500 -0.010237
v -0.294537 -0.037500 0.083706
v -0.198402 -0.037500 0.558895
v -0.188087 -0.037500 -0.445271
v -0.122482 -0.037500 0.535284
v -0.122482 -0.037500 0.535284
v -0.140785 -0.037500 0.322344
v -0.140785 -0.037500 0.322344
v -0.143284 -0.037500 0.391832
v -0.110806 -0.037500 -0.464989
v -0.110806 -0.037500 -0.464989
v -0.139511 -0.037500 -0.591568
v -0.144257 -0.037500 -0.658478
v -0.082390 -0.037500 -0.699987
v -0.117661 -0.037500 0.472532
v -0.071190 -0.037500 0.288263
v -0.108406 -0.037500 -0.519316
v 0.007908 -0.037500 -0.708910
v 0.026150 -0.037500 0.293947
v 0.068871 -0.037500 -0.681263
v 0.068871 -0.037500 -0.681263
v 0.092293 -0.037500 0.338797
v 0.032646 -0.037500 -0.542536
v 0.041260 -0.037500 -0.481522
v 0.041260 -0.037500 -0.481522
v 0.062839 -0.037498 -0.618340
v 0.131744 -0.037500 -0.455643
v 0.063194 -0.037500 0.565989
v 0.063194 -0.037500 0.565989
v 0.057899 -0.037498 0.503199
v 0.088627 -0.037500 0.417166
v 0.147999 -0.037500 0.583536
v 0.277428 -0.037500 0.569469
v 0.200039 -0.037498 -0.008579
v 0.202507 -0.037500 0.088041
v 0.244843 -0.037500 -0.073858
v 0.251953 -0.037500 0.154045
v 0.331318 -0.037500 -0.067072
v 0.342113 -0.037500 0.148415
v 0.430275 -0.037500 -0.032454
v 0.443188 -0.037500 0.113884
v 0.493500 -0.037500 0.526142
v 0.493500 -0.037500 0.526142
v 0.506611 -0.037500 -0.035475
v 0.506611 -0.037500 -0.035475
v 0.519432 -0.037500 0.114140
v 0.519432 -0.037500 0.114140
v 0.493500 -0.037498 -0.475767
v 0.493500 -0.037498 -0.475767
v 0.534939 -0.037500 -0.121286
v 0.528461 -0.037500 -0.253798
v 0.534813 -0.037498 0.317411
v 0.545151 -0.037500 0.193319
vt 0.500000 0.500000
vt 0.500000 0.500000
vt 0.500000 0.500000
vt 0.500000 0.500000
vt 0.500000 0.500000
vt 0.500000 0.500000
vt 0.500000 0.500000
vt 0.500000 0.500000
vt 0.500000 0.500000
vt 0.500000 0.500000
vt 0.500000 0.500000
vt 0.500000 0.500000
vt 0.500000 0.500000
vt 0.500000 0.500000
vt 0.500000 0.500000
vt 0.500000 0.500000
vt 0.500000 0.500000
vt 0.500000 0.500000
vt 0.500000 0.500000
vt 0.500000 0.500000
vt 0.500000 0.500000
vt 0.500000 0.500000
vt 0.500000 0.500000
vt 0.500000 0.500000
vt 0.500000 0.500000
vt 0.500000 0.500000
vt 0.500000 0.500000
vt 0.500000 0.500000
vt 0.500000 0.500000
vt 0.500000 0.500000
vt 0.500000 0.500000
vt 0.500000 0.500000
vt 0.500000 0.500000
vt 0.500000 0.500000
vt 0.500000 0.500000
vt 0.500000 0.500000
vt 0.500000 0.500000
vt 0.500000 0.500000
vt 0.500000 0.500000
vt 0.500000 0.500000
vt 0.500000 0.500000
vt 0.500000 0.500000
vt 0.500000 0.500000
vt 0.500000 0.500000
vt 0.500000 0.500000
vt 0.500000 0.500000
vt 0.500000 0.500000
vt 0.500000 0.500000
vt 0.500000 0.500000
vt 0.500000 0.500000
vt 0.500000 0.500000
vt 0.500000 0.500000
vt 0.500000 0.500000
vt 0.500000 0.500000
vt 0.500000 0.500000
vt 0.500000 0.500000
vt 0.500000 0.500000
vt 0.500000 0.500000
vt 0.500000 0.500000
vt 0.500000 0.500000
vt 0.500000 0.500000
vt 0.500000 0.500000
vt 0.500000 0.500000
vt 0.500000 0.500000
vt 0.500000 0.500000
vt 0.500000 0.500000
vt 0.500000 0.500000
vt 0.500000 0.500000
vt 0.500000 0.500000
vt 0.500000 0.500000
vt 0.500000 0.500000
vt 0.500000 0.500000
vt 0.500000 0.500000
vt 0.500000 0.500000
vt 0.500000 0.500000
vt 0.500000 0.500000
vt 0.500000 0.500000
vt 0.500000 0.500000
vt 0.500000 0.500000
vt 0.500000 0.500000
vt 0.500000 0.500000
vt 0.500000 0.500000
vt 0.500000 0.500000
vt 0.500000 0.500000
vt 0.500000 0.500000
vt 0.500000 0.500000
vt 0.500000 0.500000
vt 0.500000 0.500000
vt 0.500000 0.500000
vt 0.500000 0.500000
vt 0.500000 0.500000
vt 0.500000 0.500000
vt 0.500000 0.500000
vt 0.500000 0.500000
vt 0.500000 0.500000
vt 0.500000 0.500000
vt 0.500000 0.500000
vt 0.500000 0.500000
vt 0.500000 0.500000
vt 0.500000 0.500000
vt 0.500000 0.500000
vt 0.500000 0.500000
vt 0.500000 0.500000
vt 0.500000 0.500000
vt 0.500000 0.500000
vt 0.500000 0.500000
vt 0.500000 0.500000
vt 0.500000 0.500000
vt 0.500000 0.500000
vt 0.500000 0.500000
vt 0.500000 0.500000
vt 0.500000 0.500000
vt 0.500000 0.500000
vt 0.500000 0.500000
vt 0.500000 0.500000
vt 0.500000 0.500000
vt 0.500000 0.500000
vt 0.500000 0.500000
vt 0.500000 0.500000
vt 0.500000 0.500000
vt 0.500000 0.500000
vt 0.500000 0.500000
vt 0.500000 0.500000
vt 0.500000 0.500000
vt 0.500000 0.500000
vt 0.500000 0.500000
vt 0.500000 0.500000
vt 0.500000 0.500000
vt 0.500000 0.500000
vt 0.500000 0.500000
vt 0.500000 0.500000
vt 0.500000 0.500000
vt 0.500000 0.500000
vt 0.500000 0.500000
vt 0.500000 0.500000
vt 0.500000 0.500000
vt 0.500000 0.500000
vt 0.500000 0.500000
vt 0.500000 0.500000
vt 0.500000 0.500000
vt 0.500000 0.500000
vt 0.500000 0.500000
vt 0.500000 0.500000
vt 0.500000 0.500000
vt 0.500000 0.500000
vt 0.500000 0.500000
vt 0.500000 0.500000
vt 0.500000 0.500000
vt 0.500000 0.500000
vt 0.500000 0.500000
vt 0.500000 0.500000
vt 0.500000 0.500000
vt 0.500000 0.500000
vt 0.500000 0.500000
vt 0.500000 0.500000
vt 0.500000 0.500000
vt 0.500000 0.500000
vt 0.500000 0.500000
vt 0.500000 0.500000
vt 0.500000 0.500000
vt 0.500000 0.500000
vt 0.500000 0.500000
vt 0.500000 0.500000
vt 0.500000 0.500000
vt 0.500000 0.500000
vt 0.500000 0.500000
vt 0.500000 0.500000
vt 0.500000 0.500000
vt 0.500000 0.500000
vt 0.500000 0.500000
vt 0.500000 0.500000
vt 0.500000 0.500000
vt 0.500000 0.500000
vt 0.500000 0.500000
vt 0.500000 0.500000
vt 0.500000 0.500000
vt 0.500000 0.500000
vt 0.500000 0.500000
vt 0.500000 0.500000
vt 0.500000 0.500000
vt 0.500000 0.500000
vt 0.500000 0.500000
vt 0.500000 0.500000
vt 0.500000 0.500000
vt 0.500000 0.500000
vt 0.500000 0.500000
vt 0.500000 0.500000
vt 0.500000 0.500000
vt 0.500000 0.500000
vt 0.500000 0.500000
vt 0.500000 0.500000
vt 0.500000 0.500000
vt 0.500000 0.500000
vt 0.500000 0.500000
vt 0.500000 0.500000
vt 0.500000 0.500000
vt 0.500000 0.500000
vt 0.500000 0.500000
vt 0.500000 0.500000
vt 0.500000 0.500000
vt 0.500000 0.500000
vt 0.500000 0.500000
vt 0.500000 0.500000
vt 0.255466 0.273122
vt 0.252897 0.277035
vt 0.254642 0.272025
vt 0.256671 0.273177
vt 0.257486 0.272183
vt 0.262365 0.280073
vt 0.262120 0.281787
vt 0.262500 0.288889
vt 0.257500 0.285050
vt 0.252968 0.279194
vt 0.251360 0.275649
vt 0.250286 0.276330
vt 0.249284 0.274332
vt 0.256692 0.284270
vt 0.255520 0.284149
vt 0.252483 0.289403
vt 0.249652 0.284590
vt 0.251676 0.280793
vt 0.257401 0.270265
vt 0.256969 0.268069
vt 0.258077 0.265747
vt 0.259731 0.265891
vt 0.265297 0.279443
vt 0.263945 0.280710
vt 0.263333 0.276891
vt 0.249459 0.271460
vt 0.264279 0.276221
vt 0.265409 0.277439
vt 0.254696 0.286124
vt 0.255025 0.287721
vt 0.253972 0.289472
vt 0.249591 0.282016
vt 0.250669 0.280225
vt 0.263043 0.280020
vt 0.262572 0.276700
vt 0.254697 0.284775
vt 0.252543 0.280738
vt 0.252604 0.265750
vt 0.254152 0.265521
vt 0.254713 0.270025
vt 0.252337 0.275567
vt 0.257223 0.288854
vt 0.257130 0.287760
vt 0.258274 0.289301
vt 0.265064 0.276087
vt 0.250000 0.266667
vt 0.255143 0.267783
vt 0.262500 0.266667
vt 0.262249 0.274692
vt 0.257475 0.286343
vt 0.264779 0.280815
vt 0.254952 0.288980
vt 0.257007 0.266376
vt 0.255140 0.266091
vt 0.249503 0.276213
vt 0.250000 0.288889
vt 0.249886 0.280332
vn 0.0000 -1.0000 0.0000
vn -0.9997 0.0000 0.0261
vn -0.9623 0.0000 -0.2718
vn -0.9726 0.0000 0.2326
vn -0.1019 0.0000 -0.9948
vn -0.9933 0.0000 0.1156
vn -0.9985 0.0000 -0.0548
vn -0.1489 0.0000 0.9888
vn 0.3971 0.0000 0.9178
vn 0.3440 0.0000 -0.9390
vn -0.1425 0.0000 0.9898
vn 0.0341 0.0000 0.9994
vn -0.0019 0.0000 -1.0000
vn -0.8787 0.0000 0.4775
vn -0.9193 0.0000 -0.3935
vn -0.0417 0.0000 0.9991
vn 0.0948 0.0000 -0.9955
vn -0.9983 0.0000 0.0578
vn 0.2970 0.0000 0.9549
vn 0.9994 0.0000 0.0359
vn -0.2472 0.0000 -0.9690
vn -0.9975 0.0000 0.0707
vn -0.5572 0.0000 -0.8304
vn 0.9971 0.0000 0.0766
vn 0.9531 0.0000 -0.3026
vn 0.4398 0.0000 0.8981
vn -0.9185 0.0000 0.3954
vn -0.9990 0.0000 -0.0441
vn -0.0983 0.0000 -0.9952
vn -0.0583 0.0000 0.9983
vn 0.4130 0.0000 -0.9107
vn -0.5612 0.0000 0.8277
vn 0.9902 0.0000 -0.1398
vn 0.9290 0.0000 0.3700
vn 0.9954 0.0000 0.0954
vn 0.2750 0.0000 -0.9615
vn -0.9965 0.0000 0.0840
vn -0.9417 0.0000 -0.3363
vn -0.2026 0.0000 0.9793
vn -0.9989 0.0000 -0.0467
vn 0.1080 0.0000 0.9941
vn 0.9997 0.0000 -0.0255
vn 0.8245 0.0000 0.5659
vn 0.8003 0.0000 -0.5996
vn -0.0782 0.0000 0.9969
vn -0.0623 0.0000 -0.9981
vn -0.3302 0.0000 0.9439
vn -0.3233 0.0000 -0.9463
vn 0.1966 0.0000 0.9805
vn 0.0395 0.0000 0.9992
vn 0.0034 0.0000 -1.0000
vn -0.0555 0.0000 -0.9985
vn 0.9496 0.0000 0.3135
vn 0.9988 0.0000 -0.0488
vn 0.9878 0.0000 -0.1556
vn 0.9810 0.0000 0.1942
vn 0.9965 0.0000 0.0830
vn 0.9511 0.0000 -0.3089
vn 0.0000 1.0000 0.0000
usemtl BackMat.001
s off
f 242/1/1 244/2/1 226/3/1
f 241/4/1 217/5/1 243/6/1
f 211/7/1 204/8/1 198/9/1
f 223/10/1 241/4/1 242/1/1
f 238/11/1 239/12/1 237/13/1
f 208/14/1 241/4/1 209/15/1
f 188/16/1 216/17/1 203/18/1
f 245/19/1 257/20/1 247/21/1
f 243/6/1 258/22/1 245/19/1
f 221/23/1 230/24/1 219/25/1
f 239/12/1 238/11/1 240/26/1
f 233/27/1 221/23/1 225/28/1
f 202/29/1 189/30/1 195/31/1
f 223/10/1 242/1/1 226/3/1
f 203/18/1 216/17/1 210/32/1
f 216/17/1 222/33/1 210/32/1
f 224/34/1 230/24/1 231/35/1
f 206/36/1 209/15/1 214/37/1
f 259/38/1 246/39/1 260/40/1
f 240/26/1 238/11/1 229/41/1
f 192/42/1 194/43/1 200/44/1
f 233/27/1 225/28/1 227/45/1
f 214/37/1 209/15/1 223/10/1
f 217/5/1 231/35/1 243/6/1
f 240/26/1 259/38/1 249/46/1
f 260/40/1 246/39/1 248/47/1
f 258/22/1 234/48/1 255/49/1
f 224/34/1 231/35/1 217/5/1
f 200/44/1 194/43/1 201/50/1
f 189/30/1 202/29/1 188/16/1
f 202/29/1 206/36/1 188/16/1
f 220/51/1 221/23/1 219/25/1
f 258/22/1 243/6/1 234/48/1
f 240/26/1 246/39/1 259/38/1
f 198/9/1 204/8/1 194/43/1
f 244/2/1 246/39/1 240/26/1
f 195/31/1 189/30/1 190/52/1
f 194/43/1 204/8/1 201/50/1
f 247/21/1 257/20/1 251/53/1
f 214/37/1 216/17/1 188/16/1
f 217/5/1 204/8/1 211/7/1
f 231/35/1 234/48/1 243/6/1
f 204/8/1 217/5/1 208/14/1
f 260/40/1 248/47/1 253/54/1
f 229/41/1 244/2/1 240/26/1
f 237/13/1 239/12/1 235/55/1
f 208/14/1 217/5/1 241/4/1
f 188/16/1 203/18/1 196/56/1
f 219/25/1 230/24/1 224/34/1
f 188/16/1 206/36/1 214/37/1
f 209/15/1 241/4/1 223/10/1
f 230/24/1 221/23/1 233/27/1
f 210/32/1 222/33/1 212/57/1
f 226/3/1 244/2/1 229/41/1
f 257/20/1 245/19/1 258/22/1
f 1/58/2 2/59/2 59/60/2 58/61/2
f 2/59/3 118/62/3 191/63/3 59/60/3
f 120/64/4 13/65/4 70/66/4 193/67/4
f 3/68/5 4/69/5 61/70/5 60/71/5
f 124/72/6 1/58/6 58/61/6 197/73/6
f 13/65/7 126/74/7 199/75/7 70/66/7
f 11/76/8 12/77/8 69/78/8 68/79/8
f 10/80/9 11/76/9 68/79/9 67/81/9
f 4/69/10 5/82/10 62/83/10 61/70/10
f 56/84/11 57/85/11 114/86/11 113/87/11
f 132/88/12 10/80/12 67/81/12 205/89/12
f 5/82/13 134/90/13 207/91/13 62/83/13
f 8/92/14 9/93/14 66/94/14 65/95/14
f 6/96/15 7/97/15 64/98/15 63/99/15
f 55/100/16 56/84/16 113/87/16 112/101/16
f 14/102/17 15/103/17 72/104/17 71/105/17
f 7/97/18 8/92/18 65/95/18 64/98/18
f 140/106/19 55/100/19 112/101/19 213/107/19
f 142/108/20 52/109/20 109/110/20 215/111/20
f 15/103/21 145/112/21 218/113/21 72/104/21
f 18/114/22 19/115/22 76/116/22 75/117/22
f 19/115/23 20/118/23 77/119/23 76/116/23
f 53/120/24 54/121/24 111/122/24 110/123/24
f 52/109/25 53/120/25 110/123/25 109/110/25
f 50/124/26 51/125/26 108/126/26 107/127/26
f 17/128/27 18/114/27 75/117/27 74/129/27
f 16/130/28 17/128/28 74/129/28 73/131/28
f 20/118/29 21/132/29 78/133/29 77/119/29
f 49/134/30 50/124/30 107/127/30 106/135/30
f 21/132/31 155/136/31 228/137/31 78/133/31
f 48/138/32 49/134/32 106/135/32 105/139/32
f 24/140/33 159/141/33 232/142/33 81/143/33
f 23/144/34 24/140/34 81/143/34 80/145/34
f 22/146/35 23/144/35 80/145/35 79/147/35
f 25/148/36 26/149/36 83/150/36 82/151/36
f 163/152/37 46/153/37 103/154/37 236/155/37
f 46/153/38 47/156/38 104/157/38 103/154/38
f 44/158/39 45/159/39 102/160/39 101/161/39
f 47/156/40 48/138/40 105/139/40 104/157/40
f 43/162/41 44/158/41 101/161/41 100/163/41
f 34/164/42 35/165/42 92/166/42 91/167/42
f 33/168/43 34/164/43 91/167/43 90/169/43
f 35/165/44 36/170/44 93/171/44 92/166/44
f 32/172/45 33/168/45 90/169/45 89/173/45
f 36/170/46 37/174/46 94/175/46 93/171/46
f 31/176/47 32/172/47 89/173/47 88/177/47
f 37/174/48 38/178/48 95/179/48 94/175/48
f 177/180/49 43/162/49 100/163/49 250/181/49
f 179/182/50 31/176/50 88/177/50 252/183/50
f 38/178/51 181/184/51 254/185/51 95/179/51
f 26/149/52 183/186/52 256/187/52 83/150/52
f 29/188/53 30/189/53 87/190/53 86/191/53
f 28/192/54 29/188/54 86/191/54 85/193/54
f 27/194/55 28/192/55 85/193/55 84/195/55
f 41/196/56 42/197/56 99/198/56 98/199/56
f 40/200/57 41/196/57 98/199/57 97/201/57
f 39/202/58 40/200/58 97/201/58 96/203/58
usemtl FrontMat.001
f 169/204/59 153/205/59 171/206/59
f 168/207/59 170/208/59 144/209/59
f 138/210/59 125/211/59 131/212/59
f 150/213/59 169/204/59 168/207/59
f 165/214/59 164/215/59 166/216/59
f 135/217/59 136/218/59 168/207/59
f 115/219/59 130/220/59 143/221/59
f 172/222/59 174/223/59 184/224/59
f 170/208/59 172/222/59 185/225/59
f 148/226/59 146/227/59 157/228/59
f 166/216/59 167/229/59 165/214/59
f 160/230/59 152/231/59 148/226/59
f 129/232/59 122/233/59 116/234/59
f 150/213/59 153/205/59 169/204/59
f 130/220/59 137/235/59 143/221/59
f 143/221/59 137/235/59 149/236/59
f 151/237/59 158/238/59 157/228/59
f 133/239/59 141/240/59 136/218/59
f 186/241/59 187/242/59 173/243/59
f 167/229/59 156/244/59 165/214/59
f 119/245/59 127/246/59 121/247/59
f 160/230/59 154/248/59 152/231/59
f 141/240/59 150/213/59 136/218/59
f 144/209/59 170/208/59 158/238/59
f 167/229/59 176/249/59 186/241/59
f 187/242/59 175/250/59 173/243/59
f 185/225/59 182/251/59 161/252/59
f 151/237/59 144/209/59 158/238/59
f 127/246/59 128/253/59 121/247/59
f 116/234/59 115/219/59 129/232/59
f 129/232/59 115/219/59 133/239/59
f 147/254/59 146/227/59 148/226/59
f 185/225/59 161/252/59 170/208/59
f 167/229/59 186/241/59 173/243/59
f 125/211/59 121/247/59 131/212/59
f 171/206/59 167/229/59 173/243/59
f 122/233/59 117/255/59 116/234/59
f 121/247/59 128/253/59 131/212/59
f 174/223/59 178/256/59 184/224/59
f 141/240/59 115/219/59 143/221/59
f 144/209/59 138/210/59 131/212/59
f 158/238/59 170/208/59 161/252/59
f 131/212/59 135/217/59 144/209/59
f 187/242/59 180/257/59 175/250/59
f 156/244/59 167/229/59 171/206/59
f 164/215/59 162/258/59 166/216/59
f 135/217/59 168/207/59 144/209/59
f 115/219/59 123/259/59 130/220/59
f 146/227/59 151/237/59 157/228/59
f 115/219/59 141/240/59 133/239/59
f 136/218/59 150/213/59 168/207/59
f 157/228/59 160/230/59 148/226/59
f 137/235/59 139/260/59 149/236/59
f 153/205/59 156/244/59 171/206/59
f 184/224/59 185/225/59 172/222/59
