# Blender v2.83.1 OBJ File: 'jigsaw-12x12-3-step2.blend'
# www.blender.org
mtllib piece.74.mtl
o path148
v 0.577639 0.037500 -0.142329
v 0.560281 0.037500 -0.055702
v 0.501543 0.037500 -0.054270
v 0.423090 0.037500 -0.090775
v 0.355041 0.037500 -0.096924
v 0.321964 0.037500 -0.026540
v 0.326222 0.037500 0.078084
v 0.364626 0.037500 0.152542
v 0.430355 0.037500 0.153519
v 0.502056 0.037500 0.122082
v 0.554744 0.037500 0.120390
v 0.570618 0.037500 0.191958
v 0.527304 0.037500 0.497814
v 0.196950 0.037500 0.520850
v 0.117284 0.037500 0.502311
v 0.115060 0.037500 0.453660
v 0.147922 0.037500 0.387520
v 0.154507 0.037500 0.321826
v 0.093373 0.037500 0.273805
v 0.002775 0.037500 0.257827
v -0.059109 0.037500 0.287553
v -0.054171 0.037500 0.367502
v -0.024579 0.037500 0.465629
v -0.032569 0.037500 0.540747
v -0.120806 0.037500 0.562959
v -0.253673 0.037500 0.547531
v -0.474606 0.037500 0.497814
v -0.440820 0.037500 0.185387
v -0.457293 0.037500 0.112235
v -0.506990 0.037500 0.114151
v -0.575982 0.037500 0.148114
v -0.644372 0.037500 0.152346
v -0.693875 0.037500 0.085477
v -0.712659 0.037500 -0.012223
v -0.690503 0.037500 -0.080075
v -0.624475 0.037500 -0.078139
v -0.540784 0.037500 -0.049428
v -0.472928 0.037500 -0.057693
v -0.445615 0.037500 -0.146777
v -0.448386 0.037500 -0.280891
v -0.474606 0.037500 -0.503884
v -0.111282 0.037500 -0.521167
v -0.024913 0.037500 -0.495620
v -0.024862 0.037500 -0.436660
v -0.063403 0.037500 -0.364023
v -0.071564 0.037500 -0.304476
v -0.002715 0.037500 -0.280053
v 0.100419 0.037500 -0.293855
v 0.172772 0.037500 -0.344248
v 0.170766 0.037500 -0.424774
v 0.136779 0.037500 -0.509665
v 0.134676 0.037500 -0.568325
v 0.209048 0.037500 -0.579339
v 0.527304 0.037500 -0.503884
v 0.577639 -0.037500 -0.142329
v 0.560281 -0.037500 -0.055702
v 0.501543 -0.037500 -0.054270
v 0.423090 -0.037500 -0.090775
v 0.355041 -0.037500 -0.096924
v 0.321964 -0.037500 -0.026540
v 0.326222 -0.037500 0.078084
v 0.364626 -0.037500 0.152542
v 0.430355 -0.037500 0.153519
v 0.502056 -0.037500 0.122082
v 0.554744 -0.037500 0.120390
v 0.570618 -0.037500 0.191958
v 0.527304 -0.037500 0.497814
v 0.196950 -0.037500 0.520850
v 0.117284 -0.037500 0.502311
v 0.115060 -0.037500 0.453660
v 0.147922 -0.037500 0.387520
v 0.154507 -0.037500 0.321826
v 0.093373 -0.037500 0.273805
v 0.002775 -0.037500 0.257827
v -0.059109 -0.037500 0.287553
v -0.054171 -0.037500 0.367502
v -0.024579 -0.037500 0.465629
v -0.032569 -0.037500 0.540747
v -0.120806 -0.037500 0.562959
v -0.253673 -0.037500 0.547531
v -0.474606 -0.037500 0.497814
v -0.440820 -0.037500 0.185387
v -0.457293 -0.037500 0.112235
v -0.506990 -0.037500 0.114151
v -0.575982 -0.037500 0.148114
v -0.644372 -0.037500 0.152346
v -0.693875 -0.037500 0.085477
v -0.712659 -0.037500 -0.012223
v -0.690503 -0.037498 -0.080075
v -0.624475 -0.037500 -0.078139
v -0.540784 -0.037500 -0.049428
v -0.472928 -0.037500 -0.057693
v -0.445615 -0.037500 -0.146777
v -0.448386 -0.037500 -0.280891
v -0.474606 -0.037500 -0.503884
v -0.111282 -0.037500 -0.521167
v -0.024913 -0.037500 -0.495620
v -0.024862 -0.037500 -0.436660
v -0.063403 -0.037498 -0.364023
v -0.071564 -0.037498 -0.304476
v -0.002715 -0.037500 -0.280053
v 0.100419 -0.037500 -0.293855
v 0.172772 -0.037500 -0.344248
v 0.170766 -0.037498 -0.424774
v 0.136779 -0.037500 -0.509665
v 0.134676 -0.037498 -0.568325
v 0.209048 -0.037500 -0.579339
v 0.527304 -0.037500 -0.503884
v -0.032569 0.037500 0.540747
v -0.032569 0.037500 0.540747
v -0.120806 0.037500 0.562959
v -0.253673 0.037500 0.547531
v -0.024579 0.037500 0.465629
v 0.196950 0.037500 0.520850
v 0.117284 0.037500 0.502311
v 0.117284 0.037500 0.502311
v 0.527304 0.037500 0.497814
v 0.527304 0.037500 0.497814
v -0.474606 0.037500 0.497814
v -0.474606 0.037500 0.497814
v 0.115060 0.037500 0.453660
v -0.054171 0.037500 0.367502
v 0.147922 0.037500 0.387520
v 0.154507 0.037500 0.321826
v -0.059109 0.037500 0.287553
v -0.059109 0.037500 0.287553
v 0.093373 0.037500 0.273805
v 0.570618 0.037500 0.191958
v -0.440820 0.037500 0.185387
v 0.002775 0.037500 0.257827
v 0.554744 0.037500 0.120390
v 0.554744 0.037500 0.120390
v 0.364626 0.037500 0.152542
v 0.364626 0.037500 0.152542
v 0.430355 0.037500 0.153519
v -0.457293 0.037500 0.112235
v -0.457293 0.037500 0.112235
v 0.502056 0.037500 0.122082
v 0.326222 0.037500 0.078084
v -0.575982 0.037500 0.148114
v -0.644372 0.037500 0.152346
v -0.693875 0.037500 0.085477
v -0.506990 0.037500 0.114151
v -0.712659 0.037500 -0.012223
v 0.321964 0.037500 -0.026540
v -0.690503 0.037500 -0.080075
v -0.690503 0.037500 -0.080075
v 0.355041 0.037500 -0.096924
v 0.355041 0.037500 -0.096924
v -0.540784 0.037500 -0.049428
v -0.472928 0.037500 -0.057693
v -0.472928 0.037500 -0.057693
v -0.624475 0.037500 -0.078139
v 0.560281 0.037500 -0.055702
v 0.560281 0.037500 -0.055702
v 0.501543 0.037500 -0.054270
v 0.423090 0.037500 -0.090775
v 0.577639 0.037500 -0.142329
v -0.445615 0.037500 -0.146777
v -0.448386 0.037500 -0.280891
v -0.002715 0.037500 -0.280053
v 0.100419 0.037500 -0.293855
v -0.071564 0.037500 -0.304476
v -0.071564 0.037500 -0.304476
v 0.172772 0.037500 -0.344248
v -0.063403 0.037500 -0.364023
v 0.170766 0.037500 -0.424774
v -0.024862 0.037500 -0.436660
v 0.136779 0.037500 -0.509665
v -0.024913 0.037500 -0.495620
v -0.024913 0.037500 -0.495620
v 0.527304 0.037500 -0.503884
v 0.527304 0.037500 -0.503884
v -0.474606 0.037500 -0.503884
v -0.474606 0.037500 -0.503884
v -0.111282 0.037500 -0.521167
v 0.134676 0.037500 -0.568325
v 0.134676 0.037500 -0.568325
v 0.209048 0.037500 -0.579339
v -0.032569 -0.037500 0.540747
v -0.032569 -0.037500 0.540747
v -0.120806 -0.037500 0.562959
v -0.253673 -0.037500 0.547531
v -0.024579 -0.037500 0.465629
v 0.196950 -0.037500 0.520850
v 0.117284 -0.037500 0.502311
v 0.117284 -0.037500 0.502311
v 0.527304 -0.037500 0.497814
v 0.527304 -0.037500 0.497814
v -0.474606 -0.037500 0.497814
v -0.474606 -0.037500 0.497814
v 0.115060 -0.037500 0.453660
v -0.054171 -0.037500 0.367502
v 0.147922 -0.037500 0.387520
v 0.154507 -0.037500 0.321826
v -0.059109 -0.037500 0.287553
v -0.059109 -0.037500 0.287553
v 0.093373 -0.037500 0.273805
v 0.570618 -0.037500 0.191958
v -0.440820 -0.037500 0.185387
v 0.002775 -0.037500 0.257827
v 0.554744 -0.037500 0.120390
v 0.554744 -0.037500 0.120390
v 0.364626 -0.037500 0.152542
v 0.364626 -0.037500 0.152542
v 0.430355 -0.037500 0.153519
v -0.457293 -0.037500 0.112235
v -0.457293 -0.037500 0.112235
v 0.502056 -0.037500 0.122082
v 0.326222 -0.037500 0.078084
v -0.575982 -0.037500 0.148114
v -0.644372 -0.037500 0.152346
v -0.693875 -0.037500 0.085477
v -0.506990 -0.037500 0.114151
v -0.712659 -0.037500 -0.012223
v 0.321964 -0.037500 -0.026540
v -0.690503 -0.037498 -0.080075
v -0.690503 -0.037498 -0.080075
v 0.355041 -0.037500 -0.096924
v 0.355041 -0.037500 -0.096924
v -0.540784 -0.037500 -0.049428
v -0.472928 -0.037500 -0.057693
v -0.472928 -0.037500 -0.057693
v -0.624475 -0.037500 -0.078139
v 0.560281 -0.037500 -0.055702
v 0.560281 -0.037500 -0.055702
v 0.501543 -0.037500 -0.054270
v 0.423090 -0.037500 -0.090775
v 0.577639 -0.037500 -0.142329
v -0.445615 -0.037500 -0.146777
v -0.448386 -0.037500 -0.280891
v -0.002715 -0.037500 -0.280053
v 0.100419 -0.037500 -0.293855
v -0.071564 -0.037498 -0.304476
v -0.071564 -0.037498 -0.304476
v 0.172772 -0.037500 -0.344248
v -0.063403 -0.037498 -0.364023
v 0.170766 -0.037498 -0.424774
v -0.024862 -0.037500 -0.436660
v 0.136779 -0.037500 -0.509665
v -0.024913 -0.037500 -0.495620
v -0.024913 -0.037500 -0.495620
v 0.527304 -0.037500 -0.503884
v 0.527304 -0.037500 -0.503884
v -0.474606 -0.037500 -0.503884
v -0.474606 -0.037500 -0.503884
v -0.111282 -0.037500 -0.521167
v 0.134676 -0.037498 -0.568325
v 0.134676 -0.037498 -0.568325
v 0.209048 -0.037500 -0.579339
vt 0.500000 0.500000
vt 0.500000 0.500000
vt 0.500000 0.500000
vt 0.500000 0.500000
vt 0.500000 0.500000
vt 0.500000 0.500000
vt 0.500000 0.500000
vt 0.500000 0.500000
vt 0.500000 0.500000
vt 0.500000 0.500000
vt 0.500000 0.500000
vt 0.500000 0.500000
vt 0.500000 0.500000
vt 0.500000 0.500000
vt 0.500000 0.500000
vt 0.500000 0.500000
vt 0.500000 0.500000
vt 0.500000 0.500000
vt 0.500000 0.500000
vt 0.500000 0.500000
vt 0.500000 0.500000
vt 0.500000 0.500000
vt 0.500000 0.500000
vt 0.500000 0.500000
vt 0.500000 0.500000
vt 0.500000 0.500000
vt 0.500000 0.500000
vt 0.500000 0.500000
vt 0.500000 0.500000
vt 0.500000 0.500000
vt 0.500000 0.500000
vt 0.500000 0.500000
vt 0.500000 0.500000
vt 0.500000 0.500000
vt 0.500000 0.500000
vt 0.500000 0.500000
vt 0.500000 0.500000
vt 0.500000 0.500000
vt 0.500000 0.500000
vt 0.500000 0.500000
vt 0.500000 0.500000
vt 0.500000 0.500000
vt 0.500000 0.500000
vt 0.500000 0.500000
vt 0.500000 0.500000
vt 0.500000 0.500000
vt 0.500000 0.500000
vt 0.500000 0.500000
vt 0.500000 0.500000
vt 0.500000 0.500000
vt 0.500000 0.500000
vt 0.500000 0.500000
vt 0.500000 0.500000
vt 0.500000 0.500000
vt 0.500000 0.500000
vt 0.500000 0.500000
vt 0.500000 0.500000
vt 0.500000 0.500000
vt 0.500000 0.500000
vt 0.500000 0.500000
vt 0.500000 0.500000
vt 0.500000 0.500000
vt 0.500000 0.500000
vt 0.500000 0.500000
vt 0.500000 0.500000
vt 0.500000 0.500000
vt 0.500000 0.500000
vt 0.500000 0.500000
vt 0.500000 0.500000
vt 0.500000 0.500000
vt 0.500000 0.500000
vt 0.500000 0.500000
vt 0.500000 0.500000
vt 0.500000 0.500000
vt 0.500000 0.500000
vt 0.500000 0.500000
vt 0.500000 0.500000
vt 0.500000 0.500000
vt 0.500000 0.500000
vt 0.500000 0.500000
vt 0.500000 0.500000
vt 0.500000 0.500000
vt 0.500000 0.500000
vt 0.500000 0.500000
vt 0.500000 0.500000
vt 0.500000 0.500000
vt 0.500000 0.500000
vt 0.500000 0.500000
vt 0.500000 0.500000
vt 0.500000 0.500000
vt 0.500000 0.500000
vt 0.500000 0.500000
vt 0.500000 0.500000
vt 0.500000 0.500000
vt 0.500000 0.500000
vt 0.500000 0.500000
vt 0.500000 0.500000
vt 0.500000 0.500000
vt 0.500000 0.500000
vt 0.500000 0.500000
vt 0.500000 0.500000
vt 0.500000 0.500000
vt 0.500000 0.500000
vt 0.500000 0.500000
vt 0.500000 0.500000
vt 0.500000 0.500000
vt 0.500000 0.500000
vt 0.500000 0.500000
vt 0.500000 0.500000
vt 0.500000 0.500000
vt 0.500000 0.500000
vt 0.500000 0.500000
vt 0.500000 0.500000
vt 0.500000 0.500000
vt 0.500000 0.500000
vt 0.500000 0.500000
vt 0.500000 0.500000
vt 0.500000 0.500000
vt 0.500000 0.500000
vt 0.500000 0.500000
vt 0.500000 0.500000
vt 0.500000 0.500000
vt 0.500000 0.500000
vt 0.500000 0.500000
vt 0.500000 0.500000
vt 0.500000 0.500000
vt 0.500000 0.500000
vt 0.500000 0.500000
vt 0.500000 0.500000
vt 0.500000 0.500000
vt 0.500000 0.500000
vt 0.500000 0.500000
vt 0.500000 0.500000
vt 0.500000 0.500000
vt 0.500000 0.500000
vt 0.500000 0.500000
vt 0.500000 0.500000
vt 0.500000 0.500000
vt 0.500000 0.500000
vt 0.500000 0.500000
vt 0.500000 0.500000
vt 0.500000 0.500000
vt 0.500000 0.500000
vt 0.500000 0.500000
vt 0.500000 0.500000
vt 0.500000 0.500000
vt 0.500000 0.500000
vt 0.500000 0.500000
vt 0.500000 0.500000
vt 0.500000 0.500000
vt 0.500000 0.500000
vt 0.500000 0.500000
vt 0.500000 0.500000
vt 0.500000 0.500000
vt 0.500000 0.500000
vt 0.500000 0.500000
vt 0.500000 0.500000
vt 0.500000 0.500000
vt 0.500000 0.500000
vt 0.500000 0.500000
vt 0.500000 0.500000
vt 0.500000 0.500000
vt 0.500000 0.500000
vt 0.500000 0.500000
vt 0.500000 0.500000
vt 0.500000 0.500000
vt 0.500000 0.500000
vt 0.500000 0.500000
vt 0.500000 0.500000
vt 0.500000 0.500000
vt 0.500000 0.500000
vt 0.500000 0.500000
vt 0.500000 0.500000
vt 0.500000 0.500000
vt 0.500000 0.500000
vt 0.500000 0.500000
vt 0.500000 0.500000
vt 0.500000 0.500000
vt 0.500000 0.500000
vt 0.500000 0.500000
vt 0.500000 0.500000
vt 0.500000 0.500000
vt 0.500000 0.500000
vt 0.500000 0.500000
vt 0.500000 0.500000
vt 0.500000 0.500000
vt 0.500000 0.500000
vt 0.500000 0.500000
vt 0.500000 0.500000
vt 0.500000 0.500000
vt 0.500000 0.500000
vt 0.500000 0.500000
vt 0.500000 0.500000
vt 0.500000 0.500000
vt 0.500000 0.500000
vt 0.500000 0.500000
vt 0.129236 0.497323
vt 0.131697 0.489159
vt 0.137240 0.505420
vt 0.148291 0.504136
vt 0.126961 0.480035
vt 0.119425 0.481364
vt 0.100412 0.456378
vt 0.097661 0.450523
vt 0.118839 0.434140
vt 0.114888 0.490824
vt 0.117622 0.496327
vt 0.110810 0.501917
vt 0.129259 0.422259
vt 0.129264 0.417354
vt 0.136447 0.415229
vt 0.127417 0.435288
vt 0.133144 0.433256
vt 0.166527 0.453786
vt 0.172171 0.454474
vt 0.169360 0.468082
vt 0.164255 0.446375
vt 0.109804 0.410390
vt 0.115990 0.411306
vt 0.115815 0.416186
vt 0.179132 0.452085
vt 0.184904 0.465697
vt 0.079147 0.446745
vt 0.083333 0.416667
vt 0.092001 0.451034
vt 0.164486 0.435218
vt 0.112988 0.423248
vt 0.083333 0.500000
vt 0.079731 0.474555
vt 0.091397 0.471358
vt 0.166667 0.500000
vt 0.163856 0.474009
vt 0.175099 0.470908
vt 0.166667 0.416667
vt 0.114341 0.485359
vt 0.100058 0.465082
vt 0.096864 0.471276
vt 0.132108 0.482508
vt 0.165227 0.467923
vt 0.085433 0.468742
vt 0.129900 0.503572
vt 0.112821 0.429947
vt 0.085476 0.454071
vt 0.080590 0.453952
vt 0.180787 0.471260
vt 0.132465 0.428302
vt 0.186467 0.457569
vt 0.184624 0.451924
vt 0.081051 0.468601
vt 0.117436 0.500374
vn 0.0000 -1.0000 0.0000
vn 0.2441 0.0000 0.9697
vn -0.1153 0.0000 0.9933
vn 0.9944 0.0000 0.1058
vn -0.2267 0.0000 0.9740
vn 0.0696 0.0000 0.9976
vn -0.2195 0.0000 0.9756
vn -0.9990 0.0000 0.0457
vn 0.9574 0.0000 -0.2887
vn -0.8956 0.0000 -0.4450
vn -0.9950 0.0000 -0.0997
vn 0.9981 0.0000 -0.0616
vn -0.6177 0.0000 0.7864
vn 0.9901 0.0000 0.1402
vn -0.9942 0.0000 -0.1075
vn 0.4330 0.0000 0.9014
vn -0.1737 0.0000 0.9848
vn 0.9763 0.0000 -0.2165
vn 0.0149 0.0000 -0.9999
vn -0.9756 0.0000 0.2197
vn -0.0321 0.0000 -0.9995
vn -0.4015 0.0000 -0.9158
vn 0.8887 0.0000 -0.4584
vn 0.0618 0.0000 0.9981
vn -0.8037 0.0000 0.5950
vn 0.4417 0.0000 0.8972
vn 0.0385 0.0000 0.9993
vn -0.9820 0.0000 0.1888
vn 0.9992 0.0000 -0.0407
vn -0.9506 0.0000 -0.3104
vn 0.9050 0.0000 0.4253
vn -0.1209 0.0000 -0.9927
vn 0.3245 0.0000 -0.9459
vn 0.0293 0.0000 -0.9996
vn 0.0244 0.0000 0.9997
vn -0.4219 0.0000 0.9067
vn 0.9805 0.0000 0.1965
vn -0.9561 0.0000 -0.2931
vn -0.0900 0.0000 0.9959
vn -0.9998 0.0000 0.0207
vn -0.1326 0.0000 -0.9912
vn 0.3343 0.0000 -0.9425
vn -0.5715 0.0000 -0.8206
vn 0.9907 0.0000 0.1358
vn -0.9997 0.0000 0.0249
vn 0.8834 0.0000 0.4687
vn -0.9284 0.0000 0.3717
vn 1.0000 0.0000 -0.0009
vn 0.9904 0.0000 -0.1379
vn -0.9932 0.0000 0.1168
vn 0.2836 0.0000 -0.9589
vn -0.9994 0.0000 0.0358
vn -0.0475 0.0000 -0.9989
vn 0.2307 0.0000 -0.9730
vn -0.1465 0.0000 -0.9892
vn 0.0000 1.0000 -0.0000
usemtl BackMat.001
s off
f 184/1/1 182/2/1 193/3/1
f 182/2/1 183/4/1 193/3/1
f 201/5/1 216/6/1 198/7/1
f 216/6/1 233/8/1 219/9/1
f 194/10/1 185/11/1 192/12/1
f 239/13/1 247/14/1 241/15/1
f 201/5/1 234/16/1 232/17/1
f 222/18/1 214/19/1 221/20/1
f 222/18/1 230/21/1 234/16/1
f 250/22/1 240/23/1 248/24/1
f 221/20/1 213/25/1 224/26/1
f 229/27/1 228/28/1 243/29/1
f 231/30/1 234/16/1 230/21/1
f 243/29/1 238/31/1 250/22/1
f 188/32/1 206/33/1 199/34/1
f 190/35/1 200/36/1 183/4/1
f 213/25/1 221/20/1 211/37/1
f 216/6/1 232/17/1 233/8/1
f 228/28/1 219/9/1 243/29/1
f 250/22/1 238/31/1 240/23/1
f 247/14/1 231/30/1 245/38/1
f 195/39/1 198/7/1 210/40/1
f 185/11/1 194/10/1 188/32/1
f 204/41/1 195/39/1 210/40/1
f 188/32/1 204/41/1 206/33/1
f 200/36/1 207/42/1 196/43/1
f 206/33/1 209/44/1 199/34/1
f 180/45/1 182/2/1 184/1/1
f 188/32/1 195/39/1 204/41/1
f 219/9/1 236/46/1 243/29/1
f 219/9/1 233/8/1 236/46/1
f 198/7/1 216/6/1 210/40/1
f 236/46/1 238/31/1 243/29/1
f 200/36/1 196/43/1 183/4/1
f 227/47/1 229/27/1 225/48/1
f 196/43/1 234/16/1 201/5/1
f 211/37/1 221/20/1 214/19/1
f 201/5/1 232/17/1 216/6/1
f 212/49/1 213/25/1 211/37/1
f 234/16/1 231/30/1 237/50/1
f 215/51/1 224/26/1 213/25/1
f 237/50/1 231/30/1 247/14/1
f 228/28/1 229/27/1 227/47/1
f 214/19/1 222/18/1 207/42/1
f 195/39/1 188/32/1 194/10/1
f 224/26/1 215/51/1 217/52/1
f 237/50/1 247/14/1 239/13/1
f 196/43/1 222/18/1 234/16/1
f 199/34/1 209/44/1 202/53/1
f 207/42/1 222/18/1 196/43/1
f 192/12/1 185/11/1 186/54/1
f 193/3/1 183/4/1 196/43/1
f 110/55/2 25/56/2 79/57/2 181/58/2
f 25/56/3 26/59/3 80/60/3 79/57/3
f 23/61/4 24/62/4 78/63/4 77/64/4
f 14/65/5 116/66/5 187/67/5 68/68/5
f 118/69/6 14/65/6 68/68/6 189/70/6
f 26/59/7 120/71/7 191/72/7 80/60/7
f 15/73/8 16/74/8 70/75/8 69/76/8
f 22/77/9 23/61/9 77/64/9 76/78/9
f 16/74/10 17/79/10 71/80/10 70/75/10
f 17/79/11 18/81/11 72/82/11 71/80/11
f 126/83/12 22/77/12 76/78/12 197/84/12
f 18/81/13 19/85/13 73/86/13 72/82/13
f 12/87/14 13/88/14 67/89/14 66/90/14
f 27/91/15 28/92/15 82/93/15 81/94/15
f 20/95/16 21/96/16 75/97/16 74/98/16
f 19/85/17 20/95/17 74/98/17 73/86/17
f 132/99/18 12/87/18 66/90/18 203/100/18
f 134/101/19 9/102/19 63/103/19 205/104/19
f 28/92/20 137/105/20 208/106/20 82/93/20
f 10/107/21 11/108/21 65/109/21 64/110/21
f 9/102/22 10/107/22 64/110/22 63/103/22
f 7/111/23 8/112/23 62/113/23 61/114/23
f 31/115/24 32/116/24 86/117/24 85/118/24
f 32/116/25 33/119/25 87/120/25 86/117/25
f 30/121/26 31/115/26 85/118/26 84/122/26
f 29/123/27 30/121/27 84/122/27 83/124/27
f 33/119/28 34/125/28 88/126/28 87/120/28
f 6/127/29 7/111/29 61/114/29 60/128/29
f 34/125/30 147/129/30 218/130/30 88/126/30
f 149/131/31 6/127/31 60/128/31 220/132/31
f 37/133/32 152/134/32 223/135/32 91/136/32
f 36/137/33 37/133/33 91/136/33 90/138/33
f 35/139/34 36/137/34 90/138/34 89/140/34
f 155/141/35 3/142/35 57/143/35 226/144/35
f 3/142/36 4/145/36 58/146/36 57/143/36
f 1/147/37 2/148/37 56/149/37 55/150/37
f 38/151/38 39/152/38 93/153/38 92/154/38
f 4/145/39 5/155/39 59/156/39 58/146/39
f 39/152/40 40/157/40 94/158/40 93/153/40
f 47/159/41 48/160/41 102/161/41 101/162/41
f 164/163/42 47/159/42 101/162/42 235/164/42
f 48/160/43 49/165/43 103/166/43 102/161/43
f 45/167/44 46/168/44 100/169/44 99/170/44
f 49/165/45 50/171/45 104/172/45 103/166/45
f 44/173/46 45/167/46 99/170/46 98/174/46
f 50/171/47 51/175/47 105/176/47 104/172/47
f 171/177/48 44/173/48 98/174/48 242/178/48
f 173/179/49 1/147/49 55/150/49 244/180/49
f 40/157/50 175/181/50 246/182/50 94/158/50
f 42/183/51 43/184/51 97/185/51 96/186/51
f 51/175/52 178/187/52 249/188/52 105/176/52
f 41/189/53 42/183/53 96/186/53 95/190/53
f 53/191/54 54/192/54 108/193/54 107/194/54
f 52/195/55 53/191/55 107/194/55 106/196/55
usemtl FrontMat.001
f 113/197/56 122/198/56 111/199/56
f 111/199/56 122/198/56 112/200/56
f 130/201/56 127/202/56 145/203/56
f 145/203/56 148/204/56 162/205/56
f 123/206/56 121/207/56 114/208/56
f 168/209/56 170/210/56 176/211/56
f 130/201/56 161/212/56 163/213/56
f 151/214/56 150/215/56 143/216/56
f 151/214/56 163/213/56 159/217/56
f 179/218/56 177/219/56 169/220/56
f 150/215/56 153/221/56 142/222/56
f 158/223/56 172/224/56 157/225/56
f 160/226/56 159/217/56 163/213/56
f 172/224/56 179/218/56 167/227/56
f 117/228/56 128/229/56 135/230/56
f 119/231/56 112/200/56 129/232/56
f 142/222/56 140/233/56 150/215/56
f 145/203/56 162/205/56 161/212/56
f 157/225/56 172/224/56 148/204/56
f 179/218/56 169/220/56 167/227/56
f 176/211/56 174/234/56 160/226/56
f 124/235/56 139/236/56 127/202/56
f 114/208/56 117/228/56 123/206/56
f 133/237/56 139/236/56 124/235/56
f 117/228/56 135/230/56 133/237/56
f 129/232/56 125/238/56 136/239/56
f 135/230/56 128/229/56 138/240/56
f 109/241/56 113/197/56 111/199/56
f 117/228/56 133/237/56 124/235/56
f 148/204/56 172/224/56 165/242/56
f 148/204/56 165/242/56 162/205/56
f 127/202/56 139/236/56 145/203/56
f 165/242/56 172/224/56 167/227/56
f 129/232/56 112/200/56 125/238/56
f 156/243/56 154/244/56 158/223/56
f 125/238/56 130/201/56 163/213/56
f 140/233/56 143/216/56 150/215/56
f 130/201/56 145/203/56 161/212/56
f 141/245/56 140/233/56 142/222/56
f 163/213/56 166/246/56 160/226/56
f 144/247/56 142/222/56 153/221/56
f 166/246/56 176/211/56 160/226/56
f 157/225/56 156/243/56 158/223/56
f 143/216/56 136/239/56 151/214/56
f 124/235/56 123/206/56 117/228/56
f 153/221/56 146/248/56 144/247/56
f 166/246/56 168/209/56 176/211/56
f 125/238/56 163/213/56 151/214/56
f 128/229/56 131/249/56 138/240/56
f 136/239/56 125/238/56 151/214/56
f 121/207/56 115/250/56 114/208/56
f 122/198/56 125/238/56 112/200/56
