# Blender v2.83.1 OBJ File: 'jigsaw-24x30-3-step2.blend'
# www.blender.org
mtllib piece.682.mtl
o path1364
v 0.459221 0.037500 -0.301792
v 0.457549 0.037500 -0.182487
v 0.487499 0.037500 -0.107826
v 0.560396 0.037500 -0.110844
v 0.652989 0.037500 -0.147097
v 0.733386 0.037500 -0.152771
v 0.775117 0.037500 -0.085155
v 0.773398 0.037500 0.014158
v 0.728878 0.037500 0.082487
v 0.647367 0.037500 0.078522
v 0.555034 0.037500 0.046425
v 0.483177 0.037500 0.051733
v 0.454519 0.037500 0.139637
v 0.457439 0.037500 0.273916
v 0.485026 0.037500 0.498137
v 0.264683 0.037500 0.543638
v 0.132641 0.037500 0.558046
v 0.046004 0.037500 0.538544
v 0.040312 0.037500 0.470940
v 0.071238 0.037500 0.380367
v 0.074492 0.037500 0.301788
v 0.006628 0.037500 0.263460
v -0.092436 0.037500 0.266844
v -0.161938 0.037500 0.306694
v -0.161357 0.037500 0.374531
v -0.131137 0.037500 0.449078
v -0.131963 0.037500 0.505842
v -0.206083 0.037500 0.527203
v -0.322004 0.037500 0.523027
v -0.516883 0.037500 0.498137
v -0.481715 0.037500 0.158804
v -0.498171 0.037500 0.074278
v -0.548394 0.037500 0.066612
v -0.617608 0.037500 0.093781
v -0.684831 0.037500 0.094757
v -0.730901 0.037500 0.028271
v -0.743943 0.037500 -0.067877
v -0.713904 0.037500 -0.136122
v -0.638636 0.037500 -0.138161
v -0.547612 0.037500 -0.112772
v -0.478217 0.037500 -0.117990
v -0.457538 0.037500 -0.194059
v -0.471487 0.037500 -0.310028
v -0.516883 0.037500 -0.503561
v -0.306211 0.037500 -0.524172
v -0.181417 0.037500 -0.523308
v -0.102808 0.037500 -0.493006
v -0.104837 0.037500 -0.423538
v -0.141827 0.037500 -0.338737
v -0.148066 0.037500 -0.270805
v -0.079377 0.037500 -0.245371
v 0.022287 0.037500 -0.261736
v 0.093443 0.037500 -0.312626
v 0.091891 0.037500 -0.387953
v 0.060570 0.037500 -0.466341
v 0.063701 0.037500 -0.523602
v 0.145808 0.037500 -0.542643
v 0.485026 0.037500 -0.503561
v 0.459221 -0.037500 -0.301792
v 0.457549 -0.037500 -0.182487
v 0.487499 -0.037500 -0.107826
v 0.560396 -0.037500 -0.110844
v 0.652989 -0.037500 -0.147097
v 0.733386 -0.037500 -0.152771
v 0.775117 -0.037498 -0.085155
v 0.773398 -0.037500 0.014158
v 0.728878 -0.037500 0.082487
v 0.647367 -0.037500 0.078522
v 0.555034 -0.037498 0.046425
v 0.483177 -0.037500 0.051733
v 0.454519 -0.037500 0.139637
v 0.457439 -0.037500 0.273916
v 0.485026 -0.037500 0.498137
v 0.264683 -0.037500 0.543638
v 0.132641 -0.037500 0.558046
v 0.046004 -0.037500 0.538544
v 0.040312 -0.037500 0.470940
v 0.071238 -0.037500 0.380367
v 0.074492 -0.037500 0.301788
v 0.006628 -0.037500 0.263460
v -0.092436 -0.037500 0.266844
v -0.161938 -0.037500 0.306694
v -0.161357 -0.037498 0.374531
v -0.131137 -0.037500 0.449078
v -0.131963 -0.037500 0.505842
v -0.206083 -0.037500 0.527203
v -0.322004 -0.037500 0.523027
v -0.516883 -0.037500 0.498137
v -0.481715 -0.037500 0.158804
v -0.498171 -0.037500 0.074278
v -0.548394 -0.037498 0.066612
v -0.617608 -0.037500 0.093781
v -0.684831 -0.037500 0.094757
v -0.730901 -0.037498 0.028271
v -0.743943 -0.037500 -0.067877
v -0.713904 -0.037500 -0.136122
v -0.638636 -0.037500 -0.138161
v -0.547612 -0.037500 -0.112772
v -0.478217 -0.037500 -0.117990
v -0.457538 -0.037500 -0.194059
v -0.471487 -0.037500 -0.310028
v -0.516883 -0.037500 -0.503561
v -0.306211 -0.037500 -0.524172
v -0.181417 -0.037498 -0.523308
v -0.102808 -0.037500 -0.493006
v -0.104837 -0.037500 -0.423538
v -0.141827 -0.037500 -0.338737
v -0.148066 -0.037500 -0.270805
v -0.079377 -0.037500 -0.245371
v 0.022287 -0.037500 -0.261736
v 0.093443 -0.037500 -0.312626
v 0.091891 -0.037500 -0.387953
v 0.060570 -0.037500 -0.466341
v 0.063701 -0.037500 -0.523602
v 0.145808 -0.037500 -0.542643
v 0.485026 -0.037500 -0.503561
v 0.063701 0.037500 -0.523602
v 0.063701 0.037500 -0.523602
v 0.145808 0.037500 -0.542643
v -0.306211 0.037500 -0.524172
v -0.181417 0.037500 -0.523308
v 0.060570 0.037500 -0.466341
v -0.102808 0.037500 -0.493006
v -0.102808 0.037500 -0.493006
v -0.516883 0.037500 -0.503561
v -0.516883 0.037500 -0.503561
v 0.485026 0.037500 -0.503561
v 0.485026 0.037500 -0.503561
v -0.104837 0.037500 -0.423538
v 0.091891 0.037500 -0.387953
v -0.141827 0.037500 -0.338737
v -0.471487 0.037500 -0.310028
v 0.459221 0.037500 -0.301792
v 0.093443 0.037500 -0.312626
v -0.148066 0.037500 -0.270805
v -0.148066 0.037500 -0.270805
v 0.022287 0.037500 -0.261736
v -0.457538 0.037500 -0.194059
v 0.457549 0.037500 -0.182487
v -0.079377 0.037500 -0.245371
v -0.478217 0.037500 -0.117990
v -0.478217 0.037500 -0.117990
v 0.487499 0.037500 -0.107826
v 0.487499 0.037500 -0.107826
v 0.652989 0.037500 -0.147097
v 0.733386 0.037500 -0.152771
v 0.733386 0.037500 -0.152771
v 0.775117 0.037500 -0.085155
v 0.560396 0.037500 -0.110844
v -0.713904 0.037500 -0.136122
v -0.713904 0.037500 -0.136122
v -0.638636 0.037500 -0.138161
v -0.547612 0.037500 -0.112772
v -0.743943 0.037500 -0.067877
v 0.773398 0.037500 0.014158
v -0.730901 0.037500 0.028271
v 0.728878 0.037500 0.082487
v -0.684831 0.037500 0.094757
v 0.555034 0.037500 0.046425
v 0.483177 0.037500 0.051733
v 0.483177 0.037500 0.051733
v 0.647367 0.037500 0.078522
v 0.454519 0.037500 0.139637
v -0.617608 0.037500 0.093781
v -0.548394 0.037500 0.066612
v -0.498171 0.037500 0.074278
v -0.498171 0.037500 0.074278
v -0.481715 0.037500 0.158804
v 0.457439 0.037500 0.273916
v 0.006628 0.037500 0.263460
v -0.092436 0.037500 0.266844
v 0.074492 0.037500 0.301788
v 0.074492 0.037500 0.301788
v -0.161938 0.037500 0.306694
v -0.161938 0.037500 0.306694
v 0.071238 0.037500 0.380367
v -0.161357 0.037500 0.374531
v -0.131137 0.037500 0.449078
v 0.040312 0.037500 0.470940
v -0.516883 0.037500 0.498137
v -0.516883 0.037500 0.498137
v -0.131963 0.037500 0.505842
v -0.131963 0.037500 0.505842
v 0.046004 0.037500 0.538544
v 0.046004 0.037500 0.538544
v 0.485026 0.037500 0.498137
v 0.485026 0.037500 0.498137
v -0.206083 0.037500 0.527203
v -0.322004 0.037500 0.523027
v 0.264683 0.037500 0.543638
v 0.132641 0.037500 0.558046
v 0.063701 -0.037500 -0.523602
v 0.063701 -0.037500 -0.523602
v 0.145808 -0.037500 -0.542643
v -0.306211 -0.037500 -0.524172
v -0.181417 -0.037498 -0.523308
v 0.060570 -0.037500 -0.466341
v -0.102808 -0.037500 -0.493006
v -0.102808 -0.037500 -0.493006
v -0.516883 -0.037500 -0.503561
v -0.516883 -0.037500 -0.503561
v 0.485026 -0.037500 -0.503561
v 0.485026 -0.037500 -0.503561
v -0.104837 -0.037500 -0.423538
v 0.091891 -0.037500 -0.387953
v -0.141827 -0.037500 -0.338737
v -0.471487 -0.037500 -0.310028
v 0.459221 -0.037500 -0.301792
v 0.093443 -0.037500 -0.312626
v -0.148066 -0.037500 -0.270805
v -0.148066 -0.037500 -0.270805
v 0.022287 -0.037500 -0.261736
v -0.457538 -0.037500 -0.194059
v 0.457549 -0.037500 -0.182487
v -0.079377 -0.037500 -0.245371
v -0.478217 -0.037500 -0.117990
v -0.478217 -0.037500 -0.117990
v 0.487499 -0.037500 -0.107826
v 0.487499 -0.037500 -0.107826
v 0.652989 -0.037500 -0.147097
v 0.733386 -0.037500 -0.152771
v 0.733386 -0.037500 -0.152771
v 0.775117 -0.037498 -0.085155
v 0.560396 -0.037500 -0.110844
v -0.713904 -0.037500 -0.136122
v -0.713904 -0.037500 -0.136122
v -0.638636 -0.037500 -0.138161
v -0.547612 -0.037500 -0.112772
v -0.743943 -0.037500 -0.067877
v 0.773398 -0.037500 0.014158
v -0.730901 -0.037498 0.028271
v 0.728878 -0.037500 0.082487
v -0.684831 -0.037500 0.094757
v 0.555034 -0.037498 0.046425
v 0.483177 -0.037500 0.051733
v 0.483177 -0.037500 0.051733
v 0.647367 -0.037500 0.078522
v 0.454519 -0.037500 0.139637
v -0.617608 -0.037500 0.093781
v -0.548394 -0.037498 0.066612
v -0.498171 -0.037500 0.074278
v -0.498171 -0.037500 0.074278
v -0.481715 -0.037500 0.158804
v 0.457439 -0.037500 0.273916
v 0.006628 -0.037500 0.263460
v -0.092436 -0.037500 0.266844
v 0.074492 -0.037500 0.301788
v 0.074492 -0.037500 0.301788
v -0.161938 -0.037500 0.306694
v -0.161938 -0.037500 0.306694
v 0.071238 -0.037500 0.380367
v -0.161357 -0.037498 0.374531
v -0.131137 -0.037500 0.449078
v 0.040312 -0.037500 0.470940
v -0.516883 -0.037500 0.498137
v -0.516883 -0.037500 0.498137
v -0.131963 -0.037500 0.505842
v -0.131963 -0.037500 0.505842
v 0.046004 -0.037500 0.538544
v 0.046004 -0.037500 0.538544
v 0.485026 -0.037500 0.498137
v 0.485026 -0.037500 0.498137
v -0.206083 -0.037500 0.527203
v -0.322004 -0.037500 0.523027
v 0.264683 -0.037500 0.543638
v 0.132641 -0.037500 0.558046
vt 0.500000 0.500000
vt 0.500000 0.500000
vt 0.500000 0.500000
vt 0.500000 0.500000
vt 0.500000 0.500000
vt 0.500000 0.500000
vt 0.500000 0.500000
vt 0.500000 0.500000
vt 0.500000 0.500000
vt 0.500000 0.500000
vt 0.500000 0.500000
vt 0.500000 0.500000
vt 0.500000 0.500000
vt 0.500000 0.500000
vt 0.500000 0.500000
vt 0.500000 0.500000
vt 0.500000 0.500000
vt 0.500000 0.500000
vt 0.500000 0.500000
vt 0.500000 0.500000
vt 0.500000 0.500000
vt 0.500000 0.500000
vt 0.500000 0.500000
vt 0.500000 0.500000
vt 0.500000 0.500000
vt 0.500000 0.500000
vt 0.500000 0.500000
vt 0.500000 0.500000
vt 0.500000 0.500000
vt 0.500000 0.500000
vt 0.500000 0.500000
vt 0.500000 0.500000
vt 0.500000 0.500000
vt 0.500000 0.500000
vt 0.500000 0.500000
vt 0.500000 0.500000
vt 0.500000 0.500000
vt 0.500000 0.500000
vt 0.500000 0.500000
vt 0.500000 0.500000
vt 0.500000 0.500000
vt 0.500000 0.500000
vt 0.500000 0.500000
vt 0.500000 0.500000
vt 0.500000 0.500000
vt 0.500000 0.500000
vt 0.500000 0.500000
vt 0.500000 0.500000
vt 0.500000 0.500000
vt 0.500000 0.500000
vt 0.500000 0.500000
vt 0.500000 0.500000
vt 0.500000 0.500000
vt 0.500000 0.500000
vt 0.500000 0.500000
vt 0.500000 0.500000
vt 0.500000 0.500000
vt 0.500000 0.500000
vt 0.500000 0.500000
vt 0.500000 0.500000
vt 0.500000 0.500000
vt 0.500000 0.500000
vt 0.500000 0.500000
vt 0.500000 0.500000
vt 0.500000 0.500000
vt 0.500000 0.500000
vt 0.500000 0.500000
vt 0.500000 0.500000
vt 0.500000 0.500000
vt 0.500000 0.500000
vt 0.500000 0.500000
vt 0.500000 0.500000
vt 0.500000 0.500000
vt 0.500000 0.500000
vt 0.500000 0.500000
vt 0.500000 0.500000
vt 0.500000 0.500000
vt 0.500000 0.500000
vt 0.500000 0.500000
vt 0.500000 0.500000
vt 0.500000 0.500000
vt 0.500000 0.500000
vt 0.500000 0.500000
vt 0.500000 0.500000
vt 0.500000 0.500000
vt 0.500000 0.500000
vt 0.500000 0.500000
vt 0.500000 0.500000
vt 0.500000 0.500000
vt 0.500000 0.500000
vt 0.500000 0.500000
vt 0.500000 0.500000
vt 0.500000 0.500000
vt 0.500000 0.500000
vt 0.500000 0.500000
vt 0.500000 0.500000
vt 0.500000 0.500000
vt 0.500000 0.500000
vt 0.500000 0.500000
vt 0.500000 0.500000
vt 0.500000 0.500000
vt 0.500000 0.500000
vt 0.500000 0.500000
vt 0.500000 0.500000
vt 0.500000 0.500000
vt 0.500000 0.500000
vt 0.500000 0.500000
vt 0.500000 0.500000
vt 0.500000 0.500000
vt 0.500000 0.500000
vt 0.500000 0.500000
vt 0.500000 0.500000
vt 0.500000 0.500000
vt 0.500000 0.500000
vt 0.500000 0.500000
vt 0.500000 0.500000
vt 0.500000 0.500000
vt 0.500000 0.500000
vt 0.500000 0.500000
vt 0.500000 0.500000
vt 0.500000 0.500000
vt 0.500000 0.500000
vt 0.500000 0.500000
vt 0.500000 0.500000
vt 0.500000 0.500000
vt 0.500000 0.500000
vt 0.500000 0.500000
vt 0.500000 0.500000
vt 0.500000 0.500000
vt 0.500000 0.500000
vt 0.500000 0.500000
vt 0.500000 0.500000
vt 0.500000 0.500000
vt 0.500000 0.500000
vt 0.500000 0.500000
vt 0.500000 0.500000
vt 0.500000 0.500000
vt 0.500000 0.500000
vt 0.500000 0.500000
vt 0.500000 0.500000
vt 0.500000 0.500000
vt 0.500000 0.500000
vt 0.500000 0.500000
vt 0.500000 0.500000
vt 0.500000 0.500000
vt 0.500000 0.500000
vt 0.500000 0.500000
vt 0.500000 0.500000
vt 0.500000 0.500000
vt 0.500000 0.500000
vt 0.500000 0.500000
vt 0.500000 0.500000
vt 0.500000 0.500000
vt 0.500000 0.500000
vt 0.500000 0.500000
vt 0.500000 0.500000
vt 0.500000 0.500000
vt 0.500000 0.500000
vt 0.500000 0.500000
vt 0.500000 0.500000
vt 0.500000 0.500000
vt 0.500000 0.500000
vt 0.500000 0.500000
vt 0.500000 0.500000
vt 0.500000 0.500000
vt 0.500000 0.500000
vt 0.500000 0.500000
vt 0.500000 0.500000
vt 0.500000 0.500000
vt 0.500000 0.500000
vt 0.500000 0.500000
vt 0.500000 0.500000
vt 0.500000 0.500000
vt 0.500000 0.500000
vt 0.500000 0.500000
vt 0.500000 0.500000
vt 0.500000 0.500000
vt 0.500000 0.500000
vt 0.500000 0.500000
vt 0.500000 0.500000
vt 0.500000 0.500000
vt 0.500000 0.500000
vt 0.500000 0.500000
vt 0.500000 0.500000
vt 0.500000 0.500000
vt 0.500000 0.500000
vt 0.500000 0.500000
vt 0.500000 0.500000
vt 0.500000 0.500000
vt 0.500000 0.500000
vt 0.500000 0.500000
vt 0.500000 0.500000
vt 0.500000 0.500000
vt 0.500000 0.500000
vt 0.500000 0.500000
vt 0.500000 0.500000
vt 0.500000 0.500000
vt 0.500000 0.500000
vt 0.500000 0.500000
vt 0.500000 0.500000
vt 0.500000 0.500000
vt 0.500000 0.500000
vt 0.500000 0.500000
vt 0.500000 0.500000
vt 0.500000 0.500000
vt 0.500000 0.500000
vt 0.500000 0.500000
vt 0.500000 0.500000
vt 0.369937 0.054507
vt 0.365557 0.052168
vt 0.366100 0.048969
vt 0.373722 0.053662
vt 0.373689 0.047693
vt 0.375778 0.047438
vt 0.416590 0.048188
vt 0.397423 0.058619
vt 0.415398 0.045263
vt 0.416667 0.066667
vt 0.402559 0.067967
vt 0.415593 0.059952
vt 0.415524 0.055982
vt 0.400382 0.060313
vt 0.419578 0.048365
vt 0.423418 0.047297
vt 0.419801 0.053598
vt 0.400317 0.062820
vt 0.423652 0.054805
vt 0.415519 0.040795
vt 0.399594 0.039867
vt 0.389761 0.039704
vt 0.383104 0.032505
vt 0.389785 0.037447
vt 0.396771 0.041143
vt 0.393195 0.058075
vt 0.392652 0.041030
vt 0.390338 0.058921
vt 0.376608 0.053836
vt 0.376462 0.044625
vt 0.375000 0.033333
vt 0.370811 0.046789
vt 0.383761 0.067352
vt 0.375000 0.066667
vt 0.376888 0.060226
vt 0.398409 0.031989
vt 0.402012 0.031340
vt 0.398172 0.034238
vt 0.407503 0.031819
vt 0.399145 0.067334
vt 0.399015 0.065428
vt 0.387925 0.032366
vt 0.377468 0.056367
vt 0.416769 0.053498
vt 0.399458 0.037252
vt 0.426995 0.054993
vt 0.428731 0.052743
vt 0.428659 0.049439
vt 0.368016 0.046757
vt 0.426808 0.047165
vt 0.390597 0.061182
vt 0.388951 0.067324
vt 0.366806 0.054439
vt 0.392136 0.064004
vt 0.391042 0.034966
vt 0.391008 0.033077
vt 0.416667 0.033333
vt 0.392220 0.066315
vn 0.0000 -1.0000 0.0000
vn -0.2259 0.0000 -0.9741
vn 0.0069 0.0000 -1.0000
vn -0.9985 0.0000 -0.0546
vn 0.3597 0.0000 -0.9331
vn -0.0974 0.0000 -0.9952
vn 0.1145 0.0000 -0.9934
vn 0.9996 0.0000 0.0292
vn -0.9286 0.0000 0.3710
vn 0.9166 0.0000 0.3998
vn -0.9736 0.0000 0.2284
vn 0.9919 0.0000 0.1269
vn -0.9998 0.0000 0.0206
vn 0.9958 0.0000 0.0915
vn -0.5817 0.0000 -0.8134
vn -0.9928 0.0000 0.1194
vn 0.9999 0.0000 0.0140
vn 0.3472 0.0000 -0.9378
vn -0.1589 0.0000 -0.9873
vn -0.9650 0.0000 -0.2623
vn 0.9281 0.0000 -0.3723
vn -0.0704 0.0000 -0.9975
vn 0.8510 0.0000 -0.5252
vn -0.3646 0.0000 -0.9312
vn -0.0271 0.0000 -0.9996
vn 0.2687 0.0000 -0.9632
vn -0.9153 0.0000 -0.4029
vn -0.0750 0.0000 -0.9972
vn -0.0414 0.0000 -0.9991
vn 0.9999 0.0000 0.0173
vn -0.9909 0.0000 0.1344
vn 0.8378 0.0000 0.5459
vn -0.8220 0.0000 0.5696
vn 0.0737 0.0000 0.9973
vn -0.3283 0.0000 0.9446
vn -0.0486 0.0000 0.9988
vn 0.9508 0.0000 0.3100
vn 0.0145 0.0000 0.9999
vn 0.3654 0.0000 0.9309
vn -0.1509 0.0000 0.9886
vn -0.9816 0.0000 0.1911
vn 0.9998 0.0000 -0.0217
vn 0.0341 0.0000 0.9994
vn -0.4918 0.0000 0.8707
vn 0.4974 0.0000 0.8675
vn -0.9991 0.0000 -0.0414
vn 1.0000 0.0000 -0.0086
vn 0.9267 0.0000 -0.3757
vn -0.9464 0.0000 -0.3231
vn -0.9947 0.0000 -0.1031
vn 0.9999 0.0000 0.0145
vn -0.9965 0.0000 0.0839
vn 0.9925 0.0000 -0.1221
vn 0.2769 0.0000 0.9609
vn -0.1267 0.0000 0.9919
vn -0.0360 0.0000 0.9994
vn 0.2022 0.0000 0.9793
vn -0.2196 0.0000 0.9756
vn 0.1085 0.0000 0.9941
vn 0.0000 1.0000 -0.0000
usemtl BackMat.001
s off
f 227/1/1 231/2/1 229/3/1
f 228/4/1 241/5/1 240/6/1
f 235/7/1 238/8/1 212/9/1
f 202/10/1 208/11/1 194/12/1
f 214/13/1 209/14/1 208/11/1
f 234/15/1 224/16/1 237/17/1
f 194/12/1 208/11/1 205/18/1
f 220/19/1 237/17/1 224/16/1
f 244/20/1 247/21/1 238/8/1
f 249/22/1 252/23/1 264/24/1
f 245/25/1 246/26/1 215/27/1
f 212/9/1 245/25/1 215/27/1
f 210/28/1 241/5/1 216/29/1
f 243/30/1 264/24/1 255/31/1
f 227/1/1 240/6/1 239/32/1
f 195/33/1 207/34/1 200/35/1
f 216/29/1 241/5/1 228/4/1
f 259/36/1 254/37/1 266/38/1
f 265/39/1 247/21/1 244/20/1
f 228/4/1 240/6/1 227/1/1
f 243/30/1 249/22/1 264/24/1
f 214/13/1 212/9/1 209/14/1
f 194/12/1 197/40/1 192/41/1
f 246/26/1 249/22/1 243/30/1
f 264/24/1 252/23/1 263/42/1
f 210/28/1 213/43/1 207/34/1
f 205/18/1 197/40/1 194/12/1
f 215/27/1 246/26/1 210/28/1
f 238/8/1 245/25/1 212/9/1
f 238/8/1 247/21/1 245/25/1
f 235/7/1 218/44/1 234/15/1
f 246/26/1 241/5/1 210/28/1
f 224/16/1 234/15/1 218/44/1
f 218/44/1 235/7/1 212/9/1
f 208/11/1 209/14/1 205/18/1
f 241/5/1 246/26/1 243/30/1
f 251/45/1 266/38/1 254/37/1
f 221/46/1 223/47/1 220/19/1
f 223/47/1 230/48/1 220/19/1
f 231/2/1 239/32/1 233/49/1
f 232/50/1 237/17/1 230/48/1
f 218/44/1 212/9/1 214/13/1
f 247/21/1 265/39/1 251/45/1
f 206/51/1 195/33/1 196/52/1
f 210/28/1 216/29/1 213/43/1
f 266/38/1 251/45/1 265/39/1
f 227/1/1 229/3/1 225/53/1
f 195/33/1 206/51/1 207/34/1
f 206/51/1 196/52/1 204/54/1
f 252/23/1 253/55/1 263/42/1
f 231/2/1 227/1/1 239/32/1
f 263/42/1 253/55/1 257/56/1
f 265/39/1 244/20/1 261/57/1
f 210/28/1 207/34/1 206/51/1
f 237/17/1 220/19/1 230/48/1
f 204/54/1 196/52/1 198/58/1
f 118/59/2 57/60/2 115/61/2 193/62/2
f 45/63/3 46/64/3 104/65/3 103/66/3
f 55/67/4 56/68/4 114/69/4 113/70/4
f 46/64/5 124/71/5 199/72/5 104/65/5
f 126/73/6 45/63/6 103/66/6 201/74/6
f 57/60/7 128/75/7 203/76/7 115/61/7
f 47/77/8 48/78/8 106/79/8 105/80/8
f 54/81/9 55/67/9 113/70/9 112/82/9
f 48/78/10 49/83/10 107/84/10 106/79/10
f 43/85/11 44/86/11 102/87/11 101/88/11
f 58/89/12 1/90/12 59/91/12 116/92/12
f 53/93/13 54/81/13 112/82/13 111/94/13
f 49/83/14 136/95/14 211/96/14 107/84/14
f 52/97/15 53/93/15 111/94/15 110/98/15
f 42/99/16 43/85/16 101/88/16 100/100/16
f 1/90/17 2/101/17 60/102/17 59/91/17
f 50/103/18 51/104/18 109/105/18 108/106/18
f 51/104/19 52/97/19 110/98/19 109/105/19
f 142/107/20 42/99/20 100/100/20 217/108/20
f 2/101/21 144/109/21 219/110/21 60/102/21
f 5/111/22 147/112/22 222/113/22 63/114/22
f 6/115/23 7/116/23 65/117/23 64/118/23
f 4/119/24 5/111/24 63/114/24 62/120/24
f 151/121/25 39/122/25 97/123/25 226/124/25
f 39/122/26 40/125/26 98/126/26 97/123/26
f 37/127/27 38/128/27 96/129/27 95/130/27
f 40/125/28 41/131/28 99/132/28 98/126/28
f 3/133/29 4/119/29 62/120/29 61/134/29
f 7/116/30 8/135/30 66/136/30 65/117/30
f 36/137/31 37/127/31 95/130/31 94/138/31
f 8/135/32 9/139/32 67/140/32 66/136/32
f 35/141/33 36/137/33 94/138/33 93/142/33
f 11/143/34 161/144/34 236/145/34 69/146/34
f 10/147/35 11/143/35 69/146/35 68/148/35
f 9/139/36 10/147/36 68/148/36 67/140/36
f 12/149/37 13/150/37 71/151/37 70/152/37
f 34/153/38 35/141/38 93/142/38 92/154/38
f 33/155/39 34/153/39 92/154/39 91/156/39
f 167/157/40 33/155/40 91/156/40 242/158/40
f 31/159/41 32/160/41 90/161/41 89/162/41
f 13/150/42 14/163/42 72/164/42 71/151/42
f 22/165/43 23/166/43 81/167/43 80/168/43
f 173/169/44 22/165/44 80/168/44 248/170/44
f 23/166/45 175/171/45 250/172/45 81/167/45
f 20/173/46 21/174/46 79/175/46 78/176/46
f 24/177/47 25/178/47 83/179/47 82/180/47
f 25/178/48 26/181/48 84/182/48 83/179/48
f 19/183/49 20/173/49 78/176/49 77/184/49
f 181/185/50 31/159/50 89/162/50 256/186/50
f 26/181/51 183/187/51 258/188/51 84/182/51
f 185/189/52 19/183/52 77/184/52 260/190/52
f 14/163/53 187/191/53 262/192/53 72/164/53
f 27/193/54 28/194/54 86/195/54 85/196/54
f 29/197/55 30/198/55 88/199/55 87/200/55
f 28/194/56 29/197/56 87/200/56 86/195/56
f 15/201/57 16/202/57 74/203/57 73/204/57
f 17/205/58 18/206/58 76/207/58 75/208/58
f 16/202/59 17/205/59 75/208/59 74/203/59
usemtl FrontMat.001
f 152/209/60 154/210/60 156/211/60
f 153/212/60 165/213/60 166/214/60
f 160/215/60 137/216/60 163/217/60
f 127/218/60 119/219/60 133/220/60
f 139/221/60 133/220/60 134/222/60
f 159/223/60 162/224/60 149/225/60
f 119/219/60 130/226/60 133/220/60
f 145/227/60 149/225/60 162/224/60
f 169/228/60 163/217/60 172/229/60
f 174/230/60 189/231/60 177/232/60
f 170/233/60 140/234/60 171/235/60
f 137/216/60 140/234/60 170/233/60
f 135/236/60 141/237/60 166/214/60
f 168/238/60 180/239/60 189/231/60
f 152/209/60 164/240/60 165/213/60
f 120/241/60 125/242/60 132/243/60
f 141/237/60 153/212/60 166/214/60
f 184/244/60 191/245/60 179/246/60
f 190/247/60 169/228/60 172/229/60
f 153/212/60 152/209/60 165/213/60
f 168/238/60 189/231/60 174/230/60
f 139/221/60 134/222/60 137/216/60
f 119/219/60 117/248/60 122/249/60
f 171/235/60 168/238/60 174/230/60
f 189/231/60 188/250/60 177/232/60
f 135/236/60 132/243/60 138/251/60
f 130/226/60 119/219/60 122/249/60
f 140/234/60 135/236/60 171/235/60
f 163/217/60 137/216/60 170/233/60
f 163/217/60 170/233/60 172/229/60
f 160/215/60 159/223/60 143/252/60
f 171/235/60 135/236/60 166/214/60
f 149/225/60 143/252/60 159/223/60
f 143/252/60 137/216/60 160/215/60
f 133/220/60 130/226/60 134/222/60
f 166/214/60 168/238/60 171/235/60
f 176/253/60 179/246/60 191/245/60
f 146/254/60 145/227/60 148/255/60
f 148/255/60 145/227/60 155/256/60
f 156/211/60 158/257/60 164/240/60
f 157/258/60 155/256/60 162/224/60
f 143/252/60 139/221/60 137/216/60
f 172/229/60 176/253/60 190/247/60
f 131/259/60 121/260/60 120/241/60
f 135/236/60 138/251/60 141/237/60
f 191/245/60 190/247/60 176/253/60
f 152/209/60 150/261/60 154/210/60
f 120/241/60 132/243/60 131/259/60
f 131/259/60 129/262/60 121/260/60
f 177/232/60 188/250/60 178/263/60
f 156/211/60 164/240/60 152/209/60
f 188/250/60 182/264/60 178/263/60
f 190/247/60 186/265/60 169/228/60
f 135/236/60 131/259/60 132/243/60
f 162/224/60 155/256/60 145/227/60
f 129/262/60 123/266/60 121/260/60
