# Blender v2.83.1 OBJ File: 'jigsaw-24x30-3-step2.blend'
# www.blender.org
mtllib piece.716.mtl
o path1432
v -0.439222 0.037500 0.270832
v -0.423098 0.037500 0.150135
v -0.440027 0.037500 0.072090
v -0.504251 0.037500 0.069492
v -0.591522 0.037500 0.100555
v -0.667969 0.037500 0.104843
v -0.705828 0.037500 0.041615
v -0.701740 0.037500 -0.051067
v -0.658451 0.037500 -0.115435
v -0.583181 0.037500 -0.113523
v -0.501139 0.037500 -0.086567
v -0.442015 0.037500 -0.095606
v -0.426868 0.037500 -0.182535
v -0.486525 0.037500 -0.528820
v -0.283278 0.037500 -0.549299
v -0.162506 0.037500 -0.550350
v -0.085573 0.037500 -0.525705
v -0.085527 0.037500 -0.465878
v -0.118814 0.037500 -0.388147
v -0.122728 0.037500 -0.316469
v -0.055296 0.037500 -0.272125
v 0.042524 0.037500 -0.265697
v 0.109049 0.037500 -0.305099
v 0.103735 0.037500 -0.390421
v 0.070568 0.037500 -0.490490
v 0.074671 0.037500 -0.566319
v 0.160953 0.037500 -0.589758
v 0.293491 0.037500 -0.575947
v 0.515173 0.037500 -0.528820
v 0.515173 0.037500 0.473089
v 0.159636 0.037500 0.453594
v 0.074301 0.037500 0.479883
v 0.072756 0.037500 0.541729
v 0.109367 0.037500 0.620184
v 0.118000 0.037500 0.689247
v 0.053753 0.037500 0.726631
v -0.043299 0.037500 0.724852
v -0.111847 0.037500 0.680132
v -0.111006 0.037500 0.595289
v -0.081591 0.037500 0.499598
v -0.084843 0.037500 0.428934
v -0.163223 0.037500 0.408983
v -0.284107 0.037500 0.424620
v -0.486525 0.037500 0.473089
v -0.439222 -0.037500 0.270832
v -0.423098 -0.037498 0.150135
v -0.440027 -0.037500 0.072090
v -0.504251 -0.037500 0.069492
v -0.591522 -0.037500 0.100555
v -0.667969 -0.037500 0.104843
v -0.705828 -0.037500 0.041615
v -0.701740 -0.037498 -0.051067
v -0.658451 -0.037500 -0.115435
v -0.583181 -0.037498 -0.113523
v -0.501139 -0.037500 -0.086567
v -0.442015 -0.037500 -0.095606
v -0.426868 -0.037498 -0.182535
v -0.486525 -0.037500 -0.528820
v -0.283278 -0.037500 -0.549299
v -0.162506 -0.037500 -0.550350
v -0.085573 -0.037500 -0.525705
v -0.085527 -0.037500 -0.465878
v -0.118814 -0.037500 -0.388147
v -0.122728 -0.037500 -0.316469
v -0.055296 -0.037500 -0.272125
v 0.042524 -0.037500 -0.265697
v 0.109049 -0.037500 -0.305099
v 0.103735 -0.037500 -0.390421
v 0.070568 -0.037498 -0.490490
v 0.074671 -0.037500 -0.566319
v 0.160953 -0.037500 -0.589758
v 0.293491 -0.037500 -0.575947
v 0.515173 -0.037500 -0.528820
v 0.515173 -0.037500 0.473089
v 0.159636 -0.037500 0.453594
v 0.074301 -0.037500 0.479883
v 0.072756 -0.037500 0.541729
v 0.109367 -0.037500 0.620184
v 0.118000 -0.037500 0.689247
v 0.053753 -0.037498 0.726631
v -0.043299 -0.037500 0.724852
v -0.111847 -0.037500 0.680132
v -0.111006 -0.037500 0.595289
v -0.081591 -0.037500 0.499598
v -0.084843 -0.037500 0.428934
v -0.163223 -0.037498 0.408983
v -0.284107 -0.037498 0.424620
v -0.486525 -0.037500 0.473089
v -0.667969 0.037500 0.104843
v -0.667969 0.037500 0.104843
v -0.705828 0.037500 0.041615
v -0.701740 0.037500 -0.051067
v -0.658451 0.037500 -0.115435
v -0.591522 0.037500 0.100555
v -0.583181 0.037500 -0.113523
v -0.504251 0.037500 0.069492
v -0.501139 0.037500 -0.086567
v -0.440027 0.037500 0.072090
v -0.440027 0.037500 0.072090
v -0.442015 0.037500 -0.095606
v -0.442015 0.037500 -0.095606
v -0.486525 0.037500 0.473089
v -0.486525 0.037500 0.473089
v -0.439222 0.037500 0.270832
v -0.426868 0.037500 -0.182535
v -0.486525 0.037500 -0.528820
v -0.486525 0.037500 -0.528820
v -0.423098 0.037500 0.150135
v -0.284107 0.037500 0.424620
v -0.283278 0.037500 -0.549299
v -0.163223 0.037500 0.408983
v -0.162506 0.037500 -0.550350
v -0.084843 0.037500 0.428934
v -0.084843 0.037500 0.428934
v -0.118814 0.037500 -0.388147
v -0.122728 0.037500 -0.316469
v -0.085573 0.037500 -0.525705
v -0.085573 0.037500 -0.525705
v -0.055296 0.037500 -0.272125
v -0.085527 0.037500 -0.465878
v -0.043299 0.037500 0.724852
v -0.111847 0.037500 0.680132
v -0.111006 0.037500 0.595289
v -0.081591 0.037500 0.499598
v 0.042524 0.037500 -0.265697
v 0.053753 0.037500 0.726631
v 0.109049 0.037500 -0.305099
v 0.109049 0.037500 -0.305099
v 0.118000 0.037500 0.689247
v 0.118000 0.037500 0.689247
v 0.074301 0.037500 0.479883
v 0.074301 0.037500 0.479883
v 0.072756 0.037500 0.541729
v 0.103735 0.037500 -0.390421
v 0.070568 0.037500 -0.490490
v 0.074671 0.037500 -0.566319
v 0.074671 0.037500 -0.566319
v 0.109367 0.037500 0.620184
v 0.159636 0.037500 0.453594
v 0.160953 0.037500 -0.589758
v 0.293491 0.037500 -0.575947
v 0.515173 0.037500 0.473089
v 0.515173 0.037500 0.473089
v 0.515173 0.037500 -0.528820
v 0.515173 0.037500 -0.528820
v -0.667969 -0.037500 0.104843
v -0.667969 -0.037500 0.104843
v -0.705828 -0.037500 0.041615
v -0.701740 -0.037498 -0.051067
v -0.658451 -0.037500 -0.115435
v -0.591522 -0.037500 0.100555
v -0.583181 -0.037498 -0.113523
v -0.504251 -0.037500 0.069492
v -0.501139 -0.037500 -0.086567
v -0.440027 -0.037500 0.072090
v -0.440027 -0.037500 0.072090
v -0.442015 -0.037500 -0.095606
v -0.442015 -0.037500 -0.095606
v -0.486525 -0.037500 0.473089
v -0.486525 -0.037500 0.473089
v -0.439222 -0.037500 0.270832
v -0.426868 -0.037498 -0.182535
v -0.486525 -0.037500 -0.528820
v -0.486525 -0.037500 -0.528820
v -0.423098 -0.037498 0.150135
v -0.284107 -0.037498 0.424620
v -0.283278 -0.037500 -0.549299
v -0.163223 -0.037498 0.408983
v -0.162506 -0.037500 -0.550350
v -0.084843 -0.037500 0.428934
v -0.084843 -0.037500 0.428934
v -0.118814 -0.037500 -0.388147
v -0.122728 -0.037500 -0.316469
v -0.085573 -0.037500 -0.525705
v -0.085573 -0.037500 -0.525705
v -0.055296 -0.037500 -0.272125
v -0.085527 -0.037500 -0.465878
v -0.043299 -0.037500 0.724852
v -0.111847 -0.037500 0.680132
v -0.111006 -0.037500 0.595289
v -0.081591 -0.037500 0.499598
v 0.042524 -0.037500 -0.265697
v 0.053753 -0.037498 0.726631
v 0.109049 -0.037500 -0.305099
v 0.109049 -0.037500 -0.305099
v 0.118000 -0.037500 0.689247
v 0.118000 -0.037500 0.689247
v 0.074301 -0.037500 0.479883
v 0.074301 -0.037500 0.479883
v 0.072756 -0.037500 0.541729
v 0.103735 -0.037500 -0.390421
v 0.070568 -0.037498 -0.490490
v 0.074671 -0.037500 -0.566319
v 0.074671 -0.037500 -0.566319
v 0.109367 -0.037500 0.620184
v 0.159636 -0.037500 0.453594
v 0.160953 -0.037500 -0.589758
v 0.293491 -0.037500 -0.575947
v 0.515173 -0.037500 0.473089
v 0.515173 -0.037500 0.473089
v 0.515173 -0.037500 -0.528820
v 0.515173 -0.037500 -0.528820
vt 0.500000 0.500000
vt 0.500000 0.500000
vt 0.500000 0.500000
vt 0.500000 0.500000
vt 0.500000 0.500000
vt 0.500000 0.500000
vt 0.500000 0.500000
vt 0.500000 0.500000
vt 0.500000 0.500000
vt 0.500000 0.500000
vt 0.500000 0.500000
vt 0.500000 0.500000
vt 0.500000 0.500000
vt 0.500000 0.500000
vt 0.500000 0.500000
vt 0.500000 0.500000
vt 0.500000 0.500000
vt 0.500000 0.500000
vt 0.500000 0.500000
vt 0.500000 0.500000
vt 0.500000 0.500000
vt 0.500000 0.500000
vt 0.500000 0.500000
vt 0.500000 0.500000
vt 0.500000 0.500000
vt 0.500000 0.500000
vt 0.500000 0.500000
vt 0.500000 0.500000
vt 0.500000 0.500000
vt 0.500000 0.500000
vt 0.500000 0.500000
vt 0.500000 0.500000
vt 0.500000 0.500000
vt 0.500000 0.500000
vt 0.500000 0.500000
vt 0.500000 0.500000
vt 0.500000 0.500000
vt 0.500000 0.500000
vt 0.500000 0.500000
vt 0.500000 0.500000
vt 0.500000 0.500000
vt 0.500000 0.500000
vt 0.500000 0.500000
vt 0.500000 0.500000
vt 0.500000 0.500000
vt 0.500000 0.500000
vt 0.500000 0.500000
vt 0.500000 0.500000
vt 0.500000 0.500000
vt 0.500000 0.500000
vt 0.500000 0.500000
vt 0.500000 0.500000
vt 0.500000 0.500000
vt 0.500000 0.500000
vt 0.500000 0.500000
vt 0.500000 0.500000
vt 0.500000 0.500000
vt 0.500000 0.500000
vt 0.500000 0.500000
vt 0.500000 0.500000
vt 0.500000 0.500000
vt 0.500000 0.500000
vt 0.500000 0.500000
vt 0.500000 0.500000
vt 0.500000 0.500000
vt 0.500000 0.500000
vt 0.500000 0.500000
vt 0.500000 0.500000
vt 0.500000 0.500000
vt 0.500000 0.500000
vt 0.500000 0.500000
vt 0.500000 0.500000
vt 0.500000 0.500000
vt 0.500000 0.500000
vt 0.500000 0.500000
vt 0.500000 0.500000
vt 0.500000 0.500000
vt 0.500000 0.500000
vt 0.500000 0.500000
vt 0.500000 0.500000
vt 0.500000 0.500000
vt 0.500000 0.500000
vt 0.500000 0.500000
vt 0.500000 0.500000
vt 0.500000 0.500000
vt 0.500000 0.500000
vt 0.500000 0.500000
vt 0.500000 0.500000
vt 0.500000 0.500000
vt 0.500000 0.500000
vt 0.500000 0.500000
vt 0.500000 0.500000
vt 0.500000 0.500000
vt 0.500000 0.500000
vt 0.500000 0.500000
vt 0.500000 0.500000
vt 0.500000 0.500000
vt 0.500000 0.500000
vt 0.500000 0.500000
vt 0.500000 0.500000
vt 0.500000 0.500000
vt 0.500000 0.500000
vt 0.500000 0.500000
vt 0.500000 0.500000
vt 0.500000 0.500000
vt 0.500000 0.500000
vt 0.500000 0.500000
vt 0.500000 0.500000
vt 0.500000 0.500000
vt 0.500000 0.500000
vt 0.500000 0.500000
vt 0.500000 0.500000
vt 0.500000 0.500000
vt 0.500000 0.500000
vt 0.500000 0.500000
vt 0.500000 0.500000
vt 0.500000 0.500000
vt 0.500000 0.500000
vt 0.500000 0.500000
vt 0.500000 0.500000
vt 0.500000 0.500000
vt 0.500000 0.500000
vt 0.500000 0.500000
vt 0.500000 0.500000
vt 0.500000 0.500000
vt 0.500000 0.500000
vt 0.500000 0.500000
vt 0.500000 0.500000
vt 0.500000 0.500000
vt 0.500000 0.500000
vt 0.500000 0.500000
vt 0.500000 0.500000
vt 0.500000 0.500000
vt 0.500000 0.500000
vt 0.500000 0.500000
vt 0.500000 0.500000
vt 0.500000 0.500000
vt 0.500000 0.500000
vt 0.500000 0.500000
vt 0.500000 0.500000
vt 0.500000 0.500000
vt 0.500000 0.500000
vt 0.500000 0.500000
vt 0.500000 0.500000
vt 0.500000 0.500000
vt 0.500000 0.500000
vt 0.500000 0.500000
vt 0.500000 0.500000
vt 0.500000 0.500000
vt 0.500000 0.500000
vt 0.500000 0.500000
vt 0.500000 0.500000
vt 0.500000 0.500000
vt 0.500000 0.500000
vt 0.500000 0.500000
vt 0.500000 0.500000
vt 0.500000 0.500000
vt 0.500000 0.500000
vt 0.833204 0.019991
vt 0.834229 0.022551
vt 0.830716 0.019989
vt 0.824029 0.013514
vt 0.822391 0.015728
vt 0.792477 0.011831
vt 0.782677 0.013217
vt 0.785549 0.013504
vt 0.781122 0.015355
vt 0.781196 0.018584
vt 0.790564 0.019858
vt 0.786585 0.020837
vt 0.788812 0.014722
vt 0.835867 0.011787
vt 0.827578 0.013691
vt 0.835293 0.007377
vt 0.808451 0.033923
vt 0.816062 0.036550
vt 0.807159 0.036827
vt 0.822658 0.018983
vt 0.815317 0.031852
vt 0.808343 0.031786
vt 0.831739 0.014795
vt 0.791667 0.000000
vt 0.791384 0.014671
vt 0.793503 0.019967
vt 0.800078 0.031759
vt 0.791667 0.033333
vt 0.793682 0.026597
vt 0.809610 0.040631
vt 0.806981 0.039371
vt 0.834185 0.026570
vt 0.818932 0.031348
vt 0.824502 0.021227
vt 0.816142 0.039055
vt 0.813465 0.040495
vt 0.833333 0.000000
vt 0.827483 0.021097
vt 0.805097 0.031223
vt 0.794333 0.022575
vt 0.833333 0.033333
vt 0.814941 0.033820
vt 0.783056 0.020865
vt 0.834893 0.014659
vn 0.0000 -1.0000 0.0000
vn 0.0000 -1.0000 0.0001
vn -0.8580 0.0000 0.5137
vn -0.9990 0.0000 -0.0441
vn -0.8298 0.0000 -0.5581
vn 0.0560 0.0000 0.9984
vn 0.0254 0.0000 -0.9997
vn 0.3353 0.0000 0.9421
vn 0.3121 0.0000 -0.9500
vn -0.0404 0.0000 0.9992
vn -0.1511 0.0000 -0.9885
vn -0.9737 0.0000 -0.2277
vn -0.9855 0.0000 0.1698
vn -0.9852 0.0000 -0.1717
vn -0.9773 0.0000 0.2120
vn -0.9912 0.0000 -0.1324
vn 0.2329 0.0000 0.9725
vn -0.1003 0.0000 -0.9950
vn 0.1283 0.0000 0.9917
vn -0.0087 0.0000 -1.0000
vn -0.2467 0.0000 0.9691
vn 0.9985 0.0000 0.0545
vn 0.3051 0.0000 -0.9523
vn 0.5494 0.0000 -0.8355
vn 0.9193 0.0000 0.3937
vn 1.0000 0.0000 -0.0008
vn -0.5464 0.0000 0.8375
vn -1.0000 0.0000 -0.0099
vn -0.9559 0.0000 -0.2938
vn -0.9989 0.0000 0.0460
vn 0.0656 0.0000 -0.9978
vn -0.0183 0.0000 0.9998
vn -0.5096 0.0000 -0.8604
vn 0.5029 0.0000 0.8643
vn 0.9997 0.0000 0.0250
vn -0.9492 0.0000 0.3146
vn -0.9985 0.0000 -0.0540
vn 0.9923 0.0000 -0.1240
vn 0.9062 0.0000 -0.4229
vn 0.2944 0.0000 0.9557
vn -0.2622 0.0000 -0.9650
vn -0.9981 0.0000 0.0622
vn 0.1036 0.0000 -0.9946
vn -0.0548 0.0000 0.9985
vn 1.0000 0.0000 0.0000
vn 0.2079 0.0000 -0.9781
vn 0.0000 1.0000 0.0000
usemtl BackMat.001
s off
f 174/1/1 177/2/1 169/3/1
f 184/4/1 196/5/1 182/6/1
f 186/7/1 183/8/1 195/9/1
f 183/8/1 178/10/1 195/9/1
f 181/11/1 190/12/1 180/13/1
f 197/14/1 198/15/1 191/16/1
f 153/17/1 151/18/1 152/19/1
f 176/20/1 155/21/1 157/22/1
f 191/16/1 198/15/1 184/4/1
f 192/23/1 197/14/1 191/16/1
f 196/5/1 184/4/1 199/24/1
f 188/25/1 170/26/1 196/5/1
f 161/27/1 166/28/1 159/29/1
f 148/30/1 151/18/1 146/31/1
f 167/32/1 173/33/1 162/34/1
f 162/34/1 176/20/1 157/22/1
f 173/33/1 176/20/1 162/34/1
f 152/19/2 149/35/2 150/36/2
f 201/37/1 184/4/1 198/15/1
f 177/2/1 172/38/1 169/3/1
f 165/39/1 168/40/1 166/28/1
f 167/32/1 162/34/1 163/41/1
f 180/13/1 190/12/1 178/10/1
f 195/9/1 178/10/1 190/12/1
f 176/20/1 165/39/1 155/21/1
f 157/22/1 155/21/1 154/42/1
f 176/20/1 168/40/1 165/39/1
f 154/42/1 153/17/1 152/19/1
f 149/35/1 151/18/1 148/30/1
f 167/32/1 172/38/1 173/33/1
f 176/20/1 170/26/1 168/40/1
f 154/42/1 155/21/1 153/17/1
f 180/13/1 178/10/1 179/43/1
f 169/3/1 172/38/1 167/32/1
f 152/19/1 151/18/1 149/35/1
f 182/6/1 170/26/1 176/20/1
f 182/6/1 196/5/1 170/26/1
f 199/24/1 184/4/1 201/37/1
f 190/12/1 181/11/1 188/25/1
f 193/44/1 197/14/1 192/23/1
f 170/26/1 188/25/1 181/11/1
f 165/39/1 166/28/1 161/27/1
f 90/45/3 7/46/3 51/47/3 147/48/3
f 7/46/4 8/49/4 52/50/4 51/47/4
f 8/49/5 9/51/5 53/52/5 52/50/5
f 5/53/6 6/54/6 50/55/6 49/56/6
f 9/51/7 10/57/7 54/58/7 53/52/7
f 4/59/8 5/53/8 49/56/8 48/60/8
f 10/57/9 11/61/9 55/62/9 54/58/9
f 99/63/10 4/59/10 48/60/10 156/64/10
f 11/61/11 101/65/11 158/66/11 55/62/11
f 103/67/12 1/68/12 45/69/12 160/70/12
f 13/71/13 107/72/13 164/73/13 57/74/13
f 12/75/14 13/71/14 57/74/14 56/76/14
f 2/77/15 3/78/15 47/79/15 46/80/15
f 1/68/16 2/77/16 46/80/16 45/69/16
f 43/81/17 44/82/17 88/83/17 87/84/17
f 14/85/18 15/86/18 59/87/18 58/88/18
f 42/89/19 43/81/19 87/84/19 86/90/19
f 15/86/20 16/91/20 60/92/20 59/87/20
f 114/93/21 42/89/21 86/90/21 171/94/21
f 19/95/22 20/96/22 64/97/22 63/98/22
f 16/91/23 118/99/23 175/100/23 60/92/23
f 20/96/24 21/101/24 65/102/24 64/97/24
f 18/103/25 19/95/25 63/98/25 62/104/25
f 17/105/26 18/103/26 62/104/26 61/106/26
f 37/107/27 38/108/27 82/109/27 81/110/27
f 38/108/28 39/111/28 83/112/28 82/109/28
f 39/111/29 40/113/29 84/114/29 83/112/29
f 40/113/30 41/115/30 85/116/30 84/114/30
f 21/101/31 22/117/31 66/118/31 65/102/31
f 36/119/32 37/107/32 81/110/32 80/120/32
f 22/117/33 128/121/33 185/122/33 66/118/33
f 130/123/34 36/119/34 80/120/34 187/124/34
f 132/125/35 33/126/35 77/127/35 189/128/35
f 24/129/36 25/130/36 69/131/36 68/132/36
f 25/130/37 137/133/37 194/134/37 69/131/37
f 34/135/38 35/136/38 79/137/38 78/138/38
f 33/126/39 34/135/39 78/138/39 77/127/39
f 31/139/40 32/140/40 76/141/40 75/142/40
f 26/143/41 27/144/41 71/145/41 70/146/41
f 23/147/42 24/129/42 68/132/42 67/148/42
f 27/144/43 28/149/43 72/150/43 71/145/43
f 143/151/44 31/139/44 75/142/44 200/152/44
f 145/153/45 30/154/45 74/155/45 202/156/45
f 28/149/46 29/157/46 73/158/46 72/150/46
usemtl FrontMat.001
f 117/159/47 112/160/47 120/161/47
f 127/162/47 125/163/47 139/164/47
f 129/165/47 138/166/47 126/167/47
f 126/167/47 138/166/47 121/168/47
f 124/169/47 123/170/47 133/171/47
f 140/172/47 134/173/47 141/174/47
f 96/175/47 95/176/47 94/177/47
f 119/178/47 100/179/47 98/180/47
f 134/173/47 127/162/47 141/174/47
f 135/181/47 134/173/47 140/172/47
f 139/164/47 142/182/47 127/162/47
f 131/183/47 139/164/47 113/184/47
f 104/185/47 102/186/47 109/187/47
f 91/188/47 89/189/47 94/177/47
f 110/190/47 105/191/47 116/192/47
f 105/191/47 100/179/47 119/178/47
f 116/192/47 105/191/47 119/178/47
f 95/176/47 93/193/47 92/194/47
f 144/195/47 141/174/47 127/162/47
f 120/161/47 112/160/47 115/196/47
f 108/197/47 109/187/47 111/198/47
f 110/190/47 106/199/47 105/191/47
f 123/170/47 121/168/47 133/171/47
f 138/166/47 133/171/47 121/168/47
f 119/178/47 98/180/47 108/197/47
f 100/179/47 97/200/47 98/180/47
f 119/178/47 108/197/47 111/198/47
f 97/200/47 95/176/47 96/175/47
f 92/194/47 91/188/47 94/177/47
f 110/190/47 116/192/47 115/196/47
f 119/178/47 111/198/47 113/184/47
f 97/200/47 96/175/47 98/180/47
f 123/170/47 122/201/47 121/168/47
f 112/160/47 110/190/47 115/196/47
f 95/176/47 92/194/47 94/177/47
f 125/163/47 119/178/47 113/184/47
f 125/163/47 113/184/47 139/164/47
f 142/182/47 144/195/47 127/162/47
f 133/171/47 131/183/47 124/169/47
f 136/202/47 135/181/47 140/172/47
f 113/184/47 124/169/47 131/183/47
f 108/197/47 104/185/47 109/187/47
