# Blender v2.83.1 OBJ File: 'jigsaw-24x30-3-step2.blend'
# www.blender.org
mtllib piece.657.mtl
o path1314
v 0.276503 0.037500 0.454082
v 0.158089 0.037500 0.450428
v 0.080482 0.037500 0.474500
v 0.075422 0.037500 0.536283
v 0.102268 0.037500 0.613877
v 0.102291 0.037500 0.677410
v 0.036434 0.037500 0.702978
v -0.055723 0.037500 0.690569
v -0.114927 0.037500 0.646145
v -0.102892 0.037500 0.578465
v -0.065176 0.037500 0.507479
v -0.068300 0.037500 0.455937
v -0.157904 0.037500 0.439917
v -0.527533 0.037500 0.479803
v -0.556555 0.037500 0.113957
v -0.531713 0.037500 0.026032
v -0.468060 0.037500 0.024300
v -0.385454 0.037500 0.062342
v -0.311350 0.037500 0.072765
v -0.269373 0.037500 0.009618
v -0.267864 0.037500 -0.087275
v -0.311346 0.037500 -0.156647
v -0.397373 0.037500 -0.157437
v -0.495661 0.037500 -0.129415
v -0.568972 0.037500 -0.132554
v -0.590565 0.037500 -0.208524
v -0.575670 0.037500 -0.325761
v -0.527533 0.037500 -0.522106
v -0.304764 0.037500 -0.564630
v -0.171383 0.037500 -0.575653
v -0.084127 0.037500 -0.550340
v -0.079180 0.037500 -0.474222
v -0.112577 0.037500 -0.374292
v -0.120312 0.037500 -0.287913
v -0.058897 0.037500 -0.245333
v 0.033060 0.037500 -0.248371
v 0.096436 0.037500 -0.291740
v 0.092138 0.037500 -0.366601
v 0.061192 0.037500 -0.449894
v 0.064653 0.037500 -0.515008
v 0.144703 0.037500 -0.542626
v 0.267933 0.037500 -0.542611
v 0.474167 0.037500 -0.522106
v 0.420807 0.037500 -0.314217
v 0.403084 0.037500 -0.191106
v 0.423540 0.037500 -0.113634
v 0.498419 0.037500 -0.115842
v 0.599504 0.037500 -0.152727
v 0.687454 0.037500 -0.159529
v 0.730619 0.037500 -0.092684
v 0.728121 0.037500 0.006581
v 0.686762 0.037500 0.075841
v 0.616335 0.037500 0.073744
v 0.538574 0.037500 0.043230
v 0.478199 0.037500 0.048313
v 0.453104 0.037500 0.133218
v 0.474167 0.037500 0.479803
v 0.276503 -0.037500 0.454082
v 0.158089 -0.037500 0.450428
v 0.080482 -0.037500 0.474500
v 0.075422 -0.037498 0.536283
v 0.102268 -0.037500 0.613877
v 0.102291 -0.037500 0.677410
v 0.036434 -0.037500 0.702978
v -0.055723 -0.037500 0.690569
v -0.114927 -0.037500 0.646145
v -0.102892 -0.037500 0.578465
v -0.065176 -0.037500 0.507479
v -0.068300 -0.037500 0.455937
v -0.157904 -0.037500 0.439917
v -0.527533 -0.037500 0.479803
v -0.556555 -0.037498 0.113957
v -0.531713 -0.037500 0.026032
v -0.468060 -0.037500 0.024300
v -0.385454 -0.037500 0.062342
v -0.311350 -0.037500 0.072765
v -0.269373 -0.037500 0.009618
v -0.267864 -0.037498 -0.087275
v -0.311346 -0.037500 -0.156647
v -0.397373 -0.037498 -0.157437
v -0.495661 -0.037500 -0.129415
v -0.568972 -0.037500 -0.132554
v -0.590565 -0.037500 -0.208524
v -0.575670 -0.037500 -0.325761
v -0.527533 -0.037500 -0.522106
v -0.304764 -0.037500 -0.564630
v -0.171383 -0.037500 -0.575653
v -0.084127 -0.037498 -0.550340
v -0.079180 -0.037500 -0.474222
v -0.112577 -0.037498 -0.374292
v -0.120312 -0.037500 -0.287913
v -0.058897 -0.037500 -0.245333
v 0.033060 -0.037500 -0.248371
v 0.096436 -0.037500 -0.291740
v 0.092138 -0.037498 -0.366601
v 0.061192 -0.037500 -0.449894
v 0.064653 -0.037500 -0.515008
v 0.144703 -0.037500 -0.542626
v 0.267933 -0.037500 -0.542611
v 0.474167 -0.037500 -0.522106
v 0.420807 -0.037500 -0.314217
v 0.403084 -0.037500 -0.191106
v 0.423540 -0.037500 -0.113634
v 0.498419 -0.037500 -0.115842
v 0.599504 -0.037500 -0.152727
v 0.687454 -0.037500 -0.159529
v 0.730619 -0.037500 -0.092684
v 0.728121 -0.037500 0.006581
v 0.686762 -0.037500 0.075841
v 0.616335 -0.037500 0.073744
v 0.538574 -0.037500 0.043230
v 0.478199 -0.037498 0.048313
v 0.453104 -0.037498 0.133218
v 0.474167 -0.037500 0.479803
v 0.687454 0.037500 -0.159529
v 0.687454 0.037500 -0.159529
v 0.730619 0.037500 -0.092684
v 0.728121 0.037500 0.006581
v 0.686762 0.037500 0.075841
v 0.686762 0.037500 0.075841
v 0.599504 0.037500 -0.152727
v 0.616335 0.037500 0.073744
v 0.538574 0.037500 0.043230
v 0.498419 0.037500 -0.115842
v 0.478199 0.037500 0.048313
v 0.478199 0.037500 0.048313
v 0.423540 0.037500 -0.113634
v 0.423540 0.037500 -0.113634
v 0.453104 0.037500 0.133218
v 0.474167 0.037500 0.479803
v 0.474167 0.037500 0.479803
v 0.474167 0.037500 -0.522106
v 0.474167 0.037500 -0.522106
v 0.420807 0.037500 -0.314217
v 0.403084 0.037500 -0.191106
v 0.276503 0.037500 0.454082
v 0.267933 0.037500 -0.542611
v 0.158089 0.037500 0.450428
v 0.144703 0.037500 -0.542626
v 0.080482 0.037500 0.474500
v 0.080482 0.037500 0.474500
v 0.064653 0.037500 -0.515008
v 0.064653 0.037500 -0.515008
v 0.096436 0.037500 -0.291740
v 0.092138 0.037500 -0.366601
v 0.102268 0.037500 0.613877
v 0.102291 0.037500 0.677410
v 0.102291 0.037500 0.677410
v 0.036434 0.037500 0.702978
v 0.075422 0.037500 0.536283
v 0.033060 0.037500 -0.248371
v 0.061192 0.037500 -0.449894
v -0.055723 0.037500 0.690569
v -0.058897 0.037500 -0.245333
v -0.114927 0.037500 0.646145
v -0.114927 0.037500 0.646145
v -0.120312 0.037500 -0.287913
v -0.120312 0.037500 -0.287913
v -0.065176 0.037500 0.507479
v -0.068300 0.037500 0.455937
v -0.068300 0.037500 0.455937
v -0.102892 0.037500 0.578465
v -0.157904 0.037500 0.439917
v -0.084127 0.037500 -0.550340
v -0.084127 0.037500 -0.550340
v -0.079180 0.037500 -0.474222
v -0.112577 0.037500 -0.374292
v -0.171383 0.037500 -0.575653
v -0.304764 0.037500 -0.564630
v -0.269373 0.037500 0.009618
v -0.267864 0.037500 -0.087275
v -0.311346 0.037500 -0.156647
v -0.311350 0.037500 0.072765
v -0.311350 0.037500 0.072765
v -0.397373 0.037500 -0.157437
v -0.385454 0.037500 0.062342
v -0.468060 0.037500 0.024300
v -0.495661 0.037500 -0.129415
v -0.527533 0.037500 -0.522106
v -0.527533 0.037500 -0.522106
v -0.531713 0.037500 0.026032
v -0.531713 0.037500 0.026032
v -0.568972 0.037500 -0.132554
v -0.568972 0.037500 -0.132554
v -0.527533 0.037500 0.479803
v -0.527533 0.037500 0.479803
v -0.556555 0.037500 0.113957
v -0.575670 0.037500 -0.325761
v -0.590565 0.037500 -0.208524
v 0.687454 -0.037500 -0.159529
v 0.687454 -0.037500 -0.159529
v 0.730619 -0.037500 -0.092684
v 0.728121 -0.037500 0.006581
v 0.686762 -0.037500 0.075841
v 0.686762 -0.037500 0.075841
v 0.599504 -0.037500 -0.152727
v 0.616335 -0.037500 0.073744
v 0.538574 -0.037500 0.043230
v 0.498419 -0.037500 -0.115842
v 0.478199 -0.037498 0.048313
v 0.478199 -0.037498 0.048313
v 0.423540 -0.037500 -0.113634
v 0.423540 -0.037500 -0.113634
v 0.453104 -0.037498 0.133218
v 0.474167 -0.037500 0.479803
v 0.474167 -0.037500 0.479803
v 0.474167 -0.037500 -0.522106
v 0.474167 -0.037500 -0.522106
v 0.420807 -0.037500 -0.314217
v 0.403084 -0.037500 -0.191106
v 0.276503 -0.037500 0.454082
v 0.267933 -0.037500 -0.542611
v 0.158089 -0.037500 0.450428
v 0.144703 -0.037500 -0.542626
v 0.080482 -0.037500 0.474500
v 0.080482 -0.037500 0.474500
v 0.064653 -0.037500 -0.515008
v 0.064653 -0.037500 -0.515008
v 0.096436 -0.037500 -0.291740
v 0.092138 -0.037498 -0.366601
v 0.102268 -0.037500 0.613877
v 0.102291 -0.037500 0.677410
v 0.102291 -0.037500 0.677410
v 0.036434 -0.037500 0.702978
v 0.075422 -0.037498 0.536283
v 0.033060 -0.037500 -0.248371
v 0.061192 -0.037500 -0.449894
v -0.055723 -0.037500 0.690569
v -0.058897 -0.037500 -0.245333
v -0.114927 -0.037500 0.646145
v -0.114927 -0.037500 0.646145
v -0.120312 -0.037500 -0.287913
v -0.120312 -0.037500 -0.287913
v -0.065176 -0.037500 0.507479
v -0.068300 -0.037500 0.455937
v -0.068300 -0.037500 0.455937
v -0.102892 -0.037500 0.578465
v -0.157904 -0.037500 0.439917
v -0.084127 -0.037498 -0.550340
v -0.084127 -0.037498 -0.550340
v -0.079180 -0.037500 -0.474222
v -0.112577 -0.037498 -0.374292
v -0.171383 -0.037500 -0.575653
v -0.304764 -0.037500 -0.564630
v -0.269373 -0.037500 0.009618
v -0.267864 -0.037498 -0.087275
v -0.311346 -0.037500 -0.156647
v -0.311350 -0.037500 0.072765
v -0.311350 -0.037500 0.072765
v -0.397373 -0.037498 -0.157437
v -0.385454 -0.037500 0.062342
v -0.468060 -0.037500 0.024300
v -0.495661 -0.037500 -0.129415
v -0.527533 -0.037500 -0.522106
v -0.527533 -0.037500 -0.522106
v -0.531713 -0.037500 0.026032
v -0.531713 -0.037500 0.026032
v -0.568972 -0.037500 -0.132554
v -0.568972 -0.037500 -0.132554
v -0.527533 -0.037500 0.479803
v -0.527533 -0.037500 0.479803
v -0.556555 -0.037498 0.113957
v -0.575670 -0.037500 -0.325761
v -0.590565 -0.037500 -0.208524
vt 0.500000 0.500000
vt 0.500000 0.500000
vt 0.500000 0.500000
vt 0.500000 0.500000
vt 0.500000 0.500000
vt 0.500000 0.500000
vt 0.500000 0.500000
vt 0.500000 0.500000
vt 0.500000 0.500000
vt 0.500000 0.500000
vt 0.500000 0.500000
vt 0.500000 0.500000
vt 0.500000 0.500000
vt 0.500000 0.500000
vt 0.500000 0.500000
vt 0.500000 0.500000
vt 0.500000 0.500000
vt 0.500000 0.500000
vt 0.500000 0.500000
vt 0.500000 0.500000
vt 0.500000 0.500000
vt 0.500000 0.500000
vt 0.500000 0.500000
vt 0.500000 0.500000
vt 0.500000 0.500000
vt 0.500000 0.500000
vt 0.500000 0.500000
vt 0.500000 0.500000
vt 0.500000 0.500000
vt 0.500000 0.500000
vt 0.500000 0.500000
vt 0.500000 0.500000
vt 0.500000 0.500000
vt 0.500000 0.500000
vt 0.500000 0.500000
vt 0.500000 0.500000
vt 0.500000 0.500000
vt 0.500000 0.500000
vt 0.500000 0.500000
vt 0.500000 0.500000
vt 0.500000 0.500000
vt 0.500000 0.500000
vt 0.500000 0.500000
vt 0.500000 0.500000
vt 0.500000 0.500000
vt 0.500000 0.500000
vt 0.500000 0.500000
vt 0.500000 0.500000
vt 0.500000 0.500000
vt 0.500000 0.500000
vt 0.500000 0.500000
vt 0.500000 0.500000
vt 0.500000 0.500000
vt 0.500000 0.500000
vt 0.500000 0.500000
vt 0.500000 0.500000
vt 0.500000 0.500000
vt 0.500000 0.500000
vt 0.500000 0.500000
vt 0.500000 0.500000
vt 0.500000 0.500000
vt 0.500000 0.500000
vt 0.500000 0.500000
vt 0.500000 0.500000
vt 0.500000 0.500000
vt 0.500000 0.500000
vt 0.500000 0.500000
vt 0.500000 0.500000
vt 0.500000 0.500000
vt 0.500000 0.500000
vt 0.500000 0.500000
vt 0.500000 0.500000
vt 0.500000 0.500000
vt 0.500000 0.500000
vt 0.500000 0.500000
vt 0.500000 0.500000
vt 0.500000 0.500000
vt 0.500000 0.500000
vt 0.500000 0.500000
vt 0.500000 0.500000
vt 0.500000 0.500000
vt 0.500000 0.500000
vt 0.500000 0.500000
vt 0.500000 0.500000
vt 0.500000 0.500000
vt 0.500000 0.500000
vt 0.500000 0.500000
vt 0.500000 0.500000
vt 0.500000 0.500000
vt 0.500000 0.500000
vt 0.500000 0.500000
vt 0.500000 0.500000
vt 0.500000 0.500000
vt 0.500000 0.500000
vt 0.500000 0.500000
vt 0.500000 0.500000
vt 0.500000 0.500000
vt 0.500000 0.500000
vt 0.500000 0.500000
vt 0.500000 0.500000
vt 0.500000 0.500000
vt 0.500000 0.500000
vt 0.500000 0.500000
vt 0.500000 0.500000
vt 0.500000 0.500000
vt 0.500000 0.500000
vt 0.500000 0.500000
vt 0.500000 0.500000
vt 0.500000 0.500000
vt 0.500000 0.500000
vt 0.500000 0.500000
vt 0.500000 0.500000
vt 0.500000 0.500000
vt 0.500000 0.500000
vt 0.500000 0.500000
vt 0.500000 0.500000
vt 0.500000 0.500000
vt 0.500000 0.500000
vt 0.500000 0.500000
vt 0.500000 0.500000
vt 0.500000 0.500000
vt 0.500000 0.500000
vt 0.500000 0.500000
vt 0.500000 0.500000
vt 0.500000 0.500000
vt 0.500000 0.500000
vt 0.500000 0.500000
vt 0.500000 0.500000
vt 0.500000 0.500000
vt 0.500000 0.500000
vt 0.500000 0.500000
vt 0.500000 0.500000
vt 0.500000 0.500000
vt 0.500000 0.500000
vt 0.500000 0.500000
vt 0.500000 0.500000
vt 0.500000 0.500000
vt 0.500000 0.500000
vt 0.500000 0.500000
vt 0.500000 0.500000
vt 0.500000 0.500000
vt 0.500000 0.500000
vt 0.500000 0.500000
vt 0.500000 0.500000
vt 0.500000 0.500000
vt 0.500000 0.500000
vt 0.500000 0.500000
vt 0.500000 0.500000
vt 0.500000 0.500000
vt 0.500000 0.500000
vt 0.500000 0.500000
vt 0.500000 0.500000
vt 0.500000 0.500000
vt 0.500000 0.500000
vt 0.500000 0.500000
vt 0.500000 0.500000
vt 0.500000 0.500000
vt 0.500000 0.500000
vt 0.500000 0.500000
vt 0.500000 0.500000
vt 0.500000 0.500000
vt 0.500000 0.500000
vt 0.500000 0.500000
vt 0.500000 0.500000
vt 0.500000 0.500000
vt 0.500000 0.500000
vt 0.500000 0.500000
vt 0.500000 0.500000
vt 0.500000 0.500000
vt 0.500000 0.500000
vt 0.500000 0.500000
vt 0.500000 0.500000
vt 0.500000 0.500000
vt 0.500000 0.500000
vt 0.500000 0.500000
vt 0.500000 0.500000
vt 0.500000 0.500000
vt 0.500000 0.500000
vt 0.500000 0.500000
vt 0.500000 0.500000
vt 0.500000 0.500000
vt 0.500000 0.500000
vt 0.500000 0.500000
vt 0.500000 0.500000
vt 0.500000 0.500000
vt 0.500000 0.500000
vt 0.500000 0.500000
vt 0.500000 0.500000
vt 0.500000 0.500000
vt 0.500000 0.500000
vt 0.500000 0.500000
vt 0.500000 0.500000
vt 0.500000 0.500000
vt 0.500000 0.500000
vt 0.500000 0.500000
vt 0.500000 0.500000
vt 0.500000 0.500000
vt 0.500000 0.500000
vt 0.500000 0.500000
vt 0.500000 0.500000
vt 0.500000 0.500000
vt 0.500000 0.500000
vt 0.500000 0.500000
vt 0.500000 0.500000
vt 0.500000 0.500000
vt 0.500000 0.500000
vt 0.500000 0.500000
vt 0.332481 0.093137
vt 0.332480 0.089037
vt 0.339800 0.087287
vt 0.333333 0.100000
vt 0.341979 0.098224
vt 0.373778 0.089482
vt 0.373930 0.093422
vt 0.360586 0.099299
vt 0.373341 0.078967
vt 0.374007 0.081948
vt 0.355446 0.075257
vt 0.358113 0.104731
vt 0.355320 0.108451
vt 0.348695 0.104171
vt 0.342914 0.087430
vt 0.344717 0.085321
vt 0.350320 0.098315
vt 0.344844 0.082261
vt 0.351417 0.075308
vt 0.384281 0.085434
vt 0.380576 0.087624
vt 0.383765 0.082367
vt 0.333628 0.086373
vt 0.336336 0.086258
vt 0.331565 0.074080
vt 0.333333 0.066667
vt 0.341499 0.065065
vt 0.358200 0.107075
vt 0.357055 0.100134
vt 0.350229 0.100807
vt 0.356844 0.102143
vt 0.348499 0.070998
vt 0.348532 0.073861
vt 0.383218 0.087625
vt 0.377349 0.086731
vt 0.374779 0.086899
vt 0.376151 0.082052
vt 0.379103 0.080797
vt 0.375000 0.066667
vt 0.358072 0.073861
vt 0.357639 0.071395
vt 0.356057 0.068646
vt 0.359785 0.065701
vt 0.347099 0.097635
vt 0.375000 0.100000
vt 0.346374 0.064569
vt 0.349664 0.067727
vt 0.343073 0.080218
vt 0.349534 0.065288
vt 0.356129 0.066528
vt 0.339481 0.080475
vt 0.351192 0.108534
vt 0.381918 0.080397
vt 0.335325 0.081586
vt 0.332159 0.081422
vt 0.331106 0.078518
vt 0.348412 0.107098
vn -0.0000 -1.0000 0.0000
vn 0.8401 0.0000 -0.5425
vn 0.9997 0.0000 0.0252
vn 0.8586 0.0000 0.5127
vn -0.0771 0.0000 -0.9970
vn -0.0298 0.0000 0.9996
vn -0.3653 0.0000 0.9309
vn -0.3428 0.0000 -0.9394
vn 0.0839 0.0000 0.9965
vn -0.0295 0.0000 -0.9996
vn 0.9590 0.0000 0.2834
vn 0.9982 0.0000 -0.0607
vn 0.9686 0.0000 0.2486
vn 0.9669 0.0000 -0.2553
vn 0.9898 0.0000 0.1425
vn -0.1290 0.0000 0.9916
vn 0.0989 0.0000 -0.9951
vn -0.0308 0.0000 0.9995
vn 0.0001 0.0000 -1.0000
vn 0.2963 0.0000 0.9551
vn -0.3262 0.0000 -0.9453
vn -0.9984 0.0000 0.0573
vn 1.0000 0.0000 -0.0004
vn 0.3619 0.0000 0.9322
vn 0.9450 0.0000 -0.3270
vn -0.5647 0.0000 -0.8253
vn -0.9986 0.0000 -0.0531
vn -0.9374 0.0000 0.3483
vn 0.9967 0.0000 0.0816
vn -0.1334 0.0000 0.9911
vn -0.0330 0.0000 -0.9995
vn -0.6002 0.0000 0.7999
vn 0.5698 0.0000 -0.8218
vn -0.9982 0.0000 0.0605
vn -0.8831 0.0000 -0.4692
vn -0.9846 0.0000 -0.1751
vn -0.1760 0.0000 0.9844
vn 0.9979 0.0000 -0.0649
vn 0.9484 0.0000 0.3170
vn 0.2786 0.0000 -0.9604
vn 0.9960 0.0000 0.0892
vn -0.0824 0.0000 -0.9966
vn -0.9999 0.0000 -0.0156
vn -0.8473 0.0000 0.5311
vn -0.8328 0.0000 -0.5536
vn -0.0092 0.0000 1.0000
vn 0.1393 0.0000 -0.9903
vn 0.4183 0.0000 -0.9083
vn 0.2742 0.0000 0.9617
vn -0.1875 0.0000 -0.9823
vn -0.0272 0.0000 -0.9996
vn -0.0428 0.0000 0.9991
vn 0.1073 0.0000 0.9942
vn -0.9623 0.0000 -0.2719
vn -0.9969 0.0000 0.0791
vn -0.9712 0.0000 -0.2381
vn -0.9920 0.0000 -0.1260
vn -0.9619 0.0000 0.2734
vn 0.0000 1.0000 0.0000
usemtl BackMat.001
s off
f 212/1/1 220/2/1 214/3/1
f 207/4/1 209/5/1 212/1/1
f 213/6/1 204/7/1 211/8/1
f 238/9/1 245/10/1 235/11/1
f 197/12/1 196/13/1 193/14/1
f 219/15/1 202/16/1 226/17/1
f 245/10/1 246/18/1 229/19/1
f 224/20/1 228/21/1 221/22/1
f 214/3/1 227/23/1 217/24/1
f 244/25/1 263/26/1 254/27/1
f 194/28/1 197/12/1 193/14/1
f 200/29/1 204/7/1 202/16/1
f 196/13/1 198/30/1 199/31/1
f 198/30/1 200/29/1 199/31/1
f 199/31/1 200/29/1 202/16/1
f 244/25/1 247/32/1 250/33/1
f 222/34/1 224/20/1 221/22/1
f 225/35/1 234/36/1 215/37/1
f 234/36/1 225/35/1 237/38/1
f 209/5/1 220/2/1 212/1/1
f 260/39/1 248/40/1 238/9/1
f 251/41/1 262/42/1 252/43/1
f 210/44/1 219/15/1 209/5/1
f 211/8/1 204/7/1 205/45/1
f 264/46/1 250/33/1 253/47/1
f 251/41/1 248/40/1 260/39/1
f 247/32/1 232/48/1 246/18/1
f 215/37/1 234/36/1 235/11/1
f 264/46/1 253/47/1 258/49/1
f 204/7/1 213/6/1 226/17/1
f 252/43/1 262/42/1 256/50/1
f 247/32/1 244/25/1 242/51/1
f 192/52/1 193/14/1 196/13/1
f 230/53/1 237/38/1 228/21/1
f 241/54/1 243/55/1 239/56/1
f 242/51/1 243/55/1 241/54/1
f 263/26/1 250/33/1 264/46/1
f 237/38/1 225/35/1 228/21/1
f 232/48/1 247/32/1 242/51/1
f 245/10/1 226/17/1 213/6/1
f 226/17/1 245/10/1 229/19/1
f 210/44/1 202/16/1 219/15/1
f 198/30/1 196/13/1 197/12/1
f 202/16/1 204/7/1 226/17/1
f 250/33/1 263/26/1 244/25/1
f 221/22/1 228/21/1 225/35/1
f 229/19/1 246/18/1 232/48/1
f 262/42/1 251/41/1 260/39/1
f 242/51/1 244/25/1 243/55/1
f 215/37/1 235/11/1 213/6/1
f 190/57/1 192/52/1 196/13/1
f 213/6/1 235/11/1 245/10/1
f 214/3/1 220/2/1 227/23/1
f 209/5/1 219/15/1 220/2/1
f 248/40/1 245/10/1 238/9/1
f 116/58/2 50/59/2 107/60/2 191/61/2
f 50/59/3 51/62/3 108/63/3 107/60/3
f 51/62/4 120/64/4 195/65/4 108/63/4
f 48/66/5 49/67/5 106/68/5 105/69/5
f 52/70/6 53/71/6 110/72/6 109/73/6
f 53/71/7 54/74/7 111/75/7 110/72/7
f 47/76/8 48/66/8 105/69/8 104/77/8
f 54/74/9 126/78/9 201/79/9 111/75/9
f 128/80/10 47/76/10 104/77/10 203/81/10
f 55/82/11 56/83/11 113/84/11 112/85/11
f 56/83/12 131/86/12 206/87/12 113/84/12
f 133/88/13 44/89/13 101/90/13 208/91/13
f 45/92/14 46/93/14 103/94/14 102/95/14
f 44/89/15 45/92/15 102/95/15 101/90/15
f 57/96/16 1/97/16 58/98/16 114/99/16
f 42/100/17 43/101/17 100/102/17 99/103/17
f 1/97/18 2/104/18 59/105/18 58/98/18
f 41/106/19 42/100/19 99/103/19 98/107/19
f 2/104/20 141/108/20 216/109/20 59/105/20
f 143/110/21 41/106/21 98/107/21 218/111/21
f 37/112/22 38/113/22 95/114/22 94/115/22
f 5/116/23 148/117/23 223/118/23 62/119/23
f 6/120/24 7/121/24 64/122/24 63/123/24
f 4/124/25 5/116/25 62/119/25 61/125/25
f 36/126/26 37/112/26 94/115/26 93/127/26
f 39/128/27 40/129/27 97/130/27 96/131/27
f 38/113/28 39/128/28 96/131/28 95/114/28
f 3/132/29 4/124/29 61/125/29 60/133/29
f 7/121/30 8/134/30 65/135/30 64/122/30
f 35/136/31 36/126/31 93/127/31 92/137/31
f 8/134/32 156/138/32 231/139/32 65/135/32
f 158/140/33 35/136/33 92/137/33 233/141/33
f 11/142/34 161/143/34 236/144/34 68/145/34
f 10/146/35 11/142/35 68/145/35 67/147/35
f 9/148/36 10/146/36 67/147/36 66/149/36
f 12/150/37 13/151/37 70/152/37 69/153/37
f 165/154/38 32/155/38 89/156/38 240/157/38
f 32/155/39 33/158/39 90/159/39 89/156/39
f 30/160/40 31/161/40 88/162/40 87/163/40
f 33/158/41 34/164/41 91/165/41 90/159/41
f 29/166/42 30/160/42 87/163/42 86/167/42
f 20/168/43 21/169/43 78/170/43 77/171/43
f 21/169/44 22/172/44 79/173/44 78/170/44
f 174/174/45 20/168/45 77/171/45 249/175/45
f 22/172/46 23/176/46 80/177/46 79/173/46
f 18/178/47 19/179/47 76/180/47 75/181/47
f 17/182/48 18/178/48 75/181/48 74/183/48
f 23/176/49 24/184/49 81/185/49 80/177/49
f 180/186/50 29/166/50 86/167/50 255/187/50
f 182/188/51 17/182/51 74/183/51 257/189/51
f 24/184/52 184/190/52 259/191/52 81/185/52
f 13/151/53 186/192/53 261/193/53 70/152/53
f 15/194/54 16/195/54 73/196/54 72/197/54
f 14/198/55 15/194/55 72/197/55 71/199/55
f 27/200/56 28/201/56 85/202/56 84/203/56
f 26/204/57 27/200/57 84/203/57 83/205/57
f 25/206/58 26/204/58 83/205/58 82/207/58
usemtl FrontMat.001
f 137/208/59 139/209/59 145/210/59
f 132/211/59 137/208/59 134/212/59
f 138/213/59 136/214/59 129/215/59
f 163/216/59 160/217/59 170/218/59
f 122/219/59 118/220/59 121/221/59
f 144/222/59 151/223/59 127/224/59
f 170/218/59 154/225/59 171/226/59
f 149/227/59 146/228/59 153/229/59
f 139/209/59 142/230/59 152/231/59
f 169/232/59 179/233/59 188/234/59
f 119/235/59 118/220/59 122/219/59
f 125/236/59 127/224/59 129/215/59
f 121/221/59 124/237/59 123/238/59
f 123/238/59 124/237/59 125/236/59
f 124/237/59 127/224/59 125/236/59
f 169/232/59 175/239/59 172/240/59
f 147/241/59 146/228/59 149/227/59
f 150/242/59 140/243/59 159/244/59
f 159/244/59 162/245/59 150/242/59
f 134/212/59 137/208/59 145/210/59
f 185/246/59 163/216/59 173/247/59
f 176/248/59 177/249/59 187/250/59
f 135/251/59 134/212/59 144/222/59
f 136/214/59 130/252/59 129/215/59
f 189/253/59 178/254/59 175/239/59
f 176/248/59 185/246/59 173/247/59
f 172/240/59 171/226/59 157/255/59
f 140/243/59 160/217/59 159/244/59
f 189/253/59 183/256/59 178/254/59
f 129/215/59 151/223/59 138/213/59
f 177/249/59 181/257/59 187/250/59
f 172/240/59 167/258/59 169/232/59
f 117/259/59 121/221/59 118/220/59
f 155/260/59 153/229/59 162/245/59
f 166/261/59 164/262/59 168/263/59
f 167/258/59 166/261/59 168/263/59
f 188/234/59 189/253/59 175/239/59
f 162/245/59 153/229/59 150/242/59
f 157/255/59 167/258/59 172/240/59
f 170/218/59 138/213/59 151/223/59
f 151/223/59 154/225/59 170/218/59
f 135/251/59 144/222/59 127/224/59
f 123/238/59 122/219/59 121/221/59
f 127/224/59 151/223/59 129/215/59
f 175/239/59 169/232/59 188/234/59
f 146/228/59 150/242/59 153/229/59
f 154/225/59 157/255/59 171/226/59
f 187/250/59 185/246/59 176/248/59
f 167/258/59 168/263/59 169/232/59
f 140/243/59 138/213/59 160/217/59
f 115/264/59 121/221/59 117/259/59
f 138/213/59 170/218/59 160/217/59
f 139/209/59 152/231/59 145/210/59
f 134/212/59 145/210/59 144/222/59
f 173/247/59 163/216/59 170/218/59
