# Blender v2.83.1 OBJ File: 'jigsaw-24x32-3-step2.blend'
# www.blender.org
mtllib piece.440.mtl
o path880
v -0.563584 0.037500 0.292523
v -0.580111 0.037500 0.168455
v -0.564244 0.037500 0.091530
v -0.501309 0.037500 0.096621
v -0.412053 0.037500 0.138411
v -0.326077 0.037500 0.151522
v -0.269449 0.037500 0.091648
v -0.254115 0.037500 -0.001196
v -0.288488 0.037500 -0.065926
v -0.372770 0.037500 -0.062269
v -0.474303 0.037500 -0.033218
v -0.552218 0.037500 -0.042585
v -0.576858 0.037500 -0.134108
v -0.563424 0.037500 -0.271202
v -0.516201 0.037500 -0.498825
v -0.156799 0.037500 -0.571585
v -0.070342 0.037500 -0.558475
v -0.068331 0.037500 -0.497261
v -0.104495 0.037500 -0.411524
v -0.111822 0.037500 -0.334499
v -0.045106 0.037500 -0.293272
v 0.053655 0.037500 -0.290277
v 0.120655 0.037500 -0.321798
v 0.113606 0.037500 -0.380932
v 0.076281 0.037500 -0.448030
v 0.073965 0.037500 -0.500273
v 0.152022 0.037500 -0.521084
v 0.485709 0.037500 -0.498825
v 0.453188 0.037500 -0.284744
v 0.447979 0.037500 -0.156614
v 0.476703 0.037500 -0.072901
v 0.551648 0.037500 -0.068155
v 0.645683 0.037500 -0.098852
v 0.721826 0.037500 -0.101931
v 0.750571 0.037500 -0.034994
v 0.732323 0.037500 0.061691
v 0.674964 0.037500 0.127207
v 0.589828 0.037500 0.121391
v 0.502045 0.037500 0.087089
v 0.440198 0.037500 0.087912
v 0.424293 0.037500 0.167904
v 0.440020 0.037500 0.292866
v 0.485709 0.037500 0.502872
v 0.153825 0.037500 0.550766
v 0.074203 0.037500 0.534296
v 0.072654 0.037500 0.478096
v 0.105724 0.037500 0.400715
v 0.110646 0.037500 0.328333
v 0.045252 0.037500 0.283548
v -0.050216 0.037500 0.274645
v -0.114914 0.037500 0.306335
v -0.108871 0.037500 0.377161
v -0.075612 0.037500 0.460981
v -0.079532 0.037500 0.525488
v -0.165020 0.037500 0.547249
v -0.296410 0.037500 0.538307
v -0.516200 0.037500 0.502873
v -0.563584 -0.037500 0.292523
v -0.580111 -0.037498 0.168455
v -0.564244 -0.037500 0.091530
v -0.501309 -0.037500 0.096621
v -0.412053 -0.037500 0.138411
v -0.326077 -0.037500 0.151522
v -0.269449 -0.037500 0.091648
v -0.254115 -0.037500 -0.001196
v -0.288488 -0.037500 -0.065926
v -0.372770 -0.037500 -0.062269
v -0.474303 -0.037500 -0.033218
v -0.552218 -0.037500 -0.042585
v -0.576858 -0.037500 -0.134108
v -0.563424 -0.037500 -0.271202
v -0.516201 -0.037498 -0.498825
v -0.156799 -0.037498 -0.571585
v -0.070342 -0.037500 -0.558475
v -0.068331 -0.037500 -0.497261
v -0.104495 -0.037498 -0.411524
v -0.111822 -0.037500 -0.334499
v -0.045106 -0.037500 -0.293272
v 0.053655 -0.037498 -0.290277
v 0.120655 -0.037500 -0.321798
v 0.113606 -0.037500 -0.380932
v 0.076281 -0.037500 -0.448030
v 0.073965 -0.037498 -0.500273
v 0.152022 -0.037500 -0.521084
v 0.485709 -0.037500 -0.498825
v 0.453188 -0.037500 -0.284744
v 0.447979 -0.037500 -0.156614
v 0.476703 -0.037500 -0.072901
v 0.551648 -0.037500 -0.068155
v 0.645683 -0.037500 -0.098852
v 0.721826 -0.037500 -0.101931
v 0.750571 -0.037500 -0.034994
v 0.732323 -0.037500 0.061691
v 0.674964 -0.037500 0.127207
v 0.589828 -0.037500 0.121391
v 0.502045 -0.037500 0.087089
v 0.440198 -0.037500 0.087912
v 0.424293 -0.037500 0.167904
v 0.440020 -0.037500 0.292866
v 0.485709 -0.037500 0.502872
v 0.153825 -0.037500 0.550766
v 0.074203 -0.037500 0.534296
v 0.072654 -0.037500 0.478096
v 0.105724 -0.037500 0.400715
v 0.110646 -0.037500 0.328333
v 0.045252 -0.037500 0.283548
v -0.050216 -0.037500 0.274645
v -0.114914 -0.037500 0.306335
v -0.108871 -0.037500 0.377161
v -0.075612 -0.037500 0.460981
v -0.079532 -0.037498 0.525488
v -0.165020 -0.037500 0.547249
v -0.296410 -0.037500 0.538307
v -0.516200 -0.037498 0.502873
v 0.153825 0.037500 0.550766
v 0.074203 0.037500 0.534296
v 0.074203 0.037500 0.534296
v -0.079532 0.037500 0.525488
v -0.079532 0.037500 0.525488
v -0.165020 0.037500 0.547249
v -0.296410 0.037500 0.538307
v 0.072654 0.037500 0.478096
v -0.075612 0.037500 0.460981
v 0.485709 0.037500 0.502872
v 0.485709 0.037500 0.502872
v -0.516200 0.037500 0.502873
v -0.516200 0.037500 0.502873
v 0.105724 0.037500 0.400715
v -0.108871 0.037500 0.377161
v 0.440020 0.037500 0.292866
v -0.563584 0.037500 0.292523
v 0.110646 0.037500 0.328333
v -0.114914 0.037500 0.306335
v -0.114914 0.037500 0.306335
v 0.045252 0.037500 0.283548
v -0.050216 0.037500 0.274645
v 0.424293 0.037500 0.167904
v -0.580111 0.037500 0.168455
v -0.412053 0.037500 0.138411
v -0.326077 0.037500 0.151522
v -0.564244 0.037500 0.091530
v -0.564244 0.037500 0.091530
v 0.440198 0.037500 0.087912
v 0.440198 0.037500 0.087912
v -0.269449 0.037500 0.091648
v -0.501309 0.037500 0.096621
v 0.732323 0.037500 0.061691
v 0.674964 0.037500 0.127207
v 0.589828 0.037500 0.121391
v 0.502045 0.037500 0.087089
v -0.254115 0.037500 -0.001196
v 0.750571 0.037500 -0.034994
v -0.288488 0.037500 -0.065926
v -0.288488 0.037500 -0.065926
v -0.372770 0.037500 -0.062269
v -0.474303 0.037500 -0.033218
v -0.552218 0.037500 -0.042585
v -0.552218 0.037500 -0.042585
v 0.721826 0.037500 -0.101931
v 0.721826 0.037500 -0.101931
v -0.576858 0.037500 -0.134108
v 0.645683 0.037500 -0.098852
v 0.551648 0.037500 -0.068155
v 0.476703 0.037500 -0.072901
v 0.476703 0.037500 -0.072901
v 0.447979 0.037500 -0.156614
v -0.563424 0.037500 -0.271202
v 0.453188 0.037500 -0.284744
v -0.045106 0.037500 -0.293272
v 0.053655 0.037500 -0.290277
v 0.120655 0.037500 -0.321798
v 0.120655 0.037500 -0.321798
v -0.111822 0.037500 -0.334499
v -0.111822 0.037500 -0.334499
v 0.113606 0.037500 -0.380932
v -0.104495 0.037500 -0.411524
v 0.076281 0.037500 -0.448030
v 0.485709 0.037500 -0.498825
v 0.485709 0.037500 -0.498825
v -0.068331 0.037500 -0.497261
v 0.073965 0.037500 -0.500273
v 0.073965 0.037500 -0.500273
v -0.516201 0.037500 -0.498825
v -0.516201 0.037500 -0.498825
v -0.070342 0.037500 -0.558475
v -0.070342 0.037500 -0.558475
v 0.152022 0.037500 -0.521084
v -0.156799 0.037500 -0.571585
v 0.153825 -0.037500 0.550766
v 0.074203 -0.037500 0.534296
v 0.074203 -0.037500 0.534296
v -0.079532 -0.037498 0.525488
v -0.079532 -0.037498 0.525488
v -0.165020 -0.037500 0.547249
v -0.296410 -0.037500 0.538307
v 0.072654 -0.037500 0.478096
v -0.075612 -0.037500 0.460981
v 0.485709 -0.037500 0.502872
v 0.485709 -0.037500 0.502872
v -0.516200 -0.037498 0.502873
v -0.516200 -0.037498 0.502873
v 0.105724 -0.037500 0.400715
v -0.108871 -0.037500 0.377161
v 0.440020 -0.037500 0.292866
v -0.563584 -0.037500 0.292523
v 0.110646 -0.037500 0.328333
v -0.114914 -0.037500 0.306335
v -0.114914 -0.037500 0.306335
v 0.045252 -0.037500 0.283548
v -0.050216 -0.037500 0.274645
v 0.424293 -0.037500 0.167904
v -0.580111 -0.037498 0.168455
v -0.412053 -0.037500 0.138411
v -0.326077 -0.037500 0.151522
v -0.564244 -0.037500 0.091530
v -0.564244 -0.037500 0.091530
v 0.440198 -0.037500 0.087912
v 0.440198 -0.037500 0.087912
v -0.269449 -0.037500 0.091648
v -0.501309 -0.037500 0.096621
v 0.732323 -0.037500 0.061691
v 0.674964 -0.037500 0.127207
v 0.589828 -0.037500 0.121391
v 0.502045 -0.037500 0.087089
v -0.254115 -0.037500 -0.001196
v 0.750571 -0.037500 -0.034994
v -0.288488 -0.037500 -0.065926
v -0.288488 -0.037500 -0.065926
v -0.372770 -0.037500 -0.062269
v -0.474303 -0.037500 -0.033218
v -0.552218 -0.037500 -0.042585
v -0.552218 -0.037500 -0.042585
v 0.721826 -0.037500 -0.101931
v 0.721826 -0.037500 -0.101931
v -0.576858 -0.037500 -0.134108
v 0.645683 -0.037500 -0.098852
v 0.551648 -0.037500 -0.068155
v 0.476703 -0.037500 -0.072901
v 0.476703 -0.037500 -0.072901
v 0.447979 -0.037500 -0.156614
v -0.563424 -0.037500 -0.271202
v 0.453188 -0.037500 -0.284744
v -0.045106 -0.037500 -0.293272
v 0.053655 -0.037498 -0.290277
v 0.120655 -0.037500 -0.321798
v 0.120655 -0.037500 -0.321798
v -0.111822 -0.037500 -0.334499
v -0.111822 -0.037500 -0.334499
v 0.113606 -0.037500 -0.380932
v -0.104495 -0.037498 -0.411524
v 0.076281 -0.037500 -0.448030
v 0.485709 -0.037500 -0.498825
v 0.485709 -0.037500 -0.498825
v -0.068331 -0.037500 -0.497261
v 0.073965 -0.037498 -0.500273
v 0.073965 -0.037498 -0.500273
v -0.516201 -0.037498 -0.498825
v -0.516201 -0.037498 -0.498825
v -0.070342 -0.037500 -0.558475
v -0.070342 -0.037500 -0.558475
v 0.152022 -0.037500 -0.521084
v -0.156799 -0.037498 -0.571585
vt 0.500000 0.500000
vt 0.500000 0.500000
vt 0.500000 0.500000
vt 0.500000 0.500000
vt 0.500000 0.500000
vt 0.500000 0.500000
vt 0.500000 0.500000
vt 0.500000 0.500000
vt 0.500000 0.500000
vt 0.500000 0.500000
vt 0.500000 0.500000
vt 0.500000 0.500000
vt 0.500000 0.500000
vt 0.500000 0.500000
vt 0.500000 0.500000
vt 0.500000 0.500000
vt 0.500000 0.500000
vt 0.500000 0.500000
vt 0.500000 0.500000
vt 0.500000 0.500000
vt 0.500000 0.500000
vt 0.500000 0.500000
vt 0.500000 0.500000
vt 0.500000 0.500000
vt 0.500000 0.500000
vt 0.500000 0.500000
vt 0.500000 0.500000
vt 0.500000 0.500000
vt 0.500000 0.500000
vt 0.500000 0.500000
vt 0.500000 0.500000
vt 0.500000 0.500000
vt 0.500000 0.500000
vt 0.500000 0.500000
vt 0.500000 0.500000
vt 0.500000 0.500000
vt 0.500000 0.500000
vt 0.500000 0.500000
vt 0.500000 0.500000
vt 0.500000 0.500000
vt 0.500000 0.500000
vt 0.500000 0.500000
vt 0.500000 0.500000
vt 0.500000 0.500000
vt 0.500000 0.500000
vt 0.500000 0.500000
vt 0.500000 0.500000
vt 0.500000 0.500000
vt 0.500000 0.500000
vt 0.500000 0.500000
vt 0.500000 0.500000
vt 0.500000 0.500000
vt 0.500000 0.500000
vt 0.500000 0.500000
vt 0.500000 0.500000
vt 0.500000 0.500000
vt 0.500000 0.500000
vt 0.500000 0.500000
vt 0.500000 0.500000
vt 0.500000 0.500000
vt 0.500000 0.500000
vt 0.500000 0.500000
vt 0.500000 0.500000
vt 0.500000 0.500000
vt 0.500000 0.500000
vt 0.500000 0.500000
vt 0.500000 0.500000
vt 0.500000 0.500000
vt 0.500000 0.500000
vt 0.500000 0.500000
vt 0.500000 0.500000
vt 0.500000 0.500000
vt 0.500000 0.500000
vt 0.500000 0.500000
vt 0.500000 0.500000
vt 0.500000 0.500000
vt 0.500000 0.500000
vt 0.500000 0.500000
vt 0.500000 0.500000
vt 0.500000 0.500000
vt 0.500000 0.500000
vt 0.500000 0.500000
vt 0.500000 0.500000
vt 0.500000 0.500000
vt 0.500000 0.500000
vt 0.500000 0.500000
vt 0.500000 0.500000
vt 0.500000 0.500000
vt 0.500000 0.500000
vt 0.500000 0.500000
vt 0.500000 0.500000
vt 0.500000 0.500000
vt 0.500000 0.500000
vt 0.500000 0.500000
vt 0.500000 0.500000
vt 0.500000 0.500000
vt 0.500000 0.500000
vt 0.500000 0.500000
vt 0.500000 0.500000
vt 0.500000 0.500000
vt 0.500000 0.500000
vt 0.500000 0.500000
vt 0.500000 0.500000
vt 0.500000 0.500000
vt 0.500000 0.500000
vt 0.500000 0.500000
vt 0.500000 0.500000
vt 0.500000 0.500000
vt 0.500000 0.500000
vt 0.500000 0.500000
vt 0.500000 0.500000
vt 0.500000 0.500000
vt 0.500000 0.500000
vt 0.500000 0.500000
vt 0.500000 0.500000
vt 0.500000 0.500000
vt 0.500000 0.500000
vt 0.500000 0.500000
vt 0.500000 0.500000
vt 0.500000 0.500000
vt 0.500000 0.500000
vt 0.500000 0.500000
vt 0.500000 0.500000
vt 0.500000 0.500000
vt 0.500000 0.500000
vt 0.500000 0.500000
vt 0.500000 0.500000
vt 0.500000 0.500000
vt 0.500000 0.500000
vt 0.500000 0.500000
vt 0.500000 0.500000
vt 0.500000 0.500000
vt 0.500000 0.500000
vt 0.500000 0.500000
vt 0.500000 0.500000
vt 0.500000 0.500000
vt 0.500000 0.500000
vt 0.500000 0.500000
vt 0.500000 0.500000
vt 0.500000 0.500000
vt 0.500000 0.500000
vt 0.500000 0.500000
vt 0.500000 0.500000
vt 0.500000 0.500000
vt 0.500000 0.500000
vt 0.500000 0.500000
vt 0.500000 0.500000
vt 0.500000 0.500000
vt 0.500000 0.500000
vt 0.500000 0.500000
vt 0.500000 0.500000
vt 0.500000 0.500000
vt 0.500000 0.500000
vt 0.500000 0.500000
vt 0.500000 0.500000
vt 0.500000 0.500000
vt 0.500000 0.500000
vt 0.500000 0.500000
vt 0.500000 0.500000
vt 0.500000 0.500000
vt 0.500000 0.500000
vt 0.500000 0.500000
vt 0.500000 0.500000
vt 0.500000 0.500000
vt 0.500000 0.500000
vt 0.500000 0.500000
vt 0.500000 0.500000
vt 0.500000 0.500000
vt 0.500000 0.500000
vt 0.500000 0.500000
vt 0.500000 0.500000
vt 0.500000 0.500000
vt 0.500000 0.500000
vt 0.500000 0.500000
vt 0.500000 0.500000
vt 0.500000 0.500000
vt 0.500000 0.500000
vt 0.500000 0.500000
vt 0.500000 0.500000
vt 0.500000 0.500000
vt 0.500000 0.500000
vt 0.500000 0.500000
vt 0.500000 0.500000
vt 0.500000 0.500000
vt 0.500000 0.500000
vt 0.500000 0.500000
vt 0.500000 0.500000
vt 0.500000 0.500000
vt 0.500000 0.500000
vt 0.500000 0.500000
vt 0.500000 0.500000
vt 0.500000 0.500000
vt 0.500000 0.500000
vt 0.500000 0.500000
vt 0.500000 0.500000
vt 0.500000 0.500000
vt 0.500000 0.500000
vt 0.500000 0.500000
vt 0.500000 0.500000
vt 0.500000 0.500000
vt 0.500000 0.500000
vt 0.500000 0.500000
vt 0.500000 0.500000
vt 0.500000 0.500000
vt 0.500000 0.500000
vt 0.293019 0.412929
vt 0.291667 0.406250
vt 0.305544 0.405556
vt 0.316516 0.411377
vt 0.316212 0.408974
vt 0.333333 0.406250
vt 0.323072 0.424671
vt 0.325427 0.426539
vt 0.316645 0.431369
vt 0.285014 0.418728
vt 0.288924 0.419686
vt 0.281411 0.423737
vt 0.309635 0.412756
vt 0.313742 0.412663
vt 0.322434 0.421775
vt 0.293236 0.416926
vt 0.306848 0.411773
vt 0.280652 0.420720
vt 0.281847 0.418632
vt 0.307141 0.409928
vt 0.307469 0.434313
vt 0.293567 0.430948
vt 0.307264 0.432055
vt 0.318387 0.403980
vt 0.294221 0.427050
vt 0.335991 0.427067
vt 0.335304 0.430938
vt 0.329002 0.426130
vt 0.335297 0.413351
vt 0.335856 0.417628
vt 0.327368 0.419869
vt 0.309984 0.430658
vt 0.293559 0.424554
vt 0.324193 0.438606
vt 0.318729 0.438884
vt 0.316394 0.433578
vt 0.323863 0.419755
vt 0.305469 0.438994
vt 0.291667 0.437500
vt 0.313954 0.430380
vt 0.290987 0.424529
vt 0.292041 0.419538
vt 0.308790 0.406205
vt 0.308694 0.407835
vt 0.332714 0.424826
vt 0.335331 0.424667
vt 0.287337 0.425599
vt 0.283796 0.425780
vt 0.333333 0.437500
vt 0.308844 0.436727
vt 0.308780 0.438480
vt 0.331591 0.420776
vt 0.314708 0.406299
vt 0.314791 0.404389
vt 0.315173 0.438206
vt 0.315010 0.436193
vt 0.334831 0.420483
vn 0.0000 -1.0000 0.0000
vn -0.2026 0.0000 0.9793
vn 0.2467 0.0000 0.9691
vn -0.0679 0.0000 0.9977
vn -0.9996 0.0000 0.0275
vn 0.9982 0.0000 0.0607
vn 0.1428 0.0000 0.9897
vn -0.1592 0.0000 0.9873
vn -0.9195 0.0000 -0.3930
vn 0.9295 0.0000 -0.3688
vn 0.9771 0.0000 -0.2126
vn -0.9756 0.0000 0.2198
vn -0.9977 0.0000 -0.0678
vn 0.9964 0.0000 -0.0850
vn -0.5650 0.0000 0.8251
vn 0.4399 0.0000 0.8981
vn 0.9922 0.0000 -0.1249
vn -0.9912 0.0000 0.1320
vn -0.0929 0.0000 0.9957
vn 0.1508 0.0000 -0.9886
vn -0.9794 0.0000 -0.2020
vn 0.9808 0.0000 0.1950
vn -0.7265 0.0000 -0.6871
vn 0.4240 0.0000 -0.9056
vn 0.0806 0.0000 -0.9967
vn 0.7524 0.0000 0.6587
vn -0.0681 0.0000 0.9977
vn -0.3640 0.0000 0.9314
vn -0.9866 0.0000 -0.1630
vn 0.0133 0.0000 0.9999
vn 0.9827 0.0000 0.1855
vn -0.8832 0.0000 0.4690
vn 0.2751 0.0000 0.9614
vn -0.1194 0.0000 0.9929
vn 0.9189 0.0000 -0.3946
vn -0.9656 0.0000 0.2600
vn 0.0433 0.0000 0.9991
vn -0.0404 0.0000 -0.9992
vn -0.3103 0.0000 -0.9506
vn 0.0632 0.0000 -0.9980
vn 0.9459 0.0000 -0.3245
vn -0.9952 0.0000 -0.0975
vn 0.9992 0.0000 0.0406
vn 0.0303 0.0000 -0.9995
vn -0.4257 0.0000 -0.9049
vn 0.5257 0.0000 -0.8507
vn -0.9930 0.0000 0.1184
vn 0.9955 0.0000 0.0947
vn -0.8739 0.0000 0.4861
vn 0.9887 0.0000 0.1502
vn 0.9214 0.0000 0.3886
vn -0.9990 0.0000 0.0443
vn -0.9792 0.0000 -0.2031
vn 0.9995 0.0000 -0.0328
vn -0.2576 0.0000 -0.9662
vn 0.0666 0.0000 -0.9978
vn 0.1499 0.0000 -0.9887
vn -0.1984 0.0000 -0.9801
vn 0.0000 1.0000 0.0000
usemtl BackMat.001
s off
f 242/1/1 261/2/1 252/3/1
f 247/4/1 257/5/1 250/6/1
f 219/7/1 207/8/1 214/9/1
f 236/10/1 221/11/1 237/12/1
f 244/13/1 225/14/1 243/15/1
f 244/13/1 245/16/1 240/17/1
f 226/18/1 236/10/1 233/19/1
f 242/1/1 245/16/1 249/20/1
f 221/11/1 236/10/1 226/18/1
f 202/21/1 206/22/1 204/23/1
f 250/6/1 257/5/1 262/24/1
f 204/23/1 206/22/1 211/25/1
f 212/26/1 213/27/1 205/28/1
f 241/29/1 229/30/1 235/31/1
f 257/5/1 247/4/1 241/29/1
f 209/32/1 244/13/1 217/33/1
f 242/1/1 249/20/1 261/2/1
f 195/34/1 203/35/1 194/36/1
f 214/9/1 195/34/1 205/28/1
f 211/25/1 209/32/1 217/33/1
f 217/33/1 244/13/1 240/17/1
f 225/14/1 227/37/1 243/15/1
f 227/37/1 241/29/1 247/4/1
f 189/38/1 204/23/1 198/39/1
f 207/8/1 203/35/1 195/34/1
f 195/34/1 214/9/1 207/8/1
f 213/27/1 214/9/1 205/28/1
f 207/8/1 219/7/1 210/40/1
f 209/32/1 225/14/1 244/13/1
f 217/33/1 238/41/1 224/42/1
f 224/42/1 238/41/1 237/12/1
f 261/2/1 251/43/1 255/44/1
f 220/45/1 212/26/1 215/46/1
f 249/20/1 251/43/1 261/2/1
f 243/15/1 227/37/1 247/4/1
f 227/37/1 229/30/1 241/29/1
f 223/47/1 221/11/1 222/48/1
f 210/40/1 225/14/1 209/32/1
f 200/49/1 205/28/1 195/34/1
f 210/40/1 219/7/1 225/14/1
f 196/50/1 189/38/1 190/51/1
f 213/27/1 212/26/1 220/45/1
f 235/31/1 229/30/1 230/52/1
f 217/33/1 240/17/1 238/41/1
f 223/47/1 237/12/1 221/11/1
f 206/22/1 209/32/1 211/25/1
f 254/53/1 262/24/1 259/54/1
f 250/6/1 262/24/1 254/53/1
f 192/55/1 194/36/1 197/56/1
f 202/21/1 189/38/1 196/50/1
f 235/31/1 230/52/1 231/57/1
f 197/56/1 194/36/1 203/35/1
f 224/42/1 237/12/1 223/47/1
f 189/38/1 202/21/1 204/23/1
f 240/17/1 245/16/1 242/1/1
f 44/58/2 117/59/2 191/60/2 101/61/2
f 119/62/3 55/63/3 112/64/3 193/65/3
f 55/63/4 56/66/4 113/67/4 112/64/4
f 45/68/5 46/69/5 103/70/5 102/71/5
f 53/72/6 54/73/6 111/74/6 110/75/6
f 125/76/7 44/58/7 101/61/7 199/77/7
f 56/66/8 127/78/8 201/79/8 113/67/8
f 46/69/9 47/80/9 104/81/9 103/70/9
f 52/82/10 53/72/10 110/75/10 109/83/10
f 42/84/11 43/85/11 100/86/11 99/87/11
f 57/88/12 1/89/12 58/90/12 114/91/12
f 47/80/13 48/92/13 105/93/13 104/81/13
f 134/94/14 52/82/14 109/83/14 208/95/14
f 48/92/15 49/96/15 106/97/15 105/93/15
f 50/98/16 51/99/16 108/100/16 107/101/16
f 41/102/17 42/84/17 99/87/17 98/103/17
f 1/89/18 2/104/18 59/105/18 58/90/18
f 49/96/19 50/98/19 107/101/19 106/97/19
f 5/106/20 6/107/20 63/108/20 62/109/20
f 2/104/21 142/110/21 216/111/21 59/105/21
f 144/112/22 41/102/22 98/103/22 218/113/22
f 6/107/23 7/114/23 64/115/23 63/108/23
f 4/116/24 5/106/24 62/109/24 61/117/24
f 3/118/25 4/116/25 61/117/25 60/119/25
f 36/120/26 37/121/26 94/122/26 93/123/26
f 37/121/27 38/124/27 95/125/27 94/122/27
f 38/124/28 39/126/28 96/127/28 95/125/28
f 7/114/29 8/128/29 65/129/29 64/115/29
f 39/126/30 40/130/30 97/131/30 96/127/30
f 35/132/31 36/120/31 93/123/31 92/133/31
f 8/128/32 154/134/32 228/135/32 65/129/32
f 10/136/33 11/137/33 68/138/33 67/139/33
f 11/137/34 158/140/34 232/141/34 68/138/34
f 160/142/35 35/132/35 92/133/35 234/143/35
f 12/144/36 13/145/36 70/146/36 69/147/36
f 9/148/37 10/136/37 67/139/37 66/149/37
f 33/150/38 34/151/38 91/152/38 90/153/38
f 32/154/39 33/150/39 90/153/39 89/155/39
f 165/156/40 32/154/40 89/155/40 239/157/40
f 30/158/41 31/159/41 88/160/41 87/161/41
f 13/145/42 14/162/42 71/163/42 70/146/42
f 29/164/43 30/158/43 87/161/43 86/165/43
f 21/166/44 22/167/44 79/168/44 78/169/44
f 22/167/45 172/170/45 246/171/45 79/168/45
f 174/172/46 21/166/46 78/169/46 248/173/46
f 23/174/47 24/175/47 81/176/47 80/177/47
f 19/178/48 20/179/48 77/180/48 76/181/48
f 24/175/49 25/182/49 82/183/49 81/176/49
f 179/184/50 29/164/50 86/165/50 253/185/50
f 18/186/51 19/178/51 76/181/51 75/187/51
f 25/182/52 182/188/52 256/189/52 82/183/52
f 14/162/53 184/190/53 258/191/53 71/163/53
f 186/192/54 18/186/54 75/187/54 260/193/54
f 26/194/55 27/195/55 84/196/55 83/197/55
f 27/195/56 28/198/56 85/199/56 84/196/56
f 16/200/57 17/201/57 74/202/57 73/203/57
f 15/204/58 16/200/58 73/203/58 72/205/58
usemtl FrontMat.001
f 168/206/59 178/207/59 187/208/59
f 173/209/59 176/210/59 183/211/59
f 145/212/59 140/213/59 133/214/59
f 162/215/59 163/216/59 147/217/59
f 170/218/59 169/219/59 151/220/59
f 170/218/59 166/221/59 171/222/59
f 152/223/59 159/224/59 162/215/59
f 168/206/59 175/225/59 171/222/59
f 147/217/59 152/223/59 162/215/59
f 128/226/59 130/227/59 132/228/59
f 176/210/59 188/229/59 183/211/59
f 130/227/59 137/230/59 132/228/59
f 138/231/59 131/232/59 139/233/59
f 167/234/59 161/235/59 155/236/59
f 183/211/59 167/234/59 173/209/59
f 135/237/59 143/238/59 170/218/59
f 168/206/59 187/208/59 175/225/59
f 121/239/59 120/240/59 129/241/59
f 140/213/59 131/232/59 121/239/59
f 137/230/59 143/238/59 135/237/59
f 143/238/59 166/221/59 170/218/59
f 151/220/59 169/219/59 153/242/59
f 153/242/59 173/209/59 167/234/59
f 115/243/59 124/244/59 130/227/59
f 133/214/59 121/239/59 129/241/59
f 121/239/59 133/214/59 140/213/59
f 139/233/59 131/232/59 140/213/59
f 133/214/59 136/245/59 145/212/59
f 135/237/59 170/218/59 151/220/59
f 143/238/59 150/246/59 164/247/59
f 150/246/59 163/216/59 164/247/59
f 187/208/59 181/248/59 177/249/59
f 146/250/59 141/251/59 138/231/59
f 175/225/59 187/208/59 177/249/59
f 169/219/59 173/209/59 153/242/59
f 153/242/59 167/234/59 155/236/59
f 149/252/59 148/253/59 147/217/59
f 136/245/59 135/237/59 151/220/59
f 126/254/59 121/239/59 131/232/59
f 136/245/59 151/220/59 145/212/59
f 122/255/59 116/256/59 115/243/59
f 139/233/59 146/250/59 138/231/59
f 161/235/59 156/257/59 155/236/59
f 143/238/59 164/247/59 166/221/59
f 149/252/59 147/217/59 163/216/59
f 132/228/59 137/230/59 135/237/59
f 180/258/59 185/259/59 188/229/59
f 176/210/59 180/258/59 188/229/59
f 118/260/59 123/261/59 120/240/59
f 128/226/59 122/255/59 115/243/59
f 161/235/59 157/262/59 156/257/59
f 123/261/59 129/241/59 120/240/59
f 150/246/59 149/252/59 163/216/59
f 115/243/59 130/227/59 128/226/59
f 166/221/59 168/206/59 171/222/59
