# Blender v2.83.1 OBJ File: 'jigsaw-24x32-3-step2.blend'
# www.blender.org
mtllib piece.176.mtl
o path352_path352.001
v -0.457147 0.037500 0.292941
v -0.459775 0.037500 0.173453
v -0.490323 0.037500 0.096970
v -0.557528 0.037500 0.096057
v -0.637921 0.037500 0.127873
v -0.699986 0.037500 0.130726
v -0.718936 0.037500 0.063381
v -0.696878 0.037500 -0.033584
v -0.642652 0.037500 -0.099139
v -0.567451 0.037500 -0.093265
v -0.491906 0.037500 -0.060027
v -0.439003 0.037500 -0.064501
v -0.424723 0.037500 -0.151521
v -0.474129 0.037500 -0.507942
v -0.127312 0.037500 -0.477194
v -0.043658 0.037500 -0.496322
v -0.040998 0.037500 -0.549713
v -0.073440 0.037500 -0.621930
v -0.074851 0.037500 -0.691202
v -0.001079 0.037500 -0.737643
v 0.104108 0.037500 -0.748921
v 0.174958 0.037500 -0.714587
v 0.167875 0.037500 -0.632614
v 0.127878 0.037500 -0.534658
v 0.122140 0.037500 -0.460796
v 0.197560 0.037500 -0.439975
v 0.319941 0.037500 -0.456625
v 0.527780 0.037500 -0.507942
v 0.546538 0.037500 -0.294137
v 0.545051 0.037500 -0.164707
v 0.515432 0.037500 -0.076847
v 0.448630 0.037500 -0.064640
v 0.368000 0.037500 -0.088186
v 0.305000 0.037500 -0.089088
v 0.284349 0.037500 -0.027809
v 0.303812 0.037500 0.059744
v 0.354416 0.037500 0.118805
v 0.425155 0.037500 0.113547
v 0.496894 0.037500 0.083895
v 0.548468 0.037500 0.088715
v 0.565044 0.037500 0.168509
v 0.527781 0.037500 0.493755
v 0.329110 0.037500 0.473078
v 0.210961 0.037500 0.471464
v 0.135478 0.037500 0.494650
v 0.134826 0.037500 0.551857
v 0.166141 0.037500 0.626273
v 0.167795 0.037500 0.694579
v 0.098635 0.037500 0.736584
v -0.000591 0.037500 0.744621
v -0.068663 0.037500 0.714152
v -0.065288 0.037500 0.646319
v -0.033875 0.037500 0.564969
v -0.038765 0.037500 0.499628
v -0.124357 0.037500 0.471986
v -0.255326 0.037500 0.472389
v -0.474129 0.037500 0.493755
v -0.457147 -0.037500 0.292941
v -0.459775 -0.037498 0.173453
v -0.490323 -0.037500 0.096970
v -0.557528 -0.037500 0.096057
v -0.637921 -0.037500 0.127873
v -0.699986 -0.037500 0.130726
v -0.718936 -0.037500 0.063381
v -0.696878 -0.037500 -0.033584
v -0.642652 -0.037500 -0.099139
v -0.567451 -0.037500 -0.093265
v -0.491906 -0.037500 -0.060027
v -0.439003 -0.037500 -0.064501
v -0.424723 -0.037500 -0.151521
v -0.474129 -0.037500 -0.507942
v -0.127312 -0.037500 -0.477194
v -0.043658 -0.037500 -0.496322
v -0.040998 -0.037500 -0.549713
v -0.073440 -0.037498 -0.621930
v -0.074851 -0.037500 -0.691202
v -0.001079 -0.037500 -0.737643
v 0.104108 -0.037500 -0.748921
v 0.174958 -0.037500 -0.714587
v 0.167875 -0.037500 -0.632614
v 0.127878 -0.037500 -0.534658
v 0.122140 -0.037500 -0.460796
v 0.197560 -0.037500 -0.439975
v 0.319941 -0.037500 -0.456625
v 0.527780 -0.037500 -0.507942
v 0.546538 -0.037500 -0.294137
v 0.545051 -0.037500 -0.164707
v 0.515432 -0.037500 -0.076847
v 0.448630 -0.037500 -0.064640
v 0.368000 -0.037500 -0.088186
v 0.305000 -0.037500 -0.089088
v 0.284349 -0.037500 -0.027809
v 0.303812 -0.037498 0.059744
v 0.354416 -0.037500 0.118805
v 0.425155 -0.037498 0.113547
v 0.496894 -0.037500 0.083895
v 0.548468 -0.037500 0.088715
v 0.565044 -0.037500 0.168509
v 0.527781 -0.037500 0.493755
v 0.329110 -0.037500 0.473078
v 0.210961 -0.037500 0.471464
v 0.135478 -0.037500 0.494650
v 0.134826 -0.037500 0.551857
v 0.166141 -0.037500 0.626273
v 0.167795 -0.037500 0.694579
v 0.098635 -0.037500 0.736584
v -0.000591 -0.037500 0.744621
v -0.068663 -0.037500 0.714152
v -0.065288 -0.037500 0.646319
v -0.033875 -0.037500 0.564969
v -0.038765 -0.037500 0.499628
v -0.124357 -0.037500 0.471986
v -0.255326 -0.037500 0.472389
v -0.474129 -0.037500 0.493755
v 0.098635 0.037500 0.736584
v -0.000591 0.037500 0.744621
v -0.068663 0.037500 0.714152
v -0.068663 0.037500 0.714152
v 0.167795 0.037500 0.694579
v -0.065288 0.037500 0.646319
v 0.166141 0.037500 0.626273
v -0.033875 0.037500 0.564969
v 0.134826 0.037500 0.551857
v -0.038765 0.037500 0.499628
v -0.038765 0.037500 0.499628
v 0.135478 0.037500 0.494650
v 0.135478 0.037500 0.494650
v -0.124357 0.037500 0.471986
v 0.210961 0.037500 0.471464
v 0.527781 0.037500 0.493755
v 0.527781 0.037500 0.493755
v 0.329110 0.037500 0.473078
v -0.255326 0.037500 0.472389
v -0.474129 0.037500 0.493755
v -0.474129 0.037500 0.493755
v -0.457147 0.037500 0.292941
v -0.459775 0.037500 0.173453
v 0.565044 0.037500 0.168509
v -0.490323 0.037500 0.096970
v -0.490323 0.037500 0.096970
v 0.548468 0.037500 0.088715
v 0.548468 0.037500 0.088715
v 0.354416 0.037500 0.118805
v 0.425155 0.037500 0.113547
v -0.637921 0.037500 0.127873
v -0.699986 0.037500 0.130726
v -0.699986 0.037500 0.130726
v -0.718936 0.037500 0.063381
v -0.557528 0.037500 0.096057
v 0.303812 0.037500 0.059744
v 0.496894 0.037500 0.083895
v -0.696878 0.037500 -0.033584
v 0.284349 0.037500 -0.027809
v 0.305000 0.037500 -0.089088
v 0.305000 0.037500 -0.089088
v -0.642652 0.037500 -0.099139
v -0.491906 0.037500 -0.060027
v -0.439003 0.037500 -0.064501
v -0.439003 0.037500 -0.064501
v -0.567451 0.037500 -0.093265
v -0.424723 0.037500 -0.151521
v 0.515432 0.037500 -0.076847
v 0.515432 0.037500 -0.076847
v 0.448630 0.037500 -0.064640
v 0.368000 0.037500 -0.088186
v 0.545051 0.037500 -0.164707
v 0.546538 0.037500 -0.294137
v 0.527780 0.037500 -0.507942
v 0.527780 0.037500 -0.507942
v 0.197560 0.037500 -0.439975
v 0.319941 0.037500 -0.456625
v 0.122140 0.037500 -0.460796
v 0.122140 0.037500 -0.460796
v 0.127878 0.037500 -0.534658
v -0.127312 0.037500 -0.477194
v -0.043658 0.037500 -0.496322
v -0.043658 0.037500 -0.496322
v -0.474129 0.037500 -0.507942
v -0.474129 0.037500 -0.507942
v -0.040998 0.037500 -0.549713
v 0.167875 0.037500 -0.632614
v -0.073440 0.037500 -0.621930
v -0.074851 0.037500 -0.691202
v 0.174958 0.037500 -0.714587
v 0.174958 0.037500 -0.714587
v -0.001079 0.037500 -0.737643
v 0.104108 0.037500 -0.748921
v 0.098635 -0.037500 0.736584
v -0.000591 -0.037500 0.744621
v -0.068663 -0.037500 0.714152
v -0.068663 -0.037500 0.714152
v 0.167795 -0.037500 0.694579
v -0.065288 -0.037500 0.646319
v 0.166141 -0.037500 0.626273
v -0.033875 -0.037500 0.564969
v 0.134826 -0.037500 0.551857
v -0.038765 -0.037500 0.499628
v -0.038765 -0.037500 0.499628
v 0.135478 -0.037500 0.494650
v 0.135478 -0.037500 0.494650
v -0.124357 -0.037500 0.471986
v 0.210961 -0.037500 0.471464
v 0.527781 -0.037500 0.493755
v 0.527781 -0.037500 0.493755
v 0.329110 -0.037500 0.473078
v -0.255326 -0.037500 0.472389
v -0.474129 -0.037500 0.493755
v -0.474129 -0.037500 0.493755
v -0.457147 -0.037500 0.292941
v -0.459775 -0.037498 0.173453
v 0.565044 -0.037500 0.168509
v -0.490323 -0.037500 0.096970
v -0.490323 -0.037500 0.096970
v 0.548468 -0.037500 0.088715
v 0.548468 -0.037500 0.088715
v 0.354416 -0.037500 0.118805
v 0.425155 -0.037498 0.113547
v -0.637921 -0.037500 0.127873
v -0.699986 -0.037500 0.130726
v -0.699986 -0.037500 0.130726
v -0.718936 -0.037500 0.063381
v -0.557528 -0.037500 0.096057
v 0.303812 -0.037498 0.059744
v 0.496894 -0.037500 0.083895
v -0.696878 -0.037500 -0.033584
v 0.284349 -0.037500 -0.027809
v 0.305000 -0.037500 -0.089088
v 0.305000 -0.037500 -0.089088
v -0.642652 -0.037500 -0.099139
v -0.491906 -0.037500 -0.060027
v -0.439003 -0.037500 -0.064501
v -0.439003 -0.037500 -0.064501
v -0.567451 -0.037500 -0.093265
v -0.424723 -0.037500 -0.151521
v 0.515432 -0.037500 -0.076847
v 0.515432 -0.037500 -0.076847
v 0.448630 -0.037500 -0.064640
v 0.368000 -0.037500 -0.088186
v 0.545051 -0.037500 -0.164707
v 0.546538 -0.037500 -0.294137
v 0.527780 -0.037500 -0.507942
v 0.527780 -0.037500 -0.507942
v 0.197560 -0.037500 -0.439975
v 0.319941 -0.037500 -0.456625
v 0.122140 -0.037500 -0.460796
v 0.122140 -0.037500 -0.460796
v 0.127878 -0.037500 -0.534658
v -0.127312 -0.037500 -0.477194
v -0.043658 -0.037500 -0.496322
v -0.043658 -0.037500 -0.496322
v -0.474129 -0.037500 -0.507942
v -0.474129 -0.037500 -0.507942
v -0.040998 -0.037500 -0.549713
v 0.167875 -0.037500 -0.632614
v -0.073440 -0.037498 -0.621930
v -0.074851 -0.037500 -0.691202
v 0.174958 -0.037500 -0.714587
v 0.174958 -0.037500 -0.714587
v -0.001079 -0.037500 -0.737643
v 0.104108 -0.037500 -0.748921
vt 0.500000 0.500000
vt 0.500000 0.500000
vt 0.500000 0.500000
vt 0.500000 0.500000
vt 0.500000 0.500000
vt 0.500000 0.500000
vt 0.500000 0.500000
vt 0.500000 0.500000
vt 0.500000 0.500000
vt 0.500000 0.500000
vt 0.500000 0.500000
vt 0.500000 0.500000
vt 0.500000 0.500000
vt 0.500000 0.500000
vt 0.500000 0.500000
vt 0.500000 0.500000
vt 0.500000 0.500000
vt 0.500000 0.500000
vt 0.500000 0.500000
vt 0.500000 0.500000
vt 0.500000 0.500000
vt 0.500000 0.500000
vt 0.500000 0.500000
vt 0.500000 0.500000
vt 0.500000 0.500000
vt 0.500000 0.500000
vt 0.500000 0.500000
vt 0.500000 0.500000
vt 0.500000 0.500000
vt 0.500000 0.500000
vt 0.500000 0.500000
vt 0.500000 0.500000
vt 0.500000 0.500000
vt 0.500000 0.500000
vt 0.500000 0.500000
vt 0.500000 0.500000
vt 0.500000 0.500000
vt 0.500000 0.500000
vt 0.500000 0.500000
vt 0.500000 0.500000
vt 0.500000 0.500000
vt 0.500000 0.500000
vt 0.500000 0.500000
vt 0.500000 0.500000
vt 0.500000 0.500000
vt 0.500000 0.500000
vt 0.500000 0.500000
vt 0.500000 0.500000
vt 0.500000 0.500000
vt 0.500000 0.500000
vt 0.500000 0.500000
vt 0.500000 0.500000
vt 0.500000 0.500000
vt 0.500000 0.500000
vt 0.500000 0.500000
vt 0.500000 0.500000
vt 0.500000 0.500000
vt 0.500000 0.500000
vt 0.500000 0.500000
vt 0.500000 0.500000
vt 0.500000 0.500000
vt 0.500000 0.500000
vt 0.500000 0.500000
vt 0.500000 0.500000
vt 0.500000 0.500000
vt 0.500000 0.500000
vt 0.500000 0.500000
vt 0.500000 0.500000
vt 0.500000 0.500000
vt 0.500000 0.500000
vt 0.500000 0.500000
vt 0.500000 0.500000
vt 0.500000 0.500000
vt 0.500000 0.500000
vt 0.500000 0.500000
vt 0.500000 0.500000
vt 0.500000 0.500000
vt 0.500000 0.500000
vt 0.500000 0.500000
vt 0.500000 0.500000
vt 0.500000 0.500000
vt 0.500000 0.500000
vt 0.500000 0.500000
vt 0.500000 0.500000
vt 0.500000 0.500000
vt 0.500000 0.500000
vt 0.500000 0.500000
vt 0.500000 0.500000
vt 0.500000 0.500000
vt 0.500000 0.500000
vt 0.500000 0.500000
vt 0.500000 0.500000
vt 0.500000 0.500000
vt 0.500000 0.500000
vt 0.500000 0.500000
vt 0.500000 0.500000
vt 0.500000 0.500000
vt 0.500000 0.500000
vt 0.500000 0.500000
vt 0.500000 0.500000
vt 0.500000 0.500000
vt 0.500000 0.500000
vt 0.500000 0.500000
vt 0.500000 0.500000
vt 0.500000 0.500000
vt 0.500000 0.500000
vt 0.500000 0.500000
vt 0.500000 0.500000
vt 0.500000 0.500000
vt 0.500000 0.500000
vt 0.500000 0.500000
vt 0.500000 0.500000
vt 0.500000 0.500000
vt 0.500000 0.500000
vt 0.500000 0.500000
vt 0.500000 0.500000
vt 0.500000 0.500000
vt 0.500000 0.500000
vt 0.500000 0.500000
vt 0.500000 0.500000
vt 0.500000 0.500000
vt 0.500000 0.500000
vt 0.500000 0.500000
vt 0.500000 0.500000
vt 0.500000 0.500000
vt 0.500000 0.500000
vt 0.500000 0.500000
vt 0.500000 0.500000
vt 0.500000 0.500000
vt 0.500000 0.500000
vt 0.500000 0.500000
vt 0.500000 0.500000
vt 0.500000 0.500000
vt 0.500000 0.500000
vt 0.500000 0.500000
vt 0.500000 0.500000
vt 0.500000 0.500000
vt 0.500000 0.500000
vt 0.500000 0.500000
vt 0.500000 0.500000
vt 0.500000 0.500000
vt 0.500000 0.500000
vt 0.500000 0.500000
vt 0.500000 0.500000
vt 0.500000 0.500000
vt 0.500000 0.500000
vt 0.500000 0.500000
vt 0.500000 0.500000
vt 0.500000 0.500000
vt 0.500000 0.500000
vt 0.500000 0.500000
vt 0.500000 0.500000
vt 0.500000 0.500000
vt 0.500000 0.500000
vt 0.500000 0.500000
vt 0.500000 0.500000
vt 0.500000 0.500000
vt 0.500000 0.500000
vt 0.500000 0.500000
vt 0.500000 0.500000
vt 0.500000 0.500000
vt 0.500000 0.500000
vt 0.500000 0.500000
vt 0.500000 0.500000
vt 0.500000 0.500000
vt 0.500000 0.500000
vt 0.500000 0.500000
vt 0.500000 0.500000
vt 0.500000 0.500000
vt 0.500000 0.500000
vt 0.500000 0.500000
vt 0.500000 0.500000
vt 0.500000 0.500000
vt 0.500000 0.500000
vt 0.500000 0.500000
vt 0.500000 0.500000
vt 0.500000 0.500000
vt 0.500000 0.500000
vt 0.500000 0.500000
vt 0.500000 0.500000
vt 0.500000 0.500000
vt 0.500000 0.500000
vt 0.500000 0.500000
vt 0.500000 0.500000
vt 0.500000 0.500000
vt 0.500000 0.500000
vt 0.500000 0.500000
vt 0.500000 0.500000
vt 0.500000 0.500000
vt 0.500000 0.500000
vt 0.500000 0.500000
vt 0.500000 0.500000
vt 0.500000 0.500000
vt 0.500000 0.500000
vt 0.500000 0.500000
vt 0.500000 0.500000
vt 0.500000 0.500000
vt 0.500000 0.500000
vt 0.500000 0.500000
vt 0.500000 0.500000
vt 0.500000 0.500000
vt 0.500000 0.500000
vt 0.500000 0.500000
vt 0.315431 0.750363
vt 0.318910 0.750959
vt 0.308536 0.751471
vt 0.290948 0.760708
vt 0.290887 0.756670
vt 0.298312 0.763095
vt 0.315228 0.781433
vt 0.307981 0.781278
vt 0.300981 0.767710
vt 0.294958 0.763830
vt 0.292180 0.763449
vt 0.308008 0.783063
vt 0.313660 0.742834
vt 0.315321 0.748697
vt 0.306634 0.746111
vt 0.298876 0.769553
vt 0.299929 0.780605
vt 0.295935 0.769389
vt 0.313640 0.789076
vt 0.309514 0.788826
vt 0.316331 0.786009
vt 0.332736 0.771257
vt 0.318787 0.780571
vt 0.301790 0.764979
vt 0.316471 0.788126
vt 0.333333 0.750000
vt 0.331279 0.761119
vt 0.315024 0.783472
vt 0.306706 0.785384
vt 0.342726 0.769925
vt 0.340145 0.769836
vt 0.343514 0.767824
vt 0.304842 0.780555
vt 0.306340 0.743553
vt 0.309286 0.742482
vt 0.290117 0.771103
vt 0.300310 0.751601
vt 0.305400 0.752120
vt 0.300932 0.763067
vt 0.334073 0.763974
vt 0.334007 0.768871
vt 0.331873 0.763834
vt 0.290806 0.768614
vt 0.292951 0.768464
vt 0.316670 0.746444
vt 0.332627 0.774985
vt 0.333333 0.781250
vt 0.324234 0.780583
vt 0.291667 0.781250
vt 0.336802 0.768843
vt 0.337214 0.762937
vt 0.342597 0.764799
vt 0.291667 0.750000
vt 0.306637 0.787515
vt 0.316728 0.744283
vt 0.340342 0.762754
vt 0.308297 0.749167
vn 0.0000 -1.0000 0.0000
vn 0.0807 0.0000 0.9967
vn -0.4085 0.0000 0.9127
vn 0.5191 0.0000 0.8547
vn -0.9988 0.0000 -0.0497
vn 0.9997 0.0000 -0.0242
vn -0.9329 0.0000 -0.3602
vn 0.9217 0.0000 -0.3879
vn -0.9972 0.0000 0.0746
vn 0.9999 0.0000 0.0114
vn -0.3073 0.0000 0.9516
vn 0.2936 0.0000 0.9559
vn -0.1035 0.0000 0.9946
vn 0.0972 0.0000 0.9953
vn -0.0137 0.0000 0.9999
vn 0.0031 0.0000 1.0000
vn -0.9964 0.0000 -0.0843
vn -0.9998 0.0000 0.0220
vn 0.9935 0.0000 0.1138
vn -0.9287 0.0000 0.3709
vn 0.9791 0.0000 -0.2034
vn -0.0741 0.0000 -0.9972
vn 0.0459 0.0000 0.9989
vn -0.9626 0.0000 0.2709
vn 0.3680 0.0000 0.9298
vn 0.7594 0.0000 -0.6506
vn 0.0930 0.0000 -0.9957
vn -0.3820 0.0000 -0.9242
vn -0.0136 0.0000 0.9999
vn -0.9751 0.0000 -0.2218
vn 0.9762 0.0000 -0.2170
vn 0.9476 0.0000 0.3194
vn -0.7705 0.0000 -0.6374
vn -0.0843 0.0000 -0.9964
vn 0.4027 0.0000 -0.9153
vn 0.0779 0.0000 -0.9970
vn -0.9868 0.0000 -0.1619
vn 0.1798 0.0000 0.9837
vn -0.2803 0.0000 0.9599
vn 0.9476 0.0000 0.3195
vn -0.0143 0.0000 0.9999
vn 0.9999 0.0000 0.0115
vn 0.9962 0.0000 -0.0874
vn -0.1348 0.0000 -0.9909
vn 0.2661 0.0000 -0.9639
vn 0.9970 0.0000 0.0774
vn -0.2229 0.0000 -0.9748
vn 0.0883 0.0000 -0.9961
vn -0.9905 0.0000 0.1373
vn -0.2397 0.0000 -0.9708
vn -0.9988 0.0000 -0.0498
vn 0.9258 0.0000 0.3780
vn -0.9122 0.0000 0.4098
vn -0.9998 0.0000 0.0204
vn 0.9963 0.0000 0.0861
vn -0.5327 0.0000 -0.8463
vn 0.4361 0.0000 -0.8999
vn -0.1066 0.0000 -0.9943
vn 0.0000 1.0000 0.0000
usemtl BackMat.001
s off
f 249/1/1 245/2/1 248/3/1
f 239/4/1 238/5/1 240/6/1
f 197/7/1 223/8/1 199/9/1
f 237/10/1 239/4/1 235/11/1
f 197/7/1 199/9/1 196/12/1
f 259/13/1 254/14/1 253/15/1
f 216/16/1 217/17/1 205/18/1
f 189/19/1 193/20/1 188/21/1
f 210/22/1 226/23/1 201/24/1
f 193/20/1 189/19/1 190/25/1
f 248/3/1 234/26/1 251/27/1
f 195/28/1 196/12/1 194/29/1
f 219/30/1 221/31/1 218/32/1
f 199/9/1 223/8/1 202/33/1
f 254/14/1 260/34/1 257/35/1
f 205/18/1 217/17/1 211/36/1
f 223/8/1 216/16/1 202/33/1
f 197/7/1 196/12/1 195/28/1
f 244/37/1 227/38/1 243/39/1
f 230/40/1 231/41/1 212/42/1
f 211/36/1 224/43/1 214/44/1
f 255/45/1 259/13/1 253/15/1
f 209/46/1 206/47/1 207/48/1
f 205/18/1 211/36/1 203/49/1
f 202/33/1 216/16/1 205/18/1
f 260/34/1 254/14/1 259/13/1
f 222/50/1 225/51/1 233/52/1
f 206/47/1 210/22/1 201/24/1
f 211/36/1 217/17/1 224/43/1
f 201/24/1 226/23/1 223/8/1
f 240/6/1 244/37/1 241/53/1
f 188/21/1 194/29/1 192/54/1
f 222/50/1 230/40/1 212/42/1
f 256/55/1 259/13/1 255/45/1
f 245/2/1 243/39/1 227/38/1
f 238/5/1 239/4/1 237/10/1
f 229/56/1 233/52/1 225/51/1
f 231/41/1 226/23/1 210/22/1
f 253/15/1 247/57/1 249/1/1
f 221/31/1 225/51/1 222/50/1
f 218/32/1 221/31/1 222/50/1
f 234/26/1 226/23/1 231/41/1
f 245/2/1 227/38/1 226/23/1
f 248/3/1 226/23/1 234/26/1
f 188/21/1 195/28/1 194/29/1
f 230/40/1 222/50/1 233/52/1
f 247/57/1 253/15/1 254/14/1
f 249/1/1 247/57/1 245/2/1
f 195/28/1 188/21/1 193/20/1
f 212/42/1 231/41/1 210/22/1
f 248/3/1 245/2/1 226/23/1
f 240/6/1 238/5/1 244/37/1
f 227/38/1 244/37/1 238/5/1
f 201/24/1 223/8/1 197/7/1
f 209/46/1 210/22/1 206/47/1
f 49/58/2 50/59/2 107/60/2 106/61/2
f 50/59/3 118/62/3 191/63/3 107/60/3
f 48/64/4 49/58/4 106/61/4 105/65/4
f 51/66/5 52/67/5 109/68/5 108/69/5
f 47/70/6 48/64/6 105/65/6 104/71/6
f 52/67/7 53/72/7 110/73/7 109/68/7
f 46/74/8 47/70/8 104/71/8 103/75/8
f 53/72/9 125/76/9 198/77/9 110/73/9
f 127/78/10 46/74/10 103/75/10 200/79/10
f 54/80/11 55/81/11 112/82/11 111/83/11
f 44/84/12 45/85/12 102/86/12 101/87/12
f 131/88/13 43/89/13 100/90/13 204/91/13
f 56/92/14 135/93/14 208/94/14 113/95/14
f 43/89/15 44/84/15 101/87/15 100/90/15
f 55/81/16 56/92/16 113/95/16 112/82/16
f 57/96/17 1/97/17 58/98/17 114/99/17
f 1/97/18 2/100/18 59/101/18 58/98/18
f 41/102/19 42/103/19 99/104/19 98/105/19
f 2/100/20 140/106/20 213/107/20 59/101/20
f 142/108/21 41/102/21 98/105/21 215/109/21
f 37/110/22 38/111/22 95/112/22 94/113/22
f 5/114/23 147/115/23 220/116/23 62/117/23
f 6/118/24 7/119/24 64/120/24 63/121/24
f 4/122/25 5/114/25 62/117/25 61/123/25
f 36/124/26 37/110/26 94/113/26 93/125/26
f 39/126/27 40/127/27 97/128/27 96/129/27
f 38/111/28 39/126/28 96/129/28 95/112/28
f 3/130/29 4/122/29 61/123/29 60/131/29
f 7/119/30 8/132/30 65/133/30 64/120/30
f 35/134/31 36/124/31 93/125/31 92/135/31
f 155/136/32 35/134/32 92/135/32 228/137/32
f 8/132/33 9/138/33 66/139/33 65/133/33
f 11/140/34 159/141/34 232/142/34 68/143/34
f 10/144/35 11/140/35 68/143/35 67/145/35
f 9/138/36 10/144/36 67/145/36 66/139/36
f 12/146/37 13/147/37 70/148/37 69/149/37
f 163/150/38 32/151/38 89/152/38 236/153/38
f 32/151/39 33/154/39 90/155/39 89/152/39
f 30/156/40 31/157/40 88/158/40 87/159/40
f 33/154/41 34/160/41 91/161/41 90/155/41
f 29/162/42 30/156/42 87/159/42 86/163/42
f 169/164/43 29/162/43 86/163/43 242/165/43
f 26/166/44 27/167/44 84/168/44 83/169/44
f 173/170/45 26/166/45 83/169/45 246/171/45
f 24/172/46 25/173/46 82/174/46 81/175/46
f 15/176/47 177/177/47 250/178/47 72/179/47
f 179/180/48 15/176/48 72/179/48 252/181/48
f 13/147/49 14/182/49 71/183/49 70/148/49
f 27/167/50 28/184/50 85/185/50 84/168/50
f 16/186/51 17/187/51 74/188/51 73/189/51
f 23/190/52 24/172/52 81/175/52 80/191/52
f 17/187/53 18/192/53 75/193/53 74/188/53
f 18/192/54 19/194/54 76/195/54 75/193/54
f 185/196/55 23/190/55 80/191/55 258/197/55
f 19/194/56 20/198/56 77/199/56 76/195/56
f 21/200/57 22/201/57 79/202/57 78/203/57
f 20/198/58 21/200/58 78/203/58 77/199/58
usemtl FrontMat.001
f 176/204/59 175/205/59 172/206/59
f 166/207/59 167/208/59 165/209/59
f 124/210/59 126/211/59 150/212/59
f 164/213/59 162/214/59 166/207/59
f 124/210/59 123/215/59 126/211/59
f 186/216/59 180/217/59 181/218/59
f 143/219/59 132/220/59 144/221/59
f 116/222/59 115/223/59 120/224/59
f 137/225/59 128/226/59 153/227/59
f 120/224/59 117/228/59 116/222/59
f 175/205/59 178/229/59 161/230/59
f 122/231/59 121/232/59 123/215/59
f 146/233/59 145/234/59 148/235/59
f 126/211/59 129/236/59 150/212/59
f 181/218/59 184/237/59 187/238/59
f 132/220/59 138/239/59 144/221/59
f 150/212/59 129/236/59 143/219/59
f 124/210/59 122/231/59 123/215/59
f 171/240/59 170/241/59 154/242/59
f 157/243/59 139/244/59 158/245/59
f 138/239/59 141/246/59 151/247/59
f 182/248/59 180/217/59 186/216/59
f 136/249/59 134/250/59 133/251/59
f 132/220/59 130/252/59 138/239/59
f 129/236/59 132/220/59 143/219/59
f 187/238/59 186/216/59 181/218/59
f 149/253/59 160/254/59 152/255/59
f 133/251/59 128/226/59 137/225/59
f 138/239/59 151/247/59 144/221/59
f 128/226/59 150/212/59 153/227/59
f 167/208/59 168/256/59 171/240/59
f 115/223/59 119/257/59 121/232/59
f 149/253/59 139/244/59 157/243/59
f 183/258/59 182/248/59 186/216/59
f 172/206/59 154/242/59 170/241/59
f 165/209/59 164/213/59 166/207/59
f 156/259/59 152/255/59 160/254/59
f 158/245/59 137/225/59 153/227/59
f 180/217/59 176/204/59 174/260/59
f 148/235/59 149/253/59 152/255/59
f 145/234/59 149/253/59 148/235/59
f 161/230/59 158/245/59 153/227/59
f 172/206/59 153/227/59 154/242/59
f 175/205/59 161/230/59 153/227/59
f 115/223/59 121/232/59 122/231/59
f 157/243/59 160/254/59 149/253/59
f 174/260/59 181/218/59 180/217/59
f 176/204/59 172/206/59 174/260/59
f 122/231/59 120/224/59 115/223/59
f 139/244/59 137/225/59 158/245/59
f 175/205/59 153/227/59 172/206/59
f 167/208/59 171/240/59 165/209/59
f 154/242/59 165/209/59 171/240/59
f 128/226/59 124/210/59 150/212/59
f 136/249/59 133/251/59 137/225/59
