# Blender v2.83.1 OBJ File: 'jigsaw-24x32-3-step2.blend'
# www.blender.org
mtllib piece.102.mtl
o path204_path204.001
v 0.441495 0.037500 -0.161832
v 0.457588 0.037500 -0.078273
v 0.518382 0.037500 -0.074719
v 0.601444 0.037500 -0.106078
v 0.675357 0.037500 -0.107294
v 0.714404 0.037500 -0.034877
v 0.715650 0.037500 0.068385
v 0.681860 0.037500 0.138135
v 0.619380 0.037500 0.131751
v 0.548851 0.037500 0.093531
v 0.494495 0.037500 0.089505
v 0.473834 0.037500 0.165698
v 0.501080 0.037500 0.495428
v 0.303228 0.037500 0.547147
v 0.185301 0.037500 0.564920
v 0.109363 0.037500 0.546824
v 0.107441 0.037500 0.477160
v 0.137846 0.037500 0.381182
v 0.140456 0.037500 0.294384
v 0.074845 0.037500 0.246212
v -0.020641 0.037500 0.241920
v -0.087963 0.037500 0.280716
v -0.088825 0.037500 0.356731
v -0.063923 0.037500 0.443797
v -0.073697 0.037500 0.510668
v -0.159715 0.037500 0.534735
v -0.288039 0.037500 0.527932
v -0.500830 0.037500 0.495428
v -0.456045 0.037500 0.286355
v -0.442955 0.037500 0.162367
v -0.465309 0.037500 0.083945
v -0.537564 0.037500 0.085298
v -0.633160 0.037500 0.121739
v -0.715284 0.037500 0.128857
v -0.753844 0.037500 0.063296
v -0.745606 0.037500 -0.034078
v -0.694055 0.037500 -0.101341
v -0.607627 0.037500 -0.097595
v -0.514565 0.037500 -0.066040
v -0.448061 0.037500 -0.070902
v -0.431575 0.037500 -0.156493
v -0.449650 0.037500 -0.287462
v -0.500830 0.037500 -0.506269
v -0.283458 0.037500 -0.550072
v -0.152891 0.037500 -0.562740
v -0.066532 0.037500 -0.540486
v -0.059459 0.037500 -0.469013
v -0.089236 0.037500 -0.374039
v -0.094054 0.037500 -0.291281
v -0.031962 0.037500 -0.249769
v 0.059537 0.037500 -0.251771
v 0.123079 0.037500 -0.292864
v 0.120756 0.037500 -0.364960
v 0.092487 0.037500 -0.445294
v 0.097649 0.037500 -0.507437
v 0.177216 0.037500 -0.532259
v 0.298558 0.037500 -0.529853
v 0.501080 0.037500 -0.506270
v 0.441495 -0.037500 -0.161832
v 0.457588 -0.037500 -0.078273
v 0.518382 -0.037500 -0.074719
v 0.601444 -0.037500 -0.106078
v 0.675357 -0.037500 -0.107294
v 0.714404 -0.037500 -0.034877
v 0.715650 -0.037500 0.068385
v 0.681860 -0.037500 0.138135
v 0.619380 -0.037500 0.131751
v 0.548851 -0.037500 0.093531
v 0.494495 -0.037500 0.089505
v 0.473834 -0.037500 0.165698
v 0.501080 -0.037500 0.495428
v 0.303228 -0.037498 0.547147
v 0.185301 -0.037500 0.564920
v 0.109363 -0.037498 0.546824
v 0.107441 -0.037500 0.477160
v 0.137846 -0.037500 0.381182
v 0.140456 -0.037500 0.294384
v 0.074845 -0.037500 0.246212
v -0.020641 -0.037500 0.241920
v -0.087963 -0.037500 0.280716
v -0.088825 -0.037500 0.356731
v -0.063923 -0.037500 0.443797
v -0.073697 -0.037500 0.510668
v -0.159715 -0.037500 0.534735
v -0.288039 -0.037500 0.527932
v -0.500830 -0.037500 0.495428
v -0.456045 -0.037500 0.286355
v -0.442955 -0.037500 0.162367
v -0.465309 -0.037500 0.083945
v -0.537564 -0.037500 0.085298
v -0.633160 -0.037500 0.121739
v -0.715284 -0.037500 0.128857
v -0.753844 -0.037500 0.063296
v -0.745606 -0.037500 -0.034078
v -0.694055 -0.037500 -0.101341
v -0.607627 -0.037500 -0.097595
v -0.514565 -0.037498 -0.066040
v -0.448061 -0.037500 -0.070902
v -0.431575 -0.037498 -0.156493
v -0.449650 -0.037500 -0.287462
v -0.500830 -0.037498 -0.506269
v -0.283458 -0.037500 -0.550072
v -0.152891 -0.037500 -0.562740
v -0.066532 -0.037498 -0.540486
v -0.059459 -0.037500 -0.469013
v -0.089236 -0.037500 -0.374039
v -0.094054 -0.037500 -0.291281
v -0.031962 -0.037500 -0.249769
v 0.059537 -0.037500 -0.251771
v 0.123079 -0.037500 -0.292864
v 0.120756 -0.037498 -0.364960
v 0.092487 -0.037500 -0.445294
v 0.097649 -0.037500 -0.507437
v 0.177216 -0.037500 -0.532259
v 0.298558 -0.037500 -0.529853
v 0.501080 -0.037500 -0.506270
v 0.303228 0.037500 0.547147
v 0.185301 0.037500 0.564920
v 0.109363 0.037500 0.546824
v 0.109363 0.037500 0.546824
v 0.107441 0.037500 0.477160
v -0.073697 0.037500 0.510668
v -0.073697 0.037500 0.510668
v -0.159715 0.037500 0.534735
v -0.288039 0.037500 0.527932
v 0.501080 0.037500 0.495428
v 0.501080 0.037500 0.495428
v -0.063923 0.037500 0.443797
v -0.500830 0.037500 0.495428
v -0.500830 0.037500 0.495428
v 0.137846 0.037500 0.381182
v -0.088825 0.037500 0.356731
v -0.456045 0.037500 0.286355
v 0.140456 0.037500 0.294384
v -0.087963 0.037500 0.280716
v 0.074845 0.037500 0.246212
v 0.473834 0.037500 0.165698
v -0.442955 0.037500 0.162367
v -0.020641 0.037500 0.241920
v 0.494495 0.037500 0.089505
v 0.494495 0.037500 0.089505
v -0.465309 0.037500 0.083945
v -0.465309 0.037500 0.083945
v 0.715650 0.037500 0.068385
v 0.681860 0.037500 0.138135
v 0.681860 0.037500 0.138135
v 0.619380 0.037500 0.131751
v 0.548851 0.037500 0.093531
v -0.633160 0.037500 0.121739
v -0.715284 0.037500 0.128857
v -0.715284 0.037500 0.128857
v -0.753844 0.037500 0.063296
v -0.537564 0.037500 0.085298
v 0.714404 0.037500 -0.034877
v -0.745606 0.037500 -0.034078
v -0.694055 0.037500 -0.101341
v 0.675357 0.037500 -0.107294
v 0.675357 0.037500 -0.107294
v -0.514565 0.037500 -0.066040
v -0.448061 0.037500 -0.070902
v -0.448061 0.037500 -0.070902
v -0.607627 0.037500 -0.097595
v 0.457588 0.037500 -0.078273
v 0.457588 0.037500 -0.078273
v 0.518382 0.037500 -0.074719
v -0.431575 0.037500 -0.156493
v 0.601444 0.037500 -0.106078
v 0.441495 0.037500 -0.161832
v -0.449650 0.037500 -0.287462
v -0.031962 0.037500 -0.249769
v 0.059537 0.037500 -0.251771
v -0.094054 0.037500 -0.291281
v 0.123079 0.037500 -0.292864
v -0.089236 0.037500 -0.374039
v 0.120756 0.037500 -0.364960
v 0.092487 0.037500 -0.445294
v -0.059459 0.037500 -0.469013
v 0.097649 0.037500 -0.507437
v 0.097649 0.037500 -0.507437
v -0.066532 0.037500 -0.540486
v -0.066532 0.037500 -0.540486
v -0.500830 0.037500 -0.506269
v -0.500830 0.037500 -0.506269
v 0.501080 0.037500 -0.506270
v 0.501080 0.037500 -0.506270
v 0.177216 0.037500 -0.532259
v 0.298558 0.037500 -0.529853
v -0.283458 0.037500 -0.550072
v -0.152891 0.037500 -0.562740
v 0.303228 -0.037498 0.547147
v 0.185301 -0.037500 0.564920
v 0.109363 -0.037498 0.546824
v 0.109363 -0.037498 0.546824
v 0.107441 -0.037500 0.477160
v -0.073697 -0.037500 0.510668
v -0.073697 -0.037500 0.510668
v -0.159715 -0.037500 0.534735
v -0.288039 -0.037500 0.527932
v 0.501080 -0.037500 0.495428
v 0.501080 -0.037500 0.495428
v -0.063923 -0.037500 0.443797
v -0.500830 -0.037500 0.495428
v -0.500830 -0.037500 0.495428
v 0.137846 -0.037500 0.381182
v -0.088825 -0.037500 0.356731
v -0.456045 -0.037500 0.286355
v 0.140456 -0.037500 0.294384
v -0.087963 -0.037500 0.280716
v 0.074845 -0.037500 0.246212
v 0.473834 -0.037500 0.165698
v -0.442955 -0.037500 0.162367
v -0.020641 -0.037500 0.241920
v 0.494495 -0.037500 0.089505
v 0.494495 -0.037500 0.089505
v -0.465309 -0.037500 0.083945
v -0.465309 -0.037500 0.083945
v 0.715650 -0.037500 0.068385
v 0.681860 -0.037500 0.138135
v 0.681860 -0.037500 0.138135
v 0.619380 -0.037500 0.131751
v 0.548851 -0.037500 0.093531
v -0.633160 -0.037500 0.121739
v -0.715284 -0.037500 0.128857
v -0.715284 -0.037500 0.128857
v -0.753844 -0.037500 0.063296
v -0.537564 -0.037500 0.085298
v 0.714404 -0.037500 -0.034877
v -0.745606 -0.037500 -0.034078
v -0.694055 -0.037500 -0.101341
v 0.675357 -0.037500 -0.107294
v 0.675357 -0.037500 -0.107294
v -0.514565 -0.037498 -0.066040
v -0.448061 -0.037500 -0.070902
v -0.448061 -0.037500 -0.070902
v -0.607627 -0.037500 -0.097595
v 0.457588 -0.037500 -0.078273
v 0.457588 -0.037500 -0.078273
v 0.518382 -0.037500 -0.074719
v -0.431575 -0.037498 -0.156493
v 0.601444 -0.037500 -0.106078
v 0.441495 -0.037500 -0.161832
v -0.449650 -0.037500 -0.287462
v -0.031962 -0.037500 -0.249769
v 0.059537 -0.037500 -0.251771
v -0.094054 -0.037500 -0.291281
v 0.123079 -0.037500 -0.292864
v -0.089236 -0.037500 -0.374039
v 0.120756 -0.037498 -0.364960
v 0.092487 -0.037500 -0.445294
v -0.059459 -0.037500 -0.469013
v 0.097649 -0.037500 -0.507437
v 0.097649 -0.037500 -0.507437
v -0.066532 -0.037498 -0.540486
v -0.066532 -0.037498 -0.540486
v -0.500830 -0.037498 -0.506269
v -0.500830 -0.037498 -0.506269
v 0.501080 -0.037500 -0.506270
v 0.501080 -0.037500 -0.506270
v 0.177216 -0.037500 -0.532259
v 0.298558 -0.037500 -0.529853
v -0.283458 -0.037500 -0.550072
v -0.152891 -0.037500 -0.562740
vt 0.500000 0.500000
vt 0.500000 0.500000
vt 0.500000 0.500000
vt 0.500000 0.500000
vt 0.500000 0.500000
vt 0.500000 0.500000
vt 0.500000 0.500000
vt 0.500000 0.500000
vt 0.500000 0.500000
vt 0.500000 0.500000
vt 0.500000 0.500000
vt 0.500000 0.500000
vt 0.500000 0.500000
vt 0.500000 0.500000
vt 0.500000 0.500000
vt 0.500000 0.500000
vt 0.500000 0.500000
vt 0.500000 0.500000
vt 0.500000 0.500000
vt 0.500000 0.500000
vt 0.500000 0.500000
vt 0.500000 0.500000
vt 0.500000 0.500000
vt 0.500000 0.500000
vt 0.500000 0.500000
vt 0.500000 0.500000
vt 0.500000 0.500000
vt 0.500000 0.500000
vt 0.500000 0.500000
vt 0.500000 0.500000
vt 0.500000 0.500000
vt 0.500000 0.500000
vt 0.500000 0.500000
vt 0.500000 0.500000
vt 0.500000 0.500000
vt 0.500000 0.500000
vt 0.500000 0.500000
vt 0.500000 0.500000
vt 0.500000 0.500000
vt 0.500000 0.500000
vt 0.500000 0.500000
vt 0.500000 0.500000
vt 0.500000 0.500000
vt 0.500000 0.500000
vt 0.500000 0.500000
vt 0.500000 0.500000
vt 0.500000 0.500000
vt 0.500000 0.500000
vt 0.500000 0.500000
vt 0.500000 0.500000
vt 0.500000 0.500000
vt 0.500000 0.500000
vt 0.500000 0.500000
vt 0.500000 0.500000
vt 0.500000 0.500000
vt 0.500000 0.500000
vt 0.500000 0.500000
vt 0.500000 0.500000
vt 0.500000 0.500000
vt 0.500000 0.500000
vt 0.500000 0.500000
vt 0.500000 0.500000
vt 0.500000 0.500000
vt 0.500000 0.500000
vt 0.500000 0.500000
vt 0.500000 0.500000
vt 0.500000 0.500000
vt 0.500000 0.500000
vt 0.500000 0.500000
vt 0.500000 0.500000
vt 0.500000 0.500000
vt 0.500000 0.500000
vt 0.500000 0.500000
vt 0.500000 0.500000
vt 0.500000 0.500000
vt 0.500000 0.500000
vt 0.500000 0.500000
vt 0.500000 0.500000
vt 0.500000 0.500000
vt 0.500000 0.500000
vt 0.500000 0.500000
vt 0.500000 0.500000
vt 0.500000 0.500000
vt 0.500000 0.500000
vt 0.500000 0.500000
vt 0.500000 0.500000
vt 0.500000 0.500000
vt 0.500000 0.500000
vt 0.500000 0.500000
vt 0.500000 0.500000
vt 0.500000 0.500000
vt 0.500000 0.500000
vt 0.500000 0.500000
vt 0.500000 0.500000
vt 0.500000 0.500000
vt 0.500000 0.500000
vt 0.500000 0.500000
vt 0.500000 0.500000
vt 0.500000 0.500000
vt 0.500000 0.500000
vt 0.500000 0.500000
vt 0.500000 0.500000
vt 0.500000 0.500000
vt 0.500000 0.500000
vt 0.500000 0.500000
vt 0.500000 0.500000
vt 0.500000 0.500000
vt 0.500000 0.500000
vt 0.500000 0.500000
vt 0.500000 0.500000
vt 0.500000 0.500000
vt 0.500000 0.500000
vt 0.500000 0.500000
vt 0.500000 0.500000
vt 0.500000 0.500000
vt 0.500000 0.500000
vt 0.500000 0.500000
vt 0.500000 0.500000
vt 0.500000 0.500000
vt 0.500000 0.500000
vt 0.500000 0.500000
vt 0.500000 0.500000
vt 0.500000 0.500000
vt 0.500000 0.500000
vt 0.500000 0.500000
vt 0.500000 0.500000
vt 0.500000 0.500000
vt 0.500000 0.500000
vt 0.500000 0.500000
vt 0.500000 0.500000
vt 0.500000 0.500000
vt 0.500000 0.500000
vt 0.500000 0.500000
vt 0.500000 0.500000
vt 0.500000 0.500000
vt 0.500000 0.500000
vt 0.500000 0.500000
vt 0.500000 0.500000
vt 0.500000 0.500000
vt 0.500000 0.500000
vt 0.500000 0.500000
vt 0.500000 0.500000
vt 0.500000 0.500000
vt 0.500000 0.500000
vt 0.500000 0.500000
vt 0.500000 0.500000
vt 0.500000 0.500000
vt 0.500000 0.500000
vt 0.500000 0.500000
vt 0.500000 0.500000
vt 0.500000 0.500000
vt 0.500000 0.500000
vt 0.500000 0.500000
vt 0.500000 0.500000
vt 0.500000 0.500000
vt 0.500000 0.500000
vt 0.500000 0.500000
vt 0.500000 0.500000
vt 0.500000 0.500000
vt 0.500000 0.500000
vt 0.500000 0.500000
vt 0.500000 0.500000
vt 0.500000 0.500000
vt 0.500000 0.500000
vt 0.500000 0.500000
vt 0.500000 0.500000
vt 0.500000 0.500000
vt 0.500000 0.500000
vt 0.500000 0.500000
vt 0.500000 0.500000
vt 0.500000 0.500000
vt 0.500000 0.500000
vt 0.500000 0.500000
vt 0.500000 0.500000
vt 0.500000 0.500000
vt 0.500000 0.500000
vt 0.500000 0.500000
vt 0.500000 0.500000
vt 0.500000 0.500000
vt 0.500000 0.500000
vt 0.500000 0.500000
vt 0.500000 0.500000
vt 0.500000 0.500000
vt 0.500000 0.500000
vt 0.500000 0.500000
vt 0.500000 0.500000
vt 0.500000 0.500000
vt 0.500000 0.500000
vt 0.500000 0.500000
vt 0.500000 0.500000
vt 0.500000 0.500000
vt 0.500000 0.500000
vt 0.500000 0.500000
vt 0.500000 0.500000
vt 0.500000 0.500000
vt 0.500000 0.500000
vt 0.500000 0.500000
vt 0.500000 0.500000
vt 0.500000 0.500000
vt 0.500000 0.500000
vt 0.500000 0.500000
vt 0.500000 0.500000
vt 0.500000 0.500000
vt 0.500000 0.500000
vt 0.206347 0.862462
vt 0.199410 0.861678
vt 0.199462 0.858456
vt 0.208607 0.862336
vt 0.207614 0.857213
vt 0.210142 0.857102
vt 0.204159 0.856235
vt 0.224704 0.874430
vt 0.224624 0.876603
vt 0.221466 0.877168
vt 0.223439 0.871436
vt 0.203414 0.863654
vt 0.200815 0.863854
vt 0.258919 0.863564
vt 0.255503 0.863342
vt 0.260522 0.861519
vt 0.247806 0.857332
vt 0.250571 0.857484
vt 0.248523 0.862163
vt 0.241151 0.876014
vt 0.235814 0.876226
vt 0.232866 0.870673
vt 0.254441 0.856499
vt 0.251528 0.862205
vt 0.209466 0.864713
vt 0.226059 0.867225
vt 0.210811 0.854495
vt 0.224053 0.850408
vt 0.223331 0.868728
vt 0.226696 0.851690
vt 0.230501 0.851752
vt 0.230030 0.867091
vt 0.248138 0.868478
vt 0.247593 0.864609
vt 0.232830 0.868302
vt 0.216561 0.876614
vt 0.231645 0.844912
vt 0.231939 0.842683
vt 0.235530 0.841988
vt 0.216756 0.843014
vt 0.224150 0.848158
vt 0.247120 0.854662
vt 0.233083 0.850457
vt 0.240960 0.842384
vt 0.232883 0.847875
vt 0.260180 0.858481
vt 0.247871 0.850576
vt 0.258036 0.856383
vt 0.250000 0.843750
vt 0.221802 0.842939
vt 0.225111 0.843714
vt 0.225326 0.845652
vt 0.231830 0.873389
vt 0.250000 0.875000
vt 0.208333 0.843750
vt 0.232237 0.875475
vt 0.208333 0.875000
vt 0.201086 0.856197
vn 0.0000 -1.0000 0.0000
vn 0.1490 0.0000 0.9888
vn -0.2318 0.0000 0.9728
vn -0.9996 0.0000 0.0276
vn 0.2694 0.0000 0.9630
vn -0.0529 0.0000 0.9986
vn 0.2529 0.0000 0.9675
vn 0.9895 0.0000 0.1446
vn -0.1510 0.0000 0.9885
vn -0.9533 0.0000 -0.3020
vn 0.9614 0.0000 -0.2750
vn -0.9778 0.0000 -0.2095
vn -0.9995 0.0000 -0.0301
vn 0.9999 0.0000 0.0113
vn -0.5918 0.0000 0.8061
vn 0.9966 0.0000 -0.0824
vn -0.9945 0.0000 -0.1050
vn 0.4993 0.0000 0.8664
vn -0.0449 0.0000 0.9990
vn 0.9651 0.0000 0.2617
vn -0.9617 0.0000 0.2741
vn 0.9000 0.0000 0.4360
vn -0.1017 0.0000 0.9948
vn -0.4765 0.0000 0.8792
vn 0.0863 0.0000 0.9963
vn -0.8620 0.0000 0.5070
vn 0.3562 0.0000 0.9344
vn -0.0739 0.0000 0.9973
vn 0.0187 0.0000 0.9998
vn 0.9999 0.0000 -0.0121
vn -0.9964 0.0000 -0.0843
vn -0.7937 0.0000 -0.6083
vn 0.8802 0.0000 -0.4746
vn -0.0729 0.0000 -0.9973
vn 0.3211 0.0000 -0.9470
vn 0.0433 0.0000 -0.9991
vn 0.0584 0.0000 -0.9983
vn -0.9820 0.0000 -0.1891
vn -0.0164 0.0000 -0.9999
vn -0.3532 0.0000 -0.9355
vn 0.9820 0.0000 -0.1891
vn -0.9906 0.0000 0.1367
vn -0.0219 0.0000 -0.9998
vn 0.5558 0.0000 -0.8313
vn -0.5430 0.0000 -0.8397
vn 0.9983 0.0000 0.0581
vn -0.9995 0.0000 0.0322
vn -0.9433 0.0000 0.3319
vn 0.9542 0.0000 0.2992
vn -0.9966 0.0000 -0.0828
vn 0.9951 0.0000 -0.0985
vn -0.9737 0.0000 0.2278
vn 0.9854 0.0000 0.1705
vn -0.2978 0.0000 -0.9546
vn 0.1157 0.0000 -0.9933
vn 0.0198 0.0000 -0.9998
vn -0.1975 0.0000 -0.9803
vn 0.2495 0.0000 -0.9684
vn -0.0966 0.0000 -0.9953
vn 0.0000 1.0000 -0.0000
usemtl BackMat.001
s off
f 221/1/1 227/2/1 217/3/1
f 213/4/1 236/5/1 238/6/1
f 227/2/1 221/1/1 240/7/1
f 194/8/1 191/9/1 192/10/1
f 204/11/1 191/9/1 194/8/1
f 220/12/1 217/3/1 218/13/1
f 223/14/1 225/15/1 222/16/1
f 233/17/1 215/18/1 232/19/1
f 221/1/1 217/3/1 220/12/1
f 198/20/1 205/21/1 197/22/1
f 232/19/1 226/23/1 235/24/1
f 210/25/1 209/26/1 213/4/1
f 236/5/1 246/27/1 241/28/1
f 207/29/1 209/26/1 210/25/1
f 209/26/1 244/30/1 236/5/1
f 213/4/1 238/6/1 221/1/1
f 243/31/1 244/30/1 212/32/1
f 206/33/1 205/21/1 198/20/1
f 211/34/1 208/35/1 206/33/1
f 207/29/1 190/36/1 204/11/1
f 250/37/1 262/38/1 253/39/1
f 260/40/1 246/27/1 248/41/1
f 238/6/1 240/7/1 221/1/1
f 215/18/1 233/17/1 208/35/1
f 239/42/1 245/43/1 233/17/1
f 233/17/1 245/43/1 243/31/1
f 262/38/1 247/44/1 261/45/1
f 208/35/1 233/17/1 212/32/1
f 225/15/1 228/46/1 222/16/1
f 247/44/1 245/43/1 242/47/1
f 261/45/1 247/44/1 242/47/1
f 229/48/1 235/24/1 228/46/1
f 241/28/1 246/27/1 260/40/1
f 215/18/1 208/35/1 211/34/1
f 222/16/1 228/46/1 235/24/1
f 226/23/1 232/19/1 215/18/1
f 261/45/1 242/47/1 255/49/1
f 260/40/1 248/41/1 259/50/1
f 244/30/1 246/27/1 236/5/1
f 259/50/1 249/51/1 251/52/1
f 208/35/1 205/21/1 206/33/1
f 222/16/1 235/24/1 226/23/1
f 201/53/1 197/22/1 205/21/1
f 206/33/1 198/20/1 202/54/1
f 233/17/1 243/31/1 212/32/1
f 241/28/1 260/40/1 257/55/1
f 242/47/1 245/43/1 239/42/1
f 195/56/1 197/22/1 201/53/1
f 190/36/1 207/29/1 210/25/1
f 190/36/1 210/25/1 199/57/1
f 209/26/1 236/5/1 213/4/1
f 259/50/1 248/41/1 249/51/1
f 191/9/1 204/11/1 190/36/1
f 227/2/1 240/7/1 230/58/1
f 212/32/1 244/30/1 209/26/1
f 247/44/1 262/38/1 250/37/1
f 14/59/2 15/60/2 73/61/2 72/62/2
f 15/60/3 120/63/3 193/64/3 73/61/3
f 16/65/4 17/66/4 75/67/4 74/68/4
f 123/69/5 26/70/5 84/71/5 196/72/5
f 26/70/6 27/73/6 85/74/6 84/71/6
f 127/75/7 14/59/7 72/62/7 200/76/7
f 24/77/8 25/78/8 83/79/8 82/80/8
f 27/73/9 130/81/9 203/82/9 85/74/9
f 17/66/10 18/83/10 76/84/10 75/67/10
f 23/85/11 24/77/11 82/80/11 81/86/11
f 28/87/12 29/88/12 87/89/12 86/90/12
f 18/83/13 19/91/13 77/92/13 76/84/13
f 22/93/14 23/85/14 81/86/14 80/94/14
f 19/91/15 20/95/15 78/96/15 77/92/15
f 12/97/16 13/98/16 71/99/16 70/100/16
f 29/88/17 30/101/17 88/102/17 87/89/17
f 21/103/18 22/93/18 80/94/18 79/104/18
f 20/95/19 21/103/19 79/104/19 78/96/19
f 141/105/20 12/97/20 70/100/20 214/106/20
f 30/101/21 143/107/21 216/108/21 88/102/21
f 7/109/22 146/110/22 219/111/22 65/112/22
f 8/113/23 9/114/23 67/115/23 66/116/23
f 9/114/24 10/117/24 68/118/24 67/115/24
f 33/119/25 151/120/25 224/121/25 91/122/25
f 34/123/26 35/124/26 93/125/26 92/126/26
f 32/127/27 33/119/27 91/122/27 90/128/27
f 10/117/28 11/129/28 69/130/28 68/118/28
f 31/131/29 32/127/29 90/128/29 89/132/29
f 6/133/30 7/109/30 65/112/30 64/134/30
f 35/124/31 36/135/31 94/136/31 93/125/31
f 36/135/32 37/137/32 95/138/32 94/136/32
f 158/139/33 6/133/33 64/134/33 231/140/33
f 39/141/34 161/142/34 234/143/34 97/144/34
f 38/145/35 39/141/35 97/144/35 96/146/35
f 37/137/36 38/145/36 96/146/36 95/138/36
f 164/147/37 3/148/37 61/149/37 237/150/37
f 40/151/38 41/152/38 99/153/38 98/154/38
f 4/155/39 5/156/39 63/157/39 62/158/39
f 3/148/40 4/155/40 62/158/40 61/149/40
f 1/159/41 2/160/41 60/161/41 59/162/41
f 41/152/42 42/163/42 100/164/42 99/153/42
f 50/165/43 51/166/43 109/167/43 108/168/43
f 49/169/44 50/165/44 108/168/44 107/170/44
f 51/166/45 52/171/45 110/172/45 109/167/45
f 48/173/46 49/169/46 107/170/46 106/174/46
f 52/171/47 53/175/47 111/176/47 110/172/47
f 53/175/48 54/177/48 112/178/48 111/176/48
f 47/179/49 48/173/49 106/174/49 105/180/49
f 54/177/50 179/181/50 252/182/50 112/178/50
f 181/183/51 47/179/51 105/180/51 254/184/51
f 42/163/52 183/185/52 256/186/52 100/164/52
f 185/187/53 1/159/53 59/162/53 258/188/53
f 55/189/54 56/190/54 114/191/54 113/192/54
f 57/193/55 58/194/55 116/195/55 115/196/55
f 56/190/56 57/193/56 115/196/56 114/191/56
f 43/197/57 44/198/57 102/199/57 101/200/57
f 45/201/58 46/202/58 104/203/58 103/204/58
f 44/198/59 45/201/59 103/204/59 102/199/59
usemtl FrontMat.001
f 148/205/60 144/206/60 154/207/60
f 140/208/60 165/209/60 163/210/60
f 154/207/60 167/211/60 148/205/60
f 121/212/60 119/213/60 118/214/60
f 131/215/60 121/212/60 118/214/60
f 147/216/60 145/217/60 144/206/60
f 150/218/60 149/219/60 152/220/60
f 160/221/60 159/222/60 142/223/60
f 148/205/60 147/216/60 144/206/60
f 125/224/60 124/225/60 132/226/60
f 159/222/60 162/227/60 153/228/60
f 137/229/60 140/208/60 136/230/60
f 163/210/60 168/231/60 173/232/60
f 134/233/60 137/229/60 136/230/60
f 136/230/60 163/210/60 171/234/60
f 140/208/60 148/205/60 165/209/60
f 170/235/60 139/236/60 171/234/60
f 133/237/60 125/224/60 132/226/60
f 138/238/60 133/237/60 135/239/60
f 134/233/60 131/215/60 117/240/60
f 177/241/60 180/242/60 189/243/60
f 187/244/60 175/245/60 173/232/60
f 165/209/60 148/205/60 167/211/60
f 142/223/60 135/239/60 160/221/60
f 166/246/60 160/221/60 172/247/60
f 160/221/60 170/235/60 172/247/60
f 189/243/60 188/248/60 174/249/60
f 135/239/60 139/236/60 160/221/60
f 152/220/60 149/219/60 155/250/60
f 174/249/60 169/251/60 172/247/60
f 188/248/60 169/251/60 174/249/60
f 156/252/60 155/250/60 162/227/60
f 168/231/60 187/244/60 173/232/60
f 142/223/60 138/238/60 135/239/60
f 149/219/60 162/227/60 155/250/60
f 153/228/60 142/223/60 159/222/60
f 188/248/60 182/253/60 169/251/60
f 187/244/60 186/254/60 175/245/60
f 171/234/60 163/210/60 173/232/60
f 186/254/60 178/255/60 176/256/60
f 135/239/60 133/237/60 132/226/60
f 149/219/60 153/228/60 162/227/60
f 128/257/60 132/226/60 124/225/60
f 133/237/60 129/258/60 125/224/60
f 160/221/60 139/236/60 170/235/60
f 168/231/60 184/259/60 187/244/60
f 169/251/60 166/246/60 172/247/60
f 122/260/60 128/257/60 124/225/60
f 117/240/60 137/229/60 134/233/60
f 117/240/60 126/261/60 137/229/60
f 136/230/60 140/208/60 163/210/60
f 186/254/60 176/256/60 175/245/60
f 118/214/60 117/240/60 131/215/60
f 154/207/60 157/262/60 167/211/60
f 139/236/60 136/230/60 171/234/60
f 174/249/60 177/241/60 189/243/60
