# Blender v2.83.1 OBJ File: 'jigsaw-24x32-3-step2.blend'
# www.blender.org
mtllib piece.377.mtl
o path754
v 0.250725 0.037500 0.536986
v 0.115430 0.037500 0.548256
v 0.027368 0.037500 0.526150
v 0.023410 0.037500 0.457043
v 0.058699 0.037500 0.364986
v 0.067937 0.037500 0.283453
v 0.006520 0.037500 0.240286
v -0.087399 0.037500 0.240795
v -0.154982 0.037500 0.284655
v -0.156866 0.037500 0.366037
v -0.131589 0.037500 0.457455
v -0.137154 0.037500 0.525940
v -0.213754 0.037500 0.547827
v -0.330297 0.037500 0.536657
v -0.524677 0.037500 0.496311
v -0.551630 0.037500 0.298595
v -0.556952 0.037500 0.181465
v -0.536066 0.037500 0.107649
v -0.478936 0.037500 0.109253
v -0.404836 0.037500 0.142342
v -0.340368 0.037500 0.143969
v -0.307494 0.037500 0.072350
v -0.309562 0.037500 -0.029705
v -0.345277 0.037500 -0.098230
v -0.409416 0.037500 -0.091238
v -0.481200 0.037500 -0.054653
v -0.535940 0.037500 -0.056381
v -0.555840 0.037500 -0.143356
v -0.524677 0.037500 -0.505598
v -0.329320 0.037500 -0.537119
v -0.213222 0.037500 -0.543516
v -0.139223 0.037500 -0.519608
v -0.139069 0.037500 -0.453720
v -0.170885 0.037500 -0.368057
v -0.174402 0.037500 -0.293291
v -0.109241 0.037500 -0.254841
v -0.014590 0.037500 -0.257124
v 0.050469 0.037500 -0.299303
v 0.047236 0.037500 -0.375624
v 0.018521 0.037500 -0.461031
v 0.027521 0.037500 -0.525587
v 0.117585 0.037500 -0.547752
v 0.252670 0.037500 -0.539618
v 0.477020 0.037500 -0.505598
v 0.433003 0.037500 -0.276423
v 0.419472 0.037500 -0.138855
v 0.439500 0.037500 -0.048065
v 0.507010 0.037500 -0.041262
v 0.597021 0.037500 -0.074467
v 0.674845 0.037500 -0.083412
v 0.712145 0.037500 -0.024105
v 0.706017 0.037500 0.066338
v 0.659908 0.037500 0.130514
v 0.581692 0.037500 0.130190
v 0.496929 0.037500 0.103785
v 0.435603 0.037500 0.108883
v 0.418979 0.037500 0.185310
v 0.433468 0.037500 0.301834
v 0.477020 0.037500 0.496311
v 0.250725 -0.037500 0.536986
v 0.115430 -0.037500 0.548256
v 0.027368 -0.037498 0.526150
v 0.023410 -0.037500 0.457043
v 0.058699 -0.037500 0.364986
v 0.067937 -0.037500 0.283453
v 0.006520 -0.037500 0.240286
v -0.087399 -0.037500 0.240795
v -0.154982 -0.037500 0.284655
v -0.156866 -0.037500 0.366037
v -0.131589 -0.037498 0.457455
v -0.137154 -0.037500 0.525940
v -0.213754 -0.037500 0.547827
v -0.330297 -0.037500 0.536657
v -0.524677 -0.037500 0.496311
v -0.551630 -0.037500 0.298595
v -0.556952 -0.037500 0.181465
v -0.536066 -0.037500 0.107649
v -0.478936 -0.037500 0.109253
v -0.404836 -0.037498 0.142342
v -0.340368 -0.037500 0.143969
v -0.307494 -0.037498 0.072350
v -0.309562 -0.037500 -0.029705
v -0.345277 -0.037500 -0.098230
v -0.409416 -0.037500 -0.091238
v -0.481200 -0.037500 -0.054653
v -0.535940 -0.037498 -0.056381
v -0.555840 -0.037500 -0.143356
v -0.524677 -0.037500 -0.505598
v -0.329320 -0.037500 -0.537119
v -0.213222 -0.037500 -0.543516
v -0.139223 -0.037500 -0.519608
v -0.139069 -0.037500 -0.453720
v -0.170885 -0.037500 -0.368057
v -0.174402 -0.037500 -0.293291
v -0.109241 -0.037500 -0.254841
v -0.014590 -0.037500 -0.257124
v 0.050469 -0.037500 -0.299303
v 0.047236 -0.037500 -0.375624
v 0.018521 -0.037500 -0.461031
v 0.027521 -0.037500 -0.525587
v 0.117585 -0.037500 -0.547752
v 0.252670 -0.037500 -0.539618
v 0.477020 -0.037498 -0.505598
v 0.433003 -0.037500 -0.276423
v 0.419472 -0.037500 -0.138855
v 0.439500 -0.037500 -0.048065
v 0.507010 -0.037500 -0.041262
v 0.597021 -0.037500 -0.074467
v 0.674845 -0.037500 -0.083412
v 0.712145 -0.037500 -0.024105
v 0.706017 -0.037498 0.066338
v 0.659908 -0.037500 0.130514
v 0.581692 -0.037498 0.130190
v 0.496929 -0.037500 0.103785
v 0.435603 -0.037500 0.108883
v 0.418979 -0.037500 0.185310
v 0.433468 -0.037500 0.301834
v 0.477020 -0.037498 0.496311
v -0.551630 0.037500 0.298595
v -0.556952 0.037500 0.181465
v -0.536066 0.037500 0.107649
v -0.536066 0.037500 0.107649
v -0.535940 0.037500 -0.056381
v -0.535940 0.037500 -0.056381
v -0.555840 0.037500 -0.143356
v -0.524677 0.037500 0.496311
v -0.524677 0.037500 0.496311
v -0.478936 0.037500 0.109253
v -0.481200 0.037500 -0.054653
v -0.524677 0.037500 -0.505598
v -0.524677 0.037500 -0.505598
v -0.409416 0.037500 -0.091238
v -0.404836 0.037500 0.142342
v -0.330297 0.037500 0.536657
v -0.329320 0.037500 -0.537119
v -0.345277 0.037500 -0.098230
v -0.345277 0.037500 -0.098230
v -0.340368 0.037500 0.143969
v -0.340368 0.037500 0.143969
v -0.309562 0.037500 -0.029705
v -0.307494 0.037500 0.072350
v -0.213754 0.037500 0.547827
v -0.213222 0.037500 -0.543516
v -0.137154 0.037500 0.525940
v -0.137154 0.037500 0.525940
v -0.170885 0.037500 -0.368057
v -0.174402 0.037500 -0.293291
v -0.174402 0.037500 -0.293291
v -0.139223 0.037500 -0.519608
v -0.139223 0.037500 -0.519608
v -0.154982 0.037500 0.284655
v -0.156866 0.037500 0.366037
v -0.109241 0.037500 -0.254841
v -0.139069 0.037500 -0.453720
v -0.131589 0.037500 0.457455
v -0.087399 0.037500 0.240795
v -0.014590 0.037500 -0.257124
v 0.006520 0.037500 0.240286
v 0.050469 0.037500 -0.299303
v 0.067937 0.037500 0.283453
v 0.067937 0.037500 0.283453
v 0.047236 0.037500 -0.375624
v 0.018521 0.037500 -0.461031
v 0.027521 0.037500 -0.525587
v 0.027521 0.037500 -0.525587
v 0.027368 0.037500 0.526150
v 0.027368 0.037500 0.526150
v 0.023410 0.037500 0.457043
v 0.058699 0.037500 0.364986
v 0.115430 0.037500 0.548256
v 0.117585 0.037500 -0.547752
v 0.250725 0.037500 0.536986
v 0.252670 0.037500 -0.539618
v 0.418979 0.037500 0.185310
v 0.433468 0.037500 0.301834
v 0.435603 0.037500 0.108883
v 0.435603 0.037500 0.108883
v 0.419472 0.037500 -0.138855
v 0.439500 0.037500 -0.048065
v 0.439500 0.037500 -0.048065
v 0.433003 0.037500 -0.276423
v 0.496929 0.037500 0.103785
v 0.507010 0.037500 -0.041262
v 0.477020 0.037500 0.496311
v 0.477020 0.037500 0.496311
v 0.477020 0.037500 -0.505598
v 0.477020 0.037500 -0.505598
v 0.581692 0.037500 0.130190
v 0.597021 0.037500 -0.074467
v 0.659908 0.037500 0.130514
v 0.674845 0.037500 -0.083412
v 0.674845 0.037500 -0.083412
v 0.706017 0.037500 0.066338
v 0.712145 0.037500 -0.024105
v -0.551630 -0.037500 0.298595
v -0.556952 -0.037500 0.181465
v -0.536066 -0.037500 0.107649
v -0.536066 -0.037500 0.107649
v -0.535940 -0.037498 -0.056381
v -0.535940 -0.037498 -0.056381
v -0.555840 -0.037500 -0.143356
v -0.524677 -0.037500 0.496311
v -0.524677 -0.037500 0.496311
v -0.478936 -0.037500 0.109253
v -0.481200 -0.037500 -0.054653
v -0.524677 -0.037500 -0.505598
v -0.524677 -0.037500 -0.505598
v -0.409416 -0.037500 -0.091238
v -0.404836 -0.037498 0.142342
v -0.330297 -0.037500 0.536657
v -0.329320 -0.037500 -0.537119
v -0.345277 -0.037500 -0.098230
v -0.345277 -0.037500 -0.098230
v -0.340368 -0.037500 0.143969
v -0.340368 -0.037500 0.143969
v -0.309562 -0.037500 -0.029705
v -0.307494 -0.037498 0.072350
v -0.213754 -0.037500 0.547827
v -0.213222 -0.037500 -0.543516
v -0.137154 -0.037500 0.525940
v -0.137154 -0.037500 0.525940
v -0.170885 -0.037500 -0.368057
v -0.174402 -0.037500 -0.293291
v -0.174402 -0.037500 -0.293291
v -0.139223 -0.037500 -0.519608
v -0.139223 -0.037500 -0.519608
v -0.154982 -0.037500 0.284655
v -0.156866 -0.037500 0.366037
v -0.109241 -0.037500 -0.254841
v -0.139069 -0.037500 -0.453720
v -0.131589 -0.037498 0.457455
v -0.087399 -0.037500 0.240795
v -0.014590 -0.037500 -0.257124
v 0.006520 -0.037500 0.240286
v 0.050469 -0.037500 -0.299303
v 0.067937 -0.037500 0.283453
v 0.067937 -0.037500 0.283453
v 0.047236 -0.037500 -0.375624
v 0.018521 -0.037500 -0.461031
v 0.027521 -0.037500 -0.525587
v 0.027521 -0.037500 -0.525587
v 0.027368 -0.037498 0.526150
v 0.027368 -0.037498 0.526150
v 0.023410 -0.037500 0.457043
v 0.058699 -0.037500 0.364986
v 0.115430 -0.037500 0.548256
v 0.117585 -0.037500 -0.547752
v 0.250725 -0.037500 0.536986
v 0.252670 -0.037500 -0.539618
v 0.418979 -0.037500 0.185310
v 0.433468 -0.037500 0.301834
v 0.435603 -0.037500 0.108883
v 0.435603 -0.037500 0.108883
v 0.419472 -0.037500 -0.138855
v 0.439500 -0.037500 -0.048065
v 0.439500 -0.037500 -0.048065
v 0.433003 -0.037500 -0.276423
v 0.496929 -0.037500 0.103785
v 0.507010 -0.037500 -0.041262
v 0.477020 -0.037498 0.496311
v 0.477020 -0.037498 0.496311
v 0.477020 -0.037498 -0.505598
v 0.477020 -0.037498 -0.505598
v 0.581692 -0.037498 0.130190
v 0.597021 -0.037500 -0.074467
v 0.659908 -0.037500 0.130514
v 0.674845 -0.037500 -0.083412
v 0.674845 -0.037500 -0.083412
v 0.706017 -0.037498 0.066338
v 0.712145 -0.037500 -0.024105
vt 0.500000 0.500000
vt 0.500000 0.500000
vt 0.500000 0.500000
vt 0.500000 0.500000
vt 0.500000 0.500000
vt 0.500000 0.500000
vt 0.500000 0.500000
vt 0.500000 0.500000
vt 0.500000 0.500000
vt 0.500000 0.500000
vt 0.500000 0.500000
vt 0.500000 0.500000
vt 0.500000 0.500000
vt 0.500000 0.500000
vt 0.500000 0.500000
vt 0.500000 0.500000
vt 0.500000 0.500000
vt 0.500000 0.500000
vt 0.500000 0.500000
vt 0.500000 0.500000
vt 0.500000 0.500000
vt 0.500000 0.500000
vt 0.500000 0.500000
vt 0.500000 0.500000
vt 0.500000 0.500000
vt 0.500000 0.500000
vt 0.500000 0.500000
vt 0.500000 0.500000
vt 0.500000 0.500000
vt 0.500000 0.500000
vt 0.500000 0.500000
vt 0.500000 0.500000
vt 0.500000 0.500000
vt 0.500000 0.500000
vt 0.500000 0.500000
vt 0.500000 0.500000
vt 0.500000 0.500000
vt 0.500000 0.500000
vt 0.500000 0.500000
vt 0.500000 0.500000
vt 0.500000 0.500000
vt 0.500000 0.500000
vt 0.500000 0.500000
vt 0.500000 0.500000
vt 0.500000 0.500000
vt 0.500000 0.500000
vt 0.500000 0.500000
vt 0.500000 0.500000
vt 0.500000 0.500000
vt 0.500000 0.500000
vt 0.500000 0.500000
vt 0.500000 0.500000
vt 0.500000 0.500000
vt 0.500000 0.500000
vt 0.500000 0.500000
vt 0.500000 0.500000
vt 0.500000 0.500000
vt 0.500000 0.500000
vt 0.500000 0.500000
vt 0.500000 0.500000
vt 0.500000 0.500000
vt 0.500000 0.500000
vt 0.500000 0.500000
vt 0.500000 0.500000
vt 0.500000 0.500000
vt 0.500000 0.500000
vt 0.500000 0.500000
vt 0.500000 0.500000
vt 0.500000 0.500000
vt 0.500000 0.500000
vt 0.500000 0.500000
vt 0.500000 0.500000
vt 0.500000 0.500000
vt 0.500000 0.500000
vt 0.500000 0.500000
vt 0.500000 0.500000
vt 0.500000 0.500000
vt 0.500000 0.500000
vt 0.500000 0.500000
vt 0.500000 0.500000
vt 0.500000 0.500000
vt 0.500000 0.500000
vt 0.500000 0.500000
vt 0.500000 0.500000
vt 0.500000 0.500000
vt 0.500000 0.500000
vt 0.500000 0.500000
vt 0.500000 0.500000
vt 0.500000 0.500000
vt 0.500000 0.500000
vt 0.500000 0.500000
vt 0.500000 0.500000
vt 0.500000 0.500000
vt 0.500000 0.500000
vt 0.500000 0.500000
vt 0.500000 0.500000
vt 0.500000 0.500000
vt 0.500000 0.500000
vt 0.500000 0.500000
vt 0.500000 0.500000
vt 0.500000 0.500000
vt 0.500000 0.500000
vt 0.500000 0.500000
vt 0.500000 0.500000
vt 0.500000 0.500000
vt 0.500000 0.500000
vt 0.500000 0.500000
vt 0.500000 0.500000
vt 0.500000 0.500000
vt 0.500000 0.500000
vt 0.500000 0.500000
vt 0.500000 0.500000
vt 0.500000 0.500000
vt 0.500000 0.500000
vt 0.500000 0.500000
vt 0.500000 0.500000
vt 0.500000 0.500000
vt 0.500000 0.500000
vt 0.500000 0.500000
vt 0.500000 0.500000
vt 0.500000 0.500000
vt 0.500000 0.500000
vt 0.500000 0.500000
vt 0.500000 0.500000
vt 0.500000 0.500000
vt 0.500000 0.500000
vt 0.500000 0.500000
vt 0.500000 0.500000
vt 0.500000 0.500000
vt 0.500000 0.500000
vt 0.500000 0.500000
vt 0.500000 0.500000
vt 0.500000 0.500000
vt 0.500000 0.500000
vt 0.500000 0.500000
vt 0.500000 0.500000
vt 0.500000 0.500000
vt 0.500000 0.500000
vt 0.500000 0.500000
vt 0.500000 0.500000
vt 0.500000 0.500000
vt 0.500000 0.500000
vt 0.500000 0.500000
vt 0.500000 0.500000
vt 0.500000 0.500000
vt 0.500000 0.500000
vt 0.500000 0.500000
vt 0.500000 0.500000
vt 0.500000 0.500000
vt 0.500000 0.500000
vt 0.500000 0.500000
vt 0.500000 0.500000
vt 0.500000 0.500000
vt 0.500000 0.500000
vt 0.500000 0.500000
vt 0.500000 0.500000
vt 0.500000 0.500000
vt 0.500000 0.500000
vt 0.500000 0.500000
vt 0.500000 0.500000
vt 0.500000 0.500000
vt 0.500000 0.500000
vt 0.500000 0.500000
vt 0.500000 0.500000
vt 0.500000 0.500000
vt 0.500000 0.500000
vt 0.500000 0.500000
vt 0.500000 0.500000
vt 0.500000 0.500000
vt 0.500000 0.500000
vt 0.500000 0.500000
vt 0.500000 0.500000
vt 0.500000 0.500000
vt 0.500000 0.500000
vt 0.500000 0.500000
vt 0.500000 0.500000
vt 0.500000 0.500000
vt 0.500000 0.500000
vt 0.500000 0.500000
vt 0.500000 0.500000
vt 0.500000 0.500000
vt 0.500000 0.500000
vt 0.500000 0.500000
vt 0.500000 0.500000
vt 0.500000 0.500000
vt 0.500000 0.500000
vt 0.500000 0.500000
vt 0.500000 0.500000
vt 0.500000 0.500000
vt 0.500000 0.500000
vt 0.500000 0.500000
vt 0.500000 0.500000
vt 0.500000 0.500000
vt 0.500000 0.500000
vt 0.500000 0.500000
vt 0.500000 0.500000
vt 0.500000 0.500000
vt 0.500000 0.500000
vt 0.500000 0.500000
vt 0.500000 0.500000
vt 0.500000 0.500000
vt 0.500000 0.500000
vt 0.500000 0.500000
vt 0.500000 0.500000
vt 0.500000 0.500000
vt 0.500000 0.500000
vt 0.500000 0.500000
vt 0.500000 0.500000
vt 0.500000 0.500000
vt 0.500000 0.500000
vt 0.500000 0.500000
vt 0.681879 0.494294
vt 0.684548 0.492856
vt 0.681893 0.496735
vt 0.702613 0.520213
vt 0.709910 0.521533
vt 0.709644 0.525155
vt 0.697905 0.518290
vt 0.699504 0.520323
vt 0.691392 0.525653
vt 0.672084 0.519775
vt 0.675469 0.519717
vt 0.681320 0.525500
vt 0.677293 0.517608
vt 0.698000 0.515337
vt 0.665426 0.514028
vt 0.664506 0.511281
vt 0.668300 0.514151
vt 0.674754 0.501359
vt 0.675519 0.512762
vt 0.672128 0.513050
vt 0.665434 0.519160
vt 0.668283 0.518987
vt 0.664524 0.521550
vt 0.693081 0.501795
vt 0.698803 0.501373
vt 0.699754 0.513307
vt 0.677314 0.514678
vt 0.689306 0.501171
vt 0.681387 0.527511
vt 0.682763 0.529823
vt 0.679760 0.532257
vt 0.674889 0.532091
vt 0.709748 0.506999
vt 0.702928 0.513408
vt 0.688309 0.492665
vt 0.690404 0.496256
vt 0.679600 0.501811
vt 0.682779 0.501292
vt 0.684298 0.524475
vt 0.688542 0.524539
vt 0.664989 0.525186
vt 0.664975 0.507060
vt 0.708333 0.531250
vt 0.710086 0.511213
vt 0.693269 0.532222
vt 0.691101 0.527654
vt 0.689652 0.531601
vt 0.689580 0.529894
vt 0.682830 0.531605
vt 0.708333 0.500000
vt 0.682991 0.499379
vt 0.689023 0.499064
vt 0.706176 0.519220
vt 0.708916 0.519225
vt 0.666667 0.500000
vt 0.690776 0.493829
vt 0.666667 0.531250
vt 0.709165 0.514023
vt 0.706480 0.514304
vn -0.0000 -1.0000 -0.0001
vn 0.0000 -1.0000 0.0000
vn -0.9990 0.0000 0.0454
vn -0.9622 0.0000 -0.2723
vn -0.9748 0.0000 0.2230
vn -0.9908 0.0000 0.1351
vn 0.0281 0.0000 -0.9996
vn -0.0316 0.0000 0.9995
vn -0.9963 0.0000 -0.0857
vn 0.4541 0.0000 0.8910
vn 0.4077 0.0000 -0.9131
vn -0.2032 0.0000 0.9791
vn -0.1593 0.0000 -0.9872
vn 0.1084 0.0000 0.9941
vn 0.0252 0.0000 -0.9997
vn -0.8868 0.0000 0.4622
vn -0.9088 0.0000 -0.4172
vn -0.0954 0.0000 0.9954
vn -0.0550 0.0000 -0.9985
vn -0.9998 0.0000 0.0203
vn 0.2747 0.0000 0.9615
vn 0.9989 0.0000 0.0470
vn 0.3074 0.0000 -0.9516
vn 0.9997 0.0000 0.0231
vn 0.5082 0.0000 -0.8612
vn 0.9374 0.0000 0.3482
vn 1.0000 0.0000 -0.0023
vn 0.9967 0.0000 0.0810
vn 0.9638 0.0000 -0.2665
vn 0.5444 0.0000 0.8388
vn -0.0241 0.0000 -0.9997
vn 0.0054 0.0000 1.0000
vn -0.5440 0.0000 -0.8391
vn -0.5750 0.0000 0.8181
vn -0.9479 0.0000 0.3187
vn -0.9904 0.0000 -0.1381
vn -0.9984 0.0000 0.0572
vn -0.9337 0.0000 -0.3579
vn -0.2435 0.0000 0.9699
vn -0.2390 0.0000 -0.9710
vn -0.9991 0.0000 0.0423
vn -0.9936 0.0000 -0.1126
vn 0.0830 0.0000 0.9965
vn 0.0601 0.0000 -0.9982
vn 0.9924 0.0000 -0.1234
vn 0.9772 0.0000 0.2125
vn 0.9765 0.0000 -0.2154
vn 0.9952 0.0000 0.0979
vn 0.0828 0.0000 0.9966
vn 0.1003 0.0000 -0.9950
vn 0.1769 0.0000 0.9842
vn 0.9821 0.0000 0.1886
vn 0.1499 0.0000 -0.9887
vn 0.9758 0.0000 -0.2185
vn -0.2974 0.0000 0.9547
vn -0.3461 0.0000 -0.9382
vn -0.0041 0.0000 1.0000
vn -0.1142 0.0000 -0.9935
vn 0.8121 0.0000 0.5835
vn 0.9977 0.0000 0.0676
vn 0.8465 0.0000 -0.5324
vn 0.0000 1.0000 0.0000
usemtl BackMat.001
s off
f 266/1/1 264/2/1 269/3/1
f 222/4/2 211/5/2 219/6/2
f 229/7/2 212/8/2 223/9/2
f 228/10/2 214/11/2 227/12/2
f 232/13/2 229/7/2 233/14/2
f 242/15/2 244/16/2 246/17/2
f 251/18/2 245/19/2 236/20/2
f 220/21/2 218/22/2 231/23/2
f 254/24/2 235/25/2 257/26/2
f 234/27/2 233/14/2 255/28/2
f 209/29/2 196/30/2 204/31/2
f 209/29/2 214/11/2 195/32/2
f 235/25/2 249/33/2 257/26/2
f 235/25/2 238/34/2 249/33/2
f 270/35/2 269/3/2 265/36/2
f 250/37/2 236/20/2 252/38/2
f 255/28/2 233/14/2 254/24/2
f 236/20/2 234/27/2 252/38/2
f 254/24/2 233/14/2 235/25/2
f 252/38/2 234/27/2 255/28/2
f 217/39/2 216/40/2 232/13/2
f 210/41/2 214/11/2 228/10/2
f 246/17/2 245/19/2 248/42/2
f 223/9/2 212/8/2 206/43/2
f 248/42/2 245/19/2 251/18/2
f 227/12/2 217/39/2 232/13/2
f 249/33/2 238/34/2 247/44/2
f 206/43/2 208/45/2 201/46/2
f 195/32/2 214/11/2 210/41/2
f 201/46/2 205/47/2 199/48/2
f 212/8/2 229/7/2 216/40/2
f 197/49/2 204/31/2 196/30/2
f 196/30/2 209/29/2 195/32/2
f 257/26/2 249/33/2 262/50/2
f 211/5/2 223/9/2 206/43/2
f 258/51/2 259/52/2 264/2/2
f 227/12/2 214/11/2 217/39/2
f 223/9/2 211/5/2 222/4/2
f 245/19/2 246/17/2 244/16/2
f 230/53/2 219/6/2 225/54/2
f 208/45/2 205/47/2 201/46/2
f 248/42/2 251/18/2 260/55/2
f 232/13/2 216/40/2 229/7/2
f 270/35/2 265/36/2 267/56/2
f 258/51/2 255/28/2 259/52/2
f 222/4/2 219/6/2 230/53/2
f 231/23/2 218/22/2 228/10/2
f 264/2/2 265/36/2 269/3/2
f 206/43/2 212/8/2 208/45/2
f 195/32/2 210/41/2 202/57/2
f 247/44/2 239/58/2 240/59/2
f 252/38/2 255/28/2 258/51/2
f 265/36/2 264/2/2 259/52/2
f 251/18/2 236/20/2 250/37/2
f 232/13/2 233/14/2 234/27/2
f 218/22/2 210/41/2 228/10/2
f 247/44/2 238/34/2 239/58/2
f 16/60/3 17/61/3 76/62/3 75/63/3
f 17/61/4 122/64/4 198/65/4 76/62/4
f 124/66/5 28/67/5 87/68/5 200/69/5
f 127/70/6 16/60/6 75/63/6 203/71/6
f 18/72/7 19/73/7 78/74/7 77/75/7
f 26/76/8 27/77/8 86/78/8 85/79/8
f 28/67/9 131/80/9 207/81/9 87/68/9
f 25/82/10 26/76/10 85/79/10 84/83/10
f 19/73/11 20/84/11 79/85/11 78/74/11
f 14/86/12 15/87/12 74/88/12 73/89/12
f 29/90/13 30/91/13 89/92/13 88/93/13
f 137/94/14 25/82/14 84/83/14 213/95/14
f 20/84/15 139/96/15 215/97/15 79/85/15
f 23/98/16 24/99/16 83/100/16 82/101/16
f 21/102/17 22/103/17 81/104/17 80/105/17
f 13/106/18 14/86/18 73/89/18 72/107/18
f 30/91/19 31/108/19 90/109/19 89/92/19
f 22/103/20 23/98/20 82/101/20 81/104/20
f 145/110/21 13/106/21 72/107/21 221/111/21
f 34/112/22 148/113/22 224/114/22 93/115/22
f 31/108/23 150/116/23 226/117/23 90/109/23
f 9/118/24 10/119/24 69/120/24 68/121/24
f 35/122/25 36/123/25 95/124/25 94/125/25
f 33/126/26 34/112/26 93/115/26 92/127/26
f 32/128/27 33/126/27 92/127/27 91/129/27
f 11/130/28 12/131/28 71/132/28 70/133/28
f 10/119/29 11/130/29 70/133/29 69/120/29
f 8/134/30 9/118/30 68/121/30 67/135/30
f 36/123/31 37/136/31 96/137/31 95/124/31
f 7/138/32 8/134/32 67/135/32 66/139/32
f 37/136/33 38/140/33 97/141/33 96/137/33
f 161/142/34 7/138/34 66/139/34 237/143/34
f 39/144/35 40/145/35 99/146/35 98/147/35
f 40/145/36 165/148/36 241/149/36 99/146/36
f 167/150/37 4/151/37 63/152/37 243/153/37
f 4/151/38 5/154/38 64/155/38 63/152/38
f 2/156/39 3/157/39 62/158/39 61/159/39
f 41/160/40 42/161/40 101/162/40 100/163/40
f 38/140/41 39/144/41 98/147/41 97/141/41
f 5/154/42 6/164/42 65/165/42 64/155/42
f 1/166/43 2/156/43 61/159/43 60/167/43
f 42/161/44 43/168/44 102/169/44 101/162/44
f 57/170/45 58/171/45 117/172/45 116/173/45
f 177/174/46 57/170/46 116/173/46 253/175/46
f 46/176/47 180/177/47 256/178/47 105/179/47
f 45/180/48 46/176/48 105/179/48 104/181/48
f 55/182/49 56/183/49 115/184/49 114/185/49
f 47/186/50 48/187/50 107/188/50 106/189/50
f 185/190/51 1/166/51 60/167/51 261/191/51
f 187/192/52 45/180/52 104/181/52 263/193/52
f 43/168/53 44/194/53 103/195/53 102/169/53
f 58/171/54 59/196/54 118/197/54 117/172/54
f 54/198/55 55/182/55 114/185/55 113/199/55
f 48/187/56 49/200/56 108/201/56 107/188/56
f 53/202/57 54/198/57 113/199/57 112/203/57
f 49/200/58 192/204/58 268/205/58 108/201/58
f 52/206/59 53/202/59 112/203/59 111/207/59
f 51/208/60 52/206/60 111/207/60 110/209/60
f 50/210/61 51/208/61 110/209/61 109/211/61
usemtl FrontMat.001
f 190/212/62 193/213/62 188/214/62
f 146/215/62 143/216/62 135/217/62
f 153/218/62 147/219/62 136/220/62
f 152/221/62 151/222/62 138/223/62
f 156/224/62 157/225/62 153/218/62
f 166/226/62 170/227/62 168/228/62
f 175/229/62 160/230/62 169/231/62
f 144/232/62 155/233/62 142/234/62
f 178/235/62 181/236/62 159/237/62
f 158/238/62 179/239/62 157/225/62
f 133/240/62 128/241/62 120/242/62
f 133/240/62 119/243/62 138/223/62
f 159/237/62 181/236/62 173/244/62
f 159/237/62 173/244/62 162/245/62
f 194/246/62 189/247/62 193/213/62
f 174/248/62 176/249/62 160/230/62
f 179/239/62 178/235/62 157/225/62
f 160/230/62 176/249/62 158/238/62
f 178/235/62 159/237/62 157/225/62
f 176/249/62 179/239/62 158/238/62
f 141/250/62 156/224/62 140/251/62
f 134/252/62 152/221/62 138/223/62
f 170/227/62 172/253/62 169/231/62
f 147/219/62 130/254/62 136/220/62
f 172/253/62 175/229/62 169/231/62
f 151/222/62 156/224/62 141/250/62
f 173/244/62 171/255/62 162/245/62
f 130/254/62 125/256/62 132/257/62
f 119/243/62 134/252/62 138/223/62
f 125/256/62 123/258/62 129/259/62
f 136/220/62 140/251/62 153/218/62
f 121/260/62 120/242/62 128/241/62
f 120/242/62 119/243/62 133/240/62
f 181/236/62 186/261/62 173/244/62
f 135/217/62 130/254/62 147/219/62
f 182/262/62 188/214/62 183/263/62
f 151/222/62 141/250/62 138/223/62
f 147/219/62 146/215/62 135/217/62
f 169/231/62 168/228/62 170/227/62
f 154/264/62 149/265/62 143/216/62
f 132/257/62 125/256/62 129/259/62
f 172/253/62 184/266/62 175/229/62
f 156/224/62 153/218/62 140/251/62
f 194/246/62 191/267/62 189/247/62
f 182/262/62 183/263/62 179/239/62
f 146/215/62 154/264/62 143/216/62
f 155/233/62 152/221/62 142/234/62
f 188/214/62 193/213/62 189/247/62
f 130/254/62 132/257/62 136/220/62
f 119/243/62 126/268/62 134/252/62
f 171/255/62 164/269/62 163/270/62
f 176/249/62 182/262/62 179/239/62
f 189/247/62 183/263/62 188/214/62
f 175/229/62 174/248/62 160/230/62
f 156/224/62 158/238/62 157/225/62
f 142/234/62 152/221/62 134/252/62
f 171/255/62 163/270/62 162/245/62
