# Blender v2.83.1 OBJ File: 'jigsaw-24x32-3-step2.blend'
# www.blender.org
mtllib piece.580.mtl
o path1160
v -0.319664 0.037500 -0.555667
v -0.199581 0.037500 -0.559297
v -0.125219 0.037500 -0.534262
v -0.130137 0.037500 -0.469805
v -0.169231 0.037500 -0.386279
v -0.177750 0.037500 -0.311818
v -0.112160 0.037500 -0.270009
v -0.013865 0.037500 -0.266254
v 0.054508 0.037500 -0.301411
v 0.051601 0.037500 -0.371514
v 0.021170 0.037500 -0.453322
v 0.028242 0.037500 -0.518775
v 0.117590 0.037500 -0.547300
v 0.252930 0.037500 -0.548292
v 0.478367 0.037500 -0.529285
v 0.435871 0.037500 -0.165364
v 0.457132 0.037500 -0.078845
v 0.519873 0.037500 -0.078786
v 0.602144 0.037500 -0.117424
v 0.673550 0.037500 -0.125726
v 0.708933 0.037500 -0.057168
v 0.704073 0.037500 0.044744
v 0.659988 0.037500 0.113995
v 0.582644 0.037500 0.106689
v 0.497795 0.037500 0.067423
v 0.436144 0.037500 0.062910
v 0.419519 0.037500 0.139641
v 0.434267 0.037500 0.263206
v 0.478367 0.037500 0.472624
v 0.255882 0.037500 0.432793
v 0.123182 0.037500 0.420912
v 0.037510 0.037500 0.440101
v 0.035162 0.037500 0.503460
v 0.071028 0.037500 0.589514
v 0.079649 0.037500 0.668144
v 0.016560 0.037500 0.713916
v -0.078766 0.037500 0.720134
v -0.145855 0.037500 0.684790
v -0.144472 0.037500 0.611440
v -0.115284 0.037500 0.525907
v -0.119183 0.037500 0.459584
v -0.198324 0.037500 0.435270
v -0.319929 0.037500 0.441396
v -0.523331 0.037500 0.472624
v -0.547054 0.037500 0.264192
v -0.549707 0.037500 0.140685
v -0.525415 0.037500 0.062795
v -0.464638 0.037500 0.064666
v -0.388563 0.037500 0.101561
v -0.326096 0.037500 0.109020
v -0.300518 0.037500 0.043523
v -0.312653 0.037500 -0.054694
v -0.357718 0.037500 -0.124455
v -0.427654 0.037500 -0.125107
v -0.501345 0.037500 -0.098087
v -0.554413 0.037500 -0.105354
v -0.569658 0.037500 -0.189686
v -0.523331 0.037500 -0.529285
v -0.319664 -0.037500 -0.555667
v -0.199581 -0.037500 -0.559297
v -0.125219 -0.037500 -0.534262
v -0.130137 -0.037500 -0.469805
v -0.169231 -0.037500 -0.386279
v -0.177750 -0.037500 -0.311818
v -0.112160 -0.037500 -0.270009
v -0.013865 -0.037500 -0.266254
v 0.054508 -0.037500 -0.301411
v 0.051601 -0.037500 -0.371514
v 0.021170 -0.037500 -0.453322
v 0.028242 -0.037498 -0.518775
v 0.117590 -0.037498 -0.547300
v 0.252930 -0.037500 -0.548292
v 0.478367 -0.037500 -0.529285
v 0.435871 -0.037500 -0.165364
v 0.457132 -0.037500 -0.078845
v 0.519873 -0.037500 -0.078786
v 0.602144 -0.037500 -0.117424
v 0.673550 -0.037500 -0.125726
v 0.708933 -0.037500 -0.057168
v 0.704073 -0.037500 0.044744
v 0.659988 -0.037500 0.113995
v 0.582644 -0.037500 0.106689
v 0.497795 -0.037500 0.067423
v 0.436144 -0.037500 0.062910
v 0.419519 -0.037500 0.139641
v 0.434267 -0.037500 0.263206
v 0.478367 -0.037498 0.472624
v 0.255882 -0.037498 0.432793
v 0.123182 -0.037500 0.420912
v 0.037510 -0.037500 0.440101
v 0.035162 -0.037498 0.503460
v 0.071028 -0.037498 0.589514
v 0.079649 -0.037500 0.668144
v 0.016560 -0.037500 0.713916
v -0.078766 -0.037500 0.720134
v -0.145855 -0.037500 0.684790
v -0.144472 -0.037500 0.611440
v -0.115284 -0.037500 0.525907
v -0.119183 -0.037500 0.459584
v -0.198324 -0.037498 0.435270
v -0.319929 -0.037500 0.441396
v -0.523331 -0.037500 0.472624
v -0.547054 -0.037500 0.264192
v -0.549707 -0.037498 0.140685
v -0.525415 -0.037498 0.062795
v -0.464638 -0.037498 0.064666
v -0.388563 -0.037500 0.101561
v -0.326096 -0.037500 0.109020
v -0.300518 -0.037498 0.043523
v -0.312653 -0.037500 -0.054694
v -0.357718 -0.037500 -0.124455
v -0.427654 -0.037500 -0.125107
v -0.501345 -0.037500 -0.098087
v -0.554413 -0.037500 -0.105354
v -0.569658 -0.037500 -0.189686
v -0.523331 -0.037500 -0.529285
v -0.554413 0.037500 -0.105354
v -0.554413 0.037500 -0.105354
v -0.569658 0.037500 -0.189686
v -0.501345 0.037500 -0.098087
v -0.547054 0.037500 0.264192
v -0.549707 0.037500 0.140685
v -0.525415 0.037500 0.062795
v -0.525415 0.037500 0.062795
v -0.523331 0.037500 0.472624
v -0.523331 0.037500 0.472624
v -0.523331 0.037500 -0.529285
v -0.523331 0.037500 -0.529285
v -0.464638 0.037500 0.064666
v -0.427654 0.037500 -0.125107
v -0.388563 0.037500 0.101561
v -0.319929 0.037500 0.441396
v -0.319664 0.037500 -0.555667
v -0.357718 0.037500 -0.124455
v -0.326096 0.037500 0.109020
v -0.326096 0.037500 0.109020
v -0.312653 0.037500 -0.054694
v -0.300518 0.037500 0.043523
v -0.198324 0.037500 0.435270
v -0.199581 0.037500 -0.559297
v -0.169231 0.037500 -0.386279
v -0.177750 0.037500 -0.311818
v -0.177750 0.037500 -0.311818
v -0.125219 0.037500 -0.534262
v -0.125219 0.037500 -0.534262
v -0.119183 0.037500 0.459584
v -0.119183 0.037500 0.459584
v -0.112160 0.037500 -0.270009
v -0.130137 0.037500 -0.469805
v -0.078766 0.037500 0.720134
v -0.145855 0.037500 0.684790
v -0.145855 0.037500 0.684790
v -0.144472 0.037500 0.611440
v -0.115284 0.037500 0.525907
v -0.013865 0.037500 -0.266254
v 0.016560 0.037500 0.713916
v 0.054508 0.037500 -0.301411
v 0.054508 0.037500 -0.301411
v 0.079649 0.037500 0.668144
v 0.079649 0.037500 0.668144
v 0.051601 0.037500 -0.371514
v 0.021170 0.037500 -0.453322
v 0.028242 0.037500 -0.518775
v 0.028242 0.037500 -0.518775
v 0.117590 0.037500 -0.547300
v 0.071028 0.037500 0.589514
v 0.035162 0.037500 0.503460
v 0.037510 0.037500 0.440101
v 0.037510 0.037500 0.440101
v 0.123182 0.037500 0.420912
v 0.252930 0.037500 -0.548292
v 0.255882 0.037500 0.432793
v 0.478367 0.037500 0.472624
v 0.478367 0.037500 0.472624
v 0.419519 0.037500 0.139641
v 0.434267 0.037500 0.263206
v 0.436144 0.037500 0.062910
v 0.436144 0.037500 0.062910
v 0.435871 0.037500 -0.165364
v 0.457132 0.037500 -0.078845
v 0.457132 0.037500 -0.078845
v 0.497795 0.037500 0.067423
v 0.478367 0.037500 -0.529285
v 0.478367 0.037500 -0.529285
v 0.519873 0.037500 -0.078786
v 0.582644 0.037500 0.106689
v 0.602144 0.037500 -0.117424
v 0.659988 0.037500 0.113995
v 0.659988 0.037500 0.113995
v 0.673550 0.037500 -0.125726
v 0.673550 0.037500 -0.125726
v 0.704073 0.037500 0.044744
v 0.708933 0.037500 -0.057168
v -0.554413 -0.037500 -0.105354
v -0.554413 -0.037500 -0.105354
v -0.569658 -0.037500 -0.189686
v -0.501345 -0.037500 -0.098087
v -0.547054 -0.037500 0.264192
v -0.549707 -0.037498 0.140685
v -0.525415 -0.037498 0.062795
v -0.525415 -0.037498 0.062795
v -0.523331 -0.037500 0.472624
v -0.523331 -0.037500 0.472624
v -0.523331 -0.037500 -0.529285
v -0.523331 -0.037500 -0.529285
v -0.464638 -0.037498 0.064666
v -0.427654 -0.037500 -0.125107
v -0.388563 -0.037500 0.101561
v -0.319929 -0.037500 0.441396
v -0.319664 -0.037500 -0.555667
v -0.357718 -0.037500 -0.124455
v -0.326096 -0.037500 0.109020
v -0.326096 -0.037500 0.109020
v -0.312653 -0.037500 -0.054694
v -0.300518 -0.037498 0.043523
v -0.198324 -0.037498 0.435270
v -0.199581 -0.037500 -0.559297
v -0.169231 -0.037500 -0.386279
v -0.177750 -0.037500 -0.311818
v -0.177750 -0.037500 -0.311818
v -0.125219 -0.037500 -0.534262
v -0.125219 -0.037500 -0.534262
v -0.119183 -0.037500 0.459584
v -0.119183 -0.037500 0.459584
v -0.112160 -0.037500 -0.270009
v -0.130137 -0.037500 -0.469805
v -0.078766 -0.037500 0.720134
v -0.145855 -0.037500 0.684790
v -0.145855 -0.037500 0.684790
v -0.144472 -0.037500 0.611440
v -0.115284 -0.037500 0.525907
v -0.013865 -0.037500 -0.266254
v 0.016560 -0.037500 0.713916
v 0.054508 -0.037500 -0.301411
v 0.054508 -0.037500 -0.301411
v 0.079649 -0.037500 0.668144
v 0.079649 -0.037500 0.668144
v 0.051601 -0.037500 -0.371514
v 0.021170 -0.037500 -0.453322
v 0.028242 -0.037498 -0.518775
v 0.028242 -0.037498 -0.518775
v 0.117590 -0.037498 -0.547300
v 0.071028 -0.037498 0.589514
v 0.035162 -0.037498 0.503460
v 0.037510 -0.037500 0.440101
v 0.037510 -0.037500 0.440101
v 0.123182 -0.037500 0.420912
v 0.252930 -0.037500 -0.548292
v 0.255882 -0.037498 0.432793
v 0.478367 -0.037498 0.472624
v 0.478367 -0.037498 0.472624
v 0.419519 -0.037500 0.139641
v 0.434267 -0.037500 0.263206
v 0.436144 -0.037500 0.062910
v 0.436144 -0.037500 0.062910
v 0.435871 -0.037500 -0.165364
v 0.457132 -0.037500 -0.078845
v 0.457132 -0.037500 -0.078845
v 0.497795 -0.037500 0.067423
v 0.478367 -0.037500 -0.529285
v 0.478367 -0.037500 -0.529285
v 0.519873 -0.037500 -0.078786
v 0.582644 -0.037500 0.106689
v 0.602144 -0.037500 -0.117424
v 0.659988 -0.037500 0.113995
v 0.659988 -0.037500 0.113995
v 0.673550 -0.037500 -0.125726
v 0.673550 -0.037500 -0.125726
v 0.704073 -0.037500 0.044744
v 0.708933 -0.037500 -0.057168
vt 0.500000 0.500000
vt 0.500000 0.500000
vt 0.500000 0.500000
vt 0.500000 0.500000
vt 0.500000 0.500000
vt 0.500000 0.500000
vt 0.500000 0.500000
vt 0.500000 0.500000
vt 0.500000 0.500000
vt 0.500000 0.500000
vt 0.500000 0.500000
vt 0.500000 0.500000
vt 0.500000 0.500000
vt 0.500000 0.500000
vt 0.500000 0.500000
vt 0.500000 0.500000
vt 0.500000 0.500000
vt 0.500000 0.500000
vt 0.500000 0.500000
vt 0.500000 0.500000
vt 0.500000 0.500000
vt 0.500000 0.500000
vt 0.500000 0.500000
vt 0.500000 0.500000
vt 0.500000 0.500000
vt 0.500000 0.500000
vt 0.500000 0.500000
vt 0.500000 0.500000
vt 0.500000 0.500000
vt 0.500000 0.500000
vt 0.500000 0.500000
vt 0.500000 0.500000
vt 0.500000 0.500000
vt 0.500000 0.500000
vt 0.500000 0.500000
vt 0.500000 0.500000
vt 0.500000 0.500000
vt 0.500000 0.500000
vt 0.500000 0.500000
vt 0.500000 0.500000
vt 0.500000 0.500000
vt 0.500000 0.500000
vt 0.500000 0.500000
vt 0.500000 0.500000
vt 0.500000 0.500000
vt 0.500000 0.500000
vt 0.500000 0.500000
vt 0.500000 0.500000
vt 0.500000 0.500000
vt 0.500000 0.500000
vt 0.500000 0.500000
vt 0.500000 0.500000
vt 0.500000 0.500000
vt 0.500000 0.500000
vt 0.500000 0.500000
vt 0.500000 0.500000
vt 0.500000 0.500000
vt 0.500000 0.500000
vt 0.500000 0.500000
vt 0.500000 0.500000
vt 0.500000 0.500000
vt 0.500000 0.500000
vt 0.500000 0.500000
vt 0.500000 0.500000
vt 0.500000 0.500000
vt 0.500000 0.500000
vt 0.500000 0.500000
vt 0.500000 0.500000
vt 0.500000 0.500000
vt 0.500000 0.500000
vt 0.500000 0.500000
vt 0.500000 0.500000
vt 0.500000 0.500000
vt 0.500000 0.500000
vt 0.500000 0.500000
vt 0.500000 0.500000
vt 0.500000 0.500000
vt 0.500000 0.500000
vt 0.500000 0.500000
vt 0.500000 0.500000
vt 0.500000 0.500000
vt 0.500000 0.500000
vt 0.500000 0.500000
vt 0.500000 0.500000
vt 0.500000 0.500000
vt 0.500000 0.500000
vt 0.500000 0.500000
vt 0.500000 0.500000
vt 0.500000 0.500000
vt 0.500000 0.500000
vt 0.500000 0.500000
vt 0.500000 0.500000
vt 0.500000 0.500000
vt 0.500000 0.500000
vt 0.500000 0.500000
vt 0.500000 0.500000
vt 0.500000 0.500000
vt 0.500000 0.500000
vt 0.500000 0.500000
vt 0.500000 0.500000
vt 0.500000 0.500000
vt 0.500000 0.500000
vt 0.500000 0.500000
vt 0.500000 0.500000
vt 0.500000 0.500000
vt 0.500000 0.500000
vt 0.500000 0.500000
vt 0.500000 0.500000
vt 0.500000 0.500000
vt 0.500000 0.500000
vt 0.500000 0.500000
vt 0.500000 0.500000
vt 0.500000 0.500000
vt 0.500000 0.500000
vt 0.500000 0.500000
vt 0.500000 0.500000
vt 0.500000 0.500000
vt 0.500000 0.500000
vt 0.500000 0.500000
vt 0.500000 0.500000
vt 0.500000 0.500000
vt 0.500000 0.500000
vt 0.500000 0.500000
vt 0.500000 0.500000
vt 0.500000 0.500000
vt 0.500000 0.500000
vt 0.500000 0.500000
vt 0.500000 0.500000
vt 0.500000 0.500000
vt 0.500000 0.500000
vt 0.500000 0.500000
vt 0.500000 0.500000
vt 0.500000 0.500000
vt 0.500000 0.500000
vt 0.500000 0.500000
vt 0.500000 0.500000
vt 0.500000 0.500000
vt 0.500000 0.500000
vt 0.500000 0.500000
vt 0.500000 0.500000
vt 0.500000 0.500000
vt 0.500000 0.500000
vt 0.500000 0.500000
vt 0.500000 0.500000
vt 0.500000 0.500000
vt 0.500000 0.500000
vt 0.500000 0.500000
vt 0.500000 0.500000
vt 0.500000 0.500000
vt 0.500000 0.500000
vt 0.500000 0.500000
vt 0.500000 0.500000
vt 0.500000 0.500000
vt 0.500000 0.500000
vt 0.500000 0.500000
vt 0.500000 0.500000
vt 0.500000 0.500000
vt 0.500000 0.500000
vt 0.500000 0.500000
vt 0.500000 0.500000
vt 0.500000 0.500000
vt 0.500000 0.500000
vt 0.500000 0.500000
vt 0.500000 0.500000
vt 0.500000 0.500000
vt 0.500000 0.500000
vt 0.500000 0.500000
vt 0.500000 0.500000
vt 0.500000 0.500000
vt 0.500000 0.500000
vt 0.500000 0.500000
vt 0.500000 0.500000
vt 0.500000 0.500000
vt 0.500000 0.500000
vt 0.500000 0.500000
vt 0.500000 0.500000
vt 0.500000 0.500000
vt 0.500000 0.500000
vt 0.500000 0.500000
vt 0.500000 0.500000
vt 0.500000 0.500000
vt 0.500000 0.500000
vt 0.500000 0.500000
vt 0.500000 0.500000
vt 0.500000 0.500000
vt 0.500000 0.500000
vt 0.500000 0.500000
vt 0.500000 0.500000
vt 0.500000 0.500000
vt 0.500000 0.500000
vt 0.500000 0.500000
vt 0.500000 0.500000
vt 0.500000 0.500000
vt 0.500000 0.500000
vt 0.500000 0.500000
vt 0.500000 0.500000
vt 0.500000 0.500000
vt 0.500000 0.500000
vt 0.500000 0.500000
vt 0.500000 0.500000
vt 0.500000 0.500000
vt 0.500000 0.500000
vt 0.500000 0.500000
vt 0.500000 0.500000
vt 0.500000 0.500000
vt 0.500000 0.500000
vt 0.500000 0.500000
vt 0.500000 0.500000
vt 0.500000 0.500000
vt 0.500000 0.500000
vt 0.500000 0.500000
vt 0.500000 0.500000
vt 0.151532 0.220076
vt 0.166667 0.218750
vt 0.167457 0.225783
vt 0.138804 0.250823
vt 0.133668 0.250740
vt 0.140431 0.245796
vt 0.155728 0.234106
vt 0.142039 0.220067
vt 0.157190 0.231973
vt 0.142794 0.211709
vt 0.147032 0.211557
vt 0.149538 0.214889
vt 0.147934 0.219412
vt 0.167915 0.239900
vt 0.167764 0.243646
vt 0.160719 0.238953
vt 0.167416 0.230005
vt 0.160105 0.232064
vt 0.166874 0.237580
vt 0.164193 0.237734
vt 0.127151 0.229831
vt 0.126656 0.225691
vt 0.138848 0.220586
vt 0.125542 0.237392
vt 0.123718 0.232577
vt 0.126352 0.232503
vt 0.166667 0.250000
vt 0.149858 0.247015
vt 0.157623 0.239219
vt 0.141966 0.248169
vt 0.122784 0.237270
vt 0.120139 0.231458
vt 0.149036 0.250970
vt 0.148734 0.249314
vt 0.152544 0.251445
vt 0.155884 0.237173
vt 0.149831 0.244833
vt 0.114965 0.233157
vt 0.116869 0.231189
vt 0.140218 0.215497
vt 0.139914 0.213084
vt 0.142845 0.243049
vt 0.140121 0.243847
vt 0.126553 0.239861
vt 0.119227 0.238181
vt 0.114707 0.236131
vt 0.116177 0.238224
vt 0.146930 0.243427
vt 0.126299 0.243654
vt 0.125000 0.218750
vt 0.133709 0.220126
vt 0.149884 0.212661
vt 0.147932 0.217455
vt 0.125000 0.250000
vt 0.141851 0.218144
vt 0.163507 0.233013
vt 0.166229 0.232793
vt 0.142044 0.250065
vn 0.0000 -1.0000 0.0000
vn -0.9840 0.0000 0.1779
vn -0.1357 0.0000 0.9908
vn -0.9998 0.0000 0.0215
vn -0.9547 0.0000 -0.2977
vn -0.9936 0.0000 0.1131
vn -0.9908 0.0000 -0.1352
vn 0.0308 0.0000 -0.9995
vn 0.3443 0.0000 0.9389
vn 0.4364 0.0000 -0.8998
vn 0.1517 0.0000 0.9884
vn -0.1285 0.0000 -0.9917
vn -0.0093 0.0000 1.0000
vn 0.1186 0.0000 -0.9929
vn -0.8400 0.0000 0.5426
vn -0.9315 0.0000 -0.3638
vn 0.0503 0.0000 0.9987
vn -0.0302 0.0000 -0.9995
vn -0.9925 0.0000 0.1226
vn 0.9935 0.0000 0.1137
vn 0.3191 0.0000 -0.9477
vn -0.2937 0.0000 0.9559
vn 0.5375 0.0000 -0.8433
vn 0.9057 0.0000 0.4239
vn 0.9971 0.0000 0.0761
vn -0.4661 0.0000 0.8847
vn -0.9998 0.0000 -0.0188
vn -0.9464 0.0000 -0.3230
vn -0.9983 0.0000 0.0587
vn 0.0382 0.0000 -0.9993
vn 0.0651 0.0000 0.9979
vn -0.4573 0.0000 -0.8893
vn 0.5872 0.0000 0.8094
vn -0.9373 0.0000 0.3486
vn -0.9942 0.0000 -0.1074
vn -0.3041 0.0000 -0.9526
vn 0.9940 0.0000 -0.1090
vn 0.9230 0.0000 -0.3847
vn 0.9993 0.0000 0.0370
vn 0.2186 0.0000 0.9758
vn -0.9991 0.0000 0.0414
vn -0.0073 0.0000 -1.0000
vn -0.0892 0.0000 0.9960
vn -0.1762 0.0000 0.9843
vn 0.9930 0.0000 -0.1185
vn 0.9773 0.0000 0.2117
vn 0.9711 0.0000 -0.2386
vn -0.0730 0.0000 0.9973
vn 0.9933 0.0000 0.1160
vn 0.0840 0.0000 -0.9965
vn 0.0009 0.0000 -1.0000
vn 0.9785 0.0000 -0.2061
vn -0.4200 0.0000 0.9075
vn -0.4251 0.0000 -0.9051
vn -0.0940 0.0000 0.9956
vn -0.1155 0.0000 -0.9933
vn 0.8436 0.0000 0.5370
vn 0.9989 0.0000 0.0476
vn 0.8886 0.0000 -0.4586
vn 0.0000 1.0000 0.0000
usemtl BackMat.001
s off
f 256/1/1 248/2/1 260/3/1
f 199/4/1 208/5/1 198/6/1
f 232/7/1 234/8/1 254/9/1
f 269/10/1 264/11/1 270/12/1
f 257/13/1 234/8/1 256/1/1
f 217/14/1 218/15/1 210/16/1
f 248/2/1 238/17/1 242/18/1
f 221/19/1 226/20/1 217/14/1
f 247/21/1 252/22/1 249/23/1
f 223/24/1 245/25/1 244/26/1
f 204/27/1 219/28/1 207/29/1
f 208/5/1 199/4/1 206/30/1
f 244/26/1 243/31/1 231/32/1
f 194/33/1 196/34/1 197/35/1
f 234/8/1 238/17/1 248/2/1
f 254/9/1 234/8/1 257/13/1
f 225/36/1 211/37/1 219/28/1
f 233/38/1 243/31/1 236/39/1
f 196/34/1 204/27/1 207/29/1
f 263/40/1 269/10/1 265/41/1
f 215/42/1 245/25/1 212/43/1
f 223/24/1 244/26/1 231/32/1
f 212/43/1 245/25/1 223/24/1
f 216/44/1 212/43/1 223/24/1
f 230/45/1 233/38/1 227/46/1
f 243/31/1 233/38/1 230/45/1
f 230/45/1 227/46/1 228/47/1
f 197/35/1 196/34/1 207/29/1
f 232/7/1 252/22/1 247/21/1
f 211/37/1 225/36/1 214/48/1
f 209/49/1 212/43/1 216/44/1
f 215/42/1 225/36/1 232/7/1
f 256/1/1 234/8/1 248/2/1
f 249/23/1 253/50/1 250/51/1
f 218/15/1 217/14/1 226/20/1
f 218/15/1 219/28/1 210/16/1
f 270/12/1 264/11/1 267/52/1
f 263/40/1 262/53/1 269/10/1
f 264/11/1 269/10/1 262/53/1
f 198/6/1 209/49/1 202/54/1
f 252/22/1 232/7/1 254/9/1
f 198/6/1 212/43/1 209/49/1
f 259/55/1 262/53/1 263/40/1
f 254/9/1 257/13/1 259/55/1
f 212/43/1 198/6/1 208/5/1
f 257/13/1 262/53/1 259/55/1
f 215/42/1 247/21/1 245/25/1
f 204/27/1 210/16/1 219/28/1
f 238/17/1 239/56/1 242/18/1
f 242/18/1 239/56/1 240/57/1
f 214/48/1 225/36/1 215/42/1
f 231/32/1 243/31/1 230/45/1
f 206/30/1 199/4/1 200/58/1
f 215/42/1 232/7/1 247/21/1
f 207/29/1 219/28/1 211/37/1
f 249/23/1 252/22/1 253/50/1
f 118/59/2 57/60/2 115/61/2 195/62/2
f 55/63/3 56/64/3 114/65/3 113/66/3
f 45/67/4 46/68/4 104/69/4 103/70/4
f 46/68/5 124/71/5 201/72/5 104/69/5
f 126/73/6 45/67/6 103/70/6 203/74/6
f 57/60/7 128/75/7 205/76/7 115/61/7
f 47/77/8 48/78/8 106/79/8 105/80/8
f 54/81/9 55/63/9 113/66/9 112/82/9
f 48/78/10 49/83/10 107/84/10 106/79/10
f 43/85/11 44/86/11 102/87/11 101/88/11
f 58/89/12 1/90/12 59/91/12 116/92/12
f 53/93/13 54/81/13 112/82/13 111/94/13
f 49/83/14 136/95/14 213/96/14 107/84/14
f 52/97/15 53/93/15 111/94/15 110/98/15
f 50/99/16 51/100/16 109/101/16 108/102/16
f 42/103/17 43/85/17 101/88/17 100/104/17
f 1/90/18 2/105/18 60/106/18 59/91/18
f 51/100/19 52/97/19 110/98/19 109/101/19
f 5/107/20 143/108/20 220/109/20 63/110/20
f 2/105/21 145/111/21 222/112/21 60/106/21
f 147/113/22 42/103/22 100/104/22 224/114/22
f 6/115/23 7/116/23 65/117/23 64/118/23
f 4/119/24 5/107/24 63/110/24 62/120/24
f 3/121/25 4/119/25 62/120/25 61/122/25
f 37/123/26 152/124/26 229/125/26 95/126/26
f 38/127/27 39/128/27 97/129/27 96/130/27
f 39/128/28 40/131/28 98/132/28 97/129/28
f 40/131/29 41/133/29 99/134/29 98/132/29
f 7/116/30 8/135/30 66/136/30 65/117/30
f 36/137/31 37/123/31 95/126/31 94/138/31
f 8/135/32 158/139/32 235/140/32 66/136/32
f 160/141/33 36/137/33 94/138/33 237/142/33
f 10/143/34 11/144/34 69/145/34 68/146/34
f 11/144/35 164/147/35 241/148/35 69/145/35
f 12/149/36 13/150/36 71/151/36 70/152/36
f 34/153/37 35/154/37 93/155/37 92/156/37
f 33/157/38 34/153/38 92/156/38 91/158/38
f 169/159/39 33/157/39 91/158/39 246/160/39
f 31/161/40 32/162/40 90/163/40 89/164/40
f 9/165/41 10/143/41 68/146/41 67/166/41
f 13/150/42 14/167/42 72/168/42 71/151/42
f 30/169/43 31/161/43 89/164/43 88/170/43
f 174/171/44 30/169/44 88/170/44 251/172/44
f 27/173/45 28/174/45 86/175/45 85/176/45
f 178/177/46 27/173/46 85/176/46 255/178/46
f 16/179/47 181/180/47 258/181/47 74/182/47
f 25/183/48 26/184/48 84/185/48 83/186/48
f 184/187/49 16/179/49 74/182/49 261/188/49
f 14/167/50 15/189/50 73/190/50 72/168/50
f 17/191/51 18/192/51 76/193/51 75/194/51
f 28/174/52 29/195/52 87/196/52 86/175/52
f 24/197/53 25/183/53 83/186/53 82/198/53
f 18/192/54 19/199/54 77/200/54 76/193/54
f 189/201/55 24/197/55 82/198/55 266/202/55
f 19/199/56 191/203/56 268/204/56 77/200/56
f 22/205/57 23/206/57 81/207/57 80/208/57
f 21/209/58 22/205/58 80/208/58 79/210/58
f 20/211/59 21/209/59 79/210/59 78/212/59
usemtl FrontMat.001
f 179/213/60 183/214/60 171/215/60
f 122/216/60 121/217/60 131/218/60
f 155/219/60 177/220/60 157/221/60
f 192/222/60 193/223/60 187/224/60
f 180/225/60 179/213/60 157/221/60
f 140/226/60 133/227/60 141/228/60
f 171/215/60 165/229/60 161/230/60
f 144/231/60 140/226/60 149/232/60
f 170/233/60 172/234/60 175/235/60
f 146/236/60 167/237/60 168/238/60
f 127/239/60 130/240/60 142/241/60
f 131/218/60 129/242/60 122/216/60
f 167/237/60 154/243/60 166/244/60
f 117/245/60 120/246/60 119/247/60
f 157/221/60 171/215/60 161/230/60
f 177/220/60 180/225/60 157/221/60
f 148/248/60 142/241/60 134/249/60
f 156/250/60 159/251/60 166/244/60
f 119/247/60 130/240/60 127/239/60
f 186/252/60 188/253/60 192/222/60
f 138/254/60 135/255/60 168/238/60
f 146/236/60 154/243/60 167/237/60
f 135/255/60 146/236/60 168/238/60
f 139/256/60 146/236/60 135/255/60
f 153/257/60 150/258/60 156/250/60
f 166/244/60 153/257/60 156/250/60
f 153/257/60 151/259/60 150/258/60
f 120/246/60 130/240/60 119/247/60
f 155/219/60 170/233/60 175/235/60
f 134/249/60 137/260/60 148/248/60
f 132/261/60 139/256/60 135/255/60
f 138/254/60 155/219/60 148/248/60
f 179/213/60 171/215/60 157/221/60
f 172/234/60 173/262/60 176/263/60
f 141/228/60 149/232/60 140/226/60
f 141/228/60 133/227/60 142/241/60
f 193/223/60 190/264/60 187/224/60
f 186/252/60 192/222/60 185/265/60
f 187/224/60 185/265/60 192/222/60
f 121/217/60 125/266/60 132/261/60
f 175/235/60 177/220/60 155/219/60
f 121/217/60 132/261/60 135/255/60
f 182/267/60 186/252/60 185/265/60
f 177/220/60 182/267/60 180/225/60
f 135/255/60 131/218/60 121/217/60
f 180/225/60 182/267/60 185/265/60
f 138/254/60 168/238/60 170/233/60
f 127/239/60 142/241/60 133/227/60
f 161/230/60 165/229/60 162/268/60
f 165/229/60 163/269/60 162/268/60
f 137/260/60 138/254/60 148/248/60
f 154/243/60 153/257/60 166/244/60
f 129/242/60 123/270/60 122/216/60
f 138/254/60 170/233/60 155/219/60
f 130/240/60 134/249/60 142/241/60
f 172/234/60 176/263/60 175/235/60
