# Blender v2.83.1 OBJ File: 'jigsaw-24x32-3-step2.blend'
# www.blender.org
mtllib piece.548.mtl
o path1096
v -0.437454 0.037500 0.189997
v -0.454096 0.037500 0.117624
v -0.507196 0.037500 0.121042
v -0.580091 0.037500 0.155624
v -0.649242 0.037500 0.157581
v -0.694138 0.037500 0.084635
v -0.706360 0.037500 -0.019445
v -0.680513 0.037500 -0.089380
v -0.617014 0.037500 -0.082270
v -0.539492 0.037500 -0.044746
v -0.477369 0.037500 -0.045835
v -0.452263 0.037500 -0.133280
v -0.478033 0.037500 -0.498928
v -0.253025 0.037500 -0.534056
v -0.117874 0.037500 -0.541237
v -0.028490 0.037500 -0.514738
v -0.021200 0.037500 -0.441826
v -0.052174 0.037500 -0.348425
v -0.057535 0.037500 -0.270124
v 0.005897 0.037500 -0.235729
v 0.098516 0.037500 -0.246910
v 0.160015 0.037500 -0.298553
v 0.150743 0.037500 -0.381424
v 0.113651 0.037500 -0.469872
v 0.112345 0.037500 -0.534124
v 0.190843 0.037500 -0.553085
v 0.314840 0.037500 -0.540375
v 0.523876 0.037500 -0.498928
v 0.571445 0.037500 -0.285898
v 0.586988 0.037500 -0.158238
v 0.567997 0.037500 -0.074467
v 0.499945 0.037500 -0.068895
v 0.408728 0.037500 -0.098455
v 0.330366 0.037500 -0.100729
v 0.294203 0.037500 -0.033497
v 0.302877 0.037500 0.064613
v 0.352358 0.037500 0.134771
v 0.434061 0.037500 0.137711
v 0.521187 0.037500 0.112408
v 0.582380 0.037500 0.117393
v 0.595594 0.037500 0.193304
v 0.575968 0.037500 0.309221
v 0.523876 0.037500 0.502769
v 0.332922 0.037500 0.527258
v 0.218199 0.037500 0.529690
v 0.142267 0.037500 0.503731
v 0.135664 0.037500 0.439232
v 0.159834 0.037500 0.357906
v 0.158949 0.037500 0.289446
v 0.095524 0.037500 0.258286
v 0.005379 0.037500 0.267838
v -0.057322 0.037500 0.316269
v -0.057203 0.037500 0.396942
v -0.034059 0.037500 0.483980
v -0.046471 0.037500 0.546703
v -0.134489 0.037500 0.563383
v -0.264057 0.037500 0.548090
v -0.478033 0.037500 0.502770
v -0.437454 -0.037498 0.189997
v -0.454096 -0.037500 0.117624
v -0.507196 -0.037500 0.121042
v -0.580091 -0.037500 0.155624
v -0.649242 -0.037500 0.157581
v -0.694138 -0.037500 0.084635
v -0.706360 -0.037500 -0.019445
v -0.680513 -0.037500 -0.089380
v -0.617014 -0.037500 -0.082270
v -0.539492 -0.037500 -0.044746
v -0.477369 -0.037500 -0.045835
v -0.452263 -0.037500 -0.133280
v -0.478033 -0.037498 -0.498928
v -0.253025 -0.037500 -0.534056
v -0.117874 -0.037500 -0.541237
v -0.028490 -0.037498 -0.514738
v -0.021200 -0.037500 -0.441826
v -0.052174 -0.037498 -0.348425
v -0.057535 -0.037500 -0.270124
v 0.005897 -0.037498 -0.235729
v 0.098516 -0.037500 -0.246910
v 0.160015 -0.037500 -0.298553
v 0.150743 -0.037500 -0.381424
v 0.113651 -0.037500 -0.469872
v 0.112345 -0.037500 -0.534124
v 0.190843 -0.037500 -0.553085
v 0.314840 -0.037500 -0.540375
v 0.523876 -0.037500 -0.498928
v 0.571445 -0.037500 -0.285898
v 0.586988 -0.037500 -0.158238
v 0.567997 -0.037500 -0.074467
v 0.499945 -0.037500 -0.068895
v 0.408728 -0.037498 -0.098455
v 0.330366 -0.037500 -0.100729
v 0.294203 -0.037500 -0.033497
v 0.302877 -0.037500 0.064613
v 0.352358 -0.037500 0.134771
v 0.434061 -0.037500 0.137711
v 0.521187 -0.037500 0.112408
v 0.582380 -0.037500 0.117393
v 0.595594 -0.037500 0.193304
v 0.575968 -0.037500 0.309221
v 0.523876 -0.037500 0.502769
v 0.332922 -0.037498 0.527258
v 0.218199 -0.037500 0.529690
v 0.142267 -0.037500 0.503731
v 0.135664 -0.037500 0.439232
v 0.159834 -0.037500 0.357906
v 0.158949 -0.037500 0.289446
v 0.095524 -0.037500 0.258286
v 0.005379 -0.037500 0.267838
v -0.057322 -0.037500 0.316269
v -0.057203 -0.037500 0.396942
v -0.034059 -0.037500 0.483980
v -0.046471 -0.037498 0.546703
v -0.134489 -0.037500 0.563383
v -0.264057 -0.037500 0.548090
v -0.478033 -0.037498 0.502770
v -0.046471 0.037500 0.546703
v -0.046471 0.037500 0.546703
v -0.134489 0.037500 0.563383
v -0.264057 0.037500 0.548090
v -0.034059 0.037500 0.483980
v 0.332922 0.037500 0.527258
v 0.218199 0.037500 0.529690
v 0.142267 0.037500 0.503731
v 0.142267 0.037500 0.503731
v 0.523876 0.037500 0.502769
v 0.523876 0.037500 0.502769
v -0.478033 0.037500 0.502770
v -0.478033 0.037500 0.502770
v 0.135664 0.037500 0.439232
v -0.057203 0.037500 0.396942
v 0.159834 0.037500 0.357906
v 0.575968 0.037500 0.309221
v -0.057322 0.037500 0.316269
v 0.158949 0.037500 0.289446
v 0.158949 0.037500 0.289446
v 0.005379 0.037500 0.267838
v 0.595594 0.037500 0.193304
v -0.437454 0.037500 0.189997
v 0.095524 0.037500 0.258286
v 0.582380 0.037500 0.117393
v 0.582380 0.037500 0.117393
v -0.454096 0.037500 0.117624
v -0.454096 0.037500 0.117624
v -0.580091 0.037500 0.155624
v -0.649242 0.037500 0.157581
v -0.694138 0.037500 0.084635
v -0.507196 0.037500 0.121042
v 0.521187 0.037500 0.112408
v 0.434061 0.037500 0.137711
v 0.352358 0.037500 0.134771
v 0.302877 0.037500 0.064613
v -0.706360 0.037500 -0.019445
v 0.294203 0.037500 -0.033497
v -0.680513 0.037500 -0.089380
v -0.680513 0.037500 -0.089380
v 0.330366 0.037500 -0.100729
v 0.330366 0.037500 -0.100729
v -0.539492 0.037500 -0.044746
v -0.477369 0.037500 -0.045835
v -0.477369 0.037500 -0.045835
v -0.617014 0.037500 -0.082270
v -0.452263 0.037500 -0.133280
v 0.567997 0.037500 -0.074467
v 0.567997 0.037500 -0.074467
v 0.499945 0.037500 -0.068895
v 0.408728 0.037500 -0.098455
v 0.586988 0.037500 -0.158238
v 0.571445 0.037500 -0.285898
v 0.005897 0.037500 -0.235729
v 0.098516 0.037500 -0.246910
v -0.057535 0.037500 -0.270124
v -0.057535 0.037500 -0.270124
v 0.160015 0.037500 -0.298553
v -0.052174 0.037500 -0.348425
v 0.150743 0.037500 -0.381424
v -0.021200 0.037500 -0.441826
v 0.113651 0.037500 -0.469872
v 0.523876 0.037500 -0.498928
v 0.523876 0.037500 -0.498928
v -0.028490 0.037500 -0.514738
v -0.028490 0.037500 -0.514738
v 0.112345 0.037500 -0.534124
v 0.112345 0.037500 -0.534124
v -0.478033 0.037500 -0.498928
v -0.478033 0.037500 -0.498928
v -0.117874 0.037500 -0.541237
v -0.253025 0.037500 -0.534056
v 0.314840 0.037500 -0.540375
v 0.190843 0.037500 -0.553085
v -0.046471 -0.037498 0.546703
v -0.046471 -0.037498 0.546703
v -0.134489 -0.037500 0.563383
v -0.264057 -0.037500 0.548090
v -0.034059 -0.037500 0.483980
v 0.332922 -0.037498 0.527258
v 0.218199 -0.037500 0.529690
v 0.142267 -0.037500 0.503731
v 0.142267 -0.037500 0.503731
v 0.523876 -0.037500 0.502769
v 0.523876 -0.037500 0.502769
v -0.478033 -0.037498 0.502770
v -0.478033 -0.037498 0.502770
v 0.135664 -0.037500 0.439232
v -0.057203 -0.037500 0.396942
v 0.159834 -0.037500 0.357906
v 0.575968 -0.037500 0.309221
v -0.057322 -0.037500 0.316269
v 0.158949 -0.037500 0.289446
v 0.158949 -0.037500 0.289446
v 0.005379 -0.037500 0.267838
v 0.595594 -0.037500 0.193304
v -0.437454 -0.037498 0.189997
v 0.095524 -0.037500 0.258286
v 0.582380 -0.037500 0.117393
v 0.582380 -0.037500 0.117393
v -0.454096 -0.037500 0.117624
v -0.454096 -0.037500 0.117624
v -0.580091 -0.037500 0.155624
v -0.649242 -0.037500 0.157581
v -0.694138 -0.037500 0.084635
v -0.507196 -0.037500 0.121042
v 0.521187 -0.037500 0.112408
v 0.434061 -0.037500 0.137711
v 0.352358 -0.037500 0.134771
v 0.302877 -0.037500 0.064613
v -0.706360 -0.037500 -0.019445
v 0.294203 -0.037500 -0.033497
v -0.680513 -0.037500 -0.089380
v -0.680513 -0.037500 -0.089380
v 0.330366 -0.037500 -0.100729
v 0.330366 -0.037500 -0.100729
v -0.539492 -0.037500 -0.044746
v -0.477369 -0.037500 -0.045835
v -0.477369 -0.037500 -0.045835
v -0.617014 -0.037500 -0.082270
v -0.452263 -0.037500 -0.133280
v 0.567997 -0.037500 -0.074467
v 0.567997 -0.037500 -0.074467
v 0.499945 -0.037500 -0.068895
v 0.408728 -0.037498 -0.098455
v 0.586988 -0.037500 -0.158238
v 0.571445 -0.037500 -0.285898
v 0.005897 -0.037498 -0.235729
v 0.098516 -0.037500 -0.246910
v -0.057535 -0.037500 -0.270124
v -0.057535 -0.037500 -0.270124
v 0.160015 -0.037500 -0.298553
v -0.052174 -0.037498 -0.348425
v 0.150743 -0.037500 -0.381424
v -0.021200 -0.037500 -0.441826
v 0.113651 -0.037500 -0.469872
v 0.523876 -0.037500 -0.498928
v 0.523876 -0.037500 -0.498928
v -0.028490 -0.037498 -0.514738
v -0.028490 -0.037498 -0.514738
v 0.112345 -0.037500 -0.534124
v 0.112345 -0.037500 -0.534124
v -0.478033 -0.037498 -0.498928
v -0.478033 -0.037498 -0.498928
v -0.117874 -0.037500 -0.541237
v -0.253025 -0.037500 -0.534056
v 0.314840 -0.037500 -0.540375
v 0.190843 -0.037500 -0.553085
vt 0.500000 0.500000
vt 0.500000 0.500000
vt 0.500000 0.500000
vt 0.500000 0.500000
vt 0.500000 0.500000
vt 0.500000 0.500000
vt 0.500000 0.500000
vt 0.500000 0.500000
vt 0.500000 0.500000
vt 0.500000 0.500000
vt 0.500000 0.500000
vt 0.500000 0.500000
vt 0.500000 0.500000
vt 0.500000 0.500000
vt 0.500000 0.500000
vt 0.500000 0.500000
vt 0.500000 0.500000
vt 0.500000 0.500000
vt 0.500000 0.500000
vt 0.500000 0.500000
vt 0.500000 0.500000
vt 0.500000 0.500000
vt 0.500000 0.500000
vt 0.500000 0.500000
vt 0.500000 0.500000
vt 0.500000 0.500000
vt 0.500000 0.500000
vt 0.500000 0.500000
vt 0.500000 0.500000
vt 0.500000 0.500000
vt 0.500000 0.500000
vt 0.500000 0.500000
vt 0.500000 0.500000
vt 0.500000 0.500000
vt 0.500000 0.500000
vt 0.500000 0.500000
vt 0.500000 0.500000
vt 0.500000 0.500000
vt 0.500000 0.500000
vt 0.500000 0.500000
vt 0.500000 0.500000
vt 0.500000 0.500000
vt 0.500000 0.500000
vt 0.500000 0.500000
vt 0.500000 0.500000
vt 0.500000 0.500000
vt 0.500000 0.500000
vt 0.500000 0.500000
vt 0.500000 0.500000
vt 0.500000 0.500000
vt 0.500000 0.500000
vt 0.500000 0.500000
vt 0.500000 0.500000
vt 0.500000 0.500000
vt 0.500000 0.500000
vt 0.500000 0.500000
vt 0.500000 0.500000
vt 0.500000 0.500000
vt 0.500000 0.500000
vt 0.500000 0.500000
vt 0.500000 0.500000
vt 0.500000 0.500000
vt 0.500000 0.500000
vt 0.500000 0.500000
vt 0.500000 0.500000
vt 0.500000 0.500000
vt 0.500000 0.500000
vt 0.500000 0.500000
vt 0.500000 0.500000
vt 0.500000 0.500000
vt 0.500000 0.500000
vt 0.500000 0.500000
vt 0.500000 0.500000
vt 0.500000 0.500000
vt 0.500000 0.500000
vt 0.500000 0.500000
vt 0.500000 0.500000
vt 0.500000 0.500000
vt 0.500000 0.500000
vt 0.500000 0.500000
vt 0.500000 0.500000
vt 0.500000 0.500000
vt 0.500000 0.500000
vt 0.500000 0.500000
vt 0.500000 0.500000
vt 0.500000 0.500000
vt 0.500000 0.500000
vt 0.500000 0.500000
vt 0.500000 0.500000
vt 0.500000 0.500000
vt 0.500000 0.500000
vt 0.500000 0.500000
vt 0.500000 0.500000
vt 0.500000 0.500000
vt 0.500000 0.500000
vt 0.500000 0.500000
vt 0.500000 0.500000
vt 0.500000 0.500000
vt 0.500000 0.500000
vt 0.500000 0.500000
vt 0.500000 0.500000
vt 0.500000 0.500000
vt 0.500000 0.500000
vt 0.500000 0.500000
vt 0.500000 0.500000
vt 0.500000 0.500000
vt 0.500000 0.500000
vt 0.500000 0.500000
vt 0.500000 0.500000
vt 0.500000 0.500000
vt 0.500000 0.500000
vt 0.500000 0.500000
vt 0.500000 0.500000
vt 0.500000 0.500000
vt 0.500000 0.500000
vt 0.500000 0.500000
vt 0.500000 0.500000
vt 0.500000 0.500000
vt 0.500000 0.500000
vt 0.500000 0.500000
vt 0.500000 0.500000
vt 0.500000 0.500000
vt 0.500000 0.500000
vt 0.500000 0.500000
vt 0.500000 0.500000
vt 0.500000 0.500000
vt 0.500000 0.500000
vt 0.500000 0.500000
vt 0.500000 0.500000
vt 0.500000 0.500000
vt 0.500000 0.500000
vt 0.500000 0.500000
vt 0.500000 0.500000
vt 0.500000 0.500000
vt 0.500000 0.500000
vt 0.500000 0.500000
vt 0.500000 0.500000
vt 0.500000 0.500000
vt 0.500000 0.500000
vt 0.500000 0.500000
vt 0.500000 0.500000
vt 0.500000 0.500000
vt 0.500000 0.500000
vt 0.500000 0.500000
vt 0.500000 0.500000
vt 0.500000 0.500000
vt 0.500000 0.500000
vt 0.500000 0.500000
vt 0.500000 0.500000
vt 0.500000 0.500000
vt 0.500000 0.500000
vt 0.500000 0.500000
vt 0.500000 0.500000
vt 0.500000 0.500000
vt 0.500000 0.500000
vt 0.500000 0.500000
vt 0.500000 0.500000
vt 0.500000 0.500000
vt 0.500000 0.500000
vt 0.500000 0.500000
vt 0.500000 0.500000
vt 0.500000 0.500000
vt 0.500000 0.500000
vt 0.500000 0.500000
vt 0.500000 0.500000
vt 0.500000 0.500000
vt 0.500000 0.500000
vt 0.500000 0.500000
vt 0.500000 0.500000
vt 0.500000 0.500000
vt 0.500000 0.500000
vt 0.500000 0.500000
vt 0.500000 0.500000
vt 0.500000 0.500000
vt 0.500000 0.500000
vt 0.500000 0.500000
vt 0.500000 0.500000
vt 0.500000 0.500000
vt 0.500000 0.500000
vt 0.500000 0.500000
vt 0.500000 0.500000
vt 0.500000 0.500000
vt 0.500000 0.500000
vt 0.500000 0.500000
vt 0.500000 0.500000
vt 0.500000 0.500000
vt 0.500000 0.500000
vt 0.500000 0.500000
vt 0.500000 0.500000
vt 0.500000 0.500000
vt 0.500000 0.500000
vt 0.500000 0.500000
vt 0.500000 0.500000
vt 0.500000 0.500000
vt 0.500000 0.500000
vt 0.500000 0.500000
vt 0.500000 0.500000
vt 0.500000 0.500000
vt 0.500000 0.500000
vt 0.500000 0.500000
vt 0.500000 0.500000
vt 0.500000 0.500000
vt 0.500000 0.500000
vt 0.500000 0.500000
vt 0.500000 0.500000
vt 0.500000 0.500000
vt 0.801218 0.295770
vt 0.799714 0.293673
vt 0.809356 0.289112
vt 0.832262 0.292657
vt 0.833306 0.295385
vt 0.815846 0.288388
vt 0.832338 0.300485
vt 0.813208 0.289461
vt 0.806843 0.305845
vt 0.806806 0.307981
vt 0.798800 0.301020
vt 0.796455 0.293744
vt 0.789688 0.287896
vt 0.842829 0.296208
vt 0.842321 0.299455
vt 0.835889 0.295419
vt 0.815837 0.306682
vt 0.813230 0.305171
vt 0.831646 0.302742
vt 0.824435 0.313914
vt 0.809481 0.304873
vt 0.837578 0.301670
vt 0.839113 0.294249
vt 0.800360 0.279957
vt 0.805516 0.279560
vt 0.807184 0.284916
vt 0.789042 0.291879
vt 0.806799 0.287501
vt 0.788684 0.302846
vt 0.789234 0.300477
vt 0.791778 0.300322
vt 0.800857 0.298831
vt 0.789500 0.306462
vt 0.795402 0.301111
vt 0.808727 0.282156
vt 0.833333 0.312500
vt 0.815623 0.285945
vt 0.814335 0.283031
vt 0.818355 0.279930
vt 0.823976 0.280154
vt 0.833333 0.281250
vt 0.819046 0.314391
vt 0.815832 0.309199
vt 0.840453 0.301731
vt 0.834546 0.300591
vt 0.815386 0.313871
vt 0.814870 0.311914
vt 0.791667 0.281250
vt 0.807811 0.310518
vt 0.807537 0.312530
vt 0.804379 0.313340
vt 0.799608 0.313264
vt 0.841754 0.294027
vt 0.792662 0.294666
vt 0.814638 0.280757
vt 0.791667 0.312500
vt 0.789832 0.294492
vt 0.808781 0.280152
vn 0.0000 -1.0000 0.0000
vn 0.1862 0.0000 0.9825
vn -0.1172 0.0000 0.9931
vn 0.9810 0.0000 0.1941
vn 0.0212 0.0000 0.9998
vn -0.3235 0.0000 0.9462
vn 0.1272 0.0000 0.9919
vn -0.2072 0.0000 0.9783
vn -0.9948 0.0000 0.1018
vn 0.9664 0.0000 -0.2570
vn -0.9586 0.0000 -0.2849
vn 0.9656 0.0000 0.2599
vn 1.0000 0.0000 -0.0015
vn -0.9999 0.0000 0.0129
vn 0.6113 0.0000 0.7914
vn 0.9860 0.0000 0.1669
vn -0.9917 0.0000 -0.1287
vn -0.4410 0.0000 0.8975
vn 0.1054 0.0000 0.9944
vn 0.9852 0.0000 -0.1715
vn -0.9746 0.0000 0.2241
vn 0.0283 0.0000 0.9996
vn -0.8516 0.0000 0.5241
vn 0.4286 0.0000 0.9035
vn 0.0812 0.0000 -0.9967
vn -0.2789 0.0000 -0.9603
vn 0.0360 0.0000 -0.9994
vn 0.8172 0.0000 -0.5764
vn 0.0642 0.0000 0.9979
vn -0.9932 0.0000 0.1166
vn 0.9961 0.0000 -0.0881
vn -0.9380 0.0000 -0.3467
vn 0.8807 0.0000 0.4737
vn -0.0175 0.0000 -0.9998
vn 0.4357 0.0000 -0.9001
vn 0.1113 0.0000 -0.9938
vn -0.9612 0.0000 -0.2760
vn 0.0816 0.0000 0.9967
vn -0.3083 0.0000 0.9513
vn 0.9753 0.0000 0.2211
vn -0.0290 0.0000 0.9996
vn 0.9927 0.0000 -0.1209
vn -0.1198 0.0000 -0.9928
vn 0.4767 0.0000 -0.8791
vn -0.6431 0.0000 -0.7658
vn 0.9977 0.0000 0.0683
vn -0.9938 0.0000 0.1112
vn 0.9492 0.0000 0.3148
vn -0.9222 0.0000 0.3867
vn 0.9760 0.0000 -0.2179
vn 0.9950 0.0000 -0.0995
vn -0.9998 0.0000 0.0203
vn -0.9975 0.0000 0.0703
vn 0.2842 0.0000 -0.9588
vn -0.0531 0.0000 -0.9986
vn -0.1542 0.0000 -0.9880
vn 0.1945 0.0000 -0.9809
vn 0.1020 0.0000 -0.9948
vn -0.2348 0.0000 -0.9720
vn 0.0000 1.0000 0.0000
usemtl BackMat.001
s off
f 228/1/1 245/2/1 231/3/1
f 237/4/1 246/5/1 234/6/1
f 217/7/1 246/5/1 244/8/1
f 209/9/1 225/10/1 206/11/1
f 231/3/1 243/12/1 241/13/1
f 227/14/1 233/15/1 221/16/1
f 217/7/1 211/17/1 208/18/1
f 213/19/1 208/18/1 194/20/1
f 211/17/1 244/8/1 214/21/1
f 221/16/1 233/15/1 219/22/1
f 233/15/1 227/14/1 236/23/1
f 263/24/1 250/25/1 264/26/1
f 242/27/1 241/13/1 243/12/1
f 245/2/1 248/28/1 231/3/1
f 212/29/1 223/30/1 215/31/1
f 209/9/1 226/32/1 225/10/1
f 217/7/1 208/18/1 213/19/1
f 207/33/1 225/10/1 224/34/1
f 264/26/1 250/25/1 252/35/1
f 214/21/1 228/1/1 226/32/1
f 213/19/1 194/20/1 202/36/1
f 249/37/1 261/38/1 251/39/1
f 262/40/1 237/4/1 259/41/1
f 214/21/1 244/8/1 228/1/1
f 194/20/1 205/42/1 193/43/1
f 220/44/1 221/16/1 219/22/1
f 219/22/1 233/15/1 222/45/1
f 193/43/1 195/46/1 191/47/1
f 214/21/1 226/32/1 209/9/1
f 208/18/1 205/42/1 194/20/1
f 245/2/1 228/1/1 244/8/1
f 248/28/1 243/12/1 231/3/1
f 243/12/1 263/24/1 253/48/1
f 204/49/1 197/50/1 198/51/1
f 222/45/1 234/6/1 217/7/1
f 196/52/1 225/10/1 207/33/1
f 229/53/1 236/23/1 227/14/1
f 233/15/1 234/6/1 222/45/1
f 224/34/1 223/30/1 212/29/1
f 197/50/1 206/11/1 196/52/1
f 262/40/1 246/5/1 237/4/1
f 241/13/1 242/27/1 240/54/1
f 249/37/1 246/5/1 262/40/1
f 261/38/1 249/37/1 262/40/1
f 251/39/1 261/38/1 255/55/1
f 196/52/1 207/33/1 200/56/1
f 205/42/1 195/46/1 193/43/1
f 206/11/1 197/50/1 204/49/1
f 206/11/1 225/10/1 196/52/1
f 248/28/1 263/24/1 243/12/1
f 248/28/1 250/25/1 263/24/1
f 240/54/1 242/27/1 238/57/1
f 207/33/1 224/34/1 212/29/1
f 264/26/1 252/35/1 257/58/1
f 217/7/1 244/8/1 211/17/1
f 234/6/1 246/5/1 217/7/1
f 118/59/2 56/60/2 114/61/2 192/62/2
f 56/60/3 57/63/3 115/64/3 114/61/3
f 54/65/4 55/66/4 113/67/4 112/68/4
f 44/69/5 45/70/5 103/71/5 102/72/5
f 45/70/6 125/73/6 199/74/6 103/71/6
f 127/75/7 44/69/7 102/72/7 201/76/7
f 57/63/8 129/77/8 203/78/8 115/64/8
f 46/79/9 47/80/9 105/81/9 104/82/9
f 53/83/10 54/65/10 112/68/10 111/84/10
f 47/80/11 48/85/11 106/86/11 105/81/11
f 42/87/12 43/88/12 101/89/12 100/90/12
f 52/91/13 53/83/13 111/84/13 110/92/13
f 48/85/14 136/93/14 210/94/14 106/86/14
f 51/95/15 52/91/15 110/92/15 109/96/15
f 41/97/16 42/87/16 100/90/16 99/98/16
f 58/99/17 1/100/17 59/101/17 116/102/17
f 49/103/18 50/104/18 108/105/18 107/106/18
f 50/104/19 51/95/19 109/96/19 108/105/19
f 142/107/20 41/97/20 99/98/20 216/108/20
f 1/100/21 144/109/21 218/110/21 59/101/21
f 4/111/22 5/112/22 63/113/22 62/114/22
f 5/112/23 6/115/23 64/116/23 63/113/23
f 3/117/24 4/111/24 62/114/24 61/118/24
f 39/119/25 40/120/25 98/121/25 97/122/25
f 38/123/26 39/119/26 97/122/26 96/124/26
f 37/125/27 38/123/27 96/124/27 95/126/27
f 36/127/28 37/125/28 95/126/28 94/128/28
f 2/129/29 3/117/29 61/118/29 60/130/29
f 6/115/30 7/131/30 65/132/30 64/116/30
f 35/133/31 36/127/31 94/128/31 93/134/31
f 7/131/32 156/135/32 230/136/32 65/132/32
f 158/137/33 35/133/33 93/134/33 232/138/33
f 10/139/34 161/140/34 235/141/34 68/142/34
f 9/143/35 10/139/35 68/142/35 67/144/35
f 8/145/36 9/143/36 67/144/36 66/146/36
f 11/147/37 12/148/37 70/149/37 69/150/37
f 165/151/38 32/152/38 90/153/38 239/154/38
f 32/152/39 33/155/39 91/156/39 90/153/39
f 30/157/40 31/158/40 89/159/40 88/160/40
f 33/155/41 34/161/41 92/162/41 91/156/41
f 29/163/42 30/157/42 88/160/42 87/164/42
f 20/165/43 21/166/43 79/167/43 78/168/43
f 173/169/44 20/165/44 78/168/44 247/170/44
f 21/166/45 22/171/45 80/172/45 79/167/45
f 18/173/46 19/174/46 77/175/46 76/176/46
f 22/171/47 23/177/47 81/178/47 80/172/47
f 17/179/48 18/173/48 76/176/48 75/180/48
f 23/177/49 24/181/49 82/182/49 81/178/49
f 180/183/50 29/163/50 87/164/50 254/184/50
f 182/185/51 17/179/51 75/180/51 256/186/51
f 24/181/52 184/187/52 258/188/52 82/182/52
f 12/148/53 186/189/53 260/190/53 70/149/53
f 15/191/54 16/192/54 74/193/54 73/194/54
f 14/195/55 15/191/55 73/194/55 72/196/55
f 13/197/56 14/195/56 72/196/56 71/198/56
f 27/199/57 28/200/57 86/201/57 85/202/57
f 26/203/58 27/199/58 85/202/58 84/204/58
f 25/205/59 26/203/59 84/204/59 83/206/59
usemtl FrontMat.001
f 154/207/60 157/208/60 171/209/60
f 163/210/60 160/211/60 172/212/60
f 143/213/60 170/214/60 172/212/60
f 135/215/60 132/216/60 151/217/60
f 157/208/60 167/218/60 169/219/60
f 153/220/60 147/221/60 159/222/60
f 143/213/60 134/223/60 137/224/60
f 139/225/60 120/226/60 134/223/60
f 137/224/60 140/227/60 170/214/60
f 147/221/60 145/228/60 159/222/60
f 159/222/60 162/229/60 153/220/60
f 189/230/60 190/231/60 176/232/60
f 168/233/60 169/219/60 167/218/60
f 171/209/60 157/208/60 174/234/60
f 138/235/60 141/236/60 149/237/60
f 135/215/60 151/217/60 152/238/60
f 143/213/60 139/225/60 134/223/60
f 133/239/60 150/240/60 151/217/60
f 190/231/60 178/241/60 176/232/60
f 140/227/60 152/238/60 154/207/60
f 139/225/60 128/242/60 120/226/60
f 175/243/60 177/244/60 187/245/60
f 188/246/60 185/247/60 163/210/60
f 140/227/60 154/207/60 170/214/60
f 120/226/60 119/248/60 131/249/60
f 146/250/60 145/228/60 147/221/60
f 145/228/60 148/251/60 159/222/60
f 119/248/60 117/252/60 121/253/60
f 140/227/60 135/215/60 152/238/60
f 134/223/60 120/226/60 131/249/60
f 171/209/60 170/214/60 154/207/60
f 174/234/60 157/208/60 169/219/60
f 169/219/60 179/254/60 189/230/60
f 130/255/60 124/256/60 123/257/60
f 148/251/60 143/213/60 160/211/60
f 122/258/60 133/239/60 151/217/60
f 155/259/60 153/220/60 162/229/60
f 159/222/60 148/251/60 160/211/60
f 150/240/60 138/235/60 149/237/60
f 123/257/60 122/258/60 132/216/60
f 188/246/60 163/210/60 172/212/60
f 167/218/60 166/260/60 168/233/60
f 175/243/60 188/246/60 172/212/60
f 187/245/60 188/246/60 175/243/60
f 177/244/60 181/261/60 187/245/60
f 122/258/60 126/262/60 133/239/60
f 131/249/60 119/248/60 121/253/60
f 132/216/60 130/255/60 123/257/60
f 132/216/60 122/258/60 151/217/60
f 174/234/60 169/219/60 189/230/60
f 174/234/60 189/230/60 176/232/60
f 166/260/60 164/263/60 168/233/60
f 133/239/60 138/235/60 150/240/60
f 190/231/60 183/264/60 178/241/60
f 143/213/60 137/224/60 170/214/60
f 160/211/60 143/213/60 172/212/60
