# Blender v2.83.1 OBJ File: 'jigsaw-24x32-3-step2.blend'
# www.blender.org
mtllib piece.506.mtl
o path1012
v 0.307821 0.037500 0.537603
v 0.188679 0.037500 0.548484
v 0.110928 0.037500 0.530507
v 0.106621 0.037500 0.471640
v 0.134668 0.037500 0.392367
v 0.135677 0.037500 0.321300
v 0.069929 0.037500 0.282344
v -0.023651 0.037500 0.280576
v -0.086473 0.037500 0.316360
v -0.080294 0.037500 0.385250
v -0.048288 0.037500 0.463567
v -0.053978 0.037500 0.522820
v -0.141010 0.037500 0.542485
v -0.494743 0.037500 0.500826
v -0.470217 0.037500 0.276888
v -0.468920 0.037500 0.142203
v -0.498222 0.037500 0.052732
v -0.568743 0.037500 0.044390
v -0.656494 0.037500 0.073034
v -0.728840 0.037500 0.074510
v -0.759361 0.037500 0.005504
v -0.746508 0.037500 -0.093929
v -0.694941 0.037500 -0.162888
v -0.613361 0.037500 -0.160781
v -0.526539 0.037500 -0.128238
v -0.463280 0.037500 -0.126198
v -0.443993 0.037500 -0.197200
v -0.455545 0.037500 -0.310196
v -0.494743 0.037500 -0.501084
v -0.269226 0.037500 -0.527133
v -0.134281 0.037500 -0.530158
v -0.046181 0.037500 -0.503816
v -0.041431 0.037500 -0.437699
v -0.074577 0.037500 -0.355183
v -0.079678 0.037500 -0.288087
v -0.012255 0.037500 -0.261681
v 0.086304 0.037500 -0.275021
v 0.153141 0.037500 -0.320611
v 0.146580 0.037500 -0.388603
v 0.109674 0.037500 -0.459746
v 0.106653 0.037500 -0.512439
v 0.182200 0.037500 -0.531346
v 0.506954 0.037500 -0.501084
v 0.485247 0.037500 -0.190685
v 0.503750 0.037500 -0.117538
v 0.551434 0.037500 -0.118343
v 0.614828 0.037500 -0.149806
v 0.675062 0.037500 -0.149927
v 0.715128 0.037500 -0.077581
v 0.725504 0.037500 0.024861
v 0.698540 0.037500 0.094154
v 0.633039 0.037500 0.088752
v 0.553654 0.037500 0.053895
v 0.491488 0.037500 0.056521
v 0.469231 0.037500 0.142901
v 0.475937 0.037500 0.276639
v 0.506954 0.037500 0.500826
v 0.307821 -0.037500 0.537603
v 0.188679 -0.037498 0.548484
v 0.110928 -0.037500 0.530507
v 0.106621 -0.037498 0.471640
v 0.134668 -0.037500 0.392367
v 0.135677 -0.037500 0.321300
v 0.069929 -0.037500 0.282344
v -0.023651 -0.037500 0.280576
v -0.086473 -0.037500 0.316360
v -0.080294 -0.037498 0.385250
v -0.048288 -0.037500 0.463567
v -0.053978 -0.037498 0.522820
v -0.141010 -0.037500 0.542485
v -0.494743 -0.037500 0.500826
v -0.470217 -0.037500 0.276888
v -0.468920 -0.037500 0.142203
v -0.498222 -0.037500 0.052732
v -0.568743 -0.037498 0.044390
v -0.656494 -0.037500 0.073034
v -0.728840 -0.037500 0.074510
v -0.759361 -0.037500 0.005504
v -0.746508 -0.037500 -0.093929
v -0.694941 -0.037500 -0.162888
v -0.613361 -0.037500 -0.160781
v -0.526539 -0.037500 -0.128238
v -0.463280 -0.037500 -0.126198
v -0.443993 -0.037498 -0.197200
v -0.455545 -0.037500 -0.310196
v -0.494743 -0.037500 -0.501084
v -0.269226 -0.037500 -0.527133
v -0.134281 -0.037498 -0.530158
v -0.046181 -0.037498 -0.503816
v -0.041431 -0.037500 -0.437699
v -0.074577 -0.037500 -0.355183
v -0.079678 -0.037500 -0.288087
v -0.012255 -0.037498 -0.261681
v 0.086304 -0.037500 -0.275021
v 0.153141 -0.037500 -0.320611
v 0.146580 -0.037500 -0.388603
v 0.109674 -0.037500 -0.459746
v 0.106653 -0.037498 -0.512439
v 0.182200 -0.037498 -0.531346
v 0.506954 -0.037498 -0.501084
v 0.485247 -0.037500 -0.190685
v 0.503750 -0.037500 -0.117538
v 0.551434 -0.037500 -0.118343
v 0.614828 -0.037500 -0.149806
v 0.675062 -0.037500 -0.149927
v 0.715128 -0.037500 -0.077581
v 0.725504 -0.037498 0.024861
v 0.698540 -0.037500 0.094154
v 0.633039 -0.037500 0.088752
v 0.553654 -0.037500 0.053895
v 0.491488 -0.037500 0.056521
v 0.469231 -0.037500 0.142901
v 0.475937 -0.037500 0.276639
v 0.506954 -0.037500 0.500826
v 0.715128 0.037500 -0.077581
v 0.725504 0.037500 0.024861
v 0.698540 0.037500 0.094154
v 0.698540 0.037500 0.094154
v 0.675062 0.037500 -0.149927
v 0.675062 0.037500 -0.149927
v 0.633039 0.037500 0.088752
v 0.614828 0.037500 -0.149806
v 0.553654 0.037500 0.053895
v 0.551434 0.037500 -0.118343
v 0.491488 0.037500 0.056521
v 0.491488 0.037500 0.056521
v 0.503750 0.037500 -0.117538
v 0.503750 0.037500 -0.117538
v 0.485247 0.037500 -0.190685
v 0.475937 0.037500 0.276639
v 0.506954 0.037500 0.500826
v 0.506954 0.037500 0.500826
v 0.469231 0.037500 0.142901
v 0.506954 0.037500 -0.501084
v 0.506954 0.037500 -0.501084
v 0.307821 0.037500 0.537603
v 0.188679 0.037500 0.548484
v 0.182200 0.037500 -0.531346
v 0.110928 0.037500 0.530507
v 0.110928 0.037500 0.530507
v 0.106653 0.037500 -0.512439
v 0.106653 0.037500 -0.512439
v 0.153141 0.037500 -0.320611
v 0.153141 0.037500 -0.320611
v 0.146580 0.037500 -0.388603
v 0.086304 0.037500 -0.275021
v 0.134668 0.037500 0.392367
v 0.135677 0.037500 0.321300
v 0.109674 0.037500 -0.459746
v 0.069929 0.037500 0.282344
v 0.106621 0.037500 0.471640
v -0.012255 0.037500 -0.261681
v -0.023651 0.037500 0.280576
v -0.079678 0.037500 -0.288087
v -0.079678 0.037500 -0.288087
v -0.086473 0.037500 0.316360
v -0.086473 0.037500 0.316360
v -0.046181 0.037500 -0.503816
v -0.046181 0.037500 -0.503816
v -0.041431 0.037500 -0.437699
v -0.074577 0.037500 -0.355183
v -0.134281 0.037500 -0.530158
v -0.080294 0.037500 0.385250
v -0.048288 0.037500 0.463567
v -0.053978 0.037500 0.522820
v -0.053978 0.037500 0.522820
v -0.141010 0.037500 0.542485
v -0.269226 0.037500 -0.527133
v -0.494743 0.037500 -0.501084
v -0.494743 0.037500 -0.501084
v -0.443993 0.037500 -0.197200
v -0.455545 0.037500 -0.310196
v -0.463280 0.037500 -0.126198
v -0.463280 0.037500 -0.126198
v -0.526539 0.037500 -0.128238
v -0.468920 0.037500 0.142203
v -0.498222 0.037500 0.052732
v -0.498222 0.037500 0.052732
v -0.470217 0.037500 0.276888
v -0.494743 0.037500 0.500826
v -0.494743 0.037500 0.500826
v -0.568743 0.037500 0.044390
v -0.613361 0.037500 -0.160781
v -0.656494 0.037500 0.073034
v -0.694941 0.037500 -0.162888
v -0.728840 0.037500 0.074510
v -0.728840 0.037500 0.074510
v -0.746508 0.037500 -0.093929
v -0.759361 0.037500 0.005504
v 0.715128 -0.037500 -0.077581
v 0.725504 -0.037498 0.024861
v 0.698540 -0.037500 0.094154
v 0.698540 -0.037500 0.094154
v 0.675062 -0.037500 -0.149927
v 0.675062 -0.037500 -0.149927
v 0.633039 -0.037500 0.088752
v 0.614828 -0.037500 -0.149806
v 0.553654 -0.037500 0.053895
v 0.551434 -0.037500 -0.118343
v 0.491488 -0.037500 0.056521
v 0.491488 -0.037500 0.056521
v 0.503750 -0.037500 -0.117538
v 0.503750 -0.037500 -0.117538
v 0.485247 -0.037500 -0.190685
v 0.475937 -0.037500 0.276639
v 0.506954 -0.037500 0.500826
v 0.506954 -0.037500 0.500826
v 0.469231 -0.037500 0.142901
v 0.506954 -0.037498 -0.501084
v 0.506954 -0.037498 -0.501084
v 0.307821 -0.037500 0.537603
v 0.188679 -0.037498 0.548484
v 0.182200 -0.037498 -0.531346
v 0.110928 -0.037500 0.530507
v 0.110928 -0.037500 0.530507
v 0.106653 -0.037498 -0.512439
v 0.106653 -0.037498 -0.512439
v 0.153141 -0.037500 -0.320611
v 0.153141 -0.037500 -0.320611
v 0.146580 -0.037500 -0.388603
v 0.086304 -0.037500 -0.275021
v 0.134668 -0.037500 0.392367
v 0.135677 -0.037500 0.321300
v 0.109674 -0.037500 -0.459746
v 0.069929 -0.037500 0.282344
v 0.106621 -0.037498 0.471640
v -0.012255 -0.037498 -0.261681
v -0.023651 -0.037500 0.280576
v -0.079678 -0.037500 -0.288087
v -0.079678 -0.037500 -0.288087
v -0.086473 -0.037500 0.316360
v -0.086473 -0.037500 0.316360
v -0.046181 -0.037498 -0.503816
v -0.046181 -0.037498 -0.503816
v -0.041431 -0.037500 -0.437699
v -0.074577 -0.037500 -0.355183
v -0.134281 -0.037498 -0.530158
v -0.080294 -0.037498 0.385250
v -0.048288 -0.037500 0.463567
v -0.053978 -0.037498 0.522820
v -0.053978 -0.037498 0.522820
v -0.141010 -0.037500 0.542485
v -0.269226 -0.037500 -0.527133
v -0.494743 -0.037500 -0.501084
v -0.494743 -0.037500 -0.501084
v -0.443993 -0.037498 -0.197200
v -0.455545 -0.037500 -0.310196
v -0.463280 -0.037500 -0.126198
v -0.463280 -0.037500 -0.126198
v -0.526539 -0.037500 -0.128238
v -0.468920 -0.037500 0.142203
v -0.498222 -0.037500 0.052732
v -0.498222 -0.037500 0.052732
v -0.470217 -0.037500 0.276888
v -0.494743 -0.037500 0.500826
v -0.494743 -0.037500 0.500826
v -0.568743 -0.037498 0.044390
v -0.613361 -0.037500 -0.160781
v -0.656494 -0.037500 0.073034
v -0.694941 -0.037500 -0.162888
v -0.728840 -0.037500 0.074510
v -0.728840 -0.037500 0.074510
v -0.746508 -0.037500 -0.093929
v -0.759361 -0.037500 0.005504
vt 0.500000 0.500000
vt 0.500000 0.500000
vt 0.500000 0.500000
vt 0.500000 0.500000
vt 0.500000 0.500000
vt 0.500000 0.500000
vt 0.500000 0.500000
vt 0.500000 0.500000
vt 0.500000 0.500000
vt 0.500000 0.500000
vt 0.500000 0.500000
vt 0.500000 0.500000
vt 0.500000 0.500000
vt 0.500000 0.500000
vt 0.500000 0.500000
vt 0.500000 0.500000
vt 0.500000 0.500000
vt 0.500000 0.500000
vt 0.500000 0.500000
vt 0.500000 0.500000
vt 0.500000 0.500000
vt 0.500000 0.500000
vt 0.500000 0.500000
vt 0.500000 0.500000
vt 0.500000 0.500000
vt 0.500000 0.500000
vt 0.500000 0.500000
vt 0.500000 0.500000
vt 0.500000 0.500000
vt 0.500000 0.500000
vt 0.500000 0.500000
vt 0.500000 0.500000
vt 0.500000 0.500000
vt 0.500000 0.500000
vt 0.500000 0.500000
vt 0.500000 0.500000
vt 0.500000 0.500000
vt 0.500000 0.500000
vt 0.500000 0.500000
vt 0.500000 0.500000
vt 0.500000 0.500000
vt 0.500000 0.500000
vt 0.500000 0.500000
vt 0.500000 0.500000
vt 0.500000 0.500000
vt 0.500000 0.500000
vt 0.500000 0.500000
vt 0.500000 0.500000
vt 0.500000 0.500000
vt 0.500000 0.500000
vt 0.500000 0.500000
vt 0.500000 0.500000
vt 0.500000 0.500000
vt 0.500000 0.500000
vt 0.500000 0.500000
vt 0.500000 0.500000
vt 0.500000 0.500000
vt 0.500000 0.500000
vt 0.500000 0.500000
vt 0.500000 0.500000
vt 0.500000 0.500000
vt 0.500000 0.500000
vt 0.500000 0.500000
vt 0.500000 0.500000
vt 0.500000 0.500000
vt 0.500000 0.500000
vt 0.500000 0.500000
vt 0.500000 0.500000
vt 0.500000 0.500000
vt 0.500000 0.500000
vt 0.500000 0.500000
vt 0.500000 0.500000
vt 0.500000 0.500000
vt 0.500000 0.500000
vt 0.500000 0.500000
vt 0.500000 0.500000
vt 0.500000 0.500000
vt 0.500000 0.500000
vt 0.500000 0.500000
vt 0.500000 0.500000
vt 0.500000 0.500000
vt 0.500000 0.500000
vt 0.500000 0.500000
vt 0.500000 0.500000
vt 0.500000 0.500000
vt 0.500000 0.500000
vt 0.500000 0.500000
vt 0.500000 0.500000
vt 0.500000 0.500000
vt 0.500000 0.500000
vt 0.500000 0.500000
vt 0.500000 0.500000
vt 0.500000 0.500000
vt 0.500000 0.500000
vt 0.500000 0.500000
vt 0.500000 0.500000
vt 0.500000 0.500000
vt 0.500000 0.500000
vt 0.500000 0.500000
vt 0.500000 0.500000
vt 0.500000 0.500000
vt 0.500000 0.500000
vt 0.500000 0.500000
vt 0.500000 0.500000
vt 0.500000 0.500000
vt 0.500000 0.500000
vt 0.500000 0.500000
vt 0.500000 0.500000
vt 0.500000 0.500000
vt 0.500000 0.500000
vt 0.500000 0.500000
vt 0.500000 0.500000
vt 0.500000 0.500000
vt 0.500000 0.500000
vt 0.500000 0.500000
vt 0.500000 0.500000
vt 0.500000 0.500000
vt 0.500000 0.500000
vt 0.500000 0.500000
vt 0.500000 0.500000
vt 0.500000 0.500000
vt 0.500000 0.500000
vt 0.500000 0.500000
vt 0.500000 0.500000
vt 0.500000 0.500000
vt 0.500000 0.500000
vt 0.500000 0.500000
vt 0.500000 0.500000
vt 0.500000 0.500000
vt 0.500000 0.500000
vt 0.500000 0.500000
vt 0.500000 0.500000
vt 0.500000 0.500000
vt 0.500000 0.500000
vt 0.500000 0.500000
vt 0.500000 0.500000
vt 0.500000 0.500000
vt 0.500000 0.500000
vt 0.500000 0.500000
vt 0.500000 0.500000
vt 0.500000 0.500000
vt 0.500000 0.500000
vt 0.500000 0.500000
vt 0.500000 0.500000
vt 0.500000 0.500000
vt 0.500000 0.500000
vt 0.500000 0.500000
vt 0.500000 0.500000
vt 0.500000 0.500000
vt 0.500000 0.500000
vt 0.500000 0.500000
vt 0.500000 0.500000
vt 0.500000 0.500000
vt 0.500000 0.500000
vt 0.500000 0.500000
vt 0.500000 0.500000
vt 0.500000 0.500000
vt 0.500000 0.500000
vt 0.500000 0.500000
vt 0.500000 0.500000
vt 0.500000 0.500000
vt 0.500000 0.500000
vt 0.500000 0.500000
vt 0.500000 0.500000
vt 0.500000 0.500000
vt 0.500000 0.500000
vt 0.500000 0.500000
vt 0.500000 0.500000
vt 0.500000 0.500000
vt 0.500000 0.500000
vt 0.500000 0.500000
vt 0.500000 0.500000
vt 0.500000 0.500000
vt 0.500000 0.500000
vt 0.500000 0.500000
vt 0.500000 0.500000
vt 0.500000 0.500000
vt 0.500000 0.500000
vt 0.500000 0.500000
vt 0.500000 0.500000
vt 0.500000 0.500000
vt 0.500000 0.500000
vt 0.500000 0.500000
vt 0.500000 0.500000
vt 0.500000 0.500000
vt 0.500000 0.500000
vt 0.500000 0.500000
vt 0.500000 0.500000
vt 0.500000 0.500000
vt 0.500000 0.500000
vt 0.500000 0.500000
vt 0.500000 0.500000
vt 0.500000 0.500000
vt 0.500000 0.500000
vt 0.500000 0.500000
vt 0.500000 0.500000
vt 0.500000 0.500000
vt 0.500000 0.500000
vt 0.500000 0.500000
vt 0.500000 0.500000
vt 0.500000 0.500000
vt 0.500000 0.500000
vt 0.500000 0.500000
vt 0.500000 0.500000
vt 0.500000 0.500000
vt 0.500000 0.500000
vt 0.500000 0.500000
vt 0.040457 0.323745
vt 0.040583 0.319535
vt 0.047734 0.325608
vt 0.074020 0.313265
vt 0.083333 0.312500
vt 0.085066 0.323535
vt 0.074247 0.330116
vt 0.075867 0.332167
vt 0.068448 0.342573
vt 0.055819 0.308799
vt 0.058599 0.304646
vt 0.064351 0.310191
vt 0.051068 0.330627
vt 0.064856 0.343267
vt 0.057617 0.343650
vt 0.050525 0.325449
vt 0.049605 0.313723
vt 0.054304 0.314083
vt 0.041667 0.312500
vt 0.057172 0.311508
vt 0.056270 0.348995
vt 0.056275 0.347115
vt 0.059279 0.350244
vt 0.064747 0.345207
vt 0.066196 0.347683
vt 0.063539 0.350568
vt 0.066421 0.349727
vt 0.055731 0.306254
vt 0.051623 0.327552
vt 0.074174 0.327197
vt 0.084863 0.337538
vt 0.074010 0.342782
vt 0.064698 0.312391
vt 0.081784 0.326428
vt 0.078527 0.325430
vt 0.041553 0.326494
vt 0.044303 0.326642
vt 0.054575 0.343073
vt 0.082120 0.331261
vt 0.084568 0.331395
vt 0.085315 0.333821
vt 0.041667 0.343750
vt 0.049172 0.332712
vt 0.057584 0.345138
vt 0.057257 0.313482
vt 0.084248 0.326251
vt 0.075662 0.325237
vt 0.068419 0.313306
vt 0.078823 0.332136
vt 0.046344 0.332507
vt 0.040408 0.333619
vt 0.083333 0.343750
vt 0.041194 0.331262
vt 0.043386 0.331356
vt 0.062734 0.304245
vt 0.065543 0.307454
vt 0.065604 0.305197
vn 0.0000 -1.0000 -0.0000
vn 0.9949 0.0000 -0.1008
vn 0.9319 0.0000 0.3626
vn 0.8748 0.0000 -0.4845
vn -0.0822 0.0000 0.9966
vn -0.0020 0.0000 -1.0000
vn -0.4020 0.0000 0.9156
vn -0.4446 0.0000 -0.8957
vn 0.0422 0.0000 0.9991
vn -0.0169 0.0000 -0.9999
vn 0.9695 0.0000 -0.2452
vn 0.9906 0.0000 -0.1370
vn 0.9684 0.0000 0.2495
vn 0.9976 0.0000 0.0698
vn 0.9987 0.0000 -0.0501
vn 0.1816 0.0000 0.9834
vn 0.0909 0.0000 0.9959
vn 0.0928 0.0000 -0.9957
vn -0.2253 0.0000 0.9743
vn -0.2428 0.0000 -0.9701
vn -0.9954 0.0000 0.0961
vn -0.5635 0.0000 -0.8261
vn -0.9999 0.0000 -0.0142
vn -0.9984 0.0000 0.0572
vn -0.8877 0.0000 0.4605
vn -0.5097 0.0000 0.8603
vn -0.9427 0.0000 -0.3335
vn -0.9973 0.0000 0.0730
vn -0.1341 0.0000 -0.9910
vn -0.0189 0.0000 0.9998
vn 0.3647 0.0000 -0.9311
vn 0.4949 0.0000 0.8689
vn 0.9974 0.0000 -0.0716
vn 0.9279 0.0000 0.3727
vn 0.2865 0.0000 -0.9581
vn 0.9257 0.0000 -0.3783
vn 0.9954 0.0000 0.0956
vn 0.2204 0.0000 0.9754
vn 0.9971 0.0000 0.0758
vn 0.9960 0.0000 -0.0893
vn -0.0224 0.0000 -0.9997
vn -0.1147 0.0000 -0.9934
vn -0.9948 0.0000 0.1017
vn -0.9650 0.0000 -0.2621
vn 0.0322 0.0000 -0.9995
vn -0.9503 0.0000 0.3112
vn -1.0000 0.0000 -0.0096
vn -0.9941 0.0000 -0.1089
vn -0.1170 0.0000 0.9931
vn -0.9796 0.0000 0.2011
vn -0.1175 0.0000 0.9931
vn 0.3510 0.0000 -0.9364
vn 0.3103 0.0000 0.9506
vn 0.0258 0.0000 -0.9997
vn 0.0204 0.0000 0.9998
vn -0.8008 0.0000 -0.5989
vn -0.9917 0.0000 -0.1282
vn -0.9145 0.0000 0.4045
vn 0.0000 1.0000 -0.0000
usemtl BackMat.001
s off
f 237/1/1 236/2/1 243/3/1
f 254/4/1 242/5/1 255/6/1
f 225/7/1 208/8/1 223/9/1
f 258/10/1 257/11/1 263/12/1
f 221/13/1 202/14/1 200/15/1
f 229/16/1 243/3/1 236/2/1
f 247/17/1 229/16/1 246/18/1
f 243/3/1 247/17/1 244/19/1
f 250/20/1 257/11/1 258/10/1
f 194/21/1 190/22/1 197/23/1
f 198/24/1 191/25/1 196/26/1
f 196/26/1 191/25/1 192/27/1
f 258/10/1 263/12/1 260/28/1
f 227/29/1 228/30/1 229/16/1
f 211/31/1 223/9/1 205/32/1
f 257/11/1 250/20/1 252/33/1
f 242/5/1 238/34/1 239/35/1
f 233/36/1 235/37/1 237/1/1
f 221/13/1 204/38/1 202/14/1
f 226/39/1 212/40/1 214/41/1
f 204/38/1 218/42/1 209/43/1
f 218/42/1 204/38/1 221/13/1
f 254/4/1 238/34/1 242/5/1
f 197/23/1 190/22/1 199/44/1
f 199/44/1 198/24/1 202/14/1
f 229/16/1 228/30/1 248/45/1
f 242/5/1 239/35/1 240/46/1
f 231/47/1 238/34/1 254/4/1
f 236/2/1 237/1/1 235/37/1
f 248/45/1 252/33/1 250/20/1
f 251/48/1 231/47/1 254/4/1
f 248/45/1 228/30/1 251/48/1
f 251/48/1 228/30/1 231/47/1
f 246/18/1 229/16/1 248/45/1
f 243/3/1 229/16/1 247/17/1
f 212/40/1 222/49/1 211/31/1
f 220/50/1 209/43/1 218/42/1
f 191/25/1 198/24/1 190/22/1
f 223/9/1 211/31/1 222/49/1
f 248/45/1 251/48/1 252/33/1
f 213/51/1 209/43/1 220/50/1
f 211/31/1 205/32/1 206/52/1
f 216/53/1 213/51/1 224/54/1
f 222/49/1 212/40/1 226/39/1
f 202/14/1 198/24/1 200/15/1
f 198/24/1 199/44/1 190/22/1
f 263/12/1 259/55/1 264/56/1
f 205/32/1 223/9/1 208/8/1
f 227/29/1 225/7/1 228/30/1
f 221/13/1 225/7/1 227/29/1
f 264/56/1 259/55/1 261/57/1
f 257/11/1 259/55/1 263/12/1
f 200/15/1 208/8/1 225/7/1
f 221/13/1 200/15/1 225/7/1
f 224/54/1 213/51/1 220/50/1
f 49/58/2 50/59/2 107/60/2 106/61/2
f 50/59/3 118/62/3 193/63/3 107/60/3
f 120/64/4 49/58/4 106/61/4 195/65/4
f 51/66/5 52/67/5 109/68/5 108/69/5
f 47/70/6 48/71/6 105/72/6 104/73/6
f 52/67/7 53/74/7 110/75/7 109/68/7
f 46/76/8 47/70/8 104/73/8 103/77/8
f 53/74/9 126/78/9 201/79/9 110/75/9
f 128/80/10 46/76/10 103/77/10 203/81/10
f 44/82/11 45/83/11 102/84/11 101/85/11
f 56/86/12 132/87/12 207/88/12 113/89/12
f 54/90/13 55/91/13 112/92/13 111/93/13
f 135/94/14 44/82/14 101/85/14 210/95/14
f 55/91/15 56/86/15 113/89/15 112/92/15
f 57/96/16 1/97/16 58/98/16 114/99/16
f 1/97/17 2/100/17 59/101/17 58/98/17
f 42/102/18 43/103/18 100/104/18 99/105/18
f 2/100/19 140/106/19 215/107/19 59/101/19
f 142/108/20 42/102/20 99/105/20 217/109/20
f 144/110/21 39/111/21 96/112/21 219/113/21
f 37/114/22 38/115/22 95/116/22 94/117/22
f 5/118/23 6/119/23 63/120/23 62/121/23
f 40/122/24 41/123/24 98/124/24 97/125/24
f 39/111/25 40/122/25 97/125/25 96/112/25
f 6/119/26 7/126/26 64/127/26 63/120/26
f 4/128/27 5/118/27 62/121/27 61/129/27
f 3/130/28 4/128/28 61/129/28 60/131/28
f 36/132/29 37/114/29 94/117/29 93/133/29
f 7/126/30 8/134/30 65/135/30 64/127/30
f 155/136/31 36/132/31 93/133/31 230/137/31
f 8/134/32 157/138/32 232/139/32 65/135/32
f 159/140/33 33/141/33 90/142/33 234/143/33
f 33/141/34 34/144/34 91/145/34 90/142/34
f 31/146/35 32/147/35 89/148/35 88/149/35
f 10/150/36 11/151/36 68/152/36 67/153/36
f 11/151/37 166/154/37 241/155/37 68/152/37
f 12/156/38 13/157/38 70/158/38 69/159/38
f 34/144/39 35/160/39 92/161/39 91/145/39
f 9/162/40 10/150/40 67/153/40 66/163/40
f 30/164/41 31/146/41 88/149/41 87/165/41
f 170/166/42 30/164/42 87/165/42 245/167/42
f 27/168/43 28/169/43 85/170/43 84/171/43
f 174/172/44 27/168/44 84/171/44 249/173/44
f 25/174/45 26/175/45 83/176/45 82/177/45
f 16/178/46 178/179/46 253/180/46 73/181/46
f 15/182/47 16/178/47 73/181/47 72/183/47
f 181/184/48 15/182/48 72/183/48 256/185/48
f 13/157/49 14/186/49 71/187/49 70/158/49
f 28/169/50 29/188/50 86/189/50 85/170/50
f 17/190/51 18/191/51 75/192/51 74/193/51
f 24/194/52 25/174/52 82/177/52 81/195/52
f 18/191/53 19/196/53 76/197/53 75/192/53
f 23/198/54 24/194/54 81/195/54 80/199/54
f 19/196/55 187/200/55 262/201/55 76/197/55
f 22/202/56 23/198/56 80/199/56 79/203/56
f 21/204/57 22/202/57 79/203/57 78/205/57
f 20/206/58 21/204/58 78/205/58 77/207/58
usemtl FrontMat.001
f 162/208/59 168/209/59 161/210/59
f 179/211/59 180/212/59 167/213/59
f 150/214/59 148/215/59 133/216/59
f 183/217/59 188/218/59 182/219/59
f 146/220/59 125/221/59 127/222/59
f 154/223/59 161/210/59 168/209/59
f 172/224/59 171/225/59 154/223/59
f 168/209/59 169/226/59 172/224/59
f 175/227/59 183/217/59 182/219/59
f 119/228/59 122/229/59 115/230/59
f 123/231/59 121/232/59 116/233/59
f 121/232/59 117/234/59 116/233/59
f 183/217/59 185/235/59 188/218/59
f 152/236/59 154/223/59 153/237/59
f 136/238/59 130/239/59 148/215/59
f 182/219/59 177/240/59 175/227/59
f 167/213/59 164/241/59 163/242/59
f 158/243/59 162/208/59 160/244/59
f 146/220/59 127/222/59 129/245/59
f 151/246/59 139/247/59 137/248/59
f 129/245/59 134/249/59 143/250/59
f 143/250/59 146/220/59 129/245/59
f 179/211/59 167/213/59 163/242/59
f 122/229/59 124/251/59 115/230/59
f 124/251/59 127/222/59 123/231/59
f 154/223/59 173/252/59 153/237/59
f 167/213/59 165/253/59 164/241/59
f 156/254/59 179/211/59 163/242/59
f 161/210/59 160/244/59 162/208/59
f 173/252/59 175/227/59 177/240/59
f 176/255/59 179/211/59 156/254/59
f 173/252/59 176/255/59 153/237/59
f 176/255/59 156/254/59 153/237/59
f 171/225/59 173/252/59 154/223/59
f 168/209/59 172/224/59 154/223/59
f 137/248/59 136/238/59 147/256/59
f 145/257/59 143/250/59 134/249/59
f 116/233/59 115/230/59 123/231/59
f 148/215/59 147/256/59 136/238/59
f 173/252/59 177/240/59 176/255/59
f 138/258/59 145/257/59 134/249/59
f 136/238/59 131/259/59 130/239/59
f 141/260/59 149/261/59 138/258/59
f 147/256/59 151/246/59 137/248/59
f 127/222/59 125/221/59 123/231/59
f 123/231/59 115/230/59 124/251/59
f 188/218/59 189/262/59 184/263/59
f 130/239/59 133/216/59 148/215/59
f 152/236/59 153/237/59 150/214/59
f 146/220/59 152/236/59 150/214/59
f 189/262/59 186/264/59 184/263/59
f 182/219/59 188/218/59 184/263/59
f 125/221/59 150/214/59 133/216/59
f 146/220/59 150/214/59 125/221/59
f 149/261/59 145/257/59 138/258/59
