# Blender v2.83.1 OBJ File: 'jigsaw-24x32-3-step2.blend'
# www.blender.org
mtllib piece.3.mtl
o path6_path6.001
v -0.525299 0.037500 -0.531001
v -0.329137 0.037500 -0.576511
v -0.211283 0.037500 -0.590847
v -0.133275 0.037500 -0.571139
v -0.126504 0.037500 -0.502700
v -0.151458 0.037500 -0.408503
v -0.150902 0.037500 -0.320929
v -0.086468 0.037500 -0.267460
v 0.004750 0.037500 -0.255961
v 0.066788 0.037500 -0.289395
v 0.063145 0.037500 -0.364739
v 0.035162 0.037500 -0.455016
v 0.043645 0.037500 -0.527262
v 0.130286 0.037500 -0.557288
v 0.260341 0.037500 -0.556012
v 0.476399 0.037500 -0.531001
v 0.443386 0.037500 -0.300563
v 0.437551 0.037500 -0.162946
v 0.465117 0.037500 -0.073718
v 0.538228 0.037500 -0.070594
v 0.629851 0.037500 -0.108110
v 0.703160 0.037500 -0.120008
v 0.729395 0.037500 -0.060820
v 0.712073 0.037500 0.031766
v 0.662780 0.037500 0.099275
v 0.594370 0.037500 0.102467
v 0.524777 0.037500 0.079046
v 0.473205 0.037500 0.085952
v 0.453225 0.037500 0.162605
v 0.476399 0.037500 0.470908
v 0.131727 0.037500 0.436056
v 0.046190 0.037500 0.456845
v 0.039055 0.037500 0.515437
v 0.067545 0.037500 0.594098
v 0.069534 0.037500 0.667943
v 0.003166 0.037500 0.715168
v -0.092343 0.037500 0.726287
v -0.157510 0.037500 0.694892
v -0.153067 0.037500 0.621274
v -0.120610 0.037500 0.532511
v -0.121949 0.037500 0.462377
v -0.199908 0.037500 0.435570
v -0.321356 0.037500 0.440471
v -0.525299 0.037500 0.470908
v -0.525299 -0.037500 -0.531001
v -0.329137 -0.037500 -0.576511
v -0.211283 -0.037500 -0.590847
v -0.133275 -0.037500 -0.571139
v -0.126504 -0.037500 -0.502700
v -0.151458 -0.037500 -0.408503
v -0.150902 -0.037500 -0.320929
v -0.086468 -0.037500 -0.267460
v 0.004750 -0.037498 -0.255961
v 0.066788 -0.037500 -0.289395
v 0.063145 -0.037500 -0.364739
v 0.035162 -0.037500 -0.455016
v 0.043645 -0.037500 -0.527262
v 0.130286 -0.037500 -0.557288
v 0.260341 -0.037500 -0.556012
v 0.476399 -0.037498 -0.531001
v 0.443386 -0.037500 -0.300563
v 0.437551 -0.037500 -0.162946
v 0.465117 -0.037500 -0.073718
v 0.538228 -0.037500 -0.070594
v 0.629851 -0.037500 -0.108110
v 0.703160 -0.037500 -0.120008
v 0.729395 -0.037500 -0.060820
v 0.712073 -0.037500 0.031766
v 0.662780 -0.037500 0.099275
v 0.594370 -0.037498 0.102467
v 0.524777 -0.037500 0.079046
v 0.473205 -0.037500 0.085952
v 0.453225 -0.037500 0.162605
v 0.476399 -0.037500 0.470908
v 0.131727 -0.037500 0.436056
v 0.046190 -0.037500 0.456845
v 0.039055 -0.037498 0.515437
v 0.067545 -0.037500 0.594098
v 0.069534 -0.037500 0.667943
v 0.003166 -0.037500 0.715168
v -0.092343 -0.037500 0.726287
v -0.157510 -0.037500 0.694892
v -0.153067 -0.037500 0.621274
v -0.120610 -0.037498 0.532511
v -0.121949 -0.037500 0.462377
v -0.199908 -0.037500 0.435570
v -0.321356 -0.037500 0.440471
v -0.525299 -0.037500 0.470908
v -0.525299 0.037500 -0.531001
v -0.525299 0.037500 -0.531001
v -0.525299 0.037500 0.470908
v -0.525299 0.037500 0.470908
v -0.329137 0.037500 -0.576511
v -0.321356 0.037500 0.440471
v -0.211283 0.037500 -0.590847
v -0.199908 0.037500 0.435570
v -0.133275 0.037500 -0.571139
v -0.133275 0.037500 -0.571139
v -0.121949 0.037500 0.462377
v -0.121949 0.037500 0.462377
v -0.151458 0.037500 -0.408503
v -0.150902 0.037500 -0.320929
v -0.092343 0.037500 0.726287
v -0.157510 0.037500 0.694892
v -0.157510 0.037500 0.694892
v -0.153067 0.037500 0.621274
v -0.120610 0.037500 0.532511
v -0.126504 0.037500 -0.502700
v -0.086468 0.037500 -0.267460
v 0.003166 0.037500 0.715168
v 0.004750 0.037500 -0.255961
v 0.069534 0.037500 0.667943
v 0.066788 0.037500 -0.289395
v 0.066788 0.037500 -0.289395
v 0.063145 0.037500 -0.364739
v 0.035162 0.037500 -0.455016
v 0.043645 0.037500 -0.527262
v 0.043645 0.037500 -0.527262
v 0.067545 0.037500 0.594098
v 0.039055 0.037500 0.515437
v 0.046190 0.037500 0.456845
v 0.046190 0.037500 0.456845
v 0.130286 0.037500 -0.557288
v 0.131727 0.037500 0.436056
v 0.260341 0.037500 -0.556012
v 0.476399 0.037500 0.470908
v 0.476399 0.037500 0.470908
v 0.437551 0.037500 -0.162946
v 0.465117 0.037500 -0.073718
v 0.465117 0.037500 -0.073718
v 0.443386 0.037500 -0.300563
v 0.476399 0.037500 -0.531001
v 0.476399 0.037500 -0.531001
v 0.473205 0.037500 0.085952
v 0.473205 0.037500 0.085952
v 0.453225 0.037500 0.162605
v 0.538228 0.037500 -0.070594
v 0.524777 0.037500 0.079046
v 0.594370 0.037500 0.102467
v 0.629851 0.037500 -0.108110
v 0.662780 0.037500 0.099275
v 0.703160 0.037500 -0.120008
v 0.703160 0.037500 -0.120008
v 0.712073 0.037500 0.031766
v 0.729395 0.037500 -0.060820
v -0.525299 -0.037500 -0.531001
v -0.525299 -0.037500 -0.531001
v -0.525299 -0.037500 0.470908
v -0.525299 -0.037500 0.470908
v -0.329137 -0.037500 -0.576511
v -0.321356 -0.037500 0.440471
v -0.211283 -0.037500 -0.590847
v -0.199908 -0.037500 0.435570
v -0.133275 -0.037500 -0.571139
v -0.133275 -0.037500 -0.571139
v -0.121949 -0.037500 0.462377
v -0.121949 -0.037500 0.462377
v -0.151458 -0.037500 -0.408503
v -0.150902 -0.037500 -0.320929
v -0.092343 -0.037500 0.726287
v -0.157510 -0.037500 0.694892
v -0.157510 -0.037500 0.694892
v -0.153067 -0.037500 0.621274
v -0.120610 -0.037498 0.532511
v -0.126504 -0.037500 -0.502700
v -0.086468 -0.037500 -0.267460
v 0.003166 -0.037500 0.715168
v 0.004750 -0.037498 -0.255961
v 0.069534 -0.037500 0.667943
v 0.066788 -0.037500 -0.289395
v 0.066788 -0.037500 -0.289395
v 0.063145 -0.037500 -0.364739
v 0.035162 -0.037500 -0.455016
v 0.043645 -0.037500 -0.527262
v 0.043645 -0.037500 -0.527262
v 0.067545 -0.037500 0.594098
v 0.039055 -0.037498 0.515437
v 0.046190 -0.037500 0.456845
v 0.046190 -0.037500 0.456845
v 0.130286 -0.037500 -0.557288
v 0.131727 -0.037500 0.436056
v 0.260341 -0.037500 -0.556012
v 0.476399 -0.037500 0.470908
v 0.476399 -0.037500 0.470908
v 0.437551 -0.037500 -0.162946
v 0.465117 -0.037500 -0.073718
v 0.465117 -0.037500 -0.073718
v 0.443386 -0.037500 -0.300563
v 0.476399 -0.037498 -0.531001
v 0.476399 -0.037498 -0.531001
v 0.473205 -0.037500 0.085952
v 0.473205 -0.037500 0.085952
v 0.453225 -0.037500 0.162605
v 0.538228 -0.037500 -0.070594
v 0.524777 -0.037500 0.079046
v 0.594370 -0.037498 0.102467
v 0.629851 -0.037500 -0.108110
v 0.662780 -0.037500 0.099275
v 0.703160 -0.037500 -0.120008
v 0.703160 -0.037500 -0.120008
v 0.712073 -0.037500 0.031766
v 0.729395 -0.037500 -0.060820
vt 0.500000 0.500000
vt 0.500000 0.500000
vt 0.500000 0.500000
vt 0.500000 0.500000
vt 0.500000 0.500000
vt 0.500000 0.500000
vt 0.500000 0.500000
vt 0.500000 0.500000
vt 0.500000 0.500000
vt 0.500000 0.500000
vt 0.500000 0.500000
vt 0.500000 0.500000
vt 0.500000 0.500000
vt 0.500000 0.500000
vt 0.500000 0.500000
vt 0.500000 0.500000
vt 0.500000 0.500000
vt 0.500000 0.500000
vt 0.500000 0.500000
vt 0.500000 0.500000
vt 0.500000 0.500000
vt 0.500000 0.500000
vt 0.500000 0.500000
vt 0.500000 0.500000
vt 0.500000 0.500000
vt 0.500000 0.500000
vt 0.500000 0.500000
vt 0.500000 0.500000
vt 0.500000 0.500000
vt 0.500000 0.500000
vt 0.500000 0.500000
vt 0.500000 0.500000
vt 0.500000 0.500000
vt 0.500000 0.500000
vt 0.500000 0.500000
vt 0.500000 0.500000
vt 0.500000 0.500000
vt 0.500000 0.500000
vt 0.500000 0.500000
vt 0.500000 0.500000
vt 0.500000 0.500000
vt 0.500000 0.500000
vt 0.500000 0.500000
vt 0.500000 0.500000
vt 0.500000 0.500000
vt 0.500000 0.500000
vt 0.500000 0.500000
vt 0.500000 0.500000
vt 0.500000 0.500000
vt 0.500000 0.500000
vt 0.500000 0.500000
vt 0.500000 0.500000
vt 0.500000 0.500000
vt 0.500000 0.500000
vt 0.500000 0.500000
vt 0.500000 0.500000
vt 0.500000 0.500000
vt 0.500000 0.500000
vt 0.500000 0.500000
vt 0.500000 0.500000
vt 0.500000 0.500000
vt 0.500000 0.500000
vt 0.500000 0.500000
vt 0.500000 0.500000
vt 0.500000 0.500000
vt 0.500000 0.500000
vt 0.500000 0.500000
vt 0.500000 0.500000
vt 0.500000 0.500000
vt 0.500000 0.500000
vt 0.500000 0.500000
vt 0.500000 0.500000
vt 0.500000 0.500000
vt 0.500000 0.500000
vt 0.500000 0.500000
vt 0.500000 0.500000
vt 0.500000 0.500000
vt 0.500000 0.500000
vt 0.500000 0.500000
vt 0.500000 0.500000
vt 0.500000 0.500000
vt 0.500000 0.500000
vt 0.500000 0.500000
vt 0.500000 0.500000
vt 0.500000 0.500000
vt 0.500000 0.500000
vt 0.500000 0.500000
vt 0.500000 0.500000
vt 0.500000 0.500000
vt 0.500000 0.500000
vt 0.500000 0.500000
vt 0.500000 0.500000
vt 0.500000 0.500000
vt 0.500000 0.500000
vt 0.500000 0.500000
vt 0.500000 0.500000
vt 0.500000 0.500000
vt 0.500000 0.500000
vt 0.500000 0.500000
vt 0.500000 0.500000
vt 0.500000 0.500000
vt 0.500000 0.500000
vt 0.500000 0.500000
vt 0.500000 0.500000
vt 0.500000 0.500000
vt 0.500000 0.500000
vt 0.500000 0.500000
vt 0.500000 0.500000
vt 0.500000 0.500000
vt 0.500000 0.500000
vt 0.500000 0.500000
vt 0.500000 0.500000
vt 0.500000 0.500000
vt 0.500000 0.500000
vt 0.500000 0.500000
vt 0.500000 0.500000
vt 0.500000 0.500000
vt 0.500000 0.500000
vt 0.500000 0.500000
vt 0.500000 0.500000
vt 0.500000 0.500000
vt 0.500000 0.500000
vt 0.500000 0.500000
vt 0.500000 0.500000
vt 0.500000 0.500000
vt 0.500000 0.500000
vt 0.500000 0.500000
vt 0.500000 0.500000
vt 0.500000 0.500000
vt 0.500000 0.500000
vt 0.500000 0.500000
vt 0.500000 0.500000
vt 0.500000 0.500000
vt 0.500000 0.500000
vt 0.500000 0.500000
vt 0.500000 0.500000
vt 0.500000 0.500000
vt 0.500000 0.500000
vt 0.500000 0.500000
vt 0.500000 0.500000
vt 0.500000 0.500000
vt 0.500000 0.500000
vt 0.500000 0.500000
vt 0.500000 0.500000
vt 0.500000 0.500000
vt 0.500000 0.500000
vt 0.500000 0.500000
vt 0.500000 0.500000
vt 0.500000 0.500000
vt 0.500000 0.500000
vt 0.500000 0.500000
vt 0.500000 0.500000
vt 0.500000 0.500000
vt 0.500000 0.500000
vt 0.500000 0.500000
vt 0.500000 0.500000
vt 0.500000 0.500000
vt 0.500000 0.500000
vt 0.113562 0.983464
vt 0.114040 0.986310
vt 0.084803 0.989849
vt 0.105983 0.969102
vt 0.114952 0.981529
vt 0.081481 0.982394
vt 0.083918 0.982171
vt 0.083688 0.987417
vt 0.074018 0.988526
vt 0.072713 0.986493
vt 0.077080 0.988387
vt 0.098788 0.962936
vt 0.101596 0.961398
vt 0.098656 0.965070
vt 0.084783 0.979503
vt 0.073175 0.983514
vt 0.078210 0.981505
vt 0.105853 0.966821
vt 0.118086 0.981642
vt 0.126093 0.979548
vt 0.121840 0.982515
vt 0.084599 0.993638
vt 0.080771 0.987375
vt 0.096155 0.969473
vt 0.099343 0.968850
vt 0.116264 0.988320
vt 0.083333 1.000000
vt 0.099630 0.967241
vt 0.109694 0.969962
vt 0.115417 0.969780
vt 0.075139 0.981443
vt 0.125000 0.968750
vt 0.126040 0.975490
vt 0.127489 0.990204
vt 0.126893 0.993880
vt 0.119906 0.988337
vt 0.125000 1.000000
vt 0.105446 0.960857
vt 0.107413 0.963963
vt 0.123823 0.987559
vt 0.126669 0.987770
vt 0.083333 0.968750
vt 0.124844 0.982251
vt 0.107908 0.961676
vn 0.0000 -1.0000 0.0000
vn -1.0000 0.0000 0.0000
vn -0.2260 0.0000 -0.9741
vn 0.1476 0.0000 0.9890
vn -0.1208 0.0000 -0.9927
vn 0.0403 0.0000 0.9992
vn 0.2450 0.0000 -0.9695
vn -0.3252 0.0000 0.9457
vn 1.0000 0.0000 -0.0063
vn -0.4340 0.0000 0.9009
vn -0.9982 0.0000 -0.0602
vn -0.9392 0.0000 -0.3434
vn 0.9667 0.0000 0.2561
vn 0.9951 0.0000 -0.0985
vn 0.6386 0.0000 -0.7695
vn -0.9998 0.0000 0.0191
vn 0.1156 0.0000 0.9933
vn 0.1251 0.0000 -0.9921
vn 0.5798 0.0000 0.8148
vn -0.4744 0.0000 -0.8803
vn -0.9552 0.0000 0.2961
vn -0.9932 0.0000 -0.1166
vn 0.9996 0.0000 -0.0269
vn 0.9402 0.0000 -0.3405
vn 0.9927 0.0000 0.1209
vn -0.3274 0.0000 -0.9449
vn 0.2362 0.0000 0.9717
vn -0.9988 0.0000 0.0483
vn 0.0098 0.0000 -1.0000
vn -0.1006 0.0000 0.9949
vn 0.9554 0.0000 -0.2952
vn 0.9991 0.0000 0.0424
vn 0.9899 0.0000 0.1418
vn 0.1150 0.0000 -0.9934
vn 0.9677 0.0000 0.2522
vn 0.0427 0.0000 -0.9991
vn 0.9972 0.0000 -0.0750
vn 0.1327 0.0000 0.9912
vn -0.3190 0.0000 0.9478
vn -0.3789 0.0000 -0.9254
vn 0.0466 0.0000 0.9989
vn -0.1602 0.0000 -0.9871
vn 0.8076 0.0000 0.5897
vn 0.9829 0.0000 0.1839
vn 0.9142 0.0000 -0.4052
vn 0.0000 1.0000 0.0000
usemtl BackMat.001
s off
f 168/1/1 153/2/1 166/3/1
f 186/4/1 168/1/1 170/5/1
f 177/6/1 156/7/1 178/8/1
f 161/9/1 163/10/1 160/11/1
f 198/12/1 196/13/1 201/14/1
f 178/8/1 168/1/1 181/15/1
f 167/16/1 163/10/1 176/17/1
f 178/8/1 153/2/1 168/1/1
f 194/18/1 201/14/1 196/13/1
f 160/11/1 163/10/1 167/16/1
f 172/19/1 173/20/1 180/21/1
f 153/2/1 151/22/1 166/3/1
f 164/23/1 176/17/1 163/10/1
f 193/24/1 168/1/1 191/25/1
f 151/22/1 148/26/1 159/27/1
f 194/18/1 195/28/1 186/4/1
f 185/29/1 170/5/1 188/30/1
f 169/31/1 167/16/1 176/17/1
f 166/3/1 151/22/1 159/27/1
f 188/30/1 182/32/1 189/33/1
f 182/32/1 172/19/1 180/21/1
f 152/34/1 158/35/1 150/36/1
f 181/15/1 168/1/1 193/24/1
f 146/37/1 150/36/1 159/27/1
f 177/6/1 164/23/1 156/7/1
f 202/38/1 201/14/1 197/39/1
f 165/40/1 152/34/1 154/41/1
f 188/30/1 172/19/1 182/32/1
f 186/4/1 170/5/1 185/29/1
f 191/25/1 186/4/1 195/28/1
f 159/27/1 150/36/1 158/35/1
f 146/37/1 159/27/1 148/26/1
f 176/17/1 164/23/1 177/6/1
f 191/25/1 168/1/1 186/4/1
f 156/7/1 153/2/1 178/8/1
f 181/15/1 193/24/1 183/42/1
f 197/39/1 201/14/1 194/18/1
f 170/5/1 172/19/1 188/30/1
f 195/28/1 194/18/1 196/13/1
f 180/21/1 173/20/1 174/43/1
f 202/38/1 197/39/1 199/44/1
f 158/35/1 152/34/1 165/40/1
f 92/45/2 90/46/2 147/47/2 149/48/2
f 1/49/3 2/50/3 46/51/3 45/52/3
f 43/53/4 44/54/4 88/55/4 87/56/4
f 2/50/5 3/57/5 47/58/5 46/51/5
f 42/59/6 43/53/6 87/56/6 86/60/6
f 3/57/7 98/61/7 155/62/7 47/58/7
f 100/63/8 42/59/8 86/60/8 157/64/8
f 6/65/9 7/66/9 51/67/9 50/68/9
f 37/69/10 105/70/10 162/71/10 81/72/10
f 38/73/11 39/74/11 83/75/11 82/76/11
f 39/74/12 40/77/12 84/78/12 83/75/12
f 5/79/13 6/65/13 50/68/13 49/80/13
f 4/81/14 5/79/14 49/80/14 48/82/14
f 7/66/15 8/83/15 52/84/15 51/67/15
f 40/77/16 41/85/16 85/86/16 84/78/16
f 36/87/17 37/69/17 81/72/17 80/88/17
f 8/83/18 9/89/18 53/90/18 52/84/18
f 35/91/19 36/87/19 80/88/19 79/92/19
f 9/89/20 114/93/20 171/94/20 53/90/20
f 11/95/21 12/96/21 56/97/21 55/98/21
f 12/96/22 118/99/22 175/100/22 56/97/22
f 34/101/23 35/91/23 79/92/23 78/102/23
f 33/103/24 34/101/24 78/102/24 77/104/24
f 122/105/25 33/103/25 77/104/25 179/106/25
f 13/107/26 14/108/26 58/109/26 57/110/26
f 31/111/27 32/112/27 76/113/27 75/114/27
f 10/115/28 11/95/28 55/98/28 54/116/28
f 14/108/29 15/117/29 59/118/29 58/109/29
f 127/119/30 31/111/30 75/114/30 184/120/30
f 18/121/31 130/122/31 187/123/31 62/124/31
f 17/125/32 18/121/32 62/124/32 61/126/32
f 133/127/33 17/125/33 61/126/33 190/128/33
f 15/117/34 16/129/34 60/130/34 59/118/34
f 135/131/35 29/132/35 73/133/35 192/134/35
f 19/135/36 20/136/36 64/137/36 63/138/36
f 29/132/37 30/139/37 74/140/37 73/133/37
f 27/141/38 28/142/38 72/143/38 71/144/38
f 26/145/39 27/141/39 71/144/39 70/146/39
f 20/136/40 21/147/40 65/148/40 64/137/40
f 25/149/41 26/145/41 70/146/41 69/150/41
f 21/147/42 143/151/42 200/152/42 65/148/42
f 24/153/43 25/149/43 69/150/43 68/154/43
f 23/155/44 24/153/44 68/154/44 67/156/44
f 22/157/45 23/155/45 67/156/45 66/158/45
usemtl FrontMat.001
f 111/159/46 109/160/46 96/161/46
f 129/162/46 113/163/46 111/159/46
f 120/164/46 121/165/46 99/166/46
f 104/167/46 103/168/46 106/169/46
f 141/170/46 144/171/46 139/172/46
f 121/165/46 124/173/46 111/159/46
f 110/174/46 119/175/46 106/169/46
f 121/165/46 111/159/46 96/161/46
f 137/176/46 139/172/46 144/171/46
f 103/168/46 110/174/46 106/169/46
f 115/177/46 123/178/46 116/179/46
f 96/161/46 109/160/46 94/180/46
f 107/181/46 106/169/46 119/175/46
f 136/182/46 134/183/46 111/159/46
f 94/180/46 102/184/46 91/185/46
f 137/176/46 129/162/46 138/186/46
f 128/187/46 131/188/46 113/163/46
f 112/189/46 119/175/46 110/174/46
f 109/160/46 102/184/46 94/180/46
f 131/188/46 132/190/46 125/191/46
f 125/191/46 123/178/46 115/177/46
f 95/192/46 93/193/46 101/194/46
f 124/173/46 136/182/46 111/159/46
f 89/195/46 102/184/46 93/193/46
f 120/164/46 99/166/46 107/181/46
f 145/196/46 140/197/46 144/171/46
f 108/198/46 97/199/46 95/192/46
f 131/188/46 125/191/46 115/177/46
f 129/162/46 128/187/46 113/163/46
f 134/183/46 138/186/46 129/162/46
f 102/184/46 101/194/46 93/193/46
f 89/195/46 91/185/46 102/184/46
f 119/175/46 120/164/46 107/181/46
f 134/183/46 129/162/46 111/159/46
f 99/166/46 121/165/46 96/161/46
f 124/173/46 126/200/46 136/182/46
f 140/197/46 137/176/46 144/171/46
f 113/163/46 131/188/46 115/177/46
f 138/186/46 139/172/46 137/176/46
f 123/178/46 117/201/46 116/179/46
f 145/196/46 142/202/46 140/197/46
f 101/194/46 108/198/46 95/192/46
