# Blender v2.83.1 OBJ File: 'jigsaw-96x54-3-step2.blend'
# www.blender.org
mtllib piece.3142.mtl
o path6284
v 0.290230 0.037500 0.437542
v 0.166260 0.037500 0.421375
v 0.086586 0.037500 0.437206
v 0.085213 0.037500 0.499035
v 0.119545 0.037500 0.584034
v 0.127838 0.037500 0.660151
v 0.068359 0.037500 0.700594
v -0.020599 0.037500 0.699596
v -0.080727 0.037500 0.656647
v -0.073913 0.037500 0.576921
v -0.043037 0.037500 0.488533
v -0.051170 0.037500 0.425308
v -0.141502 0.037500 0.411240
v -0.503563 0.037500 0.484120
v -0.552170 0.037500 0.287968
v -0.566299 0.037500 0.170857
v -0.541794 0.037500 0.094990
v -0.463005 0.037500 0.092056
v -0.359230 0.037500 0.121109
v -0.271019 0.037500 0.123058
v -0.230827 0.037500 0.058262
v -0.238655 0.037500 -0.035156
v -0.286392 0.037500 -0.099621
v -0.362984 0.037500 -0.097404
v -0.445549 0.037500 -0.070179
v -0.508247 0.037500 -0.079449
v -0.532524 0.037500 -0.167427
v -0.529045 0.037500 -0.299076
v -0.503563 0.037500 -0.517578
v -0.158226 0.037500 -0.551056
v -0.074135 0.037500 -0.533958
v -0.070023 0.037500 -0.483578
v -0.101105 0.037500 -0.416508
v -0.102707 0.037500 -0.355835
v -0.031586 0.037500 -0.321335
v 0.069870 0.037500 -0.319481
v 0.137863 0.037500 -0.353428
v 0.130257 0.037500 -0.420841
v 0.091515 0.037500 -0.497723
v 0.087746 0.037500 -0.554626
v 0.164978 0.037500 -0.570450
v 0.498352 0.037500 -0.517578
v 0.527344 0.037500 -0.158783
v 0.507652 0.037500 -0.070923
v 0.453957 0.037500 -0.065819
v 0.381294 0.037500 -0.098038
v 0.310928 0.037500 -0.101757
v 0.262535 0.037500 -0.032597
v 0.249298 0.037500 0.068001
v 0.282791 0.037500 0.137127
v 0.365799 0.037500 0.132919
v 0.465973 0.037500 0.097660
v 0.542183 0.037500 0.094665
v 0.564613 0.037500 0.168095
v 0.548874 0.037500 0.285511
v 0.498352 0.037500 0.484119
v 0.290230 -0.037498 0.437542
v 0.166260 -0.037500 0.421375
v 0.086586 -0.037500 0.437206
v 0.085213 -0.037498 0.499035
v 0.119545 -0.037500 0.584034
v 0.127838 -0.037500 0.660151
v 0.068359 -0.037500 0.700594
v -0.020599 -0.037500 0.699596
v -0.080727 -0.037500 0.656647
v -0.073913 -0.037500 0.576921
v -0.043037 -0.037500 0.488533
v -0.051170 -0.037500 0.425308
v -0.141502 -0.037500 0.411240
v -0.503563 -0.037500 0.484120
v -0.552170 -0.037500 0.287968
v -0.566299 -0.037500 0.170857
v -0.541794 -0.037498 0.094990
v -0.463005 -0.037500 0.092056
v -0.359230 -0.037498 0.121109
v -0.271019 -0.037500 0.123058
v -0.230827 -0.037498 0.058262
v -0.238655 -0.037500 -0.035156
v -0.286392 -0.037500 -0.099621
v -0.362984 -0.037500 -0.097404
v -0.445549 -0.037498 -0.070179
v -0.508247 -0.037498 -0.079449
v -0.532524 -0.037500 -0.167427
v -0.529045 -0.037500 -0.299076
v -0.503563 -0.037500 -0.517578
v -0.158226 -0.037500 -0.551056
v -0.074135 -0.037500 -0.533958
v -0.070023 -0.037500 -0.483578
v -0.101105 -0.037500 -0.416508
v -0.102707 -0.037500 -0.355835
v -0.031586 -0.037500 -0.321335
v 0.069870 -0.037500 -0.319481
v 0.137863 -0.037500 -0.353428
v 0.130257 -0.037500 -0.420841
v 0.091515 -0.037500 -0.497723
v 0.087746 -0.037500 -0.554626
v 0.164978 -0.037500 -0.570450
v 0.498352 -0.037500 -0.517578
v 0.527344 -0.037500 -0.158783
v 0.507652 -0.037500 -0.070923
v 0.453957 -0.037500 -0.065819
v 0.381294 -0.037500 -0.098038
v 0.310928 -0.037500 -0.101757
v 0.262535 -0.037500 -0.032597
v 0.249298 -0.037500 0.068001
v 0.282791 -0.037500 0.137127
v 0.365799 -0.037498 0.132919
v 0.465973 -0.037500 0.097660
v 0.542183 -0.037500 0.094665
v 0.564613 -0.037500 0.168095
v 0.548874 -0.037500 0.285511
v 0.498352 -0.037500 0.484119
v 0.127838 0.037500 0.660151
v 0.127838 0.037500 0.660151
v 0.068359 0.037500 0.700594
v -0.020599 0.037500 0.699596
v -0.080727 0.037500 0.656647
v 0.119545 0.037500 0.584034
v -0.073913 0.037500 0.576921
v 0.085213 0.037500 0.499035
v -0.043037 0.037500 0.488533
v 0.086586 0.037500 0.437206
v 0.086586 0.037500 0.437206
v -0.051170 0.037500 0.425308
v -0.051170 0.037500 0.425308
v 0.498352 0.037500 0.484119
v 0.498352 0.037500 0.484119
v 0.290230 0.037500 0.437542
v 0.166260 0.037500 0.421375
v -0.141502 0.037500 0.411240
v -0.503563 0.037500 0.484120
v -0.503563 0.037500 0.484120
v -0.552170 0.037500 0.287968
v 0.548874 0.037500 0.285511
v -0.566299 0.037500 0.170857
v 0.564613 0.037500 0.168095
v -0.541794 0.037500 0.094990
v -0.541794 0.037500 0.094990
v 0.542183 0.037500 0.094665
v 0.542183 0.037500 0.094665
v 0.282791 0.037500 0.137127
v 0.282791 0.037500 0.137127
v 0.365799 0.037500 0.132919
v 0.249298 0.037500 0.068001
v -0.359230 0.037500 0.121109
v -0.271019 0.037500 0.123058
v 0.465973 0.037500 0.097660
v -0.230827 0.037500 0.058262
v -0.463005 0.037500 0.092056
v 0.262535 0.037500 -0.032597
v -0.238655 0.037500 -0.035156
v 0.310928 0.037500 -0.101757
v -0.286392 0.037500 -0.099621
v 0.507652 0.037500 -0.070923
v 0.507652 0.037500 -0.070923
v 0.453957 0.037500 -0.065819
v 0.381294 0.037500 -0.098038
v -0.362984 0.037500 -0.097404
v -0.445549 0.037500 -0.070179
v -0.508247 0.037500 -0.079449
v -0.508247 0.037500 -0.079449
v 0.527344 0.037500 -0.158783
v -0.532524 0.037500 -0.167427
v -0.529045 0.037500 -0.299076
v -0.031586 0.037500 -0.321335
v 0.069870 0.037500 -0.319481
v 0.137863 0.037500 -0.353428
v 0.137863 0.037500 -0.353428
v -0.102707 0.037500 -0.355835
v -0.102707 0.037500 -0.355835
v 0.130257 0.037500 -0.420841
v -0.101105 0.037500 -0.416508
v -0.070023 0.037500 -0.483578
v 0.498352 0.037500 -0.517578
v 0.498352 0.037500 -0.517578
v 0.091515 0.037500 -0.497723
v -0.074135 0.037500 -0.533958
v -0.074135 0.037500 -0.533958
v -0.503563 0.037500 -0.517578
v -0.503563 0.037500 -0.517578
v 0.087746 0.037500 -0.554626
v 0.087746 0.037500 -0.554626
v -0.158226 0.037500 -0.551056
v 0.164978 0.037500 -0.570450
v 0.127838 -0.037500 0.660151
v 0.127838 -0.037500 0.660151
v 0.068359 -0.037500 0.700594
v -0.020599 -0.037500 0.699596
v -0.080727 -0.037500 0.656647
v 0.119545 -0.037500 0.584034
v -0.073913 -0.037500 0.576921
v 0.085213 -0.037498 0.499035
v -0.043037 -0.037500 0.488533
v 0.086586 -0.037500 0.437206
v 0.086586 -0.037500 0.437206
v -0.051170 -0.037500 0.425308
v -0.051170 -0.037500 0.425308
v 0.498352 -0.037500 0.484119
v 0.498352 -0.037500 0.484119
v 0.290230 -0.037498 0.437542
v 0.166260 -0.037500 0.421375
v -0.141502 -0.037500 0.411240
v -0.503563 -0.037500 0.484120
v -0.503563 -0.037500 0.484120
v -0.552170 -0.037500 0.287968
v 0.548874 -0.037500 0.285511
v -0.566299 -0.037500 0.170857
v 0.564613 -0.037500 0.168095
v -0.541794 -0.037498 0.094990
v -0.541794 -0.037498 0.094990
v 0.542183 -0.037500 0.094665
v 0.542183 -0.037500 0.094665
v 0.282791 -0.037500 0.137127
v 0.282791 -0.037500 0.137127
v 0.365799 -0.037498 0.132919
v 0.249298 -0.037500 0.068001
v -0.359230 -0.037498 0.121109
v -0.271019 -0.037500 0.123058
v 0.465973 -0.037500 0.097660
v -0.230827 -0.037498 0.058262
v -0.463005 -0.037500 0.092056
v 0.262535 -0.037500 -0.032597
v -0.238655 -0.037500 -0.035156
v 0.310928 -0.037500 -0.101757
v -0.286392 -0.037500 -0.099621
v 0.507652 -0.037500 -0.070923
v 0.507652 -0.037500 -0.070923
v 0.453957 -0.037500 -0.065819
v 0.381294 -0.037500 -0.098038
v -0.362984 -0.037500 -0.097404
v -0.445549 -0.037498 -0.070179
v -0.508247 -0.037498 -0.079449
v -0.508247 -0.037498 -0.079449
v 0.527344 -0.037500 -0.158783
v -0.532524 -0.037500 -0.167427
v -0.529045 -0.037500 -0.299076
v -0.031586 -0.037500 -0.321335
v 0.069870 -0.037500 -0.319481
v 0.137863 -0.037500 -0.353428
v 0.137863 -0.037500 -0.353428
v -0.102707 -0.037500 -0.355835
v -0.102707 -0.037500 -0.355835
v 0.130257 -0.037500 -0.420841
v -0.101105 -0.037500 -0.416508
v -0.070023 -0.037500 -0.483578
v 0.498352 -0.037500 -0.517578
v 0.498352 -0.037500 -0.517578
v 0.091515 -0.037500 -0.497723
v -0.074135 -0.037500 -0.533958
v -0.074135 -0.037500 -0.533958
v -0.503563 -0.037500 -0.517578
v -0.503563 -0.037500 -0.517578
v 0.087746 -0.037500 -0.554626
v 0.087746 -0.037500 -0.554626
v -0.158226 -0.037500 -0.551056
v 0.164978 -0.037500 -0.570450
vt 0.500000 0.500000
vt 0.500000 0.500000
vt 0.500000 0.500000
vt 0.500000 0.500000
vt 0.500000 0.500000
vt 0.500000 0.500000
vt 0.500000 0.500000
vt 0.500000 0.500000
vt 0.500000 0.500000
vt 0.500000 0.500000
vt 0.500000 0.500000
vt 0.500000 0.500000
vt 0.500000 0.500000
vt 0.500000 0.500000
vt 0.500000 0.500000
vt 0.500000 0.500000
vt 0.500000 0.500000
vt 0.500000 0.500000
vt 0.500000 0.500000
vt 0.500000 0.500000
vt 0.500000 0.500000
vt 0.500000 0.500000
vt 0.500000 0.500000
vt 0.500000 0.500000
vt 0.500000 0.500000
vt 0.500000 0.500000
vt 0.500000 0.500000
vt 0.500000 0.500000
vt 0.500000 0.500000
vt 0.500000 0.500000
vt 0.500000 0.500000
vt 0.500000 0.500000
vt 0.500000 0.500000
vt 0.500000 0.500000
vt 0.500000 0.500000
vt 0.500000 0.500000
vt 0.500000 0.500000
vt 0.500000 0.500000
vt 0.500000 0.500000
vt 0.500000 0.500000
vt 0.500000 0.500000
vt 0.500000 0.500000
vt 0.500000 0.500000
vt 0.500000 0.500000
vt 0.500000 0.500000
vt 0.500000 0.500000
vt 0.500000 0.500000
vt 0.500000 0.500000
vt 0.500000 0.500000
vt 0.500000 0.500000
vt 0.500000 0.500000
vt 0.500000 0.500000
vt 0.500000 0.500000
vt 0.500000 0.500000
vt 0.500000 0.500000
vt 0.500000 0.500000
vt 0.500000 0.500000
vt 0.500000 0.500000
vt 0.500000 0.500000
vt 0.500000 0.500000
vt 0.500000 0.500000
vt 0.500000 0.500000
vt 0.500000 0.500000
vt 0.500000 0.500000
vt 0.500000 0.500000
vt 0.500000 0.500000
vt 0.500000 0.500000
vt 0.500000 0.500000
vt 0.500000 0.500000
vt 0.500000 0.500000
vt 0.500000 0.500000
vt 0.500000 0.500000
vt 0.500000 0.500000
vt 0.500000 0.500000
vt 0.500000 0.500000
vt 0.500000 0.500000
vt 0.500000 0.500000
vt 0.500000 0.500000
vt 0.500000 0.500000
vt 0.500000 0.500000
vt 0.500000 0.500000
vt 0.500000 0.500000
vt 0.500000 0.500000
vt 0.500000 0.500000
vt 0.500000 0.500000
vt 0.500000 0.500000
vt 0.500000 0.500000
vt 0.500000 0.500000
vt 0.500000 0.500000
vt 0.500000 0.500000
vt 0.500000 0.500000
vt 0.500000 0.500000
vt 0.500000 0.500000
vt 0.500000 0.500000
vt 0.500000 0.500000
vt 0.500000 0.500000
vt 0.500000 0.500000
vt 0.500000 0.500000
vt 0.500000 0.500000
vt 0.500000 0.500000
vt 0.500000 0.500000
vt 0.500000 0.500000
vt 0.500000 0.500000
vt 0.500000 0.500000
vt 0.500000 0.500000
vt 0.500000 0.500000
vt 0.500000 0.500000
vt 0.500000 0.500000
vt 0.500000 0.500000
vt 0.500000 0.500000
vt 0.500000 0.500000
vt 0.500000 0.500000
vt 0.500000 0.500000
vt 0.500000 0.500000
vt 0.500000 0.500000
vt 0.500000 0.500000
vt 0.500000 0.500000
vt 0.500000 0.500000
vt 0.500000 0.500000
vt 0.500000 0.500000
vt 0.500000 0.500000
vt 0.500000 0.500000
vt 0.500000 0.500000
vt 0.500000 0.500000
vt 0.500000 0.500000
vt 0.500000 0.500000
vt 0.500000 0.500000
vt 0.500000 0.500000
vt 0.500000 0.500000
vt 0.500000 0.500000
vt 0.500000 0.500000
vt 0.500000 0.500000
vt 0.500000 0.500000
vt 0.500000 0.500000
vt 0.500000 0.500000
vt 0.500000 0.500000
vt 0.500000 0.500000
vt 0.500000 0.500000
vt 0.500000 0.500000
vt 0.500000 0.500000
vt 0.500000 0.500000
vt 0.500000 0.500000
vt 0.500000 0.500000
vt 0.500000 0.500000
vt 0.500000 0.500000
vt 0.500000 0.500000
vt 0.500000 0.500000
vt 0.500000 0.500000
vt 0.500000 0.500000
vt 0.500000 0.500000
vt 0.500000 0.500000
vt 0.500000 0.500000
vt 0.500000 0.500000
vt 0.500000 0.500000
vt 0.500000 0.500000
vt 0.500000 0.500000
vt 0.500000 0.500000
vt 0.500000 0.500000
vt 0.500000 0.500000
vt 0.500000 0.500000
vt 0.500000 0.500000
vt 0.500000 0.500000
vt 0.500000 0.500000
vt 0.500000 0.500000
vt 0.500000 0.500000
vt 0.500000 0.500000
vt 0.500000 0.500000
vt 0.500000 0.500000
vt 0.500000 0.500000
vt 0.500000 0.500000
vt 0.500000 0.500000
vt 0.500000 0.500000
vt 0.500000 0.500000
vt 0.500000 0.500000
vt 0.500000 0.500000
vt 0.500000 0.500000
vt 0.500000 0.500000
vt 0.500000 0.500000
vt 0.500000 0.500000
vt 0.500000 0.500000
vt 0.500000 0.500000
vt 0.500000 0.500000
vt 0.500000 0.500000
vt 0.500000 0.500000
vt 0.500000 0.500000
vt 0.500000 0.500000
vt 0.500000 0.500000
vt 0.500000 0.500000
vt 0.500000 0.500000
vt 0.500000 0.500000
vt 0.500000 0.500000
vt 0.500000 0.500000
vt 0.500000 0.500000
vt 0.500000 0.500000
vt 0.500000 0.500000
vt 0.500000 0.500000
vt 0.500000 0.500000
vt 0.500000 0.500000
vt 0.500000 0.500000
vt 0.500000 0.500000
vt 0.728745 0.400159
vt 0.729564 0.400214
vt 0.729819 0.401616
vt 0.718061 0.401565
vt 0.718294 0.400208
vt 0.719087 0.400263
vt 0.727666 0.400696
vt 0.729672 0.403781
vt 0.719967 0.396645
vt 0.718750 0.388889
vt 0.722498 0.391924
vt 0.729167 0.407407
vt 0.725402 0.406060
vt 0.729468 0.395362
vt 0.729215 0.396989
vt 0.728564 0.397160
vt 0.722216 0.387911
vt 0.723019 0.388204
vt 0.722980 0.389256
vt 0.720128 0.400915
vt 0.718225 0.403736
vt 0.723031 0.406540
vt 0.721339 0.399715
vt 0.724463 0.406320
vt 0.724260 0.392517
vt 0.724999 0.391879
vt 0.726909 0.396616
vt 0.726413 0.397808
vt 0.720991 0.400993
vt 0.720914 0.406546
vt 0.724982 0.390757
vt 0.724659 0.389518
vt 0.725576 0.388270
vt 0.722577 0.390677
vt 0.722688 0.409255
vt 0.723045 0.407683
vt 0.724700 0.409123
vt 0.724379 0.407489
vt 0.726331 0.399535
vt 0.718449 0.395522
vt 0.721202 0.397855
vt 0.720699 0.396576
vt 0.723205 0.392551
vt 0.724771 0.410597
vt 0.724145 0.411391
vt 0.729432 0.392928
vt 0.727705 0.396657
vt 0.724702 0.388586
vt 0.726749 0.400732
vt 0.722203 0.406247
vt 0.723221 0.411409
vt 0.729167 0.388889
vt 0.719212 0.397241
vt 0.718653 0.397146
vt 0.722602 0.410662
vt 0.718750 0.407407
vn -0.0000 -1.0000 -0.0000
vn 0.5623 0.0000 0.8269
vn -0.0112 0.0000 0.9999
vn -0.5813 0.0000 0.8137
vn 0.9941 0.0000 -0.1083
vn -0.9964 0.0000 -0.0851
vn 0.9272 0.0000 -0.3745
vn -0.9441 0.0000 -0.3298
vn 0.9998 0.0000 0.0222
vn -0.9918 0.0000 0.1276
vn -0.2184 0.0000 0.9759
vn -0.1293 0.0000 0.9916
vn 0.1949 0.0000 0.9808
vn 0.1973 0.0000 0.9803
vn -0.1539 0.0000 0.9881
vn -0.9706 0.0000 0.2405
vn 0.9691 0.0000 0.2465
vn -0.9928 0.0000 0.1198
vn 0.9911 0.0000 0.1329
vn -0.9516 0.0000 -0.3074
vn 0.9564 0.0000 -0.2921
vn -0.0506 0.0000 -0.9987
vn 0.8999 0.0000 -0.4360
vn 0.0221 0.0000 -0.9998
vn -0.0393 0.0000 -0.9992
vn -0.3320 0.0000 -0.9433
vn -0.8498 0.0000 -0.5271
vn 0.2696 0.0000 -0.9630
vn -0.0372 0.0000 -0.9993
vn 0.9915 0.0000 0.1305
vn -0.9965 0.0000 0.0835
vn 0.8193 0.0000 0.5733
vn -0.8036 0.0000 0.5951
vn 0.0946 0.0000 0.9955
vn -0.4053 0.0000 0.9142
vn 0.3132 0.0000 0.9497
vn -0.1463 0.0000 0.9892
vn 0.9758 0.0000 0.2187
vn -0.9640 0.0000 0.2660
vn 0.0289 0.0000 0.9996
vn -0.0528 0.0000 0.9986
vn -0.9997 0.0000 -0.0264
vn 0.0183 0.0000 -0.9998
vn -0.4467 0.0000 -0.8947
vn 0.4364 0.0000 -0.8997
vn -0.9937 0.0000 0.1121
vn 0.9997 0.0000 0.0264
vn 0.9073 0.0000 0.4205
vn 0.9968 0.0000 -0.0805
vn -0.8930 0.0000 0.4500
vn 0.9967 0.0000 -0.0814
vn -0.9933 0.0000 -0.1158
vn -0.9978 0.0000 0.0661
vn 0.1992 0.0000 -0.9800
vn -0.0965 0.0000 -0.9953
vn 0.1566 0.0000 -0.9877
vn -0.2007 0.0000 -0.9797
vn 0.0000 1.0000 0.0000
usemtl BackMat.001
s off
f 221/1/1 207/2/1 209/3/1
f 208/4/1 219/5/1 211/6/1
f 217/7/1 205/8/1 221/1/1
f 229/9/1 239/10/1 246/11/1
f 205/8/1 202/12/1 203/13/1
f 235/14/1 231/15/1 232/16/1
f 256/17/1 248/18/1 253/19/1
f 219/5/1 206/20/1 215/21/1
f 194/22/1 196/23/1 216/24/1
f 207/2/1 221/1/1 205/8/1
f 237/25/1 225/26/1 241/27/1
f 223/28/1 225/26/1 237/25/1
f 213/29/1 215/21/1 200/30/1
f 194/22/1 216/24/1 213/29/1
f 244/31/1 255/32/1 245/33/1
f 206/20/1 219/5/1 208/4/1
f 246/11/1 243/34/1 256/17/1
f 190/35/1 191/36/1 192/37/1
f 196/23/1 194/22/1 193/38/1
f 196/23/1 220/39/1 216/24/1
f 234/40/1 229/9/1 246/11/1
f 222/41/1 238/42/1 224/43/1
f 189/44/1 191/36/1 188/45/1
f 236/46/1 230/47/1 235/14/1
f 205/8/1 217/7/1 202/12/1
f 230/47/1 231/15/1 235/14/1
f 245/33/1 255/32/1 249/48/1
f 222/41/1 223/28/1 237/25/1
f 216/24/1 223/28/1 222/41/1
f 220/39/1 202/12/1 218/49/1
f 194/22/1 213/29/1 201/50/1
f 187/51/1 188/45/1 190/35/1
f 239/10/1 224/43/1 238/42/1
f 251/52/1 241/27/1 236/46/1
f 201/50/1 213/29/1 200/30/1
f 218/49/1 202/12/1 217/7/1
f 241/27/1 251/52/1 244/31/1
f 228/53/1 234/40/1 226/54/1
f 190/35/1 188/45/1 191/36/1
f 185/55/1 187/51/1 190/35/1
f 192/37/1 193/38/1 194/22/1
f 224/43/1 239/10/1 229/9/1
f 222/41/1 237/25/1 238/42/1
f 229/9/1 234/40/1 228/53/1
f 193/38/1 192/37/1 191/36/1
f 243/34/1 248/18/1 256/17/1
f 246/11/1 239/10/1 243/34/1
f 255/32/1 244/31/1 251/52/1
f 200/30/1 215/21/1 206/20/1
f 225/26/1 236/46/1 241/27/1
f 230/47/1 236/46/1 225/26/1
f 220/39/1 223/28/1 216/24/1
f 200/30/1 206/20/1 198/56/1
f 202/12/1 220/39/1 196/23/1
f 114/57/2 7/58/2 63/59/2 186/60/2
f 7/58/3 8/61/3 64/62/3 63/59/3
f 8/61/4 9/63/4 65/64/4 64/62/4
f 5/65/5 6/66/5 62/67/5 61/68/5
f 9/63/6 10/69/6 66/70/6 65/64/6
f 4/71/7 5/65/7 61/68/7 60/72/7
f 10/69/8 11/73/8 67/74/8 66/70/8
f 123/75/9 4/71/9 60/72/9 195/76/9
f 11/73/10 125/77/10 197/78/10 67/74/10
f 127/79/11 1/80/11 57/81/11 199/82/11
f 1/80/12 2/83/12 58/84/12 57/81/12
f 2/83/13 3/85/13 59/86/13 58/84/13
f 13/87/14 132/88/14 204/89/14 69/90/14
f 12/91/15 13/87/15 69/90/15 68/92/15
f 14/93/16 15/94/16 71/95/16 70/96/16
f 55/97/17 56/98/17 112/99/17 111/100/17
f 15/94/18 16/101/18 72/102/18 71/95/18
f 54/103/19 55/97/19 111/100/19 110/104/19
f 16/101/20 138/105/20 210/106/20 72/102/20
f 140/107/21 54/103/21 110/104/21 212/108/21
f 142/109/22 51/110/22 107/111/22 214/112/22
f 49/113/23 50/114/23 106/115/23 105/116/23
f 19/117/24 20/118/24 76/119/24 75/120/24
f 52/121/25 53/122/25 109/123/25 108/124/25
f 51/110/26 52/121/26 108/124/26 107/111/26
f 20/118/27 21/125/27 77/126/27 76/119/27
f 18/127/28 19/117/28 75/120/28 74/128/28
f 17/129/29 18/127/29 74/128/29 73/130/29
f 48/131/30 49/113/30 105/116/30 104/132/30
f 21/125/31 22/133/31 78/134/31 77/126/31
f 47/135/32 48/131/32 104/132/32 103/136/32
f 22/133/33 23/137/33 79/138/33 78/134/33
f 155/139/34 45/140/34 101/141/34 227/142/34
f 45/140/35 46/143/35 102/144/35 101/141/35
f 24/145/36 25/146/36 81/147/36 80/148/36
f 25/146/37 161/149/37 233/150/37 81/147/37
f 43/151/38 44/152/38 100/153/38 99/154/38
f 26/155/39 27/156/39 83/157/39 82/158/39
f 23/137/40 24/145/40 80/148/40 79/138/40
f 46/143/41 47/135/41 103/136/41 102/144/41
f 27/156/42 28/159/42 84/160/42 83/157/42
f 35/161/43 36/162/43 92/163/43 91/164/43
f 36/162/44 168/165/44 240/166/44 92/163/44
f 170/167/45 35/161/45 91/164/45 242/168/45
f 37/169/46 38/170/46 94/171/46 93/172/46
f 33/173/47 34/174/47 90/175/47 89/176/47
f 32/177/48 33/173/48 89/176/48 88/178/48
f 175/179/49 43/151/49 99/154/49 247/180/49
f 38/170/50 39/181/50 95/182/50 94/171/50
f 178/183/51 32/177/51 88/178/51 250/184/51
f 28/159/52 180/185/52 252/186/52 84/160/52
f 39/181/53 182/187/53 254/188/53 95/182/53
f 30/189/54 31/190/54 87/191/54 86/192/54
f 29/193/55 30/189/55 86/192/55 85/194/55
f 41/195/56 42/196/56 98/197/56 97/198/56
f 40/199/57 41/195/57 97/198/57 96/200/57
usemtl FrontMat.001
f 149/201/58 137/202/58 135/203/58
f 136/204/58 139/205/58 147/206/58
f 145/207/58 149/201/58 133/208/58
f 157/209/58 174/210/58 167/211/58
f 133/208/58 131/212/58 130/213/58
f 163/214/58 160/215/58 159/216/58
f 184/217/58 181/218/58 176/219/58
f 147/206/58 143/220/58 134/221/58
f 122/222/58 144/223/58 124/224/58
f 135/203/58 133/208/58 149/201/58
f 165/225/58 169/226/58 153/227/58
f 151/228/58 165/225/58 153/227/58
f 141/229/58 128/230/58 143/220/58
f 122/222/58 141/229/58 144/223/58
f 172/231/58 173/232/58 183/233/58
f 134/221/58 136/204/58 147/206/58
f 174/210/58 184/217/58 171/234/58
f 118/235/58 120/236/58 119/237/58
f 124/224/58 121/238/58 122/222/58
f 124/224/58 144/223/58 148/239/58
f 162/240/58 174/210/58 157/209/58
f 150/241/58 152/242/58 166/243/58
f 117/244/58 116/245/58 119/237/58
f 164/246/58 163/214/58 158/247/58
f 133/208/58 130/213/58 145/207/58
f 158/247/58 163/214/58 159/216/58
f 173/232/58 177/248/58 183/233/58
f 150/241/58 165/225/58 151/228/58
f 144/223/58 150/241/58 151/228/58
f 148/239/58 146/249/58 130/213/58
f 122/222/58 129/250/58 141/229/58
f 115/251/58 118/235/58 116/245/58
f 167/211/58 166/243/58 152/242/58
f 179/252/58 164/246/58 169/226/58
f 129/250/58 128/230/58 141/229/58
f 146/249/58 145/207/58 130/213/58
f 169/226/58 172/231/58 179/252/58
f 156/253/58 154/254/58 162/240/58
f 118/235/58 119/237/58 116/245/58
f 113/255/58 118/235/58 115/251/58
f 120/236/58 122/222/58 121/238/58
f 152/242/58 157/209/58 167/211/58
f 150/241/58 166/243/58 165/225/58
f 157/209/58 156/253/58 162/240/58
f 121/238/58 119/237/58 120/236/58
f 171/234/58 184/217/58 176/219/58
f 174/210/58 171/234/58 167/211/58
f 183/233/58 179/252/58 172/231/58
f 128/230/58 134/221/58 143/220/58
f 153/227/58 169/226/58 164/246/58
f 158/247/58 153/227/58 164/246/58
f 148/239/58 144/223/58 151/228/58
f 128/230/58 126/256/58 134/221/58
f 130/213/58 124/224/58 148/239/58
