# Blender v2.83.1 OBJ File: 'jigsaw-96x54-3-step2.blend'
# www.blender.org
mtllib piece.5079.mtl
o path10158
v -0.327988 0.037500 -0.449993
v -0.212128 0.037500 -0.437004
v -0.136650 0.037500 -0.461605
v -0.132584 0.037500 -0.538948
v -0.158875 0.037500 -0.640781
v -0.156464 0.037500 -0.727989
v -0.086273 0.037500 -0.768700
v 0.010704 0.037500 -0.759998
v 0.073479 0.037500 -0.706215
v 0.062485 0.037500 -0.616589
v 0.023895 0.037500 -0.519974
v 0.025330 0.037500 -0.450146
v 0.113350 0.037500 -0.431023
v 0.250290 0.037500 -0.447197
v 0.480179 0.037500 -0.496227
v 0.445969 0.037500 -0.287128
v 0.438286 0.037500 -0.162884
v 0.462105 0.037500 -0.083748
v 0.529381 0.037500 -0.083935
v 0.615524 0.037500 -0.119644
v 0.686783 0.037500 -0.127575
v 0.716316 0.037500 -0.065025
v 0.705009 0.037500 0.028336
v 0.660660 0.037500 0.092255
v 0.593376 0.037500 0.087124
v 0.522537 0.037500 0.055943
v 0.469849 0.037500 0.062363
v 0.450745 0.037500 0.150131
v 0.480179 0.037500 0.505470
v 0.125938 0.037500 0.479759
v 0.041313 0.037500 0.498508
v 0.040565 0.037500 0.548412
v 0.078041 0.037500 0.614105
v 0.087585 0.037500 0.674171
v 0.024124 0.037500 0.710068
v -0.072975 0.037500 0.714828
v -0.143265 0.037500 0.684357
v -0.146240 0.037500 0.619976
v -0.121140 0.037500 0.544670
v -0.127136 0.037500 0.486835
v -0.205246 0.037500 0.467041
v -0.323906 0.037500 0.474583
v -0.521729 0.037500 0.505470
v -0.550934 0.037500 0.148605
v -0.533592 0.037500 0.060833
v -0.484734 0.037500 0.054977
v -0.419594 0.037500 0.086082
v -0.359467 0.037500 0.088955
v -0.322929 0.037500 0.019741
v -0.317604 0.037500 -0.080025
v -0.348389 0.037500 -0.147484
v -0.414383 0.037500 -0.140976
v -0.491539 0.037500 -0.103626
v -0.549988 0.037500 -0.099766
v -0.568161 0.037500 -0.174217
v -0.557709 0.037500 -0.293770
v -0.521729 0.037500 -0.496227
v -0.327988 -0.037500 -0.449993
v -0.212128 -0.037500 -0.437004
v -0.136650 -0.037500 -0.461605
v -0.132584 -0.037500 -0.538948
v -0.158875 -0.037500 -0.640781
v -0.156464 -0.037500 -0.727989
v -0.086273 -0.037500 -0.768700
v 0.010704 -0.037500 -0.759998
v 0.073479 -0.037500 -0.706215
v 0.062485 -0.037500 -0.616589
v 0.023895 -0.037500 -0.519974
v 0.025330 -0.037500 -0.450146
v 0.113350 -0.037500 -0.431023
v 0.250290 -0.037500 -0.447197
v 0.480179 -0.037500 -0.496227
v 0.445969 -0.037500 -0.287128
v 0.438286 -0.037500 -0.162884
v 0.462105 -0.037500 -0.083748
v 0.529381 -0.037500 -0.083935
v 0.615524 -0.037500 -0.119644
v 0.686783 -0.037500 -0.127575
v 0.716316 -0.037500 -0.065025
v 0.705009 -0.037500 0.028336
v 0.660660 -0.037500 0.092255
v 0.593376 -0.037500 0.087124
v 0.522537 -0.037498 0.055943
v 0.469849 -0.037500 0.062363
v 0.450745 -0.037500 0.150131
v 0.480179 -0.037498 0.505470
v 0.125938 -0.037500 0.479759
v 0.041313 -0.037500 0.498508
v 0.040565 -0.037498 0.548412
v 0.078041 -0.037500 0.614105
v 0.087585 -0.037498 0.674171
v 0.024124 -0.037500 0.710068
v -0.072975 -0.037500 0.714828
v -0.143265 -0.037500 0.684357
v -0.146240 -0.037500 0.619976
v -0.121140 -0.037500 0.544670
v -0.127136 -0.037500 0.486835
v -0.205246 -0.037500 0.467041
v -0.323906 -0.037498 0.474583
v -0.521729 -0.037500 0.505470
v -0.550934 -0.037500 0.148605
v -0.533592 -0.037500 0.060833
v -0.484734 -0.037498 0.054977
v -0.419594 -0.037500 0.086082
v -0.359467 -0.037500 0.088955
v -0.322929 -0.037498 0.019741
v -0.317604 -0.037498 -0.080025
v -0.348389 -0.037500 -0.147484
v -0.414383 -0.037500 -0.140976
v -0.491539 -0.037500 -0.103626
v -0.549988 -0.037500 -0.099766
v -0.568161 -0.037500 -0.174217
v -0.557709 -0.037500 -0.293770
v -0.521729 -0.037500 -0.496227
v -0.156464 0.037500 -0.727989
v -0.086273 0.037500 -0.768700
v 0.010704 0.037500 -0.759998
v 0.073479 0.037500 -0.706215
v -0.158875 0.037500 -0.640781
v 0.062485 0.037500 -0.616589
v -0.132584 0.037500 -0.538948
v 0.023895 0.037500 -0.519974
v -0.136650 0.037500 -0.461605
v -0.136650 0.037500 -0.461605
v 0.025330 0.037500 -0.450146
v 0.025330 0.037500 -0.450146
v -0.521729 0.037500 -0.496227
v -0.521729 0.037500 -0.496227
v -0.327988 0.037500 -0.449993
v 0.250290 0.037500 -0.447197
v 0.480179 0.037500 -0.496227
v 0.480179 0.037500 -0.496227
v -0.212128 0.037500 -0.437004
v 0.113350 0.037500 -0.431023
v -0.557709 0.037500 -0.293770
v 0.445969 0.037500 -0.287128
v -0.568161 0.037500 -0.174217
v 0.438286 0.037500 -0.162884
v -0.549988 0.037500 -0.099766
v -0.549988 0.037500 -0.099766
v -0.348389 0.037500 -0.147484
v -0.348389 0.037500 -0.147484
v -0.414383 0.037500 -0.140976
v 0.462105 0.037500 -0.083748
v 0.462105 0.037500 -0.083748
v -0.317604 0.037500 -0.080025
v -0.491539 0.037500 -0.103626
v 0.615524 0.037500 -0.119644
v 0.686783 0.037500 -0.127575
v 0.686783 0.037500 -0.127575
v 0.716316 0.037500 -0.065025
v 0.529381 0.037500 -0.083935
v -0.322929 0.037500 0.019741
v 0.705009 0.037500 0.028336
v -0.359467 0.037500 0.088955
v -0.359467 0.037500 0.088955
v 0.660660 0.037500 0.092255
v -0.533592 0.037500 0.060833
v -0.533592 0.037500 0.060833
v -0.484734 0.037500 0.054977
v -0.419594 0.037500 0.086082
v 0.522537 0.037500 0.055943
v 0.469849 0.037500 0.062363
v 0.469849 0.037500 0.062363
v 0.593376 0.037500 0.087124
v -0.550934 0.037500 0.148605
v 0.450745 0.037500 0.150131
v -0.521729 0.037500 0.505470
v -0.521729 0.037500 0.505470
v -0.323906 0.037500 0.474583
v -0.205246 0.037500 0.467041
v -0.127136 0.037500 0.486835
v -0.127136 0.037500 0.486835
v 0.125938 0.037500 0.479759
v 0.041313 0.037500 0.498508
v 0.041313 0.037500 0.498508
v 0.480179 0.037500 0.505470
v 0.480179 0.037500 0.505470
v -0.121140 0.037500 0.544670
v 0.040565 0.037500 0.548412
v -0.146240 0.037500 0.619976
v 0.078041 0.037500 0.614105
v 0.087585 0.037500 0.674171
v 0.087585 0.037500 0.674171
v -0.143265 0.037500 0.684357
v -0.143265 0.037500 0.684357
v 0.024124 0.037500 0.710068
v -0.072975 0.037500 0.714828
v -0.156464 -0.037500 -0.727989
v -0.086273 -0.037500 -0.768700
v 0.010704 -0.037500 -0.759998
v 0.073479 -0.037500 -0.706215
v -0.158875 -0.037500 -0.640781
v 0.062485 -0.037500 -0.616589
v -0.132584 -0.037500 -0.538948
v 0.023895 -0.037500 -0.519974
v -0.136650 -0.037500 -0.461605
v -0.136650 -0.037500 -0.461605
v 0.025330 -0.037500 -0.450146
v 0.025330 -0.037500 -0.450146
v -0.521729 -0.037500 -0.496227
v -0.521729 -0.037500 -0.496227
v -0.327988 -0.037500 -0.449993
v 0.250290 -0.037500 -0.447197
v 0.480179 -0.037500 -0.496227
v 0.480179 -0.037500 -0.496227
v -0.212128 -0.037500 -0.437004
v 0.113350 -0.037500 -0.431023
v -0.557709 -0.037500 -0.293770
v 0.445969 -0.037500 -0.287128
v -0.568161 -0.037500 -0.174217
v 0.438286 -0.037500 -0.162884
v -0.549988 -0.037500 -0.099766
v -0.549988 -0.037500 -0.099766
v -0.348389 -0.037500 -0.147484
v -0.348389 -0.037500 -0.147484
v -0.414383 -0.037500 -0.140976
v 0.462105 -0.037500 -0.083748
v 0.462105 -0.037500 -0.083748
v -0.317604 -0.037498 -0.080025
v -0.491539 -0.037500 -0.103626
v 0.615524 -0.037500 -0.119644
v 0.686783 -0.037500 -0.127575
v 0.686783 -0.037500 -0.127575
v 0.716316 -0.037500 -0.065025
v 0.529381 -0.037500 -0.083935
v -0.322929 -0.037498 0.019741
v 0.705009 -0.037500 0.028336
v -0.359467 -0.037500 0.088955
v -0.359467 -0.037500 0.088955
v 0.660660 -0.037500 0.092255
v -0.533592 -0.037500 0.060833
v -0.533592 -0.037500 0.060833
v -0.484734 -0.037498 0.054977
v -0.419594 -0.037500 0.086082
v 0.522537 -0.037498 0.055943
v 0.469849 -0.037500 0.062363
v 0.469849 -0.037500 0.062363
v 0.593376 -0.037500 0.087124
v -0.550934 -0.037500 0.148605
v 0.450745 -0.037500 0.150131
v -0.521729 -0.037500 0.505470
v -0.521729 -0.037500 0.505470
v -0.323906 -0.037498 0.474583
v -0.205246 -0.037500 0.467041
v -0.127136 -0.037500 0.486835
v -0.127136 -0.037500 0.486835
v 0.125938 -0.037500 0.479759
v 0.041313 -0.037500 0.498508
v 0.041313 -0.037500 0.498508
v 0.480179 -0.037498 0.505470
v 0.480179 -0.037498 0.505470
v -0.121140 -0.037500 0.544670
v 0.040565 -0.037498 0.548412
v -0.146240 -0.037500 0.619976
v 0.078041 -0.037500 0.614105
v 0.087585 -0.037498 0.674171
v 0.087585 -0.037498 0.674171
v -0.143265 -0.037500 0.684357
v -0.143265 -0.037500 0.684357
v 0.024124 -0.037500 0.710068
v -0.072975 -0.037500 0.714828
vt 0.500000 0.500000
vt 0.500000 0.500000
vt 0.500000 0.500000
vt 0.500000 0.500000
vt 0.500000 0.500000
vt 0.500000 0.500000
vt 0.500000 0.500000
vt 0.500000 0.500000
vt 0.500000 0.500000
vt 0.500000 0.500000
vt 0.500000 0.500000
vt 0.500000 0.500000
vt 0.500000 0.500000
vt 0.500000 0.500000
vt 0.500000 0.500000
vt 0.500000 0.500000
vt 0.500000 0.500000
vt 0.500000 0.500000
vt 0.500000 0.500000
vt 0.500000 0.500000
vt 0.500000 0.500000
vt 0.500000 0.500000
vt 0.500000 0.500000
vt 0.500000 0.500000
vt 0.500000 0.500000
vt 0.500000 0.500000
vt 0.500000 0.500000
vt 0.500000 0.500000
vt 0.500000 0.500000
vt 0.500000 0.500000
vt 0.500000 0.500000
vt 0.500000 0.500000
vt 0.500000 0.500000
vt 0.500000 0.500000
vt 0.500000 0.500000
vt 0.500000 0.500000
vt 0.500000 0.500000
vt 0.500000 0.500000
vt 0.500000 0.500000
vt 0.500000 0.500000
vt 0.500000 0.500000
vt 0.500000 0.500000
vt 0.500000 0.500000
vt 0.500000 0.500000
vt 0.500000 0.500000
vt 0.500000 0.500000
vt 0.500000 0.500000
vt 0.500000 0.500000
vt 0.500000 0.500000
vt 0.500000 0.500000
vt 0.500000 0.500000
vt 0.500000 0.500000
vt 0.500000 0.500000
vt 0.500000 0.500000
vt 0.500000 0.500000
vt 0.500000 0.500000
vt 0.500000 0.500000
vt 0.500000 0.500000
vt 0.500000 0.500000
vt 0.500000 0.500000
vt 0.500000 0.500000
vt 0.500000 0.500000
vt 0.500000 0.500000
vt 0.500000 0.500000
vt 0.500000 0.500000
vt 0.500000 0.500000
vt 0.500000 0.500000
vt 0.500000 0.500000
vt 0.500000 0.500000
vt 0.500000 0.500000
vt 0.500000 0.500000
vt 0.500000 0.500000
vt 0.500000 0.500000
vt 0.500000 0.500000
vt 0.500000 0.500000
vt 0.500000 0.500000
vt 0.500000 0.500000
vt 0.500000 0.500000
vt 0.500000 0.500000
vt 0.500000 0.500000
vt 0.500000 0.500000
vt 0.500000 0.500000
vt 0.500000 0.500000
vt 0.500000 0.500000
vt 0.500000 0.500000
vt 0.500000 0.500000
vt 0.500000 0.500000
vt 0.500000 0.500000
vt 0.500000 0.500000
vt 0.500000 0.500000
vt 0.500000 0.500000
vt 0.500000 0.500000
vt 0.500000 0.500000
vt 0.500000 0.500000
vt 0.500000 0.500000
vt 0.500000 0.500000
vt 0.500000 0.500000
vt 0.500000 0.500000
vt 0.500000 0.500000
vt 0.500000 0.500000
vt 0.500000 0.500000
vt 0.500000 0.500000
vt 0.500000 0.500000
vt 0.500000 0.500000
vt 0.500000 0.500000
vt 0.500000 0.500000
vt 0.500000 0.500000
vt 0.500000 0.500000
vt 0.500000 0.500000
vt 0.500000 0.500000
vt 0.500000 0.500000
vt 0.500000 0.500000
vt 0.500000 0.500000
vt 0.500000 0.500000
vt 0.500000 0.500000
vt 0.500000 0.500000
vt 0.500000 0.500000
vt 0.500000 0.500000
vt 0.500000 0.500000
vt 0.500000 0.500000
vt 0.500000 0.500000
vt 0.500000 0.500000
vt 0.500000 0.500000
vt 0.500000 0.500000
vt 0.500000 0.500000
vt 0.500000 0.500000
vt 0.500000 0.500000
vt 0.500000 0.500000
vt 0.500000 0.500000
vt 0.500000 0.500000
vt 0.500000 0.500000
vt 0.500000 0.500000
vt 0.500000 0.500000
vt 0.500000 0.500000
vt 0.500000 0.500000
vt 0.500000 0.500000
vt 0.500000 0.500000
vt 0.500000 0.500000
vt 0.500000 0.500000
vt 0.500000 0.500000
vt 0.500000 0.500000
vt 0.500000 0.500000
vt 0.500000 0.500000
vt 0.500000 0.500000
vt 0.500000 0.500000
vt 0.500000 0.500000
vt 0.500000 0.500000
vt 0.500000 0.500000
vt 0.500000 0.500000
vt 0.500000 0.500000
vt 0.500000 0.500000
vt 0.500000 0.500000
vt 0.500000 0.500000
vt 0.500000 0.500000
vt 0.500000 0.500000
vt 0.500000 0.500000
vt 0.500000 0.500000
vt 0.500000 0.500000
vt 0.500000 0.500000
vt 0.500000 0.500000
vt 0.500000 0.500000
vt 0.500000 0.500000
vt 0.500000 0.500000
vt 0.500000 0.500000
vt 0.500000 0.500000
vt 0.500000 0.500000
vt 0.500000 0.500000
vt 0.500000 0.500000
vt 0.500000 0.500000
vt 0.500000 0.500000
vt 0.500000 0.500000
vt 0.500000 0.500000
vt 0.500000 0.500000
vt 0.500000 0.500000
vt 0.500000 0.500000
vt 0.500000 0.500000
vt 0.500000 0.500000
vt 0.500000 0.500000
vt 0.500000 0.500000
vt 0.500000 0.500000
vt 0.500000 0.500000
vt 0.500000 0.500000
vt 0.500000 0.500000
vt 0.500000 0.500000
vt 0.500000 0.500000
vt 0.500000 0.500000
vt 0.500000 0.500000
vt 0.500000 0.500000
vt 0.500000 0.500000
vt 0.500000 0.500000
vt 0.500000 0.500000
vt 0.500000 0.500000
vt 0.500000 0.500000
vt 0.500000 0.500000
vt 0.500000 0.500000
vt 0.500000 0.500000
vt 0.500000 0.500000
vt 0.500000 0.500000
vt 0.500000 0.500000
vt 0.500000 0.500000
vt 0.500000 0.500000
vt 0.500000 0.500000
vt 0.500000 0.500000
vt 0.500000 0.500000
vt 0.500000 0.500000
vt 0.897956 0.029343
vt 0.899837 0.036397
vt 0.899052 0.035942
vt 0.905894 0.033171
vt 0.906250 0.037037
vt 0.903860 0.036131
vt 0.901687 0.018647
vt 0.902567 0.018994
vt 0.897900 0.027498
vt 0.901506 0.037476
vt 0.899879 0.037827
vt 0.908587 0.027339
vt 0.907657 0.030075
vt 0.907427 0.026253
vt 0.899737 0.016402
vt 0.899768 0.015212
vt 0.900499 0.014648
vt 0.899936 0.018863
vt 0.897520 0.026219
vt 0.899124 0.019229
vt 0.902168 0.015400
vt 0.902069 0.016510
vt 0.901508 0.014736
vt 0.901679 0.017725
vt 0.902436 0.035832
vt 0.905814 0.030875
vt 0.906142 0.026710
vt 0.906062 0.029412
vt 0.895351 0.031084
vt 0.895540 0.029708
vt 0.896147 0.029779
vt 0.908705 0.029065
vt 0.906761 0.029415
vt 0.895459 0.033294
vt 0.896949 0.030469
vt 0.897636 0.030590
vt 0.908126 0.026158
vt 0.897848 0.036182
vt 0.897890 0.019090
vt 0.901521 0.036185
vt 0.901907 0.039262
vt 0.902022 0.040919
vt 0.901369 0.041913
vt 0.906690 0.026829
vt 0.900361 0.042074
vt 0.899631 0.041322
vt 0.899606 0.039709
vt 0.896895 0.026272
vt 0.899998 0.017794
vt 0.895530 0.025116
vt 0.895833 0.018519
vt 0.896218 0.026847
vt 0.895833 0.037037
vt 0.905944 0.025088
vt 0.906250 0.018519
vt 0.908398 0.030222
vt 0.895710 0.026739
vn 0.0000 -1.0000 0.0000
vn 0.0001 -1.0000 0.0000
vn -0.5017 0.0000 -0.8650
vn 0.0894 0.0000 -0.9960
vn 0.6506 0.0000 -0.7594
vn -0.9996 0.0000 -0.0276
vn 0.9926 0.0000 0.1218
vn -0.9683 0.0000 0.2500
vn 0.9287 0.0000 0.3709
vn -0.9986 0.0000 -0.0525
vn 0.9998 0.0000 -0.0205
vn 0.2321 0.0000 -0.9727
vn -0.2086 0.0000 -0.9780
vn -0.3099 0.0000 -0.9508
vn 0.2123 0.0000 -0.9772
vn 0.1114 0.0000 -0.9938
vn -0.1173 0.0000 -0.9931
vn -0.9846 0.0000 -0.1750
vn 0.9869 0.0000 0.1615
vn -0.9962 0.0000 -0.0871
vn 0.9981 0.0000 0.0617
vn -0.9715 0.0000 0.2371
vn 0.0981 0.0000 0.9952
vn 0.9576 0.0000 -0.2882
vn -0.9097 0.0000 0.4152
vn 0.0659 0.0000 0.9978
vn 0.4357 0.0000 0.9001
vn -0.1106 0.0000 -0.9939
vn 0.9043 0.0000 -0.4270
vn -0.3829 0.0000 -0.9238
vn -0.0028 0.0000 -1.0000
vn -0.9986 0.0000 -0.0533
vn 0.9927 0.0000 0.1202
vn -0.8843 0.0000 -0.4668
vn 0.8216 0.0000 0.5701
vn -0.1190 0.0000 -0.9929
vn 0.4309 0.0000 -0.9024
vn 0.1210 0.0000 0.9927
vn -0.4029 0.0000 0.9153
vn -0.0760 0.0000 0.9971
vn -0.9810 0.0000 -0.1938
vn 0.9771 0.0000 0.2127
vn 0.0477 0.0000 -0.9989
vn -0.9967 0.0000 0.0816
vn 0.1543 0.0000 0.9880
vn 0.0634 0.0000 0.9980
vn -0.2457 0.0000 0.9694
vn 0.2163 0.0000 0.9763
vn -0.0724 0.0000 0.9974
vn 0.9966 0.0000 -0.0826
vn -0.9947 0.0000 0.1031
vn 0.9999 0.0000 0.0150
vn -0.9487 0.0000 -0.3162
vn 0.8686 0.0000 -0.4955
vn 0.9876 0.0000 -0.1569
vn -0.9989 0.0000 0.0462
vn 0.4923 0.0000 0.8704
vn -0.3977 0.0000 0.9175
vn 0.0490 0.0000 0.9988
vn 0.0000 1.0000 -0.0000
usemtl BackMat.001
s off
f 220/1/1 207/2/1 197/3/1
f 210/4/1 204/5/1 205/6/1
f 249/7/1 227/8/1 248/9/1
f 197/3/1 195/10/1 196/11/1
f 228/12/1 239/13/1 222/14/1
f 255/15/1 262/16/1 259/17/1
f 246/18/1 245/19/1 229/20/1
f 257/21/2 261/22/2 256/23/2
f 262/16/1 254/24/1 261/22/1
f 204/5/1 212/25/1 208/26/1
f 227/8/1 246/18/1 229/20/1
f 237/27/1 227/8/1 218/28/1
f 211/29/1 221/30/1 213/31/1
f 225/32/1 228/12/1 222/14/1
f 222/14/1 239/13/1 226/33/1
f 209/34/1 217/35/1 211/29/1
f 215/36/1 217/35/1 209/34/1
f 231/37/1 239/13/1 228/12/1
f 207/2/1 215/36/1 203/38/1
f 203/38/1 215/36/1 209/34/1
f 245/19/1 244/39/1 229/20/1
f 199/40/1 197/3/1 196/11/1
f 218/28/1 220/1/1 212/25/1
f 194/41/1 191/42/1 192/43/1
f 239/13/1 236/44/1 226/33/1
f 190/45/1 193/46/1 189/47/1
f 208/26/1 220/1/1 199/40/1
f 229/20/1 244/39/1 235/48/1
f 253/49/1 254/24/1 255/15/1
f 240/50/1 244/39/1 242/51/1
f 235/48/1 240/50/1 234/52/1
f 203/38/1 209/34/1 201/53/1
f 237/27/1 218/28/1 236/44/1
f 240/50/1 235/48/1 244/39/1
f 212/25/1 220/1/1 208/26/1
f 241/54/1 227/8/1 237/27/1
f 255/15/1 254/24/1 262/16/1
f 248/9/1 227/8/1 241/54/1
f 256/23/1 261/22/1 254/24/1
f 249/7/1 246/18/1 227/8/1
f 227/8/1 220/1/1 218/28/1
f 196/11/1 195/10/1 194/41/1
f 191/42/1 193/46/1 190/45/1
f 248/9/1 241/54/1 251/55/1
f 226/33/1 236/44/1 218/28/1
f 223/56/1 225/32/1 222/14/1
f 193/46/1 194/41/1 195/10/1
f 211/29/1 217/35/1 221/30/1
f 254/24/1 253/49/1 249/7/1
f 199/40/1 220/1/1 197/3/1
f 234/52/1 240/50/1 232/57/1
f 249/7/1 253/49/1 246/18/1
f 210/4/1 212/25/1 204/5/1
f 191/42/1 194/41/1 193/46/1
f 220/1/1 215/36/1 207/2/1
f 6/58/3 7/59/3 64/60/3 63/61/3
f 7/59/4 8/62/4 65/63/4 64/60/4
f 8/62/5 9/64/5 66/65/5 65/63/5
f 5/66/6 6/58/6 63/61/6 62/67/6
f 9/64/7 10/68/7 67/69/7 66/65/7
f 4/70/8 5/66/8 62/67/8 61/71/8
f 10/68/9 11/72/9 68/73/9 67/69/9
f 124/74/10 4/70/10 61/71/10 198/75/10
f 11/72/11 126/76/11 200/77/11 68/73/11
f 128/78/12 1/79/12 58/80/12 202/81/12
f 14/82/13 132/83/13 206/84/13 71/85/13
f 2/86/14 3/87/14 60/88/14 59/89/14
f 12/90/15 13/91/15 70/92/15 69/93/15
f 1/79/16 2/86/16 59/89/16 58/80/16
f 13/91/17 14/82/17 71/85/17 70/92/17
f 56/94/18 57/95/18 114/96/18 113/97/18
f 15/98/19 16/99/19 73/100/19 72/101/19
f 55/102/20 56/94/20 113/97/20 112/103/20
f 16/99/21 17/104/21 74/105/21 73/100/21
f 140/106/22 55/102/22 112/103/22 214/107/22
f 142/108/23 52/109/23 109/110/23 216/111/23
f 17/104/24 145/112/24 219/113/24 74/105/24
f 50/114/25 51/115/25 108/116/25 107/117/25
f 53/118/26 54/119/26 111/120/26 110/121/26
f 52/109/27 53/118/27 110/121/27 109/110/27
f 20/122/28 150/123/28 224/124/28 77/125/28
f 21/126/29 22/127/29 79/128/29 78/129/29
f 19/130/30 20/122/30 77/125/30 76/131/30
f 18/132/31 19/130/31 76/131/31 75/133/31
f 49/134/32 50/114/32 107/117/32 106/135/32
f 22/127/33 23/136/33 80/137/33 79/128/33
f 156/138/34 49/134/34 106/135/34 230/139/34
f 23/136/35 24/140/35 81/141/35 80/137/35
f 159/142/36 46/143/36 103/144/36 233/145/36
f 46/143/37 47/146/37 104/147/37 103/144/37
f 26/148/38 164/149/38 238/150/38 83/151/38
f 25/152/39 26/148/39 83/151/39 82/153/39
f 24/140/40 25/152/40 82/153/40 81/141/40
f 44/154/41 45/155/41 102/156/41 101/157/41
f 27/158/42 28/159/42 85/160/42 84/161/42
f 47/146/43 48/162/43 105/163/43 104/147/43
f 169/164/44 44/154/44 101/157/44 243/165/44
f 42/166/45 43/167/45 100/168/45 99/169/45
f 41/170/46 42/166/46 99/169/46 98/171/46
f 173/172/47 41/170/47 98/171/47 247/173/47
f 30/174/48 176/175/48 250/176/48 87/177/48
f 178/178/49 30/174/49 87/177/49 252/179/49
f 28/159/50 29/180/50 86/181/50 85/160/50
f 39/182/51 40/183/51 97/184/51 96/185/51
f 31/186/52 32/187/52 89/188/52 88/189/52
f 38/190/53 39/182/53 96/185/53 95/191/53
f 32/187/54 33/192/54 90/193/54 89/188/54
f 33/192/55 184/194/55 258/195/55 90/193/55
f 186/196/56 38/190/56 95/191/56 260/197/56
f 34/198/57 35/199/57 92/200/57 91/201/57
f 36/202/58 37/203/58 94/204/58 93/205/58
f 35/199/59 36/202/59 93/205/59 92/200/59
usemtl FrontMat.001
f 146/206/60 123/207/60 133/208/60
f 136/209/60 131/210/60 130/211/60
f 175/212/60 174/213/60 153/214/60
f 123/207/60 122/215/60 121/216/60
f 154/217/60 148/218/60 165/219/60
f 181/220/60 185/221/60 188/222/60
f 172/223/60 155/224/60 171/225/60
f 183/226/60 182/227/60 187/228/60
f 188/222/60 187/228/60 180/229/60
f 130/211/60 134/230/60 138/231/60
f 153/214/60 155/224/60 172/223/60
f 163/232/60 144/233/60 153/214/60
f 137/234/60 139/235/60 147/236/60
f 151/237/60 148/218/60 154/217/60
f 148/218/60 152/238/60 165/219/60
f 135/239/60 137/234/60 143/240/60
f 141/241/60 135/239/60 143/240/60
f 157/242/60 154/217/60 165/219/60
f 133/208/60 129/243/60 141/241/60
f 129/243/60 135/239/60 141/241/60
f 171/225/60 155/224/60 170/244/60
f 125/245/60 122/215/60 123/207/60
f 144/233/60 138/231/60 146/206/60
f 120/246/60 118/247/60 117/248/60
f 165/219/60 152/238/60 162/249/60
f 116/250/60 115/251/60 119/252/60
f 134/230/60 125/245/60 146/206/60
f 155/224/60 161/253/60 170/244/60
f 179/254/60 181/220/60 180/229/60
f 166/255/60 168/256/60 170/244/60
f 161/253/60 160/257/60 166/255/60
f 129/243/60 127/258/60 135/239/60
f 163/232/60 162/249/60 144/233/60
f 166/255/60 170/244/60 161/253/60
f 138/231/60 134/230/60 146/206/60
f 167/259/60 163/232/60 153/214/60
f 181/220/60 188/222/60 180/229/60
f 174/213/60 167/259/60 153/214/60
f 182/227/60 180/229/60 187/228/60
f 175/212/60 153/214/60 172/223/60
f 153/214/60 144/233/60 146/206/60
f 122/215/60 120/246/60 121/216/60
f 117/248/60 116/250/60 119/252/60
f 174/213/60 177/260/60 167/259/60
f 152/238/60 144/233/60 162/249/60
f 149/261/60 148/218/60 151/237/60
f 119/252/60 121/216/60 120/246/60
f 137/234/60 147/236/60 143/240/60
f 180/229/60 175/212/60 179/254/60
f 125/245/60 123/207/60 146/206/60
f 160/257/60 158/262/60 166/255/60
f 175/212/60 172/223/60 179/254/60
f 136/209/60 130/211/60 138/231/60
f 117/248/60 119/252/60 120/246/60
f 146/206/60 133/208/60 141/241/60
