# Blender v2.83.1 OBJ File: 'jigsaw-96x54-3-step2.blend'
# www.blender.org
mtllib piece.1549.mtl
o path3098
v 0.287416 0.037500 0.438314
v 0.157925 0.037500 0.420820
v 0.073936 0.037500 0.440162
v 0.070541 0.037500 0.512398
v 0.103060 0.037500 0.611890
v 0.106871 0.037500 0.702579
v 0.038477 0.037500 0.754271
v -0.061094 0.037500 0.760228
v -0.129692 0.037500 0.719590
v -0.126078 0.037500 0.637437
v -0.092665 0.037500 0.542608
v -0.092789 0.037500 0.469889
v -0.170465 0.037500 0.444452
v -0.292356 0.037500 0.453016
v -0.497467 0.037500 0.490357
v -0.463665 0.037500 0.179937
v -0.481850 0.037500 0.103806
v -0.534676 0.037500 0.098907
v -0.605496 0.037500 0.124808
v -0.671045 0.037500 0.123202
v -0.710820 0.037500 0.055367
v -0.715355 0.037500 -0.039128
v -0.677958 0.037500 -0.101126
v -0.599069 0.037500 -0.092233
v -0.508045 0.037500 -0.057115
v -0.441422 0.037500 -0.061199
v -0.425350 0.037500 -0.149446
v -0.444439 0.037500 -0.284948
v -0.497467 0.037500 -0.511552
v -0.165800 0.037500 -0.474404
v -0.085077 0.037500 -0.490903
v -0.081480 0.037500 -0.542216
v -0.113441 0.037500 -0.613644
v -0.120567 0.037500 -0.684148
v -0.062090 0.037500 -0.734379
v 0.024197 0.037500 -0.751722
v 0.080870 0.037500 -0.725247
v 0.070715 0.037500 -0.652029
v 0.037338 0.037500 -0.561170
v 0.044559 0.037500 -0.489774
v 0.135965 0.037500 -0.464959
v 0.274157 0.037500 -0.473898
v 0.504230 0.037500 -0.511552
v 0.469713 0.037500 -0.143295
v 0.489983 0.037500 -0.051959
v 0.546963 0.037500 -0.044818
v 0.621206 0.037500 -0.077984
v 0.685829 0.037500 -0.087267
v 0.718458 0.037500 -0.028670
v 0.714775 0.037500 0.061013
v 0.674961 0.037500 0.124797
v 0.603918 0.037500 0.124712
v 0.525423 0.037500 0.098856
v 0.467968 0.037500 0.104348
v 0.451857 0.037500 0.180671
v 0.464672 0.037500 0.296760
v 0.504230 0.037500 0.490357
v 0.287416 -0.037500 0.438314
v 0.157925 -0.037500 0.420820
v 0.073936 -0.037498 0.440162
v 0.070541 -0.037500 0.512398
v 0.103060 -0.037500 0.611890
v 0.106871 -0.037500 0.702579
v 0.038477 -0.037500 0.754271
v -0.061094 -0.037500 0.760228
v -0.129692 -0.037500 0.719590
v -0.126078 -0.037498 0.637437
v -0.092665 -0.037500 0.542608
v -0.092789 -0.037500 0.469889
v -0.170465 -0.037500 0.444452
v -0.292356 -0.037498 0.453016
v -0.497467 -0.037498 0.490357
v -0.463665 -0.037500 0.179937
v -0.481850 -0.037500 0.103806
v -0.534676 -0.037498 0.098907
v -0.605496 -0.037500 0.124808
v -0.671045 -0.037500 0.123202
v -0.710820 -0.037500 0.055367
v -0.715355 -0.037500 -0.039128
v -0.677958 -0.037500 -0.101126
v -0.599069 -0.037500 -0.092233
v -0.508045 -0.037500 -0.057115
v -0.441422 -0.037500 -0.061199
v -0.425350 -0.037498 -0.149446
v -0.444439 -0.037500 -0.284948
v -0.497467 -0.037500 -0.511552
v -0.165800 -0.037500 -0.474404
v -0.085077 -0.037500 -0.490903
v -0.081480 -0.037500 -0.542216
v -0.113441 -0.037500 -0.613644
v -0.120567 -0.037500 -0.684148
v -0.062090 -0.037498 -0.734379
v 0.024197 -0.037500 -0.751722
v 0.080870 -0.037500 -0.725247
v 0.070715 -0.037500 -0.652029
v 0.037338 -0.037500 -0.561170
v 0.044559 -0.037500 -0.489774
v 0.135965 -0.037498 -0.464959
v 0.274157 -0.037500 -0.473898
v 0.504230 -0.037500 -0.511552
v 0.469713 -0.037500 -0.143295
v 0.489983 -0.037498 -0.051959
v 0.546963 -0.037500 -0.044818
v 0.621206 -0.037500 -0.077984
v 0.685829 -0.037500 -0.087267
v 0.718458 -0.037500 -0.028670
v 0.714775 -0.037500 0.061013
v 0.674961 -0.037500 0.124797
v 0.603918 -0.037500 0.124712
v 0.525423 -0.037500 0.098856
v 0.467968 -0.037500 0.104348
v 0.451857 -0.037500 0.180671
v 0.464672 -0.037498 0.296760
v 0.504230 -0.037500 0.490357
v -0.710820 0.037500 0.055367
v -0.715355 0.037500 -0.039128
v -0.677958 0.037500 -0.101126
v -0.677958 0.037500 -0.101126
v -0.671045 0.037500 0.123202
v -0.599069 0.037500 -0.092233
v -0.605496 0.037500 0.124808
v -0.534676 0.037500 0.098907
v -0.508045 0.037500 -0.057115
v -0.481850 0.037500 0.103806
v -0.481850 0.037500 0.103806
v -0.441422 0.037500 -0.061199
v -0.441422 0.037500 -0.061199
v -0.463665 0.037500 0.179937
v -0.444439 0.037500 -0.284948
v -0.497467 0.037500 -0.511552
v -0.497467 0.037500 -0.511552
v -0.497467 0.037500 0.490357
v -0.497467 0.037500 0.490357
v -0.425350 0.037500 -0.149446
v -0.292356 0.037500 0.453016
v -0.170465 0.037500 0.444452
v -0.165800 0.037500 -0.474404
v -0.092789 0.037500 0.469889
v -0.092789 0.037500 0.469889
v -0.085077 0.037500 -0.490903
v -0.085077 0.037500 -0.490903
v -0.061094 0.037500 0.760228
v -0.129692 0.037500 0.719590
v -0.129692 0.037500 0.719590
v -0.126078 0.037500 0.637437
v -0.092665 0.037500 0.542608
v -0.113441 0.037500 -0.613644
v -0.120567 0.037500 -0.684148
v -0.062090 0.037500 -0.734379
v -0.081480 0.037500 -0.542216
v 0.024197 0.037500 -0.751722
v 0.038477 0.037500 0.754271
v 0.080870 0.037500 -0.725247
v 0.080870 0.037500 -0.725247
v 0.037338 0.037500 -0.561170
v 0.044559 0.037500 -0.489774
v 0.044559 0.037500 -0.489774
v 0.070715 0.037500 -0.652029
v 0.106871 0.037500 0.702579
v 0.073936 0.037500 0.440162
v 0.073936 0.037500 0.440162
v 0.070541 0.037500 0.512398
v 0.135965 0.037500 -0.464959
v 0.103060 0.037500 0.611890
v 0.157925 0.037500 0.420820
v 0.274157 0.037500 -0.473898
v 0.287416 0.037500 0.438314
v 0.451857 0.037500 0.180671
v 0.464672 0.037500 0.296760
v 0.467968 0.037500 0.104348
v 0.467968 0.037500 0.104348
v 0.525423 0.037500 0.098856
v 0.469713 0.037500 -0.143295
v 0.489983 0.037500 -0.051959
v 0.489983 0.037500 -0.051959
v 0.504230 0.037500 -0.511552
v 0.504230 0.037500 -0.511552
v 0.504230 0.037500 0.490357
v 0.504230 0.037500 0.490357
v 0.546963 0.037500 -0.044818
v 0.603918 0.037500 0.124712
v 0.621206 0.037500 -0.077984
v 0.674961 0.037500 0.124797
v 0.685829 0.037500 -0.087267
v 0.685829 0.037500 -0.087267
v 0.714775 0.037500 0.061013
v 0.718458 0.037500 -0.028670
v -0.710820 -0.037500 0.055367
v -0.715355 -0.037500 -0.039128
v -0.677958 -0.037500 -0.101126
v -0.677958 -0.037500 -0.101126
v -0.671045 -0.037500 0.123202
v -0.599069 -0.037500 -0.092233
v -0.605496 -0.037500 0.124808
v -0.534676 -0.037498 0.098907
v -0.508045 -0.037500 -0.057115
v -0.481850 -0.037500 0.103806
v -0.481850 -0.037500 0.103806
v -0.441422 -0.037500 -0.061199
v -0.441422 -0.037500 -0.061199
v -0.463665 -0.037500 0.179937
v -0.444439 -0.037500 -0.284948
v -0.497467 -0.037500 -0.511552
v -0.497467 -0.037500 -0.511552
v -0.497467 -0.037498 0.490357
v -0.497467 -0.037498 0.490357
v -0.425350 -0.037498 -0.149446
v -0.292356 -0.037498 0.453016
v -0.170465 -0.037500 0.444452
v -0.165800 -0.037500 -0.474404
v -0.092789 -0.037500 0.469889
v -0.092789 -0.037500 0.469889
v -0.085077 -0.037500 -0.490903
v -0.085077 -0.037500 -0.490903
v -0.061094 -0.037500 0.760228
v -0.129692 -0.037500 0.719590
v -0.129692 -0.037500 0.719590
v -0.126078 -0.037498 0.637437
v -0.092665 -0.037500 0.542608
v -0.113441 -0.037500 -0.613644
v -0.120567 -0.037500 -0.684148
v -0.062090 -0.037498 -0.734379
v -0.081480 -0.037500 -0.542216
v 0.024197 -0.037500 -0.751722
v 0.038477 -0.037500 0.754271
v 0.080870 -0.037500 -0.725247
v 0.080870 -0.037500 -0.725247
v 0.037338 -0.037500 -0.561170
v 0.044559 -0.037500 -0.489774
v 0.044559 -0.037500 -0.489774
v 0.070715 -0.037500 -0.652029
v 0.106871 -0.037500 0.702579
v 0.073936 -0.037498 0.440162
v 0.073936 -0.037498 0.440162
v 0.070541 -0.037500 0.512398
v 0.135965 -0.037498 -0.464959
v 0.103060 -0.037500 0.611890
v 0.157925 -0.037500 0.420820
v 0.274157 -0.037500 -0.473898
v 0.287416 -0.037500 0.438314
v 0.451857 -0.037500 0.180671
v 0.464672 -0.037498 0.296760
v 0.467968 -0.037500 0.104348
v 0.467968 -0.037500 0.104348
v 0.525423 -0.037500 0.098856
v 0.469713 -0.037500 -0.143295
v 0.489983 -0.037498 -0.051959
v 0.489983 -0.037498 -0.051959
v 0.504230 -0.037500 -0.511552
v 0.504230 -0.037500 -0.511552
v 0.504230 -0.037500 0.490357
v 0.504230 -0.037500 0.490357
v 0.546963 -0.037500 -0.044818
v 0.603918 -0.037500 0.124712
v 0.621206 -0.037500 -0.077984
v 0.674961 -0.037500 0.124797
v 0.685829 -0.037500 -0.087267
v 0.685829 -0.037500 -0.087267
v 0.714775 -0.037500 0.061013
v 0.718458 -0.037500 -0.028670
vt 0.500000 0.500000
vt 0.500000 0.500000
vt 0.500000 0.500000
vt 0.500000 0.500000
vt 0.500000 0.500000
vt 0.500000 0.500000
vt 0.500000 0.500000
vt 0.500000 0.500000
vt 0.500000 0.500000
vt 0.500000 0.500000
vt 0.500000 0.500000
vt 0.500000 0.500000
vt 0.500000 0.500000
vt 0.500000 0.500000
vt 0.500000 0.500000
vt 0.500000 0.500000
vt 0.500000 0.500000
vt 0.500000 0.500000
vt 0.500000 0.500000
vt 0.500000 0.500000
vt 0.500000 0.500000
vt 0.500000 0.500000
vt 0.500000 0.500000
vt 0.500000 0.500000
vt 0.500000 0.500000
vt 0.500000 0.500000
vt 0.500000 0.500000
vt 0.500000 0.500000
vt 0.500000 0.500000
vt 0.500000 0.500000
vt 0.500000 0.500000
vt 0.500000 0.500000
vt 0.500000 0.500000
vt 0.500000 0.500000
vt 0.500000 0.500000
vt 0.500000 0.500000
vt 0.500000 0.500000
vt 0.500000 0.500000
vt 0.500000 0.500000
vt 0.500000 0.500000
vt 0.500000 0.500000
vt 0.500000 0.500000
vt 0.500000 0.500000
vt 0.500000 0.500000
vt 0.500000 0.500000
vt 0.500000 0.500000
vt 0.500000 0.500000
vt 0.500000 0.500000
vt 0.500000 0.500000
vt 0.500000 0.500000
vt 0.500000 0.500000
vt 0.500000 0.500000
vt 0.500000 0.500000
vt 0.500000 0.500000
vt 0.500000 0.500000
vt 0.500000 0.500000
vt 0.500000 0.500000
vt 0.500000 0.500000
vt 0.500000 0.500000
vt 0.500000 0.500000
vt 0.500000 0.500000
vt 0.500000 0.500000
vt 0.500000 0.500000
vt 0.500000 0.500000
vt 0.500000 0.500000
vt 0.500000 0.500000
vt 0.500000 0.500000
vt 0.500000 0.500000
vt 0.500000 0.500000
vt 0.500000 0.500000
vt 0.500000 0.500000
vt 0.500000 0.500000
vt 0.500000 0.500000
vt 0.500000 0.500000
vt 0.500000 0.500000
vt 0.500000 0.500000
vt 0.500000 0.500000
vt 0.500000 0.500000
vt 0.500000 0.500000
vt 0.500000 0.500000
vt 0.500000 0.500000
vt 0.500000 0.500000
vt 0.500000 0.500000
vt 0.500000 0.500000
vt 0.500000 0.500000
vt 0.500000 0.500000
vt 0.500000 0.500000
vt 0.500000 0.500000
vt 0.500000 0.500000
vt 0.500000 0.500000
vt 0.500000 0.500000
vt 0.500000 0.500000
vt 0.500000 0.500000
vt 0.500000 0.500000
vt 0.500000 0.500000
vt 0.500000 0.500000
vt 0.500000 0.500000
vt 0.500000 0.500000
vt 0.500000 0.500000
vt 0.500000 0.500000
vt 0.500000 0.500000
vt 0.500000 0.500000
vt 0.500000 0.500000
vt 0.500000 0.500000
vt 0.500000 0.500000
vt 0.500000 0.500000
vt 0.500000 0.500000
vt 0.500000 0.500000
vt 0.500000 0.500000
vt 0.500000 0.500000
vt 0.500000 0.500000
vt 0.500000 0.500000
vt 0.500000 0.500000
vt 0.500000 0.500000
vt 0.500000 0.500000
vt 0.500000 0.500000
vt 0.500000 0.500000
vt 0.500000 0.500000
vt 0.500000 0.500000
vt 0.500000 0.500000
vt 0.500000 0.500000
vt 0.500000 0.500000
vt 0.500000 0.500000
vt 0.500000 0.500000
vt 0.500000 0.500000
vt 0.500000 0.500000
vt 0.500000 0.500000
vt 0.500000 0.500000
vt 0.500000 0.500000
vt 0.500000 0.500000
vt 0.500000 0.500000
vt 0.500000 0.500000
vt 0.500000 0.500000
vt 0.500000 0.500000
vt 0.500000 0.500000
vt 0.500000 0.500000
vt 0.500000 0.500000
vt 0.500000 0.500000
vt 0.500000 0.500000
vt 0.500000 0.500000
vt 0.500000 0.500000
vt 0.500000 0.500000
vt 0.500000 0.500000
vt 0.500000 0.500000
vt 0.500000 0.500000
vt 0.500000 0.500000
vt 0.500000 0.500000
vt 0.500000 0.500000
vt 0.500000 0.500000
vt 0.500000 0.500000
vt 0.500000 0.500000
vt 0.500000 0.500000
vt 0.500000 0.500000
vt 0.500000 0.500000
vt 0.500000 0.500000
vt 0.500000 0.500000
vt 0.500000 0.500000
vt 0.500000 0.500000
vt 0.500000 0.500000
vt 0.500000 0.500000
vt 0.500000 0.500000
vt 0.500000 0.500000
vt 0.500000 0.500000
vt 0.500000 0.500000
vt 0.500000 0.500000
vt 0.500000 0.500000
vt 0.500000 0.500000
vt 0.500000 0.500000
vt 0.500000 0.500000
vt 0.500000 0.500000
vt 0.500000 0.500000
vt 0.500000 0.500000
vt 0.500000 0.500000
vt 0.500000 0.500000
vt 0.500000 0.500000
vt 0.500000 0.500000
vt 0.500000 0.500000
vt 0.500000 0.500000
vt 0.500000 0.500000
vt 0.500000 0.500000
vt 0.500000 0.500000
vt 0.500000 0.500000
vt 0.500000 0.500000
vt 0.500000 0.500000
vt 0.500000 0.500000
vt 0.500000 0.500000
vt 0.500000 0.500000
vt 0.500000 0.500000
vt 0.500000 0.500000
vt 0.500000 0.500000
vt 0.500000 0.500000
vt 0.500000 0.500000
vt 0.500000 0.500000
vt 0.500000 0.500000
vt 0.500000 0.500000
vt 0.500000 0.500000
vt 0.500000 0.500000
vt 0.500000 0.500000
vt 0.500000 0.500000
vt 0.500000 0.500000
vt 0.500000 0.500000
vt 0.500000 0.500000
vt 0.500000 0.500000
vt 0.125522 0.693140
vt 0.125213 0.696222
vt 0.124771 0.693203
vt 0.130734 0.702667
vt 0.125477 0.697658
vt 0.130638 0.685449
vt 0.131588 0.685823
vt 0.129013 0.685856
vt 0.135417 0.685185
vt 0.135025 0.689439
vt 0.137733 0.695655
vt 0.137211 0.696736
vt 0.136478 0.696604
vt 0.124457 0.696220
vt 0.134932 0.691993
vt 0.130909 0.683023
vt 0.130564 0.684395
vt 0.129464 0.681293
vt 0.129019 0.703415
vt 0.130692 0.703899
vt 0.129070 0.704392
vt 0.125723 0.691587
vt 0.125541 0.689193
vt 0.128220 0.686153
vt 0.130396 0.681225
vt 0.129070 0.684793
vt 0.122256 0.693796
vt 0.122794 0.692531
vt 0.123736 0.692602
vt 0.135190 0.693683
vt 0.135933 0.693817
vt 0.135736 0.696013
vt 0.136877 0.693200
vt 0.137914 0.694060
vt 0.128227 0.703079
vt 0.135030 0.697572
vt 0.133061 0.702723
vt 0.131652 0.702370
vt 0.135202 0.696080
vt 0.135417 0.703704
vt 0.131057 0.705582
vt 0.128801 0.705701
vt 0.129523 0.707648
vt 0.125000 0.685185
vt 0.127013 0.685917
vt 0.123471 0.696838
vt 0.131150 0.707040
vt 0.130505 0.707732
vt 0.122617 0.696905
vt 0.122194 0.695636
vt 0.128802 0.683342
vt 0.125388 0.699912
vt 0.125000 0.703704
vt 0.128801 0.682029
vt 0.137638 0.693012
vt 0.128817 0.706913
vt 0.131005 0.681828
vn 0.0000 -1.0000 -0.0000
vn 0.0001 -1.0000 0.0000
vn -0.9989 0.0000 0.0479
vn -0.8563 0.0000 -0.5165
vn -0.8626 0.0000 0.5058
vn 0.1120 0.0000 -0.9937
vn -0.0245 0.0000 0.9997
vn 0.3435 0.0000 0.9392
vn 0.3600 0.0000 -0.9330
vn -0.0923 0.0000 0.9957
vn -0.0612 0.0000 -0.9981
vn -0.9726 0.0000 0.2323
vn -0.9737 0.0000 0.2279
vn -0.9941 0.0000 -0.1083
vn -0.9902 0.0000 0.1395
vn -0.9838 0.0000 -0.1792
vn 0.1791 0.0000 0.9838
vn 0.0701 0.0000 0.9975
vn 0.1113 0.0000 -0.9938
vn -0.3112 0.0000 0.9503
vn -0.2002 0.0000 -0.9797
vn -0.5097 0.0000 0.8604
vn -0.9990 0.0000 -0.0440
vn -0.9432 0.0000 -0.3323
vn -0.9949 0.0000 0.1006
vn -0.6516 0.0000 -0.7586
vn -0.9128 0.0000 0.4084
vn -1.0000 0.0000 0.0017
vn -0.9976 0.0000 -0.0699
vn -0.1971 0.0000 -0.9804
vn 0.0597 0.0000 0.9982
vn 0.4232 0.0000 -0.9060
vn 0.9949 0.0000 -0.1006
vn 0.9387 0.0000 0.3448
vn 0.9905 0.0000 0.1374
vn 0.6030 0.0000 0.7978
vn 0.9989 0.0000 0.0469
vn 0.2620 0.0000 -0.9651
vn 0.9991 0.0000 -0.0420
vn 0.9505 0.0000 -0.3107
vn 0.2244 0.0000 0.9745
vn -0.0645 0.0000 -0.9979
vn -0.1339 0.0000 0.9910
vn 0.9940 0.0000 -0.1097
vn 0.9784 0.0000 0.2065
vn 0.0952 0.0000 0.9955
vn 0.9762 0.0000 -0.2166
vn 0.9956 0.0000 0.0933
vn -0.1615 0.0000 -0.9869
vn -0.2334 0.0000 0.9724
vn 0.1244 0.0000 -0.9922
vn 0.9798 0.0000 -0.2002
vn -0.3129 0.0000 0.9498
vn -0.4079 0.0000 -0.9130
vn -0.0012 0.0000 1.0000
vn -0.1422 0.0000 -0.9898
vn 0.8483 0.0000 0.5295
vn 0.9992 0.0000 0.0410
vn 0.8737 0.0000 -0.4865
vn 0.0000 1.0000 0.0000
usemtl BackMat.001
s off
f 233/1/1 235/2/1 211/3/1
f 233/1/1 209/4/1 199/5/1
f 247/6/2 243/7/2 246/8/2
f 209/4/1 233/1/1 211/3/1
f 246/8/1 239/9/1 249/10/1
f 222/11/1 220/12/1 221/13/1
f 211/3/1 235/2/1 219/14/1
f 246/8/1 236/15/1 239/9/1
f 255/16/1 259/17/1 253/18/1
f 197/19/1 195/20/1 196/21/1
f 238/22/1 241/23/1 240/24/1
f 260/25/1 259/17/1 255/16/1
f 247/6/1 245/26/1 243/7/1
f 225/27/1 237/28/1 232/29/1
f 229/30/1 223/31/1 228/32/1
f 222/11/1 224/33/1 231/34/1
f 199/5/1 201/35/1 197/19/1
f 210/36/1 207/37/1 202/38/1
f 229/30/1 207/37/1 213/39/1
f 229/30/1 213/39/1 223/31/1
f 199/5/1 197/19/1 196/21/1
f 220/12/1 228/32/1 223/31/1
f 210/36/1 202/38/1 203/40/1
f 195/20/1 194/41/1 193/42/1
f 238/22/1 233/1/1 199/5/1
f 193/42/1 194/41/1 188/43/1
f 240/24/1 242/44/1 251/45/1
f 219/14/1 237/28/1 218/46/1
f 193/42/1 189/47/1 190/48/1
f 243/7/1 238/22/1 236/15/1
f 236/15/1 199/5/1 207/37/1
f 193/42/1 188/43/1 189/47/1
f 196/21/1 195/20/1 193/42/1
f 213/39/1 207/37/1 210/36/1
f 218/46/1 215/49/1 216/50/1
f 246/8/1 243/7/1 236/15/1
f 222/11/1 231/34/1 220/12/1
f 254/51/1 253/18/1 259/17/1
f 201/35/1 209/4/1 208/52/1
f 236/15/1 238/22/1 199/5/1
f 253/18/1 245/26/1 247/6/1
f 241/23/1 238/22/1 243/7/1
f 201/35/1 208/52/1 205/53/1
f 245/26/1 253/18/1 254/51/1
f 256/54/1 254/51/1 259/17/1
f 201/35/1 199/5/1 209/4/1
f 231/34/1 224/33/1 226/55/1
f 188/43/1 194/41/1 192/56/1
f 218/46/1 225/27/1 215/49/1
f 240/24/1 241/23/1 242/44/1
f 237/28/1 219/14/1 235/2/1
f 257/57/1 260/25/1 255/16/1
f 228/32/1 220/12/1 231/34/1
f 218/46/1 237/28/1 225/27/1
f 236/15/1 207/37/1 229/30/1
f 21/58/3 22/59/3 79/60/3 78/61/3
f 22/59/4 118/62/4 191/63/4 79/60/4
f 20/64/5 21/58/5 78/61/5 77/65/5
f 23/66/6 24/67/6 81/68/6 80/69/6
f 19/70/7 20/64/7 77/65/7 76/71/7
f 18/72/8 19/70/8 76/71/8 75/73/8
f 24/67/9 25/74/9 82/75/9 81/68/9
f 125/76/10 18/72/10 75/73/10 198/77/10
f 25/74/11 127/78/11 200/79/11 82/75/11
f 16/80/12 17/81/12 74/82/12 73/83/12
f 28/84/13 131/85/13 204/86/13 85/87/13
f 133/88/14 16/80/14 73/83/14 206/89/14
f 27/90/15 28/84/15 85/87/15 84/91/15
f 26/92/16 27/90/16 84/91/16 83/93/16
f 14/94/17 15/95/17 72/96/17 71/97/17
f 13/98/18 14/94/18 71/97/18 70/99/18
f 29/100/19 30/101/19 87/102/19 86/103/19
f 139/104/20 13/98/20 70/99/20 212/105/20
f 30/101/21 141/106/21 214/107/21 87/102/21
f 8/108/22 144/109/22 217/110/22 65/111/22
f 9/112/23 10/113/23 67/114/23 66/115/23
f 10/113/24 11/116/24 68/117/24 67/114/24
f 33/118/25 34/119/25 91/120/25 90/121/25
f 34/119/26 35/122/26 92/123/26 91/120/26
f 32/124/27 33/118/27 90/121/27 89/125/27
f 11/116/28 12/126/28 69/127/28 68/117/28
f 31/128/29 32/124/29 89/125/29 88/129/29
f 35/122/30 36/130/30 93/131/30 92/123/30
f 7/132/31 8/108/31 65/111/31 64/133/31
f 36/130/32 154/134/32 227/135/32 93/131/32
f 39/136/33 157/137/33 230/138/33 96/139/33
f 38/140/34 39/136/34 96/139/34 95/141/34
f 37/142/35 38/140/35 95/141/35 94/143/35
f 6/144/36 7/132/36 64/133/36 63/145/36
f 161/146/37 4/147/37 61/148/37 234/149/37
f 40/150/38 41/151/38 98/152/38 97/153/38
f 5/154/39 6/144/39 63/145/39 62/155/39
f 4/147/40 5/154/40 62/155/40 61/148/40
f 2/156/41 3/157/41 60/158/41 59/159/41
f 41/151/42 42/160/42 99/161/42 98/152/42
f 1/162/43 2/156/43 59/159/43 58/163/43
f 55/164/44 56/165/44 113/166/44 112/167/44
f 171/168/45 55/164/45 112/167/45 244/169/45
f 53/170/46 54/171/46 111/172/46 110/173/46
f 44/174/47 175/175/47 248/176/47 101/177/47
f 177/178/48 44/174/48 101/177/48 250/179/48
f 42/160/49 43/180/49 100/181/49 99/161/49
f 179/182/50 1/162/50 58/163/50 252/183/50
f 45/184/51 46/185/51 103/186/51 102/187/51
f 56/165/52 57/188/52 114/189/52 113/166/52
f 52/190/53 53/170/53 110/173/53 109/191/53
f 46/185/54 47/192/54 104/193/54 103/186/54
f 51/194/55 52/190/55 109/191/55 108/195/55
f 47/192/56 185/196/56 258/197/56 104/193/56
f 50/198/57 51/194/57 108/195/57 107/199/57
f 49/200/58 50/198/58 107/199/58 106/201/58
f 48/202/59 49/200/59 106/201/59 105/203/59
usemtl FrontMat.001
f 160/204/60 138/205/60 162/206/60
f 160/204/60 126/207/60 136/208/60
f 174/209/60 173/210/60 170/211/60
f 136/208/60 138/205/60 160/204/60
f 173/210/60 176/212/60 166/213/60
f 149/214/60 148/215/60 147/216/60
f 138/205/60 146/217/60 162/206/60
f 173/210/60 166/213/60 163/218/60
f 182/219/60 180/220/60 186/221/60
f 124/222/60 123/223/60 122/224/60
f 165/225/60 167/226/60 168/227/60
f 187/228/60 182/219/60 186/221/60
f 174/209/60 170/211/60 172/229/60
f 152/230/60 159/231/60 164/232/60
f 156/233/60 155/234/60 150/235/60
f 149/214/60 158/236/60 151/237/60
f 126/207/60 124/222/60 128/238/60
f 137/239/60 129/240/60 134/241/60
f 156/233/60 140/242/60 134/241/60
f 156/233/60 150/235/60 140/242/60
f 126/207/60 123/223/60 124/222/60
f 147/216/60 150/235/60 155/234/60
f 137/239/60 130/243/60 129/240/60
f 122/224/60 120/244/60 121/245/60
f 165/225/60 126/207/60 160/204/60
f 120/244/60 115/246/60 121/245/60
f 167/226/60 178/247/60 169/248/60
f 146/217/60 145/249/60 164/232/60
f 120/244/60 117/250/60 116/251/60
f 170/211/60 163/218/60 165/225/60
f 163/218/60 134/241/60 126/207/60
f 120/244/60 116/251/60 115/246/60
f 123/223/60 120/244/60 122/224/60
f 140/242/60 137/239/60 134/241/60
f 145/249/60 143/252/60 142/253/60
f 173/210/60 163/218/60 170/211/60
f 149/214/60 147/216/60 158/236/60
f 181/254/60 186/221/60 180/220/60
f 128/238/60 135/255/60 136/208/60
f 163/218/60 126/207/60 165/225/60
f 180/220/60 174/209/60 172/229/60
f 168/227/60 170/211/60 165/225/60
f 128/238/60 132/256/60 135/255/60
f 172/229/60 181/254/60 180/220/60
f 183/257/60 186/221/60 181/254/60
f 128/238/60 136/208/60 126/207/60
f 158/236/60 153/258/60 151/237/60
f 115/246/60 119/259/60 121/245/60
f 145/249/60 142/253/60 152/230/60
f 167/226/60 169/248/60 168/227/60
f 164/232/60 162/206/60 146/217/60
f 184/260/60 182/219/60 187/228/60
f 155/234/60 158/236/60 147/216/60
f 145/249/60 152/230/60 164/232/60
f 163/218/60 156/233/60 134/241/60
