# Blender v2.83.1 OBJ File: 'jigsaw-96x54-3-step2.blend'
# www.blender.org
mtllib piece.1959.mtl
o path3918
v -0.568800 0.037500 0.207390
v -0.553432 0.037500 0.134018
v -0.499931 0.037500 0.131969
v -0.427715 0.037500 0.159493
v -0.363874 0.037500 0.156734
v -0.331142 0.037500 0.084007
v -0.334768 0.037500 -0.017776
v -0.375647 0.037500 -0.087555
v -0.449316 0.037500 -0.085163
v -0.529922 0.037500 -0.054024
v -0.586269 0.037500 -0.058472
v -0.596350 0.037500 -0.142971
v -0.521322 0.037500 -0.489243
v -0.316402 0.037500 -0.541977
v -0.194862 0.037500 -0.561169
v -0.117952 0.037500 -0.545841
v -0.119112 0.037500 -0.480503
v -0.154104 0.037500 -0.389347
v -0.159283 0.037500 -0.306484
v -0.092041 0.037500 -0.260555
v 0.006140 0.037500 -0.258270
v 0.072739 0.037500 -0.300873
v 0.066654 0.037500 -0.383446
v 0.032413 0.037500 -0.476387
v 0.035955 0.037500 -0.543938
v 0.122768 0.037500 -0.560581
v 0.256508 0.037500 -0.541874
v 0.480377 0.037500 -0.489243
v 0.444632 0.037500 -0.267677
v 0.435343 0.037500 -0.135555
v 0.456554 0.037500 -0.050320
v 0.520205 0.037500 -0.047932
v 0.602695 0.037500 -0.082417
v 0.671524 0.037500 -0.087315
v 0.700865 0.037500 -0.017838
v 0.691570 0.037500 0.084164
v 0.651159 0.037500 0.155178
v 0.589231 0.037500 0.152832
v 0.523682 0.037500 0.119347
v 0.474487 0.037500 0.118080
v 0.455896 0.037500 0.193192
v 0.480377 0.037500 0.512669
v 0.255274 0.037500 0.539169
v 0.120850 0.037500 0.542503
v 0.033709 0.037500 0.516460
v 0.030472 0.037500 0.450256
v 0.065611 0.037500 0.365498
v 0.073065 0.037500 0.291912
v 0.008080 0.037500 0.254108
v -0.088886 0.037500 0.256115
v -0.156063 0.037500 0.296825
v -0.152382 0.037500 0.370647
v -0.119579 0.037500 0.453827
v -0.120092 0.037500 0.518082
v -0.197273 0.037500 0.542946
v -0.318113 0.037500 0.539165
v -0.521322 0.037500 0.512669
v -0.568800 -0.037498 0.207390
v -0.553432 -0.037500 0.134018
v -0.499931 -0.037500 0.131969
v -0.427715 -0.037500 0.159493
v -0.363874 -0.037500 0.156734
v -0.331142 -0.037500 0.084007
v -0.334768 -0.037498 -0.017776
v -0.375647 -0.037500 -0.087555
v -0.449316 -0.037500 -0.085163
v -0.529922 -0.037500 -0.054024
v -0.586269 -0.037500 -0.058472
v -0.596350 -0.037500 -0.142971
v -0.521322 -0.037500 -0.489243
v -0.316402 -0.037500 -0.541977
v -0.194862 -0.037498 -0.561169
v -0.117952 -0.037500 -0.545841
v -0.119112 -0.037500 -0.480503
v -0.154104 -0.037498 -0.389347
v -0.159283 -0.037500 -0.306484
v -0.092041 -0.037498 -0.260555
v 0.006140 -0.037500 -0.258270
v 0.072739 -0.037500 -0.300873
v 0.066654 -0.037500 -0.383446
v 0.032413 -0.037500 -0.476387
v 0.035955 -0.037500 -0.543938
v 0.122768 -0.037500 -0.560581
v 0.256508 -0.037500 -0.541874
v 0.480377 -0.037500 -0.489243
v 0.444632 -0.037498 -0.267677
v 0.435343 -0.037500 -0.135555
v 0.456554 -0.037500 -0.050320
v 0.520205 -0.037500 -0.047932
v 0.602695 -0.037500 -0.082417
v 0.671524 -0.037498 -0.087315
v 0.700865 -0.037500 -0.017838
v 0.691570 -0.037500 0.084164
v 0.651159 -0.037500 0.155178
v 0.589231 -0.037500 0.152832
v 0.523682 -0.037500 0.119347
v 0.474487 -0.037500 0.118080
v 0.455896 -0.037498 0.193192
v 0.480377 -0.037500 0.512669
v 0.255274 -0.037500 0.539169
v 0.120850 -0.037500 0.542503
v 0.033709 -0.037500 0.516460
v 0.030472 -0.037500 0.450256
v 0.065611 -0.037498 0.365498
v 0.073065 -0.037500 0.291912
v 0.008080 -0.037500 0.254108
v -0.088886 -0.037500 0.256115
v -0.156063 -0.037500 0.296825
v -0.152382 -0.037498 0.370647
v -0.119579 -0.037500 0.453827
v -0.120092 -0.037498 0.518082
v -0.197273 -0.037500 0.542946
v -0.318113 -0.037500 0.539165
v -0.521322 -0.037500 0.512669
v -0.586269 0.037500 -0.058472
v -0.586269 0.037500 -0.058472
v -0.596350 0.037500 -0.142971
v -0.529922 0.037500 -0.054024
v -0.568800 0.037500 0.207390
v -0.553432 0.037500 0.134018
v -0.553432 0.037500 0.134018
v -0.499931 0.037500 0.131969
v -0.449316 0.037500 -0.085163
v -0.521322 0.037500 -0.489243
v -0.521322 0.037500 -0.489243
v -0.521322 0.037500 0.512669
v -0.521322 0.037500 0.512669
v -0.427715 0.037500 0.159493
v -0.375647 0.037500 -0.087555
v -0.375647 0.037500 -0.087555
v -0.318113 0.037500 0.539165
v -0.316402 0.037500 -0.541977
v -0.363874 0.037500 0.156734
v -0.363874 0.037500 0.156734
v -0.334768 0.037500 -0.017776
v -0.331142 0.037500 0.084007
v -0.197273 0.037500 0.542946
v -0.194862 0.037500 -0.561169
v -0.120092 0.037500 0.518082
v -0.120092 0.037500 0.518082
v -0.156063 0.037500 0.296825
v -0.156063 0.037500 0.296825
v -0.152382 0.037500 0.370647
v -0.154104 0.037500 -0.389347
v -0.159283 0.037500 -0.306484
v -0.117952 0.037500 -0.545841
v -0.117952 0.037500 -0.545841
v -0.092041 0.037500 -0.260555
v -0.088886 0.037500 0.256115
v -0.119112 0.037500 -0.480503
v -0.119579 0.037500 0.453827
v 0.006140 0.037500 -0.258270
v 0.008080 0.037500 0.254108
v 0.072739 0.037500 -0.300873
v 0.072739 0.037500 -0.300873
v 0.073065 0.037500 0.291912
v 0.073065 0.037500 0.291912
v 0.033709 0.037500 0.516460
v 0.033709 0.037500 0.516460
v 0.030472 0.037500 0.450256
v 0.065611 0.037500 0.365498
v 0.066654 0.037500 -0.383446
v 0.032413 0.037500 -0.476387
v 0.035955 0.037500 -0.543938
v 0.035955 0.037500 -0.543938
v 0.120850 0.037500 0.542503
v 0.122768 0.037500 -0.560581
v 0.255274 0.037500 0.539169
v 0.256508 0.037500 -0.541874
v 0.480377 0.037500 0.512669
v 0.480377 0.037500 0.512669
v 0.435343 0.037500 -0.135555
v 0.456554 0.037500 -0.050320
v 0.456554 0.037500 -0.050320
v 0.444632 0.037500 -0.267677
v 0.480377 0.037500 -0.489243
v 0.480377 0.037500 -0.489243
v 0.474487 0.037500 0.118080
v 0.474487 0.037500 0.118080
v 0.455896 0.037500 0.193192
v 0.520205 0.037500 -0.047932
v 0.523682 0.037500 0.119347
v 0.602695 0.037500 -0.082417
v 0.589231 0.037500 0.152832
v 0.651159 0.037500 0.155178
v 0.651159 0.037500 0.155178
v 0.671524 0.037500 -0.087315
v 0.671524 0.037500 -0.087315
v 0.691570 0.037500 0.084164
v 0.700865 0.037500 -0.017838
v -0.586269 -0.037500 -0.058472
v -0.586269 -0.037500 -0.058472
v -0.596350 -0.037500 -0.142971
v -0.529922 -0.037500 -0.054024
v -0.568800 -0.037498 0.207390
v -0.553432 -0.037500 0.134018
v -0.553432 -0.037500 0.134018
v -0.499931 -0.037500 0.131969
v -0.449316 -0.037500 -0.085163
v -0.521322 -0.037500 -0.489243
v -0.521322 -0.037500 -0.489243
v -0.521322 -0.037500 0.512669
v -0.521322 -0.037500 0.512669
v -0.427715 -0.037500 0.159493
v -0.375647 -0.037500 -0.087555
v -0.375647 -0.037500 -0.087555
v -0.318113 -0.037500 0.539165
v -0.316402 -0.037500 -0.541977
v -0.363874 -0.037500 0.156734
v -0.363874 -0.037500 0.156734
v -0.334768 -0.037498 -0.017776
v -0.331142 -0.037500 0.084007
v -0.197273 -0.037500 0.542946
v -0.194862 -0.037498 -0.561169
v -0.120092 -0.037498 0.518082
v -0.120092 -0.037498 0.518082
v -0.156063 -0.037500 0.296825
v -0.156063 -0.037500 0.296825
v -0.152382 -0.037498 0.370647
v -0.154104 -0.037498 -0.389347
v -0.159283 -0.037500 -0.306484
v -0.117952 -0.037500 -0.545841
v -0.117952 -0.037500 -0.545841
v -0.092041 -0.037498 -0.260555
v -0.088886 -0.037500 0.256115
v -0.119112 -0.037500 -0.480503
v -0.119579 -0.037500 0.453827
v 0.006140 -0.037500 -0.258270
v 0.008080 -0.037500 0.254108
v 0.072739 -0.037500 -0.300873
v 0.072739 -0.037500 -0.300873
v 0.073065 -0.037500 0.291912
v 0.073065 -0.037500 0.291912
v 0.033709 -0.037500 0.516460
v 0.033709 -0.037500 0.516460
v 0.030472 -0.037500 0.450256
v 0.065611 -0.037498 0.365498
v 0.066654 -0.037500 -0.383446
v 0.032413 -0.037500 -0.476387
v 0.035955 -0.037500 -0.543938
v 0.035955 -0.037500 -0.543938
v 0.120850 -0.037500 0.542503
v 0.122768 -0.037500 -0.560581
v 0.255274 -0.037500 0.539169
v 0.256508 -0.037500 -0.541874
v 0.480377 -0.037500 0.512669
v 0.480377 -0.037500 0.512669
v 0.435343 -0.037500 -0.135555
v 0.456554 -0.037500 -0.050320
v 0.456554 -0.037500 -0.050320
v 0.444632 -0.037498 -0.267677
v 0.480377 -0.037500 -0.489243
v 0.480377 -0.037500 -0.489243
v 0.474487 -0.037500 0.118080
v 0.474487 -0.037500 0.118080
v 0.455896 -0.037498 0.193192
v 0.520205 -0.037500 -0.047932
v 0.523682 -0.037500 0.119347
v 0.602695 -0.037500 -0.082417
v 0.589231 -0.037500 0.152832
v 0.651159 -0.037500 0.155178
v 0.651159 -0.037500 0.155178
v 0.671524 -0.037498 -0.087315
v 0.671524 -0.037498 -0.087315
v 0.691570 -0.037500 0.084164
v 0.700865 -0.037500 -0.017838
vt 0.500000 0.500000
vt 0.500000 0.500000
vt 0.500000 0.500000
vt 0.500000 0.500000
vt 0.500000 0.500000
vt 0.500000 0.500000
vt 0.500000 0.500000
vt 0.500000 0.500000
vt 0.500000 0.500000
vt 0.500000 0.500000
vt 0.500000 0.500000
vt 0.500000 0.500000
vt 0.500000 0.500000
vt 0.500000 0.500000
vt 0.500000 0.500000
vt 0.500000 0.500000
vt 0.500000 0.500000
vt 0.500000 0.500000
vt 0.500000 0.500000
vt 0.500000 0.500000
vt 0.500000 0.500000
vt 0.500000 0.500000
vt 0.500000 0.500000
vt 0.500000 0.500000
vt 0.500000 0.500000
vt 0.500000 0.500000
vt 0.500000 0.500000
vt 0.500000 0.500000
vt 0.500000 0.500000
vt 0.500000 0.500000
vt 0.500000 0.500000
vt 0.500000 0.500000
vt 0.500000 0.500000
vt 0.500000 0.500000
vt 0.500000 0.500000
vt 0.500000 0.500000
vt 0.500000 0.500000
vt 0.500000 0.500000
vt 0.500000 0.500000
vt 0.500000 0.500000
vt 0.500000 0.500000
vt 0.500000 0.500000
vt 0.500000 0.500000
vt 0.500000 0.500000
vt 0.500000 0.500000
vt 0.500000 0.500000
vt 0.500000 0.500000
vt 0.500000 0.500000
vt 0.500000 0.500000
vt 0.500000 0.500000
vt 0.500000 0.500000
vt 0.500000 0.500000
vt 0.500000 0.500000
vt 0.500000 0.500000
vt 0.500000 0.500000
vt 0.500000 0.500000
vt 0.500000 0.500000
vt 0.500000 0.500000
vt 0.500000 0.500000
vt 0.500000 0.500000
vt 0.500000 0.500000
vt 0.500000 0.500000
vt 0.500000 0.500000
vt 0.500000 0.500000
vt 0.500000 0.500000
vt 0.500000 0.500000
vt 0.500000 0.500000
vt 0.500000 0.500000
vt 0.500000 0.500000
vt 0.500000 0.500000
vt 0.500000 0.500000
vt 0.500000 0.500000
vt 0.500000 0.500000
vt 0.500000 0.500000
vt 0.500000 0.500000
vt 0.500000 0.500000
vt 0.500000 0.500000
vt 0.500000 0.500000
vt 0.500000 0.500000
vt 0.500000 0.500000
vt 0.500000 0.500000
vt 0.500000 0.500000
vt 0.500000 0.500000
vt 0.500000 0.500000
vt 0.500000 0.500000
vt 0.500000 0.500000
vt 0.500000 0.500000
vt 0.500000 0.500000
vt 0.500000 0.500000
vt 0.500000 0.500000
vt 0.500000 0.500000
vt 0.500000 0.500000
vt 0.500000 0.500000
vt 0.500000 0.500000
vt 0.500000 0.500000
vt 0.500000 0.500000
vt 0.500000 0.500000
vt 0.500000 0.500000
vt 0.500000 0.500000
vt 0.500000 0.500000
vt 0.500000 0.500000
vt 0.500000 0.500000
vt 0.500000 0.500000
vt 0.500000 0.500000
vt 0.500000 0.500000
vt 0.500000 0.500000
vt 0.500000 0.500000
vt 0.500000 0.500000
vt 0.500000 0.500000
vt 0.500000 0.500000
vt 0.500000 0.500000
vt 0.500000 0.500000
vt 0.500000 0.500000
vt 0.500000 0.500000
vt 0.500000 0.500000
vt 0.500000 0.500000
vt 0.500000 0.500000
vt 0.500000 0.500000
vt 0.500000 0.500000
vt 0.500000 0.500000
vt 0.500000 0.500000
vt 0.500000 0.500000
vt 0.500000 0.500000
vt 0.500000 0.500000
vt 0.500000 0.500000
vt 0.500000 0.500000
vt 0.500000 0.500000
vt 0.500000 0.500000
vt 0.500000 0.500000
vt 0.500000 0.500000
vt 0.500000 0.500000
vt 0.500000 0.500000
vt 0.500000 0.500000
vt 0.500000 0.500000
vt 0.500000 0.500000
vt 0.500000 0.500000
vt 0.500000 0.500000
vt 0.500000 0.500000
vt 0.500000 0.500000
vt 0.500000 0.500000
vt 0.500000 0.500000
vt 0.500000 0.500000
vt 0.500000 0.500000
vt 0.500000 0.500000
vt 0.500000 0.500000
vt 0.500000 0.500000
vt 0.500000 0.500000
vt 0.500000 0.500000
vt 0.500000 0.500000
vt 0.500000 0.500000
vt 0.500000 0.500000
vt 0.500000 0.500000
vt 0.500000 0.500000
vt 0.500000 0.500000
vt 0.500000 0.500000
vt 0.500000 0.500000
vt 0.500000 0.500000
vt 0.500000 0.500000
vt 0.500000 0.500000
vt 0.500000 0.500000
vt 0.500000 0.500000
vt 0.500000 0.500000
vt 0.500000 0.500000
vt 0.500000 0.500000
vt 0.500000 0.500000
vt 0.500000 0.500000
vt 0.500000 0.500000
vt 0.500000 0.500000
vt 0.500000 0.500000
vt 0.500000 0.500000
vt 0.500000 0.500000
vt 0.500000 0.500000
vt 0.500000 0.500000
vt 0.500000 0.500000
vt 0.500000 0.500000
vt 0.500000 0.500000
vt 0.500000 0.500000
vt 0.500000 0.500000
vt 0.500000 0.500000
vt 0.500000 0.500000
vt 0.500000 0.500000
vt 0.500000 0.500000
vt 0.500000 0.500000
vt 0.500000 0.500000
vt 0.500000 0.500000
vt 0.500000 0.500000
vt 0.500000 0.500000
vt 0.500000 0.500000
vt 0.500000 0.500000
vt 0.500000 0.500000
vt 0.500000 0.500000
vt 0.500000 0.500000
vt 0.500000 0.500000
vt 0.500000 0.500000
vt 0.500000 0.500000
vt 0.500000 0.500000
vt 0.500000 0.500000
vt 0.500000 0.500000
vt 0.500000 0.500000
vt 0.500000 0.500000
vt 0.500000 0.500000
vt 0.500000 0.500000
vt 0.500000 0.500000
vt 0.500000 0.500000
vt 0.500000 0.500000
vt 0.500000 0.500000
vt 0.500000 0.500000
vt 0.500000 0.500000
vt 0.500000 0.500000
vt 0.398129 0.618641
vt 0.399936 0.611220
vt 0.401687 0.611552
vt 0.406798 0.625841
vt 0.406250 0.629630
vt 0.404350 0.622937
vt 0.397363 0.618779
vt 0.395523 0.617758
vt 0.395558 0.615273
vt 0.406116 0.619393
vt 0.405150 0.618760
vt 0.406992 0.617722
vt 0.402074 0.626936
vt 0.398522 0.619843
vt 0.395558 0.625873
vt 0.395519 0.623639
vt 0.397310 0.622809
vt 0.403849 0.619878
vt 0.402573 0.611944
vt 0.402071 0.607577
vt 0.402020 0.608850
vt 0.401349 0.607035
vt 0.400290 0.626114
vt 0.399534 0.626719
vt 0.398077 0.622877
vt 0.403872 0.621693
vt 0.398501 0.621635
vt 0.401771 0.630830
vt 0.401725 0.629789
vt 0.402650 0.631017
vt 0.399574 0.609099
vt 0.399550 0.607954
vt 0.400288 0.607207
vt 0.399155 0.611564
vt 0.406838 0.622172
vt 0.406998 0.623594
vt 0.406159 0.622194
vt 0.401348 0.626181
vt 0.402049 0.628298
vt 0.395833 0.629630
vt 0.399505 0.627899
vt 0.399923 0.610311
vt 0.401662 0.610375
vt 0.399770 0.630223
vt 0.399007 0.630507
vt 0.399791 0.629234
vt 0.403946 0.611772
vt 0.406797 0.615250
vt 0.404292 0.618647
vt 0.395833 0.611111
vt 0.395777 0.622212
vt 0.396445 0.622203
vt 0.396482 0.619429
vt 0.405211 0.622841
vt 0.395794 0.619369
vt 0.406819 0.619327
vt 0.406250 0.611111
vn 0.0000 -1.0000 -0.0000
vn -0.9930 0.0000 0.1185
vn -0.0787 0.0000 0.9969
vn -0.9788 0.0000 -0.2050
vn -0.0383 0.0000 -0.9993
vn 0.3604 0.0000 0.9328
vn -0.9773 0.0000 -0.2118
vn -0.9881 0.0000 0.1537
vn 0.3561 0.0000 -0.9344
vn 0.0324 0.0000 0.9995
vn -0.1293 0.0000 0.9916
vn -0.2492 0.0000 -0.9684
vn -0.0432 0.0000 -0.9991
vn -0.8628 0.0000 0.5055
vn -0.9119 0.0000 -0.4104
vn -0.9994 0.0000 0.0356
vn -0.0313 0.0000 0.9995
vn -0.1560 0.0000 -0.9878
vn 0.3066 0.0000 0.9518
vn 0.9988 0.0000 -0.0498
vn 0.9981 0.0000 0.0624
vn 0.1954 0.0000 -0.9807
vn 0.5640 0.0000 -0.8258
vn 0.5183 0.0000 0.8552
vn 0.9336 0.0000 0.3584
vn 0.9998 0.0000 0.0177
vn 1.0000 0.0000 0.0080
vn 0.9303 0.0000 -0.3669
vn 0.0233 0.0000 -0.9997
vn 0.0207 0.0000 0.9998
vn -0.5389 0.0000 -0.8424
vn -0.5028 0.0000 0.8644
vn -0.9988 0.0000 0.0488
vn -0.9238 0.0000 -0.3830
vn -0.9383 0.0000 0.3457
vn -0.9986 0.0000 -0.0524
vn -0.2863 0.0000 0.9581
vn -0.1883 0.0000 -0.9821
vn -0.9949 0.0000 -0.1008
vn -0.9973 0.0000 0.0735
vn 0.0248 0.0000 0.9997
vn 0.1385 0.0000 -0.9904
vn 0.1169 0.0000 0.9931
vn 0.9704 0.0000 -0.2415
vn 0.9975 0.0000 0.0701
vn 0.9872 0.0000 0.1593
vn 0.2289 0.0000 -0.9735
vn 0.9707 0.0000 0.2403
vn 0.0375 0.0000 -0.9993
vn 0.9971 0.0000 -0.0764
vn -0.0257 0.0000 0.9997
vn -0.3857 0.0000 -0.9226
vn -0.4549 0.0000 0.8905
vn -0.0379 0.0000 0.9993
vn -0.0710 0.0000 -0.9975
vn 0.8691 0.0000 0.4946
vn 0.9959 0.0000 0.0907
vn 0.9212 0.0000 -0.3890
vn 0.0000 1.0000 -0.0000
usemtl BackMat.001
s off
f 232/1/1 249/2/1 254/3/1
f 208/4/1 221/5/1 200/6/1
f 237/7/1 244/8/1 242/9/1
f 239/10/1 243/11/1 238/12/1
f 200/6/1 221/5/1 205/13/1
f 229/14/1 249/2/1 232/1/1
f 207/15/1 219/16/1 213/17/1
f 228/18/1 248/19/1 249/2/1
f 263/20/1 266/21/1 259/22/1
f 212/23/1 217/24/1 209/25/1
f 224/26/1 228/18/1 225/27/1
f 191/28/1 193/29/1 194/30/1
f 260/31/1 265/32/1 261/33/1
f 244/8/1 232/1/1 256/34/1
f 222/35/1 226/36/1 214/37/1
f 266/21/1 265/32/1 259/22/1
f 232/1/1 244/8/1 237/7/1
f 228/18/1 249/2/1 229/14/1
f 232/1/1 254/3/1 256/34/1
f 211/38/1 224/26/1 225/27/1
f 200/6/1 205/13/1 199/39/1
f 202/40/1 204/41/1 207/15/1
f 219/16/1 209/25/1 217/24/1
f 200/6/1 199/39/1 193/29/1
f 225/27/1 228/18/1 229/14/1
f 254/3/1 257/42/1 258/43/1
f 211/38/1 225/27/1 212/23/1
f 196/44/1 198/45/1 195/46/1
f 258/43/1 257/42/1 265/32/1
f 251/47/1 230/48/1 245/49/1
f 207/15/1 209/25/1 219/16/1
f 205/13/1 224/26/1 211/38/1
f 204/41/1 195/46/1 198/45/1
f 259/22/1 265/32/1 257/42/1
f 248/19/1 230/48/1 251/47/1
f 244/8/1 256/34/1 246/50/1
f 258/43/1 265/32/1 260/31/1
f 195/46/1 204/41/1 202/40/1
f 213/17/1 227/51/1 215/52/1
f 230/48/1 248/19/1 228/18/1
f 238/12/1 245/49/1 230/48/1
f 245/49/1 238/12/1 243/11/1
f 221/5/1 224/26/1 205/13/1
f 237/7/1 242/9/1 236/53/1
f 214/37/1 220/54/1 208/4/1
f 217/24/1 212/23/1 225/27/1
f 221/5/1 208/4/1 220/54/1
f 236/53/1 242/9/1 234/55/1
f 240/56/1 243/11/1 239/10/1
f 213/17/1 219/16/1 227/51/1
f 249/2/1 257/42/1 254/3/1
f 251/47/1 245/49/1 252/57/1
f 194/30/1 193/29/1 199/39/1
f 220/54/1 214/37/1 226/36/1
f 207/15/1 204/41/1 209/25/1
f 116/58/2 12/59/2 69/60/2 192/61/2
f 10/62/3 11/63/3 68/64/3 67/65/3
f 1/66/4 121/67/4 197/68/4 58/69/4
f 2/70/5 3/71/5 60/72/5 59/73/5
f 9/74/6 10/62/6 67/65/6 66/75/6
f 12/59/7 125/76/7 201/77/7 69/60/7
f 127/78/8 1/66/8 58/69/8 203/79/8
f 3/71/9 4/80/9 61/81/9 60/72/9
f 130/82/10 9/74/10 66/75/10 206/83/10
f 56/84/11 57/85/11 114/86/11 113/87/11
f 13/88/12 14/89/12 71/90/12 70/91/12
f 4/80/13 134/92/13 210/93/13 61/81/13
f 7/94/14 8/95/14 65/96/14 64/97/14
f 5/98/15 6/99/15 63/100/15 62/101/15
f 6/99/16 7/94/16 64/97/16 63/100/16
f 55/102/17 56/84/17 113/87/17 112/103/17
f 14/89/18 15/104/18 72/105/18 71/90/18
f 140/106/19 55/102/19 112/103/19 216/107/19
f 142/108/20 52/109/20 109/110/20 218/111/20
f 18/112/21 19/113/21 76/114/21 75/115/21
f 15/104/22 147/116/22 223/117/22 72/105/22
f 19/113/23 20/118/23 77/119/23 76/114/23
f 50/120/24 51/121/24 108/122/24 107/123/24
f 17/124/25 18/112/25 75/115/25 74/125/25
f 16/126/26 17/124/26 74/125/26 73/127/26
f 53/128/27 54/129/27 111/130/27 110/131/27
f 52/109/28 53/128/28 110/131/28 109/110/28
f 20/118/29 21/132/29 78/133/29 77/119/29
f 49/134/30 50/120/30 107/123/30 106/135/30
f 21/132/31 155/136/31 231/137/31 78/133/31
f 157/138/32 49/134/32 106/135/32 233/139/32
f 159/140/33 46/141/33 103/142/33 235/143/33
f 46/141/34 47/144/34 104/145/34 103/142/34
f 23/146/35 24/147/35 81/148/35 80/149/35
f 24/147/36 165/150/36 241/151/36 81/148/36
f 44/152/37 45/153/37 102/154/37 101/155/37
f 25/156/38 26/157/38 83/158/38 82/159/38
f 47/144/39 48/160/39 105/161/39 104/145/39
f 22/162/40 23/146/40 80/149/40 79/163/40
f 43/164/41 44/152/41 101/155/41 100/165/41
f 26/157/42 27/166/42 84/167/42 83/158/42
f 171/168/43 43/164/43 100/165/43 247/169/43
f 30/170/44 174/171/44 250/172/44 87/173/44
f 29/174/45 30/170/45 87/173/45 86/175/45
f 177/176/46 29/174/46 86/175/46 253/177/46
f 27/166/47 28/178/47 85/179/47 84/167/47
f 179/180/48 41/181/48 98/182/48 255/183/48
f 31/184/49 32/185/49 89/186/49 88/187/49
f 41/181/50 42/188/50 99/189/50 98/182/50
f 39/190/51 40/191/51 97/192/51 96/193/51
f 32/185/52 33/194/52 90/195/52 89/186/52
f 38/196/53 39/190/53 96/193/53 95/197/53
f 186/198/54 38/196/54 95/197/54 262/199/54
f 33/194/55 188/200/55 264/201/55 90/195/55
f 36/202/56 37/203/56 94/204/56 93/205/56
f 35/206/57 36/202/57 93/205/57 92/207/57
f 34/208/58 35/206/58 92/207/58 91/209/58
usemtl FrontMat.001
f 156/210/59 178/211/59 173/212/59
f 132/213/59 124/214/59 145/215/59
f 161/216/59 166/217/59 168/218/59
f 163/219/59 162/220/59 167/221/59
f 124/214/59 129/222/59 145/215/59
f 153/223/59 156/210/59 173/212/59
f 131/224/59 137/225/59 143/226/59
f 152/227/59 173/212/59 172/228/59
f 187/229/59 183/230/59 190/231/59
f 136/232/59 133/233/59 141/234/59
f 148/235/59 149/236/59 152/227/59
f 115/237/59 118/238/59 117/239/59
f 184/240/59 185/241/59 189/242/59
f 168/218/59 180/243/59 156/210/59
f 146/244/59 138/245/59 150/246/59
f 190/231/59 183/230/59 189/242/59
f 156/210/59 161/216/59 168/218/59
f 152/227/59 153/223/59 173/212/59
f 156/210/59 180/243/59 178/211/59
f 135/247/59 149/236/59 148/235/59
f 124/214/59 123/248/59 129/222/59
f 126/249/59 131/224/59 128/250/59
f 143/226/59 141/234/59 133/233/59
f 124/214/59 117/239/59 123/248/59
f 149/236/59 153/223/59 152/227/59
f 178/211/59 182/251/59 181/252/59
f 135/247/59 136/232/59 149/236/59
f 120/253/59 119/254/59 122/255/59
f 182/251/59 189/242/59 181/252/59
f 175/256/59 169/257/59 154/258/59
f 131/224/59 143/226/59 133/233/59
f 129/222/59 135/247/59 148/235/59
f 128/250/59 122/255/59 119/254/59
f 183/230/59 181/252/59 189/242/59
f 172/228/59 175/256/59 154/258/59
f 168/218/59 170/259/59 180/243/59
f 182/251/59 184/240/59 189/242/59
f 119/254/59 126/249/59 128/250/59
f 137/225/59 139/260/59 151/261/59
f 154/258/59 152/227/59 172/228/59
f 162/220/59 154/258/59 169/257/59
f 169/257/59 167/221/59 162/220/59
f 145/215/59 129/222/59 148/235/59
f 161/216/59 160/262/59 166/217/59
f 138/245/59 132/213/59 144/263/59
f 141/234/59 149/236/59 136/232/59
f 145/215/59 144/263/59 132/213/59
f 160/262/59 158/264/59 166/217/59
f 164/265/59 163/219/59 167/221/59
f 137/225/59 151/261/59 143/226/59
f 173/212/59 178/211/59 181/252/59
f 175/256/59 176/266/59 169/257/59
f 118/238/59 123/248/59 117/239/59
f 144/263/59 150/246/59 138/245/59
f 131/224/59 133/233/59 128/250/59
