# Blender v2.83.1 OBJ File: 'jigsaw-96x54-3-step2.blend'
# www.blender.org
mtllib piece.3689.mtl
o path7378
v 0.566593 0.037500 -0.311630
v 0.581749 0.037500 -0.189159
v 0.565487 0.037500 -0.112637
v 0.503967 0.037500 -0.116024
v 0.418453 0.037500 -0.153656
v 0.339008 0.037500 -0.159954
v 0.291111 0.037500 -0.091076
v 0.281887 0.037500 0.009945
v 0.313892 0.037500 0.078335
v 0.384102 0.037500 0.071400
v 0.467155 0.037500 0.034798
v 0.532120 0.037500 0.036263
v 0.556458 0.037500 0.122608
v 0.551216 0.037500 0.257072
v 0.521885 0.037500 0.482845
v 0.172344 0.037500 0.447174
v 0.086826 0.037500 0.465164
v 0.082058 0.037500 0.518238
v 0.114098 0.037500 0.588425
v 0.119148 0.037500 0.650757
v 0.053997 0.037500 0.684196
v -0.042320 0.037500 0.683472
v -0.110207 0.037500 0.647247
v -0.109985 0.037500 0.579178
v -0.081715 0.037500 0.502789
v -0.085377 0.037500 0.446583
v -0.162571 0.037500 0.430943
v -0.480026 0.037500 0.482845
v -0.427429 0.037500 0.258762
v -0.410267 0.037500 0.124065
v -0.431320 0.037500 0.034740
v -0.506554 0.037500 0.026787
v -0.606697 0.037500 0.056068
v -0.691181 0.037500 0.058411
v -0.727940 0.037500 -0.009396
v -0.718910 0.037500 -0.106739
v -0.674530 0.037500 -0.172066
v -0.607021 0.037500 -0.164677
v -0.535633 0.037500 -0.127335
v -0.481400 0.037500 -0.123688
v -0.459385 0.037500 -0.198002
v -0.480026 0.037500 -0.518852
v -0.281364 0.037500 -0.538151
v -0.164097 0.037500 -0.538441
v -0.091164 0.037500 -0.513332
v -0.095036 0.037500 -0.453796
v -0.131001 0.037500 -0.378010
v -0.135029 0.037500 -0.310966
v -0.064461 0.037500 -0.273903
v 0.037880 0.037500 -0.273029
v 0.107800 0.037500 -0.310802
v 0.103001 0.037500 -0.384228
v 0.068783 0.037500 -0.468472
v 0.072350 0.037500 -0.533257
v 0.160126 0.037500 -0.556652
v 0.295406 0.037500 -0.550182
v 0.521885 0.037500 -0.518852
v 0.566593 -0.037500 -0.311630
v 0.581749 -0.037500 -0.189159
v 0.565487 -0.037498 -0.112637
v 0.503967 -0.037500 -0.116024
v 0.418453 -0.037500 -0.153656
v 0.339008 -0.037500 -0.159954
v 0.291111 -0.037500 -0.091076
v 0.281887 -0.037500 0.009945
v 0.313892 -0.037500 0.078335
v 0.384102 -0.037500 0.071400
v 0.467155 -0.037500 0.034798
v 0.532120 -0.037500 0.036263
v 0.556458 -0.037500 0.122608
v 0.551216 -0.037500 0.257072
v 0.521885 -0.037500 0.482845
v 0.172344 -0.037500 0.447174
v 0.086826 -0.037500 0.465164
v 0.082058 -0.037498 0.518238
v 0.114098 -0.037498 0.588425
v 0.119148 -0.037500 0.650757
v 0.053997 -0.037500 0.684196
v -0.042320 -0.037500 0.683472
v -0.110207 -0.037500 0.647247
v -0.109985 -0.037500 0.579178
v -0.081715 -0.037500 0.502789
v -0.085377 -0.037500 0.446583
v -0.162571 -0.037500 0.430943
v -0.480026 -0.037500 0.482845
v -0.427429 -0.037500 0.258762
v -0.410267 -0.037498 0.124065
v -0.431320 -0.037500 0.034740
v -0.506554 -0.037500 0.026787
v -0.606697 -0.037500 0.056068
v -0.691181 -0.037500 0.058411
v -0.727940 -0.037498 -0.009396
v -0.718910 -0.037498 -0.106739
v -0.674530 -0.037500 -0.172066
v -0.607021 -0.037498 -0.164677
v -0.535633 -0.037500 -0.127335
v -0.481400 -0.037500 -0.123688
v -0.459385 -0.037500 -0.198002
v -0.480026 -0.037500 -0.518852
v -0.281364 -0.037500 -0.538151
v -0.164097 -0.037500 -0.538441
v -0.091164 -0.037500 -0.513332
v -0.095036 -0.037498 -0.453796
v -0.131001 -0.037500 -0.378010
v -0.135029 -0.037500 -0.310966
v -0.064461 -0.037500 -0.273903
v 0.037880 -0.037498 -0.273029
v 0.107800 -0.037500 -0.310802
v 0.103001 -0.037500 -0.384228
v 0.068783 -0.037500 -0.468472
v 0.072350 -0.037500 -0.533257
v 0.160126 -0.037500 -0.556652
v 0.295406 -0.037500 -0.550182
v 0.521885 -0.037500 -0.518852
v 0.072350 0.037500 -0.533257
v 0.072350 0.037500 -0.533257
v 0.160126 0.037500 -0.556652
v 0.295406 0.037500 -0.550182
v -0.281364 0.037500 -0.538151
v -0.164097 0.037500 -0.538441
v -0.091164 0.037500 -0.513332
v -0.091164 0.037500 -0.513332
v 0.068783 0.037500 -0.468472
v -0.480026 0.037500 -0.518852
v -0.480026 0.037500 -0.518852
v 0.521885 0.037500 -0.518852
v 0.521885 0.037500 -0.518852
v -0.095036 0.037500 -0.453796
v 0.103001 0.037500 -0.384228
v -0.131001 0.037500 -0.378010
v 0.566593 0.037500 -0.311630
v 0.107800 0.037500 -0.310802
v 0.107800 0.037500 -0.310802
v -0.135029 0.037500 -0.310966
v -0.135029 0.037500 -0.310966
v -0.459385 0.037500 -0.198002
v 0.581749 0.037500 -0.189159
v -0.064461 0.037500 -0.273903
v 0.037880 0.037500 -0.273029
v -0.481400 0.037500 -0.123688
v -0.481400 0.037500 -0.123688
v 0.418453 0.037500 -0.153656
v 0.339008 0.037500 -0.159954
v 0.565487 0.037500 -0.112637
v 0.565487 0.037500 -0.112637
v -0.718910 0.037500 -0.106739
v -0.674530 0.037500 -0.172066
v -0.674530 0.037500 -0.172066
v -0.607021 0.037500 -0.164677
v -0.535633 0.037500 -0.127335
v 0.291111 0.037500 -0.091076
v 0.503967 0.037500 -0.116024
v -0.727940 0.037500 -0.009396
v 0.281887 0.037500 0.009945
v -0.691181 0.037500 0.058411
v -0.691181 0.037500 0.058411
v 0.313892 0.037500 0.078335
v 0.313892 0.037500 0.078335
v -0.606697 0.037500 0.056068
v -0.506554 0.037500 0.026787
v -0.431320 0.037500 0.034740
v -0.431320 0.037500 0.034740
v -0.410267 0.037500 0.124065
v 0.384102 0.037500 0.071400
v 0.467155 0.037500 0.034798
v 0.532120 0.037500 0.036263
v 0.532120 0.037500 0.036263
v 0.556458 0.037500 0.122608
v 0.551216 0.037500 0.257072
v -0.427429 0.037500 0.258762
v -0.480026 0.037500 0.482845
v -0.480026 0.037500 0.482845
v -0.162571 0.037500 0.430943
v -0.085377 0.037500 0.446583
v -0.085377 0.037500 0.446583
v -0.081715 0.037500 0.502789
v 0.172344 0.037500 0.447174
v 0.086826 0.037500 0.465164
v 0.086826 0.037500 0.465164
v 0.521885 0.037500 0.482845
v 0.521885 0.037500 0.482845
v 0.082058 0.037500 0.518238
v -0.109985 0.037500 0.579178
v 0.114098 0.037500 0.588425
v -0.110207 0.037500 0.647247
v -0.110207 0.037500 0.647247
v 0.119148 0.037500 0.650757
v 0.119148 0.037500 0.650757
v -0.042320 0.037500 0.683472
v 0.053997 0.037500 0.684196
v 0.072350 -0.037500 -0.533257
v 0.072350 -0.037500 -0.533257
v 0.160126 -0.037500 -0.556652
v 0.295406 -0.037500 -0.550182
v -0.281364 -0.037500 -0.538151
v -0.164097 -0.037500 -0.538441
v -0.091164 -0.037500 -0.513332
v -0.091164 -0.037500 -0.513332
v 0.068783 -0.037500 -0.468472
v -0.480026 -0.037500 -0.518852
v -0.480026 -0.037500 -0.518852
v 0.521885 -0.037500 -0.518852
v 0.521885 -0.037500 -0.518852
v -0.095036 -0.037498 -0.453796
v 0.103001 -0.037500 -0.384228
v -0.131001 -0.037500 -0.378010
v 0.566593 -0.037500 -0.311630
v 0.107800 -0.037500 -0.310802
v 0.107800 -0.037500 -0.310802
v -0.135029 -0.037500 -0.310966
v -0.135029 -0.037500 -0.310966
v -0.459385 -0.037500 -0.198002
v 0.581749 -0.037500 -0.189159
v -0.064461 -0.037500 -0.273903
v 0.037880 -0.037498 -0.273029
v -0.481400 -0.037500 -0.123688
v -0.481400 -0.037500 -0.123688
v 0.418453 -0.037500 -0.153656
v 0.339008 -0.037500 -0.159954
v 0.565487 -0.037498 -0.112637
v 0.565487 -0.037498 -0.112637
v -0.718910 -0.037498 -0.106739
v -0.674530 -0.037500 -0.172066
v -0.674530 -0.037500 -0.172066
v -0.607021 -0.037498 -0.164677
v -0.535633 -0.037500 -0.127335
v 0.291111 -0.037500 -0.091076
v 0.503967 -0.037500 -0.116024
v -0.727940 -0.037498 -0.009396
v 0.281887 -0.037500 0.009945
v -0.691181 -0.037500 0.058411
v -0.691181 -0.037500 0.058411
v 0.313892 -0.037500 0.078335
v 0.313892 -0.037500 0.078335
v -0.606697 -0.037500 0.056068
v -0.506554 -0.037500 0.026787
v -0.431320 -0.037500 0.034740
v -0.431320 -0.037500 0.034740
v -0.410267 -0.037498 0.124065
v 0.384102 -0.037500 0.071400
v 0.467155 -0.037500 0.034798
v 0.532120 -0.037500 0.036263
v 0.532120 -0.037500 0.036263
v 0.556458 -0.037500 0.122608
v 0.551216 -0.037500 0.257072
v -0.427429 -0.037500 0.258762
v -0.480026 -0.037500 0.482845
v -0.480026 -0.037500 0.482845
v -0.162571 -0.037500 0.430943
v -0.085377 -0.037500 0.446583
v -0.085377 -0.037500 0.446583
v -0.081715 -0.037500 0.502789
v 0.172344 -0.037500 0.447174
v 0.086826 -0.037500 0.465164
v 0.086826 -0.037500 0.465164
v 0.521885 -0.037500 0.482845
v 0.521885 -0.037500 0.482845
v 0.082058 -0.037498 0.518238
v -0.109985 -0.037500 0.579178
v 0.114098 -0.037498 0.588425
v -0.110207 -0.037500 0.647247
v -0.110207 -0.037500 0.647247
v 0.119148 -0.037500 0.650757
v 0.119148 -0.037500 0.650757
v -0.042320 -0.037500 0.683472
v 0.053997 -0.037500 0.684196
vt 0.500000 0.500000
vt 0.500000 0.500000
vt 0.500000 0.500000
vt 0.500000 0.500000
vt 0.500000 0.500000
vt 0.500000 0.500000
vt 0.500000 0.500000
vt 0.500000 0.500000
vt 0.500000 0.500000
vt 0.500000 0.500000
vt 0.500000 0.500000
vt 0.500000 0.500000
vt 0.500000 0.500000
vt 0.500000 0.500000
vt 0.500000 0.500000
vt 0.500000 0.500000
vt 0.500000 0.500000
vt 0.500000 0.500000
vt 0.500000 0.500000
vt 0.500000 0.500000
vt 0.500000 0.500000
vt 0.500000 0.500000
vt 0.500000 0.500000
vt 0.500000 0.500000
vt 0.500000 0.500000
vt 0.500000 0.500000
vt 0.500000 0.500000
vt 0.500000 0.500000
vt 0.500000 0.500000
vt 0.500000 0.500000
vt 0.500000 0.500000
vt 0.500000 0.500000
vt 0.500000 0.500000
vt 0.500000 0.500000
vt 0.500000 0.500000
vt 0.500000 0.500000
vt 0.500000 0.500000
vt 0.500000 0.500000
vt 0.500000 0.500000
vt 0.500000 0.500000
vt 0.500000 0.500000
vt 0.500000 0.500000
vt 0.500000 0.500000
vt 0.500000 0.500000
vt 0.500000 0.500000
vt 0.500000 0.500000
vt 0.500000 0.500000
vt 0.500000 0.500000
vt 0.500000 0.500000
vt 0.500000 0.500000
vt 0.500000 0.500000
vt 0.500000 0.500000
vt 0.500000 0.500000
vt 0.500000 0.500000
vt 0.500000 0.500000
vt 0.500000 0.500000
vt 0.500000 0.500000
vt 0.500000 0.500000
vt 0.500000 0.500000
vt 0.500000 0.500000
vt 0.500000 0.500000
vt 0.500000 0.500000
vt 0.500000 0.500000
vt 0.500000 0.500000
vt 0.500000 0.500000
vt 0.500000 0.500000
vt 0.500000 0.500000
vt 0.500000 0.500000
vt 0.500000 0.500000
vt 0.500000 0.500000
vt 0.500000 0.500000
vt 0.500000 0.500000
vt 0.500000 0.500000
vt 0.500000 0.500000
vt 0.500000 0.500000
vt 0.500000 0.500000
vt 0.500000 0.500000
vt 0.500000 0.500000
vt 0.500000 0.500000
vt 0.500000 0.500000
vt 0.500000 0.500000
vt 0.500000 0.500000
vt 0.500000 0.500000
vt 0.500000 0.500000
vt 0.500000 0.500000
vt 0.500000 0.500000
vt 0.500000 0.500000
vt 0.500000 0.500000
vt 0.500000 0.500000
vt 0.500000 0.500000
vt 0.500000 0.500000
vt 0.500000 0.500000
vt 0.500000 0.500000
vt 0.500000 0.500000
vt 0.500000 0.500000
vt 0.500000 0.500000
vt 0.500000 0.500000
vt 0.500000 0.500000
vt 0.500000 0.500000
vt 0.500000 0.500000
vt 0.500000 0.500000
vt 0.500000 0.500000
vt 0.500000 0.500000
vt 0.500000 0.500000
vt 0.500000 0.500000
vt 0.500000 0.500000
vt 0.500000 0.500000
vt 0.500000 0.500000
vt 0.500000 0.500000
vt 0.500000 0.500000
vt 0.500000 0.500000
vt 0.500000 0.500000
vt 0.500000 0.500000
vt 0.500000 0.500000
vt 0.500000 0.500000
vt 0.500000 0.500000
vt 0.500000 0.500000
vt 0.500000 0.500000
vt 0.500000 0.500000
vt 0.500000 0.500000
vt 0.500000 0.500000
vt 0.500000 0.500000
vt 0.500000 0.500000
vt 0.500000 0.500000
vt 0.500000 0.500000
vt 0.500000 0.500000
vt 0.500000 0.500000
vt 0.500000 0.500000
vt 0.500000 0.500000
vt 0.500000 0.500000
vt 0.500000 0.500000
vt 0.500000 0.500000
vt 0.500000 0.500000
vt 0.500000 0.500000
vt 0.500000 0.500000
vt 0.500000 0.500000
vt 0.500000 0.500000
vt 0.500000 0.500000
vt 0.500000 0.500000
vt 0.500000 0.500000
vt 0.500000 0.500000
vt 0.500000 0.500000
vt 0.500000 0.500000
vt 0.500000 0.500000
vt 0.500000 0.500000
vt 0.500000 0.500000
vt 0.500000 0.500000
vt 0.500000 0.500000
vt 0.500000 0.500000
vt 0.500000 0.500000
vt 0.500000 0.500000
vt 0.500000 0.500000
vt 0.500000 0.500000
vt 0.500000 0.500000
vt 0.500000 0.500000
vt 0.500000 0.500000
vt 0.500000 0.500000
vt 0.500000 0.500000
vt 0.500000 0.500000
vt 0.500000 0.500000
vt 0.500000 0.500000
vt 0.500000 0.500000
vt 0.500000 0.500000
vt 0.500000 0.500000
vt 0.500000 0.500000
vt 0.500000 0.500000
vt 0.500000 0.500000
vt 0.500000 0.500000
vt 0.500000 0.500000
vt 0.500000 0.500000
vt 0.500000 0.500000
vt 0.500000 0.500000
vt 0.500000 0.500000
vt 0.500000 0.500000
vt 0.500000 0.500000
vt 0.500000 0.500000
vt 0.500000 0.500000
vt 0.500000 0.500000
vt 0.500000 0.500000
vt 0.500000 0.500000
vt 0.500000 0.500000
vt 0.500000 0.500000
vt 0.500000 0.500000
vt 0.500000 0.500000
vt 0.500000 0.500000
vt 0.500000 0.500000
vt 0.500000 0.500000
vt 0.500000 0.500000
vt 0.500000 0.500000
vt 0.500000 0.500000
vt 0.500000 0.500000
vt 0.500000 0.500000
vt 0.500000 0.500000
vt 0.500000 0.500000
vt 0.500000 0.500000
vt 0.500000 0.500000
vt 0.500000 0.500000
vt 0.500000 0.500000
vt 0.500000 0.500000
vt 0.500000 0.500000
vt 0.500000 0.500000
vt 0.500000 0.500000
vt 0.500000 0.500000
vt 0.500000 0.500000
vt 0.500000 0.500000
vt 0.500000 0.500000
vt 0.500000 0.500000
vt 0.500000 0.500000
vt 0.500000 0.500000
vt 0.424588 0.286520
vt 0.419967 0.278737
vt 0.420770 0.278448
vt 0.417213 0.281920
vt 0.416667 0.277778
vt 0.423322 0.296995
vt 0.422373 0.295365
vt 0.422728 0.293808
vt 0.420295 0.293693
vt 0.420669 0.295094
vt 0.419951 0.296658
vt 0.420987 0.291768
vt 0.420254 0.292453
vt 0.417173 0.286062
vt 0.417392 0.284411
vt 0.424729 0.296876
vt 0.422778 0.292450
vt 0.425182 0.289661
vt 0.415346 0.289749
vt 0.414644 0.289885
vt 0.414183 0.288678
vt 0.422896 0.274674
vt 0.422844 0.275826
vt 0.422219 0.274055
vt 0.420514 0.275997
vt 0.421217 0.274069
vt 0.422511 0.277123
vt 0.426008 0.289545
vt 0.427548 0.292465
vt 0.416881 0.290365
vt 0.416652 0.288991
vt 0.418732 0.296653
vt 0.424684 0.288388
vt 0.422051 0.291752
vt 0.426897 0.288849
vt 0.427706 0.290201
vt 0.420808 0.277409
vt 0.422410 0.296563
vt 0.427388 0.281952
vt 0.427443 0.284438
vt 0.425651 0.285384
vt 0.416089 0.289058
vt 0.415350 0.285668
vt 0.422560 0.278105
vt 0.423449 0.278437
vt 0.424921 0.285256
vt 0.416391 0.286209
vt 0.420710 0.296194
vt 0.414089 0.286878
vt 0.414471 0.285624
vt 0.427537 0.288787
vt 0.420512 0.274738
vt 0.426514 0.286061
vt 0.427083 0.277778
vt 0.427190 0.286034
vt 0.427083 0.296296
vt 0.416667 0.296296
vn 0.0000 -1.0000 -0.0000
vn 0.0000 -1.0000 0.0001
vn -0.2575 0.0000 -0.9663
vn 0.0478 0.0000 -0.9989
vn -0.0025 0.0000 -1.0000
vn 0.3255 0.0000 -0.9455
vn -0.9985 0.0000 -0.0550
vn -0.0967 0.0000 -0.9953
vn 0.1370 0.0000 -0.9906
vn 0.9979 0.0000 0.0649
vn -0.9265 0.0000 0.3763
vn 0.9034 0.0000 0.4287
vn 0.9775 0.0000 -0.2109
vn -0.9979 0.0000 0.0652
vn 0.9982 0.0000 0.0600
vn -0.9979 0.0000 0.0642
vn 0.9924 0.0000 -0.1228
vn 0.4650 0.0000 -0.8853
vn -0.4753 0.0000 -0.8798
vn 0.0085 0.0000 -1.0000
vn -0.9588 0.0000 -0.2840
vn -0.0790 0.0000 0.9969
vn 0.9782 0.0000 0.2079
vn -0.8272 0.0000 -0.5619
vn 0.1088 0.0000 -0.9941
vn 0.4635 0.0000 -0.8861
vn 0.8210 0.0000 0.5709
vn -0.4028 0.0000 0.9153
vn -0.0550 0.0000 0.9985
vn 0.0671 0.0000 -0.9977
vn -0.9957 0.0000 -0.0924
vn 0.9959 0.0000 0.0909
vn -0.8791 0.0000 0.4766
vn 0.9057 0.0000 -0.4239
vn 0.0277 0.0000 0.9996
vn 0.2806 0.0000 0.9598
vn -0.1051 0.0000 0.9945
vn -0.9733 0.0000 0.2294
vn -0.4033 0.0000 -0.9151
vn 0.0225 0.0000 -0.9997
vn 0.9625 0.0000 -0.2713
vn -0.0983 0.0000 -0.9952
vn 0.9992 0.0000 0.0390
vn -0.9920 0.0000 -0.1264
vn -0.9735 0.0000 -0.2285
vn 0.1614 0.0000 0.9869
vn -0.1986 0.0000 0.9801
vn -0.9979 0.0000 0.0650
vn 0.2059 0.0000 0.9786
vn -0.1015 0.0000 0.9948
vn 0.9917 0.0000 0.1288
vn 0.9960 0.0000 0.0895
vn -0.9378 0.0000 -0.3471
vn 0.9097 0.0000 -0.4153
vn -1.0000 0.0000 -0.0033
vn 0.9967 0.0000 -0.0808
vn -0.4708 0.0000 0.8823
vn -0.0075 0.0000 1.0000
vn 0.4566 0.0000 0.8897
vn 0.0000 1.0000 0.0000
usemtl BackMat.001
s off
f 230/1/1 250/2/1 249/3/1
f 246/4/1 249/3/1 247/5/1
f 193/6/1 205/7/1 199/8/1
f 206/9/1 196/10/1 204/11/1
f 214/12/1 237/13/1 210/14/1
f 230/1/1 239/15/1 214/12/1
f 194/16/1 219/17/1 208/18/1
f 225/19/2 222/20/2 223/21/2
f 263/22/1 266/23/1 260/24/1
f 259/25/1 258/26/1 265/27/1
f 219/17/1 207/28/1 218/29/1
f 212/30/1 237/13/1 216/31/1
f 196/10/1 206/9/1 195/32/1
f 227/33/1 230/1/1 215/34/1
f 219/17/1 227/33/1 208/18/1
f 218/29/1 213/35/1 228/36/1
f 208/18/1 227/33/1 215/34/1
f 259/25/1 252/37/1 258/26/1
f 193/6/1 199/8/1 191/38/1
f 245/39/1 240/40/1 244/41/1
f 226/42/1 235/43/1 225/19/1
f 254/44/1 233/45/1 253/46/1
f 233/45/1 240/40/1 245/39/1
f 210/14/1 237/13/1 212/30/1
f 237/13/1 236/47/1 216/31/1
f 230/1/1 249/3/1 239/15/1
f 207/28/1 219/17/1 194/16/1
f 233/45/1 250/2/1 230/1/1
f 214/12/1 239/15/1 237/13/1
f 239/15/1 249/3/1 246/4/1
f 204/11/1 196/10/1 197/48/1
f 250/2/1 254/44/1 252/37/1
f 229/49/1 235/43/1 231/50/1
f 236/47/1 235/43/1 226/42/1
f 260/24/1 266/23/1 258/26/1
f 222/20/1 235/43/1 229/49/1
f 220/51/1 228/36/1 213/35/1
f 253/46/1 233/45/1 245/39/1
f 261/52/1 259/25/1 265/27/1
f 254/44/1 250/2/1 233/45/1
f 241/53/1 244/41/1 240/40/1
f 216/31/1 236/47/1 226/42/1
f 195/32/1 210/14/1 212/30/1
f 256/54/1 253/46/1 245/39/1
f 210/14/1 195/32/1 206/9/1
f 242/55/1 244/41/1 241/53/1
f 225/19/1 235/43/1 222/20/1
f 265/27/1 258/26/1 266/23/1
f 202/56/1 207/28/1 194/16/1
f 194/16/1 205/7/1 193/6/1
f 215/34/1 230/1/1 214/12/1
f 213/35/1 218/29/1 207/28/1
f 194/16/1 208/18/1 205/7/1
f 258/26/1 252/37/1 254/44/1
f 195/32/1 212/30/1 200/57/1
f 116/58/3 55/59/3 112/60/3 192/61/3
f 55/59/4 56/62/4 113/63/4 112/60/4
f 43/64/5 44/65/5 101/66/5 100/67/5
f 44/65/6 122/68/6 198/69/6 101/66/6
f 53/70/7 54/71/7 111/72/7 110/73/7
f 125/74/8 43/64/8 100/67/8 201/75/8
f 56/62/9 127/76/9 203/77/9 113/63/9
f 45/78/10 46/79/10 103/80/10 102/81/10
f 52/82/11 53/70/11 110/73/11 109/83/11
f 46/79/12 47/84/12 104/85/12 103/80/12
f 57/86/13 1/87/13 58/88/13 114/89/13
f 133/90/14 52/82/14 109/83/14 209/91/14
f 47/84/15 135/92/15 211/93/15 104/85/15
f 41/94/16 42/95/16 99/96/16 98/97/16
f 1/87/17 2/98/17 59/99/17 58/88/17
f 48/100/18 49/101/18 106/102/18 105/103/18
f 50/104/19 51/105/19 108/106/19 107/107/19
f 49/101/20 50/104/20 107/107/20 106/102/20
f 141/108/21 41/94/21 98/97/21 217/109/21
f 5/110/22 6/111/22 63/112/22 62/113/22
f 2/98/23 145/114/23 221/115/23 59/99/23
f 36/116/24 148/117/24 224/118/24 93/119/24
f 37/120/25 38/121/25 95/122/25 94/123/25
f 38/121/26 39/124/26 96/125/26 95/122/26
f 6/111/27 7/126/27 64/127/27 63/112/27
f 4/128/28 5/110/28 62/113/28 61/129/28
f 3/130/29 4/128/29 61/129/29 60/131/29
f 39/124/30 40/132/30 97/133/30 96/125/30
f 35/134/31 36/116/31 93/119/31 92/135/31
f 7/126/32 8/136/32 65/137/32 64/127/32
f 156/138/33 35/134/33 92/135/33 232/139/33
f 8/136/34 158/140/34 234/141/34 65/137/34
f 33/142/35 34/143/35 91/144/35 90/145/35
f 32/146/36 33/142/36 90/145/36 89/147/36
f 162/148/37 32/146/37 89/147/37 238/149/37
f 30/150/38 31/151/38 88/152/38 87/153/38
f 10/154/39 11/155/39 68/156/39 67/157/39
f 11/155/40 167/158/40 243/159/40 68/156/40
f 12/160/41 13/161/41 70/162/41 69/163/41
f 9/164/42 10/154/42 67/157/42 66/165/42
f 13/161/43 14/166/43 71/167/43 70/162/43
f 29/168/44 30/150/44 87/153/44 86/169/44
f 172/170/45 29/168/45 86/169/45 248/171/45
f 27/172/46 28/173/46 85/174/46 84/175/46
f 175/176/47 27/172/47 84/175/47 251/177/47
f 25/178/48 26/179/48 83/180/48 82/181/48
f 16/182/49 179/183/49 255/184/49 73/185/49
f 181/186/50 16/182/50 73/185/50 257/187/50
f 14/166/51 15/188/51 72/189/51 71/167/51
f 17/190/52 18/191/52 75/192/52 74/193/52
f 24/194/53 25/178/53 82/181/53 81/195/53
f 18/191/54 19/196/54 76/197/54 75/192/54
f 186/198/55 24/194/55 81/195/55 262/199/55
f 19/196/56 188/200/56 264/201/56 76/197/56
f 22/202/57 23/203/57 80/204/57 79/205/57
f 21/206/58 22/202/58 79/205/58 78/207/58
f 20/208/59 21/206/59 78/207/59 77/209/59
usemtl FrontMat.001
f 154/210/60 173/211/60 174/212/60
f 170/213/60 171/214/60 173/211/60
f 117/215/60 123/216/60 129/217/60
f 130/218/60 128/219/60 120/220/60
f 138/221/60 134/222/60 161/223/60
f 154/210/60 138/221/60 163/224/60
f 118/225/60 132/226/60 143/227/60
f 149/228/60 147/229/60 146/230/60
f 187/231/60 184/232/60 190/233/60
f 183/234/60 189/235/60 182/236/60
f 143/227/60 142/237/60 131/238/60
f 136/239/60 140/240/60 161/223/60
f 120/220/60 119/241/60 130/218/60
f 151/242/60 139/243/60 154/210/60
f 143/227/60 132/226/60 151/242/60
f 142/237/60 152/244/60 137/245/60
f 132/226/60 139/243/60 151/242/60
f 183/234/60 182/236/60 176/246/60
f 117/215/60 115/247/60 123/216/60
f 169/248/60 168/249/60 164/250/60
f 150/251/60 149/228/60 159/252/60
f 178/253/60 177/254/60 157/255/60
f 157/255/60 169/248/60 164/250/60
f 134/222/60 136/239/60 161/223/60
f 161/223/60 140/240/60 160/256/60
f 154/210/60 163/224/60 173/211/60
f 131/238/60 118/225/60 143/227/60
f 157/255/60 154/210/60 174/212/60
f 138/221/60 161/223/60 163/224/60
f 163/224/60 170/213/60 173/211/60
f 128/219/60 121/257/60 120/220/60
f 174/212/60 176/246/60 178/253/60
f 153/258/60 155/259/60 159/252/60
f 160/256/60 150/251/60 159/252/60
f 184/232/60 182/236/60 190/233/60
f 146/230/60 153/258/60 159/252/60
f 144/260/60 137/245/60 152/244/60
f 177/254/60 169/248/60 157/255/60
f 185/261/60 189/235/60 183/234/60
f 178/253/60 157/255/60 174/212/60
f 165/262/60 164/250/60 168/249/60
f 140/240/60 150/251/60 160/256/60
f 119/241/60 136/239/60 134/222/60
f 180/263/60 169/248/60 177/254/60
f 134/222/60 130/218/60 119/241/60
f 166/264/60 165/262/60 168/249/60
f 149/228/60 146/230/60 159/252/60
f 189/235/60 190/233/60 182/236/60
f 126/265/60 118/225/60 131/238/60
f 118/225/60 117/215/60 129/217/60
f 139/243/60 138/221/60 154/210/60
f 137/245/60 131/238/60 142/237/60
f 118/225/60 129/217/60 132/226/60
f 182/236/60 178/253/60 176/246/60
f 119/241/60 124/266/60 136/239/60
