# Blender v2.83.1 OBJ File: 'jigsaw-96x54-3-step2.blend'
# www.blender.org
mtllib piece.1626.mtl
o path3252
v 0.310440 0.037500 0.468540
v 0.185776 0.037500 0.460945
v 0.106072 0.037500 0.488098
v 0.105522 0.037500 0.563384
v 0.140465 0.037500 0.661166
v 0.147736 0.037500 0.746053
v 0.084816 0.037500 0.788654
v -0.008369 0.037500 0.783582
v -0.071251 0.037500 0.731448
v -0.064133 0.037500 0.638895
v -0.030769 0.037500 0.536663
v -0.035767 0.037500 0.461519
v -0.123558 0.037500 0.439695
v -0.257759 0.037500 0.455278
v -0.481895 0.037500 0.505041
v -0.442116 0.037500 0.304924
v -0.429031 0.037500 0.185228
v -0.444649 0.037500 0.107203
v -0.501595 0.037500 0.103241
v -0.580978 0.037500 0.132816
v -0.656013 0.037500 0.137163
v -0.703659 0.037500 0.076517
v -0.715866 0.037500 -0.012876
v -0.688324 0.037500 -0.075771
v -0.622475 0.037500 -0.075899
v -0.542702 0.037500 -0.052883
v -0.479134 0.037500 -0.065323
v -0.453865 0.037500 -0.153309
v -0.456802 0.037500 -0.282803
v -0.481896 0.037500 -0.496656
v -0.269127 0.037500 -0.476135
v -0.141426 0.037500 -0.475964
v -0.057190 0.037500 -0.503088
v -0.050423 0.037500 -0.566839
v -0.077622 0.037500 -0.645906
v -0.075890 0.037500 -0.711323
v -0.003105 0.037500 -0.739704
v 0.099861 0.037500 -0.729980
v 0.171387 0.037500 -0.686651
v 0.170441 0.037500 -0.617445
v 0.138374 0.037500 -0.542912
v 0.137146 0.037500 -0.486822
v 0.209999 0.037500 -0.466187
v 0.325371 0.037500 -0.470982
v 0.520012 0.037500 -0.496657
v 0.556290 0.037500 -0.275030
v 0.563622 0.037500 -0.142593
v 0.536018 0.037500 -0.056526
v 0.459961 0.037500 -0.052895
v 0.361122 0.037500 -0.087277
v 0.274895 0.037500 -0.095123
v 0.230453 0.037500 -0.032541
v 0.232147 0.037500 0.061769
v 0.278099 0.037500 0.128468
v 0.361397 0.037500 0.128048
v 0.455147 0.037500 0.100403
v 0.527451 0.037500 0.105268
v 0.555183 0.037500 0.183962
v 0.550575 0.037500 0.304220
v 0.520012 0.037500 0.505041
v 0.310440 -0.037500 0.468540
v 0.185776 -0.037500 0.460945
v 0.106072 -0.037500 0.488098
v 0.105522 -0.037498 0.563384
v 0.140465 -0.037498 0.661166
v 0.147736 -0.037500 0.746053
v 0.084816 -0.037500 0.788654
v -0.008369 -0.037500 0.783582
v -0.071251 -0.037500 0.731448
v -0.064133 -0.037500 0.638895
v -0.030769 -0.037500 0.536663
v -0.035767 -0.037500 0.461519
v -0.123558 -0.037500 0.439695
v -0.257759 -0.037500 0.455278
v -0.481895 -0.037500 0.505041
v -0.442116 -0.037498 0.304924
v -0.429031 -0.037498 0.185228
v -0.444649 -0.037500 0.107203
v -0.501595 -0.037500 0.103241
v -0.580978 -0.037498 0.132816
v -0.656013 -0.037500 0.137163
v -0.703659 -0.037500 0.076517
v -0.715866 -0.037500 -0.012876
v -0.688324 -0.037500 -0.075771
v -0.622475 -0.037498 -0.075899
v -0.542702 -0.037500 -0.052883
v -0.479134 -0.037500 -0.065323
v -0.453865 -0.037500 -0.153309
v -0.456802 -0.037500 -0.282803
v -0.481896 -0.037500 -0.496656
v -0.269127 -0.037500 -0.476135
v -0.141426 -0.037498 -0.475964
v -0.057190 -0.037500 -0.503088
v -0.050423 -0.037500 -0.566839
v -0.077622 -0.037500 -0.645906
v -0.075890 -0.037500 -0.711323
v -0.003105 -0.037500 -0.739704
v 0.099861 -0.037500 -0.729980
v 0.171387 -0.037500 -0.686651
v 0.170441 -0.037500 -0.617445
v 0.138374 -0.037500 -0.542912
v 0.137146 -0.037500 -0.486822
v 0.209999 -0.037500 -0.466187
v 0.325371 -0.037498 -0.470982
v 0.520012 -0.037500 -0.496657
v 0.556290 -0.037500 -0.275030
v 0.563622 -0.037500 -0.142593
v 0.536018 -0.037500 -0.056526
v 0.459961 -0.037498 -0.052895
v 0.361122 -0.037500 -0.087277
v 0.274895 -0.037500 -0.095123
v 0.230453 -0.037500 -0.032541
v 0.232147 -0.037500 0.061769
v 0.278099 -0.037500 0.128468
v 0.361397 -0.037500 0.128048
v 0.455147 -0.037500 0.100403
v 0.527451 -0.037498 0.105268
v 0.555183 -0.037500 0.183962
v 0.550575 -0.037498 0.304220
v 0.520012 -0.037500 0.505041
v 0.147736 0.037500 0.746053
v 0.147736 0.037500 0.746053
v 0.084816 0.037500 0.788654
v -0.008369 0.037500 0.783582
v -0.071251 0.037500 0.731448
v 0.140465 0.037500 0.661166
v -0.064133 0.037500 0.638895
v 0.105522 0.037500 0.563384
v -0.030769 0.037500 0.536663
v 0.106072 0.037500 0.488098
v 0.106072 0.037500 0.488098
v -0.035767 0.037500 0.461519
v -0.035767 0.037500 0.461519
v 0.185776 0.037500 0.460945
v 0.520012 0.037500 0.505041
v 0.520012 0.037500 0.505041
v 0.310440 0.037500 0.468540
v -0.257759 0.037500 0.455278
v -0.481895 0.037500 0.505041
v -0.481895 0.037500 0.505041
v -0.123558 0.037500 0.439695
v -0.442116 0.037500 0.304924
v 0.550575 0.037500 0.304220
v -0.429031 0.037500 0.185228
v 0.555183 0.037500 0.183962
v -0.444649 0.037500 0.107203
v -0.444649 0.037500 0.107203
v 0.527451 0.037500 0.105268
v 0.527451 0.037500 0.105268
v 0.278099 0.037500 0.128468
v 0.361397 0.037500 0.128048
v -0.580978 0.037500 0.132816
v -0.656013 0.037500 0.137163
v -0.703659 0.037500 0.076517
v -0.501595 0.037500 0.103241
v 0.232147 0.037500 0.061769
v 0.455147 0.037500 0.100403
v -0.715866 0.037500 -0.012876
v 0.230453 0.037500 -0.032541
v -0.688324 0.037500 -0.075771
v -0.688324 0.037500 -0.075771
v 0.274895 0.037500 -0.095123
v -0.542702 0.037500 -0.052883
v -0.479134 0.037500 -0.065323
v -0.479134 0.037500 -0.065323
v -0.622475 0.037500 -0.075899
v 0.536018 0.037500 -0.056526
v 0.536018 0.037500 -0.056526
v 0.459961 0.037500 -0.052895
v 0.361122 0.037500 -0.087277
v 0.563622 0.037500 -0.142593
v -0.453865 0.037500 -0.153309
v 0.556290 0.037500 -0.275030
v -0.456802 0.037500 -0.282803
v 0.520012 0.037500 -0.496657
v 0.520012 0.037500 -0.496657
v 0.209999 0.037500 -0.466187
v 0.325371 0.037500 -0.470982
v 0.137146 0.037500 -0.486822
v 0.137146 0.037500 -0.486822
v -0.269127 0.037500 -0.476135
v -0.141426 0.037500 -0.475964
v -0.481896 0.037500 -0.496656
v -0.481896 0.037500 -0.496656
v -0.057190 0.037500 -0.503088
v -0.057190 0.037500 -0.503088
v 0.138374 0.037500 -0.542912
v -0.050423 0.037500 -0.566839
v 0.170441 0.037500 -0.617445
v -0.077622 0.037500 -0.645906
v 0.171387 0.037500 -0.686651
v -0.075890 0.037500 -0.711323
v -0.075890 0.037500 -0.711323
v 0.099861 0.037500 -0.729980
v -0.003105 0.037500 -0.739704
v 0.147736 -0.037500 0.746053
v 0.147736 -0.037500 0.746053
v 0.084816 -0.037500 0.788654
v -0.008369 -0.037500 0.783582
v -0.071251 -0.037500 0.731448
v 0.140465 -0.037498 0.661166
v -0.064133 -0.037500 0.638895
v 0.105522 -0.037498 0.563384
v -0.030769 -0.037500 0.536663
v 0.106072 -0.037500 0.488098
v 0.106072 -0.037500 0.488098
v -0.035767 -0.037500 0.461519
v -0.035767 -0.037500 0.461519
v 0.185776 -0.037500 0.460945
v 0.520012 -0.037500 0.505041
v 0.520012 -0.037500 0.505041
v 0.310440 -0.037500 0.468540
v -0.257759 -0.037500 0.455278
v -0.481895 -0.037500 0.505041
v -0.481895 -0.037500 0.505041
v -0.123558 -0.037500 0.439695
v -0.442116 -0.037498 0.304924
v 0.550575 -0.037498 0.304220
v -0.429031 -0.037498 0.185228
v 0.555183 -0.037500 0.183962
v -0.444649 -0.037500 0.107203
v -0.444649 -0.037500 0.107203
v 0.527451 -0.037498 0.105268
v 0.527451 -0.037498 0.105268
v 0.278099 -0.037500 0.128468
v 0.361397 -0.037500 0.128048
v -0.580978 -0.037498 0.132816
v -0.656013 -0.037500 0.137163
v -0.703659 -0.037500 0.076517
v -0.501595 -0.037500 0.103241
v 0.232147 -0.037500 0.061769
v 0.455147 -0.037500 0.100403
v -0.715866 -0.037500 -0.012876
v 0.230453 -0.037500 -0.032541
v -0.688324 -0.037500 -0.075771
v -0.688324 -0.037500 -0.075771
v 0.274895 -0.037500 -0.095123
v -0.542702 -0.037500 -0.052883
v -0.479134 -0.037500 -0.065323
v -0.479134 -0.037500 -0.065323
v -0.622475 -0.037498 -0.075899
v 0.536018 -0.037500 -0.056526
v 0.536018 -0.037500 -0.056526
v 0.459961 -0.037498 -0.052895
v 0.361122 -0.037500 -0.087277
v 0.563622 -0.037500 -0.142593
v -0.453865 -0.037500 -0.153309
v 0.556290 -0.037500 -0.275030
v -0.456802 -0.037500 -0.282803
v 0.520012 -0.037500 -0.496657
v 0.520012 -0.037500 -0.496657
v 0.209999 -0.037500 -0.466187
v 0.325371 -0.037498 -0.470982
v 0.137146 -0.037500 -0.486822
v 0.137146 -0.037500 -0.486822
v -0.269127 -0.037500 -0.476135
v -0.141426 -0.037498 -0.475964
v -0.481896 -0.037500 -0.496656
v -0.481896 -0.037500 -0.496656
v -0.057190 -0.037500 -0.503088
v -0.057190 -0.037500 -0.503088
v 0.138374 -0.037500 -0.542912
v -0.050423 -0.037500 -0.566839
v 0.170441 -0.037500 -0.617445
v -0.077622 -0.037500 -0.645906
v 0.171387 -0.037500 -0.686651
v -0.075890 -0.037500 -0.711323
v -0.075890 -0.037500 -0.711323
v 0.099861 -0.037500 -0.729980
v -0.003105 -0.037500 -0.739704
vt 0.500000 0.500000
vt 0.500000 0.500000
vt 0.500000 0.500000
vt 0.500000 0.500000
vt 0.500000 0.500000
vt 0.500000 0.500000
vt 0.500000 0.500000
vt 0.500000 0.500000
vt 0.500000 0.500000
vt 0.500000 0.500000
vt 0.500000 0.500000
vt 0.500000 0.500000
vt 0.500000 0.500000
vt 0.500000 0.500000
vt 0.500000 0.500000
vt 0.500000 0.500000
vt 0.500000 0.500000
vt 0.500000 0.500000
vt 0.500000 0.500000
vt 0.500000 0.500000
vt 0.500000 0.500000
vt 0.500000 0.500000
vt 0.500000 0.500000
vt 0.500000 0.500000
vt 0.500000 0.500000
vt 0.500000 0.500000
vt 0.500000 0.500000
vt 0.500000 0.500000
vt 0.500000 0.500000
vt 0.500000 0.500000
vt 0.500000 0.500000
vt 0.500000 0.500000
vt 0.500000 0.500000
vt 0.500000 0.500000
vt 0.500000 0.500000
vt 0.500000 0.500000
vt 0.500000 0.500000
vt 0.500000 0.500000
vt 0.500000 0.500000
vt 0.500000 0.500000
vt 0.500000 0.500000
vt 0.500000 0.500000
vt 0.500000 0.500000
vt 0.500000 0.500000
vt 0.500000 0.500000
vt 0.500000 0.500000
vt 0.500000 0.500000
vt 0.500000 0.500000
vt 0.500000 0.500000
vt 0.500000 0.500000
vt 0.500000 0.500000
vt 0.500000 0.500000
vt 0.500000 0.500000
vt 0.500000 0.500000
vt 0.500000 0.500000
vt 0.500000 0.500000
vt 0.500000 0.500000
vt 0.500000 0.500000
vt 0.500000 0.500000
vt 0.500000 0.500000
vt 0.500000 0.500000
vt 0.500000 0.500000
vt 0.500000 0.500000
vt 0.500000 0.500000
vt 0.500000 0.500000
vt 0.500000 0.500000
vt 0.500000 0.500000
vt 0.500000 0.500000
vt 0.500000 0.500000
vt 0.500000 0.500000
vt 0.500000 0.500000
vt 0.500000 0.500000
vt 0.500000 0.500000
vt 0.500000 0.500000
vt 0.500000 0.500000
vt 0.500000 0.500000
vt 0.500000 0.500000
vt 0.500000 0.500000
vt 0.500000 0.500000
vt 0.500000 0.500000
vt 0.500000 0.500000
vt 0.500000 0.500000
vt 0.500000 0.500000
vt 0.500000 0.500000
vt 0.500000 0.500000
vt 0.500000 0.500000
vt 0.500000 0.500000
vt 0.500000 0.500000
vt 0.500000 0.500000
vt 0.500000 0.500000
vt 0.500000 0.500000
vt 0.500000 0.500000
vt 0.500000 0.500000
vt 0.500000 0.500000
vt 0.500000 0.500000
vt 0.500000 0.500000
vt 0.500000 0.500000
vt 0.500000 0.500000
vt 0.500000 0.500000
vt 0.500000 0.500000
vt 0.500000 0.500000
vt 0.500000 0.500000
vt 0.500000 0.500000
vt 0.500000 0.500000
vt 0.500000 0.500000
vt 0.500000 0.500000
vt 0.500000 0.500000
vt 0.500000 0.500000
vt 0.500000 0.500000
vt 0.500000 0.500000
vt 0.500000 0.500000
vt 0.500000 0.500000
vt 0.500000 0.500000
vt 0.500000 0.500000
vt 0.500000 0.500000
vt 0.500000 0.500000
vt 0.500000 0.500000
vt 0.500000 0.500000
vt 0.500000 0.500000
vt 0.500000 0.500000
vt 0.500000 0.500000
vt 0.500000 0.500000
vt 0.500000 0.500000
vt 0.500000 0.500000
vt 0.500000 0.500000
vt 0.500000 0.500000
vt 0.500000 0.500000
vt 0.500000 0.500000
vt 0.500000 0.500000
vt 0.500000 0.500000
vt 0.500000 0.500000
vt 0.500000 0.500000
vt 0.500000 0.500000
vt 0.500000 0.500000
vt 0.500000 0.500000
vt 0.500000 0.500000
vt 0.500000 0.500000
vt 0.500000 0.500000
vt 0.500000 0.500000
vt 0.500000 0.500000
vt 0.500000 0.500000
vt 0.500000 0.500000
vt 0.500000 0.500000
vt 0.500000 0.500000
vt 0.500000 0.500000
vt 0.500000 0.500000
vt 0.500000 0.500000
vt 0.500000 0.500000
vt 0.500000 0.500000
vt 0.500000 0.500000
vt 0.500000 0.500000
vt 0.500000 0.500000
vt 0.500000 0.500000
vt 0.500000 0.500000
vt 0.500000 0.500000
vt 0.500000 0.500000
vt 0.500000 0.500000
vt 0.500000 0.500000
vt 0.500000 0.500000
vt 0.500000 0.500000
vt 0.500000 0.500000
vt 0.500000 0.500000
vt 0.500000 0.500000
vt 0.500000 0.500000
vt 0.500000 0.500000
vt 0.500000 0.500000
vt 0.500000 0.500000
vt 0.500000 0.500000
vt 0.500000 0.500000
vt 0.500000 0.500000
vt 0.500000 0.500000
vt 0.500000 0.500000
vt 0.500000 0.500000
vt 0.500000 0.500000
vt 0.500000 0.500000
vt 0.500000 0.500000
vt 0.500000 0.500000
vt 0.500000 0.500000
vt 0.500000 0.500000
vt 0.500000 0.500000
vt 0.500000 0.500000
vt 0.500000 0.500000
vt 0.500000 0.500000
vt 0.500000 0.500000
vt 0.500000 0.500000
vt 0.500000 0.500000
vt 0.500000 0.500000
vt 0.500000 0.500000
vt 0.500000 0.500000
vt 0.500000 0.500000
vt 0.500000 0.500000
vt 0.500000 0.500000
vt 0.500000 0.500000
vt 0.500000 0.500000
vt 0.500000 0.500000
vt 0.500000 0.500000
vt 0.500000 0.500000
vt 0.500000 0.500000
vt 0.500000 0.500000
vt 0.500000 0.500000
vt 0.500000 0.500000
vt 0.500000 0.500000
vt 0.500000 0.500000
vt 0.500000 0.500000
vt 0.500000 0.500000
vt 0.500000 0.500000
vt 0.500000 0.500000
vt 0.500000 0.500000
vt 0.500000 0.500000
vt 0.500000 0.500000
vt 0.932522 0.680692
vt 0.933279 0.681217
vt 0.933297 0.682426
vt 0.931051 0.684330
vt 0.931452 0.680872
vt 0.933014 0.683888
vt 0.931387 0.703391
vt 0.930558 0.702888
vt 0.932862 0.702899
vt 0.938962 0.692964
vt 0.939646 0.692966
vt 0.939933 0.694129
vt 0.935288 0.685565
vt 0.937500 0.685185
vt 0.937239 0.689139
vt 0.930076 0.695509
vt 0.936950 0.697791
vt 0.933774 0.702496
vt 0.931064 0.685367
vt 0.933084 0.685066
vt 0.930094 0.693765
vt 0.926630 0.691731
vt 0.926706 0.689282
vt 0.928735 0.692754
vt 0.929598 0.696742
vt 0.930954 0.708159
vt 0.931029 0.706590
vt 0.931608 0.708947
vt 0.937471 0.693159
vt 0.938132 0.693389
vt 0.937705 0.696276
vt 0.928732 0.696734
vt 0.929262 0.703029
vt 0.932577 0.708853
vt 0.929107 0.685660
vt 0.929632 0.692608
vt 0.931393 0.704782
vt 0.932810 0.704288
vt 0.933960 0.685568
vt 0.937113 0.696349
vt 0.927083 0.703704
vt 0.926766 0.699991
vt 0.930708 0.681673
vt 0.930718 0.682952
vt 0.937209 0.691533
vt 0.938530 0.696822
vt 0.926718 0.697768
vt 0.939806 0.695782
vt 0.927708 0.693389
vt 0.930306 0.685749
vt 0.927083 0.685185
vt 0.935170 0.702784
vt 0.933157 0.706178
vt 0.927006 0.696313
vt 0.927758 0.696223
vt 0.937086 0.700004
vt 0.937500 0.703704
vt 0.926917 0.693322
vt 0.933231 0.707889
vt 0.939310 0.696903
vn 0.0000 -1.0000 0.0000
vn 0.5607 0.0000 0.8280
vn -0.0544 0.0000 0.9985
vn -0.6382 0.0000 0.7698
vn 0.9964 0.0000 -0.0853
vn -0.9971 0.0000 -0.0767
vn 0.9417 0.0000 -0.3365
vn -0.9507 0.0000 -0.3102
vn 1.0000 0.0000 0.0073
vn -0.9978 0.0000 0.0664
vn 0.3225 0.0000 0.9466
vn -0.1716 0.0000 0.9852
vn 0.2167 0.0000 0.9762
vn -0.0608 0.0000 0.9981
vn -0.2412 0.0000 0.9705
vn 0.1153 0.0000 0.9933
vn -0.9808 0.0000 -0.1950
vn 0.9886 0.0000 0.1505
vn -0.9941 0.0000 -0.1087
vn 0.9993 0.0000 0.0383
vn -0.9806 0.0000 0.1963
vn 0.9431 0.0000 -0.3324
vn -0.0050 0.0000 -1.0000
vn 0.0578 0.0000 0.9983
vn -0.7863 0.0000 0.6178
vn 0.3491 0.0000 0.9371
vn 0.8235 0.0000 -0.5673
vn 0.0671 0.0000 -0.9977
vn -0.2828 0.0000 -0.9592
vn -0.0694 0.0000 0.9976
vn -0.9908 0.0000 0.1353
vn 0.9998 0.0000 -0.0180
vn -0.9160 0.0000 -0.4011
vn 0.8153 0.0000 0.5790
vn -0.1920 0.0000 -0.9814
vn 0.2772 0.0000 -0.9608
vn -0.0019 0.0000 -1.0000
vn 0.0477 0.0000 0.9989
vn -0.3285 0.0000 0.9445
vn 0.9522 0.0000 0.3054
vn -0.9611 0.0000 -0.2760
vn -0.0906 0.0000 0.9959
vn 0.9985 0.0000 -0.0553
vn -0.9997 0.0000 0.0227
vn 0.9869 0.0000 -0.1615
vn -0.0415 0.0000 -0.9991
vn 0.2725 0.0000 -0.9621
vn 0.0013 0.0000 -1.0000
vn 0.0960 0.0000 -0.9954
vn -0.9932 0.0000 0.1165
vn -0.3065 0.0000 -0.9519
vn 0.9998 0.0000 0.0219
vn -0.1308 0.0000 -0.9914
vn -0.9944 0.0000 -0.1056
vn 0.9186 0.0000 0.3952
vn -0.9456 0.0000 0.3253
vn 0.9999 0.0000 0.0137
vn -0.9996 0.0000 -0.0265
vn 0.5181 0.0000 -0.8553
vn 0.0940 0.0000 -0.9956
vn -0.3633 0.0000 -0.9317
vn 0.0000 1.0000 -0.0000
usemtl BackMat.001
s off
f 270/1/1 265/2/1 267/3/1
f 262/4/1 263/5/1 269/6/1
f 205/7/1 207/8/1 209/9/1
f 241/10/1 233/11/1 235/12/1
f 256/13/1 249/14/1 258/15/1
f 231/16/1 216/17/1 219/18/1
f 254/19/1 234/20/1 260/21/1
f 246/22/1 245/23/1 248/24/1
f 270/1/1 263/5/1 265/2/1
f 225/25/1 207/8/1 231/16/1
f 196/26/1 198/27/1 201/28/1
f 239/29/1 230/30/1 238/31/1
f 263/5/1 262/4/1 260/21/1
f 226/32/1 212/33/1 225/25/1
f 198/27/1 199/34/1 201/28/1
f 253/35/1 245/23/1 237/36/1
f 203/37/1 204/38/1 205/7/1
f 260/21/1 234/20/1 257/39/1
f 231/16/1 221/40/1 234/20/1
f 212/33/1 218/41/1 210/42/1
f 254/19/1 237/36/1 234/20/1
f 254/19/1 260/21/1 262/4/1
f 266/43/1 264/44/1 269/6/1
f 257/39/1 234/20/1 247/45/1
f 227/46/1 238/31/1 230/30/1
f 257/39/1 247/45/1 249/14/1
f 218/41/1 226/32/1 220/47/1
f 241/10/1 229/48/1 233/11/1
f 205/7/1 204/38/1 207/8/1
f 234/20/1 221/40/1 247/45/1
f 238/31/1 229/48/1 241/10/1
f 245/23/1 246/22/1 244/49/1
f 252/50/1 237/36/1 254/19/1
f 209/9/1 207/8/1 225/25/1
f 212/33/1 226/32/1 218/41/1
f 253/35/1 237/36/1 252/50/1
f 248/24/1 253/35/1 250/51/1
f 248/24/1 245/23/1 253/35/1
f 213/52/1 219/18/1 216/17/1
f 201/28/1 202/53/1 203/37/1
f 269/6/1 263/5/1 270/1/1
f 247/45/1 221/40/1 239/29/1
f 223/54/1 220/47/1 232/55/1
f 231/16/1 207/8/1 216/17/1
f 225/25/1 212/33/1 209/9/1
f 257/39/1 249/14/1 256/13/1
f 231/16/1 219/18/1 221/40/1
f 229/48/1 238/31/1 227/46/1
f 217/56/1 213/52/1 214/57/1
f 219/18/1 213/52/1 217/56/1
f 242/58/1 244/49/1 246/22/1
f 204/38/1 203/37/1 202/53/1
f 201/28/1 199/34/1 202/53/1
f 202/53/1 199/34/1 200/59/1
f 221/40/1 230/30/1 239/29/1
f 232/55/1 220/47/1 226/32/1
f 264/44/1 262/4/1 269/6/1
f 229/48/1 227/46/1 228/60/1
f 122/61/2 7/62/2 67/63/2 197/64/2
f 7/62/3 8/65/3 68/66/3 67/63/3
f 8/65/4 9/67/4 69/68/4 68/66/4
f 5/69/5 6/70/5 66/71/5 65/72/5
f 9/67/6 10/73/6 70/74/6 69/68/6
f 4/75/7 5/69/7 65/72/7 64/76/7
f 10/73/8 11/77/8 71/78/8 70/74/8
f 131/79/9 4/75/9 64/76/9 206/80/9
f 11/77/10 133/81/10 208/82/10 71/78/10
f 2/83/11 3/84/11 63/85/11 62/86/11
f 136/87/12 1/88/12 61/89/12 211/90/12
f 14/91/13 140/92/13 215/93/13 74/94/13
f 1/88/14 2/83/14 62/86/14 61/89/14
f 12/95/15 13/96/15 73/97/15 72/98/15
f 13/96/16 14/91/16 74/94/16 73/97/16
f 15/99/17 16/100/17 76/101/17 75/102/17
f 59/103/18 60/104/18 120/105/18 119/106/18
f 16/100/19 17/107/19 77/108/19 76/101/19
f 58/109/20 59/103/20 119/106/20 118/110/20
f 17/107/21 147/111/21 222/112/21 77/108/21
f 149/113/22 58/109/22 118/110/22 224/114/22
f 54/115/23 55/116/23 115/117/23 114/118/23
f 20/119/24 21/120/24 81/121/24 80/122/24
f 21/120/25 22/123/25 82/124/25 81/121/25
f 19/125/26 20/119/26 80/122/26 79/126/26
f 53/127/27 54/115/27 114/118/27 113/128/27
f 56/129/28 57/130/28 117/131/28 116/132/28
f 55/116/29 56/129/29 116/132/29 115/117/29
f 18/133/30 19/125/30 79/126/30 78/134/30
f 22/123/31 23/135/31 83/136/31 82/124/31
f 52/137/32 53/127/32 113/128/32 112/138/32
f 23/135/33 161/139/33 236/140/33 83/136/33
f 51/141/34 52/137/34 112/138/34 111/142/34
f 26/143/35 165/144/35 240/145/35 86/146/35
f 25/147/36 26/143/36 86/146/36 85/148/36
f 24/149/37 25/147/37 85/148/37 84/150/37
f 168/151/38 49/152/38 109/153/38 243/154/38
f 49/152/39 50/155/39 110/156/39 109/153/39
f 47/157/40 48/158/40 108/159/40 107/160/40
f 27/161/41 28/162/41 88/163/41 87/164/41
f 50/155/42 51/141/42 111/142/42 110/156/42
f 46/165/43 47/157/43 107/160/43 106/166/43
f 28/162/44 29/167/44 89/168/44 88/163/44
f 176/169/45 46/165/45 106/166/45 251/170/45
f 43/171/46 44/172/46 104/173/46 103/174/46
f 180/175/47 43/171/47 103/174/47 255/176/47
f 31/177/48 32/178/48 92/179/48 91/180/48
f 184/181/49 31/177/49 91/180/49 259/182/49
f 29/167/50 30/183/50 90/184/50 89/168/50
f 32/178/51 186/185/51 261/186/51 92/179/51
f 41/187/52 42/188/52 102/189/52 101/190/52
f 44/172/53 45/191/53 105/192/53 104/173/53
f 33/193/54 34/194/54 94/195/54 93/196/54
f 40/197/55 41/187/55 101/190/55 100/198/55
f 34/194/56 35/199/56 95/200/56 94/195/56
f 39/201/57 40/197/57 100/198/57 99/202/57
f 35/199/58 193/203/58 268/204/58 95/200/58
f 38/205/59 39/201/59 99/202/59 98/206/59
f 37/207/60 38/205/60 98/206/60 97/208/60
f 36/209/61 37/207/61 97/208/61 96/210/61
usemtl FrontMat.001
f 195/211/62 192/212/62 190/213/62
f 187/214/62 194/215/62 188/216/62
f 130/217/62 134/218/62 132/219/62
f 166/220/62 160/221/62 158/222/62
f 181/223/62 183/224/62 174/225/62
f 156/226/62 144/227/62 141/228/62
f 179/229/62 185/230/62 159/231/62
f 171/232/62 173/233/62 170/234/62
f 195/211/62 190/213/62 188/216/62
f 150/235/62 156/226/62 132/219/62
f 121/236/62 126/237/62 123/238/62
f 164/239/62 163/240/62 155/241/62
f 188/216/62 185/230/62 187/214/62
f 151/242/62 150/235/62 137/243/62
f 123/238/62 126/237/62 124/244/62
f 178/245/62 162/246/62 170/234/62
f 128/247/62 130/217/62 129/248/62
f 185/230/62 182/249/62 159/231/62
f 156/226/62 159/231/62 146/250/62
f 137/243/62 135/251/62 143/252/62
f 179/229/62 159/231/62 162/246/62
f 179/229/62 187/214/62 185/230/62
f 191/253/62 194/215/62 189/254/62
f 182/249/62 172/255/62 159/231/62
f 152/256/62 155/241/62 163/240/62
f 182/249/62 174/225/62 172/255/62
f 143/252/62 145/257/62 151/242/62
f 166/220/62 158/222/62 154/258/62
f 130/217/62 132/219/62 129/248/62
f 159/231/62 172/255/62 146/250/62
f 163/240/62 166/220/62 154/258/62
f 170/234/62 169/259/62 171/232/62
f 177/260/62 179/229/62 162/246/62
f 134/218/62 150/235/62 132/219/62
f 137/243/62 143/252/62 151/242/62
f 178/245/62 177/260/62 162/246/62
f 173/233/62 175/261/62 178/245/62
f 173/233/62 178/245/62 170/234/62
f 138/262/62 141/228/62 144/227/62
f 126/237/62 128/247/62 127/263/62
f 194/215/62 195/211/62 188/216/62
f 172/255/62 164/239/62 146/250/62
f 148/264/62 157/265/62 145/257/62
f 156/226/62 141/228/62 132/219/62
f 150/235/62 134/218/62 137/243/62
f 182/249/62 181/223/62 174/225/62
f 156/226/62 146/250/62 144/227/62
f 154/258/62 152/256/62 163/240/62
f 142/266/62 139/267/62 138/262/62
f 144/227/62 142/266/62 138/262/62
f 167/268/62 171/232/62 169/259/62
f 129/248/62 127/263/62 128/247/62
f 126/237/62 127/263/62 124/244/62
f 127/263/62 125/269/62 124/244/62
f 146/250/62 164/239/62 155/241/62
f 157/265/62 151/242/62 145/257/62
f 189/254/62 194/215/62 187/214/62
f 154/258/62 153/270/62 152/256/62
