# Blender v2.83.1 OBJ File: 'jigsaw-96x54-3-step2.blend'
# www.blender.org
mtllib piece.1856.mtl
o path3712
v 0.545563 0.037500 -0.313238
v 0.551153 0.037500 -0.198305
v 0.523193 0.037500 -0.125586
v 0.449299 0.037500 -0.126524
v 0.355801 0.037500 -0.158434
v 0.278656 0.037500 -0.160103
v 0.246977 0.037500 -0.090540
v 0.262512 0.037500 0.010300
v 0.320158 0.037500 0.082232
v 0.410240 0.037500 0.085329
v 0.504740 0.037500 0.060749
v 0.571062 0.037500 0.069906
v 0.586344 0.037500 0.155193
v 0.566641 0.037500 0.282894
v 0.512789 0.037500 0.494885
v 0.316448 0.037500 0.462345
v 0.200079 0.037500 0.455303
v 0.126619 0.037500 0.478729
v 0.127951 0.037500 0.544434
v 0.160625 0.037500 0.629929
v 0.162371 0.037500 0.704182
v 0.091568 0.037500 0.741554
v -0.010775 0.037500 0.738026
v -0.082996 0.037500 0.694969
v -0.084206 0.037500 0.618439
v -0.056622 0.037500 0.533520
v -0.063232 0.037500 0.470005
v -0.147604 0.037500 0.449238
v -0.275600 0.037500 0.458839
v -0.488909 0.037500 0.494884
v -0.439568 0.037500 0.143196
v -0.454901 0.037500 0.057753
v -0.509571 0.037500 0.054087
v -0.585522 0.037500 0.087341
v -0.657185 0.037500 0.092518
v -0.702215 0.037500 0.025824
v -0.711128 0.037500 -0.071724
v -0.677660 0.037500 -0.137901
v -0.602472 0.037500 -0.131557
v -0.513987 0.037500 -0.095877
v -0.447556 0.037500 -0.095119
v -0.428667 0.037500 -0.173861
v -0.443331 0.037500 -0.297958
v -0.488909 0.037500 -0.507025
v -0.132004 0.037500 -0.432817
v -0.042866 0.037500 -0.445026
v -0.034531 0.037500 -0.505777
v -0.063940 0.037500 -0.594826
v -0.068291 0.037500 -0.682955
v -0.004923 0.037500 -0.744442
v 0.088272 0.037500 -0.767574
v 0.153265 0.037500 -0.744143
v 0.151524 0.037500 -0.673244
v 0.122555 0.037500 -0.583254
v 0.125364 0.037500 -0.509851
v 0.200844 0.037500 -0.479403
v 0.317450 0.037500 -0.481003
v 0.512789 0.037500 -0.507025
v 0.545563 -0.037498 -0.313238
v 0.551153 -0.037500 -0.198305
v 0.523193 -0.037500 -0.125586
v 0.449299 -0.037500 -0.126524
v 0.355801 -0.037498 -0.158434
v 0.278656 -0.037500 -0.160103
v 0.246977 -0.037500 -0.090540
v 0.262512 -0.037500 0.010300
v 0.320158 -0.037500 0.082232
v 0.410240 -0.037500 0.085329
v 0.504740 -0.037500 0.060749
v 0.571062 -0.037500 0.069906
v 0.586344 -0.037500 0.155193
v 0.566641 -0.037500 0.282894
v 0.512789 -0.037500 0.494885
v 0.316448 -0.037500 0.462345
v 0.200079 -0.037500 0.455303
v 0.126619 -0.037500 0.478729
v 0.127951 -0.037500 0.544434
v 0.160625 -0.037500 0.629929
v 0.162371 -0.037500 0.704182
v 0.091568 -0.037500 0.741554
v -0.010775 -0.037500 0.738026
v -0.082996 -0.037500 0.694969
v -0.084206 -0.037500 0.618439
v -0.056622 -0.037500 0.533520
v -0.063232 -0.037500 0.470005
v -0.147604 -0.037498 0.449238
v -0.275600 -0.037500 0.458839
v -0.488909 -0.037500 0.494884
v -0.439568 -0.037500 0.143196
v -0.454901 -0.037500 0.057753
v -0.509571 -0.037498 0.054087
v -0.585522 -0.037500 0.087341
v -0.657185 -0.037498 0.092518
v -0.702215 -0.037500 0.025824
v -0.711128 -0.037500 -0.071724
v -0.677660 -0.037498 -0.137901
v -0.602472 -0.037498 -0.131557
v -0.513987 -0.037500 -0.095877
v -0.447556 -0.037500 -0.095119
v -0.428667 -0.037500 -0.173861
v -0.443331 -0.037498 -0.297958
v -0.488909 -0.037500 -0.507025
v -0.132004 -0.037500 -0.432817
v -0.042866 -0.037500 -0.445026
v -0.034531 -0.037500 -0.505777
v -0.063940 -0.037500 -0.594826
v -0.068291 -0.037500 -0.682955
v -0.004923 -0.037500 -0.744442
v 0.088272 -0.037500 -0.767574
v 0.153265 -0.037500 -0.744143
v 0.151524 -0.037500 -0.673244
v 0.122555 -0.037500 -0.583254
v 0.125364 -0.037500 -0.509851
v 0.200844 -0.037500 -0.479403
v 0.317450 -0.037498 -0.481003
v 0.512789 -0.037498 -0.507025
v 0.571062 0.037500 0.069906
v 0.571062 0.037500 0.069906
v 0.586344 0.037500 0.155193
v 0.566641 0.037500 0.282894
v 0.504740 0.037500 0.060749
v 0.545563 0.037500 -0.313238
v 0.551153 0.037500 -0.198305
v 0.523193 0.037500 -0.125586
v 0.523193 0.037500 -0.125586
v 0.449299 0.037500 -0.126524
v 0.512789 0.037500 0.494885
v 0.512789 0.037500 0.494885
v 0.512789 0.037500 -0.507025
v 0.512789 0.037500 -0.507025
v 0.410240 0.037500 0.085329
v 0.355801 0.037500 -0.158434
v 0.317450 0.037500 -0.481003
v 0.316448 0.037500 0.462345
v 0.320158 0.037500 0.082232
v 0.278656 0.037500 -0.160103
v 0.278656 0.037500 -0.160103
v 0.262512 0.037500 0.010300
v 0.200844 0.037500 -0.479403
v 0.200079 0.037500 0.455303
v 0.246977 0.037500 -0.090540
v 0.125364 0.037500 -0.509851
v 0.125364 0.037500 -0.509851
v 0.126619 0.037500 0.478729
v 0.126619 0.037500 0.478729
v 0.160625 0.037500 0.629929
v 0.162371 0.037500 0.704182
v 0.162371 0.037500 0.704182
v 0.091568 0.037500 0.741554
v 0.127951 0.037500 0.544434
v 0.088272 0.037500 -0.767574
v 0.153265 0.037500 -0.744143
v 0.153265 0.037500 -0.744143
v 0.151524 0.037500 -0.673244
v 0.122555 0.037500 -0.583254
v -0.010775 0.037500 0.738026
v -0.004923 0.037500 -0.744442
v -0.068291 0.037500 -0.682955
v -0.082996 0.037500 0.694969
v -0.063940 0.037500 -0.594826
v -0.034531 0.037500 -0.505777
v -0.042866 0.037500 -0.445026
v -0.042866 0.037500 -0.445026
v -0.132004 0.037500 -0.432817
v -0.056622 0.037500 0.533520
v -0.063232 0.037500 0.470005
v -0.063232 0.037500 0.470005
v -0.084206 0.037500 0.618439
v -0.147604 0.037500 0.449238
v -0.275600 0.037500 0.458839
v -0.488909 0.037500 -0.507025
v -0.488909 0.037500 -0.507025
v -0.428667 0.037500 -0.173861
v -0.443331 0.037500 -0.297958
v -0.447556 0.037500 -0.095119
v -0.447556 0.037500 -0.095119
v -0.439568 0.037500 0.143196
v -0.454901 0.037500 0.057753
v -0.454901 0.037500 0.057753
v -0.513987 0.037500 -0.095877
v -0.509571 0.037500 0.054087
v -0.488909 0.037500 0.494884
v -0.488909 0.037500 0.494884
v -0.585522 0.037500 0.087341
v -0.602472 0.037500 -0.131557
v -0.657185 0.037500 0.092518
v -0.677660 0.037500 -0.137901
v -0.677660 0.037500 -0.137901
v -0.702215 0.037500 0.025824
v -0.711128 0.037500 -0.071724
v 0.571062 -0.037500 0.069906
v 0.571062 -0.037500 0.069906
v 0.586344 -0.037500 0.155193
v 0.566641 -0.037500 0.282894
v 0.504740 -0.037500 0.060749
v 0.545563 -0.037498 -0.313238
v 0.551153 -0.037500 -0.198305
v 0.523193 -0.037500 -0.125586
v 0.523193 -0.037500 -0.125586
v 0.449299 -0.037500 -0.126524
v 0.512789 -0.037500 0.494885
v 0.512789 -0.037500 0.494885
v 0.512789 -0.037498 -0.507025
v 0.512789 -0.037498 -0.507025
v 0.410240 -0.037500 0.085329
v 0.355801 -0.037498 -0.158434
v 0.317450 -0.037498 -0.481003
v 0.316448 -0.037500 0.462345
v 0.320158 -0.037500 0.082232
v 0.278656 -0.037500 -0.160103
v 0.278656 -0.037500 -0.160103
v 0.262512 -0.037500 0.010300
v 0.200844 -0.037500 -0.479403
v 0.200079 -0.037500 0.455303
v 0.246977 -0.037500 -0.090540
v 0.125364 -0.037500 -0.509851
v 0.125364 -0.037500 -0.509851
v 0.126619 -0.037500 0.478729
v 0.126619 -0.037500 0.478729
v 0.160625 -0.037500 0.629929
v 0.162371 -0.037500 0.704182
v 0.162371 -0.037500 0.704182
v 0.091568 -0.037500 0.741554
v 0.127951 -0.037500 0.544434
v 0.088272 -0.037500 -0.767574
v 0.153265 -0.037500 -0.744143
v 0.153265 -0.037500 -0.744143
v 0.151524 -0.037500 -0.673244
v 0.122555 -0.037500 -0.583254
v -0.010775 -0.037500 0.738026
v -0.004923 -0.037500 -0.744442
v -0.068291 -0.037500 -0.682955
v -0.082996 -0.037500 0.694969
v -0.063940 -0.037500 -0.594826
v -0.034531 -0.037500 -0.505777
v -0.042866 -0.037500 -0.445026
v -0.042866 -0.037500 -0.445026
v -0.132004 -0.037500 -0.432817
v -0.056622 -0.037500 0.533520
v -0.063232 -0.037500 0.470005
v -0.063232 -0.037500 0.470005
v -0.084206 -0.037500 0.618439
v -0.147604 -0.037498 0.449238
v -0.275600 -0.037500 0.458839
v -0.488909 -0.037500 -0.507025
v -0.488909 -0.037500 -0.507025
v -0.428667 -0.037500 -0.173861
v -0.443331 -0.037498 -0.297958
v -0.447556 -0.037500 -0.095119
v -0.447556 -0.037500 -0.095119
v -0.439568 -0.037500 0.143196
v -0.454901 -0.037500 0.057753
v -0.454901 -0.037500 0.057753
v -0.513987 -0.037500 -0.095877
v -0.509571 -0.037498 0.054087
v -0.488909 -0.037500 0.494884
v -0.488909 -0.037500 0.494884
v -0.585522 -0.037500 0.087341
v -0.602472 -0.037498 -0.131557
v -0.657185 -0.037498 0.092518
v -0.677660 -0.037498 -0.137901
v -0.677660 -0.037498 -0.137901
v -0.702215 -0.037500 0.025824
v -0.711128 -0.037500 -0.071724
vt 0.500000 0.500000
vt 0.500000 0.500000
vt 0.500000 0.500000
vt 0.500000 0.500000
vt 0.500000 0.500000
vt 0.500000 0.500000
vt 0.500000 0.500000
vt 0.500000 0.500000
vt 0.500000 0.500000
vt 0.500000 0.500000
vt 0.500000 0.500000
vt 0.500000 0.500000
vt 0.500000 0.500000
vt 0.500000 0.500000
vt 0.500000 0.500000
vt 0.500000 0.500000
vt 0.500000 0.500000
vt 0.500000 0.500000
vt 0.500000 0.500000
vt 0.500000 0.500000
vt 0.500000 0.500000
vt 0.500000 0.500000
vt 0.500000 0.500000
vt 0.500000 0.500000
vt 0.500000 0.500000
vt 0.500000 0.500000
vt 0.500000 0.500000
vt 0.500000 0.500000
vt 0.500000 0.500000
vt 0.500000 0.500000
vt 0.500000 0.500000
vt 0.500000 0.500000
vt 0.500000 0.500000
vt 0.500000 0.500000
vt 0.500000 0.500000
vt 0.500000 0.500000
vt 0.500000 0.500000
vt 0.500000 0.500000
vt 0.500000 0.500000
vt 0.500000 0.500000
vt 0.500000 0.500000
vt 0.500000 0.500000
vt 0.500000 0.500000
vt 0.500000 0.500000
vt 0.500000 0.500000
vt 0.500000 0.500000
vt 0.500000 0.500000
vt 0.500000 0.500000
vt 0.500000 0.500000
vt 0.500000 0.500000
vt 0.500000 0.500000
vt 0.500000 0.500000
vt 0.500000 0.500000
vt 0.500000 0.500000
vt 0.500000 0.500000
vt 0.500000 0.500000
vt 0.500000 0.500000
vt 0.500000 0.500000
vt 0.500000 0.500000
vt 0.500000 0.500000
vt 0.500000 0.500000
vt 0.500000 0.500000
vt 0.500000 0.500000
vt 0.500000 0.500000
vt 0.500000 0.500000
vt 0.500000 0.500000
vt 0.500000 0.500000
vt 0.500000 0.500000
vt 0.500000 0.500000
vt 0.500000 0.500000
vt 0.500000 0.500000
vt 0.500000 0.500000
vt 0.500000 0.500000
vt 0.500000 0.500000
vt 0.500000 0.500000
vt 0.500000 0.500000
vt 0.500000 0.500000
vt 0.500000 0.500000
vt 0.500000 0.500000
vt 0.500000 0.500000
vt 0.500000 0.500000
vt 0.500000 0.500000
vt 0.500000 0.500000
vt 0.500000 0.500000
vt 0.500000 0.500000
vt 0.500000 0.500000
vt 0.500000 0.500000
vt 0.500000 0.500000
vt 0.500000 0.500000
vt 0.500000 0.500000
vt 0.500000 0.500000
vt 0.500000 0.500000
vt 0.500000 0.500000
vt 0.500000 0.500000
vt 0.500000 0.500000
vt 0.500000 0.500000
vt 0.500000 0.500000
vt 0.500000 0.500000
vt 0.500000 0.500000
vt 0.500000 0.500000
vt 0.500000 0.500000
vt 0.500000 0.500000
vt 0.500000 0.500000
vt 0.500000 0.500000
vt 0.500000 0.500000
vt 0.500000 0.500000
vt 0.500000 0.500000
vt 0.500000 0.500000
vt 0.500000 0.500000
vt 0.500000 0.500000
vt 0.500000 0.500000
vt 0.500000 0.500000
vt 0.500000 0.500000
vt 0.500000 0.500000
vt 0.500000 0.500000
vt 0.500000 0.500000
vt 0.500000 0.500000
vt 0.500000 0.500000
vt 0.500000 0.500000
vt 0.500000 0.500000
vt 0.500000 0.500000
vt 0.500000 0.500000
vt 0.500000 0.500000
vt 0.500000 0.500000
vt 0.500000 0.500000
vt 0.500000 0.500000
vt 0.500000 0.500000
vt 0.500000 0.500000
vt 0.500000 0.500000
vt 0.500000 0.500000
vt 0.500000 0.500000
vt 0.500000 0.500000
vt 0.500000 0.500000
vt 0.500000 0.500000
vt 0.500000 0.500000
vt 0.500000 0.500000
vt 0.500000 0.500000
vt 0.500000 0.500000
vt 0.500000 0.500000
vt 0.500000 0.500000
vt 0.500000 0.500000
vt 0.500000 0.500000
vt 0.500000 0.500000
vt 0.500000 0.500000
vt 0.500000 0.500000
vt 0.500000 0.500000
vt 0.500000 0.500000
vt 0.500000 0.500000
vt 0.500000 0.500000
vt 0.500000 0.500000
vt 0.500000 0.500000
vt 0.500000 0.500000
vt 0.500000 0.500000
vt 0.500000 0.500000
vt 0.500000 0.500000
vt 0.500000 0.500000
vt 0.500000 0.500000
vt 0.500000 0.500000
vt 0.500000 0.500000
vt 0.500000 0.500000
vt 0.500000 0.500000
vt 0.500000 0.500000
vt 0.500000 0.500000
vt 0.500000 0.500000
vt 0.500000 0.500000
vt 0.500000 0.500000
vt 0.500000 0.500000
vt 0.500000 0.500000
vt 0.500000 0.500000
vt 0.500000 0.500000
vt 0.500000 0.500000
vt 0.500000 0.500000
vt 0.500000 0.500000
vt 0.500000 0.500000
vt 0.500000 0.500000
vt 0.500000 0.500000
vt 0.500000 0.500000
vt 0.500000 0.500000
vt 0.500000 0.500000
vt 0.500000 0.500000
vt 0.500000 0.500000
vt 0.500000 0.500000
vt 0.500000 0.500000
vt 0.500000 0.500000
vt 0.500000 0.500000
vt 0.500000 0.500000
vt 0.500000 0.500000
vt 0.500000 0.500000
vt 0.500000 0.500000
vt 0.500000 0.500000
vt 0.500000 0.500000
vt 0.500000 0.500000
vt 0.500000 0.500000
vt 0.500000 0.500000
vt 0.500000 0.500000
vt 0.500000 0.500000
vt 0.500000 0.500000
vt 0.500000 0.500000
vt 0.500000 0.500000
vt 0.500000 0.500000
vt 0.500000 0.500000
vt 0.500000 0.500000
vt 0.500000 0.500000
vt 0.500000 0.500000
vt 0.500000 0.500000
vt 0.500000 0.500000
vt 0.326873 0.646975
vt 0.326882 0.648340
vt 0.326126 0.648857
vt 0.329677 0.630542
vt 0.332959 0.633573
vt 0.332859 0.635939
vt 0.331129 0.649144
vt 0.329802 0.649508
vt 0.329075 0.646252
vt 0.325090 0.630472
vt 0.326381 0.630743
vt 0.323688 0.636228
vt 0.323561 0.637876
vt 0.327247 0.643234
vt 0.326524 0.643820
vt 0.333075 0.637499
vt 0.333165 0.641009
vt 0.328295 0.643521
vt 0.322004 0.637486
vt 0.322930 0.638030
vt 0.322124 0.640934
vt 0.324931 0.648754
vt 0.322917 0.648148
vt 0.323187 0.644537
vt 0.329096 0.627843
vt 0.327191 0.629166
vt 0.326820 0.627530
vt 0.332922 0.642367
vt 0.334618 0.637111
vt 0.335861 0.638469
vt 0.333848 0.641034
vt 0.328789 0.630258
vt 0.321088 0.637406
vt 0.320448 0.638577
vt 0.322917 0.629630
vt 0.321189 0.641469
vt 0.327199 0.630394
vt 0.326541 0.645246
vt 0.332995 0.644518
vt 0.329043 0.644587
vt 0.322887 0.640986
vt 0.327442 0.625521
vt 0.328457 0.625686
vt 0.323204 0.642381
vt 0.333735 0.637621
vt 0.320451 0.641502
vt 0.320208 0.640300
vt 0.335898 0.640361
vt 0.335509 0.641670
vt 0.334737 0.641638
vt 0.328750 0.629248
vt 0.328915 0.649225
vt 0.328820 0.647999
vt 0.333333 0.629630
vt 0.326754 0.626140
vt 0.335414 0.637134
vt 0.333333 0.648148
vt 0.329150 0.626519
vn 0.0000 -1.0000 0.0000
vn -0.0000 -1.0000 0.0001
vn 0.9843 0.0000 -0.1764
vn 0.9883 0.0000 0.1525
vn 0.1368 0.0000 -0.9906
vn 0.9988 0.0000 -0.0486
vn 0.9334 0.0000 0.3589
vn -0.0127 0.0000 0.9999
vn 0.9692 0.0000 0.2462
vn 0.9860 0.0000 -0.1668
vn -0.2517 0.0000 -0.9678
vn -0.3230 0.0000 0.9464
vn -0.1320 0.0000 -0.9912
vn -0.1635 0.0000 0.9865
vn 0.0344 0.0000 -0.9994
vn -0.0216 0.0000 0.9998
vn 0.7803 0.0000 -0.6254
vn -0.0137 0.0000 -0.9999
vn -0.0604 0.0000 0.9982
vn 0.9101 0.0000 0.4144
vn 0.9883 0.0000 -0.1523
vn 0.3741 0.0000 -0.9274
vn 0.3038 0.0000 0.9527
vn 0.9997 0.0000 -0.0235
vn 0.4668 0.0000 0.8844
vn 0.9341 0.0000 -0.3570
vn 0.3392 0.0000 -0.9407
vn 0.9997 0.0000 0.0246
vn 0.9519 0.0000 0.3064
vn 0.9998 0.0000 -0.0203
vn 0.9993 0.0000 -0.0382
vn -0.0345 0.0000 0.9994
vn -0.2409 0.0000 -0.9705
vn -0.6964 0.0000 -0.7177
vn -0.5121 0.0000 0.8589
vn -0.9988 0.0000 0.0493
vn -0.9496 0.0000 0.3136
vn -0.9907 0.0000 -0.1359
vn -0.1357 0.0000 -0.9908
vn -0.9946 0.0000 0.1035
vn -0.9511 0.0000 -0.3089
vn -0.9999 0.0000 0.0158
vn -0.2390 0.0000 0.9710
vn 0.0748 0.0000 0.9972
vn 0.2036 0.0000 -0.9791
vn -0.9931 0.0000 0.1173
vn -0.9724 0.0000 -0.2333
vn -0.9843 0.0000 0.1766
vn 0.0114 0.0000 -0.9999
vn -0.0669 0.0000 0.9978
vn -0.9903 0.0000 -0.1389
vn 0.1666 0.0000 0.9860
vn -0.9771 0.0000 0.2130
vn 0.4011 0.0000 0.9160
vn 0.3740 0.0000 -0.9274
vn 0.0720 0.0000 0.9974
vn 0.0841 0.0000 -0.9965
vn -0.8288 0.0000 0.5596
vn -0.8924 0.0000 -0.4513
vn -0.9959 0.0000 0.0910
vn 0.0000 1.0000 0.0000
usemtl BackMat.001
s off
f 200/1/1 197/2/1 198/3/1
f 251/4/1 243/5/1 244/6/1
f 194/7/1 205/8/1 193/9/1
f 248/10/1 238/11/1 247/12/1
f 236/13/1 210/14/1 215/15/1
f 240/16/1 212/17/1 218/18/1
f 234/19/1 229/20/1 235/21/1
f 196/22/1 207/23/1 203/24/1
f 258/25/1 259/26/1 254/27/1
f 212/17/1 214/28/1 218/18/1
f 242/29/1 224/30/1 230/31/1
f 252/32/1 215/15/1 212/17/1
f 232/33/1 231/34/1 234/19/1
f 238/11/1 248/10/1 245/35/1
f 229/20/1 231/34/1 228/36/1
f 247/12/1 215/15/1 249/37/1
f 206/38/1 197/2/1 200/1/1
f 236/13/1 215/15/1 238/11/1
f 214/28/1 209/39/1 208/40/1
f 235/21/1 216/41/1 236/13/1
f 264/42/1 259/26/1 263/43/1
f 234/19/1 231/34/1 229/20/1
f 216/41/1 213/44/1 236/13/1
f 243/5/1 212/17/1 240/16/1
f 239/45/1 224/30/1 242/29/1
f 207/23/1 210/14/1 213/44/1
f 228/36/1 225/46/1 226/47/1
f 252/32/1 212/17/1 251/4/1
f 216/41/1 235/21/1 229/20/1
f 249/37/1 215/15/1 252/32/1
f 212/17/1 209/39/1 214/28/1
f 210/14/1 207/23/1 206/38/1
f 209/39/1 205/8/1 208/40/1
f 247/12/1 238/11/1 215/15/1
f 223/48/1 220/49/1 221/50/1
f 254/27/1 249/37/1 255/51/1
f 255/51/1 249/37/1 252/32/1
f 218/18/1 224/30/1 239/45/1
f 193/9/1 195/52/1 191/53/1
f 236/13/1 213/44/1 210/14/1
f 224/30/1 220/49/1 230/31/1
f 251/4/1 244/6/1 256/54/1
f 193/9/1 205/8/1 195/52/1
f 258/25/1 254/27/1 255/51/1
f 261/55/1 259/26/1 264/42/1
f 263/43/1 259/26/1 258/25/1
f 208/40/1 205/8/1 194/7/1
f 240/16/1 218/18/1 239/45/1
f 197/2/1 206/38/1 196/22/1
f 225/46/1 228/36/1 231/34/1
f 251/4/1 212/17/1 243/5/1
f 196/22/1 206/38/1 207/23/1
f 242/29/1 230/31/1 233/56/1
f 208/40/1 194/7/1 201/57/1
f 260/58/2 263/43/2 258/25/2
f 230/31/1 220/49/1 223/48/1
f 118/59/3 13/60/3 71/61/3 192/62/3
f 13/60/4 14/63/4 72/64/4 71/61/4
f 11/65/5 12/66/5 70/67/5 69/68/5
f 1/69/6 2/70/6 60/71/6 59/72/6
f 2/70/7 125/73/7 199/74/7 60/71/7
f 3/75/8 4/76/8 62/77/8 61/78/8
f 14/63/9 128/79/9 202/80/9 72/64/9
f 130/81/10 1/69/10 59/72/10 204/82/10
f 10/83/11 11/65/11 69/68/11 68/84/11
f 4/76/12 5/85/12 63/86/12 62/77/12
f 57/87/13 58/88/13 116/89/13 115/90/13
f 15/91/14 16/92/14 74/93/14 73/94/14
f 9/95/15 10/83/15 68/84/15 67/96/15
f 5/85/16 137/97/16 211/98/16 63/86/16
f 8/99/17 9/95/17 67/96/17 66/100/17
f 56/101/18 57/87/18 115/90/18 114/102/18
f 16/92/19 17/103/19 75/104/19 74/93/19
f 6/105/20 7/106/20 65/107/20 64/108/20
f 7/106/21 8/99/21 66/100/21 65/107/21
f 143/109/22 56/101/22 114/102/22 217/110/22
f 17/103/23 145/111/23 219/112/23 75/104/23
f 20/113/24 148/114/24 222/115/24 78/116/24
f 21/117/25 22/118/25 80/119/25 79/120/25
f 19/121/26 20/113/26 78/116/26 77/122/26
f 51/123/27 153/124/27 227/125/27 109/126/27
f 52/127/28 53/128/28 111/129/28 110/130/28
f 53/128/29 54/131/29 112/132/29 111/129/29
f 18/133/30 19/121/30 77/122/30 76/134/30
f 54/131/31 55/135/31 113/136/31 112/132/31
f 22/118/32 23/137/32 81/138/32 80/119/32
f 50/139/33 51/123/33 109/126/33 108/140/33
f 49/141/34 50/139/34 108/140/34 107/142/34
f 23/137/35 24/143/35 82/144/35 81/138/35
f 48/145/36 49/141/36 107/142/36 106/146/36
f 47/147/37 48/145/37 106/146/37 105/148/37
f 163/149/38 47/147/38 105/148/38 237/150/38
f 45/151/39 46/152/39 104/153/39 103/154/39
f 26/155/40 167/156/40 241/157/40 84/158/40
f 25/159/41 26/155/41 84/158/41 83/160/41
f 24/143/42 25/159/42 83/160/42 82/144/42
f 27/161/43 28/162/43 86/163/43 85/164/43
f 28/162/44 29/165/44 87/166/44 86/163/44
f 172/167/45 45/151/45 103/154/45 246/168/45
f 42/169/46 43/170/46 101/171/46 100/172/46
f 176/173/47 42/169/47 100/172/47 250/174/47
f 31/175/48 179/176/48 253/177/48 89/178/48
f 40/179/49 41/180/49 99/181/49 98/182/49
f 32/183/50 33/184/50 91/185/50 90/186/50
f 183/187/51 31/175/51 89/178/51 257/188/51
f 29/165/52 30/189/52 88/190/52 87/166/52
f 43/170/53 44/191/53 102/192/53 101/171/53
f 33/184/54 34/193/54 92/194/54 91/185/54
f 39/195/55 40/179/55 98/182/55 97/196/55
f 34/193/56 35/197/56 93/198/56 92/194/56
f 188/199/57 39/195/57 97/196/57 262/200/57
f 35/197/58 36/201/58 94/202/58 93/198/58
f 37/203/59 38/204/59 96/205/59 95/206/59
f 36/201/60 37/203/60 95/206/60 94/202/60
usemtl FrontMat.001
f 126/207/61 124/208/61 123/209/61
f 177/210/61 170/211/61 169/212/61
f 120/213/61 119/214/61 131/215/61
f 174/216/61 173/217/61 164/218/61
f 162/219/61 141/220/61 136/221/61
f 166/222/61 144/223/61 138/224/61
f 160/225/61 161/226/61 155/227/61
f 122/228/61 129/229/61 133/230/61
f 184/231/61 180/232/61 185/233/61
f 138/224/61 144/223/61 140/234/61
f 168/235/61 156/236/61 150/237/61
f 178/238/61 138/224/61 141/220/61
f 158/239/61 160/225/61 157/240/61
f 164/218/61 171/241/61 174/216/61
f 155/227/61 154/242/61 157/240/61
f 173/217/61 175/243/61 141/220/61
f 132/244/61 126/207/61 123/209/61
f 162/219/61 164/218/61 141/220/61
f 140/234/61 134/245/61 135/246/61
f 161/226/61 162/219/61 142/247/61
f 190/248/61 189/249/61 185/233/61
f 160/225/61 155/227/61 157/240/61
f 142/247/61 162/219/61 139/250/61
f 169/212/61 166/222/61 138/224/61
f 165/251/61 168/235/61 150/237/61
f 133/230/61 139/250/61 136/221/61
f 154/242/61 152/252/61 151/253/61
f 178/238/61 177/210/61 138/224/61
f 142/247/61 155/227/61 161/226/61
f 175/243/61 178/238/61 141/220/61
f 138/224/61 140/234/61 135/246/61
f 136/221/61 132/244/61 133/230/61
f 135/246/61 134/245/61 131/215/61
f 173/217/61 141/220/61 164/218/61
f 149/254/61 147/255/61 146/256/61
f 180/232/61 181/257/61 175/243/61
f 181/257/61 178/238/61 175/243/61
f 144/223/61 165/251/61 150/237/61
f 119/214/61 117/258/61 121/259/61
f 162/219/61 136/221/61 139/250/61
f 150/237/61 156/236/61 146/256/61
f 177/210/61 182/260/61 170/211/61
f 119/214/61 121/259/61 131/215/61
f 184/231/61 181/257/61 180/232/61
f 187/261/61 190/248/61 185/233/61
f 189/249/61 184/231/61 185/233/61
f 134/245/61 120/213/61 131/215/61
f 166/222/61 165/251/61 144/223/61
f 123/209/61 122/228/61 132/244/61
f 151/253/61 157/240/61 154/242/61
f 177/210/61 169/212/61 138/224/61
f 122/228/61 133/230/61 132/244/61
f 168/235/61 159/262/61 156/236/61
f 134/245/61 127/263/61 120/213/61
f 186/264/61 184/231/61 189/249/61
f 156/236/61 149/254/61 146/256/61
