# Blender v2.83.1 OBJ File: 'jigsaw-96x54-3-step2.blend'
# www.blender.org
mtllib piece.1188.mtl
o path2376
v -0.157565 0.037500 -0.472717
v -0.070595 0.037500 -0.490952
v -0.059913 0.037500 -0.538979
v -0.084943 0.037500 -0.604561
v -0.086422 0.037500 -0.670288
v -0.024061 0.037500 -0.719486
v 0.066528 0.037500 -0.738430
v 0.130761 0.037500 -0.714142
v 0.132460 0.037500 -0.642029
v 0.109102 0.037500 -0.551121
v 0.116577 0.037500 -0.478836
v 0.193463 0.037500 -0.452633
v 0.309096 0.037500 -0.460064
v 0.501307 0.037500 -0.495541
v 0.545437 0.037500 -0.286034
v 0.557872 0.037500 -0.161499
v 0.534504 0.037500 -0.082054
v 0.460606 0.037500 -0.081963
v 0.361703 0.037500 -0.117538
v 0.273381 0.037500 -0.125607
v 0.224958 0.037500 -0.063408
v 0.220682 0.037500 0.030106
v 0.258526 0.037500 0.095577
v 0.332062 0.037500 0.093800
v 0.417244 0.037500 0.066208
v 0.485619 0.037500 0.074398
v 0.516313 0.037500 0.160717
v 0.518770 0.037500 0.290554
v 0.501307 0.037500 0.506367
v 0.179741 0.037500 0.481632
v 0.102384 0.037500 0.503239
v 0.100316 0.037500 0.558113
v 0.130802 0.037500 0.628086
v 0.132274 0.037500 0.688206
v 0.063654 0.037500 0.717896
v -0.034184 0.037500 0.714031
v -0.099877 0.037500 0.677856
v -0.093209 0.037500 0.614441
v -0.058530 0.037500 0.544132
v -0.061332 0.037500 0.491100
v -0.146810 0.037500 0.472698
v -0.500390 0.037500 0.506367
v -0.521341 0.037500 0.279041
v -0.520546 0.037500 0.142330
v -0.489972 0.037500 0.051544
v -0.419689 0.037500 0.043289
v -0.333292 0.037500 0.073437
v -0.262753 0.037500 0.077675
v -0.234143 0.037500 0.012371
v -0.249890 0.037500 -0.083447
v -0.306518 0.037500 -0.150085
v -0.395706 0.037500 -0.147781
v -0.489755 0.037500 -0.116566
v -0.556114 0.037500 -0.116409
v -0.571910 0.037500 -0.189037
v -0.552959 0.037500 -0.303246
v -0.500390 0.037500 -0.495541
v -0.157565 -0.037500 -0.472717
v -0.070595 -0.037500 -0.490952
v -0.059913 -0.037500 -0.538979
v -0.084943 -0.037498 -0.604561
v -0.086422 -0.037500 -0.670288
v -0.024061 -0.037500 -0.719486
v 0.066528 -0.037498 -0.738430
v 0.130761 -0.037500 -0.714142
v 0.132460 -0.037500 -0.642029
v 0.109102 -0.037500 -0.551121
v 0.116577 -0.037500 -0.478836
v 0.193463 -0.037500 -0.452633
v 0.309096 -0.037498 -0.460064
v 0.501307 -0.037500 -0.495541
v 0.545437 -0.037500 -0.286034
v 0.557872 -0.037500 -0.161499
v 0.534504 -0.037498 -0.082054
v 0.460606 -0.037500 -0.081963
v 0.361703 -0.037498 -0.117538
v 0.273381 -0.037500 -0.125607
v 0.224958 -0.037498 -0.063408
v 0.220682 -0.037500 0.030106
v 0.258526 -0.037500 0.095577
v 0.332062 -0.037500 0.093800
v 0.417244 -0.037500 0.066208
v 0.485619 -0.037500 0.074398
v 0.516313 -0.037500 0.160717
v 0.518770 -0.037500 0.290554
v 0.501307 -0.037500 0.506367
v 0.179741 -0.037500 0.481632
v 0.102384 -0.037500 0.503239
v 0.100316 -0.037500 0.558113
v 0.130802 -0.037500 0.628086
v 0.132274 -0.037500 0.688206
v 0.063654 -0.037500 0.717896
v -0.034184 -0.037500 0.714031
v -0.099877 -0.037498 0.677856
v -0.093209 -0.037500 0.614441
v -0.058530 -0.037500 0.544132
v -0.061332 -0.037500 0.491100
v -0.146810 -0.037498 0.472698
v -0.500390 -0.037500 0.506367
v -0.521341 -0.037498 0.279041
v -0.520546 -0.037500 0.142330
v -0.489972 -0.037500 0.051544
v -0.419689 -0.037498 0.043289
v -0.333292 -0.037500 0.073437
v -0.262753 -0.037500 0.077675
v -0.234143 -0.037498 0.012371
v -0.249890 -0.037500 -0.083447
v -0.306518 -0.037500 -0.150085
v -0.395706 -0.037500 -0.147781
v -0.489755 -0.037500 -0.116566
v -0.556114 -0.037500 -0.116409
v -0.571910 -0.037500 -0.189037
v -0.552959 -0.037500 -0.303246
v -0.500390 -0.037498 -0.495541
v 0.545437 0.037500 -0.286034
v 0.557872 0.037500 -0.161499
v 0.534504 0.037500 -0.082054
v 0.534504 0.037500 -0.082054
v 0.460606 0.037500 -0.081963
v 0.501307 0.037500 -0.495541
v 0.501307 0.037500 -0.495541
v 0.516313 0.037500 0.160717
v 0.518770 0.037500 0.290554
v 0.485619 0.037500 0.074398
v 0.485619 0.037500 0.074398
v 0.501307 0.037500 0.506367
v 0.501307 0.037500 0.506367
v 0.417244 0.037500 0.066208
v 0.361703 0.037500 -0.117538
v 0.332062 0.037500 0.093800
v 0.309096 0.037500 -0.460064
v 0.273381 0.037500 -0.125607
v 0.258526 0.037500 0.095577
v 0.258526 0.037500 0.095577
v 0.193463 0.037500 -0.452633
v 0.179741 0.037500 0.481632
v 0.224958 0.037500 -0.063408
v 0.220682 0.037500 0.030106
v 0.116577 0.037500 -0.478836
v 0.116577 0.037500 -0.478836
v 0.102384 0.037500 0.503239
v 0.102384 0.037500 0.503239
v 0.130761 0.037500 -0.714142
v 0.130761 0.037500 -0.714142
v 0.132460 0.037500 -0.642029
v 0.109102 0.037500 -0.551121
v 0.130802 0.037500 0.628086
v 0.132274 0.037500 0.688206
v 0.132274 0.037500 0.688206
v 0.063654 0.037500 0.717896
v 0.100316 0.037500 0.558113
v 0.066528 0.037500 -0.738430
v -0.024061 0.037500 -0.719486
v -0.034184 0.037500 0.714031
v -0.086422 0.037500 -0.670288
v -0.099877 0.037500 0.677856
v -0.099877 0.037500 0.677856
v -0.058530 0.037500 0.544132
v -0.061332 0.037500 0.491100
v -0.061332 0.037500 0.491100
v -0.093209 0.037500 0.614441
v -0.084943 0.037500 -0.604561
v -0.059913 0.037500 -0.538979
v -0.070595 0.037500 -0.490952
v -0.070595 0.037500 -0.490952
v -0.146810 0.037500 0.472698
v -0.157565 0.037500 -0.472717
v -0.234143 0.037500 0.012371
v -0.249890 0.037500 -0.083447
v -0.262753 0.037500 0.077675
v -0.262753 0.037500 0.077675
v -0.306518 0.037500 -0.150085
v -0.333292 0.037500 0.073437
v -0.395706 0.037500 -0.147781
v -0.419689 0.037500 0.043289
v -0.489755 0.037500 -0.116566
v -0.489972 0.037500 0.051544
v -0.489972 0.037500 0.051544
v -0.500390 0.037500 0.506367
v -0.500390 0.037500 0.506367
v -0.500390 0.037500 -0.495541
v -0.500390 0.037500 -0.495541
v -0.556114 0.037500 -0.116409
v -0.556114 0.037500 -0.116409
v -0.520546 0.037500 0.142330
v -0.521341 0.037500 0.279041
v -0.552959 0.037500 -0.303246
v -0.571910 0.037500 -0.189037
v 0.545437 -0.037500 -0.286034
v 0.557872 -0.037500 -0.161499
v 0.534504 -0.037498 -0.082054
v 0.534504 -0.037498 -0.082054
v 0.460606 -0.037500 -0.081963
v 0.501307 -0.037500 -0.495541
v 0.501307 -0.037500 -0.495541
v 0.516313 -0.037500 0.160717
v 0.518770 -0.037500 0.290554
v 0.485619 -0.037500 0.074398
v 0.485619 -0.037500 0.074398
v 0.501307 -0.037500 0.506367
v 0.501307 -0.037500 0.506367
v 0.417244 -0.037500 0.066208
v 0.361703 -0.037498 -0.117538
v 0.332062 -0.037500 0.093800
v 0.309096 -0.037498 -0.460064
v 0.273381 -0.037500 -0.125607
v 0.258526 -0.037500 0.095577
v 0.258526 -0.037500 0.095577
v 0.193463 -0.037500 -0.452633
v 0.179741 -0.037500 0.481632
v 0.224958 -0.037498 -0.063408
v 0.220682 -0.037500 0.030106
v 0.116577 -0.037500 -0.478836
v 0.116577 -0.037500 -0.478836
v 0.102384 -0.037500 0.503239
v 0.102384 -0.037500 0.503239
v 0.130761 -0.037500 -0.714142
v 0.130761 -0.037500 -0.714142
v 0.132460 -0.037500 -0.642029
v 0.109102 -0.037500 -0.551121
v 0.130802 -0.037500 0.628086
v 0.132274 -0.037500 0.688206
v 0.132274 -0.037500 0.688206
v 0.063654 -0.037500 0.717896
v 0.100316 -0.037500 0.558113
v 0.066528 -0.037498 -0.738430
v -0.024061 -0.037500 -0.719486
v -0.034184 -0.037500 0.714031
v -0.086422 -0.037500 -0.670288
v -0.099877 -0.037498 0.677856
v -0.099877 -0.037498 0.677856
v -0.058530 -0.037500 0.544132
v -0.061332 -0.037500 0.491100
v -0.061332 -0.037500 0.491100
v -0.093209 -0.037500 0.614441
v -0.084943 -0.037498 -0.604561
v -0.059913 -0.037500 -0.538979
v -0.070595 -0.037500 -0.490952
v -0.070595 -0.037500 -0.490952
v -0.146810 -0.037498 0.472698
v -0.157565 -0.037500 -0.472717
v -0.234143 -0.037498 0.012371
v -0.249890 -0.037500 -0.083447
v -0.262753 -0.037500 0.077675
v -0.262753 -0.037500 0.077675
v -0.306518 -0.037500 -0.150085
v -0.333292 -0.037500 0.073437
v -0.395706 -0.037500 -0.147781
v -0.419689 -0.037498 0.043289
v -0.489755 -0.037500 -0.116566
v -0.489972 -0.037500 0.051544
v -0.489972 -0.037500 0.051544
v -0.500390 -0.037500 0.506367
v -0.500390 -0.037500 0.506367
v -0.500390 -0.037498 -0.495541
v -0.500390 -0.037498 -0.495541
v -0.556114 -0.037500 -0.116409
v -0.556114 -0.037500 -0.116409
v -0.520546 -0.037500 0.142330
v -0.521341 -0.037498 0.279041
v -0.552959 -0.037500 -0.303246
v -0.571910 -0.037500 -0.189037
vt 0.500000 0.500000
vt 0.500000 0.500000
vt 0.500000 0.500000
vt 0.500000 0.500000
vt 0.500000 0.500000
vt 0.500000 0.500000
vt 0.500000 0.500000
vt 0.500000 0.500000
vt 0.500000 0.500000
vt 0.500000 0.500000
vt 0.500000 0.500000
vt 0.500000 0.500000
vt 0.500000 0.500000
vt 0.500000 0.500000
vt 0.500000 0.500000
vt 0.500000 0.500000
vt 0.500000 0.500000
vt 0.500000 0.500000
vt 0.500000 0.500000
vt 0.500000 0.500000
vt 0.500000 0.500000
vt 0.500000 0.500000
vt 0.500000 0.500000
vt 0.500000 0.500000
vt 0.500000 0.500000
vt 0.500000 0.500000
vt 0.500000 0.500000
vt 0.500000 0.500000
vt 0.500000 0.500000
vt 0.500000 0.500000
vt 0.500000 0.500000
vt 0.500000 0.500000
vt 0.500000 0.500000
vt 0.500000 0.500000
vt 0.500000 0.500000
vt 0.500000 0.500000
vt 0.500000 0.500000
vt 0.500000 0.500000
vt 0.500000 0.500000
vt 0.500000 0.500000
vt 0.500000 0.500000
vt 0.500000 0.500000
vt 0.500000 0.500000
vt 0.500000 0.500000
vt 0.500000 0.500000
vt 0.500000 0.500000
vt 0.500000 0.500000
vt 0.500000 0.500000
vt 0.500000 0.500000
vt 0.500000 0.500000
vt 0.500000 0.500000
vt 0.500000 0.500000
vt 0.500000 0.500000
vt 0.500000 0.500000
vt 0.500000 0.500000
vt 0.500000 0.500000
vt 0.500000 0.500000
vt 0.500000 0.500000
vt 0.500000 0.500000
vt 0.500000 0.500000
vt 0.500000 0.500000
vt 0.500000 0.500000
vt 0.500000 0.500000
vt 0.500000 0.500000
vt 0.500000 0.500000
vt 0.500000 0.500000
vt 0.500000 0.500000
vt 0.500000 0.500000
vt 0.500000 0.500000
vt 0.500000 0.500000
vt 0.500000 0.500000
vt 0.500000 0.500000
vt 0.500000 0.500000
vt 0.500000 0.500000
vt 0.500000 0.500000
vt 0.500000 0.500000
vt 0.500000 0.500000
vt 0.500000 0.500000
vt 0.500000 0.500000
vt 0.500000 0.500000
vt 0.500000 0.500000
vt 0.500000 0.500000
vt 0.500000 0.500000
vt 0.500000 0.500000
vt 0.500000 0.500000
vt 0.500000 0.500000
vt 0.500000 0.500000
vt 0.500000 0.500000
vt 0.500000 0.500000
vt 0.500000 0.500000
vt 0.500000 0.500000
vt 0.500000 0.500000
vt 0.500000 0.500000
vt 0.500000 0.500000
vt 0.500000 0.500000
vt 0.500000 0.500000
vt 0.500000 0.500000
vt 0.500000 0.500000
vt 0.500000 0.500000
vt 0.500000 0.500000
vt 0.500000 0.500000
vt 0.500000 0.500000
vt 0.500000 0.500000
vt 0.500000 0.500000
vt 0.500000 0.500000
vt 0.500000 0.500000
vt 0.500000 0.500000
vt 0.500000 0.500000
vt 0.500000 0.500000
vt 0.500000 0.500000
vt 0.500000 0.500000
vt 0.500000 0.500000
vt 0.500000 0.500000
vt 0.500000 0.500000
vt 0.500000 0.500000
vt 0.500000 0.500000
vt 0.500000 0.500000
vt 0.500000 0.500000
vt 0.500000 0.500000
vt 0.500000 0.500000
vt 0.500000 0.500000
vt 0.500000 0.500000
vt 0.500000 0.500000
vt 0.500000 0.500000
vt 0.500000 0.500000
vt 0.500000 0.500000
vt 0.500000 0.500000
vt 0.500000 0.500000
vt 0.500000 0.500000
vt 0.500000 0.500000
vt 0.500000 0.500000
vt 0.500000 0.500000
vt 0.500000 0.500000
vt 0.500000 0.500000
vt 0.500000 0.500000
vt 0.500000 0.500000
vt 0.500000 0.500000
vt 0.500000 0.500000
vt 0.500000 0.500000
vt 0.500000 0.500000
vt 0.500000 0.500000
vt 0.500000 0.500000
vt 0.500000 0.500000
vt 0.500000 0.500000
vt 0.500000 0.500000
vt 0.500000 0.500000
vt 0.500000 0.500000
vt 0.500000 0.500000
vt 0.500000 0.500000
vt 0.500000 0.500000
vt 0.500000 0.500000
vt 0.500000 0.500000
vt 0.500000 0.500000
vt 0.500000 0.500000
vt 0.500000 0.500000
vt 0.500000 0.500000
vt 0.500000 0.500000
vt 0.500000 0.500000
vt 0.500000 0.500000
vt 0.500000 0.500000
vt 0.500000 0.500000
vt 0.500000 0.500000
vt 0.500000 0.500000
vt 0.500000 0.500000
vt 0.500000 0.500000
vt 0.500000 0.500000
vt 0.500000 0.500000
vt 0.500000 0.500000
vt 0.500000 0.500000
vt 0.500000 0.500000
vt 0.500000 0.500000
vt 0.500000 0.500000
vt 0.500000 0.500000
vt 0.500000 0.500000
vt 0.500000 0.500000
vt 0.500000 0.500000
vt 0.500000 0.500000
vt 0.500000 0.500000
vt 0.500000 0.500000
vt 0.500000 0.500000
vt 0.500000 0.500000
vt 0.500000 0.500000
vt 0.500000 0.500000
vt 0.500000 0.500000
vt 0.500000 0.500000
vt 0.500000 0.500000
vt 0.500000 0.500000
vt 0.500000 0.500000
vt 0.500000 0.500000
vt 0.500000 0.500000
vt 0.500000 0.500000
vt 0.500000 0.500000
vt 0.500000 0.500000
vt 0.500000 0.500000
vt 0.500000 0.500000
vt 0.500000 0.500000
vt 0.500000 0.500000
vt 0.500000 0.500000
vt 0.500000 0.500000
vt 0.500000 0.500000
vt 0.500000 0.500000
vt 0.500000 0.500000
vt 0.500000 0.500000
vt 0.500000 0.500000
vt 0.500000 0.500000
vt 0.370048 0.772590
vt 0.369076 0.772669
vt 0.369864 0.764181
vt 0.368513 0.775197
vt 0.368056 0.778824
vt 0.366762 0.778594
vt 0.364006 0.770527
vt 0.363060 0.770959
vt 0.362255 0.768065
vt 0.374650 0.765796
vt 0.374841 0.767376
vt 0.370543 0.763652
vt 0.363450 0.766940
vt 0.362767 0.766912
vt 0.375393 0.767428
vt 0.374968 0.770403
vt 0.364757 0.770665
vt 0.368429 0.773564
vt 0.365029 0.772087
vt 0.368883 0.777025
vt 0.368882 0.778391
vt 0.376124 0.766787
vt 0.376783 0.766663
vt 0.377159 0.767878
vt 0.364952 0.774224
vt 0.370711 0.774649
vt 0.371406 0.778055
vt 0.370424 0.776224
vt 0.377199 0.769687
vt 0.375538 0.770365
vt 0.374743 0.771833
vt 0.375000 0.777778
vt 0.372756 0.778101
vt 0.368175 0.762843
vt 0.368868 0.763890
vt 0.364821 0.765597
vt 0.370729 0.773289
vt 0.364631 0.767205
vt 0.368524 0.759456
vt 0.368199 0.761195
vt 0.367770 0.757937
vt 0.370509 0.777488
vt 0.364132 0.767402
vt 0.362058 0.769740
vt 0.370499 0.762348
vt 0.370185 0.760751
vt 0.371215 0.758887
vt 0.366583 0.758287
vt 0.364583 0.777778
vt 0.364583 0.759259
vt 0.368525 0.758229
vt 0.376891 0.770955
vt 0.376265 0.770928
vt 0.372637 0.758872
vt 0.370271 0.759452
vt 0.375000 0.759259
vt 0.362311 0.770927
vn -0.0000 -1.0000 -0.0000
vn -0.0001 -1.0000 0.0000
vn 0.9951 0.0000 -0.0994
vn 0.9594 0.0000 0.2822
vn 0.0012 0.0000 1.0000
vn 0.9785 0.0000 -0.2061
vn 0.9998 0.0000 -0.0189
vn 0.9422 0.0000 -0.3350
vn 0.9967 0.0000 0.0807
vn 0.1189 0.0000 -0.9929
vn -0.3385 0.0000 0.9410
vn -0.3082 0.0000 -0.9513
vn -0.1815 0.0000 -0.9834
vn -0.0910 0.0000 0.9959
vn -0.0242 0.0000 -0.9997
vn -0.0641 0.0000 -0.9979
vn -0.0767 0.0000 0.9971
vn 0.7891 0.0000 0.6143
vn 0.8658 0.0000 -0.5004
vn 0.9990 0.0000 0.0457
vn 0.3226 0.0000 -0.9465
vn 0.2690 0.0000 0.9631
vn 0.9997 0.0000 -0.0235
vn 0.9685 0.0000 0.2489
vn 0.9997 0.0000 -0.0245
vn 0.3971 0.0000 0.9178
vn 0.9168 0.0000 -0.3994
vn 0.3537 0.0000 -0.9354
vn 0.9947 0.0000 -0.1029
vn 0.9993 0.0000 0.0377
vn -0.2047 0.0000 -0.9788
vn -0.0395 0.0000 0.9992
vn -0.6194 0.0000 -0.7851
vn -0.4824 0.0000 0.8760
vn -0.9986 0.0000 0.0528
vn -0.8968 0.0000 -0.4424
vn -0.9945 0.0000 -0.1046
vn -0.9997 0.0000 0.0225
vn -0.9343 0.0000 0.3566
vn -0.9761 0.0000 -0.2171
vn -0.2105 0.0000 0.9776
vn -0.2052 0.0000 -0.9787
vn -0.9868 0.0000 0.1622
vn -0.9160 0.0000 -0.4013
vn -0.7620 0.0000 0.6475
vn 0.0600 0.0000 -0.9982
vn 0.0258 0.0000 0.9997
vn 0.3295 0.0000 -0.9442
vn 0.3150 0.0000 0.9491
vn -0.1167 0.0000 -0.9932
vn 0.0948 0.0000 0.9955
vn 0.0664 0.0000 -0.9978
vn 0.0024 0.0000 1.0000
vn -0.9477 0.0000 -0.3192
vn -1.0000 0.0000 -0.0058
vn -0.9958 0.0000 0.0918
vn -0.9646 0.0000 -0.2637
vn -0.9865 0.0000 -0.1637
vn -0.9772 0.0000 0.2125
vn 0.0000 1.0000 0.0000
usemtl BackMat.001
s off
f 212/1/1 242/2/1 211/3/1
f 203/4/1 189/5/1 190/6/1
f 220/7/1 227/8/1 219/9/1
f 240/10/1 244/11/1 233/12/1
f 220/7/1 236/13/1 227/8/1
f 244/11/1 242/2/1 212/1/1
f 229/14/1 227/8/1 236/13/1
f 233/12/1 215/15/1 232/16/1
f 213/17/1 209/18/1 206/19/1
f 193/20/1 190/6/1 191/21/1
f 235/22/2 228/23/2 230/24/2
f 206/19/1 209/18/1 205/25/1
f 204/26/1 202/27/1 196/28/1
f 228/23/1 225/29/1 224/30/1
f 210/31/1 197/32/1 200/33/1
f 189/5/1 203/4/1 205/25/1
f 246/34/1 241/35/1 243/36/1
f 215/15/1 207/37/1 210/31/1
f 211/3/1 238/38/1 213/17/1
f 232/16/1 228/23/1 235/22/1
f 210/31/1 204/26/1 197/32/1
f 207/37/1 204/26/1 210/31/1
f 250/39/1 262/40/1 248/41/1
f 233/12/1 244/11/1 207/37/1
f 196/28/1 202/27/1 198/42/1
f 213/17/1 237/43/1 220/7/1
f 219/9/1 227/8/1 226/44/1
f 247/45/1 259/46/1 249/47/1
f 207/37/1 244/11/1 212/1/1
f 261/48/1 248/41/1 262/40/1
f 238/38/1 237/43/1 213/17/1
f 236/13/1 220/7/1 237/43/1
f 197/32/1 204/26/1 196/28/1
f 233/12/1 207/37/1 215/15/1
f 189/5/1 205/25/1 194/49/1
f 241/35/1 246/34/1 255/50/1
f 203/4/1 190/6/1 193/20/1
f 248/41/1 261/48/1 246/34/1
f 257/51/1 262/40/1 250/39/1
f 255/50/1 246/34/1 261/48/1
f 242/2/1 243/36/1 211/3/1
f 232/16/1 225/29/1 228/23/1
f 243/36/1 238/38/1 211/3/1
f 224/30/1 221/52/1 222/53/1
f 211/3/1 213/17/1 206/19/1
f 224/30/1 225/29/1 221/52/1
f 206/19/1 205/25/1 203/4/1
f 260/54/1 244/11/1 240/10/1
f 215/15/1 225/29/1 232/16/1
f 249/47/1 259/46/1 251/55/1
f 260/54/1 240/10/1 253/56/1
f 219/9/1 226/44/1 217/57/1
f 260/54/1 247/45/1 244/11/1
f 238/38/1 243/36/1 241/35/1
f 259/46/1 247/45/1 260/54/1
f 15/58/3 16/59/3 73/60/3 72/61/3
f 16/59/4 118/62/4 192/63/4 73/60/4
f 17/64/5 18/65/5 75/66/5 74/67/5
f 121/68/6 15/58/6 72/61/6 195/69/6
f 27/70/7 28/71/7 85/72/7 84/73/7
f 125/74/8 27/70/8 84/73/8 199/75/8
f 28/71/9 127/76/9 201/77/9 85/72/9
f 25/78/10 26/79/10 83/80/10 82/81/10
f 18/65/11 19/82/11 76/83/11 75/66/11
f 24/84/12 25/78/12 82/81/12 81/85/12
f 13/86/13 14/87/13 71/88/13 70/89/13
f 19/82/14 20/90/14 77/91/14 76/83/14
f 134/92/15 24/84/15 81/85/15 208/93/15
f 12/94/16 13/86/16 70/89/16 69/95/16
f 29/96/17 30/97/17 87/98/17 86/99/17
f 20/90/18 21/100/18 78/101/18 77/91/18
f 22/102/19 23/103/19 80/104/19 79/105/19
f 21/100/20 22/102/20 79/105/20 78/101/20
f 140/106/21 12/94/21 69/95/21 214/107/21
f 30/97/22 142/108/22 216/109/22 87/98/22
f 144/110/23 9/111/23 66/112/23 218/113/23
f 9/111/24 10/114/24 67/115/24 66/112/24
f 33/116/25 149/117/25 223/118/25 90/119/25
f 34/120/26 35/121/26 92/122/26 91/123/26
f 32/124/27 33/116/27 90/119/27 89/125/27
f 7/126/28 8/127/28 65/128/28 64/129/28
f 10/114/29 11/130/29 68/131/29 67/115/29
f 31/132/30 32/124/30 89/125/30 88/133/30
f 6/134/31 7/126/31 64/129/31 63/135/31
f 35/121/32 36/136/32 93/137/32 92/122/32
f 5/138/33 6/134/33 63/135/33 62/139/33
f 36/136/34 157/140/34 231/141/34 93/137/34
f 39/142/35 160/143/35 234/144/35 96/145/35
f 38/146/36 39/142/36 96/145/36 95/147/36
f 37/148/37 38/146/37 95/147/37 94/149/37
f 4/150/38 5/138/38 62/139/38 61/151/38
f 3/152/39 4/150/39 61/151/39 60/153/39
f 165/154/40 3/152/40 60/153/40 239/155/40
f 40/156/41 41/157/41 98/158/41 97/159/41
f 1/160/42 2/161/42 59/162/42 58/163/42
f 49/164/43 50/165/43 107/166/43 106/167/43
f 171/168/44 49/164/44 106/167/44 245/169/44
f 50/165/45 51/170/45 108/171/45 107/166/45
f 47/172/46 48/173/46 105/174/46 104/175/46
f 51/170/47 52/176/47 109/177/47 108/171/47
f 46/178/48 47/172/48 104/175/48 103/179/48
f 52/176/49 53/180/49 110/181/49 109/177/49
f 178/182/50 46/178/50 103/179/50 252/183/50
f 41/157/51 180/184/51 254/185/51 98/158/51
f 182/186/52 1/160/52 58/163/52 256/187/52
f 53/180/53 184/188/53 258/189/53 110/181/53
f 44/190/54 45/191/54 102/192/54 101/193/54
f 43/194/55 44/190/55 101/193/55 100/195/55
f 42/196/56 43/194/56 100/195/56 99/197/56
f 56/198/57 57/199/57 114/200/57 113/201/57
f 55/202/58 56/198/58 113/201/58 112/203/58
f 54/204/59 55/202/59 112/203/59 111/205/59
usemtl FrontMat.001
f 138/206/60 137/207/60 168/208/60
f 129/209/60 116/210/60 115/211/60
f 146/212/60 145/213/60 153/214/60
f 166/215/60 159/216/60 170/217/60
f 146/212/60 153/214/60 162/218/60
f 170/217/60 138/206/60 168/208/60
f 155/219/60 162/218/60 153/214/60
f 159/216/60 158/220/60 141/221/60
f 139/222/60 132/223/60 135/224/60
f 119/225/60 117/226/60 116/210/60
f 161/227/60 156/228/60 154/229/60
f 132/223/60 131/230/60 135/224/60
f 130/231/60 122/232/60 128/233/60
f 154/229/60 150/234/60 151/235/60
f 136/236/60 126/237/60 123/238/60
f 115/211/60 131/230/60 129/209/60
f 172/239/60 169/240/60 167/241/60
f 141/221/60 136/236/60 133/242/60
f 137/207/60 139/222/60 164/243/60
f 158/220/60 161/227/60 154/229/60
f 136/236/60 123/238/60 130/231/60
f 133/242/60 136/236/60 130/231/60
f 176/244/60 174/245/60 188/246/60
f 159/216/60 133/242/60 170/217/60
f 122/232/60 124/247/60 128/233/60
f 139/222/60 146/212/60 163/248/60
f 145/213/60 152/249/60 153/214/60
f 173/250/60 175/251/60 185/252/60
f 133/242/60 138/206/60 170/217/60
f 187/253/60 188/246/60 174/245/60
f 164/243/60 139/222/60 163/248/60
f 162/218/60 163/248/60 146/212/60
f 123/238/60 122/232/60 130/231/60
f 159/216/60 141/221/60 133/242/60
f 115/211/60 120/254/60 131/230/60
f 167/241/60 181/255/60 172/239/60
f 129/209/60 119/225/60 116/210/60
f 174/245/60 172/239/60 187/253/60
f 183/256/60 176/244/60 188/246/60
f 181/255/60 187/253/60 172/239/60
f 168/208/60 137/207/60 169/240/60
f 158/220/60 154/229/60 151/235/60
f 169/240/60 137/207/60 164/243/60
f 150/234/60 148/257/60 147/258/60
f 137/207/60 132/223/60 139/222/60
f 150/234/60 147/258/60 151/235/60
f 132/223/60 129/209/60 131/230/60
f 186/259/60 166/215/60 170/217/60
f 141/221/60 158/220/60 151/235/60
f 175/251/60 177/260/60 185/252/60
f 186/259/60 179/261/60 166/215/60
f 145/213/60 143/262/60 152/249/60
f 186/259/60 170/217/60 173/250/60
f 164/243/60 167/241/60 169/240/60
f 185/252/60 186/259/60 173/250/60
