# Blender v2.83.1 OBJ File: 'jigsaw-96x54-3-step2.blend'
# www.blender.org
mtllib piece.3712.mtl
o path7424
v 0.155949 0.037500 0.474255
v 0.067776 0.037500 0.493153
v 0.055267 0.037500 0.544933
v 0.077751 0.037500 0.615032
v 0.075893 0.037500 0.682835
v 0.009876 0.037500 0.729710
v -0.081799 0.037500 0.744915
v -0.141090 0.037500 0.719685
v -0.130188 0.037500 0.652191
v -0.092194 0.037500 0.568283
v -0.090439 0.037500 0.500721
v -0.168694 0.037500 0.473637
v -0.292572 0.037500 0.476494
v -0.501568 0.037500 0.502682
v -0.548080 0.037500 0.178860
v -0.532558 0.037500 0.102234
v -0.478733 0.037500 0.102600
v -0.403339 0.037500 0.135738
v -0.330238 0.037500 0.138138
v -0.280727 0.037500 0.067574
v -0.265770 0.037500 -0.032993
v -0.293758 0.037500 -0.099312
v -0.365803 0.037500 -0.089291
v -0.453896 0.037500 -0.049602
v -0.522751 0.037500 -0.049091
v -0.546623 0.037500 -0.135345
v -0.537956 0.037500 -0.270943
v -0.501568 0.037500 -0.499229
v -0.295506 0.037500 -0.451149
v -0.173565 0.037500 -0.436447
v -0.097031 0.037500 -0.458565
v -0.099621 0.037500 -0.532669
v -0.136292 0.037500 -0.631065
v -0.142307 0.037500 -0.715355
v -0.074326 0.037500 -0.754562
v 0.025391 0.037500 -0.747467
v 0.093182 0.037500 -0.700302
v 0.087112 0.037500 -0.622879
v 0.052139 0.037500 -0.539322
v 0.054947 0.037500 -0.477325
v 0.141590 0.037500 -0.456657
v 0.500130 0.037500 -0.499229
v 0.544678 0.037500 -0.133129
v 0.529934 0.037500 -0.042313
v 0.478783 0.037500 -0.035015
v 0.408070 0.037500 -0.066692
v 0.341599 0.037500 -0.072453
v 0.300011 0.037500 -0.008461
v 0.291286 0.037500 0.084812
v 0.320251 0.037500 0.145817
v 0.385880 0.037500 0.134129
v 0.463715 0.037500 0.093765
v 0.523464 0.037500 0.089855
v 0.543156 0.037500 0.167541
v 0.534149 0.037500 0.292011
v 0.500130 0.037500 0.502682
v 0.155949 -0.037500 0.474255
v 0.067776 -0.037500 0.493153
v 0.055267 -0.037500 0.544933
v 0.077751 -0.037500 0.615032
v 0.075893 -0.037500 0.682835
v 0.009876 -0.037500 0.729710
v -0.081799 -0.037500 0.744915
v -0.141090 -0.037500 0.719685
v -0.130188 -0.037500 0.652191
v -0.092194 -0.037500 0.568283
v -0.090439 -0.037500 0.500721
v -0.168694 -0.037498 0.473637
v -0.292572 -0.037500 0.476494
v -0.501568 -0.037498 0.502682
v -0.548080 -0.037500 0.178860
v -0.532558 -0.037498 0.102234
v -0.478733 -0.037500 0.102600
v -0.403339 -0.037500 0.135738
v -0.330238 -0.037500 0.138138
v -0.280727 -0.037500 0.067574
v -0.265770 -0.037498 -0.032993
v -0.293758 -0.037498 -0.099312
v -0.365803 -0.037500 -0.089291
v -0.453896 -0.037500 -0.049602
v -0.522751 -0.037500 -0.049091
v -0.546623 -0.037500 -0.135345
v -0.537956 -0.037500 -0.270943
v -0.501568 -0.037500 -0.499229
v -0.295506 -0.037500 -0.451149
v -0.173565 -0.037500 -0.436447
v -0.097031 -0.037500 -0.458565
v -0.099621 -0.037498 -0.532669
v -0.136292 -0.037500 -0.631065
v -0.142307 -0.037500 -0.715355
v -0.074326 -0.037500 -0.754562
v 0.025391 -0.037500 -0.747467
v 0.093182 -0.037500 -0.700302
v 0.087112 -0.037500 -0.622879
v 0.052139 -0.037500 -0.539322
v 0.054947 -0.037500 -0.477325
v 0.141590 -0.037500 -0.456657
v 0.500130 -0.037500 -0.499229
v 0.544678 -0.037498 -0.133129
v 0.529934 -0.037500 -0.042313
v 0.478783 -0.037500 -0.035015
v 0.408070 -0.037498 -0.066692
v 0.341599 -0.037500 -0.072453
v 0.300011 -0.037500 -0.008461
v 0.291286 -0.037500 0.084812
v 0.320251 -0.037500 0.145817
v 0.385880 -0.037500 0.134129
v 0.463715 -0.037500 0.093765
v 0.523464 -0.037500 0.089855
v 0.543156 -0.037500 0.167541
v 0.534149 -0.037500 0.292011
v 0.500130 -0.037500 0.502682
v -0.548080 0.037500 0.178860
v -0.532558 0.037500 0.102234
v -0.532558 0.037500 0.102234
v -0.522751 0.037500 -0.049091
v -0.522751 0.037500 -0.049091
v -0.546623 0.037500 -0.135345
v -0.537956 0.037500 -0.270943
v -0.478733 0.037500 0.102600
v -0.453896 0.037500 -0.049602
v -0.501568 0.037500 0.502682
v -0.501568 0.037500 0.502682
v -0.501568 0.037500 -0.499229
v -0.501568 0.037500 -0.499229
v -0.403339 0.037500 0.135738
v -0.365803 0.037500 -0.089291
v -0.295506 0.037500 -0.451149
v -0.292572 0.037500 0.476494
v -0.330238 0.037500 0.138138
v -0.293758 0.037500 -0.099312
v -0.293758 0.037500 -0.099312
v -0.280727 0.037500 0.067574
v -0.173565 0.037500 -0.436447
v -0.265770 0.037500 -0.032993
v -0.168694 0.037500 0.473637
v -0.097031 0.037500 -0.458565
v -0.097031 0.037500 -0.458565
v -0.090439 0.037500 0.500721
v -0.090439 0.037500 0.500721
v -0.136292 0.037500 -0.631065
v -0.142307 0.037500 -0.715355
v -0.142307 0.037500 -0.715355
v -0.074326 0.037500 -0.754562
v -0.081799 0.037500 0.744915
v -0.141090 0.037500 0.719685
v -0.141090 0.037500 0.719685
v -0.130188 0.037500 0.652191
v -0.099621 0.037500 -0.532669
v -0.092194 0.037500 0.568283
v 0.009876 0.037500 0.729710
v 0.025391 0.037500 -0.747467
v 0.075893 0.037500 0.682835
v 0.093182 0.037500 -0.700302
v 0.052139 0.037500 -0.539322
v 0.054947 0.037500 -0.477325
v 0.054947 0.037500 -0.477325
v 0.087112 0.037500 -0.622879
v 0.141590 0.037500 -0.456657
v 0.077751 0.037500 0.615032
v 0.055267 0.037500 0.544933
v 0.067776 0.037500 0.493153
v 0.067776 0.037500 0.493153
v 0.155949 0.037500 0.474255
v 0.300011 0.037500 -0.008461
v 0.291286 0.037500 0.084812
v 0.320251 0.037500 0.145817
v 0.320251 0.037500 0.145817
v 0.341599 0.037500 -0.072453
v 0.341599 0.037500 -0.072453
v 0.385880 0.037500 0.134129
v 0.408070 0.037500 -0.066692
v 0.463715 0.037500 0.093765
v 0.478783 0.037500 -0.035015
v 0.523464 0.037500 0.089855
v 0.523464 0.037500 0.089855
v 0.500130 0.037500 -0.499229
v 0.500130 0.037500 -0.499229
v 0.500130 0.037500 0.502682
v 0.500130 0.037500 0.502682
v 0.529934 0.037500 -0.042313
v 0.529934 0.037500 -0.042313
v 0.534149 0.037500 0.292011
v 0.543156 0.037500 0.167541
v 0.544678 0.037500 -0.133129
v -0.548080 -0.037500 0.178860
v -0.532558 -0.037498 0.102234
v -0.532558 -0.037498 0.102234
v -0.522751 -0.037500 -0.049091
v -0.522751 -0.037500 -0.049091
v -0.546623 -0.037500 -0.135345
v -0.537956 -0.037500 -0.270943
v -0.478733 -0.037500 0.102600
v -0.453896 -0.037500 -0.049602
v -0.501568 -0.037498 0.502682
v -0.501568 -0.037498 0.502682
v -0.501568 -0.037500 -0.499229
v -0.501568 -0.037500 -0.499229
v -0.403339 -0.037500 0.135738
v -0.365803 -0.037500 -0.089291
v -0.295506 -0.037500 -0.451149
v -0.292572 -0.037500 0.476494
v -0.330238 -0.037500 0.138138
v -0.293758 -0.037498 -0.099312
v -0.293758 -0.037498 -0.099312
v -0.280727 -0.037500 0.067574
v -0.173565 -0.037500 -0.436447
v -0.265770 -0.037498 -0.032993
v -0.168694 -0.037498 0.473637
v -0.097031 -0.037500 -0.458565
v -0.097031 -0.037500 -0.458565
v -0.090439 -0.037500 0.500721
v -0.090439 -0.037500 0.500721
v -0.136292 -0.037500 -0.631065
v -0.142307 -0.037500 -0.715355
v -0.142307 -0.037500 -0.715355
v -0.074326 -0.037500 -0.754562
v -0.081799 -0.037500 0.744915
v -0.141090 -0.037500 0.719685
v -0.141090 -0.037500 0.719685
v -0.130188 -0.037500 0.652191
v -0.099621 -0.037498 -0.532669
v -0.092194 -0.037500 0.568283
v 0.009876 -0.037500 0.729710
v 0.025391 -0.037500 -0.747467
v 0.075893 -0.037500 0.682835
v 0.093182 -0.037500 -0.700302
v 0.052139 -0.037500 -0.539322
v 0.054947 -0.037500 -0.477325
v 0.054947 -0.037500 -0.477325
v 0.087112 -0.037500 -0.622879
v 0.141590 -0.037500 -0.456657
v 0.077751 -0.037500 0.615032
v 0.055267 -0.037500 0.544933
v 0.067776 -0.037500 0.493153
v 0.067776 -0.037500 0.493153
v 0.155949 -0.037500 0.474255
v 0.300011 -0.037500 -0.008461
v 0.291286 -0.037500 0.084812
v 0.320251 -0.037500 0.145817
v 0.320251 -0.037500 0.145817
v 0.341599 -0.037500 -0.072453
v 0.341599 -0.037500 -0.072453
v 0.385880 -0.037500 0.134129
v 0.408070 -0.037498 -0.066692
v 0.463715 -0.037500 0.093765
v 0.478783 -0.037500 -0.035015
v 0.523464 -0.037500 0.089855
v 0.523464 -0.037500 0.089855
v 0.500130 -0.037500 -0.499229
v 0.500130 -0.037500 -0.499229
v 0.500130 -0.037500 0.502682
v 0.500130 -0.037500 0.502682
v 0.529934 -0.037500 -0.042313
v 0.529934 -0.037500 -0.042313
v 0.534149 -0.037500 0.292011
v 0.543156 -0.037500 0.167541
v 0.544678 -0.037498 -0.133129
vt 0.500000 0.500000
vt 0.500000 0.500000
vt 0.500000 0.500000
vt 0.500000 0.500000
vt 0.500000 0.500000
vt 0.500000 0.500000
vt 0.500000 0.500000
vt 0.500000 0.500000
vt 0.500000 0.500000
vt 0.500000 0.500000
vt 0.500000 0.500000
vt 0.500000 0.500000
vt 0.500000 0.500000
vt 0.500000 0.500000
vt 0.500000 0.500000
vt 0.500000 0.500000
vt 0.500000 0.500000
vt 0.500000 0.500000
vt 0.500000 0.500000
vt 0.500000 0.500000
vt 0.500000 0.500000
vt 0.500000 0.500000
vt 0.500000 0.500000
vt 0.500000 0.500000
vt 0.500000 0.500000
vt 0.500000 0.500000
vt 0.500000 0.500000
vt 0.500000 0.500000
vt 0.500000 0.500000
vt 0.500000 0.500000
vt 0.500000 0.500000
vt 0.500000 0.500000
vt 0.500000 0.500000
vt 0.500000 0.500000
vt 0.500000 0.500000
vt 0.500000 0.500000
vt 0.500000 0.500000
vt 0.500000 0.500000
vt 0.500000 0.500000
vt 0.500000 0.500000
vt 0.500000 0.500000
vt 0.500000 0.500000
vt 0.500000 0.500000
vt 0.500000 0.500000
vt 0.500000 0.500000
vt 0.500000 0.500000
vt 0.500000 0.500000
vt 0.500000 0.500000
vt 0.500000 0.500000
vt 0.500000 0.500000
vt 0.500000 0.500000
vt 0.500000 0.500000
vt 0.500000 0.500000
vt 0.500000 0.500000
vt 0.500000 0.500000
vt 0.500000 0.500000
vt 0.500000 0.500000
vt 0.500000 0.500000
vt 0.500000 0.500000
vt 0.500000 0.500000
vt 0.500000 0.500000
vt 0.500000 0.500000
vt 0.500000 0.500000
vt 0.500000 0.500000
vt 0.500000 0.500000
vt 0.500000 0.500000
vt 0.500000 0.500000
vt 0.500000 0.500000
vt 0.500000 0.500000
vt 0.500000 0.500000
vt 0.500000 0.500000
vt 0.500000 0.500000
vt 0.500000 0.500000
vt 0.500000 0.500000
vt 0.500000 0.500000
vt 0.500000 0.500000
vt 0.500000 0.500000
vt 0.500000 0.500000
vt 0.500000 0.500000
vt 0.500000 0.500000
vt 0.500000 0.500000
vt 0.500000 0.500000
vt 0.500000 0.500000
vt 0.500000 0.500000
vt 0.500000 0.500000
vt 0.500000 0.500000
vt 0.500000 0.500000
vt 0.500000 0.500000
vt 0.500000 0.500000
vt 0.500000 0.500000
vt 0.500000 0.500000
vt 0.500000 0.500000
vt 0.500000 0.500000
vt 0.500000 0.500000
vt 0.500000 0.500000
vt 0.500000 0.500000
vt 0.500000 0.500000
vt 0.500000 0.500000
vt 0.500000 0.500000
vt 0.500000 0.500000
vt 0.500000 0.500000
vt 0.500000 0.500000
vt 0.500000 0.500000
vt 0.500000 0.500000
vt 0.500000 0.500000
vt 0.500000 0.500000
vt 0.500000 0.500000
vt 0.500000 0.500000
vt 0.500000 0.500000
vt 0.500000 0.500000
vt 0.500000 0.500000
vt 0.500000 0.500000
vt 0.500000 0.500000
vt 0.500000 0.500000
vt 0.500000 0.500000
vt 0.500000 0.500000
vt 0.500000 0.500000
vt 0.500000 0.500000
vt 0.500000 0.500000
vt 0.500000 0.500000
vt 0.500000 0.500000
vt 0.500000 0.500000
vt 0.500000 0.500000
vt 0.500000 0.500000
vt 0.500000 0.500000
vt 0.500000 0.500000
vt 0.500000 0.500000
vt 0.500000 0.500000
vt 0.500000 0.500000
vt 0.500000 0.500000
vt 0.500000 0.500000
vt 0.500000 0.500000
vt 0.500000 0.500000
vt 0.500000 0.500000
vt 0.500000 0.500000
vt 0.500000 0.500000
vt 0.500000 0.500000
vt 0.500000 0.500000
vt 0.500000 0.500000
vt 0.500000 0.500000
vt 0.500000 0.500000
vt 0.500000 0.500000
vt 0.500000 0.500000
vt 0.500000 0.500000
vt 0.500000 0.500000
vt 0.500000 0.500000
vt 0.500000 0.500000
vt 0.500000 0.500000
vt 0.500000 0.500000
vt 0.500000 0.500000
vt 0.500000 0.500000
vt 0.500000 0.500000
vt 0.500000 0.500000
vt 0.500000 0.500000
vt 0.500000 0.500000
vt 0.500000 0.500000
vt 0.500000 0.500000
vt 0.500000 0.500000
vt 0.500000 0.500000
vt 0.500000 0.500000
vt 0.500000 0.500000
vt 0.500000 0.500000
vt 0.500000 0.500000
vt 0.500000 0.500000
vt 0.500000 0.500000
vt 0.500000 0.500000
vt 0.500000 0.500000
vt 0.500000 0.500000
vt 0.500000 0.500000
vt 0.500000 0.500000
vt 0.500000 0.500000
vt 0.500000 0.500000
vt 0.500000 0.500000
vt 0.500000 0.500000
vt 0.500000 0.500000
vt 0.500000 0.500000
vt 0.500000 0.500000
vt 0.500000 0.500000
vt 0.500000 0.500000
vt 0.500000 0.500000
vt 0.500000 0.500000
vt 0.500000 0.500000
vt 0.500000 0.500000
vt 0.500000 0.500000
vt 0.500000 0.500000
vt 0.500000 0.500000
vt 0.500000 0.500000
vt 0.500000 0.500000
vt 0.500000 0.500000
vt 0.500000 0.500000
vt 0.500000 0.500000
vt 0.500000 0.500000
vt 0.500000 0.500000
vt 0.500000 0.500000
vt 0.500000 0.500000
vt 0.500000 0.500000
vt 0.500000 0.500000
vt 0.500000 0.500000
vt 0.500000 0.500000
vt 0.500000 0.500000
vt 0.500000 0.500000
vt 0.500000 0.500000
vt 0.662229 0.280709
vt 0.666224 0.284406
vt 0.661564 0.281477
vt 0.654696 0.289431
vt 0.653732 0.288536
vt 0.653890 0.286841
vt 0.656270 0.288696
vt 0.655568 0.288728
vt 0.655811 0.286002
vt 0.668037 0.289543
vt 0.667014 0.288865
vt 0.667084 0.286060
vt 0.667952 0.285413
vt 0.669248 0.286554
vt 0.654377 0.285621
vt 0.655082 0.285586
vt 0.661987 0.296688
vt 0.661992 0.295415
vt 0.662883 0.297129
vt 0.666167 0.292487
vt 0.666667 0.296296
vt 0.664293 0.296969
vt 0.662405 0.293786
vt 0.662860 0.276954
vt 0.666667 0.277778
vt 0.661840 0.278172
vt 0.661916 0.277227
vt 0.656546 0.284141
vt 0.659960 0.281103
vt 0.660595 0.281639
vt 0.656349 0.285771
vt 0.658440 0.277149
vt 0.666439 0.286008
vt 0.668757 0.285301
vt 0.656250 0.277778
vt 0.660774 0.292214
vt 0.668914 0.289655
vt 0.669321 0.288398
vt 0.656250 0.296296
vt 0.656522 0.292433
vt 0.660065 0.294480
vt 0.662509 0.292455
vt 0.659734 0.276982
vt 0.660542 0.277346
vt 0.660501 0.278451
vt 0.662170 0.279480
vt 0.660082 0.279890
vt 0.666244 0.288818
vt 0.666014 0.290232
vt 0.661819 0.291937
vt 0.660040 0.293129
vt 0.656552 0.290142
vt 0.660410 0.295874
vt 0.660413 0.296869
vt 0.659617 0.297156
vt 0.653994 0.289632
vn 0.0000 -1.0000 0.0000
vn 0.0000 -1.0000 0.0001
vn -0.9801 0.0000 -0.1985
vn -0.9638 0.0000 0.2667
vn -0.9980 0.0000 -0.0638
vn 0.0068 0.0000 -1.0000
vn 0.0074 0.0000 1.0000
vn -0.9898 0.0000 0.1422
vn -0.9875 0.0000 -0.1574
vn 0.4024 0.0000 -0.9155
vn 0.4108 0.0000 0.9117
vn 0.2272 0.0000 -0.9738
vn 0.1243 0.0000 0.9922
vn 0.0328 0.0000 -0.9995
vn 0.1378 0.0000 0.9905
vn -0.8186 0.0000 -0.5744
vn 0.1197 0.0000 -0.9928
vn -0.9213 0.0000 0.3888
vn 0.0231 0.0000 0.9997
vn -0.9891 0.0000 -0.1471
vn -0.2776 0.0000 -0.9607
vn -0.3271 0.0000 0.9450
vn -0.9975 0.0000 0.0712
vn -0.4996 0.0000 -0.8663
vn -0.3916 0.0000 0.9202
vn -0.9872 0.0000 -0.1595
vn -0.9370 0.0000 0.3492
vn -0.9110 0.0000 -0.4125
vn -0.9994 0.0000 0.0349
vn -0.9997 0.0000 -0.0260
vn 0.1636 0.0000 0.9865
vn 0.0710 0.0000 -0.9975
vn 0.5789 0.0000 0.8154
vn 0.5711 0.0000 -0.8209
vn 0.9990 0.0000 -0.0452
vn 0.9225 0.0000 0.3861
vn 0.9969 0.0000 0.0782
vn 0.2320 0.0000 -0.9727
vn 0.9996 0.0000 0.0274
vn 0.9522 0.0000 -0.3054
vn 0.9720 0.0000 0.2348
vn 0.2096 0.0000 0.9778
vn 0.9957 0.0000 0.0931
vn 0.9033 0.0000 -0.4289
vn 0.8385 0.0000 0.5449
vn -0.1753 0.0000 -0.9845
vn -0.0863 0.0000 0.9963
vn -0.4604 0.0000 -0.8877
vn -0.4088 0.0000 0.9126
vn -0.0653 0.0000 -0.9979
vn -0.1179 0.0000 -0.9930
vn -0.0823 0.0000 0.9966
vn 0.1412 0.0000 0.9900
vn 0.9872 0.0000 0.1594
vn 0.9974 0.0000 0.0722
vn 0.9693 0.0000 -0.2457
vn 0.9871 0.0000 0.1602
vn 0.9927 0.0000 -0.1208
vn 0.0000 1.0000 0.0000
usemtl BackMat.001
s off
f 242/1/1 238/2/1 232/3/1
f 221/4/1 224/5/1 218/6/1
f 212/7/1 234/8/1 223/9/1
f 214/10/1 228/11/1 222/12/1
f 231/13/1 214/10/1 225/14/1
f 224/5/1 233/15/1 226/16/1
f 189/17/1 191/18/1 194/19/1
f 201/20/1 192/21/1 197/22/1
f 194/19/1 191/18/1 200/23/1
f 258/24/1 242/1/1 250/25/1
f 247/26/1 258/24/1 254/27/1
f 237/28/1 239/29/1 240/30/1
f 212/7/1 235/31/1 234/8/1
f 237/28/1 240/30/1 256/32/1
f 222/12/1 228/11/1 229/33/1
f 227/34/1 231/13/1 225/14/1
f 237/28/1 256/32/1 252/35/1
f 206/36/1 239/29/1 235/31/1
f 215/37/1 217/38/1 214/10/1
f 235/31/1 239/29/1 237/28/1
f 192/21/1 200/23/1 191/18/1
f 195/39/1 199/40/1 202/41/1
f 192/21/1 204/42/1 200/23/1
f 250/25/1 242/1/1 232/3/1
f 257/43/1 246/44/1 248/45/1
f 245/46/1 258/24/1 247/26/1
f 256/32/1 240/30/1 244/47/1
f 210/48/1 204/42/1 207/49/1
f 208/50/1 239/29/1 206/36/1
f 257/43/1 244/47/1 246/44/1
f 234/8/1 233/15/1 223/9/1
f 214/10/1 231/13/1 228/11/1
f 203/51/1 206/36/1 209/52/1
f 258/24/2 245/46/2 242/1/2
f 193/53/1 186/54/1 187/55/1
f 186/54/1 199/40/1 195/39/1
f 202/41/1 203/51/1 209/52/1
f 256/32/1 244/47/1 257/43/1
f 238/2/1 239/29/1 208/50/1
f 207/49/1 204/42/1 201/20/1
f 223/9/1 224/5/1 221/4/1
f 206/36/1 235/31/1 212/7/1
f 217/38/1 225/14/1 214/10/1
f 204/42/1 210/48/1 208/50/1
f 209/52/1 206/36/1 212/7/1
f 221/4/1 218/6/1 219/56/1
f 199/40/1 203/51/1 202/41/1
f 223/9/1 233/15/1 224/5/1
f 201/20/1 204/42/1 192/21/1
f 222/12/1 229/33/1 210/48/1
f 210/48/1 229/33/1 208/50/1
f 208/50/1 229/33/1 238/2/1
f 199/40/1 186/54/1 193/53/1
f 232/3/1 238/2/1 229/33/1
f 15/57/3 115/58/3 188/59/3 71/60/3
f 117/61/4 26/62/4 82/63/4 190/64/4
f 26/62/5 27/65/5 83/66/5 82/63/5
f 16/67/6 17/68/6 73/69/6 72/70/6
f 24/71/7 25/72/7 81/73/7 80/74/7
f 123/75/8 15/57/8 71/60/8 196/76/8
f 27/65/9 125/77/9 198/78/9 83/66/9
f 17/68/10 18/79/10 74/80/10 73/69/10
f 23/81/11 24/71/11 80/74/11 79/82/11
f 28/83/12 29/84/12 85/85/12 84/86/12
f 13/87/13 14/88/13 70/89/13 69/90/13
f 18/79/14 19/91/14 75/92/14 74/80/14
f 132/93/15 23/81/15 79/82/15 205/94/15
f 19/91/16 20/95/16 76/96/16 75/92/16
f 29/84/17 30/97/17 86/98/17 85/85/17
f 21/99/18 22/100/18 78/101/18 77/102/18
f 12/103/19 13/87/19 69/90/19 68/104/19
f 20/95/20 21/99/20 77/102/20 76/96/20
f 30/97/21 138/105/21 211/106/21 86/98/21
f 140/107/22 12/103/22 68/104/22 213/108/22
f 33/109/23 143/110/23 216/111/23 89/112/23
f 34/113/24 35/114/24 91/115/24 90/116/24
f 7/117/25 147/118/25 220/119/25 63/120/25
f 8/121/26 9/122/26 65/123/26 64/124/26
f 32/125/27 33/109/27 89/112/27 88/126/27
f 9/122/28 10/127/28 66/128/28 65/123/28
f 31/129/29 32/125/29 88/126/29 87/130/29
f 10/127/30 11/131/30 67/132/30 66/128/30
f 6/133/31 7/117/31 63/120/31 62/134/31
f 35/114/32 36/135/32 92/136/32 91/115/32
f 5/137/33 6/133/33 62/134/33 61/138/33
f 36/135/34 37/139/34 93/140/34 92/136/34
f 39/141/35 157/142/35 230/143/35 95/144/35
f 38/145/36 39/141/36 95/144/36 94/146/36
f 37/139/37 38/145/37 94/146/37 93/140/37
f 40/147/38 41/148/38 97/149/38 96/150/38
f 4/151/39 5/137/39 61/138/39 60/152/39
f 3/153/40 4/151/40 60/152/40 59/154/40
f 163/155/41 3/153/41 59/154/41 236/156/41
f 1/157/42 2/158/42 58/159/42 57/160/42
f 48/161/43 49/162/43 105/163/43 104/164/43
f 49/162/44 168/165/44 241/166/44 105/163/44
f 170/167/45 48/161/45 104/164/45 243/168/45
f 50/169/46 51/170/46 107/171/46 106/172/46
f 46/173/47 47/174/47 103/175/47 102/176/47
f 51/170/48 52/177/48 108/178/48 107/171/48
f 45/179/49 46/173/49 102/176/49 101/180/49
f 52/177/50 176/181/50 249/182/50 108/178/50
f 41/148/51 178/183/51 251/184/51 97/149/51
f 180/185/52 1/157/52 57/160/52 253/186/52
f 182/187/53 45/179/53 101/180/53 255/188/53
f 55/189/54 56/190/54 112/191/54 111/192/54
f 54/193/55 55/189/55 111/192/55 110/194/55
f 53/195/56 54/193/56 110/194/56 109/196/56
f 43/197/57 44/198/57 100/199/57 99/200/57
f 42/201/58 43/197/58 99/200/58 98/202/58
usemtl FrontMat.001
f 169/203/59 159/204/59 165/205/59
f 148/206/59 145/207/59 151/208/59
f 139/209/59 150/210/59 161/211/59
f 141/212/59 149/213/59 155/214/59
f 158/215/59 152/216/59 141/212/59
f 151/208/59 153/217/59 160/218/59
f 116/219/59 121/220/59 118/221/59
f 128/222/59 124/223/59 119/224/59
f 121/220/59 127/225/59 118/221/59
f 185/226/59 177/227/59 169/203/59
f 174/228/59 181/229/59 185/226/59
f 164/230/59 167/231/59 166/232/59
f 139/209/59 161/211/59 162/233/59
f 164/230/59 183/234/59 167/231/59
f 149/213/59 156/235/59 155/214/59
f 154/236/59 152/216/59 158/215/59
f 164/230/59 179/237/59 183/234/59
f 133/238/59 162/233/59 166/232/59
f 142/239/59 141/212/59 144/240/59
f 162/233/59 164/230/59 166/232/59
f 119/224/59 118/221/59 127/225/59
f 122/241/59 129/242/59 126/243/59
f 119/224/59 127/225/59 131/244/59
f 177/227/59 159/204/59 169/203/59
f 184/245/59 175/246/59 173/247/59
f 172/248/59 174/228/59 185/226/59
f 183/234/59 171/249/59 167/231/59
f 137/250/59 134/251/59 131/244/59
f 135/252/59 133/238/59 166/232/59
f 184/245/59 173/247/59 171/249/59
f 161/211/59 150/210/59 160/218/59
f 141/212/59 155/214/59 158/215/59
f 130/253/59 136/254/59 133/238/59
f 185/226/59 169/203/59 172/248/59
f 120/255/59 114/256/59 113/257/59
f 113/257/59 122/241/59 126/243/59
f 129/242/59 136/254/59 130/253/59
f 183/234/59 184/245/59 171/249/59
f 165/205/59 135/252/59 166/232/59
f 134/251/59 128/222/59 131/244/59
f 150/210/59 148/206/59 151/208/59
f 133/238/59 139/209/59 162/233/59
f 144/240/59 141/212/59 152/216/59
f 131/244/59 135/252/59 137/250/59
f 136/254/59 139/209/59 133/238/59
f 148/206/59 146/258/59 145/207/59
f 126/243/59 129/242/59 130/253/59
f 150/210/59 151/208/59 160/218/59
f 128/222/59 119/224/59 131/244/59
f 149/213/59 137/250/59 156/235/59
f 137/250/59 135/252/59 156/235/59
f 135/252/59 165/205/59 156/235/59
f 126/243/59 120/255/59 113/257/59
f 159/204/59 156/235/59 165/205/59
