# Blender v2.83.1 OBJ File: 'jigsaw-96x54-3-step2.blend'
# www.blender.org
mtllib piece.1613.mtl
o path3226
v -0.456444 0.037500 0.299957
v -0.456242 0.037500 0.176201
v -0.481228 0.037500 0.096603
v -0.540671 0.037500 0.095070
v -0.618105 0.037500 0.129066
v -0.690656 0.037500 0.136955
v -0.737947 0.037500 0.076920
v -0.749591 0.037500 -0.013611
v -0.717702 0.037500 -0.077370
v -0.641543 0.037500 -0.076614
v -0.548922 0.037500 -0.051674
v -0.474787 0.037500 -0.062378
v -0.444799 0.037500 -0.149734
v -0.447447 0.037500 -0.279449
v -0.475388 0.037500 -0.494240
v -0.271151 0.037500 -0.547577
v -0.149004 0.037500 -0.567215
v -0.069401 0.037500 -0.552353
v -0.065434 0.037500 -0.487656
v -0.095871 0.037500 -0.398331
v -0.100893 0.037500 -0.319725
v -0.040300 0.037500 -0.280571
v 0.047623 0.037500 -0.283195
v 0.104979 0.037500 -0.323334
v 0.094280 0.037500 -0.392944
v 0.059721 0.037500 -0.469032
v 0.065912 0.037500 -0.524864
v 0.157026 0.037500 -0.541397
v 0.526310 0.037500 -0.494240
v 0.578598 0.037500 -0.275185
v 0.595858 0.037500 -0.144074
v 0.575504 0.037500 -0.058426
v 0.501904 0.037500 -0.053673
v 0.404524 0.037500 -0.085663
v 0.324108 0.037500 -0.090355
v 0.292952 0.037500 -0.024269
v 0.309546 0.037500 0.073708
v 0.363935 0.037500 0.144081
v 0.443390 0.037500 0.147041
v 0.524137 0.037500 0.121437
v 0.579632 0.037500 0.125786
v 0.591448 0.037500 0.200752
v 0.526310 0.037500 0.507668
v 0.310812 0.037500 0.545227
v 0.182087 0.037500 0.556122
v 0.098555 0.037500 0.537148
v 0.095116 0.037500 0.475815
v 0.127499 0.037500 0.392876
v 0.131651 0.037500 0.317413
v 0.064167 0.037500 0.274147
v -0.035789 0.037500 0.270363
v -0.108416 0.037500 0.308998
v -0.113571 0.037500 0.386864
v -0.089762 0.037500 0.476204
v -0.095152 0.037500 0.543152
v -0.170204 0.037500 0.563332
v -0.284565 0.037500 0.550438
v -0.475388 0.037500 0.507668
v -0.456444 -0.037498 0.299957
v -0.456242 -0.037500 0.176201
v -0.481228 -0.037500 0.096603
v -0.540671 -0.037498 0.095070
v -0.618105 -0.037500 0.129066
v -0.690656 -0.037500 0.136955
v -0.737947 -0.037500 0.076920
v -0.749591 -0.037500 -0.013611
v -0.717702 -0.037500 -0.077370
v -0.641543 -0.037498 -0.076614
v -0.548922 -0.037500 -0.051674
v -0.474787 -0.037500 -0.062378
v -0.444799 -0.037500 -0.149734
v -0.447447 -0.037500 -0.279449
v -0.475388 -0.037500 -0.494240
v -0.271151 -0.037500 -0.547577
v -0.149004 -0.037500 -0.567215
v -0.069401 -0.037500 -0.552353
v -0.065434 -0.037498 -0.487656
v -0.095871 -0.037500 -0.398331
v -0.100893 -0.037500 -0.319725
v -0.040300 -0.037500 -0.280571
v 0.047623 -0.037500 -0.283195
v 0.104979 -0.037500 -0.323334
v 0.094280 -0.037500 -0.392944
v 0.059721 -0.037500 -0.469032
v 0.065912 -0.037500 -0.524864
v 0.157026 -0.037500 -0.541397
v 0.526310 -0.037500 -0.494240
v 0.578598 -0.037498 -0.275185
v 0.595858 -0.037500 -0.144074
v 0.575504 -0.037500 -0.058426
v 0.501904 -0.037500 -0.053673
v 0.404524 -0.037500 -0.085663
v 0.324108 -0.037500 -0.090355
v 0.292952 -0.037500 -0.024269
v 0.309546 -0.037500 0.073708
v 0.363935 -0.037500 0.144081
v 0.443390 -0.037500 0.147041
v 0.524137 -0.037500 0.121437
v 0.579632 -0.037498 0.125786
v 0.591448 -0.037500 0.200752
v 0.526310 -0.037498 0.507668
v 0.310812 -0.037500 0.545227
v 0.182087 -0.037500 0.556122
v 0.098555 -0.037498 0.537148
v 0.095116 -0.037498 0.475815
v 0.127499 -0.037500 0.392876
v 0.131651 -0.037500 0.317413
v 0.064167 -0.037500 0.274147
v -0.035789 -0.037500 0.270363
v -0.108416 -0.037500 0.308998
v -0.113571 -0.037500 0.386864
v -0.089762 -0.037500 0.476204
v -0.095152 -0.037500 0.543152
v -0.170204 -0.037500 0.563332
v -0.284565 -0.037500 0.550438
v -0.475388 -0.037500 0.507668
v -0.737947 0.037500 0.076920
v -0.749591 0.037500 -0.013611
v -0.717702 0.037500 -0.077370
v -0.717702 0.037500 -0.077370
v -0.690656 0.037500 0.136955
v -0.641543 0.037500 -0.076614
v -0.618105 0.037500 0.129066
v -0.548922 0.037500 -0.051674
v -0.540671 0.037500 0.095070
v -0.474787 0.037500 -0.062378
v -0.474787 0.037500 -0.062378
v -0.481228 0.037500 0.096603
v -0.481228 0.037500 0.096603
v -0.456242 0.037500 0.176201
v -0.444799 0.037500 -0.149734
v -0.475388 0.037500 0.507668
v -0.475388 0.037500 0.507668
v -0.456444 0.037500 0.299957
v -0.447447 0.037500 -0.279449
v -0.475388 0.037500 -0.494240
v -0.475388 0.037500 -0.494240
v -0.284565 0.037500 0.550438
v -0.271151 0.037500 -0.547577
v -0.170204 0.037500 0.563332
v -0.149004 0.037500 -0.567215
v -0.095152 0.037500 0.543152
v -0.095152 0.037500 0.543152
v -0.095871 0.037500 -0.398331
v -0.100893 0.037500 -0.319725
v -0.100893 0.037500 -0.319725
v -0.069401 0.037500 -0.552353
v -0.069401 0.037500 -0.552353
v -0.089762 0.037500 0.476204
v -0.113571 0.037500 0.386864
v -0.108416 0.037500 0.308998
v -0.035789 0.037500 0.270363
v -0.040300 0.037500 -0.280571
v -0.065434 0.037500 -0.487656
v 0.047623 0.037500 -0.283195
v 0.064167 0.037500 0.274147
v 0.104979 0.037500 -0.323334
v 0.104979 0.037500 -0.323334
v 0.094280 0.037500 -0.392944
v 0.059721 0.037500 -0.469032
v 0.065912 0.037500 -0.524864
v 0.065912 0.037500 -0.524864
v 0.131651 0.037500 0.317413
v 0.131651 0.037500 0.317413
v 0.157026 0.037500 -0.541397
v 0.098555 0.037500 0.537148
v 0.098555 0.037500 0.537148
v 0.095116 0.037500 0.475815
v 0.127499 0.037500 0.392876
v 0.182087 0.037500 0.556122
v 0.310812 0.037500 0.545227
v 0.292952 0.037500 -0.024269
v 0.309546 0.037500 0.073708
v 0.324108 0.037500 -0.090355
v 0.324108 0.037500 -0.090355
v 0.363935 0.037500 0.144081
v 0.404524 0.037500 -0.085663
v 0.443390 0.037500 0.147041
v 0.501904 0.037500 -0.053673
v 0.526310 0.037500 0.507668
v 0.526310 0.037500 0.507668
v 0.524137 0.037500 0.121437
v 0.526310 0.037500 -0.494240
v 0.526310 0.037500 -0.494240
v 0.575504 0.037500 -0.058426
v 0.575504 0.037500 -0.058426
v 0.579632 0.037500 0.125786
v 0.579632 0.037500 0.125786
v 0.578598 0.037500 -0.275185
v 0.591448 0.037500 0.200752
v 0.595858 0.037500 -0.144074
v -0.737947 -0.037500 0.076920
v -0.749591 -0.037500 -0.013611
v -0.717702 -0.037500 -0.077370
v -0.717702 -0.037500 -0.077370
v -0.690656 -0.037500 0.136955
v -0.641543 -0.037498 -0.076614
v -0.618105 -0.037500 0.129066
v -0.548922 -0.037500 -0.051674
v -0.540671 -0.037498 0.095070
v -0.474787 -0.037500 -0.062378
v -0.474787 -0.037500 -0.062378
v -0.481228 -0.037500 0.096603
v -0.481228 -0.037500 0.096603
v -0.456242 -0.037500 0.176201
v -0.444799 -0.037500 -0.149734
v -0.475388 -0.037500 0.507668
v -0.475388 -0.037500 0.507668
v -0.456444 -0.037498 0.299957
v -0.447447 -0.037500 -0.279449
v -0.475388 -0.037500 -0.494240
v -0.475388 -0.037500 -0.494240
v -0.284565 -0.037500 0.550438
v -0.271151 -0.037500 -0.547577
v -0.170204 -0.037500 0.563332
v -0.149004 -0.037500 -0.567215
v -0.095152 -0.037500 0.543152
v -0.095152 -0.037500 0.543152
v -0.095871 -0.037500 -0.398331
v -0.100893 -0.037500 -0.319725
v -0.100893 -0.037500 -0.319725
v -0.069401 -0.037500 -0.552353
v -0.069401 -0.037500 -0.552353
v -0.089762 -0.037500 0.476204
v -0.113571 -0.037500 0.386864
v -0.108416 -0.037500 0.308998
v -0.035789 -0.037500 0.270363
v -0.040300 -0.037500 -0.280571
v -0.065434 -0.037498 -0.487656
v 0.047623 -0.037500 -0.283195
v 0.064167 -0.037500 0.274147
v 0.104979 -0.037500 -0.323334
v 0.104979 -0.037500 -0.323334
v 0.094280 -0.037500 -0.392944
v 0.059721 -0.037500 -0.469032
v 0.065912 -0.037500 -0.524864
v 0.065912 -0.037500 -0.524864
v 0.131651 -0.037500 0.317413
v 0.131651 -0.037500 0.317413
v 0.157026 -0.037500 -0.541397
v 0.098555 -0.037498 0.537148
v 0.098555 -0.037498 0.537148
v 0.095116 -0.037498 0.475815
v 0.127499 -0.037500 0.392876
v 0.182087 -0.037500 0.556122
v 0.310812 -0.037500 0.545227
v 0.292952 -0.037500 -0.024269
v 0.309546 -0.037500 0.073708
v 0.324108 -0.037500 -0.090355
v 0.324108 -0.037500 -0.090355
v 0.363935 -0.037500 0.144081
v 0.404524 -0.037500 -0.085663
v 0.443390 -0.037500 0.147041
v 0.501904 -0.037500 -0.053673
v 0.526310 -0.037498 0.507668
v 0.526310 -0.037498 0.507668
v 0.524137 -0.037500 0.121437
v 0.526310 -0.037500 -0.494240
v 0.526310 -0.037500 -0.494240
v 0.575504 -0.037500 -0.058426
v 0.575504 -0.037500 -0.058426
v 0.579632 -0.037498 0.125786
v 0.579632 -0.037498 0.125786
v 0.578598 -0.037498 -0.275185
v 0.591448 -0.037500 0.200752
v 0.595858 -0.037500 -0.144074
vt 0.500000 0.500000
vt 0.500000 0.500000
vt 0.500000 0.500000
vt 0.500000 0.500000
vt 0.500000 0.500000
vt 0.500000 0.500000
vt 0.500000 0.500000
vt 0.500000 0.500000
vt 0.500000 0.500000
vt 0.500000 0.500000
vt 0.500000 0.500000
vt 0.500000 0.500000
vt 0.500000 0.500000
vt 0.500000 0.500000
vt 0.500000 0.500000
vt 0.500000 0.500000
vt 0.500000 0.500000
vt 0.500000 0.500000
vt 0.500000 0.500000
vt 0.500000 0.500000
vt 0.500000 0.500000
vt 0.500000 0.500000
vt 0.500000 0.500000
vt 0.500000 0.500000
vt 0.500000 0.500000
vt 0.500000 0.500000
vt 0.500000 0.500000
vt 0.500000 0.500000
vt 0.500000 0.500000
vt 0.500000 0.500000
vt 0.500000 0.500000
vt 0.500000 0.500000
vt 0.500000 0.500000
vt 0.500000 0.500000
vt 0.500000 0.500000
vt 0.500000 0.500000
vt 0.500000 0.500000
vt 0.500000 0.500000
vt 0.500000 0.500000
vt 0.500000 0.500000
vt 0.500000 0.500000
vt 0.500000 0.500000
vt 0.500000 0.500000
vt 0.500000 0.500000
vt 0.500000 0.500000
vt 0.500000 0.500000
vt 0.500000 0.500000
vt 0.500000 0.500000
vt 0.500000 0.500000
vt 0.500000 0.500000
vt 0.500000 0.500000
vt 0.500000 0.500000
vt 0.500000 0.500000
vt 0.500000 0.500000
vt 0.500000 0.500000
vt 0.500000 0.500000
vt 0.500000 0.500000
vt 0.500000 0.500000
vt 0.500000 0.500000
vt 0.500000 0.500000
vt 0.500000 0.500000
vt 0.500000 0.500000
vt 0.500000 0.500000
vt 0.500000 0.500000
vt 0.500000 0.500000
vt 0.500000 0.500000
vt 0.500000 0.500000
vt 0.500000 0.500000
vt 0.500000 0.500000
vt 0.500000 0.500000
vt 0.500000 0.500000
vt 0.500000 0.500000
vt 0.500000 0.500000
vt 0.500000 0.500000
vt 0.500000 0.500000
vt 0.500000 0.500000
vt 0.500000 0.500000
vt 0.500000 0.500000
vt 0.500000 0.500000
vt 0.500000 0.500000
vt 0.500000 0.500000
vt 0.500000 0.500000
vt 0.500000 0.500000
vt 0.500000 0.500000
vt 0.500000 0.500000
vt 0.500000 0.500000
vt 0.500000 0.500000
vt 0.500000 0.500000
vt 0.500000 0.500000
vt 0.500000 0.500000
vt 0.500000 0.500000
vt 0.500000 0.500000
vt 0.500000 0.500000
vt 0.500000 0.500000
vt 0.500000 0.500000
vt 0.500000 0.500000
vt 0.500000 0.500000
vt 0.500000 0.500000
vt 0.500000 0.500000
vt 0.500000 0.500000
vt 0.500000 0.500000
vt 0.500000 0.500000
vt 0.500000 0.500000
vt 0.500000 0.500000
vt 0.500000 0.500000
vt 0.500000 0.500000
vt 0.500000 0.500000
vt 0.500000 0.500000
vt 0.500000 0.500000
vt 0.500000 0.500000
vt 0.500000 0.500000
vt 0.500000 0.500000
vt 0.500000 0.500000
vt 0.500000 0.500000
vt 0.500000 0.500000
vt 0.500000 0.500000
vt 0.500000 0.500000
vt 0.500000 0.500000
vt 0.500000 0.500000
vt 0.500000 0.500000
vt 0.500000 0.500000
vt 0.500000 0.500000
vt 0.500000 0.500000
vt 0.500000 0.500000
vt 0.500000 0.500000
vt 0.500000 0.500000
vt 0.500000 0.500000
vt 0.500000 0.500000
vt 0.500000 0.500000
vt 0.500000 0.500000
vt 0.500000 0.500000
vt 0.500000 0.500000
vt 0.500000 0.500000
vt 0.500000 0.500000
vt 0.500000 0.500000
vt 0.500000 0.500000
vt 0.500000 0.500000
vt 0.500000 0.500000
vt 0.500000 0.500000
vt 0.500000 0.500000
vt 0.500000 0.500000
vt 0.500000 0.500000
vt 0.500000 0.500000
vt 0.500000 0.500000
vt 0.500000 0.500000
vt 0.500000 0.500000
vt 0.500000 0.500000
vt 0.500000 0.500000
vt 0.500000 0.500000
vt 0.500000 0.500000
vt 0.500000 0.500000
vt 0.500000 0.500000
vt 0.500000 0.500000
vt 0.500000 0.500000
vt 0.500000 0.500000
vt 0.500000 0.500000
vt 0.500000 0.500000
vt 0.500000 0.500000
vt 0.500000 0.500000
vt 0.500000 0.500000
vt 0.500000 0.500000
vt 0.500000 0.500000
vt 0.500000 0.500000
vt 0.500000 0.500000
vt 0.500000 0.500000
vt 0.500000 0.500000
vt 0.500000 0.500000
vt 0.500000 0.500000
vt 0.500000 0.500000
vt 0.500000 0.500000
vt 0.500000 0.500000
vt 0.500000 0.500000
vt 0.500000 0.500000
vt 0.500000 0.500000
vt 0.500000 0.500000
vt 0.500000 0.500000
vt 0.500000 0.500000
vt 0.500000 0.500000
vt 0.500000 0.500000
vt 0.500000 0.500000
vt 0.500000 0.500000
vt 0.500000 0.500000
vt 0.500000 0.500000
vt 0.500000 0.500000
vt 0.500000 0.500000
vt 0.500000 0.500000
vt 0.500000 0.500000
vt 0.500000 0.500000
vt 0.500000 0.500000
vt 0.500000 0.500000
vt 0.500000 0.500000
vt 0.500000 0.500000
vt 0.500000 0.500000
vt 0.500000 0.500000
vt 0.500000 0.500000
vt 0.500000 0.500000
vt 0.500000 0.500000
vt 0.500000 0.500000
vt 0.500000 0.500000
vt 0.500000 0.500000
vt 0.500000 0.500000
vt 0.500000 0.500000
vt 0.500000 0.500000
vt 0.500000 0.500000
vt 0.500000 0.500000
vt 0.500000 0.500000
vt 0.500000 0.500000
vt 0.500000 0.500000
vt 0.791163 0.691549
vt 0.791276 0.689169
vt 0.792860 0.692558
vt 0.793645 0.692481
vt 0.791667 0.685185
vt 0.795447 0.688187
vt 0.796145 0.708558
vt 0.795603 0.706342
vt 0.797741 0.706775
vt 0.801821 0.693811
vt 0.801030 0.693172
vt 0.802574 0.692012
vt 0.799850 0.703187
vt 0.798502 0.703138
vt 0.800269 0.696780
vt 0.799806 0.684219
vt 0.802083 0.685185
vt 0.800306 0.692974
vt 0.802638 0.699928
vt 0.797593 0.703693
vt 0.797482 0.705063
vt 0.795940 0.703812
vt 0.799889 0.694035
vt 0.799862 0.695660
vt 0.794134 0.695577
vt 0.791998 0.693157
vt 0.791360 0.693093
vt 0.795521 0.707683
vt 0.794858 0.683981
vt 0.795637 0.684199
vt 0.795682 0.685225
vt 0.794095 0.693729
vt 0.796178 0.689192
vt 0.793826 0.703353
vt 0.791222 0.700176
vt 0.792923 0.697015
vt 0.798443 0.683900
vt 0.797835 0.687437
vt 0.793732 0.696919
vt 0.802083 0.703704
vt 0.795956 0.704911
vt 0.802688 0.696198
vt 0.802842 0.697670
vt 0.802015 0.696125
vt 0.797552 0.684276
vt 0.797503 0.685636
vt 0.797749 0.708183
vt 0.797086 0.708773
vt 0.797884 0.688923
vt 0.795113 0.703350
vt 0.795416 0.686718
vt 0.802402 0.693697
vt 0.801086 0.696688
vt 0.797197 0.689499
vt 0.791088 0.698062
vt 0.791994 0.696575
vt 0.791667 0.703704
vt 0.791298 0.696674
vn 0.0000 -1.0000 0.0000
vn -0.9918 0.0000 0.1276
vn -0.8944 0.0000 -0.4473
vn -0.7856 0.0000 0.6188
vn 0.0099 0.0000 -1.0000
vn 0.1081 0.0000 0.9941
vn 0.2600 0.0000 -0.9656
vn 0.4020 0.0000 0.9156
vn -0.1429 0.0000 -0.9897
vn -0.0258 0.0000 0.9997
vn -0.9541 0.0000 0.2995
vn -0.9458 0.0000 -0.3247
vn -0.9959 0.0000 -0.0908
vn -0.9916 0.0000 0.1290
vn -1.0000 0.0000 -0.0016
vn -0.9998 0.0000 0.0204
vn -0.2187 0.0000 0.9758
vn -0.2527 0.0000 -0.9676
vn -0.1120 0.0000 0.9937
vn -0.1587 0.0000 -0.9873
vn 0.2597 0.0000 0.9657
vn 0.9980 0.0000 0.0638
vn 0.1835 0.0000 -0.9830
vn 0.9968 0.0000 0.0803
vn 0.9663 0.0000 -0.2575
vn 0.9978 0.0000 0.0661
vn 0.4697 0.0000 0.8829
vn 0.5427 0.0000 -0.8399
vn 0.9466 0.0000 0.3225
vn 0.9981 0.0000 -0.0612
vn -0.0298 0.0000 -0.9996
vn -0.0378 0.0000 0.9993
vn -0.5734 0.0000 -0.8193
vn -0.9105 0.0000 0.4135
vn -0.9939 0.0000 -0.1102
vn -0.5397 0.0000 0.8418
vn -0.1785 0.0000 -0.9839
vn -0.9884 0.0000 0.1519
vn -0.9984 0.0000 0.0560
vn -0.9315 0.0000 -0.3637
vn -0.2215 0.0000 0.9752
vn -0.9985 0.0000 -0.0549
vn 0.0843 0.0000 0.9964
vn 0.9860 0.0000 -0.1670
vn 0.9045 0.0000 0.4264
vn 0.7912 0.0000 -0.6115
vn -0.0582 0.0000 0.9983
vn 0.0372 0.0000 -0.9993
vn -0.3121 0.0000 0.9500
vn 0.1717 0.0000 0.9851
vn -0.3023 0.0000 -0.9532
vn 0.1267 0.0000 -0.9919
vn 0.0644 0.0000 0.9979
vn 0.0781 0.0000 -0.9969
vn 0.9727 0.0000 -0.2322
vn 0.9782 0.0000 0.2076
vn 0.9878 0.0000 -0.1557
vn 0.9729 0.0000 0.2312
vn 0.9914 0.0000 -0.1305
vn 0.0000 1.0000 -0.0000
usemtl BackMat.001
s off
f 245/1/1 244/2/1 246/3/1
f 238/4/1 246/3/1 244/2/1
f 246/3/1 251/5/1 255/6/1
f 192/7/1 197/8/1 198/9/1
f 235/10/1 240/11/1 234/12/1
f 210/13/1 220/14/1 206/15/1
f 264/16/1 232/17/1 258/18/1
f 214/19/1 220/14/1 210/13/1
f 201/20/1 203/21/1 199/22/1
f 230/23/1 227/24/1 228/25/1
f 243/26/1 245/1/1 241/27/1
f 192/7/1 198/9/1 196/28/1
f 265/29/1 257/30/1 262/31/1
f 231/32/1 248/33/1 238/4/1
f 209/34/1 225/35/1 213/36/1
f 266/37/1 252/38/1 264/16/1
f 226/39/1 225/35/1 209/34/1
f 214/19/1 210/13/1 211/40/1
f 198/9/1 199/22/1 200/41/1
f 203/21/1 200/41/1 199/22/1
f 222/42/1 229/43/1 216/44/1
f 260/45/1 254/46/1 266/37/1
f 197/8/1 193/47/1 194/48/1
f 249/49/1 264/16/1 252/38/1
f 205/50/1 226/39/1 209/34/1
f 251/5/1 246/3/1 238/4/1
f 248/33/1 251/5/1 238/4/1
f 206/15/1 228/25/1 201/20/1
f 252/38/1 266/37/1 254/46/1
f 255/6/1 253/51/1 265/29/1
f 253/51/1 257/30/1 265/29/1
f 201/20/1 227/24/1 203/21/1
f 236/52/1 240/11/1 235/10/1
f 258/18/1 232/17/1 240/11/1
f 216/44/1 219/53/1 214/19/1
f 230/23/1 249/49/1 247/54/1
f 230/23/1 247/54/1 227/24/1
f 249/49/1 232/17/1 264/16/1
f 203/21/1 226/39/1 205/50/1
f 219/53/1 216/44/1 229/43/1
f 253/51/1 255/6/1 251/5/1
f 227/24/1 247/54/1 231/32/1
f 225/35/1 224/55/1 215/56/1
f 220/14/1 214/19/1 219/53/1
f 232/17/1 249/49/1 230/23/1
f 232/17/1 234/12/1 240/11/1
f 244/2/1 245/1/1 243/26/1
f 192/7/1 193/47/1 197/8/1
f 201/20/1 228/25/1 227/24/1
f 227/24/1 226/39/1 203/21/1
f 213/36/1 225/35/1 215/56/1
f 209/34/1 213/36/1 207/57/1
f 199/22/1 198/9/1 197/8/1
f 215/56/1 224/55/1 217/58/1
f 247/54/1 248/33/1 231/32/1
f 220/14/1 228/25/1 206/15/1
f 7/59/2 8/60/2 66/61/2 65/62/2
f 8/60/3 120/63/3 195/64/3 66/61/3
f 6/65/4 7/59/4 65/62/4 64/66/4
f 9/67/5 10/68/5 68/69/5 67/70/5
f 5/71/6 6/65/6 64/66/6 63/72/6
f 10/68/7 11/73/7 69/74/7 68/69/7
f 4/75/8 5/71/8 63/72/8 62/76/8
f 11/73/9 127/77/9 202/78/9 69/74/9
f 129/79/10 4/75/10 62/76/10 204/80/10
f 2/81/11 3/82/11 61/83/11 60/84/11
f 12/85/12 13/86/12 71/87/12 70/88/12
f 133/89/13 1/90/13 59/91/13 208/92/13
f 14/93/14 137/94/14 212/95/14 72/96/14
f 1/90/15 2/81/15 60/84/15 59/91/15
f 13/86/16 14/93/16 72/96/16 71/87/16
f 57/97/17 58/98/17 116/99/17 115/100/17
f 15/101/18 16/102/18 74/103/18 73/104/18
f 56/105/19 57/97/19 115/100/19 114/106/19
f 16/102/20 17/107/20 75/108/20 74/103/20
f 143/109/21 56/105/21 114/106/21 218/110/21
f 20/111/22 146/112/22 221/113/22 78/114/22
f 17/107/23 148/115/23 223/116/23 75/108/23
f 54/117/24 55/118/24 113/119/24 112/120/24
f 53/121/25 54/117/25 112/120/25 111/122/25
f 52/123/26 53/121/26 111/122/26 110/124/26
f 51/125/27 52/123/27 110/124/27 109/126/27
f 21/127/28 22/128/28 80/129/28 79/130/28
f 19/131/29 20/111/29 78/114/29 77/132/29
f 18/133/30 19/131/30 77/132/30 76/134/30
f 22/128/31 23/135/31 81/136/31 80/129/31
f 50/137/32 51/125/32 109/126/32 108/138/32
f 23/135/33 158/139/33 233/140/33 81/136/33
f 25/141/34 26/142/34 84/143/34 83/144/34
f 26/142/35 162/145/35 237/146/35 84/143/35
f 164/147/36 50/137/36 108/138/36 239/148/36
f 27/149/37 28/150/37 86/151/37 85/152/37
f 24/153/38 25/141/38 83/144/38 82/154/38
f 167/155/39 47/156/39 105/157/39 242/158/39
f 47/156/40 48/159/40 106/160/40 105/157/40
f 45/161/41 46/162/41 104/163/41 103/164/41
f 48/159/42 49/165/42 107/166/42 106/160/42
f 44/167/43 45/161/43 103/164/43 102/168/43
f 36/169/44 37/170/44 95/171/44 94/172/44
f 175/173/45 36/169/45 94/172/45 250/174/45
f 37/170/46 38/175/46 96/176/46 95/171/46
f 34/177/47 35/178/47 93/179/47 92/180/47
f 38/175/48 39/181/48 97/182/48 96/176/48
f 33/183/49 34/177/49 92/180/49 91/184/49
f 181/185/50 44/167/50 102/168/50 256/186/50
f 39/181/51 40/187/51 98/188/51 97/182/51
f 28/150/52 184/189/52 259/190/52 86/151/52
f 186/191/53 33/183/53 91/184/53 261/192/53
f 40/187/54 188/193/54 263/194/54 98/188/54
f 29/195/55 30/196/55 88/197/55 87/198/55
f 42/199/56 43/200/56 101/201/56 100/202/56
f 41/203/57 42/199/57 100/202/57 99/204/57
f 31/205/58 32/206/58 90/207/58 89/208/58
f 30/196/59 31/205/59 89/208/59 88/197/59
usemtl FrontMat.001
f 170/209/60 171/210/60 169/211/60
f 163/212/60 169/211/60 171/210/60
f 171/210/60 180/213/60 176/214/60
f 117/215/60 123/216/60 122/217/60
f 160/218/60 159/219/60 165/220/60
f 135/221/60 131/222/60 145/223/60
f 189/224/60 183/225/60 157/226/60
f 139/227/60 135/221/60 145/223/60
f 126/228/60 124/229/60 128/230/60
f 155/231/60 153/232/60 152/233/60
f 168/234/60 166/235/60 170/209/60
f 117/215/60 121/236/60 123/216/60
f 190/237/60 187/238/60 182/239/60
f 156/240/60 163/212/60 173/241/60
f 134/242/60 138/243/60 150/244/60
f 191/245/60 189/224/60 177/246/60
f 151/247/60 134/242/60 150/244/60
f 139/227/60 136/248/60 135/221/60
f 123/216/60 125/249/60 124/229/60
f 128/230/60 124/229/60 125/249/60
f 147/250/60 141/251/60 154/252/60
f 185/253/60 191/245/60 179/254/60
f 122/217/60 119/255/60 118/256/60
f 174/257/60 177/246/60 189/224/60
f 130/258/60 134/242/60 151/247/60
f 176/214/60 163/212/60 171/210/60
f 173/241/60 163/212/60 176/214/60
f 131/222/60 126/228/60 153/232/60
f 177/246/60 179/254/60 191/245/60
f 180/213/60 190/237/60 178/259/60
f 178/259/60 190/237/60 182/239/60
f 126/228/60 128/230/60 152/233/60
f 161/260/60 160/218/60 165/220/60
f 183/225/60 165/220/60 157/226/60
f 141/251/60 139/227/60 144/261/60
f 155/231/60 172/262/60 174/257/60
f 155/231/60 152/233/60 172/262/60
f 174/257/60 189/224/60 157/226/60
f 128/230/60 130/258/60 151/247/60
f 144/261/60 154/252/60 141/251/60
f 178/259/60 176/214/60 180/213/60
f 152/233/60 156/240/60 172/262/60
f 150/244/60 140/263/60 149/264/60
f 145/223/60 144/261/60 139/227/60
f 157/226/60 155/231/60 174/257/60
f 157/226/60 165/220/60 159/219/60
f 169/211/60 168/234/60 170/209/60
f 117/215/60 122/217/60 118/256/60
f 126/228/60 152/233/60 153/232/60
f 152/233/60 128/230/60 151/247/60
f 138/243/60 140/263/60 150/244/60
f 134/242/60 132/265/60 138/243/60
f 124/229/60 122/217/60 123/216/60
f 140/263/60 142/266/60 149/264/60
f 172/262/60 156/240/60 173/241/60
f 145/223/60 131/222/60 153/232/60
