# Blender v2.83.1 OBJ File: 'jigsaw-96x54-3-step2.blend'
# www.blender.org
mtllib piece.2130.mtl
o path4260
v 0.316755 0.037500 0.567440
v 0.200180 0.037500 0.580339
v 0.127524 0.037500 0.564289
v 0.131016 0.037500 0.506426
v 0.166315 0.037500 0.424984
v 0.169933 0.037500 0.345976
v 0.099436 0.037500 0.292191
v -0.003431 0.037500 0.273565
v -0.075880 0.037500 0.296812
v -0.076271 0.037500 0.362282
v -0.047600 0.037500 0.444887
v -0.054018 0.037500 0.513170
v -0.139875 0.037500 0.543795
v -0.270315 0.037500 0.545904
v -0.487781 0.037500 0.527739
v -0.446661 0.037500 0.330027
v -0.433084 0.037500 0.212238
v -0.449078 0.037500 0.136501
v -0.507406 0.037500 0.134806
v -0.587267 0.037500 0.165188
v -0.659473 0.037500 0.167206
v -0.699381 0.037500 0.100308
v -0.700521 0.037500 0.003538
v -0.660976 0.037500 -0.064169
v -0.584713 0.037500 -0.063955
v -0.498920 0.037500 -0.037243
v -0.436638 0.037500 -0.045538
v -0.421421 0.037500 -0.131191
v -0.438868 0.037500 -0.259956
v -0.487782 0.037500 -0.473959
v -0.275156 0.037500 -0.429394
v -0.146723 0.037500 -0.415775
v -0.060167 0.037500 -0.436287
v -0.049309 0.037500 -0.505333
v -0.072968 0.037500 -0.598953
v -0.071219 0.037500 -0.683598
v -0.003922 0.037500 -0.731110
v 0.089922 0.037500 -0.734888
v 0.151522 0.037500 -0.693735
v 0.142437 0.037500 -0.612362
v 0.105627 0.037500 -0.519133
v 0.104404 0.037500 -0.448330
v 0.182587 0.037500 -0.424688
v 0.306034 0.037500 -0.434757
v 0.514128 0.037500 -0.473959
v 0.546186 0.037500 -0.245970
v 0.551123 0.037500 -0.109978
v 0.522226 0.037500 -0.022173
v 0.446808 0.037500 -0.019789
v 0.349850 0.037500 -0.056849
v 0.265697 0.037500 -0.066567
v 0.222898 0.037500 -0.003651
v 0.226789 0.037500 0.091196
v 0.276909 0.037500 0.155765
v 0.366972 0.037500 0.148872
v 0.467384 0.037500 0.113411
v 0.542719 0.037500 0.113302
v 0.567553 0.037500 0.192820
v 0.556482 0.037500 0.317652
v 0.514128 0.037500 0.527739
v 0.316755 -0.037500 0.567440
v 0.200180 -0.037500 0.580339
v 0.127524 -0.037498 0.564289
v 0.131016 -0.037498 0.506426
v 0.166315 -0.037500 0.424984
v 0.169933 -0.037500 0.345976
v 0.099436 -0.037498 0.292191
v -0.003431 -0.037500 0.273565
v -0.075880 -0.037500 0.296812
v -0.076271 -0.037500 0.362282
v -0.047600 -0.037500 0.444887
v -0.054018 -0.037500 0.513170
v -0.139875 -0.037498 0.543795
v -0.270315 -0.037500 0.545904
v -0.487781 -0.037500 0.527739
v -0.446661 -0.037498 0.330027
v -0.433084 -0.037500 0.212238
v -0.449078 -0.037500 0.136501
v -0.507406 -0.037500 0.134806
v -0.587267 -0.037500 0.165188
v -0.659473 -0.037500 0.167206
v -0.699381 -0.037500 0.100308
v -0.700521 -0.037500 0.003538
v -0.660976 -0.037500 -0.064169
v -0.584713 -0.037500 -0.063955
v -0.498920 -0.037500 -0.037243
v -0.436638 -0.037500 -0.045538
v -0.421421 -0.037498 -0.131191
v -0.438868 -0.037500 -0.259956
v -0.487782 -0.037498 -0.473959
v -0.275156 -0.037498 -0.429394
v -0.146723 -0.037498 -0.415775
v -0.060167 -0.037500 -0.436287
v -0.049309 -0.037500 -0.505333
v -0.072968 -0.037498 -0.598953
v -0.071219 -0.037500 -0.683598
v -0.003922 -0.037500 -0.731110
v 0.089922 -0.037500 -0.734888
v 0.151522 -0.037500 -0.693735
v 0.142437 -0.037500 -0.612362
v 0.105627 -0.037500 -0.519133
v 0.104404 -0.037500 -0.448330
v 0.182587 -0.037500 -0.424688
v 0.306034 -0.037500 -0.434757
v 0.514128 -0.037500 -0.473959
v 0.546186 -0.037500 -0.245970
v 0.551123 -0.037500 -0.109978
v 0.522226 -0.037500 -0.022173
v 0.446808 -0.037500 -0.019789
v 0.349850 -0.037500 -0.056849
v 0.265697 -0.037500 -0.066567
v 0.222898 -0.037500 -0.003651
v 0.226789 -0.037498 0.091196
v 0.276909 -0.037500 0.155765
v 0.366972 -0.037500 0.148872
v 0.467384 -0.037500 0.113411
v 0.542719 -0.037500 0.113302
v 0.567553 -0.037500 0.192820
v 0.556482 -0.037500 0.317652
v 0.514128 -0.037500 0.527739
v 0.316755 0.037500 0.567440
v 0.200180 0.037500 0.580339
v 0.127524 0.037500 0.564289
v 0.127524 0.037500 0.564289
v 0.131016 0.037500 0.506426
v -0.139875 0.037500 0.543795
v -0.270315 0.037500 0.545904
v -0.054018 0.037500 0.513170
v -0.054018 0.037500 0.513170
v 0.514128 0.037500 0.527739
v 0.514128 0.037500 0.527739
v -0.487781 0.037500 0.527739
v -0.487781 0.037500 0.527739
v -0.047600 0.037500 0.444887
v 0.166315 0.037500 0.424984
v -0.076271 0.037500 0.362282
v -0.446661 0.037500 0.330027
v 0.556482 0.037500 0.317652
v 0.169933 0.037500 0.345976
v -0.075880 0.037500 0.296812
v -0.075880 0.037500 0.296812
v 0.099436 0.037500 0.292191
v -0.433084 0.037500 0.212238
v 0.567553 0.037500 0.192820
v -0.003431 0.037500 0.273565
v -0.449078 0.037500 0.136501
v -0.449078 0.037500 0.136501
v 0.542719 0.037500 0.113302
v 0.542719 0.037500 0.113302
v 0.276909 0.037500 0.155765
v 0.366972 0.037500 0.148872
v -0.587267 0.037500 0.165188
v -0.659473 0.037500 0.167206
v -0.659473 0.037500 0.167206
v -0.699381 0.037500 0.100308
v -0.507406 0.037500 0.134806
v 0.226789 0.037500 0.091196
v 0.467384 0.037500 0.113411
v -0.700521 0.037500 0.003538
v 0.222898 0.037500 -0.003651
v -0.660976 0.037500 -0.064169
v 0.265697 0.037500 -0.066567
v 0.265697 0.037500 -0.066567
v 0.522226 0.037500 -0.022173
v 0.522226 0.037500 -0.022173
v 0.446808 0.037500 -0.019789
v 0.349850 0.037500 -0.056849
v 0.551123 0.037500 -0.109978
v -0.498920 0.037500 -0.037243
v -0.436638 0.037500 -0.045538
v -0.436638 0.037500 -0.045538
v -0.584713 0.037500 -0.063955
v -0.421421 0.037500 -0.131191
v 0.546186 0.037500 -0.245970
v -0.438868 0.037500 -0.259956
v 0.514128 0.037500 -0.473959
v 0.514128 0.037500 -0.473959
v 0.182587 0.037500 -0.424688
v 0.306034 0.037500 -0.434757
v -0.146723 0.037500 -0.415775
v -0.060167 0.037500 -0.436287
v -0.060167 0.037500 -0.436287
v -0.275156 0.037500 -0.429394
v 0.104404 0.037500 -0.448330
v 0.104404 0.037500 -0.448330
v -0.049309 0.037500 -0.505333
v 0.105627 0.037500 -0.519133
v -0.487782 0.037500 -0.473959
v -0.487782 0.037500 -0.473959
v -0.072968 0.037500 -0.598953
v 0.142437 0.037500 -0.612362
v -0.071219 0.037500 -0.683598
v 0.151522 0.037500 -0.693735
v 0.151522 0.037500 -0.693735
v -0.003922 0.037500 -0.731110
v 0.089922 0.037500 -0.734888
v 0.316755 -0.037500 0.567440
v 0.200180 -0.037500 0.580339
v 0.127524 -0.037498 0.564289
v 0.127524 -0.037498 0.564289
v 0.131016 -0.037498 0.506426
v -0.139875 -0.037498 0.543795
v -0.270315 -0.037500 0.545904
v -0.054018 -0.037500 0.513170
v -0.054018 -0.037500 0.513170
v 0.514128 -0.037500 0.527739
v 0.514128 -0.037500 0.527739
v -0.487781 -0.037500 0.527739
v -0.487781 -0.037500 0.527739
v -0.047600 -0.037500 0.444887
v 0.166315 -0.037500 0.424984
v -0.076271 -0.037500 0.362282
v -0.446661 -0.037498 0.330027
v 0.556482 -0.037500 0.317652
v 0.169933 -0.037500 0.345976
v -0.075880 -0.037500 0.296812
v -0.075880 -0.037500 0.296812
v 0.099436 -0.037498 0.292191
v -0.433084 -0.037500 0.212238
v 0.567553 -0.037500 0.192820
v -0.003431 -0.037500 0.273565
v -0.449078 -0.037500 0.136501
v -0.449078 -0.037500 0.136501
v 0.542719 -0.037500 0.113302
v 0.542719 -0.037500 0.113302
v 0.276909 -0.037500 0.155765
v 0.366972 -0.037500 0.148872
v -0.587267 -0.037500 0.165188
v -0.659473 -0.037500 0.167206
v -0.659473 -0.037500 0.167206
v -0.699381 -0.037500 0.100308
v -0.507406 -0.037500 0.134806
v 0.226789 -0.037498 0.091196
v 0.467384 -0.037500 0.113411
v -0.700521 -0.037500 0.003538
v 0.222898 -0.037500 -0.003651
v -0.660976 -0.037500 -0.064169
v 0.265697 -0.037500 -0.066567
v 0.265697 -0.037500 -0.066567
v 0.522226 -0.037500 -0.022173
v 0.522226 -0.037500 -0.022173
v 0.446808 -0.037500 -0.019789
v 0.349850 -0.037500 -0.056849
v 0.551123 -0.037500 -0.109978
v -0.498920 -0.037500 -0.037243
v -0.436638 -0.037500 -0.045538
v -0.436638 -0.037500 -0.045538
v -0.584713 -0.037500 -0.063955
v -0.421421 -0.037498 -0.131191
v 0.546186 -0.037500 -0.245970
v -0.438868 -0.037500 -0.259956
v 0.514128 -0.037500 -0.473959
v 0.514128 -0.037500 -0.473959
v 0.182587 -0.037500 -0.424688
v 0.306034 -0.037500 -0.434757
v -0.146723 -0.037498 -0.415775
v -0.060167 -0.037500 -0.436287
v -0.060167 -0.037500 -0.436287
v -0.275156 -0.037498 -0.429394
v 0.104404 -0.037500 -0.448330
v 0.104404 -0.037500 -0.448330
v -0.049309 -0.037500 -0.505333
v 0.105627 -0.037500 -0.519133
v -0.487782 -0.037498 -0.473959
v -0.487782 -0.037498 -0.473959
v -0.072968 -0.037498 -0.598953
v 0.142437 -0.037500 -0.612362
v -0.071219 -0.037500 -0.683598
v 0.151522 -0.037500 -0.693735
v 0.151522 -0.037500 -0.693735
v -0.003922 -0.037500 -0.731110
v 0.089922 -0.037500 -0.734888
vt 0.500000 0.500000
vt 0.500000 0.500000
vt 0.500000 0.500000
vt 0.500000 0.500000
vt 0.500000 0.500000
vt 0.500000 0.500000
vt 0.500000 0.500000
vt 0.500000 0.500000
vt 0.500000 0.500000
vt 0.500000 0.500000
vt 0.500000 0.500000
vt 0.500000 0.500000
vt 0.500000 0.500000
vt 0.500000 0.500000
vt 0.500000 0.500000
vt 0.500000 0.500000
vt 0.500000 0.500000
vt 0.500000 0.500000
vt 0.500000 0.500000
vt 0.500000 0.500000
vt 0.500000 0.500000
vt 0.500000 0.500000
vt 0.500000 0.500000
vt 0.500000 0.500000
vt 0.500000 0.500000
vt 0.500000 0.500000
vt 0.500000 0.500000
vt 0.500000 0.500000
vt 0.500000 0.500000
vt 0.500000 0.500000
vt 0.500000 0.500000
vt 0.500000 0.500000
vt 0.500000 0.500000
vt 0.500000 0.500000
vt 0.500000 0.500000
vt 0.500000 0.500000
vt 0.500000 0.500000
vt 0.500000 0.500000
vt 0.500000 0.500000
vt 0.500000 0.500000
vt 0.500000 0.500000
vt 0.500000 0.500000
vt 0.500000 0.500000
vt 0.500000 0.500000
vt 0.500000 0.500000
vt 0.500000 0.500000
vt 0.500000 0.500000
vt 0.500000 0.500000
vt 0.500000 0.500000
vt 0.500000 0.500000
vt 0.500000 0.500000
vt 0.500000 0.500000
vt 0.500000 0.500000
vt 0.500000 0.500000
vt 0.500000 0.500000
vt 0.500000 0.500000
vt 0.500000 0.500000
vt 0.500000 0.500000
vt 0.500000 0.500000
vt 0.500000 0.500000
vt 0.500000 0.500000
vt 0.500000 0.500000
vt 0.500000 0.500000
vt 0.500000 0.500000
vt 0.500000 0.500000
vt 0.500000 0.500000
vt 0.500000 0.500000
vt 0.500000 0.500000
vt 0.500000 0.500000
vt 0.500000 0.500000
vt 0.500000 0.500000
vt 0.500000 0.500000
vt 0.500000 0.500000
vt 0.500000 0.500000
vt 0.500000 0.500000
vt 0.500000 0.500000
vt 0.500000 0.500000
vt 0.500000 0.500000
vt 0.500000 0.500000
vt 0.500000 0.500000
vt 0.500000 0.500000
vt 0.500000 0.500000
vt 0.500000 0.500000
vt 0.500000 0.500000
vt 0.500000 0.500000
vt 0.500000 0.500000
vt 0.500000 0.500000
vt 0.500000 0.500000
vt 0.500000 0.500000
vt 0.500000 0.500000
vt 0.500000 0.500000
vt 0.500000 0.500000
vt 0.500000 0.500000
vt 0.500000 0.500000
vt 0.500000 0.500000
vt 0.500000 0.500000
vt 0.500000 0.500000
vt 0.500000 0.500000
vt 0.500000 0.500000
vt 0.500000 0.500000
vt 0.500000 0.500000
vt 0.500000 0.500000
vt 0.500000 0.500000
vt 0.500000 0.500000
vt 0.500000 0.500000
vt 0.500000 0.500000
vt 0.500000 0.500000
vt 0.500000 0.500000
vt 0.500000 0.500000
vt 0.500000 0.500000
vt 0.500000 0.500000
vt 0.500000 0.500000
vt 0.500000 0.500000
vt 0.500000 0.500000
vt 0.500000 0.500000
vt 0.500000 0.500000
vt 0.500000 0.500000
vt 0.500000 0.500000
vt 0.500000 0.500000
vt 0.500000 0.500000
vt 0.500000 0.500000
vt 0.500000 0.500000
vt 0.500000 0.500000
vt 0.500000 0.500000
vt 0.500000 0.500000
vt 0.500000 0.500000
vt 0.500000 0.500000
vt 0.500000 0.500000
vt 0.500000 0.500000
vt 0.500000 0.500000
vt 0.500000 0.500000
vt 0.500000 0.500000
vt 0.500000 0.500000
vt 0.500000 0.500000
vt 0.500000 0.500000
vt 0.500000 0.500000
vt 0.500000 0.500000
vt 0.500000 0.500000
vt 0.500000 0.500000
vt 0.500000 0.500000
vt 0.500000 0.500000
vt 0.500000 0.500000
vt 0.500000 0.500000
vt 0.500000 0.500000
vt 0.500000 0.500000
vt 0.500000 0.500000
vt 0.500000 0.500000
vt 0.500000 0.500000
vt 0.500000 0.500000
vt 0.500000 0.500000
vt 0.500000 0.500000
vt 0.500000 0.500000
vt 0.500000 0.500000
vt 0.500000 0.500000
vt 0.500000 0.500000
vt 0.500000 0.500000
vt 0.500000 0.500000
vt 0.500000 0.500000
vt 0.500000 0.500000
vt 0.500000 0.500000
vt 0.500000 0.500000
vt 0.500000 0.500000
vt 0.500000 0.500000
vt 0.500000 0.500000
vt 0.500000 0.500000
vt 0.500000 0.500000
vt 0.500000 0.500000
vt 0.500000 0.500000
vt 0.500000 0.500000
vt 0.500000 0.500000
vt 0.500000 0.500000
vt 0.500000 0.500000
vt 0.500000 0.500000
vt 0.500000 0.500000
vt 0.500000 0.500000
vt 0.500000 0.500000
vt 0.500000 0.500000
vt 0.500000 0.500000
vt 0.500000 0.500000
vt 0.500000 0.500000
vt 0.500000 0.500000
vt 0.500000 0.500000
vt 0.500000 0.500000
vt 0.500000 0.500000
vt 0.500000 0.500000
vt 0.500000 0.500000
vt 0.500000 0.500000
vt 0.500000 0.500000
vt 0.500000 0.500000
vt 0.500000 0.500000
vt 0.500000 0.500000
vt 0.500000 0.500000
vt 0.500000 0.500000
vt 0.500000 0.500000
vt 0.500000 0.500000
vt 0.500000 0.500000
vt 0.500000 0.500000
vt 0.500000 0.500000
vt 0.500000 0.500000
vt 0.500000 0.500000
vt 0.500000 0.500000
vt 0.500000 0.500000
vt 0.500000 0.500000
vt 0.500000 0.500000
vt 0.500000 0.500000
vt 0.500000 0.500000
vt 0.500000 0.500000
vt 0.500000 0.500000
vt 0.500000 0.500000
vt 0.500000 0.500000
vt 0.500000 0.500000
vt 0.500000 0.500000
vt 0.176750 0.578289
vt 0.177083 0.574074
vt 0.179247 0.574799
vt 0.183222 0.589534
vt 0.183218 0.588323
vt 0.187072 0.588937
vt 0.188534 0.585890
vt 0.187704 0.585328
vt 0.188508 0.581654
vt 0.187098 0.585360
vt 0.186968 0.581994
vt 0.187616 0.582148
vt 0.187500 0.592593
vt 0.185239 0.592928
vt 0.179135 0.593327
vt 0.177083 0.592593
vt 0.176643 0.588709
vt 0.182464 0.587894
vt 0.180071 0.584522
vt 0.180111 0.582769
vt 0.176528 0.586401
vt 0.178613 0.585588
vt 0.179666 0.581606
vt 0.181343 0.574548
vt 0.183054 0.574771
vt 0.178791 0.581785
vt 0.177783 0.582470
vt 0.176699 0.580803
vt 0.180347 0.593565
vt 0.180699 0.590693
vt 0.182941 0.573494
vt 0.189285 0.585927
vt 0.189700 0.584691
vt 0.189712 0.582902
vt 0.189301 0.581650
vt 0.182469 0.569320
vt 0.180948 0.571515
vt 0.181494 0.569250
vt 0.183187 0.571763
vt 0.182990 0.592323
vt 0.182924 0.591061
vt 0.183883 0.592889
vt 0.181330 0.573239
vt 0.186931 0.586760
vt 0.185289 0.574898
vt 0.187500 0.574074
vt 0.186991 0.578030
vt 0.186810 0.580411
vt 0.181066 0.592199
vt 0.180662 0.589232
vt 0.179550 0.585716
vt 0.181395 0.588238
vt 0.176999 0.582426
vt 0.183954 0.575150
vt 0.180853 0.570011
vt 0.180530 0.574985
vt 0.183169 0.570198
vt 0.177569 0.584933
vt 0.181103 0.593268
vt 0.176786 0.584931
vn 0.0000 -1.0000 0.0000
vn 0.1100 0.0000 0.9939
vn -0.2157 0.0000 0.9765
vn -0.9982 0.0000 -0.0602
vn 0.0162 0.0000 0.9999
vn 0.3360 0.0000 0.9419
vn 0.1972 0.0000 0.9804
vn -0.0832 0.0000 0.9965
vn 0.9956 0.0000 0.0936
vn -0.9175 0.0000 -0.3977
vn 0.9447 0.0000 -0.3279
vn -0.9790 0.0000 -0.2036
vn 0.9803 0.0000 0.1976
vn -0.9990 0.0000 -0.0457
vn 1.0000 0.0000 0.0060
vn -0.6066 0.0000 0.7950
vn -0.9934 0.0000 -0.1145
vn 0.9961 0.0000 0.0883
vn 0.3055 0.0000 0.9522
vn -0.1782 0.0000 0.9840
vn -0.9784 0.0000 0.2066
vn 0.9545 0.0000 -0.2981
vn -0.0763 0.0000 -0.9971
vn 0.0279 0.0000 0.9996
vn -0.8588 0.0000 0.5123
vn 0.3556 0.0000 0.9346
vn 0.7900 0.0000 -0.6132
vn -0.0014 0.0000 -1.0000
vn -0.3330 0.0000 -0.9429
vn -0.0291 0.0000 0.9996
vn -0.9999 0.0000 0.0118
vn 0.9992 0.0000 -0.0410
vn -0.8635 0.0000 -0.5043
vn 0.8268 0.0000 0.5625
vn 0.0316 0.0000 0.9995
vn -0.3570 0.0000 0.9341
vn 0.9499 0.0000 0.3126
vn -0.1320 0.0000 -0.9912
vn 0.2973 0.0000 -0.9548
vn 0.0028 0.0000 -1.0000
vn -0.9846 0.0000 -0.1749
vn -0.1147 0.0000 0.9934
vn 0.9993 0.0000 -0.0363
vn -0.9909 0.0000 0.1343
vn 0.9903 0.0000 -0.1392
vn -0.0813 0.0000 -0.9967
vn -0.2306 0.0000 -0.9731
vn 0.1054 0.0000 -0.9944
vn 0.2894 0.0000 -0.9572
vn -0.9879 0.0000 -0.1554
vn 0.9999 0.0000 0.0173
vn 0.2051 0.0000 -0.9787
vn -0.9749 0.0000 0.2228
vn -0.1851 0.0000 -0.9827
vn -0.9695 0.0000 0.2450
vn 0.9301 0.0000 0.3672
vn -0.9998 0.0000 -0.0207
vn 0.9938 0.0000 0.1110
vn -0.5768 0.0000 -0.8169
vn 0.5555 0.0000 -0.8315
vn -0.0402 0.0000 -0.9992
vn 0.0000 1.0000 0.0000
usemtl BackMat.001
s off
f 250/1/1 255/2/1 252/3/1
f 212/4/1 213/5/1 216/6/1
f 228/7/1 248/8/1 232/9/1
f 222/10/1 245/11/1 246/12/1
f 208/13/1 213/5/1 203/14/1
f 197/15/1 214/16/1 206/17/1
f 216/6/1 246/12/1 221/18/1
f 233/19/1 221/18/1 236/20/1
f 214/16/1 227/21/1 220/22/1
f 238/23/1 257/24/1 260/25/1
f 243/26/1 244/27/1 242/28/1
f 198/29/1 211/30/1 197/15/1
f 262/31/1 260/25/1 257/24/1
f 250/1/1 243/26/1 255/2/1
f 232/9/1 245/11/1 222/10/1
f 229/32/1 231/33/1 228/7/1
f 231/33/1 235/34/1 228/7/1
f 237/35/1 248/8/1 235/34/1
f 271/36/1 272/37/1 267/38/1
f 203/14/1 213/5/1 212/4/1
f 271/36/1 267/38/1 266/39/1
f 204/40/1 202/41/1 210/42/1
f 260/25/1 262/31/1 263/43/1
f 219/44/1 222/10/1 216/6/1
f 266/39/1 263/43/1 262/31/1
f 259/45/1 251/46/1 264/47/1
f 221/18/1 246/12/1 249/48/1
f 211/30/1 198/29/1 201/49/1
f 202/41/1 203/14/1 212/4/1
f 243/26/1 238/23/1 255/2/1
f 248/8/1 228/7/1 235/34/1
f 213/5/1 219/44/1 216/6/1
f 211/30/1 215/50/1 197/15/1
f 226/51/1 218/52/1 233/19/1
f 221/18/1 249/48/1 236/20/1
f 218/52/1 221/18/1 233/19/1
f 245/11/1 232/9/1 248/8/1
f 227/21/1 215/50/1 226/51/1
f 263/43/1 266/39/1 267/38/1
f 242/28/1 244/27/1 240/53/1
f 214/16/1 215/50/1 227/21/1
f 236/20/1 249/48/1 256/54/1
f 267/38/1 272/37/1 269/55/1
f 222/10/1 246/12/1 216/6/1
f 238/23/1 260/25/1 254/56/1
f 238/23/1 254/56/1 255/2/1
f 256/54/1 257/24/1 236/20/1
f 236/20/1 257/24/1 238/23/1
f 251/46/1 256/54/1 249/48/1
f 210/42/1 202/41/1 212/4/1
f 271/36/1 266/39/1 268/57/1
f 197/15/1 215/50/1 214/16/1
f 227/21/1 234/58/1 220/22/1
f 256/54/1 251/46/1 259/45/1
f 244/27/1 243/26/1 250/1/1
f 215/50/1 218/52/1 226/51/1
f 201/49/1 198/29/1 199/59/1
f 220/22/1 234/58/1 224/60/1
f 1/61/2 2/62/2 62/63/2 61/64/2
f 2/62/3 124/65/3 200/66/3 62/63/3
f 3/67/4 4/68/4 64/69/4 63/70/4
f 13/71/5 14/72/5 74/73/5 73/74/5
f 129/75/6 13/71/6 73/74/6 205/76/6
f 131/77/7 1/61/7 61/64/7 207/78/7
f 14/72/8 133/79/8 209/80/8 74/73/8
f 11/81/9 12/82/9 72/83/9 71/84/9
f 4/68/10 5/85/10 65/86/10 64/69/10
f 10/87/11 11/81/11 71/84/11 70/88/11
f 15/89/12 16/90/12 76/91/12 75/92/12
f 59/93/13 60/94/13 120/95/13 119/96/13
f 5/85/14 6/97/14 66/98/14 65/86/14
f 141/99/15 10/87/15 70/88/15 217/100/15
f 6/97/16 7/101/16 67/102/16 66/98/16
f 16/90/17 17/103/17 77/104/17 76/91/17
f 58/105/18 59/93/18 119/96/18 118/106/18
f 8/107/19 9/108/19 69/109/19 68/110/19
f 7/101/20 8/107/20 68/110/20 67/102/20
f 17/103/21 147/111/21 223/112/21 77/104/21
f 149/113/22 58/105/22 118/106/22 225/114/22
f 54/115/23 55/116/23 115/117/23 114/118/23
f 20/119/24 154/120/24 230/121/24 80/122/24
f 21/123/25 22/124/25 82/125/25 81/126/25
f 19/127/26 20/119/26 80/122/26 79/128/26
f 53/129/27 54/115/27 114/118/27 113/130/27
f 56/131/28 57/132/28 117/133/28 116/134/28
f 55/116/29 56/131/29 116/134/29 115/117/29
f 18/135/30 19/127/30 79/128/30 78/136/30
f 22/124/31 23/137/31 83/138/31 82/125/31
f 52/139/32 53/129/32 113/130/32 112/140/32
f 23/137/33 24/141/33 84/142/33 83/138/33
f 163/143/34 52/139/34 112/140/34 239/144/34
f 165/145/35 49/146/35 109/147/35 241/148/35
f 49/146/36 50/149/36 110/150/36 109/147/36
f 47/151/37 48/152/37 108/153/37 107/154/37
f 26/155/38 171/156/38 247/157/38 86/158/38
f 25/159/39 26/155/39 86/158/39 85/160/39
f 24/141/40 25/159/40 85/160/40 84/142/40
f 27/161/41 28/162/41 88/163/41 87/164/41
f 50/149/42 51/165/42 111/166/42 110/150/42
f 46/167/43 47/151/43 107/154/43 106/168/43
f 28/162/44 29/169/44 89/170/44 88/163/44
f 177/171/45 46/167/45 106/168/45 253/172/45
f 43/173/46 44/174/46 104/175/46 103/176/46
f 32/177/47 182/178/47 258/179/47 92/180/47
f 31/181/48 32/177/48 92/180/48 91/182/48
f 185/183/49 43/173/49 103/176/49 261/184/49
f 33/185/50 34/186/50 94/187/50 93/188/50
f 41/189/51 42/190/51 102/191/51 101/192/51
f 189/193/52 31/181/52 91/182/52 265/194/52
f 29/169/53 30/195/53 90/196/53 89/170/53
f 44/174/54 45/197/54 105/198/54 104/175/54
f 34/186/55 35/199/55 95/200/55 94/187/55
f 40/201/56 41/189/56 101/192/56 100/202/56
f 35/199/57 36/203/57 96/204/57 95/200/57
f 194/205/58 40/201/58 100/202/58 270/206/58
f 36/203/59 37/207/59 97/208/59 96/204/59
f 38/209/60 39/210/60 99/211/60 98/212/60
f 37/207/61 38/209/61 98/212/61 97/208/61
usemtl FrontMat.001
f 174/213/62 176/214/62 179/215/62
f 136/216/62 140/217/62 137/218/62
f 152/219/62 156/220/62 172/221/62
f 146/222/62 170/223/62 169/224/62
f 132/225/62 127/226/62 137/218/62
f 121/227/62 130/228/62 138/229/62
f 140/217/62 145/230/62 170/223/62
f 157/231/62 160/232/62 145/230/62
f 138/229/62 144/233/62 151/234/62
f 162/235/62 184/236/62 181/237/62
f 167/238/62 166/239/62 168/240/62
f 122/241/62 121/227/62 135/242/62
f 186/243/62 181/237/62 184/236/62
f 174/213/62 179/215/62 167/238/62
f 156/220/62 146/222/62 169/224/62
f 153/244/62 152/219/62 155/245/62
f 155/245/62 152/219/62 159/246/62
f 161/247/62 159/246/62 172/221/62
f 195/248/62 191/249/62 196/250/62
f 127/226/62 136/216/62 137/218/62
f 195/248/62 190/251/62 191/249/62
f 128/252/62 134/253/62 126/254/62
f 184/236/62 187/255/62 186/243/62
f 143/256/62 140/217/62 146/222/62
f 190/251/62 186/243/62 187/255/62
f 183/257/62 188/258/62 175/259/62
f 145/230/62 173/260/62 170/223/62
f 135/242/62 125/261/62 122/241/62
f 126/254/62 136/216/62 127/226/62
f 167/238/62 179/215/62 162/235/62
f 172/221/62 159/246/62 152/219/62
f 137/218/62 140/217/62 143/256/62
f 135/242/62 121/227/62 139/262/62
f 150/263/62 157/231/62 142/264/62
f 145/230/62 160/232/62 173/260/62
f 142/264/62 157/231/62 145/230/62
f 169/224/62 172/221/62 156/220/62
f 151/234/62 150/263/62 139/262/62
f 187/255/62 191/249/62 190/251/62
f 166/239/62 164/265/62 168/240/62
f 138/229/62 151/234/62 139/262/62
f 160/232/62 180/266/62 173/260/62
f 191/249/62 193/267/62 196/250/62
f 146/222/62 140/217/62 170/223/62
f 162/235/62 178/268/62 184/236/62
f 162/235/62 179/215/62 178/268/62
f 180/266/62 160/232/62 181/237/62
f 160/232/62 162/235/62 181/237/62
f 175/259/62 173/260/62 180/266/62
f 134/253/62 136/216/62 126/254/62
f 195/248/62 192/269/62 190/251/62
f 121/227/62 138/229/62 139/262/62
f 151/234/62 144/233/62 158/270/62
f 180/266/62 183/257/62 175/259/62
f 168/240/62 174/213/62 167/238/62
f 139/262/62 150/263/62 142/264/62
f 125/261/62 123/271/62 122/241/62
f 144/233/62 148/272/62 158/270/62
