# Blender v2.83.1 OBJ File: 'jigsaw-96x54-3-step2.blend'
# www.blender.org
mtllib piece.3399.mtl
o path6798
v -0.534828 0.037500 0.294937
v -0.548557 0.037500 0.172897
v -0.532234 0.037500 0.096138
v -0.472557 0.037500 0.098435
v -0.388973 0.037500 0.135288
v -0.309116 0.037500 0.142628
v -0.257385 0.037500 0.077293
v -0.245304 0.037500 -0.020245
v -0.281162 0.037500 -0.088608
v -0.365128 0.037500 -0.087181
v -0.464901 0.037500 -0.058392
v -0.540062 0.037500 -0.065441
v -0.561432 0.037500 -0.151890
v -0.544800 0.037500 -0.282741
v -0.493137 0.037500 -0.500652
v -0.151634 0.037500 -0.465618
v -0.063892 0.037500 -0.485882
v -0.051048 0.037500 -0.543285
v -0.073387 0.037500 -0.619366
v -0.072811 0.037500 -0.688370
v -0.009930 0.037500 -0.728237
v 0.079529 0.037500 -0.731701
v 0.141109 0.037500 -0.695175
v 0.139000 0.037500 -0.621094
v 0.111931 0.037500 -0.535683
v 0.117283 0.037500 -0.471176
v 0.194633 0.037500 -0.450810
v 0.312359 0.037500 -0.461823
v 0.508774 0.037500 -0.500652
v 0.533035 0.037500 -0.286850
v 0.534637 0.037500 -0.157780
v 0.506569 0.037500 -0.070965
v 0.438675 0.037500 -0.060593
v 0.355240 0.037500 -0.085983
v 0.289135 0.037500 -0.087730
v 0.266121 0.037500 -0.025570
v 0.283463 0.037500 0.064156
v 0.331295 0.037500 0.125954
v 0.398190 0.037500 0.123306
v 0.466396 0.037500 0.095592
v 0.516586 0.037500 0.101162
v 0.535122 0.037500 0.180233
v 0.508774 0.037500 0.501045
v 0.303745 0.037500 0.471382
v 0.182003 0.037500 0.464737
v 0.104656 0.037500 0.485420
v 0.105023 0.037500 0.544296
v 0.138699 0.037500 0.622337
v 0.141850 0.037500 0.693043
v 0.071896 0.037500 0.733727
v -0.028610 0.037500 0.736992
v -0.095863 0.037500 0.699257
v -0.087940 0.037500 0.623024
v -0.050461 0.037500 0.535320
v -0.050930 0.037500 0.469273
v -0.136036 0.037500 0.448727
v -0.269211 0.037500 0.460484
v -0.493137 0.037500 0.501045
v -0.534828 -0.037500 0.294937
v -0.548557 -0.037500 0.172897
v -0.532234 -0.037500 0.096138
v -0.472557 -0.037498 0.098435
v -0.388973 -0.037498 0.135288
v -0.309116 -0.037500 0.142628
v -0.257385 -0.037498 0.077293
v -0.245304 -0.037498 -0.020245
v -0.281162 -0.037500 -0.088608
v -0.365128 -0.037500 -0.087181
v -0.464901 -0.037500 -0.058392
v -0.540062 -0.037500 -0.065441
v -0.561432 -0.037500 -0.151890
v -0.544800 -0.037500 -0.282741
v -0.493137 -0.037498 -0.500652
v -0.151634 -0.037500 -0.465618
v -0.063892 -0.037500 -0.485882
v -0.051048 -0.037498 -0.543285
v -0.073387 -0.037500 -0.619366
v -0.072811 -0.037500 -0.688370
v -0.009930 -0.037500 -0.728237
v 0.079529 -0.037500 -0.731701
v 0.141109 -0.037500 -0.695175
v 0.139000 -0.037498 -0.621094
v 0.111931 -0.037498 -0.535683
v 0.117283 -0.037500 -0.471176
v 0.194633 -0.037498 -0.450810
v 0.312359 -0.037500 -0.461823
v 0.508774 -0.037500 -0.500652
v 0.533035 -0.037500 -0.286850
v 0.534637 -0.037500 -0.157780
v 0.506569 -0.037500 -0.070965
v 0.438675 -0.037500 -0.060593
v 0.355240 -0.037498 -0.085983
v 0.289135 -0.037500 -0.087730
v 0.266121 -0.037500 -0.025570
v 0.283463 -0.037500 0.064156
v 0.331295 -0.037500 0.125954
v 0.398190 -0.037500 0.123306
v 0.466396 -0.037500 0.095592
v 0.516586 -0.037500 0.101162
v 0.535122 -0.037500 0.180233
v 0.508774 -0.037500 0.501045
v 0.303745 -0.037500 0.471382
v 0.182003 -0.037500 0.464737
v 0.104656 -0.037500 0.485420
v 0.105023 -0.037500 0.544296
v 0.138699 -0.037500 0.622337
v 0.141850 -0.037500 0.693043
v 0.071896 -0.037500 0.733727
v -0.028610 -0.037500 0.736992
v -0.095863 -0.037500 0.699257
v -0.087940 -0.037500 0.623024
v -0.050461 -0.037500 0.535320
v -0.050930 -0.037500 0.469273
v -0.136036 -0.037500 0.448727
v -0.269211 -0.037500 0.460484
v -0.493137 -0.037500 0.501045
v 0.071896 0.037500 0.733727
v -0.028610 0.037500 0.736992
v -0.095863 0.037500 0.699257
v -0.095863 0.037500 0.699257
v 0.141850 0.037500 0.693043
v 0.141850 0.037500 0.693043
v -0.087940 0.037500 0.623024
v 0.138699 0.037500 0.622337
v -0.050461 0.037500 0.535320
v 0.105023 0.037500 0.544296
v 0.104656 0.037500 0.485420
v 0.104656 0.037500 0.485420
v -0.050930 0.037500 0.469273
v -0.050930 0.037500 0.469273
v 0.508774 0.037500 0.501045
v 0.508774 0.037500 0.501045
v 0.303745 0.037500 0.471382
v 0.182003 0.037500 0.464737
v -0.269211 0.037500 0.460484
v -0.493137 0.037500 0.501045
v -0.493137 0.037500 0.501045
v -0.136036 0.037500 0.448727
v -0.534828 0.037500 0.294937
v 0.535122 0.037500 0.180233
v -0.548557 0.037500 0.172897
v 0.516586 0.037500 0.101162
v 0.516586 0.037500 0.101162
v 0.331295 0.037500 0.125954
v 0.398190 0.037500 0.123306
v -0.388973 0.037500 0.135288
v -0.309116 0.037500 0.142628
v -0.532234 0.037500 0.096138
v -0.532234 0.037500 0.096138
v -0.257385 0.037500 0.077293
v -0.472557 0.037500 0.098435
v 0.283463 0.037500 0.064156
v 0.466396 0.037500 0.095592
v -0.245304 0.037500 -0.020245
v 0.266121 0.037500 -0.025570
v -0.281162 0.037500 -0.088608
v -0.281162 0.037500 -0.088608
v 0.289135 0.037500 -0.087730
v 0.289135 0.037500 -0.087730
v -0.365128 0.037500 -0.087181
v -0.464901 0.037500 -0.058392
v -0.540062 0.037500 -0.065441
v -0.540062 0.037500 -0.065441
v 0.506569 0.037500 -0.070965
v 0.506569 0.037500 -0.070965
v 0.438675 0.037500 -0.060593
v 0.355240 0.037500 -0.085983
v -0.561432 0.037500 -0.151890
v 0.534637 0.037500 -0.157780
v -0.544800 0.037500 -0.282741
v 0.533035 0.037500 -0.286850
v 0.508774 0.037500 -0.500652
v 0.508774 0.037500 -0.500652
v 0.194633 0.037500 -0.450810
v 0.312359 0.037500 -0.461823
v 0.117283 0.037500 -0.471176
v 0.117283 0.037500 -0.471176
v -0.151634 0.037500 -0.465618
v -0.063892 0.037500 -0.485882
v -0.063892 0.037500 -0.485882
v 0.111931 0.037500 -0.535683
v -0.493137 0.037500 -0.500652
v -0.493137 0.037500 -0.500652
v -0.051048 0.037500 -0.543285
v 0.139000 0.037500 -0.621094
v -0.073387 0.037500 -0.619366
v -0.072811 0.037500 -0.688370
v 0.141109 0.037500 -0.695175
v 0.141109 0.037500 -0.695175
v -0.009930 0.037500 -0.728237
v 0.079529 0.037500 -0.731701
v 0.071896 -0.037500 0.733727
v -0.028610 -0.037500 0.736992
v -0.095863 -0.037500 0.699257
v -0.095863 -0.037500 0.699257
v 0.141850 -0.037500 0.693043
v 0.141850 -0.037500 0.693043
v -0.087940 -0.037500 0.623024
v 0.138699 -0.037500 0.622337
v -0.050461 -0.037500 0.535320
v 0.105023 -0.037500 0.544296
v 0.104656 -0.037500 0.485420
v 0.104656 -0.037500 0.485420
v -0.050930 -0.037500 0.469273
v -0.050930 -0.037500 0.469273
v 0.508774 -0.037500 0.501045
v 0.508774 -0.037500 0.501045
v 0.303745 -0.037500 0.471382
v 0.182003 -0.037500 0.464737
v -0.269211 -0.037500 0.460484
v -0.493137 -0.037500 0.501045
v -0.493137 -0.037500 0.501045
v -0.136036 -0.037500 0.448727
v -0.534828 -0.037500 0.294937
v 0.535122 -0.037500 0.180233
v -0.548557 -0.037500 0.172897
v 0.516586 -0.037500 0.101162
v 0.516586 -0.037500 0.101162
v 0.331295 -0.037500 0.125954
v 0.398190 -0.037500 0.123306
v -0.388973 -0.037498 0.135288
v -0.309116 -0.037500 0.142628
v -0.532234 -0.037500 0.096138
v -0.532234 -0.037500 0.096138
v -0.257385 -0.037498 0.077293
v -0.472557 -0.037498 0.098435
v 0.283463 -0.037500 0.064156
v 0.466396 -0.037500 0.095592
v -0.245304 -0.037498 -0.020245
v 0.266121 -0.037500 -0.025570
v -0.281162 -0.037500 -0.088608
v -0.281162 -0.037500 -0.088608
v 0.289135 -0.037500 -0.087730
v 0.289135 -0.037500 -0.087730
v -0.365128 -0.037500 -0.087181
v -0.464901 -0.037500 -0.058392
v -0.540062 -0.037500 -0.065441
v -0.540062 -0.037500 -0.065441
v 0.506569 -0.037500 -0.070965
v 0.506569 -0.037500 -0.070965
v 0.438675 -0.037500 -0.060593
v 0.355240 -0.037498 -0.085983
v -0.561432 -0.037500 -0.151890
v 0.534637 -0.037500 -0.157780
v -0.544800 -0.037500 -0.282741
v 0.533035 -0.037500 -0.286850
v 0.508774 -0.037500 -0.500652
v 0.508774 -0.037500 -0.500652
v 0.194633 -0.037498 -0.450810
v 0.312359 -0.037500 -0.461823
v 0.117283 -0.037500 -0.471176
v 0.117283 -0.037500 -0.471176
v -0.151634 -0.037500 -0.465618
v -0.063892 -0.037500 -0.485882
v -0.063892 -0.037500 -0.485882
v 0.111931 -0.037498 -0.535683
v -0.493137 -0.037498 -0.500652
v -0.493137 -0.037498 -0.500652
v -0.051048 -0.037498 -0.543285
v 0.139000 -0.037498 -0.621094
v -0.073387 -0.037500 -0.619366
v -0.072811 -0.037500 -0.688370
v 0.141109 -0.037500 -0.695175
v 0.141109 -0.037500 -0.695175
v -0.009930 -0.037500 -0.728237
v 0.079529 -0.037500 -0.731701
vt 0.500000 0.500000
vt 0.500000 0.500000
vt 0.500000 0.500000
vt 0.500000 0.500000
vt 0.500000 0.500000
vt 0.500000 0.500000
vt 0.500000 0.500000
vt 0.500000 0.500000
vt 0.500000 0.500000
vt 0.500000 0.500000
vt 0.500000 0.500000
vt 0.500000 0.500000
vt 0.500000 0.500000
vt 0.500000 0.500000
vt 0.500000 0.500000
vt 0.500000 0.500000
vt 0.500000 0.500000
vt 0.500000 0.500000
vt 0.500000 0.500000
vt 0.500000 0.500000
vt 0.500000 0.500000
vt 0.500000 0.500000
vt 0.500000 0.500000
vt 0.500000 0.500000
vt 0.500000 0.500000
vt 0.500000 0.500000
vt 0.500000 0.500000
vt 0.500000 0.500000
vt 0.500000 0.500000
vt 0.500000 0.500000
vt 0.500000 0.500000
vt 0.500000 0.500000
vt 0.500000 0.500000
vt 0.500000 0.500000
vt 0.500000 0.500000
vt 0.500000 0.500000
vt 0.500000 0.500000
vt 0.500000 0.500000
vt 0.500000 0.500000
vt 0.500000 0.500000
vt 0.500000 0.500000
vt 0.500000 0.500000
vt 0.500000 0.500000
vt 0.500000 0.500000
vt 0.500000 0.500000
vt 0.500000 0.500000
vt 0.500000 0.500000
vt 0.500000 0.500000
vt 0.500000 0.500000
vt 0.500000 0.500000
vt 0.500000 0.500000
vt 0.500000 0.500000
vt 0.500000 0.500000
vt 0.500000 0.500000
vt 0.500000 0.500000
vt 0.500000 0.500000
vt 0.500000 0.500000
vt 0.500000 0.500000
vt 0.500000 0.500000
vt 0.500000 0.500000
vt 0.500000 0.500000
vt 0.500000 0.500000
vt 0.500000 0.500000
vt 0.500000 0.500000
vt 0.500000 0.500000
vt 0.500000 0.500000
vt 0.500000 0.500000
vt 0.500000 0.500000
vt 0.500000 0.500000
vt 0.500000 0.500000
vt 0.500000 0.500000
vt 0.500000 0.500000
vt 0.500000 0.500000
vt 0.500000 0.500000
vt 0.500000 0.500000
vt 0.500000 0.500000
vt 0.500000 0.500000
vt 0.500000 0.500000
vt 0.500000 0.500000
vt 0.500000 0.500000
vt 0.500000 0.500000
vt 0.500000 0.500000
vt 0.500000 0.500000
vt 0.500000 0.500000
vt 0.500000 0.500000
vt 0.500000 0.500000
vt 0.500000 0.500000
vt 0.500000 0.500000
vt 0.500000 0.500000
vt 0.500000 0.500000
vt 0.500000 0.500000
vt 0.500000 0.500000
vt 0.500000 0.500000
vt 0.500000 0.500000
vt 0.500000 0.500000
vt 0.500000 0.500000
vt 0.500000 0.500000
vt 0.500000 0.500000
vt 0.500000 0.500000
vt 0.500000 0.500000
vt 0.500000 0.500000
vt 0.500000 0.500000
vt 0.500000 0.500000
vt 0.500000 0.500000
vt 0.500000 0.500000
vt 0.500000 0.500000
vt 0.500000 0.500000
vt 0.500000 0.500000
vt 0.500000 0.500000
vt 0.500000 0.500000
vt 0.500000 0.500000
vt 0.500000 0.500000
vt 0.500000 0.500000
vt 0.500000 0.500000
vt 0.500000 0.500000
vt 0.500000 0.500000
vt 0.500000 0.500000
vt 0.500000 0.500000
vt 0.500000 0.500000
vt 0.500000 0.500000
vt 0.500000 0.500000
vt 0.500000 0.500000
vt 0.500000 0.500000
vt 0.500000 0.500000
vt 0.500000 0.500000
vt 0.500000 0.500000
vt 0.500000 0.500000
vt 0.500000 0.500000
vt 0.500000 0.500000
vt 0.500000 0.500000
vt 0.500000 0.500000
vt 0.500000 0.500000
vt 0.500000 0.500000
vt 0.500000 0.500000
vt 0.500000 0.500000
vt 0.500000 0.500000
vt 0.500000 0.500000
vt 0.500000 0.500000
vt 0.500000 0.500000
vt 0.500000 0.500000
vt 0.500000 0.500000
vt 0.500000 0.500000
vt 0.500000 0.500000
vt 0.500000 0.500000
vt 0.500000 0.500000
vt 0.500000 0.500000
vt 0.500000 0.500000
vt 0.500000 0.500000
vt 0.500000 0.500000
vt 0.500000 0.500000
vt 0.500000 0.500000
vt 0.500000 0.500000
vt 0.500000 0.500000
vt 0.500000 0.500000
vt 0.500000 0.500000
vt 0.500000 0.500000
vt 0.500000 0.500000
vt 0.500000 0.500000
vt 0.500000 0.500000
vt 0.500000 0.500000
vt 0.500000 0.500000
vt 0.500000 0.500000
vt 0.500000 0.500000
vt 0.500000 0.500000
vt 0.500000 0.500000
vt 0.500000 0.500000
vt 0.500000 0.500000
vt 0.500000 0.500000
vt 0.500000 0.500000
vt 0.500000 0.500000
vt 0.500000 0.500000
vt 0.500000 0.500000
vt 0.500000 0.500000
vt 0.500000 0.500000
vt 0.500000 0.500000
vt 0.500000 0.500000
vt 0.500000 0.500000
vt 0.500000 0.500000
vt 0.500000 0.500000
vt 0.500000 0.500000
vt 0.500000 0.500000
vt 0.500000 0.500000
vt 0.500000 0.500000
vt 0.500000 0.500000
vt 0.500000 0.500000
vt 0.500000 0.500000
vt 0.500000 0.500000
vt 0.500000 0.500000
vt 0.500000 0.500000
vt 0.500000 0.500000
vt 0.500000 0.500000
vt 0.500000 0.500000
vt 0.500000 0.500000
vt 0.500000 0.500000
vt 0.500000 0.500000
vt 0.500000 0.500000
vt 0.500000 0.500000
vt 0.500000 0.500000
vt 0.500000 0.500000
vt 0.500000 0.500000
vt 0.500000 0.500000
vt 0.500000 0.500000
vt 0.500000 0.500000
vt 0.500000 0.500000
vt 0.500000 0.500000
vt 0.500000 0.500000
vt 0.500000 0.500000
vt 0.500000 0.500000
vt 0.401652 0.351264
vt 0.400035 0.351563
vt 0.398176 0.343775
vt 0.397430 0.340999
vt 0.395581 0.337286
vt 0.397875 0.334051
vt 0.401787 0.333606
vt 0.403673 0.342215
vt 0.399904 0.333878
vt 0.401648 0.352486
vt 0.398117 0.340967
vt 0.401226 0.329126
vt 0.401886 0.331139
vt 0.399678 0.331107
vt 0.403922 0.351102
vt 0.402537 0.350885
vt 0.404337 0.345226
vt 0.403799 0.344018
vt 0.402037 0.354107
vt 0.402120 0.355516
vt 0.401420 0.356214
vt 0.406787 0.337362
vt 0.406960 0.339781
vt 0.404919 0.340977
vt 0.404046 0.340951
vt 0.401654 0.332545
vt 0.399099 0.334255
vt 0.400031 0.352651
vt 0.399681 0.354094
vt 0.405956 0.341510
vt 0.406657 0.344366
vt 0.406826 0.345785
vt 0.406036 0.344409
vt 0.405167 0.345090
vt 0.400296 0.329062
vt 0.406683 0.348042
vt 0.406250 0.351852
vt 0.397965 0.351303
vt 0.396983 0.344869
vt 0.397679 0.344918
vt 0.395559 0.345921
vt 0.395752 0.344459
vt 0.396274 0.344356
vt 0.399231 0.351181
vt 0.399656 0.329737
vt 0.395833 0.333333
vt 0.400375 0.356153
vt 0.398356 0.342116
vt 0.399959 0.332686
vt 0.401880 0.329863
vt 0.396562 0.341469
vt 0.395564 0.339672
vt 0.402699 0.333981
vt 0.395833 0.351852
vt 0.406250 0.333333
vt 0.406738 0.341379
vt 0.395856 0.341277
vt 0.399648 0.355401
vn 0.0000 -1.0000 0.0000
vn 0.0325 0.0000 0.9995
vn -0.4893 0.0000 0.8721
vn 0.5027 0.0000 0.8644
vn -0.9946 0.0000 -0.1034
vn 0.9990 0.0000 -0.0445
vn -0.9196 0.0000 -0.3930
vn 0.9182 0.0000 -0.3962
vn 1.0000 0.0000 -0.0062
vn -1.0000 0.0000 0.0071
vn -0.1432 0.0000 0.9897
vn 0.2583 0.0000 0.9661
vn 0.1782 0.0000 0.9840
vn -0.0545 0.0000 0.9985
vn -0.2347 0.0000 0.9721
vn 0.0879 0.0000 0.9961
vn -0.9801 0.0000 0.1983
vn 0.9966 0.0000 0.0819
vn -0.9937 0.0000 0.1118
vn 0.9736 0.0000 -0.2282
vn -0.0395 0.0000 -0.9992
vn 0.0915 0.0000 -0.9958
vn -0.9781 0.0000 -0.2080
vn -0.7840 0.0000 -0.6208
vn 0.4034 0.0000 -0.9150
vn 0.0385 0.0000 -0.9993
vn 0.7908 0.0000 -0.6121
vn 0.1103 0.0000 -0.9939
vn -0.3764 0.0000 -0.9264
vn -0.9924 0.0000 -0.1229
vn 0.9818 0.0000 -0.1898
vn -0.8856 0.0000 0.4645
vn 0.9378 0.0000 0.3472
vn 0.2772 0.0000 0.9608
vn -0.0934 0.0000 0.9956
vn 0.1510 0.0000 0.9885
vn -0.2911 0.0000 0.9567
vn -0.9708 0.0000 0.2400
vn 0.9515 0.0000 0.3076
vn -0.0264 0.0000 0.9997
vn 0.0170 0.0000 0.9999
vn -0.9920 0.0000 -0.1261
vn 0.9999 0.0000 -0.0124
vn 0.9936 0.0000 -0.1128
vn -0.0931 0.0000 -0.9957
vn 0.2546 0.0000 -0.9670
vn -0.2250 0.0000 -0.9744
vn 0.9966 0.0000 -0.0827
vn 0.1021 0.0000 -0.9948
vn -0.9730 0.0000 -0.2307
vn -0.9759 0.0000 -0.2184
vn -0.1939 0.0000 -0.9810
vn 0.9533 0.0000 0.3021
vn -0.9595 0.0000 0.2817
vn -1.0000 0.0000 -0.0083
vn 0.9996 0.0000 0.0285
vn -0.5355 0.0000 -0.8446
vn 0.5101 0.0000 -0.8601
vn -0.0387 0.0000 -0.9993
vn 0.0000 1.0000 0.0000
usemtl BackMat.001
s off
f 204/1/1 227/2/1 202/3/1
f 242/4/1 250/5/1 246/6/1
f 254/7/1 251/8/1 229/9/1
f 204/1/1 202/3/1 200/10/1
f 229/9/1 251/8/1 233/11/1
f 265/12/1 260/13/1 261/14/1
f 210/15/1 222/16/1 213/17/1
f 213/17/1 225/18/1 204/1/1
f 198/19/1 193/20/1 194/21/1
f 245/22/1 235/23/1 243/24/1
f 231/25/1 235/23/1 245/22/1
f 261/14/1 260/13/1 259/26/1
f 251/8/1 249/27/1 233/11/1
f 201/28/1 199/29/1 198/19/1
f 236/30/1 243/24/1 235/23/1
f 223/31/1 226/32/1 216/33/1
f 221/34/1 216/33/1 226/32/1
f 266/35/1 260/13/1 265/12/1
f 214/36/1 210/15/1 211/37/1
f 200/10/1 202/3/1 201/28/1
f 208/38/1 219/39/1 220/40/1
f 215/41/1 228/42/1 217/43/1
f 209/44/1 219/39/1 208/38/1
f 233/11/1 250/5/1 242/4/1
f 263/45/1 260/13/1 266/35/1
f 246/6/1 250/5/1 247/46/1
f 231/25/1 254/7/1 229/9/1
f 202/3/1 227/2/1 209/44/1
f 192/47/1 198/19/1 199/29/1
f 198/19/1 192/47/1 193/20/1
f 229/9/1 233/11/1 230/48/1
f 251/8/1 259/26/1 256/49/1
f 222/16/1 225/18/1 213/17/1
f 225/18/1 227/2/1 204/1/1
f 219/39/1 209/44/1 227/2/1
f 216/33/1 221/34/1 214/36/1
f 256/49/1 259/26/1 260/13/1
f 262/50/1 265/12/1 261/14/1
f 242/4/1 244/51/1 241/52/1
f 225/18/1 230/48/1 227/2/1
f 220/40/1 228/42/1 215/41/1
f 200/10/1 201/28/1 198/19/1
f 253/53/1 231/25/1 245/22/1
f 208/38/1 215/41/1 206/54/1
f 257/55/1 253/53/1 245/22/1
f 208/38/1 220/40/1 215/41/1
f 237/56/1 243/24/1 236/30/1
f 241/52/1 244/51/1 239/57/1
f 259/26/1 251/8/1 254/7/1
f 192/47/1 199/29/1 196/58/1
f 249/27/1 250/5/1 233/11/1
f 214/36/1 222/16/1 210/15/1
f 214/36/1 221/34/1 222/16/1
f 229/9/1 230/48/1 225/18/1
f 253/53/1 254/7/1 231/25/1
f 242/4/1 246/6/1 244/51/1
f 50/59/2 51/60/2 109/61/2 108/62/2
f 51/60/3 120/63/3 195/64/3 109/61/3
f 122/65/4 50/59/4 108/62/4 197/66/4
f 52/67/5 53/68/5 111/69/5 110/70/5
f 48/71/6 49/72/6 107/73/6 106/74/6
f 53/68/7 54/75/7 112/76/7 111/69/7
f 47/77/8 48/71/8 106/74/8 105/78/8
f 128/79/9 47/77/9 105/78/9 203/80/9
f 54/75/10 130/81/10 205/82/10 112/76/10
f 132/83/11 44/84/11 102/85/11 207/86/11
f 45/87/12 46/88/12 104/89/12 103/90/12
f 57/91/13 137/92/13 212/93/13 115/94/13
f 44/84/14 45/87/14 103/90/14 102/85/14
f 55/95/15 56/96/15 114/97/15 113/98/15
f 56/96/16 57/91/16 115/94/16 114/97/16
f 58/99/17 1/100/17 59/101/17 116/102/17
f 42/103/18 43/104/18 101/105/18 100/106/18
f 1/100/19 2/107/19 60/108/19 59/101/19
f 143/109/20 42/103/20 100/106/20 218/110/20
f 38/111/21 39/112/21 97/113/21 96/114/21
f 5/115/22 6/116/22 64/117/22 63/118/22
f 2/107/23 149/119/23 224/120/23 60/108/23
f 6/116/24 7/121/24 65/122/24 64/117/24
f 4/123/25 5/115/25 63/118/25 62/124/25
f 3/125/26 4/123/26 62/124/26 61/126/26
f 37/127/27 38/111/27 96/114/27 95/128/27
f 40/129/28 41/130/28 99/131/28 98/132/28
f 39/112/29 40/129/29 98/132/29 97/113/29
f 7/121/30 8/133/30 66/134/30 65/122/30
f 36/135/31 37/127/31 95/128/31 94/136/31
f 8/133/32 157/137/32 232/138/32 66/134/32
f 159/139/33 36/135/33 94/136/33 234/140/33
f 10/141/34 11/142/34 69/143/34 68/144/34
f 11/142/35 163/145/35 238/146/35 69/143/35
f 165/147/36 33/148/36 91/149/36 240/150/36
f 33/148/37 34/151/37 92/152/37 91/149/37
f 12/153/38 13/154/38 71/155/38 70/156/38
f 31/157/39 32/158/39 90/159/39 89/160/39
f 34/151/40 35/161/40 93/162/40 92/152/40
f 9/163/41 10/141/41 68/144/41 67/164/41
f 13/154/42 14/165/42 72/166/42 71/155/42
f 30/167/43 31/157/43 89/160/43 88/168/43
f 173/169/44 30/167/44 88/168/44 248/170/44
f 27/171/45 28/172/45 86/173/45 85/174/45
f 177/175/46 27/171/46 85/174/46 252/176/46
f 16/177/47 180/178/47 255/179/47 74/180/47
f 25/181/48 26/182/48 84/183/48 83/184/48
f 183/185/49 16/177/49 74/180/49 258/186/49
f 14/165/50 15/187/50 73/188/50 72/166/50
f 17/189/51 18/190/51 76/191/51 75/192/51
f 28/172/52 29/193/52 87/194/52 86/173/52
f 24/195/53 25/181/53 83/184/53 82/196/53
f 18/190/54 19/197/54 77/198/54 76/191/54
f 19/197/55 20/199/55 78/200/55 77/198/55
f 189/201/56 24/195/56 82/196/56 264/202/56
f 20/199/57 21/203/57 79/204/57 78/200/57
f 22/205/58 23/206/58 81/207/58 80/208/58
f 21/203/59 22/205/59 80/208/59 79/204/59
usemtl FrontMat.001
f 129/209/60 127/210/60 152/211/60
f 167/212/60 171/213/60 175/214/60
f 179/215/60 154/216/60 176/217/60
f 129/209/60 125/218/60 127/210/60
f 154/216/60 158/219/60 176/217/60
f 190/220/60 186/221/60 185/222/60
f 135/223/60 138/224/60 147/225/60
f 138/224/60 129/209/60 150/226/60
f 123/227/60 119/228/60 118/229/60
f 170/230/60 168/231/60 160/232/60
f 156/233/60 170/230/60 160/232/60
f 186/221/60 184/234/60 185/222/60
f 176/217/60 158/219/60 174/235/60
f 126/236/60 123/227/60 124/237/60
f 161/238/60 160/232/60 168/231/60
f 148/239/60 141/240/60 151/241/60
f 146/242/60 151/241/60 141/240/60
f 191/243/60 190/220/60 185/222/60
f 139/244/60 136/245/60 135/223/60
f 125/218/60 126/236/60 127/210/60
f 133/246/60 145/247/60 144/248/60
f 140/249/60 142/250/60 153/251/60
f 134/252/60 133/246/60 144/248/60
f 158/219/60 167/212/60 175/214/60
f 188/253/60 191/243/60 185/222/60
f 171/213/60 172/254/60 175/214/60
f 156/233/60 154/216/60 179/215/60
f 127/210/60 134/252/60 152/211/60
f 117/255/60 124/237/60 123/227/60
f 123/227/60 118/229/60 117/255/60
f 154/216/60 155/256/60 158/219/60
f 176/217/60 181/257/60 184/234/60
f 147/225/60 138/224/60 150/226/60
f 150/226/60 129/209/60 152/211/60
f 144/248/60 152/211/60 134/252/60
f 141/240/60 139/244/60 146/242/60
f 181/257/60 185/222/60 184/234/60
f 187/258/60 186/221/60 190/220/60
f 167/212/60 166/259/60 169/260/60
f 150/226/60 152/211/60 155/256/60
f 145/247/60 140/249/60 153/251/60
f 125/218/60 123/227/60 126/236/60
f 178/261/60 170/230/60 156/233/60
f 133/246/60 131/262/60 140/249/60
f 182/263/60 170/230/60 178/261/60
f 133/246/60 140/249/60 145/247/60
f 162/264/60 161/238/60 168/231/60
f 166/259/60 164/265/60 169/260/60
f 184/234/60 179/215/60 176/217/60
f 117/255/60 121/266/60 124/237/60
f 174/235/60 158/219/60 175/214/60
f 139/244/60 135/223/60 147/225/60
f 139/244/60 147/225/60 146/242/60
f 154/216/60 150/226/60 155/256/60
f 178/261/60 156/233/60 179/215/60
f 167/212/60 169/260/60 171/213/60
