# Blender v2.83.1 OBJ File: 'jigsaw-96x54-3-step2.blend'
# www.blender.org
mtllib piece.50.mtl
o path100
v -0.532501 0.037500 0.500763
v -0.569725 0.037500 0.306586
v -0.580151 0.037500 0.191398
v -0.560242 0.037500 0.118462
v -0.497852 0.037500 0.119151
v -0.416187 0.037500 0.150100
v -0.347271 0.037500 0.149262
v -0.316654 0.037500 0.075542
v -0.323940 0.037500 -0.028327
v -0.362259 0.037500 -0.098656
v -0.422546 0.037500 -0.093560
v -0.487080 0.037500 -0.058369
v -0.535954 0.037500 -0.060214
v -0.554913 0.037500 -0.145565
v -0.532501 0.037500 -0.500934
v -0.316578 0.037500 -0.538733
v -0.186604 0.037500 -0.547671
v -0.100021 0.037500 -0.522667
v -0.091473 0.037500 -0.450715
v -0.118874 0.037500 -0.358436
v -0.120953 0.037500 -0.282362
v -0.056168 0.037500 -0.251797
v 0.038235 0.037500 -0.267146
v 0.105282 0.037500 -0.321589
v 0.107075 0.037500 -0.404607
v 0.081921 0.037500 -0.490880
v 0.087189 0.037500 -0.551392
v 0.162647 0.037500 -0.565824
v 0.277607 0.037500 -0.548648
v 0.469410 0.037500 -0.500935
v 0.420254 0.037500 -0.144805
v 0.437767 0.037500 -0.057244
v 0.496750 0.037500 -0.051421
v 0.578148 0.037500 -0.082236
v 0.655033 0.037500 -0.084353
v 0.704147 0.037500 -0.013786
v 0.716908 0.037500 0.088062
v 0.688416 0.037500 0.158435
v 0.619804 0.037500 0.155501
v 0.536407 0.037500 0.121109
v 0.469605 0.037500 0.118028
v 0.442440 0.037500 0.190106
v 0.444599 0.037500 0.305502
v 0.469410 0.037500 0.500763
v -0.532501 -0.037500 0.500763
v -0.569725 -0.037498 0.306586
v -0.580151 -0.037498 0.191398
v -0.560242 -0.037500 0.118462
v -0.497852 -0.037500 0.119151
v -0.416187 -0.037500 0.150100
v -0.347271 -0.037500 0.149262
v -0.316654 -0.037500 0.075542
v -0.323940 -0.037500 -0.028327
v -0.362259 -0.037500 -0.098656
v -0.422546 -0.037500 -0.093560
v -0.487080 -0.037500 -0.058369
v -0.535954 -0.037498 -0.060214
v -0.554913 -0.037500 -0.145565
v -0.532501 -0.037500 -0.500934
v -0.316578 -0.037500 -0.538733
v -0.186604 -0.037500 -0.547671
v -0.100021 -0.037498 -0.522667
v -0.091473 -0.037500 -0.450715
v -0.118874 -0.037500 -0.358436
v -0.120953 -0.037500 -0.282362
v -0.056168 -0.037500 -0.251797
v 0.038235 -0.037500 -0.267146
v 0.105282 -0.037500 -0.321589
v 0.107075 -0.037500 -0.404607
v 0.081921 -0.037500 -0.490880
v 0.087189 -0.037500 -0.551392
v 0.162647 -0.037500 -0.565824
v 0.277607 -0.037498 -0.548648
v 0.469410 -0.037500 -0.500935
v 0.420254 -0.037498 -0.144805
v 0.437767 -0.037500 -0.057244
v 0.496750 -0.037500 -0.051421
v 0.578148 -0.037500 -0.082236
v 0.655033 -0.037500 -0.084353
v 0.704147 -0.037500 -0.013786
v 0.716908 -0.037500 0.088062
v 0.688416 -0.037500 0.158435
v 0.619804 -0.037500 0.155501
v 0.536407 -0.037500 0.121109
v 0.469605 -0.037500 0.118028
v 0.442440 -0.037500 0.190106
v 0.444599 -0.037500 0.305502
v 0.469410 -0.037500 0.500763
v -0.532501 0.037500 0.500763
v -0.532501 0.037500 0.500763
v 0.469410 0.037500 0.500763
v 0.469410 0.037500 0.500763
v -0.569725 0.037500 0.306586
v 0.444599 0.037500 0.305502
v -0.580151 0.037500 0.191398
v 0.442440 0.037500 0.190106
v -0.560242 0.037500 0.118462
v -0.560242 0.037500 0.118462
v 0.469605 0.037500 0.118028
v 0.469605 0.037500 0.118028
v -0.416187 0.037500 0.150100
v -0.347271 0.037500 0.149262
v -0.347271 0.037500 0.149262
v 0.716908 0.037500 0.088062
v 0.688416 0.037500 0.158435
v 0.688416 0.037500 0.158435
v 0.619804 0.037500 0.155501
v 0.536407 0.037500 0.121109
v -0.497852 0.037500 0.119151
v -0.316654 0.037500 0.075542
v 0.704147 0.037500 -0.013786
v -0.323940 0.037500 -0.028327
v 0.655033 0.037500 -0.084353
v -0.362259 0.037500 -0.098656
v -0.362259 0.037500 -0.098656
v 0.578148 0.037500 -0.082236
v 0.496750 0.037500 -0.051421
v 0.437767 0.037500 -0.057244
v 0.437767 0.037500 -0.057244
v 0.420254 0.037500 -0.144805
v -0.422546 0.037500 -0.093560
v -0.487080 0.037500 -0.058369
v -0.535954 0.037500 -0.060214
v -0.535954 0.037500 -0.060214
v -0.554913 0.037500 -0.145565
v -0.056168 0.037500 -0.251797
v 0.038235 0.037500 -0.267146
v -0.120953 0.037500 -0.282362
v -0.120953 0.037500 -0.282362
v 0.105282 0.037500 -0.321589
v -0.118874 0.037500 -0.358436
v 0.107075 0.037500 -0.404607
v -0.091473 0.037500 -0.450715
v 0.469410 0.037500 -0.500935
v 0.469410 0.037500 -0.500935
v 0.081921 0.037500 -0.490880
v -0.100021 0.037500 -0.522667
v -0.100021 0.037500 -0.522667
v -0.532501 0.037500 -0.500934
v -0.532501 0.037500 -0.500934
v 0.087189 0.037500 -0.551392
v 0.087189 0.037500 -0.551392
v -0.316578 0.037500 -0.538733
v -0.186604 0.037500 -0.547671
v 0.277607 0.037500 -0.548648
v 0.162647 0.037500 -0.565824
v -0.532501 -0.037500 0.500763
v -0.532501 -0.037500 0.500763
v 0.469410 -0.037500 0.500763
v 0.469410 -0.037500 0.500763
v -0.569725 -0.037498 0.306586
v 0.444599 -0.037500 0.305502
v -0.580151 -0.037498 0.191398
v 0.442440 -0.037500 0.190106
v -0.560242 -0.037500 0.118462
v -0.560242 -0.037500 0.118462
v 0.469605 -0.037500 0.118028
v 0.469605 -0.037500 0.118028
v -0.416187 -0.037500 0.150100
v -0.347271 -0.037500 0.149262
v -0.347271 -0.037500 0.149262
v 0.716908 -0.037500 0.088062
v 0.688416 -0.037500 0.158435
v 0.688416 -0.037500 0.158435
v 0.619804 -0.037500 0.155501
v 0.536407 -0.037500 0.121109
v -0.497852 -0.037500 0.119151
v -0.316654 -0.037500 0.075542
v 0.704147 -0.037500 -0.013786
v -0.323940 -0.037500 -0.028327
v 0.655033 -0.037500 -0.084353
v -0.362259 -0.037500 -0.098656
v -0.362259 -0.037500 -0.098656
v 0.578148 -0.037500 -0.082236
v 0.496750 -0.037500 -0.051421
v 0.437767 -0.037500 -0.057244
v 0.437767 -0.037500 -0.057244
v 0.420254 -0.037498 -0.144805
v -0.422546 -0.037500 -0.093560
v -0.487080 -0.037500 -0.058369
v -0.535954 -0.037498 -0.060214
v -0.535954 -0.037498 -0.060214
v -0.554913 -0.037500 -0.145565
v -0.056168 -0.037500 -0.251797
v 0.038235 -0.037500 -0.267146
v -0.120953 -0.037500 -0.282362
v -0.120953 -0.037500 -0.282362
v 0.105282 -0.037500 -0.321589
v -0.118874 -0.037500 -0.358436
v 0.107075 -0.037500 -0.404607
v -0.091473 -0.037500 -0.450715
v 0.469410 -0.037500 -0.500935
v 0.469410 -0.037500 -0.500935
v 0.081921 -0.037500 -0.490880
v -0.100021 -0.037498 -0.522667
v -0.100021 -0.037498 -0.522667
v -0.532501 -0.037500 -0.500934
v -0.532501 -0.037500 -0.500934
v 0.087189 -0.037500 -0.551392
v 0.087189 -0.037500 -0.551392
v -0.316578 -0.037500 -0.538733
v -0.186604 -0.037500 -0.547671
v 0.277607 -0.037498 -0.548648
v 0.162647 -0.037500 -0.565824
vt 0.500000 0.500000
vt 0.500000 0.500000
vt 0.500000 0.500000
vt 0.500000 0.500000
vt 0.500000 0.500000
vt 0.500000 0.500000
vt 0.500000 0.500000
vt 0.500000 0.500000
vt 0.500000 0.500000
vt 0.500000 0.500000
vt 0.500000 0.500000
vt 0.500000 0.500000
vt 0.500000 0.500000
vt 0.500000 0.500000
vt 0.500000 0.500000
vt 0.500000 0.500000
vt 0.500000 0.500000
vt 0.500000 0.500000
vt 0.500000 0.500000
vt 0.500000 0.500000
vt 0.500000 0.500000
vt 0.500000 0.500000
vt 0.500000 0.500000
vt 0.500000 0.500000
vt 0.500000 0.500000
vt 0.500000 0.500000
vt 0.500000 0.500000
vt 0.500000 0.500000
vt 0.500000 0.500000
vt 0.500000 0.500000
vt 0.500000 0.500000
vt 0.500000 0.500000
vt 0.500000 0.500000
vt 0.500000 0.500000
vt 0.500000 0.500000
vt 0.500000 0.500000
vt 0.500000 0.500000
vt 0.500000 0.500000
vt 0.500000 0.500000
vt 0.500000 0.500000
vt 0.500000 0.500000
vt 0.500000 0.500000
vt 0.500000 0.500000
vt 0.500000 0.500000
vt 0.500000 0.500000
vt 0.500000 0.500000
vt 0.500000 0.500000
vt 0.500000 0.500000
vt 0.500000 0.500000
vt 0.500000 0.500000
vt 0.500000 0.500000
vt 0.500000 0.500000
vt 0.500000 0.500000
vt 0.500000 0.500000
vt 0.500000 0.500000
vt 0.500000 0.500000
vt 0.500000 0.500000
vt 0.500000 0.500000
vt 0.500000 0.500000
vt 0.500000 0.500000
vt 0.500000 0.500000
vt 0.500000 0.500000
vt 0.500000 0.500000
vt 0.500000 0.500000
vt 0.500000 0.500000
vt 0.500000 0.500000
vt 0.500000 0.500000
vt 0.500000 0.500000
vt 0.500000 0.500000
vt 0.500000 0.500000
vt 0.500000 0.500000
vt 0.500000 0.500000
vt 0.500000 0.500000
vt 0.500000 0.500000
vt 0.500000 0.500000
vt 0.500000 0.500000
vt 0.500000 0.500000
vt 0.500000 0.500000
vt 0.500000 0.500000
vt 0.500000 0.500000
vt 0.500000 0.500000
vt 0.500000 0.500000
vt 0.500000 0.500000
vt 0.500000 0.500000
vt 0.500000 0.500000
vt 0.500000 0.500000
vt 0.500000 0.500000
vt 0.500000 0.500000
vt 0.500000 0.500000
vt 0.500000 0.500000
vt 0.500000 0.500000
vt 0.500000 0.500000
vt 0.500000 0.500000
vt 0.500000 0.500000
vt 0.500000 0.500000
vt 0.500000 0.500000
vt 0.500000 0.500000
vt 0.500000 0.500000
vt 0.500000 0.500000
vt 0.500000 0.500000
vt 0.500000 0.500000
vt 0.500000 0.500000
vt 0.500000 0.500000
vt 0.500000 0.500000
vt 0.500000 0.500000
vt 0.500000 0.500000
vt 0.500000 0.500000
vt 0.500000 0.500000
vt 0.500000 0.500000
vt 0.500000 0.500000
vt 0.500000 0.500000
vt 0.500000 0.500000
vt 0.500000 0.500000
vt 0.500000 0.500000
vt 0.500000 0.500000
vt 0.500000 0.500000
vt 0.500000 0.500000
vt 0.500000 0.500000
vt 0.500000 0.500000
vt 0.500000 0.500000
vt 0.500000 0.500000
vt 0.500000 0.500000
vt 0.500000 0.500000
vt 0.500000 0.500000
vt 0.500000 0.500000
vt 0.500000 0.500000
vt 0.500000 0.500000
vt 0.500000 0.500000
vt 0.500000 0.500000
vt 0.500000 0.500000
vt 0.500000 0.500000
vt 0.500000 0.500000
vt 0.500000 0.500000
vt 0.500000 0.500000
vt 0.500000 0.500000
vt 0.500000 0.500000
vt 0.500000 0.500000
vt 0.500000 0.500000
vt 0.500000 0.500000
vt 0.500000 0.500000
vt 0.500000 0.500000
vt 0.500000 0.500000
vt 0.500000 0.500000
vt 0.500000 0.500000
vt 0.500000 0.500000
vt 0.500000 0.500000
vt 0.500000 0.500000
vt 0.500000 0.500000
vt 0.500000 0.500000
vt 0.500000 0.500000
vt 0.500000 0.500000
vt 0.500000 0.500000
vt 0.500000 0.500000
vt 0.500000 0.500000
vt 0.500000 0.500000
vt 0.500000 0.500000
vt 0.500000 0.500000
vt 0.500000 0.500000
vt 0.500000 0.500000
vt 0.500000 0.500000
vt 0.521066 0.988051
vt 0.520361 0.989663
vt 0.519690 0.989013
vt 0.517237 0.980618
vt 0.516533 0.984116
vt 0.516248 0.982410
vt 0.519624 0.993517
vt 0.521220 0.996410
vt 0.518908 0.993502
vt 0.510132 0.989792
vt 0.509720 0.992981
vt 0.509286 0.989222
vt 0.510746 0.989684
vt 0.510415 0.992924
vt 0.518588 0.980783
vt 0.519063 0.988918
vt 0.520833 0.981481
vt 0.515881 0.986087
vt 0.516555 0.985522
vt 0.518665 0.990219
vt 0.520473 0.992945
vt 0.521122 0.992932
vt 0.521329 0.994281
vt 0.507976 0.990487
vt 0.508487 0.989183
vt 0.512411 0.980599
vt 0.513606 0.980282
vt 0.514184 0.983262
vt 0.508853 0.993617
vt 0.508140 0.993671
vt 0.507843 0.992370
vt 0.518589 0.992139
vt 0.510675 0.996390
vt 0.514202 0.984797
vt 0.510697 0.994257
vt 0.514900 0.985804
vt 0.510928 0.988065
vt 0.520833 1.000000
vt 0.510417 1.000000
vt 0.516337 0.981080
vt 0.514391 0.980549
vt 0.514445 0.981667
vt 0.520869 0.989629
vt 0.510417 0.981481
vn 0.0000 -1.0000 0.0000
vn 0.0000 0.0000 1.0000
vn -0.9821 0.0000 0.1883
vn 0.9920 0.0000 -0.1261
vn -0.9959 0.0000 0.0901
vn 0.9998 0.0000 -0.0187
vn -0.9647 0.0000 -0.2633
vn 0.9358 0.0000 0.3527
vn -0.0122 0.0000 -0.9999
vn 0.9269 0.0000 0.3753
vn -0.0427 0.0000 0.9991
vn -0.3812 0.0000 0.9245
vn 0.3544 0.0000 -0.9351
vn 0.0110 0.0000 -0.9999
vn -0.9235 0.0000 -0.3836
vn -0.0461 0.0000 0.9989
vn 0.9922 0.0000 -0.1243
vn -0.9975 0.0000 0.0700
vn 0.8208 0.0000 -0.5712
vn -0.8781 0.0000 0.4784
vn -0.0275 0.0000 -0.9996
vn -0.3541 0.0000 -0.9352
vn 0.0983 0.0000 -0.9952
vn 0.9806 0.0000 -0.1961
vn 0.4788 0.0000 0.8779
vn -0.0377 0.0000 0.9993
vn -0.9762 0.0000 0.2168
vn 0.0842 0.0000 0.9964
vn -0.1605 0.0000 -0.9870
vn 0.4267 0.0000 -0.9044
vn -0.6304 0.0000 -0.7763
vn 0.9996 0.0000 0.0273
vn -0.9998 0.0000 -0.0216
vn 0.9586 0.0000 0.2847
vn 0.9906 0.0000 0.1367
vn -0.9600 0.0000 0.2799
vn 0.9930 0.0000 -0.1180
vn -0.9980 0.0000 -0.0629
vn -0.9962 0.0000 -0.0867
vn -0.1724 0.0000 -0.9850
vn 0.2774 0.0000 -0.9607
vn -0.0686 0.0000 -0.9976
vn 0.2414 0.0000 -0.9704
vn 0.1478 0.0000 -0.9890
vn -0.1878 0.0000 -0.9822
vn 0.0000 1.0000 0.0000
usemtl BackMat.001
s off
f 183/1/1 179/2/1 180/3/1
f 202/4/1 191/5/1 189/6/1
f 159/7/1 160/8/1 151/9/1
f 175/10/1 174/11/1 166/12/1
f 175/10/1 157/13/1 176/14/1
f 202/4/1 189/6/1 201/15/1
f 172/16/1 179/2/1 197/17/1
f 184/18/1 170/19/1 186/20/1
f 167/21/1 153/22/1 155/23/1
f 169/24/1 174/11/1 171/25/1
f 201/15/1 186/20/1 172/16/1
f 203/26/1 190/27/1 204/28/1
f 189/6/1 186/20/1 201/15/1
f 166/12/1 169/24/1 165/29/1
f 165/29/1 162/30/1 163/31/1
f 168/32/1 152/33/1 160/8/1
f 190/27/1 203/26/1 188/34/1
f 184/18/1 168/32/1 170/19/1
f 176/14/1 157/13/1 154/35/1
f 197/17/1 179/2/1 183/1/1
f 185/36/1 168/32/1 184/18/1
f 188/34/1 178/37/1 185/36/1
f 151/9/1 160/8/1 147/38/1
f 185/36/1 154/35/1 168/32/1
f 147/38/1 160/8/1 149/39/1
f 186/20/1 170/19/1 172/16/1
f 169/24/1 166/12/1 174/11/1
f 195/40/1 191/5/1 202/4/1
f 165/29/1 169/24/1 162/30/1
f 185/36/1 176/14/1 154/35/1
f 185/36/1 178/37/1 176/14/1
f 199/41/1 204/28/1 194/42/1
f 194/42/1 204/28/1 190/27/1
f 183/1/1 180/3/1 181/43/1
f 153/22/1 159/7/1 151/9/1
f 159/7/1 153/22/1 167/21/1
f 149/39/1 160/8/1 152/33/1
f 152/33/1 168/32/1 154/35/1
f 178/37/1 188/34/1 203/26/1
f 201/15/1 172/16/1 197/17/1
f 178/37/1 203/26/1 192/44/1
f 157/13/1 175/10/1 166/12/1
f 92/45/2 90/46/2 148/47/2 150/48/2
f 1/49/3 2/50/3 46/51/3 45/52/3
f 43/53/4 44/54/4 88/55/4 87/56/4
f 2/50/5 3/57/5 47/58/5 46/51/5
f 42/59/6 43/53/6 87/56/6 86/60/6
f 3/57/7 98/61/7 156/62/7 47/58/7
f 100/63/8 42/59/8 86/60/8 158/64/8
f 6/65/9 103/66/9 161/67/9 50/68/9
f 37/69/10 106/70/10 164/71/10 81/72/10
f 38/73/11 39/74/11 83/75/11 82/76/11
f 39/74/12 40/77/12 84/78/12 83/75/12
f 5/79/13 6/65/13 50/68/13 49/80/13
f 4/81/14 5/79/14 49/80/14 48/82/14
f 7/83/15 8/84/15 52/85/15 51/86/15
f 40/77/16 41/87/16 85/88/16 84/78/16
f 36/89/17 37/69/17 81/72/17 80/90/17
f 8/84/18 9/91/18 53/92/18 52/85/18
f 35/93/19 36/89/19 80/90/19 79/94/19
f 9/91/20 115/95/20 173/96/20 53/92/20
f 34/97/21 35/93/21 79/94/21 78/98/21
f 33/99/22 34/97/22 78/98/22 77/100/22
f 119/101/23 33/99/23 77/100/23 177/102/23
f 31/103/24 32/104/24 76/105/24 75/106/24
f 11/107/25 12/108/25 56/109/25 55/110/25
f 12/108/26 124/111/26 182/112/26 56/109/26
f 13/113/27 14/114/27 58/115/27 57/116/27
f 10/117/28 11/107/28 55/110/28 54/118/28
f 22/119/29 23/120/29 67/121/29 66/122/29
f 129/123/30 22/119/30 66/122/30 187/124/30
f 23/120/31 24/125/31 68/126/31 67/121/31
f 20/127/32 21/128/32 65/129/32 64/130/32
f 24/125/33 25/131/33 69/132/33 68/126/33
f 19/133/34 20/127/34 64/130/34 63/134/34
f 135/135/35 31/103/35 75/106/35 193/136/35
f 25/131/36 26/137/36 70/138/36 69/132/36
f 138/139/37 19/133/37 63/134/37 196/140/37
f 14/114/38 140/141/38 198/142/38 58/115/38
f 26/137/39 142/143/39 200/144/39 70/138/39
f 15/145/40 16/146/40 60/147/40 59/148/40
f 17/149/41 18/150/41 62/151/41 61/152/41
f 16/146/42 17/149/42 61/152/42 60/147/42
f 29/153/43 30/154/43 74/155/43 73/156/43
f 28/157/44 29/153/44 73/156/44 72/158/44
f 27/159/45 28/157/45 72/158/45 71/160/45
usemtl FrontMat.001
f 125/161/46 122/162/46 121/163/46
f 144/164/46 131/165/46 133/166/46
f 101/167/46 93/168/46 102/169/46
f 117/170/46 108/171/46 116/172/46
f 117/170/46 118/173/46 99/174/46
f 144/164/46 143/175/46 131/165/46
f 114/176/46 139/177/46 121/163/46
f 126/178/46 128/179/46 112/180/46
f 109/181/46 97/182/46 95/183/46
f 111/184/46 113/185/46 116/172/46
f 143/175/46 114/176/46 128/179/46
f 145/186/46 146/187/46 132/188/46
f 131/165/46 143/175/46 128/179/46
f 108/171/46 107/189/46 111/184/46
f 107/189/46 105/190/46 104/191/46
f 110/192/46 102/169/46 94/193/46
f 132/188/46 130/194/46 145/186/46
f 126/178/46 112/180/46 110/192/46
f 118/173/46 96/195/46 99/174/46
f 139/177/46 125/161/46 121/163/46
f 127/196/46 126/178/46 110/192/46
f 130/194/46 127/196/46 120/197/46
f 93/168/46 89/198/46 102/169/46
f 127/196/46 110/192/46 96/195/46
f 89/198/46 91/199/46 102/169/46
f 128/179/46 114/176/46 112/180/46
f 111/184/46 116/172/46 108/171/46
f 137/200/46 144/164/46 133/166/46
f 107/189/46 104/191/46 111/184/46
f 127/196/46 96/195/46 118/173/46
f 127/196/46 118/173/46 120/197/46
f 141/201/46 136/202/46 146/187/46
f 136/202/46 132/188/46 146/187/46
f 125/161/46 123/203/46 122/162/46
f 95/183/46 93/168/46 101/167/46
f 101/167/46 109/181/46 95/183/46
f 91/199/46 94/193/46 102/169/46
f 94/193/46 96/195/46 110/192/46
f 120/197/46 145/186/46 130/194/46
f 143/175/46 139/177/46 114/176/46
f 120/197/46 134/204/46 145/186/46
f 99/174/46 108/171/46 117/170/46
