# Blender v2.83.1 OBJ File: 'jigsaw-96x54-3-step2.blend'
# www.blender.org
mtllib piece.3066.mtl
o path6132
v 0.331246 0.037500 0.545023
v 0.213898 0.037500 0.563545
v 0.140030 0.037500 0.550802
v 0.141800 0.037500 0.492603
v 0.175034 0.037500 0.410919
v 0.176468 0.037500 0.336763
v 0.104126 0.037500 0.296015
v 0.001205 0.037500 0.294010
v -0.067802 0.037500 0.330954
v -0.060524 0.037500 0.401937
v -0.023178 0.037500 0.481693
v -0.024109 0.037500 0.539856
v -0.110596 0.037500 0.554747
v -0.472526 0.037500 0.495665
v -0.447342 0.037500 0.287872
v -0.443825 0.037500 0.164713
v -0.467583 0.037500 0.086966
v -0.528961 0.037500 0.088753
v -0.609138 0.037500 0.125948
v -0.681976 0.037500 0.134876
v -0.724754 0.037500 0.072453
v -0.728287 0.037500 -0.022100
v -0.686790 0.037500 -0.088976
v -0.601700 0.037500 -0.088589
v -0.503571 0.037500 -0.062273
v -0.430183 0.037500 -0.071587
v -0.408730 0.037500 -0.158832
v -0.423920 0.037500 -0.289375
v -0.472527 0.037500 -0.506033
v -0.244499 0.037500 -0.557547
v -0.108521 0.037500 -0.575281
v -0.020798 0.037500 -0.557352
v -0.018601 0.037500 -0.488478
v -0.055878 0.037500 -0.395512
v -0.065750 0.037500 -0.315830
v -0.002564 0.037500 -0.279226
v 0.094505 0.037500 -0.285149
v 0.165077 0.037500 -0.325449
v 0.168510 0.037500 -0.389812
v 0.143394 0.037500 -0.458895
v 0.148056 0.037500 -0.511145
v 0.223045 0.037500 -0.531130
v 0.529381 0.037500 -0.506033
v 0.571503 0.037500 -0.289778
v 0.584846 0.037500 -0.159035
v 0.566826 0.037500 -0.070650
v 0.503738 0.037500 -0.059000
v 0.415947 0.037500 -0.082600
v 0.332329 0.037500 -0.080996
v 0.277962 0.037500 -0.013542
v 0.262665 0.037500 0.081192
v 0.292427 0.037500 0.144840
v 0.366516 0.037500 0.138979
v 0.457169 0.037500 0.104959
v 0.529884 0.037500 0.104072
v 0.559334 0.037500 0.178856
v 0.556755 0.037500 0.296841
v 0.529381 0.037500 0.495665
v 0.331246 -0.037500 0.545023
v 0.213898 -0.037498 0.563545
v 0.140030 -0.037500 0.550802
v 0.141800 -0.037500 0.492603
v 0.175034 -0.037500 0.410919
v 0.176468 -0.037500 0.336763
v 0.104126 -0.037500 0.296015
v 0.001205 -0.037500 0.294010
v -0.067802 -0.037500 0.330954
v -0.060524 -0.037500 0.401937
v -0.023178 -0.037500 0.481693
v -0.024109 -0.037500 0.539856
v -0.110596 -0.037500 0.554747
v -0.472526 -0.037500 0.495665
v -0.447342 -0.037500 0.287872
v -0.443825 -0.037500 0.164713
v -0.467583 -0.037500 0.086966
v -0.528961 -0.037498 0.088753
v -0.609138 -0.037500 0.125948
v -0.681976 -0.037500 0.134876
v -0.724754 -0.037500 0.072453
v -0.728287 -0.037500 -0.022100
v -0.686790 -0.037500 -0.088976
v -0.601700 -0.037498 -0.088589
v -0.503571 -0.037500 -0.062273
v -0.430183 -0.037500 -0.071587
v -0.408730 -0.037500 -0.158832
v -0.423920 -0.037500 -0.289375
v -0.472527 -0.037500 -0.506033
v -0.244499 -0.037500 -0.557547
v -0.108521 -0.037500 -0.575281
v -0.020798 -0.037500 -0.557352
v -0.018601 -0.037500 -0.488478
v -0.055878 -0.037500 -0.395512
v -0.065750 -0.037500 -0.315830
v -0.002564 -0.037500 -0.279226
v 0.094505 -0.037500 -0.285149
v 0.165077 -0.037500 -0.325449
v 0.168510 -0.037500 -0.389812
v 0.143394 -0.037500 -0.458895
v 0.148056 -0.037500 -0.511145
v 0.223045 -0.037500 -0.531130
v 0.529381 -0.037498 -0.506033
v 0.571503 -0.037498 -0.289778
v 0.584846 -0.037500 -0.159035
v 0.566826 -0.037498 -0.070650
v 0.503738 -0.037498 -0.059000
v 0.415947 -0.037498 -0.082600
v 0.332329 -0.037500 -0.080996
v 0.277962 -0.037500 -0.013542
v 0.262665 -0.037500 0.081192
v 0.292427 -0.037500 0.144840
v 0.366516 -0.037500 0.138979
v 0.457169 -0.037500 0.104959
v 0.529884 -0.037500 0.104072
v 0.559334 -0.037500 0.178856
v 0.556755 -0.037500 0.296841
v 0.529381 -0.037500 0.495665
v 0.331246 0.037500 0.545023
v 0.213898 0.037500 0.563545
v 0.140030 0.037500 0.550802
v 0.140030 0.037500 0.550802
v -0.024109 0.037500 0.539856
v -0.024109 0.037500 0.539856
v -0.110596 0.037500 0.554747
v 0.141800 0.037500 0.492603
v -0.023178 0.037500 0.481693
v 0.529381 0.037500 0.495665
v 0.529381 0.037500 0.495665
v -0.472526 0.037500 0.495665
v -0.472526 0.037500 0.495665
v 0.175034 0.037500 0.410919
v -0.060524 0.037500 0.401937
v 0.176468 0.037500 0.336763
v 0.176468 0.037500 0.336763
v 0.556755 0.037500 0.296841
v -0.447342 0.037500 0.287872
v -0.067802 0.037500 0.330954
v -0.067802 0.037500 0.330954
v 0.104126 0.037500 0.296015
v 0.001205 0.037500 0.294010
v 0.559334 0.037500 0.178856
v -0.443825 0.037500 0.164713
v 0.529884 0.037500 0.104072
v 0.529884 0.037500 0.104072
v 0.292427 0.037500 0.144840
v 0.292427 0.037500 0.144840
v 0.366516 0.037500 0.138979
v -0.467583 0.037500 0.086966
v -0.467583 0.037500 0.086966
v 0.262665 0.037500 0.081192
v 0.457169 0.037500 0.104959
v -0.609138 0.037500 0.125948
v -0.681976 0.037500 0.134876
v -0.681976 0.037500 0.134876
v -0.724754 0.037500 0.072453
v -0.528961 0.037500 0.088753
v 0.277962 0.037500 -0.013542
v -0.728287 0.037500 -0.022100
v 0.332329 0.037500 -0.080996
v -0.686790 0.037500 -0.088976
v 0.566826 0.037500 -0.070650
v 0.566826 0.037500 -0.070650
v 0.503738 0.037500 -0.059000
v 0.415947 0.037500 -0.082600
v -0.503571 0.037500 -0.062273
v -0.430183 0.037500 -0.071587
v -0.430183 0.037500 -0.071587
v -0.601700 0.037500 -0.088589
v 0.584846 0.037500 -0.159035
v -0.408730 0.037500 -0.158832
v -0.423920 0.037500 -0.289375
v 0.571503 0.037500 -0.289778
v -0.002564 0.037500 -0.279226
v 0.094505 0.037500 -0.285149
v -0.065750 0.037500 -0.315830
v -0.065750 0.037500 -0.315830
v 0.165077 0.037500 -0.325449
v -0.055878 0.037500 -0.395512
v 0.168510 0.037500 -0.389812
v 0.143394 0.037500 -0.458895
v -0.018601 0.037500 -0.488478
v 0.529381 0.037500 -0.506033
v 0.529381 0.037500 -0.506033
v 0.148056 0.037500 -0.511145
v 0.148056 0.037500 -0.511145
v -0.472527 0.037500 -0.506033
v -0.472527 0.037500 -0.506033
v -0.020798 0.037500 -0.557352
v -0.020798 0.037500 -0.557352
v 0.223045 0.037500 -0.531130
v -0.244499 0.037500 -0.557547
v -0.108521 0.037500 -0.575281
v 0.331246 -0.037500 0.545023
v 0.213898 -0.037498 0.563545
v 0.140030 -0.037500 0.550802
v 0.140030 -0.037500 0.550802
v -0.024109 -0.037500 0.539856
v -0.024109 -0.037500 0.539856
v -0.110596 -0.037500 0.554747
v 0.141800 -0.037500 0.492603
v -0.023178 -0.037500 0.481693
v 0.529381 -0.037500 0.495665
v 0.529381 -0.037500 0.495665
v -0.472526 -0.037500 0.495665
v -0.472526 -0.037500 0.495665
v 0.175034 -0.037500 0.410919
v -0.060524 -0.037500 0.401937
v 0.176468 -0.037500 0.336763
v 0.176468 -0.037500 0.336763
v 0.556755 -0.037500 0.296841
v -0.447342 -0.037500 0.287872
v -0.067802 -0.037500 0.330954
v -0.067802 -0.037500 0.330954
v 0.104126 -0.037500 0.296015
v 0.001205 -0.037500 0.294010
v 0.559334 -0.037500 0.178856
v -0.443825 -0.037500 0.164713
v 0.529884 -0.037500 0.104072
v 0.529884 -0.037500 0.104072
v 0.292427 -0.037500 0.144840
v 0.292427 -0.037500 0.144840
v 0.366516 -0.037500 0.138979
v -0.467583 -0.037500 0.086966
v -0.467583 -0.037500 0.086966
v 0.262665 -0.037500 0.081192
v 0.457169 -0.037500 0.104959
v -0.609138 -0.037500 0.125948
v -0.681976 -0.037500 0.134876
v -0.681976 -0.037500 0.134876
v -0.724754 -0.037500 0.072453
v -0.528961 -0.037498 0.088753
v 0.277962 -0.037500 -0.013542
v -0.728287 -0.037500 -0.022100
v 0.332329 -0.037500 -0.080996
v -0.686790 -0.037500 -0.088976
v 0.566826 -0.037498 -0.070650
v 0.566826 -0.037498 -0.070650
v 0.503738 -0.037498 -0.059000
v 0.415947 -0.037498 -0.082600
v -0.503571 -0.037500 -0.062273
v -0.430183 -0.037500 -0.071587
v -0.430183 -0.037500 -0.071587
v -0.601700 -0.037498 -0.088589
v 0.584846 -0.037500 -0.159035
v -0.408730 -0.037500 -0.158832
v -0.423920 -0.037500 -0.289375
v 0.571503 -0.037498 -0.289778
v -0.002564 -0.037500 -0.279226
v 0.094505 -0.037500 -0.285149
v -0.065750 -0.037500 -0.315830
v -0.065750 -0.037500 -0.315830
v 0.165077 -0.037500 -0.325449
v -0.055878 -0.037500 -0.395512
v 0.168510 -0.037500 -0.389812
v 0.143394 -0.037500 -0.458895
v -0.018601 -0.037500 -0.488478
v 0.529381 -0.037498 -0.506033
v 0.529381 -0.037498 -0.506033
v 0.148056 -0.037500 -0.511145
v 0.148056 -0.037500 -0.511145
v -0.472527 -0.037500 -0.506033
v -0.472527 -0.037500 -0.506033
v -0.020798 -0.037500 -0.557352
v -0.020798 -0.037500 -0.557352
v 0.223045 -0.037500 -0.531130
v -0.244499 -0.037500 -0.557547
v -0.108521 -0.037500 -0.575281
vt 0.500000 0.500000
vt 0.500000 0.500000
vt 0.500000 0.500000
vt 0.500000 0.500000
vt 0.500000 0.500000
vt 0.500000 0.500000
vt 0.500000 0.500000
vt 0.500000 0.500000
vt 0.500000 0.500000
vt 0.500000 0.500000
vt 0.500000 0.500000
vt 0.500000 0.500000
vt 0.500000 0.500000
vt 0.500000 0.500000
vt 0.500000 0.500000
vt 0.500000 0.500000
vt 0.500000 0.500000
vt 0.500000 0.500000
vt 0.500000 0.500000
vt 0.500000 0.500000
vt 0.500000 0.500000
vt 0.500000 0.500000
vt 0.500000 0.500000
vt 0.500000 0.500000
vt 0.500000 0.500000
vt 0.500000 0.500000
vt 0.500000 0.500000
vt 0.500000 0.500000
vt 0.500000 0.500000
vt 0.500000 0.500000
vt 0.500000 0.500000
vt 0.500000 0.500000
vt 0.500000 0.500000
vt 0.500000 0.500000
vt 0.500000 0.500000
vt 0.500000 0.500000
vt 0.500000 0.500000
vt 0.500000 0.500000
vt 0.500000 0.500000
vt 0.500000 0.500000
vt 0.500000 0.500000
vt 0.500000 0.500000
vt 0.500000 0.500000
vt 0.500000 0.500000
vt 0.500000 0.500000
vt 0.500000 0.500000
vt 0.500000 0.500000
vt 0.500000 0.500000
vt 0.500000 0.500000
vt 0.500000 0.500000
vt 0.500000 0.500000
vt 0.500000 0.500000
vt 0.500000 0.500000
vt 0.500000 0.500000
vt 0.500000 0.500000
vt 0.500000 0.500000
vt 0.500000 0.500000
vt 0.500000 0.500000
vt 0.500000 0.500000
vt 0.500000 0.500000
vt 0.500000 0.500000
vt 0.500000 0.500000
vt 0.500000 0.500000
vt 0.500000 0.500000
vt 0.500000 0.500000
vt 0.500000 0.500000
vt 0.500000 0.500000
vt 0.500000 0.500000
vt 0.500000 0.500000
vt 0.500000 0.500000
vt 0.500000 0.500000
vt 0.500000 0.500000
vt 0.500000 0.500000
vt 0.500000 0.500000
vt 0.500000 0.500000
vt 0.500000 0.500000
vt 0.500000 0.500000
vt 0.500000 0.500000
vt 0.500000 0.500000
vt 0.500000 0.500000
vt 0.500000 0.500000
vt 0.500000 0.500000
vt 0.500000 0.500000
vt 0.500000 0.500000
vt 0.500000 0.500000
vt 0.500000 0.500000
vt 0.500000 0.500000
vt 0.500000 0.500000
vt 0.500000 0.500000
vt 0.500000 0.500000
vt 0.500000 0.500000
vt 0.500000 0.500000
vt 0.500000 0.500000
vt 0.500000 0.500000
vt 0.500000 0.500000
vt 0.500000 0.500000
vt 0.500000 0.500000
vt 0.500000 0.500000
vt 0.500000 0.500000
vt 0.500000 0.500000
vt 0.500000 0.500000
vt 0.500000 0.500000
vt 0.500000 0.500000
vt 0.500000 0.500000
vt 0.500000 0.500000
vt 0.500000 0.500000
vt 0.500000 0.500000
vt 0.500000 0.500000
vt 0.500000 0.500000
vt 0.500000 0.500000
vt 0.500000 0.500000
vt 0.500000 0.500000
vt 0.500000 0.500000
vt 0.500000 0.500000
vt 0.500000 0.500000
vt 0.500000 0.500000
vt 0.500000 0.500000
vt 0.500000 0.500000
vt 0.500000 0.500000
vt 0.500000 0.500000
vt 0.500000 0.500000
vt 0.500000 0.500000
vt 0.500000 0.500000
vt 0.500000 0.500000
vt 0.500000 0.500000
vt 0.500000 0.500000
vt 0.500000 0.500000
vt 0.500000 0.500000
vt 0.500000 0.500000
vt 0.500000 0.500000
vt 0.500000 0.500000
vt 0.500000 0.500000
vt 0.500000 0.500000
vt 0.500000 0.500000
vt 0.500000 0.500000
vt 0.500000 0.500000
vt 0.500000 0.500000
vt 0.500000 0.500000
vt 0.500000 0.500000
vt 0.500000 0.500000
vt 0.500000 0.500000
vt 0.500000 0.500000
vt 0.500000 0.500000
vt 0.500000 0.500000
vt 0.500000 0.500000
vt 0.500000 0.500000
vt 0.500000 0.500000
vt 0.500000 0.500000
vt 0.500000 0.500000
vt 0.500000 0.500000
vt 0.500000 0.500000
vt 0.500000 0.500000
vt 0.500000 0.500000
vt 0.500000 0.500000
vt 0.500000 0.500000
vt 0.500000 0.500000
vt 0.500000 0.500000
vt 0.500000 0.500000
vt 0.500000 0.500000
vt 0.500000 0.500000
vt 0.500000 0.500000
vt 0.500000 0.500000
vt 0.500000 0.500000
vt 0.500000 0.500000
vt 0.500000 0.500000
vt 0.500000 0.500000
vt 0.500000 0.500000
vt 0.500000 0.500000
vt 0.500000 0.500000
vt 0.500000 0.500000
vt 0.500000 0.500000
vt 0.500000 0.500000
vt 0.500000 0.500000
vt 0.500000 0.500000
vt 0.500000 0.500000
vt 0.500000 0.500000
vt 0.500000 0.500000
vt 0.500000 0.500000
vt 0.500000 0.500000
vt 0.500000 0.500000
vt 0.500000 0.500000
vt 0.500000 0.500000
vt 0.500000 0.500000
vt 0.500000 0.500000
vt 0.500000 0.500000
vt 0.500000 0.500000
vt 0.500000 0.500000
vt 0.500000 0.500000
vt 0.500000 0.500000
vt 0.500000 0.500000
vt 0.500000 0.500000
vt 0.500000 0.500000
vt 0.500000 0.500000
vt 0.500000 0.500000
vt 0.500000 0.500000
vt 0.500000 0.500000
vt 0.500000 0.500000
vt 0.500000 0.500000
vt 0.500000 0.500000
vt 0.500000 0.500000
vt 0.500000 0.500000
vt 0.500000 0.500000
vt 0.500000 0.500000
vt 0.500000 0.500000
vt 0.500000 0.500000
vt 0.500000 0.500000
vt 0.500000 0.500000
vt 0.500000 0.500000
vt 0.930767 0.424359
vt 0.931113 0.425869
vt 0.930363 0.427181
vt 0.929143 0.426838
vt 0.927083 0.425926
vt 0.926799 0.422250
vt 0.936995 0.411413
vt 0.936837 0.413826
vt 0.933271 0.410924
vt 0.929697 0.416512
vt 0.929132 0.415265
vt 0.931605 0.411491
vt 0.926772 0.420069
vt 0.928777 0.419332
vt 0.926645 0.411405
vt 0.927083 0.407407
vt 0.930835 0.409556
vt 0.938843 0.415125
vt 0.939728 0.415118
vt 0.940159 0.416354
vt 0.928263 0.415236
vt 0.927350 0.415672
vt 0.926507 0.413822
vt 0.930268 0.406943
vt 0.931096 0.408279
vt 0.932614 0.411600
vt 0.931505 0.422235
vt 0.929856 0.418263
vt 0.932575 0.422198
vt 0.938087 0.418403
vt 0.937449 0.418370
vt 0.937823 0.415611
vt 0.927078 0.418687
vt 0.927834 0.418703
vt 0.933716 0.406127
vt 0.935129 0.406455
vt 0.933168 0.409451
vt 0.930753 0.422988
vt 0.929547 0.419440
vt 0.926694 0.415456
vt 0.937060 0.415439
vt 0.932828 0.425668
vt 0.933216 0.424193
vt 0.933737 0.427018
vt 0.937202 0.419808
vt 0.931131 0.426945
vt 0.940122 0.418102
vt 0.938920 0.419091
vt 0.930871 0.410746
vt 0.932781 0.407732
vt 0.932804 0.406459
vt 0.933292 0.422881
vt 0.937500 0.407407
vt 0.937238 0.422084
vt 0.937500 0.425926
vt 0.939678 0.419256
vt 0.932838 0.426743
vt 0.931048 0.407313
vn 0.0000 -1.0000 0.0000
vn 0.1559 0.0000 0.9878
vn -0.1700 0.0000 0.9854
vn 0.1697 0.0000 0.9855
vn -0.9995 0.0000 -0.0304
vn 0.9999 0.0000 0.0160
vn 0.2417 0.0000 0.9703
vn -0.1611 0.0000 0.9869
vn -0.9263 0.0000 -0.3769
vn 0.9056 0.0000 -0.4241
vn -0.9998 0.0000 -0.0193
vn 0.9907 0.0000 0.1364
vn -0.9927 0.0000 -0.1203
vn 0.9948 0.0000 -0.1020
vn -0.4908 0.0000 0.8713
vn 0.4720 0.0000 0.8816
vn 0.9998 0.0000 0.0219
vn -0.0195 0.0000 0.9998
vn -0.9996 0.0000 -0.0285
vn 0.9305 0.0000 -0.3664
vn -0.0789 0.0000 -0.9969
vn -0.9563 0.0000 0.2922
vn 0.9059 0.0000 -0.4236
vn -0.0122 0.0000 -0.9999
vn -0.3513 0.0000 -0.9362
vn 0.1217 0.0000 0.9926
vn -0.8249 0.0000 0.5653
vn 0.4208 0.0000 0.9071
vn 0.0291 0.0000 0.9996
vn 0.9872 0.0000 0.1594
vn -0.9993 0.0000 0.0373
vn 0.7786 0.0000 0.6275
vn -0.8497 0.0000 -0.5272
vn 0.1816 0.0000 0.9834
vn -0.2596 0.0000 0.9657
vn -0.1259 0.0000 -0.9920
vn 0.2590 0.0000 -0.9659
vn 0.0046 0.0000 -1.0000
vn 0.9798 0.0000 0.1998
vn -0.9711 0.0000 -0.2388
vn 0.0192 0.0000 0.9998
vn -0.9933 0.0000 0.1156
vn 0.9948 0.0000 -0.1015
vn -0.0609 0.0000 -0.9981
vn 0.5013 0.0000 -0.8653
vn -0.4959 0.0000 -0.8684
vn 0.9924 0.0000 0.1230
vn -0.9986 0.0000 -0.0533
vn -0.9398 0.0000 0.3417
vn 0.9282 0.0000 0.3722
vn 0.9816 0.0000 -0.1912
vn -0.9960 0.0000 -0.0889
vn -0.9757 0.0000 0.2189
vn 0.9995 0.0000 -0.0319
vn -0.2575 0.0000 -0.9663
vn 0.0817 0.0000 -0.9967
vn -0.2204 0.0000 -0.9754
vn 0.2002 0.0000 -0.9797
vn -0.1293 0.0000 -0.9916
vn 0.0000 1.0000 0.0000
usemtl BackMat.001
s off
f 205/1/1 193/2/1 199/3/1
f 192/4/1 209/5/1 201/6/1
f 245/7/1 249/8/1 244/9/1
f 231/10/1 248/11/1 233/12/1
f 209/5/1 221/13/1 215/14/1
f 246/15/1 253/16/1 256/17/1
f 242/18/1 232/19/1 234/20/1
f 238/21/1 243/22/1 237/23/1
f 253/16/1 254/24/1 264/25/1
f 247/26/1 244/9/1 249/8/1
f 213/27/1 214/28/1 224/29/1
f 230/30/1 239/31/1 222/32/1
f 215/14/1 225/33/1 217/34/1
f 266/35/1 252/36/1 265/37/1
f 209/5/1 207/38/1 221/13/1
f 221/13/1 207/38/1 219/39/1
f 237/23/1 243/22/1 235/40/1
f 240/41/1 244/9/1 247/26/1
f 192/4/1 207/38/1 209/5/1
f 200/42/1 198/43/1 206/44/1
f 216/45/1 222/32/1 240/41/1
f 214/28/1 247/26/1 224/29/1
f 199/3/1 193/2/1 194/46/1
f 229/47/1 232/19/1 226/48/1
f 251/49/1 233/12/1 248/11/1
f 256/17/1 253/16/1 264/25/1
f 249/8/1 265/37/1 252/36/1
f 251/49/1 253/16/1 246/15/1
f 224/29/1 247/26/1 231/10/1
f 205/1/1 207/38/1 192/4/1
f 233/12/1 251/49/1 246/15/1
f 255/50/1 266/35/1 262/51/1
f 211/52/1 240/41/1 214/28/1
f 265/37/1 245/7/1 260/53/1
f 219/39/1 213/27/1 224/29/1
f 221/13/1 225/33/1 215/14/1
f 216/45/1 211/52/1 210/54/1
f 252/36/1 266/35/1 255/50/1
f 232/19/1 242/18/1 226/48/1
f 231/10/1 247/26/1 248/11/1
f 240/41/1 211/52/1 216/45/1
f 265/37/1 249/8/1 245/7/1
f 206/44/1 210/54/1 211/52/1
f 210/54/1 206/44/1 203/55/1
f 227/56/1 229/47/1 226/48/1
f 198/43/1 203/55/1 206/44/1
f 214/28/1 240/41/1 247/26/1
f 196/57/1 198/43/1 200/42/1
f 222/32/1 239/31/1 240/41/1
f 239/31/1 230/30/1 242/18/1
f 207/38/1 213/27/1 219/39/1
f 238/21/1 233/12/1 246/15/1
f 243/22/1 238/21/1 246/15/1
f 226/48/1 242/18/1 230/30/1
f 193/2/1 205/1/1 192/4/1
f 264/25/1 254/24/1 258/58/1
f 1/59/2 2/60/2 60/61/2 59/62/2
f 2/60/3 120/63/3 195/64/3 60/61/3
f 122/65/4 13/66/4 71/67/4 197/68/4
f 3/69/5 4/70/5 62/71/5 61/72/5
f 11/73/6 12/74/6 70/75/6 69/76/6
f 127/77/7 1/59/7 59/62/7 202/78/7
f 13/66/8 129/79/8 204/80/8 71/67/8
f 4/70/9 5/81/9 63/82/9 62/71/9
f 10/83/10 11/73/10 69/76/10 68/84/10
f 5/81/11 133/85/11 208/86/11 63/82/11
f 57/87/12 58/88/12 116/89/12 115/90/12
f 14/91/13 15/92/13 73/93/13 72/94/13
f 137/95/14 10/83/14 68/84/14 212/96/14
f 6/97/15 7/98/15 65/99/15 64/100/15
f 8/101/16 9/102/16 67/103/16 66/104/16
f 56/105/17 57/87/17 115/90/17 114/106/17
f 7/98/18 8/101/18 66/104/18 65/99/18
f 15/92/19 16/107/19 74/108/19 73/93/19
f 143/109/20 56/105/20 114/106/20 218/110/20
f 145/111/21 53/112/21 111/113/21 220/114/21
f 16/107/22 148/115/22 223/116/22 74/108/22
f 51/117/23 52/118/23 110/119/23 109/120/23
f 54/121/24 55/122/24 113/123/24 112/124/24
f 53/112/25 54/121/25 112/124/25 111/113/25
f 19/125/26 153/126/26 228/127/26 77/128/26
f 20/129/27 21/130/27 79/131/27 78/132/27
f 18/133/28 19/125/28 77/128/28 76/134/28
f 17/135/29 18/133/29 76/134/29 75/136/29
f 50/137/30 51/117/30 109/120/30 108/138/30
f 21/130/31 22/139/31 80/140/31 79/131/31
f 49/141/32 50/137/32 108/138/32 107/142/32
f 22/139/33 23/143/33 81/144/33 80/140/33
f 161/145/34 47/146/34 105/147/34 236/148/34
f 47/146/35 48/149/35 106/150/35 105/147/35
f 25/151/36 166/152/36 241/153/36 83/154/36
f 24/155/37 25/151/37 83/154/37 82/156/37
f 23/143/38 24/155/38 82/156/38 81/144/38
f 45/157/39 46/158/39 104/159/39 103/160/39
f 26/161/40 27/162/40 85/163/40 84/164/40
f 48/149/41 49/141/41 107/142/41 106/150/41
f 27/162/42 28/165/42 86/166/42 85/163/42
f 44/167/43 45/157/43 103/160/43 102/168/43
f 36/169/44 37/170/44 95/171/44 94/172/44
f 175/173/45 36/169/45 94/172/45 250/174/45
f 37/170/46 38/175/46 96/176/46 95/171/46
f 34/177/47 35/178/47 93/179/47 92/180/47
f 38/175/48 39/181/48 97/182/48 96/176/48
f 39/181/49 40/183/49 98/184/49 97/182/49
f 33/185/50 34/177/50 92/180/50 91/186/50
f 182/187/51 44/167/51 102/168/51 257/188/51
f 40/183/52 184/189/52 259/190/52 98/184/52
f 28/165/53 186/191/53 261/192/53 86/166/53
f 188/193/54 33/185/54 91/186/54 263/194/54
f 41/195/55 42/196/55 100/197/55 99/198/55
f 42/196/56 43/199/56 101/200/56 100/197/56
f 29/201/57 30/202/57 88/203/57 87/204/57
f 31/205/58 32/206/58 90/207/58 89/208/58
f 30/202/59 31/205/59 89/208/59 88/203/59
usemtl FrontMat.001
f 130/209/60 124/210/60 118/211/60
f 117/212/60 126/213/60 134/214/60
f 170/215/60 169/216/60 174/217/60
f 156/218/60 158/219/60 173/220/60
f 134/214/60 140/221/60 146/222/60
f 171/223/60 181/224/60 178/225/60
f 167/226/60 159/227/60 157/228/60
f 163/229/60 162/230/60 168/231/60
f 178/225/60 189/232/60 179/233/60
f 172/234/60 174/217/60 169/216/60
f 138/235/60 149/236/60 139/237/60
f 155/238/60 147/239/60 164/240/60
f 140/221/60 142/241/60 150/242/60
f 191/243/60 190/244/60 177/245/60
f 134/214/60 146/222/60 132/246/60
f 146/222/60 144/247/60 132/246/60
f 162/230/60 160/248/60 168/231/60
f 165/249/60 172/234/60 169/216/60
f 117/212/60 134/214/60 132/246/60
f 125/250/60 131/251/60 123/252/60
f 141/253/60 165/249/60 147/239/60
f 139/237/60 149/236/60 172/234/60
f 124/210/60 119/254/60 118/211/60
f 154/255/60 151/256/60 157/228/60
f 176/257/60 173/220/60 158/219/60
f 181/224/60 189/232/60 178/225/60
f 174/217/60 177/245/60 190/244/60
f 176/257/60 171/223/60 178/225/60
f 149/236/60 156/218/60 172/234/60
f 130/209/60 117/212/60 132/246/60
f 158/219/60 171/223/60 176/257/60
f 180/258/60 187/259/60 191/243/60
f 136/260/60 139/237/60 165/249/60
f 190/244/60 185/261/60 170/215/60
f 144/247/60 149/236/60 138/235/60
f 146/222/60 140/221/60 150/242/60
f 141/253/60 135/262/60 136/260/60
f 177/245/60 180/258/60 191/243/60
f 157/228/60 151/256/60 167/226/60
f 156/218/60 173/220/60 172/234/60
f 165/249/60 141/253/60 136/260/60
f 190/244/60 170/215/60 174/217/60
f 131/251/60 136/260/60 135/262/60
f 135/262/60 128/263/60 131/251/60
f 152/264/60 151/256/60 154/255/60
f 123/252/60 131/251/60 128/263/60
f 139/237/60 172/234/60 165/249/60
f 121/265/60 125/250/60 123/252/60
f 147/239/60 165/249/60 164/240/60
f 164/240/60 167/226/60 155/238/60
f 132/246/60 144/247/60 138/235/60
f 163/229/60 171/223/60 158/219/60
f 168/231/60 171/223/60 163/229/60
f 151/256/60 155/238/60 167/226/60
f 118/211/60 117/212/60 130/209/60
f 189/232/60 183/266/60 179/233/60
