# Blender v2.83.1 OBJ File: 'jigsaw-96x54-3-step2.blend'
# www.blender.org
mtllib piece.4830.mtl
o path9660
v 0.432251 0.037500 -0.310417
v 0.419701 0.037500 -0.195391
v 0.438183 0.037500 -0.120111
v 0.500671 0.037500 -0.115295
v 0.584469 0.037500 -0.140610
v 0.657986 0.037500 -0.137979
v 0.695339 0.037500 -0.068918
v 0.693478 0.037500 0.026646
v 0.655083 0.037500 0.089197
v 0.586727 0.037500 0.080116
v 0.510853 0.037500 0.044424
v 0.453823 0.037500 0.048039
v 0.434566 0.037500 0.136276
v 0.473011 0.037500 0.499403
v 0.266079 0.037500 0.545366
v 0.142475 0.037500 0.560350
v 0.062267 0.037500 0.541904
v 0.059010 0.037500 0.475620
v 0.090359 0.037500 0.384865
v 0.095016 0.037500 0.302446
v 0.031898 0.037500 0.256041
v -0.059223 0.037500 0.252823
v -0.118370 0.037500 0.294828
v -0.106602 0.037500 0.377832
v -0.069122 0.037500 0.472277
v -0.072174 0.037500 0.542328
v -0.161221 0.037500 0.562296
v -0.298611 0.037500 0.547049
v -0.528687 0.037500 0.499403
v -0.551620 0.037500 0.274986
v -0.552784 0.037500 0.141050
v -0.525242 0.037500 0.054405
v -0.458874 0.037500 0.051409
v -0.375385 0.037500 0.085575
v -0.304420 0.037500 0.089722
v -0.270184 0.037500 0.018703
v -0.275009 0.037500 -0.084501
v -0.315773 0.037500 -0.154873
v -0.385719 0.037500 -0.149145
v -0.463497 0.037500 -0.111063
v -0.524105 0.037500 -0.106131
v -0.549419 0.037500 -0.180088
v -0.548798 0.037500 -0.299652
v -0.528687 0.037500 -0.502506
v -0.161751 0.037500 -0.562643
v -0.073563 0.037500 -0.547464
v -0.071930 0.037500 -0.487675
v -0.110821 0.037500 -0.402567
v -0.123287 0.037500 -0.319740
v -0.063576 0.037500 -0.263845
v 0.029190 0.037500 -0.247740
v 0.094685 0.037500 -0.281326
v 0.092724 0.037500 -0.365862
v 0.063648 0.037500 -0.468048
v 0.067951 0.037500 -0.545940
v 0.147457 0.037500 -0.569153
v 0.269321 0.037500 -0.553493
v 0.473011 0.037500 -0.502506
v 0.432251 -0.037500 -0.310417
v 0.419701 -0.037500 -0.195391
v 0.438183 -0.037500 -0.120111
v 0.500671 -0.037500 -0.115295
v 0.584469 -0.037500 -0.140610
v 0.657986 -0.037498 -0.137979
v 0.695339 -0.037500 -0.068918
v 0.693478 -0.037500 0.026646
v 0.655083 -0.037500 0.089197
v 0.586727 -0.037500 0.080116
v 0.510853 -0.037500 0.044424
v 0.453823 -0.037500 0.048039
v 0.434566 -0.037500 0.136276
v 0.473011 -0.037500 0.499403
v 0.266079 -0.037498 0.545366
v 0.142475 -0.037500 0.560350
v 0.062267 -0.037498 0.541904
v 0.059010 -0.037500 0.475620
v 0.090359 -0.037500 0.384865
v 0.095016 -0.037500 0.302446
v 0.031898 -0.037500 0.256041
v -0.059223 -0.037500 0.252823
v -0.118370 -0.037500 0.294828
v -0.106602 -0.037500 0.377832
v -0.069122 -0.037498 0.472277
v -0.072174 -0.037500 0.542328
v -0.161221 -0.037498 0.562296
v -0.298611 -0.037498 0.547049
v -0.528687 -0.037498 0.499403
v -0.551620 -0.037500 0.274986
v -0.552784 -0.037500 0.141050
v -0.525242 -0.037500 0.054405
v -0.458874 -0.037498 0.051409
v -0.375385 -0.037498 0.085575
v -0.304420 -0.037500 0.089722
v -0.270184 -0.037500 0.018703
v -0.275009 -0.037500 -0.084501
v -0.315773 -0.037500 -0.154873
v -0.385719 -0.037498 -0.149145
v -0.463497 -0.037500 -0.111063
v -0.524105 -0.037500 -0.106131
v -0.549419 -0.037500 -0.180088
v -0.548798 -0.037500 -0.299652
v -0.528687 -0.037500 -0.502506
v -0.161751 -0.037500 -0.562643
v -0.073563 -0.037500 -0.547464
v -0.071930 -0.037500 -0.487675
v -0.110821 -0.037500 -0.402567
v -0.123287 -0.037500 -0.319740
v -0.063576 -0.037500 -0.263845
v 0.029190 -0.037500 -0.247740
v 0.094685 -0.037500 -0.281326
v 0.092724 -0.037500 -0.365862
v 0.063648 -0.037500 -0.468048
v 0.067951 -0.037498 -0.545940
v 0.147457 -0.037500 -0.569153
v 0.269321 -0.037500 -0.553493
v 0.473011 -0.037500 -0.502506
v 0.657986 0.037500 -0.137979
v 0.695339 0.037500 -0.068918
v 0.693478 0.037500 0.026646
v 0.655083 0.037500 0.089197
v 0.655083 0.037500 0.089197
v 0.584469 0.037500 -0.140610
v 0.586727 0.037500 0.080116
v 0.510853 0.037500 0.044424
v 0.500671 0.037500 -0.115295
v 0.453823 0.037500 0.048039
v 0.453823 0.037500 0.048039
v 0.438183 0.037500 -0.120111
v 0.438183 0.037500 -0.120111
v 0.473011 0.037500 -0.502506
v 0.473011 0.037500 -0.502506
v 0.432251 0.037500 -0.310417
v 0.434566 0.037500 0.136276
v 0.473011 0.037500 0.499403
v 0.473011 0.037500 0.499403
v 0.419701 0.037500 -0.195391
v 0.269321 0.037500 -0.553493
v 0.266079 0.037500 0.545366
v 0.147457 0.037500 -0.569153
v 0.142475 0.037500 0.560350
v 0.067951 0.037500 -0.545940
v 0.067951 0.037500 -0.545940
v 0.094685 0.037500 -0.281326
v 0.094685 0.037500 -0.281326
v 0.092724 0.037500 -0.365862
v 0.090359 0.037500 0.384865
v 0.095016 0.037500 0.302446
v 0.062267 0.037500 0.541904
v 0.062267 0.037500 0.541904
v 0.031898 0.037500 0.256041
v 0.029190 0.037500 -0.247740
v 0.063648 0.037500 -0.468048
v 0.059010 0.037500 0.475620
v -0.059223 0.037500 0.252823
v -0.063576 0.037500 -0.263845
v -0.118370 0.037500 0.294828
v -0.118370 0.037500 0.294828
v -0.123287 0.037500 -0.319740
v -0.106602 0.037500 0.377832
v -0.069122 0.037500 0.472277
v -0.072174 0.037500 0.542328
v -0.072174 0.037500 0.542328
v -0.073563 0.037500 -0.547464
v -0.073563 0.037500 -0.547464
v -0.071930 0.037500 -0.487675
v -0.110821 0.037500 -0.402567
v -0.161221 0.037500 0.562296
v -0.161751 0.037500 -0.562643
v -0.298611 0.037500 0.547049
v -0.270184 0.037500 0.018703
v -0.275009 0.037500 -0.084501
v -0.304420 0.037500 0.089722
v -0.304420 0.037500 0.089722
v -0.315773 0.037500 -0.154873
v -0.315773 0.037500 -0.154873
v -0.375385 0.037500 0.085575
v -0.385719 0.037500 -0.149145
v -0.458874 0.037500 0.051409
v -0.463497 0.037500 -0.111063
v -0.528687 0.037500 -0.502506
v -0.528687 0.037500 -0.502506
v -0.525242 0.037500 0.054405
v -0.525242 0.037500 0.054405
v -0.524105 0.037500 -0.106131
v -0.524105 0.037500 -0.106131
v -0.528687 0.037500 0.499403
v -0.528687 0.037500 0.499403
v -0.549419 0.037500 -0.180088
v -0.552784 0.037500 0.141050
v -0.548798 0.037500 -0.299652
v -0.551620 0.037500 0.274986
v 0.657986 -0.037498 -0.137979
v 0.695339 -0.037500 -0.068918
v 0.693478 -0.037500 0.026646
v 0.655083 -0.037500 0.089197
v 0.655083 -0.037500 0.089197
v 0.584469 -0.037500 -0.140610
v 0.586727 -0.037500 0.080116
v 0.510853 -0.037500 0.044424
v 0.500671 -0.037500 -0.115295
v 0.453823 -0.037500 0.048039
v 0.453823 -0.037500 0.048039
v 0.438183 -0.037500 -0.120111
v 0.438183 -0.037500 -0.120111
v 0.473011 -0.037500 -0.502506
v 0.473011 -0.037500 -0.502506
v 0.432251 -0.037500 -0.310417
v 0.434566 -0.037500 0.136276
v 0.473011 -0.037500 0.499403
v 0.473011 -0.037500 0.499403
v 0.419701 -0.037500 -0.195391
v 0.269321 -0.037500 -0.553493
v 0.266079 -0.037498 0.545366
v 0.147457 -0.037500 -0.569153
v 0.142475 -0.037500 0.560350
v 0.067951 -0.037498 -0.545940
v 0.067951 -0.037498 -0.545940
v 0.094685 -0.037500 -0.281326
v 0.094685 -0.037500 -0.281326
v 0.092724 -0.037500 -0.365862
v 0.090359 -0.037500 0.384865
v 0.095016 -0.037500 0.302446
v 0.062267 -0.037498 0.541904
v 0.062267 -0.037498 0.541904
v 0.031898 -0.037500 0.256041
v 0.029190 -0.037500 -0.247740
v 0.063648 -0.037500 -0.468048
v 0.059010 -0.037500 0.475620
v -0.059223 -0.037500 0.252823
v -0.063576 -0.037500 -0.263845
v -0.118370 -0.037500 0.294828
v -0.118370 -0.037500 0.294828
v -0.123287 -0.037500 -0.319740
v -0.106602 -0.037500 0.377832
v -0.069122 -0.037498 0.472277
v -0.072174 -0.037500 0.542328
v -0.072174 -0.037500 0.542328
v -0.073563 -0.037500 -0.547464
v -0.073563 -0.037500 -0.547464
v -0.071930 -0.037500 -0.487675
v -0.110821 -0.037500 -0.402567
v -0.161221 -0.037498 0.562296
v -0.161751 -0.037500 -0.562643
v -0.298611 -0.037498 0.547049
v -0.270184 -0.037500 0.018703
v -0.275009 -0.037500 -0.084501
v -0.304420 -0.037500 0.089722
v -0.304420 -0.037500 0.089722
v -0.315773 -0.037500 -0.154873
v -0.315773 -0.037500 -0.154873
v -0.375385 -0.037498 0.085575
v -0.385719 -0.037498 -0.149145
v -0.458874 -0.037498 0.051409
v -0.463497 -0.037500 -0.111063
v -0.528687 -0.037500 -0.502506
v -0.528687 -0.037500 -0.502506
v -0.525242 -0.037500 0.054405
v -0.525242 -0.037500 0.054405
v -0.524105 -0.037500 -0.106131
v -0.524105 -0.037500 -0.106131
v -0.528687 -0.037498 0.499403
v -0.528687 -0.037498 0.499403
v -0.549419 -0.037500 -0.180088
v -0.552784 -0.037500 0.141050
v -0.548798 -0.037500 -0.299652
v -0.551620 -0.037500 0.274986
vt 0.500000 0.500000
vt 0.500000 0.500000
vt 0.500000 0.500000
vt 0.500000 0.500000
vt 0.500000 0.500000
vt 0.500000 0.500000
vt 0.500000 0.500000
vt 0.500000 0.500000
vt 0.500000 0.500000
vt 0.500000 0.500000
vt 0.500000 0.500000
vt 0.500000 0.500000
vt 0.500000 0.500000
vt 0.500000 0.500000
vt 0.500000 0.500000
vt 0.500000 0.500000
vt 0.500000 0.500000
vt 0.500000 0.500000
vt 0.500000 0.500000
vt 0.500000 0.500000
vt 0.500000 0.500000
vt 0.500000 0.500000
vt 0.500000 0.500000
vt 0.500000 0.500000
vt 0.500000 0.500000
vt 0.500000 0.500000
vt 0.500000 0.500000
vt 0.500000 0.500000
vt 0.500000 0.500000
vt 0.500000 0.500000
vt 0.500000 0.500000
vt 0.500000 0.500000
vt 0.500000 0.500000
vt 0.500000 0.500000
vt 0.500000 0.500000
vt 0.500000 0.500000
vt 0.500000 0.500000
vt 0.500000 0.500000
vt 0.500000 0.500000
vt 0.500000 0.500000
vt 0.500000 0.500000
vt 0.500000 0.500000
vt 0.500000 0.500000
vt 0.500000 0.500000
vt 0.500000 0.500000
vt 0.500000 0.500000
vt 0.500000 0.500000
vt 0.500000 0.500000
vt 0.500000 0.500000
vt 0.500000 0.500000
vt 0.500000 0.500000
vt 0.500000 0.500000
vt 0.500000 0.500000
vt 0.500000 0.500000
vt 0.500000 0.500000
vt 0.500000 0.500000
vt 0.500000 0.500000
vt 0.500000 0.500000
vt 0.500000 0.500000
vt 0.500000 0.500000
vt 0.500000 0.500000
vt 0.500000 0.500000
vt 0.500000 0.500000
vt 0.500000 0.500000
vt 0.500000 0.500000
vt 0.500000 0.500000
vt 0.500000 0.500000
vt 0.500000 0.500000
vt 0.500000 0.500000
vt 0.500000 0.500000
vt 0.500000 0.500000
vt 0.500000 0.500000
vt 0.500000 0.500000
vt 0.500000 0.500000
vt 0.500000 0.500000
vt 0.500000 0.500000
vt 0.500000 0.500000
vt 0.500000 0.500000
vt 0.500000 0.500000
vt 0.500000 0.500000
vt 0.500000 0.500000
vt 0.500000 0.500000
vt 0.500000 0.500000
vt 0.500000 0.500000
vt 0.500000 0.500000
vt 0.500000 0.500000
vt 0.500000 0.500000
vt 0.500000 0.500000
vt 0.500000 0.500000
vt 0.500000 0.500000
vt 0.500000 0.500000
vt 0.500000 0.500000
vt 0.500000 0.500000
vt 0.500000 0.500000
vt 0.500000 0.500000
vt 0.500000 0.500000
vt 0.500000 0.500000
vt 0.500000 0.500000
vt 0.500000 0.500000
vt 0.500000 0.500000
vt 0.500000 0.500000
vt 0.500000 0.500000
vt 0.500000 0.500000
vt 0.500000 0.500000
vt 0.500000 0.500000
vt 0.500000 0.500000
vt 0.500000 0.500000
vt 0.500000 0.500000
vt 0.500000 0.500000
vt 0.500000 0.500000
vt 0.500000 0.500000
vt 0.500000 0.500000
vt 0.500000 0.500000
vt 0.500000 0.500000
vt 0.500000 0.500000
vt 0.500000 0.500000
vt 0.500000 0.500000
vt 0.500000 0.500000
vt 0.500000 0.500000
vt 0.500000 0.500000
vt 0.500000 0.500000
vt 0.500000 0.500000
vt 0.500000 0.500000
vt 0.500000 0.500000
vt 0.500000 0.500000
vt 0.500000 0.500000
vt 0.500000 0.500000
vt 0.500000 0.500000
vt 0.500000 0.500000
vt 0.500000 0.500000
vt 0.500000 0.500000
vt 0.500000 0.500000
vt 0.500000 0.500000
vt 0.500000 0.500000
vt 0.500000 0.500000
vt 0.500000 0.500000
vt 0.500000 0.500000
vt 0.500000 0.500000
vt 0.500000 0.500000
vt 0.500000 0.500000
vt 0.500000 0.500000
vt 0.500000 0.500000
vt 0.500000 0.500000
vt 0.500000 0.500000
vt 0.500000 0.500000
vt 0.500000 0.500000
vt 0.500000 0.500000
vt 0.500000 0.500000
vt 0.500000 0.500000
vt 0.500000 0.500000
vt 0.500000 0.500000
vt 0.500000 0.500000
vt 0.500000 0.500000
vt 0.500000 0.500000
vt 0.500000 0.500000
vt 0.500000 0.500000
vt 0.500000 0.500000
vt 0.500000 0.500000
vt 0.500000 0.500000
vt 0.500000 0.500000
vt 0.500000 0.500000
vt 0.500000 0.500000
vt 0.500000 0.500000
vt 0.500000 0.500000
vt 0.500000 0.500000
vt 0.500000 0.500000
vt 0.500000 0.500000
vt 0.500000 0.500000
vt 0.500000 0.500000
vt 0.500000 0.500000
vt 0.500000 0.500000
vt 0.500000 0.500000
vt 0.500000 0.500000
vt 0.500000 0.500000
vt 0.500000 0.500000
vt 0.500000 0.500000
vt 0.500000 0.500000
vt 0.500000 0.500000
vt 0.500000 0.500000
vt 0.500000 0.500000
vt 0.500000 0.500000
vt 0.500000 0.500000
vt 0.500000 0.500000
vt 0.500000 0.500000
vt 0.500000 0.500000
vt 0.500000 0.500000
vt 0.500000 0.500000
vt 0.500000 0.500000
vt 0.500000 0.500000
vt 0.500000 0.500000
vt 0.500000 0.500000
vt 0.500000 0.500000
vt 0.500000 0.500000
vt 0.500000 0.500000
vt 0.500000 0.500000
vt 0.500000 0.500000
vt 0.500000 0.500000
vt 0.500000 0.500000
vt 0.500000 0.500000
vt 0.500000 0.500000
vt 0.500000 0.500000
vt 0.500000 0.500000
vt 0.500000 0.500000
vt 0.500000 0.500000
vt 0.500000 0.500000
vt 0.500000 0.500000
vt 0.500000 0.500000
vt 0.500000 0.500000
vt 0.308141 0.076176
vt 0.308235 0.077440
vt 0.307585 0.078150
vt 0.312253 0.066420
vt 0.312942 0.066481
vt 0.313134 0.067963
vt 0.301458 0.062339
vt 0.302083 0.055556
vt 0.303122 0.063281
vt 0.303984 0.063050
vt 0.304192 0.055184
vt 0.305698 0.059492
vt 0.309970 0.065919
vt 0.307807 0.073719
vt 0.304732 0.065869
vt 0.312946 0.063995
vt 0.312218 0.064052
vt 0.313154 0.062349
vt 0.312500 0.055556
vt 0.312995 0.059809
vt 0.310167 0.055132
vt 0.309936 0.064235
vt 0.308198 0.058390
vt 0.308774 0.055110
vt 0.308725 0.073363
vt 0.312978 0.070249
vt 0.311309 0.067000
vt 0.307842 0.056846
vt 0.307873 0.055619
vt 0.310452 0.067086
vt 0.304383 0.067080
vt 0.304080 0.073321
vt 0.303504 0.067044
vt 0.305435 0.055172
vt 0.306204 0.055640
vt 0.306153 0.056761
vt 0.306109 0.074585
vt 0.306059 0.073430
vt 0.306591 0.078184
vt 0.306429 0.060245
vt 0.304565 0.064154
vt 0.311236 0.063359
vt 0.310373 0.063141
vt 0.305846 0.076135
vt 0.307770 0.074774
vt 0.307502 0.060335
vt 0.305757 0.058199
vt 0.305276 0.073089
vt 0.302238 0.064000
vt 0.302083 0.074074
vt 0.301553 0.070308
vt 0.308241 0.059702
vt 0.305873 0.077494
vt 0.301390 0.068056
vt 0.301632 0.066586
vt 0.302442 0.066506
vt 0.301616 0.063970
vt 0.312500 0.074074
vn 0.0000 -1.0000 0.0000
vn 0.0000 -1.0000 -0.0001
vn 0.8796 0.0000 -0.4757
vn 0.9998 0.0000 0.0195
vn 0.8523 0.0000 0.5231
vn 0.0358 0.0000 -0.9994
vn -0.1317 0.0000 0.9913
vn -0.4257 0.0000 0.9049
vn -0.2892 0.0000 -0.9573
vn 0.0633 0.0000 0.9980
vn 0.0768 0.0000 -0.9970
vn 0.9782 0.0000 0.2076
vn 0.9770 0.0000 0.2132
vn 0.9944 0.0000 -0.1053
vn 0.9712 0.0000 -0.2384
vn 0.9941 0.0000 0.1085
vn 0.2428 0.0000 -0.9701
vn 0.2168 0.0000 0.9762
vn 0.1275 0.0000 -0.9918
vn 0.1203 0.0000 0.9927
vn -0.2803 0.0000 -0.9599
vn -0.9997 0.0000 0.0232
vn -0.9984 0.0000 -0.0564
vn -0.2241 0.0000 0.9746
vn -0.5924 0.0000 0.8057
vn -0.4563 0.0000 -0.8898
vn -0.9985 0.0000 -0.0552
vn -0.9618 0.0000 0.2737
vn -0.9452 0.0000 -0.3265
vn -0.9988 0.0000 0.0491
vn -0.0353 0.0000 0.9994
vn 0.1711 0.0000 -0.9853
vn 0.5790 0.0000 0.8153
vn 0.6834 0.0000 -0.7301
vn 0.9295 0.0000 -0.3689
vn 0.9991 0.0000 0.0435
vn 0.9996 0.0000 -0.0273
vn 0.9095 0.0000 0.4156
vn 0.2188 0.0000 0.9758
vn 0.1696 0.0000 -0.9855
vn 0.9901 0.0000 -0.1404
vn 0.9889 0.0000 0.1488
vn -0.1103 0.0000 0.9939
vn -0.9989 0.0000 0.0467
vn -0.9008 0.0000 -0.4343
vn -0.8653 0.0000 0.5012
vn 0.0583 0.0000 -0.9983
vn 0.0816 0.0000 0.9967
vn 0.3787 0.0000 -0.9255
vn 0.4397 0.0000 0.8981
vn -0.1617 0.0000 -0.9868
vn -0.0451 0.0000 -0.9990
vn 0.0811 0.0000 0.9967
vn -0.2028 0.0000 0.9792
vn -0.9461 0.0000 0.3238
vn -0.9530 0.0000 -0.3029
vn -0.9951 0.0000 -0.0987
vn -1.0000 0.0000 -0.0052
vn -1.0000 0.0000 0.0087
vn -0.9948 0.0000 0.1017
vn 0.0000 1.0000 0.0000
usemtl BackMat.001
s off
f 198/1/1 194/2/1 195/3/1
f 228/4/1 215/5/1 223/6/1
f 243/7/1 241/8/1 255/9/1
f 233/10/1 249/11/1 265/12/1
f 225/13/1 226/14/1 201/15/1
f 236/16/1 242/17/1 235/18/1
f 261/19/1 266/20/1 244/21/1
f 229/22/1 226/14/1 225/13/1
f 266/20/1 264/23/1 251/24/1
f 208/25/1 225/13/1 201/15/1
f 215/5/1 221/26/1 213/27/1
f 251/24/1 264/23/1 253/28/1
f 253/28/1 264/23/1 257/29/1
f 213/27/1 221/26/1 222/30/1
f 218/31/1 220/32/1 207/33/1
f 263/34/1 254/35/1 259/36/1
f 213/27/1 222/30/1 208/25/1
f 200/37/1 201/15/1 203/38/1
f 193/39/1 194/2/1 198/1/1
f 249/11/1 230/40/1 246/41/1
f 242/17/1 244/21/1 234/42/1
f 266/20/1 231/43/1 244/21/1
f 193/39/1 199/44/1 197/45/1
f 245/46/1 246/41/1 230/40/1
f 252/47/1 254/35/1 263/34/1
f 203/38/1 218/31/1 211/48/1
f 203/38/1 226/14/1 218/31/1
f 265/12/1 252/47/1 263/34/1
f 241/8/1 243/7/1 240/49/1
f 207/33/1 212/50/1 205/51/1
f 265/12/1 249/11/1 252/47/1
f 222/30/1 225/13/1 208/25/1
f 247/52/1 231/43/1 266/20/1
f 207/33/1 220/32/1 212/50/1
f 221/26/1 215/5/1 228/4/1
f 193/39/2 197/45/2 192/53/2
f 201/15/1 200/37/1 199/44/1
f 214/54/1 227/55/1 216/56/1
f 251/24/1 247/52/1 266/20/1
f 214/54/1 220/32/1 227/55/1
f 226/14/1 245/46/1 230/40/1
f 201/15/1 226/14/1 203/38/1
f 229/22/1 245/46/1 226/14/1
f 255/9/1 233/10/1 265/12/1
f 230/40/1 249/11/1 233/10/1
f 229/22/1 247/52/1 245/46/1
f 197/45/1 199/44/1 200/37/1
f 235/18/1 242/17/1 234/42/1
f 234/42/1 244/21/1 231/43/1
f 241/8/1 233/10/1 255/9/1
f 199/44/1 193/39/1 198/1/1
f 240/49/1 243/7/1 238/57/1
f 231/43/1 247/52/1 229/22/1
f 213/27/1 208/25/1 209/58/1
f 212/50/1 220/32/1 214/54/1
f 211/48/1 218/31/1 207/33/1
f 6/59/3 7/60/3 65/61/3 64/62/3
f 7/60/4 8/63/4 66/64/4 65/61/4
f 8/63/5 121/65/5 196/66/5 66/64/5
f 5/67/6 6/59/6 64/62/6 63/68/6
f 9/69/7 10/70/7 68/71/7 67/72/7
f 10/70/8 11/73/8 69/74/8 68/71/8
f 4/75/9 5/67/9 63/68/9 62/76/9
f 11/73/10 127/77/10 202/78/10 69/74/10
f 129/79/11 4/75/11 62/76/11 204/80/11
f 131/81/12 1/82/12 59/83/12 206/84/12
f 12/85/13 13/86/13 71/87/13 70/88/13
f 13/86/14 135/89/14 210/90/14 71/87/14
f 2/91/15 3/92/15 61/93/15 60/94/15
f 1/82/16 2/91/16 60/94/16 59/83/16
f 57/95/17 58/96/17 116/97/17 115/98/17
f 14/99/18 15/100/18 73/101/18 72/102/18
f 56/103/19 57/95/19 115/98/19 114/104/19
f 15/100/20 16/105/20 74/106/20 73/101/20
f 142/107/21 56/103/21 114/104/21 217/108/21
f 144/109/22 53/110/22 111/111/22 219/112/22
f 19/113/23 20/114/23 78/115/23 77/116/23
f 16/105/24 149/117/24 224/118/24 74/106/24
f 20/114/25 21/119/25 79/120/25 78/115/25
f 51/121/26 52/122/26 110/123/26 109/124/26
f 54/125/27 55/126/27 113/127/27 112/128/27
f 53/110/28 54/125/28 112/128/28 111/111/28
f 18/129/29 19/113/29 77/116/29 76/130/29
f 17/131/30 18/129/30 76/130/30 75/132/30
f 21/119/31 22/133/31 80/134/31 79/120/31
f 50/135/32 51/121/32 109/124/32 108/136/32
f 22/133/33 157/137/33 232/138/33 80/134/33
f 49/139/34 50/135/34 108/136/34 107/140/34
f 24/141/35 25/142/35 83/143/35 82/144/35
f 25/142/36 162/145/36 237/146/36 83/143/36
f 164/147/37 47/148/37 105/149/37 239/150/37
f 47/148/38 48/151/38 106/152/38 105/149/38
f 26/153/39 27/154/39 85/155/39 84/156/39
f 45/157/40 46/158/40 104/159/40 103/160/40
f 23/161/41 24/141/41 82/144/41 81/162/41
f 48/151/42 49/139/42 107/140/42 106/152/42
f 27/154/43 28/163/43 86/164/43 85/155/43
f 36/165/44 37/166/44 95/167/44 94/168/44
f 173/169/45 36/165/45 94/168/45 248/170/45
f 37/166/46 175/171/46 250/172/46 95/167/46
f 34/173/47 35/174/47 93/175/47 92/176/47
f 38/177/48 39/178/48 97/179/48 96/180/48
f 33/181/49 34/173/49 92/176/49 91/182/49
f 39/178/50 40/183/50 98/184/50 97/179/50
f 181/185/51 45/157/51 103/160/51 256/186/51
f 183/187/52 33/181/52 91/182/52 258/188/52
f 40/183/53 185/189/53 260/190/53 98/184/53
f 28/163/54 187/191/54 262/192/54 86/164/54
f 41/193/55 42/194/55 100/195/55 99/196/55
f 31/197/56 32/198/56 90/199/56 89/200/56
f 43/201/57 44/202/57 102/203/57 101/204/57
f 42/194/58 43/201/58 101/204/58 100/195/58
f 30/205/59 31/197/59 89/200/59 88/206/59
f 29/207/60 30/205/60 88/206/60 87/208/60
usemtl FrontMat.001
f 123/209/61 120/210/61 119/211/61
f 153/212/61 148/213/61 140/214/61
f 168/215/61 180/216/61 166/217/61
f 158/218/61 190/219/61 174/220/61
f 150/221/61 126/222/61 151/223/61
f 161/224/61 160/225/61 167/226/61
f 186/227/61 169/228/61 191/229/61
f 154/230/61 150/221/61 151/223/61
f 191/229/61 176/231/61 189/232/61
f 133/233/61 126/222/61 150/221/61
f 140/214/61 138/234/61 146/235/61
f 176/231/61 178/236/61 189/232/61
f 178/236/61 182/237/61 189/232/61
f 138/234/61 147/238/61 146/235/61
f 143/239/61 132/240/61 145/241/61
f 188/242/61 184/243/61 179/244/61
f 138/234/61 133/233/61 147/238/61
f 125/245/61 128/246/61 126/222/61
f 118/247/61 123/209/61 119/211/61
f 174/220/61 171/248/61 155/249/61
f 167/226/61 159/250/61 169/228/61
f 191/229/61 169/228/61 156/251/61
f 118/247/61 122/252/61 124/253/61
f 170/254/61 155/249/61 171/248/61
f 177/255/61 188/242/61 179/244/61
f 128/246/61 136/256/61 143/239/61
f 128/246/61 143/239/61 151/223/61
f 190/219/61 188/242/61 177/255/61
f 166/217/61 165/257/61 168/215/61
f 132/240/61 130/258/61 137/259/61
f 190/219/61 177/255/61 174/220/61
f 147/238/61 133/233/61 150/221/61
f 172/260/61 191/229/61 156/251/61
f 132/240/61 137/259/61 145/241/61
f 146/235/61 153/212/61 140/214/61
f 118/247/61 117/261/61 122/252/61
f 126/222/61 124/253/61 125/245/61
f 139/262/61 141/263/61 152/264/61
f 176/231/61 191/229/61 172/260/61
f 139/262/61 152/264/61 145/241/61
f 151/223/61 155/249/61 170/254/61
f 126/222/61 128/246/61 151/223/61
f 154/230/61 151/223/61 170/254/61
f 180/216/61 190/219/61 158/218/61
f 155/249/61 158/218/61 174/220/61
f 154/230/61 170/254/61 172/260/61
f 122/252/61 125/245/61 124/253/61
f 160/225/61 159/250/61 167/226/61
f 159/250/61 156/251/61 169/228/61
f 166/217/61 180/216/61 158/218/61
f 124/253/61 123/209/61 118/247/61
f 165/257/61 163/265/61 168/215/61
f 156/251/61 154/230/61 172/260/61
f 138/234/61 134/266/61 133/233/61
f 137/259/61 139/262/61 145/241/61
f 136/256/61 132/240/61 143/239/61
