# Blender v2.83.1 OBJ File: 'jigsaw-96x54-3-step2.blend'
# www.blender.org
mtllib piece.1872.mtl
o path3744
v -0.294670 0.037500 -0.459538
v -0.175615 0.037500 -0.460354
v -0.100506 0.037500 -0.486156
v -0.102261 0.037500 -0.545879
v -0.137831 0.037500 -0.622738
v -0.145180 0.037500 -0.693542
v -0.082609 0.037500 -0.737633
v 0.010324 0.037500 -0.744507
v 0.073732 0.037500 -0.706203
v 0.068422 0.037500 -0.622433
v 0.037985 0.037500 -0.523624
v 0.046698 0.037500 -0.447887
v 0.138588 0.037500 -0.422825
v 0.276670 0.037500 -0.434082
v 0.506134 0.037500 -0.476894
v 0.453295 0.037500 -0.263672
v 0.435741 0.037500 -0.136169
v 0.455990 0.037500 -0.053127
v 0.529930 0.037500 -0.049038
v 0.628613 0.037500 -0.080471
v 0.711878 0.037500 -0.084518
v 0.747673 0.037500 -0.018501
v 0.736399 0.037500 0.079227
v 0.686556 0.037500 0.150078
v 0.609636 0.037500 0.154831
v 0.529078 0.037500 0.131817
v 0.471298 0.037500 0.138733
v 0.454903 0.037500 0.215607
v 0.467279 0.037500 0.331734
v 0.506134 0.037500 0.525017
v 0.138018 0.037500 0.562210
v 0.046768 0.037500 0.539211
v 0.039717 0.037500 0.475266
v 0.072859 0.037500 0.390781
v 0.081867 0.037500 0.314159
v 0.022886 0.037500 0.269390
v -0.066055 0.037500 0.262768
v -0.126455 0.037500 0.296169
v -0.119717 0.037500 0.366295
v -0.086880 0.037500 0.449188
v -0.088894 0.037500 0.515705
v -0.167829 0.037500 0.544453
v -0.290247 0.037500 0.545048
v -0.495563 0.037500 0.525017
v -0.473600 0.037500 0.319061
v -0.471493 0.037500 0.195972
v -0.495001 0.037500 0.115963
v -0.553703 0.037500 0.112320
v -0.630522 0.037500 0.142643
v -0.701662 0.037500 0.145599
v -0.745872 0.037500 0.080051
v -0.752062 0.037500 -0.014408
v -0.711681 0.037500 -0.078007
v -0.624340 0.037500 -0.071575
v -0.522341 0.037500 -0.038391
v -0.446156 0.037500 -0.042351
v -0.424908 0.037500 -0.127457
v -0.442329 0.037500 -0.258202
v -0.495564 0.037500 -0.476894
v -0.294670 -0.037500 -0.459538
v -0.175615 -0.037500 -0.460354
v -0.100506 -0.037500 -0.486156
v -0.102261 -0.037498 -0.545879
v -0.137831 -0.037498 -0.622738
v -0.145180 -0.037500 -0.693542
v -0.082609 -0.037500 -0.737633
v 0.010324 -0.037500 -0.744507
v 0.073732 -0.037498 -0.706203
v 0.068422 -0.037500 -0.622433
v 0.037985 -0.037500 -0.523624
v 0.046698 -0.037500 -0.447887
v 0.138588 -0.037498 -0.422825
v 0.276670 -0.037500 -0.434082
v 0.506134 -0.037500 -0.476894
v 0.453295 -0.037498 -0.263672
v 0.435741 -0.037500 -0.136169
v 0.455990 -0.037500 -0.053127
v 0.529930 -0.037498 -0.049038
v 0.628613 -0.037500 -0.080471
v 0.711878 -0.037500 -0.084518
v 0.747673 -0.037500 -0.018501
v 0.736399 -0.037500 0.079227
v 0.686556 -0.037500 0.150078
v 0.609636 -0.037500 0.154831
v 0.529078 -0.037500 0.131817
v 0.471298 -0.037500 0.138733
v 0.454903 -0.037498 0.215607
v 0.467279 -0.037500 0.331734
v 0.506134 -0.037500 0.525017
v 0.138018 -0.037500 0.562210
v 0.046768 -0.037498 0.539211
v 0.039717 -0.037500 0.475266
v 0.072859 -0.037500 0.390781
v 0.081867 -0.037500 0.314159
v 0.022886 -0.037498 0.269390
v -0.066055 -0.037498 0.262768
v -0.126455 -0.037500 0.296169
v -0.119717 -0.037500 0.366295
v -0.086880 -0.037500 0.449188
v -0.088894 -0.037500 0.515705
v -0.167829 -0.037500 0.544453
v -0.290247 -0.037500 0.545048
v -0.495563 -0.037500 0.525017
v -0.473600 -0.037500 0.319061
v -0.471493 -0.037498 0.195972
v -0.495001 -0.037500 0.115963
v -0.553703 -0.037500 0.112320
v -0.630522 -0.037500 0.142643
v -0.701662 -0.037500 0.145599
v -0.745872 -0.037500 0.080051
v -0.752062 -0.037500 -0.014408
v -0.711681 -0.037500 -0.078007
v -0.624340 -0.037500 -0.071575
v -0.522341 -0.037500 -0.038391
v -0.446156 -0.037500 -0.042351
v -0.424908 -0.037500 -0.127457
v -0.442329 -0.037500 -0.258202
v -0.495564 -0.037500 -0.476894
v -0.745872 0.037500 0.080051
v -0.752062 0.037500 -0.014408
v -0.711681 0.037500 -0.078007
v -0.711681 0.037500 -0.078007
v -0.701662 0.037500 0.145599
v -0.624340 0.037500 -0.071575
v -0.630522 0.037500 0.142643
v -0.553703 0.037500 0.112320
v -0.522341 0.037500 -0.038391
v -0.495001 0.037500 0.115963
v -0.495001 0.037500 0.115963
v -0.446156 0.037500 -0.042351
v -0.446156 0.037500 -0.042351
v -0.471493 0.037500 0.195972
v -0.495563 0.037500 0.525017
v -0.495563 0.037500 0.525017
v -0.473600 0.037500 0.319061
v -0.442329 0.037500 -0.258202
v -0.495564 0.037500 -0.476894
v -0.495564 0.037500 -0.476894
v -0.424908 0.037500 -0.127457
v -0.294670 0.037500 -0.459538
v -0.290247 0.037500 0.545048
v -0.175615 0.037500 -0.460354
v -0.167829 0.037500 0.544453
v -0.100506 0.037500 -0.486156
v -0.100506 0.037500 -0.486156
v -0.088894 0.037500 0.515705
v -0.088894 0.037500 0.515705
v -0.126455 0.037500 0.296169
v -0.126455 0.037500 0.296169
v -0.119717 0.037500 0.366295
v -0.137831 0.037500 -0.622738
v -0.145180 0.037500 -0.693542
v -0.145180 0.037500 -0.693542
v -0.082609 0.037500 -0.737633
v -0.102261 0.037500 -0.545879
v -0.066055 0.037500 0.262768
v -0.086880 0.037500 0.449188
v 0.010324 0.037500 -0.744507
v 0.022886 0.037500 0.269390
v 0.073732 0.037500 -0.706203
v 0.073732 0.037500 -0.706203
v 0.081867 0.037500 0.314159
v 0.037985 0.037500 -0.523624
v 0.046698 0.037500 -0.447887
v 0.046698 0.037500 -0.447887
v 0.068422 0.037500 -0.622433
v 0.046768 0.037500 0.539211
v 0.046768 0.037500 0.539211
v 0.039717 0.037500 0.475266
v 0.072859 0.037500 0.390781
v 0.138588 0.037500 -0.422825
v 0.138018 0.037500 0.562210
v 0.276670 0.037500 -0.434082
v 0.506134 0.037500 0.525017
v 0.506134 0.037500 0.525017
v 0.467279 0.037500 0.331734
v 0.454903 0.037500 0.215607
v 0.435741 0.037500 -0.136169
v 0.455990 0.037500 -0.053127
v 0.455990 0.037500 -0.053127
v 0.453295 0.037500 -0.263672
v 0.471298 0.037500 0.138733
v 0.471298 0.037500 0.138733
v 0.529930 0.037500 -0.049038
v 0.529078 0.037500 0.131817
v 0.506134 0.037500 -0.476894
v 0.506134 0.037500 -0.476894
v 0.609636 0.037500 0.154831
v 0.628613 0.037500 -0.080471
v 0.686556 0.037500 0.150078
v 0.711878 0.037500 -0.084518
v 0.711878 0.037500 -0.084518
v 0.736399 0.037500 0.079227
v 0.747673 0.037500 -0.018501
v -0.745872 -0.037500 0.080051
v -0.752062 -0.037500 -0.014408
v -0.711681 -0.037500 -0.078007
v -0.711681 -0.037500 -0.078007
v -0.701662 -0.037500 0.145599
v -0.624340 -0.037500 -0.071575
v -0.630522 -0.037500 0.142643
v -0.553703 -0.037500 0.112320
v -0.522341 -0.037500 -0.038391
v -0.495001 -0.037500 0.115963
v -0.495001 -0.037500 0.115963
v -0.446156 -0.037500 -0.042351
v -0.446156 -0.037500 -0.042351
v -0.471493 -0.037498 0.195972
v -0.495563 -0.037500 0.525017
v -0.495563 -0.037500 0.525017
v -0.473600 -0.037500 0.319061
v -0.442329 -0.037500 -0.258202
v -0.495564 -0.037500 -0.476894
v -0.495564 -0.037500 -0.476894
v -0.424908 -0.037500 -0.127457
v -0.294670 -0.037500 -0.459538
v -0.290247 -0.037500 0.545048
v -0.175615 -0.037500 -0.460354
v -0.167829 -0.037500 0.544453
v -0.100506 -0.037500 -0.486156
v -0.100506 -0.037500 -0.486156
v -0.088894 -0.037500 0.515705
v -0.088894 -0.037500 0.515705
v -0.126455 -0.037500 0.296169
v -0.126455 -0.037500 0.296169
v -0.119717 -0.037500 0.366295
v -0.137831 -0.037498 -0.622738
v -0.145180 -0.037500 -0.693542
v -0.145180 -0.037500 -0.693542
v -0.082609 -0.037500 -0.737633
v -0.102261 -0.037498 -0.545879
v -0.066055 -0.037498 0.262768
v -0.086880 -0.037500 0.449188
v 0.010324 -0.037500 -0.744507
v 0.022886 -0.037498 0.269390
v 0.073732 -0.037498 -0.706203
v 0.073732 -0.037498 -0.706203
v 0.081867 -0.037500 0.314159
v 0.037985 -0.037500 -0.523624
v 0.046698 -0.037500 -0.447887
v 0.046698 -0.037500 -0.447887
v 0.068422 -0.037500 -0.622433
v 0.046768 -0.037498 0.539211
v 0.046768 -0.037498 0.539211
v 0.039717 -0.037500 0.475266
v 0.072859 -0.037500 0.390781
v 0.138588 -0.037498 -0.422825
v 0.138018 -0.037500 0.562210
v 0.276670 -0.037500 -0.434082
v 0.506134 -0.037500 0.525017
v 0.506134 -0.037500 0.525017
v 0.467279 -0.037500 0.331734
v 0.454903 -0.037498 0.215607
v 0.435741 -0.037500 -0.136169
v 0.455990 -0.037500 -0.053127
v 0.455990 -0.037500 -0.053127
v 0.453295 -0.037498 -0.263672
v 0.471298 -0.037500 0.138733
v 0.471298 -0.037500 0.138733
v 0.529930 -0.037498 -0.049038
v 0.529078 -0.037500 0.131817
v 0.506134 -0.037500 -0.476894
v 0.506134 -0.037500 -0.476894
v 0.609636 -0.037500 0.154831
v 0.628613 -0.037500 -0.080471
v 0.686556 -0.037500 0.150078
v 0.711878 -0.037500 -0.084518
v 0.711878 -0.037500 -0.084518
v 0.736399 -0.037500 0.079227
v 0.747673 -0.037500 -0.018501
vt 0.500000 0.500000
vt 0.500000 0.500000
vt 0.500000 0.500000
vt 0.500000 0.500000
vt 0.500000 0.500000
vt 0.500000 0.500000
vt 0.500000 0.500000
vt 0.500000 0.500000
vt 0.500000 0.500000
vt 0.500000 0.500000
vt 0.500000 0.500000
vt 0.500000 0.500000
vt 0.500000 0.500000
vt 0.500000 0.500000
vt 0.500000 0.500000
vt 0.500000 0.500000
vt 0.500000 0.500000
vt 0.500000 0.500000
vt 0.500000 0.500000
vt 0.500000 0.500000
vt 0.500000 0.500000
vt 0.500000 0.500000
vt 0.500000 0.500000
vt 0.500000 0.500000
vt 0.500000 0.500000
vt 0.500000 0.500000
vt 0.500000 0.500000
vt 0.500000 0.500000
vt 0.500000 0.500000
vt 0.500000 0.500000
vt 0.500000 0.500000
vt 0.500000 0.500000
vt 0.500000 0.500000
vt 0.500000 0.500000
vt 0.500000 0.500000
vt 0.500000 0.500000
vt 0.500000 0.500000
vt 0.500000 0.500000
vt 0.500000 0.500000
vt 0.500000 0.500000
vt 0.500000 0.500000
vt 0.500000 0.500000
vt 0.500000 0.500000
vt 0.500000 0.500000
vt 0.500000 0.500000
vt 0.500000 0.500000
vt 0.500000 0.500000
vt 0.500000 0.500000
vt 0.500000 0.500000
vt 0.500000 0.500000
vt 0.500000 0.500000
vt 0.500000 0.500000
vt 0.500000 0.500000
vt 0.500000 0.500000
vt 0.500000 0.500000
vt 0.500000 0.500000
vt 0.500000 0.500000
vt 0.500000 0.500000
vt 0.500000 0.500000
vt 0.500000 0.500000
vt 0.500000 0.500000
vt 0.500000 0.500000
vt 0.500000 0.500000
vt 0.500000 0.500000
vt 0.500000 0.500000
vt 0.500000 0.500000
vt 0.500000 0.500000
vt 0.500000 0.500000
vt 0.500000 0.500000
vt 0.500000 0.500000
vt 0.500000 0.500000
vt 0.500000 0.500000
vt 0.500000 0.500000
vt 0.500000 0.500000
vt 0.500000 0.500000
vt 0.500000 0.500000
vt 0.500000 0.500000
vt 0.500000 0.500000
vt 0.500000 0.500000
vt 0.500000 0.500000
vt 0.500000 0.500000
vt 0.500000 0.500000
vt 0.500000 0.500000
vt 0.500000 0.500000
vt 0.500000 0.500000
vt 0.500000 0.500000
vt 0.500000 0.500000
vt 0.500000 0.500000
vt 0.500000 0.500000
vt 0.500000 0.500000
vt 0.500000 0.500000
vt 0.500000 0.500000
vt 0.500000 0.500000
vt 0.500000 0.500000
vt 0.500000 0.500000
vt 0.500000 0.500000
vt 0.500000 0.500000
vt 0.500000 0.500000
vt 0.500000 0.500000
vt 0.500000 0.500000
vt 0.500000 0.500000
vt 0.500000 0.500000
vt 0.500000 0.500000
vt 0.500000 0.500000
vt 0.500000 0.500000
vt 0.500000 0.500000
vt 0.500000 0.500000
vt 0.500000 0.500000
vt 0.500000 0.500000
vt 0.500000 0.500000
vt 0.500000 0.500000
vt 0.500000 0.500000
vt 0.500000 0.500000
vt 0.500000 0.500000
vt 0.500000 0.500000
vt 0.500000 0.500000
vt 0.500000 0.500000
vt 0.500000 0.500000
vt 0.500000 0.500000
vt 0.500000 0.500000
vt 0.500000 0.500000
vt 0.500000 0.500000
vt 0.500000 0.500000
vt 0.500000 0.500000
vt 0.500000 0.500000
vt 0.500000 0.500000
vt 0.500000 0.500000
vt 0.500000 0.500000
vt 0.500000 0.500000
vt 0.500000 0.500000
vt 0.500000 0.500000
vt 0.500000 0.500000
vt 0.500000 0.500000
vt 0.500000 0.500000
vt 0.500000 0.500000
vt 0.500000 0.500000
vt 0.500000 0.500000
vt 0.500000 0.500000
vt 0.500000 0.500000
vt 0.500000 0.500000
vt 0.500000 0.500000
vt 0.500000 0.500000
vt 0.500000 0.500000
vt 0.500000 0.500000
vt 0.500000 0.500000
vt 0.500000 0.500000
vt 0.500000 0.500000
vt 0.500000 0.500000
vt 0.500000 0.500000
vt 0.500000 0.500000
vt 0.500000 0.500000
vt 0.500000 0.500000
vt 0.500000 0.500000
vt 0.500000 0.500000
vt 0.500000 0.500000
vt 0.500000 0.500000
vt 0.500000 0.500000
vt 0.500000 0.500000
vt 0.500000 0.500000
vt 0.500000 0.500000
vt 0.500000 0.500000
vt 0.500000 0.500000
vt 0.500000 0.500000
vt 0.500000 0.500000
vt 0.500000 0.500000
vt 0.500000 0.500000
vt 0.500000 0.500000
vt 0.500000 0.500000
vt 0.500000 0.500000
vt 0.500000 0.500000
vt 0.500000 0.500000
vt 0.500000 0.500000
vt 0.500000 0.500000
vt 0.500000 0.500000
vt 0.500000 0.500000
vt 0.500000 0.500000
vt 0.500000 0.500000
vt 0.500000 0.500000
vt 0.500000 0.500000
vt 0.500000 0.500000
vt 0.500000 0.500000
vt 0.500000 0.500000
vt 0.500000 0.500000
vt 0.500000 0.500000
vt 0.500000 0.500000
vt 0.500000 0.500000
vt 0.500000 0.500000
vt 0.500000 0.500000
vt 0.500000 0.500000
vt 0.500000 0.500000
vt 0.500000 0.500000
vt 0.500000 0.500000
vt 0.500000 0.500000
vt 0.500000 0.500000
vt 0.500000 0.500000
vt 0.500000 0.500000
vt 0.500000 0.500000
vt 0.500000 0.500000
vt 0.500000 0.500000
vt 0.500000 0.500000
vt 0.500000 0.500000
vt 0.500000 0.500000
vt 0.500000 0.500000
vt 0.500000 0.500000
vt 0.500000 0.500000
vt 0.500000 0.500000
vt 0.500000 0.500000
vt 0.500000 0.500000
vt 0.500000 0.500000
vt 0.500000 0.500000
vt 0.500000 0.500000
vt 0.495192 0.652890
vt 0.494210 0.652776
vt 0.495786 0.650529
vt 0.491234 0.641200
vt 0.491963 0.641324
vt 0.491725 0.647742
vt 0.493599 0.630274
vt 0.495594 0.630557
vt 0.492241 0.638563
vt 0.489375 0.644352
vt 0.493528 0.651958
vt 0.493559 0.650643
vt 0.496458 0.630931
vt 0.499555 0.633872
vt 0.499438 0.636424
vt 0.499828 0.642233
vt 0.499820 0.644434
vt 0.497726 0.647164
vt 0.489197 0.636435
vt 0.491593 0.630348
vt 0.490979 0.637640
vt 0.490372 0.640593
vt 0.489381 0.642089
vt 0.495441 0.648643
vt 0.493874 0.649223
vt 0.496367 0.646842
vt 0.495482 0.647235
vt 0.492310 0.640208
vt 0.501513 0.637722
vt 0.502782 0.638796
vt 0.502711 0.640514
vt 0.493004 0.647703
vt 0.489680 0.640630
vt 0.493836 0.648138
vt 0.500486 0.638284
vt 0.500717 0.640877
vt 0.500096 0.640845
vt 0.499698 0.638123
vt 0.489583 0.629630
vt 0.492800 0.630577
vt 0.491776 0.637473
vt 0.497783 0.630606
vt 0.500000 0.629630
vt 0.493671 0.629206
vt 0.493432 0.627716
vt 0.495552 0.629190
vt 0.502252 0.641671
vt 0.501516 0.641535
vt 0.502384 0.637623
vt 0.495853 0.652144
vt 0.490101 0.638252
vt 0.495878 0.627365
vt 0.489583 0.648148
vt 0.494218 0.625373
vt 0.495234 0.625164
vt 0.495921 0.625826
vt 0.500000 0.648148
vt 0.489436 0.638122
vt 0.493481 0.626294
vn 0.0000 -1.0000 0.0000
vn 0.0001 -1.0000 -0.0000
vn -0.9979 0.0000 0.0654
vn -0.8442 0.0000 -0.5360
vn -0.8291 0.0000 0.5592
vn 0.0734 0.0000 -0.9973
vn 0.0415 0.0000 0.9991
vn 0.3672 0.0000 0.9302
vn 0.3094 0.0000 -0.9509
vn -0.0619 0.0000 0.9981
vn -0.0519 0.0000 -0.9987
vn -0.9594 0.0000 0.2819
vn -0.9944 0.0000 -0.1060
vn -0.9999 0.0000 -0.0171
vn -0.9716 0.0000 0.2365
vn -0.9702 0.0000 -0.2422
vn -0.9912 0.0000 0.1321
vn 0.0861 0.0000 -0.9963
vn -0.0971 0.0000 0.9953
vn -0.0069 0.0000 -1.0000
vn 0.0049 0.0000 1.0000
vn -0.3249 0.0000 -0.9457
vn 0.3422 0.0000 0.9396
vn 0.9954 0.0000 -0.0957
vn -0.9947 0.0000 0.1032
vn -0.5760 0.0000 -0.8174
vn -0.9075 0.0000 0.4200
vn 0.4839 0.0000 0.8751
vn 0.9995 0.0000 0.0303
vn 0.9297 0.0000 -0.3683
vn -0.9996 0.0000 0.0294
vn -0.0738 0.0000 -0.9973
vn -0.0743 0.0000 0.9972
vn 0.5171 0.0000 -0.8559
vn -0.6046 0.0000 0.7965
vn 0.9934 0.0000 -0.1143
vn 0.9557 0.0000 0.2944
vn 0.9980 0.0000 0.0633
vn -0.9940 0.0000 0.1096
vn -0.9309 0.0000 -0.3652
vn 0.2631 0.0000 -0.9648
vn -0.2444 0.0000 0.9697
vn -0.9932 0.0000 -0.1168
vn -0.0813 0.0000 -0.9967
vn 0.1005 0.0000 0.9949
vn 0.9804 0.0000 -0.1971
vn 0.9944 0.0000 -0.1060
vn 0.9715 0.0000 -0.2369
vn 0.9907 0.0000 0.1364
vn 0.9780 0.0000 0.2086
vn 0.0552 0.0000 -0.9985
vn 0.1188 0.0000 0.9929
vn 0.9706 0.0000 0.2405
vn -0.1834 0.0000 -0.9830
vn -0.2747 0.0000 0.9615
vn -0.3035 0.0000 -0.9528
vn 0.0617 0.0000 0.9981
vn -0.0486 0.0000 -0.9988
vn 0.8179 0.0000 0.5754
vn 0.9934 0.0000 0.1146
vn 0.8791 0.0000 -0.4767
vn 0.0000 1.0000 0.0000
usemtl BackMat.001
s off
f 196/1/1 200/2/1 195/3/1
f 226/4/1 211/5/1 224/6/1
f 258/7/1 235/8/1 255/9/1
f 211/5/1 226/4/1 217/10/1
f 195/3/1 201/11/1 199/12/1
f 254/13/1 247/14/1 249/15/1
f 218/16/1 212/17/1 216/18/1
f 248/19/1 246/20/1 252/21/1
f 233/22/1 219/23/1 226/4/1
f 203/24/1 202/25/1 200/2/1
f 215/26/1 232/27/1 206/28/1
f 242/29/1 230/30/1 234/31/1
f 224/6/1 208/32/1 206/28/1
f 222/33/1 219/23/1 233/22/1
f 206/28/1 204/34/1 203/24/1
f 239/35/1 231/36/1 242/29/1
f 220/37/1 231/36/1 239/35/1
f 208/32/1 204/34/1 206/28/1
f 235/8/1 232/27/1 247/14/1
f 240/38/1 215/26/1 218/16/1
f 248/19/1 252/21/1 250/39/1
f 253/40/1 238/41/1 258/7/1
f 254/13/1 235/8/1 247/14/1
f 202/25/1 201/11/1 200/2/1
f 204/34/1 202/25/1 203/24/1
f 247/14/1 232/27/1 240/38/1
f 208/32/1 224/6/1 211/5/1
f 257/42/1 249/15/1 262/43/1
f 254/13/1 249/15/1 257/42/1
f 258/7/1 238/41/1 235/8/1
f 255/9/1 235/8/1 254/13/1
f 261/44/1 260/45/1 264/46/1
f 230/30/1 227/47/1 228/48/1
f 231/36/1 227/47/1 242/29/1
f 261/44/1 258/7/1 260/45/1
f 242/29/2 234/31/2 236/49/2
f 240/38/1 220/37/1 239/35/1
f 224/6/1 206/28/1 232/27/1
f 260/45/1 258/7/1 255/9/1
f 200/2/1 196/1/1 197/50/1
f 246/20/1 248/19/1 245/51/1
f 252/21/1 246/20/1 238/41/1
f 265/52/1 264/46/1 260/45/1
f 211/5/1 217/10/1 209/53/1
f 252/21/1 238/41/1 253/40/1
f 232/27/1 215/26/1 240/38/1
f 215/26/1 212/17/1 218/16/1
f 230/30/1 242/29/1 227/47/1
f 217/10/1 226/4/1 219/23/1
f 269/54/1 265/52/1 270/55/1
f 240/38/1 218/16/1 220/37/1
f 270/55/1 265/52/1 267/56/1
f 216/18/1 212/17/1 213/57/1
f 245/51/1 248/19/1 243/58/1
f 266/59/1 264/46/1 269/54/1
f 195/3/1 200/2/1 201/11/1
f 264/46/1 265/52/1 269/54/1
f 51/60/3 52/61/3 111/62/3 110/63/3
f 52/61/4 122/64/4 198/65/4 111/62/4
f 50/66/5 51/60/5 110/63/5 109/67/5
f 53/68/6 54/69/6 113/70/6 112/71/6
f 49/72/7 50/66/7 109/67/7 108/73/7
f 48/74/8 49/72/8 108/73/8 107/75/8
f 54/69/9 55/76/9 114/77/9 113/70/9
f 129/78/10 48/74/10 107/75/10 205/79/10
f 55/76/11 131/80/11 207/81/11 114/77/11
f 46/82/12 47/83/12 106/84/12 105/85/12
f 134/86/13 45/87/13 104/88/13 210/89/13
f 45/87/14 46/82/14 105/85/14 104/88/14
f 58/90/15 138/91/15 214/92/15 117/93/15
f 56/94/16 57/95/16 116/96/16 115/97/16
f 57/95/17 58/90/17 117/93/17 116/96/17
f 59/98/18 1/99/18 60/100/18 118/101/18
f 43/102/19 44/103/19 103/104/19 102/105/19
f 1/99/20 2/106/20 61/107/20 60/100/20
f 42/108/21 43/102/21 102/105/21 101/109/21
f 2/106/22 145/110/22 221/111/22 61/107/22
f 147/112/23 42/108/23 101/109/23 223/113/23
f 149/114/24 39/115/24 98/116/24 225/117/24
f 5/118/25 153/119/25 229/120/25 64/121/25
f 6/122/26 7/123/26 66/124/26 65/125/26
f 4/126/27 5/118/27 64/121/27 63/127/27
f 37/128/28 38/129/28 97/130/28 96/131/28
f 40/132/29 41/133/29 100/134/29 99/135/29
f 39/115/30 40/132/30 99/135/30 98/116/30
f 3/136/31 4/126/31 63/127/31 62/137/31
f 7/123/32 8/138/32 67/139/32 66/124/32
f 36/140/33 37/128/33 96/131/33 95/141/33
f 8/138/34 161/142/34 237/143/34 67/139/34
f 35/144/35 36/140/35 95/141/35 94/145/35
f 11/146/36 165/147/36 241/148/36 70/149/36
f 10/150/37 11/146/37 70/149/37 69/151/37
f 9/152/38 10/150/38 69/151/38 68/153/38
f 168/154/39 33/155/39 92/156/39 244/157/39
f 33/155/40 34/158/40 93/159/40 92/156/40
f 12/160/41 13/161/41 72/162/41 71/163/41
f 31/164/42 32/165/42 91/166/42 90/167/42
f 34/158/43 35/144/43 94/145/43 93/159/43
f 13/161/44 14/168/44 73/169/44 72/162/44
f 175/170/45 31/164/45 90/167/45 251/171/45
f 29/172/46 30/173/46 89/174/46 88/175/46
f 28/176/47 29/172/47 88/175/47 87/177/47
f 17/178/48 180/179/48 256/180/48 76/181/48
f 16/182/49 17/178/49 76/181/49 75/183/49
f 183/184/50 28/176/50 87/177/50 259/185/50
f 18/186/51 19/187/51 78/188/51 77/189/51
f 26/190/52 27/191/52 86/192/52 85/193/52
f 187/194/53 16/182/53 75/183/53 263/195/53
f 14/168/54 15/196/54 74/197/54 73/169/54
f 25/198/55 26/190/55 85/193/55 84/199/55
f 19/187/56 20/200/56 79/201/56 78/188/56
f 24/202/57 25/198/57 84/199/57 83/203/57
f 20/200/58 192/204/58 268/205/58 79/201/58
f 23/206/59 24/202/59 83/203/59 82/207/59
f 22/208/60 23/206/60 82/207/60 81/209/60
f 21/210/61 22/208/61 81/209/61 80/211/61
usemtl FrontMat.001
f 120/212/62 119/213/62 124/214/62
f 150/215/62 148/216/62 135/217/62
f 182/218/62 179/219/62 159/220/62
f 135/217/62 141/221/62 150/215/62
f 119/213/62 123/222/62 125/223/62
f 178/224/62 173/225/62 171/226/62
f 142/227/62 140/228/62 136/229/62
f 172/230/62 176/231/62 170/232/62
f 157/233/62 150/215/62 143/234/62
f 127/235/62 124/214/62 126/236/62
f 139/237/62 130/238/62 156/239/62
f 166/240/62 158/241/62 154/242/62
f 148/216/62 130/238/62 132/243/62
f 146/244/62 157/233/62 143/234/62
f 130/238/62 127/235/62 128/245/62
f 163/246/62 166/240/62 155/247/62
f 144/248/62 163/246/62 155/247/62
f 132/243/62 130/238/62 128/245/62
f 159/220/62 171/226/62 156/239/62
f 164/249/62 142/227/62 139/237/62
f 172/230/62 174/250/62 176/231/62
f 177/251/62 182/218/62 162/252/62
f 178/224/62 171/226/62 159/220/62
f 126/236/62 124/214/62 125/223/62
f 128/245/62 127/235/62 126/236/62
f 171/226/62 164/249/62 156/239/62
f 132/243/62 135/217/62 148/216/62
f 181/253/62 186/254/62 173/225/62
f 178/224/62 181/253/62 173/225/62
f 182/218/62 159/220/62 162/252/62
f 179/219/62 178/224/62 159/220/62
f 185/255/62 188/256/62 184/257/62
f 154/242/62 152/258/62 151/259/62
f 155/247/62 166/240/62 151/259/62
f 185/255/62 184/257/62 182/218/62
f 166/240/62 160/260/62 158/241/62
f 164/249/62 163/246/62 144/248/62
f 148/216/62 156/239/62 130/238/62
f 184/257/62 179/219/62 182/218/62
f 124/214/62 121/261/62 120/212/62
f 170/232/62 169/262/62 172/230/62
f 176/231/62 162/252/62 170/232/62
f 189/263/62 184/257/62 188/256/62
f 135/217/62 133/264/62 141/221/62
f 176/231/62 177/251/62 162/252/62
f 156/239/62 164/249/62 139/237/62
f 139/237/62 142/227/62 136/229/62
f 154/242/62 151/259/62 166/240/62
f 141/221/62 143/234/62 150/215/62
f 193/265/62 194/266/62 189/263/62
f 164/249/62 144/248/62 142/227/62
f 194/266/62 191/267/62 189/263/62
f 140/228/62 137/268/62 136/229/62
f 169/262/62 167/269/62 172/230/62
f 190/270/62 193/265/62 188/256/62
f 119/213/62 125/223/62 124/214/62
f 188/256/62 193/265/62 189/263/62
