# Blender v2.83.1 OBJ File: 'jigsaw-96x54-3-step2.blend'
# www.blender.org
mtllib piece.4037.mtl
o path8074
v -0.537346 0.037500 0.294865
v -0.545239 0.037500 0.172165
v -0.518752 0.037500 0.092213
v -0.444782 0.037500 0.088238
v -0.349727 0.037500 0.118740
v -0.269853 0.037500 0.123528
v -0.234474 0.037500 0.062202
v -0.245073 0.037500 -0.026516
v -0.296181 0.037500 -0.084133
v -0.378354 0.037500 -0.072769
v -0.466274 0.037500 -0.037010
v -0.530652 0.037500 -0.042061
v -0.550690 0.037500 -0.132553
v -0.500697 0.037500 -0.501675
v -0.275206 0.037500 -0.535473
v -0.139925 0.037500 -0.542484
v -0.050817 0.037500 -0.517281
v -0.044364 0.037500 -0.447636
v -0.076393 0.037500 -0.358189
v -0.082565 0.037500 -0.282795
v -0.019329 0.037500 -0.248596
v 0.073721 0.037500 -0.255863
v 0.136205 0.037500 -0.298164
v 0.128319 0.037500 -0.366329
v 0.092567 0.037500 -0.440334
v 0.092030 0.037500 -0.497437
v 0.170379 0.037500 -0.521221
v 0.501213 0.037500 -0.501675
v 0.536584 0.037500 -0.278229
v 0.545373 0.037500 -0.144528
v 0.523214 0.037500 -0.057255
v 0.457613 0.037500 -0.052525
v 0.370193 0.037500 -0.085014
v 0.291110 0.037500 -0.089035
v 0.246043 0.037500 -0.020474
v 0.242766 0.037500 0.078499
v 0.284577 0.037500 0.144131
v 0.368207 0.037500 0.134357
v 0.464132 0.037500 0.093853
v 0.536261 0.037500 0.088970
v 0.558617 0.037500 0.165852
v 0.545675 0.037500 0.289829
v 0.501213 0.037500 0.500023
v 0.305250 0.037500 0.549728
v 0.188333 0.037500 0.566143
v 0.112781 0.037500 0.546825
v 0.110079 0.037500 0.476727
v 0.138211 0.037500 0.382984
v 0.136780 0.037500 0.303272
v 0.065533 0.037500 0.267578
v -0.035221 0.037500 0.275082
v -0.105034 0.037500 0.317276
v -0.104015 0.037500 0.383434
v -0.074511 0.037500 0.453945
v -0.079427 0.037500 0.506969
v -0.162278 0.037500 0.526905
v -0.500697 0.037500 0.500023
v -0.537346 -0.037500 0.294865
v -0.545239 -0.037500 0.172165
v -0.518752 -0.037498 0.092213
v -0.444782 -0.037500 0.088238
v -0.349727 -0.037500 0.118740
v -0.269853 -0.037500 0.123528
v -0.234474 -0.037500 0.062202
v -0.245073 -0.037500 -0.026516
v -0.296181 -0.037500 -0.084133
v -0.378354 -0.037500 -0.072769
v -0.466274 -0.037500 -0.037010
v -0.530652 -0.037500 -0.042061
v -0.550690 -0.037500 -0.132553
v -0.500697 -0.037498 -0.501675
v -0.275206 -0.037500 -0.535473
v -0.139925 -0.037498 -0.542484
v -0.050817 -0.037500 -0.517281
v -0.044364 -0.037500 -0.447636
v -0.076393 -0.037500 -0.358189
v -0.082565 -0.037500 -0.282795
v -0.019329 -0.037500 -0.248596
v 0.073721 -0.037500 -0.255863
v 0.136205 -0.037500 -0.298164
v 0.128319 -0.037500 -0.366329
v 0.092567 -0.037500 -0.440334
v 0.092030 -0.037498 -0.497437
v 0.170379 -0.037500 -0.521221
v 0.501213 -0.037500 -0.501675
v 0.536584 -0.037498 -0.278229
v 0.545373 -0.037500 -0.144528
v 0.523214 -0.037500 -0.057255
v 0.457613 -0.037500 -0.052525
v 0.370193 -0.037500 -0.085014
v 0.291110 -0.037500 -0.089035
v 0.246043 -0.037498 -0.020474
v 0.242766 -0.037498 0.078499
v 0.284577 -0.037500 0.144131
v 0.368207 -0.037500 0.134357
v 0.464132 -0.037500 0.093853
v 0.536261 -0.037500 0.088970
v 0.558617 -0.037500 0.165852
v 0.545675 -0.037500 0.289829
v 0.501213 -0.037500 0.500023
v 0.305250 -0.037500 0.549728
v 0.188333 -0.037500 0.566143
v 0.112781 -0.037498 0.546825
v 0.110079 -0.037500 0.476727
v 0.138211 -0.037500 0.382984
v 0.136780 -0.037500 0.303272
v 0.065533 -0.037500 0.267578
v -0.035221 -0.037500 0.275082
v -0.105034 -0.037500 0.317276
v -0.104015 -0.037500 0.383434
v -0.074511 -0.037500 0.453945
v -0.079427 -0.037498 0.506969
v -0.162278 -0.037500 0.526905
v -0.500697 -0.037500 0.500023
v 0.305250 0.037500 0.549728
v 0.188333 0.037500 0.566143
v 0.112781 0.037500 0.546825
v 0.112781 0.037500 0.546825
v 0.110079 0.037500 0.476727
v -0.079427 0.037500 0.506969
v -0.079427 0.037500 0.506969
v -0.162278 0.037500 0.526905
v 0.501213 0.037500 0.500023
v 0.501213 0.037500 0.500023
v -0.074511 0.037500 0.453945
v -0.500697 0.037500 0.500023
v -0.500697 0.037500 0.500023
v 0.138211 0.037500 0.382984
v -0.104015 0.037500 0.383434
v -0.537346 0.037500 0.294865
v 0.545675 0.037500 0.289829
v -0.105034 0.037500 0.317276
v 0.136780 0.037500 0.303272
v 0.136780 0.037500 0.303272
v -0.035221 0.037500 0.275082
v 0.065533 0.037500 0.267578
v -0.545239 0.037500 0.172165
v 0.558617 0.037500 0.165852
v -0.349727 0.037500 0.118740
v -0.269853 0.037500 0.123528
v -0.269853 0.037500 0.123528
v -0.518752 0.037500 0.092213
v -0.518752 0.037500 0.092213
v 0.536261 0.037500 0.088970
v 0.536261 0.037500 0.088970
v 0.284577 0.037500 0.144131
v 0.284577 0.037500 0.144131
v 0.368207 0.037500 0.134357
v 0.242766 0.037500 0.078499
v 0.464132 0.037500 0.093853
v -0.234474 0.037500 0.062202
v -0.444782 0.037500 0.088238
v 0.246043 0.037500 -0.020474
v -0.245073 0.037500 -0.026516
v 0.291110 0.037500 -0.089035
v -0.296181 0.037500 -0.084133
v -0.378354 0.037500 -0.072769
v -0.466274 0.037500 -0.037010
v -0.530652 0.037500 -0.042061
v -0.530652 0.037500 -0.042061
v -0.550690 0.037500 -0.132553
v 0.523214 0.037500 -0.057255
v 0.523214 0.037500 -0.057255
v 0.457613 0.037500 -0.052525
v 0.370193 0.037500 -0.085014
v 0.545373 0.037500 -0.144528
v 0.536584 0.037500 -0.278229
v -0.019329 0.037500 -0.248596
v 0.073721 0.037500 -0.255863
v -0.082565 0.037500 -0.282795
v -0.082565 0.037500 -0.282795
v 0.136205 0.037500 -0.298164
v 0.136205 0.037500 -0.298164
v -0.076393 0.037500 -0.358189
v 0.128319 0.037500 -0.366329
v -0.044364 0.037500 -0.447636
v 0.092567 0.037500 -0.440334
v 0.501213 0.037500 -0.501675
v 0.501213 0.037500 -0.501675
v 0.092030 0.037500 -0.497437
v 0.092030 0.037500 -0.497437
v -0.050817 0.037500 -0.517281
v -0.050817 0.037500 -0.517281
v -0.500697 0.037500 -0.501675
v -0.500697 0.037500 -0.501675
v 0.170379 0.037500 -0.521221
v -0.139925 0.037500 -0.542484
v -0.275206 0.037500 -0.535473
v 0.305250 -0.037500 0.549728
v 0.188333 -0.037500 0.566143
v 0.112781 -0.037498 0.546825
v 0.112781 -0.037498 0.546825
v 0.110079 -0.037500 0.476727
v -0.079427 -0.037498 0.506969
v -0.079427 -0.037498 0.506969
v -0.162278 -0.037500 0.526905
v 0.501213 -0.037500 0.500023
v 0.501213 -0.037500 0.500023
v -0.074511 -0.037500 0.453945
v -0.500697 -0.037500 0.500023
v -0.500697 -0.037500 0.500023
v 0.138211 -0.037500 0.382984
v -0.104015 -0.037500 0.383434
v -0.537346 -0.037500 0.294865
v 0.545675 -0.037500 0.289829
v -0.105034 -0.037500 0.317276
v 0.136780 -0.037500 0.303272
v 0.136780 -0.037500 0.303272
v -0.035221 -0.037500 0.275082
v 0.065533 -0.037500 0.267578
v -0.545239 -0.037500 0.172165
v 0.558617 -0.037500 0.165852
v -0.349727 -0.037500 0.118740
v -0.269853 -0.037500 0.123528
v -0.269853 -0.037500 0.123528
v -0.518752 -0.037498 0.092213
v -0.518752 -0.037498 0.092213
v 0.536261 -0.037500 0.088970
v 0.536261 -0.037500 0.088970
v 0.284577 -0.037500 0.144131
v 0.284577 -0.037500 0.144131
v 0.368207 -0.037500 0.134357
v 0.242766 -0.037498 0.078499
v 0.464132 -0.037500 0.093853
v -0.234474 -0.037500 0.062202
v -0.444782 -0.037500 0.088238
v 0.246043 -0.037498 -0.020474
v -0.245073 -0.037500 -0.026516
v 0.291110 -0.037500 -0.089035
v -0.296181 -0.037500 -0.084133
v -0.378354 -0.037500 -0.072769
v -0.466274 -0.037500 -0.037010
v -0.530652 -0.037500 -0.042061
v -0.530652 -0.037500 -0.042061
v -0.550690 -0.037500 -0.132553
v 0.523214 -0.037500 -0.057255
v 0.523214 -0.037500 -0.057255
v 0.457613 -0.037500 -0.052525
v 0.370193 -0.037500 -0.085014
v 0.545373 -0.037500 -0.144528
v 0.536584 -0.037498 -0.278229
v -0.019329 -0.037500 -0.248596
v 0.073721 -0.037500 -0.255863
v -0.082565 -0.037500 -0.282795
v -0.082565 -0.037500 -0.282795
v 0.136205 -0.037500 -0.298164
v 0.136205 -0.037500 -0.298164
v -0.076393 -0.037500 -0.358189
v 0.128319 -0.037500 -0.366329
v -0.044364 -0.037500 -0.447636
v 0.092567 -0.037500 -0.440334
v 0.501213 -0.037500 -0.501675
v 0.501213 -0.037500 -0.501675
v 0.092030 -0.037498 -0.497437
v 0.092030 -0.037498 -0.497437
v -0.050817 -0.037500 -0.517281
v -0.050817 -0.037500 -0.517281
v -0.500697 -0.037498 -0.501675
v -0.500697 -0.037498 -0.501675
v 0.170379 -0.037500 -0.521221
v -0.139925 -0.037498 -0.542484
v -0.275206 -0.037500 -0.535473
vt 0.500000 0.500000
vt 0.500000 0.500000
vt 0.500000 0.500000
vt 0.500000 0.500000
vt 0.500000 0.500000
vt 0.500000 0.500000
vt 0.500000 0.500000
vt 0.500000 0.500000
vt 0.500000 0.500000
vt 0.500000 0.500000
vt 0.500000 0.500000
vt 0.500000 0.500000
vt 0.500000 0.500000
vt 0.500000 0.500000
vt 0.500000 0.500000
vt 0.500000 0.500000
vt 0.500000 0.500000
vt 0.500000 0.500000
vt 0.500000 0.500000
vt 0.500000 0.500000
vt 0.500000 0.500000
vt 0.500000 0.500000
vt 0.500000 0.500000
vt 0.500000 0.500000
vt 0.500000 0.500000
vt 0.500000 0.500000
vt 0.500000 0.500000
vt 0.500000 0.500000
vt 0.500000 0.500000
vt 0.500000 0.500000
vt 0.500000 0.500000
vt 0.500000 0.500000
vt 0.500000 0.500000
vt 0.500000 0.500000
vt 0.500000 0.500000
vt 0.500000 0.500000
vt 0.500000 0.500000
vt 0.500000 0.500000
vt 0.500000 0.500000
vt 0.500000 0.500000
vt 0.500000 0.500000
vt 0.500000 0.500000
vt 0.500000 0.500000
vt 0.500000 0.500000
vt 0.500000 0.500000
vt 0.500000 0.500000
vt 0.500000 0.500000
vt 0.500000 0.500000
vt 0.500000 0.500000
vt 0.500000 0.500000
vt 0.500000 0.500000
vt 0.500000 0.500000
vt 0.500000 0.500000
vt 0.500000 0.500000
vt 0.500000 0.500000
vt 0.500000 0.500000
vt 0.500000 0.500000
vt 0.500000 0.500000
vt 0.500000 0.500000
vt 0.500000 0.500000
vt 0.500000 0.500000
vt 0.500000 0.500000
vt 0.500000 0.500000
vt 0.500000 0.500000
vt 0.500000 0.500000
vt 0.500000 0.500000
vt 0.500000 0.500000
vt 0.500000 0.500000
vt 0.500000 0.500000
vt 0.500000 0.500000
vt 0.500000 0.500000
vt 0.500000 0.500000
vt 0.500000 0.500000
vt 0.500000 0.500000
vt 0.500000 0.500000
vt 0.500000 0.500000
vt 0.500000 0.500000
vt 0.500000 0.500000
vt 0.500000 0.500000
vt 0.500000 0.500000
vt 0.500000 0.500000
vt 0.500000 0.500000
vt 0.500000 0.500000
vt 0.500000 0.500000
vt 0.500000 0.500000
vt 0.500000 0.500000
vt 0.500000 0.500000
vt 0.500000 0.500000
vt 0.500000 0.500000
vt 0.500000 0.500000
vt 0.500000 0.500000
vt 0.500000 0.500000
vt 0.500000 0.500000
vt 0.500000 0.500000
vt 0.500000 0.500000
vt 0.500000 0.500000
vt 0.500000 0.500000
vt 0.500000 0.500000
vt 0.500000 0.500000
vt 0.500000 0.500000
vt 0.500000 0.500000
vt 0.500000 0.500000
vt 0.500000 0.500000
vt 0.500000 0.500000
vt 0.500000 0.500000
vt 0.500000 0.500000
vt 0.500000 0.500000
vt 0.500000 0.500000
vt 0.500000 0.500000
vt 0.500000 0.500000
vt 0.500000 0.500000
vt 0.500000 0.500000
vt 0.500000 0.500000
vt 0.500000 0.500000
vt 0.500000 0.500000
vt 0.500000 0.500000
vt 0.500000 0.500000
vt 0.500000 0.500000
vt 0.500000 0.500000
vt 0.500000 0.500000
vt 0.500000 0.500000
vt 0.500000 0.500000
vt 0.500000 0.500000
vt 0.500000 0.500000
vt 0.500000 0.500000
vt 0.500000 0.500000
vt 0.500000 0.500000
vt 0.500000 0.500000
vt 0.500000 0.500000
vt 0.500000 0.500000
vt 0.500000 0.500000
vt 0.500000 0.500000
vt 0.500000 0.500000
vt 0.500000 0.500000
vt 0.500000 0.500000
vt 0.500000 0.500000
vt 0.500000 0.500000
vt 0.500000 0.500000
vt 0.500000 0.500000
vt 0.500000 0.500000
vt 0.500000 0.500000
vt 0.500000 0.500000
vt 0.500000 0.500000
vt 0.500000 0.500000
vt 0.500000 0.500000
vt 0.500000 0.500000
vt 0.500000 0.500000
vt 0.500000 0.500000
vt 0.500000 0.500000
vt 0.500000 0.500000
vt 0.500000 0.500000
vt 0.500000 0.500000
vt 0.500000 0.500000
vt 0.500000 0.500000
vt 0.500000 0.500000
vt 0.500000 0.500000
vt 0.500000 0.500000
vt 0.500000 0.500000
vt 0.500000 0.500000
vt 0.500000 0.500000
vt 0.500000 0.500000
vt 0.500000 0.500000
vt 0.500000 0.500000
vt 0.500000 0.500000
vt 0.500000 0.500000
vt 0.500000 0.500000
vt 0.500000 0.500000
vt 0.500000 0.500000
vt 0.500000 0.500000
vt 0.500000 0.500000
vt 0.500000 0.500000
vt 0.500000 0.500000
vt 0.500000 0.500000
vt 0.500000 0.500000
vt 0.500000 0.500000
vt 0.500000 0.500000
vt 0.500000 0.500000
vt 0.500000 0.500000
vt 0.500000 0.500000
vt 0.500000 0.500000
vt 0.500000 0.500000
vt 0.500000 0.500000
vt 0.500000 0.500000
vt 0.500000 0.500000
vt 0.500000 0.500000
vt 0.500000 0.500000
vt 0.500000 0.500000
vt 0.500000 0.500000
vt 0.500000 0.500000
vt 0.500000 0.500000
vt 0.500000 0.500000
vt 0.500000 0.500000
vt 0.500000 0.500000
vt 0.500000 0.500000
vt 0.500000 0.500000
vt 0.500000 0.500000
vt 0.500000 0.500000
vt 0.500000 0.500000
vt 0.500000 0.500000
vt 0.500000 0.500000
vt 0.500000 0.500000
vt 0.500000 0.500000
vt 0.500000 0.500000
vt 0.500000 0.500000
vt 0.500000 0.500000
vt 0.045106 0.203342
vt 0.045915 0.204838
vt 0.045544 0.206206
vt 0.048332 0.202949
vt 0.049739 0.203079
vt 0.047672 0.206356
vt 0.047703 0.222351
vt 0.047652 0.221370
vt 0.048565 0.222719
vt 0.041208 0.210306
vt 0.041299 0.207835
vt 0.043029 0.211407
vt 0.047959 0.220067
vt 0.047970 0.218844
vt 0.052464 0.218429
vt 0.047736 0.207750
vt 0.049957 0.211423
vt 0.051502 0.214610
vt 0.052271 0.214683
vt 0.052546 0.216161
vt 0.041667 0.203704
vt 0.052083 0.203704
vt 0.050811 0.211633
vt 0.045733 0.221792
vt 0.045705 0.223087
vt 0.044920 0.223445
vt 0.044354 0.214429
vt 0.049315 0.214128
vt 0.046196 0.217925
vt 0.043919 0.215643
vt 0.043704 0.223141
vt 0.041204 0.218336
vt 0.045462 0.207466
vt 0.045441 0.220058
vt 0.045456 0.218585
vt 0.043050 0.215462
vt 0.042120 0.212007
vt 0.044320 0.212600
vt 0.043851 0.211332
vt 0.046111 0.208248
vt 0.047079 0.208382
vt 0.045921 0.203782
vt 0.047244 0.218064
vt 0.049683 0.215262
vt 0.050514 0.215173
vt 0.049426 0.212488
vt 0.041438 0.211920
vt 0.041302 0.214623
vt 0.042052 0.214713
vt 0.041070 0.216044
vt 0.052083 0.222222
vt 0.052603 0.210528
vt 0.052395 0.212201
vt 0.051725 0.212294
vt 0.047339 0.204703
vt 0.047406 0.203415
vt 0.041667 0.222222
vn 0.0000 -1.0000 -0.0000
vn 0.1390 0.0000 0.9903
vn -0.2477 0.0000 0.9688
vn -0.9993 0.0000 0.0385
vn 0.2339 0.0000 0.9723
vn 0.2459 0.0000 0.9693
vn 0.9957 0.0000 0.0923
vn -0.0792 0.0000 0.9969
vn -0.9578 0.0000 -0.2874
vn 0.9225 0.0000 -0.3860
vn -0.9844 0.0000 0.1759
vn 0.9784 0.0000 0.2070
vn 0.9999 0.0000 -0.0154
vn -0.9998 0.0000 0.0179
vn 0.5173 0.0000 0.8558
vn -0.4479 0.0000 0.8941
vn -0.9979 0.0000 0.0642
vn 0.9946 0.0000 0.1038
vn 0.0743 0.0000 0.9972
vn 0.0598 0.0000 -0.9982
vn -0.9493 0.0000 -0.3145
vn 0.9602 0.0000 -0.2792
vn -0.1161 0.0000 -0.9932
vn 0.8434 0.0000 -0.5373
vn -0.0675 0.0000 -0.9977
vn -0.3890 0.0000 -0.9212
vn -0.8662 0.0000 -0.4997
vn 0.3055 0.0000 -0.9522
vn -0.0537 0.0000 -0.9986
vn 0.9995 0.0000 0.0331
vn -0.9929 0.0000 0.1186
vn 0.8356 0.0000 0.5493
vn -0.7481 0.0000 0.6636
vn 0.3768 0.0000 0.9263
vn -0.0782 0.0000 0.9969
vn -0.9763 0.0000 0.2162
vn 0.0719 0.0000 0.9974
vn -0.3484 0.0000 0.9374
vn 0.9692 0.0000 0.2461
vn 0.1370 0.0000 0.9906
vn -0.0508 0.0000 0.9987
vn 0.9978 0.0000 -0.0656
vn -0.0779 0.0000 -0.9970
vn 0.4757 0.0000 -0.8796
vn -0.5606 0.0000 -0.8281
vn 0.9967 0.0000 0.0816
vn -0.9934 0.0000 0.1149
vn 0.9415 0.0000 0.3371
vn -0.9004 0.0000 0.4350
vn 0.9877 0.0000 -0.1564
vn -1.0000 0.0000 0.0094
vn 0.9957 0.0000 -0.0923
vn -0.9910 0.0000 -0.1342
vn -0.2905 0.0000 -0.9569
vn 0.0590 0.0000 -0.9983
vn 0.2722 0.0000 -0.9623
vn -0.0518 0.0000 -0.9987
vn -0.1482 0.0000 -0.9890
vn 0.0000 1.0000 0.0000
usemtl BackMat.001
s off
f 260/1/1 249/2/1 251/3/1
f 261/4/1 248/5/1 262/6/1
f 194/7/1 196/8/1 199/9/1
f 240/10/1 239/11/1 241/12/1
f 203/13/1 204/14/1 206/15/1
f 244/16/1 230/17/1 262/6/1
f 226/18/1 211/19/1 216/20/1
f 241/12/1 249/2/1 252/21/1
f 258/22/1 230/17/1 231/23/1
f 193/24/1 190/25/1 191/26/1
f 223/27/1 210/28/1 225/29/1
f 220/30/1 205/31/1 189/32/1
f 248/5/1 244/16/1 262/6/1
f 241/12/1 246/33/1 249/2/1
f 202/34/1 207/35/1 220/30/1
f 223/27/1 207/35/1 210/28/1
f 222/36/1 205/31/1 220/30/1
f 239/11/1 240/10/1 238/37/1
f 262/6/1 230/17/1 258/22/1
f 227/38/1 243/39/1 229/40/1
f 220/30/1 207/35/1 223/27/1
f 227/38/1 242/41/1 243/39/1
f 260/1/1 251/3/1 254/42/1
f 206/15/1 214/43/1 209/44/1
f 206/15/1 204/14/1 213/45/1
f 230/17/1 244/16/1 228/46/1
f 238/37/1 240/10/1 236/47/1
f 252/21/1 249/2/1 260/1/1
f 206/15/1 213/45/1 214/43/1
f 225/29/1 209/44/1 214/43/1
f 211/19/1 213/45/1 204/14/1
f 199/9/1 196/8/1 203/13/1
f 223/27/1 225/29/1 227/38/1
f 227/38/1 225/29/1 242/41/1
f 218/48/1 212/49/1 224/50/1
f 204/14/1 203/13/1 200/51/1
f 229/40/1 241/12/1 239/11/1
f 202/34/1 190/25/1 193/24/1
f 224/50/1 212/49/1 222/36/1
f 209/44/1 225/29/1 210/28/1
f 213/45/1 211/19/1 226/18/1
f 212/49/1 205/31/1 222/36/1
f 258/22/1 231/23/1 235/52/1
f 235/52/1 232/53/1 233/54/1
f 200/51/1 203/13/1 196/8/1
f 229/40/1 243/39/1 246/33/1
f 225/29/1 228/46/1 242/41/1
f 250/55/1 261/4/1 256/56/1
f 231/23/1 232/53/1 235/52/1
f 197/57/1 189/32/1 205/31/1
f 190/25/1 202/34/1 189/32/1
f 189/32/1 202/34/1 220/30/1
f 242/41/1 228/46/1 244/16/1
f 241/12/1 229/40/1 246/33/1
f 248/5/1 261/4/1 250/55/1
f 44/58/2 45/59/2 102/60/2 101/61/2
f 45/59/3 118/62/3 192/63/3 102/60/3
f 46/64/4 47/65/4 104/66/4 103/67/4
f 121/68/5 56/69/5 113/70/5 195/71/5
f 124/72/6 44/58/6 101/61/6 198/73/6
f 54/74/7 55/75/7 112/76/7 111/77/7
f 56/69/8 127/78/8 201/79/8 113/70/8
f 47/65/9 48/80/9 105/81/9 104/66/9
f 53/82/10 54/74/10 111/77/10 110/83/10
f 57/84/11 1/85/11 58/86/11 114/87/11
f 42/88/12 43/89/12 100/90/12 99/91/12
f 52/92/13 53/82/13 110/83/13 109/93/13
f 48/80/14 134/94/14 208/95/14 105/81/14
f 51/96/15 52/92/15 109/93/15 108/97/15
f 49/98/16 50/99/16 107/100/16 106/101/16
f 1/85/17 2/102/17 59/103/17 58/86/17
f 41/104/18 42/88/18 99/91/18 98/105/18
f 50/99/19 51/96/19 108/97/19 107/100/19
f 5/106/20 141/107/20 215/108/20 62/109/20
f 2/102/21 143/110/21 217/111/21 59/103/21
f 145/112/22 41/104/22 98/105/22 219/113/22
f 147/114/23 38/115/23 95/116/23 221/117/23
f 36/118/24 37/119/24 94/120/24 93/121/24
f 39/122/25 40/123/25 97/124/25 96/125/25
f 38/115/26 39/122/26 96/125/26 95/116/26
f 6/126/27 7/127/27 64/128/27 63/129/27
f 4/130/28 5/106/28 62/109/28 61/131/28
f 3/132/29 4/130/29 61/131/29 60/133/29
f 35/134/30 36/118/30 93/121/30 92/135/30
f 7/127/31 8/136/31 65/137/31 64/128/31
f 34/138/32 35/134/32 92/135/32 91/139/32
f 8/136/33 9/140/33 66/141/33 65/137/33
f 10/142/34 11/143/34 68/144/34 67/145/34
f 11/143/35 160/146/35 234/147/35 68/144/35
f 12/148/36 13/149/36 70/150/36 69/151/36
f 163/152/37 32/153/37 89/154/37 237/155/37
f 32/153/38 33/156/38 90/157/38 89/154/38
f 30/158/39 31/159/39 88/160/39 87/161/39
f 9/140/40 10/142/40 67/145/40 66/141/40
f 33/156/41 34/138/41 91/139/41 90/157/41
f 29/162/42 30/158/42 87/161/42 86/163/42
f 21/164/43 22/165/43 79/166/43 78/167/43
f 171/168/44 21/164/44 78/167/44 245/169/44
f 22/165/45 173/170/45 247/171/45 79/166/45
f 19/172/46 20/173/46 77/174/46 76/175/46
f 23/176/47 24/177/47 81/178/47 80/179/47
f 18/180/48 19/172/48 76/175/48 75/181/48
f 24/177/49 25/182/49 82/183/49 81/178/49
f 179/184/50 29/162/50 86/163/50 253/185/50
f 25/182/51 181/186/51 255/187/51 82/183/51
f 183/188/52 18/180/52 75/181/52 257/189/52
f 13/149/53 185/190/53 259/191/53 70/150/53
f 26/192/54 27/193/54 84/194/54 83/195/54
f 27/193/55 28/196/55 85/197/55 84/194/55
f 16/198/56 17/199/56 74/200/56 73/201/56
f 15/202/57 16/198/57 73/201/57 72/203/57
f 14/204/58 15/202/58 72/203/58 71/205/58
usemtl FrontMat.001
f 186/206/59 177/207/59 175/208/59
f 187/209/59 188/210/59 174/211/59
f 120/212/59 125/213/59 122/214/59
f 166/215/59 167/216/59 165/217/59
f 129/218/59 132/219/59 130/220/59
f 170/221/59 188/210/59 156/222/59
f 152/223/59 142/224/59 137/225/59
f 167/216/59 178/226/59 175/208/59
f 184/227/59 157/228/59 156/222/59
f 119/229/59 117/230/59 116/231/59
f 149/232/59 151/233/59 136/234/59
f 146/235/59 115/236/59 131/237/59
f 174/211/59 188/210/59 170/221/59
f 167/216/59 175/208/59 172/238/59
f 128/239/59 146/235/59 133/240/59
f 149/232/59 136/234/59 133/240/59
f 148/241/59 146/235/59 131/237/59
f 165/217/59 164/242/59 166/215/59
f 188/210/59 184/227/59 156/222/59
f 153/243/59 155/244/59 169/245/59
f 146/235/59 149/232/59 133/240/59
f 153/243/59 169/245/59 168/246/59
f 186/206/59 180/247/59 177/207/59
f 132/219/59 135/248/59 140/249/59
f 132/219/59 139/250/59 130/220/59
f 156/222/59 154/251/59 170/221/59
f 164/242/59 162/252/59 166/215/59
f 178/226/59 186/206/59 175/208/59
f 132/219/59 140/249/59 139/250/59
f 151/233/59 140/249/59 135/248/59
f 137/225/59 130/220/59 139/250/59
f 125/213/59 129/218/59 122/214/59
f 149/232/59 153/243/59 151/233/59
f 153/243/59 168/246/59 151/233/59
f 144/253/59 150/254/59 138/255/59
f 130/220/59 126/256/59 129/218/59
f 155/244/59 165/217/59 167/216/59
f 128/239/59 119/229/59 116/231/59
f 150/254/59 148/241/59 138/255/59
f 135/248/59 136/234/59 151/233/59
f 139/250/59 152/223/59 137/225/59
f 138/255/59 148/241/59 131/237/59
f 184/227/59 161/257/59 157/228/59
f 161/257/59 159/258/59 158/259/59
f 126/256/59 122/214/59 129/218/59
f 155/244/59 172/238/59 169/245/59
f 151/233/59 168/246/59 154/251/59
f 176/260/59 182/261/59 187/209/59
f 157/228/59 161/257/59 158/259/59
f 123/262/59 131/237/59 115/236/59
f 116/231/59 115/236/59 128/239/59
f 115/236/59 146/235/59 128/239/59
f 168/246/59 170/221/59 154/251/59
f 167/216/59 172/238/59 155/244/59
f 174/211/59 176/260/59 187/209/59
