# Blender v2.83.1 OBJ File: 'jigsaw-96x54-3-step2.blend'
# www.blender.org
mtllib piece.72.mtl
o path144
v 0.333844 0.037500 0.550316
v 0.219472 0.037500 0.550606
v 0.147800 0.037500 0.523438
v 0.150252 0.037500 0.459030
v 0.183260 0.037500 0.376884
v 0.184514 0.037500 0.303825
v 0.112740 0.037500 0.263016
v 0.010818 0.037500 0.262947
v -0.057335 0.037500 0.308434
v -0.049869 0.037500 0.397087
v -0.013205 0.037500 0.498001
v -0.015835 0.037500 0.573082
v -0.105014 0.037500 0.594971
v -0.243072 0.037500 0.579399
v -0.474496 0.037500 0.529549
v -0.456298 0.037500 0.175461
v -0.481031 0.037500 0.088814
v -0.539023 0.037500 0.083824
v -0.611851 0.037500 0.115272
v -0.674349 0.037500 0.117706
v -0.705211 0.037500 0.047249
v -0.698579 0.037500 -0.053619
v -0.652459 0.037500 -0.120834
v -0.570779 0.037500 -0.112030
v -0.481159 0.037500 -0.071793
v -0.417145 0.037500 -0.066414
v -0.402500 0.037500 -0.142082
v -0.421877 0.037500 -0.264542
v -0.474496 0.037500 -0.472359
v -0.127879 0.037500 -0.440269
v -0.043446 0.037500 -0.460876
v -0.039260 0.037500 -0.517754
v -0.070542 0.037500 -0.593636
v -0.072571 0.037500 -0.664360
v -0.001747 0.037500 -0.708900
v 0.101033 0.037500 -0.718765
v 0.173747 0.037500 -0.688591
v 0.174902 0.037500 -0.619148
v 0.145113 0.037500 -0.535583
v 0.145521 0.037500 -0.469177
v 0.218802 0.037500 -0.442848
v 0.333765 0.037500 -0.445992
v 0.527202 0.037500 -0.472359
v 0.527202 0.037500 0.529549
v 0.333844 -0.037500 0.550316
v 0.219472 -0.037500 0.550606
v 0.147800 -0.037500 0.523438
v 0.150252 -0.037500 0.459030
v 0.183260 -0.037500 0.376884
v 0.184514 -0.037500 0.303825
v 0.112740 -0.037500 0.263016
v 0.010818 -0.037500 0.262947
v -0.057335 -0.037500 0.308434
v -0.049869 -0.037500 0.397087
v -0.013205 -0.037500 0.498001
v -0.015835 -0.037500 0.573082
v -0.105014 -0.037500 0.594971
v -0.243072 -0.037500 0.579399
v -0.474496 -0.037498 0.529549
v -0.456298 -0.037500 0.175461
v -0.481031 -0.037500 0.088814
v -0.539023 -0.037500 0.083824
v -0.611851 -0.037498 0.115272
v -0.674349 -0.037500 0.117706
v -0.705211 -0.037500 0.047249
v -0.698579 -0.037500 -0.053619
v -0.652459 -0.037500 -0.120834
v -0.570779 -0.037500 -0.112030
v -0.481159 -0.037500 -0.071793
v -0.417145 -0.037500 -0.066414
v -0.402500 -0.037500 -0.142082
v -0.421877 -0.037500 -0.264542
v -0.474496 -0.037500 -0.472359
v -0.127879 -0.037500 -0.440269
v -0.043446 -0.037500 -0.460876
v -0.039260 -0.037500 -0.517754
v -0.070542 -0.037500 -0.593636
v -0.072571 -0.037500 -0.664360
v -0.001747 -0.037500 -0.708900
v 0.101033 -0.037500 -0.718765
v 0.173747 -0.037500 -0.688591
v 0.174902 -0.037500 -0.619148
v 0.145113 -0.037498 -0.535583
v 0.145521 -0.037500 -0.469177
v 0.218802 -0.037500 -0.442848
v 0.333765 -0.037500 -0.445992
v 0.527202 -0.037498 -0.472359
v 0.527202 -0.037498 0.529549
v 0.527202 0.037500 -0.472359
v 0.527202 0.037500 -0.472359
v 0.527202 0.037500 0.529549
v 0.527202 0.037500 0.529549
v 0.333765 0.037500 -0.445992
v 0.333844 0.037500 0.550316
v 0.219472 0.037500 0.550606
v 0.218802 0.037500 -0.442848
v 0.147800 0.037500 0.523438
v 0.147800 0.037500 0.523438
v 0.145521 0.037500 -0.469177
v 0.145521 0.037500 -0.469177
v 0.183260 0.037500 0.376884
v 0.184514 0.037500 0.303825
v 0.184514 0.037500 0.303825
v 0.112740 0.037500 0.263016
v 0.150252 0.037500 0.459030
v 0.173747 0.037500 -0.688591
v 0.173747 0.037500 -0.688591
v 0.174902 0.037500 -0.619148
v 0.145113 0.037500 -0.535583
v 0.101033 0.037500 -0.718765
v 0.010818 0.037500 0.262947
v -0.001747 0.037500 -0.708900
v -0.057335 0.037500 0.308434
v -0.057335 0.037500 0.308434
v -0.072571 0.037500 -0.664360
v -0.049869 0.037500 0.397087
v -0.013205 0.037500 0.498001
v -0.015835 0.037500 0.573082
v -0.015835 0.037500 0.573082
v -0.105014 0.037500 0.594971
v -0.070542 0.037500 -0.593636
v -0.039260 0.037500 -0.517754
v -0.043446 0.037500 -0.460876
v -0.043446 0.037500 -0.460876
v -0.127879 0.037500 -0.440269
v -0.243072 0.037500 0.579399
v -0.474496 0.037500 -0.472359
v -0.474496 0.037500 -0.472359
v -0.421877 0.037500 -0.264542
v -0.402500 0.037500 -0.142082
v -0.417145 0.037500 -0.066414
v -0.417145 0.037500 -0.066414
v -0.481159 0.037500 -0.071793
v -0.474496 0.037500 0.529549
v -0.474496 0.037500 0.529549
v -0.456298 0.037500 0.175461
v -0.481031 0.037500 0.088814
v -0.481031 0.037500 0.088814
v -0.539023 0.037500 0.083824
v -0.570779 0.037500 -0.112030
v -0.611851 0.037500 0.115272
v -0.652459 0.037500 -0.120834
v -0.652459 0.037500 -0.120834
v -0.674349 0.037500 0.117706
v -0.674349 0.037500 0.117706
v -0.698579 0.037500 -0.053619
v -0.705211 0.037500 0.047249
v 0.527202 -0.037498 -0.472359
v 0.527202 -0.037498 -0.472359
v 0.527202 -0.037498 0.529549
v 0.527202 -0.037498 0.529549
v 0.333765 -0.037500 -0.445992
v 0.333844 -0.037500 0.550316
v 0.219472 -0.037500 0.550606
v 0.218802 -0.037500 -0.442848
v 0.147800 -0.037500 0.523438
v 0.147800 -0.037500 0.523438
v 0.145521 -0.037500 -0.469177
v 0.145521 -0.037500 -0.469177
v 0.183260 -0.037500 0.376884
v 0.184514 -0.037500 0.303825
v 0.184514 -0.037500 0.303825
v 0.112740 -0.037500 0.263016
v 0.150252 -0.037500 0.459030
v 0.173747 -0.037500 -0.688591
v 0.173747 -0.037500 -0.688591
v 0.174902 -0.037500 -0.619148
v 0.145113 -0.037498 -0.535583
v 0.101033 -0.037500 -0.718765
v 0.010818 -0.037500 0.262947
v -0.001747 -0.037500 -0.708900
v -0.057335 -0.037500 0.308434
v -0.057335 -0.037500 0.308434
v -0.072571 -0.037500 -0.664360
v -0.049869 -0.037500 0.397087
v -0.013205 -0.037500 0.498001
v -0.015835 -0.037500 0.573082
v -0.015835 -0.037500 0.573082
v -0.105014 -0.037500 0.594971
v -0.070542 -0.037500 -0.593636
v -0.039260 -0.037500 -0.517754
v -0.043446 -0.037500 -0.460876
v -0.043446 -0.037500 -0.460876
v -0.127879 -0.037500 -0.440269
v -0.243072 -0.037500 0.579399
v -0.474496 -0.037500 -0.472359
v -0.474496 -0.037500 -0.472359
v -0.421877 -0.037500 -0.264542
v -0.402500 -0.037500 -0.142082
v -0.417145 -0.037500 -0.066414
v -0.417145 -0.037500 -0.066414
v -0.481159 -0.037500 -0.071793
v -0.474496 -0.037498 0.529549
v -0.474496 -0.037498 0.529549
v -0.456298 -0.037500 0.175461
v -0.481031 -0.037500 0.088814
v -0.481031 -0.037500 0.088814
v -0.539023 -0.037500 0.083824
v -0.570779 -0.037500 -0.112030
v -0.611851 -0.037498 0.115272
v -0.652459 -0.037500 -0.120834
v -0.652459 -0.037500 -0.120834
v -0.674349 -0.037500 0.117706
v -0.674349 -0.037500 0.117706
v -0.698579 -0.037500 -0.053619
v -0.705211 -0.037500 0.047249
vt 0.500000 0.500000
vt 0.500000 0.500000
vt 0.500000 0.500000
vt 0.500000 0.500000
vt 0.500000 0.500000
vt 0.500000 0.500000
vt 0.500000 0.500000
vt 0.500000 0.500000
vt 0.500000 0.500000
vt 0.500000 0.500000
vt 0.500000 0.500000
vt 0.500000 0.500000
vt 0.500000 0.500000
vt 0.500000 0.500000
vt 0.500000 0.500000
vt 0.500000 0.500000
vt 0.500000 0.500000
vt 0.500000 0.500000
vt 0.500000 0.500000
vt 0.500000 0.500000
vt 0.500000 0.500000
vt 0.500000 0.500000
vt 0.500000 0.500000
vt 0.500000 0.500000
vt 0.500000 0.500000
vt 0.500000 0.500000
vt 0.500000 0.500000
vt 0.500000 0.500000
vt 0.500000 0.500000
vt 0.500000 0.500000
vt 0.500000 0.500000
vt 0.500000 0.500000
vt 0.500000 0.500000
vt 0.500000 0.500000
vt 0.500000 0.500000
vt 0.500000 0.500000
vt 0.500000 0.500000
vt 0.500000 0.500000
vt 0.500000 0.500000
vt 0.500000 0.500000
vt 0.500000 0.500000
vt 0.500000 0.500000
vt 0.500000 0.500000
vt 0.500000 0.500000
vt 0.500000 0.500000
vt 0.500000 0.500000
vt 0.500000 0.500000
vt 0.500000 0.500000
vt 0.500000 0.500000
vt 0.500000 0.500000
vt 0.500000 0.500000
vt 0.500000 0.500000
vt 0.500000 0.500000
vt 0.500000 0.500000
vt 0.500000 0.500000
vt 0.500000 0.500000
vt 0.500000 0.500000
vt 0.500000 0.500000
vt 0.500000 0.500000
vt 0.500000 0.500000
vt 0.500000 0.500000
vt 0.500000 0.500000
vt 0.500000 0.500000
vt 0.500000 0.500000
vt 0.500000 0.500000
vt 0.500000 0.500000
vt 0.500000 0.500000
vt 0.500000 0.500000
vt 0.500000 0.500000
vt 0.500000 0.500000
vt 0.500000 0.500000
vt 0.500000 0.500000
vt 0.500000 0.500000
vt 0.500000 0.500000
vt 0.500000 0.500000
vt 0.500000 0.500000
vt 0.500000 0.500000
vt 0.500000 0.500000
vt 0.500000 0.500000
vt 0.500000 0.500000
vt 0.500000 0.500000
vt 0.500000 0.500000
vt 0.500000 0.500000
vt 0.500000 0.500000
vt 0.500000 0.500000
vt 0.500000 0.500000
vt 0.500000 0.500000
vt 0.500000 0.500000
vt 0.500000 0.500000
vt 0.500000 0.500000
vt 0.500000 0.500000
vt 0.500000 0.500000
vt 0.500000 0.500000
vt 0.500000 0.500000
vt 0.500000 0.500000
vt 0.500000 0.500000
vt 0.500000 0.500000
vt 0.500000 0.500000
vt 0.500000 0.500000
vt 0.500000 0.500000
vt 0.500000 0.500000
vt 0.500000 0.500000
vt 0.500000 0.500000
vt 0.500000 0.500000
vt 0.500000 0.500000
vt 0.500000 0.500000
vt 0.500000 0.500000
vt 0.500000 0.500000
vt 0.500000 0.500000
vt 0.500000 0.500000
vt 0.500000 0.500000
vt 0.500000 0.500000
vt 0.500000 0.500000
vt 0.500000 0.500000
vt 0.500000 0.500000
vt 0.500000 0.500000
vt 0.500000 0.500000
vt 0.500000 0.500000
vt 0.500000 0.500000
vt 0.500000 0.500000
vt 0.500000 0.500000
vt 0.500000 0.500000
vt 0.500000 0.500000
vt 0.500000 0.500000
vt 0.500000 0.500000
vt 0.500000 0.500000
vt 0.500000 0.500000
vt 0.500000 0.500000
vt 0.500000 0.500000
vt 0.500000 0.500000
vt 0.500000 0.500000
vt 0.500000 0.500000
vt 0.500000 0.500000
vt 0.500000 0.500000
vt 0.500000 0.500000
vt 0.500000 0.500000
vt 0.500000 0.500000
vt 0.500000 0.500000
vt 0.500000 0.500000
vt 0.500000 0.500000
vt 0.500000 0.500000
vt 0.500000 0.500000
vt 0.500000 0.500000
vt 0.500000 0.500000
vt 0.500000 0.500000
vt 0.500000 0.500000
vt 0.500000 0.500000
vt 0.500000 0.500000
vt 0.500000 0.500000
vt 0.500000 0.500000
vt 0.500000 0.500000
vt 0.500000 0.500000
vt 0.500000 0.500000
vt 0.500000 0.500000
vt 0.500000 0.500000
vt 0.500000 0.500000
vt 0.500000 0.500000
vt 0.500000 0.500000
vt 0.500000 0.500000
vt 0.500000 0.500000
vt 0.500000 0.500000
vt 0.500000 0.500000
vt 0.739703 0.989450
vt 0.747228 0.990454
vt 0.747229 0.992338
vt 0.743748 0.981358
vt 0.745366 0.980288
vt 0.745418 0.981360
vt 0.750216 0.996425
vt 0.750000 1.000000
vt 0.747653 0.993665
vt 0.750680 0.988312
vt 0.750453 0.989961
vt 0.749672 0.990009
vt 0.739890 0.994298
vt 0.743017 0.982812
vt 0.743804 0.982542
vt 0.750219 0.994311
vt 0.748413 0.993641
vt 0.750518 0.985760
vt 0.748623 0.989332
vt 0.749267 0.993031
vt 0.739917 0.987889
vt 0.738926 0.992936
vt 0.738057 0.993487
vt 0.737021 0.992121
vt 0.743330 0.979702
vt 0.743238 0.978191
vt 0.743937 0.977339
vt 0.746319 0.981818
vt 0.747701 0.989193
vt 0.749936 0.992986
vt 0.739583 0.981481
vt 0.741744 0.982454
vt 0.739857 0.996424
vt 0.739111 0.989528
vt 0.739617 0.992944
vt 0.737124 0.990221
vt 0.738322 0.988949
vt 0.750000 0.981481
vt 0.737587 0.988912
vt 0.744986 0.977216
vt 0.737335 0.993466
vt 0.745718 0.977787
vt 0.745693 0.978942
vt 0.739583 1.000000
vn 0.0000 -1.0000 -0.0000
vn 1.0000 0.0000 0.0000
vn -0.1351 0.0000 -0.9908
vn 0.1068 0.0000 0.9943
vn 0.0025 0.0000 1.0000
vn -0.0273 0.0000 -0.9996
vn -0.3545 0.0000 0.9351
vn 0.3381 0.0000 -0.9411
vn -0.9999 0.0000 -0.0172
vn -0.4943 0.0000 0.8693
vn -0.9279 0.0000 -0.3729
vn -0.9993 0.0000 -0.0380
vn 0.9999 0.0000 -0.0166
vn 0.9419 0.0000 0.3358
vn 0.3833 0.0000 -0.9236
vn 1.0000 0.0000 -0.0061
vn -0.0007 0.0000 1.0000
vn -0.0955 0.0000 -0.9954
vn 0.5551 0.0000 0.8318
vn -0.5324 0.0000 -0.8465
vn 0.9399 0.0000 -0.3415
vn 0.9994 0.0000 0.0350
vn 0.2384 0.0000 0.9712
vn -0.9996 0.0000 0.0287
vn -0.9245 0.0000 0.3811
vn -0.9973 0.0000 -0.0734
vn -0.2371 0.0000 -0.9715
vn 0.9965 0.0000 -0.0839
vn -0.1121 0.0000 0.9937
vn 0.0922 0.0000 -0.9957
vn -0.9694 0.0000 0.2455
vn -0.9877 0.0000 0.1563
vn -0.9818 0.0000 -0.1900
vn 0.0837 0.0000 -0.9965
vn -0.9987 0.0000 -0.0513
vn -0.2106 0.0000 0.9776
vn -0.9616 0.0000 0.2745
vn -0.0857 0.0000 0.9963
vn 0.4096 0.0000 -0.9123
vn 0.3964 0.0000 0.9181
vn 0.1072 0.0000 -0.9942
vn 0.0389 0.0000 0.9992
vn -0.8246 0.0000 -0.5658
vn -0.9978 0.0000 -0.0656
vn -0.9160 0.0000 0.4012
vn 0.0000 1.0000 0.0000
usemtl BackMat.001
s off
f 182/1/1 163/2/1 170/3/1
f 192/4/1 196/5/1 198/6/1
f 153/7/1 161/8/1 150/9/1
f 179/10/1 176/11/1 177/12/1
f 155/13/1 163/2/1 182/1/1
f 189/14/1 170/3/1 190/15/1
f 154/16/1 160/17/1 153/7/1
f 185/18/1 175/19/1 179/10/1
f 160/17/1 154/16/1 164/20/1
f 182/1/1 170/3/1 184/21/1
f 168/22/1 169/23/1 167/24/1
f 199/25/1 205/26/1 201/27/1
f 190/15/1 172/28/1 195/29/1
f 156/30/1 164/20/1 154/16/1
f 195/29/1 172/28/1 185/18/1
f 184/21/1 170/3/1 189/14/1
f 184/21/1 188/31/1 186/32/1
f 199/25/1 198/6/1 205/26/1
f 184/21/1 189/14/1 188/31/1
f 192/4/1 198/6/1 199/25/1
f 152/33/1 163/2/1 155/13/1
f 153/7/1 160/17/1 161/8/1
f 163/2/1 152/33/1 161/8/1
f 181/34/1 158/35/1 182/1/1
f 171/36/1 168/22/1 180/37/1
f 195/29/1 185/18/1 193/38/1
f 179/10/1 175/19/1 176/11/1
f 180/37/1 168/22/1 181/34/1
f 174/39/1 171/36/1 180/37/1
f 205/26/1 198/6/1 206/40/1
f 169/23/1 168/22/1 171/36/1
f 165/41/1 167/24/1 169/23/1
f 185/18/1 172/28/1 175/19/1
f 190/15/1 196/5/1 192/4/1
f 206/40/1 200/42/1 203/43/1
f 198/6/1 200/42/1 206/40/1
f 148/44/1 161/8/1 152/33/1
f 190/15/1 195/29/1 196/5/1
f 168/22/1 158/35/1 181/34/1
f 150/9/1 161/8/1 148/44/1
f 158/35/1 155/13/1 182/1/1
f 170/3/1 172/28/1 190/15/1
f 90/45/2 92/46/2 151/47/2 149/48/2
f 42/49/3 43/50/3 87/51/3 86/52/3
f 44/53/4 1/54/4 45/55/4 88/56/4
f 1/54/5 2/57/5 46/58/5 45/55/5
f 41/59/6 42/49/6 86/52/6 85/60/6
f 2/57/7 98/61/7 157/62/7 46/58/7
f 100/63/8 41/59/8 85/60/8 159/64/8
f 5/65/9 103/66/9 162/67/9 49/68/9
f 6/69/10 7/70/10 51/71/10 50/72/10
f 4/73/11 5/65/11 49/68/11 48/74/11
f 3/75/12 4/73/12 48/74/12 47/76/12
f 107/77/13 38/78/13 82/79/13 166/80/13
f 38/78/14 39/81/14 83/82/14 82/79/14
f 36/83/15 37/84/15 81/85/15 80/86/15
f 39/81/16 40/87/16 84/88/16 83/82/16
f 7/70/17 8/89/17 52/90/17 51/71/17
f 35/91/18 36/83/18 80/86/18 79/92/18
f 8/89/19 114/93/19 173/94/19 52/90/19
f 34/95/20 35/91/20 79/92/20 78/96/20
f 10/97/21 11/98/21 55/99/21 54/100/21
f 11/98/22 119/101/22 178/102/22 55/99/22
f 12/103/23 13/104/23 57/105/23 56/106/23
f 33/107/24 34/95/24 78/96/24 77/108/24
f 32/109/25 33/107/25 77/108/25 76/110/25
f 124/111/26 32/109/26 76/110/26 183/112/26
f 30/113/27 31/114/27 75/115/27 74/116/27
f 9/117/28 10/97/28 54/100/28 53/118/28
f 13/104/29 14/119/29 58/120/29 57/105/29
f 128/121/30 30/113/30 74/116/30 187/122/30
f 28/123/31 29/124/31 73/125/31 72/126/31
f 27/127/32 28/123/32 72/126/32 71/128/32
f 132/129/33 27/127/33 71/128/33 191/130/33
f 25/131/34 26/132/34 70/133/34 69/134/34
f 135/135/35 16/136/35 60/137/35 194/138/35
f 14/119/36 15/139/36 59/140/36 58/120/36
f 16/136/37 138/141/37 197/142/37 60/137/37
f 17/143/38 18/144/38 62/145/38 61/146/38
f 24/147/39 25/131/39 69/134/39 68/148/39
f 18/144/40 19/149/40 63/150/40 62/145/40
f 143/151/41 24/147/41 68/148/41 202/152/41
f 19/149/42 145/153/42 204/154/42 63/150/42
f 22/155/43 23/156/43 67/157/43 66/158/43
f 21/159/44 22/155/44 66/158/44 65/160/44
f 20/161/45 21/159/45 65/160/45 64/162/45
usemtl FrontMat.001
f 123/163/46 111/164/46 104/165/46
f 133/166/46 139/167/46 137/168/46
f 94/169/46 91/170/46 102/171/46
f 120/172/46 118/173/46 117/174/46
f 96/175/46 123/163/46 104/165/46
f 130/176/46 131/177/46 111/164/46
f 95/178/46 94/169/46 101/179/46
f 126/180/46 120/172/46 116/181/46
f 101/179/46 105/182/46 95/178/46
f 123/163/46 125/183/46 111/164/46
f 109/184/46 108/185/46 110/186/46
f 140/187/46 142/188/46 146/189/46
f 131/177/46 136/190/46 113/191/46
f 97/192/46 95/178/46 105/182/46
f 136/190/46 126/180/46 113/191/46
f 125/183/46 130/176/46 111/164/46
f 125/183/46 127/193/46 129/194/46
f 140/187/46 146/189/46 139/167/46
f 125/183/46 129/194/46 130/176/46
f 133/166/46 140/187/46 139/167/46
f 93/195/46 96/175/46 104/165/46
f 94/169/46 102/171/46 101/179/46
f 104/165/46 102/171/46 93/195/46
f 122/196/46 123/163/46 99/197/46
f 112/198/46 121/199/46 109/184/46
f 136/190/46 134/200/46 126/180/46
f 120/172/46 117/174/46 116/181/46
f 121/199/46 122/196/46 109/184/46
f 115/201/46 121/199/46 112/198/46
f 146/189/46 147/202/46 139/167/46
f 110/186/46 112/198/46 109/184/46
f 106/203/46 110/186/46 108/185/46
f 126/180/46 116/181/46 113/191/46
f 131/177/46 133/166/46 137/168/46
f 147/202/46 144/204/46 141/205/46
f 139/167/46 147/202/46 141/205/46
f 89/206/46 93/195/46 102/171/46
f 131/177/46 137/168/46 136/190/46
f 109/184/46 122/196/46 99/197/46
f 91/170/46 89/206/46 102/171/46
f 99/197/46 123/163/46 96/175/46
f 111/164/46 131/177/46 113/191/46
