# Blender v2.83.1 OBJ File: 'jigsaw-96x54-3-step2.blend'
# www.blender.org
mtllib piece.5075.mtl
o path10150
v 0.256809 0.037500 0.533638
v 0.128223 0.037500 0.534073
v 0.042671 0.037500 0.503586
v 0.034267 0.037500 0.431732
v 0.060268 0.037500 0.343422
v 0.058739 0.037500 0.272400
v -0.011650 0.037500 0.245621
v -0.109749 0.037500 0.262955
v -0.173798 0.037500 0.317482
v -0.163303 0.037500 0.398911
v -0.122906 0.037500 0.483513
v -0.118534 0.037500 0.544182
v -0.195961 0.037500 0.561852
v -0.531193 0.037500 0.510094
v -0.551579 0.037500 0.302925
v -0.550900 0.037500 0.179184
v -0.521553 0.037500 0.098900
v -0.453999 0.037500 0.095596
v -0.371109 0.037500 0.126511
v -0.303890 0.037500 0.129837
v -0.277103 0.037500 0.064064
v -0.290657 0.037500 -0.031120
v -0.338226 0.037500 -0.095726
v -0.410595 0.037500 -0.090355
v -0.487003 0.037500 -0.057922
v -0.543797 0.037500 -0.061913
v -0.564129 0.037500 -0.146118
v -0.531193 0.037500 -0.491814
v -0.327660 0.037500 -0.531006
v -0.205776 0.037500 -0.543373
v -0.125999 0.037500 -0.526451
v -0.121147 0.037500 -0.467842
v -0.149853 0.037500 -0.388405
v -0.152226 0.037500 -0.317329
v -0.088158 0.037500 -0.279213
v 0.003284 0.037500 -0.280228
v 0.063248 0.037500 -0.321945
v 0.053493 0.037500 -0.400047
v 0.018223 0.037500 -0.486969
v 0.022251 0.037500 -0.549294
v 0.110088 0.037500 -0.563271
v 0.470505 0.037500 -0.491814
v 0.451168 0.037500 -0.148323
v 0.472328 0.037500 -0.063385
v 0.523693 0.037500 -0.056656
v 0.588535 0.037500 -0.084137
v 0.643959 0.037500 -0.082275
v 0.671116 0.037500 -0.008507
v 0.667347 0.037500 0.095695
v 0.634045 0.037500 0.167847
v 0.576019 0.037500 0.166313
v 0.511574 0.037500 0.132851
v 0.462402 0.037500 0.130058
v 0.444149 0.037500 0.201714
v 0.470505 0.037500 0.510094
v 0.256809 -0.037498 0.533638
v 0.128223 -0.037500 0.534073
v 0.042671 -0.037500 0.503586
v 0.034267 -0.037500 0.431732
v 0.060268 -0.037500 0.343422
v 0.058739 -0.037500 0.272400
v -0.011650 -0.037500 0.245621
v -0.109749 -0.037500 0.262955
v -0.173798 -0.037500 0.317482
v -0.163303 -0.037500 0.398911
v -0.122906 -0.037500 0.483513
v -0.118534 -0.037498 0.544182
v -0.195961 -0.037498 0.561852
v -0.531193 -0.037500 0.510094
v -0.551579 -0.037500 0.302925
v -0.550900 -0.037500 0.179184
v -0.521553 -0.037498 0.098900
v -0.453999 -0.037498 0.095596
v -0.371109 -0.037500 0.126511
v -0.303890 -0.037500 0.129837
v -0.277103 -0.037500 0.064064
v -0.290657 -0.037500 -0.031120
v -0.338226 -0.037500 -0.095726
v -0.410595 -0.037500 -0.090355
v -0.487003 -0.037500 -0.057922
v -0.543797 -0.037500 -0.061913
v -0.564129 -0.037500 -0.146118
v -0.531193 -0.037500 -0.491814
v -0.327660 -0.037500 -0.531006
v -0.205776 -0.037500 -0.543373
v -0.125999 -0.037498 -0.526451
v -0.121147 -0.037498 -0.467842
v -0.149853 -0.037500 -0.388405
v -0.152226 -0.037500 -0.317329
v -0.088158 -0.037500 -0.279213
v 0.003284 -0.037500 -0.280228
v 0.063248 -0.037500 -0.321945
v 0.053493 -0.037500 -0.400047
v 0.018223 -0.037500 -0.486969
v 0.022251 -0.037500 -0.549294
v 0.110088 -0.037500 -0.563271
v 0.470505 -0.037498 -0.491814
v 0.451168 -0.037498 -0.148323
v 0.472328 -0.037500 -0.063385
v 0.523693 -0.037500 -0.056656
v 0.588535 -0.037500 -0.084137
v 0.643959 -0.037500 -0.082275
v 0.671116 -0.037500 -0.008507
v 0.667347 -0.037500 0.095695
v 0.634045 -0.037500 0.167847
v 0.576019 -0.037500 0.166313
v 0.511574 -0.037500 0.132851
v 0.462402 -0.037500 0.130058
v 0.444149 -0.037498 0.201714
v 0.470505 -0.037500 0.510094
v -0.543797 0.037500 -0.061913
v -0.543797 0.037500 -0.061913
v -0.564129 0.037500 -0.146118
v -0.551579 0.037500 0.302925
v -0.550900 0.037500 0.179184
v -0.521553 0.037500 0.098900
v -0.521553 0.037500 0.098900
v -0.487003 0.037500 -0.057922
v -0.531193 0.037500 0.510094
v -0.531193 0.037500 0.510094
v -0.531193 0.037500 -0.491814
v -0.531193 0.037500 -0.491814
v -0.453999 0.037500 0.095596
v -0.410595 0.037500 -0.090355
v -0.371109 0.037500 0.126511
v -0.327660 0.037500 -0.531006
v -0.338226 0.037500 -0.095726
v -0.303890 0.037500 0.129837
v -0.303890 0.037500 0.129837
v -0.290657 0.037500 -0.031120
v -0.205776 0.037500 -0.543373
v -0.195961 0.037500 0.561852
v -0.277103 0.037500 0.064064
v -0.125999 0.037500 -0.526451
v -0.125999 0.037500 -0.526451
v -0.118534 0.037500 0.544182
v -0.118534 0.037500 0.544182
v -0.173798 0.037500 0.317482
v -0.163303 0.037500 0.398911
v -0.109749 0.037500 0.262955
v -0.149853 0.037500 -0.388405
v -0.152226 0.037500 -0.317329
v -0.152226 0.037500 -0.317329
v -0.122906 0.037500 0.483513
v -0.088158 0.037500 -0.279213
v -0.121147 0.037500 -0.467842
v -0.011650 0.037500 0.245621
v 0.003284 0.037500 -0.280228
v 0.058739 0.037500 0.272400
v 0.058739 0.037500 0.272400
v 0.063248 0.037500 -0.321945
v 0.063248 0.037500 -0.321945
v 0.053493 0.037500 -0.400047
v 0.018223 0.037500 -0.486969
v 0.022251 0.037500 -0.549294
v 0.022251 0.037500 -0.549294
v 0.110088 0.037500 -0.563271
v 0.042671 0.037500 0.503586
v 0.042671 0.037500 0.503586
v 0.034267 0.037500 0.431732
v 0.060268 0.037500 0.343422
v 0.128223 0.037500 0.534073
v 0.256809 0.037500 0.533638
v 0.462402 0.037500 0.130058
v 0.462402 0.037500 0.130058
v 0.444149 0.037500 0.201714
v 0.470505 0.037500 -0.491814
v 0.470505 0.037500 -0.491814
v 0.451168 0.037500 -0.148323
v 0.470505 0.037500 0.510094
v 0.470505 0.037500 0.510094
v 0.472328 0.037500 -0.063385
v 0.472328 0.037500 -0.063385
v 0.511574 0.037500 0.132851
v 0.523693 0.037500 -0.056656
v 0.576019 0.037500 0.166313
v 0.588535 0.037500 -0.084137
v 0.634045 0.037500 0.167847
v 0.634045 0.037500 0.167847
v 0.643959 0.037500 -0.082275
v 0.643959 0.037500 -0.082275
v 0.667347 0.037500 0.095695
v 0.671116 0.037500 -0.008507
v -0.543797 -0.037500 -0.061913
v -0.543797 -0.037500 -0.061913
v -0.564129 -0.037500 -0.146118
v -0.551579 -0.037500 0.302925
v -0.550900 -0.037500 0.179184
v -0.521553 -0.037498 0.098900
v -0.521553 -0.037498 0.098900
v -0.487003 -0.037500 -0.057922
v -0.531193 -0.037500 0.510094
v -0.531193 -0.037500 0.510094
v -0.531193 -0.037500 -0.491814
v -0.531193 -0.037500 -0.491814
v -0.453999 -0.037498 0.095596
v -0.410595 -0.037500 -0.090355
v -0.371109 -0.037500 0.126511
v -0.327660 -0.037500 -0.531006
v -0.338226 -0.037500 -0.095726
v -0.303890 -0.037500 0.129837
v -0.303890 -0.037500 0.129837
v -0.290657 -0.037500 -0.031120
v -0.205776 -0.037500 -0.543373
v -0.195961 -0.037498 0.561852
v -0.277103 -0.037500 0.064064
v -0.125999 -0.037498 -0.526451
v -0.125999 -0.037498 -0.526451
v -0.118534 -0.037498 0.544182
v -0.118534 -0.037498 0.544182
v -0.173798 -0.037500 0.317482
v -0.163303 -0.037500 0.398911
v -0.109749 -0.037500 0.262955
v -0.149853 -0.037500 -0.388405
v -0.152226 -0.037500 -0.317329
v -0.152226 -0.037500 -0.317329
v -0.122906 -0.037500 0.483513
v -0.088158 -0.037500 -0.279213
v -0.121147 -0.037498 -0.467842
v -0.011650 -0.037500 0.245621
v 0.003284 -0.037500 -0.280228
v 0.058739 -0.037500 0.272400
v 0.058739 -0.037500 0.272400
v 0.063248 -0.037500 -0.321945
v 0.063248 -0.037500 -0.321945
v 0.053493 -0.037500 -0.400047
v 0.018223 -0.037500 -0.486969
v 0.022251 -0.037500 -0.549294
v 0.022251 -0.037500 -0.549294
v 0.110088 -0.037500 -0.563271
v 0.042671 -0.037500 0.503586
v 0.042671 -0.037500 0.503586
v 0.034267 -0.037500 0.431732
v 0.060268 -0.037500 0.343422
v 0.128223 -0.037500 0.534073
v 0.256809 -0.037498 0.533638
v 0.462402 -0.037500 0.130058
v 0.462402 -0.037500 0.130058
v 0.444149 -0.037498 0.201714
v 0.470505 -0.037498 -0.491814
v 0.470505 -0.037498 -0.491814
v 0.451168 -0.037498 -0.148323
v 0.470505 -0.037500 0.510094
v 0.470505 -0.037500 0.510094
v 0.472328 -0.037500 -0.063385
v 0.472328 -0.037500 -0.063385
v 0.511574 -0.037500 0.132851
v 0.523693 -0.037500 -0.056656
v 0.576019 -0.037500 0.166313
v 0.588535 -0.037500 -0.084137
v 0.634045 -0.037500 0.167847
v 0.634045 -0.037500 0.167847
v 0.643959 -0.037500 -0.082275
v 0.643959 -0.037500 -0.082275
v 0.667347 -0.037500 0.095695
v 0.671116 -0.037500 -0.008507
vt 0.500000 0.500000
vt 0.500000 0.500000
vt 0.500000 0.500000
vt 0.500000 0.500000
vt 0.500000 0.500000
vt 0.500000 0.500000
vt 0.500000 0.500000
vt 0.500000 0.500000
vt 0.500000 0.500000
vt 0.500000 0.500000
vt 0.500000 0.500000
vt 0.500000 0.500000
vt 0.500000 0.500000
vt 0.500000 0.500000
vt 0.500000 0.500000
vt 0.500000 0.500000
vt 0.500000 0.500000
vt 0.500000 0.500000
vt 0.500000 0.500000
vt 0.500000 0.500000
vt 0.500000 0.500000
vt 0.500000 0.500000
vt 0.500000 0.500000
vt 0.500000 0.500000
vt 0.500000 0.500000
vt 0.500000 0.500000
vt 0.500000 0.500000
vt 0.500000 0.500000
vt 0.500000 0.500000
vt 0.500000 0.500000
vt 0.500000 0.500000
vt 0.500000 0.500000
vt 0.500000 0.500000
vt 0.500000 0.500000
vt 0.500000 0.500000
vt 0.500000 0.500000
vt 0.500000 0.500000
vt 0.500000 0.500000
vt 0.500000 0.500000
vt 0.500000 0.500000
vt 0.500000 0.500000
vt 0.500000 0.500000
vt 0.500000 0.500000
vt 0.500000 0.500000
vt 0.500000 0.500000
vt 0.500000 0.500000
vt 0.500000 0.500000
vt 0.500000 0.500000
vt 0.500000 0.500000
vt 0.500000 0.500000
vt 0.500000 0.500000
vt 0.500000 0.500000
vt 0.500000 0.500000
vt 0.500000 0.500000
vt 0.500000 0.500000
vt 0.500000 0.500000
vt 0.500000 0.500000
vt 0.500000 0.500000
vt 0.500000 0.500000
vt 0.500000 0.500000
vt 0.500000 0.500000
vt 0.500000 0.500000
vt 0.500000 0.500000
vt 0.500000 0.500000
vt 0.500000 0.500000
vt 0.500000 0.500000
vt 0.500000 0.500000
vt 0.500000 0.500000
vt 0.500000 0.500000
vt 0.500000 0.500000
vt 0.500000 0.500000
vt 0.500000 0.500000
vt 0.500000 0.500000
vt 0.500000 0.500000
vt 0.500000 0.500000
vt 0.500000 0.500000
vt 0.500000 0.500000
vt 0.500000 0.500000
vt 0.500000 0.500000
vt 0.500000 0.500000
vt 0.500000 0.500000
vt 0.500000 0.500000
vt 0.500000 0.500000
vt 0.500000 0.500000
vt 0.500000 0.500000
vt 0.500000 0.500000
vt 0.500000 0.500000
vt 0.500000 0.500000
vt 0.500000 0.500000
vt 0.500000 0.500000
vt 0.500000 0.500000
vt 0.500000 0.500000
vt 0.500000 0.500000
vt 0.500000 0.500000
vt 0.500000 0.500000
vt 0.500000 0.500000
vt 0.500000 0.500000
vt 0.500000 0.500000
vt 0.500000 0.500000
vt 0.500000 0.500000
vt 0.500000 0.500000
vt 0.500000 0.500000
vt 0.500000 0.500000
vt 0.500000 0.500000
vt 0.500000 0.500000
vt 0.500000 0.500000
vt 0.500000 0.500000
vt 0.500000 0.500000
vt 0.500000 0.500000
vt 0.500000 0.500000
vt 0.500000 0.500000
vt 0.500000 0.500000
vt 0.500000 0.500000
vt 0.500000 0.500000
vt 0.500000 0.500000
vt 0.500000 0.500000
vt 0.500000 0.500000
vt 0.500000 0.500000
vt 0.500000 0.500000
vt 0.500000 0.500000
vt 0.500000 0.500000
vt 0.500000 0.500000
vt 0.500000 0.500000
vt 0.500000 0.500000
vt 0.500000 0.500000
vt 0.500000 0.500000
vt 0.500000 0.500000
vt 0.500000 0.500000
vt 0.500000 0.500000
vt 0.500000 0.500000
vt 0.500000 0.500000
vt 0.500000 0.500000
vt 0.500000 0.500000
vt 0.500000 0.500000
vt 0.500000 0.500000
vt 0.500000 0.500000
vt 0.500000 0.500000
vt 0.500000 0.500000
vt 0.500000 0.500000
vt 0.500000 0.500000
vt 0.500000 0.500000
vt 0.500000 0.500000
vt 0.500000 0.500000
vt 0.500000 0.500000
vt 0.500000 0.500000
vt 0.500000 0.500000
vt 0.500000 0.500000
vt 0.500000 0.500000
vt 0.500000 0.500000
vt 0.500000 0.500000
vt 0.500000 0.500000
vt 0.500000 0.500000
vt 0.500000 0.500000
vt 0.500000 0.500000
vt 0.500000 0.500000
vt 0.500000 0.500000
vt 0.500000 0.500000
vt 0.500000 0.500000
vt 0.500000 0.500000
vt 0.500000 0.500000
vt 0.500000 0.500000
vt 0.500000 0.500000
vt 0.500000 0.500000
vt 0.500000 0.500000
vt 0.500000 0.500000
vt 0.500000 0.500000
vt 0.500000 0.500000
vt 0.500000 0.500000
vt 0.500000 0.500000
vt 0.500000 0.500000
vt 0.500000 0.500000
vt 0.500000 0.500000
vt 0.500000 0.500000
vt 0.500000 0.500000
vt 0.500000 0.500000
vt 0.500000 0.500000
vt 0.500000 0.500000
vt 0.500000 0.500000
vt 0.500000 0.500000
vt 0.500000 0.500000
vt 0.500000 0.500000
vt 0.500000 0.500000
vt 0.500000 0.500000
vt 0.500000 0.500000
vt 0.500000 0.500000
vt 0.500000 0.500000
vt 0.500000 0.500000
vt 0.500000 0.500000
vt 0.500000 0.500000
vt 0.500000 0.500000
vt 0.500000 0.500000
vt 0.500000 0.500000
vt 0.500000 0.500000
vt 0.500000 0.500000
vt 0.500000 0.500000
vt 0.500000 0.500000
vt 0.500000 0.500000
vt 0.500000 0.500000
vt 0.500000 0.500000
vt 0.500000 0.500000
vt 0.500000 0.500000
vt 0.858475 0.014880
vt 0.859558 0.014810
vt 0.860059 0.017535
vt 0.856916 0.027432
vt 0.862383 0.027156
vt 0.858804 0.032340
vt 0.858089 0.017759
vt 0.861012 0.018876
vt 0.864583 0.018519
vt 0.862817 0.026048
vt 0.858155 0.034078
vt 0.858476 0.035610
vt 0.857607 0.037401
vt 0.857373 0.019006
vt 0.858118 0.018668
vt 0.856638 0.026131
vt 0.863629 0.026228
vt 0.853922 0.022469
vt 0.855900 0.026103
vt 0.853917 0.024846
vt 0.860129 0.018485
vt 0.860989 0.037646
vt 0.860072 0.036220
vt 0.860409 0.034808
vt 0.858120 0.032835
vt 0.856169 0.030430
vt 0.864991 0.033274
vt 0.860465 0.033470
vt 0.860114 0.037270
vt 0.853812 0.029408
vt 0.854443 0.029489
vt 0.853629 0.030840
vt 0.856736 0.029246
vt 0.858442 0.036859
vt 0.864583 0.037037
vt 0.863508 0.029987
vt 0.864334 0.029457
vt 0.865119 0.031021
vt 0.856321 0.037414
vt 0.854167 0.037037
vt 0.855323 0.030236
vt 0.859794 0.032590
vt 0.862769 0.030031
vt 0.860345 0.016336
vt 0.854167 0.018519
vt 0.860325 0.015312
vt 0.865326 0.025182
vt 0.865181 0.026805
vt 0.864533 0.026880
vt 0.864943 0.029546
vt 0.857741 0.016568
vt 0.857725 0.015495
vt 0.854981 0.026583
vt 0.854234 0.026428
vt 0.862373 0.028847
vn 0.0000 -1.0000 0.0000
vn -0.9721 0.0000 0.2347
vn -1.0000 0.0000 -0.0055
vn -0.9392 0.0000 -0.3433
vn -0.0701 0.0000 0.9975
vn -0.9952 0.0000 0.0979
vn -0.9955 0.0000 -0.0948
vn -0.0488 0.0000 -0.9988
vn 0.3907 0.0000 0.9205
vn 0.3494 0.0000 -0.9370
vn -0.1891 0.0000 -0.9820
vn 0.0740 0.0000 0.9973
vn 0.0494 0.0000 -0.9988
vn -0.8053 0.0000 0.5929
vn -0.1009 0.0000 -0.9949
vn -0.1526 0.0000 0.9883
vn -0.9261 0.0000 -0.3772
vn -0.9900 0.0000 0.1410
vn 0.2075 0.0000 -0.9782
vn 0.2225 0.0000 0.9749
vn 0.9918 0.0000 -0.1278
vn 0.6482 0.0000 0.7614
vn 0.9994 0.0000 0.0334
vn 0.9974 0.0000 -0.0719
vn 0.9024 0.0000 -0.4309
vn 0.5113 0.0000 -0.8594
vn 0.9405 0.0000 0.3399
vn 0.9966 0.0000 -0.0825
vn 0.1740 0.0000 0.9847
vn -0.0111 0.0000 -0.9999
vn -0.3556 0.0000 0.9346
vn -0.5711 0.0000 -0.8209
vn -0.9266 0.0000 0.3760
vn -0.9979 0.0000 -0.0645
vn -0.1571 0.0000 -0.9876
vn -0.9932 0.0000 0.1162
vn -0.9593 0.0000 -0.2824
vn -0.3357 0.0000 0.9420
vn -0.9923 0.0000 0.1239
vn -0.9998 0.0000 0.0215
vn 0.0034 0.0000 1.0000
vn 0.9691 0.0000 0.2469
vn 0.9984 0.0000 0.0562
vn 0.1945 0.0000 -0.9809
vn 0.1095 0.0000 0.9940
vn 0.9703 0.0000 -0.2417
vn -0.0567 0.0000 0.9984
vn 0.9964 0.0000 -0.0852
vn 0.1299 0.0000 -0.9915
vn -0.4608 0.0000 0.8875
vn -0.3902 0.0000 -0.9207
vn -0.0264 0.0000 0.9997
vn 0.0336 0.0000 -0.9994
vn 0.9080 0.0000 0.4191
vn 0.9993 0.0000 0.0361
vn 0.9384 0.0000 -0.3455
vn 0.0000 1.0000 -0.0000
usemtl BackMat.001
s off
f 255/1/1 248/2/1 256/3/1
f 220/4/1 206/5/1 221/6/1
f 247/7/1 248/2/1 255/1/1
f 242/8/1 224/9/1 240/10/1
f 198/11/1 188/12/1 196/13/1
f 239/14/1 222/15/1 237/16/1
f 224/9/1 226/17/1 240/10/1
f 236/18/1 234/19/1 239/14/1
f 235/20/1 234/19/1 236/18/1
f 237/16/1 222/15/1 245/21/1
f 186/22/1 197/23/1 191/24/1
f 201/25/1 211/26/1 198/11/1
f 199/27/1 200/28/1 197/23/1
f 186/22/1 191/24/1 184/29/1
f 209/30/1 205/31/1 217/32/1
f 213/33/1 206/5/1 220/4/1
f 189/34/1 196/13/1 188/12/1
f 234/19/1 222/15/1 239/14/1
f 194/35/1 197/23/1 186/22/1
f 214/36/1 204/37/1 219/38/1
f 211/26/1 201/25/1 213/33/1
f 188/12/1 198/11/1 187/39/1
f 192/40/1 187/39/1 212/41/1
f 221/6/1 206/5/1 203/42/1
f 217/32/1 205/31/1 212/41/1
f 215/43/1 199/27/1 214/36/1
f 256/3/1 248/2/1 250/44/1
f 212/41/1 187/39/1 211/26/1
f 199/27/1 197/23/1 194/35/1
f 206/5/1 213/33/1 201/25/1
f 245/21/1 222/15/1 221/6/1
f 236/18/1 239/14/1 243/45/1
f 256/3/1 250/44/1 253/46/1
f 198/11/1 211/26/1 187/39/1
f 222/15/1 220/4/1 221/6/1
f 230/47/1 227/48/1 228/49/1
f 230/47/1 226/17/1 227/48/1
f 245/21/1 221/6/1 242/8/1
f 205/31/1 192/40/1 212/41/1
f 199/27/1 215/43/1 200/28/1
f 248/2/1 237/16/1 245/21/1
f 219/38/1 204/37/1 207/50/1
f 242/8/1 221/6/1 224/9/1
f 214/36/1 199/27/1 204/37/1
f 249/51/1 255/1/1 251/52/1
f 237/16/1 248/2/1 247/7/1
f 233/53/1 235/20/1 231/54/1
f 240/10/1 226/17/1 230/47/1
f 218/55/1 200/28/1 215/43/1
f 203/42/1 200/28/1 218/55/1
f 221/6/1 203/42/1 218/55/1
f 234/19/1 235/20/1 233/53/1
f 247/7/1 255/1/1 249/51/1
f 112/56/2 27/57/2 82/58/2 185/59/2
f 15/60/3 16/61/3 71/62/3 70/63/3
f 16/61/4 117/64/4 190/65/4 71/62/4
f 25/66/5 26/67/5 81/68/5 80/69/5
f 120/70/6 15/60/6 70/63/6 193/71/6
f 27/57/7 122/72/7 195/73/7 82/58/7
f 17/74/8 18/75/8 73/76/8 72/77/8
f 24/78/9 25/66/9 80/69/9 79/79/9
f 18/75/10 19/80/10 74/81/10 73/76/10
f 28/82/11 29/83/11 84/84/11 83/85/11
f 23/86/12 24/78/12 79/79/12 78/87/12
f 19/80/13 129/88/13 202/89/13 74/81/13
f 22/90/14 23/86/14 78/87/14 77/91/14
f 29/83/15 30/92/15 85/93/15 84/84/15
f 13/94/16 14/95/16 69/96/16 68/97/16
f 20/98/17 21/99/17 76/100/17 75/101/17
f 21/99/18 22/90/18 77/91/18 76/100/18
f 30/92/19 135/102/19 208/103/19 85/93/19
f 137/104/20 13/94/20 68/97/20 210/105/20
f 9/106/21 10/107/21 65/108/21 64/109/21
f 8/110/22 9/106/22 64/109/22 63/111/22
f 33/112/23 143/113/23 216/114/23 88/115/23
f 11/116/24 12/117/24 67/118/24 66/119/24
f 10/107/25 11/116/25 66/119/25 65/108/25
f 34/120/26 35/121/26 90/122/26 89/123/26
f 32/124/27 33/112/27 88/115/27 87/125/27
f 31/126/28 32/124/28 87/125/28 86/127/28
f 7/128/29 8/110/29 63/111/29 62/129/29
f 35/121/30 36/130/30 91/131/30 90/122/30
f 150/132/31 7/128/31 62/129/31 223/133/31
f 36/130/32 152/134/32 225/135/32 91/131/32
f 38/136/33 39/137/33 94/138/33 93/139/33
f 39/137/34 156/140/34 229/141/34 94/138/34
f 40/142/35 41/143/35 96/144/35 95/145/35
f 159/146/36 4/147/36 59/148/36 232/149/36
f 4/147/37 5/150/37 60/151/37 59/148/37
f 2/152/38 3/153/38 58/154/38 57/155/38
f 37/156/39 38/136/39 93/139/39 92/157/39
f 5/150/40 6/158/40 61/159/40 60/151/40
f 1/160/41 2/152/41 57/155/41 56/161/41
f 165/162/42 54/163/42 109/164/42 238/165/42
f 168/166/43 43/167/43 98/168/43 241/169/43
f 41/143/44 42/170/44 97/171/44 96/144/44
f 171/172/45 1/160/45 56/161/45 244/173/45
f 43/167/46 173/174/46 246/175/46 98/168/46
f 52/176/47 53/177/47 108/178/47 107/179/47
f 54/163/48 55/180/48 110/181/48 109/164/48
f 44/182/49 45/183/49 100/184/49 99/185/49
f 51/186/50 52/176/50 107/179/50 106/187/50
f 45/183/51 46/188/51 101/189/51 100/184/51
f 179/190/52 51/186/52 106/187/52 252/191/52
f 46/188/53 181/192/53 254/193/53 101/189/53
f 49/194/54 50/195/54 105/196/54 104/197/54
f 48/198/55 49/194/55 104/197/55 103/199/55
f 47/200/56 48/198/56 103/199/56 102/201/56
usemtl FrontMat.001
f 182/202/57 183/203/57 175/204/57
f 147/205/57 148/206/57 133/207/57
f 174/208/57 182/202/57 175/204/57
f 169/209/57 167/210/57 151/211/57
f 125/212/57 123/213/57 115/214/57
f 166/215/57 164/216/57 149/217/57
f 151/211/57 167/210/57 153/218/57
f 163/219/57 166/215/57 161/220/57
f 162/221/57 163/219/57 161/220/57
f 164/216/57 172/222/57 149/217/57
f 113/223/57 118/224/57 124/225/57
f 128/226/57 125/212/57 138/227/57
f 126/228/57 124/225/57 127/229/57
f 113/223/57 111/230/57 118/224/57
f 136/231/57 144/232/57 132/233/57
f 140/234/57 147/205/57 133/207/57
f 116/235/57 115/214/57 123/213/57
f 161/220/57 166/215/57 149/217/57
f 121/236/57 113/223/57 124/225/57
f 141/237/57 146/238/57 131/239/57
f 138/227/57 140/234/57 128/226/57
f 115/214/57 114/240/57 125/212/57
f 119/241/57 139/242/57 114/240/57
f 148/206/57 130/243/57 133/207/57
f 144/232/57 139/242/57 132/233/57
f 142/244/57 141/237/57 126/228/57
f 183/203/57 177/245/57 175/204/57
f 139/242/57 138/227/57 114/240/57
f 126/228/57 121/236/57 124/225/57
f 133/207/57 128/226/57 140/234/57
f 172/222/57 148/206/57 149/217/57
f 163/219/57 170/246/57 166/215/57
f 183/203/57 180/247/57 177/245/57
f 125/212/57 114/240/57 138/227/57
f 149/217/57 148/206/57 147/205/57
f 157/248/57 155/249/57 154/250/57
f 157/248/57 154/250/57 153/218/57
f 172/222/57 169/209/57 148/206/57
f 132/233/57 139/242/57 119/241/57
f 126/228/57 127/229/57 142/244/57
f 175/204/57 172/222/57 164/216/57
f 146/238/57 134/251/57 131/239/57
f 169/209/57 151/211/57 148/206/57
f 141/237/57 131/239/57 126/228/57
f 176/252/57 178/253/57 182/202/57
f 164/216/57 174/208/57 175/204/57
f 160/254/57 158/255/57 162/221/57
f 167/210/57 157/248/57 153/218/57
f 145/256/57 142/244/57 127/229/57
f 130/243/57 145/256/57 127/229/57
f 148/206/57 145/256/57 130/243/57
f 161/220/57 160/254/57 162/221/57
f 174/208/57 176/252/57 182/202/57
