# Blender v2.83.1 OBJ File: 'jigsaw-96x54-3-step2.blend'
# www.blender.org
mtllib piece.3846.mtl
o path7692
v 0.148930 0.037500 0.522777
v 0.072041 0.037500 0.503908
v 0.074383 0.037500 0.453929
v 0.110577 0.037500 0.387132
v 0.115467 0.037500 0.323578
v 0.045582 0.037500 0.281618
v -0.055794 0.037500 0.272759
v -0.123692 0.037500 0.306801
v -0.115368 0.037500 0.385543
v -0.077019 0.037500 0.478800
v -0.077072 0.037500 0.548389
v -0.162865 0.037500 0.566811
v -0.297394 0.037500 0.549304
v -0.523716 0.037500 0.497918
v -0.550335 0.037500 0.151274
v -0.531918 0.037500 0.067625
v -0.481720 0.037500 0.064973
v -0.412758 0.037500 0.097875
v -0.343616 0.037500 0.100745
v -0.291729 0.037500 0.029485
v -0.269981 0.037500 -0.074056
v -0.290108 0.037500 -0.146542
v -0.356201 0.037500 -0.145685
v -0.441799 0.037500 -0.113393
v -0.512798 0.037500 -0.112624
v -0.543873 0.037500 -0.187301
v -0.544781 0.037500 -0.305220
v -0.523716 0.037500 -0.503992
v -0.165787 0.037500 -0.537503
v -0.075813 0.037500 -0.517824
v -0.066235 0.037500 -0.462534
v -0.093796 0.037500 -0.390665
v -0.095501 0.037500 -0.328493
v -0.028919 0.037500 -0.297580
v 0.066090 0.037500 -0.300643
v 0.129097 0.037500 -0.335687
v 0.120331 0.037500 -0.397168
v 0.082569 0.037500 -0.465351
v 0.079243 0.037500 -0.516950
v 0.154415 0.037500 -0.535227
v 0.477985 0.037500 -0.503992
v 0.433708 0.037500 -0.194142
v 0.450096 0.037500 -0.121355
v 0.504025 0.037500 -0.122786
v 0.576046 0.037500 -0.155948
v 0.639091 0.037500 -0.159809
v 0.670906 0.037500 -0.093446
v 0.668495 0.037500 0.003606
v 0.633682 0.037500 0.071701
v 0.571945 0.037500 0.071540
v 0.503750 0.037500 0.045211
v 0.453255 0.037500 0.055151
v 0.437717 0.037500 0.144257
v 0.477985 0.037500 0.497918
v 0.148930 -0.037500 0.522777
v 0.072041 -0.037500 0.503908
v 0.074383 -0.037500 0.453929
v 0.110577 -0.037500 0.387132
v 0.115467 -0.037500 0.323578
v 0.045582 -0.037500 0.281618
v -0.055794 -0.037500 0.272759
v -0.123692 -0.037500 0.306801
v -0.115368 -0.037500 0.385543
v -0.077019 -0.037500 0.478800
v -0.077072 -0.037500 0.548389
v -0.162865 -0.037500 0.566811
v -0.297394 -0.037498 0.549304
v -0.523716 -0.037500 0.497918
v -0.550335 -0.037500 0.151274
v -0.531918 -0.037500 0.067625
v -0.481720 -0.037500 0.064973
v -0.412758 -0.037500 0.097875
v -0.343616 -0.037500 0.100745
v -0.291729 -0.037500 0.029485
v -0.269981 -0.037500 -0.074056
v -0.290108 -0.037500 -0.146542
v -0.356201 -0.037500 -0.145685
v -0.441799 -0.037500 -0.113393
v -0.512798 -0.037498 -0.112624
v -0.543873 -0.037500 -0.187301
v -0.544781 -0.037498 -0.305220
v -0.523716 -0.037498 -0.503992
v -0.165787 -0.037500 -0.537503
v -0.075813 -0.037498 -0.517824
v -0.066235 -0.037500 -0.462534
v -0.093796 -0.037500 -0.390665
v -0.095501 -0.037500 -0.328493
v -0.028919 -0.037500 -0.297580
v 0.066090 -0.037500 -0.300643
v 0.129097 -0.037500 -0.335687
v 0.120331 -0.037500 -0.397168
v 0.082569 -0.037500 -0.465351
v 0.079243 -0.037500 -0.516950
v 0.154415 -0.037500 -0.535227
v 0.477985 -0.037500 -0.503992
v 0.433708 -0.037500 -0.194142
v 0.450096 -0.037500 -0.121355
v 0.504025 -0.037500 -0.122786
v 0.576046 -0.037500 -0.155948
v 0.639091 -0.037500 -0.159809
v 0.670906 -0.037500 -0.093446
v 0.668495 -0.037498 0.003606
v 0.633682 -0.037500 0.071701
v 0.571945 -0.037500 0.071540
v 0.503750 -0.037500 0.045211
v 0.453255 -0.037500 0.055151
v 0.437717 -0.037500 0.144257
v 0.477985 -0.037500 0.497918
v 0.639091 0.037500 -0.159809
v 0.639091 0.037500 -0.159809
v 0.670906 0.037500 -0.093446
v 0.668495 0.037500 0.003606
v 0.633682 0.037500 0.071701
v 0.633682 0.037500 0.071701
v 0.576046 0.037500 -0.155948
v 0.571945 0.037500 0.071540
v 0.504025 0.037500 -0.122786
v 0.503750 0.037500 0.045211
v 0.450096 0.037500 -0.121355
v 0.450096 0.037500 -0.121355
v 0.453255 0.037500 0.055151
v 0.453255 0.037500 0.055151
v 0.437717 0.037500 0.144257
v 0.433708 0.037500 -0.194142
v 0.477985 0.037500 0.497918
v 0.477985 0.037500 0.497918
v 0.477985 0.037500 -0.503992
v 0.477985 0.037500 -0.503992
v 0.154415 0.037500 -0.535227
v 0.148930 0.037500 0.522777
v 0.079243 0.037500 -0.516950
v 0.079243 0.037500 -0.516950
v 0.129097 0.037500 -0.335687
v 0.129097 0.037500 -0.335687
v 0.120331 0.037500 -0.397168
v 0.110577 0.037500 0.387132
v 0.115467 0.037500 0.323578
v 0.115467 0.037500 0.323578
v 0.072041 0.037500 0.503908
v 0.072041 0.037500 0.503908
v 0.066090 0.037500 -0.300643
v 0.082569 0.037500 -0.465351
v 0.045582 0.037500 0.281618
v 0.074383 0.037500 0.453929
v -0.028919 0.037500 -0.297580
v -0.055794 0.037500 0.272759
v -0.095501 0.037500 -0.328493
v -0.095501 0.037500 -0.328493
v -0.123692 0.037500 0.306801
v -0.123692 0.037500 0.306801
v -0.075813 0.037500 -0.517824
v -0.075813 0.037500 -0.517824
v -0.066235 0.037500 -0.462534
v -0.093796 0.037500 -0.390665
v -0.165787 0.037500 -0.537503
v -0.115368 0.037500 0.385543
v -0.077019 0.037500 0.478800
v -0.077072 0.037500 0.548389
v -0.077072 0.037500 0.548389
v -0.162865 0.037500 0.566811
v -0.297394 0.037500 0.549304
v -0.269981 0.037500 -0.074056
v -0.290108 0.037500 -0.146542
v -0.290108 0.037500 -0.146542
v -0.291729 0.037500 0.029485
v -0.356201 0.037500 -0.145685
v -0.343616 0.037500 0.100745
v -0.412758 0.037500 0.097875
v -0.441799 0.037500 -0.113393
v -0.481720 0.037500 0.064973
v -0.523716 0.037500 -0.503992
v -0.523716 0.037500 -0.503992
v -0.512798 0.037500 -0.112624
v -0.512798 0.037500 -0.112624
v -0.531918 0.037500 0.067625
v -0.531918 0.037500 0.067625
v -0.523716 0.037500 0.497918
v -0.523716 0.037500 0.497918
v -0.543873 0.037500 -0.187301
v -0.550335 0.037500 0.151274
v -0.544781 0.037500 -0.305220
v 0.639091 -0.037500 -0.159809
v 0.639091 -0.037500 -0.159809
v 0.670906 -0.037500 -0.093446
v 0.668495 -0.037498 0.003606
v 0.633682 -0.037500 0.071701
v 0.633682 -0.037500 0.071701
v 0.576046 -0.037500 -0.155948
v 0.571945 -0.037500 0.071540
v 0.504025 -0.037500 -0.122786
v 0.503750 -0.037500 0.045211
v 0.450096 -0.037500 -0.121355
v 0.450096 -0.037500 -0.121355
v 0.453255 -0.037500 0.055151
v 0.453255 -0.037500 0.055151
v 0.437717 -0.037500 0.144257
v 0.433708 -0.037500 -0.194142
v 0.477985 -0.037500 0.497918
v 0.477985 -0.037500 0.497918
v 0.477985 -0.037500 -0.503992
v 0.477985 -0.037500 -0.503992
v 0.154415 -0.037500 -0.535227
v 0.148930 -0.037500 0.522777
v 0.079243 -0.037500 -0.516950
v 0.079243 -0.037500 -0.516950
v 0.129097 -0.037500 -0.335687
v 0.129097 -0.037500 -0.335687
v 0.120331 -0.037500 -0.397168
v 0.110577 -0.037500 0.387132
v 0.115467 -0.037500 0.323578
v 0.115467 -0.037500 0.323578
v 0.072041 -0.037500 0.503908
v 0.072041 -0.037500 0.503908
v 0.066090 -0.037500 -0.300643
v 0.082569 -0.037500 -0.465351
v 0.045582 -0.037500 0.281618
v 0.074383 -0.037500 0.453929
v -0.028919 -0.037500 -0.297580
v -0.055794 -0.037500 0.272759
v -0.095501 -0.037500 -0.328493
v -0.095501 -0.037500 -0.328493
v -0.123692 -0.037500 0.306801
v -0.123692 -0.037500 0.306801
v -0.075813 -0.037498 -0.517824
v -0.075813 -0.037498 -0.517824
v -0.066235 -0.037500 -0.462534
v -0.093796 -0.037500 -0.390665
v -0.165787 -0.037500 -0.537503
v -0.115368 -0.037500 0.385543
v -0.077019 -0.037500 0.478800
v -0.077072 -0.037500 0.548389
v -0.077072 -0.037500 0.548389
v -0.162865 -0.037500 0.566811
v -0.297394 -0.037498 0.549304
v -0.269981 -0.037500 -0.074056
v -0.290108 -0.037500 -0.146542
v -0.290108 -0.037500 -0.146542
v -0.291729 -0.037500 0.029485
v -0.356201 -0.037500 -0.145685
v -0.343616 -0.037500 0.100745
v -0.412758 -0.037500 0.097875
v -0.441799 -0.037500 -0.113393
v -0.481720 -0.037500 0.064973
v -0.523716 -0.037498 -0.503992
v -0.523716 -0.037498 -0.503992
v -0.512798 -0.037498 -0.112624
v -0.512798 -0.037498 -0.112624
v -0.531918 -0.037500 0.067625
v -0.531918 -0.037500 0.067625
v -0.523716 -0.037500 0.497918
v -0.523716 -0.037500 0.497918
v -0.543873 -0.037500 -0.187301
v -0.550335 -0.037500 0.151274
v -0.544781 -0.037498 -0.305220
vt 0.500000 0.500000
vt 0.500000 0.500000
vt 0.500000 0.500000
vt 0.500000 0.500000
vt 0.500000 0.500000
vt 0.500000 0.500000
vt 0.500000 0.500000
vt 0.500000 0.500000
vt 0.500000 0.500000
vt 0.500000 0.500000
vt 0.500000 0.500000
vt 0.500000 0.500000
vt 0.500000 0.500000
vt 0.500000 0.500000
vt 0.500000 0.500000
vt 0.500000 0.500000
vt 0.500000 0.500000
vt 0.500000 0.500000
vt 0.500000 0.500000
vt 0.500000 0.500000
vt 0.500000 0.500000
vt 0.500000 0.500000
vt 0.500000 0.500000
vt 0.500000 0.500000
vt 0.500000 0.500000
vt 0.500000 0.500000
vt 0.500000 0.500000
vt 0.500000 0.500000
vt 0.500000 0.500000
vt 0.500000 0.500000
vt 0.500000 0.500000
vt 0.500000 0.500000
vt 0.500000 0.500000
vt 0.500000 0.500000
vt 0.500000 0.500000
vt 0.500000 0.500000
vt 0.500000 0.500000
vt 0.500000 0.500000
vt 0.500000 0.500000
vt 0.500000 0.500000
vt 0.500000 0.500000
vt 0.500000 0.500000
vt 0.500000 0.500000
vt 0.500000 0.500000
vt 0.500000 0.500000
vt 0.500000 0.500000
vt 0.500000 0.500000
vt 0.500000 0.500000
vt 0.500000 0.500000
vt 0.500000 0.500000
vt 0.500000 0.500000
vt 0.500000 0.500000
vt 0.500000 0.500000
vt 0.500000 0.500000
vt 0.500000 0.500000
vt 0.500000 0.500000
vt 0.500000 0.500000
vt 0.500000 0.500000
vt 0.500000 0.500000
vt 0.500000 0.500000
vt 0.500000 0.500000
vt 0.500000 0.500000
vt 0.500000 0.500000
vt 0.500000 0.500000
vt 0.500000 0.500000
vt 0.500000 0.500000
vt 0.500000 0.500000
vt 0.500000 0.500000
vt 0.500000 0.500000
vt 0.500000 0.500000
vt 0.500000 0.500000
vt 0.500000 0.500000
vt 0.500000 0.500000
vt 0.500000 0.500000
vt 0.500000 0.500000
vt 0.500000 0.500000
vt 0.500000 0.500000
vt 0.500000 0.500000
vt 0.500000 0.500000
vt 0.500000 0.500000
vt 0.500000 0.500000
vt 0.500000 0.500000
vt 0.500000 0.500000
vt 0.500000 0.500000
vt 0.500000 0.500000
vt 0.500000 0.500000
vt 0.500000 0.500000
vt 0.500000 0.500000
vt 0.500000 0.500000
vt 0.500000 0.500000
vt 0.500000 0.500000
vt 0.500000 0.500000
vt 0.500000 0.500000
vt 0.500000 0.500000
vt 0.500000 0.500000
vt 0.500000 0.500000
vt 0.500000 0.500000
vt 0.500000 0.500000
vt 0.500000 0.500000
vt 0.500000 0.500000
vt 0.500000 0.500000
vt 0.500000 0.500000
vt 0.500000 0.500000
vt 0.500000 0.500000
vt 0.500000 0.500000
vt 0.500000 0.500000
vt 0.500000 0.500000
vt 0.500000 0.500000
vt 0.500000 0.500000
vt 0.500000 0.500000
vt 0.500000 0.500000
vt 0.500000 0.500000
vt 0.500000 0.500000
vt 0.500000 0.500000
vt 0.500000 0.500000
vt 0.500000 0.500000
vt 0.500000 0.500000
vt 0.500000 0.500000
vt 0.500000 0.500000
vt 0.500000 0.500000
vt 0.500000 0.500000
vt 0.500000 0.500000
vt 0.500000 0.500000
vt 0.500000 0.500000
vt 0.500000 0.500000
vt 0.500000 0.500000
vt 0.500000 0.500000
vt 0.500000 0.500000
vt 0.500000 0.500000
vt 0.500000 0.500000
vt 0.500000 0.500000
vt 0.500000 0.500000
vt 0.500000 0.500000
vt 0.500000 0.500000
vt 0.500000 0.500000
vt 0.500000 0.500000
vt 0.500000 0.500000
vt 0.500000 0.500000
vt 0.500000 0.500000
vt 0.500000 0.500000
vt 0.500000 0.500000
vt 0.500000 0.500000
vt 0.500000 0.500000
vt 0.500000 0.500000
vt 0.500000 0.500000
vt 0.500000 0.500000
vt 0.500000 0.500000
vt 0.500000 0.500000
vt 0.500000 0.500000
vt 0.500000 0.500000
vt 0.500000 0.500000
vt 0.500000 0.500000
vt 0.500000 0.500000
vt 0.500000 0.500000
vt 0.500000 0.500000
vt 0.500000 0.500000
vt 0.500000 0.500000
vt 0.500000 0.500000
vt 0.500000 0.500000
vt 0.500000 0.500000
vt 0.500000 0.500000
vt 0.500000 0.500000
vt 0.500000 0.500000
vt 0.500000 0.500000
vt 0.500000 0.500000
vt 0.500000 0.500000
vt 0.500000 0.500000
vt 0.500000 0.500000
vt 0.500000 0.500000
vt 0.500000 0.500000
vt 0.500000 0.500000
vt 0.500000 0.500000
vt 0.500000 0.500000
vt 0.500000 0.500000
vt 0.500000 0.500000
vt 0.500000 0.500000
vt 0.500000 0.500000
vt 0.500000 0.500000
vt 0.500000 0.500000
vt 0.500000 0.500000
vt 0.500000 0.500000
vt 0.500000 0.500000
vt 0.500000 0.500000
vt 0.500000 0.500000
vt 0.500000 0.500000
vt 0.500000 0.500000
vt 0.500000 0.500000
vt 0.500000 0.500000
vt 0.500000 0.500000
vt 0.500000 0.500000
vt 0.500000 0.500000
vt 0.500000 0.500000
vt 0.500000 0.500000
vt 0.500000 0.500000
vt 0.500000 0.500000
vt 0.500000 0.500000
vt 0.500000 0.500000
vt 0.500000 0.500000
vt 0.500000 0.500000
vt 0.500000 0.500000
vt 0.053262 0.248689
vt 0.052514 0.249198
vt 0.051735 0.247358
vt 0.057793 0.259736
vt 0.057361 0.262781
vt 0.056047 0.259741
vt 0.058341 0.242792
vt 0.057999 0.241517
vt 0.058896 0.240249
vt 0.063034 0.244925
vt 0.063216 0.247412
vt 0.061332 0.248290
vt 0.056352 0.262826
vt 0.055662 0.262238
vt 0.055702 0.261072
vt 0.062043 0.251798
vt 0.062562 0.251755
vt 0.062758 0.253176
vt 0.056062 0.258744
vt 0.055809 0.243838
vt 0.055800 0.245059
vt 0.054150 0.240351
vt 0.056152 0.240943
vt 0.056144 0.242255
vt 0.055376 0.240368
vt 0.052083 0.259259
vt 0.053194 0.252647
vt 0.053833 0.252809
vt 0.062500 0.259259
vt 0.058823 0.258515
vt 0.060687 0.252557
vt 0.062500 0.240741
vt 0.058067 0.260996
vt 0.051759 0.253277
vt 0.052485 0.251949
vt 0.058371 0.244070
vt 0.060513 0.248136
vt 0.057630 0.245030
vt 0.054198 0.251645
vt 0.060251 0.251265
vt 0.057897 0.258802
vt 0.061348 0.252467
vt 0.058069 0.262138
vt 0.063025 0.248998
vt 0.062301 0.248999
vt 0.060159 0.249391
vt 0.056553 0.245432
vt 0.055305 0.258441
vt 0.054229 0.249888
vt 0.053908 0.248657
vt 0.051949 0.251888
vt 0.051940 0.249021
vt 0.052083 0.240741
vt 0.058026 0.240589
vn 0.0000 -1.0000 0.0000
vn 0.9017 0.0000 -0.4323
vn 0.9997 0.0000 0.0248
vn 0.8904 0.0000 0.4552
vn -0.0611 0.0000 -0.9981
vn -0.0026 0.0000 1.0000
vn -0.4182 0.0000 -0.9083
vn -0.3602 0.0000 0.9329
vn -0.0265 0.0000 -0.9996
vn 0.1931 0.0000 0.9812
vn 0.9851 0.0000 0.1718
vn 0.9756 0.0000 -0.2196
vn 0.9936 0.0000 -0.1131
vn 0.9899 0.0000 0.1415
vn 0.0961 0.0000 -0.9954
vn 0.0753 0.0000 0.9972
vn -0.2363 0.0000 -0.9717
vn -0.9900 0.0000 0.1412
vn -0.9971 0.0000 -0.0767
vn -0.2383 0.0000 0.9712
vn -0.4861 0.0000 -0.8739
vn -0.9979 0.0000 0.0643
vn -0.8748 0.0000 0.4845
vn -0.5148 0.0000 0.8573
vn -0.8792 0.0000 -0.4764
vn -0.9989 0.0000 -0.0468
vn -0.0322 0.0000 -0.9995
vn -0.0870 0.0000 0.9962
vn 0.4211 0.0000 -0.9070
vn 0.4482 0.0000 0.8939
vn 0.9853 0.0000 -0.1707
vn 0.9337 0.0000 0.3581
vn 0.2137 0.0000 -0.9769
vn 0.9249 0.0000 -0.3803
vn 1.0000 0.0000 0.0008
vn 0.2099 0.0000 0.9777
vn 0.9996 0.0000 0.0274
vn 0.9945 0.0000 -0.1051
vn -0.1290 0.0000 0.9916
vn -0.9635 0.0000 0.2675
vn -0.9786 0.0000 -0.2056
vn 0.0130 0.0000 0.9999
vn -0.8084 0.0000 -0.5886
vn 0.0415 0.0000 -0.9991
vn 0.3530 0.0000 0.9356
vn 0.4306 0.0000 -0.9025
vn -0.0932 0.0000 -0.9956
vn 0.0108 0.0000 0.9999
vn -0.0528 0.0000 -0.9986
vn -0.2214 0.0000 0.9752
vn -0.9233 0.0000 0.3842
vn -0.9766 0.0000 -0.2150
vn -0.9944 0.0000 -0.1054
vn -1.0000 0.0000 0.0077
vn -0.9971 0.0000 0.0766
vn 0.0000 1.0000 0.0000
usemtl BackMat.001
s off
f 227/1/1 228/2/1 226/3/1
f 191/4/1 190/5/1 185/6/1
f 241/7/1 253/8/1 243/9/1
f 234/10/1 229/11/1 233/12/1
f 184/13/1 188/14/1 182/15/1
f 217/16/1 203/17/1 212/18/1
f 192/19/1 190/5/1 191/4/1
f 239/20/1 254/21/1 236/22/1
f 246/23/1 252/24/1 242/25/1
f 200/26/1 206/27/1 208/28/1
f 198/29/1 210/30/1 196/31/1
f 253/8/1 241/7/1 250/32/1
f 191/4/1 185/6/1 189/33/1
f 202/34/1 208/28/1 215/35/1
f 240/36/1 238/37/1 222/38/1
f 214/39/1 194/40/1 216/41/1
f 234/10/1 222/38/1 229/11/1
f 240/36/1 250/32/1 241/7/1
f 203/17/1 209/42/1 198/29/1
f 189/33/1 185/6/1 186/43/1
f 194/40/1 214/39/1 192/19/1
f 198/29/1 209/42/1 210/30/1
f 233/12/1 230/44/1 231/45/1
f 238/37/1 235/46/1 219/47/1
f 192/19/1 214/39/1 197/48/1
f 233/12/1 229/11/1 230/44/1
f 218/49/1 236/22/1 220/50/1
f 202/34/1 215/35/1 204/51/1
f 222/38/1 238/37/1 219/47/1
f 197/48/1 206/27/1 200/26/1
f 219/47/1 218/49/1 216/41/1
f 216/41/1 218/49/1 214/39/1
f 234/10/1 240/36/1 222/38/1
f 236/22/1 254/21/1 228/2/1
f 200/26/1 208/28/1 202/34/1
f 252/24/1 254/21/1 239/20/1
f 194/40/1 192/19/1 191/4/1
f 224/52/1 226/3/1 228/2/1
f 244/53/1 228/2/1 254/21/1
f 236/22/1 218/49/1 235/46/1
f 242/25/1 252/24/1 239/20/1
f 184/13/1 190/5/1 188/14/1
f 235/46/1 218/49/1 219/47/1
f 196/31/1 216/41/1 194/40/1
f 243/9/1 253/8/1 248/54/1
f 216/41/1 196/31/1 210/30/1
f 227/1/1 236/22/1 228/2/1
f 220/50/1 236/22/1 227/1/1
f 197/48/1 214/39/1 206/27/1
f 185/6/1 190/5/1 184/13/1
f 250/32/1 240/36/1 234/10/1
f 209/42/1 203/17/1 217/16/1
f 110/55/2 47/56/2 101/57/2 183/58/2
f 47/56/3 48/59/3 102/60/3 101/57/3
f 48/59/4 114/61/4 187/62/4 102/60/4
f 45/63/5 46/64/5 100/65/5 99/66/5
f 49/67/6 50/68/6 104/69/6 103/70/6
f 44/71/7 45/63/7 99/66/7 98/72/7
f 50/68/8 51/73/8 105/74/8 104/69/8
f 120/75/9 44/71/9 98/72/9 193/76/9
f 51/73/10 122/77/10 195/78/10 105/74/10
f 52/79/11 53/80/11 107/81/11 106/82/11
f 42/83/12 43/84/12 97/85/12 96/86/12
f 53/80/13 126/87/13 199/88/13 107/81/13
f 128/89/14 42/83/14 96/86/14 201/90/14
f 40/91/15 41/92/15 95/93/15 94/94/15
f 54/95/16 1/96/16 55/97/16 108/98/16
f 132/99/17 40/91/17 94/94/17 205/100/17
f 134/101/18 37/102/18 91/103/18 207/104/18
f 4/105/19 138/106/19 211/107/19 58/108/19
f 1/96/20 140/109/20 213/110/20 55/97/20
f 35/111/21 36/112/21 90/113/21 89/114/21
f 38/115/22 39/116/22 93/117/22 92/118/22
f 37/102/23 38/115/23 92/118/23 91/103/23
f 5/119/24 6/120/24 60/121/24 59/122/24
f 3/123/25 4/105/25 58/108/25 57/124/25
f 2/125/26 3/123/26 57/124/26 56/126/26
f 34/127/27 35/111/27 89/114/27 88/128/27
f 6/120/28 7/129/28 61/130/28 60/121/28
f 148/131/29 34/127/29 88/128/29 221/132/29
f 7/129/30 150/133/30 223/134/30 61/130/30
f 152/135/31 31/136/31 85/137/31 225/138/31
f 31/136/32 32/139/32 86/140/32 85/137/32
f 29/141/33 30/142/33 84/143/33 83/144/33
f 9/145/34 10/146/34 64/147/34 63/148/34
f 10/146/35 159/149/35 232/150/35 64/147/35
f 11/151/36 12/152/36 66/153/36 65/154/36
f 32/139/37 33/155/37 87/156/37 86/140/37
f 8/157/38 9/145/38 63/148/38 62/158/38
f 12/152/39 13/159/39 67/160/39 66/153/39
f 21/161/40 164/162/40 237/163/40 75/164/40
f 20/165/41 21/161/41 75/164/41 74/166/41
f 22/167/42 23/168/42 77/169/42 76/170/42
f 19/171/43 20/165/43 74/166/43 73/172/43
f 18/173/44 19/171/44 73/172/44 72/174/44
f 23/168/45 24/175/45 78/176/45 77/169/45
f 17/177/46 18/173/46 72/174/46 71/178/46
f 172/179/47 29/141/47 83/144/47 245/180/47
f 24/175/48 174/181/48 247/182/48 78/176/48
f 176/183/49 17/177/49 71/178/49 249/184/49
f 13/159/50 178/185/50 251/186/50 67/160/50
f 25/187/51 26/188/51 80/189/51 79/190/51
f 15/191/52 16/192/52 70/193/52 69/194/52
f 27/195/53 28/196/53 82/197/53 81/198/53
f 26/188/54 27/195/54 81/198/54 80/189/54
f 14/199/55 15/191/55 69/194/55 68/200/55
usemtl FrontMat.001
f 154/201/56 153/202/56 155/203/56
f 118/204/56 112/205/56 117/206/56
f 168/207/56 170/208/56 180/209/56
f 161/210/56 160/211/56 156/212/56
f 111/213/56 109/214/56 115/215/56
f 144/216/56 139/217/56 130/218/56
f 119/219/56 118/204/56 117/206/56
f 166/220/56 163/221/56 181/222/56
f 173/223/56 169/224/56 179/225/56
f 127/226/56 135/227/56 133/228/56
f 125/229/56 123/230/56 137/231/56
f 180/209/56 177/232/56 168/207/56
f 118/204/56 116/233/56 112/205/56
f 129/234/56 142/235/56 135/227/56
f 167/236/56 149/237/56 165/238/56
f 141/239/56 143/240/56 121/241/56
f 161/210/56 156/212/56 149/237/56
f 167/236/56 168/207/56 177/232/56
f 130/218/56 125/229/56 136/242/56
f 116/233/56 113/243/56 112/205/56
f 121/241/56 119/219/56 141/239/56
f 125/229/56 137/231/56 136/242/56
f 160/211/56 158/244/56 157/245/56
f 165/238/56 146/246/56 162/247/56
f 119/219/56 124/248/56 141/239/56
f 160/211/56 157/245/56 156/212/56
f 145/249/56 147/250/56 163/221/56
f 129/234/56 131/251/56 142/235/56
f 149/237/56 146/246/56 165/238/56
f 124/248/56 127/226/56 133/228/56
f 146/246/56 143/240/56 145/249/56
f 143/240/56 141/239/56 145/249/56
f 161/210/56 149/237/56 167/236/56
f 163/221/56 155/203/56 181/222/56
f 127/226/56 129/234/56 135/227/56
f 179/225/56 166/220/56 181/222/56
f 121/241/56 118/204/56 119/219/56
f 151/252/56 155/203/56 153/202/56
f 171/253/56 181/222/56 155/203/56
f 163/221/56 162/247/56 145/249/56
f 169/224/56 166/220/56 179/225/56
f 111/213/56 115/215/56 117/206/56
f 162/247/56 146/246/56 145/249/56
f 123/230/56 121/241/56 143/240/56
f 170/208/56 175/254/56 180/209/56
f 143/240/56 137/231/56 123/230/56
f 154/201/56 155/203/56 163/221/56
f 147/250/56 154/201/56 163/221/56
f 124/248/56 133/228/56 141/239/56
f 112/205/56 111/213/56 117/206/56
f 177/232/56 161/210/56 167/236/56
f 136/242/56 144/216/56 130/218/56
