# Blender v2.83.1 OBJ File: 'jigsaw-96x54-3-step2.blend'
# www.blender.org
mtllib piece.4753.mtl
o path9506
v -0.304981 0.037500 -0.463806
v -0.188293 0.037500 -0.456299
v -0.112080 0.037500 -0.481003
v -0.107632 0.037500 -0.550476
v -0.134373 0.037500 -0.641338
v -0.133755 0.037500 -0.721222
v -0.066734 0.037500 -0.763161
v 0.027866 0.037500 -0.761734
v 0.091728 0.037500 -0.716919
v 0.086773 0.037500 -0.634243
v 0.055916 0.037500 -0.541370
v 0.062317 0.037500 -0.471504
v 0.149368 0.037500 -0.448521
v 0.281509 0.037500 -0.458908
v 0.501747 0.037500 -0.498299
v 0.554985 0.037500 -0.282414
v 0.571590 0.037500 -0.152412
v 0.548069 0.037500 -0.065697
v 0.467678 0.037500 -0.056843
v 0.360157 0.037500 -0.083653
v 0.266861 0.037500 -0.084755
v 0.221272 0.037500 -0.018822
v 0.225395 0.037500 0.075241
v 0.273376 0.037500 0.138477
v 0.355404 0.037500 0.132118
v 0.445564 0.037500 0.098106
v 0.513966 0.037500 0.098572
v 0.539127 0.037500 0.176521
v 0.533180 0.037500 0.298504
v 0.501747 0.037500 0.503609
v 0.162449 0.037500 0.484726
v 0.077492 0.037500 0.507648
v 0.068874 0.037500 0.562447
v 0.094406 0.037500 0.632236
v 0.092911 0.037500 0.693806
v 0.023216 0.037500 0.727245
v -0.075764 0.037500 0.725845
v -0.145111 0.037500 0.686195
v -0.145653 0.037500 0.610756
v -0.117146 0.037500 0.525661
v -0.119091 0.037500 0.462944
v -0.192886 0.037500 0.445511
v -0.307548 0.037500 0.459816
v -0.499950 0.037500 0.503609
v -0.551651 0.037500 0.303360
v -0.570274 0.037500 0.185112
v -0.554684 0.037500 0.111477
v -0.489883 0.037500 0.115406
v -0.401306 0.037500 0.153053
v -0.324471 0.037500 0.161369
v -0.287846 0.037500 0.097897
v -0.291634 0.037500 0.002476
v -0.328979 0.037500 -0.064468
v -0.390598 0.037500 -0.063107
v -0.457417 0.037500 -0.036003
v -0.507919 0.037500 -0.046314
v -0.526672 0.037500 -0.137375
v -0.499950 0.037500 -0.498299
v -0.304981 -0.037500 -0.463806
v -0.188293 -0.037500 -0.456299
v -0.112080 -0.037500 -0.481003
v -0.107632 -0.037500 -0.550476
v -0.134373 -0.037500 -0.641338
v -0.133755 -0.037500 -0.721222
v -0.066734 -0.037500 -0.763161
v 0.027866 -0.037500 -0.761734
v 0.091728 -0.037500 -0.716919
v 0.086773 -0.037500 -0.634243
v 0.055916 -0.037500 -0.541370
v 0.062317 -0.037500 -0.471504
v 0.149368 -0.037500 -0.448521
v 0.281509 -0.037500 -0.458908
v 0.501747 -0.037500 -0.498299
v 0.554985 -0.037500 -0.282414
v 0.571590 -0.037500 -0.152412
v 0.548069 -0.037500 -0.065697
v 0.467678 -0.037500 -0.056843
v 0.360157 -0.037498 -0.083653
v 0.266861 -0.037500 -0.084755
v 0.221272 -0.037498 -0.018822
v 0.225395 -0.037500 0.075241
v 0.273376 -0.037500 0.138477
v 0.355404 -0.037500 0.132118
v 0.445564 -0.037500 0.098106
v 0.513966 -0.037500 0.098572
v 0.539127 -0.037500 0.176521
v 0.533180 -0.037500 0.298504
v 0.501747 -0.037500 0.503609
v 0.162449 -0.037500 0.484726
v 0.077492 -0.037500 0.507648
v 0.068874 -0.037500 0.562447
v 0.094406 -0.037498 0.632236
v 0.092911 -0.037500 0.693806
v 0.023216 -0.037498 0.727245
v -0.075764 -0.037500 0.725845
v -0.145111 -0.037500 0.686195
v -0.145653 -0.037498 0.610756
v -0.117146 -0.037500 0.525661
v -0.119091 -0.037500 0.462944
v -0.192886 -0.037498 0.445511
v -0.307548 -0.037500 0.459816
v -0.499950 -0.037498 0.503609
v -0.551651 -0.037500 0.303360
v -0.570274 -0.037500 0.185112
v -0.554684 -0.037500 0.111477
v -0.489883 -0.037498 0.115406
v -0.401306 -0.037500 0.153053
v -0.324471 -0.037500 0.161369
v -0.287846 -0.037500 0.097897
v -0.291634 -0.037500 0.002476
v -0.328979 -0.037500 -0.064468
v -0.390598 -0.037500 -0.063107
v -0.457417 -0.037500 -0.036003
v -0.507919 -0.037500 -0.046314
v -0.526672 -0.037500 -0.137375
v -0.499950 -0.037500 -0.498299
v -0.551651 0.037500 0.303360
v -0.570274 0.037500 0.185112
v -0.554684 0.037500 0.111477
v -0.554684 0.037500 0.111477
v -0.489883 0.037500 0.115406
v -0.507919 0.037500 -0.046314
v -0.507919 0.037500 -0.046314
v -0.526672 0.037500 -0.137375
v -0.499950 0.037500 0.503609
v -0.499950 0.037500 0.503609
v -0.457417 0.037500 -0.036003
v -0.499950 0.037500 -0.498299
v -0.499950 0.037500 -0.498299
v -0.401306 0.037500 0.153053
v -0.390598 0.037500 -0.063107
v -0.307548 0.037500 0.459816
v -0.304981 0.037500 -0.463806
v -0.324471 0.037500 0.161369
v -0.324471 0.037500 0.161369
v -0.328979 0.037500 -0.064468
v -0.328979 0.037500 -0.064468
v -0.291634 0.037500 0.002476
v -0.287846 0.037500 0.097897
v -0.192886 0.037500 0.445511
v -0.188293 0.037500 -0.456299
v -0.119091 0.037500 0.462944
v -0.119091 0.037500 0.462944
v -0.112080 0.037500 -0.481003
v -0.112080 0.037500 -0.481003
v -0.145111 0.037500 0.686195
v -0.145653 0.037500 0.610756
v -0.117146 0.037500 0.525661
v -0.075764 0.037500 0.725845
v -0.107632 0.037500 -0.550476
v -0.134373 0.037500 -0.641338
v -0.133755 0.037500 -0.721222
v -0.066734 0.037500 -0.763161
v 0.023216 0.037500 0.727245
v 0.027866 0.037500 -0.761734
v 0.092911 0.037500 0.693806
v 0.092911 0.037500 0.693806
v 0.091728 0.037500 -0.716919
v 0.055916 0.037500 -0.541370
v 0.062317 0.037500 -0.471504
v 0.062317 0.037500 -0.471504
v 0.086773 0.037500 -0.634243
v 0.149368 0.037500 -0.448521
v 0.094406 0.037500 0.632236
v 0.068874 0.037500 0.562447
v 0.077492 0.037500 0.507648
v 0.077492 0.037500 0.507648
v 0.162449 0.037500 0.484726
v 0.281509 0.037500 -0.458908
v 0.221272 0.037500 -0.018822
v 0.225395 0.037500 0.075241
v 0.266861 0.037500 -0.084755
v 0.273376 0.037500 0.138477
v 0.360157 0.037500 -0.083653
v 0.355404 0.037500 0.132118
v 0.445564 0.037500 0.098106
v 0.467678 0.037500 -0.056843
v 0.501747 0.037500 0.503609
v 0.501747 0.037500 0.503609
v 0.513966 0.037500 0.098572
v 0.513966 0.037500 0.098572
v 0.548069 0.037500 -0.065697
v 0.548069 0.037500 -0.065697
v 0.501747 0.037500 -0.498299
v 0.501747 0.037500 -0.498299
v 0.539127 0.037500 0.176521
v 0.533180 0.037500 0.298504
v 0.554985 0.037500 -0.282414
v 0.571590 0.037500 -0.152412
v -0.551651 -0.037500 0.303360
v -0.570274 -0.037500 0.185112
v -0.554684 -0.037500 0.111477
v -0.554684 -0.037500 0.111477
v -0.489883 -0.037498 0.115406
v -0.507919 -0.037500 -0.046314
v -0.507919 -0.037500 -0.046314
v -0.526672 -0.037500 -0.137375
v -0.499950 -0.037498 0.503609
v -0.499950 -0.037498 0.503609
v -0.457417 -0.037500 -0.036003
v -0.499950 -0.037500 -0.498299
v -0.499950 -0.037500 -0.498299
v -0.401306 -0.037500 0.153053
v -0.390598 -0.037500 -0.063107
v -0.307548 -0.037500 0.459816
v -0.304981 -0.037500 -0.463806
v -0.324471 -0.037500 0.161369
v -0.324471 -0.037500 0.161369
v -0.328979 -0.037500 -0.064468
v -0.328979 -0.037500 -0.064468
v -0.291634 -0.037500 0.002476
v -0.287846 -0.037500 0.097897
v -0.192886 -0.037498 0.445511
v -0.188293 -0.037500 -0.456299
v -0.119091 -0.037500 0.462944
v -0.119091 -0.037500 0.462944
v -0.112080 -0.037500 -0.481003
v -0.112080 -0.037500 -0.481003
v -0.145111 -0.037500 0.686195
v -0.145653 -0.037498 0.610756
v -0.117146 -0.037500 0.525661
v -0.075764 -0.037500 0.725845
v -0.107632 -0.037500 -0.550476
v -0.134373 -0.037500 -0.641338
v -0.133755 -0.037500 -0.721222
v -0.066734 -0.037500 -0.763161
v 0.023216 -0.037498 0.727245
v 0.027866 -0.037500 -0.761734
v 0.092911 -0.037500 0.693806
v 0.092911 -0.037500 0.693806
v 0.091728 -0.037500 -0.716919
v 0.055916 -0.037500 -0.541370
v 0.062317 -0.037500 -0.471504
v 0.062317 -0.037500 -0.471504
v 0.086773 -0.037500 -0.634243
v 0.149368 -0.037500 -0.448521
v 0.094406 -0.037498 0.632236
v 0.068874 -0.037500 0.562447
v 0.077492 -0.037500 0.507648
v 0.077492 -0.037500 0.507648
v 0.162449 -0.037500 0.484726
v 0.281509 -0.037500 -0.458908
v 0.221272 -0.037498 -0.018822
v 0.225395 -0.037500 0.075241
v 0.266861 -0.037500 -0.084755
v 0.273376 -0.037500 0.138477
v 0.360157 -0.037498 -0.083653
v 0.355404 -0.037500 0.132118
v 0.445564 -0.037500 0.098106
v 0.467678 -0.037500 -0.056843
v 0.501747 -0.037500 0.503609
v 0.501747 -0.037500 0.503609
v 0.513966 -0.037500 0.098572
v 0.513966 -0.037500 0.098572
v 0.548069 -0.037500 -0.065697
v 0.548069 -0.037500 -0.065697
v 0.501747 -0.037500 -0.498299
v 0.501747 -0.037500 -0.498299
v 0.539127 -0.037500 0.176521
v 0.533180 -0.037500 0.298504
v 0.554985 -0.037500 -0.282414
v 0.571590 -0.037500 -0.152412
vt 0.500000 0.500000
vt 0.500000 0.500000
vt 0.500000 0.500000
vt 0.500000 0.500000
vt 0.500000 0.500000
vt 0.500000 0.500000
vt 0.500000 0.500000
vt 0.500000 0.500000
vt 0.500000 0.500000
vt 0.500000 0.500000
vt 0.500000 0.500000
vt 0.500000 0.500000
vt 0.500000 0.500000
vt 0.500000 0.500000
vt 0.500000 0.500000
vt 0.500000 0.500000
vt 0.500000 0.500000
vt 0.500000 0.500000
vt 0.500000 0.500000
vt 0.500000 0.500000
vt 0.500000 0.500000
vt 0.500000 0.500000
vt 0.500000 0.500000
vt 0.500000 0.500000
vt 0.500000 0.500000
vt 0.500000 0.500000
vt 0.500000 0.500000
vt 0.500000 0.500000
vt 0.500000 0.500000
vt 0.500000 0.500000
vt 0.500000 0.500000
vt 0.500000 0.500000
vt 0.500000 0.500000
vt 0.500000 0.500000
vt 0.500000 0.500000
vt 0.500000 0.500000
vt 0.500000 0.500000
vt 0.500000 0.500000
vt 0.500000 0.500000
vt 0.500000 0.500000
vt 0.500000 0.500000
vt 0.500000 0.500000
vt 0.500000 0.500000
vt 0.500000 0.500000
vt 0.500000 0.500000
vt 0.500000 0.500000
vt 0.500000 0.500000
vt 0.500000 0.500000
vt 0.500000 0.500000
vt 0.500000 0.500000
vt 0.500000 0.500000
vt 0.500000 0.500000
vt 0.500000 0.500000
vt 0.500000 0.500000
vt 0.500000 0.500000
vt 0.500000 0.500000
vt 0.500000 0.500000
vt 0.500000 0.500000
vt 0.500000 0.500000
vt 0.500000 0.500000
vt 0.500000 0.500000
vt 0.500000 0.500000
vt 0.500000 0.500000
vt 0.500000 0.500000
vt 0.500000 0.500000
vt 0.500000 0.500000
vt 0.500000 0.500000
vt 0.500000 0.500000
vt 0.500000 0.500000
vt 0.500000 0.500000
vt 0.500000 0.500000
vt 0.500000 0.500000
vt 0.500000 0.500000
vt 0.500000 0.500000
vt 0.500000 0.500000
vt 0.500000 0.500000
vt 0.500000 0.500000
vt 0.500000 0.500000
vt 0.500000 0.500000
vt 0.500000 0.500000
vt 0.500000 0.500000
vt 0.500000 0.500000
vt 0.500000 0.500000
vt 0.500000 0.500000
vt 0.500000 0.500000
vt 0.500000 0.500000
vt 0.500000 0.500000
vt 0.500000 0.500000
vt 0.500000 0.500000
vt 0.500000 0.500000
vt 0.500000 0.500000
vt 0.500000 0.500000
vt 0.500000 0.500000
vt 0.500000 0.500000
vt 0.500000 0.500000
vt 0.500000 0.500000
vt 0.500000 0.500000
vt 0.500000 0.500000
vt 0.500000 0.500000
vt 0.500000 0.500000
vt 0.500000 0.500000
vt 0.500000 0.500000
vt 0.500000 0.500000
vt 0.500000 0.500000
vt 0.500000 0.500000
vt 0.500000 0.500000
vt 0.500000 0.500000
vt 0.500000 0.500000
vt 0.500000 0.500000
vt 0.500000 0.500000
vt 0.500000 0.500000
vt 0.500000 0.500000
vt 0.500000 0.500000
vt 0.500000 0.500000
vt 0.500000 0.500000
vt 0.500000 0.500000
vt 0.500000 0.500000
vt 0.500000 0.500000
vt 0.500000 0.500000
vt 0.500000 0.500000
vt 0.500000 0.500000
vt 0.500000 0.500000
vt 0.500000 0.500000
vt 0.500000 0.500000
vt 0.500000 0.500000
vt 0.500000 0.500000
vt 0.500000 0.500000
vt 0.500000 0.500000
vt 0.500000 0.500000
vt 0.500000 0.500000
vt 0.500000 0.500000
vt 0.500000 0.500000
vt 0.500000 0.500000
vt 0.500000 0.500000
vt 0.500000 0.500000
vt 0.500000 0.500000
vt 0.500000 0.500000
vt 0.500000 0.500000
vt 0.500000 0.500000
vt 0.500000 0.500000
vt 0.500000 0.500000
vt 0.500000 0.500000
vt 0.500000 0.500000
vt 0.500000 0.500000
vt 0.500000 0.500000
vt 0.500000 0.500000
vt 0.500000 0.500000
vt 0.500000 0.500000
vt 0.500000 0.500000
vt 0.500000 0.500000
vt 0.500000 0.500000
vt 0.500000 0.500000
vt 0.500000 0.500000
vt 0.500000 0.500000
vt 0.500000 0.500000
vt 0.500000 0.500000
vt 0.500000 0.500000
vt 0.500000 0.500000
vt 0.500000 0.500000
vt 0.500000 0.500000
vt 0.500000 0.500000
vt 0.500000 0.500000
vt 0.500000 0.500000
vt 0.500000 0.500000
vt 0.500000 0.500000
vt 0.500000 0.500000
vt 0.500000 0.500000
vt 0.500000 0.500000
vt 0.500000 0.500000
vt 0.500000 0.500000
vt 0.500000 0.500000
vt 0.500000 0.500000
vt 0.500000 0.500000
vt 0.500000 0.500000
vt 0.500000 0.500000
vt 0.500000 0.500000
vt 0.500000 0.500000
vt 0.500000 0.500000
vt 0.500000 0.500000
vt 0.500000 0.500000
vt 0.500000 0.500000
vt 0.500000 0.500000
vt 0.500000 0.500000
vt 0.500000 0.500000
vt 0.500000 0.500000
vt 0.500000 0.500000
vt 0.500000 0.500000
vt 0.500000 0.500000
vt 0.500000 0.500000
vt 0.500000 0.500000
vt 0.500000 0.500000
vt 0.500000 0.500000
vt 0.500000 0.500000
vt 0.500000 0.500000
vt 0.500000 0.500000
vt 0.500000 0.500000
vt 0.500000 0.500000
vt 0.500000 0.500000
vt 0.500000 0.500000
vt 0.500000 0.500000
vt 0.500000 0.500000
vt 0.500000 0.500000
vt 0.500000 0.500000
vt 0.500000 0.500000
vt 0.500604 0.086916
vt 0.500423 0.085552
vt 0.504218 0.088671
vt 0.500196 0.080347
vt 0.502132 0.073493
vt 0.503796 0.078296
vt 0.499771 0.085516
vt 0.498886 0.086043
vt 0.499388 0.082077
vt 0.511830 0.081746
vt 0.512690 0.081654
vt 0.513156 0.082835
vt 0.503401 0.073383
vt 0.503862 0.076780
vt 0.508172 0.073090
vt 0.510417 0.074074
vt 0.510007 0.078146
vt 0.513170 0.084584
vt 0.510138 0.082198
vt 0.510237 0.085422
vt 0.505432 0.079259
vt 0.510417 0.092593
vt 0.506664 0.093087
vt 0.510058 0.088988
vt 0.504454 0.079183
vt 0.505906 0.089432
vt 0.505210 0.088741
vt 0.499958 0.081917
vt 0.506821 0.072783
vt 0.506106 0.076692
vt 0.509899 0.080589
vt 0.506117 0.078416
vt 0.510864 0.082316
vt 0.503558 0.089349
vt 0.503645 0.090769
vt 0.500455 0.089036
vt 0.505892 0.090571
vt 0.509980 0.086831
vt 0.510959 0.085340
vt 0.505827 0.074704
vt 0.505919 0.073218
vt 0.511904 0.085834
vt 0.512734 0.085823
vt 0.497675 0.082921
vt 0.498663 0.081605
vt 0.498023 0.081632
vt 0.497689 0.084751
vt 0.504216 0.075113
vt 0.502082 0.093548
vt 0.505610 0.091806
vt 0.500000 0.074074
vt 0.498102 0.086033
vt 0.504036 0.092407
vt 0.503311 0.093893
vt 0.504077 0.093605
vt 0.504211 0.073848
vt 0.505718 0.092740
vt 0.500000 0.092593
vn -0.0000 -1.0000 0.0000
vn -0.0001 -1.0000 -0.0000
vn -0.9878 0.0000 0.1556
vn -0.9783 0.0000 -0.2071
vn 0.0605 0.0000 -0.9982
vn -0.9794 0.0000 0.2017
vn -0.9682 0.0000 0.2500
vn -0.2000 0.0000 0.9798
vn -0.9973 0.0000 -0.0738
vn 0.3912 0.0000 -0.9203
vn 0.3759 0.0000 0.9267
vn 0.2219 0.0000 0.9751
vn 0.1742 0.0000 -0.9847
vn 0.1076 0.0000 -0.9942
vn 0.0221 0.0000 0.9998
vn -0.8733 0.0000 0.4872
vn -0.8662 0.0000 -0.4998
vn 0.1238 0.0000 0.9923
vn 0.0642 0.0000 -0.9979
vn -0.9992 0.0000 0.0397
vn -0.2299 0.0000 0.9732
vn -0.3083 0.0000 -0.9513
vn -1.0000 0.0000 0.0072
vn -0.9482 0.0000 -0.3177
vn -0.4964 0.0000 0.8681
vn -0.9593 0.0000 0.2823
vn -1.0000 0.0000 -0.0077
vn -0.5305 0.0000 -0.8477
vn -0.9995 0.0000 0.0310
vn -0.9980 0.0000 -0.0639
vn -0.0141 0.0000 0.9999
vn 0.0151 0.0000 -0.9999
vn 0.4326 0.0000 0.9016
vn 0.5744 0.0000 -0.8186
vn 0.9958 0.0000 -0.0912
vn 0.9490 0.0000 0.3153
vn 0.9982 0.0000 0.0598
vn 0.2553 0.0000 -0.9669
vn 0.9997 0.0000 0.0243
vn 0.9391 0.0000 -0.3436
vn 0.9879 0.0000 0.1553
vn 0.2605 0.0000 0.9655
vn -0.0784 0.0000 -0.9969
vn 0.9990 0.0000 -0.0438
vn 0.8225 0.0000 0.5687
vn 0.7966 0.0000 -0.6045
vn -0.0118 0.0000 0.9999
vn -0.0773 0.0000 -0.9970
vn -0.3530 0.0000 -0.9356
vn -0.2419 0.0000 0.9703
vn -0.0556 0.0000 0.9985
vn 0.0068 0.0000 -1.0000
vn 0.1095 0.0000 0.9940
vn -0.1761 0.0000 -0.9844
vn 0.9516 0.0000 -0.3072
vn 0.9885 0.0000 0.1515
vn 0.9988 0.0000 0.0487
vn 0.9709 0.0000 -0.2394
vn 0.9651 0.0000 0.2618
vn 0.9919 0.0000 -0.1267
vn 0.0000 1.0000 0.0000
usemtl BackMat.001
s off
f 213/1/1 212/2/1 215/3/1
f 241/4/1 246/5/1 260/6/1
f 221/7/1 238/8/1 220/9/1
f 235/10/1 228/11/1 231/12/1
f 260/6/1 248/13/1 259/14/1
f 261/15/1 242/16/1 257/17/1
f 228/11/1 235/10/1 226/18/1
f 233/19/1 243/20/1 217/21/1
f 201/22/1 206/23/1 197/24/1
f 212/2/1 244/25/1 215/3/1
f 209/26/1 217/21/1 211/27/1
f 215/3/1 244/25/1 239/28/1
f 262/29/1 247/30/1 261/15/1
f 261/15/1 247/30/1 242/16/1
f 236/31/1 245/32/1 233/19/1
f 217/21/1 232/33/1 233/19/1
f 207/34/1 205/35/1 203/36/1
f 206/23/1 209/26/1 204/37/1
f 233/19/1 245/32/1 243/20/1
f 214/38/1 209/26/1 206/23/1
f 260/6/1 246/5/1 248/13/1
f 206/23/1 204/37/1 197/24/1
f 235/10/1 232/33/1 223/39/1
f 250/40/1 262/29/1 255/41/1
f 242/16/1 245/32/1 236/31/1
f 239/28/1 246/5/1 241/4/1
f 224/42/1 226/18/1 235/10/1
f 211/27/1 244/25/1 212/2/1
f 242/16/1 247/30/1 245/32/1
f 225/43/1 226/18/1 224/42/1
f 238/8/1 237/44/1 227/45/1
f 221/7/1 239/28/1 238/8/1
f 227/45/2 237/44/2 229/46/2
f 222/47/1 238/8/1 227/45/1
f 215/3/1 239/28/1 221/7/1
f 224/42/1 235/10/1 223/39/1
f 211/27/1 217/21/1 243/20/1
f 259/14/1 248/13/1 249/48/1
f 190/49/1 203/36/1 205/35/1
f 247/30/1 262/29/1 250/40/1
f 207/34/1 212/2/1 213/1/1
f 220/9/1 238/8/1 222/47/1
f 200/50/1 197/24/1 204/37/1
f 217/21/1 209/26/1 214/38/1
f 223/39/1 232/33/1 217/21/1
f 241/4/1 260/6/1 251/51/1
f 220/9/1 222/47/1 219/52/1
f 205/35/1 207/34/1 213/1/1
f 203/36/1 191/53/1 194/54/1
f 194/54/1 191/53/1 192/55/1
f 259/14/1 249/48/1 253/56/1
f 195/57/1 197/24/1 200/50/1
f 191/53/1 203/36/1 190/49/1
f 244/25/1 246/5/1 239/28/1
f 190/49/1 205/35/1 198/58/1
f 243/20/1 244/25/1 211/27/1
f 45/59/3 46/60/3 104/61/3 103/62/3
f 46/60/4 120/63/4 193/64/4 104/61/4
f 47/65/5 48/66/5 106/67/5 105/68/5
f 123/69/6 57/70/6 115/71/6 196/72/6
f 126/73/7 45/59/7 103/62/7 199/74/7
f 55/75/8 56/76/8 114/77/8 113/78/8
f 57/70/9 129/79/9 202/80/9 115/71/9
f 48/66/10 49/81/10 107/82/10 106/67/10
f 54/83/11 55/75/11 113/78/11 112/84/11
f 43/85/12 44/86/12 102/87/12 101/88/12
f 58/89/13 1/90/13 59/91/13 116/92/13
f 49/81/14 135/93/14 208/94/14 107/82/14
f 137/95/15 54/83/15 112/84/15 210/96/15
f 52/97/16 53/98/16 111/99/16 110/100/16
f 50/101/17 51/102/17 109/103/17 108/104/17
f 42/105/18 43/85/18 101/88/18 100/106/18
f 1/90/19 2/107/19 60/108/19 59/91/19
f 51/102/20 52/97/20 110/100/20 109/103/20
f 143/109/21 42/105/21 100/106/21 216/110/21
f 2/107/22 145/111/22 218/112/22 60/108/22
f 38/113/23 39/114/23 97/115/23 96/116/23
f 39/114/24 40/117/24 98/118/24 97/115/24
f 37/119/25 38/113/25 96/116/25 95/120/25
f 4/121/26 5/122/26 63/123/26 62/124/26
f 5/122/27 6/125/27 64/126/27 63/123/27
f 6/125/28 7/127/28 65/128/28 64/126/28
f 40/117/29 41/129/29 99/130/29 98/118/29
f 3/131/30 4/121/30 62/124/30 61/132/30
f 36/133/31 37/119/31 95/120/31 94/134/31
f 7/127/32 8/135/32 66/136/32 65/128/32
f 157/137/33 36/133/33 94/134/33 230/138/33
f 8/135/34 9/139/34 67/140/34 66/136/34
f 11/141/35 161/142/35 234/143/35 69/144/35
f 10/145/36 11/141/36 69/144/36 68/146/36
f 9/139/37 10/145/37 68/146/37 67/140/37
f 12/147/38 13/148/38 71/149/38 70/150/38
f 34/151/39 35/152/39 93/153/39 92/154/39
f 33/155/40 34/151/40 92/154/40 91/156/40
f 167/157/41 33/155/41 91/156/41 240/158/41
f 31/159/42 32/160/42 90/161/42 89/162/42
f 13/148/43 14/163/43 72/164/43 71/149/43
f 22/165/44 23/166/44 81/167/44 80/168/44
f 21/169/45 22/165/45 80/168/45 79/170/45
f 23/166/46 24/171/46 82/172/46 81/167/46
f 20/173/47 21/169/47 79/170/47 78/174/47
f 24/171/48 25/175/48 83/176/48 82/172/48
f 25/175/49 26/177/49 84/178/49 83/176/49
f 19/179/50 20/173/50 78/174/50 77/180/50
f 179/181/51 31/159/51 89/162/51 252/182/51
f 26/177/52 181/183/52 254/184/52 84/178/52
f 183/185/53 19/179/53 77/180/53 256/186/53
f 14/163/54 185/187/54 258/188/54 72/164/54
f 27/189/55 28/190/55 86/191/55 85/192/55
f 29/193/56 30/194/56 88/195/56 87/196/56
f 28/190/57 29/193/57 87/196/57 86/191/57
f 15/197/58 16/198/58 74/199/58 73/200/58
f 17/201/59 18/202/59 76/203/59 75/204/59
f 16/198/60 17/201/60 75/204/60 74/199/60
usemtl FrontMat.001
f 140/205/61 142/206/61 139/207/61
f 168/208/61 187/209/61 173/210/61
f 148/211/61 147/212/61 165/213/61
f 162/214/61 158/215/61 155/216/61
f 187/209/61 186/217/61 175/218/61
f 188/219/61 184/220/61 169/221/61
f 155/216/61 153/222/61 162/214/61
f 160/223/61 144/224/61 170/225/61
f 128/226/61 124/227/61 133/228/61
f 139/207/61 142/206/61 171/229/61
f 136/230/61 138/231/61 144/224/61
f 142/206/61 166/232/61 171/229/61
f 189/233/61 188/219/61 174/234/61
f 188/219/61 169/221/61 174/234/61
f 163/235/61 160/223/61 172/236/61
f 144/224/61 160/223/61 159/237/61
f 134/238/61 130/239/61 132/240/61
f 133/228/61 131/241/61 136/230/61
f 160/223/61 170/225/61 172/236/61
f 141/242/61 133/228/61 136/230/61
f 187/209/61 175/218/61 173/210/61
f 133/228/61 124/227/61 131/241/61
f 162/214/61 150/243/61 159/237/61
f 177/244/61 182/245/61 189/233/61
f 169/221/61 163/235/61 172/236/61
f 166/232/61 168/208/61 173/210/61
f 151/246/61 162/214/61 153/222/61
f 138/231/61 139/207/61 171/229/61
f 169/221/61 172/236/61 174/234/61
f 152/247/61 151/246/61 153/222/61
f 165/213/61 154/248/61 164/249/61
f 148/211/61 165/213/61 166/232/61
f 154/248/61 156/250/61 164/249/61
f 149/251/61 154/248/61 165/213/61
f 142/206/61 148/211/61 166/232/61
f 151/246/61 150/243/61 162/214/61
f 138/231/61 170/225/61 144/224/61
f 186/217/61 176/252/61 175/218/61
f 117/253/61 132/240/61 130/239/61
f 174/234/61 177/244/61 189/233/61
f 134/238/61 140/205/61 139/207/61
f 147/212/61 149/251/61 165/213/61
f 127/254/61 131/241/61 124/227/61
f 144/224/61 141/242/61 136/230/61
f 150/243/61 144/224/61 159/237/61
f 168/208/61 178/255/61 187/209/61
f 147/212/61 146/256/61 149/251/61
f 132/240/61 140/205/61 134/238/61
f 130/239/61 121/257/61 118/258/61
f 121/257/61 119/259/61 118/258/61
f 186/217/61 180/260/61 176/252/61
f 122/261/61 127/254/61 124/227/61
f 118/258/61 117/253/61 130/239/61
f 171/229/61 166/232/61 173/210/61
f 117/253/61 125/262/61 132/240/61
f 170/225/61 138/231/61 171/229/61
