# Blender v2.83.1 OBJ File: 'jigsaw-96x54-3-step2.blend'
# www.blender.org
mtllib piece.2393.mtl
o path4786
v -0.329140 0.037500 -0.558220
v -0.208290 0.037500 -0.565947
v -0.133751 0.037500 -0.542452
v -0.139282 0.037500 -0.475607
v -0.178642 0.037500 -0.388659
v -0.185600 0.037500 -0.313694
v -0.115677 0.037500 -0.276787
v -0.011337 0.037500 -0.279907
v 0.063187 0.037500 -0.319002
v 0.065048 0.037500 -0.386673
v 0.036827 0.037500 -0.461971
v 0.042473 0.037500 -0.520586
v 0.126312 0.037500 -0.544899
v 0.467583 0.037500 -0.524149
v 0.447098 0.037500 -0.190783
v 0.471092 0.037500 -0.114937
v 0.529167 0.037500 -0.121449
v 0.605095 0.037500 -0.163565
v 0.676270 0.037500 -0.174147
v 0.722298 0.037500 -0.107826
v 0.731544 0.037500 -0.006351
v 0.694595 0.037500 0.066757
v 0.610222 0.037500 0.069067
v 0.509850 0.037500 0.042469
v 0.433098 0.037500 0.049938
v 0.408669 0.037500 0.135027
v 0.421600 0.037500 0.263580
v 0.467583 0.037500 0.477549
v 0.101288 0.037500 0.428890
v 0.014320 0.037500 0.447803
v 0.014732 0.037500 0.508801
v 0.055588 0.037500 0.589550
v 0.068756 0.037500 0.659084
v 0.007713 0.037500 0.692238
v -0.087646 0.037500 0.687086
v -0.155846 0.037500 0.647503
v -0.155746 0.037500 0.580839
v -0.127609 0.037500 0.508331
v -0.132042 0.037500 0.454693
v -0.211021 0.037500 0.437563
v -0.534332 0.037500 0.477549
v -0.577591 0.037500 0.111204
v -0.557549 0.037500 0.024113
v -0.496315 0.037500 0.024107
v -0.412537 0.037500 0.063324
v -0.332603 0.037500 0.072535
v -0.279587 0.037500 0.004728
v -0.263329 0.037500 -0.098251
v -0.290375 0.037500 -0.172356
v -0.360703 0.037500 -0.174421
v -0.448151 0.037500 -0.144863
v -0.519989 0.037500 -0.144987
v -0.551971 0.037500 -0.217642
v -0.553886 0.037500 -0.331858
v -0.534332 0.037500 -0.524149
v -0.329140 -0.037500 -0.558220
v -0.208290 -0.037500 -0.565947
v -0.133751 -0.037498 -0.542452
v -0.139282 -0.037500 -0.475607
v -0.178642 -0.037500 -0.388659
v -0.185600 -0.037500 -0.313694
v -0.115677 -0.037500 -0.276787
v -0.011337 -0.037500 -0.279907
v 0.063187 -0.037500 -0.319002
v 0.065048 -0.037500 -0.386673
v 0.036827 -0.037498 -0.461971
v 0.042473 -0.037500 -0.520586
v 0.126312 -0.037500 -0.544899
v 0.467583 -0.037500 -0.524149
v 0.447098 -0.037500 -0.190783
v 0.471092 -0.037500 -0.114937
v 0.529167 -0.037500 -0.121449
v 0.605095 -0.037500 -0.163565
v 0.676270 -0.037500 -0.174147
v 0.722298 -0.037498 -0.107826
v 0.731544 -0.037500 -0.006351
v 0.694595 -0.037500 0.066757
v 0.610222 -0.037500 0.069067
v 0.509850 -0.037500 0.042469
v 0.433098 -0.037500 0.049938
v 0.408669 -0.037500 0.135027
v 0.421600 -0.037500 0.263580
v 0.467583 -0.037500 0.477549
v 0.101288 -0.037500 0.428890
v 0.014320 -0.037500 0.447803
v 0.014732 -0.037500 0.508801
v 0.055588 -0.037498 0.589550
v 0.068756 -0.037500 0.659084
v 0.007713 -0.037500 0.692238
v -0.087646 -0.037500 0.687086
v -0.155846 -0.037500 0.647503
v -0.155746 -0.037500 0.580839
v -0.127609 -0.037500 0.508331
v -0.132042 -0.037500 0.454693
v -0.211021 -0.037500 0.437563
v -0.534332 -0.037500 0.477549
v -0.577591 -0.037500 0.111204
v -0.557549 -0.037498 0.024113
v -0.496315 -0.037500 0.024107
v -0.412537 -0.037500 0.063324
v -0.332603 -0.037500 0.072535
v -0.279587 -0.037498 0.004728
v -0.263329 -0.037500 -0.098251
v -0.290375 -0.037500 -0.172356
v -0.360703 -0.037500 -0.174421
v -0.448151 -0.037500 -0.144863
v -0.519989 -0.037500 -0.144987
v -0.551971 -0.037498 -0.217642
v -0.553886 -0.037500 -0.331858
v -0.534332 -0.037500 -0.524149
v -0.329140 0.037500 -0.558220
v -0.208290 0.037500 -0.565947
v -0.133751 0.037500 -0.542452
v -0.133751 0.037500 -0.542452
v 0.042473 0.037500 -0.520586
v 0.042473 0.037500 -0.520586
v 0.126312 0.037500 -0.544899
v -0.139282 0.037500 -0.475607
v -0.534332 0.037500 -0.524149
v -0.534332 0.037500 -0.524149
v 0.467583 0.037500 -0.524149
v 0.467583 0.037500 -0.524149
v 0.036827 0.037500 -0.461971
v -0.178642 0.037500 -0.388659
v 0.065048 0.037500 -0.386673
v -0.553886 0.037500 -0.331858
v -0.185600 0.037500 -0.313694
v -0.185600 0.037500 -0.313694
v 0.063187 0.037500 -0.319002
v 0.063187 0.037500 -0.319002
v -0.551971 0.037500 -0.217642
v -0.011337 0.037500 -0.279907
v 0.447098 0.037500 -0.190783
v -0.115677 0.037500 -0.276787
v -0.519989 0.037500 -0.144987
v -0.519989 0.037500 -0.144987
v -0.290375 0.037500 -0.172356
v -0.290375 0.037500 -0.172356
v -0.360703 0.037500 -0.174421
v 0.471092 0.037500 -0.114937
v 0.471092 0.037500 -0.114937
v -0.448151 0.037500 -0.144863
v 0.605095 0.037500 -0.163565
v 0.676270 0.037500 -0.174147
v 0.676270 0.037500 -0.174147
v 0.722298 0.037500 -0.107826
v -0.263329 0.037500 -0.098251
v 0.529167 0.037500 -0.121449
v 0.731544 0.037500 -0.006351
v -0.279587 0.037500 0.004728
v 0.694595 0.037500 0.066757
v 0.694595 0.037500 0.066757
v -0.332603 0.037500 0.072535
v -0.557549 0.037500 0.024113
v -0.557549 0.037500 0.024113
v -0.496315 0.037500 0.024107
v -0.412537 0.037500 0.063324
v -0.577591 0.037500 0.111204
v 0.509850 0.037500 0.042469
v 0.433098 0.037500 0.049938
v 0.433098 0.037500 0.049938
v 0.610222 0.037500 0.069067
v 0.408669 0.037500 0.135027
v 0.421600 0.037500 0.263580
v -0.534332 0.037500 0.477549
v -0.534332 0.037500 0.477549
v 0.101288 0.037500 0.428890
v 0.014320 0.037500 0.447803
v 0.014320 0.037500 0.447803
v -0.132042 0.037500 0.454693
v -0.132042 0.037500 0.454693
v -0.211021 0.037500 0.437563
v 0.014732 0.037500 0.508801
v 0.467583 0.037500 0.477549
v 0.467583 0.037500 0.477549
v -0.127609 0.037500 0.508331
v -0.155746 0.037500 0.580839
v 0.055588 0.037500 0.589550
v -0.155846 0.037500 0.647503
v 0.068756 0.037500 0.659084
v 0.068756 0.037500 0.659084
v -0.087646 0.037500 0.687086
v 0.007713 0.037500 0.692238
v -0.329140 -0.037500 -0.558220
v -0.208290 -0.037500 -0.565947
v -0.133751 -0.037498 -0.542452
v -0.133751 -0.037498 -0.542452
v 0.042473 -0.037500 -0.520586
v 0.042473 -0.037500 -0.520586
v 0.126312 -0.037500 -0.544899
v -0.139282 -0.037500 -0.475607
v -0.534332 -0.037500 -0.524149
v -0.534332 -0.037500 -0.524149
v 0.467583 -0.037500 -0.524149
v 0.467583 -0.037500 -0.524149
v 0.036827 -0.037498 -0.461971
v -0.178642 -0.037500 -0.388659
v 0.065048 -0.037500 -0.386673
v -0.553886 -0.037500 -0.331858
v -0.185600 -0.037500 -0.313694
v -0.185600 -0.037500 -0.313694
v 0.063187 -0.037500 -0.319002
v 0.063187 -0.037500 -0.319002
v -0.551971 -0.037498 -0.217642
v -0.011337 -0.037500 -0.279907
v 0.447098 -0.037500 -0.190783
v -0.115677 -0.037500 -0.276787
v -0.519989 -0.037500 -0.144987
v -0.519989 -0.037500 -0.144987
v -0.290375 -0.037500 -0.172356
v -0.290375 -0.037500 -0.172356
v -0.360703 -0.037500 -0.174421
v 0.471092 -0.037500 -0.114937
v 0.471092 -0.037500 -0.114937
v -0.448151 -0.037500 -0.144863
v 0.605095 -0.037500 -0.163565
v 0.676270 -0.037500 -0.174147
v 0.676270 -0.037500 -0.174147
v 0.722298 -0.037498 -0.107826
v -0.263329 -0.037500 -0.098251
v 0.529167 -0.037500 -0.121449
v 0.731544 -0.037500 -0.006351
v -0.279587 -0.037498 0.004728
v 0.694595 -0.037500 0.066757
v 0.694595 -0.037500 0.066757
v -0.332603 -0.037500 0.072535
v -0.557549 -0.037498 0.024113
v -0.557549 -0.037498 0.024113
v -0.496315 -0.037500 0.024107
v -0.412537 -0.037500 0.063324
v -0.577591 -0.037500 0.111204
v 0.509850 -0.037500 0.042469
v 0.433098 -0.037500 0.049938
v 0.433098 -0.037500 0.049938
v 0.610222 -0.037500 0.069067
v 0.408669 -0.037500 0.135027
v 0.421600 -0.037500 0.263580
v -0.534332 -0.037500 0.477549
v -0.534332 -0.037500 0.477549
v 0.101288 -0.037500 0.428890
v 0.014320 -0.037500 0.447803
v 0.014320 -0.037500 0.447803
v -0.132042 -0.037500 0.454693
v -0.132042 -0.037500 0.454693
v -0.211021 -0.037500 0.437563
v 0.014732 -0.037500 0.508801
v 0.467583 -0.037500 0.477549
v 0.467583 -0.037500 0.477549
v -0.127609 -0.037500 0.508331
v -0.155746 -0.037500 0.580839
v 0.055588 -0.037498 0.589550
v -0.155846 -0.037500 0.647503
v 0.068756 -0.037500 0.659084
v 0.068756 -0.037500 0.659084
v -0.087646 -0.037500 0.687086
v 0.007713 -0.037500 0.692238
vt 0.500000 0.500000
vt 0.500000 0.500000
vt 0.500000 0.500000
vt 0.500000 0.500000
vt 0.500000 0.500000
vt 0.500000 0.500000
vt 0.500000 0.500000
vt 0.500000 0.500000
vt 0.500000 0.500000
vt 0.500000 0.500000
vt 0.500000 0.500000
vt 0.500000 0.500000
vt 0.500000 0.500000
vt 0.500000 0.500000
vt 0.500000 0.500000
vt 0.500000 0.500000
vt 0.500000 0.500000
vt 0.500000 0.500000
vt 0.500000 0.500000
vt 0.500000 0.500000
vt 0.500000 0.500000
vt 0.500000 0.500000
vt 0.500000 0.500000
vt 0.500000 0.500000
vt 0.500000 0.500000
vt 0.500000 0.500000
vt 0.500000 0.500000
vt 0.500000 0.500000
vt 0.500000 0.500000
vt 0.500000 0.500000
vt 0.500000 0.500000
vt 0.500000 0.500000
vt 0.500000 0.500000
vt 0.500000 0.500000
vt 0.500000 0.500000
vt 0.500000 0.500000
vt 0.500000 0.500000
vt 0.500000 0.500000
vt 0.500000 0.500000
vt 0.500000 0.500000
vt 0.500000 0.500000
vt 0.500000 0.500000
vt 0.500000 0.500000
vt 0.500000 0.500000
vt 0.500000 0.500000
vt 0.500000 0.500000
vt 0.500000 0.500000
vt 0.500000 0.500000
vt 0.500000 0.500000
vt 0.500000 0.500000
vt 0.500000 0.500000
vt 0.500000 0.500000
vt 0.500000 0.500000
vt 0.500000 0.500000
vt 0.500000 0.500000
vt 0.500000 0.500000
vt 0.500000 0.500000
vt 0.500000 0.500000
vt 0.500000 0.500000
vt 0.500000 0.500000
vt 0.500000 0.500000
vt 0.500000 0.500000
vt 0.500000 0.500000
vt 0.500000 0.500000
vt 0.500000 0.500000
vt 0.500000 0.500000
vt 0.500000 0.500000
vt 0.500000 0.500000
vt 0.500000 0.500000
vt 0.500000 0.500000
vt 0.500000 0.500000
vt 0.500000 0.500000
vt 0.500000 0.500000
vt 0.500000 0.500000
vt 0.500000 0.500000
vt 0.500000 0.500000
vt 0.500000 0.500000
vt 0.500000 0.500000
vt 0.500000 0.500000
vt 0.500000 0.500000
vt 0.500000 0.500000
vt 0.500000 0.500000
vt 0.500000 0.500000
vt 0.500000 0.500000
vt 0.500000 0.500000
vt 0.500000 0.500000
vt 0.500000 0.500000
vt 0.500000 0.500000
vt 0.500000 0.500000
vt 0.500000 0.500000
vt 0.500000 0.500000
vt 0.500000 0.500000
vt 0.500000 0.500000
vt 0.500000 0.500000
vt 0.500000 0.500000
vt 0.500000 0.500000
vt 0.500000 0.500000
vt 0.500000 0.500000
vt 0.500000 0.500000
vt 0.500000 0.500000
vt 0.500000 0.500000
vt 0.500000 0.500000
vt 0.500000 0.500000
vt 0.500000 0.500000
vt 0.500000 0.500000
vt 0.500000 0.500000
vt 0.500000 0.500000
vt 0.500000 0.500000
vt 0.500000 0.500000
vt 0.500000 0.500000
vt 0.500000 0.500000
vt 0.500000 0.500000
vt 0.500000 0.500000
vt 0.500000 0.500000
vt 0.500000 0.500000
vt 0.500000 0.500000
vt 0.500000 0.500000
vt 0.500000 0.500000
vt 0.500000 0.500000
vt 0.500000 0.500000
vt 0.500000 0.500000
vt 0.500000 0.500000
vt 0.500000 0.500000
vt 0.500000 0.500000
vt 0.500000 0.500000
vt 0.500000 0.500000
vt 0.500000 0.500000
vt 0.500000 0.500000
vt 0.500000 0.500000
vt 0.500000 0.500000
vt 0.500000 0.500000
vt 0.500000 0.500000
vt 0.500000 0.500000
vt 0.500000 0.500000
vt 0.500000 0.500000
vt 0.500000 0.500000
vt 0.500000 0.500000
vt 0.500000 0.500000
vt 0.500000 0.500000
vt 0.500000 0.500000
vt 0.500000 0.500000
vt 0.500000 0.500000
vt 0.500000 0.500000
vt 0.500000 0.500000
vt 0.500000 0.500000
vt 0.500000 0.500000
vt 0.500000 0.500000
vt 0.500000 0.500000
vt 0.500000 0.500000
vt 0.500000 0.500000
vt 0.500000 0.500000
vt 0.500000 0.500000
vt 0.500000 0.500000
vt 0.500000 0.500000
vt 0.500000 0.500000
vt 0.500000 0.500000
vt 0.500000 0.500000
vt 0.500000 0.500000
vt 0.500000 0.500000
vt 0.500000 0.500000
vt 0.500000 0.500000
vt 0.500000 0.500000
vt 0.500000 0.500000
vt 0.500000 0.500000
vt 0.500000 0.500000
vt 0.500000 0.500000
vt 0.500000 0.500000
vt 0.500000 0.500000
vt 0.500000 0.500000
vt 0.500000 0.500000
vt 0.500000 0.500000
vt 0.500000 0.500000
vt 0.500000 0.500000
vt 0.500000 0.500000
vt 0.500000 0.500000
vt 0.500000 0.500000
vt 0.500000 0.500000
vt 0.500000 0.500000
vt 0.500000 0.500000
vt 0.500000 0.500000
vt 0.500000 0.500000
vt 0.500000 0.500000
vt 0.500000 0.500000
vt 0.500000 0.500000
vt 0.500000 0.500000
vt 0.500000 0.500000
vt 0.500000 0.500000
vt 0.500000 0.500000
vt 0.500000 0.500000
vt 0.500000 0.500000
vt 0.500000 0.500000
vt 0.500000 0.500000
vt 0.500000 0.500000
vt 0.500000 0.500000
vt 0.500000 0.500000
vt 0.500000 0.500000
vt 0.500000 0.500000
vt 0.500000 0.500000
vt 0.500000 0.500000
vt 0.500000 0.500000
vt 0.500000 0.500000
vt 0.920849 0.537460
vt 0.919315 0.545778
vt 0.918764 0.544525
vt 0.927083 0.555556
vt 0.923535 0.555939
vt 0.922898 0.553014
vt 0.917062 0.545420
vt 0.916425 0.545420
vt 0.916217 0.543810
vt 0.926870 0.549393
vt 0.920028 0.537776
vt 0.922879 0.551763
vt 0.922104 0.551040
vt 0.926725 0.544942
vt 0.929253 0.549085
vt 0.928513 0.548889
vt 0.929732 0.547859
vt 0.928566 0.544589
vt 0.926471 0.543369
vt 0.927523 0.545080
vt 0.927120 0.547990
vt 0.920365 0.553051
vt 0.920774 0.554658
vt 0.920056 0.556328
vt 0.922605 0.554406
vt 0.920603 0.535128
vt 0.922375 0.536459
vt 0.920895 0.536468
vt 0.916667 0.537037
vt 0.917933 0.544695
vt 0.916483 0.549889
vt 0.916816 0.548546
vt 0.917563 0.548544
vt 0.918800 0.556185
vt 0.916667 0.555556
vt 0.916463 0.552001
vt 0.918472 0.549090
vt 0.919484 0.547682
vt 0.921019 0.550983
vt 0.922371 0.537587
vt 0.926605 0.540993
vt 0.923275 0.537937
vt 0.927724 0.548111
vt 0.920602 0.533895
vt 0.921311 0.533163
vt 0.920292 0.551665
vt 0.919203 0.549052
vt 0.922800 0.534966
vt 0.927083 0.537037
vt 0.922664 0.555490
vt 0.922302 0.533068
vt 0.922937 0.533681
vt 0.929444 0.544631
vt 0.929828 0.545983
vt 0.920831 0.555894
vn 0.0000 -1.0000 -0.0000
vn -0.0638 0.0000 -0.9980
vn 0.3006 0.0000 -0.9537
vn -0.2785 0.0000 -0.9604
vn 0.9966 0.0000 0.0825
vn -0.1638 0.0000 -0.9865
vn 0.0607 0.0000 -0.9982
vn -0.9954 0.0000 -0.0959
vn 0.9110 0.0000 0.4124
vn -0.9364 0.0000 0.3510
vn -0.9949 0.0000 -0.1012
vn 0.9957 0.0000 0.0924
vn -0.9996 0.0000 -0.0275
vn -0.9999 0.0000 0.0168
vn -0.4646 0.0000 -0.8855
vn 0.9981 0.0000 0.0613
vn 0.4668 0.0000 -0.8844
vn -0.0299 0.0000 -0.9996
vn -0.9152 0.0000 0.4029
vn -0.0294 0.0000 0.9996
vn 0.9534 0.0000 -0.3016
vn -0.0017 0.0000 1.0000
vn 0.3202 0.0000 0.9473
vn -0.1471 0.0000 -0.9891
vn 0.8215 0.0000 -0.5702
vn -0.9394 0.0000 0.3429
vn -0.4851 0.0000 -0.8745
vn -0.1114 0.0000 -0.9938
vn 0.9959 0.0000 -0.0907
vn -0.9878 0.0000 -0.1559
vn 0.8925 0.0000 0.4511
vn -0.7878 0.0000 -0.6160
vn -0.0001 0.0000 -1.0000
vn 0.4240 0.0000 -0.9057
vn -0.9745 0.0000 -0.2243
vn 0.0969 0.0000 0.9953
vn -0.2562 0.0000 0.9666
vn 0.0274 0.0000 0.9996
vn 0.9612 0.0000 0.2760
vn 0.1145 0.0000 -0.9934
vn 0.9950 0.0000 -0.1001
vn -0.9931 0.0000 0.1173
vn 0.2125 0.0000 0.9772
vn -0.2120 0.0000 0.9773
vn 1.0000 0.0000 -0.0068
vn -0.1317 0.0000 0.9913
vn 0.9777 0.0000 -0.2101
vn -0.9966 0.0000 0.0824
vn 0.1227 0.0000 0.9924
vn -0.9323 0.0000 -0.3618
vn 0.8923 0.0000 -0.4515
vn -1.0000 0.0000 -0.0015
vn 0.9825 0.0000 -0.1861
vn -0.5020 0.0000 0.8649
vn -0.0539 0.0000 0.9985
vn 0.4773 0.0000 0.8788
vn 0.0000 1.0000 0.0000
usemtl BackMat.001
s off
f 243/1/1 226/2/1 223/3/1
f 194/4/1 198/5/1 190/6/1
f 229/7/1 231/8/1 227/9/1
f 206/10/1 198/5/1 194/4/1
f 245/11/1 226/2/1 243/1/1
f 202/12/1 233/13/1 205/14/1
f 217/15/1 219/16/1 216/17/1
f 219/16/1 235/18/1 216/17/1
f 236/19/1 223/3/1 205/14/1
f 233/13/1 213/20/1 232/21/1
f 197/22/1 185/23/1 191/24/1
f 190/6/1 198/5/1 196/25/1
f 250/26/1 249/27/1 246/28/1
f 231/8/1 230/29/1 238/30/1
f 204/31/1 215/32/1 208/33/1
f 184/34/1 199/35/1 192/36/1
f 204/31/1 212/37/1 215/32/1
f 205/14/1 223/3/1 220/38/1
f 205/14/1 220/38/1 207/39/1
f 199/35/1 212/37/1 204/31/1
f 241/40/1 243/1/1 223/3/1
f 206/10/1 233/13/1 202/12/1
f 237/41/1 240/42/1 236/19/1
f 232/21/1 221/43/1 235/18/1
f 233/13/1 236/19/1 205/14/1
f 241/40/1 249/27/1 243/1/1
f 252/44/1 250/26/1 255/45/1
f 213/20/1 233/13/1 206/10/1
f 207/39/1 210/46/1 200/47/1
f 251/48/1 255/45/1 246/28/1
f 230/29/1 231/8/1 229/7/1
f 250/26/1 246/28/1 255/45/1
f 246/28/1 249/27/1 241/40/1
f 238/30/1 226/2/1 245/11/1
f 240/42/1 237/41/1 247/49/1
f 212/37/1 200/47/1 210/46/1
f 206/10/1 202/12/1 198/5/1
f 200/47/1 212/37/1 199/35/1
f 190/6/1 196/25/1 188/50/1
f 256/51/1 255/45/1 251/48/1
f 200/47/1 199/35/1 197/22/1
f 184/34/1 197/22/1 199/35/1
f 220/38/1 210/46/1 207/39/1
f 253/52/1 256/51/1 251/48/1
f 224/53/1 235/18/1 222/54/1
f 222/54/1 235/18/1 219/16/1
f 238/30/1 230/29/1 226/2/1
f 241/40/1 223/3/1 240/42/1
f 197/22/1 184/34/1 185/23/1
f 191/24/1 185/23/1 186/55/1
f 221/43/1 232/21/1 213/20/1
f 216/17/1 235/18/1 221/43/1
f 240/42/1 223/3/1 236/19/1
f 1/56/2 2/57/2 57/58/2 56/59/2
f 2/57/3 114/60/3 187/61/3 57/58/3
f 116/62/4 13/63/4 68/64/4 189/65/4
f 3/66/5 4/67/5 59/68/5 58/69/5
f 120/70/6 1/56/6 56/59/6 193/71/6
f 13/63/7 122/72/7 195/73/7 68/64/7
f 11/74/8 12/75/8 67/76/8 66/77/8
f 4/67/9 5/78/9 60/79/9 59/68/9
f 10/80/10 11/74/10 66/77/10 65/81/10
f 54/82/11 55/83/11 110/84/11 109/85/11
f 5/78/12 128/86/12 201/87/12 60/79/12
f 130/88/13 10/80/13 65/81/13 203/89/13
f 53/90/14 54/82/14 109/85/14 108/91/14
f 8/92/15 9/93/15 64/94/15 63/95/15
f 14/96/16 15/97/16 70/98/16 69/99/16
f 6/100/17 7/101/17 62/102/17 61/103/17
f 7/101/18 8/92/18 63/95/18 62/102/18
f 136/104/19 53/90/19 108/91/19 209/105/19
f 138/106/20 50/107/20 105/108/20 211/109/20
f 15/97/21 141/110/21 214/111/21 70/98/21
f 51/112/22 52/113/22 107/114/22 106/115/22
f 50/107/23 51/112/23 106/115/23 105/108/23
f 18/116/24 145/117/24 218/118/24 73/119/24
f 19/120/25 20/121/25 75/122/25 74/123/25
f 48/124/26 49/125/26 104/126/26 103/127/26
f 17/128/27 18/116/27 73/119/27 72/129/27
f 16/130/28 17/128/28 72/129/28 71/131/28
f 20/121/29 21/132/29 76/133/29 75/122/29
f 47/134/30 48/124/30 103/127/30 102/135/30
f 21/132/31 152/136/31 225/137/31 76/133/31
f 46/138/32 47/134/32 102/135/32 101/139/32
f 155/140/33 44/141/33 99/142/33 228/143/33
f 44/141/34 45/144/34 100/145/34 99/142/34
f 42/146/35 43/147/35 98/148/35 97/149/35
f 24/150/36 161/151/36 234/152/36 79/153/36
f 23/154/37 24/150/37 79/153/37 78/155/37
f 22/156/38 23/154/38 78/155/38 77/157/38
f 25/158/39 26/159/39 81/160/39 80/161/39
f 45/144/40 46/138/40 101/139/40 100/145/40
f 26/159/41 27/162/41 82/163/41 81/160/41
f 166/164/42 42/146/42 97/149/42 239/165/42
f 29/166/43 169/167/43 242/168/43 84/169/43
f 171/170/44 40/171/44 95/172/44 244/173/44
f 30/174/45 31/175/45 86/176/45 85/177/45
f 175/178/46 29/166/46 84/169/46 248/179/46
f 27/162/47 28/180/47 83/181/47 82/163/47
f 38/182/48 39/183/48 94/184/48 93/185/48
f 40/171/49 41/186/49 96/187/49 95/172/49
f 37/188/50 38/182/50 93/185/50 92/189/50
f 31/175/51 32/190/51 87/191/51 86/176/51
f 36/192/52 37/188/52 92/189/52 91/193/52
f 32/190/53 181/194/53 254/195/53 87/191/53
f 35/196/54 36/192/54 91/193/54 90/197/54
f 34/198/55 35/196/55 90/197/55 89/199/55
f 33/200/56 34/198/56 89/199/56 88/201/56
usemtl FrontMat.001
f 170/202/57 150/203/57 153/204/57
f 121/205/57 117/206/57 125/207/57
f 156/208/57 154/209/57 158/210/57
f 133/211/57 121/205/57 125/207/57
f 172/212/57 170/202/57 153/204/57
f 129/213/57 132/214/57 160/215/57
f 144/216/57 143/217/57 146/218/57
f 146/218/57 143/217/57 162/219/57
f 163/220/57 132/214/57 150/203/57
f 160/215/57 159/221/57 140/222/57
f 124/223/57 118/224/57 112/225/57
f 117/206/57 123/226/57 125/207/57
f 177/227/57 173/228/57 176/229/57
f 158/210/57 165/230/57 157/231/57
f 131/232/57 135/233/57 142/234/57
f 111/235/57 119/236/57 126/237/57
f 131/232/57 142/234/57 139/238/57
f 132/214/57 147/239/57 150/203/57
f 132/214/57 134/240/57 147/239/57
f 126/237/57 131/232/57 139/238/57
f 168/241/57 150/203/57 170/202/57
f 133/211/57 129/213/57 160/215/57
f 164/242/57 163/220/57 167/243/57
f 159/221/57 162/219/57 148/244/57
f 160/215/57 132/214/57 163/220/57
f 168/241/57 170/202/57 176/229/57
f 179/245/57 182/246/57 177/227/57
f 140/222/57 133/211/57 160/215/57
f 134/240/57 127/247/57 137/248/57
f 178/249/57 173/228/57 182/246/57
f 157/231/57 156/208/57 158/210/57
f 177/227/57 182/246/57 173/228/57
f 173/228/57 168/241/57 176/229/57
f 165/230/57 172/212/57 153/204/57
f 167/243/57 174/250/57 164/242/57
f 139/238/57 137/248/57 127/247/57
f 133/211/57 125/207/57 129/213/57
f 127/247/57 126/237/57 139/238/57
f 117/206/57 115/251/57 123/226/57
f 183/252/57 178/249/57 182/246/57
f 127/247/57 124/223/57 126/237/57
f 111/235/57 126/237/57 124/223/57
f 147/239/57 134/240/57 137/248/57
f 180/253/57 178/249/57 183/252/57
f 151/254/57 149/255/57 162/219/57
f 149/255/57 146/218/57 162/219/57
f 165/230/57 153/204/57 157/231/57
f 168/241/57 167/243/57 150/203/57
f 124/223/57 112/225/57 111/235/57
f 118/224/57 113/256/57 112/225/57
f 148/244/57 140/222/57 159/221/57
f 143/217/57 148/244/57 162/219/57
f 167/243/57 163/220/57 150/203/57
