# Blender v2.83.1 OBJ File: 'jigsaw-96x54-3-step2.blend'
# www.blender.org
mtllib piece.2540.mtl
o path5080
v -0.535732 0.037500 0.151546
v -0.516090 0.037500 0.066130
v -0.461155 0.037500 0.061632
v -0.386169 0.037500 0.092743
v -0.312740 0.037500 0.093988
v -0.261055 0.037500 0.021362
v -0.245567 0.037500 -0.083273
v -0.279308 0.037500 -0.156591
v -0.365856 0.037500 -0.156231
v -0.471012 0.037500 -0.123657
v -0.551125 0.037500 -0.121305
v -0.574577 0.037500 -0.192863
v -0.557796 0.037500 -0.307016
v -0.504200 0.037500 -0.499989
v -0.297535 0.037500 -0.463514
v -0.174488 0.037500 -0.456161
v -0.095539 0.037500 -0.483992
v -0.094326 0.037500 -0.560167
v -0.127666 0.037500 -0.657291
v -0.133194 0.037500 -0.737795
v -0.068806 0.037500 -0.771696
v 0.026531 0.037500 -0.759428
v 0.093582 0.037500 -0.709015
v 0.093163 0.037500 -0.631393
v 0.066299 0.037500 -0.549164
v 0.074081 0.037500 -0.487841
v 0.158607 0.037500 -0.465603
v 0.285946 0.037500 -0.471273
v 0.497707 0.037500 -0.499989
v 0.546543 0.037500 -0.300648
v 0.562527 0.037500 -0.182503
v 0.543125 0.037500 -0.107925
v 0.473351 0.037500 -0.109327
v 0.379353 0.037500 -0.142830
v 0.297573 0.037500 -0.145489
v 0.257782 0.037500 -0.075418
v 0.263069 0.037500 0.024937
v 0.309872 0.037500 0.092062
v 0.390045 0.037500 0.084324
v 0.477184 0.037500 0.047617
v 0.540306 0.037500 0.049711
v 0.557423 0.037500 0.137388
v 0.497707 0.037500 0.501709
v 0.271961 0.037500 0.458342
v 0.137291 0.037500 0.446621
v 0.050304 0.037500 0.471041
v 0.047905 0.037500 0.546259
v 0.084789 0.037500 0.646152
v 0.095097 0.037500 0.734409
v 0.033920 0.037500 0.781166
v -0.059811 0.037500 0.782394
v -0.126213 0.037500 0.740519
v -0.125397 0.037500 0.662592
v -0.097378 0.037500 0.573919
v -0.102169 0.037500 0.504404
v -0.181274 0.037500 0.475803
v -0.302212 0.037500 0.477283
v -0.504200 0.037500 0.501709
v -0.535732 -0.037500 0.151546
v -0.516090 -0.037498 0.066130
v -0.461155 -0.037500 0.061632
v -0.386169 -0.037498 0.092743
v -0.312740 -0.037500 0.093988
v -0.261055 -0.037500 0.021362
v -0.245567 -0.037500 -0.083273
v -0.279308 -0.037500 -0.156591
v -0.365856 -0.037500 -0.156231
v -0.471012 -0.037500 -0.123657
v -0.551125 -0.037498 -0.121305
v -0.574577 -0.037500 -0.192863
v -0.557796 -0.037500 -0.307016
v -0.504200 -0.037500 -0.499989
v -0.297535 -0.037498 -0.463514
v -0.174488 -0.037500 -0.456161
v -0.095539 -0.037500 -0.483992
v -0.094326 -0.037500 -0.560167
v -0.127666 -0.037500 -0.657291
v -0.133194 -0.037500 -0.737795
v -0.068806 -0.037500 -0.771696
v 0.026531 -0.037500 -0.759428
v 0.093582 -0.037500 -0.709015
v 0.093163 -0.037500 -0.631393
v 0.066299 -0.037500 -0.549164
v 0.074081 -0.037500 -0.487841
v 0.158607 -0.037500 -0.465603
v 0.285946 -0.037498 -0.471273
v 0.497707 -0.037500 -0.499989
v 0.546543 -0.037500 -0.300648
v 0.562527 -0.037498 -0.182503
v 0.543125 -0.037500 -0.107925
v 0.473351 -0.037500 -0.109327
v 0.379353 -0.037500 -0.142830
v 0.297573 -0.037500 -0.145489
v 0.257782 -0.037500 -0.075418
v 0.263069 -0.037500 0.024937
v 0.309872 -0.037500 0.092062
v 0.390045 -0.037500 0.084324
v 0.477184 -0.037500 0.047617
v 0.540306 -0.037500 0.049711
v 0.557423 -0.037500 0.137388
v 0.497707 -0.037500 0.501709
v 0.271961 -0.037500 0.458342
v 0.137291 -0.037498 0.446621
v 0.050304 -0.037500 0.471041
v 0.047905 -0.037500 0.546259
v 0.084789 -0.037500 0.646152
v 0.095097 -0.037500 0.734409
v 0.033920 -0.037500 0.781166
v -0.059811 -0.037500 0.782394
v -0.126213 -0.037500 0.740519
v -0.125397 -0.037500 0.662592
v -0.097378 -0.037500 0.573919
v -0.102169 -0.037500 0.504404
v -0.181274 -0.037500 0.475803
v -0.302212 -0.037498 0.477283
v -0.504200 -0.037500 0.501709
v -0.133194 0.037500 -0.737795
v -0.133194 0.037500 -0.737795
v -0.068806 0.037500 -0.771696
v 0.026531 0.037500 -0.759428
v 0.093582 0.037500 -0.709015
v -0.127666 0.037500 -0.657291
v 0.093163 0.037500 -0.631393
v -0.094326 0.037500 -0.560167
v 0.066299 0.037500 -0.549164
v -0.095539 0.037500 -0.483992
v -0.095539 0.037500 -0.483992
v 0.074081 0.037500 -0.487841
v 0.074081 0.037500 -0.487841
v 0.158607 0.037500 -0.465603
v 0.285946 0.037500 -0.471273
v 0.497707 0.037500 -0.499989
v 0.497707 0.037500 -0.499989
v -0.174488 0.037500 -0.456161
v -0.504200 0.037500 -0.499989
v -0.504200 0.037500 -0.499989
v -0.297535 0.037500 -0.463514
v -0.557796 0.037500 -0.307016
v 0.546543 0.037500 -0.300648
v -0.574577 0.037500 -0.192863
v 0.562527 0.037500 -0.182503
v -0.551125 0.037500 -0.121305
v -0.551125 0.037500 -0.121305
v -0.279308 0.037500 -0.156591
v -0.279308 0.037500 -0.156591
v -0.365856 0.037500 -0.156231
v 0.379353 0.037500 -0.142830
v 0.297573 0.037500 -0.145489
v 0.297573 0.037500 -0.145489
v 0.543125 0.037500 -0.107925
v 0.543125 0.037500 -0.107925
v -0.245567 0.037500 -0.083273
v -0.471012 0.037500 -0.123657
v 0.257782 0.037500 -0.075418
v 0.473351 0.037500 -0.109327
v -0.261055 0.037500 0.021362
v 0.263069 0.037500 0.024937
v -0.312740 0.037500 0.093988
v 0.309872 0.037500 0.092062
v 0.309872 0.037500 0.092062
v 0.390045 0.037500 0.084324
v 0.477184 0.037500 0.047617
v 0.540306 0.037500 0.049711
v 0.540306 0.037500 0.049711
v 0.557423 0.037500 0.137388
v -0.516090 0.037500 0.066130
v -0.516090 0.037500 0.066130
v -0.461155 0.037500 0.061632
v -0.386169 0.037500 0.092743
v -0.535732 0.037500 0.151546
v 0.137291 0.037500 0.446621
v 0.050304 0.037500 0.471041
v 0.050304 0.037500 0.471041
v 0.271961 0.037500 0.458342
v 0.047905 0.037500 0.546259
v 0.497707 0.037500 0.501709
v 0.497707 0.037500 0.501709
v -0.181274 0.037500 0.475803
v -0.302212 0.037500 0.477283
v -0.102169 0.037500 0.504404
v -0.102169 0.037500 0.504404
v -0.504200 0.037500 0.501709
v -0.504200 0.037500 0.501709
v -0.097378 0.037500 0.573919
v 0.084789 0.037500 0.646152
v -0.125397 0.037500 0.662592
v 0.095097 0.037500 0.734409
v -0.126213 0.037500 0.740519
v 0.033920 0.037500 0.781166
v -0.059811 0.037500 0.782394
v -0.133194 -0.037500 -0.737795
v -0.133194 -0.037500 -0.737795
v -0.068806 -0.037500 -0.771696
v 0.026531 -0.037500 -0.759428
v 0.093582 -0.037500 -0.709015
v -0.127666 -0.037500 -0.657291
v 0.093163 -0.037500 -0.631393
v -0.094326 -0.037500 -0.560167
v 0.066299 -0.037500 -0.549164
v -0.095539 -0.037500 -0.483992
v -0.095539 -0.037500 -0.483992
v 0.074081 -0.037500 -0.487841
v 0.074081 -0.037500 -0.487841
v 0.158607 -0.037500 -0.465603
v 0.285946 -0.037498 -0.471273
v 0.497707 -0.037500 -0.499989
v 0.497707 -0.037500 -0.499989
v -0.174488 -0.037500 -0.456161
v -0.504200 -0.037500 -0.499989
v -0.504200 -0.037500 -0.499989
v -0.297535 -0.037498 -0.463514
v -0.557796 -0.037500 -0.307016
v 0.546543 -0.037500 -0.300648
v -0.574577 -0.037500 -0.192863
v 0.562527 -0.037498 -0.182503
v -0.551125 -0.037498 -0.121305
v -0.551125 -0.037498 -0.121305
v -0.279308 -0.037500 -0.156591
v -0.279308 -0.037500 -0.156591
v -0.365856 -0.037500 -0.156231
v 0.379353 -0.037500 -0.142830
v 0.297573 -0.037500 -0.145489
v 0.297573 -0.037500 -0.145489
v 0.543125 -0.037500 -0.107925
v 0.543125 -0.037500 -0.107925
v -0.245567 -0.037500 -0.083273
v -0.471012 -0.037500 -0.123657
v 0.257782 -0.037500 -0.075418
v 0.473351 -0.037500 -0.109327
v -0.261055 -0.037500 0.021362
v 0.263069 -0.037500 0.024937
v -0.312740 -0.037500 0.093988
v 0.309872 -0.037500 0.092062
v 0.309872 -0.037500 0.092062
v 0.390045 -0.037500 0.084324
v 0.477184 -0.037500 0.047617
v 0.540306 -0.037500 0.049711
v 0.540306 -0.037500 0.049711
v 0.557423 -0.037500 0.137388
v -0.516090 -0.037498 0.066130
v -0.516090 -0.037498 0.066130
v -0.461155 -0.037500 0.061632
v -0.386169 -0.037498 0.092743
v -0.535732 -0.037500 0.151546
v 0.137291 -0.037498 0.446621
v 0.050304 -0.037500 0.471041
v 0.050304 -0.037500 0.471041
v 0.271961 -0.037500 0.458342
v 0.047905 -0.037500 0.546259
v 0.497707 -0.037500 0.501709
v 0.497707 -0.037500 0.501709
v -0.181274 -0.037500 0.475803
v -0.302212 -0.037498 0.477283
v -0.102169 -0.037500 0.504404
v -0.102169 -0.037500 0.504404
v -0.504200 -0.037500 0.501709
v -0.504200 -0.037500 0.501709
v -0.097378 -0.037500 0.573919
v 0.084789 -0.037500 0.646152
v -0.125397 -0.037500 0.662592
v 0.095097 -0.037500 0.734409
v -0.126213 -0.037500 0.740519
v 0.033920 -0.037500 0.781166
v -0.059811 -0.037500 0.782394
vt 0.500000 0.500000
vt 0.500000 0.500000
vt 0.500000 0.500000
vt 0.500000 0.500000
vt 0.500000 0.500000
vt 0.500000 0.500000
vt 0.500000 0.500000
vt 0.500000 0.500000
vt 0.500000 0.500000
vt 0.500000 0.500000
vt 0.500000 0.500000
vt 0.500000 0.500000
vt 0.500000 0.500000
vt 0.500000 0.500000
vt 0.500000 0.500000
vt 0.500000 0.500000
vt 0.500000 0.500000
vt 0.500000 0.500000
vt 0.500000 0.500000
vt 0.500000 0.500000
vt 0.500000 0.500000
vt 0.500000 0.500000
vt 0.500000 0.500000
vt 0.500000 0.500000
vt 0.500000 0.500000
vt 0.500000 0.500000
vt 0.500000 0.500000
vt 0.500000 0.500000
vt 0.500000 0.500000
vt 0.500000 0.500000
vt 0.500000 0.500000
vt 0.500000 0.500000
vt 0.500000 0.500000
vt 0.500000 0.500000
vt 0.500000 0.500000
vt 0.500000 0.500000
vt 0.500000 0.500000
vt 0.500000 0.500000
vt 0.500000 0.500000
vt 0.500000 0.500000
vt 0.500000 0.500000
vt 0.500000 0.500000
vt 0.500000 0.500000
vt 0.500000 0.500000
vt 0.500000 0.500000
vt 0.500000 0.500000
vt 0.500000 0.500000
vt 0.500000 0.500000
vt 0.500000 0.500000
vt 0.500000 0.500000
vt 0.500000 0.500000
vt 0.500000 0.500000
vt 0.500000 0.500000
vt 0.500000 0.500000
vt 0.500000 0.500000
vt 0.500000 0.500000
vt 0.500000 0.500000
vt 0.500000 0.500000
vt 0.500000 0.500000
vt 0.500000 0.500000
vt 0.500000 0.500000
vt 0.500000 0.500000
vt 0.500000 0.500000
vt 0.500000 0.500000
vt 0.500000 0.500000
vt 0.500000 0.500000
vt 0.500000 0.500000
vt 0.500000 0.500000
vt 0.500000 0.500000
vt 0.500000 0.500000
vt 0.500000 0.500000
vt 0.500000 0.500000
vt 0.500000 0.500000
vt 0.500000 0.500000
vt 0.500000 0.500000
vt 0.500000 0.500000
vt 0.500000 0.500000
vt 0.500000 0.500000
vt 0.500000 0.500000
vt 0.500000 0.500000
vt 0.500000 0.500000
vt 0.500000 0.500000
vt 0.500000 0.500000
vt 0.500000 0.500000
vt 0.500000 0.500000
vt 0.500000 0.500000
vt 0.500000 0.500000
vt 0.500000 0.500000
vt 0.500000 0.500000
vt 0.500000 0.500000
vt 0.500000 0.500000
vt 0.500000 0.500000
vt 0.500000 0.500000
vt 0.500000 0.500000
vt 0.500000 0.500000
vt 0.500000 0.500000
vt 0.500000 0.500000
vt 0.500000 0.500000
vt 0.500000 0.500000
vt 0.500000 0.500000
vt 0.500000 0.500000
vt 0.500000 0.500000
vt 0.500000 0.500000
vt 0.500000 0.500000
vt 0.500000 0.500000
vt 0.500000 0.500000
vt 0.500000 0.500000
vt 0.500000 0.500000
vt 0.500000 0.500000
vt 0.500000 0.500000
vt 0.500000 0.500000
vt 0.500000 0.500000
vt 0.500000 0.500000
vt 0.500000 0.500000
vt 0.500000 0.500000
vt 0.500000 0.500000
vt 0.500000 0.500000
vt 0.500000 0.500000
vt 0.500000 0.500000
vt 0.500000 0.500000
vt 0.500000 0.500000
vt 0.500000 0.500000
vt 0.500000 0.500000
vt 0.500000 0.500000
vt 0.500000 0.500000
vt 0.500000 0.500000
vt 0.500000 0.500000
vt 0.500000 0.500000
vt 0.500000 0.500000
vt 0.500000 0.500000
vt 0.500000 0.500000
vt 0.500000 0.500000
vt 0.500000 0.500000
vt 0.500000 0.500000
vt 0.500000 0.500000
vt 0.500000 0.500000
vt 0.500000 0.500000
vt 0.500000 0.500000
vt 0.500000 0.500000
vt 0.500000 0.500000
vt 0.500000 0.500000
vt 0.500000 0.500000
vt 0.500000 0.500000
vt 0.500000 0.500000
vt 0.500000 0.500000
vt 0.500000 0.500000
vt 0.500000 0.500000
vt 0.500000 0.500000
vt 0.500000 0.500000
vt 0.500000 0.500000
vt 0.500000 0.500000
vt 0.500000 0.500000
vt 0.500000 0.500000
vt 0.500000 0.500000
vt 0.500000 0.500000
vt 0.500000 0.500000
vt 0.500000 0.500000
vt 0.500000 0.500000
vt 0.500000 0.500000
vt 0.500000 0.500000
vt 0.500000 0.500000
vt 0.500000 0.500000
vt 0.500000 0.500000
vt 0.500000 0.500000
vt 0.500000 0.500000
vt 0.500000 0.500000
vt 0.500000 0.500000
vt 0.500000 0.500000
vt 0.500000 0.500000
vt 0.500000 0.500000
vt 0.500000 0.500000
vt 0.500000 0.500000
vt 0.500000 0.500000
vt 0.500000 0.500000
vt 0.500000 0.500000
vt 0.500000 0.500000
vt 0.500000 0.500000
vt 0.500000 0.500000
vt 0.500000 0.500000
vt 0.500000 0.500000
vt 0.500000 0.500000
vt 0.500000 0.500000
vt 0.500000 0.500000
vt 0.500000 0.500000
vt 0.500000 0.500000
vt 0.500000 0.500000
vt 0.500000 0.500000
vt 0.500000 0.500000
vt 0.500000 0.500000
vt 0.500000 0.500000
vt 0.500000 0.500000
vt 0.500000 0.500000
vt 0.500000 0.500000
vt 0.500000 0.500000
vt 0.500000 0.500000
vt 0.500000 0.500000
vt 0.500000 0.500000
vt 0.500000 0.500000
vt 0.500000 0.500000
vt 0.500000 0.500000
vt 0.500000 0.500000
vt 0.500000 0.500000
vt 0.500000 0.500000
vt 0.500000 0.500000
vt 0.500000 0.500000
vt 0.500000 0.500000
vt 0.452097 0.499950
vt 0.453682 0.500567
vt 0.451274 0.500479
vt 0.449355 0.512163
vt 0.450255 0.512170
vt 0.450065 0.517844
vt 0.455986 0.500802
vt 0.458954 0.506735
vt 0.457214 0.507716
vt 0.458841 0.514833
vt 0.458333 0.518519
vt 0.456132 0.517988
vt 0.452178 0.519631
vt 0.454127 0.520948
vt 0.451831 0.521427
vt 0.453657 0.499176
vt 0.449144 0.507561
vt 0.448364 0.508136
vt 0.447589 0.506473
vt 0.456253 0.511965
vt 0.454808 0.517883
vt 0.447917 0.518519
vt 0.447359 0.514951
vt 0.455894 0.508814
vt 0.455839 0.510669
vt 0.450606 0.510815
vt 0.458080 0.511296
vt 0.458806 0.511270
vt 0.459007 0.512649
vt 0.450445 0.508880
vt 0.449907 0.507538
vt 0.453435 0.523315
vt 0.452443 0.523542
vt 0.452165 0.518223
vt 0.451345 0.517708
vt 0.451855 0.497026
vt 0.452537 0.494811
vt 0.454040 0.497330
vt 0.454586 0.501018
vt 0.456380 0.507573
vt 0.447429 0.511518
vt 0.448262 0.511561
vt 0.447185 0.512841
vt 0.452146 0.498665
vt 0.453929 0.518294
vt 0.453848 0.519428
vt 0.451774 0.522915
vt 0.450017 0.500452
vt 0.451847 0.495585
vt 0.454132 0.522383
vt 0.453511 0.494834
vt 0.458776 0.508356
vt 0.458120 0.508395
vt 0.447793 0.508053
vt 0.454147 0.495698
vt 0.447917 0.500000
vt 0.457103 0.511916
vt 0.458333 0.500000
vn 0.0000 -1.0000 0.0000
vn -0.4659 0.0000 -0.8848
vn 0.1276 0.0000 -0.9918
vn 0.6010 0.0000 -0.7993
vn -0.9977 0.0000 0.0685
vn 1.0000 0.0000 0.0054
vn -0.9458 0.0000 0.3247
vn 0.9506 0.0000 0.3105
vn -0.9999 0.0000 -0.0159
vn 0.9920 0.0000 -0.1259
vn 0.2544 0.0000 -0.9671
vn -0.1344 0.0000 -0.9909
vn -0.3325 0.0000 -0.9431
vn 0.1738 0.0000 -0.9848
vn -0.0445 0.0000 -0.9990
vn 0.0597 0.0000 -0.9982
vn -0.9635 0.0000 -0.2676
vn 0.9713 0.0000 -0.2379
vn -0.9894 0.0000 -0.1454
vn 0.9910 0.0000 -0.1341
vn -0.9503 0.0000 0.3114
vn 0.0042 0.0000 1.0000
vn -0.0325 0.0000 0.9995
vn 0.9678 0.0000 0.2518
vn -0.9084 0.0000 0.4181
vn 0.0293 0.0000 0.9996
vn 0.2959 0.0000 0.9552
vn 0.8696 0.0000 0.4938
vn -0.3357 0.0000 0.9420
vn -0.0201 0.0000 0.9998
vn -0.9892 0.0000 -0.1464
vn 0.9986 0.0000 -0.0526
vn -0.8147 0.0000 -0.5798
vn 0.8203 0.0000 -0.5719
vn -0.3882 0.0000 -0.9216
vn 0.0332 0.0000 -0.9995
vn 0.9815 0.0000 -0.1916
vn -0.0816 0.0000 -0.9967
vn 0.3832 0.0000 -0.9237
vn -0.9746 0.0000 -0.2241
vn -0.0961 0.0000 -0.9954
vn 0.0170 0.0000 -0.9999
vn 0.2703 0.0000 0.9628
vn -0.0867 0.0000 0.9962
vn 0.9995 0.0000 0.0319
vn -0.1887 0.0000 0.9820
vn 0.9868 0.0000 0.1618
vn 0.0122 0.0000 0.9999
vn -0.3400 0.0000 0.9404
vn -0.9960 0.0000 0.0897
vn 0.1201 0.0000 0.9928
vn -0.9976 0.0000 0.0688
vn 0.9381 0.0000 -0.3464
vn -0.9535 0.0000 -0.3013
vn 0.9932 0.0000 -0.1160
vn -0.9999 0.0000 -0.0105
vn 0.6072 0.0000 0.7945
vn -0.5334 0.0000 0.8458
vn 0.0131 0.0000 0.9999
vn 0.0000 1.0000 0.0000
usemtl BackMat.001
s off
f 254/1/1 252/2/1 246/3/1
f 220/4/1 211/5/1 218/6/1
f 248/7/1 235/8/1 239/9/1
f 213/10/1 205/11/1 206/12/1
f 198/13/1 196/14/1 197/15/1
f 249/16/1 254/1/1 246/3/1
f 243/17/1 244/18/1 242/19/1
f 222/20/1 204/21/1 205/11/1
f 211/5/1 212/22/1 209/23/1
f 231/24/1 226/25/1 228/26/1
f 229/27/1 215/28/1 224/29/1
f 246/3/1 232/30/1 230/31/1
f 252/2/1 232/30/1 246/3/1
f 194/32/1 196/14/1 193/33/1
f 218/6/1 208/34/1 200/35/1
f 260/36/1 259/37/1 264/38/1
f 245/39/1 233/40/1 248/7/1
f 218/6/1 200/35/1 226/25/1
f 216/41/1 214/42/1 227/43/1
f 259/37/1 258/44/1 249/16/1
f 227/43/1 212/22/1 220/4/1
f 228/26/1 202/45/1 204/21/1
f 199/46/1 200/35/1 198/13/1
f 193/33/1 196/14/1 191/47/1
f 246/3/1 231/24/1 245/39/1
f 253/48/1 232/30/1 252/2/1
f 262/49/1 260/36/1 264/38/1
f 208/34/1 218/6/1 211/5/1
f 197/15/1 194/32/1 195/50/1
f 263/51/1 264/38/1 259/37/1
f 211/5/1 220/4/1 212/22/1
f 239/9/1 236/52/1 237/53/1
f 259/37/1 260/36/1 258/44/1
f 246/3/1 230/31/1 231/24/1
f 258/44/1 254/1/1 249/16/1
f 240/54/1 242/19/1 244/18/1
f 261/55/1 263/51/1 259/37/1
f 232/30/1 253/48/1 243/17/1
f 244/18/1 253/48/1 256/56/1
f 244/18/1 243/17/1 253/48/1
f 230/31/1 226/25/1 231/24/1
f 202/45/1 200/35/1 199/46/1
f 197/15/1 196/14/1 194/32/1
f 226/25/1 202/45/1 228/26/1
f 215/28/1 221/57/1 213/10/1
f 213/10/1 221/57/1 205/11/1
f 239/9/1 235/8/1 236/52/1
f 228/26/1 204/21/1 222/20/1
f 226/25/1 200/35/1 202/45/1
f 227/43/1 214/42/1 212/22/1
f 221/57/1 222/20/1 205/11/1
f 199/46/1 198/13/1 197/15/1
f 245/39/1 231/24/1 233/40/1
f 248/7/1 239/9/1 250/58/1
f 221/57/1 215/28/1 229/27/1
f 233/40/1 235/8/1 248/7/1
f 118/59/2 21/60/2 79/61/2 192/62/2
f 21/60/3 22/63/3 80/64/3 79/61/3
f 22/63/4 23/65/4 81/66/4 80/64/4
f 19/67/5 20/68/5 78/69/5 77/70/5
f 23/65/6 24/71/6 82/72/6 81/66/6
f 18/73/7 19/67/7 77/70/7 76/74/7
f 24/71/8 25/75/8 83/76/8 82/72/8
f 127/77/9 18/73/9 76/74/9 201/78/9
f 25/75/10 129/79/10 203/80/10 83/76/10
f 26/81/11 27/82/11 85/83/11 84/84/11
f 28/85/12 133/86/12 207/87/12 86/88/12
f 16/89/13 17/90/13 75/91/13 74/92/13
f 136/93/14 15/94/14 73/95/14 210/96/14
f 27/82/15 28/85/15 86/88/15 85/83/15
f 15/94/16 16/89/16 74/92/16 73/95/16
f 13/97/17 14/98/17 72/99/17 71/100/17
f 29/101/18 30/102/18 88/103/18 87/104/18
f 12/105/19 13/97/19 71/100/19 70/106/19
f 30/102/20 31/107/20 89/108/20 88/103/20
f 143/109/21 12/105/21 70/106/21 217/110/21
f 145/111/22 9/112/22 67/113/22 219/114/22
f 34/115/23 149/116/23 223/117/23 92/118/23
f 31/107/24 151/119/24 225/120/24 89/108/24
f 7/121/25 8/122/25 66/123/25 65/124/25
f 10/125/26 11/126/26 69/127/26 68/128/26
f 9/112/27 10/125/27 68/128/27 67/113/27
f 35/129/28 36/130/28 94/131/28 93/132/28
f 33/133/29 34/115/29 92/118/29 91/134/29
f 32/135/30 33/133/30 91/134/30 90/136/30
f 6/137/31 7/121/31 65/124/31 64/138/31
f 36/130/32 37/139/32 95/140/32 94/131/32
f 5/141/33 6/137/33 64/138/33 63/142/33
f 37/139/34 160/143/34 234/144/34 95/140/34
f 39/145/35 40/146/35 98/147/35 97/148/35
f 40/146/36 164/149/36 238/150/36 98/147/36
f 41/151/37 42/152/37 100/153/37 99/154/37
f 167/155/38 3/156/38 61/157/38 241/158/38
f 3/156/39 4/159/39 62/160/39 61/157/39
f 1/161/40 2/162/40 60/163/40 59/164/40
f 38/165/41 39/145/41 97/148/41 96/166/41
f 4/159/42 5/141/42 63/142/42 62/160/42
f 45/167/43 173/168/43 247/169/43 103/170/43
f 44/171/44 45/167/44 103/170/44 102/172/44
f 46/173/45 47/174/45 105/175/45 104/176/45
f 177/177/46 44/171/46 102/172/46 251/178/46
f 42/152/47 43/179/47 101/180/47 100/153/47
f 56/181/48 57/182/48 115/183/48 114/184/48
f 181/185/49 56/181/49 114/184/49 255/186/49
f 183/187/50 1/161/50 59/164/50 257/188/50
f 57/182/51 58/189/51 116/190/51 115/183/51
f 54/191/52 55/192/52 113/193/52 112/194/52
f 47/174/53 48/195/53 106/196/53 105/175/53
f 53/197/54 54/191/54 112/194/54 111/198/54
f 48/195/55 49/199/55 107/200/55 106/196/55
f 52/201/56 53/197/56 111/198/56 110/202/56
f 49/199/57 50/203/57 108/204/57 107/200/57
f 51/205/58 52/201/58 110/202/58 109/206/58
f 50/203/59 51/205/59 109/206/59 108/204/59
usemtl FrontMat.001
f 180/207/60 172/208/60 178/209/60
f 146/210/60 144/211/60 137/212/60
f 174/213/60 165/214/60 161/215/60
f 139/216/60 132/217/60 131/218/60
f 124/219/60 123/220/60 122/221/60
f 175/222/60 172/208/60 180/207/60
f 169/223/60 168/224/60 170/225/60
f 148/226/60 131/218/60 130/227/60
f 137/212/60 135/228/60 138/229/60
f 157/230/60 154/231/60 152/232/60
f 155/233/60 150/234/60 141/235/60
f 172/208/60 156/236/60 158/237/60
f 178/209/60 172/208/60 158/237/60
f 120/238/60 119/239/60 122/221/60
f 144/211/60 126/240/60 134/241/60
f 186/242/60 190/243/60 185/244/60
f 171/245/60 174/213/60 159/246/60
f 144/211/60 152/232/60 126/240/60
f 142/247/60 153/248/60 140/249/60
f 185/244/60 175/222/60 184/250/60
f 153/248/60 146/210/60 138/229/60
f 154/231/60 130/227/60 128/251/60
f 125/252/60 124/219/60 126/240/60
f 119/239/60 117/253/60 122/221/60
f 172/208/60 171/245/60 157/230/60
f 179/254/60 178/209/60 158/237/60
f 188/255/60 190/243/60 186/242/60
f 134/241/60 137/212/60 144/211/60
f 123/220/60 121/256/60 120/238/60
f 189/257/60 185/244/60 190/243/60
f 137/212/60 138/229/60 146/210/60
f 165/214/60 163/258/60 162/259/60
f 185/244/60 184/250/60 186/242/60
f 172/208/60 157/230/60 156/236/60
f 184/250/60 175/222/60 180/207/60
f 166/260/60 170/225/60 168/224/60
f 187/261/60 185/244/60 189/257/60
f 158/237/60 169/223/60 179/254/60
f 170/225/60 182/262/60 179/254/60
f 170/225/60 179/254/60 169/223/60
f 156/236/60 157/230/60 152/232/60
f 128/251/60 125/252/60 126/240/60
f 123/220/60 120/238/60 122/221/60
f 152/232/60 154/231/60 128/251/60
f 141/235/60 139/216/60 147/263/60
f 139/216/60 131/218/60 147/263/60
f 165/214/60 162/259/60 161/215/60
f 154/231/60 148/226/60 130/227/60
f 152/232/60 128/251/60 126/240/60
f 153/248/60 138/229/60 140/249/60
f 147/263/60 131/218/60 148/226/60
f 125/252/60 123/220/60 124/219/60
f 171/245/60 159/246/60 157/230/60
f 174/213/60 176/264/60 165/214/60
f 147/263/60 155/233/60 141/235/60
f 159/246/60 174/213/60 161/215/60
