# Blender v2.83.1 OBJ File: 'jigsaw-96x54-3-step2.blend'
# www.blender.org
mtllib piece.1009.mtl
o path2018
v 0.334347 0.037500 0.466238
v 0.220051 0.037500 0.458805
v 0.148209 0.037500 0.482076
v 0.150044 0.037500 0.548173
v 0.181732 0.037500 0.635210
v 0.180679 0.037500 0.712818
v 0.105606 0.037500 0.755732
v 0.000424 0.037500 0.759110
v -0.069649 0.037500 0.723219
v -0.061836 0.037500 0.652922
v -0.023159 0.037500 0.571489
v -0.023086 0.037500 0.506791
v -0.109730 0.037500 0.479207
v -0.245697 0.037500 0.479153
v -0.474499 0.037500 0.499507
v -0.446014 0.037500 0.289546
v -0.441784 0.037500 0.165477
v -0.467892 0.037500 0.088013
v -0.535408 0.037500 0.091586
v -0.620571 0.037500 0.129968
v -0.690968 0.037500 0.136766
v -0.720760 0.037500 0.067414
v -0.710419 0.037500 -0.035339
v -0.666992 0.037500 -0.106915
v -0.599953 0.037500 -0.104412
v -0.528461 0.037500 -0.071653
v -0.474106 0.037500 -0.074139
v -0.452358 0.037500 -0.157279
v -0.474499 0.037500 -0.502191
v -0.245602 0.037500 -0.480486
v -0.107990 0.037500 -0.481145
v -0.016697 0.037500 -0.512331
v -0.008774 0.037500 -0.584610
v -0.040520 0.037500 -0.675500
v -0.048050 0.037500 -0.754272
v 0.012081 0.037500 -0.795166
v 0.101639 0.037500 -0.792324
v 0.161964 0.037500 -0.744856
v 0.154407 0.037500 -0.657763
v 0.120392 0.037500 -0.559555
v 0.121357 0.037500 -0.484627
v 0.199745 0.037500 -0.457791
v 0.322018 0.037500 -0.465554
v 0.527409 0.037500 -0.502192
v 0.553757 0.037500 -0.281019
v 0.556381 0.037500 -0.147472
v 0.528461 0.037500 -0.057576
v 0.459064 0.037500 -0.046828
v 0.371525 0.037500 -0.073842
v 0.297756 0.037500 -0.078000
v 0.263771 0.037500 -0.018050
v 0.272011 0.037500 0.069806
v 0.319038 0.037500 0.130010
v 0.397236 0.037500 0.125984
v 0.482388 0.037500 0.097092
v 0.546120 0.037500 0.101681
v 0.568127 0.037500 0.179968
v 0.560398 0.037500 0.299638
v 0.527409 0.037500 0.499507
v 0.334347 -0.037500 0.466238
v 0.220051 -0.037498 0.458805
v 0.148209 -0.037500 0.482076
v 0.150044 -0.037500 0.548173
v 0.181732 -0.037498 0.635210
v 0.180679 -0.037500 0.712818
v 0.105606 -0.037500 0.755732
v 0.000424 -0.037498 0.759110
v -0.069649 -0.037500 0.723219
v -0.061836 -0.037500 0.652922
v -0.023159 -0.037500 0.571489
v -0.023086 -0.037500 0.506791
v -0.109730 -0.037500 0.479207
v -0.245697 -0.037500 0.479153
v -0.474499 -0.037500 0.499507
v -0.446014 -0.037500 0.289546
v -0.441784 -0.037500 0.165477
v -0.467892 -0.037500 0.088013
v -0.535408 -0.037500 0.091586
v -0.620571 -0.037500 0.129968
v -0.690968 -0.037500 0.136766
v -0.720760 -0.037498 0.067414
v -0.710419 -0.037498 -0.035339
v -0.666992 -0.037500 -0.106915
v -0.599953 -0.037500 -0.104412
v -0.528461 -0.037500 -0.071653
v -0.474106 -0.037500 -0.074139
v -0.452358 -0.037500 -0.157279
v -0.474499 -0.037500 -0.502191
v -0.245602 -0.037500 -0.480486
v -0.107990 -0.037500 -0.481145
v -0.016697 -0.037500 -0.512331
v -0.008774 -0.037500 -0.584610
v -0.040520 -0.037500 -0.675500
v -0.048050 -0.037500 -0.754272
v 0.012081 -0.037500 -0.795166
v 0.101639 -0.037500 -0.792324
v 0.161964 -0.037500 -0.744856
v 0.154407 -0.037500 -0.657763
v 0.120392 -0.037500 -0.559555
v 0.121357 -0.037500 -0.484627
v 0.199745 -0.037498 -0.457791
v 0.322018 -0.037500 -0.465554
v 0.527409 -0.037498 -0.502192
v 0.553757 -0.037500 -0.281019
v 0.556381 -0.037500 -0.147472
v 0.528461 -0.037500 -0.057576
v 0.459064 -0.037500 -0.046828
v 0.371525 -0.037500 -0.073842
v 0.297756 -0.037500 -0.078000
v 0.263771 -0.037500 -0.018050
v 0.272011 -0.037500 0.069806
v 0.319038 -0.037500 0.130010
v 0.397236 -0.037500 0.125984
v 0.482388 -0.037498 0.097092
v 0.546120 -0.037500 0.101681
v 0.568127 -0.037500 0.179968
v 0.560398 -0.037500 0.299638
v 0.527409 -0.037500 0.499507
v 0.105606 0.037500 0.755732
v 0.000424 0.037500 0.759110
v -0.069649 0.037500 0.723219
v -0.069649 0.037500 0.723219
v 0.180679 0.037500 0.712818
v -0.061836 0.037500 0.652922
v 0.181732 0.037500 0.635210
v -0.023159 0.037500 0.571489
v 0.150044 0.037500 0.548173
v -0.023086 0.037500 0.506791
v -0.023086 0.037500 0.506791
v 0.148209 0.037500 0.482076
v 0.148209 0.037500 0.482076
v -0.109730 0.037500 0.479207
v -0.245697 0.037500 0.479153
v -0.474499 0.037500 0.499507
v -0.474499 0.037500 0.499507
v 0.527409 0.037500 0.499507
v 0.527409 0.037500 0.499507
v 0.334347 0.037500 0.466238
v 0.220051 0.037500 0.458805
v 0.560398 0.037500 0.299638
v -0.446014 0.037500 0.289546
v 0.568127 0.037500 0.179968
v -0.441784 0.037500 0.165477
v 0.546120 0.037500 0.101681
v 0.546120 0.037500 0.101681
v 0.319038 0.037500 0.130010
v 0.397236 0.037500 0.125984
v -0.467892 0.037500 0.088013
v -0.467892 0.037500 0.088013
v -0.620571 0.037500 0.129968
v -0.690968 0.037500 0.136766
v -0.690968 0.037500 0.136766
v -0.720760 0.037500 0.067414
v 0.272011 0.037500 0.069806
v -0.535408 0.037500 0.091586
v 0.482388 0.037500 0.097092
v 0.263771 0.037500 -0.018050
v -0.710419 0.037500 -0.035339
v 0.297756 0.037500 -0.078000
v 0.297756 0.037500 -0.078000
v -0.666992 0.037500 -0.106915
v -0.666992 0.037500 -0.106915
v 0.528461 0.037500 -0.057576
v 0.528461 0.037500 -0.057576
v 0.459064 0.037500 -0.046828
v 0.371525 0.037500 -0.073842
v 0.556381 0.037500 -0.147472
v -0.528461 0.037500 -0.071653
v -0.474106 0.037500 -0.074139
v -0.474106 0.037500 -0.074139
v -0.599953 0.037500 -0.104412
v -0.452358 0.037500 -0.157279
v 0.553757 0.037500 -0.281019
v 0.527409 0.037500 -0.502192
v 0.527409 0.037500 -0.502192
v 0.199745 0.037500 -0.457791
v 0.322018 0.037500 -0.465554
v 0.121357 0.037500 -0.484627
v 0.121357 0.037500 -0.484627
v -0.245602 0.037500 -0.480486
v -0.107990 0.037500 -0.481145
v -0.474499 0.037500 -0.502191
v -0.474499 0.037500 -0.502191
v -0.016697 0.037500 -0.512331
v -0.016697 0.037500 -0.512331
v 0.120392 0.037500 -0.559555
v -0.008774 0.037500 -0.584610
v 0.154407 0.037500 -0.657763
v -0.040520 0.037500 -0.675500
v 0.161964 0.037500 -0.744856
v -0.048050 0.037500 -0.754272
v -0.048050 0.037500 -0.754272
v 0.101639 0.037500 -0.792324
v 0.012081 0.037500 -0.795166
v 0.105606 -0.037500 0.755732
v 0.000424 -0.037498 0.759110
v -0.069649 -0.037500 0.723219
v -0.069649 -0.037500 0.723219
v 0.180679 -0.037500 0.712818
v -0.061836 -0.037500 0.652922
v 0.181732 -0.037498 0.635210
v -0.023159 -0.037500 0.571489
v 0.150044 -0.037500 0.548173
v -0.023086 -0.037500 0.506791
v -0.023086 -0.037500 0.506791
v 0.148209 -0.037500 0.482076
v 0.148209 -0.037500 0.482076
v -0.109730 -0.037500 0.479207
v -0.245697 -0.037500 0.479153
v -0.474499 -0.037500 0.499507
v -0.474499 -0.037500 0.499507
v 0.527409 -0.037500 0.499507
v 0.527409 -0.037500 0.499507
v 0.334347 -0.037500 0.466238
v 0.220051 -0.037498 0.458805
v 0.560398 -0.037500 0.299638
v -0.446014 -0.037500 0.289546
v 0.568127 -0.037500 0.179968
v -0.441784 -0.037500 0.165477
v 0.546120 -0.037500 0.101681
v 0.546120 -0.037500 0.101681
v 0.319038 -0.037500 0.130010
v 0.397236 -0.037500 0.125984
v -0.467892 -0.037500 0.088013
v -0.467892 -0.037500 0.088013
v -0.620571 -0.037500 0.129968
v -0.690968 -0.037500 0.136766
v -0.690968 -0.037500 0.136766
v -0.720760 -0.037498 0.067414
v 0.272011 -0.037500 0.069806
v -0.535408 -0.037500 0.091586
v 0.482388 -0.037498 0.097092
v 0.263771 -0.037500 -0.018050
v -0.710419 -0.037498 -0.035339
v 0.297756 -0.037500 -0.078000
v 0.297756 -0.037500 -0.078000
v -0.666992 -0.037500 -0.106915
v -0.666992 -0.037500 -0.106915
v 0.528461 -0.037500 -0.057576
v 0.528461 -0.037500 -0.057576
v 0.459064 -0.037500 -0.046828
v 0.371525 -0.037500 -0.073842
v 0.556381 -0.037500 -0.147472
v -0.528461 -0.037500 -0.071653
v -0.474106 -0.037500 -0.074139
v -0.474106 -0.037500 -0.074139
v -0.599953 -0.037500 -0.104412
v -0.452358 -0.037500 -0.157279
v 0.553757 -0.037500 -0.281019
v 0.527409 -0.037498 -0.502192
v 0.527409 -0.037498 -0.502192
v 0.199745 -0.037498 -0.457791
v 0.322018 -0.037500 -0.465554
v 0.121357 -0.037500 -0.484627
v 0.121357 -0.037500 -0.484627
v -0.245602 -0.037500 -0.480486
v -0.107990 -0.037500 -0.481145
v -0.474499 -0.037500 -0.502191
v -0.474499 -0.037500 -0.502191
v -0.016697 -0.037500 -0.512331
v -0.016697 -0.037500 -0.512331
v 0.120392 -0.037500 -0.559555
v -0.008774 -0.037500 -0.584610
v 0.154407 -0.037500 -0.657763
v -0.040520 -0.037500 -0.675500
v 0.161964 -0.037500 -0.744856
v -0.048050 -0.037500 -0.754272
v -0.048050 -0.037500 -0.754272
v 0.101639 -0.037500 -0.792324
v 0.012081 -0.037500 -0.795166
vt 0.500000 0.500000
vt 0.500000 0.500000
vt 0.500000 0.500000
vt 0.500000 0.500000
vt 0.500000 0.500000
vt 0.500000 0.500000
vt 0.500000 0.500000
vt 0.500000 0.500000
vt 0.500000 0.500000
vt 0.500000 0.500000
vt 0.500000 0.500000
vt 0.500000 0.500000
vt 0.500000 0.500000
vt 0.500000 0.500000
vt 0.500000 0.500000
vt 0.500000 0.500000
vt 0.500000 0.500000
vt 0.500000 0.500000
vt 0.500000 0.500000
vt 0.500000 0.500000
vt 0.500000 0.500000
vt 0.500000 0.500000
vt 0.500000 0.500000
vt 0.500000 0.500000
vt 0.500000 0.500000
vt 0.500000 0.500000
vt 0.500000 0.500000
vt 0.500000 0.500000
vt 0.500000 0.500000
vt 0.500000 0.500000
vt 0.500000 0.500000
vt 0.500000 0.500000
vt 0.500000 0.500000
vt 0.500000 0.500000
vt 0.500000 0.500000
vt 0.500000 0.500000
vt 0.500000 0.500000
vt 0.500000 0.500000
vt 0.500000 0.500000
vt 0.500000 0.500000
vt 0.500000 0.500000
vt 0.500000 0.500000
vt 0.500000 0.500000
vt 0.500000 0.500000
vt 0.500000 0.500000
vt 0.500000 0.500000
vt 0.500000 0.500000
vt 0.500000 0.500000
vt 0.500000 0.500000
vt 0.500000 0.500000
vt 0.500000 0.500000
vt 0.500000 0.500000
vt 0.500000 0.500000
vt 0.500000 0.500000
vt 0.500000 0.500000
vt 0.500000 0.500000
vt 0.500000 0.500000
vt 0.500000 0.500000
vt 0.500000 0.500000
vt 0.500000 0.500000
vt 0.500000 0.500000
vt 0.500000 0.500000
vt 0.500000 0.500000
vt 0.500000 0.500000
vt 0.500000 0.500000
vt 0.500000 0.500000
vt 0.500000 0.500000
vt 0.500000 0.500000
vt 0.500000 0.500000
vt 0.500000 0.500000
vt 0.500000 0.500000
vt 0.500000 0.500000
vt 0.500000 0.500000
vt 0.500000 0.500000
vt 0.500000 0.500000
vt 0.500000 0.500000
vt 0.500000 0.500000
vt 0.500000 0.500000
vt 0.500000 0.500000
vt 0.500000 0.500000
vt 0.500000 0.500000
vt 0.500000 0.500000
vt 0.500000 0.500000
vt 0.500000 0.500000
vt 0.500000 0.500000
vt 0.500000 0.500000
vt 0.500000 0.500000
vt 0.500000 0.500000
vt 0.500000 0.500000
vt 0.500000 0.500000
vt 0.500000 0.500000
vt 0.500000 0.500000
vt 0.500000 0.500000
vt 0.500000 0.500000
vt 0.500000 0.500000
vt 0.500000 0.500000
vt 0.500000 0.500000
vt 0.500000 0.500000
vt 0.500000 0.500000
vt 0.500000 0.500000
vt 0.500000 0.500000
vt 0.500000 0.500000
vt 0.500000 0.500000
vt 0.500000 0.500000
vt 0.500000 0.500000
vt 0.500000 0.500000
vt 0.500000 0.500000
vt 0.500000 0.500000
vt 0.500000 0.500000
vt 0.500000 0.500000
vt 0.500000 0.500000
vt 0.500000 0.500000
vt 0.500000 0.500000
vt 0.500000 0.500000
vt 0.500000 0.500000
vt 0.500000 0.500000
vt 0.500000 0.500000
vt 0.500000 0.500000
vt 0.500000 0.500000
vt 0.500000 0.500000
vt 0.500000 0.500000
vt 0.500000 0.500000
vt 0.500000 0.500000
vt 0.500000 0.500000
vt 0.500000 0.500000
vt 0.500000 0.500000
vt 0.500000 0.500000
vt 0.500000 0.500000
vt 0.500000 0.500000
vt 0.500000 0.500000
vt 0.500000 0.500000
vt 0.500000 0.500000
vt 0.500000 0.500000
vt 0.500000 0.500000
vt 0.500000 0.500000
vt 0.500000 0.500000
vt 0.500000 0.500000
vt 0.500000 0.500000
vt 0.500000 0.500000
vt 0.500000 0.500000
vt 0.500000 0.500000
vt 0.500000 0.500000
vt 0.500000 0.500000
vt 0.500000 0.500000
vt 0.500000 0.500000
vt 0.500000 0.500000
vt 0.500000 0.500000
vt 0.500000 0.500000
vt 0.500000 0.500000
vt 0.500000 0.500000
vt 0.500000 0.500000
vt 0.500000 0.500000
vt 0.500000 0.500000
vt 0.500000 0.500000
vt 0.500000 0.500000
vt 0.500000 0.500000
vt 0.500000 0.500000
vt 0.500000 0.500000
vt 0.500000 0.500000
vt 0.500000 0.500000
vt 0.500000 0.500000
vt 0.500000 0.500000
vt 0.500000 0.500000
vt 0.500000 0.500000
vt 0.500000 0.500000
vt 0.500000 0.500000
vt 0.500000 0.500000
vt 0.500000 0.500000
vt 0.500000 0.500000
vt 0.500000 0.500000
vt 0.500000 0.500000
vt 0.500000 0.500000
vt 0.500000 0.500000
vt 0.500000 0.500000
vt 0.500000 0.500000
vt 0.500000 0.500000
vt 0.500000 0.500000
vt 0.500000 0.500000
vt 0.500000 0.500000
vt 0.500000 0.500000
vt 0.500000 0.500000
vt 0.500000 0.500000
vt 0.500000 0.500000
vt 0.500000 0.500000
vt 0.500000 0.500000
vt 0.500000 0.500000
vt 0.500000 0.500000
vt 0.500000 0.500000
vt 0.500000 0.500000
vt 0.500000 0.500000
vt 0.500000 0.500000
vt 0.500000 0.500000
vt 0.500000 0.500000
vt 0.500000 0.500000
vt 0.500000 0.500000
vt 0.500000 0.500000
vt 0.500000 0.500000
vt 0.500000 0.500000
vt 0.500000 0.500000
vt 0.500000 0.500000
vt 0.500000 0.500000
vt 0.500000 0.500000
vt 0.500000 0.500000
vt 0.500000 0.500000
vt 0.500000 0.500000
vt 0.500000 0.500000
vt 0.500000 0.500000
vt 0.500000 0.500000
vt 0.500000 0.500000
vt 0.500000 0.500000
vt 0.500000 0.500000
vt 0.503594 0.817324
vt 0.503923 0.815714
vt 0.505724 0.816146
vt 0.504427 0.790933
vt 0.505905 0.793092
vt 0.503878 0.793420
vt 0.508037 0.796697
vt 0.510417 0.796296
vt 0.510186 0.802673
vt 0.499726 0.800385
vt 0.500000 0.796296
vt 0.502135 0.796974
vt 0.504222 0.796621
vt 0.502741 0.805247
vt 0.502388 0.804138
vt 0.505575 0.794773
vt 0.503799 0.791810
vt 0.510413 0.804210
vt 0.510978 0.804256
vt 0.510348 0.807207
vt 0.510077 0.808640
vt 0.508038 0.814438
vt 0.506624 0.814439
vt 0.504232 0.795236
vt 0.505657 0.796109
vt 0.506126 0.817651
vt 0.504385 0.819552
vt 0.512869 0.804927
vt 0.512977 0.806827
vt 0.511935 0.807983
vt 0.499657 0.811120
vt 0.499577 0.808907
vt 0.501353 0.807909
vt 0.503942 0.814492
vt 0.502166 0.807984
vt 0.502655 0.806871
vt 0.505723 0.814949
vt 0.510121 0.810933
vt 0.510417 0.814815
vt 0.512667 0.808109
vt 0.499699 0.802854
vt 0.501621 0.804215
vt 0.502007 0.814200
vt 0.500000 0.814815
vt 0.506606 0.796685
vt 0.499805 0.807460
vt 0.500468 0.807375
vt 0.503196 0.814062
vt 0.511050 0.807274
vt 0.505983 0.791636
vt 0.505358 0.790880
vt 0.503407 0.797117
vt 0.505479 0.819614
vt 0.503605 0.818758
vt 0.500711 0.804715
vt 0.499989 0.804516
vt 0.511721 0.803650
vt 0.512418 0.803604
vt 0.506208 0.818951
vn 0.0000 -1.0000 0.0000
vn 0.0321 0.0000 0.9995
vn -0.4559 0.0000 0.8900
vn 0.4963 0.0000 0.8682
vn -0.9939 0.0000 -0.1105
vn 0.9999 0.0000 0.0136
vn -0.9033 0.0000 -0.4290
vn 0.9397 0.0000 -0.3421
vn -1.0000 0.0000 -0.0011
vn 0.9996 0.0000 -0.0277
vn -0.3034 0.0000 0.9529
vn 0.0886 0.0000 0.9961
vn -0.1698 0.0000 0.9855
vn 0.3082 0.0000 0.9513
vn -0.0004 0.0000 1.0000
vn -0.0649 0.0000 0.9979
vn 0.9867 0.0000 0.1629
vn -0.9909 0.0000 -0.1344
vn 0.9979 0.0000 0.0644
vn -0.9994 0.0000 -0.0341
vn 0.9627 0.0000 -0.2706
vn -0.0514 0.0000 -0.9987
vn -0.9476 0.0000 0.3194
vn 0.0961 0.0000 0.9954
vn -0.9188 0.0000 0.3947
vn 0.7881 0.0000 -0.6156
vn 0.4109 0.0000 0.9117
vn 0.0718 0.0000 -0.9974
vn -0.3213 0.0000 -0.9470
vn 0.0529 0.0000 0.9986
vn 0.9956 0.0000 -0.0934
vn -0.9950 0.0000 -0.1001
vn 0.8699 0.0000 0.4932
vn -0.8549 0.0000 -0.5187
vn 0.1531 0.0000 0.9882
vn -0.2949 0.0000 0.9555
vn 0.9550 0.0000 0.2966
vn -0.0457 0.0000 -0.9990
vn 0.4166 0.0000 -0.9091
vn 0.0373 0.0000 -0.9993
vn -0.0563 0.0000 0.9984
vn -0.9674 0.0000 -0.2531
vn 0.9998 0.0000 -0.0196
vn 0.9930 0.0000 -0.1183
vn -0.0634 0.0000 -0.9980
vn 0.3239 0.0000 -0.9461
vn -0.0048 0.0000 -1.0000
vn 0.0944 0.0000 -0.9955
vn -0.9979 0.0000 0.0641
vn -0.3233 0.0000 -0.9463
vn 0.9999 0.0000 -0.0129
vn -0.1756 0.0000 -0.9845
vn -0.9940 0.0000 -0.1090
vn 0.9449 0.0000 0.3273
vn -0.9441 0.0000 0.3297
vn 0.9963 0.0000 0.0864
vn -0.9955 0.0000 0.0952
vn 0.6184 0.0000 -0.7859
vn 0.0317 0.0000 -0.9995
vn -0.5624 0.0000 -0.8269
vn 0.0000 1.0000 -0.0000
usemtl BackMat.001
s off
f 201/1/1 202/2/1 203/3/1
f 269/4/1 264/5/1 265/6/1
f 256/7/1 248/8/1 258/9/1
f 249/10/1 253/11/1 250/12/1
f 254/13/1 235/14/1 233/15/1
f 265/6/1 264/5/1 263/16/1
f 264/5/1 269/4/1 266/17/1
f 245/18/1 224/19/1 244/20/1
f 219/21/1 208/22/1 209/23/1
f 254/13/1 260/24/1 262/25/1
f 202/2/1 195/26/1 200/27/1
f 234/28/1 226/29/1 229/30/1
f 216/31/1 223/32/1 218/33/1
f 206/34/1 230/35/1 222/36/1
f 204/37/1 206/34/1 203/3/1
f 217/38/1 209/23/1 210/39/1
f 229/30/1 226/29/1 227/40/1
f 243/41/1 242/42/1 249/10/1
f 204/37/1 230/35/1 206/34/1
f 214/43/1 216/31/1 212/44/1
f 233/15/1 230/35/1 219/21/1
f 204/37/1 203/3/1 202/2/1
f 260/24/1 254/13/1 257/45/1
f 218/33/1 232/46/1 220/47/1
f 222/36/1 223/32/1 214/43/1
f 223/32/1 232/46/1 218/33/1
f 245/18/1 233/15/1 224/19/1
f 215/48/1 222/36/1 214/43/1
f 244/20/1 231/49/1 234/28/1
f 214/43/1 223/32/1 216/31/1
f 224/19/1 233/15/1 219/21/1
f 267/50/1 270/51/1 265/6/1
f 226/29/1 234/28/1 231/49/1
f 244/20/1 224/19/1 231/49/1
f 219/21/1 209/23/1 217/38/1
f 252/52/1 235/14/1 254/13/1
f 257/45/1 254/13/1 233/15/1
f 195/26/1 202/2/1 201/1/1
f 200/27/1 195/26/1 196/53/1
f 195/26/1 201/1/1 199/54/1
f 241/55/1 243/41/1 239/56/1
f 262/25/1 263/16/1 264/5/1
f 247/57/1 234/28/1 237/58/1
f 270/51/1 269/4/1 265/6/1
f 200/27/1 196/53/1 197/59/1
f 208/22/1 230/35/1 204/37/1
f 253/11/1 235/14/1 252/52/1
f 242/42/1 243/41/1 241/55/1
f 256/7/1 257/45/1 248/8/1
f 257/45/1 233/15/1 248/8/1
f 244/20/1 234/28/1 247/57/1
f 235/14/1 253/11/1 242/42/1
f 249/10/1 242/42/1 253/11/1
f 206/34/1 222/36/1 215/48/1
f 263/16/1 262/25/1 260/24/1
f 248/8/1 233/15/1 245/18/1
f 219/21/1 230/35/1 208/22/1
f 7/60/2 8/61/2 67/62/2 66/63/2
f 8/61/3 122/64/3 198/65/3 67/62/3
f 6/66/4 7/60/4 66/63/4 65/67/4
f 9/68/5 10/69/5 69/70/5 68/71/5
f 5/72/6 6/66/6 65/67/6 64/73/6
f 10/69/7 11/74/7 70/75/7 69/70/7
f 4/76/8 5/72/8 64/73/8 63/77/8
f 11/74/9 129/78/9 205/79/9 70/75/9
f 131/80/10 4/76/10 63/77/10 207/81/10
f 12/82/11 13/83/11 72/84/11 71/85/11
f 14/86/12 135/87/12 211/88/12 73/89/12
f 137/90/13 1/91/13 60/92/13 213/93/13
f 2/94/14 3/95/14 62/96/14 61/97/14
f 13/83/15 14/86/15 73/89/15 72/84/15
f 1/91/16 2/94/16 61/97/16 60/92/16
f 58/98/17 59/99/17 118/100/17 117/101/17
f 15/102/18 16/103/18 75/104/18 74/105/18
f 57/106/19 58/98/19 117/101/19 116/107/19
f 16/103/20 17/108/20 76/109/20 75/104/20
f 145/110/21 57/106/21 116/107/21 221/111/21
f 53/112/22 54/113/22 113/114/22 112/115/22
f 17/108/23 149/116/23 225/117/23 76/109/23
f 20/118/24 152/119/24 228/120/24 79/121/24
f 21/122/25 22/123/25 81/124/25 80/125/25
f 52/126/26 53/112/26 112/115/26 111/127/26
f 19/128/27 20/118/27 79/121/27 78/129/27
f 55/130/28 56/131/28 115/132/28 114/133/28
f 54/113/29 55/130/29 114/133/29 113/114/29
f 18/134/30 19/128/30 78/129/30 77/135/30
f 51/136/31 52/126/31 111/127/31 110/137/31
f 22/123/32 23/138/32 82/139/32 81/124/32
f 160/140/33 51/136/33 110/137/33 236/141/33
f 23/138/34 162/142/34 238/143/34 82/139/34
f 164/144/35 48/145/35 107/146/35 240/147/35
f 48/145/36 49/148/36 108/149/36 107/146/36
f 46/150/37 47/151/37 106/152/37 105/153/37
f 26/154/38 170/155/38 246/156/38 85/157/38
f 25/158/39 26/154/39 85/157/39 84/159/39
f 24/160/40 25/158/40 84/159/40 83/161/40
f 49/148/41 50/162/41 109/163/41 108/149/41
f 27/164/42 28/165/42 87/166/42 86/167/42
f 45/168/43 46/150/43 105/153/43 104/169/43
f 175/170/44 45/168/44 104/169/44 251/171/44
f 42/172/45 43/173/45 102/174/45 101/175/45
f 179/176/46 42/172/46 101/175/46 255/177/46
f 30/178/47 31/179/47 90/180/47 89/181/47
f 183/182/48 30/178/48 89/181/48 259/183/48
f 28/165/49 29/184/49 88/185/49 87/166/49
f 31/179/50 185/186/50 261/187/50 90/180/50
f 40/188/51 41/189/51 100/190/51 99/191/51
f 43/173/52 44/192/52 103/193/52 102/174/52
f 32/194/53 33/195/53 92/196/53 91/197/53
f 39/198/54 40/188/54 99/191/54 98/199/54
f 33/195/55 34/200/55 93/201/55 92/196/55
f 38/202/56 39/198/56 98/199/56 97/203/56
f 34/200/57 192/204/57 268/205/57 93/201/57
f 37/206/58 38/202/58 97/203/58 96/207/58
f 36/208/59 37/206/59 96/207/59 95/209/59
f 35/210/60 36/208/60 95/209/60 94/211/60
usemtl FrontMat.001
f 125/212/61 127/213/61 126/214/61
f 193/215/61 189/216/61 188/217/61
f 180/218/61 182/219/61 172/220/61
f 173/221/61 174/222/61 177/223/61
f 178/224/61 157/225/61 159/226/61
f 189/216/61 187/227/61 188/217/61
f 188/217/61 190/228/61 193/215/61
f 169/229/61 168/230/61 148/231/61
f 143/232/61 133/233/61 132/234/61
f 178/224/61 186/235/61 184/236/61
f 126/214/61 124/237/61 119/238/61
f 158/239/61 153/240/61 150/241/61
f 140/242/61 142/243/61 147/244/61
f 130/245/61 146/246/61 154/247/61
f 128/248/61 127/213/61 130/245/61
f 141/249/61 134/250/61 133/233/61
f 153/240/61 151/251/61 150/241/61
f 167/252/61 173/221/61 166/253/61
f 128/248/61 130/245/61 154/247/61
f 138/254/61 136/255/61 140/242/61
f 157/225/61 143/232/61 154/247/61
f 128/248/61 126/214/61 127/213/61
f 184/236/61 181/256/61 178/224/61
f 142/243/61 144/257/61 156/258/61
f 146/246/61 138/254/61 147/244/61
f 147/244/61 142/243/61 156/258/61
f 169/229/61 148/231/61 157/225/61
f 139/259/61 138/254/61 146/246/61
f 168/230/61 158/239/61 155/260/61
f 138/254/61 140/242/61 147/244/61
f 148/231/61 143/232/61 157/225/61
f 191/261/61 189/216/61 194/262/61
f 150/241/61 155/260/61 158/239/61
f 168/230/61 155/260/61 148/231/61
f 143/232/61 141/249/61 133/233/61
f 176/263/61 178/224/61 159/226/61
f 181/256/61 157/225/61 178/224/61
f 119/238/61 125/212/61 126/214/61
f 124/237/61 120/264/61 119/238/61
f 119/238/61 123/265/61 125/212/61
f 165/266/61 163/267/61 167/252/61
f 186/235/61 188/217/61 187/227/61
f 171/268/61 161/269/61 158/239/61
f 194/262/61 189/216/61 193/215/61
f 124/237/61 121/270/61 120/264/61
f 132/234/61 128/248/61 154/247/61
f 177/223/61 176/263/61 159/226/61
f 166/253/61 165/266/61 167/252/61
f 180/218/61 172/220/61 181/256/61
f 181/256/61 172/220/61 157/225/61
f 168/230/61 171/268/61 158/239/61
f 159/226/61 166/253/61 177/223/61
f 173/221/61 177/223/61 166/253/61
f 130/245/61 139/259/61 146/246/61
f 187/227/61 184/236/61 186/235/61
f 172/220/61 169/229/61 157/225/61
f 143/232/61 132/234/61 154/247/61
