# Blender v2.83.1 OBJ File: 'jigsaw-96x54-3-step2.blend'
# www.blender.org
mtllib piece.193.mtl
o path386_path386.001
v -0.506045 0.037500 -0.501088
v -0.299441 0.037500 -0.544173
v -0.176474 0.037500 -0.556195
v -0.097690 0.037500 -0.533027
v -0.096798 0.037500 -0.460410
v -0.130898 0.037500 -0.364366
v -0.137936 0.037500 -0.280983
v -0.076187 0.037500 -0.239846
v 0.014745 0.037500 -0.244498
v 0.074927 0.037500 -0.291978
v 0.065329 0.037500 -0.374532
v 0.030537 0.037500 -0.465242
v 0.036043 0.037500 -0.532404
v 0.126727 0.037500 -0.553369
v 0.265030 0.037500 -0.541725
v 0.495864 0.037500 -0.501088
v 0.533244 0.037500 -0.295050
v 0.542573 0.037500 -0.172097
v 0.519270 0.037500 -0.092586
v 0.450568 0.037500 -0.089873
v 0.361326 0.037500 -0.121124
v 0.285814 0.037500 -0.124457
v 0.252011 0.037500 -0.058334
v 0.262716 0.037500 0.037406
v 0.314435 0.037500 0.102582
v 0.398923 0.037500 0.097637
v 0.488929 0.037500 0.065514
v 0.552454 0.037500 0.069781
v 0.566971 0.037500 0.154274
v 0.547845 0.037500 0.283895
v 0.495864 0.037500 0.500610
v 0.134257 0.037500 0.537383
v 0.043479 0.037500 0.516726
v 0.034314 0.037500 0.457800
v 0.064398 0.037500 0.380327
v 0.071664 0.037500 0.311666
v 0.013634 0.037500 0.275017
v -0.073812 0.037500 0.276948
v -0.135202 0.037500 0.319870
v -0.133800 0.037500 0.400110
v -0.107790 0.037500 0.489651
v -0.114089 0.037500 0.554391
v -0.191925 0.037500 0.570062
v -0.309772 0.037500 0.551729
v -0.506045 0.037500 0.500610
v -0.506045 -0.037500 -0.501088
v -0.299441 -0.037500 -0.544173
v -0.176474 -0.037500 -0.556195
v -0.097690 -0.037500 -0.533027
v -0.096798 -0.037500 -0.460410
v -0.130898 -0.037500 -0.364366
v -0.137936 -0.037500 -0.280983
v -0.076187 -0.037500 -0.239846
v 0.014745 -0.037500 -0.244498
v 0.074927 -0.037500 -0.291978
v 0.065329 -0.037500 -0.374532
v 0.030537 -0.037500 -0.465242
v 0.036043 -0.037500 -0.532404
v 0.126727 -0.037500 -0.553369
v 0.265030 -0.037500 -0.541725
v 0.495864 -0.037500 -0.501088
v 0.533244 -0.037500 -0.295050
v 0.542573 -0.037500 -0.172097
v 0.519270 -0.037500 -0.092586
v 0.450568 -0.037500 -0.089873
v 0.361326 -0.037500 -0.121124
v 0.285814 -0.037500 -0.124457
v 0.252011 -0.037498 -0.058334
v 0.262716 -0.037498 0.037406
v 0.314435 -0.037500 0.102582
v 0.398923 -0.037500 0.097637
v 0.488929 -0.037500 0.065514
v 0.552454 -0.037500 0.069781
v 0.566971 -0.037498 0.154274
v 0.547845 -0.037500 0.283895
v 0.495864 -0.037500 0.500610
v 0.134257 -0.037500 0.537383
v 0.043479 -0.037498 0.516726
v 0.034314 -0.037500 0.457800
v 0.064398 -0.037498 0.380327
v 0.071664 -0.037500 0.311666
v 0.013634 -0.037498 0.275017
v -0.073812 -0.037498 0.276948
v -0.135202 -0.037500 0.319870
v -0.133800 -0.037500 0.400110
v -0.107790 -0.037500 0.489651
v -0.114089 -0.037500 0.554391
v -0.191925 -0.037500 0.570062
v -0.309772 -0.037498 0.551729
v -0.506045 -0.037500 0.500610
v -0.299441 0.037500 -0.544173
v -0.176474 0.037500 -0.556195
v -0.097690 0.037500 -0.533027
v -0.097690 0.037500 -0.533027
v 0.036043 0.037500 -0.532404
v 0.036043 0.037500 -0.532404
v 0.126727 0.037500 -0.553369
v 0.265030 0.037500 -0.541725
v -0.096798 0.037500 -0.460410
v 0.030537 0.037500 -0.465242
v -0.506045 0.037500 -0.501088
v -0.506045 0.037500 -0.501088
v 0.495864 0.037500 -0.501088
v 0.495864 0.037500 -0.501088
v -0.506045 0.037500 0.500610
v -0.506045 0.037500 0.500610
v 0.065329 0.037500 -0.374532
v -0.130898 0.037500 -0.364366
v 0.533244 0.037500 -0.295050
v 0.074927 0.037500 -0.291978
v -0.137936 0.037500 -0.280983
v -0.137936 0.037500 -0.280983
v 0.542573 0.037500 -0.172097
v 0.014745 0.037500 -0.244498
v -0.076187 0.037500 -0.239846
v 0.361326 0.037500 -0.121124
v 0.285814 0.037500 -0.124457
v 0.285814 0.037500 -0.124457
v 0.519270 0.037500 -0.092586
v 0.519270 0.037500 -0.092586
v 0.252011 0.037500 -0.058334
v 0.450568 0.037500 -0.089873
v 0.262716 0.037500 0.037406
v 0.314435 0.037500 0.102582
v 0.398923 0.037500 0.097637
v 0.488929 0.037500 0.065514
v 0.552454 0.037500 0.069781
v 0.552454 0.037500 0.069781
v 0.566971 0.037500 0.154274
v 0.013634 0.037500 0.275017
v -0.073812 0.037500 0.276948
v 0.547845 0.037500 0.283895
v 0.071664 0.037500 0.311666
v 0.071664 0.037500 0.311666
v -0.135202 0.037500 0.319870
v 0.064398 0.037500 0.380327
v -0.133800 0.037500 0.400110
v 0.034314 0.037500 0.457800
v -0.107790 0.037500 0.489651
v 0.043479 0.037500 0.516726
v 0.043479 0.037500 0.516726
v 0.495864 0.037500 0.500610
v 0.495864 0.037500 0.500610
v -0.114089 0.037500 0.554391
v -0.114089 0.037500 0.554391
v 0.134257 0.037500 0.537383
v -0.309772 0.037500 0.551729
v -0.191925 0.037500 0.570062
v -0.299441 -0.037500 -0.544173
v -0.176474 -0.037500 -0.556195
v -0.097690 -0.037500 -0.533027
v -0.097690 -0.037500 -0.533027
v 0.036043 -0.037500 -0.532404
v 0.036043 -0.037500 -0.532404
v 0.126727 -0.037500 -0.553369
v 0.265030 -0.037500 -0.541725
v -0.096798 -0.037500 -0.460410
v 0.030537 -0.037500 -0.465242
v -0.506045 -0.037500 -0.501088
v -0.506045 -0.037500 -0.501088
v 0.495864 -0.037500 -0.501088
v 0.495864 -0.037500 -0.501088
v -0.506045 -0.037500 0.500610
v -0.506045 -0.037500 0.500610
v 0.065329 -0.037500 -0.374532
v -0.130898 -0.037500 -0.364366
v 0.533244 -0.037500 -0.295050
v 0.074927 -0.037500 -0.291978
v -0.137936 -0.037500 -0.280983
v -0.137936 -0.037500 -0.280983
v 0.542573 -0.037500 -0.172097
v 0.014745 -0.037500 -0.244498
v -0.076187 -0.037500 -0.239846
v 0.361326 -0.037500 -0.121124
v 0.285814 -0.037500 -0.124457
v 0.285814 -0.037500 -0.124457
v 0.519270 -0.037500 -0.092586
v 0.519270 -0.037500 -0.092586
v 0.252011 -0.037498 -0.058334
v 0.450568 -0.037500 -0.089873
v 0.262716 -0.037498 0.037406
v 0.314435 -0.037500 0.102582
v 0.398923 -0.037500 0.097637
v 0.488929 -0.037500 0.065514
v 0.552454 -0.037500 0.069781
v 0.552454 -0.037500 0.069781
v 0.566971 -0.037498 0.154274
v 0.013634 -0.037498 0.275017
v -0.073812 -0.037498 0.276948
v 0.547845 -0.037500 0.283895
v 0.071664 -0.037500 0.311666
v 0.071664 -0.037500 0.311666
v -0.135202 -0.037500 0.319870
v 0.064398 -0.037498 0.380327
v -0.133800 -0.037500 0.400110
v 0.034314 -0.037500 0.457800
v -0.107790 -0.037500 0.489651
v 0.043479 -0.037498 0.516726
v 0.043479 -0.037498 0.516726
v 0.495864 -0.037500 0.500610
v 0.495864 -0.037500 0.500610
v -0.114089 -0.037500 0.554391
v -0.114089 -0.037500 0.554391
v 0.134257 -0.037500 0.537383
v -0.309772 -0.037498 0.551729
v -0.191925 -0.037500 0.570062
vt 0.500000 0.500000
vt 0.500000 0.500000
vt 0.500000 0.500000
vt 0.500000 0.500000
vt 0.500000 0.500000
vt 0.500000 0.500000
vt 0.500000 0.500000
vt 0.500000 0.500000
vt 0.500000 0.500000
vt 0.500000 0.500000
vt 0.500000 0.500000
vt 0.500000 0.500000
vt 0.500000 0.500000
vt 0.500000 0.500000
vt 0.500000 0.500000
vt 0.500000 0.500000
vt 0.500000 0.500000
vt 0.500000 0.500000
vt 0.500000 0.500000
vt 0.500000 0.500000
vt 0.500000 0.500000
vt 0.500000 0.500000
vt 0.500000 0.500000
vt 0.500000 0.500000
vt 0.500000 0.500000
vt 0.500000 0.500000
vt 0.500000 0.500000
vt 0.500000 0.500000
vt 0.500000 0.500000
vt 0.500000 0.500000
vt 0.500000 0.500000
vt 0.500000 0.500000
vt 0.500000 0.500000
vt 0.500000 0.500000
vt 0.500000 0.500000
vt 0.500000 0.500000
vt 0.500000 0.500000
vt 0.500000 0.500000
vt 0.500000 0.500000
vt 0.500000 0.500000
vt 0.500000 0.500000
vt 0.500000 0.500000
vt 0.500000 0.500000
vt 0.500000 0.500000
vt 0.500000 0.500000
vt 0.500000 0.500000
vt 0.500000 0.500000
vt 0.500000 0.500000
vt 0.500000 0.500000
vt 0.500000 0.500000
vt 0.500000 0.500000
vt 0.500000 0.500000
vt 0.500000 0.500000
vt 0.500000 0.500000
vt 0.500000 0.500000
vt 0.500000 0.500000
vt 0.500000 0.500000
vt 0.500000 0.500000
vt 0.500000 0.500000
vt 0.500000 0.500000
vt 0.500000 0.500000
vt 0.500000 0.500000
vt 0.500000 0.500000
vt 0.500000 0.500000
vt 0.500000 0.500000
vt 0.500000 0.500000
vt 0.500000 0.500000
vt 0.500000 0.500000
vt 0.500000 0.500000
vt 0.500000 0.500000
vt 0.500000 0.500000
vt 0.500000 0.500000
vt 0.500000 0.500000
vt 0.500000 0.500000
vt 0.500000 0.500000
vt 0.500000 0.500000
vt 0.500000 0.500000
vt 0.500000 0.500000
vt 0.500000 0.500000
vt 0.500000 0.500000
vt 0.500000 0.500000
vt 0.500000 0.500000
vt 0.500000 0.500000
vt 0.500000 0.500000
vt 0.500000 0.500000
vt 0.500000 0.500000
vt 0.500000 0.500000
vt 0.500000 0.500000
vt 0.500000 0.500000
vt 0.500000 0.500000
vt 0.500000 0.500000
vt 0.500000 0.500000
vt 0.500000 0.500000
vt 0.500000 0.500000
vt 0.500000 0.500000
vt 0.500000 0.500000
vt 0.500000 0.500000
vt 0.500000 0.500000
vt 0.500000 0.500000
vt 0.500000 0.500000
vt 0.500000 0.500000
vt 0.500000 0.500000
vt 0.500000 0.500000
vt 0.500000 0.500000
vt 0.500000 0.500000
vt 0.500000 0.500000
vt 0.500000 0.500000
vt 0.500000 0.500000
vt 0.500000 0.500000
vt 0.500000 0.500000
vt 0.500000 0.500000
vt 0.500000 0.500000
vt 0.500000 0.500000
vt 0.500000 0.500000
vt 0.500000 0.500000
vt 0.500000 0.500000
vt 0.500000 0.500000
vt 0.500000 0.500000
vt 0.500000 0.500000
vt 0.500000 0.500000
vt 0.500000 0.500000
vt 0.500000 0.500000
vt 0.500000 0.500000
vt 0.500000 0.500000
vt 0.500000 0.500000
vt 0.500000 0.500000
vt 0.500000 0.500000
vt 0.500000 0.500000
vt 0.500000 0.500000
vt 0.500000 0.500000
vt 0.500000 0.500000
vt 0.500000 0.500000
vt 0.500000 0.500000
vt 0.500000 0.500000
vt 0.500000 0.500000
vt 0.500000 0.500000
vt 0.500000 0.500000
vt 0.500000 0.500000
vt 0.500000 0.500000
vt 0.500000 0.500000
vt 0.500000 0.500000
vt 0.500000 0.500000
vt 0.500000 0.500000
vt 0.500000 0.500000
vt 0.500000 0.500000
vt 0.500000 0.500000
vt 0.500000 0.500000
vt 0.500000 0.500000
vt 0.500000 0.500000
vt 0.500000 0.500000
vt 0.500000 0.500000
vt 0.500000 0.500000
vt 0.500000 0.500000
vt 0.500000 0.500000
vt 0.500000 0.500000
vt 0.500000 0.500000
vt 0.500000 0.500000
vt 0.500000 0.500000
vt 0.500000 0.500000
vt 0.500000 0.500000
vt 0.500000 0.500000
vt 0.006006 0.947937
vt 0.010417 0.944444
vt 0.008530 0.951803
vt 0.004469 0.958133
vt 0.004494 0.948579
vt 0.005403 0.948615
vt 0.005415 0.958219
vt 0.003827 0.958894
vt 0.003856 0.947786
vt 0.003427 0.963982
vt 0.002148 0.963759
vt 0.003900 0.960435
vt 0.006657 0.943765
vt 0.005931 0.946668
vt 0.000000 0.944444
vt 0.002041 0.943499
vt 0.003266 0.943160
vt 0.003870 0.946302
vt 0.005618 0.945236
vt 0.010957 0.948451
vt 0.011156 0.950847
vt 0.009409 0.951894
vt 0.004141 0.944647
vt 0.008233 0.956000
vt 0.009018 0.955939
vt 0.010805 0.959154
vt 0.008017 0.963714
vt 0.004075 0.943450
vt 0.007881 0.954778
vt 0.007993 0.953008
vt 0.000000 0.962963
vt 0.005713 0.944147
vt 0.005636 0.963542
vt 0.005579 0.962300
vt 0.006579 0.963929
vt 0.011005 0.952409
vt 0.010345 0.952488
vt 0.010417 0.962963
vt 0.005940 0.960623
vt 0.006040 0.959097
vt 0.009946 0.955361
vt 0.010660 0.955411
vt 0.010902 0.956881
vt 0.004255 0.962211
vt 0.004246 0.963553
vn 0.0000 -1.0000 -0.0000
vn -0.0001 -1.0000 0.0000
vn -0.0973 0.0000 -0.9953
vn 0.2821 0.0000 -0.9594
vn -0.2252 0.0000 -0.9743
vn 0.0839 0.0000 -0.9965
vn 0.9999 0.0000 -0.0123
vn -0.9967 0.0000 -0.0817
vn -0.2041 0.0000 -0.9789
vn 0.1734 0.0000 -0.9849
vn -1.0000 0.0000 0.0000
vn -0.9337 0.0000 0.3581
vn 0.9424 0.0000 0.3346
vn 0.9839 0.0000 -0.1785
vn -0.9933 0.0000 0.1155
vn 0.9965 0.0000 0.0841
vn 0.9971 0.0000 -0.0757
vn -0.6194 0.0000 -0.7851
vn 0.5544 0.0000 -0.8322
vn -0.0511 0.0000 -0.9987
vn -0.0441 0.0000 0.9990
vn 0.9596 0.0000 0.2812
vn 0.8904 0.0000 0.4552
vn -0.3305 0.0000 0.9438
vn 0.0395 0.0000 0.9992
vn 0.9938 0.0000 -0.1111
vn 0.7833 0.0000 -0.6216
vn -0.3361 0.0000 -0.9418
vn 0.0670 0.0000 -0.9978
vn 0.9856 0.0000 -0.1693
vn -0.0584 0.0000 -0.9983
vn 0.0221 0.0000 0.9998
vn 0.9893 0.0000 0.1460
vn -0.5340 0.0000 0.8455
vn 0.5730 0.0000 0.8196
vn -0.9944 0.0000 -0.1052
vn 0.9998 0.0000 -0.0175
vn -0.9322 0.0000 -0.3620
vn 0.9603 0.0000 -0.2790
vn -0.9881 0.0000 0.1537
vn 0.9724 0.0000 0.2332
vn 0.9953 0.0000 0.0968
vn -0.2219 0.0000 0.9751
vn 0.1012 0.0000 0.9949
vn -0.2520 0.0000 0.9677
vn -0.1537 0.0000 0.9881
vn 0.1974 0.0000 0.9803
vn 0.0000 1.0000 -0.0000
usemtl BackMat.001
s off
f 191/1/1 182/2/1 200/3/1
f 173/4/1 188/5/1 189/6/1
f 172/7/1 188/5/1 173/4/1
f 169/8/1 189/6/1 193/9/1
f 150/10/1 166/11/1 149/12/1
f 204/13/2 194/14/2 191/1/2
f 163/15/1 169/8/1 193/9/1
f 163/15/1 193/9/1 205/16/1
f 205/16/1 195/17/1 206/18/1
f 194/14/1 204/13/1 196/19/1
f 190/20/1 183/21/1 187/22/1
f 173/4/1 189/6/1 169/8/1
f 206/18/1 195/17/1 197/23/1
f 175/24/1 167/25/1 174/26/1
f 156/27/1 167/25/1 175/24/1
f 206/18/1 197/23/1 202/28/1
f 179/29/1 181/30/1 188/5/1
f 159/31/1 169/8/1 163/15/1
f 196/19/1 204/13/1 198/32/1
f 205/16/1 193/9/1 195/17/1
f 149/12/1 169/8/1 159/31/1
f 200/3/1 182/2/1 190/20/1
f 153/33/1 155/34/1 158/35/1
f 187/22/1 184/36/1 185/37/1
f 161/38/1 167/25/1 156/27/1
f 165/39/1 156/27/1 168/40/1
f 180/41/1 171/42/1 177/43/1
f 190/20/1 182/2/1 183/21/1
f 158/35/1 155/34/1 165/39/1
f 168/40/1 156/27/1 175/24/1
f 174/26/1 171/42/1 180/41/1
f 156/27/1 165/39/1 155/34/1
f 157/44/1 150/10/1 151/45/1
f 171/42/1 174/26/1 167/25/1
f 204/13/1 191/1/1 200/3/1
f 172/7/1 179/29/1 188/5/1
f 183/21/1 184/36/1 187/22/1
f 166/11/1 150/10/1 157/44/1
f 168/40/1 179/29/1 172/7/1
f 191/1/1 181/30/1 182/2/1
f 188/5/1 181/30/1 191/1/1
f 169/8/1 149/12/1 166/11/1
f 168/40/1 175/24/1 179/29/1
f 2/46/3 3/47/3 48/48/3 47/49/3
f 3/47/4 94/50/4 152/51/4 48/48/4
f 96/52/5 14/53/5 59/54/5 154/55/5
f 14/53/6 15/56/6 60/57/6 59/54/6
f 4/58/7 5/59/7 50/60/7 49/61/7
f 12/62/8 13/63/8 58/64/8 57/65/8
f 102/66/9 2/46/9 47/49/9 160/67/9
f 15/56/10 104/68/10 162/69/10 60/57/10
f 106/70/11 1/71/11 46/72/11 164/73/11
f 11/74/12 12/62/12 57/65/12 56/75/12
f 5/59/13 6/76/13 51/77/13 50/60/13
f 16/78/14 17/79/14 62/80/14 61/81/14
f 10/82/15 11/74/15 56/75/15 55/83/15
f 6/76/16 112/84/16 170/85/16 51/77/16
f 17/79/17 18/86/17 63/87/17 62/80/17
f 9/88/18 10/82/18 55/83/18 54/89/18
f 7/90/19 8/91/19 53/92/19 52/93/19
f 8/91/20 9/88/20 54/89/20 53/92/20
f 21/94/21 118/95/21 176/96/21 66/97/21
f 18/86/22 120/98/22 178/99/22 63/87/22
f 22/100/23 23/101/23 68/102/23 67/103/23
f 20/104/24 21/94/24 66/97/24 65/105/24
f 19/106/25 20/104/25 65/105/25 64/107/25
f 23/101/26 24/108/26 69/109/26 68/102/26
f 24/108/27 25/110/27 70/111/27 69/109/27
f 26/112/28 27/113/28 72/114/28 71/115/28
f 27/113/29 128/116/29 186/117/29 72/114/29
f 28/118/30 29/119/30 74/120/30 73/121/30
f 25/110/31 26/112/31 71/115/31 70/111/31
f 37/122/32 38/123/32 83/124/32 82/125/32
f 29/119/33 30/126/33 75/127/33 74/120/33
f 134/128/34 37/122/34 82/125/34 192/129/34
f 38/123/35 39/130/35 84/131/35 83/124/35
f 35/132/36 36/133/36 81/134/36 80/135/36
f 39/130/37 40/136/37 85/137/37 84/131/37
f 34/138/38 35/132/38 80/135/38 79/139/38
f 40/136/39 41/140/39 86/141/39 85/137/39
f 141/142/40 34/138/40 79/139/40 199/143/40
f 30/126/41 143/144/41 201/145/41 75/127/41
f 41/140/42 145/146/42 203/147/42 86/141/42
f 32/148/43 33/149/43 78/150/43 77/151/43
f 31/152/44 32/148/44 77/151/44 76/153/44
f 44/154/45 45/155/45 90/156/45 89/157/45
f 43/158/46 44/154/46 89/157/46 88/159/46
f 42/160/47 43/158/47 88/159/47 87/161/47
usemtl FrontMat.001
f 133/162/48 142/163/48 124/164/48
f 115/165/48 131/166/48 130/167/48
f 114/168/48 115/165/48 130/167/48
f 111/169/48 135/170/48 131/166/48
f 92/171/48 91/172/48 108/173/48
f 146/174/48 133/162/48 136/175/48
f 105/176/48 135/170/48 111/169/48
f 105/176/48 147/177/48 135/170/48
f 147/177/48 148/178/48 137/179/48
f 136/175/48 138/180/48 146/174/48
f 132/181/48 129/182/48 125/183/48
f 115/165/48 111/169/48 131/166/48
f 148/178/48 139/184/48 137/179/48
f 117/185/48 116/186/48 109/187/48
f 98/188/48 117/185/48 109/187/48
f 148/178/48 144/189/48 139/184/48
f 121/190/48 130/167/48 123/191/48
f 101/192/48 105/176/48 111/169/48
f 138/180/48 140/193/48 146/174/48
f 147/177/48 137/179/48 135/170/48
f 91/172/48 101/192/48 111/169/48
f 142/163/48 132/181/48 124/164/48
f 95/194/48 100/195/48 97/196/48
f 129/182/48 127/197/48 126/198/48
f 103/199/48 98/188/48 109/187/48
f 107/200/48 110/201/48 98/188/48
f 122/202/48 119/203/48 113/204/48
f 132/181/48 125/183/48 124/164/48
f 100/195/48 107/200/48 97/196/48
f 110/201/48 117/185/48 98/188/48
f 116/186/48 122/202/48 113/204/48
f 98/188/48 97/196/48 107/200/48
f 99/205/48 93/206/48 92/171/48
f 113/204/48 109/187/48 116/186/48
f 146/174/48 142/163/48 133/162/48
f 114/168/48 130/167/48 121/190/48
f 125/183/48 129/182/48 126/198/48
f 108/173/48 99/205/48 92/171/48
f 110/201/48 114/168/48 121/190/48
f 133/162/48 124/164/48 123/191/48
f 130/167/48 133/162/48 123/191/48
f 111/169/48 108/173/48 91/172/48
f 110/201/48 121/190/48 117/185/48
