# Blender v2.83.1 OBJ File: 'jigsaw-96x54-3-step2.blend'
# www.blender.org
mtllib piece.4145.mtl
o path8290
v -0.309410 0.037500 -0.542736
v -0.191511 0.037500 -0.558758
v -0.118074 0.037500 -0.543976
v -0.121941 0.037500 -0.484867
v -0.159334 0.037500 -0.403553
v -0.167328 0.037500 -0.331070
v -0.103411 0.037500 -0.293175
v -0.006804 0.037500 -0.294445
v 0.062851 0.037500 -0.334179
v 0.065983 0.037500 -0.406750
v 0.043289 0.037500 -0.486996
v 0.055536 0.037500 -0.544838
v 0.144518 0.037500 -0.558910
v 0.492846 0.037500 -0.497242
v 0.529413 0.037500 -0.302200
v 0.537388 0.037500 -0.186909
v 0.511250 0.037500 -0.114841
v 0.437904 0.037500 -0.117928
v 0.342916 0.037500 -0.153065
v 0.261562 0.037500 -0.158405
v 0.222847 0.037500 -0.092457
v 0.230688 0.037500 0.004887
v 0.282732 0.037500 0.073383
v 0.371336 0.037500 0.073311
v 0.467695 0.037500 0.047001
v 0.537710 0.037500 0.057308
v 0.557161 0.037500 0.147411
v 0.541338 0.037500 0.281742
v 0.492846 0.037500 0.504456
v 0.270014 0.037500 0.541042
v 0.136440 0.037500 0.548767
v 0.048702 0.037500 0.521866
v 0.042706 0.037500 0.446869
v 0.073620 0.037500 0.348827
v 0.076443 0.037500 0.262398
v 0.007515 0.037500 0.216442
v -0.091381 0.037500 0.216576
v -0.157108 0.037500 0.262619
v -0.147989 0.037500 0.348701
v -0.108213 0.037500 0.446205
v -0.103424 0.037500 0.520821
v -0.179298 0.037500 0.547768
v -0.301641 0.037500 0.540371
v -0.509064 0.037500 0.504456
v -0.540853 0.037500 0.147804
v -0.522388 0.037500 0.062859
v -0.469847 0.037500 0.062363
v -0.398550 0.037500 0.098953
v -0.330149 0.037500 0.104324
v -0.283957 0.037500 0.032547
v -0.269936 0.037500 -0.072819
v -0.295715 0.037500 -0.145840
v -0.362350 0.037500 -0.142460
v -0.444614 0.037500 -0.106125
v -0.510708 0.037500 -0.102161
v -0.537254 0.037500 -0.176239
v -0.534550 0.037500 -0.295387
v -0.509064 0.037500 -0.497242
v -0.309410 -0.037500 -0.542736
v -0.191511 -0.037500 -0.558758
v -0.118074 -0.037500 -0.543976
v -0.121941 -0.037500 -0.484867
v -0.159334 -0.037498 -0.403553
v -0.167328 -0.037500 -0.331070
v -0.103411 -0.037498 -0.293175
v -0.006804 -0.037500 -0.294445
v 0.062851 -0.037500 -0.334179
v 0.065983 -0.037500 -0.406750
v 0.043289 -0.037500 -0.486996
v 0.055536 -0.037500 -0.544838
v 0.144518 -0.037500 -0.558910
v 0.492846 -0.037500 -0.497242
v 0.529413 -0.037500 -0.302200
v 0.537388 -0.037500 -0.186909
v 0.511250 -0.037500 -0.114841
v 0.437904 -0.037500 -0.117928
v 0.342916 -0.037500 -0.153065
v 0.261562 -0.037500 -0.158405
v 0.222847 -0.037498 -0.092457
v 0.230688 -0.037500 0.004887
v 0.282732 -0.037500 0.073383
v 0.371336 -0.037498 0.073311
v 0.467695 -0.037500 0.047001
v 0.537710 -0.037500 0.057308
v 0.557161 -0.037500 0.147411
v 0.541338 -0.037500 0.281742
v 0.492846 -0.037500 0.504456
v 0.270014 -0.037498 0.541042
v 0.136440 -0.037500 0.548767
v 0.048702 -0.037500 0.521866
v 0.042706 -0.037500 0.446869
v 0.073620 -0.037500 0.348827
v 0.076443 -0.037500 0.262398
v 0.007515 -0.037500 0.216442
v -0.091381 -0.037500 0.216576
v -0.157108 -0.037500 0.262619
v -0.147989 -0.037500 0.348701
v -0.108213 -0.037500 0.446205
v -0.103424 -0.037500 0.520821
v -0.179298 -0.037500 0.547768
v -0.301641 -0.037500 0.540371
v -0.509064 -0.037500 0.504456
v -0.540853 -0.037500 0.147804
v -0.522388 -0.037498 0.062859
v -0.469847 -0.037500 0.062363
v -0.398550 -0.037500 0.098953
v -0.330149 -0.037500 0.104324
v -0.283957 -0.037500 0.032547
v -0.269936 -0.037498 -0.072819
v -0.295715 -0.037500 -0.145840
v -0.362350 -0.037500 -0.142460
v -0.444614 -0.037500 -0.106125
v -0.510708 -0.037500 -0.102161
v -0.537254 -0.037500 -0.176239
v -0.534550 -0.037500 -0.295387
v -0.509064 -0.037500 -0.497242
v 0.055536 0.037500 -0.544838
v 0.055536 0.037500 -0.544838
v 0.144518 0.037500 -0.558910
v -0.309410 0.037500 -0.542736
v -0.191511 0.037500 -0.558758
v -0.118074 0.037500 -0.543976
v -0.118074 0.037500 -0.543976
v 0.043289 0.037500 -0.486996
v -0.121941 0.037500 -0.484867
v -0.509064 0.037500 -0.497242
v -0.509064 0.037500 -0.497242
v 0.492846 0.037500 -0.497242
v 0.492846 0.037500 -0.497242
v 0.065983 0.037500 -0.406750
v -0.159334 0.037500 -0.403553
v 0.529413 0.037500 -0.302200
v -0.534550 0.037500 -0.295387
v 0.062851 0.037500 -0.334179
v -0.167328 0.037500 -0.331070
v -0.167328 0.037500 -0.331070
v -0.006804 0.037500 -0.294445
v -0.103411 0.037500 -0.293175
v 0.537388 0.037500 -0.186909
v -0.537254 0.037500 -0.176239
v 0.342916 0.037500 -0.153065
v 0.261562 0.037500 -0.158405
v 0.261562 0.037500 -0.158405
v 0.511250 0.037500 -0.114841
v 0.511250 0.037500 -0.114841
v -0.510708 0.037500 -0.102161
v -0.510708 0.037500 -0.102161
v -0.295715 0.037500 -0.145840
v -0.295715 0.037500 -0.145840
v -0.362350 0.037500 -0.142460
v 0.222847 0.037500 -0.092457
v 0.437904 0.037500 -0.117928
v -0.269936 0.037500 -0.072819
v -0.444614 0.037500 -0.106125
v 0.230688 0.037500 0.004887
v -0.283957 0.037500 0.032547
v 0.282732 0.037500 0.073383
v -0.330149 0.037500 0.104324
v -0.330149 0.037500 0.104324
v 0.371336 0.037500 0.073311
v 0.467695 0.037500 0.047001
v 0.537710 0.037500 0.057308
v 0.537710 0.037500 0.057308
v 0.557161 0.037500 0.147411
v -0.522388 0.037500 0.062859
v -0.522388 0.037500 0.062859
v -0.469847 0.037500 0.062363
v -0.398550 0.037500 0.098953
v -0.540853 0.037500 0.147804
v 0.541338 0.037500 0.281742
v 0.007515 0.037500 0.216442
v -0.091381 0.037500 0.216576
v 0.076443 0.037500 0.262398
v -0.157108 0.037500 0.262619
v -0.157108 0.037500 0.262619
v 0.073620 0.037500 0.348827
v -0.147989 0.037500 0.348701
v -0.108213 0.037500 0.446205
v 0.042706 0.037500 0.446869
v -0.509064 0.037500 0.504456
v -0.509064 0.037500 0.504456
v -0.103424 0.037500 0.520821
v -0.103424 0.037500 0.520821
v 0.048702 0.037500 0.521866
v 0.048702 0.037500 0.521866
v 0.492846 0.037500 0.504456
v 0.492846 0.037500 0.504456
v -0.179298 0.037500 0.547768
v -0.301641 0.037500 0.540371
v 0.270014 0.037500 0.541042
v 0.136440 0.037500 0.548767
v 0.055536 -0.037500 -0.544838
v 0.055536 -0.037500 -0.544838
v 0.144518 -0.037500 -0.558910
v -0.309410 -0.037500 -0.542736
v -0.191511 -0.037500 -0.558758
v -0.118074 -0.037500 -0.543976
v -0.118074 -0.037500 -0.543976
v 0.043289 -0.037500 -0.486996
v -0.121941 -0.037500 -0.484867
v -0.509064 -0.037500 -0.497242
v -0.509064 -0.037500 -0.497242
v 0.492846 -0.037500 -0.497242
v 0.492846 -0.037500 -0.497242
v 0.065983 -0.037500 -0.406750
v -0.159334 -0.037498 -0.403553
v 0.529413 -0.037500 -0.302200
v -0.534550 -0.037500 -0.295387
v 0.062851 -0.037500 -0.334179
v -0.167328 -0.037500 -0.331070
v -0.167328 -0.037500 -0.331070
v -0.006804 -0.037500 -0.294445
v -0.103411 -0.037498 -0.293175
v 0.537388 -0.037500 -0.186909
v -0.537254 -0.037500 -0.176239
v 0.342916 -0.037500 -0.153065
v 0.261562 -0.037500 -0.158405
v 0.261562 -0.037500 -0.158405
v 0.511250 -0.037500 -0.114841
v 0.511250 -0.037500 -0.114841
v -0.510708 -0.037500 -0.102161
v -0.510708 -0.037500 -0.102161
v -0.295715 -0.037500 -0.145840
v -0.295715 -0.037500 -0.145840
v -0.362350 -0.037500 -0.142460
v 0.222847 -0.037498 -0.092457
v 0.437904 -0.037500 -0.117928
v -0.269936 -0.037498 -0.072819
v -0.444614 -0.037500 -0.106125
v 0.230688 -0.037500 0.004887
v -0.283957 -0.037500 0.032547
v 0.282732 -0.037500 0.073383
v -0.330149 -0.037500 0.104324
v -0.330149 -0.037500 0.104324
v 0.371336 -0.037498 0.073311
v 0.467695 -0.037500 0.047001
v 0.537710 -0.037500 0.057308
v 0.537710 -0.037500 0.057308
v 0.557161 -0.037500 0.147411
v -0.522388 -0.037498 0.062859
v -0.522388 -0.037498 0.062859
v -0.469847 -0.037500 0.062363
v -0.398550 -0.037500 0.098953
v -0.540853 -0.037500 0.147804
v 0.541338 -0.037500 0.281742
v 0.007515 -0.037500 0.216442
v -0.091381 -0.037500 0.216576
v 0.076443 -0.037500 0.262398
v -0.157108 -0.037500 0.262619
v -0.157108 -0.037500 0.262619
v 0.073620 -0.037500 0.348827
v -0.147989 -0.037500 0.348701
v -0.108213 -0.037500 0.446205
v 0.042706 -0.037500 0.446869
v -0.509064 -0.037500 0.504456
v -0.509064 -0.037500 0.504456
v -0.103424 -0.037500 0.520821
v -0.103424 -0.037500 0.520821
v 0.048702 -0.037500 0.521866
v 0.048702 -0.037500 0.521866
v 0.492846 -0.037500 0.504456
v 0.492846 -0.037500 0.504456
v -0.179298 -0.037500 0.547768
v -0.301641 -0.037500 0.540371
v 0.270014 -0.037498 0.541042
v 0.136440 -0.037500 0.548767
vt 0.500000 0.500000
vt 0.500000 0.500000
vt 0.500000 0.500000
vt 0.500000 0.500000
vt 0.500000 0.500000
vt 0.500000 0.500000
vt 0.500000 0.500000
vt 0.500000 0.500000
vt 0.500000 0.500000
vt 0.500000 0.500000
vt 0.500000 0.500000
vt 0.500000 0.500000
vt 0.500000 0.500000
vt 0.500000 0.500000
vt 0.500000 0.500000
vt 0.500000 0.500000
vt 0.500000 0.500000
vt 0.500000 0.500000
vt 0.500000 0.500000
vt 0.500000 0.500000
vt 0.500000 0.500000
vt 0.500000 0.500000
vt 0.500000 0.500000
vt 0.500000 0.500000
vt 0.500000 0.500000
vt 0.500000 0.500000
vt 0.500000 0.500000
vt 0.500000 0.500000
vt 0.500000 0.500000
vt 0.500000 0.500000
vt 0.500000 0.500000
vt 0.500000 0.500000
vt 0.500000 0.500000
vt 0.500000 0.500000
vt 0.500000 0.500000
vt 0.500000 0.500000
vt 0.500000 0.500000
vt 0.500000 0.500000
vt 0.500000 0.500000
vt 0.500000 0.500000
vt 0.500000 0.500000
vt 0.500000 0.500000
vt 0.500000 0.500000
vt 0.500000 0.500000
vt 0.500000 0.500000
vt 0.500000 0.500000
vt 0.500000 0.500000
vt 0.500000 0.500000
vt 0.500000 0.500000
vt 0.500000 0.500000
vt 0.500000 0.500000
vt 0.500000 0.500000
vt 0.500000 0.500000
vt 0.500000 0.500000
vt 0.500000 0.500000
vt 0.500000 0.500000
vt 0.500000 0.500000
vt 0.500000 0.500000
vt 0.500000 0.500000
vt 0.500000 0.500000
vt 0.500000 0.500000
vt 0.500000 0.500000
vt 0.500000 0.500000
vt 0.500000 0.500000
vt 0.500000 0.500000
vt 0.500000 0.500000
vt 0.500000 0.500000
vt 0.500000 0.500000
vt 0.500000 0.500000
vt 0.500000 0.500000
vt 0.500000 0.500000
vt 0.500000 0.500000
vt 0.500000 0.500000
vt 0.500000 0.500000
vt 0.500000 0.500000
vt 0.500000 0.500000
vt 0.500000 0.500000
vt 0.500000 0.500000
vt 0.500000 0.500000
vt 0.500000 0.500000
vt 0.500000 0.500000
vt 0.500000 0.500000
vt 0.500000 0.500000
vt 0.500000 0.500000
vt 0.500000 0.500000
vt 0.500000 0.500000
vt 0.500000 0.500000
vt 0.500000 0.500000
vt 0.500000 0.500000
vt 0.500000 0.500000
vt 0.500000 0.500000
vt 0.500000 0.500000
vt 0.500000 0.500000
vt 0.500000 0.500000
vt 0.500000 0.500000
vt 0.500000 0.500000
vt 0.500000 0.500000
vt 0.500000 0.500000
vt 0.500000 0.500000
vt 0.500000 0.500000
vt 0.500000 0.500000
vt 0.500000 0.500000
vt 0.500000 0.500000
vt 0.500000 0.500000
vt 0.500000 0.500000
vt 0.500000 0.500000
vt 0.500000 0.500000
vt 0.500000 0.500000
vt 0.500000 0.500000
vt 0.500000 0.500000
vt 0.500000 0.500000
vt 0.500000 0.500000
vt 0.500000 0.500000
vt 0.500000 0.500000
vt 0.500000 0.500000
vt 0.500000 0.500000
vt 0.500000 0.500000
vt 0.500000 0.500000
vt 0.500000 0.500000
vt 0.500000 0.500000
vt 0.500000 0.500000
vt 0.500000 0.500000
vt 0.500000 0.500000
vt 0.500000 0.500000
vt 0.500000 0.500000
vt 0.500000 0.500000
vt 0.500000 0.500000
vt 0.500000 0.500000
vt 0.500000 0.500000
vt 0.500000 0.500000
vt 0.500000 0.500000
vt 0.500000 0.500000
vt 0.500000 0.500000
vt 0.500000 0.500000
vt 0.500000 0.500000
vt 0.500000 0.500000
vt 0.500000 0.500000
vt 0.500000 0.500000
vt 0.500000 0.500000
vt 0.500000 0.500000
vt 0.500000 0.500000
vt 0.500000 0.500000
vt 0.500000 0.500000
vt 0.500000 0.500000
vt 0.500000 0.500000
vt 0.500000 0.500000
vt 0.500000 0.500000
vt 0.500000 0.500000
vt 0.500000 0.500000
vt 0.500000 0.500000
vt 0.500000 0.500000
vt 0.500000 0.500000
vt 0.500000 0.500000
vt 0.500000 0.500000
vt 0.500000 0.500000
vt 0.500000 0.500000
vt 0.500000 0.500000
vt 0.500000 0.500000
vt 0.500000 0.500000
vt 0.500000 0.500000
vt 0.500000 0.500000
vt 0.500000 0.500000
vt 0.500000 0.500000
vt 0.500000 0.500000
vt 0.500000 0.500000
vt 0.500000 0.500000
vt 0.500000 0.500000
vt 0.500000 0.500000
vt 0.500000 0.500000
vt 0.500000 0.500000
vt 0.500000 0.500000
vt 0.500000 0.500000
vt 0.500000 0.500000
vt 0.500000 0.500000
vt 0.500000 0.500000
vt 0.500000 0.500000
vt 0.500000 0.500000
vt 0.500000 0.500000
vt 0.500000 0.500000
vt 0.500000 0.500000
vt 0.500000 0.500000
vt 0.500000 0.500000
vt 0.500000 0.500000
vt 0.500000 0.500000
vt 0.500000 0.500000
vt 0.500000 0.500000
vt 0.500000 0.500000
vt 0.500000 0.500000
vt 0.500000 0.500000
vt 0.500000 0.500000
vt 0.500000 0.500000
vt 0.500000 0.500000
vt 0.500000 0.500000
vt 0.500000 0.500000
vt 0.500000 0.500000
vt 0.500000 0.500000
vt 0.500000 0.500000
vt 0.500000 0.500000
vt 0.500000 0.500000
vt 0.500000 0.500000
vt 0.500000 0.500000
vt 0.500000 0.500000
vt 0.500000 0.500000
vt 0.500000 0.500000
vt 0.500000 0.500000
vt 0.500000 0.500000
vt 0.500000 0.500000
vt 0.500000 0.500000
vt 0.170220 0.200632
vt 0.168885 0.197207
vt 0.170884 0.199931
vt 0.168823 0.184521
vt 0.170095 0.184384
vt 0.170421 0.188065
vt 0.168742 0.204545
vt 0.166402 0.199972
vt 0.170834 0.186262
vt 0.169153 0.195857
vt 0.171889 0.199955
vt 0.174899 0.193154
vt 0.172754 0.189660
vt 0.177587 0.189302
vt 0.174767 0.184509
vt 0.172037 0.190510
vt 0.174276 0.196220
vt 0.172725 0.188062
vt 0.166374 0.197769
vt 0.166650 0.196400
vt 0.167337 0.196473
vt 0.172403 0.186250
vt 0.172466 0.184863
vt 0.173378 0.184366
vt 0.177275 0.196634
vt 0.177546 0.197967
vt 0.176512 0.196691
vt 0.177083 0.185185
vt 0.177550 0.193452
vt 0.176822 0.193642
vt 0.177752 0.191786
vt 0.177464 0.200098
vt 0.177083 0.203704
vt 0.175525 0.197341
vt 0.169007 0.193909
vt 0.171009 0.190507
vt 0.168192 0.197145
vt 0.166667 0.203704
vt 0.169968 0.204841
vt 0.170303 0.201972
vt 0.175820 0.193156
vt 0.170692 0.203475
vt 0.170732 0.204568
vt 0.166667 0.185185
vt 0.170326 0.189656
vt 0.174358 0.194421
vt 0.168527 0.192583
vt 0.172613 0.200689
vt 0.172537 0.204584
vt 0.172409 0.203514
vt 0.173462 0.204844
vt 0.172645 0.202031
vt 0.174679 0.197440
vt 0.167074 0.193358
vt 0.166528 0.193349
vt 0.166336 0.191779
vt 0.167816 0.192682
vt 0.170884 0.184883
vn 0.0000 -1.0000 0.0000
vn -0.1562 0.0000 -0.9877
vn -0.1347 0.0000 -0.9909
vn 0.1973 0.0000 -0.9803
vn -0.9783 0.0000 -0.2071
vn 0.9979 0.0000 0.0653
vn -0.2222 0.0000 -0.9750
vn 0.1743 0.0000 -0.9847
vn -0.9623 0.0000 0.2721
vn 0.9085 0.0000 0.4178
vn 0.9829 0.0000 -0.1843
vn -0.9921 0.0000 -0.1253
vn -0.9991 0.0000 -0.0431
vn 0.9940 0.0000 0.1096
vn -0.4955 0.0000 -0.8686
vn 0.5100 0.0000 -0.8602
vn 0.9976 0.0000 -0.0690
vn -0.9997 0.0000 -0.0227
vn -0.0131 0.0000 -0.9999
vn -0.0655 0.0000 0.9979
vn 0.9401 0.0000 0.3410
vn -0.9414 0.0000 0.3374
vn 0.0507 0.0000 0.9987
vn 0.8624 0.0000 0.5063
vn -0.3469 0.0000 0.9379
vn -0.0420 0.0000 0.9991
vn -0.9430 0.0000 0.3329
vn 0.0599 0.0000 0.9982
vn 0.4040 0.0000 0.9147
vn 0.9968 0.0000 -0.0803
vn -0.9913 0.0000 -0.1319
vn 0.7962 0.0000 -0.6050
vn -0.8409 0.0000 -0.5412
vn -0.2634 0.0000 -0.9647
vn 0.1456 0.0000 -0.9893
vn 0.9775 0.0000 -0.2110
vn -0.0094 0.0000 -1.0000
vn 0.4566 0.0000 -0.8897
vn -0.9772 0.0000 -0.2124
vn -0.0008 0.0000 -1.0000
vn 0.0783 0.0000 -0.9969
vn 0.9931 0.0000 0.1170
vn 0.0014 0.0000 1.0000
vn -0.5547 0.0000 0.8320
vn 0.5737 0.0000 0.8190
vn -0.9995 0.0000 -0.0326
vn 0.9944 0.0000 -0.1053
vn 0.9259 0.0000 -0.3777
vn -0.9537 0.0000 -0.3007
vn -0.9961 0.0000 0.0888
vn 0.9979 0.0000 -0.0641
vn -0.9968 0.0000 0.0797
vn 0.9771 0.0000 0.2127
vn 0.3347 0.0000 0.9423
vn -0.1706 0.0000 0.9853
vn -0.0603 0.0000 0.9982
vn 0.1620 0.0000 0.9868
vn -0.2931 0.0000 0.9561
vn 0.0577 0.0000 0.9983
vn 0.0000 1.0000 0.0000
usemtl BackMat.001
s off
f 210/1/1 213/2/1 223/3/1
f 264/4/1 252/5/1 263/6/1
f 195/7/1 210/1/1 208/8/1
f 252/5/1 253/9/1 263/6/1
f 213/2/1 212/10/1 228/11/1
f 232/12/1 245/13/1 248/14/1
f 245/13/1 265/15/1 248/14/1
f 228/11/1 226/16/1 246/17/1
f 248/14/1 265/15/1 251/18/1
f 215/19/1 229/20/1 221/21/1
f 254/22/1 266/23/1 259/24/1
f 219/25/1 227/26/1 214/27/1
f 265/15/1 245/13/1 261/28/1
f 237/29/1 239/30/1 236/31/1
f 207/32/1 216/33/1 203/34/1
f 228/11/1 247/35/1 231/36/1
f 225/37/1 210/1/1 223/3/1
f 223/3/1 213/2/1 228/11/1
f 225/37/1 229/20/1 215/19/1
f 208/8/1 225/37/1 215/19/1
f 195/7/1 208/8/1 201/38/1
f 196/39/1 206/40/1 195/7/1
f 245/13/1 235/41/1 239/30/1
f 266/23/1 251/18/1 265/15/1
f 206/40/1 210/1/1 195/7/1
f 200/42/1 196/39/1 197/43/1
f 228/11/1 246/17/1 247/35/1
f 236/31/1 239/30/1 235/41/1
f 255/44/1 249/45/1 264/4/1
f 230/46/1 246/17/1 226/16/1
f 206/40/1 196/39/1 200/42/1
f 231/36/1 249/45/1 233/47/1
f 246/17/1 230/46/1 248/14/1
f 209/48/1 226/16/1 212/10/1
f 235/41/1 245/13/1 232/12/1
f 192/49/1 194/50/1 199/51/1
f 214/27/1 227/26/1 207/32/1
f 205/52/1 203/34/1 217/53/1
f 226/16/1 209/48/1 217/53/1
f 199/51/1 194/50/1 205/52/1
f 242/54/1 244/55/1 240/56/1
f 233/47/1 249/45/1 255/44/1
f 232/12/1 248/14/1 230/46/1
f 205/52/1 217/53/1 209/48/1
f 212/10/1 226/16/1 228/11/1
f 243/57/1 233/47/1 255/44/1
f 264/4/1 249/45/1 252/5/1
f 194/50/1 203/34/1 205/52/1
f 216/33/1 217/53/1 203/34/1
f 263/6/1 253/9/1 257/58/1
f 251/18/1 266/23/1 254/22/1
f 243/57/1 244/55/1 242/54/1
f 227/26/1 216/33/1 207/32/1
f 247/35/1 249/45/1 231/36/1
f 208/8/1 210/1/1 225/37/1
f 244/55/1 243/57/1 255/44/1
f 118/59/2 13/60/2 71/61/2 193/62/2
f 1/63/3 2/64/3 60/65/3 59/66/3
f 2/64/4 123/67/4 198/68/4 60/65/4
f 11/69/5 12/70/5 70/71/5 69/72/5
f 3/73/6 4/74/6 62/75/6 61/76/6
f 127/77/7 1/63/7 59/66/7 202/78/7
f 13/60/8 129/79/8 204/80/8 71/61/8
f 10/81/9 11/69/9 69/72/9 68/82/9
f 4/74/10 5/83/10 63/84/10 62/75/10
f 14/85/11 15/86/11 73/87/11 72/88/11
f 57/89/12 58/90/12 116/91/12 115/92/12
f 9/93/13 10/81/13 68/82/13 67/94/13
f 5/83/14 136/95/14 211/96/14 63/84/14
f 8/97/15 9/93/15 67/94/15 66/98/15
f 6/99/16 7/100/16 65/101/16 64/102/16
f 15/86/17 16/103/17 74/104/17 73/87/17
f 56/105/18 57/89/18 115/92/18 114/106/18
f 7/100/19 8/97/19 66/98/19 65/101/19
f 19/107/20 143/108/20 218/109/20 77/110/20
f 16/103/21 145/111/21 220/112/21 74/104/21
f 147/113/22 56/105/22 114/106/22 222/114/22
f 149/115/23 53/116/23 111/117/23 224/118/23
f 20/119/24 21/120/24 79/121/24 78/122/24
f 18/123/25 19/107/25 77/110/25 76/124/25
f 17/125/26 18/123/26 76/124/26 75/126/26
f 51/127/27 52/128/27 110/129/27 109/130/27
f 54/131/28 55/132/28 113/133/28 112/134/28
f 53/116/29 54/131/29 112/134/29 111/117/29
f 21/120/30 22/135/30 80/136/30 79/121/30
f 50/137/31 51/127/31 109/130/31 108/138/31
f 22/135/32 23/139/32 81/140/32 80/136/32
f 159/141/33 50/137/33 108/138/33 234/142/33
f 24/143/34 25/144/34 83/145/34 82/146/34
f 25/144/35 163/147/35 238/148/35 83/145/35
f 26/149/36 27/150/36 85/151/36 84/152/36
f 166/153/37 47/154/37 105/155/37 241/156/37
f 47/154/38 48/157/38 106/158/38 105/155/38
f 45/159/39 46/160/39 104/161/39 103/162/39
f 23/139/40 24/143/40 82/146/40 81/140/40
f 48/157/41 49/163/41 107/164/41 106/158/41
f 27/150/42 28/165/42 86/166/42 85/151/42
f 36/167/43 37/168/43 95/169/43 94/170/43
f 35/171/44 36/167/44 94/170/44 93/172/44
f 37/168/45 175/173/45 250/174/45 95/169/45
f 34/175/46 35/171/46 93/172/46 92/176/46
f 38/177/47 39/178/47 97/179/47 96/180/47
f 39/178/48 40/181/48 98/182/48 97/179/48
f 33/183/49 34/175/49 92/176/49 91/184/49
f 181/185/50 45/159/50 103/162/50 256/186/50
f 40/181/51 183/187/51 258/188/51 98/182/51
f 185/189/52 33/183/52 91/184/52 260/190/52
f 28/165/53 187/191/53 262/192/53 86/166/53
f 41/193/54 42/194/54 100/195/54 99/196/54
f 43/197/55 44/198/55 102/199/55 101/200/55
f 42/194/56 43/197/56 101/200/56 100/195/56
f 29/201/57 30/202/57 88/203/57 87/204/57
f 31/205/58 32/206/58 90/207/58 89/208/58
f 30/202/59 31/205/59 89/208/59 88/203/59
usemtl FrontMat.001
f 135/209/60 148/210/60 138/211/60
f 189/212/60 188/213/60 177/214/60
f 120/215/60 133/216/60 135/209/60
f 177/214/60 188/213/60 178/217/60
f 138/211/60 153/218/60 137/219/60
f 157/220/60 173/221/60 170/222/60
f 170/222/60 173/221/60 190/223/60
f 153/218/60 171/224/60 151/225/60
f 173/221/60 176/226/60 190/223/60
f 140/227/60 146/228/60 154/229/60
f 179/230/60 184/231/60 191/232/60
f 144/233/60 139/234/60 152/235/60
f 190/223/60 186/236/60 170/222/60
f 162/237/60 161/238/60 164/239/60
f 132/240/60 128/241/60 141/242/60
f 153/218/60 156/243/60 172/244/60
f 150/245/60 148/210/60 135/209/60
f 148/210/60 153/218/60 138/211/60
f 150/245/60 140/227/60 154/229/60
f 133/216/60 140/227/60 150/245/60
f 120/215/60 126/246/60 133/216/60
f 121/247/60 120/215/60 131/248/60
f 170/222/60 164/239/60 160/249/60
f 191/232/60 190/223/60 176/226/60
f 131/248/60 120/215/60 135/209/60
f 125/250/60 122/251/60 121/247/60
f 153/218/60 172/244/60 171/224/60
f 161/238/60 160/249/60 164/239/60
f 180/252/60 189/212/60 174/253/60
f 155/254/60 151/225/60 171/224/60
f 131/248/60 125/250/60 121/247/60
f 156/243/60 158/255/60 174/253/60
f 171/224/60 173/221/60 155/254/60
f 134/256/60 137/219/60 151/225/60
f 160/249/60 157/220/60 170/222/60
f 117/257/60 124/258/60 119/259/60
f 139/234/60 132/240/60 152/235/60
f 130/260/60 142/261/60 128/241/60
f 151/225/60 142/261/60 134/256/60
f 124/258/60 130/260/60 119/259/60
f 167/262/60 165/263/60 169/264/60
f 158/255/60 180/252/60 174/253/60
f 157/220/60 155/254/60 173/221/60
f 130/260/60 134/256/60 142/261/60
f 137/219/60 153/218/60 151/225/60
f 168/265/60 180/252/60 158/255/60
f 189/212/60 177/214/60 174/253/60
f 119/259/60 130/260/60 128/241/60
f 141/242/60 128/241/60 142/261/60
f 188/213/60 182/266/60 178/217/60
f 176/226/60 179/230/60 191/232/60
f 168/265/60 167/262/60 169/264/60
f 152/235/60 132/240/60 141/242/60
f 172/244/60 156/243/60 174/253/60
f 133/216/60 150/245/60 135/209/60
f 169/264/60 180/252/60 168/265/60
