# Blender v2.83.1 OBJ File: 'jigsaw-96x54-3-step2.blend'
# www.blender.org
mtllib piece.4280.mtl
o path8560
v -0.560032 0.037500 0.310276
v -0.568577 0.037500 0.196270
v -0.541897 0.037500 0.122185
v -0.466888 0.037500 0.118710
v -0.372322 0.037500 0.145828
v -0.297466 0.037500 0.145863
v -0.273052 0.037500 0.080112
v -0.295643 0.037500 -0.014099
v -0.353249 0.037500 -0.080444
v -0.431934 0.037500 -0.081924
v -0.510014 0.037500 -0.058769
v -0.563858 0.037500 -0.070526
v -0.577133 0.037500 -0.157989
v -0.521835 0.037500 -0.500862
v -0.327980 0.037500 -0.479557
v -0.212624 0.037500 -0.480045
v -0.138756 0.037500 -0.510193
v -0.137741 0.037500 -0.579716
v -0.167904 0.037500 -0.664005
v -0.169308 0.037500 -0.729855
v -0.101894 0.037500 -0.750900
v -0.005123 0.037500 -0.728107
v 0.061661 0.037500 -0.669285
v 0.059498 0.037500 -0.585537
v 0.030975 0.037500 -0.501068
v 0.039055 0.037500 -0.443386
v 0.127033 0.037500 -0.431526
v 0.479862 0.037500 -0.500862
v 0.446804 0.037500 -0.141724
v 0.467327 0.037500 -0.053925
v 0.524242 0.037500 -0.049084
v 0.598900 0.037500 -0.081650
v 0.665447 0.037500 -0.085598
v 0.702106 0.037500 -0.016289
v 0.703430 0.037500 0.085396
v 0.668049 0.037500 0.157185
v 0.599598 0.037500 0.157352
v 0.521408 0.037500 0.126400
v 0.461800 0.037500 0.125366
v 0.441216 0.037500 0.196896
v 0.448620 0.037500 0.310101
v 0.479862 0.037500 0.501049
v 0.255634 0.037500 0.480064
v 0.121658 0.037500 0.481091
v 0.034622 0.037500 0.512390
v 0.031090 0.037500 0.583839
v 0.066452 0.037500 0.670498
v 0.075798 0.037500 0.738728
v 0.014965 0.037500 0.761719
v -0.077290 0.037500 0.739925
v -0.141468 0.037500 0.680626
v -0.138142 0.037500 0.594658
v -0.108116 0.037500 0.507084
v -0.112247 0.037500 0.446541
v -0.192577 0.037500 0.432945
v -0.315807 0.037500 0.451336
v -0.521835 0.037500 0.501049
v -0.560032 -0.037500 0.310276
v -0.568577 -0.037500 0.196270
v -0.541897 -0.037500 0.122185
v -0.466888 -0.037500 0.118710
v -0.372322 -0.037500 0.145828
v -0.297466 -0.037500 0.145863
v -0.273052 -0.037500 0.080112
v -0.295643 -0.037500 -0.014099
v -0.353249 -0.037500 -0.080444
v -0.431934 -0.037498 -0.081924
v -0.510014 -0.037500 -0.058769
v -0.563858 -0.037500 -0.070526
v -0.577133 -0.037500 -0.157989
v -0.521835 -0.037500 -0.500862
v -0.327980 -0.037498 -0.479557
v -0.212624 -0.037500 -0.480045
v -0.138756 -0.037500 -0.510193
v -0.137741 -0.037500 -0.579716
v -0.167904 -0.037498 -0.664005
v -0.169308 -0.037500 -0.729855
v -0.101894 -0.037500 -0.750900
v -0.005123 -0.037498 -0.728107
v 0.061661 -0.037500 -0.669285
v 0.059498 -0.037500 -0.585537
v 0.030975 -0.037500 -0.501068
v 0.039055 -0.037500 -0.443386
v 0.127033 -0.037500 -0.431526
v 0.479862 -0.037500 -0.500862
v 0.446804 -0.037500 -0.141724
v 0.467327 -0.037500 -0.053925
v 0.524242 -0.037500 -0.049084
v 0.598900 -0.037500 -0.081650
v 0.665447 -0.037500 -0.085598
v 0.702106 -0.037500 -0.016289
v 0.703430 -0.037500 0.085396
v 0.668049 -0.037500 0.157185
v 0.599598 -0.037500 0.157352
v 0.521408 -0.037500 0.126400
v 0.461800 -0.037500 0.125366
v 0.441216 -0.037500 0.196896
v 0.448620 -0.037500 0.310101
v 0.479862 -0.037498 0.501049
v 0.255634 -0.037498 0.480064
v 0.121658 -0.037500 0.481091
v 0.034622 -0.037500 0.512390
v 0.031090 -0.037498 0.583839
v 0.066452 -0.037500 0.670498
v 0.075798 -0.037500 0.738728
v 0.014965 -0.037500 0.761719
v -0.077290 -0.037498 0.739925
v -0.141468 -0.037500 0.680626
v -0.138142 -0.037500 0.594658
v -0.108116 -0.037500 0.507084
v -0.112247 -0.037498 0.446541
v -0.192577 -0.037500 0.432945
v -0.315807 -0.037500 0.451336
v -0.521835 -0.037500 0.501049
v -0.563858 0.037500 -0.070526
v -0.563858 0.037500 -0.070526
v -0.577133 0.037500 -0.157989
v -0.560032 0.037500 0.310276
v -0.568577 0.037500 0.196270
v -0.541897 0.037500 0.122185
v -0.541897 0.037500 0.122185
v -0.510014 0.037500 -0.058769
v -0.466888 0.037500 0.118710
v -0.521835 0.037500 -0.500862
v -0.521835 0.037500 -0.500862
v -0.521835 0.037500 0.501049
v -0.521835 0.037500 0.501049
v -0.431934 0.037500 -0.081924
v -0.372322 0.037500 0.145828
v -0.327980 0.037500 -0.479557
v -0.353249 0.037500 -0.080444
v -0.315807 0.037500 0.451336
v -0.297466 0.037500 0.145863
v -0.297466 0.037500 0.145863
v -0.295643 0.037500 -0.014099
v -0.212624 0.037500 -0.480045
v -0.192577 0.037500 0.432945
v -0.273052 0.037500 0.080112
v -0.138756 0.037500 -0.510193
v -0.138756 0.037500 -0.510193
v -0.112247 0.037500 0.446541
v -0.112247 0.037500 0.446541
v -0.167904 0.037500 -0.664005
v -0.169308 0.037500 -0.729855
v -0.169308 0.037500 -0.729855
v -0.101894 0.037500 -0.750900
v -0.137741 0.037500 -0.579716
v -0.077290 0.037500 0.739925
v -0.141468 0.037500 0.680626
v -0.138142 0.037500 0.594658
v -0.108116 0.037500 0.507084
v -0.005123 0.037500 -0.728107
v 0.014965 0.037500 0.761719
v 0.061661 0.037500 -0.669285
v 0.075798 0.037500 0.738728
v 0.075798 0.037500 0.738728
v 0.030975 0.037500 -0.501068
v 0.039055 0.037500 -0.443386
v 0.039055 0.037500 -0.443386
v 0.059498 0.037500 -0.585537
v 0.066452 0.037500 0.670498
v 0.031090 0.037500 0.583839
v 0.034622 0.037500 0.512390
v 0.034622 0.037500 0.512390
v 0.121658 0.037500 0.481091
v 0.127033 0.037500 -0.431526
v 0.255634 0.037500 0.480064
v 0.479862 0.037500 0.501049
v 0.479862 0.037500 0.501049
v 0.441216 0.037500 0.196896
v 0.448620 0.037500 0.310101
v 0.461800 0.037500 0.125366
v 0.461800 0.037500 0.125366
v 0.446804 0.037500 -0.141724
v 0.467327 0.037500 -0.053925
v 0.467327 0.037500 -0.053925
v 0.479862 0.037500 -0.500862
v 0.479862 0.037500 -0.500862
v 0.521408 0.037500 0.126400
v 0.524242 0.037500 -0.049084
v 0.599598 0.037500 0.157352
v 0.598900 0.037500 -0.081650
v 0.665447 0.037500 -0.085598
v 0.665447 0.037500 -0.085598
v 0.668049 0.037500 0.157185
v 0.668049 0.037500 0.157185
v 0.702106 0.037500 -0.016289
v 0.703430 0.037500 0.085396
v -0.563858 -0.037500 -0.070526
v -0.563858 -0.037500 -0.070526
v -0.577133 -0.037500 -0.157989
v -0.560032 -0.037500 0.310276
v -0.568577 -0.037500 0.196270
v -0.541897 -0.037500 0.122185
v -0.541897 -0.037500 0.122185
v -0.510014 -0.037500 -0.058769
v -0.466888 -0.037500 0.118710
v -0.521835 -0.037500 -0.500862
v -0.521835 -0.037500 -0.500862
v -0.521835 -0.037500 0.501049
v -0.521835 -0.037500 0.501049
v -0.431934 -0.037498 -0.081924
v -0.372322 -0.037500 0.145828
v -0.327980 -0.037498 -0.479557
v -0.353249 -0.037500 -0.080444
v -0.315807 -0.037500 0.451336
v -0.297466 -0.037500 0.145863
v -0.297466 -0.037500 0.145863
v -0.295643 -0.037500 -0.014099
v -0.212624 -0.037500 -0.480045
v -0.192577 -0.037500 0.432945
v -0.273052 -0.037500 0.080112
v -0.138756 -0.037500 -0.510193
v -0.138756 -0.037500 -0.510193
v -0.112247 -0.037498 0.446541
v -0.112247 -0.037498 0.446541
v -0.167904 -0.037498 -0.664005
v -0.169308 -0.037500 -0.729855
v -0.169308 -0.037500 -0.729855
v -0.101894 -0.037500 -0.750900
v -0.137741 -0.037500 -0.579716
v -0.077290 -0.037498 0.739925
v -0.141468 -0.037500 0.680626
v -0.138142 -0.037500 0.594658
v -0.108116 -0.037500 0.507084
v -0.005123 -0.037498 -0.728107
v 0.014965 -0.037500 0.761719
v 0.061661 -0.037500 -0.669285
v 0.075798 -0.037500 0.738728
v 0.075798 -0.037500 0.738728
v 0.030975 -0.037500 -0.501068
v 0.039055 -0.037500 -0.443386
v 0.039055 -0.037500 -0.443386
v 0.059498 -0.037500 -0.585537
v 0.066452 -0.037500 0.670498
v 0.031090 -0.037498 0.583839
v 0.034622 -0.037500 0.512390
v 0.034622 -0.037500 0.512390
v 0.121658 -0.037500 0.481091
v 0.127033 -0.037500 -0.431526
v 0.255634 -0.037498 0.480064
v 0.479862 -0.037498 0.501049
v 0.479862 -0.037498 0.501049
v 0.441216 -0.037500 0.196896
v 0.448620 -0.037500 0.310101
v 0.461800 -0.037500 0.125366
v 0.461800 -0.037500 0.125366
v 0.446804 -0.037500 -0.141724
v 0.467327 -0.037500 -0.053925
v 0.467327 -0.037500 -0.053925
v 0.479862 -0.037500 -0.500862
v 0.479862 -0.037500 -0.500862
v 0.521408 -0.037500 0.126400
v 0.524242 -0.037500 -0.049084
v 0.599598 -0.037500 0.157352
v 0.598900 -0.037500 -0.081650
v 0.665447 -0.037500 -0.085598
v 0.665447 -0.037500 -0.085598
v 0.668049 -0.037500 0.157185
v 0.668049 -0.037500 0.157185
v 0.702106 -0.037500 -0.016289
v 0.703430 -0.037500 0.085396
vt 0.500000 0.500000
vt 0.500000 0.500000
vt 0.500000 0.500000
vt 0.500000 0.500000
vt 0.500000 0.500000
vt 0.500000 0.500000
vt 0.500000 0.500000
vt 0.500000 0.500000
vt 0.500000 0.500000
vt 0.500000 0.500000
vt 0.500000 0.500000
vt 0.500000 0.500000
vt 0.500000 0.500000
vt 0.500000 0.500000
vt 0.500000 0.500000
vt 0.500000 0.500000
vt 0.500000 0.500000
vt 0.500000 0.500000
vt 0.500000 0.500000
vt 0.500000 0.500000
vt 0.500000 0.500000
vt 0.500000 0.500000
vt 0.500000 0.500000
vt 0.500000 0.500000
vt 0.500000 0.500000
vt 0.500000 0.500000
vt 0.500000 0.500000
vt 0.500000 0.500000
vt 0.500000 0.500000
vt 0.500000 0.500000
vt 0.500000 0.500000
vt 0.500000 0.500000
vt 0.500000 0.500000
vt 0.500000 0.500000
vt 0.500000 0.500000
vt 0.500000 0.500000
vt 0.500000 0.500000
vt 0.500000 0.500000
vt 0.500000 0.500000
vt 0.500000 0.500000
vt 0.500000 0.500000
vt 0.500000 0.500000
vt 0.500000 0.500000
vt 0.500000 0.500000
vt 0.500000 0.500000
vt 0.500000 0.500000
vt 0.500000 0.500000
vt 0.500000 0.500000
vt 0.500000 0.500000
vt 0.500000 0.500000
vt 0.500000 0.500000
vt 0.500000 0.500000
vt 0.500000 0.500000
vt 0.500000 0.500000
vt 0.500000 0.500000
vt 0.500000 0.500000
vt 0.500000 0.500000
vt 0.500000 0.500000
vt 0.500000 0.500000
vt 0.500000 0.500000
vt 0.500000 0.500000
vt 0.500000 0.500000
vt 0.500000 0.500000
vt 0.500000 0.500000
vt 0.500000 0.500000
vt 0.500000 0.500000
vt 0.500000 0.500000
vt 0.500000 0.500000
vt 0.500000 0.500000
vt 0.500000 0.500000
vt 0.500000 0.500000
vt 0.500000 0.500000
vt 0.500000 0.500000
vt 0.500000 0.500000
vt 0.500000 0.500000
vt 0.500000 0.500000
vt 0.500000 0.500000
vt 0.500000 0.500000
vt 0.500000 0.500000
vt 0.500000 0.500000
vt 0.500000 0.500000
vt 0.500000 0.500000
vt 0.500000 0.500000
vt 0.500000 0.500000
vt 0.500000 0.500000
vt 0.500000 0.500000
vt 0.500000 0.500000
vt 0.500000 0.500000
vt 0.500000 0.500000
vt 0.500000 0.500000
vt 0.500000 0.500000
vt 0.500000 0.500000
vt 0.500000 0.500000
vt 0.500000 0.500000
vt 0.500000 0.500000
vt 0.500000 0.500000
vt 0.500000 0.500000
vt 0.500000 0.500000
vt 0.500000 0.500000
vt 0.500000 0.500000
vt 0.500000 0.500000
vt 0.500000 0.500000
vt 0.500000 0.500000
vt 0.500000 0.500000
vt 0.500000 0.500000
vt 0.500000 0.500000
vt 0.500000 0.500000
vt 0.500000 0.500000
vt 0.500000 0.500000
vt 0.500000 0.500000
vt 0.500000 0.500000
vt 0.500000 0.500000
vt 0.500000 0.500000
vt 0.500000 0.500000
vt 0.500000 0.500000
vt 0.500000 0.500000
vt 0.500000 0.500000
vt 0.500000 0.500000
vt 0.500000 0.500000
vt 0.500000 0.500000
vt 0.500000 0.500000
vt 0.500000 0.500000
vt 0.500000 0.500000
vt 0.500000 0.500000
vt 0.500000 0.500000
vt 0.500000 0.500000
vt 0.500000 0.500000
vt 0.500000 0.500000
vt 0.500000 0.500000
vt 0.500000 0.500000
vt 0.500000 0.500000
vt 0.500000 0.500000
vt 0.500000 0.500000
vt 0.500000 0.500000
vt 0.500000 0.500000
vt 0.500000 0.500000
vt 0.500000 0.500000
vt 0.500000 0.500000
vt 0.500000 0.500000
vt 0.500000 0.500000
vt 0.500000 0.500000
vt 0.500000 0.500000
vt 0.500000 0.500000
vt 0.500000 0.500000
vt 0.500000 0.500000
vt 0.500000 0.500000
vt 0.500000 0.500000
vt 0.500000 0.500000
vt 0.500000 0.500000
vt 0.500000 0.500000
vt 0.500000 0.500000
vt 0.500000 0.500000
vt 0.500000 0.500000
vt 0.500000 0.500000
vt 0.500000 0.500000
vt 0.500000 0.500000
vt 0.500000 0.500000
vt 0.500000 0.500000
vt 0.500000 0.500000
vt 0.500000 0.500000
vt 0.500000 0.500000
vt 0.500000 0.500000
vt 0.500000 0.500000
vt 0.500000 0.500000
vt 0.500000 0.500000
vt 0.500000 0.500000
vt 0.500000 0.500000
vt 0.500000 0.500000
vt 0.500000 0.500000
vt 0.500000 0.500000
vt 0.500000 0.500000
vt 0.500000 0.500000
vt 0.500000 0.500000
vt 0.500000 0.500000
vt 0.500000 0.500000
vt 0.500000 0.500000
vt 0.500000 0.500000
vt 0.500000 0.500000
vt 0.500000 0.500000
vt 0.500000 0.500000
vt 0.500000 0.500000
vt 0.500000 0.500000
vt 0.500000 0.500000
vt 0.500000 0.500000
vt 0.500000 0.500000
vt 0.500000 0.500000
vt 0.500000 0.500000
vt 0.500000 0.500000
vt 0.500000 0.500000
vt 0.500000 0.500000
vt 0.500000 0.500000
vt 0.500000 0.500000
vt 0.500000 0.500000
vt 0.500000 0.500000
vt 0.500000 0.500000
vt 0.500000 0.500000
vt 0.500000 0.500000
vt 0.500000 0.500000
vt 0.500000 0.500000
vt 0.500000 0.500000
vt 0.500000 0.500000
vt 0.500000 0.500000
vt 0.500000 0.500000
vt 0.500000 0.500000
vt 0.500000 0.500000
vt 0.573135 0.170812
vt 0.572917 0.166667
vt 0.574902 0.167244
vt 0.579599 0.167278
vt 0.583333 0.166667
vt 0.582613 0.173189
vt 0.573483 0.177613
vt 0.572799 0.174898
vt 0.573124 0.173289
vt 0.578687 0.166898
vt 0.577293 0.180586
vt 0.576823 0.167001
vt 0.572056 0.174963
vt 0.572854 0.177537
vt 0.585714 0.178668
vt 0.585030 0.178642
vt 0.585933 0.177422
vt 0.584153 0.178084
vt 0.585696 0.175633
vt 0.582736 0.174816
vt 0.583336 0.174965
vt 0.583430 0.178103
vt 0.576812 0.165899
vt 0.578636 0.165846
vt 0.585084 0.174398
vt 0.584214 0.174438
vt 0.576609 0.181037
vt 0.576610 0.182421
vt 0.573433 0.181376
vt 0.583333 0.185185
vt 0.579769 0.186208
vt 0.583112 0.181601
vt 0.578859 0.185962
vt 0.578737 0.184967
vt 0.570207 0.175261
vt 0.570446 0.174137
vt 0.571155 0.174309
vt 0.578273 0.181004
vt 0.583117 0.179469
vt 0.578978 0.183523
vt 0.578962 0.182069
vt 0.573625 0.179098
vt 0.577238 0.162534
vt 0.576079 0.167381
vt 0.570433 0.176967
vt 0.571943 0.178092
vt 0.571050 0.178153
vt 0.574900 0.185891
vt 0.578975 0.164466
vt 0.578295 0.162558
vt 0.576490 0.164453
vt 0.576492 0.163188
vt 0.572917 0.185185
vt 0.576892 0.184169
vt 0.576085 0.186049
vt 0.579016 0.163236
vt 0.576856 0.185556
vn -0.0000 -1.0000 0.0000
vn -0.9887 0.0000 0.1501
vn -0.9972 0.0000 0.0747
vn -0.9408 0.0000 -0.3388
vn -0.2133 0.0000 0.9770
vn -0.0463 0.0000 -0.9989
vn -0.9872 0.0000 -0.1592
vn -0.9805 0.0000 0.1963
vn 0.2843 0.0000 0.9587
vn 0.2757 0.0000 -0.9613
vn 0.1092 0.0000 -0.9940
vn -0.0188 0.0000 0.9998
vn 0.2346 0.0000 0.9721
vn 0.0005 0.0000 -1.0000
vn -0.7551 0.0000 0.6556
vn -0.0042 0.0000 -1.0000
vn 0.1476 0.0000 0.9890
vn -0.9375 0.0000 -0.3481
vn -0.9724 0.0000 0.2332
vn -0.3779 0.0000 -0.9259
vn -0.1669 0.0000 0.9860
vn -0.9998 0.0000 0.0213
vn -0.2980 0.0000 -0.9546
vn -0.9415 0.0000 0.3369
vn -0.6786 0.0000 0.7345
vn -0.9993 0.0000 -0.0387
vn -0.9999 0.0000 -0.0146
vn -0.9459 0.0000 -0.3243
vn -0.9977 0.0000 0.0681
vn 0.2293 0.0000 -0.9734
vn -0.2299 0.0000 0.9732
vn 0.6610 0.0000 -0.7504
vn 0.3535 0.0000 0.9354
vn 0.9903 0.0000 -0.1387
vn 0.9474 0.0000 0.3199
vn 0.9997 0.0000 0.0258
vn 0.9907 0.0000 -0.1357
vn 0.9259 0.0000 -0.3778
vn 0.9988 0.0000 0.0494
vn 0.3384 0.0000 0.9410
vn 0.1336 0.0000 -0.9910
vn 0.0077 0.0000 1.0000
vn -0.0932 0.0000 0.9956
vn 0.9979 0.0000 -0.0653
vn 0.9610 0.0000 0.2765
vn 0.9738 0.0000 -0.2276
vn 0.9958 0.0000 0.0917
vn -0.1928 0.0000 -0.9812
vn -0.0173 0.0000 0.9998
vn 0.0847 0.0000 -0.9964
vn 0.9869 0.0000 -0.1615
vn -0.3681 0.0000 0.9298
vn -0.3998 0.0000 -0.9166
vn -0.0592 0.0000 -0.9982
vn 0.0025 0.0000 1.0000
vn 0.8840 0.0000 -0.4676
vn 0.8970 0.0000 0.4421
vn 0.9999 0.0000 -0.0130
vn 0.0000 1.0000 0.0000
usemtl BackMat.001
s off
f 241/1/1 245/2/1 242/3/1
f 248/4/1 240/5/1 251/6/1
f 215/7/1 239/8/1 237/9/1
f 249/10/1 246/11/1 212/12/1
f 236/13/1 225/14/1 237/9/1
f 218/15/1 220/16/1 217/17/1
f 217/17/1 226/18/1 221/19/1
f 232/20/1 213/21/1 231/22/1
f 249/10/1 212/12/1 248/4/1
f 253/23/1 246/11/1 254/24/1
f 228/25/1 234/26/1 226/18/1
f 207/27/1 206/28/1 203/29/1
f 198/30/1 204/31/1 191/32/1
f 220/16/1 226/18/1 217/17/1
f 191/32/1 196/33/1 189/34/1
f 227/35/1 235/36/1 229/37/1
f 209/38/1 248/4/1 212/12/1
f 232/20/1 240/5/1 209/38/1
f 213/21/1 232/20/1 210/39/1
f 204/31/1 205/40/1 202/41/1
f 212/12/1 239/8/1 215/7/1
f 206/28/1 207/27/1 211/42/1
f 210/39/1 205/40/1 204/31/1
f 254/24/1 262/43/1 253/23/1
f 239/8/1 244/44/1 241/1/1
f 235/36/1 222/45/1 236/13/1
f 224/46/1 236/13/1 223/47/1
f 221/19/1 231/22/1 213/21/1
f 191/32/1 204/31/1 202/41/1
f 206/28/1 192/48/1 203/29/1
f 221/19/1 226/18/1 234/26/1
f 256/49/1 261/50/1 254/24/1
f 223/47/1 236/13/1 222/45/1
f 212/12/1 215/7/1 207/27/1
f 245/2/1 241/1/1 244/44/1
f 215/7/1 237/9/1 225/14/1
f 255/51/1 262/43/1 259/52/1
f 244/44/1 239/8/1 212/12/1
f 192/48/1 206/28/1 200/53/1
f 203/29/1 193/54/1 197/55/1
f 257/56/1 261/50/1 256/49/1
f 211/42/1 207/27/1 215/7/1
f 225/14/1 236/13/1 224/46/1
f 254/24/1 246/11/1 249/10/1
f 210/39/1 232/20/1 209/38/1
f 203/29/1 192/48/1 193/54/1
f 231/22/1 221/19/1 234/26/1
f 202/41/1 196/33/1 191/32/1
f 240/5/1 248/4/1 209/38/1
f 197/55/1 193/54/1 194/57/1
f 253/23/1 262/43/1 255/51/1
f 222/45/1 235/36/1 227/35/1
f 210/39/1 209/38/1 205/40/1
f 261/50/1 262/43/1 254/24/1
f 246/11/1 244/44/1 212/12/1
f 116/58/2 13/59/2 70/60/2 190/61/2
f 1/62/3 2/63/3 59/64/3 58/65/3
f 2/63/4 121/66/4 195/67/4 59/64/4
f 11/68/5 12/69/5 69/70/5 68/71/5
f 3/72/6 4/73/6 61/74/6 60/75/6
f 13/59/7 125/76/7 199/77/7 70/60/7
f 127/78/8 1/62/8 58/65/8 201/79/8
f 10/80/9 11/68/9 68/71/9 67/81/9
f 4/73/10 5/82/10 62/83/10 61/74/10
f 14/84/11 15/85/11 72/86/11 71/87/11
f 9/88/12 10/80/12 67/81/12 66/89/12
f 56/90/13 57/91/13 114/92/13 113/93/13
f 5/82/14 134/94/14 208/95/14 62/83/14
f 8/96/15 9/88/15 66/89/15 65/97/15
f 15/85/16 16/98/16 73/99/16 72/86/16
f 55/100/17 56/90/17 113/93/17 112/101/17
f 6/102/18 7/103/18 64/104/18 63/105/18
f 7/103/19 8/96/19 65/97/19 64/104/19
f 16/98/20 140/106/20 214/107/20 73/99/20
f 142/108/21 55/100/21 112/101/21 216/109/21
f 19/110/22 145/111/22 219/112/22 76/113/22
f 20/114/23 21/115/23 78/116/23 77/117/23
f 18/118/24 19/110/24 76/113/24 75/119/24
f 50/120/25 51/121/25 108/122/25 107/123/25
f 51/121/26 52/124/26 109/125/26 108/122/26
f 17/126/27 18/118/27 75/119/27 74/127/27
f 52/124/28 53/128/28 110/129/28 109/125/28
f 53/128/29 54/130/29 111/131/29 110/129/29
f 21/115/30 22/132/30 79/133/30 78/116/30
f 49/134/31 50/120/31 107/123/31 106/135/31
f 22/132/32 23/136/32 80/137/32 79/133/32
f 156/138/33 49/134/33 106/135/33 230/139/33
f 25/140/34 159/141/34 233/142/34 82/143/34
f 24/144/35 25/140/35 82/143/35 81/145/35
f 23/136/36 24/144/36 81/145/36 80/137/36
f 47/146/37 48/147/37 105/148/37 104/149/37
f 46/150/38 47/146/38 104/149/38 103/151/38
f 164/152/39 46/150/39 103/151/39 238/153/39
f 44/154/40 45/155/40 102/156/40 101/157/40
f 26/158/41 27/159/41 84/160/41 83/161/41
f 43/162/42 44/154/42 101/157/42 100/163/42
f 169/164/43 43/162/43 100/163/43 243/165/43
f 40/166/44 41/167/44 98/168/44 97/169/44
f 173/170/45 40/166/45 97/169/45 247/171/45
f 29/172/46 176/173/46 250/174/46 86/175/46
f 178/176/47 29/172/47 86/175/47 252/177/47
f 27/159/48 28/178/48 85/179/48 84/160/48
f 38/180/49 39/181/49 96/182/49 95/183/49
f 30/184/50 31/185/50 88/186/50 87/187/50
f 41/167/51 42/188/51 99/189/51 98/168/51
f 37/190/52 38/180/52 95/183/52 94/191/52
f 31/185/53 32/192/53 89/193/53 88/186/53
f 32/192/54 184/194/54 258/195/54 89/193/54
f 186/196/55 37/190/55 94/191/55 260/197/55
f 33/198/56 34/199/56 91/200/56 90/201/56
f 35/202/57 36/203/57 93/204/57 92/205/57
f 34/199/58 35/202/58 92/205/58 91/200/58
usemtl FrontMat.001
f 167/206/59 168/207/59 171/208/59
f 174/209/59 177/210/59 166/211/59
f 141/212/59 163/213/59 165/214/59
f 175/215/59 138/216/59 172/217/59
f 162/218/59 163/213/59 151/219/59
f 144/220/59 143/221/59 146/222/59
f 143/221/59 147/223/59 152/224/59
f 158/225/59 157/226/59 139/227/59
f 175/215/59 174/209/59 138/216/59
f 179/228/59 180/229/59 172/217/59
f 154/230/59 152/224/59 160/231/59
f 133/232/59 129/233/59 132/234/59
f 124/235/59 117/236/59 130/237/59
f 146/222/59 143/221/59 152/224/59
f 117/236/59 115/238/59 122/239/59
f 153/240/59 155/241/59 161/242/59
f 135/243/59 138/216/59 174/209/59
f 158/225/59 135/243/59 166/211/59
f 139/227/59 136/244/59 158/225/59
f 130/237/59 128/245/59 131/246/59
f 138/216/59 141/212/59 165/214/59
f 132/234/59 137/247/59 133/232/59
f 136/244/59 130/237/59 131/246/59
f 180/229/59 179/228/59 188/248/59
f 165/214/59 167/206/59 170/249/59
f 161/242/59 162/218/59 148/250/59
f 150/251/59 149/252/59 162/218/59
f 147/223/59 139/227/59 157/226/59
f 117/236/59 128/245/59 130/237/59
f 132/234/59 129/233/59 118/253/59
f 147/223/59 160/231/59 152/224/59
f 182/254/59 180/229/59 187/255/59
f 149/252/59 148/250/59 162/218/59
f 138/216/59 133/232/59 141/212/59
f 171/208/59 170/249/59 167/206/59
f 141/212/59 151/219/59 163/213/59
f 181/256/59 185/257/59 188/248/59
f 170/249/59 138/216/59 165/214/59
f 118/253/59 126/258/59 132/234/59
f 129/233/59 123/259/59 119/260/59
f 183/261/59 182/254/59 187/255/59
f 137/247/59 141/212/59 133/232/59
f 151/219/59 150/251/59 162/218/59
f 180/229/59 175/215/59 172/217/59
f 136/244/59 135/243/59 158/225/59
f 129/233/59 119/260/59 118/253/59
f 157/226/59 160/231/59 147/223/59
f 128/245/59 117/236/59 122/239/59
f 166/211/59 135/243/59 174/209/59
f 123/259/59 120/262/59 119/260/59
f 179/228/59 181/256/59 188/248/59
f 148/250/59 153/240/59 161/242/59
f 136/244/59 131/246/59 135/243/59
f 187/255/59 180/229/59 188/248/59
f 172/217/59 138/216/59 170/249/59
