# Blender v2.83.1 OBJ File: 'jigsaw-96x54-3-step2.blend'
# www.blender.org
mtllib piece.1047.mtl
o path2094
v -0.466148 0.037500 0.324677
v -0.467459 0.037500 0.208176
v -0.497638 0.037500 0.133492
v -0.566199 0.037500 0.132126
v -0.650099 0.037500 0.161476
v -0.718161 0.037500 0.160378
v -0.744992 0.037500 0.088348
v -0.728342 0.037500 -0.012283
v -0.671741 0.037500 -0.078506
v -0.583488 0.037500 -0.069183
v -0.490937 0.037500 -0.030685
v -0.426207 0.037500 -0.031242
v -0.411816 0.037500 -0.117966
v -0.485683 0.037500 -0.481529
v -0.291987 0.037500 -0.427734
v -0.177033 0.037500 -0.409332
v -0.104123 0.037500 -0.428413
v -0.104753 0.037500 -0.501114
v -0.136884 0.037500 -0.599907
v -0.140104 0.037500 -0.686333
v -0.073783 0.037500 -0.729088
v 0.023555 0.037500 -0.725563
v 0.093590 0.037500 -0.680321
v 0.097685 0.037500 -0.602142
v 0.075926 0.037500 -0.516495
v 0.088080 0.037500 -0.453056
v 0.175198 0.037500 -0.433037
v 0.303697 0.037500 -0.443687
v 0.516015 0.037500 -0.481529
v 0.444954 0.037500 -0.120209
v 0.458152 0.037500 -0.030060
v 0.518602 0.037500 -0.021935
v 0.602415 0.037500 -0.052803
v 0.676061 0.037500 -0.059761
v 0.712088 0.037500 0.000099
v 0.707344 0.037500 0.089737
v 0.664752 0.037500 0.152115
v 0.591625 0.037500 0.149475
v 0.512859 0.037500 0.121078
v 0.457747 0.037500 0.125473
v 0.446903 0.037500 0.203087
v 0.516015 0.037500 0.520378
v 0.304303 0.037500 0.560654
v 0.177108 0.037500 0.573189
v 0.092912 0.037500 0.555313
v 0.085716 0.037500 0.493980
v 0.113503 0.037500 0.409897
v 0.115250 0.037500 0.332207
v 0.049754 0.037500 0.285606
v -0.044966 0.037500 0.277023
v -0.111072 0.037500 0.308937
v -0.110282 0.037500 0.378357
v -0.082517 0.037500 0.460548
v -0.087261 0.037500 0.525314
v -0.165655 0.037500 0.550591
v -0.285508 0.037500 0.546951
v -0.485683 0.037500 0.520378
v -0.466148 -0.037500 0.324677
v -0.467459 -0.037498 0.208176
v -0.497638 -0.037500 0.133492
v -0.566199 -0.037500 0.132126
v -0.650099 -0.037500 0.161476
v -0.718161 -0.037500 0.160378
v -0.744992 -0.037500 0.088348
v -0.728342 -0.037498 -0.012283
v -0.671741 -0.037500 -0.078506
v -0.583488 -0.037500 -0.069183
v -0.490937 -0.037500 -0.030685
v -0.426207 -0.037500 -0.031242
v -0.411816 -0.037500 -0.117966
v -0.485683 -0.037500 -0.481529
v -0.291987 -0.037498 -0.427734
v -0.177033 -0.037500 -0.409332
v -0.104123 -0.037500 -0.428413
v -0.104753 -0.037500 -0.501114
v -0.136884 -0.037500 -0.599907
v -0.140104 -0.037500 -0.686333
v -0.073783 -0.037500 -0.729088
v 0.023555 -0.037500 -0.725563
v 0.093590 -0.037500 -0.680321
v 0.097685 -0.037500 -0.602142
v 0.075926 -0.037500 -0.516495
v 0.088080 -0.037500 -0.453056
v 0.175198 -0.037498 -0.433037
v 0.303697 -0.037500 -0.443687
v 0.516015 -0.037500 -0.481529
v 0.444954 -0.037500 -0.120209
v 0.458152 -0.037500 -0.030060
v 0.518602 -0.037500 -0.021935
v 0.602415 -0.037498 -0.052803
v 0.676061 -0.037500 -0.059761
v 0.712088 -0.037500 0.000099
v 0.707344 -0.037498 0.089737
v 0.664752 -0.037500 0.152115
v 0.591625 -0.037500 0.149475
v 0.512859 -0.037498 0.121078
v 0.457747 -0.037500 0.125473
v 0.446903 -0.037500 0.203087
v 0.516015 -0.037500 0.520378
v 0.304303 -0.037498 0.560654
v 0.177108 -0.037500 0.573189
v 0.092912 -0.037500 0.555313
v 0.085716 -0.037500 0.493980
v 0.113503 -0.037498 0.409897
v 0.115250 -0.037500 0.332207
v 0.049754 -0.037498 0.285606
v -0.044966 -0.037500 0.277023
v -0.111072 -0.037500 0.308937
v -0.110282 -0.037500 0.378357
v -0.082517 -0.037500 0.460548
v -0.087261 -0.037500 0.525314
v -0.165655 -0.037498 0.550591
v -0.285508 -0.037500 0.546951
v -0.485683 -0.037498 0.520378
v -0.718161 0.037500 0.160378
v -0.718161 0.037500 0.160378
v -0.744992 0.037500 0.088348
v -0.728342 0.037500 -0.012283
v -0.671741 0.037500 -0.078506
v -0.650099 0.037500 0.161476
v -0.583488 0.037500 -0.069183
v -0.566199 0.037500 0.132126
v -0.490937 0.037500 -0.030685
v -0.497638 0.037500 0.133492
v -0.497638 0.037500 0.133492
v -0.467459 0.037500 0.208176
v -0.426207 0.037500 -0.031242
v -0.426207 0.037500 -0.031242
v -0.485683 0.037500 0.520378
v -0.485683 0.037500 0.520378
v -0.466148 0.037500 0.324677
v -0.411816 0.037500 -0.117966
v -0.485683 0.037500 -0.481529
v -0.485683 0.037500 -0.481529
v -0.291987 0.037500 -0.427734
v -0.285508 0.037500 0.546951
v -0.177033 0.037500 -0.409332
v -0.165655 0.037500 0.550591
v -0.104123 0.037500 -0.428413
v -0.104123 0.037500 -0.428413
v -0.087261 0.037500 0.525314
v -0.087261 0.037500 0.525314
v -0.111072 0.037500 0.308937
v -0.111072 0.037500 0.308937
v -0.110282 0.037500 0.378357
v -0.136884 0.037500 -0.599907
v -0.140104 0.037500 -0.686333
v -0.073783 0.037500 -0.729088
v -0.104753 0.037500 -0.501114
v -0.044966 0.037500 0.277023
v -0.082517 0.037500 0.460548
v 0.023555 0.037500 -0.725563
v 0.049754 0.037500 0.285606
v 0.093590 0.037500 -0.680321
v 0.115250 0.037500 0.332207
v 0.075926 0.037500 -0.516495
v 0.088080 0.037500 -0.453056
v 0.088080 0.037500 -0.453056
v 0.097685 0.037500 -0.602142
v 0.092912 0.037500 0.555313
v 0.092912 0.037500 0.555313
v 0.085716 0.037500 0.493980
v 0.113503 0.037500 0.409897
v 0.175198 0.037500 -0.433037
v 0.177108 0.037500 0.573189
v 0.303697 0.037500 -0.443687
v 0.304303 0.037500 0.560654
v 0.516015 0.037500 0.520378
v 0.516015 0.037500 0.520378
v 0.446903 0.037500 0.203087
v 0.444954 0.037500 -0.120209
v 0.458152 0.037500 -0.030060
v 0.458152 0.037500 -0.030060
v 0.457747 0.037500 0.125473
v 0.457747 0.037500 0.125473
v 0.512859 0.037500 0.121078
v 0.518602 0.037500 -0.021935
v 0.516015 0.037500 -0.481529
v 0.516015 0.037500 -0.481529
v 0.591625 0.037500 0.149475
v 0.602415 0.037500 -0.052803
v 0.664752 0.037500 0.152115
v 0.676061 0.037500 -0.059761
v 0.676061 0.037500 -0.059761
v 0.707344 0.037500 0.089737
v 0.712088 0.037500 0.000099
v -0.718161 -0.037500 0.160378
v -0.718161 -0.037500 0.160378
v -0.744992 -0.037500 0.088348
v -0.728342 -0.037498 -0.012283
v -0.671741 -0.037500 -0.078506
v -0.650099 -0.037500 0.161476
v -0.583488 -0.037500 -0.069183
v -0.566199 -0.037500 0.132126
v -0.490937 -0.037500 -0.030685
v -0.497638 -0.037500 0.133492
v -0.497638 -0.037500 0.133492
v -0.467459 -0.037498 0.208176
v -0.426207 -0.037500 -0.031242
v -0.426207 -0.037500 -0.031242
v -0.485683 -0.037498 0.520378
v -0.485683 -0.037498 0.520378
v -0.466148 -0.037500 0.324677
v -0.411816 -0.037500 -0.117966
v -0.485683 -0.037500 -0.481529
v -0.485683 -0.037500 -0.481529
v -0.291987 -0.037498 -0.427734
v -0.285508 -0.037500 0.546951
v -0.177033 -0.037500 -0.409332
v -0.165655 -0.037498 0.550591
v -0.104123 -0.037500 -0.428413
v -0.104123 -0.037500 -0.428413
v -0.087261 -0.037500 0.525314
v -0.087261 -0.037500 0.525314
v -0.111072 -0.037500 0.308937
v -0.111072 -0.037500 0.308937
v -0.110282 -0.037500 0.378357
v -0.136884 -0.037500 -0.599907
v -0.140104 -0.037500 -0.686333
v -0.073783 -0.037500 -0.729088
v -0.104753 -0.037500 -0.501114
v -0.044966 -0.037500 0.277023
v -0.082517 -0.037500 0.460548
v 0.023555 -0.037500 -0.725563
v 0.049754 -0.037498 0.285606
v 0.093590 -0.037500 -0.680321
v 0.115250 -0.037500 0.332207
v 0.075926 -0.037500 -0.516495
v 0.088080 -0.037500 -0.453056
v 0.088080 -0.037500 -0.453056
v 0.097685 -0.037500 -0.602142
v 0.092912 -0.037500 0.555313
v 0.092912 -0.037500 0.555313
v 0.085716 -0.037500 0.493980
v 0.113503 -0.037498 0.409897
v 0.175198 -0.037498 -0.433037
v 0.177108 -0.037500 0.573189
v 0.303697 -0.037500 -0.443687
v 0.304303 -0.037498 0.560654
v 0.516015 -0.037500 0.520378
v 0.516015 -0.037500 0.520378
v 0.446903 -0.037500 0.203087
v 0.444954 -0.037500 -0.120209
v 0.458152 -0.037500 -0.030060
v 0.458152 -0.037500 -0.030060
v 0.457747 -0.037500 0.125473
v 0.457747 -0.037500 0.125473
v 0.512859 -0.037498 0.121078
v 0.518602 -0.037500 -0.021935
v 0.516015 -0.037500 -0.481529
v 0.516015 -0.037500 -0.481529
v 0.591625 -0.037500 0.149475
v 0.602415 -0.037498 -0.052803
v 0.664752 -0.037500 0.152115
v 0.676061 -0.037500 -0.059761
v 0.676061 -0.037500 -0.059761
v 0.707344 -0.037498 0.089737
v 0.712088 -0.037500 0.000099
vt 0.500000 0.500000
vt 0.500000 0.500000
vt 0.500000 0.500000
vt 0.500000 0.500000
vt 0.500000 0.500000
vt 0.500000 0.500000
vt 0.500000 0.500000
vt 0.500000 0.500000
vt 0.500000 0.500000
vt 0.500000 0.500000
vt 0.500000 0.500000
vt 0.500000 0.500000
vt 0.500000 0.500000
vt 0.500000 0.500000
vt 0.500000 0.500000
vt 0.500000 0.500000
vt 0.500000 0.500000
vt 0.500000 0.500000
vt 0.500000 0.500000
vt 0.500000 0.500000
vt 0.500000 0.500000
vt 0.500000 0.500000
vt 0.500000 0.500000
vt 0.500000 0.500000
vt 0.500000 0.500000
vt 0.500000 0.500000
vt 0.500000 0.500000
vt 0.500000 0.500000
vt 0.500000 0.500000
vt 0.500000 0.500000
vt 0.500000 0.500000
vt 0.500000 0.500000
vt 0.500000 0.500000
vt 0.500000 0.500000
vt 0.500000 0.500000
vt 0.500000 0.500000
vt 0.500000 0.500000
vt 0.500000 0.500000
vt 0.500000 0.500000
vt 0.500000 0.500000
vt 0.500000 0.500000
vt 0.500000 0.500000
vt 0.500000 0.500000
vt 0.500000 0.500000
vt 0.500000 0.500000
vt 0.500000 0.500000
vt 0.500000 0.500000
vt 0.500000 0.500000
vt 0.500000 0.500000
vt 0.500000 0.500000
vt 0.500000 0.500000
vt 0.500000 0.500000
vt 0.500000 0.500000
vt 0.500000 0.500000
vt 0.500000 0.500000
vt 0.500000 0.500000
vt 0.500000 0.500000
vt 0.500000 0.500000
vt 0.500000 0.500000
vt 0.500000 0.500000
vt 0.500000 0.500000
vt 0.500000 0.500000
vt 0.500000 0.500000
vt 0.500000 0.500000
vt 0.500000 0.500000
vt 0.500000 0.500000
vt 0.500000 0.500000
vt 0.500000 0.500000
vt 0.500000 0.500000
vt 0.500000 0.500000
vt 0.500000 0.500000
vt 0.500000 0.500000
vt 0.500000 0.500000
vt 0.500000 0.500000
vt 0.500000 0.500000
vt 0.500000 0.500000
vt 0.500000 0.500000
vt 0.500000 0.500000
vt 0.500000 0.500000
vt 0.500000 0.500000
vt 0.500000 0.500000
vt 0.500000 0.500000
vt 0.500000 0.500000
vt 0.500000 0.500000
vt 0.500000 0.500000
vt 0.500000 0.500000
vt 0.500000 0.500000
vt 0.500000 0.500000
vt 0.500000 0.500000
vt 0.500000 0.500000
vt 0.500000 0.500000
vt 0.500000 0.500000
vt 0.500000 0.500000
vt 0.500000 0.500000
vt 0.500000 0.500000
vt 0.500000 0.500000
vt 0.500000 0.500000
vt 0.500000 0.500000
vt 0.500000 0.500000
vt 0.500000 0.500000
vt 0.500000 0.500000
vt 0.500000 0.500000
vt 0.500000 0.500000
vt 0.500000 0.500000
vt 0.500000 0.500000
vt 0.500000 0.500000
vt 0.500000 0.500000
vt 0.500000 0.500000
vt 0.500000 0.500000
vt 0.500000 0.500000
vt 0.500000 0.500000
vt 0.500000 0.500000
vt 0.500000 0.500000
vt 0.500000 0.500000
vt 0.500000 0.500000
vt 0.500000 0.500000
vt 0.500000 0.500000
vt 0.500000 0.500000
vt 0.500000 0.500000
vt 0.500000 0.500000
vt 0.500000 0.500000
vt 0.500000 0.500000
vt 0.500000 0.500000
vt 0.500000 0.500000
vt 0.500000 0.500000
vt 0.500000 0.500000
vt 0.500000 0.500000
vt 0.500000 0.500000
vt 0.500000 0.500000
vt 0.500000 0.500000
vt 0.500000 0.500000
vt 0.500000 0.500000
vt 0.500000 0.500000
vt 0.500000 0.500000
vt 0.500000 0.500000
vt 0.500000 0.500000
vt 0.500000 0.500000
vt 0.500000 0.500000
vt 0.500000 0.500000
vt 0.500000 0.500000
vt 0.500000 0.500000
vt 0.500000 0.500000
vt 0.500000 0.500000
vt 0.500000 0.500000
vt 0.500000 0.500000
vt 0.500000 0.500000
vt 0.500000 0.500000
vt 0.500000 0.500000
vt 0.500000 0.500000
vt 0.500000 0.500000
vt 0.500000 0.500000
vt 0.500000 0.500000
vt 0.500000 0.500000
vt 0.500000 0.500000
vt 0.500000 0.500000
vt 0.500000 0.500000
vt 0.500000 0.500000
vt 0.500000 0.500000
vt 0.500000 0.500000
vt 0.500000 0.500000
vt 0.500000 0.500000
vt 0.500000 0.500000
vt 0.500000 0.500000
vt 0.500000 0.500000
vt 0.500000 0.500000
vt 0.500000 0.500000
vt 0.500000 0.500000
vt 0.500000 0.500000
vt 0.500000 0.500000
vt 0.500000 0.500000
vt 0.500000 0.500000
vt 0.500000 0.500000
vt 0.500000 0.500000
vt 0.500000 0.500000
vt 0.500000 0.500000
vt 0.500000 0.500000
vt 0.500000 0.500000
vt 0.500000 0.500000
vt 0.500000 0.500000
vt 0.500000 0.500000
vt 0.500000 0.500000
vt 0.500000 0.500000
vt 0.500000 0.500000
vt 0.500000 0.500000
vt 0.500000 0.500000
vt 0.500000 0.500000
vt 0.500000 0.500000
vt 0.500000 0.500000
vt 0.500000 0.500000
vt 0.500000 0.500000
vt 0.500000 0.500000
vt 0.500000 0.500000
vt 0.500000 0.500000
vt 0.500000 0.500000
vt 0.500000 0.500000
vt 0.500000 0.500000
vt 0.500000 0.500000
vt 0.500000 0.500000
vt 0.500000 0.500000
vt 0.500000 0.500000
vt 0.500000 0.500000
vt 0.897310 0.807875
vt 0.898032 0.807889
vt 0.897868 0.814454
vt 0.898274 0.804916
vt 0.905698 0.807761
vt 0.898364 0.806667
vt 0.905499 0.809109
vt 0.902470 0.813449
vt 0.897790 0.803705
vt 0.899939 0.797373
vt 0.896455 0.807361
vt 0.895519 0.808898
vt 0.895557 0.811114
vt 0.901568 0.813715
vt 0.901963 0.816623
vt 0.901371 0.819301
vt 0.899870 0.816303
vt 0.899565 0.817854
vt 0.908824 0.807200
vt 0.908379 0.808426
vt 0.907481 0.808366
vt 0.908787 0.805400
vt 0.901563 0.814912
vt 0.899985 0.796355
vt 0.901472 0.796248
vt 0.899132 0.797574
vt 0.906614 0.804432
vt 0.907504 0.804030
vt 0.895415 0.800210
vt 0.895833 0.796296
vt 0.901556 0.797366
vt 0.899079 0.814478
vt 0.899856 0.815036
vt 0.908317 0.804106
vt 0.896982 0.803738
vt 0.896108 0.804251
vt 0.895284 0.802562
vt 0.895833 0.814815
vt 0.899689 0.794898
vt 0.900311 0.792759
vt 0.901793 0.794699
vt 0.899576 0.819113
vt 0.900325 0.819609
vt 0.902493 0.797610
vt 0.895470 0.804118
vt 0.905746 0.802597
vt 0.905954 0.804208
vt 0.906454 0.807773
vt 0.902060 0.818255
vt 0.905691 0.811234
vt 0.906250 0.796296
vt 0.905857 0.800221
vt 0.906250 0.814815
vt 0.895782 0.807449
vt 0.899662 0.793547
vt 0.901243 0.792672
vt 0.901865 0.793337
vn 0.0000 -1.0000 0.0000
vn -0.9371 0.0000 0.3491
vn -0.9866 0.0000 -0.1632
vn -0.7602 0.0000 -0.6497
vn -0.0161 0.0000 0.9999
vn 0.1051 0.0000 -0.9945
vn 0.3302 0.0000 0.9439
vn 0.3841 0.0000 -0.9233
vn -0.0199 0.0000 0.9998
vn -0.9272 0.0000 0.3747
vn -0.0086 0.0000 -1.0000
vn -0.9951 0.0000 -0.0993
vn -0.9999 0.0000 0.0112
vn -0.9800 0.0000 0.1991
vn -0.9865 0.0000 -0.1637
vn 0.2676 0.0000 -0.9635
vn -0.1316 0.0000 0.9913
vn 0.1581 0.0000 -0.9874
vn -0.0304 0.0000 0.9995
vn -0.2532 0.0000 -0.9674
vn 0.3069 0.0000 0.9518
vn 0.9999 0.0000 -0.0114
vn -0.9993 0.0000 0.0372
vn -0.5418 0.0000 -0.8405
vn -0.9510 0.0000 0.3093
vn 0.4348 0.0000 0.9005
vn 0.9973 0.0000 0.0731
vn 0.9474 0.0000 -0.3200
vn -1.0000 0.0000 0.0087
vn 0.0362 0.0000 -0.9993
vn -0.0902 0.0000 0.9959
vn 0.5426 0.0000 -0.8400
vn -0.5797 0.0000 0.8148
vn 0.9821 0.0000 -0.1882
vn 0.9692 0.0000 0.2462
vn 0.9986 0.0000 -0.0523
vn -0.9932 0.0000 0.1165
vn -0.9495 0.0000 -0.3138
vn 0.2240 0.0000 -0.9746
vn -0.2077 0.0000 0.9782
vn -0.9997 0.0000 -0.0225
vn -0.0826 0.0000 -0.9966
vn 0.0981 0.0000 0.9952
vn 0.1869 0.0000 0.9824
vn 0.9771 0.0000 -0.2128
vn 0.9895 0.0000 -0.1449
vn 0.9904 0.0000 0.1384
vn 0.0795 0.0000 0.9968
vn 0.1332 0.0000 -0.9911
vn 0.9812 0.0000 0.1930
vn -0.1755 0.0000 -0.9845
vn -0.3392 0.0000 0.9407
vn -0.3456 0.0000 -0.9384
vn -0.0361 0.0000 0.9993
vn -0.0941 0.0000 -0.9956
vn 0.8258 0.0000 0.5639
vn 0.9986 0.0000 0.0528
vn 0.8568 0.0000 -0.5157
vn 0.0000 1.0000 0.0000
usemtl BackMat.001
s off
f 217/1/1 203/2/1 215/3/1
f 225/4/1 222/5/1 211/6/1
f 222/5/1 209/7/1 211/6/1
f 222/5/1 204/8/1 209/7/1
f 227/9/1 225/4/1 246/10/1
f 223/11/1 210/12/1 217/1/1
f 203/2/1 217/1/1 208/13/1
f 222/5/1 199/14/1 204/8/1
f 193/15/1 194/16/1 190/17/1
f 192/18/1 190/17/1 194/16/1
f 220/19/1 218/20/1 219/21/1
f 224/22/1 218/20/1 220/19/1
f 195/23/1 194/16/1 193/15/1
f 246/10/1 249/24/1 248/25/1
f 242/26/1 227/9/1 246/10/1
f 228/27/1 218/20/1 231/28/1
f 239/29/1 242/26/1 240/30/1
f 246/10/1 244/31/1 249/24/1
f 215/3/1 198/32/1 199/14/1
f 198/32/1 196/33/1 199/14/1
f 231/28/1 224/22/1 226/34/1
f 194/16/1 195/23/1 196/33/1
f 231/28/1 218/20/1 224/22/1
f 235/35/1 237/36/1 234/37/1
f 203/2/1 208/13/1 201/38/1
f 199/14/1 196/33/1 195/23/1
f 252/39/1 253/40/1 257/41/1
f 246/10/1 225/4/1 244/31/1
f 187/42/1 189/43/1 192/18/1
f 237/36/1 235/35/1 239/29/1
f 244/31/1 225/4/1 243/44/1
f 248/25/1 249/24/1 252/39/1
f 234/37/1 237/36/1 232/45/1
f 198/32/1 215/3/1 203/2/1
f 239/29/1 227/9/1 242/26/1
f 243/44/1 225/4/1 236/46/1
f 235/35/1 227/9/1 239/29/1
f 229/47/1 221/48/1 228/27/1
f 193/15/1 190/17/1 191/49/1
f 218/20/1 228/27/1 221/48/1
f 209/7/1 204/8/1 207/50/1
f 253/40/1 252/39/1 249/24/1
f 215/3/1 199/14/1 222/5/1
f 243/44/1 238/51/1 250/52/1
f 207/50/1 204/8/1 205/53/1
f 236/46/1 225/4/1 229/47/1
f 213/54/1 210/12/1 223/11/1
f 254/55/1 252/39/1 257/41/1
f 208/13/1 217/1/1 210/12/1
f 243/44/1 236/46/1 238/51/1
f 257/41/1 253/40/1 258/56/1
f 189/43/1 190/17/1 192/18/1
f 225/4/1 211/6/1 229/47/1
f 258/56/1 253/40/1 255/57/1
f 211/6/1 221/48/1 229/47/1
f 116/58/2 7/59/2 64/60/2 188/61/2
f 7/59/3 8/62/3 65/63/3 64/60/3
f 8/62/4 9/64/4 66/65/4 65/63/4
f 5/66/5 6/67/5 63/68/5 62/69/5
f 9/64/6 10/70/6 67/71/6 66/65/6
f 4/72/7 5/66/7 62/69/7 61/73/7
f 10/70/8 11/74/8 68/75/8 67/71/8
f 125/76/9 4/72/9 61/73/9 197/77/9
f 2/78/10 3/79/10 60/80/10 59/81/10
f 11/74/11 128/82/11 200/83/11 68/75/11
f 130/84/12 1/85/12 58/86/12 202/87/12
f 1/85/13 2/78/13 59/81/13 58/86/13
f 13/88/14 134/89/14 206/90/14 70/91/14
f 12/92/15 13/88/15 70/91/15 69/93/15
f 14/94/16 15/95/16 72/96/16 71/97/16
f 56/98/17 57/99/17 114/100/17 113/101/17
f 15/95/18 16/102/18 73/103/18 72/96/18
f 55/104/19 56/98/19 113/101/19 112/105/19
f 16/102/20 140/106/20 212/107/20 73/103/20
f 142/108/21 55/104/21 112/105/21 214/109/21
f 144/110/22 52/111/22 109/112/22 216/113/22
f 19/114/23 20/115/23 77/116/23 76/117/23
f 20/115/24 21/118/24 78/119/24 77/116/24
f 18/120/25 19/114/25 76/117/25 75/121/25
f 50/122/26 51/123/26 108/124/26 107/125/26
f 53/126/27 54/127/27 111/128/27 110/129/27
f 52/111/28 53/126/28 110/129/28 109/112/28
f 17/130/29 18/120/29 75/121/29 74/131/29
f 21/118/30 22/132/30 79/133/30 78/119/30
f 49/134/31 50/122/31 107/125/31 106/135/31
f 22/132/32 23/136/32 80/137/32 79/133/32
f 48/138/33 49/134/33 106/135/33 105/139/33
f 25/140/34 158/141/34 230/142/34 82/143/34
f 24/144/35 25/140/35 82/143/35 81/145/35
f 23/136/36 24/144/36 81/145/36 80/137/36
f 161/146/37 46/147/37 103/148/37 233/149/37
f 46/147/38 47/150/38 104/151/38 103/148/38
f 26/152/39 27/153/39 84/154/39 83/155/39
f 44/156/40 45/157/40 102/158/40 101/159/40
f 47/150/41 48/138/41 105/139/41 104/151/41
f 27/153/42 28/160/42 85/161/42 84/154/42
f 43/162/43 44/156/43 101/159/43 100/163/43
f 169/164/44 43/162/44 100/163/44 241/165/44
f 41/166/45 42/167/45 99/168/45 98/169/45
f 30/170/46 173/171/46 245/172/46 87/173/46
f 175/174/47 41/166/47 98/169/47 247/175/47
f 39/176/48 40/177/48 97/178/48 96/179/48
f 31/180/49 32/181/49 89/182/49 88/183/49
f 179/184/50 30/170/50 87/173/50 251/185/50
f 28/160/51 29/186/51 86/187/51 85/161/51
f 38/188/52 39/176/52 96/179/52 95/189/52
f 32/181/53 33/190/53 90/191/53 89/182/53
f 37/192/54 38/188/54 95/189/54 94/193/54
f 33/190/55 184/194/55 256/195/55 90/191/55
f 36/196/56 37/192/56 94/193/56 93/197/56
f 35/198/57 36/196/57 93/197/57 92/199/57
f 34/200/58 35/198/58 92/199/58 91/201/58
usemtl FrontMat.001
f 145/202/59 143/203/59 131/204/59
f 153/205/59 139/206/59 150/207/59
f 150/207/59 139/206/59 137/208/59
f 150/207/59 137/208/59 132/209/59
f 155/210/59 174/211/59 153/205/59
f 151/212/59 145/202/59 138/213/59
f 131/204/59 136/214/59 145/202/59
f 150/207/59 132/209/59 127/215/59
f 121/216/59 118/217/59 122/218/59
f 120/219/59 122/218/59 118/217/59
f 148/220/59 147/221/59 146/222/59
f 152/223/59 148/220/59 146/222/59
f 123/224/59 121/216/59 122/218/59
f 174/211/59 176/225/59 177/226/59
f 170/227/59 174/211/59 155/210/59
f 156/228/59 159/229/59 146/222/59
f 167/230/59 168/231/59 170/227/59
f 174/211/59 177/226/59 172/232/59
f 143/203/59 127/215/59 126/233/59
f 126/233/59 127/215/59 124/234/59
f 159/229/59 154/235/59 152/223/59
f 122/218/59 124/234/59 123/224/59
f 159/229/59 152/223/59 146/222/59
f 163/236/59 162/237/59 165/238/59
f 131/204/59 129/239/59 136/214/59
f 127/215/59 123/224/59 124/234/59
f 180/240/59 185/241/59 181/242/59
f 174/211/59 172/232/59 153/205/59
f 115/243/59 120/219/59 117/244/59
f 165/238/59 167/230/59 163/236/59
f 172/232/59 171/245/59 153/205/59
f 176/225/59 180/240/59 177/226/59
f 162/237/59 160/246/59 165/238/59
f 126/233/59 131/204/59 143/203/59
f 167/230/59 170/227/59 155/210/59
f 171/245/59 164/247/59 153/205/59
f 163/236/59 167/230/59 155/210/59
f 157/248/59 156/228/59 149/249/59
f 121/216/59 119/250/59 118/217/59
f 146/222/59 149/249/59 156/228/59
f 137/208/59 135/251/59 132/209/59
f 181/242/59 177/226/59 180/240/59
f 143/203/59 150/207/59 127/215/59
f 171/245/59 178/252/59 166/253/59
f 135/251/59 133/254/59 132/209/59
f 164/247/59 157/248/59 153/205/59
f 141/255/59 151/212/59 138/213/59
f 182/256/59 185/241/59 180/240/59
f 136/214/59 138/213/59 145/202/59
f 171/245/59 166/253/59 164/247/59
f 185/241/59 186/257/59 181/242/59
f 117/244/59 120/219/59 118/217/59
f 153/205/59 157/248/59 139/206/59
f 186/257/59 183/258/59 181/242/59
f 139/206/59 157/248/59 149/249/59
