# Blender v2.83.1 OBJ File: 'jigsaw-96x54-3-step2.blend'
# www.blender.org
mtllib piece.1236.mtl
o path2472
v 0.286758 0.037500 0.455673
v 0.162392 0.037500 0.443532
v 0.082703 0.037500 0.465953
v 0.081818 0.037500 0.537218
v 0.116493 0.037500 0.632852
v 0.124146 0.037500 0.718685
v 0.062424 0.037500 0.766013
v -0.030098 0.037500 0.767955
v -0.094627 0.037500 0.723093
v -0.092407 0.037500 0.636306
v -0.064796 0.037500 0.537723
v -0.073204 0.037500 0.463770
v -0.159828 0.037500 0.440631
v -0.289955 0.037500 0.453522
v -0.506195 0.037500 0.498466
v -0.472252 0.037500 0.306949
v -0.463943 0.037500 0.192457
v -0.485588 0.037500 0.117947
v -0.549103 0.037500 0.114139
v -0.632820 0.037500 0.140631
v -0.706665 0.037500 0.139233
v -0.745750 0.037500 0.071213
v -0.745842 0.037500 -0.024348
v -0.707878 0.037500 -0.088922
v -0.637222 0.037500 -0.084313
v -0.557259 0.037500 -0.053667
v -0.495827 0.037500 -0.060464
v -0.473045 0.037500 -0.148321
v -0.506195 0.037500 -0.503232
v -0.281975 0.037500 -0.467912
v -0.148590 0.037500 -0.458762
v -0.063294 0.037500 -0.479809
v -0.062744 0.037500 -0.543318
v -0.100571 0.037500 -0.628016
v -0.109619 0.037500 -0.704262
v -0.044266 0.037500 -0.746957
v 0.055023 0.037500 -0.749207
v 0.126259 0.037500 -0.708669
v 0.127899 0.037500 -0.629009
v 0.100082 0.037500 -0.538123
v 0.103393 0.037500 -0.469938
v 0.179947 0.037500 -0.448851
v 0.298012 0.037500 -0.461137
v 0.495712 0.037500 -0.503232
v 0.468582 0.037500 -0.291505
v 0.465340 0.037500 -0.163622
v 0.492508 0.037500 -0.077452
v 0.561089 0.037500 -0.066580
v 0.648041 0.037500 -0.089531
v 0.721779 0.037500 -0.086066
v 0.756645 0.037500 -0.016058
v 0.750809 0.037500 0.080332
v 0.708374 0.037500 0.142848
v 0.636955 0.037500 0.132115
v 0.558212 0.037500 0.092285
v 0.497330 0.037500 0.088386
v 0.472496 0.037500 0.165531
v 0.474022 0.037500 0.289185
v 0.495712 0.037500 0.498465
v 0.286758 -0.037500 0.455673
v 0.162392 -0.037500 0.443532
v 0.082703 -0.037500 0.465953
v 0.081818 -0.037500 0.537218
v 0.116493 -0.037500 0.632852
v 0.124146 -0.037498 0.718685
v 0.062424 -0.037500 0.766013
v -0.030098 -0.037500 0.767955
v -0.094627 -0.037500 0.723093
v -0.092407 -0.037500 0.636306
v -0.064796 -0.037500 0.537723
v -0.073204 -0.037500 0.463770
v -0.159828 -0.037500 0.440631
v -0.289955 -0.037498 0.453522
v -0.506195 -0.037500 0.498466
v -0.472252 -0.037498 0.306949
v -0.463943 -0.037500 0.192457
v -0.485588 -0.037500 0.117947
v -0.549103 -0.037500 0.114139
v -0.632820 -0.037500 0.140631
v -0.706665 -0.037500 0.139233
v -0.745750 -0.037500 0.071213
v -0.745842 -0.037500 -0.024348
v -0.707878 -0.037500 -0.088922
v -0.637222 -0.037500 -0.084313
v -0.557259 -0.037500 -0.053667
v -0.495827 -0.037500 -0.060464
v -0.473045 -0.037498 -0.148321
v -0.506195 -0.037500 -0.503232
v -0.281975 -0.037500 -0.467912
v -0.148590 -0.037500 -0.458762
v -0.063294 -0.037500 -0.479809
v -0.062744 -0.037500 -0.543318
v -0.100571 -0.037500 -0.628016
v -0.109619 -0.037500 -0.704262
v -0.044266 -0.037498 -0.746957
v 0.055023 -0.037500 -0.749207
v 0.126259 -0.037500 -0.708669
v 0.127899 -0.037500 -0.629009
v 0.100082 -0.037500 -0.538123
v 0.103393 -0.037500 -0.469938
v 0.179947 -0.037500 -0.448851
v 0.298012 -0.037498 -0.461137
v 0.495712 -0.037500 -0.503232
v 0.468582 -0.037498 -0.291505
v 0.465340 -0.037500 -0.163622
v 0.492508 -0.037500 -0.077452
v 0.561089 -0.037500 -0.066580
v 0.648041 -0.037500 -0.089531
v 0.721779 -0.037500 -0.086066
v 0.756645 -0.037498 -0.016058
v 0.750809 -0.037500 0.080332
v 0.708374 -0.037500 0.142848
v 0.636955 -0.037498 0.132115
v 0.558212 -0.037498 0.092285
v 0.497330 -0.037500 0.088386
v 0.472496 -0.037498 0.165531
v 0.474022 -0.037500 0.289185
v 0.495712 -0.037500 0.498465
v 0.062424 0.037500 0.766013
v -0.030098 0.037500 0.767955
v -0.094627 0.037500 0.723093
v 0.124146 0.037500 0.718685
v -0.092407 0.037500 0.636306
v 0.116493 0.037500 0.632852
v -0.064796 0.037500 0.537723
v 0.081818 0.037500 0.537218
v -0.073204 0.037500 0.463770
v -0.073204 0.037500 0.463770
v 0.082703 0.037500 0.465953
v 0.082703 0.037500 0.465953
v 0.495712 0.037500 0.498465
v 0.495712 0.037500 0.498465
v 0.286758 0.037500 0.455673
v -0.289955 0.037500 0.453522
v -0.506195 0.037500 0.498466
v -0.506195 0.037500 0.498466
v 0.162392 0.037500 0.443532
v -0.159828 0.037500 0.440631
v -0.472252 0.037500 0.306949
v 0.474022 0.037500 0.289185
v -0.463943 0.037500 0.192457
v 0.472496 0.037500 0.165531
v -0.485588 0.037500 0.117947
v -0.485588 0.037500 0.117947
v 0.497330 0.037500 0.088386
v 0.497330 0.037500 0.088386
v 0.750809 0.037500 0.080332
v 0.708374 0.037500 0.142848
v 0.708374 0.037500 0.142848
v 0.636955 0.037500 0.132115
v -0.549103 0.037500 0.114139
v -0.632820 0.037500 0.140631
v -0.706665 0.037500 0.139233
v -0.745750 0.037500 0.071213
v 0.558212 0.037500 0.092285
v 0.756645 0.037500 -0.016058
v -0.745842 0.037500 -0.024348
v 0.721779 0.037500 -0.086066
v 0.721779 0.037500 -0.086066
v -0.707878 0.037500 -0.088922
v -0.707878 0.037500 -0.088922
v -0.557259 0.037500 -0.053667
v -0.495827 0.037500 -0.060464
v -0.495827 0.037500 -0.060464
v -0.637222 0.037500 -0.084313
v -0.473045 0.037500 -0.148321
v 0.648041 0.037500 -0.089531
v 0.561089 0.037500 -0.066580
v 0.492508 0.037500 -0.077452
v 0.492508 0.037500 -0.077452
v 0.465340 0.037500 -0.163622
v 0.468582 0.037500 -0.291505
v 0.495712 0.037500 -0.503232
v 0.495712 0.037500 -0.503232
v 0.179947 0.037500 -0.448851
v 0.298012 0.037500 -0.461137
v 0.103393 0.037500 -0.469938
v 0.103393 0.037500 -0.469938
v -0.148590 0.037500 -0.458762
v -0.063294 0.037500 -0.479809
v -0.063294 0.037500 -0.479809
v -0.281975 0.037500 -0.467912
v 0.100082 0.037500 -0.538123
v -0.506195 0.037500 -0.503232
v -0.506195 0.037500 -0.503232
v -0.062744 0.037500 -0.543318
v 0.127899 0.037500 -0.629009
v -0.100571 0.037500 -0.628016
v -0.109619 0.037500 -0.704262
v -0.109619 0.037500 -0.704262
v 0.126259 0.037500 -0.708669
v -0.044266 0.037500 -0.746957
v 0.055023 0.037500 -0.749207
v 0.062424 -0.037500 0.766013
v -0.030098 -0.037500 0.767955
v -0.094627 -0.037500 0.723093
v 0.124146 -0.037498 0.718685
v -0.092407 -0.037500 0.636306
v 0.116493 -0.037500 0.632852
v -0.064796 -0.037500 0.537723
v 0.081818 -0.037500 0.537218
v -0.073204 -0.037500 0.463770
v -0.073204 -0.037500 0.463770
v 0.082703 -0.037500 0.465953
v 0.082703 -0.037500 0.465953
v 0.495712 -0.037500 0.498465
v 0.495712 -0.037500 0.498465
v 0.286758 -0.037500 0.455673
v -0.289955 -0.037498 0.453522
v -0.506195 -0.037500 0.498466
v -0.506195 -0.037500 0.498466
v 0.162392 -0.037500 0.443532
v -0.159828 -0.037500 0.440631
v -0.472252 -0.037498 0.306949
v 0.474022 -0.037500 0.289185
v -0.463943 -0.037500 0.192457
v 0.472496 -0.037498 0.165531
v -0.485588 -0.037500 0.117947
v -0.485588 -0.037500 0.117947
v 0.497330 -0.037500 0.088386
v 0.497330 -0.037500 0.088386
v 0.750809 -0.037500 0.080332
v 0.708374 -0.037500 0.142848
v 0.708374 -0.037500 0.142848
v 0.636955 -0.037498 0.132115
v -0.549103 -0.037500 0.114139
v -0.632820 -0.037500 0.140631
v -0.706665 -0.037500 0.139233
v -0.745750 -0.037500 0.071213
v 0.558212 -0.037498 0.092285
v 0.756645 -0.037498 -0.016058
v -0.745842 -0.037500 -0.024348
v 0.721779 -0.037500 -0.086066
v 0.721779 -0.037500 -0.086066
v -0.707878 -0.037500 -0.088922
v -0.707878 -0.037500 -0.088922
v -0.557259 -0.037500 -0.053667
v -0.495827 -0.037500 -0.060464
v -0.495827 -0.037500 -0.060464
v -0.637222 -0.037500 -0.084313
v -0.473045 -0.037498 -0.148321
v 0.648041 -0.037500 -0.089531
v 0.561089 -0.037500 -0.066580
v 0.492508 -0.037500 -0.077452
v 0.492508 -0.037500 -0.077452
v 0.465340 -0.037500 -0.163622
v 0.468582 -0.037498 -0.291505
v 0.495712 -0.037500 -0.503232
v 0.495712 -0.037500 -0.503232
v 0.179947 -0.037500 -0.448851
v 0.298012 -0.037498 -0.461137
v 0.103393 -0.037500 -0.469938
v 0.103393 -0.037500 -0.469938
v -0.148590 -0.037500 -0.458762
v -0.063294 -0.037500 -0.479809
v -0.063294 -0.037500 -0.479809
v -0.281975 -0.037500 -0.467912
v 0.100082 -0.037500 -0.538123
v -0.506195 -0.037500 -0.503232
v -0.506195 -0.037500 -0.503232
v -0.062744 -0.037500 -0.543318
v 0.127899 -0.037500 -0.629009
v -0.100571 -0.037500 -0.628016
v -0.109619 -0.037500 -0.704262
v -0.109619 -0.037500 -0.704262
v 0.126259 -0.037500 -0.708669
v -0.044266 -0.037498 -0.746957
v 0.055023 -0.037500 -0.749207
vt 0.500000 0.500000
vt 0.500000 0.500000
vt 0.500000 0.500000
vt 0.500000 0.500000
vt 0.500000 0.500000
vt 0.500000 0.500000
vt 0.500000 0.500000
vt 0.500000 0.500000
vt 0.500000 0.500000
vt 0.500000 0.500000
vt 0.500000 0.500000
vt 0.500000 0.500000
vt 0.500000 0.500000
vt 0.500000 0.500000
vt 0.500000 0.500000
vt 0.500000 0.500000
vt 0.500000 0.500000
vt 0.500000 0.500000
vt 0.500000 0.500000
vt 0.500000 0.500000
vt 0.500000 0.500000
vt 0.500000 0.500000
vt 0.500000 0.500000
vt 0.500000 0.500000
vt 0.500000 0.500000
vt 0.500000 0.500000
vt 0.500000 0.500000
vt 0.500000 0.500000
vt 0.500000 0.500000
vt 0.500000 0.500000
vt 0.500000 0.500000
vt 0.500000 0.500000
vt 0.500000 0.500000
vt 0.500000 0.500000
vt 0.500000 0.500000
vt 0.500000 0.500000
vt 0.500000 0.500000
vt 0.500000 0.500000
vt 0.500000 0.500000
vt 0.500000 0.500000
vt 0.500000 0.500000
vt 0.500000 0.500000
vt 0.500000 0.500000
vt 0.500000 0.500000
vt 0.500000 0.500000
vt 0.500000 0.500000
vt 0.500000 0.500000
vt 0.500000 0.500000
vt 0.500000 0.500000
vt 0.500000 0.500000
vt 0.500000 0.500000
vt 0.500000 0.500000
vt 0.500000 0.500000
vt 0.500000 0.500000
vt 0.500000 0.500000
vt 0.500000 0.500000
vt 0.500000 0.500000
vt 0.500000 0.500000
vt 0.500000 0.500000
vt 0.500000 0.500000
vt 0.500000 0.500000
vt 0.500000 0.500000
vt 0.500000 0.500000
vt 0.500000 0.500000
vt 0.500000 0.500000
vt 0.500000 0.500000
vt 0.500000 0.500000
vt 0.500000 0.500000
vt 0.500000 0.500000
vt 0.500000 0.500000
vt 0.500000 0.500000
vt 0.500000 0.500000
vt 0.500000 0.500000
vt 0.500000 0.500000
vt 0.500000 0.500000
vt 0.500000 0.500000
vt 0.500000 0.500000
vt 0.500000 0.500000
vt 0.500000 0.500000
vt 0.500000 0.500000
vt 0.500000 0.500000
vt 0.500000 0.500000
vt 0.500000 0.500000
vt 0.500000 0.500000
vt 0.500000 0.500000
vt 0.500000 0.500000
vt 0.500000 0.500000
vt 0.500000 0.500000
vt 0.500000 0.500000
vt 0.500000 0.500000
vt 0.500000 0.500000
vt 0.500000 0.500000
vt 0.500000 0.500000
vt 0.500000 0.500000
vt 0.500000 0.500000
vt 0.500000 0.500000
vt 0.500000 0.500000
vt 0.500000 0.500000
vt 0.500000 0.500000
vt 0.500000 0.500000
vt 0.500000 0.500000
vt 0.500000 0.500000
vt 0.500000 0.500000
vt 0.500000 0.500000
vt 0.500000 0.500000
vt 0.500000 0.500000
vt 0.500000 0.500000
vt 0.500000 0.500000
vt 0.500000 0.500000
vt 0.500000 0.500000
vt 0.500000 0.500000
vt 0.500000 0.500000
vt 0.500000 0.500000
vt 0.500000 0.500000
vt 0.500000 0.500000
vt 0.500000 0.500000
vt 0.500000 0.500000
vt 0.500000 0.500000
vt 0.500000 0.500000
vt 0.500000 0.500000
vt 0.500000 0.500000
vt 0.500000 0.500000
vt 0.500000 0.500000
vt 0.500000 0.500000
vt 0.500000 0.500000
vt 0.500000 0.500000
vt 0.500000 0.500000
vt 0.500000 0.500000
vt 0.500000 0.500000
vt 0.500000 0.500000
vt 0.500000 0.500000
vt 0.500000 0.500000
vt 0.500000 0.500000
vt 0.500000 0.500000
vt 0.500000 0.500000
vt 0.500000 0.500000
vt 0.500000 0.500000
vt 0.500000 0.500000
vt 0.500000 0.500000
vt 0.500000 0.500000
vt 0.500000 0.500000
vt 0.500000 0.500000
vt 0.500000 0.500000
vt 0.500000 0.500000
vt 0.500000 0.500000
vt 0.500000 0.500000
vt 0.500000 0.500000
vt 0.500000 0.500000
vt 0.500000 0.500000
vt 0.500000 0.500000
vt 0.500000 0.500000
vt 0.500000 0.500000
vt 0.500000 0.500000
vt 0.500000 0.500000
vt 0.500000 0.500000
vt 0.500000 0.500000
vt 0.500000 0.500000
vt 0.500000 0.500000
vt 0.500000 0.500000
vt 0.500000 0.500000
vt 0.500000 0.500000
vt 0.500000 0.500000
vt 0.500000 0.500000
vt 0.500000 0.500000
vt 0.500000 0.500000
vt 0.500000 0.500000
vt 0.500000 0.500000
vt 0.500000 0.500000
vt 0.500000 0.500000
vt 0.500000 0.500000
vt 0.500000 0.500000
vt 0.500000 0.500000
vt 0.500000 0.500000
vt 0.500000 0.500000
vt 0.500000 0.500000
vt 0.500000 0.500000
vt 0.500000 0.500000
vt 0.500000 0.500000
vt 0.500000 0.500000
vt 0.500000 0.500000
vt 0.500000 0.500000
vt 0.500000 0.500000
vt 0.500000 0.500000
vt 0.500000 0.500000
vt 0.500000 0.500000
vt 0.500000 0.500000
vt 0.500000 0.500000
vt 0.500000 0.500000
vt 0.500000 0.500000
vt 0.500000 0.500000
vt 0.500000 0.500000
vt 0.500000 0.500000
vt 0.500000 0.500000
vt 0.500000 0.500000
vt 0.500000 0.500000
vt 0.500000 0.500000
vt 0.500000 0.500000
vt 0.500000 0.500000
vt 0.500000 0.500000
vt 0.500000 0.500000
vt 0.500000 0.500000
vt 0.500000 0.500000
vt 0.500000 0.500000
vt 0.500000 0.500000
vt 0.500000 0.500000
vt 0.500000 0.500000
vt 0.500000 0.500000
vt 0.500000 0.500000
vt 0.500000 0.500000
vt 0.875531 0.767570
vt 0.876362 0.767004
vt 0.876316 0.771162
vt 0.870783 0.756952
vt 0.869165 0.754712
vt 0.870197 0.754753
vt 0.870411 0.778503
vt 0.870698 0.780326
vt 0.868887 0.778494
vt 0.861870 0.768266
vt 0.862233 0.766971
vt 0.862999 0.766907
vt 0.864567 0.770197
vt 0.863904 0.767332
vt 0.864617 0.767131
vt 0.871282 0.760081
vt 0.868662 0.759875
vt 0.870395 0.759692
vt 0.868407 0.756934
vt 0.868424 0.755461
vt 0.870877 0.755543
vt 0.871399 0.776708
vt 0.868877 0.777177
vt 0.868049 0.776762
vt 0.870498 0.777136
vt 0.863934 0.770269
vt 0.863115 0.771005
vt 0.875446 0.770673
vt 0.868446 0.781849
vt 0.868526 0.780262
vt 0.869088 0.782724
vt 0.870390 0.758518
vt 0.874786 0.770743
vt 0.874655 0.765821
vt 0.874892 0.767445
vt 0.866756 0.776987
vt 0.864583 0.777778
vt 0.864809 0.773909
vt 0.874647 0.774237
vt 0.875000 0.777778
vt 0.872752 0.776947
vt 0.861931 0.770048
vt 0.864899 0.765538
vt 0.864865 0.763173
vt 0.867866 0.760265
vt 0.870721 0.781930
vt 0.870050 0.782760
vt 0.877084 0.771137
vt 0.877491 0.769879
vt 0.868697 0.758614
vt 0.864825 0.771623
vt 0.877097 0.766919
vt 0.877491 0.768112
vt 0.872669 0.759912
vt 0.875000 0.759259
vt 0.874561 0.772121
vt 0.864583 0.759259
vt 0.866639 0.760037
vt 0.862372 0.771203
vn 0.0000 -1.0000 0.0000
vn 0.0001 -1.0000 0.0000
vn -0.0001 -1.0000 0.0000
vn 0.0210 0.0000 0.9998
vn -0.5708 0.0000 0.8211
vn 0.6085 0.0000 0.7936
vn -0.9997 0.0000 -0.0256
vn 0.9960 0.0000 -0.0888
vn -0.9629 0.0000 -0.2697
vn 0.9401 0.0000 -0.3409
vn -0.9936 0.0000 0.1130
vn 0.9999 0.0000 0.0124
vn -0.2006 0.0000 0.9797
vn 0.2035 0.0000 0.9791
vn 0.2708 0.0000 0.9626
vn -0.2581 0.0000 0.9661
vn -0.0972 0.0000 0.9953
vn 0.0986 0.0000 0.9951
vn -0.9847 0.0000 -0.1745
vn 0.9947 0.0000 -0.1031
vn -0.9974 0.0000 -0.0724
vn 0.9999 0.0000 -0.0123
vn -0.9603 0.0000 0.2790
vn 0.9519 0.0000 0.3064
vn 0.8274 0.0000 0.5616
vn -0.1486 0.0000 0.9889
vn 0.3017 0.0000 0.9534
vn -0.0189 0.0000 0.9998
vn -0.8670 0.0000 0.4982
vn -0.4514 0.0000 0.8923
vn -0.0598 0.0000 0.9982
vn -0.0639 0.0000 0.9980
vn 0.9982 0.0000 0.0604
vn -1.0000 0.0000 0.0010
vn 0.8951 0.0000 -0.4458
vn -0.8621 0.0000 -0.5068
vn -0.1100 0.0000 -0.9939
vn 0.3579 0.0000 -0.9338
vn 0.0651 0.0000 -0.9979
vn -0.9680 0.0000 -0.2510
vn 0.0469 0.0000 -0.9989
vn -0.2552 0.0000 -0.9669
vn 0.1566 0.0000 -0.9877
vn 0.9537 0.0000 -0.3007
vn 0.9997 0.0000 0.0253
vn 0.9919 0.0000 0.1271
vn -0.1035 0.0000 -0.9946
vn 0.2656 0.0000 -0.9641
vn -0.2396 0.0000 -0.9709
vn 0.0684 0.0000 -0.9977
vn 0.9988 0.0000 -0.0485
vn 0.1556 0.0000 -0.9878
vn -0.9957 0.0000 0.0930
vn -1.0000 0.0000 -0.0086
vn -0.2083 0.0000 -0.9781
vn 0.9562 0.0000 0.2927
vn -0.9131 0.0000 0.4078
vn -0.9930 0.0000 0.1178
vn 0.9998 0.0000 -0.0206
vn -0.5469 0.0000 -0.8372
vn 0.4946 0.0000 -0.8691
vn -0.0227 0.0000 -0.9997
vn 0.0000 1.0000 0.0000
usemtl BackMat.001
s off
f 237/1/1 227/2/1 240/3/1
f 263/4/1 267/5/1 268/6/1
f 200/7/1 201/8/1 198/9/1
f 231/10/1 242/11/1 233/12/1
f 220/13/1 244/14/1 243/15/1
f 254/16/1 255/17/1 252/18/1
f 262/19/1 268/6/1 266/20/1
f 267/5/1 263/4/1 264/21/1
f 213/22/1 254/16/1 252/18/1
f 204/23/1 202/24/1 212/25/1
f 230/26/1 242/11/1 225/27/1
f 227/2/1 237/1/1 226/28/1
f 197/29/2 194/30/2 199/31/2
f 263/4/1 262/19/1 261/32/1
f 218/33/2 238/34/2 241/35/2
f 208/36/1 215/37/1 206/38/1
f 214/39/1 209/40/1 210/41/1
f 242/11/1 231/10/1 225/27/1
f 225/27/1 231/10/1 222/42/1
f 246/43/1 250/44/1 247/45/1
f 220/13/1 243/15/1 230/26/1
f 212/25/1 213/22/1 252/18/1
f 196/46/1 198/9/1 195/47/1
f 199/31/1 195/47/1 198/9/1
f 228/48/1 229/49/1 227/2/1
f 258/50/1 255/17/1 261/32/1
f 238/34/1 226/28/1 237/1/1
f 217/51/1 246/43/1 244/14/1
f 227/2/1 229/49/1 240/3/1
f 240/3/1 232/52/1 235/53/1
f 254/16/1 241/35/1 257/54/1
f 229/49/1 232/52/1 240/3/1
f 213/22/1 241/35/1 254/16/1
f 257/54/1 241/35/1 259/55/1
f 212/25/1 250/44/1 246/43/1
f 214/39/1 216/56/1 209/40/1
f 209/40/1 216/56/1 213/22/1
f 262/19/1 263/4/1 268/6/1
f 242/11/1 230/26/1 243/15/1
f 252/18/1 255/17/1 258/50/1
f 226/28/1 238/34/1 218/33/1
f 217/51/3 244/14/3 220/13/3
f 202/24/1 213/22/1 212/25/1
f 208/36/1 217/51/1 215/37/1
f 202/24/1 204/23/1 200/7/1
f 199/31/1 198/9/1 201/8/1
f 258/50/1 261/32/1 262/19/1
f 212/25/1 246/43/1 217/51/1
f 201/8/1 200/7/1 204/23/1
f 212/25/1 217/51/1 208/36/1
f 247/45/1 251/57/1 248/58/1
f 218/33/1 241/35/1 213/22/1
f 250/44/1 251/57/1 247/45/1
f 213/22/1 216/56/1 218/33/1
f 194/30/1 195/47/1 199/31/1
f 212/25/1 252/18/1 250/44/1
f 225/27/1 222/42/1 223/59/1
f 7/60/4 8/61/4 67/62/4 66/63/4
f 8/61/5 9/64/5 68/65/5 67/62/5
f 6/66/6 7/60/6 66/63/6 65/67/6
f 9/64/7 10/68/7 69/69/7 68/65/7
f 5/70/8 6/66/8 65/67/8 64/71/8
f 10/68/9 11/72/9 70/73/9 69/69/9
f 4/74/10 5/70/10 64/71/10 63/75/10
f 11/72/11 128/76/11 203/77/11 70/73/11
f 130/78/12 4/74/12 63/75/12 205/79/12
f 132/80/13 1/81/13 60/82/13 207/83/13
f 14/84/14 136/85/14 211/86/14 73/87/14
f 2/88/15 3/89/15 62/90/15 61/91/15
f 12/92/16 13/93/16 72/94/16 71/95/16
f 1/81/17 2/88/17 61/91/17 60/82/17
f 13/93/18 14/84/18 73/87/18 72/94/18
f 15/96/19 16/97/19 75/98/19 74/99/19
f 58/100/20 59/101/20 118/102/20 117/103/20
f 16/97/21 17/104/21 76/105/21 75/98/21
f 57/106/22 58/100/22 117/103/22 116/107/22
f 17/104/23 144/108/23 219/109/23 76/105/23
f 146/110/24 57/106/24 116/107/24 221/111/24
f 52/112/25 149/113/25 224/114/25 111/115/25
f 53/116/26 54/117/26 113/118/26 112/119/26
f 19/120/27 20/121/27 79/122/27 78/123/27
f 20/121/28 21/124/28 80/125/28 79/122/28
f 21/124/29 22/126/29 81/127/29 80/125/29
f 54/117/30 55/128/30 114/129/30 113/118/30
f 18/130/31 19/120/31 78/123/31 77/131/31
f 55/128/32 56/132/32 115/133/32 114/129/32
f 51/134/33 52/112/33 111/115/33 110/135/33
f 22/126/34 23/136/34 82/137/34 81/127/34
f 159/138/35 51/134/35 110/135/35 234/139/35
f 23/136/36 161/140/36 236/141/36 82/137/36
f 26/142/37 164/143/37 239/144/37 85/145/37
f 25/146/38 26/142/38 85/145/38 84/147/38
f 24/148/39 25/146/39 84/147/39 83/149/39
f 27/150/40 28/151/40 87/152/40 86/153/40
f 49/154/41 50/155/41 109/156/41 108/157/41
f 48/158/42 49/154/42 108/157/42 107/159/42
f 170/160/43 48/158/43 107/159/43 245/161/43
f 46/162/44 47/163/44 106/164/44 105/165/44
f 45/166/45 46/162/45 105/165/45 104/167/45
f 174/168/46 45/166/46 104/167/46 249/169/46
f 42/170/47 43/171/47 102/172/47 101/173/47
f 178/174/48 42/170/48 101/173/48 253/175/48
f 31/176/49 181/177/49 256/178/49 90/179/49
f 30/180/50 31/176/50 90/179/50 89/181/50
f 40/182/51 41/183/51 100/184/51 99/185/51
f 185/186/52 30/180/52 89/181/52 260/187/52
f 28/151/53 29/188/53 88/189/53 87/152/53
f 32/190/54 33/191/54 92/192/54 91/193/54
f 43/171/55 44/194/55 103/195/55 102/172/55
f 39/196/56 40/182/56 99/185/56 98/197/56
f 33/191/57 34/198/57 93/199/57 92/192/57
f 34/198/58 190/200/58 265/201/58 93/199/58
f 38/202/59 39/196/59 98/197/59 97/203/59
f 35/204/60 36/205/60 95/206/60 94/207/60
f 37/208/61 38/202/61 97/203/61 96/209/61
f 36/205/62 37/208/62 96/209/62 95/206/62
usemtl FrontMat.001
f 162/210/63 165/211/63 152/212/63
f 188/213/63 193/214/63 192/215/63
f 125/216/63 123/217/63 126/218/63
f 156/219/63 158/220/63 167/221/63
f 145/222/63 168/223/63 169/224/63
f 179/225/63 177/226/63 180/227/63
f 187/228/63 191/229/63 193/214/63
f 192/215/63 189/230/63 188/213/63
f 138/231/63 177/226/63 179/225/63
f 129/232/63 137/233/63 127/234/63
f 155/235/63 150/236/63 167/221/63
f 152/212/63 151/237/63 162/210/63
f 122/238/63 124/239/63 119/240/63
f 188/213/63 186/241/63 187/228/63
f 143/242/63 166/243/63 163/244/63
f 133/245/63 131/246/63 140/247/63
f 139/248/63 135/249/63 134/250/63
f 167/221/63 150/236/63 156/219/63
f 150/236/63 147/251/63 156/219/63
f 171/252/63 172/253/63 175/254/63
f 145/222/63 155/235/63 168/223/63
f 137/233/63 177/226/63 138/231/63
f 121/255/63 120/256/63 123/217/63
f 124/239/63 123/217/63 120/256/63
f 153/257/63 152/212/63 154/258/63
f 183/259/63 186/241/63 180/227/63
f 163/244/63 162/210/63 151/237/63
f 142/260/63 169/224/63 171/252/63
f 152/212/63 165/211/63 154/258/63
f 165/211/63 160/261/63 157/262/63
f 179/225/63 182/263/63 166/243/63
f 154/258/63 165/211/63 157/262/63
f 138/231/63 179/225/63 166/243/63
f 182/263/63 184/264/63 166/243/63
f 137/233/63 171/252/63 175/254/63
f 139/248/63 134/250/63 141/265/63
f 134/250/63 138/231/63 141/265/63
f 187/228/63 193/214/63 188/213/63
f 167/221/63 168/223/63 155/235/63
f 177/226/63 183/259/63 180/227/63
f 151/237/63 143/242/63 163/244/63
f 142/260/63 145/222/63 169/224/63
f 127/234/63 137/233/63 138/231/63
f 133/245/63 140/247/63 142/260/63
f 127/234/63 125/216/63 129/232/63
f 124/239/63 126/218/63 123/217/63
f 183/259/63 187/228/63 186/241/63
f 137/233/63 142/260/63 171/252/63
f 126/218/63 129/232/63 125/216/63
f 137/233/63 133/245/63 142/260/63
f 172/253/63 173/266/63 176/267/63
f 143/242/63 138/231/63 166/243/63
f 175/254/63 172/253/63 176/267/63
f 138/231/63 143/242/63 141/265/63
f 119/240/63 124/239/63 120/256/63
f 137/233/63 175/254/63 177/226/63
f 150/236/63 148/268/63 147/251/63
