# Blender v2.83.1 OBJ File: 'jigsaw-96x54-3-step2.blend'
# www.blender.org
mtllib piece.865.mtl
o path1730
v -0.444207 0.037500 0.310177
v -0.441669 0.037500 0.192404
v -0.467846 0.037500 0.114534
v -0.532860 0.037500 0.107857
v -0.613932 0.037500 0.132297
v -0.680056 0.037500 0.129932
v -0.706396 0.037500 0.062122
v -0.692801 0.037500 -0.032667
v -0.645292 0.037500 -0.096689
v -0.572949 0.037500 -0.092213
v -0.497112 0.037500 -0.061561
v -0.442183 0.037500 -0.067068
v -0.425392 0.037500 -0.151650
v -0.469085 0.037500 -0.495644
v -0.271874 0.037500 -0.543925
v -0.155260 0.037500 -0.558364
v -0.082274 0.037500 -0.535213
v -0.085128 0.037500 -0.458727
v -0.120075 0.037500 -0.355452
v -0.124377 0.037500 -0.262507
v -0.056142 0.037500 -0.211123
v 0.043143 0.037500 -0.208976
v 0.111142 0.037500 -0.257854
v 0.106875 0.037500 -0.352559
v 0.074794 0.037500 -0.459945
v 0.080704 0.037500 -0.539882
v 0.169924 0.037500 -0.563580
v 0.305839 0.037500 -0.547617
v 0.532613 0.037500 -0.495644
v 0.549577 0.037500 -0.135253
v 0.526278 0.037500 -0.048629
v 0.471418 0.037500 -0.046815
v 0.401003 0.037500 -0.083688
v 0.337102 0.037500 -0.092374
v 0.298701 0.037500 -0.027423
v 0.292458 0.037500 0.070922
v 0.321946 0.037500 0.140997
v 0.385645 0.037500 0.141519
v 0.461642 0.037500 0.112732
v 0.522931 0.037500 0.115261
v 0.549647 0.037500 0.191253
v 0.550512 0.037500 0.308949
v 0.532613 0.037500 0.506266
v -0.469085 0.037500 0.506266
v -0.444207 -0.037498 0.310177
v -0.441669 -0.037500 0.192404
v -0.467846 -0.037500 0.114534
v -0.532860 -0.037500 0.107857
v -0.613932 -0.037498 0.132297
v -0.680056 -0.037500 0.129932
v -0.706396 -0.037500 0.062122
v -0.692801 -0.037500 -0.032667
v -0.645292 -0.037500 -0.096689
v -0.572949 -0.037500 -0.092213
v -0.497112 -0.037500 -0.061561
v -0.442183 -0.037500 -0.067068
v -0.425392 -0.037500 -0.151650
v -0.469085 -0.037500 -0.495644
v -0.271874 -0.037500 -0.543925
v -0.155260 -0.037500 -0.558364
v -0.082274 -0.037500 -0.535213
v -0.085128 -0.037498 -0.458727
v -0.120075 -0.037500 -0.355452
v -0.124377 -0.037500 -0.262507
v -0.056142 -0.037500 -0.211123
v 0.043143 -0.037500 -0.208976
v 0.111142 -0.037500 -0.257854
v 0.106875 -0.037498 -0.352559
v 0.074794 -0.037500 -0.459945
v 0.080704 -0.037500 -0.539882
v 0.169924 -0.037500 -0.563580
v 0.305839 -0.037498 -0.547617
v 0.532613 -0.037500 -0.495644
v 0.549577 -0.037500 -0.135253
v 0.526278 -0.037500 -0.048629
v 0.471418 -0.037500 -0.046815
v 0.401003 -0.037500 -0.083688
v 0.337102 -0.037500 -0.092374
v 0.298701 -0.037500 -0.027423
v 0.292458 -0.037500 0.070922
v 0.321946 -0.037500 0.140997
v 0.385645 -0.037498 0.141519
v 0.461642 -0.037500 0.112732
v 0.522931 -0.037500 0.115261
v 0.549647 -0.037500 0.191253
v 0.550512 -0.037498 0.308949
v 0.532613 -0.037498 0.506266
v -0.469085 -0.037500 0.506266
v -0.680056 0.037500 0.129932
v -0.680056 0.037500 0.129932
v -0.706396 0.037500 0.062122
v -0.692801 0.037500 -0.032667
v -0.645292 0.037500 -0.096689
v -0.613932 0.037500 0.132297
v -0.572949 0.037500 -0.092213
v -0.532860 0.037500 0.107857
v -0.497112 0.037500 -0.061561
v -0.467846 0.037500 0.114534
v -0.467846 0.037500 0.114534
v -0.442183 0.037500 -0.067068
v -0.442183 0.037500 -0.067068
v 0.532613 0.037500 0.506266
v 0.532613 0.037500 0.506266
v -0.469085 0.037500 0.506266
v -0.469085 0.037500 0.506266
v -0.441669 0.037500 0.192404
v -0.444207 0.037500 0.310177
v -0.425392 0.037500 -0.151650
v -0.469085 0.037500 -0.495644
v -0.469085 0.037500 -0.495644
v -0.271874 0.037500 -0.543925
v -0.155260 0.037500 -0.558364
v -0.120075 0.037500 -0.355452
v -0.124377 0.037500 -0.262507
v -0.082274 0.037500 -0.535213
v -0.082274 0.037500 -0.535213
v -0.056142 0.037500 -0.211123
v -0.085128 0.037500 -0.458727
v 0.043143 0.037500 -0.208976
v 0.111142 0.037500 -0.257854
v 0.106875 0.037500 -0.352559
v 0.074794 0.037500 -0.459945
v 0.080704 0.037500 -0.539882
v 0.080704 0.037500 -0.539882
v 0.169924 0.037500 -0.563580
v 0.292458 0.037500 0.070922
v 0.321946 0.037500 0.140997
v 0.321946 0.037500 0.140997
v 0.305839 0.037500 -0.547617
v 0.298701 0.037500 -0.027423
v 0.337102 0.037500 -0.092374
v 0.337102 0.037500 -0.092374
v 0.385645 0.037500 0.141519
v 0.401003 0.037500 -0.083688
v 0.461642 0.037500 0.112732
v 0.471418 0.037500 -0.046815
v 0.522931 0.037500 0.115261
v 0.522931 0.037500 0.115261
v 0.526278 0.037500 -0.048629
v 0.526278 0.037500 -0.048629
v 0.532613 0.037500 -0.495644
v 0.532613 0.037500 -0.495644
v 0.549647 0.037500 0.191253
v 0.549577 0.037500 -0.135253
v 0.550512 0.037500 0.308949
v -0.680056 -0.037500 0.129932
v -0.680056 -0.037500 0.129932
v -0.706396 -0.037500 0.062122
v -0.692801 -0.037500 -0.032667
v -0.645292 -0.037500 -0.096689
v -0.613932 -0.037498 0.132297
v -0.572949 -0.037500 -0.092213
v -0.532860 -0.037500 0.107857
v -0.497112 -0.037500 -0.061561
v -0.467846 -0.037500 0.114534
v -0.467846 -0.037500 0.114534
v -0.442183 -0.037500 -0.067068
v -0.442183 -0.037500 -0.067068
v 0.532613 -0.037498 0.506266
v 0.532613 -0.037498 0.506266
v -0.469085 -0.037500 0.506266
v -0.469085 -0.037500 0.506266
v -0.441669 -0.037500 0.192404
v -0.444207 -0.037498 0.310177
v -0.425392 -0.037500 -0.151650
v -0.469085 -0.037500 -0.495644
v -0.469085 -0.037500 -0.495644
v -0.271874 -0.037500 -0.543925
v -0.155260 -0.037500 -0.558364
v -0.120075 -0.037500 -0.355452
v -0.124377 -0.037500 -0.262507
v -0.082274 -0.037500 -0.535213
v -0.082274 -0.037500 -0.535213
v -0.056142 -0.037500 -0.211123
v -0.085128 -0.037498 -0.458727
v 0.043143 -0.037500 -0.208976
v 0.111142 -0.037500 -0.257854
v 0.106875 -0.037498 -0.352559
v 0.074794 -0.037500 -0.459945
v 0.080704 -0.037500 -0.539882
v 0.080704 -0.037500 -0.539882
v 0.169924 -0.037500 -0.563580
v 0.292458 -0.037500 0.070922
v 0.321946 -0.037500 0.140997
v 0.321946 -0.037500 0.140997
v 0.305839 -0.037498 -0.547617
v 0.298701 -0.037500 -0.027423
v 0.337102 -0.037500 -0.092374
v 0.337102 -0.037500 -0.092374
v 0.385645 -0.037498 0.141519
v 0.401003 -0.037500 -0.083688
v 0.461642 -0.037500 0.112732
v 0.471418 -0.037500 -0.046815
v 0.522931 -0.037500 0.115261
v 0.522931 -0.037500 0.115261
v 0.526278 -0.037500 -0.048629
v 0.526278 -0.037500 -0.048629
v 0.532613 -0.037500 -0.495644
v 0.532613 -0.037500 -0.495644
v 0.549647 -0.037500 0.191253
v 0.549577 -0.037500 -0.135253
v 0.550512 -0.037498 0.308949
vt 0.500000 0.500000
vt 0.500000 0.500000
vt 0.500000 0.500000
vt 0.500000 0.500000
vt 0.500000 0.500000
vt 0.500000 0.500000
vt 0.500000 0.500000
vt 0.500000 0.500000
vt 0.500000 0.500000
vt 0.500000 0.500000
vt 0.500000 0.500000
vt 0.500000 0.500000
vt 0.500000 0.500000
vt 0.500000 0.500000
vt 0.500000 0.500000
vt 0.500000 0.500000
vt 0.500000 0.500000
vt 0.500000 0.500000
vt 0.500000 0.500000
vt 0.500000 0.500000
vt 0.500000 0.500000
vt 0.500000 0.500000
vt 0.500000 0.500000
vt 0.500000 0.500000
vt 0.500000 0.500000
vt 0.500000 0.500000
vt 0.500000 0.500000
vt 0.500000 0.500000
vt 0.500000 0.500000
vt 0.500000 0.500000
vt 0.500000 0.500000
vt 0.500000 0.500000
vt 0.500000 0.500000
vt 0.500000 0.500000
vt 0.500000 0.500000
vt 0.500000 0.500000
vt 0.500000 0.500000
vt 0.500000 0.500000
vt 0.500000 0.500000
vt 0.500000 0.500000
vt 0.500000 0.500000
vt 0.500000 0.500000
vt 0.500000 0.500000
vt 0.500000 0.500000
vt 0.500000 0.500000
vt 0.500000 0.500000
vt 0.500000 0.500000
vt 0.500000 0.500000
vt 0.500000 0.500000
vt 0.500000 0.500000
vt 0.500000 0.500000
vt 0.500000 0.500000
vt 0.500000 0.500000
vt 0.500000 0.500000
vt 0.500000 0.500000
vt 0.500000 0.500000
vt 0.500000 0.500000
vt 0.500000 0.500000
vt 0.500000 0.500000
vt 0.500000 0.500000
vt 0.500000 0.500000
vt 0.500000 0.500000
vt 0.500000 0.500000
vt 0.500000 0.500000
vt 0.500000 0.500000
vt 0.500000 0.500000
vt 0.500000 0.500000
vt 0.500000 0.500000
vt 0.500000 0.500000
vt 0.500000 0.500000
vt 0.500000 0.500000
vt 0.500000 0.500000
vt 0.500000 0.500000
vt 0.500000 0.500000
vt 0.500000 0.500000
vt 0.500000 0.500000
vt 0.500000 0.500000
vt 0.500000 0.500000
vt 0.500000 0.500000
vt 0.500000 0.500000
vt 0.500000 0.500000
vt 0.500000 0.500000
vt 0.500000 0.500000
vt 0.500000 0.500000
vt 0.500000 0.500000
vt 0.500000 0.500000
vt 0.500000 0.500000
vt 0.500000 0.500000
vt 0.500000 0.500000
vt 0.500000 0.500000
vt 0.500000 0.500000
vt 0.500000 0.500000
vt 0.500000 0.500000
vt 0.500000 0.500000
vt 0.500000 0.500000
vt 0.500000 0.500000
vt 0.500000 0.500000
vt 0.500000 0.500000
vt 0.500000 0.500000
vt 0.500000 0.500000
vt 0.500000 0.500000
vt 0.500000 0.500000
vt 0.500000 0.500000
vt 0.500000 0.500000
vt 0.500000 0.500000
vt 0.500000 0.500000
vt 0.500000 0.500000
vt 0.500000 0.500000
vt 0.500000 0.500000
vt 0.500000 0.500000
vt 0.500000 0.500000
vt 0.500000 0.500000
vt 0.500000 0.500000
vt 0.500000 0.500000
vt 0.500000 0.500000
vt 0.500000 0.500000
vt 0.500000 0.500000
vt 0.500000 0.500000
vt 0.500000 0.500000
vt 0.500000 0.500000
vt 0.500000 0.500000
vt 0.500000 0.500000
vt 0.500000 0.500000
vt 0.500000 0.500000
vt 0.500000 0.500000
vt 0.500000 0.500000
vt 0.500000 0.500000
vt 0.500000 0.500000
vt 0.500000 0.500000
vt 0.500000 0.500000
vt 0.500000 0.500000
vt 0.500000 0.500000
vt 0.500000 0.500000
vt 0.500000 0.500000
vt 0.500000 0.500000
vt 0.500000 0.500000
vt 0.500000 0.500000
vt 0.500000 0.500000
vt 0.500000 0.500000
vt 0.500000 0.500000
vt 0.500000 0.500000
vt 0.500000 0.500000
vt 0.500000 0.500000
vt 0.500000 0.500000
vt 0.500000 0.500000
vt 0.500000 0.500000
vt 0.500000 0.500000
vt 0.500000 0.500000
vt 0.500000 0.500000
vt 0.500000 0.500000
vt 0.500000 0.500000
vt 0.500000 0.500000
vt 0.500000 0.500000
vt 0.500000 0.500000
vt 0.500000 0.500000
vt 0.500000 0.500000
vt 0.500000 0.500000
vt 0.500000 0.500000
vt 0.004142 0.834512
vt 0.004073 0.833310
vt 0.005904 0.833851
vt 0.003263 0.832826
vt 0.007459 0.825699
vt 0.005961 0.832836
vt 0.000000 0.833333
vt 0.000000 0.814815
vt 0.003798 0.818709
vt 0.002039 0.832873
vt 0.005549 0.819139
vt 0.006224 0.818429
vt 0.007944 0.822607
vt 0.006269 0.836591
vt 0.005603 0.837469
vt 0.006222 0.835253
vt 0.010957 0.819007
vt 0.011123 0.821520
vt 0.008929 0.822685
vt 0.004526 0.819255
vt 0.007436 0.823864
vt 0.006840 0.832526
vt 0.007993 0.826961
vt 0.005750 0.815946
vt 0.005769 0.814932
vt 0.006670 0.814501
vt 0.003888 0.836011
vt 0.010417 0.814815
vt 0.008959 0.826881
vt 0.003913 0.837234
vt 0.004618 0.837721
vt 0.010877 0.823169
vt 0.010046 0.823278
vt 0.010828 0.826182
vt 0.011069 0.827532
vt 0.010033 0.826235
vt 0.006134 0.817248
vt 0.010919 0.829687
vt 0.010417 0.833333
vt 0.002051 0.814484
vt 0.003275 0.814500
vt 0.003792 0.817532
vt 0.004065 0.814994
vt 0.004091 0.816127
vn 0.0000 -1.0000 0.0000
vn -0.9321 0.0000 0.3621
vn -0.9899 0.0000 -0.1420
vn -0.8030 0.0000 -0.5959
vn -0.0357 0.0000 0.9994
vn 0.0618 0.0000 -0.9981
vn 0.2886 0.0000 0.9574
vn 0.3747 0.0000 -0.9271
vn -0.1022 0.0000 0.9948
vn -0.0998 0.0000 -0.9950
vn 0.0000 0.0000 1.0000
vn -0.9479 0.0000 0.3186
vn -0.9920 0.0000 -0.1259
vn -0.9998 0.0000 -0.0215
vn -0.9809 0.0000 -0.1947
vn -0.9920 0.0000 0.1260
vn -0.2378 0.0000 -0.9713
vn -0.1229 0.0000 -0.9924
vn 0.9989 0.0000 0.0462
vn 0.3023 0.0000 -0.9532
vn 0.6016 0.0000 -0.7988
vn 0.9472 0.0000 0.3205
vn 0.9993 0.0000 0.0373
vn 0.0216 0.0000 -0.9998
vn -0.5837 0.0000 -0.8120
vn -0.9582 0.0000 0.2862
vn -0.9973 0.0000 -0.0737
vn -0.2567 0.0000 -0.9665
vn -0.9990 0.0000 0.0450
vn 0.9217 0.0000 -0.3879
vn 0.1166 0.0000 -0.9932
vn 0.9980 0.0000 0.0634
vn 0.8608 0.0000 0.5089
vn 0.0082 0.0000 -1.0000
vn -0.1347 0.0000 0.9909
vn -0.3542 0.0000 -0.9352
vn -0.4639 0.0000 0.8859
vn 0.0412 0.0000 -0.9992
vn 0.0330 0.0000 0.9995
vn 0.2234 0.0000 -0.9747
vn 0.9434 0.0000 -0.3317
vn 0.9657 0.0000 0.2597
vn 0.9989 0.0000 -0.0470
vn 0.9959 0.0000 0.0903
vn 1.0000 0.0000 -0.0073
vn 0.0000 1.0000 0.0000
usemtl BackMat.001
s off
f 153/1/1 154/2/1 155/3/1
f 163/4/1 157/5/1 174/6/1
f 161/7/1 184/8/1 159/9/1
f 163/4/1 184/8/1 164/10/1
f 187/11/1 177/12/1 188/13/1
f 150/14/1 152/15/1 149/16/1
f 186/17/1 178/18/1 182/19/1
f 183/20/1 176/21/1 187/11/1
f 165/22/1 171/23/1 157/5/1
f 193/24/1 201/25/1 196/26/1
f 164/10/1 184/8/1 161/7/1
f 151/27/1 149/16/1 153/1/1
f 198/28/1 188/13/1 186/17/1
f 171/23/1 165/22/1 170/29/1
f 146/30/1 148/31/1 151/27/1
f 182/19/1 179/32/1 180/33/1
f 148/31/1 149/16/1 151/27/1
f 172/34/1 175/35/1 169/36/1
f 163/4/1 183/20/1 184/8/1
f 154/2/1 157/5/1 155/3/1
f 188/13/1 198/28/1 191/37/1
f 191/37/1 198/28/1 201/25/1
f 169/36/1 175/35/1 168/38/1
f 188/13/1 178/18/1 186/17/1
f 174/6/1 157/5/1 171/23/1
f 152/15/1 153/1/1 149/16/1
f 166/39/1 170/29/1 165/22/1
f 178/18/1 179/32/1 182/19/1
f 174/6/1 176/21/1 183/20/1
f 188/13/1 177/12/1 178/18/1
f 155/3/1 157/5/1 163/4/1
f 177/12/1 187/11/1 176/21/1
f 163/4/1 174/6/1 183/20/1
f 202/40/1 190/41/1 200/42/1
f 202/40/1 184/8/1 190/41/1
f 191/37/1 201/25/1 193/24/1
f 200/42/1 192/43/1 194/44/1
f 168/38/1 170/29/1 166/39/1
f 170/29/1 168/38/1 175/35/1
f 190/41/1 192/43/1 200/42/1
f 154/2/1 153/1/1 152/15/1
f 159/9/1 184/8/1 202/40/1
f 90/45/2 7/46/2 51/47/2 147/48/2
f 7/46/3 8/49/3 52/50/3 51/47/3
f 8/49/4 9/51/4 53/52/4 52/50/4
f 5/53/5 6/54/5 50/55/5 49/56/5
f 9/51/6 10/57/6 54/58/6 53/52/6
f 4/59/7 5/53/7 49/56/7 48/60/7
f 10/57/8 11/61/8 55/62/8 54/58/8
f 99/63/9 4/59/9 48/60/9 156/64/9
f 11/61/10 101/65/10 158/66/10 55/62/10
f 103/67/11 105/68/11 162/69/11 160/70/11
f 2/71/12 3/72/12 47/73/12 46/74/12
f 44/75/13 1/76/13 45/77/13 88/78/13
f 1/76/14 2/71/14 46/74/14 45/77/14
f 12/79/15 13/80/15 57/81/15 56/82/15
f 13/80/16 110/83/16 167/84/16 57/81/16
f 14/85/17 15/86/17 59/87/17 58/88/17
f 15/86/18 16/89/18 60/90/18 59/87/18
f 19/91/19 20/92/19 64/93/19 63/94/19
f 16/89/20 116/95/20 173/96/20 60/90/20
f 20/92/21 21/97/21 65/98/21 64/93/21
f 18/99/22 19/91/22 63/94/22 62/100/22
f 17/101/23 18/99/23 62/100/23 61/102/23
f 21/97/24 22/103/24 66/104/24 65/98/24
f 22/103/25 23/105/25 67/106/25 66/104/25
f 24/107/26 25/108/26 69/109/26 68/110/26
f 25/108/27 124/111/27 181/112/27 69/109/27
f 26/113/28 27/114/28 71/115/28 70/116/28
f 23/105/29 24/107/29 68/110/29 67/106/29
f 36/117/30 128/118/30 185/119/30 80/120/30
f 27/114/31 28/121/31 72/122/31 71/115/31
f 35/123/32 36/117/32 80/120/32 79/124/32
f 132/125/33 35/123/33 79/124/33 189/126/33
f 37/127/34 38/128/34 82/129/34 81/130/34
f 33/131/35 34/132/35 78/133/35 77/134/35
f 38/128/36 39/135/36 83/136/36 82/129/36
f 32/137/37 33/131/37 77/134/37 76/138/37
f 39/135/38 138/139/38 195/140/38 83/136/38
f 140/141/39 32/137/39 76/138/39 197/142/39
f 28/121/40 142/143/40 199/144/40 72/122/40
f 40/145/41 41/146/41 85/147/41 84/148/41
f 30/149/42 31/150/42 75/151/42 74/152/42
f 29/153/43 30/149/43 74/152/43 73/154/43
f 42/155/44 43/156/44 87/157/44 86/158/44
f 41/146/45 42/155/45 86/158/45 85/147/45
usemtl FrontMat.001
f 96/159/46 98/160/46 97/161/46
f 106/162/46 117/163/46 100/164/46
f 104/165/46 102/166/46 127/167/46
f 106/162/46 107/168/46 127/167/46
f 130/169/46 131/170/46 120/171/46
f 93/172/46 92/173/46 95/174/46
f 129/175/46 125/176/46 121/177/46
f 126/178/46 130/169/46 119/179/46
f 108/180/46 100/164/46 114/181/46
f 136/182/46 139/183/46 144/184/46
f 107/168/46 104/165/46 127/167/46
f 94/185/46 96/159/46 92/173/46
f 141/186/46 129/175/46 131/170/46
f 114/181/46 113/187/46 108/180/46
f 89/188/46 94/185/46 91/189/46
f 125/176/46 123/190/46 122/191/46
f 91/189/46 94/185/46 92/173/46
f 115/192/46 112/193/46 118/194/46
f 106/162/46 127/167/46 126/178/46
f 97/161/46 98/160/46 100/164/46
f 131/170/46 134/195/46 141/186/46
f 134/195/46 144/184/46 141/186/46
f 112/193/46 111/196/46 118/194/46
f 131/170/46 129/175/46 121/177/46
f 117/163/46 114/181/46 100/164/46
f 95/174/46 92/173/46 96/159/46
f 109/197/46 108/180/46 113/187/46
f 121/177/46 125/176/46 122/191/46
f 117/163/46 126/178/46 119/179/46
f 131/170/46 121/177/46 120/171/46
f 98/160/46 106/162/46 100/164/46
f 120/171/46 119/179/46 130/169/46
f 106/162/46 126/178/46 117/163/46
f 145/198/46 143/199/46 133/200/46
f 145/198/46 133/200/46 127/167/46
f 134/195/46 136/182/46 144/184/46
f 143/199/46 137/201/46 135/202/46
f 111/196/46 109/197/46 113/187/46
f 113/187/46 118/194/46 111/196/46
f 133/200/46 143/199/46 135/202/46
f 97/161/46 95/174/46 96/159/46
f 102/166/46 145/198/46 127/167/46
