# Blender v2.83.1 OBJ File: 'jigsaw-96x54-3-step2.blend'
# www.blender.org
mtllib piece.1447.mtl
o path2894
v -0.279746 0.037500 -0.453968
v -0.148256 0.037500 -0.452970
v -0.059753 0.037500 -0.483784
v -0.048986 0.037500 -0.557050
v -0.074180 0.037500 -0.646174
v -0.074418 0.037500 -0.715251
v -0.008718 0.037500 -0.736118
v 0.084173 0.037500 -0.711570
v 0.145575 0.037500 -0.652144
v 0.137016 0.037500 -0.570746
v 0.100876 0.037500 -0.489768
v 0.099736 0.037500 -0.433972
v 0.176934 0.037500 -0.420481
v 0.504188 0.037500 -0.478961
v 0.473885 0.037500 -0.148495
v 0.491357 0.037500 -0.068845
v 0.541447 0.037500 -0.066734
v 0.611053 0.037500 -0.099920
v 0.681349 0.037500 -0.107166
v 0.734145 0.037500 -0.046988
v 0.753785 0.037500 0.043081
v 0.725251 0.037500 0.105756
v 0.643237 0.037500 0.103393
v 0.541270 0.037500 0.076908
v 0.462583 0.037500 0.086864
v 0.438632 0.037500 0.174747
v 0.453791 0.037500 0.305756
v 0.504188 0.037500 0.522948
v 0.293540 0.037500 0.552072
v 0.168043 0.037500 0.557231
v 0.087355 0.037500 0.532944
v 0.085941 0.037500 0.468255
v 0.121041 0.037500 0.385745
v 0.130588 0.037500 0.316379
v 0.072397 0.037500 0.285613
v -0.016109 0.037500 0.296849
v -0.077626 0.037500 0.347977
v -0.074501 0.037500 0.431866
v -0.047718 0.037500 0.521289
v -0.057923 0.037500 0.584001
v -0.146598 0.037500 0.597327
v -0.278653 0.037500 0.576884
v -0.497510 0.037500 0.522948
v -0.455774 0.037500 0.304070
v -0.445349 0.037500 0.172361
v -0.471343 0.037500 0.084718
v -0.547795 0.037500 0.076234
v -0.645541 0.037500 0.103967
v -0.724669 0.037500 0.105465
v -0.753627 0.037500 0.038708
v -0.734277 0.037500 -0.056602
v -0.676839 0.037500 -0.120334
v -0.594279 0.037500 -0.112900
v -0.510476 0.037500 -0.076884
v -0.452055 0.037500 -0.075413
v -0.437548 0.037500 -0.152271
v -0.497510 0.037500 -0.478961
v -0.279746 -0.037500 -0.453968
v -0.148256 -0.037498 -0.452970
v -0.059753 -0.037500 -0.483784
v -0.048986 -0.037500 -0.557050
v -0.074180 -0.037500 -0.646174
v -0.074418 -0.037500 -0.715251
v -0.008718 -0.037498 -0.736118
v 0.084173 -0.037500 -0.711570
v 0.145575 -0.037500 -0.652144
v 0.137016 -0.037498 -0.570746
v 0.100876 -0.037498 -0.489768
v 0.099736 -0.037500 -0.433972
v 0.176934 -0.037500 -0.420481
v 0.504188 -0.037500 -0.478961
v 0.473885 -0.037498 -0.148495
v 0.491357 -0.037500 -0.068845
v 0.541447 -0.037500 -0.066734
v 0.611053 -0.037500 -0.099920
v 0.681349 -0.037500 -0.107166
v 0.734145 -0.037500 -0.046988
v 0.753785 -0.037500 0.043081
v 0.725251 -0.037500 0.105756
v 0.643237 -0.037500 0.103393
v 0.541270 -0.037500 0.076908
v 0.462583 -0.037500 0.086864
v 0.438632 -0.037500 0.174747
v 0.453791 -0.037500 0.305756
v 0.504188 -0.037498 0.522948
v 0.293540 -0.037500 0.552072
v 0.168043 -0.037500 0.557231
v 0.087355 -0.037500 0.532944
v 0.085941 -0.037500 0.468255
v 0.121041 -0.037500 0.385745
v 0.130588 -0.037500 0.316379
v 0.072397 -0.037498 0.285613
v -0.016109 -0.037500 0.296849
v -0.077626 -0.037500 0.347977
v -0.074501 -0.037500 0.431866
v -0.047718 -0.037500 0.521289
v -0.057923 -0.037500 0.584001
v -0.146598 -0.037500 0.597327
v -0.278653 -0.037500 0.576884
v -0.497510 -0.037500 0.522948
v -0.455774 -0.037500 0.304070
v -0.445349 -0.037500 0.172361
v -0.471343 -0.037500 0.084718
v -0.547795 -0.037500 0.076234
v -0.645541 -0.037498 0.103967
v -0.724669 -0.037500 0.105465
v -0.753627 -0.037500 0.038708
v -0.734277 -0.037500 -0.056602
v -0.676839 -0.037500 -0.120334
v -0.594279 -0.037500 -0.112900
v -0.510476 -0.037498 -0.076884
v -0.452055 -0.037500 -0.075413
v -0.437548 -0.037500 -0.152271
v -0.497510 -0.037500 -0.478961
v 0.734145 0.037500 -0.046988
v 0.753785 0.037500 0.043081
v 0.725251 0.037500 0.105756
v 0.725251 0.037500 0.105756
v 0.681349 0.037500 -0.107166
v 0.643237 0.037500 0.103393
v 0.611053 0.037500 -0.099920
v 0.541270 0.037500 0.076908
v 0.541447 0.037500 -0.066734
v 0.491357 0.037500 -0.068845
v 0.491357 0.037500 -0.068845
v 0.462583 0.037500 0.086864
v 0.462583 0.037500 0.086864
v 0.473885 0.037500 -0.148495
v 0.453791 0.037500 0.305756
v 0.504188 0.037500 0.522948
v 0.504188 0.037500 0.522948
v 0.504188 0.037500 -0.478961
v 0.504188 0.037500 -0.478961
v 0.438632 0.037500 0.174747
v 0.293540 0.037500 0.552072
v 0.176934 0.037500 -0.420481
v 0.168043 0.037500 0.557231
v 0.099736 0.037500 -0.433972
v 0.099736 0.037500 -0.433972
v 0.121041 0.037500 0.385745
v 0.130588 0.037500 0.316379
v 0.130588 0.037500 0.316379
v 0.087355 0.037500 0.532944
v 0.087355 0.037500 0.532944
v 0.084173 0.037500 -0.711570
v 0.145575 0.037500 -0.652144
v 0.137016 0.037500 -0.570746
v 0.100876 0.037500 -0.489768
v 0.072397 0.037500 0.285613
v 0.085941 0.037500 0.468255
v -0.008718 0.037500 -0.736118
v -0.016109 0.037500 0.296849
v -0.074418 0.037500 -0.715251
v -0.074418 0.037500 -0.715251
v -0.077626 0.037500 0.347977
v -0.074501 0.037500 0.431866
v -0.047718 0.037500 0.521289
v -0.057923 0.037500 0.584001
v -0.057923 0.037500 0.584001
v -0.074180 0.037500 -0.646174
v -0.048986 0.037500 -0.557050
v -0.059753 0.037500 -0.483784
v -0.059753 0.037500 -0.483784
v -0.146598 0.037500 0.597327
v -0.148256 0.037500 -0.452970
v -0.278653 0.037500 0.576884
v -0.279746 0.037500 -0.453968
v -0.452055 0.037500 -0.075413
v -0.452055 0.037500 -0.075413
v -0.437548 0.037500 -0.152271
v -0.445349 0.037500 0.172361
v -0.471343 0.037500 0.084718
v -0.471343 0.037500 0.084718
v -0.455774 0.037500 0.304070
v -0.510476 0.037500 -0.076884
v -0.547795 0.037500 0.076234
v -0.497510 0.037500 0.522948
v -0.497510 0.037500 0.522948
v -0.497510 0.037500 -0.478961
v -0.497510 0.037500 -0.478961
v -0.594279 0.037500 -0.112900
v -0.645541 0.037500 0.103967
v -0.676839 0.037500 -0.120334
v -0.724669 0.037500 0.105465
v -0.724669 0.037500 0.105465
v -0.734277 0.037500 -0.056602
v -0.753627 0.037500 0.038708
v 0.734145 -0.037500 -0.046988
v 0.753785 -0.037500 0.043081
v 0.725251 -0.037500 0.105756
v 0.725251 -0.037500 0.105756
v 0.681349 -0.037500 -0.107166
v 0.643237 -0.037500 0.103393
v 0.611053 -0.037500 -0.099920
v 0.541270 -0.037500 0.076908
v 0.541447 -0.037500 -0.066734
v 0.491357 -0.037500 -0.068845
v 0.491357 -0.037500 -0.068845
v 0.462583 -0.037500 0.086864
v 0.462583 -0.037500 0.086864
v 0.473885 -0.037498 -0.148495
v 0.453791 -0.037500 0.305756
v 0.504188 -0.037498 0.522948
v 0.504188 -0.037498 0.522948
v 0.504188 -0.037500 -0.478961
v 0.504188 -0.037500 -0.478961
v 0.438632 -0.037500 0.174747
v 0.293540 -0.037500 0.552072
v 0.176934 -0.037500 -0.420481
v 0.168043 -0.037500 0.557231
v 0.099736 -0.037500 -0.433972
v 0.099736 -0.037500 -0.433972
v 0.121041 -0.037500 0.385745
v 0.130588 -0.037500 0.316379
v 0.130588 -0.037500 0.316379
v 0.087355 -0.037500 0.532944
v 0.087355 -0.037500 0.532944
v 0.084173 -0.037500 -0.711570
v 0.145575 -0.037500 -0.652144
v 0.137016 -0.037498 -0.570746
v 0.100876 -0.037498 -0.489768
v 0.072397 -0.037498 0.285613
v 0.085941 -0.037500 0.468255
v -0.008718 -0.037498 -0.736118
v -0.016109 -0.037500 0.296849
v -0.074418 -0.037500 -0.715251
v -0.074418 -0.037500 -0.715251
v -0.077626 -0.037500 0.347977
v -0.074501 -0.037500 0.431866
v -0.047718 -0.037500 0.521289
v -0.057923 -0.037500 0.584001
v -0.057923 -0.037500 0.584001
v -0.074180 -0.037500 -0.646174
v -0.048986 -0.037500 -0.557050
v -0.059753 -0.037500 -0.483784
v -0.059753 -0.037500 -0.483784
v -0.146598 -0.037500 0.597327
v -0.148256 -0.037498 -0.452970
v -0.278653 -0.037500 0.576884
v -0.279746 -0.037500 -0.453968
v -0.452055 -0.037500 -0.075413
v -0.452055 -0.037500 -0.075413
v -0.437548 -0.037500 -0.152271
v -0.445349 -0.037500 0.172361
v -0.471343 -0.037500 0.084718
v -0.471343 -0.037500 0.084718
v -0.455774 -0.037500 0.304070
v -0.510476 -0.037498 -0.076884
v -0.547795 -0.037500 0.076234
v -0.497510 -0.037500 0.522948
v -0.497510 -0.037500 0.522948
v -0.497510 -0.037500 -0.478961
v -0.497510 -0.037500 -0.478961
v -0.594279 -0.037500 -0.112900
v -0.645541 -0.037498 0.103967
v -0.676839 -0.037500 -0.120334
v -0.724669 -0.037500 0.105465
v -0.724669 -0.037500 0.105465
v -0.734277 -0.037500 -0.056602
v -0.753627 -0.037500 0.038708
vt 0.500000 0.500000
vt 0.500000 0.500000
vt 0.500000 0.500000
vt 0.500000 0.500000
vt 0.500000 0.500000
vt 0.500000 0.500000
vt 0.500000 0.500000
vt 0.500000 0.500000
vt 0.500000 0.500000
vt 0.500000 0.500000
vt 0.500000 0.500000
vt 0.500000 0.500000
vt 0.500000 0.500000
vt 0.500000 0.500000
vt 0.500000 0.500000
vt 0.500000 0.500000
vt 0.500000 0.500000
vt 0.500000 0.500000
vt 0.500000 0.500000
vt 0.500000 0.500000
vt 0.500000 0.500000
vt 0.500000 0.500000
vt 0.500000 0.500000
vt 0.500000 0.500000
vt 0.500000 0.500000
vt 0.500000 0.500000
vt 0.500000 0.500000
vt 0.500000 0.500000
vt 0.500000 0.500000
vt 0.500000 0.500000
vt 0.500000 0.500000
vt 0.500000 0.500000
vt 0.500000 0.500000
vt 0.500000 0.500000
vt 0.500000 0.500000
vt 0.500000 0.500000
vt 0.500000 0.500000
vt 0.500000 0.500000
vt 0.500000 0.500000
vt 0.500000 0.500000
vt 0.500000 0.500000
vt 0.500000 0.500000
vt 0.500000 0.500000
vt 0.500000 0.500000
vt 0.500000 0.500000
vt 0.500000 0.500000
vt 0.500000 0.500000
vt 0.500000 0.500000
vt 0.500000 0.500000
vt 0.500000 0.500000
vt 0.500000 0.500000
vt 0.500000 0.500000
vt 0.500000 0.500000
vt 0.500000 0.500000
vt 0.500000 0.500000
vt 0.500000 0.500000
vt 0.500000 0.500000
vt 0.500000 0.500000
vt 0.500000 0.500000
vt 0.500000 0.500000
vt 0.500000 0.500000
vt 0.500000 0.500000
vt 0.500000 0.500000
vt 0.500000 0.500000
vt 0.500000 0.500000
vt 0.500000 0.500000
vt 0.500000 0.500000
vt 0.500000 0.500000
vt 0.500000 0.500000
vt 0.500000 0.500000
vt 0.500000 0.500000
vt 0.500000 0.500000
vt 0.500000 0.500000
vt 0.500000 0.500000
vt 0.500000 0.500000
vt 0.500000 0.500000
vt 0.500000 0.500000
vt 0.500000 0.500000
vt 0.500000 0.500000
vt 0.500000 0.500000
vt 0.500000 0.500000
vt 0.500000 0.500000
vt 0.500000 0.500000
vt 0.500000 0.500000
vt 0.500000 0.500000
vt 0.500000 0.500000
vt 0.500000 0.500000
vt 0.500000 0.500000
vt 0.500000 0.500000
vt 0.500000 0.500000
vt 0.500000 0.500000
vt 0.500000 0.500000
vt 0.500000 0.500000
vt 0.500000 0.500000
vt 0.500000 0.500000
vt 0.500000 0.500000
vt 0.500000 0.500000
vt 0.500000 0.500000
vt 0.500000 0.500000
vt 0.500000 0.500000
vt 0.500000 0.500000
vt 0.500000 0.500000
vt 0.500000 0.500000
vt 0.500000 0.500000
vt 0.500000 0.500000
vt 0.500000 0.500000
vt 0.500000 0.500000
vt 0.500000 0.500000
vt 0.500000 0.500000
vt 0.500000 0.500000
vt 0.500000 0.500000
vt 0.500000 0.500000
vt 0.500000 0.500000
vt 0.500000 0.500000
vt 0.500000 0.500000
vt 0.500000 0.500000
vt 0.500000 0.500000
vt 0.500000 0.500000
vt 0.500000 0.500000
vt 0.500000 0.500000
vt 0.500000 0.500000
vt 0.500000 0.500000
vt 0.500000 0.500000
vt 0.500000 0.500000
vt 0.500000 0.500000
vt 0.500000 0.500000
vt 0.500000 0.500000
vt 0.500000 0.500000
vt 0.500000 0.500000
vt 0.500000 0.500000
vt 0.500000 0.500000
vt 0.500000 0.500000
vt 0.500000 0.500000
vt 0.500000 0.500000
vt 0.500000 0.500000
vt 0.500000 0.500000
vt 0.500000 0.500000
vt 0.500000 0.500000
vt 0.500000 0.500000
vt 0.500000 0.500000
vt 0.500000 0.500000
vt 0.500000 0.500000
vt 0.500000 0.500000
vt 0.500000 0.500000
vt 0.500000 0.500000
vt 0.500000 0.500000
vt 0.500000 0.500000
vt 0.500000 0.500000
vt 0.500000 0.500000
vt 0.500000 0.500000
vt 0.500000 0.500000
vt 0.500000 0.500000
vt 0.500000 0.500000
vt 0.500000 0.500000
vt 0.500000 0.500000
vt 0.500000 0.500000
vt 0.500000 0.500000
vt 0.500000 0.500000
vt 0.500000 0.500000
vt 0.500000 0.500000
vt 0.500000 0.500000
vt 0.500000 0.500000
vt 0.500000 0.500000
vt 0.500000 0.500000
vt 0.500000 0.500000
vt 0.500000 0.500000
vt 0.500000 0.500000
vt 0.500000 0.500000
vt 0.500000 0.500000
vt 0.500000 0.500000
vt 0.500000 0.500000
vt 0.500000 0.500000
vt 0.500000 0.500000
vt 0.500000 0.500000
vt 0.500000 0.500000
vt 0.500000 0.500000
vt 0.500000 0.500000
vt 0.500000 0.500000
vt 0.500000 0.500000
vt 0.500000 0.500000
vt 0.500000 0.500000
vt 0.500000 0.500000
vt 0.500000 0.500000
vt 0.500000 0.500000
vt 0.500000 0.500000
vt 0.500000 0.500000
vt 0.500000 0.500000
vt 0.500000 0.500000
vt 0.500000 0.500000
vt 0.500000 0.500000
vt 0.500000 0.500000
vt 0.500000 0.500000
vt 0.500000 0.500000
vt 0.500000 0.500000
vt 0.500000 0.500000
vt 0.500000 0.500000
vt 0.500000 0.500000
vt 0.500000 0.500000
vt 0.500000 0.500000
vt 0.500000 0.500000
vt 0.500000 0.500000
vt 0.500000 0.500000
vt 0.500000 0.500000
vt 0.065936 0.721662
vt 0.062500 0.722222
vt 0.063108 0.716172
vt 0.062968 0.714745
vt 0.062770 0.710160
vt 0.070566 0.712603
vt 0.069272 0.704668
vt 0.068360 0.704187
vt 0.066306 0.701915
vt 0.066891 0.699326
vt 0.068561 0.700967
vt 0.070659 0.721291
vt 0.070769 0.715315
vt 0.071490 0.715139
vt 0.070449 0.714240
vt 0.068279 0.722908
vt 0.068555 0.724793
vt 0.066786 0.722911
vt 0.069297 0.721010
vt 0.061546 0.715434
vt 0.060699 0.715592
vt 0.060082 0.714457
vt 0.073551 0.711830
vt 0.072899 0.712019
vt 0.073690 0.710191
vt 0.067882 0.698969
vt 0.068576 0.699504
vt 0.059826 0.712740
vt 0.060761 0.711530
vt 0.066991 0.726473
vt 0.066441 0.724198
vt 0.062388 0.714766
vt 0.061688 0.711996
vt 0.072348 0.714490
vt 0.073273 0.716008
vt 0.073219 0.718328
vt 0.062760 0.707730
vt 0.065897 0.704812
vt 0.062500 0.703704
vt 0.066680 0.703464
vt 0.068272 0.702774
vt 0.068383 0.721453
vt 0.068579 0.726309
vt 0.067928 0.726837
vt 0.062450 0.711797
vt 0.066696 0.704544
vt 0.066764 0.721985
vt 0.060043 0.711525
vt 0.073021 0.714516
vt 0.072917 0.722222
vt 0.071098 0.711466
vt 0.070641 0.704475
vt 0.073477 0.707750
vt 0.071970 0.711524
vt 0.066229 0.700388
vt 0.066365 0.725497
vt 0.072917 0.703704
vn 0.0000 -1.0000 0.0000
vn -0.0001 -1.0000 -0.0000
vn 0.9770 0.0000 -0.2130
vn 0.9101 0.0000 0.4143
vn 0.7517 0.0000 -0.6595
vn -0.0288 0.0000 0.9996
vn -0.1025 0.0000 -0.9947
vn -0.2514 0.0000 0.9679
vn -0.4304 0.0000 -0.9027
vn 0.0421 0.0000 -0.9991
vn 0.1255 0.0000 0.9921
vn 0.9768 0.0000 -0.2143
vn 0.9741 0.0000 -0.2260
vn 0.9958 0.0000 0.0913
vn 0.9648 0.0000 0.2629
vn 0.9934 0.0000 -0.1149
vn 0.1370 0.0000 0.9906
vn -0.1759 0.0000 -0.9844
vn 0.0411 0.0000 0.9992
vn 0.1722 0.0000 -0.9851
vn -0.9907 0.0000 -0.1363
vn -0.2882 0.0000 0.9576
vn 0.6955 0.0000 -0.7186
vn 0.9945 0.0000 0.1046
vn 0.9132 0.0000 0.4076
vn -0.4674 0.0000 0.8840
vn -0.9202 0.0000 -0.3915
vn -0.9998 0.0000 0.0218
vn 0.9998 0.0000 0.0204
vn 0.2555 0.0000 -0.9668
vn 0.1259 0.0000 0.9920
vn -0.3027 0.0000 -0.9531
vn 0.6392 0.0000 0.7691
vn 0.9580 0.0000 -0.2869
vn 0.9870 0.0000 0.1606
vn -1.0000 0.0000 0.0035
vn -0.9623 0.0000 0.2720
vn -0.9894 0.0000 -0.1454
vn 0.1486 0.0000 0.9889
vn -0.3288 0.0000 -0.9444
vn 0.9993 0.0000 -0.0372
vn -0.1530 0.0000 0.9882
vn 0.0076 0.0000 -1.0000
vn -0.9826 0.0000 -0.1855
vn -0.9587 0.0000 0.2843
vn -0.9969 0.0000 -0.0789
vn 0.0252 0.0000 -0.9997
vn -0.1103 0.0000 0.9939
vn -0.9823 0.0000 -0.1873
vn -0.2393 0.0000 0.9709
vn 0.1140 0.0000 -0.9935
vn -0.9836 0.0000 0.1805
vn 0.3949 0.0000 -0.9187
vn 0.2730 0.0000 0.9620
vn 0.0897 0.0000 -0.9960
vn 0.0189 0.0000 0.9998
vn -0.7428 0.0000 -0.6695
vn -0.9800 0.0000 -0.1990
vn -0.9174 0.0000 0.3979
vn 0.0000 1.0000 0.0000
usemtl BackMat.001
s off
f 201/1/1 209/2/1 205/3/1
f 211/4/1 225/5/1 238/6/1
f 244/7/1 245/8/1 225/5/1
f 254/9/1 255/10/1 259/11/1
f 202/12/1 213/13/1 214/14/1
f 201/1/1 222/15/1 209/2/1
f 195/16/1 196/17/1 193/18/1
f 214/14/1 222/15/1 207/19/1
f 220/20/1 218/21/1 219/22/1
f 231/23/1 237/24/1 230/25/1
f 209/2/1 222/15/1 211/4/1
f 260/26/1 255/10/1 257/27/1
f 218/21/1 233/28/1 224/29/1
f 188/30/1 193/18/1 194/31/1
f 225/5/1 211/4/1 222/15/1
f 221/32/1 234/33/1 220/20/1
f 213/13/1 210/34/1 223/35/1
f 210/34/1 213/13/1 208/36/1
f 238/6/1 243/37/1 240/38/1
f 240/38/1 243/37/1 252/39/1
f 248/40/1 249/41/1 254/9/1
f 207/19/1 222/15/1 199/42/1
f 193/18/1 189/43/1 190/44/1
f 221/32/1 235/45/1 234/33/1
f 211/4/1 235/45/1 221/32/1
f 241/46/1 245/8/1 248/40/1
f 199/42/1 197/47/1 195/16/1
f 211/4/1 238/6/1 235/45/1
f 224/29/1 233/28/1 226/48/1
f 225/5/1 245/8/1 241/46/1
f 216/49/1 223/35/1 210/34/1
f 220/20/1 234/33/1 218/21/1
f 249/41/1 255/10/1 254/9/1
f 208/36/1 202/12/1 203/50/1
f 188/30/1 189/43/1 193/18/1
f 202/12/1 214/14/1 207/19/1
f 201/1/1 199/42/1 222/15/1
f 228/51/1 247/52/1 244/7/1
f 249/41/1 248/40/1 245/8/1
f 197/47/1 196/17/1 195/16/1
f 197/47/2 199/42/2 201/1/2
f 208/36/1 213/13/1 202/12/1
f 239/53/1 229/54/1 237/24/1
f 243/37/1 238/6/1 225/5/1
f 228/51/1 244/7/1 225/5/1
f 230/25/1 237/24/1 229/54/1
f 254/9/1 259/11/1 256/55/1
f 225/5/1 241/46/1 243/37/1
f 188/30/1 194/31/1 192/56/1
f 229/54/1 239/53/1 228/51/1
f 247/52/1 228/51/1 239/53/1
f 247/52/1 239/53/1 250/57/1
f 194/31/1 193/18/1 196/17/1
f 259/11/1 255/10/1 260/26/1
f 233/28/1 218/21/1 234/33/1
f 20/58/3 21/59/3 78/60/3 77/61/3
f 21/59/4 118/62/4 191/63/4 78/60/4
f 19/64/5 20/58/5 77/61/5 76/65/5
f 22/66/6 23/67/6 80/68/6 79/69/6
f 18/70/7 19/64/7 76/65/7 75/71/7
f 23/67/8 24/72/8 81/73/8 80/68/8
f 17/74/9 18/70/9 75/71/9 74/75/9
f 125/76/10 17/74/10 74/75/10 198/77/10
f 24/72/11 127/78/11 200/79/11 81/73/11
f 15/80/12 16/81/12 73/82/12 72/83/12
f 27/84/13 131/85/13 204/86/13 84/87/13
f 133/88/14 15/80/14 72/83/14 206/89/14
f 25/90/15 26/91/15 83/92/15 82/93/15
f 26/91/16 27/84/16 84/87/16 83/92/16
f 28/94/17 29/95/17 86/96/17 85/97/17
f 13/98/18 14/99/18 71/100/18 70/101/18
f 29/95/19 30/102/19 87/103/19 86/96/19
f 139/104/20 13/98/20 70/101/20 212/105/20
f 33/106/21 142/107/21 215/108/21 90/109/21
f 30/102/22 144/110/22 217/111/22 87/103/22
f 8/112/23 9/113/23 66/114/23 65/115/23
f 9/113/24 10/116/24 67/117/24 66/114/24
f 10/116/25 11/118/25 68/119/25 67/117/25
f 34/120/26 35/121/26 92/122/26 91/123/26
f 32/124/27 33/106/27 90/109/27 89/125/27
f 31/126/28 32/124/28 89/125/28 88/127/28
f 11/118/29 12/128/29 69/129/29 68/119/29
f 7/130/30 8/112/30 65/115/30 64/131/30
f 35/121/31 36/132/31 93/133/31 92/122/31
f 154/134/32 7/130/32 64/131/32 227/135/32
f 36/132/33 37/136/33 94/137/33 93/133/33
f 38/138/34 39/139/34 96/140/34 95/141/34
f 39/139/35 159/142/35 232/143/35 96/140/35
f 5/144/36 6/145/36 63/146/36 62/147/36
f 4/148/37 5/144/37 62/147/37 61/149/37
f 163/150/38 4/148/38 61/149/38 236/151/38
f 40/152/39 41/153/39 98/154/39 97/155/39
f 2/156/40 3/157/40 60/158/40 59/159/40
f 37/136/41 38/138/41 95/141/41 94/137/41
f 41/153/42 42/160/42 99/161/42 98/154/42
f 1/162/43 2/156/43 59/159/43 58/163/43
f 169/164/44 56/165/44 113/166/44 242/167/44
f 45/168/45 173/169/45 246/170/45 102/171/45
f 44/172/46 45/168/46 102/171/46 101/173/46
f 54/174/47 55/175/47 112/176/47 111/177/47
f 46/178/48 47/179/48 104/180/48 103/181/48
f 178/182/49 44/172/49 101/173/49 251/183/49
f 42/160/50 43/184/50 100/185/50 99/161/50
f 180/186/51 1/162/51 58/163/51 253/187/51
f 56/165/52 57/188/52 114/189/52 113/166/52
f 53/190/53 54/174/53 111/177/53 110/191/53
f 47/179/54 48/192/54 105/193/54 104/180/54
f 52/194/55 53/190/55 110/191/55 109/195/55
f 48/192/56 185/196/56 258/197/56 105/193/56
f 51/198/57 52/194/57 109/195/57 108/199/57
f 50/200/58 51/198/58 108/199/58 107/201/58
f 49/202/59 50/200/59 107/201/59 106/203/59
usemtl FrontMat.001
f 128/204/60 132/205/60 136/206/60
f 138/207/60 165/208/60 152/209/60
f 171/210/60 152/209/60 172/211/60
f 181/212/60 186/213/60 182/214/60
f 129/215/60 141/216/60 140/217/60
f 128/204/60 136/206/60 149/218/60
f 122/219/60 120/220/60 123/221/60
f 141/216/60 134/222/60 149/218/60
f 147/223/60 146/224/60 145/225/60
f 158/226/60 157/227/60 164/228/60
f 136/206/60 138/207/60 149/218/60
f 187/229/60 184/230/60 182/214/60
f 145/225/60 151/231/60 160/232/60
f 115/233/60 121/234/60 120/220/60
f 152/209/60 149/218/60 138/207/60
f 148/235/60 147/223/60 161/236/60
f 140/217/60 150/237/60 137/238/60
f 137/238/60 135/239/60 140/217/60
f 165/208/60 167/240/60 170/241/60
f 167/240/60 179/242/60 170/241/60
f 175/243/60 181/212/60 176/244/60
f 134/222/60 126/245/60 149/218/60
f 120/220/60 117/246/60 116/247/60
f 148/235/60 161/236/60 162/248/60
f 138/207/60 148/235/60 162/248/60
f 168/249/60 175/243/60 172/211/60
f 126/245/60 122/219/60 124/250/60
f 138/207/60 162/248/60 165/208/60
f 151/231/60 153/251/60 160/232/60
f 152/209/60 168/249/60 172/211/60
f 143/252/60 137/238/60 150/237/60
f 147/223/60 145/225/60 161/236/60
f 176/244/60 181/212/60 182/214/60
f 135/239/60 130/253/60 129/215/60
f 115/233/60 120/220/60 116/247/60
f 129/215/60 134/222/60 141/216/60
f 128/204/60 149/218/60 126/245/60
f 155/254/60 171/210/60 174/255/60
f 176/244/60 172/211/60 175/243/60
f 124/250/60 122/219/60 123/221/60
f 124/250/60 128/204/60 126/245/60
f 135/239/60 129/215/60 140/217/60
f 166/256/60 164/228/60 156/257/60
f 170/241/60 152/209/60 165/208/60
f 155/254/60 152/209/60 171/210/60
f 157/227/60 156/257/60 164/228/60
f 181/212/60 183/258/60 186/213/60
f 152/209/60 170/241/60 168/249/60
f 115/233/60 119/259/60 121/234/60
f 156/257/60 155/254/60 166/256/60
f 174/255/60 166/256/60 155/254/60
f 174/255/60 177/260/60 166/256/60
f 121/234/60 123/221/60 120/220/60
f 186/213/60 187/229/60 182/214/60
f 160/232/60 161/236/60 145/225/60
