# Blender v2.83.1 OBJ File: 'jigsaw-96x54-3-step2.blend'
# www.blender.org
mtllib piece.1593.mtl
o path3186
v 0.443180 0.037500 -0.123558
v 0.454765 0.037500 -0.033062
v 0.512032 0.037500 -0.023522
v 0.593193 0.037500 -0.052637
v 0.667419 0.037500 -0.058504
v 0.709259 0.037500 0.001209
v 0.714848 0.037500 0.090505
v 0.685707 0.037500 0.153805
v 0.627151 0.037500 0.154171
v 0.559540 0.037500 0.129255
v 0.507008 0.037500 0.135351
v 0.487091 0.037500 0.211355
v 0.513851 0.037500 0.518408
v 0.194782 0.037500 0.549790
v 0.119064 0.037500 0.531750
v 0.119080 0.037500 0.480694
v 0.151733 0.037500 0.413813
v 0.155037 0.037500 0.354940
v 0.087524 0.037500 0.324076
v -0.010162 0.037500 0.325848
v -0.076851 0.037500 0.361052
v -0.072353 0.037500 0.425905
v -0.040398 0.037500 0.498297
v -0.045696 0.037500 0.551544
v -0.132828 0.037500 0.566584
v -0.488056 0.037500 0.518408
v -0.462879 0.037500 0.325831
v -0.459393 0.037500 0.211275
v -0.483215 0.037500 0.138029
v -0.544716 0.037500 0.137161
v -0.625080 0.037500 0.166626
v -0.698200 0.037500 0.166107
v -0.741619 0.037500 0.095457
v -0.747410 0.037500 -0.004732
v -0.711304 0.037500 -0.073685
v -0.635223 0.037500 -0.071434
v -0.545910 0.037500 -0.041223
v -0.476315 0.037500 -0.047098
v -0.450413 0.037500 -0.133249
v -0.456253 0.037500 -0.264433
v -0.488056 0.037500 -0.483290
v -0.260918 0.037500 -0.440744
v -0.125038 0.037500 -0.428135
v -0.036411 0.037500 -0.448875
v -0.032074 0.037500 -0.516802
v -0.067398 0.037500 -0.607862
v -0.077347 0.037500 -0.688540
v -0.017544 0.037500 -0.731340
v 0.073772 0.037500 -0.732843
v 0.137707 0.037500 -0.695650
v 0.135151 0.037500 -0.626316
v 0.106167 0.037500 -0.547451
v 0.110615 0.037500 -0.485642
v 0.189846 0.037500 -0.460236
v 0.311153 0.037500 -0.461584
v 0.513851 0.037500 -0.483290
v 0.443180 -0.037500 -0.123558
v 0.454765 -0.037500 -0.033062
v 0.512032 -0.037500 -0.023522
v 0.593193 -0.037500 -0.052637
v 0.667419 -0.037500 -0.058504
v 0.709259 -0.037498 0.001209
v 0.714848 -0.037500 0.090505
v 0.685707 -0.037500 0.153805
v 0.627151 -0.037500 0.154171
v 0.559540 -0.037500 0.129255
v 0.507008 -0.037500 0.135351
v 0.487091 -0.037500 0.211355
v 0.513851 -0.037498 0.518408
v 0.194782 -0.037500 0.549790
v 0.119064 -0.037498 0.531750
v 0.119080 -0.037500 0.480694
v 0.151733 -0.037500 0.413813
v 0.155037 -0.037500 0.354940
v 0.087524 -0.037500 0.324076
v -0.010162 -0.037498 0.325848
v -0.076851 -0.037500 0.361052
v -0.072353 -0.037498 0.425905
v -0.040398 -0.037500 0.498297
v -0.045696 -0.037500 0.551544
v -0.132828 -0.037498 0.566584
v -0.488056 -0.037500 0.518408
v -0.462879 -0.037500 0.325831
v -0.459393 -0.037498 0.211275
v -0.483215 -0.037500 0.138029
v -0.544716 -0.037500 0.137161
v -0.625080 -0.037500 0.166626
v -0.698200 -0.037500 0.166107
v -0.741619 -0.037500 0.095457
v -0.747410 -0.037500 -0.004732
v -0.711304 -0.037500 -0.073685
v -0.635223 -0.037500 -0.071434
v -0.545910 -0.037500 -0.041223
v -0.476315 -0.037500 -0.047098
v -0.450413 -0.037500 -0.133249
v -0.456253 -0.037500 -0.264433
v -0.488056 -0.037500 -0.483290
v -0.260918 -0.037500 -0.440744
v -0.125038 -0.037498 -0.428135
v -0.036411 -0.037500 -0.448875
v -0.032074 -0.037498 -0.516802
v -0.067398 -0.037498 -0.607862
v -0.077347 -0.037500 -0.688540
v -0.017544 -0.037500 -0.731340
v 0.073772 -0.037498 -0.732843
v 0.137707 -0.037500 -0.695650
v 0.135151 -0.037498 -0.626316
v 0.106167 -0.037500 -0.547451
v 0.110615 -0.037500 -0.485642
v 0.189846 -0.037500 -0.460236
v 0.311153 -0.037500 -0.461584
v 0.513851 -0.037500 -0.483290
v -0.045696 0.037500 0.551544
v -0.045696 0.037500 0.551544
v -0.132828 0.037500 0.566584
v -0.040398 0.037500 0.498297
v 0.194782 0.037500 0.549790
v 0.119064 0.037500 0.531750
v 0.119064 0.037500 0.531750
v 0.119080 0.037500 0.480694
v 0.513851 0.037500 0.518408
v 0.513851 0.037500 0.518408
v -0.488056 0.037500 0.518408
v -0.488056 0.037500 0.518408
v -0.072353 0.037500 0.425905
v 0.151733 0.037500 0.413813
v -0.462879 0.037500 0.325831
v -0.076851 0.037500 0.361052
v -0.076851 0.037500 0.361052
v 0.155037 0.037500 0.354940
v 0.155037 0.037500 0.354940
v -0.010162 0.037500 0.325848
v 0.087524 0.037500 0.324076
v 0.487091 0.037500 0.211355
v -0.459393 0.037500 0.211275
v 0.507008 0.037500 0.135351
v 0.507008 0.037500 0.135351
v -0.483215 0.037500 0.138029
v -0.483215 0.037500 0.138029
v -0.544716 0.037500 0.137161
v -0.625080 0.037500 0.166626
v -0.698200 0.037500 0.166107
v -0.741619 0.037500 0.095457
v 0.685707 0.037500 0.153805
v 0.685707 0.037500 0.153805
v 0.627151 0.037500 0.154171
v 0.559540 0.037500 0.129255
v 0.714848 0.037500 0.090505
v -0.747410 0.037500 -0.004732
v 0.709259 0.037500 0.001209
v 0.667419 0.037500 -0.058504
v -0.711304 0.037500 -0.073685
v -0.711304 0.037500 -0.073685
v 0.593193 0.037500 -0.052637
v 0.512032 0.037500 -0.023522
v 0.454765 0.037500 -0.033062
v 0.454765 0.037500 -0.033062
v 0.443180 0.037500 -0.123558
v -0.545910 0.037500 -0.041223
v -0.476315 0.037500 -0.047098
v -0.476315 0.037500 -0.047098
v -0.635223 0.037500 -0.071434
v -0.450413 0.037500 -0.133249
v -0.456253 0.037500 -0.264433
v -0.125038 0.037500 -0.428135
v -0.036411 0.037500 -0.448875
v -0.036411 0.037500 -0.448875
v -0.260918 0.037500 -0.440744
v -0.032074 0.037500 -0.516802
v 0.513851 0.037500 -0.483290
v 0.513851 0.037500 -0.483290
v 0.189846 0.037500 -0.460236
v 0.311153 0.037500 -0.461584
v -0.488056 0.037500 -0.483290
v -0.488056 0.037500 -0.483290
v 0.110615 0.037500 -0.485642
v 0.110615 0.037500 -0.485642
v 0.106167 0.037500 -0.547451
v -0.067398 0.037500 -0.607862
v 0.135151 0.037500 -0.626316
v -0.077347 0.037500 -0.688540
v -0.077347 0.037500 -0.688540
v 0.137707 0.037500 -0.695650
v 0.137707 0.037500 -0.695650
v -0.017544 0.037500 -0.731340
v 0.073772 0.037500 -0.732843
v -0.045696 -0.037500 0.551544
v -0.045696 -0.037500 0.551544
v -0.132828 -0.037498 0.566584
v -0.040398 -0.037500 0.498297
v 0.194782 -0.037500 0.549790
v 0.119064 -0.037498 0.531750
v 0.119064 -0.037498 0.531750
v 0.119080 -0.037500 0.480694
v 0.513851 -0.037498 0.518408
v 0.513851 -0.037498 0.518408
v -0.488056 -0.037500 0.518408
v -0.488056 -0.037500 0.518408
v -0.072353 -0.037498 0.425905
v 0.151733 -0.037500 0.413813
v -0.462879 -0.037500 0.325831
v -0.076851 -0.037500 0.361052
v -0.076851 -0.037500 0.361052
v 0.155037 -0.037500 0.354940
v 0.155037 -0.037500 0.354940
v -0.010162 -0.037498 0.325848
v 0.087524 -0.037500 0.324076
v 0.487091 -0.037500 0.211355
v -0.459393 -0.037498 0.211275
v 0.507008 -0.037500 0.135351
v 0.507008 -0.037500 0.135351
v -0.483215 -0.037500 0.138029
v -0.483215 -0.037500 0.138029
v -0.544716 -0.037500 0.137161
v -0.625080 -0.037500 0.166626
v -0.698200 -0.037500 0.166107
v -0.741619 -0.037500 0.095457
v 0.685707 -0.037500 0.153805
v 0.685707 -0.037500 0.153805
v 0.627151 -0.037500 0.154171
v 0.559540 -0.037500 0.129255
v 0.714848 -0.037500 0.090505
v -0.747410 -0.037500 -0.004732
v 0.709259 -0.037498 0.001209
v 0.667419 -0.037500 -0.058504
v -0.711304 -0.037500 -0.073685
v -0.711304 -0.037500 -0.073685
v 0.593193 -0.037500 -0.052637
v 0.512032 -0.037500 -0.023522
v 0.454765 -0.037500 -0.033062
v 0.454765 -0.037500 -0.033062
v 0.443180 -0.037500 -0.123558
v -0.545910 -0.037500 -0.041223
v -0.476315 -0.037500 -0.047098
v -0.476315 -0.037500 -0.047098
v -0.635223 -0.037500 -0.071434
v -0.450413 -0.037500 -0.133249
v -0.456253 -0.037500 -0.264433
v -0.125038 -0.037498 -0.428135
v -0.036411 -0.037500 -0.448875
v -0.036411 -0.037500 -0.448875
v -0.260918 -0.037500 -0.440744
v -0.032074 -0.037498 -0.516802
v 0.513851 -0.037500 -0.483290
v 0.513851 -0.037500 -0.483290
v 0.189846 -0.037500 -0.460236
v 0.311153 -0.037500 -0.461584
v -0.488056 -0.037500 -0.483290
v -0.488056 -0.037500 -0.483290
v 0.110615 -0.037500 -0.485642
v 0.110615 -0.037500 -0.485642
v 0.106167 -0.037500 -0.547451
v -0.067398 -0.037498 -0.607862
v 0.135151 -0.037498 -0.626316
v -0.077347 -0.037500 -0.688540
v -0.077347 -0.037500 -0.688540
v 0.137707 -0.037500 -0.695650
v 0.137707 -0.037500 -0.695650
v -0.017544 -0.037500 -0.731340
v 0.073772 -0.037498 -0.732843
vt 0.500000 0.500000
vt 0.500000 0.500000
vt 0.500000 0.500000
vt 0.500000 0.500000
vt 0.500000 0.500000
vt 0.500000 0.500000
vt 0.500000 0.500000
vt 0.500000 0.500000
vt 0.500000 0.500000
vt 0.500000 0.500000
vt 0.500000 0.500000
vt 0.500000 0.500000
vt 0.500000 0.500000
vt 0.500000 0.500000
vt 0.500000 0.500000
vt 0.500000 0.500000
vt 0.500000 0.500000
vt 0.500000 0.500000
vt 0.500000 0.500000
vt 0.500000 0.500000
vt 0.500000 0.500000
vt 0.500000 0.500000
vt 0.500000 0.500000
vt 0.500000 0.500000
vt 0.500000 0.500000
vt 0.500000 0.500000
vt 0.500000 0.500000
vt 0.500000 0.500000
vt 0.500000 0.500000
vt 0.500000 0.500000
vt 0.500000 0.500000
vt 0.500000 0.500000
vt 0.500000 0.500000
vt 0.500000 0.500000
vt 0.500000 0.500000
vt 0.500000 0.500000
vt 0.500000 0.500000
vt 0.500000 0.500000
vt 0.500000 0.500000
vt 0.500000 0.500000
vt 0.500000 0.500000
vt 0.500000 0.500000
vt 0.500000 0.500000
vt 0.500000 0.500000
vt 0.500000 0.500000
vt 0.500000 0.500000
vt 0.500000 0.500000
vt 0.500000 0.500000
vt 0.500000 0.500000
vt 0.500000 0.500000
vt 0.500000 0.500000
vt 0.500000 0.500000
vt 0.500000 0.500000
vt 0.500000 0.500000
vt 0.500000 0.500000
vt 0.500000 0.500000
vt 0.500000 0.500000
vt 0.500000 0.500000
vt 0.500000 0.500000
vt 0.500000 0.500000
vt 0.500000 0.500000
vt 0.500000 0.500000
vt 0.500000 0.500000
vt 0.500000 0.500000
vt 0.500000 0.500000
vt 0.500000 0.500000
vt 0.500000 0.500000
vt 0.500000 0.500000
vt 0.500000 0.500000
vt 0.500000 0.500000
vt 0.500000 0.500000
vt 0.500000 0.500000
vt 0.500000 0.500000
vt 0.500000 0.500000
vt 0.500000 0.500000
vt 0.500000 0.500000
vt 0.500000 0.500000
vt 0.500000 0.500000
vt 0.500000 0.500000
vt 0.500000 0.500000
vt 0.500000 0.500000
vt 0.500000 0.500000
vt 0.500000 0.500000
vt 0.500000 0.500000
vt 0.500000 0.500000
vt 0.500000 0.500000
vt 0.500000 0.500000
vt 0.500000 0.500000
vt 0.500000 0.500000
vt 0.500000 0.500000
vt 0.500000 0.500000
vt 0.500000 0.500000
vt 0.500000 0.500000
vt 0.500000 0.500000
vt 0.500000 0.500000
vt 0.500000 0.500000
vt 0.500000 0.500000
vt 0.500000 0.500000
vt 0.500000 0.500000
vt 0.500000 0.500000
vt 0.500000 0.500000
vt 0.500000 0.500000
vt 0.500000 0.500000
vt 0.500000 0.500000
vt 0.500000 0.500000
vt 0.500000 0.500000
vt 0.500000 0.500000
vt 0.500000 0.500000
vt 0.500000 0.500000
vt 0.500000 0.500000
vt 0.500000 0.500000
vt 0.500000 0.500000
vt 0.500000 0.500000
vt 0.500000 0.500000
vt 0.500000 0.500000
vt 0.500000 0.500000
vt 0.500000 0.500000
vt 0.500000 0.500000
vt 0.500000 0.500000
vt 0.500000 0.500000
vt 0.500000 0.500000
vt 0.500000 0.500000
vt 0.500000 0.500000
vt 0.500000 0.500000
vt 0.500000 0.500000
vt 0.500000 0.500000
vt 0.500000 0.500000
vt 0.500000 0.500000
vt 0.500000 0.500000
vt 0.500000 0.500000
vt 0.500000 0.500000
vt 0.500000 0.500000
vt 0.500000 0.500000
vt 0.500000 0.500000
vt 0.500000 0.500000
vt 0.500000 0.500000
vt 0.500000 0.500000
vt 0.500000 0.500000
vt 0.500000 0.500000
vt 0.500000 0.500000
vt 0.500000 0.500000
vt 0.500000 0.500000
vt 0.500000 0.500000
vt 0.500000 0.500000
vt 0.500000 0.500000
vt 0.500000 0.500000
vt 0.500000 0.500000
vt 0.500000 0.500000
vt 0.500000 0.500000
vt 0.500000 0.500000
vt 0.500000 0.500000
vt 0.500000 0.500000
vt 0.500000 0.500000
vt 0.500000 0.500000
vt 0.500000 0.500000
vt 0.500000 0.500000
vt 0.500000 0.500000
vt 0.500000 0.500000
vt 0.500000 0.500000
vt 0.500000 0.500000
vt 0.500000 0.500000
vt 0.500000 0.500000
vt 0.500000 0.500000
vt 0.500000 0.500000
vt 0.500000 0.500000
vt 0.500000 0.500000
vt 0.500000 0.500000
vt 0.500000 0.500000
vt 0.500000 0.500000
vt 0.500000 0.500000
vt 0.500000 0.500000
vt 0.500000 0.500000
vt 0.500000 0.500000
vt 0.500000 0.500000
vt 0.500000 0.500000
vt 0.500000 0.500000
vt 0.500000 0.500000
vt 0.500000 0.500000
vt 0.500000 0.500000
vt 0.500000 0.500000
vt 0.500000 0.500000
vt 0.500000 0.500000
vt 0.500000 0.500000
vt 0.500000 0.500000
vt 0.500000 0.500000
vt 0.500000 0.500000
vt 0.500000 0.500000
vt 0.500000 0.500000
vt 0.500000 0.500000
vt 0.500000 0.500000
vt 0.500000 0.500000
vt 0.500000 0.500000
vt 0.500000 0.500000
vt 0.500000 0.500000
vt 0.500000 0.500000
vt 0.500000 0.500000
vt 0.500000 0.500000
vt 0.500000 0.500000
vt 0.500000 0.500000
vt 0.500000 0.500000
vt 0.500000 0.500000
vt 0.500000 0.500000
vt 0.500000 0.500000
vt 0.500000 0.500000
vt 0.587098 0.701770
vt 0.587438 0.703007
vt 0.586651 0.704284
vt 0.593628 0.693249
vt 0.594351 0.693358
vt 0.593700 0.696672
vt 0.596386 0.695885
vt 0.595935 0.697191
vt 0.595175 0.697200
vt 0.584068 0.691836
vt 0.583333 0.685185
vt 0.585441 0.685586
vt 0.589151 0.704316
vt 0.589096 0.703332
vt 0.590057 0.704594
vt 0.581244 0.695793
vt 0.581302 0.694142
vt 0.582858 0.696509
vt 0.582155 0.696970
vt 0.587271 0.682541
vt 0.587909 0.680572
vt 0.589376 0.682882
vt 0.589054 0.685821
vt 0.589976 0.686205
vt 0.588781 0.700144
vt 0.587244 0.681259
vt 0.589009 0.684566
vt 0.587572 0.683999
vt 0.586702 0.685611
vt 0.595280 0.692799
vt 0.596446 0.694032
vt 0.587766 0.700111
vt 0.583612 0.698027
vt 0.583404 0.696622
vt 0.583948 0.693509
vt 0.596071 0.692758
vt 0.587064 0.700682
vt 0.593359 0.691656
vt 0.591388 0.685972
vt 0.593419 0.689231
vt 0.581547 0.696963
vt 0.587526 0.685142
vt 0.589428 0.701994
vt 0.581737 0.693038
vt 0.582508 0.693147
vt 0.583352 0.693685
vt 0.593452 0.698026
vt 0.593488 0.700144
vt 0.589475 0.700795
vt 0.583333 0.703704
vt 0.587438 0.703950
vt 0.594339 0.696656
vt 0.588858 0.680599
vt 0.593750 0.685185
vt 0.593750 0.703704
vt 0.589480 0.681391
vn 0.0000 -1.0000 0.0000
vn -0.0001 -1.0000 0.0000
vn 0.1701 0.0000 0.9854
vn 0.9951 0.0000 0.0990
vn -0.2318 0.0000 0.9728
vn -1.0000 0.0000 -0.0003
vn 0.0979 0.0000 0.9952
vn -0.1344 0.0000 0.9909
vn 0.9148 0.0000 -0.4038
vn -0.8986 0.0000 -0.4387
vn -0.9916 0.0000 -0.1296
vn 0.9976 0.0000 -0.0692
vn -0.9984 0.0000 -0.0560
vn 0.4668 0.0000 0.8843
vn -0.4158 0.0000 0.9095
vn 0.9962 0.0000 -0.0868
vn 0.0181 0.0000 0.9998
vn -0.9995 0.0000 -0.0304
vn 0.9673 0.0000 0.2535
vn -0.9510 0.0000 0.3093
vn 0.3442 0.0000 0.9389
vn -0.0071 0.0000 1.0000
vn -0.8520 0.0000 0.5236
vn 0.0063 0.0000 1.0000
vn -0.3458 0.0000 0.9383
vn 0.9084 0.0000 0.4182
vn -0.0141 0.0000 0.9999
vn 0.1153 0.0000 0.9933
vn -0.9983 0.0000 0.0577
vn 0.9980 0.0000 -0.0625
vn 0.8190 0.0000 -0.5738
vn -0.8859 0.0000 -0.4639
vn -0.0788 0.0000 -0.9969
vn -0.3377 0.0000 -0.9413
vn 0.1643 0.0000 -0.9864
vn 0.9919 0.0000 -0.1270
vn -0.0841 0.0000 -0.9965
vn 0.3204 0.0000 -0.9473
vn 0.0296 0.0000 -0.9996
vn -0.9577 0.0000 -0.2879
vn -0.9990 0.0000 0.0445
vn -0.2279 0.0000 -0.9737
vn 0.0924 0.0000 -0.9957
vn -0.9980 0.0000 -0.0637
vn 0.9812 0.0000 0.1928
vn -0.0111 0.0000 -0.9999
vn 0.1841 0.0000 -0.9829
vn -0.9896 0.0000 0.1438
vn 0.3053 0.0000 -0.9522
vn -0.1065 0.0000 -0.9943
vn 0.9974 0.0000 -0.0718
vn -0.9323 0.0000 0.3617
vn 0.9386 0.0000 0.3450
vn -0.9925 0.0000 0.1224
vn 0.9993 0.0000 0.0368
vn -0.5820 0.0000 -0.8132
vn 0.5028 0.0000 -0.8644
vn -0.0165 0.0000 -0.9999
vn 0.0000 1.0000 0.0000
usemtl BackMat.001
s off
f 200/1/1 191/2/1 194/3/1
f 234/4/1 212/5/1 233/6/1
f 217/7/1 215/8/1 216/9/1
f 232/10/1 247/11/1 244/12/1
f 187/13/1 189/14/1 190/15/1
f 222/16/1 221/17/1 224/18/1
f 221/17/1 222/16/1 220/19/1
f 254/20/1 253/21/1 260/22/1
f 240/23/1 206/24/1 239/25/1
f 257/26/2 254/20/2 260/22/2
f 253/21/1 252/27/1 243/28/1
f 247/11/1 232/10/1 246/29/1
f 217/7/1 223/30/1 236/31/1
f 232/10/1 207/32/1 240/23/1
f 208/33/1 230/34/1 210/35/1
f 234/4/1 206/24/1 212/5/1
f 236/31/1 223/30/1 226/36/1
f 207/32/1 230/34/1 204/37/1
f 237/38/1 238/39/1 242/40/1
f 220/19/1 222/16/1 218/41/1
f 252/27/1 253/21/1 254/20/1
f 208/33/1 204/37/1 230/34/1
f 252/27/1 250/42/1 243/28/1
f 190/15/1 189/14/1 199/43/1
f 225/44/1 224/18/1 228/45/1
f 217/7/1 236/31/1 215/8/1
f 228/45/1 221/17/1 229/46/1
f 209/47/1 202/48/1 201/49/1
f 246/29/1 240/23/1 250/42/1
f 199/43/1 201/49/1 202/48/1
f 200/1/1 204/37/1 195/50/1
f 212/5/1 202/48/1 209/47/1
f 194/3/1 191/2/1 192/51/1
f 243/28/1 250/42/1 240/23/1
f 221/17/1 210/35/1 229/46/1
f 215/8/1 233/6/1 214/52/1
f 206/24/1 202/48/1 212/5/1
f 229/46/1 210/35/1 230/34/1
f 237/38/1 206/24/1 234/4/1
f 191/2/1 200/1/1 195/50/1
f 259/53/1 260/22/1 253/21/1
f 242/40/1 238/39/1 248/54/1
f 239/25/1 206/24/1 237/38/1
f 233/6/1 215/8/1 236/31/1
f 212/5/1 214/52/1 233/6/1
f 230/34/1 207/32/1 232/10/1
f 201/49/1 189/14/1 197/55/1
f 246/29/1 232/10/1 240/23/1
f 195/50/1 204/37/1 208/33/1
f 207/32/1 206/24/1 240/23/1
f 224/18/1 221/17/1 228/45/1
f 201/49/1 199/43/1 189/14/1
f 239/25/1 237/38/1 242/40/1
f 259/53/1 253/21/1 255/56/1
f 114/57/3 25/58/3 81/59/3 188/60/3
f 23/61/4 24/62/4 80/63/4 79/64/4
f 14/65/5 119/66/5 193/67/5 70/68/5
f 15/69/6 16/70/6 72/71/6 71/72/6
f 122/73/7 14/65/7 70/68/7 196/74/7
f 25/58/8 124/75/8 198/76/8 81/59/8
f 22/77/9 23/61/9 79/64/9 78/78/9
f 16/70/10 17/79/10 73/80/10 72/71/10
f 26/81/11 27/82/11 83/83/11 82/84/11
f 129/85/12 22/77/12 78/78/12 203/86/12
f 17/79/13 131/87/13 205/88/13 73/80/13
f 20/89/14 21/90/14 77/91/14 76/92/14
f 18/93/15 19/94/15 75/95/15 74/96/15
f 12/97/16 13/98/16 69/99/16 68/100/16
f 19/94/17 20/89/17 76/92/17 75/95/17
f 27/82/18 28/101/18 84/102/18 83/83/18
f 137/103/19 12/97/19 68/100/19 211/104/19
f 28/101/20 139/105/20 213/106/20 84/102/20
f 30/107/21 31/108/21 87/109/21 86/110/21
f 31/108/22 32/111/22 88/112/22 87/109/22
f 32/111/23 33/113/23 89/114/23 88/112/23
f 145/115/24 9/116/24 65/117/24 219/118/24
f 9/116/25 10/119/25 66/120/25 65/117/25
f 7/121/26 8/122/26 64/123/26 63/124/26
f 29/125/27 30/107/27 86/110/27 85/126/27
f 10/119/28 11/127/28 67/128/28 66/120/28
f 33/113/29 34/129/29 90/130/29 89/114/29
f 6/131/30 7/121/30 63/124/30 62/132/30
f 5/133/31 6/131/31 62/132/31 61/134/31
f 34/129/32 153/135/32 227/136/32 90/130/32
f 4/137/33 5/133/33 61/134/33 60/138/33
f 3/139/34 4/137/34 60/138/34 59/140/34
f 157/141/35 3/139/35 59/140/35 231/142/35
f 1/143/36 2/144/36 58/145/36 57/146/36
f 37/147/37 161/148/37 235/149/37 93/150/37
f 36/151/38 37/147/38 93/150/38 92/152/38
f 35/153/39 36/151/39 92/152/39 91/154/39
f 38/155/40 39/156/40 95/157/40 94/158/40
f 39/156/41 40/159/41 96/160/41 95/157/41
f 43/161/42 167/162/42 241/163/42 99/164/42
f 42/165/43 43/161/43 99/164/43 98/166/43
f 44/167/44 45/168/44 101/169/44 100/170/44
f 171/171/45 1/143/45 57/146/45 245/172/45
f 54/173/46 55/174/46 111/175/46 110/176/46
f 175/177/47 42/165/47 98/166/47 249/178/47
f 40/159/48 41/179/48 97/180/48 96/160/48
f 177/181/49 54/173/49 110/176/49 251/182/49
f 55/174/50 56/183/50 112/184/50 111/175/50
f 52/185/51 53/186/51 109/187/51 108/188/51
f 45/168/52 46/189/52 102/190/52 101/169/52
f 51/191/53 52/185/53 108/188/53 107/192/53
f 46/189/54 182/193/54 256/194/54 102/190/54
f 184/195/55 51/191/55 107/192/55 258/196/55
f 47/197/56 48/198/56 104/199/56 103/200/56
f 49/201/57 50/202/57 106/203/57 105/204/57
f 48/198/58 49/201/58 105/204/58 104/199/58
usemtl FrontMat.001
f 126/205/59 120/206/59 117/207/59
f 160/208/59 159/209/59 138/210/59
f 143/211/59 142/212/59 141/213/59
f 158/214/59 170/215/59 173/216/59
f 113/217/59 116/218/59 115/219/59
f 148/220/59 150/221/59 147/222/59
f 147/222/59 146/223/59 148/220/59
f 180/224/59 186/225/59 179/226/59
f 166/227/59 165/228/59 132/229/59
f 183/230/59 186/225/59 180/224/59
f 179/226/59 169/231/59 178/232/59
f 173/216/59 172/233/59 158/214/59
f 143/211/59 162/234/59 149/235/59
f 158/214/59 166/227/59 133/236/59
f 134/237/59 136/238/59 156/239/59
f 160/208/59 138/210/59 132/229/59
f 162/234/59 152/240/59 149/235/59
f 133/236/59 130/241/59 156/239/59
f 163/242/59 168/243/59 164/244/59
f 146/223/59 144/245/59 148/220/59
f 178/232/59 180/224/59 179/226/59
f 134/237/59 156/239/59 130/241/59
f 178/232/59 169/231/59 176/246/59
f 116/218/59 125/247/59 115/219/59
f 151/248/59 154/249/59 150/221/59
f 143/211/59 141/213/59 162/234/59
f 154/249/59 155/250/59 147/222/59
f 135/251/59 127/252/59 128/253/59
f 172/233/59 176/246/59 166/227/59
f 125/247/59 128/253/59 127/252/59
f 126/205/59 121/254/59 130/241/59
f 138/210/59 135/251/59 128/253/59
f 120/206/59 118/255/59 117/207/59
f 169/231/59 166/227/59 176/246/59
f 147/222/59 155/250/59 136/238/59
f 141/213/59 140/256/59 159/209/59
f 132/229/59 138/210/59 128/253/59
f 155/250/59 156/239/59 136/238/59
f 163/242/59 160/208/59 132/229/59
f 117/207/59 121/254/59 126/205/59
f 185/257/59 179/226/59 186/225/59
f 168/243/59 174/258/59 164/244/59
f 165/228/59 163/242/59 132/229/59
f 159/209/59 162/234/59 141/213/59
f 138/210/59 159/209/59 140/256/59
f 156/239/59 158/214/59 133/236/59
f 127/252/59 123/259/59 115/219/59
f 172/233/59 166/227/59 158/214/59
f 121/254/59 134/237/59 130/241/59
f 133/236/59 166/227/59 132/229/59
f 150/221/59 154/249/59 147/222/59
f 127/252/59 115/219/59 125/247/59
f 165/228/59 168/243/59 163/242/59
f 185/257/59 181/260/59 179/226/59
