# Blender v2.83.1 OBJ File: 'jigsaw-96x54-3-step2.blend'
# www.blender.org
mtllib piece.4168.mtl
o path8336
v 0.275692 0.037500 0.450638
v 0.158482 0.037500 0.446251
v 0.081982 0.037500 0.474525
v 0.077782 0.037500 0.547123
v 0.105732 0.037500 0.637905
v 0.107758 0.037500 0.711243
v 0.044899 0.037500 0.739037
v -0.045246 0.037500 0.723335
v -0.105942 0.037500 0.673717
v -0.100315 0.037500 0.601807
v -0.070869 0.037500 0.527382
v -0.079960 0.037500 0.472263
v -0.170239 0.037500 0.451920
v -0.530106 0.037500 0.481056
v -0.554176 0.037500 0.255562
v -0.556389 0.037500 0.119720
v -0.530346 0.037500 0.028984
v -0.465557 0.037500 0.019772
v -0.381535 0.037500 0.049755
v -0.305283 0.037500 0.056923
v -0.260036 0.037500 -0.001240
v -0.253971 0.037500 -0.089279
v -0.291500 0.037500 -0.152241
v -0.370613 0.037500 -0.153572
v -0.463722 0.037500 -0.130299
v -0.536827 0.037500 -0.137856
v -0.565136 0.037500 -0.214451
v -0.560688 0.037500 -0.329563
v -0.530106 0.037500 -0.520851
v -0.308407 0.037500 -0.567986
v -0.176022 0.037500 -0.581688
v -0.090218 0.037500 -0.557934
v -0.086880 0.037500 -0.481644
v -0.120270 0.037500 -0.381741
v -0.124245 0.037500 -0.298153
v -0.054153 0.037500 -0.262993
v 0.048656 0.037500 -0.277096
v 0.121330 0.037500 -0.333481
v 0.121773 0.037500 -0.421097
v 0.090878 0.037500 -0.512672
v 0.090298 0.037500 -0.576866
v 0.163097 0.037500 -0.591705
v 0.277981 0.037500 -0.572723
v 0.471592 0.037500 -0.520851
v 0.446499 0.037500 -0.319164
v 0.442703 0.037500 -0.199505
v 0.465511 0.037500 -0.123695
v 0.524967 0.037500 -0.124657
v 0.602318 0.037500 -0.159050
v 0.671574 0.037500 -0.164474
v 0.710545 0.037500 -0.098888
v 0.712215 0.037500 -0.001629
v 0.673378 0.037500 0.067616
v 0.596817 0.037500 0.069279
v 0.509155 0.037500 0.044296
v 0.442989 0.037500 0.053726
v 0.421810 0.037500 0.139614
v 0.432629 0.037500 0.268017
v 0.471592 0.037500 0.481056
v 0.275692 -0.037500 0.450638
v 0.158482 -0.037500 0.446251
v 0.081982 -0.037500 0.474525
v 0.077782 -0.037500 0.547123
v 0.105732 -0.037500 0.637905
v 0.107758 -0.037500 0.711243
v 0.044899 -0.037500 0.739037
v -0.045246 -0.037500 0.723335
v -0.105942 -0.037500 0.673717
v -0.100315 -0.037500 0.601807
v -0.070869 -0.037500 0.527382
v -0.079960 -0.037500 0.472263
v -0.170239 -0.037498 0.451920
v -0.530106 -0.037500 0.481056
v -0.554176 -0.037498 0.255562
v -0.556389 -0.037498 0.119720
v -0.530346 -0.037500 0.028984
v -0.465557 -0.037500 0.019772
v -0.381535 -0.037500 0.049755
v -0.305283 -0.037500 0.056923
v -0.260036 -0.037500 -0.001240
v -0.253971 -0.037500 -0.089279
v -0.291500 -0.037500 -0.152241
v -0.370613 -0.037498 -0.153572
v -0.463722 -0.037500 -0.130299
v -0.536827 -0.037500 -0.137856
v -0.565136 -0.037498 -0.214451
v -0.560688 -0.037498 -0.329563
v -0.530106 -0.037500 -0.520851
v -0.308407 -0.037500 -0.567986
v -0.176022 -0.037500 -0.581688
v -0.090218 -0.037500 -0.557934
v -0.086880 -0.037498 -0.481644
v -0.120270 -0.037500 -0.381741
v -0.124245 -0.037500 -0.298153
v -0.054153 -0.037500 -0.262993
v 0.048656 -0.037498 -0.277096
v 0.121330 -0.037500 -0.333481
v 0.121773 -0.037500 -0.421097
v 0.090878 -0.037498 -0.512672
v 0.090298 -0.037500 -0.576866
v 0.163097 -0.037500 -0.591705
v 0.277981 -0.037500 -0.572723
v 0.471592 -0.037498 -0.520851
v 0.446499 -0.037500 -0.319164
v 0.442703 -0.037498 -0.199505
v 0.465511 -0.037500 -0.123695
v 0.524967 -0.037498 -0.124657
v 0.602318 -0.037500 -0.159050
v 0.671574 -0.037500 -0.164474
v 0.710545 -0.037500 -0.098888
v 0.712215 -0.037500 -0.001629
v 0.673378 -0.037500 0.067616
v 0.596817 -0.037500 0.069279
v 0.509155 -0.037500 0.044296
v 0.442989 -0.037500 0.053726
v 0.421810 -0.037500 0.139614
v 0.432629 -0.037500 0.268017
v 0.471592 -0.037500 0.481056
v 0.710545 0.037500 -0.098888
v 0.712215 0.037500 -0.001629
v 0.673378 0.037500 0.067616
v 0.671574 0.037500 -0.164474
v 0.671574 0.037500 -0.164474
v 0.596817 0.037500 0.069279
v 0.602318 0.037500 -0.159050
v 0.524967 0.037500 -0.124657
v 0.509155 0.037500 0.044296
v 0.465511 0.037500 -0.123695
v 0.465511 0.037500 -0.123695
v 0.442989 0.037500 0.053726
v 0.442989 0.037500 0.053726
v 0.442703 0.037500 -0.199505
v 0.471592 0.037500 -0.520851
v 0.471592 0.037500 -0.520851
v 0.446499 0.037500 -0.319164
v 0.432629 0.037500 0.268017
v 0.471592 0.037500 0.481056
v 0.471592 0.037500 0.481056
v 0.421810 0.037500 0.139614
v 0.277981 0.037500 -0.572723
v 0.275692 0.037500 0.450638
v 0.163097 0.037500 -0.591705
v 0.158482 0.037500 0.446251
v 0.090298 0.037500 -0.576866
v 0.090298 0.037500 -0.576866
v 0.121330 0.037500 -0.333481
v 0.121773 0.037500 -0.421097
v 0.081982 0.037500 0.474525
v 0.081982 0.037500 0.474525
v 0.090878 0.037500 -0.512672
v 0.048656 0.037500 -0.277096
v 0.105732 0.037500 0.637905
v 0.107758 0.037500 0.711243
v 0.107758 0.037500 0.711243
v 0.044899 0.037500 0.739037
v 0.077782 0.037500 0.547123
v -0.054153 0.037500 -0.262993
v -0.045246 0.037500 0.723335
v -0.105942 0.037500 0.673717
v -0.124245 0.037500 -0.298153
v -0.124245 0.037500 -0.298153
v -0.070869 0.037500 0.527382
v -0.079960 0.037500 0.472263
v -0.079960 0.037500 0.472263
v -0.100315 0.037500 0.601807
v -0.170239 0.037500 0.451920
v -0.090218 0.037500 -0.557934
v -0.090218 0.037500 -0.557934
v -0.086880 0.037500 -0.481644
v -0.120270 0.037500 -0.381741
v -0.176022 0.037500 -0.581688
v -0.308407 0.037500 -0.567986
v -0.260036 0.037500 -0.001240
v -0.253971 0.037500 -0.089279
v -0.291500 0.037500 -0.152241
v -0.305283 0.037500 0.056923
v -0.370613 0.037500 -0.153572
v -0.381535 0.037500 0.049755
v -0.463722 0.037500 -0.130299
v -0.465557 0.037500 0.019772
v -0.530106 0.037500 -0.520851
v -0.530106 0.037500 -0.520851
v -0.536827 0.037500 -0.137856
v -0.536827 0.037500 -0.137856
v -0.530346 0.037500 0.028984
v -0.530346 0.037500 0.028984
v -0.530106 0.037500 0.481056
v -0.530106 0.037500 0.481056
v -0.556389 0.037500 0.119720
v -0.565136 0.037500 -0.214451
v -0.554176 0.037500 0.255562
v -0.560688 0.037500 -0.329563
v 0.710545 -0.037500 -0.098888
v 0.712215 -0.037500 -0.001629
v 0.673378 -0.037500 0.067616
v 0.671574 -0.037500 -0.164474
v 0.671574 -0.037500 -0.164474
v 0.596817 -0.037500 0.069279
v 0.602318 -0.037500 -0.159050
v 0.524967 -0.037498 -0.124657
v 0.509155 -0.037500 0.044296
v 0.465511 -0.037500 -0.123695
v 0.465511 -0.037500 -0.123695
v 0.442989 -0.037500 0.053726
v 0.442989 -0.037500 0.053726
v 0.442703 -0.037498 -0.199505
v 0.471592 -0.037498 -0.520851
v 0.471592 -0.037498 -0.520851
v 0.446499 -0.037500 -0.319164
v 0.432629 -0.037500 0.268017
v 0.471592 -0.037500 0.481056
v 0.471592 -0.037500 0.481056
v 0.421810 -0.037500 0.139614
v 0.277981 -0.037500 -0.572723
v 0.275692 -0.037500 0.450638
v 0.163097 -0.037500 -0.591705
v 0.158482 -0.037500 0.446251
v 0.090298 -0.037500 -0.576866
v 0.090298 -0.037500 -0.576866
v 0.121330 -0.037500 -0.333481
v 0.121773 -0.037500 -0.421097
v 0.081982 -0.037500 0.474525
v 0.081982 -0.037500 0.474525
v 0.090878 -0.037498 -0.512672
v 0.048656 -0.037498 -0.277096
v 0.105732 -0.037500 0.637905
v 0.107758 -0.037500 0.711243
v 0.107758 -0.037500 0.711243
v 0.044899 -0.037500 0.739037
v 0.077782 -0.037500 0.547123
v -0.054153 -0.037500 -0.262993
v -0.045246 -0.037500 0.723335
v -0.105942 -0.037500 0.673717
v -0.124245 -0.037500 -0.298153
v -0.124245 -0.037500 -0.298153
v -0.070869 -0.037500 0.527382
v -0.079960 -0.037500 0.472263
v -0.079960 -0.037500 0.472263
v -0.100315 -0.037500 0.601807
v -0.170239 -0.037498 0.451920
v -0.090218 -0.037500 -0.557934
v -0.090218 -0.037500 -0.557934
v -0.086880 -0.037498 -0.481644
v -0.120270 -0.037500 -0.381741
v -0.176022 -0.037500 -0.581688
v -0.308407 -0.037500 -0.567986
v -0.260036 -0.037500 -0.001240
v -0.253971 -0.037500 -0.089279
v -0.291500 -0.037500 -0.152241
v -0.305283 -0.037500 0.056923
v -0.370613 -0.037498 -0.153572
v -0.381535 -0.037500 0.049755
v -0.463722 -0.037500 -0.130299
v -0.465557 -0.037500 0.019772
v -0.530106 -0.037500 -0.520851
v -0.530106 -0.037500 -0.520851
v -0.536827 -0.037500 -0.137856
v -0.536827 -0.037500 -0.137856
v -0.530346 -0.037500 0.028984
v -0.530346 -0.037500 0.028984
v -0.530106 -0.037500 0.481056
v -0.530106 -0.037500 0.481056
v -0.556389 -0.037498 0.119720
v -0.565136 -0.037498 -0.214451
v -0.554176 -0.037498 0.255562
v -0.560688 -0.037498 -0.329563
vt 0.500000 0.500000
vt 0.500000 0.500000
vt 0.500000 0.500000
vt 0.500000 0.500000
vt 0.500000 0.500000
vt 0.500000 0.500000
vt 0.500000 0.500000
vt 0.500000 0.500000
vt 0.500000 0.500000
vt 0.500000 0.500000
vt 0.500000 0.500000
vt 0.500000 0.500000
vt 0.500000 0.500000
vt 0.500000 0.500000
vt 0.500000 0.500000
vt 0.500000 0.500000
vt 0.500000 0.500000
vt 0.500000 0.500000
vt 0.500000 0.500000
vt 0.500000 0.500000
vt 0.500000 0.500000
vt 0.500000 0.500000
vt 0.500000 0.500000
vt 0.500000 0.500000
vt 0.500000 0.500000
vt 0.500000 0.500000
vt 0.500000 0.500000
vt 0.500000 0.500000
vt 0.500000 0.500000
vt 0.500000 0.500000
vt 0.500000 0.500000
vt 0.500000 0.500000
vt 0.500000 0.500000
vt 0.500000 0.500000
vt 0.500000 0.500000
vt 0.500000 0.500000
vt 0.500000 0.500000
vt 0.500000 0.500000
vt 0.500000 0.500000
vt 0.500000 0.500000
vt 0.500000 0.500000
vt 0.500000 0.500000
vt 0.500000 0.500000
vt 0.500000 0.500000
vt 0.500000 0.500000
vt 0.500000 0.500000
vt 0.500000 0.500000
vt 0.500000 0.500000
vt 0.500000 0.500000
vt 0.500000 0.500000
vt 0.500000 0.500000
vt 0.500000 0.500000
vt 0.500000 0.500000
vt 0.500000 0.500000
vt 0.500000 0.500000
vt 0.500000 0.500000
vt 0.500000 0.500000
vt 0.500000 0.500000
vt 0.500000 0.500000
vt 0.500000 0.500000
vt 0.500000 0.500000
vt 0.500000 0.500000
vt 0.500000 0.500000
vt 0.500000 0.500000
vt 0.500000 0.500000
vt 0.500000 0.500000
vt 0.500000 0.500000
vt 0.500000 0.500000
vt 0.500000 0.500000
vt 0.500000 0.500000
vt 0.500000 0.500000
vt 0.500000 0.500000
vt 0.500000 0.500000
vt 0.500000 0.500000
vt 0.500000 0.500000
vt 0.500000 0.500000
vt 0.500000 0.500000
vt 0.500000 0.500000
vt 0.500000 0.500000
vt 0.500000 0.500000
vt 0.500000 0.500000
vt 0.500000 0.500000
vt 0.500000 0.500000
vt 0.500000 0.500000
vt 0.500000 0.500000
vt 0.500000 0.500000
vt 0.500000 0.500000
vt 0.500000 0.500000
vt 0.500000 0.500000
vt 0.500000 0.500000
vt 0.500000 0.500000
vt 0.500000 0.500000
vt 0.500000 0.500000
vt 0.500000 0.500000
vt 0.500000 0.500000
vt 0.500000 0.500000
vt 0.500000 0.500000
vt 0.500000 0.500000
vt 0.500000 0.500000
vt 0.500000 0.500000
vt 0.500000 0.500000
vt 0.500000 0.500000
vt 0.500000 0.500000
vt 0.500000 0.500000
vt 0.500000 0.500000
vt 0.500000 0.500000
vt 0.500000 0.500000
vt 0.500000 0.500000
vt 0.500000 0.500000
vt 0.500000 0.500000
vt 0.500000 0.500000
vt 0.500000 0.500000
vt 0.500000 0.500000
vt 0.500000 0.500000
vt 0.500000 0.500000
vt 0.500000 0.500000
vt 0.500000 0.500000
vt 0.500000 0.500000
vt 0.500000 0.500000
vt 0.500000 0.500000
vt 0.500000 0.500000
vt 0.500000 0.500000
vt 0.500000 0.500000
vt 0.500000 0.500000
vt 0.500000 0.500000
vt 0.500000 0.500000
vt 0.500000 0.500000
vt 0.500000 0.500000
vt 0.500000 0.500000
vt 0.500000 0.500000
vt 0.500000 0.500000
vt 0.500000 0.500000
vt 0.500000 0.500000
vt 0.500000 0.500000
vt 0.500000 0.500000
vt 0.500000 0.500000
vt 0.500000 0.500000
vt 0.500000 0.500000
vt 0.500000 0.500000
vt 0.500000 0.500000
vt 0.500000 0.500000
vt 0.500000 0.500000
vt 0.500000 0.500000
vt 0.500000 0.500000
vt 0.500000 0.500000
vt 0.500000 0.500000
vt 0.500000 0.500000
vt 0.500000 0.500000
vt 0.500000 0.500000
vt 0.500000 0.500000
vt 0.500000 0.500000
vt 0.500000 0.500000
vt 0.500000 0.500000
vt 0.500000 0.500000
vt 0.500000 0.500000
vt 0.500000 0.500000
vt 0.500000 0.500000
vt 0.500000 0.500000
vt 0.500000 0.500000
vt 0.500000 0.500000
vt 0.500000 0.500000
vt 0.500000 0.500000
vt 0.500000 0.500000
vt 0.500000 0.500000
vt 0.500000 0.500000
vt 0.500000 0.500000
vt 0.500000 0.500000
vt 0.500000 0.500000
vt 0.500000 0.500000
vt 0.500000 0.500000
vt 0.500000 0.500000
vt 0.500000 0.500000
vt 0.500000 0.500000
vt 0.500000 0.500000
vt 0.500000 0.500000
vt 0.500000 0.500000
vt 0.500000 0.500000
vt 0.500000 0.500000
vt 0.500000 0.500000
vt 0.500000 0.500000
vt 0.500000 0.500000
vt 0.500000 0.500000
vt 0.500000 0.500000
vt 0.500000 0.500000
vt 0.500000 0.500000
vt 0.500000 0.500000
vt 0.500000 0.500000
vt 0.500000 0.500000
vt 0.500000 0.500000
vt 0.500000 0.500000
vt 0.500000 0.500000
vt 0.500000 0.500000
vt 0.500000 0.500000
vt 0.500000 0.500000
vt 0.500000 0.500000
vt 0.500000 0.500000
vt 0.500000 0.500000
vt 0.500000 0.500000
vt 0.500000 0.500000
vt 0.500000 0.500000
vt 0.500000 0.500000
vt 0.500000 0.500000
vt 0.500000 0.500000
vt 0.500000 0.500000
vt 0.500000 0.500000
vt 0.500000 0.500000
vt 0.500000 0.500000
vt 0.407696 0.192762
vt 0.410082 0.189596
vt 0.408565 0.192688
vt 0.410369 0.204690
vt 0.410379 0.203591
vt 0.412126 0.204398
vt 0.414322 0.184740
vt 0.416667 0.185185
vt 0.416364 0.191838
vt 0.408931 0.193984
vt 0.410737 0.190290
vt 0.408784 0.195885
vt 0.411652 0.190178
vt 0.412385 0.206019
vt 0.411648 0.208152
vt 0.410637 0.208121
vt 0.410012 0.206120
vt 0.409955 0.207401
vt 0.406658 0.193379
vt 0.405618 0.191731
vt 0.409436 0.184538
vt 0.410232 0.185061
vt 0.410311 0.186412
vt 0.410069 0.188134
vt 0.412257 0.189342
vt 0.416575 0.193507
vt 0.405711 0.200124
vt 0.405513 0.198001
vt 0.407287 0.197237
vt 0.416599 0.196501
vt 0.417148 0.193675
vt 0.417354 0.196423
vt 0.412183 0.187932
vt 0.411871 0.186379
vt 0.412910 0.184699
vt 0.411967 0.185181
vt 0.406335 0.196665
vt 0.414452 0.202983
vt 0.413117 0.202783
vt 0.416305 0.197915
vt 0.405760 0.189284
vt 0.412368 0.207434
vt 0.412224 0.203175
vt 0.406250 0.203704
vt 0.408347 0.203240
vt 0.406250 0.185185
vt 0.408239 0.184620
vt 0.416350 0.200082
vt 0.416667 0.203704
vt 0.417922 0.193131
vt 0.419186 0.194149
vt 0.418297 0.196940
vt 0.409591 0.203170
vt 0.408198 0.197228
vt 0.419349 0.195815
vt 0.405668 0.196655
vt 0.419060 0.196977
vt 0.418670 0.193027
vt 0.405864 0.193317
vn 0.0000 -1.0000 0.0000
vn 0.9999 0.0000 -0.0172
vn 0.8722 0.0000 0.4892
vn 0.8597 0.0000 -0.5108
vn 0.0217 0.0000 0.9998
vn -0.0781 0.0000 -0.9969
vn -0.4063 0.0000 -0.9137
vn -0.2741 0.0000 0.9617
vn -0.0162 0.0000 -0.9999
vn 0.1411 0.0000 0.9900
vn 0.9576 0.0000 -0.2881
vn 0.9923 0.0000 0.1235
vn 0.9837 0.0000 -0.1799
vn 0.9995 0.0000 0.0317
vn 0.9709 0.0000 0.2394
vn 0.9965 0.0000 -0.0840
vn 0.2588 0.0000 -0.9659
vn -0.1534 0.0000 0.9882
vn 0.1630 0.0000 -0.9866
vn -0.0374 0.0000 0.9993
vn -0.1997 0.0000 -0.9799
vn -1.0000 0.0000 -0.0051
vn 0.3467 0.0000 0.9380
vn -1.0000 0.0000 0.0090
vn -0.9475 0.0000 0.3197
vn -0.6130 0.0000 -0.7901
vn 0.9996 0.0000 -0.0276
vn 0.4044 0.0000 0.9146
vn 0.9557 0.0000 -0.2943
vn 0.9983 0.0000 0.0578
vn -0.1359 0.0000 -0.9907
vn -0.1716 0.0000 0.9852
vn -0.6329 0.0000 0.7742
vn 0.4484 0.0000 -0.8938
vn -0.9867 0.0000 0.1627
vn -0.9299 0.0000 -0.3679
vn -0.9970 0.0000 -0.0780
vn -0.2198 0.0000 0.9755
vn 0.9990 0.0000 -0.0437
vn 0.9484 0.0000 0.3170
vn 0.2668 0.0000 -0.9638
vn 0.9989 0.0000 0.0475
vn -0.1030 0.0000 -0.9947
vn -0.9976 0.0000 -0.0687
vn -0.8590 0.0000 0.5120
vn -0.7893 0.0000 -0.6140
vn -0.0168 0.0000 0.9999
vn 0.0936 0.0000 -0.9956
vn 0.2425 0.0000 0.9702
vn 0.3361 0.0000 -0.9418
vn -0.2080 0.0000 -0.9781
vn -0.1028 0.0000 0.9947
vn -0.1408 0.0000 -0.9900
vn 0.0807 0.0000 0.9967
vn -0.9612 0.0000 -0.2759
vn -0.9380 0.0000 0.3467
vn -0.9999 0.0000 0.0163
vn -0.9944 0.0000 0.1061
vn -0.9875 0.0000 -0.1579
vn -0.9993 0.0000 -0.0386
vn 0.0000 1.0000 0.0000
usemtl BackMat.001
s off
f 244/1/1 234/2/1 249/3/1
f 200/4/1 201/5/1 202/6/1
f 265/7/1 240/8/1 261/9/1
f 231/10/1 248/11/1 234/2/1
f 234/2/1 248/11/1 249/3/1
f 225/12/1 247/13/1 231/10/1
f 198/14/1 200/4/1 194/15/1
f 201/5/1 200/4/1 198/14/1
f 193/16/1 194/15/1 199/17/1
f 196/18/1 193/16/1 199/17/1
f 244/1/1 245/19/1 243/20/1
f 264/21/1 253/22/1 257/23/1
f 264/21/1 251/24/1 253/22/1
f 247/13/1 240/8/1 250/25/1
f 237/26/1 240/8/1 247/13/1
f 214/27/1 221/28/1 216/29/1
f 222/30/1 230/31/1 236/32/1
f 247/13/1 222/30/1 237/26/1
f 252/33/1 263/34/1 254/35/1
f 231/10/1 247/13/1 248/11/1
f 237/26/1 222/30/1 236/32/1
f 254/35/1 263/34/1 259/36/1
f 224/37/1 216/29/1 221/28/1
f 210/38/1 217/39/1 213/40/1
f 250/25/1 265/7/1 252/33/1
f 246/41/1 244/1/1 251/24/1
f 263/34/1 252/33/1 265/7/1
f 195/42/1 198/14/1 194/15/1
f 204/43/1 213/40/1 225/12/1
f 207/44/1 209/45/1 214/27/1
f 209/45/1 221/28/1 214/27/1
f 199/17/1 194/15/1 200/4/1
f 202/6/1 201/5/1 204/43/1
f 255/46/1 246/41/1 266/47/1
f 225/12/1 213/40/1 247/13/1
f 215/48/1 210/38/1 211/49/1
f 245/19/1 244/1/1 246/41/1
f 239/50/1 226/51/1 232/52/1
f 206/53/1 202/6/1 225/12/1
f 217/39/1 210/38/1 215/48/1
f 209/45/1 220/54/1 221/28/1
f 220/54/1 206/53/1 225/12/1
f 230/31/1 226/51/1 239/50/1
f 232/52/1 226/51/1 229/55/1
f 218/56/1 216/29/1 224/37/1
f 265/7/1 250/25/1 240/8/1
f 246/41/1 251/24/1 266/47/1
f 209/45/1 206/53/1 220/54/1
f 202/6/1 204/43/1 225/12/1
f 229/55/1 226/51/1 227/57/1
f 244/1/1 249/3/1 251/24/1
f 236/32/1 230/31/1 239/50/1
f 247/13/1 217/39/1 222/30/1
f 247/13/1 213/40/1 217/39/1
f 239/50/1 232/52/1 233/58/1
f 243/20/1 245/19/1 241/59/1
f 266/47/1 251/24/1 264/21/1
f 51/60/2 52/61/2 111/62/2 110/63/2
f 52/61/3 53/64/3 112/65/3 111/62/3
f 123/66/4 51/60/4 110/63/4 197/67/4
f 53/64/5 54/68/5 113/69/5 112/65/5
f 49/70/6 50/71/6 109/72/6 108/73/6
f 48/74/7 49/70/7 108/73/7 107/75/7
f 54/68/8 55/76/8 114/77/8 113/69/8
f 129/78/9 48/74/9 107/75/9 203/79/9
f 55/76/10 131/80/10 205/81/10 114/77/10
f 46/82/11 47/83/11 106/84/11 105/85/11
f 134/86/12 45/87/12 104/88/12 208/89/12
f 58/90/13 138/91/13 212/92/13 117/93/13
f 45/87/14 46/82/14 105/85/14 104/88/14
f 56/94/15 57/95/15 116/96/15 115/97/15
f 57/95/16 58/90/16 117/93/16 116/96/16
f 43/98/17 44/99/17 103/100/17 102/101/17
f 59/102/18 1/103/18 60/104/18 118/105/18
f 42/106/19 43/98/19 102/101/19 101/107/19
f 1/103/20 2/108/20 61/109/20 60/104/20
f 145/110/21 42/106/21 101/107/21 219/111/21
f 38/112/22 39/113/22 98/114/22 97/115/22
f 2/108/23 149/116/23 223/117/23 61/109/23
f 40/118/24 41/119/24 100/120/24 99/121/24
f 39/113/25 40/118/25 99/121/25 98/114/25
f 37/122/26 38/112/26 97/115/26 96/123/26
f 5/124/27 154/125/27 228/126/27 64/127/27
f 6/128/28 7/129/28 66/130/28 65/131/28
f 4/132/29 5/124/29 64/127/29 63/133/29
f 3/134/30 4/132/30 63/133/30 62/135/30
f 36/136/31 37/122/31 96/123/31 95/137/31
f 7/129/32 8/138/32 67/139/32 66/130/32
f 8/138/33 9/140/33 68/141/33 67/139/33
f 161/142/34 36/136/34 95/137/34 235/143/34
f 11/144/35 164/145/35 238/146/35 70/147/35
f 10/148/36 11/144/36 70/147/36 69/149/36
f 9/140/37 10/148/37 69/149/37 68/141/37
f 12/150/38 13/151/38 72/152/38 71/153/38
f 168/154/39 33/155/39 92/156/39 242/157/39
f 33/155/40 34/158/40 93/159/40 92/156/40
f 31/160/41 32/161/41 91/162/41 90/163/41
f 34/158/42 35/164/42 94/165/42 93/159/42
f 30/166/43 31/160/43 90/163/43 89/167/43
f 21/168/44 22/169/44 81/170/44 80/171/44
f 22/169/45 23/172/45 82/173/45 81/170/45
f 20/174/46 21/168/46 80/171/46 79/175/46
f 23/172/47 24/176/47 83/177/47 82/173/47
f 19/178/48 20/174/48 79/175/48 78/179/48
f 24/176/49 25/180/49 84/181/49 83/177/49
f 18/182/50 19/178/50 78/179/50 77/183/50
f 182/184/51 30/166/51 89/167/51 256/185/51
f 25/180/52 184/186/52 258/187/52 84/181/52
f 186/188/53 18/182/53 77/183/53 260/189/53
f 13/151/54 188/190/54 262/191/54 72/152/54
f 16/192/55 17/193/55 76/194/55 75/195/55
f 26/196/56 27/197/56 86/198/56 85/199/56
f 15/200/57 16/192/57 75/195/57 74/201/57
f 14/202/58 15/200/58 74/201/58 73/203/58
f 28/204/59 29/205/59 88/206/59 87/207/59
f 27/197/60 28/204/60 87/207/60 86/198/60
usemtl FrontMat.001
f 170/208/61 175/209/61 160/210/61
f 126/211/61 128/212/61 127/213/61
f 191/214/61 187/215/61 166/216/61
f 157/217/61 160/210/61 174/218/61
f 160/210/61 175/209/61 174/218/61
f 151/219/61 157/217/61 173/220/61
f 124/221/61 120/222/61 126/211/61
f 127/213/61 124/221/61 126/211/61
f 119/223/61 125/224/61 120/222/61
f 122/225/61 125/224/61 119/223/61
f 170/208/61 169/226/61 171/227/61
f 190/228/61 183/229/61 179/230/61
f 190/228/61 179/230/61 177/231/61
f 173/220/61 176/232/61 166/216/61
f 163/233/61 173/220/61 166/216/61
f 140/234/61 142/235/61 147/236/61
f 148/237/61 162/238/61 156/239/61
f 173/220/61 163/233/61 148/237/61
f 178/240/61 180/241/61 189/242/61
f 157/217/61 174/218/61 173/220/61
f 163/233/61 162/238/61 148/237/61
f 180/241/61 185/243/61 189/242/61
f 150/244/61 147/236/61 142/235/61
f 136/245/61 139/246/61 143/247/61
f 176/232/61 178/240/61 191/214/61
f 172/248/61 177/231/61 170/208/61
f 189/242/61 191/214/61 178/240/61
f 121/249/61 120/222/61 124/221/61
f 130/250/61 151/219/61 139/246/61
f 133/251/61 140/234/61 135/252/61
f 135/252/61 140/234/61 147/236/61
f 125/224/61 126/211/61 120/222/61
f 128/212/61 130/250/61 127/213/61
f 181/253/61 192/254/61 172/248/61
f 151/219/61 173/220/61 139/246/61
f 141/255/61 137/256/61 136/245/61
f 171/227/61 172/248/61 170/208/61
f 165/257/61 158/258/61 152/259/61
f 132/260/61 151/219/61 128/212/61
f 143/247/61 141/255/61 136/245/61
f 135/252/61 147/236/61 146/261/61
f 146/261/61 151/219/61 132/260/61
f 156/239/61 165/257/61 152/259/61
f 158/258/61 155/262/61 152/259/61
f 144/263/61 150/244/61 142/235/61
f 191/214/61 166/216/61 176/232/61
f 172/248/61 192/254/61 177/231/61
f 135/252/61 146/261/61 132/260/61
f 128/212/61 151/219/61 130/250/61
f 155/262/61 153/264/61 152/259/61
f 170/208/61 177/231/61 175/209/61
f 162/238/61 165/257/61 156/239/61
f 173/220/61 148/237/61 143/247/61
f 173/220/61 143/247/61 139/246/61
f 165/257/61 159/265/61 158/258/61
f 169/226/61 167/266/61 171/227/61
f 192/254/61 190/228/61 177/231/61
