# Blender v2.83.1 OBJ File: 'jigsaw-96x54-3-step2.blend'
# www.blender.org
mtllib piece.1104.mtl
o path2208
v -0.563225 0.037500 0.170799
v -0.553272 0.037500 0.092785
v -0.496563 0.037500 0.090609
v -0.411751 0.037500 0.121395
v -0.325996 0.037500 0.123346
v -0.263607 0.037500 0.055244
v -0.237507 0.037500 -0.041745
v -0.257755 0.037500 -0.105875
v -0.326683 0.037500 -0.096794
v -0.415691 0.037500 -0.059748
v -0.488453 0.037500 -0.061378
v -0.518097 0.037500 -0.147641
v -0.515614 0.037500 -0.281761
v -0.488289 0.037500 -0.506862
v -0.261822 0.037500 -0.548624
v -0.125721 0.037500 -0.560974
v -0.035549 0.037500 -0.540539
v -0.027916 0.037500 -0.473949
v -0.059208 0.037500 -0.385996
v -0.065758 0.037500 -0.311006
v -0.004433 0.037500 -0.276637
v 0.085796 0.037500 -0.283868
v 0.145439 0.037500 -0.327004
v 0.135452 0.037500 -0.397143
v 0.098625 0.037500 -0.472543
v 0.098194 0.037500 -0.528242
v 0.177833 0.037500 -0.546482
v 0.513622 0.037500 -0.506862
v 0.532955 0.037500 -0.280375
v 0.531940 0.037500 -0.145371
v 0.502949 0.037500 -0.058412
v 0.436317 0.037500 -0.056358
v 0.352150 0.037500 -0.092490
v 0.278034 0.037500 -0.099192
v 0.237278 0.037500 -0.030648
v 0.236095 0.037500 0.071825
v 0.276428 0.037500 0.145120
v 0.354698 0.037500 0.146812
v 0.444939 0.037500 0.117197
v 0.515625 0.037500 0.117253
v 0.543816 0.037500 0.189588
v 0.540863 0.037500 0.303332
v 0.513622 0.037500 0.494836
v 0.318886 0.037500 0.546672
v 0.202648 0.037500 0.565802
v 0.127411 0.037500 0.551492
v 0.124592 0.037500 0.488923
v 0.153263 0.037500 0.402916
v 0.154415 0.037500 0.328188
v 0.088448 0.037500 0.293053
v -0.006504 0.037500 0.300223
v -0.072895 0.037500 0.346007
v -0.072876 0.037500 0.422322
v -0.047440 0.037500 0.503538
v -0.057281 0.037500 0.559637
v -0.144089 0.037500 0.569578
v -0.488289 0.037500 0.494836
v -0.563225 -0.037500 0.170799
v -0.553272 -0.037500 0.092785
v -0.496563 -0.037500 0.090609
v -0.411751 -0.037500 0.121395
v -0.325996 -0.037498 0.123346
v -0.263607 -0.037500 0.055244
v -0.237507 -0.037498 -0.041745
v -0.257755 -0.037500 -0.105875
v -0.326683 -0.037500 -0.096794
v -0.415691 -0.037500 -0.059748
v -0.488453 -0.037500 -0.061378
v -0.518097 -0.037500 -0.147641
v -0.515614 -0.037498 -0.281761
v -0.488289 -0.037500 -0.506862
v -0.261822 -0.037500 -0.548624
v -0.125721 -0.037498 -0.560974
v -0.035549 -0.037500 -0.540539
v -0.027916 -0.037500 -0.473949
v -0.059208 -0.037500 -0.385996
v -0.065758 -0.037500 -0.311006
v -0.004433 -0.037498 -0.276637
v 0.085796 -0.037500 -0.283868
v 0.145439 -0.037500 -0.327004
v 0.135452 -0.037500 -0.397143
v 0.098625 -0.037500 -0.472543
v 0.098194 -0.037498 -0.528242
v 0.177833 -0.037498 -0.546482
v 0.513622 -0.037500 -0.506862
v 0.532955 -0.037498 -0.280375
v 0.531940 -0.037500 -0.145371
v 0.502949 -0.037498 -0.058412
v 0.436317 -0.037500 -0.056358
v 0.352150 -0.037500 -0.092490
v 0.278034 -0.037500 -0.099192
v 0.237278 -0.037498 -0.030648
v 0.236095 -0.037500 0.071825
v 0.276428 -0.037500 0.145120
v 0.354698 -0.037500 0.146812
v 0.444939 -0.037500 0.117197
v 0.515625 -0.037500 0.117253
v 0.543816 -0.037500 0.189588
v 0.540863 -0.037500 0.303332
v 0.513622 -0.037498 0.494836
v 0.318886 -0.037500 0.546672
v 0.202648 -0.037500 0.565802
v 0.127411 -0.037500 0.551492
v 0.124592 -0.037500 0.488923
v 0.153263 -0.037500 0.402916
v 0.154415 -0.037500 0.328188
v 0.088448 -0.037498 0.293053
v -0.006504 -0.037498 0.300223
v -0.072895 -0.037500 0.346007
v -0.072876 -0.037500 0.422322
v -0.047440 -0.037500 0.503538
v -0.057281 -0.037500 0.559637
v -0.144089 -0.037500 0.569578
v -0.488289 -0.037500 0.494836
v -0.057281 0.037500 0.559637
v -0.057281 0.037500 0.559637
v -0.144089 0.037500 0.569578
v 0.318886 0.037500 0.546672
v 0.202648 0.037500 0.565802
v 0.127411 0.037500 0.551492
v 0.127411 0.037500 0.551492
v -0.047440 0.037500 0.503538
v 0.124592 0.037500 0.488923
v 0.513622 0.037500 0.494836
v 0.513622 0.037500 0.494836
v -0.072876 0.037500 0.422322
v -0.488289 0.037500 0.494836
v -0.488289 0.037500 0.494836
v 0.153263 0.037500 0.402916
v -0.072895 0.037500 0.346007
v 0.540863 0.037500 0.303332
v 0.154415 0.037500 0.328188
v 0.154415 0.037500 0.328188
v -0.006504 0.037500 0.300223
v 0.088448 0.037500 0.293053
v 0.543816 0.037500 0.189588
v -0.563225 0.037500 0.170799
v 0.515625 0.037500 0.117253
v 0.515625 0.037500 0.117253
v 0.276428 0.037500 0.145120
v 0.354698 0.037500 0.146812
v -0.553272 0.037500 0.092785
v -0.553272 0.037500 0.092785
v 0.444939 0.037500 0.117197
v 0.236095 0.037500 0.071825
v -0.411751 0.037500 0.121395
v -0.325996 0.037500 0.123346
v -0.263607 0.037500 0.055244
v -0.496563 0.037500 0.090609
v 0.237278 0.037500 -0.030648
v -0.237507 0.037500 -0.041745
v 0.278034 0.037500 -0.099192
v 0.278034 0.037500 -0.099192
v -0.257755 0.037500 -0.105875
v -0.257755 0.037500 -0.105875
v 0.502949 0.037500 -0.058412
v 0.502949 0.037500 -0.058412
v 0.436317 0.037500 -0.056358
v 0.352150 0.037500 -0.092490
v 0.531940 0.037500 -0.145371
v -0.326683 0.037500 -0.096794
v -0.415691 0.037500 -0.059748
v -0.488453 0.037500 -0.061378
v -0.488453 0.037500 -0.061378
v -0.518097 0.037500 -0.147641
v 0.532955 0.037500 -0.280375
v -0.515614 0.037500 -0.281761
v -0.004433 0.037500 -0.276637
v 0.085796 0.037500 -0.283868
v -0.065758 0.037500 -0.311006
v -0.065758 0.037500 -0.311006
v 0.145439 0.037500 -0.327004
v 0.145439 0.037500 -0.327004
v -0.059208 0.037500 -0.385996
v 0.135452 0.037500 -0.397143
v -0.027916 0.037500 -0.473949
v 0.098625 0.037500 -0.472543
v 0.513622 0.037500 -0.506862
v 0.513622 0.037500 -0.506862
v 0.098194 0.037500 -0.528242
v 0.098194 0.037500 -0.528242
v -0.035549 0.037500 -0.540539
v -0.035549 0.037500 -0.540539
v -0.488289 0.037500 -0.506862
v -0.488289 0.037500 -0.506862
v -0.261822 0.037500 -0.548624
v 0.177833 0.037500 -0.546482
v -0.125721 0.037500 -0.560974
v -0.057281 -0.037500 0.559637
v -0.057281 -0.037500 0.559637
v -0.144089 -0.037500 0.569578
v 0.318886 -0.037500 0.546672
v 0.202648 -0.037500 0.565802
v 0.127411 -0.037500 0.551492
v 0.127411 -0.037500 0.551492
v -0.047440 -0.037500 0.503538
v 0.124592 -0.037500 0.488923
v 0.513622 -0.037498 0.494836
v 0.513622 -0.037498 0.494836
v -0.072876 -0.037500 0.422322
v -0.488289 -0.037500 0.494836
v -0.488289 -0.037500 0.494836
v 0.153263 -0.037500 0.402916
v -0.072895 -0.037500 0.346007
v 0.540863 -0.037500 0.303332
v 0.154415 -0.037500 0.328188
v 0.154415 -0.037500 0.328188
v -0.006504 -0.037498 0.300223
v 0.088448 -0.037498 0.293053
v 0.543816 -0.037500 0.189588
v -0.563225 -0.037500 0.170799
v 0.515625 -0.037500 0.117253
v 0.515625 -0.037500 0.117253
v 0.276428 -0.037500 0.145120
v 0.354698 -0.037500 0.146812
v -0.553272 -0.037500 0.092785
v -0.553272 -0.037500 0.092785
v 0.444939 -0.037500 0.117197
v 0.236095 -0.037500 0.071825
v -0.411751 -0.037500 0.121395
v -0.325996 -0.037498 0.123346
v -0.263607 -0.037500 0.055244
v -0.496563 -0.037500 0.090609
v 0.237278 -0.037498 -0.030648
v -0.237507 -0.037498 -0.041745
v 0.278034 -0.037500 -0.099192
v 0.278034 -0.037500 -0.099192
v -0.257755 -0.037500 -0.105875
v -0.257755 -0.037500 -0.105875
v 0.502949 -0.037498 -0.058412
v 0.502949 -0.037498 -0.058412
v 0.436317 -0.037500 -0.056358
v 0.352150 -0.037500 -0.092490
v 0.531940 -0.037500 -0.145371
v -0.326683 -0.037500 -0.096794
v -0.415691 -0.037500 -0.059748
v -0.488453 -0.037500 -0.061378
v -0.488453 -0.037500 -0.061378
v -0.518097 -0.037500 -0.147641
v 0.532955 -0.037498 -0.280375
v -0.515614 -0.037498 -0.281761
v -0.004433 -0.037498 -0.276637
v 0.085796 -0.037500 -0.283868
v -0.065758 -0.037500 -0.311006
v -0.065758 -0.037500 -0.311006
v 0.145439 -0.037500 -0.327004
v 0.145439 -0.037500 -0.327004
v -0.059208 -0.037500 -0.385996
v 0.135452 -0.037500 -0.397143
v -0.027916 -0.037500 -0.473949
v 0.098625 -0.037500 -0.472543
v 0.513622 -0.037500 -0.506862
v 0.513622 -0.037500 -0.506862
v 0.098194 -0.037498 -0.528242
v 0.098194 -0.037498 -0.528242
v -0.035549 -0.037500 -0.540539
v -0.035549 -0.037500 -0.540539
v -0.488289 -0.037500 -0.506862
v -0.488289 -0.037500 -0.506862
v -0.261822 -0.037500 -0.548624
v 0.177833 -0.037498 -0.546482
v -0.125721 -0.037498 -0.560974
vt 0.500000 0.500000
vt 0.500000 0.500000
vt 0.500000 0.500000
vt 0.500000 0.500000
vt 0.500000 0.500000
vt 0.500000 0.500000
vt 0.500000 0.500000
vt 0.500000 0.500000
vt 0.500000 0.500000
vt 0.500000 0.500000
vt 0.500000 0.500000
vt 0.500000 0.500000
vt 0.500000 0.500000
vt 0.500000 0.500000
vt 0.500000 0.500000
vt 0.500000 0.500000
vt 0.500000 0.500000
vt 0.500000 0.500000
vt 0.500000 0.500000
vt 0.500000 0.500000
vt 0.500000 0.500000
vt 0.500000 0.500000
vt 0.500000 0.500000
vt 0.500000 0.500000
vt 0.500000 0.500000
vt 0.500000 0.500000
vt 0.500000 0.500000
vt 0.500000 0.500000
vt 0.500000 0.500000
vt 0.500000 0.500000
vt 0.500000 0.500000
vt 0.500000 0.500000
vt 0.500000 0.500000
vt 0.500000 0.500000
vt 0.500000 0.500000
vt 0.500000 0.500000
vt 0.500000 0.500000
vt 0.500000 0.500000
vt 0.500000 0.500000
vt 0.500000 0.500000
vt 0.500000 0.500000
vt 0.500000 0.500000
vt 0.500000 0.500000
vt 0.500000 0.500000
vt 0.500000 0.500000
vt 0.500000 0.500000
vt 0.500000 0.500000
vt 0.500000 0.500000
vt 0.500000 0.500000
vt 0.500000 0.500000
vt 0.500000 0.500000
vt 0.500000 0.500000
vt 0.500000 0.500000
vt 0.500000 0.500000
vt 0.500000 0.500000
vt 0.500000 0.500000
vt 0.500000 0.500000
vt 0.500000 0.500000
vt 0.500000 0.500000
vt 0.500000 0.500000
vt 0.500000 0.500000
vt 0.500000 0.500000
vt 0.500000 0.500000
vt 0.500000 0.500000
vt 0.500000 0.500000
vt 0.500000 0.500000
vt 0.500000 0.500000
vt 0.500000 0.500000
vt 0.500000 0.500000
vt 0.500000 0.500000
vt 0.500000 0.500000
vt 0.500000 0.500000
vt 0.500000 0.500000
vt 0.500000 0.500000
vt 0.500000 0.500000
vt 0.500000 0.500000
vt 0.500000 0.500000
vt 0.500000 0.500000
vt 0.500000 0.500000
vt 0.500000 0.500000
vt 0.500000 0.500000
vt 0.500000 0.500000
vt 0.500000 0.500000
vt 0.500000 0.500000
vt 0.500000 0.500000
vt 0.500000 0.500000
vt 0.500000 0.500000
vt 0.500000 0.500000
vt 0.500000 0.500000
vt 0.500000 0.500000
vt 0.500000 0.500000
vt 0.500000 0.500000
vt 0.500000 0.500000
vt 0.500000 0.500000
vt 0.500000 0.500000
vt 0.500000 0.500000
vt 0.500000 0.500000
vt 0.500000 0.500000
vt 0.500000 0.500000
vt 0.500000 0.500000
vt 0.500000 0.500000
vt 0.500000 0.500000
vt 0.500000 0.500000
vt 0.500000 0.500000
vt 0.500000 0.500000
vt 0.500000 0.500000
vt 0.500000 0.500000
vt 0.500000 0.500000
vt 0.500000 0.500000
vt 0.500000 0.500000
vt 0.500000 0.500000
vt 0.500000 0.500000
vt 0.500000 0.500000
vt 0.500000 0.500000
vt 0.500000 0.500000
vt 0.500000 0.500000
vt 0.500000 0.500000
vt 0.500000 0.500000
vt 0.500000 0.500000
vt 0.500000 0.500000
vt 0.500000 0.500000
vt 0.500000 0.500000
vt 0.500000 0.500000
vt 0.500000 0.500000
vt 0.500000 0.500000
vt 0.500000 0.500000
vt 0.500000 0.500000
vt 0.500000 0.500000
vt 0.500000 0.500000
vt 0.500000 0.500000
vt 0.500000 0.500000
vt 0.500000 0.500000
vt 0.500000 0.500000
vt 0.500000 0.500000
vt 0.500000 0.500000
vt 0.500000 0.500000
vt 0.500000 0.500000
vt 0.500000 0.500000
vt 0.500000 0.500000
vt 0.500000 0.500000
vt 0.500000 0.500000
vt 0.500000 0.500000
vt 0.500000 0.500000
vt 0.500000 0.500000
vt 0.500000 0.500000
vt 0.500000 0.500000
vt 0.500000 0.500000
vt 0.500000 0.500000
vt 0.500000 0.500000
vt 0.500000 0.500000
vt 0.500000 0.500000
vt 0.500000 0.500000
vt 0.500000 0.500000
vt 0.500000 0.500000
vt 0.500000 0.500000
vt 0.500000 0.500000
vt 0.500000 0.500000
vt 0.500000 0.500000
vt 0.500000 0.500000
vt 0.500000 0.500000
vt 0.500000 0.500000
vt 0.500000 0.500000
vt 0.500000 0.500000
vt 0.500000 0.500000
vt 0.500000 0.500000
vt 0.500000 0.500000
vt 0.500000 0.500000
vt 0.500000 0.500000
vt 0.500000 0.500000
vt 0.500000 0.500000
vt 0.500000 0.500000
vt 0.500000 0.500000
vt 0.500000 0.500000
vt 0.500000 0.500000
vt 0.500000 0.500000
vt 0.500000 0.500000
vt 0.500000 0.500000
vt 0.500000 0.500000
vt 0.500000 0.500000
vt 0.500000 0.500000
vt 0.500000 0.500000
vt 0.500000 0.500000
vt 0.500000 0.500000
vt 0.500000 0.500000
vt 0.500000 0.500000
vt 0.500000 0.500000
vt 0.500000 0.500000
vt 0.500000 0.500000
vt 0.500000 0.500000
vt 0.500000 0.500000
vt 0.500000 0.500000
vt 0.500000 0.500000
vt 0.500000 0.500000
vt 0.500000 0.500000
vt 0.500000 0.500000
vt 0.500000 0.500000
vt 0.500000 0.500000
vt 0.500000 0.500000
vt 0.500000 0.500000
vt 0.500000 0.500000
vt 0.500000 0.500000
vt 0.500000 0.500000
vt 0.500000 0.500000
vt 0.500000 0.500000
vt 0.500000 0.500000
vt 0.497393 0.786376
vt 0.494991 0.792699
vt 0.492469 0.788476
vt 0.497603 0.785191
vt 0.500284 0.781939
vt 0.498320 0.785359
vt 0.491236 0.789862
vt 0.492049 0.789831
vt 0.493318 0.793215
vt 0.500000 0.796296
vt 0.495681 0.794956
vt 0.495681 0.793545
vt 0.495607 0.781399
vt 0.494969 0.782034
vt 0.492033 0.785314
vt 0.491262 0.785438
vt 0.493411 0.781103
vt 0.498313 0.789429
vt 0.499204 0.789392
vt 0.489694 0.786068
vt 0.489393 0.784461
vt 0.490387 0.786106
vt 0.489382 0.781965
vt 0.489583 0.777778
vt 0.496421 0.797678
vt 0.497645 0.777006
vt 0.497664 0.788169
vt 0.500002 0.786014
vt 0.499245 0.786044
vt 0.500310 0.784419
vt 0.489300 0.792756
vt 0.489269 0.790653
vt 0.500676 0.788864
vt 0.500779 0.790306
vt 0.500086 0.788823
vt 0.493330 0.794597
vt 0.493628 0.796187
vt 0.492817 0.797608
vt 0.489562 0.789316
vt 0.490297 0.789315
vt 0.492456 0.786582
vt 0.495539 0.780012
vt 0.495214 0.778386
vt 0.496230 0.776777
vt 0.491608 0.797255
vt 0.495519 0.797494
vt 0.495417 0.796457
vt 0.493515 0.779806
vt 0.493074 0.777045
vt 0.494004 0.792566
vt 0.494031 0.781900
vt 0.493898 0.778412
vt 0.489583 0.796296
vt 0.493599 0.797344
vt 0.495293 0.777155
vt 0.493902 0.777382
vt 0.500000 0.777778
vn -0.0000 -1.0000 0.0000
vn 0.1138 0.0000 0.9935
vn 0.1624 0.0000 0.9867
vn -0.1868 0.0000 0.9824
vn 0.9850 0.0000 0.1728
vn -0.9990 0.0000 0.0450
vn 0.2572 0.0000 0.9664
vn 0.9543 0.0000 -0.2989
vn -0.2122 0.0000 0.9772
vn -0.9487 0.0000 -0.3162
vn 1.0000 0.0000 -0.0003
vn 0.9900 0.0000 0.1408
vn -0.9999 0.0000 -0.0154
vn 0.5677 0.0000 0.8232
vn -0.4701 0.0000 0.8826
vn 0.9997 0.0000 0.0259
vn 0.0753 0.0000 0.9972
vn -0.9743 0.0000 0.2253
vn 0.9317 0.0000 -0.3631
vn 0.0216 0.0000 -0.9998
vn -0.9920 0.0000 -0.1265
vn 0.0008 0.0000 -1.0000
vn -0.3118 0.0000 -0.9501
vn 0.8761 0.0000 -0.4821
vn 0.0227 0.0000 -0.9997
vn -0.7374 0.0000 -0.6755
vn 0.3412 0.0000 -0.9400
vn -0.0383 0.0000 -0.9993
vn 0.9999 0.0000 0.0115
vn -0.9656 0.0000 -0.2599
vn 0.8595 0.0000 0.5111
vn -0.9536 0.0000 0.3011
vn 0.0308 0.0000 0.9995
vn -0.3945 0.0000 0.9189
vn 0.9487 0.0000 0.3163
vn 0.3843 0.0000 0.9232
vn -0.0224 0.0000 0.9997
vn -0.9457 0.0000 0.3250
vn -0.0901 0.0000 0.9959
vn 0.1306 0.0000 0.9914
vn 1.0000 0.0000 0.0075
vn -0.9998 0.0000 -0.0185
vn -0.0799 0.0000 -0.9968
vn 0.4889 0.0000 -0.8723
vn -0.5860 0.0000 -0.8103
vn 0.9962 0.0000 0.0870
vn -0.9900 0.0000 0.1410
vn 0.9421 0.0000 0.3352
vn -0.8985 0.0000 0.4389
vn 0.9964 0.0000 -0.0851
vn -1.0000 0.0000 0.0077
vn 0.9935 0.0000 -0.1139
vn -0.9927 0.0000 -0.1205
vn -0.1814 0.0000 -0.9834
vn 0.1172 0.0000 -0.9931
vn -0.2233 0.0000 -0.9748
vn 0.2210 0.0000 -0.9753
vn -0.0904 0.0000 -0.9959
vn 0.0000 1.0000 -0.0000
usemtl BackMat.001
s off
f 225/1/1 219/2/1 208/3/1
f 228/4/1 235/5/1 241/6/1
f 215/7/1 206/8/1 214/9/1
f 201/10/1 204/11/1 200/12/1
f 244/13/1 242/14/1 228/4/1
f 226/15/1 246/16/1 233/17/1
f 221/18/1 201/10/1 220/19/1
f 230/20/1 232/21/1 234/22/1
f 240/23/1 246/16/1 252/24/1
f 201/10/1 200/12/1 191/25/1
f 260/26/1 244/13/1 228/4/1
f 225/1/1 208/3/1 222/27/1
f 237/28/1 239/29/1 236/30/1
f 205/31/1 215/7/1 210/32/1
f 216/33/1 223/34/1 211/35/1
f 234/22/1 233/17/1 240/23/1
f 203/36/1 193/37/1 197/38/1
f 210/32/1 218/39/1 212/40/1
f 211/35/1 220/19/1 201/10/1
f 225/1/1 224/41/1 219/2/1
f 248/42/1 262/43/1 250/44/1
f 206/8/1 192/45/1 203/36/1
f 191/25/1 196/46/1 189/47/1
f 200/12/1 196/46/1 191/25/1
f 260/26/1 228/4/1 241/6/1
f 206/8/1 215/7/1 205/31/1
f 252/24/1 246/16/1 249/48/1
f 252/24/1 249/48/1 261/49/1
f 204/11/1 222/27/1 208/3/1
f 242/14/1 224/41/1 225/1/1
f 219/2/1 214/9/1 209/50/1
f 222/27/1 204/11/1 221/18/1
f 233/17/1 234/22/1 232/21/1
f 243/51/1 224/41/1 242/14/1
f 233/17/1 246/16/1 240/23/1
f 246/16/1 226/15/1 243/51/1
f 251/52/1 261/49/1 249/48/1
f 210/32/1 215/7/1 218/39/1
f 209/50/1 214/9/1 206/8/1
f 192/45/1 205/31/1 198/53/1
f 205/31/1 192/45/1 206/8/1
f 197/38/1 193/37/1 194/54/1
f 208/3/1 219/2/1 209/50/1
f 241/6/1 235/5/1 239/29/1
f 224/41/1 243/51/1 226/15/1
f 201/10/1 221/18/1 204/11/1
f 262/43/1 248/42/1 260/26/1
f 244/13/1 260/26/1 248/42/1
f 250/44/1 262/43/1 256/55/1
f 203/36/1 192/45/1 193/37/1
f 254/56/1 261/49/1 251/52/1
f 220/19/1 211/35/1 223/34/1
f 258/57/1 260/26/1 241/6/1
f 228/4/1 242/14/1 225/1/1
f 236/30/1 239/29/1 235/5/1
f 116/58/2 56/59/2 113/60/2 190/61/2
f 44/62/3 45/63/3 102/64/3 101/65/3
f 45/63/4 121/66/4 195/67/4 102/64/4
f 54/68/5 55/69/5 112/70/5 111/71/5
f 46/72/6 47/73/6 104/74/6 103/75/6
f 125/76/7 44/62/7 101/65/7 199/77/7
f 53/78/8 54/68/8 111/71/8 110/79/8
f 56/59/9 128/80/9 202/81/9 113/60/9
f 47/73/10 48/82/10 105/83/10 104/74/10
f 52/84/11 53/78/11 110/79/11 109/85/11
f 42/86/12 43/87/12 100/88/12 99/89/12
f 48/82/13 133/90/13 207/91/13 105/83/13
f 51/92/14 52/84/14 109/85/14 108/93/14
f 49/94/15 50/95/15 107/96/15 106/97/15
f 41/98/16 42/86/16 99/89/16 98/99/16
f 50/95/17 51/92/17 108/93/17 107/96/17
f 57/100/18 1/101/18 58/102/18 114/103/18
f 139/104/19 41/98/19 98/99/19 213/105/19
f 37/106/20 38/107/20 95/108/20 94/109/20
f 1/101/21 143/110/21 217/111/21 58/102/21
f 39/112/22 40/113/22 97/114/22 96/115/22
f 38/107/23 39/112/23 96/115/23 95/108/23
f 36/116/24 37/106/24 94/109/24 93/117/24
f 4/118/25 5/119/25 62/120/25 61/121/25
f 5/119/26 6/122/26 63/123/26 62/120/26
f 3/124/27 4/118/27 61/121/27 60/125/27
f 2/126/28 3/124/28 60/125/28 59/127/28
f 35/128/29 36/116/29 93/117/29 92/129/29
f 6/122/30 7/130/30 64/131/30 63/123/30
f 153/132/31 35/128/31 92/129/31 227/133/31
f 7/130/32 155/134/32 229/135/32 64/131/32
f 157/136/33 32/137/33 89/138/33 231/139/33
f 32/137/34 33/140/34 90/141/34 89/138/34
f 30/142/35 31/143/35 88/144/35 87/145/35
f 9/146/36 10/147/36 67/148/36 66/149/36
f 10/147/37 164/150/37 238/151/37 67/148/37
f 11/152/38 12/153/38 69/154/38 68/155/38
f 33/140/39 34/156/39 91/157/39 90/141/39
f 8/158/40 9/146/40 66/149/40 65/159/40
f 29/160/41 30/142/41 87/145/41 86/161/41
f 12/153/42 13/162/42 70/163/42 69/154/42
f 21/164/43 22/165/43 79/166/43 78/167/43
f 171/168/44 21/164/44 78/167/44 245/169/44
f 22/165/45 173/170/45 247/171/45 79/166/45
f 19/172/46 20/173/46 77/174/46 76/175/46
f 23/176/47 24/177/47 81/178/47 80/179/47
f 18/180/48 19/172/48 76/175/48 75/181/48
f 24/177/49 25/182/49 82/183/49 81/178/49
f 179/184/50 29/160/50 86/161/50 253/185/50
f 25/182/51 181/186/51 255/187/51 82/183/51
f 183/188/52 18/180/52 75/181/52 257/189/52
f 13/162/53 185/190/53 259/191/53 70/163/53
f 14/192/54 15/193/54 72/194/54 71/195/54
f 27/196/55 28/197/55 85/198/55 84/199/55
f 26/200/56 27/196/56 84/199/56 83/201/56
f 16/202/57 17/203/57 74/204/57 73/205/57
f 15/193/58 16/202/58 73/205/58 72/194/58
usemtl FrontMat.001
f 151/206/59 134/207/59 145/208/59
f 154/209/59 167/210/59 161/211/59
f 141/212/59 140/213/59 132/214/59
f 127/215/59 126/216/59 130/217/59
f 170/218/59 154/209/59 168/219/59
f 152/220/59 159/221/59 172/222/59
f 147/223/59 146/224/59 127/215/59
f 156/225/59 160/226/59 158/227/59
f 166/228/59 178/229/59 172/222/59
f 127/215/59 117/230/59 126/216/59
f 186/231/59 154/209/59 170/218/59
f 151/206/59 148/232/59 134/207/59
f 163/233/59 162/234/59 165/235/59
f 131/236/59 136/237/59 141/212/59
f 142/238/59 137/239/59 149/240/59
f 160/226/59 166/228/59 159/221/59
f 129/241/59 123/242/59 119/243/59
f 136/237/59 138/244/59 144/245/59
f 137/239/59 127/215/59 146/224/59
f 151/206/59 145/208/59 150/246/59
f 174/247/59 176/248/59 188/249/59
f 132/214/59 129/241/59 118/250/59
f 117/230/59 115/251/59 122/252/59
f 126/216/59 117/230/59 122/252/59
f 186/231/59 167/210/59 154/209/59
f 132/214/59 131/236/59 141/212/59
f 178/229/59 175/253/59 172/222/59
f 178/229/59 187/254/59 175/253/59
f 130/217/59 134/207/59 148/232/59
f 168/219/59 151/206/59 150/246/59
f 145/208/59 135/255/59 140/213/59
f 148/232/59 147/223/59 130/217/59
f 159/221/59 158/227/59 160/226/59
f 169/256/59 168/219/59 150/246/59
f 159/221/59 166/228/59 172/222/59
f 172/222/59 169/256/59 152/220/59
f 177/257/59 175/253/59 187/254/59
f 136/237/59 144/245/59 141/212/59
f 135/255/59 132/214/59 140/213/59
f 118/250/59 124/258/59 131/236/59
f 131/236/59 132/214/59 118/250/59
f 123/242/59 120/259/59 119/243/59
f 134/207/59 135/255/59 145/208/59
f 167/210/59 165/235/59 161/211/59
f 150/246/59 152/220/59 169/256/59
f 127/215/59 130/217/59 147/223/59
f 188/249/59 186/231/59 174/247/59
f 170/218/59 174/247/59 186/231/59
f 176/248/59 182/260/59 188/249/59
f 129/241/59 119/243/59 118/250/59
f 180/261/59 177/257/59 187/254/59
f 146/224/59 149/240/59 137/239/59
f 184/262/59 167/210/59 186/231/59
f 154/209/59 151/206/59 168/219/59
f 162/234/59 161/211/59 165/235/59
