# Blender v2.83.1 OBJ File: 'jigsaw-96x54-3-step2.blend'
# www.blender.org
mtllib piece.2796.mtl
o path5592
v -0.563282 0.037500 0.310613
v -0.578409 0.037500 0.195993
v -0.557484 0.037500 0.122832
v -0.485313 0.037500 0.122339
v -0.387867 0.037500 0.152781
v -0.301434 0.037500 0.154191
v -0.256065 0.037500 0.086561
v -0.256922 0.037500 -0.010238
v -0.302935 0.037500 -0.076376
v -0.387482 0.037500 -0.072668
v -0.481871 0.037500 -0.042546
v -0.551870 0.037500 -0.050087
v -0.572971 0.037500 -0.139326
v -0.559603 0.037500 -0.274133
v -0.515171 0.037500 -0.498512
v -0.320509 0.037500 -0.464107
v -0.204088 0.037500 -0.455778
v -0.128222 0.037500 -0.477983
v -0.124056 0.037500 -0.542624
v -0.150328 0.037500 -0.626863
v -0.147652 0.037500 -0.699115
v -0.076605 0.037500 -0.733495
v 0.022438 0.037500 -0.726942
v 0.089148 0.037500 -0.682093
v 0.084015 0.037500 -0.605969
v 0.050802 0.037500 -0.523210
v 0.054089 0.037500 -0.462837
v 0.138473 0.037500 -0.445483
v 0.486526 0.037500 -0.498512
v 0.411877 0.037500 -0.160137
v 0.423279 0.037500 -0.077762
v 0.482367 0.037500 -0.073603
v 0.567873 0.037500 -0.103028
v 0.649385 0.037500 -0.101748
v 0.700922 0.037500 -0.026698
v 0.714195 0.037500 0.080290
v 0.685347 0.037500 0.156160
v 0.616508 0.037500 0.158650
v 0.533798 0.037500 0.128648
v 0.469334 0.037500 0.127827
v 0.446508 0.037500 0.199376
v 0.453819 0.037500 0.312545
v 0.486527 0.037500 0.503398
v 0.126745 0.037500 0.438033
v 0.036078 0.037500 0.451108
v 0.026127 0.037500 0.508886
v 0.054260 0.037500 0.590379
v 0.058165 0.037500 0.665847
v -0.004570 0.037500 0.710516
v -0.096783 0.037500 0.719412
v -0.161423 0.037500 0.692517
v -0.160580 0.037500 0.633966
v -0.132853 0.037500 0.564438
v -0.135981 0.037500 0.508763
v -0.209999 0.037500 0.485160
v -0.324114 0.037500 0.485391
v -0.515171 0.037500 0.503398
v -0.563282 -0.037500 0.310613
v -0.578409 -0.037498 0.195993
v -0.557484 -0.037500 0.122832
v -0.485313 -0.037500 0.122339
v -0.387867 -0.037500 0.152781
v -0.301434 -0.037500 0.154191
v -0.256065 -0.037500 0.086561
v -0.256922 -0.037500 -0.010238
v -0.302935 -0.037500 -0.076376
v -0.387482 -0.037498 -0.072668
v -0.481871 -0.037500 -0.042546
v -0.551870 -0.037498 -0.050087
v -0.572971 -0.037500 -0.139326
v -0.559603 -0.037500 -0.274133
v -0.515171 -0.037498 -0.498512
v -0.320509 -0.037498 -0.464107
v -0.204088 -0.037500 -0.455778
v -0.128222 -0.037500 -0.477983
v -0.124056 -0.037500 -0.542624
v -0.150328 -0.037500 -0.626863
v -0.147652 -0.037500 -0.699115
v -0.076605 -0.037500 -0.733495
v 0.022438 -0.037500 -0.726942
v 0.089148 -0.037500 -0.682093
v 0.084015 -0.037498 -0.605969
v 0.050802 -0.037500 -0.523210
v 0.054089 -0.037500 -0.462837
v 0.138473 -0.037498 -0.445483
v 0.486526 -0.037500 -0.498512
v 0.411877 -0.037500 -0.160137
v 0.423279 -0.037500 -0.077762
v 0.482367 -0.037500 -0.073603
v 0.567873 -0.037500 -0.103028
v 0.649385 -0.037500 -0.101748
v 0.700922 -0.037500 -0.026698
v 0.714195 -0.037500 0.080290
v 0.685347 -0.037500 0.156160
v 0.616508 -0.037498 0.158650
v 0.533798 -0.037500 0.128648
v 0.469334 -0.037500 0.127827
v 0.446508 -0.037500 0.199376
v 0.453819 -0.037498 0.312545
v 0.486527 -0.037498 0.503398
v 0.126745 -0.037500 0.438033
v 0.036078 -0.037500 0.451108
v 0.026127 -0.037498 0.508886
v 0.054260 -0.037500 0.590379
v 0.058165 -0.037500 0.665847
v -0.004570 -0.037500 0.710516
v -0.096783 -0.037500 0.719412
v -0.161423 -0.037500 0.692517
v -0.160580 -0.037500 0.633966
v -0.132853 -0.037498 0.564438
v -0.135981 -0.037500 0.508763
v -0.209999 -0.037500 0.485160
v -0.324114 -0.037500 0.485391
v -0.515171 -0.037500 0.503398
v -0.563282 0.037500 0.310613
v -0.578409 0.037500 0.195993
v -0.557484 0.037500 0.122832
v -0.557484 0.037500 0.122832
v -0.551870 0.037500 -0.050087
v -0.551870 0.037500 -0.050087
v -0.572971 0.037500 -0.139326
v -0.559603 0.037500 -0.274133
v -0.485313 0.037500 0.122339
v -0.481871 0.037500 -0.042546
v -0.515171 0.037500 0.503398
v -0.515171 0.037500 0.503398
v -0.515171 0.037500 -0.498512
v -0.515171 0.037500 -0.498512
v -0.387867 0.037500 0.152781
v -0.387482 0.037500 -0.072668
v -0.324114 0.037500 0.485391
v -0.320509 0.037500 -0.464107
v -0.301434 0.037500 0.154191
v -0.302935 0.037500 -0.076376
v -0.209999 0.037500 0.485160
v -0.204088 0.037500 -0.455778
v -0.256922 0.037500 -0.010238
v -0.256065 0.037500 0.086561
v -0.135981 0.037500 0.508763
v -0.135981 0.037500 0.508763
v -0.128222 0.037500 -0.477983
v -0.128222 0.037500 -0.477983
v -0.096783 0.037500 0.719412
v -0.161423 0.037500 0.692517
v -0.161423 0.037500 0.692517
v -0.160580 0.037500 0.633966
v -0.132853 0.037500 0.564438
v -0.124056 0.037500 -0.542624
v -0.150328 0.037500 -0.626863
v -0.147652 0.037500 -0.699115
v -0.147652 0.037500 -0.699115
v -0.076605 0.037500 -0.733495
v -0.004570 0.037500 0.710516
v 0.022438 0.037500 -0.726942
v 0.058165 0.037500 0.665847
v 0.089148 0.037500 -0.682093
v 0.054260 0.037500 0.590379
v 0.026127 0.037500 0.508886
v 0.036078 0.037500 0.451108
v 0.036078 0.037500 0.451108
v 0.126745 0.037500 0.438033
v 0.050802 0.037500 -0.523210
v 0.054089 0.037500 -0.462837
v 0.054089 0.037500 -0.462837
v 0.084015 0.037500 -0.605969
v 0.138473 0.037500 -0.445483
v 0.486527 0.037500 0.503398
v 0.486527 0.037500 0.503398
v 0.453819 0.037500 0.312545
v 0.411877 0.037500 -0.160137
v 0.423279 0.037500 -0.077762
v 0.423279 0.037500 -0.077762
v 0.446508 0.037500 0.199376
v 0.482367 0.037500 -0.073603
v 0.469334 0.037500 0.127827
v 0.469334 0.037500 0.127827
v 0.486526 0.037500 -0.498512
v 0.486526 0.037500 -0.498512
v 0.533798 0.037500 0.128648
v 0.567873 0.037500 -0.103028
v 0.616508 0.037500 0.158650
v 0.649385 0.037500 -0.101748
v 0.685347 0.037500 0.156160
v 0.685347 0.037500 0.156160
v 0.700922 0.037500 -0.026698
v 0.714195 0.037500 0.080290
v -0.563282 -0.037500 0.310613
v -0.578409 -0.037498 0.195993
v -0.557484 -0.037500 0.122832
v -0.557484 -0.037500 0.122832
v -0.551870 -0.037498 -0.050087
v -0.551870 -0.037498 -0.050087
v -0.572971 -0.037500 -0.139326
v -0.559603 -0.037500 -0.274133
v -0.485313 -0.037500 0.122339
v -0.481871 -0.037500 -0.042546
v -0.515171 -0.037500 0.503398
v -0.515171 -0.037500 0.503398
v -0.515171 -0.037498 -0.498512
v -0.515171 -0.037498 -0.498512
v -0.387867 -0.037500 0.152781
v -0.387482 -0.037498 -0.072668
v -0.324114 -0.037500 0.485391
v -0.320509 -0.037498 -0.464107
v -0.301434 -0.037500 0.154191
v -0.302935 -0.037500 -0.076376
v -0.209999 -0.037500 0.485160
v -0.204088 -0.037500 -0.455778
v -0.256922 -0.037500 -0.010238
v -0.256065 -0.037500 0.086561
v -0.135981 -0.037500 0.508763
v -0.135981 -0.037500 0.508763
v -0.128222 -0.037500 -0.477983
v -0.128222 -0.037500 -0.477983
v -0.096783 -0.037500 0.719412
v -0.161423 -0.037500 0.692517
v -0.161423 -0.037500 0.692517
v -0.160580 -0.037500 0.633966
v -0.132853 -0.037498 0.564438
v -0.124056 -0.037500 -0.542624
v -0.150328 -0.037500 -0.626863
v -0.147652 -0.037500 -0.699115
v -0.147652 -0.037500 -0.699115
v -0.076605 -0.037500 -0.733495
v -0.004570 -0.037500 0.710516
v 0.022438 -0.037500 -0.726942
v 0.058165 -0.037500 0.665847
v 0.089148 -0.037500 -0.682093
v 0.054260 -0.037500 0.590379
v 0.026127 -0.037498 0.508886
v 0.036078 -0.037500 0.451108
v 0.036078 -0.037500 0.451108
v 0.126745 -0.037500 0.438033
v 0.050802 -0.037500 -0.523210
v 0.054089 -0.037500 -0.462837
v 0.054089 -0.037500 -0.462837
v 0.084015 -0.037498 -0.605969
v 0.138473 -0.037498 -0.445483
v 0.486527 -0.037498 0.503398
v 0.486527 -0.037498 0.503398
v 0.453819 -0.037498 0.312545
v 0.411877 -0.037500 -0.160137
v 0.423279 -0.037500 -0.077762
v 0.423279 -0.037500 -0.077762
v 0.446508 -0.037500 0.199376
v 0.482367 -0.037500 -0.073603
v 0.469334 -0.037500 0.127827
v 0.469334 -0.037500 0.127827
v 0.486526 -0.037500 -0.498512
v 0.486526 -0.037500 -0.498512
v 0.533798 -0.037500 0.128648
v 0.567873 -0.037500 -0.103028
v 0.616508 -0.037498 0.158650
v 0.649385 -0.037500 -0.101748
v 0.685347 -0.037500 0.156160
v 0.685347 -0.037500 0.156160
v 0.700922 -0.037500 -0.026698
v 0.714195 -0.037500 0.080290
vt 0.500000 0.500000
vt 0.500000 0.500000
vt 0.500000 0.500000
vt 0.500000 0.500000
vt 0.500000 0.500000
vt 0.500000 0.500000
vt 0.500000 0.500000
vt 0.500000 0.500000
vt 0.500000 0.500000
vt 0.500000 0.500000
vt 0.500000 0.500000
vt 0.500000 0.500000
vt 0.500000 0.500000
vt 0.500000 0.500000
vt 0.500000 0.500000
vt 0.500000 0.500000
vt 0.500000 0.500000
vt 0.500000 0.500000
vt 0.500000 0.500000
vt 0.500000 0.500000
vt 0.500000 0.500000
vt 0.500000 0.500000
vt 0.500000 0.500000
vt 0.500000 0.500000
vt 0.500000 0.500000
vt 0.500000 0.500000
vt 0.500000 0.500000
vt 0.500000 0.500000
vt 0.500000 0.500000
vt 0.500000 0.500000
vt 0.500000 0.500000
vt 0.500000 0.500000
vt 0.500000 0.500000
vt 0.500000 0.500000
vt 0.500000 0.500000
vt 0.500000 0.500000
vt 0.500000 0.500000
vt 0.500000 0.500000
vt 0.500000 0.500000
vt 0.500000 0.500000
vt 0.500000 0.500000
vt 0.500000 0.500000
vt 0.500000 0.500000
vt 0.500000 0.500000
vt 0.500000 0.500000
vt 0.500000 0.500000
vt 0.500000 0.500000
vt 0.500000 0.500000
vt 0.500000 0.500000
vt 0.500000 0.500000
vt 0.500000 0.500000
vt 0.500000 0.500000
vt 0.500000 0.500000
vt 0.500000 0.500000
vt 0.500000 0.500000
vt 0.500000 0.500000
vt 0.500000 0.500000
vt 0.500000 0.500000
vt 0.500000 0.500000
vt 0.500000 0.500000
vt 0.500000 0.500000
vt 0.500000 0.500000
vt 0.500000 0.500000
vt 0.500000 0.500000
vt 0.500000 0.500000
vt 0.500000 0.500000
vt 0.500000 0.500000
vt 0.500000 0.500000
vt 0.500000 0.500000
vt 0.500000 0.500000
vt 0.500000 0.500000
vt 0.500000 0.500000
vt 0.500000 0.500000
vt 0.500000 0.500000
vt 0.500000 0.500000
vt 0.500000 0.500000
vt 0.500000 0.500000
vt 0.500000 0.500000
vt 0.500000 0.500000
vt 0.500000 0.500000
vt 0.500000 0.500000
vt 0.500000 0.500000
vt 0.500000 0.500000
vt 0.500000 0.500000
vt 0.500000 0.500000
vt 0.500000 0.500000
vt 0.500000 0.500000
vt 0.500000 0.500000
vt 0.500000 0.500000
vt 0.500000 0.500000
vt 0.500000 0.500000
vt 0.500000 0.500000
vt 0.500000 0.500000
vt 0.500000 0.500000
vt 0.500000 0.500000
vt 0.500000 0.500000
vt 0.500000 0.500000
vt 0.500000 0.500000
vt 0.500000 0.500000
vt 0.500000 0.500000
vt 0.500000 0.500000
vt 0.500000 0.500000
vt 0.500000 0.500000
vt 0.500000 0.500000
vt 0.500000 0.500000
vt 0.500000 0.500000
vt 0.500000 0.500000
vt 0.500000 0.500000
vt 0.500000 0.500000
vt 0.500000 0.500000
vt 0.500000 0.500000
vt 0.500000 0.500000
vt 0.500000 0.500000
vt 0.500000 0.500000
vt 0.500000 0.500000
vt 0.500000 0.500000
vt 0.500000 0.500000
vt 0.500000 0.500000
vt 0.500000 0.500000
vt 0.500000 0.500000
vt 0.500000 0.500000
vt 0.500000 0.500000
vt 0.500000 0.500000
vt 0.500000 0.500000
vt 0.500000 0.500000
vt 0.500000 0.500000
vt 0.500000 0.500000
vt 0.500000 0.500000
vt 0.500000 0.500000
vt 0.500000 0.500000
vt 0.500000 0.500000
vt 0.500000 0.500000
vt 0.500000 0.500000
vt 0.500000 0.500000
vt 0.500000 0.500000
vt 0.500000 0.500000
vt 0.500000 0.500000
vt 0.500000 0.500000
vt 0.500000 0.500000
vt 0.500000 0.500000
vt 0.500000 0.500000
vt 0.500000 0.500000
vt 0.500000 0.500000
vt 0.500000 0.500000
vt 0.500000 0.500000
vt 0.500000 0.500000
vt 0.500000 0.500000
vt 0.500000 0.500000
vt 0.500000 0.500000
vt 0.500000 0.500000
vt 0.500000 0.500000
vt 0.500000 0.500000
vt 0.500000 0.500000
vt 0.500000 0.500000
vt 0.500000 0.500000
vt 0.500000 0.500000
vt 0.500000 0.500000
vt 0.500000 0.500000
vt 0.500000 0.500000
vt 0.500000 0.500000
vt 0.500000 0.500000
vt 0.500000 0.500000
vt 0.500000 0.500000
vt 0.500000 0.500000
vt 0.500000 0.500000
vt 0.500000 0.500000
vt 0.500000 0.500000
vt 0.500000 0.500000
vt 0.500000 0.500000
vt 0.500000 0.500000
vt 0.500000 0.500000
vt 0.500000 0.500000
vt 0.500000 0.500000
vt 0.500000 0.500000
vt 0.500000 0.500000
vt 0.500000 0.500000
vt 0.500000 0.500000
vt 0.500000 0.500000
vt 0.500000 0.500000
vt 0.500000 0.500000
vt 0.500000 0.500000
vt 0.500000 0.500000
vt 0.500000 0.500000
vt 0.500000 0.500000
vt 0.500000 0.500000
vt 0.500000 0.500000
vt 0.500000 0.500000
vt 0.500000 0.500000
vt 0.500000 0.500000
vt 0.500000 0.500000
vt 0.500000 0.500000
vt 0.500000 0.500000
vt 0.500000 0.500000
vt 0.500000 0.500000
vt 0.500000 0.500000
vt 0.500000 0.500000
vt 0.500000 0.500000
vt 0.500000 0.500000
vt 0.500000 0.500000
vt 0.500000 0.500000
vt 0.500000 0.500000
vt 0.124787 0.455809
vt 0.124629 0.452439
vt 0.125257 0.452500
vt 0.122667 0.463784
vt 0.120573 0.460602
vt 0.124642 0.459364
vt 0.118229 0.460609
vt 0.118545 0.462411
vt 0.117779 0.464132
vt 0.116588 0.463852
vt 0.120095 0.440481
vt 0.120888 0.442941
vt 0.118480 0.443571
vt 0.114771 0.459431
vt 0.118214 0.459012
vt 0.118917 0.458173
vt 0.115263 0.451096
vt 0.120626 0.445614
vt 0.127086 0.456169
vt 0.126334 0.456218
vt 0.127443 0.454855
vt 0.118168 0.442041
vt 0.118982 0.440236
vt 0.113949 0.455895
vt 0.112337 0.455228
vt 0.112430 0.453523
vt 0.121482 0.445825
vt 0.125000 0.444444
vt 0.124449 0.450879
vt 0.126117 0.451886
vt 0.125459 0.455732
vt 0.119924 0.458189
vt 0.120259 0.462347
vt 0.121266 0.464032
vt 0.115127 0.452772
vt 0.114583 0.462963
vt 0.118540 0.463745
vt 0.114528 0.455953
vt 0.114526 0.452956
vt 0.120611 0.459039
vt 0.118488 0.444762
vt 0.120582 0.444521
vt 0.113679 0.452436
vt 0.124556 0.457212
vt 0.127375 0.453024
vt 0.113226 0.456408
vt 0.125000 0.462963
vt 0.118194 0.440769
vt 0.117744 0.445184
vt 0.114773 0.457321
vt 0.116568 0.445049
vt 0.120338 0.463641
vt 0.112617 0.456423
vt 0.112894 0.452364
vt 0.120875 0.441434
vt 0.114583 0.444444
vt 0.126909 0.451791
vn 0.0000 -1.0000 -0.0000
vn -0.9914 0.0000 0.1308
vn -0.9614 0.0000 -0.2750
vn -0.9732 0.0000 0.2301
vn -0.9951 0.0000 -0.0987
vn -0.0068 0.0000 -1.0000
vn -0.1071 0.0000 0.9942
vn -0.9702 0.0000 0.2421
vn -0.9810 0.0000 -0.1942
vn 0.2982 0.0000 -0.9545
vn 0.3040 0.0000 0.9527
vn 0.0938 0.0000 0.9956
vn 0.1740 0.0000 -0.9847
vn 0.0163 0.0000 -0.9999
vn 0.0438 0.0000 0.9990
vn 0.0020 0.0000 1.0000
vn 0.0714 0.0000 -0.9975
vn -0.8209 0.0000 0.5711
vn -0.8305 0.0000 -0.5571
vn -1.0000 0.0000 0.0088
vn -0.3038 0.0000 0.9527
vn -0.2809 0.0000 -0.9597
vn -0.3841 0.0000 0.9233
vn -0.9999 0.0000 -0.0144
vn -0.9289 0.0000 -0.3704
vn -0.9547 0.0000 0.2977
vn -0.9993 0.0000 -0.0370
vn -0.4356 0.0000 -0.9001
vn -0.9984 0.0000 0.0561
vn -0.9979 0.0000 -0.0643
vn 0.0960 0.0000 0.9954
vn 0.0660 0.0000 -0.9978
vn 0.5800 0.0000 0.8146
vn 0.5579 0.0000 -0.8299
vn 0.9987 0.0000 -0.0517
vn 0.9453 0.0000 -0.3263
vn 0.9855 0.0000 0.1697
vn 0.1427 0.0000 0.9898
vn 0.9985 0.0000 -0.0544
vn 0.9281 0.0000 0.3724
vn 0.9977 0.0000 0.0673
vn 0.2014 0.0000 -0.9795
vn -0.1788 0.0000 0.9839
vn 0.9856 0.0000 -0.1689
vn 0.9906 0.0000 -0.1371
vn 0.9979 0.0000 -0.0645
vn 0.0702 0.0000 -0.9975
vn 0.9527 0.0000 0.3039
vn 0.9765 0.0000 0.2154
vn -0.1506 0.0000 -0.9886
vn -0.0127 0.0000 0.9999
vn -0.3254 0.0000 -0.9456
vn -0.3410 0.0000 0.9401
vn 0.0157 0.0000 -0.9999
vn 0.0361 0.0000 0.9993
vn 0.8244 0.0000 -0.5661
vn 0.9347 0.0000 0.3554
vn 0.9924 0.0000 -0.1231
vn 0.0000 1.0000 0.0000
usemtl BackMat.001
s off
f 213/1/1 234/2/1 235/3/1
f 194/4/1 204/5/1 202/6/1
f 201/7/1 188/8/1 195/9/1
f 188/8/1 201/7/1 187/10/1
f 257/11/1 251/12/1 252/13/1
f 201/7/1 205/14/1 203/15/1
f 210/16/1 243/17/1 233/18/1
f 222/19/1 224/20/1 221/21/1
f 251/12/1 258/22/1 253/23/1
f 219/24/1 225/25/1 215/26/1
f 242/27/1 238/28/1 249/29/1
f 234/2/1 220/30/1 237/31/1
f 209/32/1 243/17/1 210/16/1
f 251/12/1 257/11/1 258/22/1
f 196/33/1 193/34/1 202/6/1
f 221/21/1 237/31/1 220/30/1
f 210/16/1 231/35/1 205/14/1
f 187/10/1 203/15/1 197/36/1
f 195/9/1 188/8/1 189/37/1
f 211/38/1 230/39/1 219/24/1
f 187/10/1 201/7/1 203/15/1
f 206/40/1 235/3/1 209/32/1
f 211/38/1 231/35/1 230/39/1
f 243/17/1 246/41/1 247/42/1
f 230/39/1 229/43/1 219/24/1
f 235/3/1 238/28/1 209/32/1
f 204/5/1 208/44/1 206/40/1
f 242/27/1 209/32/1 238/28/1
f 237/31/1 221/21/1 226/45/1
f 219/24/1 215/26/1 218/46/1
f 213/1/1 235/3/1 206/40/1
f 224/20/1 226/45/1 221/21/1
f 202/6/1 204/5/1 206/40/1
f 208/44/1 213/1/1 206/40/1
f 199/47/1 204/5/1 194/4/1
f 253/23/1 258/22/1 255/48/1
f 220/30/1 234/2/1 213/1/1
f 225/25/1 219/24/1 229/43/1
f 252/13/1 251/12/1 246/41/1
f 243/17/1 245/49/1 233/18/1
f 205/14/1 231/35/1 207/50/1
f 207/50/1 231/35/1 211/38/1
f 210/16/1 233/18/1 231/35/1
f 233/18/1 245/49/1 241/51/1
f 191/52/1 193/34/1 196/33/1
f 218/46/1 215/26/1 216/53/1
f 245/49/1 243/17/1 247/42/1
f 225/25/1 229/43/1 227/54/1
f 209/32/1 242/27/1 243/17/1
f 193/34/1 194/4/1 202/6/1
f 247/42/1 246/41/1 251/12/1
f 257/11/1 252/13/1 254/55/1
f 203/15/1 205/14/1 207/50/1
f 233/18/1 241/51/1 239/56/1
f 237/31/1 226/45/1 228/57/1
f 1/58/2 2/59/2 59/60/2 58/61/2
f 2/59/3 118/62/3 190/63/3 59/60/3
f 120/64/4 13/65/4 70/66/4 192/67/4
f 13/65/5 14/68/5 71/69/5 70/66/5
f 3/70/6 4/71/6 61/72/6 60/73/6
f 11/74/7 12/75/7 69/76/7 68/77/7
f 126/78/8 1/58/8 58/61/8 198/79/8
f 14/68/9 128/80/9 200/81/9 71/69/9
f 4/71/10 5/82/10 62/83/10 61/72/10
f 10/84/11 11/74/11 68/77/11 67/85/11
f 56/86/12 57/87/12 114/88/12 113/89/12
f 15/90/13 16/91/13 73/92/13 72/93/13
f 5/82/14 6/94/14 63/95/14 62/83/14
f 9/96/15 10/84/15 67/85/15 66/97/15
f 55/98/16 56/86/16 113/89/16 112/99/16
f 16/91/17 17/100/17 74/101/17 73/92/17
f 8/102/18 9/96/18 66/97/18 65/103/18
f 6/94/19 7/104/19 64/105/19 63/95/19
f 7/104/20 8/102/20 65/103/20 64/105/20
f 140/106/21 55/98/21 112/99/21 212/107/21
f 17/100/22 142/108/22 214/109/22 74/101/22
f 50/110/23 145/111/23 217/112/23 107/113/23
f 51/114/24 52/115/24 109/116/24 108/117/24
f 52/115/25 53/118/25 110/119/25 109/116/25
f 19/120/26 20/121/26 77/122/26 76/123/26
f 20/121/27 151/124/27 223/125/27 77/122/27
f 21/126/28 22/127/28 79/128/28 78/129/28
f 53/118/29 54/130/29 111/131/29 110/119/29
f 18/132/30 19/120/30 76/123/30 75/133/30
f 49/134/31 50/110/31 107/113/31 106/135/31
f 22/127/32 23/136/32 80/137/32 79/128/32
f 48/138/33 49/134/33 106/135/33 105/139/33
f 23/136/34 24/140/34 81/141/34 80/137/34
f 47/142/35 48/138/35 105/139/35 104/143/35
f 46/144/36 47/142/36 104/143/36 103/145/36
f 160/146/37 46/144/37 103/145/37 232/147/37
f 44/148/38 45/149/38 102/150/38 101/151/38
f 26/152/39 164/153/39 236/154/39 83/155/39
f 25/156/40 26/152/40 83/155/40 82/157/40
f 24/140/41 25/156/41 82/157/41 81/141/41
f 27/158/42 28/159/42 85/160/42 84/161/42
f 168/162/43 44/148/43 101/151/43 240/163/43
f 42/164/44 43/165/44 100/166/44 99/167/44
f 30/168/45 172/169/45 244/170/45 87/171/45
f 41/172/46 42/164/46 99/167/46 98/173/46
f 31/174/47 32/175/47 89/176/47 88/177/47
f 176/178/48 41/172/48 98/173/48 248/179/48
f 178/180/49 30/168/49 87/171/49 250/181/49
f 28/159/50 29/182/50 86/183/50 85/160/50
f 39/184/51 40/185/51 97/186/51 96/187/51
f 32/175/52 33/188/52 90/189/52 89/176/52
f 38/190/53 39/184/53 96/187/53 95/191/53
f 33/188/54 34/192/54 91/193/54 90/189/54
f 184/194/55 38/190/55 95/191/55 256/195/55
f 34/192/56 35/196/56 92/197/56 91/193/56
f 36/198/57 37/199/57 94/200/57 93/201/57
f 35/196/58 36/198/58 93/201/58 92/197/58
usemtl FrontMat.001
f 141/202/59 163/203/59 162/204/59
f 122/205/59 130/206/59 132/207/59
f 129/208/59 123/209/59 116/210/59
f 116/210/59 115/211/59 129/208/59
f 185/212/59 180/213/59 179/214/59
f 129/208/59 131/215/59 133/216/59
f 138/217/59 161/218/59 171/219/59
f 150/220/59 149/221/59 152/222/59
f 179/214/59 181/223/59 186/224/59
f 147/225/59 143/226/59 153/227/59
f 170/228/59 177/229/59 166/230/59
f 162/204/59 165/231/59 148/232/59
f 137/233/59 138/217/59 171/219/59
f 179/214/59 186/224/59 185/212/59
f 124/234/59 130/206/59 121/235/59
f 149/221/59 148/232/59 165/231/59
f 138/217/59 133/216/59 159/236/59
f 115/211/59 125/237/59 131/215/59
f 123/209/59 117/238/59 116/210/59
f 139/239/59 147/225/59 158/240/59
f 115/211/59 131/215/59 129/208/59
f 134/241/59 137/233/59 163/203/59
f 139/239/59 158/240/59 159/236/59
f 171/219/59 175/242/59 174/243/59
f 158/240/59 147/225/59 157/244/59
f 163/203/59 137/233/59 166/230/59
f 132/207/59 134/241/59 136/245/59
f 170/228/59 166/230/59 137/233/59
f 165/231/59 154/246/59 149/221/59
f 147/225/59 146/247/59 143/226/59
f 141/202/59 134/241/59 163/203/59
f 152/222/59 149/221/59 154/246/59
f 130/206/59 134/241/59 132/207/59
f 136/245/59 134/241/59 141/202/59
f 127/248/59 122/205/59 132/207/59
f 181/223/59 183/249/59 186/224/59
f 148/232/59 141/202/59 162/204/59
f 153/227/59 157/244/59 147/225/59
f 180/213/59 174/243/59 179/214/59
f 171/219/59 161/218/59 173/250/59
f 133/216/59 135/251/59 159/236/59
f 135/251/59 139/239/59 159/236/59
f 138/217/59 159/236/59 161/218/59
f 161/218/59 169/252/59 173/250/59
f 119/253/59 124/234/59 121/235/59
f 146/247/59 144/254/59 143/226/59
f 173/250/59 175/242/59 171/219/59
f 153/227/59 155/255/59 157/244/59
f 137/233/59 171/219/59 170/228/59
f 121/235/59 130/206/59 122/205/59
f 175/242/59 179/214/59 174/243/59
f 185/212/59 182/256/59 180/213/59
f 131/215/59 135/251/59 133/216/59
f 161/218/59 167/257/59 169/252/59
f 165/231/59 156/258/59 154/246/59
