# Blender v2.83.1 OBJ File: 'jigsaw-12x15-3-step2.blend'
# www.blender.org
mtllib piece.70.mtl
o path140_path140.001
v 0.439013 0.037500 -0.296563
v 0.425359 0.037500 -0.174229
v 0.442196 0.037500 -0.097695
v 0.502925 0.037500 -0.100981
v 0.587552 0.037500 -0.139243
v 0.667731 0.037500 -0.147916
v 0.718943 0.037500 -0.083548
v 0.731947 0.037500 0.012874
v 0.701336 0.037500 0.079252
v 0.628238 0.037500 0.074675
v 0.539959 0.037500 0.042970
v 0.470348 0.037500 0.049151
v 0.444145 0.037500 0.137952
v 0.449644 0.037500 0.273003
v 0.480921 0.037500 0.498225
v 0.123294 0.037500 0.459928
v 0.037668 0.037500 0.480608
v 0.036514 0.037500 0.540544
v 0.073737 0.037500 0.620768
v 0.082566 0.037500 0.694749
v 0.017585 0.037500 0.739383
v -0.081203 0.037500 0.745273
v -0.152434 0.037500 0.706448
v -0.154943 0.037500 0.624149
v -0.128300 0.037500 0.528465
v -0.132270 0.037500 0.456697
v -0.208397 0.037500 0.435707
v -0.325357 0.037500 0.450589
v -0.520988 0.037500 0.498225
v -0.553707 0.037500 0.135944
v -0.535076 0.037500 0.049622
v -0.482011 0.037500 0.049143
v -0.411556 0.037500 0.086882
v -0.347469 0.037500 0.094041
v -0.310346 0.037500 0.024363
v -0.308140 0.037500 -0.078270
v -0.345647 0.037500 -0.147435
v -0.421232 0.037500 -0.139030
v -0.507518 0.037500 -0.098236
v -0.570692 0.037500 -0.092549
v -0.586578 0.037500 -0.169033
v -0.569522 0.037500 -0.293002
v -0.520988 0.037500 -0.503473
v -0.314477 0.037500 -0.459333
v -0.192252 0.037500 -0.445418
v -0.115500 0.037500 -0.464505
v -0.117965 0.037500 -0.530205
v -0.154334 0.037500 -0.617121
v -0.159530 0.037500 -0.690100
v -0.090031 0.037500 -0.721108
v 0.011438 0.037500 -0.710575
v 0.080595 0.037500 -0.666045
v 0.075014 0.037500 -0.597683
v 0.039680 0.037500 -0.526128
v 0.041430 0.037500 -0.474636
v 0.126516 0.037500 -0.459602
v 0.480921 0.037500 -0.503473
v 0.439013 -0.037500 -0.296563
v 0.425359 -0.037500 -0.174229
v 0.442196 -0.037500 -0.097695
v 0.502925 -0.037500 -0.100981
v 0.587552 -0.037500 -0.139243
v 0.667731 -0.037500 -0.147916
v 0.718943 -0.037500 -0.083548
v 0.731947 -0.037500 0.012874
v 0.701336 -0.037498 0.079252
v 0.628238 -0.037500 0.074675
v 0.539959 -0.037500 0.042970
v 0.470348 -0.037500 0.049151
v 0.444145 -0.037498 0.137952
v 0.449644 -0.037500 0.273003
v 0.480921 -0.037500 0.498225
v 0.123294 -0.037500 0.459928
v 0.037668 -0.037500 0.480608
v 0.036514 -0.037500 0.540544
v 0.073737 -0.037500 0.620768
v 0.082566 -0.037500 0.694749
v 0.017585 -0.037500 0.739383
v -0.081203 -0.037500 0.745273
v -0.152434 -0.037500 0.706448
v -0.154943 -0.037498 0.624149
v -0.128300 -0.037500 0.528465
v -0.132270 -0.037500 0.456697
v -0.208397 -0.037500 0.435707
v -0.325357 -0.037500 0.450589
v -0.520988 -0.037500 0.498225
v -0.553707 -0.037500 0.135944
v -0.535076 -0.037500 0.049622
v -0.482011 -0.037500 0.049143
v -0.411556 -0.037500 0.086882
v -0.347469 -0.037500 0.094041
v -0.310346 -0.037498 0.024363
v -0.308140 -0.037500 -0.078270
v -0.345647 -0.037500 -0.147435
v -0.421232 -0.037500 -0.139030
v -0.507518 -0.037500 -0.098236
v -0.570692 -0.037500 -0.092549
v -0.586578 -0.037500 -0.169033
v -0.569522 -0.037498 -0.293002
v -0.520988 -0.037500 -0.503473
v -0.314477 -0.037500 -0.459333
v -0.192252 -0.037500 -0.445418
v -0.115500 -0.037500 -0.464505
v -0.117965 -0.037500 -0.530205
v -0.154334 -0.037500 -0.617121
v -0.159530 -0.037500 -0.690100
v -0.090031 -0.037500 -0.721108
v 0.011438 -0.037500 -0.710575
v 0.080595 -0.037500 -0.666045
v 0.075014 -0.037500 -0.597683
v 0.039680 -0.037498 -0.526128
v 0.041430 -0.037500 -0.474636
v 0.126516 -0.037500 -0.459602
v 0.480921 -0.037500 -0.503473
v -0.159530 0.037500 -0.690100
v -0.159530 0.037500 -0.690100
v -0.090031 0.037500 -0.721108
v 0.011438 0.037500 -0.710575
v 0.080595 0.037500 -0.666045
v 0.080595 0.037500 -0.666045
v -0.154334 0.037500 -0.617121
v 0.075014 0.037500 -0.597683
v -0.117965 0.037500 -0.530205
v 0.039680 0.037500 -0.526128
v -0.115500 0.037500 -0.464505
v -0.115500 0.037500 -0.464505
v 0.041430 0.037500 -0.474636
v 0.041430 0.037500 -0.474636
v -0.520988 0.037500 -0.503473
v -0.520988 0.037500 -0.503473
v -0.314477 0.037500 -0.459333
v 0.126516 0.037500 -0.459602
v 0.480921 0.037500 -0.503473
v 0.480921 0.037500 -0.503473
v -0.192252 0.037500 -0.445418
v 0.439013 0.037500 -0.296563
v -0.569522 0.037500 -0.293002
v 0.425359 0.037500 -0.174229
v -0.586578 0.037500 -0.169033
v 0.442196 0.037500 -0.097695
v 0.442196 0.037500 -0.097695
v -0.570692 0.037500 -0.092549
v -0.570692 0.037500 -0.092549
v -0.345647 0.037500 -0.147435
v -0.345647 0.037500 -0.147435
v -0.421232 0.037500 -0.139030
v 0.587552 0.037500 -0.139243
v 0.667731 0.037500 -0.147916
v 0.718943 0.037500 -0.083548
v -0.308140 0.037500 -0.078270
v 0.502925 0.037500 -0.100981
v -0.507518 0.037500 -0.098236
v 0.731947 0.037500 0.012874
v -0.310346 0.037500 0.024363
v 0.701336 0.037500 0.079252
v 0.701336 0.037500 0.079252
v -0.347469 0.037500 0.094041
v -0.347469 0.037500 0.094041
v 0.539959 0.037500 0.042970
v 0.470348 0.037500 0.049151
v 0.470348 0.037500 0.049151
v 0.628238 0.037500 0.074675
v -0.535076 0.037500 0.049622
v -0.535076 0.037500 0.049622
v -0.482011 0.037500 0.049143
v -0.411556 0.037500 0.086882
v 0.444145 0.037500 0.137952
v -0.553707 0.037500 0.135944
v 0.449644 0.037500 0.273003
v -0.520988 0.037500 0.498225
v -0.520988 0.037500 0.498225
v -0.325357 0.037500 0.450589
v -0.208397 0.037500 0.435707
v -0.132270 0.037500 0.456697
v -0.132270 0.037500 0.456697
v -0.128300 0.037500 0.528465
v 0.123294 0.037500 0.459928
v 0.037668 0.037500 0.480608
v 0.037668 0.037500 0.480608
v 0.480921 0.037500 0.498225
v 0.480921 0.037500 0.498225
v 0.036514 0.037500 0.540544
v -0.154943 0.037500 0.624149
v 0.073737 0.037500 0.620768
v 0.082566 0.037500 0.694749
v 0.082566 0.037500 0.694749
v -0.152434 0.037500 0.706448
v 0.017585 0.037500 0.739383
v -0.081203 0.037500 0.745273
v -0.159530 -0.037500 -0.690100
v -0.159530 -0.037500 -0.690100
v -0.090031 -0.037500 -0.721108
v 0.011438 -0.037500 -0.710575
v 0.080595 -0.037500 -0.666045
v 0.080595 -0.037500 -0.666045
v -0.154334 -0.037500 -0.617121
v 0.075014 -0.037500 -0.597683
v -0.117965 -0.037500 -0.530205
v 0.039680 -0.037498 -0.526128
v -0.115500 -0.037500 -0.464505
v -0.115500 -0.037500 -0.464505
v 0.041430 -0.037500 -0.474636
v 0.041430 -0.037500 -0.474636
v -0.520988 -0.037500 -0.503473
v -0.520988 -0.037500 -0.503473
v -0.314477 -0.037500 -0.459333
v 0.126516 -0.037500 -0.459602
v 0.480921 -0.037500 -0.503473
v 0.480921 -0.037500 -0.503473
v -0.192252 -0.037500 -0.445418
v 0.439013 -0.037500 -0.296563
v -0.569522 -0.037498 -0.293002
v 0.425359 -0.037500 -0.174229
v -0.586578 -0.037500 -0.169033
v 0.442196 -0.037500 -0.097695
v 0.442196 -0.037500 -0.097695
v -0.570692 -0.037500 -0.092549
v -0.570692 -0.037500 -0.092549
v -0.345647 -0.037500 -0.147435
v -0.345647 -0.037500 -0.147435
v -0.421232 -0.037500 -0.139030
v 0.587552 -0.037500 -0.139243
v 0.667731 -0.037500 -0.147916
v 0.718943 -0.037500 -0.083548
v -0.308140 -0.037500 -0.078270
v 0.502925 -0.037500 -0.100981
v -0.507518 -0.037500 -0.098236
v 0.731947 -0.037500 0.012874
v -0.310346 -0.037498 0.024363
v 0.701336 -0.037498 0.079252
v 0.701336 -0.037498 0.079252
v -0.347469 -0.037500 0.094041
v -0.347469 -0.037500 0.094041
v 0.539959 -0.037500 0.042970
v 0.470348 -0.037500 0.049151
v 0.470348 -0.037500 0.049151
v 0.628238 -0.037500 0.074675
v -0.535076 -0.037500 0.049622
v -0.535076 -0.037500 0.049622
v -0.482011 -0.037500 0.049143
v -0.411556 -0.037500 0.086882
v 0.444145 -0.037498 0.137952
v -0.553707 -0.037500 0.135944
v 0.449644 -0.037500 0.273003
v -0.520988 -0.037500 0.498225
v -0.520988 -0.037500 0.498225
v -0.325357 -0.037500 0.450589
v -0.208397 -0.037500 0.435707
v -0.132270 -0.037500 0.456697
v -0.132270 -0.037500 0.456697
v -0.128300 -0.037500 0.528465
v 0.123294 -0.037500 0.459928
v 0.037668 -0.037500 0.480608
v 0.037668 -0.037500 0.480608
v 0.480921 -0.037500 0.498225
v 0.480921 -0.037500 0.498225
v 0.036514 -0.037500 0.540544
v -0.154943 -0.037498 0.624149
v 0.073737 -0.037500 0.620768
v 0.082566 -0.037500 0.694749
v 0.082566 -0.037500 0.694749
v -0.152434 -0.037500 0.706448
v 0.017585 -0.037500 0.739383
v -0.081203 -0.037500 0.745273
vt 0.500000 0.500000
vt 0.500000 0.500000
vt 0.500000 0.500000
vt 0.500000 0.500000
vt 0.500000 0.500000
vt 0.500000 0.500000
vt 0.500000 0.500000
vt 0.500000 0.500000
vt 0.500000 0.500000
vt 0.500000 0.500000
vt 0.500000 0.500000
vt 0.500000 0.500000
vt 0.500000 0.500000
vt 0.500000 0.500000
vt 0.500000 0.500000
vt 0.500000 0.500000
vt 0.500000 0.500000
vt 0.500000 0.500000
vt 0.500000 0.500000
vt 0.500000 0.500000
vt 0.500000 0.500000
vt 0.500000 0.500000
vt 0.500000 0.500000
vt 0.500000 0.500000
vt 0.500000 0.500000
vt 0.500000 0.500000
vt 0.500000 0.500000
vt 0.500000 0.500000
vt 0.500000 0.500000
vt 0.500000 0.500000
vt 0.500000 0.500000
vt 0.500000 0.500000
vt 0.500000 0.500000
vt 0.500000 0.500000
vt 0.500000 0.500000
vt 0.500000 0.500000
vt 0.500000 0.500000
vt 0.500000 0.500000
vt 0.500000 0.500000
vt 0.500000 0.500000
vt 0.500000 0.500000
vt 0.500000 0.500000
vt 0.500000 0.500000
vt 0.500000 0.500000
vt 0.500000 0.500000
vt 0.500000 0.500000
vt 0.500000 0.500000
vt 0.500000 0.500000
vt 0.500000 0.500000
vt 0.500000 0.500000
vt 0.500000 0.500000
vt 0.500000 0.500000
vt 0.500000 0.500000
vt 0.500000 0.500000
vt 0.500000 0.500000
vt 0.500000 0.500000
vt 0.500000 0.500000
vt 0.500000 0.500000
vt 0.500000 0.500000
vt 0.500000 0.500000
vt 0.500000 0.500000
vt 0.500000 0.500000
vt 0.500000 0.500000
vt 0.500000 0.500000
vt 0.500000 0.500000
vt 0.500000 0.500000
vt 0.500000 0.500000
vt 0.500000 0.500000
vt 0.500000 0.500000
vt 0.500000 0.500000
vt 0.500000 0.500000
vt 0.500000 0.500000
vt 0.500000 0.500000
vt 0.500000 0.500000
vt 0.500000 0.500000
vt 0.500000 0.500000
vt 0.500000 0.500000
vt 0.500000 0.500000
vt 0.500000 0.500000
vt 0.500000 0.500000
vt 0.500000 0.500000
vt 0.500000 0.500000
vt 0.500000 0.500000
vt 0.500000 0.500000
vt 0.500000 0.500000
vt 0.500000 0.500000
vt 0.500000 0.500000
vt 0.500000 0.500000
vt 0.500000 0.500000
vt 0.500000 0.500000
vt 0.500000 0.500000
vt 0.500000 0.500000
vt 0.500000 0.500000
vt 0.500000 0.500000
vt 0.500000 0.500000
vt 0.500000 0.500000
vt 0.500000 0.500000
vt 0.500000 0.500000
vt 0.500000 0.500000
vt 0.500000 0.500000
vt 0.500000 0.500000
vt 0.500000 0.500000
vt 0.500000 0.500000
vt 0.500000 0.500000
vt 0.500000 0.500000
vt 0.500000 0.500000
vt 0.500000 0.500000
vt 0.500000 0.500000
vt 0.500000 0.500000
vt 0.500000 0.500000
vt 0.500000 0.500000
vt 0.500000 0.500000
vt 0.500000 0.500000
vt 0.500000 0.500000
vt 0.500000 0.500000
vt 0.500000 0.500000
vt 0.500000 0.500000
vt 0.500000 0.500000
vt 0.500000 0.500000
vt 0.500000 0.500000
vt 0.500000 0.500000
vt 0.500000 0.500000
vt 0.500000 0.500000
vt 0.500000 0.500000
vt 0.500000 0.500000
vt 0.500000 0.500000
vt 0.500000 0.500000
vt 0.500000 0.500000
vt 0.500000 0.500000
vt 0.500000 0.500000
vt 0.500000 0.500000
vt 0.500000 0.500000
vt 0.500000 0.500000
vt 0.500000 0.500000
vt 0.500000 0.500000
vt 0.500000 0.500000
vt 0.500000 0.500000
vt 0.500000 0.500000
vt 0.500000 0.500000
vt 0.500000 0.500000
vt 0.500000 0.500000
vt 0.500000 0.500000
vt 0.500000 0.500000
vt 0.500000 0.500000
vt 0.500000 0.500000
vt 0.500000 0.500000
vt 0.500000 0.500000
vt 0.500000 0.500000
vt 0.500000 0.500000
vt 0.500000 0.500000
vt 0.500000 0.500000
vt 0.500000 0.500000
vt 0.500000 0.500000
vt 0.500000 0.500000
vt 0.500000 0.500000
vt 0.500000 0.500000
vt 0.500000 0.500000
vt 0.500000 0.500000
vt 0.500000 0.500000
vt 0.500000 0.500000
vt 0.500000 0.500000
vt 0.500000 0.500000
vt 0.500000 0.500000
vt 0.500000 0.500000
vt 0.500000 0.500000
vt 0.500000 0.500000
vt 0.500000 0.500000
vt 0.500000 0.500000
vt 0.500000 0.500000
vt 0.500000 0.500000
vt 0.500000 0.500000
vt 0.500000 0.500000
vt 0.500000 0.500000
vt 0.500000 0.500000
vt 0.500000 0.500000
vt 0.500000 0.500000
vt 0.500000 0.500000
vt 0.500000 0.500000
vt 0.500000 0.500000
vt 0.500000 0.500000
vt 0.500000 0.500000
vt 0.500000 0.500000
vt 0.500000 0.500000
vt 0.500000 0.500000
vt 0.500000 0.500000
vt 0.500000 0.500000
vt 0.500000 0.500000
vt 0.500000 0.500000
vt 0.500000 0.500000
vt 0.500000 0.500000
vt 0.500000 0.500000
vt 0.500000 0.500000
vt 0.500000 0.500000
vt 0.500000 0.500000
vt 0.500000 0.500000
vt 0.500000 0.500000
vt 0.500000 0.500000
vt 0.500000 0.500000
vt 0.500000 0.500000
vt 0.500000 0.500000
vt 0.500000 0.500000
vt 0.500000 0.500000
vt 0.500000 0.500000
vt 0.500000 0.500000
vt 0.500000 0.500000
vt 0.500000 0.500000
vt 0.500000 0.500000
vt 0.766272 0.603170
vt 0.776000 0.604161
vt 0.764432 0.626900
vt 0.803856 0.663747
vt 0.796779 0.664747
vt 0.767703 0.638368
vt 0.796633 0.668174
vt 0.783726 0.664073
vt 0.832454 0.629888
vt 0.835164 0.639879
vt 0.830112 0.639661
vt 0.796370 0.597183
vt 0.796466 0.601172
vt 0.782662 0.597988
vt 0.842203 0.642426
vt 0.845586 0.628189
vt 0.853131 0.638719
vt 0.799572 0.672937
vt 0.783521 0.668446
vt 0.785845 0.681151
vt 0.780064 0.679087
vt 0.780496 0.674231
vt 0.803588 0.602549
vt 0.833333 0.600000
vt 0.830732 0.614989
vt 0.828712 0.644754
vt 0.794284 0.680450
vt 0.751121 0.639697
vt 0.758297 0.642412
vt 0.744544 0.644408
vt 0.767520 0.631537
vt 0.767177 0.663729
vt 0.750000 0.666667
vt 0.745963 0.652659
vt 0.747279 0.624111
vt 0.759102 0.627376
vt 0.830275 0.623977
vt 0.786579 0.583558
vt 0.794796 0.583950
vt 0.799466 0.591844
vt 0.764584 0.642971
vt 0.777343 0.662803
vt 0.782332 0.602764
vt 0.753242 0.629888
vt 0.748828 0.629856
vt 0.780654 0.586142
vt 0.780446 0.591619
vt 0.854212 0.632302
vt 0.800200 0.586920
vt 0.838244 0.630299
vt 0.848871 0.643003
vt 0.745866 0.639318
vt 0.829848 0.652896
vt 0.833333 0.666667
vt 0.800036 0.677486
vt 0.851667 0.627884
vt 0.750000 0.600000
vn 0.0000 -1.0000 0.0000
vn -0.0001 -1.0000 0.0000
vn -0.4075 0.0000 -0.9132
vn 0.1033 0.0000 -0.9947
vn 0.5414 0.0000 -0.8408
vn -0.9975 0.0000 0.0710
vn 0.9967 0.0000 0.0814
vn -0.9225 0.0000 0.3860
vn 0.8966 0.0000 0.4428
vn -0.9993 0.0000 0.0375
vn 0.9994 0.0000 -0.0340
vn 0.2090 0.0000 -0.9779
vn 0.1740 0.0000 -0.9847
vn -0.1229 0.0000 -0.9924
vn -0.2413 0.0000 -0.9704
vn 0.1131 0.0000 -0.9936
vn 0.9801 0.0000 0.1985
vn -0.9744 0.0000 -0.2247
vn 0.9938 0.0000 0.1109
vn -0.9907 0.0000 -0.1363
vn 0.9766 0.0000 -0.2149
vn -0.9791 0.0000 0.2034
vn 0.1105 0.0000 0.9939
vn -0.1075 0.0000 -0.9942
vn 0.7825 0.0000 -0.6226
vn -0.8791 0.0000 0.4767
vn -0.4120 0.0000 -0.9112
vn 0.0897 0.0000 0.9960
vn 0.4274 0.0000 0.9041
vn -0.0540 0.0000 -0.9985
vn 0.9910 0.0000 -0.1337
vn -0.9998 0.0000 -0.0215
vn 0.9081 0.0000 0.4188
vn -0.8826 0.0000 -0.4702
vn 0.0884 0.0000 0.9961
vn -0.3380 0.0000 0.9411
vn -0.0625 0.0000 0.9980
vn -0.0090 0.0000 -1.0000
vn 0.4722 0.0000 -0.8815
vn 0.9591 0.0000 0.2830
vn -0.9775 0.0000 -0.2110
vn 0.1110 0.0000 -0.9938
vn 0.9992 0.0000 -0.0407
vn -0.9959 0.0000 0.0899
vn 0.2366 0.0000 0.9716
vn 0.1262 0.0000 0.9920
vn -0.2658 0.0000 0.9640
vn -0.9985 0.0000 0.0552
vn 0.2348 0.0000 0.9720
vn -0.1065 0.0000 0.9943
vn 0.9905 0.0000 -0.1376
vn 0.9998 0.0000 0.0192
vn -0.9634 0.0000 -0.2682
vn 0.9071 0.0000 -0.4209
vn 0.9930 0.0000 -0.1185
vn -0.9995 0.0000 0.0305
vn 0.5662 0.0000 0.8243
vn -0.4786 0.0000 0.8780
vn 0.0595 0.0000 0.9982
vn 0.0000 1.0000 0.0000
usemtl BackMat.001
s off
f 247/1/1 232/2/1 248/3/1
f 207/4/1 225/5/1 202/6/1
f 202/6/1 200/7/1 199/8/1
f 235/9/1 215/10/1 226/11/1
f 257/12/1 251/13/1 253/14/1
f 225/5/1 200/7/1 202/6/1
f 222/15/1 224/16/1 237/17/1
f 199/8/1 198/18/1 197/19/1
f 192/20/1 196/21/1 190/22/1
f 252/23/1 244/24/1 255/25/1
f 213/26/1 225/5/1 207/4/1
f 197/19/1 198/18/1 193/27/1
f 227/28/1 214/29/1 221/30/1
f 253/14/1 229/31/1 252/23/1
f 206/32/1 212/33/1 204/34/1
f 212/33/1 221/30/1 214/29/1
f 243/35/1 241/36/1 247/1/1
f 252/23/1 242/37/1 244/24/1
f 264/38/1 259/39/1 263/40/1
f 219/41/1 210/42/1 225/5/1
f 248/3/1 232/2/1 249/43/1
f 240/44/1 243/35/1 238/45/1
f 262/46/1 258/47/1 264/38/1
f 237/17/1 224/16/1 228/48/1
f 210/42/1 219/41/1 206/32/1
f 263/40/1 259/39/1 260/49/1
f 235/9/1 226/11/1 234/50/1
f 224/16/1 222/15/1 223/51/1
f 259/39/1 258/47/1 257/12/1
f 242/37/2 215/10/2 235/9/2
f 232/2/1 229/31/1 249/43/1
f 198/18/1 196/21/1 193/27/1
f 249/43/1 253/14/1 251/13/1
f 225/5/1 210/42/1 200/7/1
f 217/52/1 214/29/1 227/28/1
f 229/31/1 215/10/1 242/37/1
f 193/27/1 196/21/1 192/20/1
f 221/30/1 212/33/1 219/41/1
f 211/53/1 207/4/1 208/54/1
f 197/19/1 193/27/1 194/55/1
f 251/13/1 257/12/1 258/47/1
f 241/36/1 243/35/1 240/44/1
f 213/26/1 207/4/1 211/53/1
f 237/17/1 228/48/1 230/56/1
f 215/10/1 225/5/1 213/26/1
f 206/32/1 219/41/1 212/33/1
f 245/57/1 243/35/1 247/1/1
f 232/2/1 247/1/1 241/36/1
f 229/31/1 225/5/1 215/10/1
f 253/14/1 249/43/1 229/31/1
f 258/47/1 259/39/1 264/38/1
f 226/11/1 222/15/1 234/50/1
f 199/8/1 200/7/1 198/18/1
f 234/50/1 222/15/1 237/17/1
f 252/23/1 229/31/1 242/37/1
f 116/58/3 50/59/3 107/60/3 191/61/3
f 50/59/4 51/62/4 108/63/4 107/60/4
f 51/62/5 120/64/5 195/65/5 108/63/5
f 48/66/6 49/67/6 106/68/6 105/69/6
f 52/70/7 53/71/7 110/72/7 109/73/7
f 47/74/8 48/66/8 105/69/8 104/75/8
f 53/71/9 54/76/9 111/77/9 110/72/9
f 126/78/10 47/74/10 104/75/10 201/79/10
f 54/76/11 128/80/11 203/81/11 111/77/11
f 130/82/12 44/83/12 101/84/12 205/85/12
f 55/86/13 56/87/13 113/88/13 112/89/13
f 56/87/14 134/90/14 209/91/14 113/88/14
f 45/92/15 46/93/15 103/94/15 102/95/15
f 44/83/16 45/92/16 102/95/16 101/84/16
f 57/96/17 1/97/17 58/98/17 114/99/17
f 42/100/18 43/101/18 100/102/18 99/103/18
f 1/97/19 2/104/19 59/105/19 58/98/19
f 41/106/20 42/100/20 99/103/20 98/107/20
f 2/104/21 141/108/21 216/109/21 59/105/21
f 143/110/22 41/106/22 98/107/22 218/111/22
f 145/112/23 38/113/23 95/114/23 220/115/23
f 5/116/24 6/117/24 63/118/24 62/119/24
f 6/117/25 7/120/25 64/121/25 63/118/25
f 36/122/26 37/123/26 94/124/26 93/125/26
f 4/126/27 5/116/27 62/119/27 61/127/27
f 39/128/28 40/129/28 97/130/28 96/131/28
f 38/113/29 39/128/29 96/131/29 95/114/29
f 3/132/30 4/126/30 61/127/30 60/133/30
f 7/120/31 8/134/31 65/135/31 64/121/31
f 35/136/32 36/122/32 93/125/32 92/137/32
f 8/134/33 156/138/33 231/139/33 65/135/33
f 158/140/34 35/136/34 92/137/34 233/141/34
f 11/142/35 161/143/35 236/144/35 68/145/35
f 10/146/36 11/142/36 68/145/36 67/147/36
f 9/148/37 10/146/37 67/147/37 66/149/37
f 164/150/38 32/151/38 89/152/38 239/153/38
f 32/151/39 33/154/39 90/155/39 89/152/39
f 12/156/40 13/157/40 70/158/40 69/159/40
f 30/160/41 31/161/41 88/162/41 87/163/41
f 33/154/42 34/164/42 91/165/42 90/155/42
f 13/157/43 14/166/43 71/167/43 70/158/43
f 171/168/44 30/160/44 87/163/44 246/169/44
f 28/170/45 29/171/45 86/172/45 85/173/45
f 27/174/46 28/170/46 85/173/46 84/175/46
f 175/176/47 27/174/47 84/175/47 250/177/47
f 25/178/48 26/179/48 83/180/48 82/181/48
f 16/182/49 179/183/49 254/184/49 73/185/49
f 181/186/50 16/182/50 73/185/50 256/187/50
f 14/166/51 15/188/51 72/189/51 71/167/51
f 17/190/52 18/191/52 75/192/52 74/193/52
f 24/194/53 25/178/53 82/181/53 81/195/53
f 18/191/54 19/196/54 76/197/54 75/192/54
f 19/196/55 186/198/55 261/199/55 76/197/55
f 23/200/56 24/194/56 81/195/56 80/201/56
f 20/202/57 21/203/57 78/204/57 77/205/57
f 22/206/58 23/200/58 80/201/58 79/207/58
f 21/203/59 22/206/59 79/207/59 78/204/59
usemtl FrontMat.001
f 172/208/60 173/209/60 157/210/60
f 132/211/60 127/212/60 150/213/60
f 127/212/60 124/214/60 125/215/60
f 160/216/60 151/217/60 140/218/60
f 182/219/60 178/220/60 176/221/60
f 150/213/60 127/212/60 125/215/60
f 147/222/60 162/223/60 149/224/60
f 124/214/60 122/225/60 123/226/60
f 117/227/60 115/228/60 121/229/60
f 177/230/60 180/231/60 169/232/60
f 138/233/60 132/211/60 150/213/60
f 122/225/60 118/234/60 123/226/60
f 152/235/60 146/236/60 139/237/60
f 178/220/60 177/230/60 154/238/60
f 131/239/60 129/240/60 137/241/60
f 137/241/60 139/237/60 146/236/60
f 168/242/60 172/208/60 166/243/60
f 177/230/60 169/232/60 167/244/60
f 189/245/60 188/246/60 184/247/60
f 144/248/60 150/213/60 135/249/60
f 173/209/60 174/250/60 157/210/60
f 165/251/60 163/252/60 168/242/60
f 187/253/60 189/245/60 183/254/60
f 162/223/60 153/255/60 149/224/60
f 135/249/60 131/239/60 144/248/60
f 188/246/60 185/256/60 184/247/60
f 160/216/60 159/257/60 151/217/60
f 149/224/60 148/258/60 147/222/60
f 184/247/60 182/219/60 183/254/60
f 167/244/60 160/216/60 140/218/60
f 157/210/60 174/250/60 154/238/60
f 123/226/60 118/234/60 121/229/60
f 174/250/60 176/221/60 178/220/60
f 150/213/60 125/215/60 135/249/60
f 142/259/60 152/235/60 139/237/60
f 154/238/60 167/244/60 140/218/60
f 118/234/60 117/227/60 121/229/60
f 146/236/60 144/248/60 137/241/60
f 136/260/60 133/261/60 132/211/60
f 122/225/60 119/262/60 118/234/60
f 176/221/60 183/254/60 182/219/60
f 166/243/60 165/251/60 168/242/60
f 138/233/60 136/260/60 132/211/60
f 162/223/60 155/263/60 153/255/60
f 140/218/60 138/233/60 150/213/60
f 131/239/60 137/241/60 144/248/60
f 170/264/60 172/208/60 168/242/60
f 157/210/60 166/243/60 172/208/60
f 154/238/60 140/218/60 150/213/60
f 178/220/60 154/238/60 174/250/60
f 183/254/60 189/245/60 184/247/60
f 151/217/60 159/257/60 147/222/60
f 124/214/60 123/226/60 125/215/60
f 159/257/60 162/223/60 147/222/60
f 177/230/60 167/244/60 154/238/60
