# Blender v2.83.1 OBJ File: 'jigsaw-12x15-3-step2.blend'
# www.blender.org
mtllib piece.150.mtl
o path300_path300.001
v -0.324899 0.037500 -0.453060
v -0.206796 0.037500 -0.451981
v -0.128940 0.037500 -0.478127
v -0.122822 0.037500 -0.541396
v -0.148233 0.037500 -0.622764
v -0.147042 0.037500 -0.695973
v -0.080536 0.037500 -0.738645
v 0.012306 0.037500 -0.743883
v 0.073085 0.037500 -0.708674
v 0.063926 0.037500 -0.635571
v 0.029048 0.037500 -0.549445
v 0.033193 0.037500 -0.480738
v 0.120827 0.037500 -0.451752
v 0.255318 0.037500 -0.452237
v 0.480199 0.037500 -0.474771
v 0.435383 0.037500 -0.280153
v 0.421553 0.037500 -0.164237
v 0.441798 0.037500 -0.089790
v 0.510121 0.037500 -0.088195
v 0.600476 0.037500 -0.117442
v 0.676805 0.037500 -0.117187
v 0.709988 0.037500 -0.047409
v 0.698662 0.037500 0.050699
v 0.648401 0.037500 0.115625
v 0.568725 0.037500 0.107262
v 0.484927 0.037500 0.071123
v 0.426249 0.037500 0.074124
v 0.413197 0.037500 0.162360
v 0.480199 0.037500 0.526926
v 0.263500 0.037500 0.577865
v 0.132476 0.037500 0.595930
v 0.043884 0.037500 0.579736
v 0.032338 0.037500 0.513855
v 0.057132 0.037500 0.421117
v 0.058727 0.037500 0.333926
v -0.003344 0.037500 0.279945
v -0.093265 0.037500 0.267867
v -0.156147 0.037500 0.301641
v -0.155704 0.037500 0.378740
v -0.130036 0.037500 0.470656
v -0.135844 0.037500 0.542404
v -0.212281 0.037500 0.568497
v -0.328312 0.037500 0.561451
v -0.521711 0.037500 0.526926
v -0.578750 0.037500 0.159646
v -0.561312 0.037500 0.070693
v -0.499132 0.037500 0.067605
v -0.415162 0.037500 0.104287
v -0.341425 0.037500 0.113735
v -0.303880 0.037500 0.050259
v -0.304231 0.037500 -0.046549
v -0.338119 0.037500 -0.115767
v -0.398245 0.037500 -0.116561
v -0.465585 0.037500 -0.088427
v -0.518174 0.037500 -0.090943
v -0.540068 0.037500 -0.165549
v -0.521711 0.037500 -0.474771
v -0.324899 -0.037500 -0.453060
v -0.206796 -0.037500 -0.451981
v -0.128940 -0.037500 -0.478127
v -0.122822 -0.037500 -0.541396
v -0.148233 -0.037500 -0.622764
v -0.147042 -0.037500 -0.695973
v -0.080536 -0.037500 -0.738645
v 0.012306 -0.037500 -0.743883
v 0.073085 -0.037500 -0.708674
v 0.063926 -0.037500 -0.635571
v 0.029048 -0.037500 -0.549445
v 0.033193 -0.037500 -0.480738
v 0.120827 -0.037500 -0.451752
v 0.255318 -0.037500 -0.452237
v 0.480199 -0.037500 -0.474771
v 0.435383 -0.037500 -0.280153
v 0.421553 -0.037500 -0.164237
v 0.441798 -0.037500 -0.089790
v 0.510121 -0.037500 -0.088195
v 0.600476 -0.037500 -0.117442
v 0.676805 -0.037500 -0.117187
v 0.709988 -0.037500 -0.047409
v 0.698662 -0.037500 0.050699
v 0.648401 -0.037500 0.115625
v 0.568725 -0.037500 0.107262
v 0.484927 -0.037500 0.071123
v 0.426249 -0.037498 0.074124
v 0.413197 -0.037500 0.162360
v 0.480199 -0.037498 0.526926
v 0.263500 -0.037500 0.577865
v 0.132476 -0.037500 0.595930
v 0.043884 -0.037500 0.579736
v 0.032338 -0.037500 0.513855
v 0.057132 -0.037500 0.421117
v 0.058727 -0.037500 0.333926
v -0.003344 -0.037500 0.279945
v -0.093265 -0.037500 0.267867
v -0.156147 -0.037500 0.301641
v -0.155704 -0.037500 0.378740
v -0.130036 -0.037500 0.470656
v -0.135844 -0.037500 0.542404
v -0.212281 -0.037500 0.568497
v -0.328312 -0.037500 0.561451
v -0.521711 -0.037500 0.526926
v -0.578750 -0.037500 0.159646
v -0.561312 -0.037500 0.070693
v -0.499132 -0.037500 0.067605
v -0.415162 -0.037500 0.104287
v -0.341425 -0.037500 0.113735
v -0.303880 -0.037500 0.050259
v -0.304231 -0.037500 -0.046549
v -0.338119 -0.037500 -0.115767
v -0.398245 -0.037500 -0.116561
v -0.465585 -0.037500 -0.088427
v -0.518174 -0.037500 -0.090943
v -0.540068 -0.037500 -0.165549
v -0.521711 -0.037500 -0.474771
v -0.080536 0.037500 -0.738645
v 0.012306 0.037500 -0.743883
v 0.073085 0.037500 -0.708674
v 0.073085 0.037500 -0.708674
v -0.147042 0.037500 -0.695973
v 0.063926 0.037500 -0.635571
v -0.148233 0.037500 -0.622764
v 0.029048 0.037500 -0.549445
v -0.122822 0.037500 -0.541396
v 0.033193 0.037500 -0.480738
v 0.033193 0.037500 -0.480738
v -0.128940 0.037500 -0.478127
v -0.128940 0.037500 -0.478127
v 0.120827 0.037500 -0.451752
v -0.206796 0.037500 -0.451981
v -0.521711 0.037500 -0.474771
v -0.521711 0.037500 -0.474771
v -0.324899 0.037500 -0.453060
v 0.255318 0.037500 -0.452237
v 0.480199 0.037500 -0.474771
v 0.480199 0.037500 -0.474771
v 0.435383 0.037500 -0.280153
v -0.540068 0.037500 -0.165549
v 0.421553 0.037500 -0.164237
v -0.518174 0.037500 -0.090943
v -0.518174 0.037500 -0.090943
v -0.338119 0.037500 -0.115767
v -0.338119 0.037500 -0.115767
v -0.398245 0.037500 -0.116561
v 0.441798 0.037500 -0.089790
v 0.441798 0.037500 -0.089790
v 0.510121 0.037500 -0.088195
v 0.600476 0.037500 -0.117442
v 0.676805 0.037500 -0.117187
v 0.676805 0.037500 -0.117187
v 0.709988 0.037500 -0.047409
v -0.465585 0.037500 -0.088427
v -0.304231 0.037500 -0.046549
v 0.698662 0.037500 0.050699
v -0.303880 0.037500 0.050259
v -0.341425 0.037500 0.113735
v -0.341425 0.037500 0.113735
v 0.484927 0.037500 0.071123
v 0.426249 0.037500 0.074124
v 0.426249 0.037500 0.074124
v 0.648401 0.037500 0.115625
v -0.561312 0.037500 0.070693
v -0.561312 0.037500 0.070693
v -0.499132 0.037500 0.067605
v -0.415162 0.037500 0.104287
v -0.578750 0.037500 0.159646
v 0.568725 0.037500 0.107262
v 0.413197 0.037500 0.162360
v -0.093265 0.037500 0.267867
v -0.156147 0.037500 0.301641
v -0.156147 0.037500 0.301641
v -0.003344 0.037500 0.279945
v 0.058727 0.037500 0.333926
v -0.155704 0.037500 0.378740
v 0.057132 0.037500 0.421117
v -0.130036 0.037500 0.470656
v 0.032338 0.037500 0.513855
v -0.521711 0.037500 0.526926
v -0.521711 0.037500 0.526926
v -0.135844 0.037500 0.542404
v -0.135844 0.037500 0.542404
v 0.480199 0.037500 0.526926
v 0.480199 0.037500 0.526926
v 0.043884 0.037500 0.579736
v 0.043884 0.037500 0.579736
v -0.212281 0.037500 0.568497
v -0.328312 0.037500 0.561451
v 0.263500 0.037500 0.577865
v 0.132476 0.037500 0.595930
v -0.080536 -0.037500 -0.738645
v 0.012306 -0.037500 -0.743883
v 0.073085 -0.037500 -0.708674
v 0.073085 -0.037500 -0.708674
v -0.147042 -0.037500 -0.695973
v 0.063926 -0.037500 -0.635571
v -0.148233 -0.037500 -0.622764
v 0.029048 -0.037500 -0.549445
v -0.122822 -0.037500 -0.541396
v 0.033193 -0.037500 -0.480738
v 0.033193 -0.037500 -0.480738
v -0.128940 -0.037500 -0.478127
v -0.128940 -0.037500 -0.478127
v 0.120827 -0.037500 -0.451752
v -0.206796 -0.037500 -0.451981
v -0.521711 -0.037500 -0.474771
v -0.521711 -0.037500 -0.474771
v -0.324899 -0.037500 -0.453060
v 0.255318 -0.037500 -0.452237
v 0.480199 -0.037500 -0.474771
v 0.480199 -0.037500 -0.474771
v 0.435383 -0.037500 -0.280153
v -0.540068 -0.037500 -0.165549
v 0.421553 -0.037500 -0.164237
v -0.518174 -0.037500 -0.090943
v -0.518174 -0.037500 -0.090943
v -0.338119 -0.037500 -0.115767
v -0.338119 -0.037500 -0.115767
v -0.398245 -0.037500 -0.116561
v 0.441798 -0.037500 -0.089790
v 0.441798 -0.037500 -0.089790
v 0.510121 -0.037500 -0.088195
v 0.600476 -0.037500 -0.117442
v 0.676805 -0.037500 -0.117187
v 0.676805 -0.037500 -0.117187
v 0.709988 -0.037500 -0.047409
v -0.465585 -0.037500 -0.088427
v -0.304231 -0.037500 -0.046549
v 0.698662 -0.037500 0.050699
v -0.303880 -0.037500 0.050259
v -0.341425 -0.037500 0.113735
v -0.341425 -0.037500 0.113735
v 0.484927 -0.037500 0.071123
v 0.426249 -0.037498 0.074124
v 0.426249 -0.037498 0.074124
v 0.648401 -0.037500 0.115625
v -0.561312 -0.037500 0.070693
v -0.561312 -0.037500 0.070693
v -0.499132 -0.037500 0.067605
v -0.415162 -0.037500 0.104287
v -0.578750 -0.037500 0.159646
v 0.568725 -0.037500 0.107262
v 0.413197 -0.037500 0.162360
v -0.093265 -0.037500 0.267867
v -0.156147 -0.037500 0.301641
v -0.156147 -0.037500 0.301641
v -0.003344 -0.037500 0.279945
v 0.058727 -0.037500 0.333926
v -0.155704 -0.037500 0.378740
v 0.057132 -0.037500 0.421117
v -0.130036 -0.037500 0.470656
v 0.032338 -0.037500 0.513855
v -0.521711 -0.037500 0.526926
v -0.521711 -0.037500 0.526926
v -0.135844 -0.037500 0.542404
v -0.135844 -0.037500 0.542404
v 0.480199 -0.037498 0.526926
v 0.480199 -0.037498 0.526926
v 0.043884 -0.037500 0.579736
v 0.043884 -0.037500 0.579736
v -0.212281 -0.037500 0.568497
v -0.328312 -0.037500 0.561451
v 0.263500 -0.037500 0.577865
v 0.132476 -0.037500 0.595930
vt 0.500000 0.500000
vt 0.500000 0.500000
vt 0.500000 0.500000
vt 0.500000 0.500000
vt 0.500000 0.500000
vt 0.500000 0.500000
vt 0.500000 0.500000
vt 0.500000 0.500000
vt 0.500000 0.500000
vt 0.500000 0.500000
vt 0.500000 0.500000
vt 0.500000 0.500000
vt 0.500000 0.500000
vt 0.500000 0.500000
vt 0.500000 0.500000
vt 0.500000 0.500000
vt 0.500000 0.500000
vt 0.500000 0.500000
vt 0.500000 0.500000
vt 0.500000 0.500000
vt 0.500000 0.500000
vt 0.500000 0.500000
vt 0.500000 0.500000
vt 0.500000 0.500000
vt 0.500000 0.500000
vt 0.500000 0.500000
vt 0.500000 0.500000
vt 0.500000 0.500000
vt 0.500000 0.500000
vt 0.500000 0.500000
vt 0.500000 0.500000
vt 0.500000 0.500000
vt 0.500000 0.500000
vt 0.500000 0.500000
vt 0.500000 0.500000
vt 0.500000 0.500000
vt 0.500000 0.500000
vt 0.500000 0.500000
vt 0.500000 0.500000
vt 0.500000 0.500000
vt 0.500000 0.500000
vt 0.500000 0.500000
vt 0.500000 0.500000
vt 0.500000 0.500000
vt 0.500000 0.500000
vt 0.500000 0.500000
vt 0.500000 0.500000
vt 0.500000 0.500000
vt 0.500000 0.500000
vt 0.500000 0.500000
vt 0.500000 0.500000
vt 0.500000 0.500000
vt 0.500000 0.500000
vt 0.500000 0.500000
vt 0.500000 0.500000
vt 0.500000 0.500000
vt 0.500000 0.500000
vt 0.500000 0.500000
vt 0.500000 0.500000
vt 0.500000 0.500000
vt 0.500000 0.500000
vt 0.500000 0.500000
vt 0.500000 0.500000
vt 0.500000 0.500000
vt 0.500000 0.500000
vt 0.500000 0.500000
vt 0.500000 0.500000
vt 0.500000 0.500000
vt 0.500000 0.500000
vt 0.500000 0.500000
vt 0.500000 0.500000
vt 0.500000 0.500000
vt 0.500000 0.500000
vt 0.500000 0.500000
vt 0.500000 0.500000
vt 0.500000 0.500000
vt 0.500000 0.500000
vt 0.500000 0.500000
vt 0.500000 0.500000
vt 0.500000 0.500000
vt 0.500000 0.500000
vt 0.500000 0.500000
vt 0.500000 0.500000
vt 0.500000 0.500000
vt 0.500000 0.500000
vt 0.500000 0.500000
vt 0.500000 0.500000
vt 0.500000 0.500000
vt 0.500000 0.500000
vt 0.500000 0.500000
vt 0.500000 0.500000
vt 0.500000 0.500000
vt 0.500000 0.500000
vt 0.500000 0.500000
vt 0.500000 0.500000
vt 0.500000 0.500000
vt 0.500000 0.500000
vt 0.500000 0.500000
vt 0.500000 0.500000
vt 0.500000 0.500000
vt 0.500000 0.500000
vt 0.500000 0.500000
vt 0.500000 0.500000
vt 0.500000 0.500000
vt 0.500000 0.500000
vt 0.500000 0.500000
vt 0.500000 0.500000
vt 0.500000 0.500000
vt 0.500000 0.500000
vt 0.500000 0.500000
vt 0.500000 0.500000
vt 0.500000 0.500000
vt 0.500000 0.500000
vt 0.500000 0.500000
vt 0.500000 0.500000
vt 0.500000 0.500000
vt 0.500000 0.500000
vt 0.500000 0.500000
vt 0.500000 0.500000
vt 0.500000 0.500000
vt 0.500000 0.500000
vt 0.500000 0.500000
vt 0.500000 0.500000
vt 0.500000 0.500000
vt 0.500000 0.500000
vt 0.500000 0.500000
vt 0.500000 0.500000
vt 0.500000 0.500000
vt 0.500000 0.500000
vt 0.500000 0.500000
vt 0.500000 0.500000
vt 0.500000 0.500000
vt 0.500000 0.500000
vt 0.500000 0.500000
vt 0.500000 0.500000
vt 0.500000 0.500000
vt 0.500000 0.500000
vt 0.500000 0.500000
vt 0.500000 0.500000
vt 0.500000 0.500000
vt 0.500000 0.500000
vt 0.500000 0.500000
vt 0.500000 0.500000
vt 0.500000 0.500000
vt 0.500000 0.500000
vt 0.500000 0.500000
vt 0.500000 0.500000
vt 0.500000 0.500000
vt 0.500000 0.500000
vt 0.500000 0.500000
vt 0.500000 0.500000
vt 0.500000 0.500000
vt 0.500000 0.500000
vt 0.500000 0.500000
vt 0.500000 0.500000
vt 0.500000 0.500000
vt 0.500000 0.500000
vt 0.500000 0.500000
vt 0.500000 0.500000
vt 0.500000 0.500000
vt 0.500000 0.500000
vt 0.500000 0.500000
vt 0.500000 0.500000
vt 0.500000 0.500000
vt 0.500000 0.500000
vt 0.500000 0.500000
vt 0.500000 0.500000
vt 0.500000 0.500000
vt 0.500000 0.500000
vt 0.500000 0.500000
vt 0.500000 0.500000
vt 0.500000 0.500000
vt 0.500000 0.500000
vt 0.500000 0.500000
vt 0.500000 0.500000
vt 0.500000 0.500000
vt 0.500000 0.500000
vt 0.500000 0.500000
vt 0.500000 0.500000
vt 0.500000 0.500000
vt 0.500000 0.500000
vt 0.500000 0.500000
vt 0.500000 0.500000
vt 0.500000 0.500000
vt 0.500000 0.500000
vt 0.500000 0.500000
vt 0.500000 0.500000
vt 0.500000 0.500000
vt 0.500000 0.500000
vt 0.500000 0.500000
vt 0.500000 0.500000
vt 0.500000 0.500000
vt 0.500000 0.500000
vt 0.500000 0.500000
vt 0.500000 0.500000
vt 0.500000 0.500000
vt 0.500000 0.500000
vt 0.500000 0.500000
vt 0.500000 0.500000
vt 0.500000 0.500000
vt 0.500000 0.500000
vt 0.500000 0.500000
vt 0.500000 0.500000
vt 0.500000 0.500000
vt 0.500000 0.500000
vt 0.431937 0.176107
vt 0.442860 0.198483
vt 0.433036 0.198555
vt 0.471078 0.128741
vt 0.481976 0.129943
vt 0.464812 0.140375
vt 0.464944 0.146178
vt 0.416667 0.133333
vt 0.432752 0.131036
vt 0.431662 0.160833
vt 0.495122 0.179333
vt 0.470109 0.198468
vt 0.434756 0.171500
vt 0.507363 0.161264
vt 0.518171 0.165028
vt 0.510004 0.176218
vt 0.449244 0.137078
vt 0.447109 0.143196
vt 0.442403 0.130567
vt 0.500000 0.133333
vt 0.494427 0.157597
vt 0.426936 0.176160
vt 0.447731 0.209849
vt 0.449844 0.204434
vt 0.462476 0.204970
vt 0.434785 0.165057
vt 0.447072 0.148327
vt 0.462820 0.200397
vt 0.449335 0.200223
vt 0.452302 0.150575
vt 0.481296 0.198500
vt 0.465377 0.210702
vt 0.461083 0.217910
vt 0.453361 0.217562
vt 0.462749 0.134203
vt 0.463710 0.129819
vt 0.496273 0.187048
vt 0.416961 0.174455
vt 0.421335 0.174287
vt 0.415140 0.179420
vt 0.459782 0.149771
vt 0.502489 0.174272
vt 0.466139 0.215567
vt 0.500000 0.200000
vt 0.495513 0.163469
vt 0.500393 0.163669
vt 0.496806 0.174378
vt 0.413373 0.163697
vt 0.411923 0.157777
vt 0.418545 0.163903
vt 0.425529 0.161462
vt 0.447830 0.214722
vt 0.519113 0.171557
vt 0.516353 0.176202
vt 0.448761 0.132303
vt 0.416667 0.200000
vt 0.513990 0.160707
vn 0.0000 -1.0000 0.0000
vn -0.0563 0.0000 -0.9984
vn 0.5013 0.0000 -0.8653
vn -0.5400 0.0000 -0.8417
vn 0.9922 0.0000 0.1243
vn -0.9999 0.0000 -0.0163
vn 0.9269 0.0000 0.3754
vn -0.9545 0.0000 0.2981
vn 0.9982 0.0000 -0.0602
vn -0.9954 0.0000 -0.0963
vn 0.3140 0.0000 -0.9494
vn -0.3184 0.0000 -0.9480
vn 0.1097 0.0000 -0.9940
vn -0.0997 0.0000 -0.9950
vn 0.0091 0.0000 -1.0000
vn -0.0036 0.0000 -1.0000
vn 0.9745 0.0000 0.2244
vn -0.9982 0.0000 -0.0593
vn 0.9930 0.0000 0.1185
vn -0.9595 0.0000 0.2816
vn -0.0132 0.0000 0.9999
vn 0.9650 0.0000 -0.2624
vn -0.3080 0.0000 -0.9514
vn 0.0033 0.0000 -1.0000
vn 0.9031 0.0000 -0.4295
vn -0.0478 0.0000 0.9989
vn 0.3855 0.0000 0.9227
vn -0.8981 0.0000 0.4397
vn 0.0233 0.0000 -0.9997
vn 0.9934 0.0000 0.1147
vn -1.0000 0.0000 0.0036
vn -0.8607 0.0000 -0.5091
vn 0.0511 0.0000 0.9987
vn 0.7908 0.0000 0.6121
vn -0.0496 0.0000 -0.9988
vn 0.4003 0.0000 -0.9164
vn -0.9813 0.0000 -0.1924
vn -0.3960 0.0000 0.9182
vn -0.1044 0.0000 0.9945
vn 0.9892 0.0000 0.1463
vn 0.1271 0.0000 -0.9919
vn 0.4732 0.0000 0.8810
vn -0.1331 0.0000 0.9911
vn -0.6562 0.0000 0.7546
vn 1.0000 0.0000 -0.0057
vn -0.9998 0.0000 -0.0183
vn 0.9631 0.0000 -0.2690
vn -0.9661 0.0000 -0.2583
vn -0.9882 0.0000 0.1535
vn 0.9967 0.0000 0.0807
vn 0.9835 0.0000 -0.1808
vn -0.9850 0.0000 0.1726
vn 0.3231 0.0000 0.9464
vn -0.1757 0.0000 0.9844
vn -0.0606 0.0000 0.9982
vn 0.2288 0.0000 0.9735
vn -0.1798 0.0000 0.9837
vn 0.1366 0.0000 0.9906
vn 0.0000 1.0000 0.0000
usemtl BackMat.001
s off
f 215/1/1 206/2/1 203/3/1
f 262/4/1 248/5/1 261/6/1
f 261/6/1 248/5/1 246/7/1
f 251/8/1 229/9/1 260/10/1
f 212/11/1 226/12/1 202/13/1
f 240/14/1 221/15/1 227/16/1
f 249/17/1 259/18/1 247/19/1
f 261/6/1 241/20/1 255/21/1
f 217/22/1 206/2/1 215/1/1
f 195/23/1 196/24/1 197/25/1
f 228/26/1 243/27/1 229/9/1
f 202/13/1 226/12/1 198/28/1
f 226/12/1 200/29/1 198/28/1
f 260/10/1 229/9/1 243/27/1
f 228/26/1 226/12/1 242/30/1
f 207/31/1 212/11/1 202/13/1
f 194/32/1 189/33/1 190/34/1
f 248/5/1 262/4/1 250/35/1
f 250/35/1 262/4/1 257/36/1
f 212/11/1 207/31/1 210/37/1
f 213/38/1 211/39/1 225/40/1
f 246/7/1 245/41/1 241/20/1
f 225/40/1 211/39/1 217/22/1
f 221/15/1 240/14/1 220/42/1
f 194/32/1 190/34/1 191/43/1
f 210/37/1 207/31/1 208/44/1
f 232/45/1 218/46/1 231/47/1
f 235/48/1 237/49/1 239/50/1
f 245/41/1 226/12/1 212/11/1
f 215/1/1 200/29/1 226/12/1
f 200/29/1 197/25/1 198/28/1
f 215/1/1 203/3/1 200/29/1
f 261/6/1 246/7/1 241/20/1
f 239/50/1 238/51/1 251/8/1
f 241/20/1 245/41/1 232/45/1
f 195/23/1 189/33/1 194/32/1
f 198/28/1 197/25/1 196/24/1
f 260/10/1 247/19/1 259/18/1
f 238/51/1 239/50/1 237/49/1
f 218/46/1 245/41/1 212/11/1
f 189/33/1 195/23/1 193/52/1
f 232/45/1 245/41/1 218/46/1
f 245/41/1 242/30/1 226/12/1
f 224/53/1 221/15/1 222/54/1
f 243/27/1 228/26/1 242/30/1
f 196/24/1 195/23/1 194/32/1
f 260/10/1 243/27/1 247/19/1
f 253/55/1 259/18/1 249/17/1
f 206/2/1 211/39/1 204/56/1
f 240/14/1 227/16/1 234/57/1
f 229/9/1 251/8/1 238/51/1
f 206/2/1 217/22/1 211/39/1
f 218/46/1 220/42/1 231/47/1
f 221/15/1 224/53/1 227/16/1
f 231/47/1 220/42/1 240/14/1
f 7/58/2 8/59/2 65/60/2 64/61/2
f 8/59/3 118/62/3 192/63/3 65/60/3
f 6/64/4 7/58/4 64/61/4 63/65/4
f 9/66/5 10/67/5 67/68/5 66/69/5
f 5/70/6 6/64/6 63/65/6 62/71/6
f 10/67/7 11/72/7 68/73/7 67/68/7
f 4/74/8 5/70/8 62/71/8 61/75/8
f 11/72/9 125/76/9 199/77/9 68/73/9
f 127/78/10 4/74/10 61/75/10 201/79/10
f 12/80/11 13/81/11 70/82/11 69/83/11
f 2/84/12 3/85/12 60/86/12 59/87/12
f 131/88/13 1/89/13 58/90/13 205/91/13
f 14/92/14 135/93/14 209/94/14 71/95/14
f 1/89/15 2/84/15 59/87/15 58/90/15
f 13/81/16 14/92/16 71/95/16 70/82/16
f 15/96/17 16/97/17 73/98/17 72/99/17
f 56/100/18 57/101/18 114/102/18 113/103/18
f 16/97/19 17/104/19 74/105/19 73/98/19
f 140/106/20 56/100/20 113/103/20 214/107/20
f 142/108/21 53/109/21 110/110/21 216/111/21
f 17/104/22 145/112/22 219/113/22 74/105/22
f 19/114/23 20/115/23 77/116/23 76/117/23
f 20/115/24 149/118/24 223/119/24 77/116/24
f 21/120/25 22/121/25 79/122/25 78/123/25
f 54/124/26 55/125/26 112/126/26 111/127/26
f 53/109/27 54/124/27 111/127/27 110/110/27
f 51/128/28 52/129/28 109/130/28 108/131/28
f 18/132/29 19/114/29 76/117/29 75/133/29
f 22/121/30 23/134/30 80/135/30 79/122/30
f 50/136/31 51/128/31 108/131/31 107/137/31
f 156/138/32 50/136/32 107/137/32 230/139/32
f 26/140/33 159/141/33 233/142/33 83/143/33
f 23/134/34 24/144/34 81/145/34 80/135/34
f 162/146/35 47/147/35 104/148/35 236/149/35
f 47/147/36 48/150/36 105/151/36 104/148/36
f 45/152/37 46/153/37 103/154/37 102/155/37
f 25/156/38 26/140/38 83/143/38 82/157/38
f 24/144/39 25/156/39 82/157/39 81/145/39
f 27/158/40 28/159/40 85/160/40 84/161/40
f 48/150/41 49/162/41 106/163/41 105/151/41
f 37/164/42 170/165/42 244/166/42 94/167/42
f 36/168/43 37/164/43 94/167/43 93/169/43
f 35/170/44 36/168/44 93/169/44 92/171/44
f 38/172/45 39/173/45 96/174/45 95/175/45
f 34/176/46 35/170/46 92/171/46 91/177/46
f 39/173/47 40/178/47 97/179/47 96/174/47
f 33/180/48 34/176/48 91/177/48 90/181/48
f 178/182/49 45/152/49 102/155/49 252/183/49
f 40/178/50 180/184/50 254/185/50 97/179/50
f 28/159/51 182/186/51 256/187/51 85/160/51
f 184/188/52 33/180/52 90/181/52 258/189/52
f 41/190/53 42/191/53 99/192/53 98/193/53
f 43/194/54 44/195/54 101/196/54 100/197/54
f 42/191/55 43/194/55 100/197/55 99/192/55
f 29/198/56 30/199/56 87/200/56 86/201/56
f 31/202/57 32/203/57 89/204/57 88/205/57
f 30/199/58 31/202/58 88/205/58 87/200/58
usemtl FrontMat.001
f 141/206/59 129/207/59 132/208/59
f 188/209/59 187/210/59 174/211/59
f 187/210/59 172/212/59 174/211/59
f 177/213/59 186/214/59 155/215/59
f 138/216/59 128/217/59 152/218/59
f 166/219/59 153/220/59 147/221/59
f 175/222/59 173/223/59 185/224/59
f 187/210/59 181/225/59 167/226/59
f 143/227/59 141/206/59 132/208/59
f 121/228/59 123/229/59 122/230/59
f 154/231/59 155/215/59 169/232/59
f 128/217/59 124/233/59 152/218/59
f 152/218/59 124/233/59 126/234/59
f 186/214/59 169/232/59 155/215/59
f 154/231/59 168/235/59 152/218/59
f 133/236/59 128/217/59 138/216/59
f 120/237/59 116/238/59 115/239/59
f 174/211/59 176/240/59 188/209/59
f 176/240/59 183/241/59 188/209/59
f 138/216/59 136/242/59 133/236/59
f 139/243/59 151/244/59 137/245/59
f 172/212/59 167/226/59 171/246/59
f 151/244/59 143/227/59 137/245/59
f 147/221/59 146/247/59 166/219/59
f 120/237/59 117/248/59 116/238/59
f 136/242/59 134/249/59 133/236/59
f 158/250/59 157/251/59 144/252/59
f 161/253/59 165/254/59 163/255/59
f 171/246/59 138/216/59 152/218/59
f 141/206/59 152/218/59 126/234/59
f 126/234/59 124/233/59 123/229/59
f 141/206/59 126/234/59 129/207/59
f 187/210/59 167/226/59 172/212/59
f 165/254/59 177/213/59 164/256/59
f 167/226/59 158/250/59 171/246/59
f 121/228/59 120/237/59 115/239/59
f 124/233/59 122/230/59 123/229/59
f 186/214/59 185/224/59 173/223/59
f 164/256/59 163/255/59 165/254/59
f 144/252/59 138/216/59 171/246/59
f 115/239/59 119/257/59 121/228/59
f 158/250/59 144/252/59 171/246/59
f 171/246/59 152/218/59 168/235/59
f 150/258/59 148/259/59 147/221/59
f 169/232/59 168/235/59 154/231/59
f 122/230/59 120/237/59 121/228/59
f 186/214/59 173/223/59 169/232/59
f 179/260/59 175/222/59 185/224/59
f 132/208/59 130/261/59 137/245/59
f 166/219/59 160/262/59 153/220/59
f 155/215/59 164/256/59 177/213/59
f 132/208/59 137/245/59 143/227/59
f 144/252/59 157/251/59 146/247/59
f 147/221/59 153/220/59 150/258/59
f 157/251/59 166/219/59 146/247/59
