# Blender v2.83.1 OBJ File: 'jigsaw-32x24-3-step2.blend'
# www.blender.org
mtllib piece.626.mtl
o path1252
v -0.456207 0.037500 0.160416
v -0.474493 0.037500 0.085735
v -0.524918 0.037500 0.091524
v -0.592213 0.037500 0.131359
v -0.655039 0.037500 0.138712
v -0.694555 0.037500 0.068869
v -0.701899 0.037500 -0.035664
v -0.670708 0.037500 -0.110575
v -0.601048 0.037500 -0.112902
v -0.518711 0.037500 -0.085054
v -0.455925 0.037500 -0.090782
v -0.436029 0.037500 -0.174292
v -0.446718 0.037500 -0.301607
v -0.484503 0.037500 -0.514076
v -0.122889 0.037500 -0.448727
v -0.031860 0.037500 -0.462851
v -0.022055 0.037500 -0.522575
v -0.050558 0.037500 -0.605675
v -0.054653 0.037500 -0.680843
v 0.008303 0.037500 -0.722174
v 0.100649 0.037500 -0.725388
v 0.164650 0.037500 -0.691601
v 0.162001 0.037500 -0.626221
v 0.132147 0.037500 -0.551847
v 0.133963 0.037500 -0.495373
v 0.208267 0.037500 -0.476198
v 0.323702 0.037500 -0.483704
v 0.517406 0.037500 -0.514076
v 0.556410 0.037500 -0.149305
v 0.536211 0.037500 -0.059898
v 0.477240 0.037500 -0.054833
v 0.400070 0.037500 -0.089489
v 0.333162 0.037500 -0.098822
v 0.300175 0.037500 -0.038305
v 0.305588 0.037500 0.054489
v 0.349083 0.037500 0.121464
v 0.425272 0.037500 0.123724
v 0.508509 0.037500 0.099197
v 0.568079 0.037500 0.105017
v 0.582212 0.037500 0.180775
v 0.564991 0.037500 0.295826
v 0.517407 0.037500 0.487621
v 0.312302 0.037500 0.451002
v 0.191452 0.037500 0.442486
v 0.116798 0.037500 0.467125
v 0.122011 0.037500 0.537661
v 0.160761 0.037500 0.628204
v 0.166714 0.037500 0.703243
v 0.095665 0.037500 0.734604
v -0.008028 0.037500 0.723497
v -0.077873 0.037500 0.678469
v -0.070051 0.037500 0.610239
v -0.031435 0.037500 0.538212
v -0.031565 0.037500 0.483967
v -0.118584 0.037500 0.462921
v -0.484503 0.037500 0.487621
v -0.456207 -0.037500 0.160416
v -0.474493 -0.037500 0.085735
v -0.524918 -0.037500 0.091524
v -0.592213 -0.037500 0.131359
v -0.655039 -0.037500 0.138712
v -0.694555 -0.037500 0.068869
v -0.701899 -0.037500 -0.035664
v -0.670708 -0.037498 -0.110575
v -0.601048 -0.037500 -0.112902
v -0.518711 -0.037500 -0.085054
v -0.455925 -0.037500 -0.090782
v -0.436029 -0.037500 -0.174292
v -0.446718 -0.037498 -0.301607
v -0.484503 -0.037500 -0.514076
v -0.122889 -0.037500 -0.448727
v -0.031860 -0.037498 -0.462851
v -0.022055 -0.037498 -0.522575
v -0.050558 -0.037500 -0.605675
v -0.054653 -0.037500 -0.680843
v 0.008303 -0.037500 -0.722174
v 0.100649 -0.037500 -0.725388
v 0.164650 -0.037500 -0.691601
v 0.162001 -0.037500 -0.626221
v 0.132147 -0.037500 -0.551847
v 0.133963 -0.037500 -0.495373
v 0.208267 -0.037500 -0.476198
v 0.323702 -0.037500 -0.483704
v 0.517406 -0.037500 -0.514076
v 0.556410 -0.037500 -0.149305
v 0.536211 -0.037500 -0.059898
v 0.477240 -0.037500 -0.054833
v 0.400070 -0.037500 -0.089489
v 0.333162 -0.037500 -0.098822
v 0.300175 -0.037498 -0.038305
v 0.305588 -0.037500 0.054489
v 0.349083 -0.037500 0.121464
v 0.425272 -0.037500 0.123724
v 0.508509 -0.037500 0.099197
v 0.568079 -0.037500 0.105017
v 0.582212 -0.037500 0.180775
v 0.564991 -0.037500 0.295826
v 0.517407 -0.037500 0.487621
v 0.312302 -0.037500 0.451002
v 0.191452 -0.037498 0.442486
v 0.116798 -0.037500 0.467125
v 0.122011 -0.037500 0.537661
v 0.160761 -0.037500 0.628204
v 0.166714 -0.037498 0.703243
v 0.095665 -0.037500 0.734604
v -0.008028 -0.037500 0.723497
v -0.077873 -0.037500 0.678469
v -0.070051 -0.037500 0.610239
v -0.031435 -0.037500 0.538212
v -0.031565 -0.037500 0.483967
v -0.118584 -0.037500 0.462921
v -0.484503 -0.037500 0.487621
v 0.166714 0.037500 0.703243
v 0.166714 0.037500 0.703243
v 0.095665 0.037500 0.734604
v -0.008028 0.037500 0.723497
v -0.077873 0.037500 0.678469
v -0.077873 0.037500 0.678469
v 0.160761 0.037500 0.628204
v -0.070051 0.037500 0.610239
v 0.122011 0.037500 0.537661
v -0.031435 0.037500 0.538212
v -0.031565 0.037500 0.483967
v -0.031565 0.037500 0.483967
v 0.116798 0.037500 0.467125
v 0.116798 0.037500 0.467125
v -0.118584 0.037500 0.462921
v 0.517407 0.037500 0.487621
v 0.517407 0.037500 0.487621
v 0.312302 0.037500 0.451002
v 0.191452 0.037500 0.442486
v -0.484503 0.037500 0.487621
v -0.484503 0.037500 0.487621
v 0.564991 0.037500 0.295826
v 0.582212 0.037500 0.180775
v -0.456207 0.037500 0.160416
v 0.568079 0.037500 0.105017
v 0.568079 0.037500 0.105017
v 0.349083 0.037500 0.121464
v 0.425272 0.037500 0.123724
v -0.474493 0.037500 0.085735
v -0.474493 0.037500 0.085735
v -0.592213 0.037500 0.131359
v -0.655039 0.037500 0.138712
v -0.655039 0.037500 0.138712
v -0.694555 0.037500 0.068869
v -0.524918 0.037500 0.091524
v 0.508509 0.037500 0.099197
v 0.305588 0.037500 0.054489
v -0.701899 0.037500 -0.035664
v 0.300175 0.037500 -0.038305
v -0.670708 0.037500 -0.110575
v -0.670708 0.037500 -0.110575
v 0.333162 0.037500 -0.098822
v 0.333162 0.037500 -0.098822
v 0.536211 0.037500 -0.059898
v 0.536211 0.037500 -0.059898
v 0.477240 0.037500 -0.054833
v 0.400070 0.037500 -0.089489
v 0.556410 0.037500 -0.149305
v -0.518711 0.037500 -0.085054
v -0.455925 0.037500 -0.090782
v -0.455925 0.037500 -0.090782
v -0.601048 0.037500 -0.112902
v -0.436029 0.037500 -0.174292
v -0.446718 0.037500 -0.301607
v 0.517406 0.037500 -0.514076
v 0.517406 0.037500 -0.514076
v 0.323702 0.037500 -0.483704
v 0.208267 0.037500 -0.476198
v -0.122889 0.037500 -0.448727
v -0.031860 0.037500 -0.462851
v -0.031860 0.037500 -0.462851
v -0.022055 0.037500 -0.522575
v 0.133963 0.037500 -0.495373
v 0.133963 0.037500 -0.495373
v -0.484503 0.037500 -0.514076
v -0.484503 0.037500 -0.514076
v 0.132147 0.037500 -0.551847
v -0.050558 0.037500 -0.605675
v 0.162001 0.037500 -0.626221
v -0.054653 0.037500 -0.680843
v 0.164650 0.037500 -0.691601
v 0.164650 0.037500 -0.691601
v 0.008303 0.037500 -0.722174
v 0.100649 0.037500 -0.725388
v 0.166714 -0.037498 0.703243
v 0.166714 -0.037498 0.703243
v 0.095665 -0.037500 0.734604
v -0.008028 -0.037500 0.723497
v -0.077873 -0.037500 0.678469
v -0.077873 -0.037500 0.678469
v 0.160761 -0.037500 0.628204
v -0.070051 -0.037500 0.610239
v 0.122011 -0.037500 0.537661
v -0.031435 -0.037500 0.538212
v -0.031565 -0.037500 0.483967
v -0.031565 -0.037500 0.483967
v 0.116798 -0.037500 0.467125
v 0.116798 -0.037500 0.467125
v -0.118584 -0.037500 0.462921
v 0.517407 -0.037500 0.487621
v 0.517407 -0.037500 0.487621
v 0.312302 -0.037500 0.451002
v 0.191452 -0.037498 0.442486
v -0.484503 -0.037500 0.487621
v -0.484503 -0.037500 0.487621
v 0.564991 -0.037500 0.295826
v 0.582212 -0.037500 0.180775
v -0.456207 -0.037500 0.160416
v 0.568079 -0.037500 0.105017
v 0.568079 -0.037500 0.105017
v 0.349083 -0.037500 0.121464
v 0.425272 -0.037500 0.123724
v -0.474493 -0.037500 0.085735
v -0.474493 -0.037500 0.085735
v -0.592213 -0.037500 0.131359
v -0.655039 -0.037500 0.138712
v -0.655039 -0.037500 0.138712
v -0.694555 -0.037500 0.068869
v -0.524918 -0.037500 0.091524
v 0.508509 -0.037500 0.099197
v 0.305588 -0.037500 0.054489
v -0.701899 -0.037500 -0.035664
v 0.300175 -0.037498 -0.038305
v -0.670708 -0.037498 -0.110575
v -0.670708 -0.037498 -0.110575
v 0.333162 -0.037500 -0.098822
v 0.333162 -0.037500 -0.098822
v 0.536211 -0.037500 -0.059898
v 0.536211 -0.037500 -0.059898
v 0.477240 -0.037500 -0.054833
v 0.400070 -0.037500 -0.089489
v 0.556410 -0.037500 -0.149305
v -0.518711 -0.037500 -0.085054
v -0.455925 -0.037500 -0.090782
v -0.455925 -0.037500 -0.090782
v -0.601048 -0.037500 -0.112902
v -0.436029 -0.037500 -0.174292
v -0.446718 -0.037498 -0.301607
v 0.517406 -0.037500 -0.514076
v 0.517406 -0.037500 -0.514076
v 0.323702 -0.037500 -0.483704
v 0.208267 -0.037500 -0.476198
v -0.122889 -0.037500 -0.448727
v -0.031860 -0.037498 -0.462851
v -0.031860 -0.037498 -0.462851
v -0.022055 -0.037498 -0.522575
v 0.133963 -0.037500 -0.495373
v 0.133963 -0.037500 -0.495373
v -0.484503 -0.037500 -0.514076
v -0.484503 -0.037500 -0.514076
v 0.132147 -0.037500 -0.551847
v -0.050558 -0.037500 -0.605675
v 0.162001 -0.037500 -0.626221
v -0.054653 -0.037500 -0.680843
v 0.164650 -0.037500 -0.691601
v 0.164650 -0.037500 -0.691601
v 0.008303 -0.037500 -0.722174
v 0.100649 -0.037500 -0.725388
vt 0.500000 0.500000
vt 0.500000 0.500000
vt 0.500000 0.500000
vt 0.500000 0.500000
vt 0.500000 0.500000
vt 0.500000 0.500000
vt 0.500000 0.500000
vt 0.500000 0.500000
vt 0.500000 0.500000
vt 0.500000 0.500000
vt 0.500000 0.500000
vt 0.500000 0.500000
vt 0.500000 0.500000
vt 0.500000 0.500000
vt 0.500000 0.500000
vt 0.500000 0.500000
vt 0.500000 0.500000
vt 0.500000 0.500000
vt 0.500000 0.500000
vt 0.500000 0.500000
vt 0.500000 0.500000
vt 0.500000 0.500000
vt 0.500000 0.500000
vt 0.500000 0.500000
vt 0.500000 0.500000
vt 0.500000 0.500000
vt 0.500000 0.500000
vt 0.500000 0.500000
vt 0.500000 0.500000
vt 0.500000 0.500000
vt 0.500000 0.500000
vt 0.500000 0.500000
vt 0.500000 0.500000
vt 0.500000 0.500000
vt 0.500000 0.500000
vt 0.500000 0.500000
vt 0.500000 0.500000
vt 0.500000 0.500000
vt 0.500000 0.500000
vt 0.500000 0.500000
vt 0.500000 0.500000
vt 0.500000 0.500000
vt 0.500000 0.500000
vt 0.500000 0.500000
vt 0.500000 0.500000
vt 0.500000 0.500000
vt 0.500000 0.500000
vt 0.500000 0.500000
vt 0.500000 0.500000
vt 0.500000 0.500000
vt 0.500000 0.500000
vt 0.500000 0.500000
vt 0.500000 0.500000
vt 0.500000 0.500000
vt 0.500000 0.500000
vt 0.500000 0.500000
vt 0.500000 0.500000
vt 0.500000 0.500000
vt 0.500000 0.500000
vt 0.500000 0.500000
vt 0.500000 0.500000
vt 0.500000 0.500000
vt 0.500000 0.500000
vt 0.500000 0.500000
vt 0.500000 0.500000
vt 0.500000 0.500000
vt 0.500000 0.500000
vt 0.500000 0.500000
vt 0.500000 0.500000
vt 0.500000 0.500000
vt 0.500000 0.500000
vt 0.500000 0.500000
vt 0.500000 0.500000
vt 0.500000 0.500000
vt 0.500000 0.500000
vt 0.500000 0.500000
vt 0.500000 0.500000
vt 0.500000 0.500000
vt 0.500000 0.500000
vt 0.500000 0.500000
vt 0.500000 0.500000
vt 0.500000 0.500000
vt 0.500000 0.500000
vt 0.500000 0.500000
vt 0.500000 0.500000
vt 0.500000 0.500000
vt 0.500000 0.500000
vt 0.500000 0.500000
vt 0.500000 0.500000
vt 0.500000 0.500000
vt 0.500000 0.500000
vt 0.500000 0.500000
vt 0.500000 0.500000
vt 0.500000 0.500000
vt 0.500000 0.500000
vt 0.500000 0.500000
vt 0.500000 0.500000
vt 0.500000 0.500000
vt 0.500000 0.500000
vt 0.500000 0.500000
vt 0.500000 0.500000
vt 0.500000 0.500000
vt 0.500000 0.500000
vt 0.500000 0.500000
vt 0.500000 0.500000
vt 0.500000 0.500000
vt 0.500000 0.500000
vt 0.500000 0.500000
vt 0.500000 0.500000
vt 0.500000 0.500000
vt 0.500000 0.500000
vt 0.500000 0.500000
vt 0.500000 0.500000
vt 0.500000 0.500000
vt 0.500000 0.500000
vt 0.500000 0.500000
vt 0.500000 0.500000
vt 0.500000 0.500000
vt 0.500000 0.500000
vt 0.500000 0.500000
vt 0.500000 0.500000
vt 0.500000 0.500000
vt 0.500000 0.500000
vt 0.500000 0.500000
vt 0.500000 0.500000
vt 0.500000 0.500000
vt 0.500000 0.500000
vt 0.500000 0.500000
vt 0.500000 0.500000
vt 0.500000 0.500000
vt 0.500000 0.500000
vt 0.500000 0.500000
vt 0.500000 0.500000
vt 0.500000 0.500000
vt 0.500000 0.500000
vt 0.500000 0.500000
vt 0.500000 0.500000
vt 0.500000 0.500000
vt 0.500000 0.500000
vt 0.500000 0.500000
vt 0.500000 0.500000
vt 0.500000 0.500000
vt 0.500000 0.500000
vt 0.500000 0.500000
vt 0.500000 0.500000
vt 0.500000 0.500000
vt 0.500000 0.500000
vt 0.500000 0.500000
vt 0.500000 0.500000
vt 0.500000 0.500000
vt 0.500000 0.500000
vt 0.500000 0.500000
vt 0.500000 0.500000
vt 0.500000 0.500000
vt 0.500000 0.500000
vt 0.500000 0.500000
vt 0.500000 0.500000
vt 0.500000 0.500000
vt 0.500000 0.500000
vt 0.500000 0.500000
vt 0.500000 0.500000
vt 0.500000 0.500000
vt 0.500000 0.500000
vt 0.500000 0.500000
vt 0.500000 0.500000
vt 0.500000 0.500000
vt 0.500000 0.500000
vt 0.500000 0.500000
vt 0.500000 0.500000
vt 0.500000 0.500000
vt 0.500000 0.500000
vt 0.500000 0.500000
vt 0.500000 0.500000
vt 0.500000 0.500000
vt 0.500000 0.500000
vt 0.500000 0.500000
vt 0.500000 0.500000
vt 0.500000 0.500000
vt 0.500000 0.500000
vt 0.500000 0.500000
vt 0.500000 0.500000
vt 0.500000 0.500000
vt 0.500000 0.500000
vt 0.500000 0.500000
vt 0.500000 0.500000
vt 0.500000 0.500000
vt 0.500000 0.500000
vt 0.500000 0.500000
vt 0.500000 0.500000
vt 0.500000 0.500000
vt 0.500000 0.500000
vt 0.500000 0.500000
vt 0.500000 0.500000
vt 0.500000 0.500000
vt 0.500000 0.500000
vt 0.500000 0.500000
vt 0.500000 0.500000
vt 0.500000 0.500000
vt 0.500000 0.500000
vt 0.500000 0.500000
vt 0.500000 0.500000
vt 0.500000 0.500000
vt 0.500000 0.500000
vt 0.500000 0.500000
vt 0.544404 0.218607
vt 0.542188 0.217302
vt 0.542374 0.214181
vt 0.534124 0.193197
vt 0.529229 0.195570
vt 0.531528 0.192176
vt 0.560988 0.180800
vt 0.561609 0.184274
vt 0.538025 0.186457
vt 0.561617 0.194723
vt 0.537857 0.190317
vt 0.543210 0.167445
vt 0.536997 0.183940
vt 0.540892 0.168242
vt 0.551221 0.169385
vt 0.561321 0.175505
vt 0.548382 0.168798
vt 0.542335 0.162002
vt 0.542253 0.159282
vt 0.544249 0.157877
vt 0.534910 0.184328
vt 0.532503 0.185769
vt 0.530033 0.181840
vt 0.548965 0.162857
vt 0.548076 0.166313
vt 0.543266 0.165096
vt 0.537292 0.167930
vt 0.549573 0.213434
vt 0.549817 0.216272
vt 0.547638 0.218145
vt 0.547129 0.158011
vt 0.543582 0.210415
vt 0.543745 0.207481
vt 0.548373 0.208181
vt 0.567819 0.193820
vt 0.565859 0.193514
vt 0.569052 0.190915
vt 0.529669 0.192419
vt 0.548369 0.210438
vt 0.563567 0.184512
vt 0.562188 0.191616
vt 0.551087 0.207306
vt 0.529766 0.200355
vt 0.566135 0.183354
vt 0.569281 0.186567
vt 0.563760 0.191857
vt 0.549093 0.159730
vt 0.541417 0.206456
vt 0.536500 0.193103
vt 0.531250 0.166667
vt 0.562500 0.166667
vt 0.537647 0.206810
vt 0.568308 0.183451
vt 0.531250 0.208333
vt 0.530663 0.185559
vt 0.562500 0.208333
vn 0.0000 -1.0000 0.0000
vn 0.4038 0.0000 0.9148
vn -0.1065 0.0000 0.9943
vn -0.5418 0.0000 0.8405
vn 0.9969 0.0000 -0.0791
vn -0.9935 0.0000 -0.1139
vn 0.9193 0.0000 -0.3934
vn -0.8813 0.0000 -0.4725
vn -1.0000 0.0000 0.0024
vn 0.9973 0.0000 -0.0737
vn -0.2351 0.0000 0.9720
vn -0.1758 0.0000 0.9844
vn 0.3134 0.0000 0.9496
vn 0.0673 0.0000 0.9977
vn -0.0703 0.0000 0.9975
vn 0.9706 0.0000 0.2408
vn 0.9890 0.0000 0.1480
vn -0.9963 0.0000 -0.0862
vn 0.9830 0.0000 -0.1834
vn 0.0297 0.0000 -0.9996
vn -0.9713 0.0000 0.2378
vn 0.1162 0.0000 0.9932
vn -0.8704 0.0000 0.4924
vn 0.5094 0.0000 0.8605
vn 0.0972 0.0000 -0.9953
vn -0.2826 0.0000 -0.9592
vn 0.8387 0.0000 -0.5447
vn 0.1141 0.0000 0.9935
vn -0.9975 0.0000 0.0701
vn 0.9983 0.0000 -0.0582
vn -0.9232 0.0000 -0.3844
vn 0.8780 0.0000 0.4786
vn 0.0856 0.0000 0.9963
vn -0.4097 0.0000 0.9122
vn 0.9754 0.0000 0.2204
vn -0.0908 0.0000 -0.9959
vn 0.3204 0.0000 -0.9473
vn -0.0334 0.0000 -0.9994
vn -0.1381 0.0000 0.9904
vn -0.9728 0.0000 -0.2318
vn -0.9965 0.0000 0.0837
vn 0.9943 0.0000 -0.1063
vn -0.1549 0.0000 -0.9879
vn -0.0649 0.0000 -0.9979
vn -0.1533 0.0000 -0.9882
vn -0.9868 0.0000 -0.1620
vn 0.2499 0.0000 -0.9683
vn 0.1778 0.0000 -0.9841
vn -0.9846 0.0000 0.1751
vn 0.9995 0.0000 -0.0321
vn -0.9459 0.0000 0.3244
vn 0.9280 0.0000 0.3725
vn -0.9985 0.0000 0.0544
vn 0.9992 0.0000 0.0405
vn -0.5488 0.0000 -0.8360
vn 0.4668 0.0000 -0.8843
vn -0.0348 0.0000 -0.9994
vn 0.0000 1.0000 0.0000
usemtl BackMat.001
s off
f 189/1/1 193/2/1 187/3/1
f 214/4/1 222/5/1 209/6/1
f 239/7/1 225/8/1 236/9/1
f 210/10/1 236/9/1 223/11/1
f 249/12/1 244/13/1 228/14/1
f 245/15/1 225/8/1 239/7/1
f 240/16/1 245/15/1 239/7/1
f 246/17/1 228/14/1 225/8/1
f 255/18/1 260/19/1 257/20/1
f 233/21/1 234/22/1 232/23/1
f 254/24/1 253/25/1 248/26/1
f 244/13/1 243/27/1 228/14/1
f 236/9/1 225/8/1 223/11/1
f 194/28/1 190/29/1 191/30/1
f 253/25/1 259/31/1 255/18/1
f 195/32/1 197/33/1 199/34/1
f 218/35/1 220/36/1 217/37/1
f 209/6/1 222/5/1 211/38/1
f 196/39/1 195/32/1 190/29/1
f 260/19/1 255/18/1 259/31/1
f 236/9/1 215/40/1 235/41/1
f 190/29/1 193/2/1 189/1/1
f 201/42/1 223/11/1 197/33/1
f 208/43/1 214/4/1 209/6/1
f 228/14/1 243/27/1 233/21/1
f 249/12/1 248/26/1 253/25/1
f 238/44/1 221/45/1 224/46/1
f 256/47/1 259/31/1 254/24/1
f 259/31/1 253/25/1 254/24/1
f 223/11/1 213/48/1 205/49/1
f 234/22/1 243/27/1 241/50/1
f 197/33/1 195/32/1 196/39/1
f 210/10/1 223/11/1 201/42/1
f 196/39/1 190/29/1 194/28/1
f 248/26/1 249/12/1 246/17/1
f 245/15/1 240/16/1 251/51/1
f 204/52/1 214/4/1 208/43/1
f 246/17/1 249/12/1 228/14/1
f 238/44/1 235/41/1 221/45/1
f 217/37/1 220/36/1 221/45/1
f 226/53/1 238/44/1 224/46/1
f 193/2/1 190/29/1 195/32/1
f 197/33/1 223/11/1 199/34/1
f 204/52/1 208/43/1 202/54/1
f 215/40/1 236/9/1 210/10/1
f 199/34/1 223/11/1 205/49/1
f 246/17/1 225/8/1 245/15/1
f 205/49/1 213/48/1 204/52/1
f 234/22/1 233/21/1 243/27/1
f 232/23/1 234/22/1 230/55/1
f 220/36/1 224/46/1 221/45/1
f 210/10/1 201/42/1 206/56/1
f 221/45/1 235/41/1 215/40/1
f 213/48/1 214/4/1 204/52/1
f 114/57/2 49/58/2 105/59/2 188/60/2
f 49/58/3 50/61/3 106/62/3 105/59/3
f 50/61/4 118/63/4 192/64/4 106/62/4
f 47/65/5 48/66/5 104/67/5 103/68/5
f 51/69/6 52/70/6 108/71/6 107/72/6
f 46/73/7 47/65/7 103/68/7 102/74/7
f 52/70/8 53/75/8 109/76/8 108/71/8
f 53/75/9 124/77/9 198/78/9 109/76/9
f 126/79/10 46/73/10 102/74/10 200/80/10
f 54/81/11 55/82/11 111/83/11 110/84/11
f 129/85/12 43/86/12 99/87/12 203/88/12
f 44/89/13 45/90/13 101/91/13 100/92/13
f 55/82/14 133/93/14 207/94/14 111/83/14
f 43/86/15 44/89/15 100/92/15 99/87/15
f 41/95/16 42/96/16 98/97/16 97/98/16
f 40/99/17 41/95/17 97/98/17 96/100/17
f 56/101/18 1/102/18 57/103/18 112/104/18
f 138/105/19 40/99/19 96/100/19 212/106/19
f 36/107/20 37/108/20 93/109/20 92/110/20
f 1/102/21 142/111/21 216/112/21 57/103/21
f 4/113/22 145/114/22 219/115/22 60/116/22
f 5/117/23 6/118/23 62/119/23 61/120/23
f 3/121/24 4/113/24 60/116/24 59/122/24
f 38/123/25 39/124/25 95/125/25 94/126/25
f 37/108/26 38/123/26 94/126/26 93/109/26
f 35/127/27 36/107/27 92/110/27 91/128/27
f 2/129/28 3/121/28 59/122/28 58/130/28
f 6/118/29 7/131/29 63/132/29 62/119/29
f 34/133/30 35/127/30 91/128/30 90/134/30
f 7/131/31 153/135/31 227/136/31 63/132/31
f 155/137/32 34/133/32 90/134/32 229/138/32
f 157/139/33 31/140/33 87/141/33 231/142/33
f 31/140/34 32/143/34 88/144/34 87/141/34
f 29/145/35 30/146/35 86/147/35 85/148/35
f 10/149/36 163/150/36 237/151/36 66/152/36
f 9/153/37 10/149/37 66/152/37 65/154/37
f 8/155/38 9/153/38 65/154/38 64/156/38
f 32/143/39 33/157/39 89/158/39 88/144/39
f 11/159/40 12/160/40 68/161/40 67/162/40
f 12/160/41 13/163/41 69/164/41 68/161/41
f 168/165/42 29/145/42 85/148/42 242/166/42
f 27/167/43 28/168/43 84/169/43 83/170/43
f 26/171/44 27/167/44 83/170/44 82/172/44
f 15/173/45 173/174/45 247/175/45 71/176/45
f 16/177/46 17/178/46 73/179/46 72/180/46
f 176/181/47 26/171/47 82/172/47 250/182/47
f 178/183/48 15/173/48 71/176/48 252/184/48
f 13/163/49 14/185/49 70/186/49 69/164/49
f 24/187/50 25/188/50 81/189/50 80/190/50
f 17/178/51 18/191/51 74/192/51 73/179/51
f 23/193/52 24/187/52 80/190/52 79/194/52
f 18/191/53 19/195/53 75/196/53 74/192/53
f 184/197/54 23/193/54 79/194/54 258/198/54
f 19/195/55 20/199/55 76/200/55 75/196/55
f 21/201/56 22/202/56 78/203/56 77/204/56
f 20/199/57 21/201/57 77/204/57 76/200/57
usemtl FrontMat.001
f 115/205/58 113/206/58 119/207/58
f 140/208/58 135/209/58 148/210/58
f 165/211/58 162/212/58 151/213/58
f 136/214/58 149/215/58 162/212/58
f 175/216/58 154/217/58 170/218/58
f 171/219/58 165/211/58 151/213/58
f 166/220/58 165/211/58 171/219/58
f 172/221/58 151/213/58 154/217/58
f 181/222/58 183/223/58 186/224/58
f 159/225/58 158/226/58 160/227/58
f 180/228/58 174/229/58 179/230/58
f 170/218/58 154/217/58 169/231/58
f 162/212/58 149/215/58 151/213/58
f 120/232/58 117/233/58 116/234/58
f 179/230/58 181/222/58 185/235/58
f 121/236/58 125/237/58 123/238/58
f 144/239/58 143/240/58 146/241/58
f 135/209/58 137/242/58 148/210/58
f 122/243/58 116/234/58 121/236/58
f 186/224/58 185/235/58 181/222/58
f 162/212/58 161/244/58 141/245/58
f 116/234/58 115/205/58 119/207/58
f 127/246/58 123/238/58 149/215/58
f 134/247/58 135/209/58 140/208/58
f 154/217/58 159/225/58 169/231/58
f 175/216/58 179/230/58 174/229/58
f 164/248/58 150/249/58 147/250/58
f 182/251/58 180/228/58 185/235/58
f 185/235/58 180/228/58 179/230/58
f 149/215/58 131/252/58 139/253/58
f 160/227/58 167/254/58 169/231/58
f 123/238/58 122/243/58 121/236/58
f 136/214/58 127/246/58 149/215/58
f 122/243/58 120/232/58 116/234/58
f 174/229/58 172/221/58 175/216/58
f 171/219/58 177/255/58 166/220/58
f 130/256/58 134/247/58 140/208/58
f 172/221/58 154/217/58 175/216/58
f 164/248/58 147/250/58 161/244/58
f 143/240/58 147/250/58 146/241/58
f 152/257/58 150/249/58 164/248/58
f 119/207/58 121/236/58 116/234/58
f 123/238/58 125/237/58 149/215/58
f 130/256/58 128/258/58 134/247/58
f 141/245/58 136/214/58 162/212/58
f 125/237/58 131/252/58 149/215/58
f 172/221/58 171/219/58 151/213/58
f 131/252/58 130/256/58 139/253/58
f 160/227/58 169/231/58 159/225/58
f 158/226/58 156/259/58 160/227/58
f 146/241/58 147/250/58 150/249/58
f 136/214/58 132/260/58 127/246/58
f 147/250/58 141/245/58 161/244/58
f 139/253/58 130/256/58 140/208/58
