# Blender v2.83.1 OBJ File: 'jigsaw-32x24-3-step2.blend'
# www.blender.org
mtllib piece.30.mtl
o path60_path60.001
v 0.417112 0.037500 -0.107925
v 0.432317 0.037500 -0.019642
v 0.494319 0.037500 -0.013613
v 0.580210 0.037500 -0.045830
v 0.657758 0.037500 -0.052223
v 0.700038 0.037500 0.010744
v 0.701341 0.037500 0.104483
v 0.661264 0.037500 0.169870
v 0.584876 0.037500 0.167643
v 0.499160 0.037500 0.137945
v 0.436574 0.037500 0.140785
v 0.420277 0.037500 0.217737
v 0.436241 0.037500 0.336616
v 0.482726 0.037500 0.535776
v 0.271173 0.037500 0.567995
v 0.142990 0.037500 0.575182
v 0.055715 0.037500 0.552614
v 0.042678 0.037500 0.488623
v 0.062884 0.037500 0.405027
v 0.056753 0.037500 0.331963
v -0.015328 0.037500 0.294235
v -0.113126 0.037500 0.295370
v -0.176443 0.037500 0.333567
v -0.165908 0.037500 0.402924
v -0.125460 0.037500 0.481010
v -0.119863 0.037500 0.541288
v -0.194170 0.037500 0.564545
v -0.314573 0.037500 0.560902
v -0.518972 0.037500 0.535776
v -0.518972 0.037500 -0.466133
v -0.319158 0.037500 -0.444180
v -0.199301 0.037500 -0.443724
v -0.120397 0.037500 -0.472004
v -0.114473 0.037500 -0.539276
v -0.140808 0.037500 -0.625143
v -0.140493 0.037500 -0.701540
v -0.074196 0.037500 -0.744749
v 0.019103 0.037500 -0.748423
v 0.080844 0.037500 -0.710556
v 0.072908 0.037500 -0.634596
v 0.038936 0.037500 -0.545832
v 0.043006 0.037500 -0.474997
v 0.129185 0.037500 -0.444607
v 0.261486 0.037500 -0.444294
v 0.482726 0.037500 -0.466133
v 0.417112 -0.037500 -0.107925
v 0.432317 -0.037500 -0.019642
v 0.494319 -0.037500 -0.013613
v 0.580210 -0.037498 -0.045830
v 0.657758 -0.037500 -0.052223
v 0.700038 -0.037498 0.010744
v 0.701341 -0.037500 0.104483
v 0.661264 -0.037500 0.169870
v 0.584876 -0.037500 0.167643
v 0.499160 -0.037500 0.137945
v 0.436574 -0.037500 0.140785
v 0.420277 -0.037498 0.217737
v 0.436241 -0.037500 0.336616
v 0.482726 -0.037500 0.535776
v 0.271173 -0.037498 0.567995
v 0.142990 -0.037500 0.575182
v 0.055715 -0.037500 0.552614
v 0.042678 -0.037500 0.488623
v 0.062884 -0.037500 0.405027
v 0.056753 -0.037500 0.331963
v -0.015328 -0.037500 0.294235
v -0.113126 -0.037500 0.295370
v -0.176443 -0.037500 0.333567
v -0.165908 -0.037500 0.402924
v -0.125460 -0.037500 0.481010
v -0.119863 -0.037500 0.541288
v -0.194170 -0.037500 0.564545
v -0.314573 -0.037500 0.560902
v -0.518972 -0.037500 0.535776
v -0.518972 -0.037500 -0.466133
v -0.319158 -0.037500 -0.444180
v -0.199301 -0.037500 -0.443724
v -0.120397 -0.037500 -0.472004
v -0.114473 -0.037500 -0.539276
v -0.140808 -0.037500 -0.625143
v -0.140493 -0.037500 -0.701540
v -0.074196 -0.037500 -0.744749
v 0.019103 -0.037500 -0.748423
v 0.080844 -0.037500 -0.710556
v 0.072908 -0.037498 -0.634596
v 0.038936 -0.037498 -0.545832
v 0.043006 -0.037500 -0.474997
v 0.129185 -0.037500 -0.444607
v 0.261486 -0.037500 -0.444294
v 0.482726 -0.037500 -0.466133
v -0.518972 0.037500 0.535776
v -0.518972 0.037500 0.535776
v -0.518972 0.037500 -0.466133
v -0.518972 0.037500 -0.466133
v -0.319158 0.037500 -0.444180
v -0.314573 0.037500 0.560902
v -0.199301 0.037500 -0.443724
v -0.194170 0.037500 0.564545
v -0.120397 0.037500 -0.472004
v -0.120397 0.037500 -0.472004
v -0.119863 0.037500 0.541288
v -0.119863 0.037500 0.541288
v -0.176443 0.037500 0.333567
v -0.176443 0.037500 0.333567
v -0.165908 0.037500 0.402924
v -0.113126 0.037500 0.295370
v -0.125460 0.037500 0.481010
v -0.114473 0.037500 -0.539276
v -0.140808 0.037500 -0.625143
v -0.140493 0.037500 -0.701540
v -0.074196 0.037500 -0.744749
v -0.015328 0.037500 0.294235
v 0.019103 0.037500 -0.748423
v 0.056753 0.037500 0.331963
v 0.080844 0.037500 -0.710556
v 0.080844 0.037500 -0.710556
v 0.038936 0.037500 -0.545832
v 0.043006 0.037500 -0.474997
v 0.043006 0.037500 -0.474997
v 0.072908 0.037500 -0.634596
v 0.055715 0.037500 0.552614
v 0.055715 0.037500 0.552614
v 0.042678 0.037500 0.488623
v 0.062884 0.037500 0.405027
v 0.129185 0.037500 -0.444607
v 0.142990 0.037500 0.575182
v 0.261486 0.037500 -0.444294
v 0.271173 0.037500 0.567995
v 0.482726 0.037500 0.535776
v 0.482726 0.037500 0.535776
v 0.420277 0.037500 0.217737
v 0.436241 0.037500 0.336616
v 0.417112 0.037500 -0.107925
v 0.432317 0.037500 -0.019642
v 0.432317 0.037500 -0.019642
v 0.436574 0.037500 0.140785
v 0.436574 0.037500 0.140785
v 0.494319 0.037500 -0.013613
v 0.499160 0.037500 0.137945
v 0.482726 0.037500 -0.466133
v 0.482726 0.037500 -0.466133
v 0.580210 0.037500 -0.045830
v 0.584876 0.037500 0.167643
v 0.657758 0.037500 -0.052223
v 0.657758 0.037500 -0.052223
v 0.661264 0.037500 0.169870
v 0.700038 0.037500 0.010744
v 0.701341 0.037500 0.104483
v -0.518972 -0.037500 0.535776
v -0.518972 -0.037500 0.535776
v -0.518972 -0.037500 -0.466133
v -0.518972 -0.037500 -0.466133
v -0.319158 -0.037500 -0.444180
v -0.314573 -0.037500 0.560902
v -0.199301 -0.037500 -0.443724
v -0.194170 -0.037500 0.564545
v -0.120397 -0.037500 -0.472004
v -0.120397 -0.037500 -0.472004
v -0.119863 -0.037500 0.541288
v -0.119863 -0.037500 0.541288
v -0.176443 -0.037500 0.333567
v -0.176443 -0.037500 0.333567
v -0.165908 -0.037500 0.402924
v -0.113126 -0.037500 0.295370
v -0.125460 -0.037500 0.481010
v -0.114473 -0.037500 -0.539276
v -0.140808 -0.037500 -0.625143
v -0.140493 -0.037500 -0.701540
v -0.074196 -0.037500 -0.744749
v -0.015328 -0.037500 0.294235
v 0.019103 -0.037500 -0.748423
v 0.056753 -0.037500 0.331963
v 0.080844 -0.037500 -0.710556
v 0.080844 -0.037500 -0.710556
v 0.038936 -0.037498 -0.545832
v 0.043006 -0.037500 -0.474997
v 0.043006 -0.037500 -0.474997
v 0.072908 -0.037498 -0.634596
v 0.055715 -0.037500 0.552614
v 0.055715 -0.037500 0.552614
v 0.042678 -0.037500 0.488623
v 0.062884 -0.037500 0.405027
v 0.129185 -0.037500 -0.444607
v 0.142990 -0.037500 0.575182
v 0.261486 -0.037500 -0.444294
v 0.271173 -0.037498 0.567995
v 0.482726 -0.037500 0.535776
v 0.482726 -0.037500 0.535776
v 0.420277 -0.037498 0.217737
v 0.436241 -0.037500 0.336616
v 0.417112 -0.037500 -0.107925
v 0.432317 -0.037500 -0.019642
v 0.432317 -0.037500 -0.019642
v 0.436574 -0.037500 0.140785
v 0.436574 -0.037500 0.140785
v 0.494319 -0.037500 -0.013613
v 0.499160 -0.037500 0.137945
v 0.482726 -0.037500 -0.466133
v 0.482726 -0.037500 -0.466133
v 0.580210 -0.037498 -0.045830
v 0.584876 -0.037500 0.167643
v 0.657758 -0.037500 -0.052223
v 0.657758 -0.037500 -0.052223
v 0.661264 -0.037500 0.169870
v 0.700038 -0.037498 0.010744
v 0.701341 -0.037500 0.104483
vt 0.500000 0.500000
vt 0.500000 0.500000
vt 0.500000 0.500000
vt 0.500000 0.500000
vt 0.500000 0.500000
vt 0.500000 0.500000
vt 0.500000 0.500000
vt 0.500000 0.500000
vt 0.500000 0.500000
vt 0.500000 0.500000
vt 0.500000 0.500000
vt 0.500000 0.500000
vt 0.500000 0.500000
vt 0.500000 0.500000
vt 0.500000 0.500000
vt 0.500000 0.500000
vt 0.500000 0.500000
vt 0.500000 0.500000
vt 0.500000 0.500000
vt 0.500000 0.500000
vt 0.500000 0.500000
vt 0.500000 0.500000
vt 0.500000 0.500000
vt 0.500000 0.500000
vt 0.500000 0.500000
vt 0.500000 0.500000
vt 0.500000 0.500000
vt 0.500000 0.500000
vt 0.500000 0.500000
vt 0.500000 0.500000
vt 0.500000 0.500000
vt 0.500000 0.500000
vt 0.500000 0.500000
vt 0.500000 0.500000
vt 0.500000 0.500000
vt 0.500000 0.500000
vt 0.500000 0.500000
vt 0.500000 0.500000
vt 0.500000 0.500000
vt 0.500000 0.500000
vt 0.500000 0.500000
vt 0.500000 0.500000
vt 0.500000 0.500000
vt 0.500000 0.500000
vt 0.500000 0.500000
vt 0.500000 0.500000
vt 0.500000 0.500000
vt 0.500000 0.500000
vt 0.500000 0.500000
vt 0.500000 0.500000
vt 0.500000 0.500000
vt 0.500000 0.500000
vt 0.500000 0.500000
vt 0.500000 0.500000
vt 0.500000 0.500000
vt 0.500000 0.500000
vt 0.500000 0.500000
vt 0.500000 0.500000
vt 0.500000 0.500000
vt 0.500000 0.500000
vt 0.500000 0.500000
vt 0.500000 0.500000
vt 0.500000 0.500000
vt 0.500000 0.500000
vt 0.500000 0.500000
vt 0.500000 0.500000
vt 0.500000 0.500000
vt 0.500000 0.500000
vt 0.500000 0.500000
vt 0.500000 0.500000
vt 0.500000 0.500000
vt 0.500000 0.500000
vt 0.500000 0.500000
vt 0.500000 0.500000
vt 0.500000 0.500000
vt 0.500000 0.500000
vt 0.500000 0.500000
vt 0.500000 0.500000
vt 0.500000 0.500000
vt 0.500000 0.500000
vt 0.500000 0.500000
vt 0.500000 0.500000
vt 0.500000 0.500000
vt 0.500000 0.500000
vt 0.500000 0.500000
vt 0.500000 0.500000
vt 0.500000 0.500000
vt 0.500000 0.500000
vt 0.500000 0.500000
vt 0.500000 0.500000
vt 0.500000 0.500000
vt 0.500000 0.500000
vt 0.500000 0.500000
vt 0.500000 0.500000
vt 0.500000 0.500000
vt 0.500000 0.500000
vt 0.500000 0.500000
vt 0.500000 0.500000
vt 0.500000 0.500000
vt 0.500000 0.500000
vt 0.500000 0.500000
vt 0.500000 0.500000
vt 0.500000 0.500000
vt 0.500000 0.500000
vt 0.500000 0.500000
vt 0.500000 0.500000
vt 0.500000 0.500000
vt 0.500000 0.500000
vt 0.500000 0.500000
vt 0.500000 0.500000
vt 0.500000 0.500000
vt 0.500000 0.500000
vt 0.500000 0.500000
vt 0.500000 0.500000
vt 0.500000 0.500000
vt 0.500000 0.500000
vt 0.500000 0.500000
vt 0.500000 0.500000
vt 0.500000 0.500000
vt 0.500000 0.500000
vt 0.500000 0.500000
vt 0.500000 0.500000
vt 0.500000 0.500000
vt 0.500000 0.500000
vt 0.500000 0.500000
vt 0.500000 0.500000
vt 0.500000 0.500000
vt 0.500000 0.500000
vt 0.500000 0.500000
vt 0.500000 0.500000
vt 0.500000 0.500000
vt 0.500000 0.500000
vt 0.500000 0.500000
vt 0.500000 0.500000
vt 0.500000 0.500000
vt 0.500000 0.500000
vt 0.500000 0.500000
vt 0.500000 0.500000
vt 0.500000 0.500000
vt 0.500000 0.500000
vt 0.500000 0.500000
vt 0.500000 0.500000
vt 0.500000 0.500000
vt 0.500000 0.500000
vt 0.500000 0.500000
vt 0.500000 0.500000
vt 0.500000 0.500000
vt 0.500000 0.500000
vt 0.500000 0.500000
vt 0.500000 0.500000
vt 0.500000 0.500000
vt 0.500000 0.500000
vt 0.500000 0.500000
vt 0.500000 0.500000
vt 0.500000 0.500000
vt 0.500000 0.500000
vt 0.500000 0.500000
vt 0.500000 0.500000
vt 0.500000 0.500000
vt 0.500000 0.500000
vt 0.500000 0.500000
vt 0.913784 0.979050
vt 0.912607 0.976052
vt 0.923574 0.960430
vt 0.937500 1.000000
vt 0.906250 1.000000
vt 0.912557 0.985752
vt 0.936815 0.991688
vt 0.917732 0.954084
vt 0.919702 0.949240
vt 0.924390 0.954278
vt 0.944842 0.984257
vt 0.942459 0.984270
vt 0.946190 0.981499
vt 0.926327 0.961063
vt 0.937500 0.958333
vt 0.936819 0.967536
vt 0.939781 0.983174
vt 0.937776 0.976624
vt 0.939986 0.976793
vt 0.905466 0.991498
vt 0.916170 0.960931
vt 0.918570 0.960253
vt 0.905245 0.967133
vt 0.912462 0.960267
vt 0.910328 0.975797
vt 0.936801 0.986703
vt 0.913748 0.983118
vt 0.923386 0.957851
vt 0.918658 0.957650
vt 0.936829 0.973039
vt 0.905353 0.986489
vt 0.906078 0.983399
vt 0.907958 0.983631
vt 0.937683 0.983421
vt 0.942754 0.975380
vt 0.946305 0.977618
vt 0.907721 0.976638
vt 0.905021 0.972465
vt 0.922626 0.949294
vt 0.905725 0.976095
vt 0.917663 0.950907
vt 0.906250 0.958333
vt 0.910394 0.985314
vt 0.924590 0.951053
vt 0.945124 0.975050
vn 0.0000 -1.0000 0.0000
vn -0.0000 -1.0000 0.0001
vn -1.0000 0.0000 0.0000
vn 0.1092 0.0000 -0.9940
vn -0.1220 0.0000 0.9925
vn 0.0038 0.0000 -1.0000
vn -0.0302 0.0000 0.9995
vn -0.3374 0.0000 -0.9414
vn 0.2987 0.0000 0.9544
vn 0.9887 0.0000 -0.1502
vn 0.5165 0.0000 0.8563
vn 0.9957 0.0000 -0.0924
vn 0.8879 0.0000 -0.4599
vn -0.9560 0.0000 0.2932
vn -1.0000 0.0000 -0.0041
vn -0.5460 0.0000 -0.8378
vn -0.9961 0.0000 -0.0877
vn 0.0116 0.0000 0.9999
vn -0.0393 0.0000 -0.9992
vn -0.4637 0.0000 0.8860
vn 0.5228 0.0000 -0.8524
vn 0.9984 0.0000 -0.0574
vn 0.9339 0.0000 0.3574
vn 0.9946 0.0000 0.1039
vn -0.9799 0.0000 0.1996
vn -0.9720 0.0000 -0.2349
vn 0.3326 0.0000 -0.9431
vn -0.2503 0.0000 0.9682
vn -0.9965 0.0000 0.0836
vn 0.0024 0.0000 -1.0000
vn 0.0560 0.0000 0.9984
vn 0.1506 0.0000 0.9886
vn 0.9911 0.0000 -0.1331
vn 0.9855 0.0000 -0.1697
vn 0.9783 0.0000 0.2072
vn 0.0968 0.0000 -0.9953
vn 0.0453 0.0000 0.9990
vn -0.0982 0.0000 -0.9952
vn 0.9836 0.0000 0.1802
vn 0.9738 0.0000 -0.2273
vn -0.3512 0.0000 -0.9363
vn -0.3274 0.0000 0.9449
vn -0.0822 0.0000 -0.9966
vn -0.0292 0.0000 0.9996
vn 0.8302 0.0000 -0.5574
vn 0.8526 0.0000 0.5226
vn 0.9999 0.0000 -0.0139
vn 0.0000 1.0000 0.0000
usemtl BackMat.001
s off
f 170/1/1 192/2/1 172/3/1
f 151/4/1 161/5/1 149/6/1
f 153/7/1 161/5/1 151/4/1
f 201/8/1 200/9/1 206/10/1
f 168/11/1 169/12/1 167/13/1
f 191/14/1 185/15/1 198/16/1
f 166/17/1 175/18/1 176/19/1
f 149/6/1 161/5/1 154/20/1
f 189/21/1 172/3/1 194/22/1
f 186/23/1 182/24/1 190/25/1
f 155/26/1 170/1/1 164/27/1
f 200/9/1 197/28/1 196/29/1
f 183/30/1 191/14/1 170/1/1
f 156/31/1 165/32/1 159/33/1
f 166/17/1 176/19/1 157/34/1
f 155/26/1 164/27/1 153/7/1
f 169/12/1 178/35/1 167/13/1
f 175/18/1 167/13/1 178/35/1
f 171/36/1 178/35/1 169/12/1
f 167/13/1 175/18/1 166/17/1
f 182/24/1 184/37/1 181/38/1
f 205/39/1 206/10/1 200/9/1
f 181/38/1 184/37/1 179/40/1
f 155/26/1 183/30/1 170/1/1
f 172/3/1 190/25/1 182/24/1
f 201/8/1 206/10/1 204/41/1
f 197/28/1 200/9/1 201/8/1
f 186/23/1 190/25/1 187/42/1
f 196/29/1 197/28/1 194/22/1
f 154/20/1 163/43/1 156/31/1
f 190/25/1 172/3/1 189/21/1
f 196/29/1 194/22/1 192/2/1
f 157/34/1 183/30/1 155/26/1
f 202/44/2 205/39/2 200/9/2
f 156/31/1 163/43/1 165/32/1
f 161/5/1 163/43/1 154/20/1
f 153/7/1 164/27/1 161/5/1
f 176/19/1 183/30/1 157/34/1
f 191/14/1 192/2/1 170/1/1
f 185/15/1 191/14/1 183/30/1
f 173/45/1 178/35/1 171/36/1
f 184/37/1 182/24/1 186/23/1
f 192/2/1 194/22/1 172/3/1
f 92/46/3 94/47/3 152/48/3 150/49/3
f 30/50/4 31/51/4 76/52/4 75/53/4
f 28/54/5 29/55/5 74/56/5 73/57/5
f 31/51/6 32/58/6 77/59/6 76/52/6
f 27/60/7 28/54/7 73/57/7 72/61/7
f 32/58/8 100/62/8 158/63/8 77/59/8
f 102/64/9 27/60/9 72/61/9 160/65/9
f 104/66/10 24/67/10 69/68/10 162/69/10
f 22/70/11 23/71/11 68/72/11 67/73/11
f 25/74/12 26/75/12 71/76/12 70/77/12
f 24/67/13 25/74/13 70/77/13 69/68/13
f 34/78/14 35/79/14 80/80/14 79/81/14
f 35/79/15 36/82/15 81/83/15 80/80/15
f 36/82/16 37/84/16 82/85/16 81/83/16
f 33/86/17 34/78/17 79/81/17 78/87/17
f 21/88/18 22/70/18 67/73/18 66/89/18
f 37/84/19 38/90/19 83/91/19 82/85/19
f 20/92/20 21/88/20 66/89/20 65/93/20
f 38/90/21 116/94/21 174/95/21 83/91/21
f 41/96/22 119/97/22 177/98/22 86/99/22
f 40/100/23 41/96/23 86/99/23 85/101/23
f 39/102/24 40/100/24 85/101/24 84/103/24
f 122/104/25 18/105/25 63/106/25 180/107/25
f 18/105/26 19/108/26 64/109/26 63/106/26
f 42/110/27 43/111/27 88/112/27 87/113/27
f 16/114/28 17/115/28 62/116/28 61/117/28
f 19/108/29 20/92/29 65/93/29 64/109/29
f 43/111/30 44/118/30 89/119/30 88/112/30
f 15/120/31 16/114/31 61/117/31 60/121/31
f 130/122/32 15/120/32 60/121/32 188/123/32
f 12/124/33 13/125/33 58/126/33 57/127/33
f 1/128/34 135/129/34 193/130/34 46/131/34
f 137/132/35 12/124/35 57/127/35 195/133/35
f 2/134/36 3/135/36 48/136/36 47/137/36
f 10/138/37 11/139/37 56/140/37 55/141/37
f 44/118/38 141/142/38 199/143/38 89/119/38
f 45/144/39 1/128/39 46/131/39 90/145/39
f 13/125/40 14/146/40 59/147/40 58/126/40
f 3/135/41 4/148/41 49/149/41 48/136/41
f 9/150/42 10/138/42 55/141/42 54/151/42
f 4/148/43 145/152/43 203/153/43 49/149/43
f 8/154/44 9/150/44 54/151/44 53/155/44
f 5/156/45 6/157/45 51/158/45 50/159/45
f 7/160/46 8/154/46 53/155/46 52/161/46
f 6/157/47 7/160/47 52/161/47 51/158/47
usemtl FrontMat.001
f 112/162/48 114/163/48 134/164/48
f 93/165/48 91/166/48 103/167/48
f 95/168/48 93/165/48 103/167/48
f 143/169/48 148/170/48 142/171/48
f 110/172/48 109/173/48 111/174/48
f 133/175/48 140/176/48 127/177/48
f 108/178/48 118/179/48 117/180/48
f 91/166/48 96/181/48 103/167/48
f 131/182/48 136/183/48 114/163/48
f 128/184/48 132/185/48 124/186/48
f 97/187/48 106/188/48 112/162/48
f 142/171/48 138/189/48 139/190/48
f 125/191/48 112/162/48 133/175/48
f 98/192/48 101/193/48 107/194/48
f 108/178/48 99/195/48 118/179/48
f 97/187/48 95/168/48 106/188/48
f 111/174/48 109/173/48 120/196/48
f 117/180/48 120/196/48 109/173/48
f 113/197/48 111/174/48 120/196/48
f 109/173/48 108/178/48 117/180/48
f 124/186/48 123/198/48 126/199/48
f 147/200/48 142/171/48 148/170/48
f 123/198/48 121/201/48 126/199/48
f 97/187/48 112/162/48 125/191/48
f 114/163/48 124/186/48 132/185/48
f 143/169/48 146/202/48 148/170/48
f 139/190/48 143/169/48 142/171/48
f 128/184/48 129/203/48 132/185/48
f 138/189/48 136/183/48 139/190/48
f 96/181/48 98/192/48 105/204/48
f 132/185/48 131/182/48 114/163/48
f 138/189/48 134/164/48 136/183/48
f 99/195/48 97/187/48 125/191/48
f 144/205/48 142/171/48 147/200/48
f 98/192/48 107/194/48 105/204/48
f 103/167/48 96/181/48 105/204/48
f 95/168/48 103/167/48 106/188/48
f 118/179/48 99/195/48 125/191/48
f 133/175/48 112/162/48 134/164/48
f 127/177/48 125/191/48 133/175/48
f 115/206/48 113/197/48 120/196/48
f 126/199/48 128/184/48 124/186/48
f 134/164/48 114/163/48 136/183/48
