# Blender v2.83.1 OBJ File: 'jigsaw-32x24-3-step2.blend'
# www.blender.org
mtllib piece.566.mtl
o path1132
v -0.568670 0.037500 0.304377
v -0.581852 0.037500 0.187027
v -0.560167 0.037500 0.109461
v -0.489151 0.037500 0.102760
v -0.393944 0.037500 0.126432
v -0.309580 0.037500 0.122082
v -0.264833 0.037500 0.051016
v -0.263464 0.037500 -0.046673
v -0.302967 0.037500 -0.111189
v -0.376520 0.037500 -0.103548
v -0.460049 0.037500 -0.068005
v -0.525173 0.037500 -0.069618
v -0.551273 0.037500 -0.153315
v -0.548821 0.037500 -0.283466
v -0.524181 0.037500 -0.501919
v -0.294050 0.037500 -0.542849
v -0.156675 0.037500 -0.553127
v -0.067743 0.037500 -0.527803
v -0.064816 0.037500 -0.453066
v -0.101749 0.037500 -0.356729
v -0.111477 0.037500 -0.277016
v -0.048292 0.037500 -0.244284
v 0.048014 0.037500 -0.257435
v 0.116283 0.037500 -0.307505
v 0.115616 0.037500 -0.382944
v 0.086122 0.037500 -0.461887
v 0.088169 0.037500 -0.519892
v 0.163706 0.037500 -0.539642
v 0.280981 0.037500 -0.532335
v 0.477728 0.037500 -0.501919
v 0.424871 0.037500 -0.277716
v 0.407154 0.037500 -0.144264
v 0.426941 0.037500 -0.058737
v 0.499973 0.037500 -0.057842
v 0.597204 0.037500 -0.095675
v 0.678394 0.037500 -0.105677
v 0.711725 0.037500 -0.042475
v 0.699081 0.037500 0.054680
v 0.650772 0.037500 0.125355
v 0.579218 0.037500 0.128977
v 0.505325 0.037500 0.104381
v 0.452122 0.037500 0.110260
v 0.435804 0.037500 0.187336
v 0.477728 0.037500 0.499779
v 0.276383 0.037500 0.543486
v 0.157473 0.037500 0.557837
v 0.083391 0.037500 0.540598
v 0.087061 0.037500 0.478111
v 0.123409 0.037500 0.392401
v 0.127855 0.037500 0.314411
v 0.057400 0.037500 0.269857
v -0.044624 0.037500 0.263550
v -0.113310 0.037500 0.295059
v -0.105980 0.037500 0.359625
v -0.068911 0.037500 0.435143
v -0.070608 0.037500 0.495171
v -0.158405 0.037500 0.520365
v -0.524181 0.037500 0.499779
v -0.568670 -0.037500 0.304377
v -0.581852 -0.037500 0.187027
v -0.560167 -0.037500 0.109461
v -0.489151 -0.037500 0.102760
v -0.393944 -0.037500 0.126432
v -0.309580 -0.037500 0.122082
v -0.264833 -0.037500 0.051016
v -0.263464 -0.037500 -0.046673
v -0.302967 -0.037500 -0.111189
v -0.376520 -0.037498 -0.103548
v -0.460049 -0.037500 -0.068005
v -0.525173 -0.037498 -0.069618
v -0.551273 -0.037500 -0.153315
v -0.548821 -0.037498 -0.283466
v -0.524181 -0.037500 -0.501919
v -0.294050 -0.037498 -0.542849
v -0.156675 -0.037500 -0.553127
v -0.067743 -0.037500 -0.527803
v -0.064816 -0.037500 -0.453066
v -0.101749 -0.037500 -0.356729
v -0.111477 -0.037500 -0.277016
v -0.048292 -0.037500 -0.244284
v 0.048014 -0.037500 -0.257435
v 0.116283 -0.037500 -0.307505
v 0.115616 -0.037500 -0.382944
v 0.086122 -0.037500 -0.461887
v 0.088169 -0.037500 -0.519892
v 0.163706 -0.037500 -0.539642
v 0.280981 -0.037500 -0.532335
v 0.477728 -0.037498 -0.501919
v 0.424871 -0.037500 -0.277716
v 0.407154 -0.037500 -0.144264
v 0.426941 -0.037500 -0.058737
v 0.499973 -0.037498 -0.057842
v 0.597204 -0.037498 -0.095675
v 0.678394 -0.037498 -0.105677
v 0.711725 -0.037500 -0.042475
v 0.699081 -0.037500 0.054680
v 0.650772 -0.037500 0.125355
v 0.579218 -0.037498 0.128977
v 0.505325 -0.037500 0.104381
v 0.452122 -0.037500 0.110260
v 0.435804 -0.037500 0.187336
v 0.477728 -0.037500 0.499779
v 0.276383 -0.037500 0.543486
v 0.157473 -0.037500 0.557837
v 0.083391 -0.037500 0.540598
v 0.087061 -0.037500 0.478111
v 0.123409 -0.037500 0.392401
v 0.127855 -0.037500 0.314411
v 0.057400 -0.037498 0.269857
v -0.044624 -0.037498 0.263550
v -0.113310 -0.037500 0.295059
v -0.105980 -0.037500 0.359625
v -0.068911 -0.037500 0.435143
v -0.070608 -0.037500 0.495171
v -0.158405 -0.037500 0.520365
v -0.524181 -0.037500 0.499779
v 0.276383 0.037500 0.543486
v 0.157473 0.037500 0.557837
v 0.083391 0.037500 0.540598
v 0.083391 0.037500 0.540598
v 0.087061 0.037500 0.478111
v -0.070608 0.037500 0.495171
v -0.070608 0.037500 0.495171
v -0.158405 0.037500 0.520365
v 0.477728 0.037500 0.499779
v 0.477728 0.037500 0.499779
v -0.524181 0.037500 0.499779
v -0.524181 0.037500 0.499779
v -0.068911 0.037500 0.435143
v 0.123409 0.037500 0.392401
v -0.105980 0.037500 0.359625
v -0.568670 0.037500 0.304377
v 0.127855 0.037500 0.314411
v 0.127855 0.037500 0.314411
v -0.113310 0.037500 0.295059
v -0.113310 0.037500 0.295059
v 0.057400 0.037500 0.269857
v 0.435804 0.037500 0.187336
v -0.581852 0.037500 0.187027
v -0.044624 0.037500 0.263550
v 0.452122 0.037500 0.110260
v 0.452122 0.037500 0.110260
v -0.560167 0.037500 0.109461
v -0.560167 0.037500 0.109461
v 0.650772 0.037500 0.125355
v 0.579218 0.037500 0.128977
v 0.505325 0.037500 0.104381
v -0.393944 0.037500 0.126432
v -0.309580 0.037500 0.122082
v -0.489151 0.037500 0.102760
v 0.699081 0.037500 0.054680
v -0.264833 0.037500 0.051016
v 0.711725 0.037500 -0.042475
v -0.263464 0.037500 -0.046673
v 0.678394 0.037500 -0.105677
v 0.678394 0.037500 -0.105677
v 0.426941 0.037500 -0.058737
v 0.426941 0.037500 -0.058737
v 0.499973 0.037500 -0.057842
v -0.302967 0.037500 -0.111189
v -0.302967 0.037500 -0.111189
v 0.597204 0.037500 -0.095675
v 0.407154 0.037500 -0.144264
v -0.376520 0.037500 -0.103548
v -0.460049 0.037500 -0.068005
v -0.525173 0.037500 -0.069618
v -0.525173 0.037500 -0.069618
v -0.551273 0.037500 -0.153315
v 0.424871 0.037500 -0.277716
v -0.548821 0.037500 -0.283466
v -0.048292 0.037500 -0.244284
v 0.048014 0.037500 -0.257435
v -0.111477 0.037500 -0.277016
v -0.111477 0.037500 -0.277016
v 0.116283 0.037500 -0.307505
v -0.101749 0.037500 -0.356729
v 0.115616 0.037500 -0.382944
v -0.064816 0.037500 -0.453066
v 0.086122 0.037500 -0.461887
v 0.477728 0.037500 -0.501919
v 0.477728 0.037500 -0.501919
v -0.067743 0.037500 -0.527803
v -0.067743 0.037500 -0.527803
v 0.088169 0.037500 -0.519892
v 0.088169 0.037500 -0.519892
v -0.524181 0.037500 -0.501919
v -0.524181 0.037500 -0.501919
v 0.280981 0.037500 -0.532335
v 0.163706 0.037500 -0.539642
v -0.294050 0.037500 -0.542849
v -0.156675 0.037500 -0.553127
v 0.276383 -0.037500 0.543486
v 0.157473 -0.037500 0.557837
v 0.083391 -0.037500 0.540598
v 0.083391 -0.037500 0.540598
v 0.087061 -0.037500 0.478111
v -0.070608 -0.037500 0.495171
v -0.070608 -0.037500 0.495171
v -0.158405 -0.037500 0.520365
v 0.477728 -0.037500 0.499779
v 0.477728 -0.037500 0.499779
v -0.524181 -0.037500 0.499779
v -0.524181 -0.037500 0.499779
v -0.068911 -0.037500 0.435143
v 0.123409 -0.037500 0.392401
v -0.105980 -0.037500 0.359625
v -0.568670 -0.037500 0.304377
v 0.127855 -0.037500 0.314411
v 0.127855 -0.037500 0.314411
v -0.113310 -0.037500 0.295059
v -0.113310 -0.037500 0.295059
v 0.057400 -0.037498 0.269857
v 0.435804 -0.037500 0.187336
v -0.581852 -0.037500 0.187027
v -0.044624 -0.037498 0.263550
v 0.452122 -0.037500 0.110260
v 0.452122 -0.037500 0.110260
v -0.560167 -0.037500 0.109461
v -0.560167 -0.037500 0.109461
v 0.650772 -0.037500 0.125355
v 0.579218 -0.037498 0.128977
v 0.505325 -0.037500 0.104381
v -0.393944 -0.037500 0.126432
v -0.309580 -0.037500 0.122082
v -0.489151 -0.037500 0.102760
v 0.699081 -0.037500 0.054680
v -0.264833 -0.037500 0.051016
v 0.711725 -0.037500 -0.042475
v -0.263464 -0.037500 -0.046673
v 0.678394 -0.037498 -0.105677
v 0.678394 -0.037498 -0.105677
v 0.426941 -0.037500 -0.058737
v 0.426941 -0.037500 -0.058737
v 0.499973 -0.037498 -0.057842
v -0.302967 -0.037500 -0.111189
v -0.302967 -0.037500 -0.111189
v 0.597204 -0.037498 -0.095675
v 0.407154 -0.037500 -0.144264
v -0.376520 -0.037498 -0.103548
v -0.460049 -0.037500 -0.068005
v -0.525173 -0.037498 -0.069618
v -0.525173 -0.037498 -0.069618
v -0.551273 -0.037500 -0.153315
v 0.424871 -0.037500 -0.277716
v -0.548821 -0.037498 -0.283466
v -0.048292 -0.037500 -0.244284
v 0.048014 -0.037500 -0.257435
v -0.111477 -0.037500 -0.277016
v -0.111477 -0.037500 -0.277016
v 0.116283 -0.037500 -0.307505
v -0.101749 -0.037500 -0.356729
v 0.115616 -0.037500 -0.382944
v -0.064816 -0.037500 -0.453066
v 0.086122 -0.037500 -0.461887
v 0.477728 -0.037498 -0.501919
v 0.477728 -0.037498 -0.501919
v -0.067743 -0.037500 -0.527803
v -0.067743 -0.037500 -0.527803
v 0.088169 -0.037500 -0.519892
v 0.088169 -0.037500 -0.519892
v -0.524181 -0.037500 -0.501919
v -0.524181 -0.037500 -0.501919
v 0.280981 -0.037500 -0.532335
v 0.163706 -0.037500 -0.539642
v -0.294050 -0.037498 -0.542849
v -0.156675 -0.037500 -0.553127
vt 0.500000 0.500000
vt 0.500000 0.500000
vt 0.500000 0.500000
vt 0.500000 0.500000
vt 0.500000 0.500000
vt 0.500000 0.500000
vt 0.500000 0.500000
vt 0.500000 0.500000
vt 0.500000 0.500000
vt 0.500000 0.500000
vt 0.500000 0.500000
vt 0.500000 0.500000
vt 0.500000 0.500000
vt 0.500000 0.500000
vt 0.500000 0.500000
vt 0.500000 0.500000
vt 0.500000 0.500000
vt 0.500000 0.500000
vt 0.500000 0.500000
vt 0.500000 0.500000
vt 0.500000 0.500000
vt 0.500000 0.500000
vt 0.500000 0.500000
vt 0.500000 0.500000
vt 0.500000 0.500000
vt 0.500000 0.500000
vt 0.500000 0.500000
vt 0.500000 0.500000
vt 0.500000 0.500000
vt 0.500000 0.500000
vt 0.500000 0.500000
vt 0.500000 0.500000
vt 0.500000 0.500000
vt 0.500000 0.500000
vt 0.500000 0.500000
vt 0.500000 0.500000
vt 0.500000 0.500000
vt 0.500000 0.500000
vt 0.500000 0.500000
vt 0.500000 0.500000
vt 0.500000 0.500000
vt 0.500000 0.500000
vt 0.500000 0.500000
vt 0.500000 0.500000
vt 0.500000 0.500000
vt 0.500000 0.500000
vt 0.500000 0.500000
vt 0.500000 0.500000
vt 0.500000 0.500000
vt 0.500000 0.500000
vt 0.500000 0.500000
vt 0.500000 0.500000
vt 0.500000 0.500000
vt 0.500000 0.500000
vt 0.500000 0.500000
vt 0.500000 0.500000
vt 0.500000 0.500000
vt 0.500000 0.500000
vt 0.500000 0.500000
vt 0.500000 0.500000
vt 0.500000 0.500000
vt 0.500000 0.500000
vt 0.500000 0.500000
vt 0.500000 0.500000
vt 0.500000 0.500000
vt 0.500000 0.500000
vt 0.500000 0.500000
vt 0.500000 0.500000
vt 0.500000 0.500000
vt 0.500000 0.500000
vt 0.500000 0.500000
vt 0.500000 0.500000
vt 0.500000 0.500000
vt 0.500000 0.500000
vt 0.500000 0.500000
vt 0.500000 0.500000
vt 0.500000 0.500000
vt 0.500000 0.500000
vt 0.500000 0.500000
vt 0.500000 0.500000
vt 0.500000 0.500000
vt 0.500000 0.500000
vt 0.500000 0.500000
vt 0.500000 0.500000
vt 0.500000 0.500000
vt 0.500000 0.500000
vt 0.500000 0.500000
vt 0.500000 0.500000
vt 0.500000 0.500000
vt 0.500000 0.500000
vt 0.500000 0.500000
vt 0.500000 0.500000
vt 0.500000 0.500000
vt 0.500000 0.500000
vt 0.500000 0.500000
vt 0.500000 0.500000
vt 0.500000 0.500000
vt 0.500000 0.500000
vt 0.500000 0.500000
vt 0.500000 0.500000
vt 0.500000 0.500000
vt 0.500000 0.500000
vt 0.500000 0.500000
vt 0.500000 0.500000
vt 0.500000 0.500000
vt 0.500000 0.500000
vt 0.500000 0.500000
vt 0.500000 0.500000
vt 0.500000 0.500000
vt 0.500000 0.500000
vt 0.500000 0.500000
vt 0.500000 0.500000
vt 0.500000 0.500000
vt 0.500000 0.500000
vt 0.500000 0.500000
vt 0.500000 0.500000
vt 0.500000 0.500000
vt 0.500000 0.500000
vt 0.500000 0.500000
vt 0.500000 0.500000
vt 0.500000 0.500000
vt 0.500000 0.500000
vt 0.500000 0.500000
vt 0.500000 0.500000
vt 0.500000 0.500000
vt 0.500000 0.500000
vt 0.500000 0.500000
vt 0.500000 0.500000
vt 0.500000 0.500000
vt 0.500000 0.500000
vt 0.500000 0.500000
vt 0.500000 0.500000
vt 0.500000 0.500000
vt 0.500000 0.500000
vt 0.500000 0.500000
vt 0.500000 0.500000
vt 0.500000 0.500000
vt 0.500000 0.500000
vt 0.500000 0.500000
vt 0.500000 0.500000
vt 0.500000 0.500000
vt 0.500000 0.500000
vt 0.500000 0.500000
vt 0.500000 0.500000
vt 0.500000 0.500000
vt 0.500000 0.500000
vt 0.500000 0.500000
vt 0.500000 0.500000
vt 0.500000 0.500000
vt 0.500000 0.500000
vt 0.500000 0.500000
vt 0.500000 0.500000
vt 0.500000 0.500000
vt 0.500000 0.500000
vt 0.500000 0.500000
vt 0.500000 0.500000
vt 0.500000 0.500000
vt 0.500000 0.500000
vt 0.500000 0.500000
vt 0.500000 0.500000
vt 0.500000 0.500000
vt 0.500000 0.500000
vt 0.500000 0.500000
vt 0.500000 0.500000
vt 0.500000 0.500000
vt 0.500000 0.500000
vt 0.500000 0.500000
vt 0.500000 0.500000
vt 0.500000 0.500000
vt 0.500000 0.500000
vt 0.500000 0.500000
vt 0.500000 0.500000
vt 0.500000 0.500000
vt 0.500000 0.500000
vt 0.500000 0.500000
vt 0.500000 0.500000
vt 0.500000 0.500000
vt 0.500000 0.500000
vt 0.500000 0.500000
vt 0.500000 0.500000
vt 0.500000 0.500000
vt 0.500000 0.500000
vt 0.500000 0.500000
vt 0.500000 0.500000
vt 0.500000 0.500000
vt 0.500000 0.500000
vt 0.500000 0.500000
vt 0.500000 0.500000
vt 0.500000 0.500000
vt 0.500000 0.500000
vt 0.500000 0.500000
vt 0.500000 0.500000
vt 0.500000 0.500000
vt 0.500000 0.500000
vt 0.500000 0.500000
vt 0.500000 0.500000
vt 0.500000 0.500000
vt 0.500000 0.500000
vt 0.500000 0.500000
vt 0.500000 0.500000
vt 0.500000 0.500000
vt 0.500000 0.500000
vt 0.500000 0.500000
vt 0.500000 0.500000
vt 0.500000 0.500000
vt 0.500000 0.500000
vt 0.500000 0.500000
vt 0.500000 0.500000
vt 0.653084 0.276243
vt 0.650853 0.276092
vt 0.649346 0.273152
vt 0.662387 0.248735
vt 0.666044 0.248431
vt 0.667544 0.254949
vt 0.680600 0.266253
vt 0.679368 0.268937
vt 0.674628 0.259355
vt 0.657899 0.259326
vt 0.656250 0.250000
vt 0.655389 0.275220
vt 0.655556 0.268472
vt 0.673353 0.291475
vt 0.673300 0.288978
vt 0.676091 0.292523
vt 0.676037 0.247870
vt 0.680322 0.248298
vt 0.674324 0.256039
vt 0.682894 0.266571
vt 0.688268 0.259087
vt 0.688345 0.264501
vt 0.668464 0.251665
vt 0.669360 0.282103
vt 0.669653 0.260170
vt 0.672657 0.260717
vt 0.673172 0.252032
vt 0.657834 0.268435
vt 0.687500 0.250000
vt 0.674685 0.283151
vt 0.672542 0.281841
vt 0.679411 0.273000
vt 0.658451 0.264877
vt 0.667524 0.258087
vt 0.657049 0.275464
vt 0.648951 0.269111
vt 0.652523 0.266898
vt 0.683438 0.276137
vt 0.686407 0.275152
vt 0.689299 0.278657
vt 0.687500 0.291667
vt 0.674456 0.285837
vt 0.688888 0.283539
vt 0.668400 0.249252
vt 0.688622 0.275431
vt 0.687531 0.267982
vt 0.685500 0.268049
vt 0.680806 0.275956
vt 0.667163 0.283956
vt 0.649991 0.266482
vt 0.673263 0.248923
vt 0.657558 0.278670
vt 0.668435 0.290765
vt 0.668549 0.293365
vt 0.666239 0.294082
vt 0.667301 0.287200
vt 0.662530 0.293485
vt 0.656250 0.291667
vn -0.0000 -1.0000 -0.0000
vn 0.1198 0.0000 0.9928
vn -0.2266 0.0000 0.9740
vn -0.9983 0.0000 -0.0586
vn 0.2758 0.0000 0.9612
vn 0.2121 0.0000 0.9772
vn -0.0562 0.0000 0.9984
vn 0.9996 0.0000 0.0283
vn -0.9206 0.0000 -0.3904
vn 0.8977 0.0000 -0.4406
vn -0.9750 0.0000 0.2220
vn -0.9984 0.0000 -0.0569
vn 0.9936 0.0000 -0.1128
vn -0.5345 0.0000 0.8452
vn 0.9911 0.0000 -0.1330
vn -0.9938 0.0000 0.1116
vn 0.4170 0.0000 0.9089
vn -0.0617 0.0000 0.9981
vn 0.9783 0.0000 0.2071
vn -0.9631 0.0000 -0.2692
vn 0.0506 0.0000 0.9987
vn -0.3158 0.0000 0.9488
vn -0.0515 0.0000 -0.9987
vn 0.2413 0.0000 -0.9705
vn -0.0939 0.0000 -0.9956
vn 0.8256 0.0000 0.5643
vn -0.8462 0.0000 -0.5328
vn 0.1098 0.0000 0.9940
vn 0.9916 0.0000 0.1291
vn -0.9999 0.0000 -0.0140
vn 0.8845 0.0000 -0.4665
vn 0.0122 0.0000 -0.9999
vn -0.8528 0.0000 0.5222
vn -0.1223 0.0000 -0.9925
vn -0.3626 0.0000 -0.9319
vn 0.9743 0.0000 -0.2254
vn 0.3915 0.0000 0.9202
vn -0.0248 0.0000 0.9997
vn -0.9547 0.0000 0.2977
vn 0.1033 0.0000 0.9946
vn 0.9913 0.0000 0.1316
vn -0.9998 0.0000 -0.0188
vn -0.1353 0.0000 -0.9908
vn 0.4600 0.0000 -0.8879
vn -0.5914 0.0000 -0.8064
vn 0.9926 0.0000 0.1211
vn -1.0000 0.0000 0.0088
vn 0.9337 0.0000 0.3580
vn -0.9368 0.0000 0.3500
vn 0.9733 0.0000 0.2295
vn 0.9992 0.0000 -0.0391
vn -0.9994 0.0000 -0.0353
vn -0.9937 0.0000 -0.1121
vn 0.1528 0.0000 -0.9883
vn 0.0622 0.0000 -0.9981
vn -0.2530 0.0000 -0.9675
vn -0.1751 0.0000 -0.9845
vn 0.2739 0.0000 -0.9618
vn -0.0746 0.0000 -0.9972
vn 0.0000 1.0000 0.0000
usemtl BackMat.001
s off
f 221/1/1 226/2/1 220/3/1
f 263/4/1 252/5/1 264/6/1
f 235/7/1 248/8/1 229/9/1
f 244/10/1 263/4/1 255/11/1
f 222/12/1 234/13/1 221/1/1
f 197/14/1 199/15/1 204/16/1
f 266/17/1 251/18/1 265/19/1
f 239/20/1 243/21/1 245/22/1
f 252/5/1 254/23/1 264/6/1
f 212/24/1 246/25/1 247/26/1
f 251/18/1 266/17/1 253/27/1
f 212/24/1 247/26/1 232/28/1
f 265/19/1 245/22/1 261/29/1
f 210/30/1 227/31/1 215/32/1
f 229/9/1 248/8/1 246/25/1
f 238/33/1 250/34/1 244/10/1
f 216/35/1 232/28/1 234/13/1
f 226/2/1 237/36/1 228/37/1
f 223/38/1 214/39/1 225/40/1
f 202/41/1 207/42/1 206/43/1
f 264/6/1 254/23/1 259/44/1
f 207/42/1 223/38/1 206/43/1
f 212/24/1 232/28/1 216/35/1
f 215/32/1 246/25/1 212/24/1
f 218/45/1 225/40/1 214/39/1
f 199/15/1 202/41/1 206/43/1
f 250/34/1 252/5/1 244/10/1
f 235/7/1 265/19/1 248/8/1
f 239/20/1 245/22/1 235/7/1
f 241/46/1 243/21/1 240/47/1
f 248/8/1 265/19/1 251/18/1
f 223/38/1 224/48/1 206/43/1
f 221/1/1 237/36/1 226/2/1
f 227/31/1 210/30/1 224/48/1
f 215/32/1 227/31/1 246/25/1
f 204/16/1 199/15/1 206/43/1
f 212/24/1 216/35/1 208/49/1
f 228/37/1 237/36/1 230/50/1
f 253/27/1 266/17/1 257/51/1
f 234/13/1 237/36/1 221/1/1
f 240/47/1 243/21/1 239/20/1
f 214/39/1 223/38/1 207/42/1
f 216/35/1 234/13/1 222/12/1
f 206/43/1 224/48/1 210/30/1
f 213/52/1 208/49/1 216/35/1
f 229/9/1 246/25/1 227/31/1
f 232/28/1 247/26/1 238/33/1
f 196/53/1 193/54/1 194/55/1
f 265/19/1 235/7/1 245/22/1
f 205/56/1 193/54/1 196/53/1
f 208/49/1 192/57/1 205/56/1
f 192/57/1 208/49/1 213/52/1
f 244/10/1 252/5/1 263/4/1
f 238/33/1 247/26/1 250/34/1
f 192/57/1 213/52/1 200/58/1
f 193/54/1 205/56/1 192/57/1
f 45/59/2 46/60/2 104/61/2 103/62/2
f 46/60/3 120/63/3 195/64/3 104/61/3
f 47/65/4 48/66/4 106/67/4 105/68/4
f 123/69/5 57/70/5 115/71/5 198/72/5
f 126/73/6 45/59/6 103/62/6 201/74/6
f 57/70/7 128/75/7 203/76/7 115/71/7
f 55/77/8 56/78/8 114/79/8 113/80/8
f 48/66/9 49/81/9 107/82/9 106/67/9
f 54/83/10 55/77/10 113/80/10 112/84/10
f 58/85/11 1/86/11 59/87/11 116/88/11
f 49/81/12 134/89/12 209/90/12 107/82/12
f 136/91/13 54/83/13 112/84/13 211/92/13
f 50/93/14 51/94/14 109/95/14 108/96/14
f 43/97/15 44/98/15 102/99/15 101/100/15
f 1/86/16 2/101/16 60/102/16 59/87/16
f 52/103/17 53/104/17 111/105/17 110/106/17
f 51/94/18 52/103/18 110/106/18 109/95/18
f 142/107/19 43/97/19 101/100/19 217/108/19
f 2/101/20 144/109/20 219/110/20 60/102/20
f 39/111/21 40/112/21 98/113/21 97/114/21
f 40/112/22 41/115/22 99/116/22 98/113/22
f 5/117/23 6/118/23 64/119/23 63/120/23
f 4/121/24 5/117/24 63/120/24 62/122/24
f 3/123/25 4/121/25 62/122/25 61/124/25
f 38/125/26 39/111/26 97/114/26 96/126/26
f 6/118/27 7/127/27 65/128/27 64/119/27
f 41/115/28 42/129/28 100/130/28 99/116/28
f 37/131/29 38/125/29 96/126/29 95/132/29
f 7/127/30 8/133/30 66/134/30 65/128/30
f 156/135/31 37/131/31 95/132/31 231/136/31
f 158/137/32 34/138/32 92/139/32 233/140/32
f 8/133/33 161/141/33 236/142/33 66/134/33
f 35/143/34 36/144/34 94/145/34 93/146/34
f 34/138/35 35/143/35 93/146/35 92/139/35
f 32/147/36 33/148/36 91/149/36 90/150/36
f 10/151/37 11/152/37 69/153/37 68/154/37
f 11/152/38 167/155/38 242/156/38 69/153/38
f 12/157/39 13/158/39 71/159/39 70/160/39
f 9/161/40 10/151/40 68/154/40 67/162/40
f 31/163/41 32/147/41 90/150/41 89/164/41
f 13/158/42 14/165/42 72/166/42 71/159/42
f 22/167/43 23/168/43 81/169/43 80/170/43
f 174/171/44 22/167/44 80/170/44 249/172/44
f 23/168/45 24/173/45 82/174/45 81/169/45
f 20/175/46 21/176/46 79/177/46 78/178/46
f 24/173/47 25/179/47 83/180/47 82/174/47
f 19/181/48 20/175/48 78/178/48 77/182/48
f 25/179/49 26/183/49 84/184/49 83/180/49
f 181/185/50 31/163/50 89/164/50 256/186/50
f 183/187/51 19/181/51 77/182/51 258/188/51
f 26/183/52 185/189/52 260/190/52 84/184/52
f 14/165/53 187/191/53 262/192/53 72/166/53
f 29/193/54 30/194/54 88/195/54 87/196/54
f 28/197/55 29/193/55 87/196/55 86/198/55
f 27/199/56 28/197/56 86/198/56 85/200/56
f 15/201/57 16/202/57 74/203/57 73/204/57
f 17/205/58 18/206/58 76/207/58 75/208/58
f 16/202/59 17/205/59 75/208/59 74/203/59
usemtl FrontMat.001
f 146/209/60 145/210/60 151/211/60
f 188/212/60 189/213/60 177/214/60
f 160/215/60 154/216/60 173/217/60
f 169/218/60 180/219/60 188/212/60
f 147/220/60 146/209/60 159/221/60
f 122/222/60 129/223/60 124/224/60
f 191/225/60 190/226/60 176/227/60
f 164/228/60 170/229/60 168/230/60
f 177/214/60 189/213/60 179/231/60
f 137/232/60 172/233/60 171/234/60
f 176/227/60 178/235/60 191/225/60
f 137/232/60 157/236/60 172/233/60
f 190/226/60 186/237/60 170/229/60
f 135/238/60 140/239/60 152/240/60
f 154/216/60 171/234/60 173/217/60
f 163/241/60 169/218/60 175/242/60
f 141/243/60 159/221/60 157/236/60
f 151/211/60 153/244/60 162/245/60
f 148/246/60 150/247/60 139/248/60
f 127/249/60 131/250/60 132/251/60
f 189/213/60 184/252/60 179/231/60
f 132/251/60 131/250/60 148/246/60
f 137/232/60 141/243/60 157/236/60
f 140/239/60 137/232/60 171/234/60
f 143/253/60 139/248/60 150/247/60
f 124/224/60 131/250/60 127/249/60
f 175/242/60 169/218/60 177/214/60
f 160/215/60 173/217/60 190/226/60
f 164/228/60 160/215/60 170/229/60
f 166/254/60 165/255/60 168/230/60
f 173/217/60 176/227/60 190/226/60
f 148/246/60 131/250/60 149/256/60
f 146/209/60 151/211/60 162/245/60
f 152/240/60 149/256/60 135/238/60
f 140/239/60 171/234/60 152/240/60
f 129/223/60 131/250/60 124/224/60
f 137/232/60 133/257/60 141/243/60
f 153/244/60 155/258/60 162/245/60
f 178/235/60 182/259/60 191/225/60
f 159/221/60 146/209/60 162/245/60
f 165/255/60 164/228/60 168/230/60
f 139/248/60 132/251/60 148/246/60
f 141/243/60 147/220/60 159/221/60
f 131/250/60 135/238/60 149/256/60
f 138/260/60 141/243/60 133/257/60
f 154/216/60 152/240/60 171/234/60
f 157/236/60 163/241/60 172/233/60
f 121/261/60 119/262/60 118/263/60
f 190/226/60 170/229/60 160/215/60
f 130/264/60 121/261/60 118/263/60
f 133/257/60 130/264/60 117/265/60
f 117/265/60 138/260/60 133/257/60
f 169/218/60 188/212/60 177/214/60
f 163/241/60 175/242/60 172/233/60
f 117/265/60 125/266/60 138/260/60
f 118/263/60 117/265/60 130/264/60
