# Blender v2.83.1 OBJ File: 'jigsaw-32x24-3-step2.blend'
# www.blender.org
mtllib piece.434.mtl
o path868
v -0.284483 0.037500 -0.426737
v -0.165460 0.037500 -0.411697
v -0.089278 0.037500 -0.433533
v -0.088307 0.037500 -0.507450
v -0.119540 0.037500 -0.605459
v -0.121113 0.037500 -0.688780
v -0.051877 0.037500 -0.726229
v 0.046467 0.037500 -0.716999
v 0.111502 0.037500 -0.667881
v 0.102448 0.037500 -0.589190
v 0.065063 0.037500 -0.505342
v 0.066747 0.037500 -0.444277
v 0.153978 0.037500 -0.425800
v 0.517177 0.037500 -0.475336
v 0.585973 0.037500 -0.109514
v 0.572610 0.037500 -0.019434
v 0.512567 0.037500 -0.013571
v 0.427566 0.037500 -0.047628
v 0.348421 0.037500 -0.056934
v 0.301137 0.037500 0.002794
v 0.292456 0.037500 0.094294
v 0.324311 0.037500 0.159910
v 0.393238 0.037500 0.161140
v 0.474096 0.037500 0.136028
v 0.536345 0.037500 0.141767
v 0.557833 0.037500 0.217934
v 0.549989 0.037500 0.333651
v 0.517177 0.037500 0.526573
v 0.301757 0.037500 0.553688
v 0.173151 0.037500 0.556795
v 0.089854 0.037500 0.529247
v 0.086791 0.037500 0.459936
v 0.119673 0.037500 0.371998
v 0.124403 0.037500 0.297125
v 0.057721 0.037500 0.261345
v -0.040227 0.037500 0.268026
v -0.108462 0.037500 0.314867
v -0.106505 0.037500 0.394966
v -0.075860 0.037500 0.482925
v -0.078531 0.037500 0.548742
v -0.157511 0.037500 0.570938
v -0.279711 0.037500 0.562101
v -0.484522 0.037500 0.526573
v -0.443623 0.037500 0.317919
v -0.432149 0.037500 0.194952
v -0.453969 0.037500 0.118937
v -0.522429 0.037500 0.124344
v -0.612105 0.037500 0.165199
v -0.687893 0.037500 0.175415
v -0.721334 0.037500 0.110533
v -0.710583 0.037500 0.012533
v -0.660447 0.037500 -0.054981
v -0.579897 0.037500 -0.050045
v -0.494546 0.037500 -0.017181
v -0.434170 0.037500 -0.022549
v -0.419724 0.037500 -0.111721
v -0.484522 0.037500 -0.475336
v -0.284483 -0.037500 -0.426737
v -0.165460 -0.037500 -0.411697
v -0.089278 -0.037500 -0.433533
v -0.088307 -0.037498 -0.507450
v -0.119540 -0.037500 -0.605459
v -0.121113 -0.037500 -0.688780
v -0.051877 -0.037500 -0.726229
v 0.046467 -0.037498 -0.716999
v 0.111502 -0.037500 -0.667881
v 0.102448 -0.037500 -0.589190
v 0.065063 -0.037500 -0.505342
v 0.066747 -0.037500 -0.444277
v 0.153978 -0.037498 -0.425800
v 0.517177 -0.037500 -0.475336
v 0.585973 -0.037498 -0.109514
v 0.572610 -0.037498 -0.019434
v 0.512567 -0.037500 -0.013571
v 0.427566 -0.037498 -0.047628
v 0.348421 -0.037500 -0.056934
v 0.301137 -0.037500 0.002794
v 0.292456 -0.037500 0.094294
v 0.324311 -0.037500 0.159910
v 0.393238 -0.037500 0.161140
v 0.474096 -0.037500 0.136028
v 0.536345 -0.037498 0.141767
v 0.557833 -0.037500 0.217934
v 0.549989 -0.037500 0.333651
v 0.517177 -0.037500 0.526573
v 0.301757 -0.037500 0.553688
v 0.173151 -0.037498 0.556795
v 0.089854 -0.037498 0.529247
v 0.086791 -0.037500 0.459936
v 0.119673 -0.037500 0.371998
v 0.124403 -0.037500 0.297125
v 0.057721 -0.037500 0.261345
v -0.040227 -0.037500 0.268026
v -0.108462 -0.037500 0.314867
v -0.106505 -0.037500 0.394966
v -0.075860 -0.037500 0.482925
v -0.078531 -0.037500 0.548742
v -0.157511 -0.037500 0.570938
v -0.279711 -0.037498 0.562101
v -0.484522 -0.037500 0.526573
v -0.443623 -0.037500 0.317919
v -0.432149 -0.037500 0.194952
v -0.453969 -0.037500 0.118937
v -0.522429 -0.037500 0.124344
v -0.612105 -0.037500 0.165199
v -0.687893 -0.037500 0.175415
v -0.721334 -0.037500 0.110533
v -0.710583 -0.037500 0.012533
v -0.660447 -0.037500 -0.054981
v -0.579897 -0.037500 -0.050045
v -0.494546 -0.037500 -0.017181
v -0.434170 -0.037500 -0.022549
v -0.419724 -0.037500 -0.111721
v -0.484522 -0.037500 -0.475336
v -0.687893 0.037500 0.175415
v -0.687893 0.037500 0.175415
v -0.721334 0.037500 0.110533
v -0.710583 0.037500 0.012533
v -0.660447 0.037500 -0.054981
v -0.612105 0.037500 0.165199
v -0.579897 0.037500 -0.050045
v -0.522429 0.037500 0.124344
v -0.494546 0.037500 -0.017181
v -0.453969 0.037500 0.118937
v -0.453969 0.037500 0.118937
v -0.434170 0.037500 -0.022549
v -0.434170 0.037500 -0.022549
v -0.484522 0.037500 0.526573
v -0.484522 0.037500 0.526573
v -0.443623 0.037500 0.317919
v -0.432149 0.037500 0.194952
v -0.419724 0.037500 -0.111721
v -0.484522 0.037500 -0.475336
v -0.484522 0.037500 -0.475336
v -0.284483 0.037500 -0.426737
v -0.279711 0.037500 0.562101
v -0.165460 0.037500 -0.411697
v -0.157511 0.037500 0.570938
v -0.089278 0.037500 -0.433533
v -0.089278 0.037500 -0.433533
v -0.078531 0.037500 0.548742
v -0.078531 0.037500 0.548742
v -0.108462 0.037500 0.314867
v -0.106505 0.037500 0.394966
v -0.119540 0.037500 -0.605459
v -0.121113 0.037500 -0.688780
v -0.121113 0.037500 -0.688780
v -0.051877 0.037500 -0.726229
v -0.088307 0.037500 -0.507450
v -0.040227 0.037500 0.268026
v -0.075860 0.037500 0.482925
v 0.046467 0.037500 -0.716999
v 0.057721 0.037500 0.261345
v 0.111502 0.037500 -0.667881
v 0.124403 0.037500 0.297125
v 0.124403 0.037500 0.297125
v 0.065063 0.037500 -0.505342
v 0.066747 0.037500 -0.444277
v 0.066747 0.037500 -0.444277
v 0.102448 0.037500 -0.589190
v 0.153978 0.037500 -0.425800
v 0.089854 0.037500 0.529247
v 0.089854 0.037500 0.529247
v 0.086791 0.037500 0.459936
v 0.119673 0.037500 0.371998
v 0.173151 0.037500 0.556795
v 0.301757 0.037500 0.553688
v 0.301137 0.037500 0.002794
v 0.292456 0.037500 0.094294
v 0.324311 0.037500 0.159910
v 0.324311 0.037500 0.159910
v 0.348421 0.037500 -0.056934
v 0.393238 0.037500 0.161140
v 0.427566 0.037500 -0.047628
v 0.474096 0.037500 0.136028
v 0.517177 0.037500 0.526573
v 0.517177 0.037500 0.526573
v 0.512567 0.037500 -0.013571
v 0.536345 0.037500 0.141767
v 0.536345 0.037500 0.141767
v 0.517177 0.037500 -0.475336
v 0.517177 0.037500 -0.475336
v 0.572610 0.037500 -0.019434
v 0.572610 0.037500 -0.019434
v 0.549989 0.037500 0.333651
v 0.557833 0.037500 0.217934
v 0.585973 0.037500 -0.109514
v -0.687893 -0.037500 0.175415
v -0.687893 -0.037500 0.175415
v -0.721334 -0.037500 0.110533
v -0.710583 -0.037500 0.012533
v -0.660447 -0.037500 -0.054981
v -0.612105 -0.037500 0.165199
v -0.579897 -0.037500 -0.050045
v -0.522429 -0.037500 0.124344
v -0.494546 -0.037500 -0.017181
v -0.453969 -0.037500 0.118937
v -0.453969 -0.037500 0.118937
v -0.434170 -0.037500 -0.022549
v -0.434170 -0.037500 -0.022549
v -0.484522 -0.037500 0.526573
v -0.484522 -0.037500 0.526573
v -0.443623 -0.037500 0.317919
v -0.432149 -0.037500 0.194952
v -0.419724 -0.037500 -0.111721
v -0.484522 -0.037500 -0.475336
v -0.484522 -0.037500 -0.475336
v -0.284483 -0.037500 -0.426737
v -0.279711 -0.037498 0.562101
v -0.165460 -0.037500 -0.411697
v -0.157511 -0.037500 0.570938
v -0.089278 -0.037500 -0.433533
v -0.089278 -0.037500 -0.433533
v -0.078531 -0.037500 0.548742
v -0.078531 -0.037500 0.548742
v -0.108462 -0.037500 0.314867
v -0.106505 -0.037500 0.394966
v -0.119540 -0.037500 -0.605459
v -0.121113 -0.037500 -0.688780
v -0.121113 -0.037500 -0.688780
v -0.051877 -0.037500 -0.726229
v -0.088307 -0.037498 -0.507450
v -0.040227 -0.037500 0.268026
v -0.075860 -0.037500 0.482925
v 0.046467 -0.037498 -0.716999
v 0.057721 -0.037500 0.261345
v 0.111502 -0.037500 -0.667881
v 0.124403 -0.037500 0.297125
v 0.124403 -0.037500 0.297125
v 0.065063 -0.037500 -0.505342
v 0.066747 -0.037500 -0.444277
v 0.066747 -0.037500 -0.444277
v 0.102448 -0.037500 -0.589190
v 0.153978 -0.037498 -0.425800
v 0.089854 -0.037498 0.529247
v 0.089854 -0.037498 0.529247
v 0.086791 -0.037500 0.459936
v 0.119673 -0.037500 0.371998
v 0.173151 -0.037498 0.556795
v 0.301757 -0.037500 0.553688
v 0.301137 -0.037500 0.002794
v 0.292456 -0.037500 0.094294
v 0.324311 -0.037500 0.159910
v 0.324311 -0.037500 0.159910
v 0.348421 -0.037500 -0.056934
v 0.393238 -0.037500 0.161140
v 0.427566 -0.037498 -0.047628
v 0.474096 -0.037500 0.136028
v 0.517177 -0.037500 0.526573
v 0.517177 -0.037500 0.526573
v 0.512567 -0.037500 -0.013571
v 0.536345 -0.037498 0.141767
v 0.536345 -0.037498 0.141767
v 0.517177 -0.037500 -0.475336
v 0.517177 -0.037500 -0.475336
v 0.572610 -0.037498 -0.019434
v 0.572610 -0.037498 -0.019434
v 0.549989 -0.037500 0.333651
v 0.557833 -0.037500 0.217934
v 0.585973 -0.037498 -0.109514
vt 0.500000 0.500000
vt 0.500000 0.500000
vt 0.500000 0.500000
vt 0.500000 0.500000
vt 0.500000 0.500000
vt 0.500000 0.500000
vt 0.500000 0.500000
vt 0.500000 0.500000
vt 0.500000 0.500000
vt 0.500000 0.500000
vt 0.500000 0.500000
vt 0.500000 0.500000
vt 0.500000 0.500000
vt 0.500000 0.500000
vt 0.500000 0.500000
vt 0.500000 0.500000
vt 0.500000 0.500000
vt 0.500000 0.500000
vt 0.500000 0.500000
vt 0.500000 0.500000
vt 0.500000 0.500000
vt 0.500000 0.500000
vt 0.500000 0.500000
vt 0.500000 0.500000
vt 0.500000 0.500000
vt 0.500000 0.500000
vt 0.500000 0.500000
vt 0.500000 0.500000
vt 0.500000 0.500000
vt 0.500000 0.500000
vt 0.500000 0.500000
vt 0.500000 0.500000
vt 0.500000 0.500000
vt 0.500000 0.500000
vt 0.500000 0.500000
vt 0.500000 0.500000
vt 0.500000 0.500000
vt 0.500000 0.500000
vt 0.500000 0.500000
vt 0.500000 0.500000
vt 0.500000 0.500000
vt 0.500000 0.500000
vt 0.500000 0.500000
vt 0.500000 0.500000
vt 0.500000 0.500000
vt 0.500000 0.500000
vt 0.500000 0.500000
vt 0.500000 0.500000
vt 0.500000 0.500000
vt 0.500000 0.500000
vt 0.500000 0.500000
vt 0.500000 0.500000
vt 0.500000 0.500000
vt 0.500000 0.500000
vt 0.500000 0.500000
vt 0.500000 0.500000
vt 0.500000 0.500000
vt 0.500000 0.500000
vt 0.500000 0.500000
vt 0.500000 0.500000
vt 0.500000 0.500000
vt 0.500000 0.500000
vt 0.500000 0.500000
vt 0.500000 0.500000
vt 0.500000 0.500000
vt 0.500000 0.500000
vt 0.500000 0.500000
vt 0.500000 0.500000
vt 0.500000 0.500000
vt 0.500000 0.500000
vt 0.500000 0.500000
vt 0.500000 0.500000
vt 0.500000 0.500000
vt 0.500000 0.500000
vt 0.500000 0.500000
vt 0.500000 0.500000
vt 0.500000 0.500000
vt 0.500000 0.500000
vt 0.500000 0.500000
vt 0.500000 0.500000
vt 0.500000 0.500000
vt 0.500000 0.500000
vt 0.500000 0.500000
vt 0.500000 0.500000
vt 0.500000 0.500000
vt 0.500000 0.500000
vt 0.500000 0.500000
vt 0.500000 0.500000
vt 0.500000 0.500000
vt 0.500000 0.500000
vt 0.500000 0.500000
vt 0.500000 0.500000
vt 0.500000 0.500000
vt 0.500000 0.500000
vt 0.500000 0.500000
vt 0.500000 0.500000
vt 0.500000 0.500000
vt 0.500000 0.500000
vt 0.500000 0.500000
vt 0.500000 0.500000
vt 0.500000 0.500000
vt 0.500000 0.500000
vt 0.500000 0.500000
vt 0.500000 0.500000
vt 0.500000 0.500000
vt 0.500000 0.500000
vt 0.500000 0.500000
vt 0.500000 0.500000
vt 0.500000 0.500000
vt 0.500000 0.500000
vt 0.500000 0.500000
vt 0.500000 0.500000
vt 0.500000 0.500000
vt 0.500000 0.500000
vt 0.500000 0.500000
vt 0.500000 0.500000
vt 0.500000 0.500000
vt 0.500000 0.500000
vt 0.500000 0.500000
vt 0.500000 0.500000
vt 0.500000 0.500000
vt 0.500000 0.500000
vt 0.500000 0.500000
vt 0.500000 0.500000
vt 0.500000 0.500000
vt 0.500000 0.500000
vt 0.500000 0.500000
vt 0.500000 0.500000
vt 0.500000 0.500000
vt 0.500000 0.500000
vt 0.500000 0.500000
vt 0.500000 0.500000
vt 0.500000 0.500000
vt 0.500000 0.500000
vt 0.500000 0.500000
vt 0.500000 0.500000
vt 0.500000 0.500000
vt 0.500000 0.500000
vt 0.500000 0.500000
vt 0.500000 0.500000
vt 0.500000 0.500000
vt 0.500000 0.500000
vt 0.500000 0.500000
vt 0.500000 0.500000
vt 0.500000 0.500000
vt 0.500000 0.500000
vt 0.500000 0.500000
vt 0.500000 0.500000
vt 0.500000 0.500000
vt 0.500000 0.500000
vt 0.500000 0.500000
vt 0.500000 0.500000
vt 0.500000 0.500000
vt 0.500000 0.500000
vt 0.500000 0.500000
vt 0.500000 0.500000
vt 0.500000 0.500000
vt 0.500000 0.500000
vt 0.500000 0.500000
vt 0.500000 0.500000
vt 0.500000 0.500000
vt 0.500000 0.500000
vt 0.500000 0.500000
vt 0.500000 0.500000
vt 0.500000 0.500000
vt 0.500000 0.500000
vt 0.500000 0.500000
vt 0.500000 0.500000
vt 0.500000 0.500000
vt 0.500000 0.500000
vt 0.500000 0.500000
vt 0.500000 0.500000
vt 0.500000 0.500000
vt 0.500000 0.500000
vt 0.500000 0.500000
vt 0.500000 0.500000
vt 0.500000 0.500000
vt 0.500000 0.500000
vt 0.500000 0.500000
vt 0.500000 0.500000
vt 0.500000 0.500000
vt 0.500000 0.500000
vt 0.500000 0.500000
vt 0.500000 0.500000
vt 0.500000 0.500000
vt 0.500000 0.500000
vt 0.500000 0.500000
vt 0.500000 0.500000
vt 0.500000 0.500000
vt 0.500000 0.500000
vt 0.500000 0.500000
vt 0.500000 0.500000
vt 0.500000 0.500000
vt 0.500000 0.500000
vt 0.500000 0.500000
vt 0.500000 0.500000
vt 0.500000 0.500000
vt 0.500000 0.500000
vt 0.500000 0.500000
vt 0.500000 0.500000
vt 0.500000 0.500000
vt 0.500000 0.500000
vt 0.500000 0.500000
vt 0.562500 0.416667
vt 0.560955 0.431774
vt 0.549450 0.423686
vt 0.541593 0.456155
vt 0.537758 0.456632
vt 0.537853 0.442691
vt 0.542686 0.424689
vt 0.536071 0.433201
vt 0.530404 0.425627
vt 0.543964 0.457062
vt 0.548210 0.458750
vt 0.543796 0.459910
vt 0.531250 0.416667
vt 0.537267 0.415302
vt 0.542648 0.421822
vt 0.530142 0.449814
vt 0.535355 0.442609
vt 0.529866 0.444731
vt 0.530558 0.441446
vt 0.532611 0.441335
vt 0.544733 0.426014
vt 0.547587 0.425653
vt 0.539523 0.435778
vt 0.551159 0.455638
vt 0.548377 0.456239
vt 0.539314 0.439852
vt 0.566051 0.433918
vt 0.570038 0.436246
vt 0.566559 0.443152
vt 0.560515 0.445062
vt 0.549160 0.420394
vt 0.548097 0.416858
vt 0.551090 0.413805
vt 0.563436 0.435473
vt 0.563502 0.441852
vt 0.561531 0.435403
vt 0.533328 0.434569
vt 0.530307 0.430977
vt 0.570325 0.440337
vt 0.561196 0.441893
vt 0.549235 0.462301
vt 0.547283 0.467737
vt 0.542521 0.463640
vt 0.544226 0.468184
vt 0.540877 0.414975
vt 0.560984 0.450013
vt 0.569157 0.443217
vt 0.543252 0.415869
vt 0.543431 0.418459
vt 0.568506 0.433541
vt 0.538407 0.433005
vt 0.548280 0.414361
vt 0.531166 0.434442
vt 0.542203 0.466793
vt 0.531250 0.458333
vt 0.549389 0.465651
vt 0.562500 0.458333
vn -0.0000 -1.0000 -0.0000
vn -0.8889 0.0000 0.4581
vn -0.9940 0.0000 -0.1090
vn -0.8028 0.0000 -0.5962
vn 0.1336 0.0000 0.9910
vn 0.0612 0.0000 -0.9981
vn 0.4146 0.0000 0.9100
vn 0.3593 0.0000 -0.9332
vn 0.0787 0.0000 0.9969
vn -0.0885 0.0000 -0.9961
vn -0.9813 0.0000 -0.1924
vn -0.9612 0.0000 0.2759
vn -0.9957 0.0000 -0.0929
vn -0.9845 0.0000 0.1754
vn -0.9871 0.0000 -0.1599
vn 0.2361 0.0000 -0.9717
vn -0.1709 0.0000 0.9853
vn 0.1254 0.0000 -0.9921
vn -0.0721 0.0000 0.9974
vn -0.2755 0.0000 -0.9613
vn 0.2706 0.0000 0.9627
vn 0.9997 0.0000 -0.0244
vn -0.9998 0.0000 0.0189
vn -0.4758 0.0000 -0.8796
vn -0.9528 0.0000 0.3036
vn 0.5659 0.0000 0.8244
vn 0.9992 0.0000 0.0406
vn 0.9443 0.0000 -0.3290
vn -0.9999 0.0000 -0.0131
vn 0.0934 0.0000 -0.9956
vn 0.0681 0.0000 0.9977
vn 0.6027 0.0000 -0.7980
vn -0.4728 0.0000 0.8812
vn 0.9996 0.0000 -0.0276
vn 0.9133 0.0000 0.4072
vn 0.9934 0.0000 0.1143
vn 0.2072 0.0000 -0.9783
vn -0.9990 0.0000 0.0442
vn -0.9367 0.0000 -0.3502
vn -0.3140 0.0000 0.9494
vn -0.9980 0.0000 -0.0631
vn 0.0242 0.0000 0.9997
vn 0.9955 0.0000 0.0945
vn 0.8996 0.0000 -0.4367
vn 0.7841 0.0000 0.6207
vn 0.0178 0.0000 -0.9998
vn -0.1168 0.0000 0.9932
vn -0.2966 0.0000 -0.9550
vn 0.1249 0.0000 0.9922
vn -0.3719 0.0000 0.9283
vn 0.0918 0.0000 -0.9958
vn -0.1351 0.0000 -0.9908
vn 0.0972 0.0000 0.9953
vn 0.9858 0.0000 0.1677
vn 0.9977 0.0000 0.0676
vn 0.9624 0.0000 -0.2715
vn 0.9892 0.0000 0.1467
vn 0.9828 0.0000 -0.1848
vn 0.0000 1.0000 0.0000
usemtl BackMat.001
s off
f 254/1/1 245/2/1 234/3/1
f 204/4/1 216/5/1 203/6/1
f 243/7/1 240/8/1 238/9/1
f 197/10/1 195/11/1 196/12/1
f 240/8/1 258/13/1 249/14/1
f 246/15/1 258/13/1 243/7/1
f 203/6/1 217/16/1 209/17/1
f 211/18/1 224/19/1 214/20/1
f 242/21/1 226/22/1 241/23/1
f 240/8/1 243/7/1 258/13/1
f 205/24/1 223/25/1 199/26/1
f 211/18/1 217/16/1 224/19/1
f 233/27/1 218/28/1 225/29/1
f 223/25/1 204/4/1 197/10/1
f 210/30/1 223/25/1 205/24/1
f 223/25/1 241/23/1 226/22/1
f 247/31/1 260/32/1 251/33/1
f 230/34/1 231/35/1 222/36/1
f 238/9/1 239/37/1 237/38/1
f 221/39/1 225/29/1 218/28/1
f 231/35/1 241/23/1 212/40/1
f 194/41/1 193/42/1 191/43/1
f 191/43/1 193/42/1 190/44/1
f 258/13/1 246/15/1 259/45/1
f 210/30/1 205/24/1 208/46/1
f 219/47/1 221/39/1 218/28/1
f 259/45/1 248/48/1 252/49/1
f 227/50/1 233/27/1 225/29/1
f 228/51/1 243/7/1 238/9/1
f 238/9/1 240/8/1 239/37/1
f 246/15/1 248/48/1 259/45/1
f 194/41/1 195/11/1 193/42/1
f 222/36/1 231/35/1 212/40/1
f 210/30/1 241/23/1 223/25/1
f 199/26/1 223/25/1 197/10/1
f 226/22/1 242/21/1 228/51/1
f 196/12/1 195/11/1 194/41/1
f 251/33/1 260/32/1 256/52/1
f 237/38/1 239/37/1 235/53/1
f 216/5/1 217/16/1 203/6/1
f 223/25/1 216/5/1 204/4/1
f 242/21/1 243/7/1 228/51/1
f 190/44/1 193/42/1 188/54/1
f 260/32/1 247/31/1 254/1/1
f 247/31/1 245/2/1 254/1/1
f 199/26/1 197/10/1 196/12/1
f 212/40/1 241/23/1 210/30/1
f 203/6/1 209/17/1 201/55/1
f 209/17/1 217/16/1 211/18/1
f 194/41/1 191/43/1 192/56/1
f 234/3/1 241/23/1 231/35/1
f 218/28/1 230/34/1 222/36/1
f 245/2/1 241/23/1 234/3/1
f 208/46/1 205/24/1 206/57/1
f 218/28/1 233/27/1 230/34/1
f 116/58/2 50/59/2 107/60/2 189/61/2
f 50/59/3 51/62/3 108/63/3 107/60/3
f 51/62/4 52/64/4 109/65/4 108/63/4
f 48/66/5 49/67/5 106/68/5 105/69/5
f 52/64/6 53/70/6 110/71/6 109/65/6
f 47/72/7 48/66/7 105/69/7 104/73/7
f 53/70/8 54/74/8 111/75/8 110/71/8
f 125/76/9 47/72/9 104/73/9 198/77/9
f 54/74/10 127/78/10 200/79/10 111/75/10
f 129/80/11 44/81/11 101/82/11 202/83/11
f 45/84/12 46/85/12 103/86/12 102/87/12
f 44/81/13 45/84/13 102/87/13 101/82/13
f 56/88/14 134/89/14 207/90/14 113/91/14
f 55/92/15 56/88/15 113/91/15 112/93/15
f 57/94/16 1/95/16 58/96/16 114/97/16
f 42/98/17 43/99/17 100/100/17 99/101/17
f 1/95/18 2/102/18 59/103/18 58/96/18
f 41/104/19 42/98/19 99/101/19 98/105/19
f 2/102/20 140/106/20 213/107/20 59/103/20
f 142/108/21 41/104/21 98/105/21 215/109/21
f 37/110/22 38/111/22 95/112/22 94/113/22
f 5/114/23 147/115/23 220/116/23 62/117/23
f 6/118/24 7/119/24 64/120/24 63/121/24
f 4/122/25 5/114/25 62/117/25 61/123/25
f 36/124/26 37/110/26 94/113/26 93/125/26
f 39/126/27 40/127/27 97/128/27 96/129/27
f 38/111/28 39/126/28 96/129/28 95/112/28
f 3/130/29 4/122/29 61/123/29 60/131/29
f 7/119/30 8/132/30 65/133/30 64/120/30
f 35/134/31 36/124/31 93/125/31 92/135/31
f 8/132/32 9/136/32 66/137/32 65/133/32
f 156/138/33 35/134/33 92/135/33 229/139/33
f 11/140/34 159/141/34 232/142/34 68/143/34
f 10/144/35 11/140/35 68/143/35 67/145/35
f 9/136/36 10/144/36 67/145/36 66/137/36
f 12/146/37 13/147/37 70/148/37 69/149/37
f 163/150/38 32/151/38 89/152/38 236/153/38
f 32/151/39 33/154/39 90/155/39 89/152/39
f 30/156/40 31/157/40 88/158/40 87/159/40
f 33/154/41 34/160/41 91/161/41 90/155/41
f 29/162/42 30/156/42 87/159/42 86/163/42
f 20/164/43 21/165/43 78/166/43 77/167/43
f 21/165/44 171/168/44 244/169/44 78/166/44
f 19/170/45 20/164/45 77/167/45 76/171/45
f 22/172/46 23/173/46 80/174/46 79/175/46
f 18/176/47 19/170/47 76/171/47 75/177/47
f 23/173/48 24/178/48 81/179/48 80/174/48
f 177/180/49 29/162/49 86/163/49 250/181/49
f 17/182/50 18/176/50 75/177/50 74/183/50
f 24/178/51 180/184/51 253/185/51 81/179/51
f 13/147/52 182/186/52 255/187/52 70/148/52
f 184/188/53 17/182/53 74/183/53 257/189/53
f 27/190/54 28/191/54 85/192/54 84/193/54
f 26/194/55 27/190/55 84/193/55 83/195/55
f 25/196/56 26/194/56 83/195/56 82/197/56
f 15/198/57 16/199/57 73/200/57 72/201/57
f 14/202/58 15/198/58 72/201/58 71/203/58
usemtl FrontMat.001
f 181/204/59 161/205/59 172/206/59
f 131/207/59 130/208/59 143/209/59
f 170/210/59 165/211/59 167/212/59
f 124/213/59 123/214/59 122/215/59
f 167/212/59 176/216/59 185/217/59
f 173/218/59 170/210/59 185/217/59
f 130/208/59 136/219/59 144/220/59
f 138/221/59 141/222/59 151/223/59
f 169/224/59 168/225/59 153/226/59
f 167/212/59 185/217/59 170/210/59
f 132/227/59 126/228/59 150/229/59
f 138/221/59 151/223/59 144/220/59
f 160/230/59 152/231/59 145/232/59
f 150/229/59 124/213/59 131/207/59
f 137/233/59 132/227/59 150/229/59
f 150/229/59 153/226/59 168/225/59
f 174/234/59 178/235/59 187/236/59
f 157/237/59 149/238/59 158/239/59
f 165/211/59 164/240/59 166/241/59
f 148/242/59 145/232/59 152/231/59
f 158/239/59 139/243/59 168/225/59
f 121/244/59 118/245/59 120/246/59
f 118/245/59 117/247/59 120/246/59
f 185/217/59 186/248/59 173/218/59
f 137/233/59 135/249/59 132/227/59
f 146/250/59 145/232/59 148/242/59
f 186/248/59 179/251/59 175/252/59
f 154/253/59 152/231/59 160/230/59
f 155/254/59 165/211/59 170/210/59
f 165/211/59 166/241/59 167/212/59
f 173/218/59 186/248/59 175/252/59
f 121/244/59 120/246/59 122/215/59
f 149/238/59 139/243/59 158/239/59
f 137/233/59 150/229/59 168/225/59
f 126/228/59 124/213/59 150/229/59
f 153/226/59 155/254/59 169/224/59
f 123/214/59 121/244/59 122/215/59
f 178/235/59 183/255/59 187/236/59
f 164/240/59 162/256/59 166/241/59
f 143/209/59 130/208/59 144/220/59
f 150/229/59 131/207/59 143/209/59
f 169/224/59 155/254/59 170/210/59
f 117/247/59 115/257/59 120/246/59
f 187/236/59 181/204/59 174/234/59
f 174/234/59 181/204/59 172/206/59
f 126/228/59 123/214/59 124/213/59
f 139/243/59 137/233/59 168/225/59
f 130/208/59 128/258/59 136/219/59
f 136/219/59 138/221/59 144/220/59
f 121/244/59 119/259/59 118/245/59
f 161/205/59 158/239/59 168/225/59
f 145/232/59 149/238/59 157/237/59
f 172/206/59 161/205/59 168/225/59
f 135/249/59 133/260/59 132/227/59
f 145/232/59 157/237/59 160/230/59
