# Blender v2.83.1 OBJ File: 'jigsaw-32x24-3-step2.blend'
# www.blender.org
mtllib piece.408.mtl
o path816
v 0.580307 0.037500 -0.288421
v 0.597101 0.037500 -0.165653
v 0.574547 0.037500 -0.089713
v 0.496389 0.037500 -0.095028
v 0.393000 0.037500 -0.135851
v 0.306391 0.037500 -0.146399
v 0.269827 0.037500 -0.082219
v 0.281578 0.037500 0.015849
v 0.331169 0.037500 0.085637
v 0.405867 0.037500 0.085848
v 0.484026 0.037500 0.058652
v 0.541754 0.037500 0.067096
v 0.562094 0.037500 0.154619
v 0.527395 0.037500 0.504991
v 0.301517 0.037500 0.465722
v 0.167181 0.037500 0.454690
v 0.081339 0.037500 0.475585
v 0.081011 0.037500 0.541100
v 0.119720 0.037500 0.626311
v 0.130112 0.037500 0.696898
v 0.066233 0.037500 0.725608
v -0.032280 0.037500 0.713462
v -0.104393 0.037500 0.668560
v -0.109009 0.037500 0.601312
v -0.084759 0.037500 0.531434
v -0.090214 0.037500 0.480961
v -0.166086 0.037500 0.465418
v -0.474516 0.037500 0.504991
v -0.436216 0.037500 0.149403
v -0.457401 0.037500 0.062730
v -0.518309 0.037500 0.058405
v -0.599184 0.037500 0.090859
v -0.672533 0.037500 0.094153
v -0.714962 0.037500 0.023865
v -0.719437 0.037500 -0.078368
v -0.683014 0.037500 -0.149392
v -0.608576 0.037500 -0.147062
v -0.522221 0.037500 -0.113264
v -0.455864 0.037500 -0.110888
v -0.432625 0.037500 -0.183845
v -0.440422 0.037500 -0.300145
v -0.474516 0.037500 -0.496707
v -0.279324 0.037500 -0.458983
v -0.162811 0.037500 -0.449052
v -0.087395 0.037500 -0.471064
v -0.084389 0.037500 -0.537457
v -0.111927 0.037500 -0.623256
v -0.109837 0.037500 -0.694073
v -0.038359 0.037500 -0.722599
v 0.060635 0.037500 -0.709831
v 0.124863 0.037500 -0.663851
v 0.113831 0.037500 -0.595127
v 0.074165 0.037500 -0.523748
v 0.074286 0.037500 -0.472201
v 0.161407 0.037500 -0.456327
v 0.527395 0.037500 -0.496707
v 0.580307 -0.037500 -0.288421
v 0.597101 -0.037500 -0.165653
v 0.574547 -0.037500 -0.089713
v 0.496389 -0.037500 -0.095028
v 0.393000 -0.037500 -0.135851
v 0.306391 -0.037500 -0.146399
v 0.269827 -0.037498 -0.082219
v 0.281578 -0.037500 0.015849
v 0.331169 -0.037500 0.085637
v 0.405867 -0.037500 0.085848
v 0.484026 -0.037500 0.058652
v 0.541754 -0.037500 0.067096
v 0.562094 -0.037500 0.154619
v 0.527395 -0.037500 0.504991
v 0.301517 -0.037500 0.465722
v 0.167181 -0.037498 0.454690
v 0.081339 -0.037500 0.475585
v 0.081011 -0.037500 0.541100
v 0.119720 -0.037500 0.626311
v 0.130112 -0.037500 0.696898
v 0.066233 -0.037500 0.725608
v -0.032280 -0.037498 0.713462
v -0.104393 -0.037500 0.668560
v -0.109009 -0.037500 0.601312
v -0.084759 -0.037498 0.531434
v -0.090214 -0.037500 0.480961
v -0.166086 -0.037498 0.465418
v -0.474516 -0.037500 0.504991
v -0.436216 -0.037500 0.149403
v -0.457401 -0.037500 0.062730
v -0.518309 -0.037500 0.058405
v -0.599184 -0.037498 0.090859
v -0.672533 -0.037500 0.094153
v -0.714962 -0.037500 0.023865
v -0.719437 -0.037500 -0.078368
v -0.683014 -0.037500 -0.149392
v -0.608576 -0.037500 -0.147062
v -0.522221 -0.037500 -0.113264
v -0.455864 -0.037500 -0.110888
v -0.432625 -0.037498 -0.183845
v -0.440422 -0.037498 -0.300145
v -0.474516 -0.037500 -0.496707
v -0.279324 -0.037500 -0.458983
v -0.162811 -0.037500 -0.449052
v -0.087395 -0.037500 -0.471064
v -0.084389 -0.037500 -0.537457
v -0.111927 -0.037498 -0.623256
v -0.109837 -0.037500 -0.694073
v -0.038359 -0.037500 -0.722599
v 0.060635 -0.037500 -0.709831
v 0.124863 -0.037500 -0.663851
v 0.113831 -0.037500 -0.595127
v 0.074165 -0.037500 -0.523748
v 0.074286 -0.037500 -0.472201
v 0.161407 -0.037500 -0.456327
v 0.527395 -0.037498 -0.496707
v -0.109837 0.037500 -0.694073
v -0.109837 0.037500 -0.694073
v -0.038359 0.037500 -0.722599
v 0.060635 0.037500 -0.709831
v 0.124863 0.037500 -0.663851
v 0.124863 0.037500 -0.663851
v -0.111927 0.037500 -0.623256
v 0.113831 0.037500 -0.595127
v -0.084389 0.037500 -0.537457
v 0.074165 0.037500 -0.523748
v -0.087395 0.037500 -0.471064
v -0.087395 0.037500 -0.471064
v 0.074286 0.037500 -0.472201
v 0.074286 0.037500 -0.472201
v -0.474516 0.037500 -0.496707
v -0.474516 0.037500 -0.496707
v -0.279324 0.037500 -0.458983
v 0.161407 0.037500 -0.456327
v -0.162811 0.037500 -0.449052
v 0.527395 0.037500 -0.496707
v 0.527395 0.037500 -0.496707
v -0.440422 0.037500 -0.300145
v 0.580307 0.037500 -0.288421
v -0.432625 0.037500 -0.183845
v 0.597101 0.037500 -0.165653
v -0.455864 0.037500 -0.110888
v -0.455864 0.037500 -0.110888
v 0.393000 0.037500 -0.135851
v 0.306391 0.037500 -0.146399
v 0.306391 0.037500 -0.146399
v 0.574547 0.037500 -0.089713
v 0.574547 0.037500 -0.089713
v -0.719437 0.037500 -0.078368
v -0.683014 0.037500 -0.149392
v -0.683014 0.037500 -0.149392
v -0.608576 0.037500 -0.147062
v -0.522221 0.037500 -0.113264
v 0.269827 0.037500 -0.082219
v 0.496389 0.037500 -0.095028
v 0.281578 0.037500 0.015849
v -0.714962 0.037500 0.023865
v 0.331169 0.037500 0.085637
v -0.672533 0.037500 0.094153
v -0.672533 0.037500 0.094153
v -0.599184 0.037500 0.090859
v -0.518309 0.037500 0.058405
v -0.457401 0.037500 0.062730
v -0.457401 0.037500 0.062730
v 0.405867 0.037500 0.085848
v 0.484026 0.037500 0.058652
v 0.541754 0.037500 0.067096
v 0.541754 0.037500 0.067096
v -0.436216 0.037500 0.149403
v 0.562094 0.037500 0.154619
v -0.474516 0.037500 0.504991
v -0.474516 0.037500 0.504991
v 0.167181 0.037500 0.454690
v 0.081339 0.037500 0.475585
v 0.081339 0.037500 0.475585
v 0.301517 0.037500 0.465722
v -0.090214 0.037500 0.480961
v -0.090214 0.037500 0.480961
v -0.166086 0.037500 0.465418
v 0.081011 0.037500 0.541100
v 0.527395 0.037500 0.504991
v 0.527395 0.037500 0.504991
v -0.084759 0.037500 0.531434
v -0.109009 0.037500 0.601312
v 0.119720 0.037500 0.626311
v -0.104393 0.037500 0.668560
v 0.130112 0.037500 0.696898
v 0.130112 0.037500 0.696898
v -0.032280 0.037500 0.713462
v 0.066233 0.037500 0.725608
v -0.109837 -0.037500 -0.694073
v -0.109837 -0.037500 -0.694073
v -0.038359 -0.037500 -0.722599
v 0.060635 -0.037500 -0.709831
v 0.124863 -0.037500 -0.663851
v 0.124863 -0.037500 -0.663851
v -0.111927 -0.037498 -0.623256
v 0.113831 -0.037500 -0.595127
v -0.084389 -0.037500 -0.537457
v 0.074165 -0.037500 -0.523748
v -0.087395 -0.037500 -0.471064
v -0.087395 -0.037500 -0.471064
v 0.074286 -0.037500 -0.472201
v 0.074286 -0.037500 -0.472201
v -0.474516 -0.037500 -0.496707
v -0.474516 -0.037500 -0.496707
v -0.279324 -0.037500 -0.458983
v 0.161407 -0.037500 -0.456327
v -0.162811 -0.037500 -0.449052
v 0.527395 -0.037498 -0.496707
v 0.527395 -0.037498 -0.496707
v -0.440422 -0.037498 -0.300145
v 0.580307 -0.037500 -0.288421
v -0.432625 -0.037498 -0.183845
v 0.597101 -0.037500 -0.165653
v -0.455864 -0.037500 -0.110888
v -0.455864 -0.037500 -0.110888
v 0.393000 -0.037500 -0.135851
v 0.306391 -0.037500 -0.146399
v 0.306391 -0.037500 -0.146399
v 0.574547 -0.037500 -0.089713
v 0.574547 -0.037500 -0.089713
v -0.719437 -0.037500 -0.078368
v -0.683014 -0.037500 -0.149392
v -0.683014 -0.037500 -0.149392
v -0.608576 -0.037500 -0.147062
v -0.522221 -0.037500 -0.113264
v 0.269827 -0.037498 -0.082219
v 0.496389 -0.037500 -0.095028
v 0.281578 -0.037500 0.015849
v -0.714962 -0.037500 0.023865
v 0.331169 -0.037500 0.085637
v -0.672533 -0.037500 0.094153
v -0.672533 -0.037500 0.094153
v -0.599184 -0.037498 0.090859
v -0.518309 -0.037500 0.058405
v -0.457401 -0.037500 0.062730
v -0.457401 -0.037500 0.062730
v 0.405867 -0.037500 0.085848
v 0.484026 -0.037500 0.058652
v 0.541754 -0.037500 0.067096
v 0.541754 -0.037500 0.067096
v -0.436216 -0.037500 0.149403
v 0.562094 -0.037500 0.154619
v -0.474516 -0.037500 0.504991
v -0.474516 -0.037500 0.504991
v 0.167181 -0.037498 0.454690
v 0.081339 -0.037500 0.475585
v 0.081339 -0.037500 0.475585
v 0.301517 -0.037500 0.465722
v -0.090214 -0.037500 0.480961
v -0.090214 -0.037500 0.480961
v -0.166086 -0.037498 0.465418
v 0.081011 -0.037500 0.541100
v 0.527395 -0.037500 0.504991
v 0.527395 -0.037500 0.504991
v -0.084759 -0.037498 0.531434
v -0.109009 -0.037500 0.601312
v 0.119720 -0.037500 0.626311
v -0.104393 -0.037500 0.668560
v 0.130112 -0.037500 0.696898
v 0.130112 -0.037500 0.696898
v -0.032280 -0.037498 0.713462
v 0.066233 -0.037500 0.725608
vt 0.500000 0.500000
vt 0.500000 0.500000
vt 0.500000 0.500000
vt 0.500000 0.500000
vt 0.500000 0.500000
vt 0.500000 0.500000
vt 0.500000 0.500000
vt 0.500000 0.500000
vt 0.500000 0.500000
vt 0.500000 0.500000
vt 0.500000 0.500000
vt 0.500000 0.500000
vt 0.500000 0.500000
vt 0.500000 0.500000
vt 0.500000 0.500000
vt 0.500000 0.500000
vt 0.500000 0.500000
vt 0.500000 0.500000
vt 0.500000 0.500000
vt 0.500000 0.500000
vt 0.500000 0.500000
vt 0.500000 0.500000
vt 0.500000 0.500000
vt 0.500000 0.500000
vt 0.500000 0.500000
vt 0.500000 0.500000
vt 0.500000 0.500000
vt 0.500000 0.500000
vt 0.500000 0.500000
vt 0.500000 0.500000
vt 0.500000 0.500000
vt 0.500000 0.500000
vt 0.500000 0.500000
vt 0.500000 0.500000
vt 0.500000 0.500000
vt 0.500000 0.500000
vt 0.500000 0.500000
vt 0.500000 0.500000
vt 0.500000 0.500000
vt 0.500000 0.500000
vt 0.500000 0.500000
vt 0.500000 0.500000
vt 0.500000 0.500000
vt 0.500000 0.500000
vt 0.500000 0.500000
vt 0.500000 0.500000
vt 0.500000 0.500000
vt 0.500000 0.500000
vt 0.500000 0.500000
vt 0.500000 0.500000
vt 0.500000 0.500000
vt 0.500000 0.500000
vt 0.500000 0.500000
vt 0.500000 0.500000
vt 0.500000 0.500000
vt 0.500000 0.500000
vt 0.500000 0.500000
vt 0.500000 0.500000
vt 0.500000 0.500000
vt 0.500000 0.500000
vt 0.500000 0.500000
vt 0.500000 0.500000
vt 0.500000 0.500000
vt 0.500000 0.500000
vt 0.500000 0.500000
vt 0.500000 0.500000
vt 0.500000 0.500000
vt 0.500000 0.500000
vt 0.500000 0.500000
vt 0.500000 0.500000
vt 0.500000 0.500000
vt 0.500000 0.500000
vt 0.500000 0.500000
vt 0.500000 0.500000
vt 0.500000 0.500000
vt 0.500000 0.500000
vt 0.500000 0.500000
vt 0.500000 0.500000
vt 0.500000 0.500000
vt 0.500000 0.500000
vt 0.500000 0.500000
vt 0.500000 0.500000
vt 0.500000 0.500000
vt 0.500000 0.500000
vt 0.500000 0.500000
vt 0.500000 0.500000
vt 0.500000 0.500000
vt 0.500000 0.500000
vt 0.500000 0.500000
vt 0.500000 0.500000
vt 0.500000 0.500000
vt 0.500000 0.500000
vt 0.500000 0.500000
vt 0.500000 0.500000
vt 0.500000 0.500000
vt 0.500000 0.500000
vt 0.500000 0.500000
vt 0.500000 0.500000
vt 0.500000 0.500000
vt 0.500000 0.500000
vt 0.500000 0.500000
vt 0.500000 0.500000
vt 0.500000 0.500000
vt 0.500000 0.500000
vt 0.500000 0.500000
vt 0.500000 0.500000
vt 0.500000 0.500000
vt 0.500000 0.500000
vt 0.500000 0.500000
vt 0.500000 0.500000
vt 0.500000 0.500000
vt 0.500000 0.500000
vt 0.500000 0.500000
vt 0.500000 0.500000
vt 0.500000 0.500000
vt 0.500000 0.500000
vt 0.500000 0.500000
vt 0.500000 0.500000
vt 0.500000 0.500000
vt 0.500000 0.500000
vt 0.500000 0.500000
vt 0.500000 0.500000
vt 0.500000 0.500000
vt 0.500000 0.500000
vt 0.500000 0.500000
vt 0.500000 0.500000
vt 0.500000 0.500000
vt 0.500000 0.500000
vt 0.500000 0.500000
vt 0.500000 0.500000
vt 0.500000 0.500000
vt 0.500000 0.500000
vt 0.500000 0.500000
vt 0.500000 0.500000
vt 0.500000 0.500000
vt 0.500000 0.500000
vt 0.500000 0.500000
vt 0.500000 0.500000
vt 0.500000 0.500000
vt 0.500000 0.500000
vt 0.500000 0.500000
vt 0.500000 0.500000
vt 0.500000 0.500000
vt 0.500000 0.500000
vt 0.500000 0.500000
vt 0.500000 0.500000
vt 0.500000 0.500000
vt 0.500000 0.500000
vt 0.500000 0.500000
vt 0.500000 0.500000
vt 0.500000 0.500000
vt 0.500000 0.500000
vt 0.500000 0.500000
vt 0.500000 0.500000
vt 0.500000 0.500000
vt 0.500000 0.500000
vt 0.500000 0.500000
vt 0.500000 0.500000
vt 0.500000 0.500000
vt 0.500000 0.500000
vt 0.500000 0.500000
vt 0.500000 0.500000
vt 0.500000 0.500000
vt 0.500000 0.500000
vt 0.500000 0.500000
vt 0.500000 0.500000
vt 0.500000 0.500000
vt 0.500000 0.500000
vt 0.500000 0.500000
vt 0.500000 0.500000
vt 0.500000 0.500000
vt 0.500000 0.500000
vt 0.500000 0.500000
vt 0.500000 0.500000
vt 0.500000 0.500000
vt 0.500000 0.500000
vt 0.500000 0.500000
vt 0.500000 0.500000
vt 0.500000 0.500000
vt 0.500000 0.500000
vt 0.500000 0.500000
vt 0.500000 0.500000
vt 0.500000 0.500000
vt 0.500000 0.500000
vt 0.500000 0.500000
vt 0.500000 0.500000
vt 0.500000 0.500000
vt 0.500000 0.500000
vt 0.500000 0.500000
vt 0.500000 0.500000
vt 0.500000 0.500000
vt 0.500000 0.500000
vt 0.500000 0.500000
vt 0.500000 0.500000
vt 0.500000 0.500000
vt 0.500000 0.500000
vt 0.500000 0.500000
vt 0.500000 0.500000
vt 0.500000 0.500000
vt 0.500000 0.500000
vt 0.500000 0.500000
vt 0.500000 0.500000
vt 0.500000 0.500000
vt 0.500000 0.500000
vt 0.751082 0.472907
vt 0.748647 0.476899
vt 0.746209 0.475768
vt 0.751650 0.491336
vt 0.750000 0.500000
vt 0.745808 0.484990
vt 0.743880 0.475777
vt 0.742955 0.459967
vt 0.730736 0.459333
vt 0.730907 0.457233
vt 0.736087 0.459556
vt 0.732543 0.449662
vt 0.735616 0.449157
vt 0.737284 0.453287
vt 0.743107 0.485429
vt 0.719944 0.473124
vt 0.728370 0.459979
vt 0.742333 0.478680
vt 0.738765 0.460426
vt 0.714861 0.475560
vt 0.717384 0.476910
vt 0.717262 0.484050
vt 0.719332 0.483951
vt 0.719284 0.476730
vt 0.741966 0.482759
vt 0.737608 0.450351
vt 0.738585 0.498320
vt 0.714569 0.485456
vt 0.712574 0.475423
vt 0.711250 0.478346
vt 0.730059 0.505264
vt 0.730918 0.501695
vt 0.737101 0.504094
vt 0.750448 0.476548
vt 0.728472 0.498018
vt 0.724838 0.498431
vt 0.719813 0.491824
vt 0.750000 0.458333
vt 0.730124 0.508210
vt 0.732354 0.509396
vt 0.736077 0.456831
vt 0.720057 0.486986
vt 0.735442 0.508865
vt 0.730150 0.454327
vt 0.730294 0.451530
vt 0.749033 0.483292
vt 0.718750 0.458333
vt 0.712247 0.485553
vt 0.711111 0.482599
vt 0.751471 0.483071
vt 0.752174 0.486230
vt 0.730824 0.498933
vt 0.735864 0.501125
vt 0.718750 0.500000
vt 0.735867 0.498981
vt 0.737445 0.506953
vn 0.0000 -1.0000 0.0000
vn -0.3707 0.0000 -0.9288
vn 0.1279 0.0000 -0.9918
vn 0.5821 0.0000 -0.8131
vn -0.9996 0.0000 -0.0295
vn 0.9874 0.0000 0.1585
vn -0.9522 0.0000 0.3056
vn 0.8741 0.0000 0.4857
vn -0.9990 0.0000 -0.0452
vn 1.0000 0.0000 -0.0023
vn 0.1898 0.0000 -0.9818
vn 0.1793 0.0000 -0.9838
vn -0.2802 0.0000 -0.9599
vn -0.1097 0.0000 -0.9940
vn 0.0849 0.0000 -0.9964
vn -0.9853 0.0000 0.1709
vn 0.9692 0.0000 -0.2462
vn -0.9978 0.0000 0.0669
vn 0.9908 0.0000 -0.1355
vn -0.9528 0.0000 -0.3035
vn -0.1209 0.0000 0.9927
vn 0.9586 0.0000 0.2847
vn -0.8898 0.0000 -0.4563
vn 0.0313 0.0000 -0.9995
vn 0.3645 0.0000 -0.9312
vn 0.8689 0.0000 0.4950
vn -0.3673 0.0000 0.9301
vn -0.0678 0.0000 0.9977
vn 0.0358 0.0000 -0.9994
vn 0.9929 0.0000 -0.1190
vn -0.9990 0.0000 0.0437
vn 0.8152 0.0000 -0.5792
vn -0.8561 0.0000 0.5168
vn 0.0449 0.0000 0.9990
vn 0.3724 0.0000 0.9281
vn -0.0708 0.0000 0.9975
vn -0.3286 0.0000 -0.9445
vn 0.1447 0.0000 -0.9895
vn -0.9714 0.0000 0.2374
vn 0.9740 0.0000 -0.2264
vn 0.0028 0.0000 -1.0000
vn -0.9942 0.0000 -0.1071
vn 0.2365 0.0000 0.9716
vn -0.0818 0.0000 0.9966
vn -0.2007 0.0000 0.9797
vn 1.0000 0.0000 0.0050
vn -0.1713 0.0000 0.9852
vn 0.9951 0.0000 0.0986
vn -0.9942 0.0000 0.1075
vn 0.1273 0.0000 0.9919
vn -0.9447 0.0000 -0.3279
vn 0.9105 0.0000 -0.4136
vn -0.9977 0.0000 0.0685
vn 0.9893 0.0000 -0.1456
vn -0.5286 0.0000 0.8489
vn -0.1224 0.0000 0.9925
vn 0.4099 0.0000 0.9121
vn 0.0000 1.0000 0.0000
usemtl BackMat.001
s off
f 240/1/1 235/2/1 236/3/1
f 209/4/1 214/5/1 206/6/1
f 228/7/1 235/2/1 246/8/1
f 247/9/1 244/10/1 253/11/1
f 259/12/1 255/13/1 260/14/1
f 215/15/1 206/6/1 214/5/1
f 239/16/1 226/17/1 249/18/1
f 226/17/1 243/19/1 244/10/1
f 231/20/1 223/21/1 232/22/1
f 212/23/1 224/24/1 233/25/1
f 260/14/1 255/13/1 257/26/1
f 224/24/1 204/27/1 215/15/1
f 231/20/1 222/28/1 223/21/1
f 229/29/1 227/30/1 231/20/1
f 193/31/1 194/32/1 195/33/1
f 240/1/1 236/3/1 237/34/1
f 205/35/1 208/36/1 203/37/1
f 246/8/1 240/1/1 251/38/1
f 187/39/1 189/40/1 193/31/1
f 255/13/1 259/12/1 250/41/1
f 210/42/1 224/24/1 212/23/1
f 189/40/1 190/43/1 193/31/1
f 233/25/1 226/17/1 239/16/1
f 254/44/1 259/12/1 256/45/1
f 214/5/1 209/4/1 225/46/1
f 239/16/1 249/18/1 241/47/1
f 226/17/1 244/10/1 247/9/1
f 253/11/1 250/41/1 254/44/1
f 232/22/1 212/23/1 233/25/1
f 220/48/1 222/28/1 219/49/1
f 227/30/1 222/28/1 231/20/1
f 249/18/1 226/17/1 247/9/1
f 225/46/1 211/50/1 217/51/1
f 195/33/1 196/52/1 197/53/1
f 253/11/1 244/10/1 250/41/1
f 194/32/1 193/31/1 190/43/1
f 225/46/1 209/4/1 211/50/1
f 196/52/1 195/33/1 194/32/1
f 208/36/1 205/35/1 210/42/1
f 203/37/1 208/36/1 201/54/1
f 197/53/1 199/55/1 224/24/1
f 233/25/1 224/24/1 226/17/1
f 210/42/1 205/35/1 224/24/1
f 243/19/1 228/7/1 246/8/1
f 254/44/1 250/41/1 259/12/1
f 199/55/1 204/27/1 224/24/1
f 197/53/1 196/52/1 199/55/1
f 194/32/1 190/43/1 191/56/1
f 246/8/1 235/2/1 240/1/1
f 223/21/1 212/23/1 232/22/1
f 197/53/1 224/24/1 205/35/1
f 226/17/1 228/7/1 243/19/1
f 206/6/1 215/15/1 204/27/1
f 219/49/1 222/28/1 227/30/1
f 114/57/2 49/58/2 105/59/2 188/60/2
f 49/58/3 50/61/3 106/62/3 105/59/3
f 50/61/4 118/63/4 192/64/4 106/62/4
f 47/65/5 48/66/5 104/67/5 103/68/5
f 51/69/6 52/70/6 108/71/6 107/72/6
f 46/73/7 47/65/7 103/68/7 102/74/7
f 52/70/8 53/75/8 109/76/8 108/71/8
f 124/77/9 46/73/9 102/74/9 198/78/9
f 53/75/10 126/79/10 200/80/10 109/76/10
f 128/81/11 43/82/11 99/83/11 202/84/11
f 54/85/12 55/86/12 111/87/12 110/88/12
f 44/89/13 45/90/13 101/91/13 100/92/13
f 55/86/14 133/93/14 207/94/14 111/87/14
f 43/82/15 44/89/15 100/92/15 99/83/15
f 41/95/16 42/96/16 98/97/16 97/98/16
f 56/99/17 1/100/17 57/101/17 112/102/17
f 40/103/18 41/95/18 97/98/18 96/104/18
f 1/100/19 2/105/19 58/106/19 57/101/19
f 139/107/20 40/103/20 96/104/20 213/108/20
f 5/109/21 142/110/21 216/111/21 61/112/21
f 2/105/22 144/113/22 218/114/22 58/106/22
f 35/115/23 147/116/23 221/117/23 91/118/23
f 36/119/24 37/120/24 93/121/24 92/122/24
f 37/120/25 38/123/25 94/124/25 93/121/25
f 6/125/26 7/126/26 63/127/26 62/128/26
f 4/129/27 5/109/27 61/112/27 60/130/27
f 3/131/28 4/129/28 60/130/28 59/132/28
f 38/123/29 39/133/29 95/134/29 94/124/29
f 7/126/30 8/135/30 64/136/30 63/127/30
f 34/137/31 35/115/31 91/118/31 90/138/31
f 8/135/32 9/139/32 65/140/32 64/136/32
f 156/141/33 34/137/33 90/138/33 230/142/33
f 32/143/34 33/144/34 89/145/34 88/146/34
f 31/147/35 32/143/35 88/146/35 87/148/35
f 160/149/36 31/147/36 87/148/36 234/150/36
f 10/151/37 11/152/37 67/153/37 66/154/37
f 11/152/38 164/155/38 238/156/38 67/153/38
f 29/157/39 30/158/39 86/159/39 85/160/39
f 12/161/40 13/162/40 69/163/40 68/164/40
f 9/139/41 10/151/41 66/154/41 65/140/41
f 168/165/42 29/157/42 85/160/42 242/166/42
f 16/167/43 171/168/43 245/169/43 72/170/43
f 15/171/44 16/167/44 72/170/44 71/172/44
f 174/173/45 27/174/45 83/175/45 248/176/45
f 17/177/46 18/178/46 74/179/46 73/180/46
f 178/181/47 15/171/47 71/172/47 252/182/47
f 13/162/48 14/183/48 70/184/48 69/163/48
f 25/185/49 26/186/49 82/187/49 81/188/49
f 27/174/50 28/189/50 84/190/50 83/175/50
f 24/191/51 25/185/51 81/188/51 80/192/51
f 18/178/52 19/193/52 75/194/52 74/179/52
f 23/195/53 24/191/53 80/192/53 79/196/53
f 19/193/54 184/197/54 258/198/54 75/194/54
f 22/199/55 23/195/55 79/196/55 78/200/55
f 21/201/56 22/199/56 78/200/56 77/202/56
f 20/203/57 21/201/57 77/202/57 76/204/57
usemtl FrontMat.001
f 166/205/58 162/206/58 161/207/58
f 135/208/58 132/209/58 140/210/58
f 154/211/58 172/212/58 161/207/58
f 173/213/58 179/214/58 170/215/58
f 185/216/58 186/217/58 181/218/58
f 141/219/58 140/210/58 132/209/58
f 165/220/58 175/221/58 152/222/58
f 152/222/58 170/215/58 169/223/58
f 157/224/58 158/225/58 149/226/58
f 138/227/58 159/228/58 150/229/58
f 186/217/58 183/230/58 181/218/58
f 150/229/58 141/219/58 130/231/58
f 157/224/58 149/226/58 148/232/58
f 155/233/58 157/224/58 153/234/58
f 119/235/58 121/236/58 120/237/58
f 166/205/58 163/238/58 162/206/58
f 131/239/58 129/240/58 134/241/58
f 172/212/58 177/242/58 166/205/58
f 113/243/58 119/235/58 115/244/58
f 181/218/58 176/245/58 185/216/58
f 136/246/58 138/227/58 150/229/58
f 115/244/58 119/235/58 116/247/58
f 159/228/58 165/220/58 152/222/58
f 180/248/58 182/249/58 185/216/58
f 140/210/58 151/250/58 135/208/58
f 165/220/58 167/251/58 175/221/58
f 152/222/58 173/213/58 170/215/58
f 179/214/58 180/248/58 176/245/58
f 158/225/58 159/228/58 138/227/58
f 146/252/58 145/253/58 148/232/58
f 153/234/58 157/224/58 148/232/58
f 175/221/58 173/213/58 152/222/58
f 151/250/58 143/254/58 137/255/58
f 121/236/58 123/256/58 122/257/58
f 179/214/58 176/245/58 170/215/58
f 120/237/58 116/247/58 119/235/58
f 151/250/58 137/255/58 135/208/58
f 122/257/58 120/237/58 121/236/58
f 134/241/58 136/246/58 131/239/58
f 129/240/58 127/258/58 134/241/58
f 123/256/58 150/229/58 125/259/58
f 159/228/58 152/222/58 150/229/58
f 136/246/58 150/229/58 131/239/58
f 169/223/58 172/212/58 154/211/58
f 180/248/58 185/216/58 176/245/58
f 125/259/58 150/229/58 130/231/58
f 123/256/58 125/259/58 122/257/58
f 120/237/58 117/260/58 116/247/58
f 172/212/58 166/205/58 161/207/58
f 149/226/58 158/225/58 138/227/58
f 123/256/58 131/239/58 150/229/58
f 152/222/58 169/223/58 154/211/58
f 132/209/58 130/231/58 141/219/58
f 145/253/58 153/234/58 148/232/58
