# Blender v2.83.1 OBJ File: 'jigsaw-32x24-3-step2.blend'
# www.blender.org
mtllib piece.73.mtl
o path146_path146.001
v -0.569721 0.037500 0.320639
v -0.584270 0.037500 0.200221
v -0.563123 0.037500 0.121633
v -0.491360 0.037500 0.117422
v -0.395076 0.037500 0.146803
v -0.310616 0.037500 0.150663
v -0.267557 0.037500 0.089077
v -0.268431 0.037500 -0.001116
v -0.309001 0.037500 -0.063885
v -0.381265 0.037500 -0.062481
v -0.462121 0.037500 -0.037275
v -0.524698 0.037500 -0.047920
v -0.549541 0.037500 -0.135272
v -0.546865 0.037500 -0.264993
v -0.522685 0.037500 -0.479801
v -0.292447 0.037500 -0.434997
v -0.155249 0.037500 -0.421268
v -0.066967 0.037500 -0.441792
v -0.065321 0.037500 -0.510728
v -0.103907 0.037500 -0.602480
v -0.115290 0.037500 -0.681512
v -0.053427 0.037500 -0.718810
v 0.042163 0.037500 -0.711440
v 0.110568 0.037500 -0.662993
v 0.111000 0.037500 -0.581657
v 0.083158 0.037500 -0.494022
v 0.086863 0.037500 -0.431277
v 0.163622 0.037500 -0.415477
v 0.281685 0.037500 -0.432151
v 0.479224 0.037500 -0.479801
v 0.440257 0.037500 -0.258862
v 0.429592 0.037500 -0.126864
v 0.451149 0.037500 -0.041162
v 0.518057 0.037500 -0.037679
v 0.607119 0.037500 -0.071864
v 0.686059 0.037500 -0.079046
v 0.727841 0.037500 -0.015230
v 0.726393 0.037500 0.080867
v 0.680879 0.037500 0.149853
v 0.596448 0.037500 0.152020
v 0.502160 0.037500 0.126408
v 0.433055 0.037500 0.131741
v 0.414144 0.037500 0.208738
v 0.430326 0.037500 0.326082
v 0.479224 0.037500 0.521897
v 0.160910 0.037500 0.543710
v 0.087365 0.037500 0.521498
v 0.091207 0.037500 0.466416
v 0.127673 0.037500 0.394405
v 0.132621 0.037500 0.327634
v 0.063102 0.037500 0.285764
v -0.039067 0.037500 0.278444
v -0.110874 0.037500 0.312815
v -0.110545 0.037500 0.389013
v -0.081241 0.037500 0.479146
v -0.087357 0.037500 0.548316
v -0.173402 0.037500 0.571225
v -0.304321 0.037500 0.560973
v -0.522685 0.037500 0.521897
v -0.569721 -0.037500 0.320639
v -0.584270 -0.037500 0.200221
v -0.563123 -0.037500 0.121633
v -0.491360 -0.037500 0.117422
v -0.395076 -0.037500 0.146803
v -0.310616 -0.037500 0.150663
v -0.267557 -0.037500 0.089077
v -0.268431 -0.037500 -0.001116
v -0.309001 -0.037500 -0.063885
v -0.381265 -0.037500 -0.062481
v -0.462121 -0.037500 -0.037275
v -0.524698 -0.037500 -0.047920
v -0.549541 -0.037500 -0.135272
v -0.546865 -0.037498 -0.264993
v -0.522685 -0.037500 -0.479801
v -0.292447 -0.037500 -0.434997
v -0.155249 -0.037498 -0.421268
v -0.066967 -0.037500 -0.441792
v -0.065321 -0.037500 -0.510728
v -0.103907 -0.037498 -0.602480
v -0.115290 -0.037500 -0.681512
v -0.053427 -0.037500 -0.718810
v 0.042163 -0.037500 -0.711440
v 0.110568 -0.037500 -0.662993
v 0.111000 -0.037498 -0.581657
v 0.083158 -0.037498 -0.494022
v 0.086863 -0.037500 -0.431277
v 0.163622 -0.037500 -0.415477
v 0.281685 -0.037500 -0.432151
v 0.479224 -0.037500 -0.479801
v 0.440257 -0.037498 -0.258862
v 0.429592 -0.037500 -0.126864
v 0.451149 -0.037500 -0.041162
v 0.518057 -0.037500 -0.037679
v 0.607119 -0.037500 -0.071864
v 0.686059 -0.037500 -0.079046
v 0.727841 -0.037500 -0.015230
v 0.726393 -0.037500 0.080867
v 0.680879 -0.037500 0.149853
v 0.596448 -0.037500 0.152020
v 0.502160 -0.037500 0.126408
v 0.433055 -0.037500 0.131741
v 0.414144 -0.037500 0.208738
v 0.430326 -0.037500 0.326082
v 0.479224 -0.037500 0.521897
v 0.160910 -0.037498 0.543710
v 0.087365 -0.037500 0.521498
v 0.091207 -0.037500 0.466416
v 0.127673 -0.037500 0.394405
v 0.132621 -0.037500 0.327634
v 0.063102 -0.037500 0.285764
v -0.039067 -0.037500 0.278444
v -0.110874 -0.037500 0.312815
v -0.110545 -0.037500 0.389013
v -0.081241 -0.037500 0.479146
v -0.087357 -0.037500 0.548316
v -0.173402 -0.037500 0.571225
v -0.304321 -0.037500 0.560973
v -0.522685 -0.037500 0.521897
v -0.087357 0.037500 0.548316
v -0.087357 0.037500 0.548316
v -0.173402 0.037500 0.571225
v -0.304321 0.037500 0.560973
v -0.081241 0.037500 0.479146
v 0.160910 0.037500 0.543710
v 0.087365 0.037500 0.521498
v 0.087365 0.037500 0.521498
v 0.479224 0.037500 0.521897
v 0.479224 0.037500 0.521897
v -0.522685 0.037500 0.521897
v -0.522685 0.037500 0.521897
v 0.091207 0.037500 0.466416
v -0.110545 0.037500 0.389013
v 0.127673 0.037500 0.394405
v 0.430326 0.037500 0.326082
v -0.569721 0.037500 0.320639
v 0.132621 0.037500 0.327634
v 0.132621 0.037500 0.327634
v -0.110874 0.037500 0.312815
v -0.110874 0.037500 0.312815
v 0.063102 0.037500 0.285764
v 0.414144 0.037500 0.208738
v -0.584270 0.037500 0.200221
v -0.039067 0.037500 0.278444
v 0.433055 0.037500 0.131741
v 0.433055 0.037500 0.131741
v -0.395076 0.037500 0.146803
v -0.310616 0.037500 0.150663
v -0.563123 0.037500 0.121633
v -0.563123 0.037500 0.121633
v 0.680879 0.037500 0.149853
v 0.596448 0.037500 0.152020
v 0.502160 0.037500 0.126408
v -0.267557 0.037500 0.089077
v 0.726393 0.037500 0.080867
v -0.491360 0.037500 0.117422
v -0.268431 0.037500 -0.001116
v 0.727841 0.037500 -0.015230
v -0.309001 0.037500 -0.063885
v 0.686059 0.037500 -0.079046
v 0.686059 0.037500 -0.079046
v -0.381265 0.037500 -0.062481
v -0.462121 0.037500 -0.037275
v -0.524698 0.037500 -0.047920
v -0.524698 0.037500 -0.047920
v 0.607119 0.037500 -0.071864
v 0.518057 0.037500 -0.037679
v 0.451149 0.037500 -0.041162
v 0.451149 0.037500 -0.041162
v 0.429592 0.037500 -0.126864
v -0.549541 0.037500 -0.135272
v 0.440257 0.037500 -0.258862
v -0.546865 0.037500 -0.264993
v 0.479224 0.037500 -0.479801
v 0.479224 0.037500 -0.479801
v 0.163622 0.037500 -0.415477
v 0.281685 0.037500 -0.432151
v 0.086863 0.037500 -0.431277
v 0.086863 0.037500 -0.431277
v -0.155249 0.037500 -0.421268
v -0.066967 0.037500 -0.441792
v -0.066967 0.037500 -0.441792
v -0.292447 0.037500 -0.434997
v 0.083158 0.037500 -0.494022
v -0.065321 0.037500 -0.510728
v -0.522685 0.037500 -0.479801
v -0.522685 0.037500 -0.479801
v 0.111000 0.037500 -0.581657
v -0.103907 0.037500 -0.602480
v 0.110568 0.037500 -0.662993
v -0.115290 0.037500 -0.681512
v -0.115290 0.037500 -0.681512
v 0.042163 0.037500 -0.711440
v -0.053427 0.037500 -0.718810
v -0.087357 -0.037500 0.548316
v -0.087357 -0.037500 0.548316
v -0.173402 -0.037500 0.571225
v -0.304321 -0.037500 0.560973
v -0.081241 -0.037500 0.479146
v 0.160910 -0.037498 0.543710
v 0.087365 -0.037500 0.521498
v 0.087365 -0.037500 0.521498
v 0.479224 -0.037500 0.521897
v 0.479224 -0.037500 0.521897
v -0.522685 -0.037500 0.521897
v -0.522685 -0.037500 0.521897
v 0.091207 -0.037500 0.466416
v -0.110545 -0.037500 0.389013
v 0.127673 -0.037500 0.394405
v 0.430326 -0.037500 0.326082
v -0.569721 -0.037500 0.320639
v 0.132621 -0.037500 0.327634
v 0.132621 -0.037500 0.327634
v -0.110874 -0.037500 0.312815
v -0.110874 -0.037500 0.312815
v 0.063102 -0.037500 0.285764
v 0.414144 -0.037500 0.208738
v -0.584270 -0.037500 0.200221
v -0.039067 -0.037500 0.278444
v 0.433055 -0.037500 0.131741
v 0.433055 -0.037500 0.131741
v -0.395076 -0.037500 0.146803
v -0.310616 -0.037500 0.150663
v -0.563123 -0.037500 0.121633
v -0.563123 -0.037500 0.121633
v 0.680879 -0.037500 0.149853
v 0.596448 -0.037500 0.152020
v 0.502160 -0.037500 0.126408
v -0.267557 -0.037500 0.089077
v 0.726393 -0.037500 0.080867
v -0.491360 -0.037500 0.117422
v -0.268431 -0.037500 -0.001116
v 0.727841 -0.037500 -0.015230
v -0.309001 -0.037500 -0.063885
v 0.686059 -0.037500 -0.079046
v 0.686059 -0.037500 -0.079046
v -0.381265 -0.037500 -0.062481
v -0.462121 -0.037500 -0.037275
v -0.524698 -0.037500 -0.047920
v -0.524698 -0.037500 -0.047920
v 0.607119 -0.037500 -0.071864
v 0.518057 -0.037500 -0.037679
v 0.451149 -0.037500 -0.041162
v 0.451149 -0.037500 -0.041162
v 0.429592 -0.037500 -0.126864
v -0.549541 -0.037500 -0.135272
v 0.440257 -0.037498 -0.258862
v -0.546865 -0.037498 -0.264993
v 0.479224 -0.037500 -0.479801
v 0.479224 -0.037500 -0.479801
v 0.163622 -0.037500 -0.415477
v 0.281685 -0.037500 -0.432151
v 0.086863 -0.037500 -0.431277
v 0.086863 -0.037500 -0.431277
v -0.155249 -0.037498 -0.421268
v -0.066967 -0.037500 -0.441792
v -0.066967 -0.037500 -0.441792
v -0.292447 -0.037500 -0.434997
v 0.083158 -0.037498 -0.494022
v -0.065321 -0.037500 -0.510728
v -0.522685 -0.037500 -0.479801
v -0.522685 -0.037500 -0.479801
v 0.111000 -0.037498 -0.581657
v -0.103907 -0.037498 -0.602480
v 0.110568 -0.037500 -0.662993
v -0.115290 -0.037500 -0.681512
v -0.115290 -0.037500 -0.681512
v 0.042163 -0.037500 -0.711440
v -0.053427 -0.037500 -0.718810
vt 0.500000 0.500000
vt 0.500000 0.500000
vt 0.500000 0.500000
vt 0.500000 0.500000
vt 0.500000 0.500000
vt 0.500000 0.500000
vt 0.500000 0.500000
vt 0.500000 0.500000
vt 0.500000 0.500000
vt 0.500000 0.500000
vt 0.500000 0.500000
vt 0.500000 0.500000
vt 0.500000 0.500000
vt 0.500000 0.500000
vt 0.500000 0.500000
vt 0.500000 0.500000
vt 0.500000 0.500000
vt 0.500000 0.500000
vt 0.500000 0.500000
vt 0.500000 0.500000
vt 0.500000 0.500000
vt 0.500000 0.500000
vt 0.500000 0.500000
vt 0.500000 0.500000
vt 0.500000 0.500000
vt 0.500000 0.500000
vt 0.500000 0.500000
vt 0.500000 0.500000
vt 0.500000 0.500000
vt 0.500000 0.500000
vt 0.500000 0.500000
vt 0.500000 0.500000
vt 0.500000 0.500000
vt 0.500000 0.500000
vt 0.500000 0.500000
vt 0.500000 0.500000
vt 0.500000 0.500000
vt 0.500000 0.500000
vt 0.500000 0.500000
vt 0.500000 0.500000
vt 0.500000 0.500000
vt 0.500000 0.500000
vt 0.500000 0.500000
vt 0.500000 0.500000
vt 0.500000 0.500000
vt 0.500000 0.500000
vt 0.500000 0.500000
vt 0.500000 0.500000
vt 0.500000 0.500000
vt 0.500000 0.500000
vt 0.500000 0.500000
vt 0.500000 0.500000
vt 0.500000 0.500000
vt 0.500000 0.500000
vt 0.500000 0.500000
vt 0.500000 0.500000
vt 0.500000 0.500000
vt 0.500000 0.500000
vt 0.500000 0.500000
vt 0.500000 0.500000
vt 0.500000 0.500000
vt 0.500000 0.500000
vt 0.500000 0.500000
vt 0.500000 0.500000
vt 0.500000 0.500000
vt 0.500000 0.500000
vt 0.500000 0.500000
vt 0.500000 0.500000
vt 0.500000 0.500000
vt 0.500000 0.500000
vt 0.500000 0.500000
vt 0.500000 0.500000
vt 0.500000 0.500000
vt 0.500000 0.500000
vt 0.500000 0.500000
vt 0.500000 0.500000
vt 0.500000 0.500000
vt 0.500000 0.500000
vt 0.500000 0.500000
vt 0.500000 0.500000
vt 0.500000 0.500000
vt 0.500000 0.500000
vt 0.500000 0.500000
vt 0.500000 0.500000
vt 0.500000 0.500000
vt 0.500000 0.500000
vt 0.500000 0.500000
vt 0.500000 0.500000
vt 0.500000 0.500000
vt 0.500000 0.500000
vt 0.500000 0.500000
vt 0.500000 0.500000
vt 0.500000 0.500000
vt 0.500000 0.500000
vt 0.500000 0.500000
vt 0.500000 0.500000
vt 0.500000 0.500000
vt 0.500000 0.500000
vt 0.500000 0.500000
vt 0.500000 0.500000
vt 0.500000 0.500000
vt 0.500000 0.500000
vt 0.500000 0.500000
vt 0.500000 0.500000
vt 0.500000 0.500000
vt 0.500000 0.500000
vt 0.500000 0.500000
vt 0.500000 0.500000
vt 0.500000 0.500000
vt 0.500000 0.500000
vt 0.500000 0.500000
vt 0.500000 0.500000
vt 0.500000 0.500000
vt 0.500000 0.500000
vt 0.500000 0.500000
vt 0.500000 0.500000
vt 0.500000 0.500000
vt 0.500000 0.500000
vt 0.500000 0.500000
vt 0.500000 0.500000
vt 0.500000 0.500000
vt 0.500000 0.500000
vt 0.500000 0.500000
vt 0.500000 0.500000
vt 0.500000 0.500000
vt 0.500000 0.500000
vt 0.500000 0.500000
vt 0.500000 0.500000
vt 0.500000 0.500000
vt 0.500000 0.500000
vt 0.500000 0.500000
vt 0.500000 0.500000
vt 0.500000 0.500000
vt 0.500000 0.500000
vt 0.500000 0.500000
vt 0.500000 0.500000
vt 0.500000 0.500000
vt 0.500000 0.500000
vt 0.500000 0.500000
vt 0.500000 0.500000
vt 0.500000 0.500000
vt 0.500000 0.500000
vt 0.500000 0.500000
vt 0.500000 0.500000
vt 0.500000 0.500000
vt 0.500000 0.500000
vt 0.500000 0.500000
vt 0.500000 0.500000
vt 0.500000 0.500000
vt 0.500000 0.500000
vt 0.500000 0.500000
vt 0.500000 0.500000
vt 0.500000 0.500000
vt 0.500000 0.500000
vt 0.500000 0.500000
vt 0.500000 0.500000
vt 0.500000 0.500000
vt 0.500000 0.500000
vt 0.500000 0.500000
vt 0.500000 0.500000
vt 0.500000 0.500000
vt 0.500000 0.500000
vt 0.500000 0.500000
vt 0.500000 0.500000
vt 0.500000 0.500000
vt 0.500000 0.500000
vt 0.500000 0.500000
vt 0.500000 0.500000
vt 0.500000 0.500000
vt 0.500000 0.500000
vt 0.500000 0.500000
vt 0.500000 0.500000
vt 0.500000 0.500000
vt 0.500000 0.500000
vt 0.500000 0.500000
vt 0.500000 0.500000
vt 0.500000 0.500000
vt 0.500000 0.500000
vt 0.500000 0.500000
vt 0.500000 0.500000
vt 0.500000 0.500000
vt 0.500000 0.500000
vt 0.500000 0.500000
vt 0.500000 0.500000
vt 0.500000 0.500000
vt 0.500000 0.500000
vt 0.500000 0.500000
vt 0.500000 0.500000
vt 0.500000 0.500000
vt 0.500000 0.500000
vt 0.500000 0.500000
vt 0.500000 0.500000
vt 0.500000 0.500000
vt 0.500000 0.500000
vt 0.500000 0.500000
vt 0.500000 0.500000
vt 0.500000 0.500000
vt 0.500000 0.500000
vt 0.500000 0.500000
vt 0.500000 0.500000
vt 0.500000 0.500000
vt 0.500000 0.500000
vt 0.500000 0.500000
vt 0.500000 0.500000
vt 0.500000 0.500000
vt 0.500000 0.500000
vt 0.500000 0.500000
vt 0.500000 0.500000
vt 0.500000 0.500000
vt 0.269790 0.877435
vt 0.274069 0.876864
vt 0.274585 0.892300
vt 0.259844 0.877676
vt 0.273320 0.894911
vt 0.251548 0.889681
vt 0.270356 0.918719
vt 0.267481 0.914888
vt 0.268395 0.911139
vt 0.262238 0.877018
vt 0.262353 0.874409
vt 0.267036 0.876581
vt 0.256161 0.876982
vt 0.251215 0.884190
vt 0.251440 0.900438
vt 0.249285 0.900216
vt 0.250876 0.893246
vt 0.281250 0.875000
vt 0.282004 0.883935
vt 0.262979 0.906844
vt 0.266166 0.906540
vt 0.262102 0.914359
vt 0.262222 0.916650
vt 0.259928 0.917574
vt 0.246344 0.901281
vt 0.248789 0.893390
vt 0.250000 0.916667
vt 0.251525 0.908522
vt 0.260811 0.908586
vt 0.252030 0.903641
vt 0.246011 0.891969
vt 0.261485 0.870763
vt 0.266985 0.873713
vt 0.274635 0.901225
vt 0.274439 0.918292
vt 0.266614 0.865058
vt 0.268188 0.869897
vt 0.263632 0.865365
vt 0.282717 0.908295
vt 0.281250 0.916667
vt 0.260965 0.911364
vt 0.268405 0.907970
vt 0.276839 0.892359
vt 0.242291 0.898322
vt 0.242246 0.894324
vt 0.273292 0.898663
vt 0.261499 0.867380
vt 0.268543 0.866610
vt 0.243710 0.901191
vt 0.282088 0.889331
vt 0.279361 0.893407
vt 0.280273 0.899842
vt 0.282511 0.900017
vt 0.283171 0.903286
vt 0.267672 0.917766
vt 0.277270 0.901064
vt 0.243549 0.891670
vt 0.250000 0.875000
vt 0.281313 0.892964
vn 0.0000 -1.0000 0.0000
vn 0.2573 0.0000 0.9663
vn -0.0781 0.0000 0.9969
vn 0.9961 0.0000 0.0881
vn -0.2891 0.0000 0.9573
vn 0.0684 0.0000 0.9977
vn -0.1761 0.0000 0.9844
vn -0.9976 0.0000 -0.0696
vn 0.9510 0.0000 -0.3092
vn -0.8921 0.0000 -0.4518
vn 0.9702 0.0000 -0.2423
vn -0.9738 0.0000 0.2276
vn -0.9973 0.0000 -0.0739
vn 1.0000 0.0000 -0.0043
vn -0.5159 0.0000 0.8566
vn 0.9906 0.0000 -0.1366
vn -0.9928 0.0000 0.1200
vn 0.4317 0.0000 0.9020
vn -0.0715 0.0000 0.9974
vn 0.9711 0.0000 0.2385
vn 0.0457 0.0000 -0.9990
vn -0.9656 0.0000 -0.2599
vn 0.0257 0.0000 0.9997
vn -0.2621 0.0000 0.9650
vn -0.8196 0.0000 -0.5730
vn 0.8347 0.0000 0.5507
vn 0.2919 0.0000 -0.9565
vn -0.0586 0.0000 -0.9983
vn 0.0769 0.0000 0.9970
vn -1.0000 0.0000 0.0097
vn 0.9999 0.0000 0.0151
vn -0.8398 0.0000 0.5428
vn 0.8366 0.0000 -0.5478
vn 0.2976 0.0000 0.9547
vn -0.1677 0.0000 0.9858
vn -0.0906 0.0000 -0.9959
vn -0.3583 0.0000 -0.9336
vn 0.0520 0.0000 -0.9986
vn 0.9698 0.0000 -0.2439
vn -0.9619 0.0000 0.2735
vn 0.0194 0.0000 0.9998
vn 0.9968 0.0000 0.0805
vn -0.9998 0.0000 -0.0206
vn 0.9848 0.0000 0.1737
vn -0.1398 0.0000 -0.9902
vn 0.2016 0.0000 -0.9795
vn -0.2264 0.0000 -0.9740
vn 0.0996 0.0000 -0.9950
vn 0.9983 0.0000 -0.0589
vn -0.9997 0.0000 -0.0239
vn 0.1910 0.0000 -0.9816
vn -0.9937 0.0000 -0.1119
vn -0.2345 0.0000 -0.9721
vn 0.9531 0.0000 0.3028
vn -0.9218 0.0000 0.3877
vn 1.0000 0.0000 -0.0053
vn -0.9898 0.0000 0.1426
vn 0.5780 0.0000 -0.8161
vn 0.0769 0.0000 -0.9970
vn -0.5163 0.0000 -0.8564
vn 0.0000 1.0000 0.0000
usemtl BackMat.001
s off
f 254/1/1 233/2/1 257/3/1
f 250/4/1 244/5/1 231/6/1
f 196/7/1 207/8/1 198/9/1
f 252/10/1 255/11/1 258/12/1
f 251/13/1 246/14/1 250/4/1
f 219/15/1 242/16/1 227/17/1
f 257/3/1 247/18/1 260/19/1
f 215/20/1 218/21/1 231/6/1
f 206/22/1 199/23/1 200/24/1
f 227/17/1 241/25/1 226/26/1
f 199/23/1 209/27/1 202/28/1
f 241/25/1 227/17/1 242/16/1
f 215/20/1 216/29/1 211/30/1
f 240/31/1 226/26/1 241/25/1
f 255/11/1 231/6/1 254/1/1
f 216/29/1 209/27/1 211/30/1
f 258/12/1 259/32/1 262/33/1
f 222/34/1 207/8/1 197/35/1
f 268/36/1 267/37/1 263/38/1
f 210/39/1 197/35/1 204/40/1
f 208/41/1 209/27/1 199/23/1
f 222/34/1 213/42/1 207/8/1
f 257/3/1 236/43/1 247/18/1
f 197/35/1 207/8/1 196/7/1
f 229/44/1 240/31/1 232/45/1
f 254/1/1 231/6/1 233/2/1
f 263/38/1 262/33/1 259/32/1
f 242/16/1 219/15/1 215/20/1
f 208/41/1 199/23/1 206/22/1
f 228/46/1 213/42/1 222/34/1
f 264/47/1 262/33/1 267/37/1
f 229/44/1 226/26/1 240/31/1
f 259/32/1 258/12/1 255/11/1
f 211/30/1 209/27/1 208/41/1
f 263/38/1 267/37/1 262/33/1
f 252/10/1 250/4/1 231/6/1
f 231/6/1 218/21/1 228/46/1
f 265/48/1 268/36/1 263/38/1
f 226/26/1 229/44/1 225/49/1
f 242/16/1 215/20/1 244/5/1
f 255/11/1 252/10/1 231/6/1
f 236/43/1 237/50/1 245/51/1
f 230/52/1 217/53/1 223/54/1
f 246/14/1 244/5/1 250/4/1
f 196/7/1 198/9/1 194/55/1
f 218/21/1 213/42/1 228/46/1
f 221/56/1 210/39/1 217/53/1
f 221/56/1 217/53/1 230/52/1
f 222/34/1 197/35/1 210/39/1
f 234/57/1 232/45/1 240/31/1
f 219/15/1 216/29/1 215/20/1
f 246/14/1 251/13/1 248/58/1
f 222/34/1 210/39/1 221/56/1
f 247/18/1 236/43/1 245/51/1
f 231/6/1 244/5/1 215/20/1
f 245/51/1 237/50/1 238/59/1
f 233/2/1 236/43/1 257/3/1
f 120/60/2 57/61/2 116/62/2 195/63/2
f 57/61/3 58/64/3 117/65/3 116/62/3
f 55/66/4 56/67/4 115/68/4 114/69/4
f 46/70/5 126/71/5 201/72/5 105/73/5
f 128/74/6 46/70/6 105/73/6 203/75/6
f 58/64/7 130/76/7 205/77/7 117/65/7
f 47/78/8 48/79/8 107/80/8 106/81/8
f 54/82/9 55/66/9 114/69/9 113/83/9
f 48/79/10 49/84/10 108/85/10 107/80/10
f 44/86/11 45/87/11 104/88/11 103/89/11
f 59/90/12 1/91/12 60/92/12 118/93/12
f 49/84/13 137/94/13 212/95/13 108/85/13
f 139/96/14 54/82/14 113/83/14 214/97/14
f 50/98/15 51/99/15 110/100/15 109/101/15
f 43/102/16 44/86/16 103/89/16 102/103/16
f 1/91/17 2/104/17 61/105/17 60/92/17
f 52/106/18 53/107/18 112/108/18 111/109/18
f 51/99/19 52/106/19 111/109/19 110/100/19
f 145/110/20 43/102/20 102/103/20 220/111/20
f 5/112/21 6/113/21 65/114/21 64/115/21
f 2/104/22 149/116/22 224/117/22 61/105/22
f 39/118/23 40/119/23 99/120/23 98/121/23
f 40/119/24 41/122/24 100/123/24 99/120/24
f 6/113/25 7/124/25 66/125/25 65/114/25
f 38/126/26 39/118/26 98/121/26 97/127/26
f 4/128/27 5/112/27 64/115/27 63/129/27
f 3/130/28 4/128/28 63/129/28 62/131/28
f 41/122/29 42/132/29 101/133/29 100/123/29
f 7/124/30 8/134/30 67/135/30 66/125/30
f 37/136/31 38/126/31 97/127/31 96/137/31
f 8/134/32 9/138/32 68/139/32 67/135/32
f 160/140/33 37/136/33 96/137/33 235/141/33
f 10/142/34 11/143/34 70/144/34 69/145/34
f 11/143/35 164/146/35 239/147/35 70/144/35
f 35/148/36 36/149/36 95/150/36 94/151/36
f 34/152/37 35/148/37 94/151/37 93/153/37
f 168/154/38 34/152/38 93/153/38 243/155/38
f 32/156/39 33/157/39 92/158/39 91/159/39
f 12/160/40 13/161/40 72/162/40 71/163/40
f 9/138/41 10/142/41 69/145/41 68/139/41
f 31/164/42 32/156/42 91/159/42 90/165/42
f 13/161/43 14/166/43 73/167/43 72/162/43
f 174/168/44 31/164/44 90/165/44 249/169/44
f 28/170/45 29/171/45 88/172/45 87/173/45
f 178/174/46 28/170/46 87/173/46 253/175/46
f 17/176/47 181/177/47 256/178/47 76/179/47
f 16/180/48 17/176/48 76/179/48 75/181/48
f 26/182/49 27/183/49 86/184/49 85/185/49
f 18/186/50 19/187/50 78/188/50 77/189/50
f 186/190/51 16/180/51 75/181/51 261/191/51
f 14/166/52 15/192/52 74/193/52 73/167/52
f 29/171/53 30/194/53 89/195/53 88/172/53
f 25/196/54 26/182/54 85/185/54 84/197/54
f 19/187/55 20/198/55 79/199/55 78/188/55
f 24/200/56 25/196/56 84/197/56 83/201/56
f 20/198/57 191/202/57 266/203/57 79/199/57
f 23/204/58 24/200/58 83/201/58 82/205/58
f 22/206/59 23/204/59 82/205/59 81/207/59
f 21/208/60 22/206/60 81/207/60 80/209/60
usemtl FrontMat.001
f 179/210/61 182/211/61 158/212/61
f 175/213/61 156/214/61 169/215/61
f 121/216/61 123/217/61 132/218/61
f 177/219/61 183/220/61 180/221/61
f 176/222/61 175/213/61 171/223/61
f 144/224/61 152/225/61 167/226/61
f 182/211/61 185/227/61 172/228/61
f 140/229/61 156/214/61 143/230/61
f 131/231/61 125/232/61 124/233/61
f 152/225/61 151/234/61 166/235/61
f 124/233/61 127/236/61 134/237/61
f 166/235/61 167/226/61 152/225/61
f 140/229/61 136/238/61 141/239/61
f 165/240/61 166/235/61 151/234/61
f 180/221/61 179/210/61 156/214/61
f 141/239/61 136/238/61 134/237/61
f 183/220/61 187/241/61 184/242/61
f 147/243/61 122/244/61 132/218/61
f 193/245/61 188/246/61 192/247/61
f 135/248/61 129/249/61 122/244/61
f 133/250/61 124/233/61 134/237/61
f 147/243/61 132/218/61 138/251/61
f 182/211/61 172/228/61 161/252/61
f 122/244/61 121/216/61 132/218/61
f 154/253/61 157/254/61 165/240/61
f 179/210/61 158/212/61 156/214/61
f 188/246/61 184/242/61 187/241/61
f 167/226/61 140/229/61 144/224/61
f 133/250/61 131/231/61 124/233/61
f 153/255/61 147/243/61 138/251/61
f 189/256/61 192/247/61 187/241/61
f 154/253/61 165/240/61 151/234/61
f 184/242/61 180/221/61 183/220/61
f 136/238/61 133/250/61 134/237/61
f 188/246/61 187/241/61 192/247/61
f 177/219/61 156/214/61 175/213/61
f 156/214/61 153/255/61 143/230/61
f 190/257/61 188/246/61 193/245/61
f 151/234/61 150/258/61 154/253/61
f 167/226/61 169/215/61 140/229/61
f 180/221/61 156/214/61 177/219/61
f 161/252/61 170/259/61 162/260/61
f 155/261/61 148/262/61 142/263/61
f 171/223/61 175/213/61 169/215/61
f 121/216/61 119/264/61 123/217/61
f 143/230/61 153/255/61 138/251/61
f 146/265/61 142/263/61 135/248/61
f 146/265/61 155/261/61 142/263/61
f 147/243/61 135/248/61 122/244/61
f 159/266/61 165/240/61 157/254/61
f 144/224/61 140/229/61 141/239/61
f 171/223/61 173/267/61 176/222/61
f 147/243/61 146/265/61 135/248/61
f 172/228/61 170/259/61 161/252/61
f 156/214/61 140/229/61 169/215/61
f 170/259/61 163/268/61 162/260/61
f 158/212/61 182/211/61 161/252/61
