# Blender v2.83.1 OBJ File: 'jigsaw-32x24-3-step2.blend'
# www.blender.org
mtllib piece.251.mtl
o path502
v 0.269543 0.037500 0.561493
v 0.152405 0.037500 0.576458
v 0.077856 0.037500 0.560230
v 0.077778 0.037500 0.499472
v 0.108927 0.037500 0.417331
v 0.109264 0.037500 0.346076
v 0.037581 0.037500 0.311882
v -0.064102 0.037500 0.316559
v -0.132938 0.037500 0.355822
v -0.127621 0.037500 0.421966
v -0.092995 0.037500 0.493621
v -0.095449 0.037500 0.545998
v -0.180878 0.037500 0.561471
v -0.535185 0.037500 0.517208
v -0.564094 0.037500 0.309648
v -0.568163 0.037500 0.185917
v -0.541004 0.037500 0.106200
v -0.471035 0.037500 0.104181
v -0.381256 0.037500 0.136610
v -0.303322 0.037500 0.140999
v -0.263388 0.037500 0.075265
v -0.265656 0.037500 -0.021071
v -0.308830 0.037500 -0.088088
v -0.386887 0.037500 -0.086188
v -0.474688 0.037500 -0.057068
v -0.542351 0.037500 -0.062749
v -0.568254 0.037500 -0.146038
v -0.563852 0.037500 -0.272878
v -0.535185 0.037500 -0.484489
v -0.314882 0.037500 -0.453494
v -0.181833 0.037500 -0.447459
v -0.092217 0.037500 -0.471725
v -0.081390 0.037500 -0.537809
v -0.108217 0.037500 -0.623050
v -0.112427 0.037500 -0.696245
v -0.052912 0.037500 -0.731467
v 0.034832 0.037500 -0.723880
v 0.096147 0.037500 -0.673920
v 0.094934 0.037500 -0.587683
v 0.069271 0.037500 -0.493899
v 0.075790 0.037500 -0.426960
v 0.153521 0.037500 -0.411196
v 0.271055 0.037500 -0.430720
v 0.466724 0.037500 -0.484490
v 0.434656 0.037500 -0.125158
v 0.457100 0.037500 -0.035720
v 0.517771 0.037500 -0.027973
v 0.598888 0.037500 -0.058533
v 0.675556 0.037500 -0.064116
v 0.725929 0.037500 -0.001724
v 0.740353 0.037500 0.090491
v 0.712217 0.037500 0.154086
v 0.641430 0.037500 0.150367
v 0.553898 0.037500 0.119617
v 0.482040 0.037500 0.121864
v 0.449852 0.037500 0.198662
v 0.447622 0.037500 0.317667
v 0.466724 0.037500 0.517208
v 0.269543 -0.037500 0.561493
v 0.152405 -0.037500 0.576458
v 0.077856 -0.037500 0.560230
v 0.077778 -0.037500 0.499472
v 0.108927 -0.037500 0.417331
v 0.109264 -0.037500 0.346076
v 0.037581 -0.037500 0.311882
v -0.064102 -0.037500 0.316559
v -0.132938 -0.037500 0.355822
v -0.127621 -0.037500 0.421966
v -0.092995 -0.037500 0.493621
v -0.095449 -0.037500 0.545998
v -0.180878 -0.037500 0.561471
v -0.535185 -0.037498 0.517208
v -0.564094 -0.037500 0.309648
v -0.568163 -0.037500 0.185917
v -0.541004 -0.037498 0.106200
v -0.471035 -0.037500 0.104181
v -0.381256 -0.037500 0.136610
v -0.303322 -0.037500 0.140999
v -0.263388 -0.037500 0.075265
v -0.265656 -0.037500 -0.021071
v -0.308830 -0.037500 -0.088088
v -0.386887 -0.037500 -0.086188
v -0.474688 -0.037500 -0.057068
v -0.542351 -0.037500 -0.062749
v -0.568254 -0.037500 -0.146038
v -0.563852 -0.037500 -0.272878
v -0.535185 -0.037500 -0.484489
v -0.314882 -0.037500 -0.453494
v -0.181833 -0.037500 -0.447459
v -0.092217 -0.037500 -0.471725
v -0.081390 -0.037500 -0.537809
v -0.108217 -0.037498 -0.623050
v -0.112427 -0.037500 -0.696245
v -0.052912 -0.037500 -0.731467
v 0.034832 -0.037500 -0.723880
v 0.096147 -0.037500 -0.673920
v 0.094934 -0.037500 -0.587683
v 0.069271 -0.037498 -0.493899
v 0.075790 -0.037500 -0.426960
v 0.153521 -0.037498 -0.411196
v 0.271055 -0.037500 -0.430720
v 0.466724 -0.037500 -0.484490
v 0.434656 -0.037500 -0.125158
v 0.457100 -0.037500 -0.035720
v 0.517771 -0.037500 -0.027973
v 0.598888 -0.037500 -0.058533
v 0.675556 -0.037500 -0.064116
v 0.725929 -0.037500 -0.001724
v 0.740353 -0.037500 0.090491
v 0.712217 -0.037500 0.154086
v 0.641430 -0.037500 0.150367
v 0.553898 -0.037500 0.119617
v 0.482040 -0.037500 0.121864
v 0.449852 -0.037500 0.198662
v 0.447622 -0.037500 0.317667
v 0.466724 -0.037500 0.517208
v 0.269543 0.037500 0.561493
v 0.152405 0.037500 0.576458
v 0.077856 0.037500 0.560230
v 0.077856 0.037500 0.560230
v -0.095449 0.037500 0.545998
v -0.095449 0.037500 0.545998
v -0.180878 0.037500 0.561471
v 0.077778 0.037500 0.499472
v -0.092995 0.037500 0.493621
v 0.466724 0.037500 0.517208
v 0.466724 0.037500 0.517208
v -0.535185 0.037500 0.517208
v -0.535185 0.037500 0.517208
v 0.108927 0.037500 0.417331
v -0.127621 0.037500 0.421966
v 0.447622 0.037500 0.317667
v -0.564094 0.037500 0.309648
v -0.132938 0.037500 0.355822
v -0.132938 0.037500 0.355822
v 0.109264 0.037500 0.346076
v 0.109264 0.037500 0.346076
v -0.064102 0.037500 0.316559
v 0.037581 0.037500 0.311882
v 0.449852 0.037500 0.198662
v -0.568163 0.037500 0.185917
v 0.482040 0.037500 0.121864
v 0.482040 0.037500 0.121864
v -0.381256 0.037500 0.136610
v -0.303322 0.037500 0.140999
v -0.303322 0.037500 0.140999
v -0.541004 0.037500 0.106200
v -0.541004 0.037500 0.106200
v 0.740353 0.037500 0.090491
v 0.712217 0.037500 0.154086
v 0.712217 0.037500 0.154086
v 0.641430 0.037500 0.150367
v 0.553898 0.037500 0.119617
v -0.263388 0.037500 0.075265
v -0.471035 0.037500 0.104181
v 0.725929 0.037500 -0.001724
v -0.265656 0.037500 -0.021071
v 0.675556 0.037500 -0.064116
v -0.308830 0.037500 -0.088088
v 0.598888 0.037500 -0.058533
v 0.517771 0.037500 -0.027973
v 0.457100 0.037500 -0.035720
v 0.457100 0.037500 -0.035720
v 0.434656 0.037500 -0.125158
v -0.386887 0.037500 -0.086188
v -0.474688 0.037500 -0.057068
v -0.542351 0.037500 -0.062749
v -0.542351 0.037500 -0.062749
v -0.568254 0.037500 -0.146038
v -0.563852 0.037500 -0.272878
v 0.466724 0.037500 -0.484490
v 0.466724 0.037500 -0.484490
v 0.153521 0.037500 -0.411196
v 0.271055 0.037500 -0.430720
v 0.075790 0.037500 -0.426960
v 0.075790 0.037500 -0.426960
v 0.069271 0.037500 -0.493899
v -0.181833 0.037500 -0.447459
v -0.092217 0.037500 -0.471725
v -0.092217 0.037500 -0.471725
v -0.314882 0.037500 -0.453494
v -0.535185 0.037500 -0.484489
v -0.535185 0.037500 -0.484489
v -0.081390 0.037500 -0.537809
v 0.094934 0.037500 -0.587683
v -0.108217 0.037500 -0.623050
v 0.096147 0.037500 -0.673920
v -0.112427 0.037500 -0.696245
v -0.112427 0.037500 -0.696245
v 0.034832 0.037500 -0.723880
v -0.052912 0.037500 -0.731467
v 0.269543 -0.037500 0.561493
v 0.152405 -0.037500 0.576458
v 0.077856 -0.037500 0.560230
v 0.077856 -0.037500 0.560230
v -0.095449 -0.037500 0.545998
v -0.095449 -0.037500 0.545998
v -0.180878 -0.037500 0.561471
v 0.077778 -0.037500 0.499472
v -0.092995 -0.037500 0.493621
v 0.466724 -0.037500 0.517208
v 0.466724 -0.037500 0.517208
v -0.535185 -0.037498 0.517208
v -0.535185 -0.037498 0.517208
v 0.108927 -0.037500 0.417331
v -0.127621 -0.037500 0.421966
v 0.447622 -0.037500 0.317667
v -0.564094 -0.037500 0.309648
v -0.132938 -0.037500 0.355822
v -0.132938 -0.037500 0.355822
v 0.109264 -0.037500 0.346076
v 0.109264 -0.037500 0.346076
v -0.064102 -0.037500 0.316559
v 0.037581 -0.037500 0.311882
v 0.449852 -0.037500 0.198662
v -0.568163 -0.037500 0.185917
v 0.482040 -0.037500 0.121864
v 0.482040 -0.037500 0.121864
v -0.381256 -0.037500 0.136610
v -0.303322 -0.037500 0.140999
v -0.303322 -0.037500 0.140999
v -0.541004 -0.037498 0.106200
v -0.541004 -0.037498 0.106200
v 0.740353 -0.037500 0.090491
v 0.712217 -0.037500 0.154086
v 0.712217 -0.037500 0.154086
v 0.641430 -0.037500 0.150367
v 0.553898 -0.037500 0.119617
v -0.263388 -0.037500 0.075265
v -0.471035 -0.037500 0.104181
v 0.725929 -0.037500 -0.001724
v -0.265656 -0.037500 -0.021071
v 0.675556 -0.037500 -0.064116
v -0.308830 -0.037500 -0.088088
v 0.598888 -0.037500 -0.058533
v 0.517771 -0.037500 -0.027973
v 0.457100 -0.037500 -0.035720
v 0.457100 -0.037500 -0.035720
v 0.434656 -0.037500 -0.125158
v -0.386887 -0.037500 -0.086188
v -0.474688 -0.037500 -0.057068
v -0.542351 -0.037500 -0.062749
v -0.542351 -0.037500 -0.062749
v -0.568254 -0.037500 -0.146038
v -0.563852 -0.037500 -0.272878
v 0.466724 -0.037500 -0.484490
v 0.466724 -0.037500 -0.484490
v 0.153521 -0.037498 -0.411196
v 0.271055 -0.037500 -0.430720
v 0.075790 -0.037500 -0.426960
v 0.075790 -0.037500 -0.426960
v 0.069271 -0.037498 -0.493899
v -0.181833 -0.037500 -0.447459
v -0.092217 -0.037500 -0.471725
v -0.092217 -0.037500 -0.471725
v -0.314882 -0.037500 -0.453494
v -0.535185 -0.037500 -0.484489
v -0.535185 -0.037500 -0.484489
v -0.081390 -0.037500 -0.537809
v 0.094934 -0.037500 -0.587683
v -0.108217 -0.037498 -0.623050
v 0.096147 -0.037500 -0.673920
v -0.112427 -0.037500 -0.696245
v -0.112427 -0.037500 -0.696245
v 0.034832 -0.037500 -0.723880
v -0.052912 -0.037500 -0.731467
vt 0.500000 0.500000
vt 0.500000 0.500000
vt 0.500000 0.500000
vt 0.500000 0.500000
vt 0.500000 0.500000
vt 0.500000 0.500000
vt 0.500000 0.500000
vt 0.500000 0.500000
vt 0.500000 0.500000
vt 0.500000 0.500000
vt 0.500000 0.500000
vt 0.500000 0.500000
vt 0.500000 0.500000
vt 0.500000 0.500000
vt 0.500000 0.500000
vt 0.500000 0.500000
vt 0.500000 0.500000
vt 0.500000 0.500000
vt 0.500000 0.500000
vt 0.500000 0.500000
vt 0.500000 0.500000
vt 0.500000 0.500000
vt 0.500000 0.500000
vt 0.500000 0.500000
vt 0.500000 0.500000
vt 0.500000 0.500000
vt 0.500000 0.500000
vt 0.500000 0.500000
vt 0.500000 0.500000
vt 0.500000 0.500000
vt 0.500000 0.500000
vt 0.500000 0.500000
vt 0.500000 0.500000
vt 0.500000 0.500000
vt 0.500000 0.500000
vt 0.500000 0.500000
vt 0.500000 0.500000
vt 0.500000 0.500000
vt 0.500000 0.500000
vt 0.500000 0.500000
vt 0.500000 0.500000
vt 0.500000 0.500000
vt 0.500000 0.500000
vt 0.500000 0.500000
vt 0.500000 0.500000
vt 0.500000 0.500000
vt 0.500000 0.500000
vt 0.500000 0.500000
vt 0.500000 0.500000
vt 0.500000 0.500000
vt 0.500000 0.500000
vt 0.500000 0.500000
vt 0.500000 0.500000
vt 0.500000 0.500000
vt 0.500000 0.500000
vt 0.500000 0.500000
vt 0.500000 0.500000
vt 0.500000 0.500000
vt 0.500000 0.500000
vt 0.500000 0.500000
vt 0.500000 0.500000
vt 0.500000 0.500000
vt 0.500000 0.500000
vt 0.500000 0.500000
vt 0.500000 0.500000
vt 0.500000 0.500000
vt 0.500000 0.500000
vt 0.500000 0.500000
vt 0.500000 0.500000
vt 0.500000 0.500000
vt 0.500000 0.500000
vt 0.500000 0.500000
vt 0.500000 0.500000
vt 0.500000 0.500000
vt 0.500000 0.500000
vt 0.500000 0.500000
vt 0.500000 0.500000
vt 0.500000 0.500000
vt 0.500000 0.500000
vt 0.500000 0.500000
vt 0.500000 0.500000
vt 0.500000 0.500000
vt 0.500000 0.500000
vt 0.500000 0.500000
vt 0.500000 0.500000
vt 0.500000 0.500000
vt 0.500000 0.500000
vt 0.500000 0.500000
vt 0.500000 0.500000
vt 0.500000 0.500000
vt 0.500000 0.500000
vt 0.500000 0.500000
vt 0.500000 0.500000
vt 0.500000 0.500000
vt 0.500000 0.500000
vt 0.500000 0.500000
vt 0.500000 0.500000
vt 0.500000 0.500000
vt 0.500000 0.500000
vt 0.500000 0.500000
vt 0.500000 0.500000
vt 0.500000 0.500000
vt 0.500000 0.500000
vt 0.500000 0.500000
vt 0.500000 0.500000
vt 0.500000 0.500000
vt 0.500000 0.500000
vt 0.500000 0.500000
vt 0.500000 0.500000
vt 0.500000 0.500000
vt 0.500000 0.500000
vt 0.500000 0.500000
vt 0.500000 0.500000
vt 0.500000 0.500000
vt 0.500000 0.500000
vt 0.500000 0.500000
vt 0.500000 0.500000
vt 0.500000 0.500000
vt 0.500000 0.500000
vt 0.500000 0.500000
vt 0.500000 0.500000
vt 0.500000 0.500000
vt 0.500000 0.500000
vt 0.500000 0.500000
vt 0.500000 0.500000
vt 0.500000 0.500000
vt 0.500000 0.500000
vt 0.500000 0.500000
vt 0.500000 0.500000
vt 0.500000 0.500000
vt 0.500000 0.500000
vt 0.500000 0.500000
vt 0.500000 0.500000
vt 0.500000 0.500000
vt 0.500000 0.500000
vt 0.500000 0.500000
vt 0.500000 0.500000
vt 0.500000 0.500000
vt 0.500000 0.500000
vt 0.500000 0.500000
vt 0.500000 0.500000
vt 0.500000 0.500000
vt 0.500000 0.500000
vt 0.500000 0.500000
vt 0.500000 0.500000
vt 0.500000 0.500000
vt 0.500000 0.500000
vt 0.500000 0.500000
vt 0.500000 0.500000
vt 0.500000 0.500000
vt 0.500000 0.500000
vt 0.500000 0.500000
vt 0.500000 0.500000
vt 0.500000 0.500000
vt 0.500000 0.500000
vt 0.500000 0.500000
vt 0.500000 0.500000
vt 0.500000 0.500000
vt 0.500000 0.500000
vt 0.500000 0.500000
vt 0.500000 0.500000
vt 0.500000 0.500000
vt 0.500000 0.500000
vt 0.500000 0.500000
vt 0.500000 0.500000
vt 0.500000 0.500000
vt 0.500000 0.500000
vt 0.500000 0.500000
vt 0.500000 0.500000
vt 0.500000 0.500000
vt 0.500000 0.500000
vt 0.500000 0.500000
vt 0.500000 0.500000
vt 0.500000 0.500000
vt 0.500000 0.500000
vt 0.500000 0.500000
vt 0.500000 0.500000
vt 0.500000 0.500000
vt 0.500000 0.500000
vt 0.500000 0.500000
vt 0.500000 0.500000
vt 0.500000 0.500000
vt 0.500000 0.500000
vt 0.500000 0.500000
vt 0.500000 0.500000
vt 0.500000 0.500000
vt 0.500000 0.500000
vt 0.500000 0.500000
vt 0.500000 0.500000
vt 0.500000 0.500000
vt 0.500000 0.500000
vt 0.500000 0.500000
vt 0.500000 0.500000
vt 0.500000 0.500000
vt 0.500000 0.500000
vt 0.500000 0.500000
vt 0.500000 0.500000
vt 0.500000 0.500000
vt 0.500000 0.500000
vt 0.500000 0.500000
vt 0.500000 0.500000
vt 0.500000 0.500000
vt 0.500000 0.500000
vt 0.500000 0.500000
vt 0.500000 0.500000
vt 0.500000 0.500000
vt 0.500000 0.500000
vt 0.500000 0.500000
vt 0.818650 0.710175
vt 0.812500 0.708333
vt 0.813096 0.700033
vt 0.804415 0.686748
vt 0.808378 0.684385
vt 0.809781 0.691795
vt 0.843750 0.708333
vt 0.832699 0.710175
vt 0.831038 0.704372
vt 0.824897 0.666275
vt 0.824096 0.662374
vt 0.829596 0.664449
vt 0.824058 0.658787
vt 0.825971 0.656709
vt 0.812022 0.691889
vt 0.810908 0.685656
vt 0.844781 0.680745
vt 0.839125 0.683234
vt 0.844644 0.675469
vt 0.832729 0.668207
vt 0.836879 0.667956
vt 0.836690 0.683155
vt 0.828708 0.656393
vt 0.830433 0.660903
vt 0.813500 0.681613
vt 0.812500 0.666667
vt 0.818603 0.668903
vt 0.824693 0.669060
vt 0.835343 0.685943
vt 0.822269 0.669715
vt 0.835272 0.689950
vt 0.825885 0.699793
vt 0.823649 0.701215
vt 0.813026 0.695083
vt 0.807051 0.693074
vt 0.803965 0.690584
vt 0.804843 0.693229
vt 0.844779 0.694553
vt 0.844652 0.699700
vt 0.838949 0.692502
vt 0.829057 0.699987
vt 0.824631 0.707596
vt 0.824629 0.710123
vt 0.822304 0.710798
vt 0.841749 0.691153
vt 0.843931 0.691237
vt 0.823660 0.704179
vt 0.830564 0.657858
vt 0.829934 0.667198
vt 0.829958 0.707352
vt 0.841863 0.684446
vt 0.831204 0.701620
vt 0.812800 0.685334
vt 0.805986 0.684152
vt 0.836518 0.692684
vt 0.843974 0.684209
vt 0.843750 0.666667
vt 0.830034 0.709531
vn 0.0000 -1.0000 -0.0000
vn 0.1267 0.0000 0.9919
vn -0.2127 0.0000 0.9771
vn 0.1782 0.0000 0.9840
vn -1.0000 0.0000 0.0013
vn 0.9989 0.0000 0.0468
vn 0.2191 0.0000 0.9757
vn -0.1240 0.0000 0.9923
vn -0.9350 0.0000 -0.3546
vn 0.9004 0.0000 -0.4351
vn 0.9954 0.0000 -0.0953
vn -0.9904 0.0000 0.1380
vn 0.9968 0.0000 -0.0801
vn -1.0000 0.0000 -0.0047
vn 0.4955 0.0000 0.8686
vn -0.4305 0.0000 0.9026
vn 0.9998 0.0000 0.0187
vn 0.0459 0.0000 0.9989
vn -0.9995 0.0000 0.0329
vn 0.9223 0.0000 0.3866
vn 0.0562 0.0000 -0.9984
vn -0.9466 0.0000 -0.3225
vn 0.9145 0.0000 0.4046
vn -0.0525 0.0000 0.9986
vn -0.3314 0.0000 0.9435
vn -0.8546 0.0000 -0.5192
vn 0.3397 0.0000 -0.9405
vn -0.0288 0.0000 -0.9996
vn 0.0313 0.0000 0.9995
vn 0.9880 0.0000 -0.1545
vn -0.9997 0.0000 0.0235
vn 0.7781 0.0000 -0.6282
vn -0.8406 0.0000 0.5416
vn -0.0726 0.0000 -0.9974
vn -0.3526 0.0000 -0.9358
vn 0.1267 0.0000 -0.9919
vn 0.9699 0.0000 -0.2434
vn 0.3148 0.0000 0.9492
vn -0.0837 0.0000 0.9965
vn -0.9549 0.0000 0.2970
vn 0.0243 0.0000 0.9997
vn -0.9994 0.0000 -0.0347
vn 0.9960 0.0000 0.0889
vn -0.1639 0.0000 -0.9865
vn 0.1988 0.0000 -0.9800
vn 0.9953 0.0000 -0.0969
vn -0.2614 0.0000 -0.9652
vn 0.0453 0.0000 -0.9990
vn 0.1393 0.0000 -0.9902
vn -0.9909 0.0000 -0.1342
vn -0.2650 0.0000 -0.9643
vn -0.9868 0.0000 -0.1617
vn 0.9645 0.0000 0.2639
vn -0.9539 0.0000 0.3002
vn 0.9999 0.0000 0.0141
vn -0.9984 0.0000 0.0574
vn 0.6317 0.0000 -0.7752
vn 0.0862 0.0000 -0.9963
vn -0.5093 0.0000 -0.8606
vn 0.0000 1.0000 0.0000
usemtl BackMat.001
s off
f 192/1/1 207/2/1 201/3/1
f 231/4/1 228/5/1 235/6/1
f 203/7/1 206/8/1 198/9/1
f 252/10/1 259/11/1 260/12/1
f 260/12/1 265/13/1 262/14/1
f 217/15/1 236/16/1 228/5/1
f 244/17/1 245/18/1 240/19/1
f 253/20/1 234/21/1 256/22/1
f 265/13/1 261/23/1 266/24/1
f 239/25/1 249/26/1 246/27/1
f 250/28/1 248/29/1 232/30/1
f 261/23/1 260/12/1 259/11/1
f 232/30/1 214/31/1 229/32/1
f 211/33/1 215/34/1 207/2/1
f 240/19/1 256/22/1 234/21/1
f 239/25/1 248/29/1 249/26/1
f 227/35/1 231/4/1 224/36/1
f 227/35/1 224/36/1 225/37/1
f 265/13/1 260/12/1 261/23/1
f 216/38/1 219/39/1 208/40/1
f 229/32/1 214/31/1 213/41/1
f 232/30/1 248/29/1 239/25/1
f 199/42/1 193/43/1 194/44/1
f 230/45/1 216/38/1 222/46/1
f 192/1/1 205/47/1 207/2/1
f 263/48/1 266/24/1 261/23/1
f 234/21/1 250/28/1 232/30/1
f 253/20/1 250/28/1 234/21/1
f 250/28/1 254/49/1 252/10/1
f 206/8/1 200/50/1 198/9/1
f 241/51/1 244/17/1 240/19/1
f 208/40/1 209/52/1 203/7/1
f 214/31/1 237/53/1 215/34/1
f 253/20/1 254/49/1 250/28/1
f 235/6/1 228/5/1 236/16/1
f 231/4/1 235/6/1 233/54/1
f 232/30/1 239/25/1 214/31/1
f 228/5/1 231/4/1 227/35/1
f 220/55/1 213/41/1 209/52/1
f 219/39/1 216/38/1 230/45/1
f 208/40/1 220/55/1 209/52/1
f 242/56/1 244/17/1 241/51/1
f 214/31/1 215/34/1 211/33/1
f 193/43/1 205/47/1 192/1/1
f 245/18/1 256/22/1 240/19/1
f 220/55/1 208/40/1 219/39/1
f 257/57/1 256/22/1 245/18/1
f 237/53/1 236/16/1 217/15/1
f 229/32/1 213/41/1 220/55/1
f 215/34/1 237/53/1 217/15/1
f 198/9/1 200/50/1 196/58/1
f 214/31/1 239/25/1 237/53/1
f 209/52/1 206/8/1 203/7/1
f 205/47/1 193/43/1 199/42/1
f 259/11/1 252/10/1 254/49/1
f 205/47/1 211/33/1 207/2/1
f 1/59/2 2/60/2 60/61/2 59/62/2
f 2/60/3 120/63/3 195/64/3 60/61/3
f 122/65/4 13/66/4 71/67/4 197/68/4
f 3/69/5 4/70/5 62/71/5 61/72/5
f 11/73/6 12/74/6 70/75/6 69/76/6
f 127/77/7 1/59/7 59/62/7 202/78/7
f 13/66/8 129/79/8 204/80/8 71/67/8
f 4/70/9 5/81/9 63/82/9 62/71/9
f 10/83/10 11/73/10 69/76/10 68/84/10
f 57/85/11 58/86/11 116/87/11 115/88/11
f 14/89/12 15/90/12 73/91/12 72/92/12
f 135/93/13 10/83/13 68/84/13 210/94/13
f 5/81/14 137/95/14 212/96/14 63/82/14
f 8/97/15 9/98/15 67/99/15 66/100/15
f 6/101/16 7/102/16 65/103/16 64/104/16
f 56/105/17 57/85/17 115/88/17 114/106/17
f 7/102/18 8/97/18 66/100/18 65/103/18
f 15/90/19 16/107/19 74/108/19 73/91/19
f 143/109/20 56/105/20 114/106/20 218/110/20
f 19/111/21 146/112/21 221/113/21 77/114/21
f 16/107/22 148/115/22 223/116/22 74/108/22
f 51/117/23 151/118/23 226/119/23 109/120/23
f 52/121/24 53/122/24 111/123/24 110/124/24
f 53/122/25 54/125/25 112/126/25 111/123/25
f 20/127/26 21/128/26 79/129/26 78/130/26
f 18/131/27 19/111/27 77/114/27 76/132/27
f 17/133/28 18/131/28 76/132/28 75/134/28
f 54/125/29 55/135/29 113/136/29 112/126/29
f 50/137/30 51/117/30 109/120/30 108/138/30
f 21/128/31 22/139/31 80/140/31 79/129/31
f 49/141/32 50/137/32 108/138/32 107/142/32
f 22/139/33 23/143/33 81/144/33 80/140/33
f 48/145/34 49/141/34 107/142/34 106/146/34
f 47/147/35 48/145/35 106/146/35 105/148/35
f 163/149/36 47/147/36 105/148/36 238/150/36
f 45/151/37 46/152/37 104/153/37 103/154/37
f 24/155/38 25/156/38 83/157/38 82/158/38
f 25/156/39 168/159/39 243/160/39 83/157/39
f 26/161/40 27/162/40 85/163/40 84/164/40
f 23/143/41 24/155/41 82/158/41 81/144/41
f 27/162/42 28/165/42 86/166/42 85/163/42
f 172/167/43 45/151/43 103/154/43 247/168/43
f 42/169/44 43/170/44 101/171/44 100/172/44
f 176/173/45 42/169/45 100/172/45 251/174/45
f 40/175/46 41/176/46 99/177/46 98/178/46
f 31/179/47 180/180/47 255/181/47 89/182/47
f 30/183/48 31/179/48 89/182/48 88/184/48
f 183/185/49 30/183/49 88/184/49 258/186/49
f 28/165/50 29/187/50 87/188/50 86/166/50
f 43/170/51 44/189/51 102/190/51 101/171/51
f 32/191/52 33/192/52 91/193/52 90/194/52
f 39/195/53 40/175/53 98/178/53 97/196/53
f 33/192/54 34/197/54 92/198/54 91/193/54
f 38/199/55 39/195/55 97/196/55 96/200/55
f 34/197/56 189/201/56 264/202/56 92/198/56
f 37/203/57 38/199/57 96/200/57 95/204/57
f 36/205/58 37/203/58 95/204/58 94/206/58
f 35/207/59 36/205/59 94/206/59 93/208/59
usemtl FrontMat.001
f 117/209/60 126/210/60 132/211/60
f 156/212/60 160/213/60 153/214/60
f 128/215/60 123/216/60 131/217/60
f 177/218/60 185/219/60 184/220/60
f 185/219/60 187/221/60 190/222/60
f 142/223/60 153/214/60 161/224/60
f 169/225/60 165/226/60 170/227/60
f 178/228/60 181/229/60 159/230/60
f 190/222/60 191/231/60 186/232/60
f 164/233/60 171/234/60 174/235/60
f 175/236/60 157/237/60 173/238/60
f 186/232/60 184/220/60 185/219/60
f 157/237/60 154/239/60 139/240/60
f 136/241/60 132/211/60 140/242/60
f 165/226/60 159/230/60 181/229/60
f 164/233/60 174/235/60 173/238/60
f 152/243/60 149/244/60 156/212/60
f 152/243/60 150/245/60 149/244/60
f 190/222/60 186/232/60 185/219/60
f 141/246/60 133/247/60 144/248/60
f 154/239/60 138/249/60 139/240/60
f 157/237/60 164/233/60 173/238/60
f 124/250/60 119/251/60 118/252/60
f 155/253/60 147/254/60 141/246/60
f 117/209/60 132/211/60 130/255/60
f 188/256/60 186/232/60 191/231/60
f 159/230/60 157/237/60 175/236/60
f 178/228/60 159/230/60 175/236/60
f 175/236/60 177/218/60 179/257/60
f 131/217/60 123/216/60 125/258/60
f 166/259/60 165/226/60 169/225/60
f 133/247/60 128/215/60 134/260/60
f 139/240/60 140/242/60 162/261/60
f 178/228/60 175/236/60 179/257/60
f 160/213/60 161/224/60 153/214/60
f 156/212/60 158/262/60 160/213/60
f 157/237/60 139/240/60 164/233/60
f 153/214/60 152/243/60 156/212/60
f 145/263/60 134/260/60 138/249/60
f 144/248/60 155/253/60 141/246/60
f 133/247/60 134/260/60 145/263/60
f 167/264/60 166/259/60 169/225/60
f 139/240/60 136/241/60 140/242/60
f 118/252/60 117/209/60 130/255/60
f 170/227/60 165/226/60 181/229/60
f 145/263/60 144/248/60 133/247/60
f 182/265/60 170/227/60 181/229/60
f 162/261/60 142/223/60 161/224/60
f 154/239/60 145/263/60 138/249/60
f 140/242/60 142/223/60 162/261/60
f 123/216/60 121/266/60 125/258/60
f 139/240/60 162/261/60 164/233/60
f 134/260/60 128/215/60 131/217/60
f 130/255/60 124/250/60 118/252/60
f 184/220/60 179/257/60 177/218/60
f 130/255/60 132/211/60 136/241/60
