# Blender v2.83.1 OBJ File: 'jigsaw-32x24-3-step2.blend'
# www.blender.org
mtllib piece.591.mtl
o path1182
v 0.429880 0.037500 -0.284804
v 0.413475 0.037500 -0.167700
v 0.428350 0.037500 -0.094204
v 0.488369 0.037500 -0.096451
v 0.571552 0.037500 -0.129943
v 0.646976 0.037500 -0.131015
v 0.688761 0.037500 -0.057443
v 0.691214 0.037500 0.047253
v 0.653690 0.037500 0.118118
v 0.580854 0.037500 0.112370
v 0.498478 0.037500 0.075883
v 0.437632 0.037500 0.076700
v 0.420557 0.037500 0.161967
v 0.476267 0.037500 0.519210
v 0.270508 0.037500 0.570770
v 0.147390 0.037500 0.590343
v 0.067032 0.037500 0.577691
v 0.062836 0.037500 0.517727
v 0.093760 0.037500 0.431192
v 0.100149 0.037500 0.347787
v 0.041502 0.037500 0.293275
v -0.046061 0.037500 0.277657
v -0.107269 0.037500 0.306998
v -0.105862 0.037500 0.380470
v -0.081615 0.037500 0.469678
v -0.093325 0.037500 0.539338
v -0.181175 0.037500 0.563721
v -0.310923 0.037500 0.555332
v -0.525431 0.037500 0.519210
v -0.555332 0.037500 0.295900
v -0.559612 0.037500 0.162207
v -0.531723 0.037500 0.074776
v -0.459898 0.037500 0.069828
v -0.368948 0.037500 0.102951
v -0.292789 0.037500 0.109572
v -0.258821 0.037500 0.046004
v -0.268381 0.037500 -0.047884
v -0.316286 0.037500 -0.111333
v -0.393724 0.037500 -0.104254
v -0.477283 0.037500 -0.069248
v -0.539915 0.037500 -0.069584
v -0.562279 0.037500 -0.149041
v -0.555861 0.037500 -0.273459
v -0.525431 0.037500 -0.482699
v -0.294004 0.037500 -0.440804
v -0.155231 0.037500 -0.428733
v -0.063978 0.037500 -0.450157
v -0.057922 0.037500 -0.518826
v -0.092619 0.037500 -0.610327
v -0.103085 0.037500 -0.690716
v -0.044739 0.037500 -0.732219
v 0.045422 0.037500 -0.731730
v 0.110004 0.037500 -0.692319
v 0.110682 0.037500 -0.621067
v 0.085396 0.037500 -0.540964
v 0.091162 0.037500 -0.479000
v 0.167410 0.037500 -0.454714
v 0.283213 0.037500 -0.457871
v 0.476267 0.037500 -0.482699
v 0.429880 -0.037500 -0.284804
v 0.413475 -0.037498 -0.167700
v 0.428350 -0.037500 -0.094204
v 0.488369 -0.037500 -0.096451
v 0.571552 -0.037500 -0.129943
v 0.646976 -0.037500 -0.131015
v 0.688761 -0.037500 -0.057443
v 0.691214 -0.037500 0.047253
v 0.653690 -0.037500 0.118118
v 0.580854 -0.037498 0.112370
v 0.498478 -0.037500 0.075883
v 0.437632 -0.037500 0.076700
v 0.420557 -0.037500 0.161967
v 0.476267 -0.037500 0.519210
v 0.270508 -0.037500 0.570770
v 0.147390 -0.037500 0.590343
v 0.067032 -0.037498 0.577691
v 0.062836 -0.037500 0.517727
v 0.093760 -0.037500 0.431192
v 0.100149 -0.037500 0.347787
v 0.041502 -0.037498 0.293275
v -0.046061 -0.037500 0.277657
v -0.107269 -0.037500 0.306998
v -0.105862 -0.037500 0.380470
v -0.081615 -0.037500 0.469678
v -0.093325 -0.037500 0.539338
v -0.181175 -0.037500 0.563721
v -0.310923 -0.037500 0.555332
v -0.525431 -0.037498 0.519210
v -0.555332 -0.037498 0.295900
v -0.559612 -0.037500 0.162207
v -0.531723 -0.037500 0.074776
v -0.459898 -0.037500 0.069828
v -0.368948 -0.037500 0.102951
v -0.292789 -0.037500 0.109572
v -0.258821 -0.037500 0.046004
v -0.268381 -0.037498 -0.047884
v -0.316286 -0.037500 -0.111333
v -0.393724 -0.037500 -0.104254
v -0.477283 -0.037498 -0.069248
v -0.539915 -0.037500 -0.069584
v -0.562279 -0.037500 -0.149041
v -0.555861 -0.037500 -0.273459
v -0.525431 -0.037500 -0.482699
v -0.294004 -0.037500 -0.440804
v -0.155231 -0.037500 -0.428733
v -0.063978 -0.037500 -0.450157
v -0.057922 -0.037498 -0.518826
v -0.092619 -0.037500 -0.610327
v -0.103085 -0.037500 -0.690716
v -0.044739 -0.037500 -0.732219
v 0.045422 -0.037500 -0.731730
v 0.110004 -0.037500 -0.692319
v 0.110682 -0.037500 -0.621067
v 0.085396 -0.037498 -0.540964
v 0.091162 -0.037500 -0.479000
v 0.167410 -0.037500 -0.454714
v 0.283213 -0.037500 -0.457871
v 0.476267 -0.037500 -0.482699
v 0.688761 0.037500 -0.057443
v 0.691214 0.037500 0.047253
v 0.653690 0.037500 0.118118
v 0.653690 0.037500 0.118118
v 0.646976 0.037500 -0.131015
v 0.646976 0.037500 -0.131015
v 0.580854 0.037500 0.112370
v 0.571552 0.037500 -0.129943
v 0.498478 0.037500 0.075883
v 0.488369 0.037500 -0.096451
v 0.437632 0.037500 0.076700
v 0.437632 0.037500 0.076700
v 0.428350 0.037500 -0.094204
v 0.428350 0.037500 -0.094204
v 0.476267 0.037500 -0.482699
v 0.476267 0.037500 -0.482699
v 0.429880 0.037500 -0.284804
v 0.420557 0.037500 0.161967
v 0.476267 0.037500 0.519210
v 0.476267 0.037500 0.519210
v 0.413475 0.037500 -0.167700
v 0.283213 0.037500 -0.457871
v 0.270508 0.037500 0.570770
v 0.167410 0.037500 -0.454714
v 0.147390 0.037500 0.590343
v 0.091162 0.037500 -0.479000
v 0.091162 0.037500 -0.479000
v 0.093760 0.037500 0.431192
v 0.100149 0.037500 0.347787
v 0.067032 0.037500 0.577691
v 0.067032 0.037500 0.577691
v 0.110004 0.037500 -0.692319
v 0.110682 0.037500 -0.621067
v 0.085396 0.037500 -0.540964
v 0.045422 0.037500 -0.731730
v 0.041502 0.037500 0.293275
v 0.062836 0.037500 0.517727
v -0.044739 0.037500 -0.732219
v -0.046061 0.037500 0.277657
v -0.103085 0.037500 -0.690716
v -0.103085 0.037500 -0.690716
v -0.107269 0.037500 0.306998
v -0.107269 0.037500 0.306998
v -0.092619 0.037500 -0.610327
v -0.057922 0.037500 -0.518826
v -0.063978 0.037500 -0.450157
v -0.063978 0.037500 -0.450157
v -0.155231 0.037500 -0.428733
v -0.105862 0.037500 0.380470
v -0.081615 0.037500 0.469678
v -0.093325 0.037500 0.539338
v -0.093325 0.037500 0.539338
v -0.181175 0.037500 0.563721
v -0.294004 0.037500 -0.440804
v -0.310923 0.037500 0.555332
v -0.258821 0.037500 0.046004
v -0.268381 0.037500 -0.047884
v -0.292789 0.037500 0.109572
v -0.292789 0.037500 0.109572
v -0.316286 0.037500 -0.111333
v -0.368948 0.037500 0.102951
v -0.393724 0.037500 -0.104254
v -0.459898 0.037500 0.069828
v -0.477283 0.037500 -0.069248
v -0.525431 0.037500 -0.482699
v -0.525431 0.037500 -0.482699
v -0.531723 0.037500 0.074776
v -0.531723 0.037500 0.074776
v -0.539915 0.037500 -0.069584
v -0.539915 0.037500 -0.069584
v -0.525431 0.037500 0.519210
v -0.525431 0.037500 0.519210
v -0.559612 0.037500 0.162207
v -0.555332 0.037500 0.295900
v -0.555861 0.037500 -0.273459
v -0.562279 0.037500 -0.149041
v 0.688761 -0.037500 -0.057443
v 0.691214 -0.037500 0.047253
v 0.653690 -0.037500 0.118118
v 0.653690 -0.037500 0.118118
v 0.646976 -0.037500 -0.131015
v 0.646976 -0.037500 -0.131015
v 0.580854 -0.037498 0.112370
v 0.571552 -0.037500 -0.129943
v 0.498478 -0.037500 0.075883
v 0.488369 -0.037500 -0.096451
v 0.437632 -0.037500 0.076700
v 0.437632 -0.037500 0.076700
v 0.428350 -0.037500 -0.094204
v 0.428350 -0.037500 -0.094204
v 0.476267 -0.037500 -0.482699
v 0.476267 -0.037500 -0.482699
v 0.429880 -0.037500 -0.284804
v 0.420557 -0.037500 0.161967
v 0.476267 -0.037500 0.519210
v 0.476267 -0.037500 0.519210
v 0.413475 -0.037498 -0.167700
v 0.283213 -0.037500 -0.457871
v 0.270508 -0.037500 0.570770
v 0.167410 -0.037500 -0.454714
v 0.147390 -0.037500 0.590343
v 0.091162 -0.037500 -0.479000
v 0.091162 -0.037500 -0.479000
v 0.093760 -0.037500 0.431192
v 0.100149 -0.037500 0.347787
v 0.067032 -0.037498 0.577691
v 0.067032 -0.037498 0.577691
v 0.110004 -0.037500 -0.692319
v 0.110682 -0.037500 -0.621067
v 0.085396 -0.037498 -0.540964
v 0.045422 -0.037500 -0.731730
v 0.041502 -0.037498 0.293275
v 0.062836 -0.037500 0.517727
v -0.044739 -0.037500 -0.732219
v -0.046061 -0.037500 0.277657
v -0.103085 -0.037500 -0.690716
v -0.103085 -0.037500 -0.690716
v -0.107269 -0.037500 0.306998
v -0.107269 -0.037500 0.306998
v -0.092619 -0.037500 -0.610327
v -0.057922 -0.037498 -0.518826
v -0.063978 -0.037500 -0.450157
v -0.063978 -0.037500 -0.450157
v -0.155231 -0.037500 -0.428733
v -0.105862 -0.037500 0.380470
v -0.081615 -0.037500 0.469678
v -0.093325 -0.037500 0.539338
v -0.093325 -0.037500 0.539338
v -0.181175 -0.037500 0.563721
v -0.294004 -0.037500 -0.440804
v -0.310923 -0.037500 0.555332
v -0.258821 -0.037500 0.046004
v -0.268381 -0.037498 -0.047884
v -0.292789 -0.037500 0.109572
v -0.292789 -0.037500 0.109572
v -0.316286 -0.037500 -0.111333
v -0.368948 -0.037500 0.102951
v -0.393724 -0.037500 -0.104254
v -0.459898 -0.037500 0.069828
v -0.477283 -0.037498 -0.069248
v -0.525431 -0.037500 -0.482699
v -0.525431 -0.037500 -0.482699
v -0.531723 -0.037500 0.074776
v -0.531723 -0.037500 0.074776
v -0.539915 -0.037500 -0.069584
v -0.539915 -0.037500 -0.069584
v -0.525431 -0.037498 0.519210
v -0.525431 -0.037498 0.519210
v -0.559612 -0.037500 0.162207
v -0.555332 -0.037498 0.295900
v -0.555861 -0.037500 -0.273459
v -0.562279 -0.037500 -0.149041
vt 0.500000 0.500000
vt 0.500000 0.500000
vt 0.500000 0.500000
vt 0.500000 0.500000
vt 0.500000 0.500000
vt 0.500000 0.500000
vt 0.500000 0.500000
vt 0.500000 0.500000
vt 0.500000 0.500000
vt 0.500000 0.500000
vt 0.500000 0.500000
vt 0.500000 0.500000
vt 0.500000 0.500000
vt 0.500000 0.500000
vt 0.500000 0.500000
vt 0.500000 0.500000
vt 0.500000 0.500000
vt 0.500000 0.500000
vt 0.500000 0.500000
vt 0.500000 0.500000
vt 0.500000 0.500000
vt 0.500000 0.500000
vt 0.500000 0.500000
vt 0.500000 0.500000
vt 0.500000 0.500000
vt 0.500000 0.500000
vt 0.500000 0.500000
vt 0.500000 0.500000
vt 0.500000 0.500000
vt 0.500000 0.500000
vt 0.500000 0.500000
vt 0.500000 0.500000
vt 0.500000 0.500000
vt 0.500000 0.500000
vt 0.500000 0.500000
vt 0.500000 0.500000
vt 0.500000 0.500000
vt 0.500000 0.500000
vt 0.500000 0.500000
vt 0.500000 0.500000
vt 0.500000 0.500000
vt 0.500000 0.500000
vt 0.500000 0.500000
vt 0.500000 0.500000
vt 0.500000 0.500000
vt 0.500000 0.500000
vt 0.500000 0.500000
vt 0.500000 0.500000
vt 0.500000 0.500000
vt 0.500000 0.500000
vt 0.500000 0.500000
vt 0.500000 0.500000
vt 0.500000 0.500000
vt 0.500000 0.500000
vt 0.500000 0.500000
vt 0.500000 0.500000
vt 0.500000 0.500000
vt 0.500000 0.500000
vt 0.500000 0.500000
vt 0.500000 0.500000
vt 0.500000 0.500000
vt 0.500000 0.500000
vt 0.500000 0.500000
vt 0.500000 0.500000
vt 0.500000 0.500000
vt 0.500000 0.500000
vt 0.500000 0.500000
vt 0.500000 0.500000
vt 0.500000 0.500000
vt 0.500000 0.500000
vt 0.500000 0.500000
vt 0.500000 0.500000
vt 0.500000 0.500000
vt 0.500000 0.500000
vt 0.500000 0.500000
vt 0.500000 0.500000
vt 0.500000 0.500000
vt 0.500000 0.500000
vt 0.500000 0.500000
vt 0.500000 0.500000
vt 0.500000 0.500000
vt 0.500000 0.500000
vt 0.500000 0.500000
vt 0.500000 0.500000
vt 0.500000 0.500000
vt 0.500000 0.500000
vt 0.500000 0.500000
vt 0.500000 0.500000
vt 0.500000 0.500000
vt 0.500000 0.500000
vt 0.500000 0.500000
vt 0.500000 0.500000
vt 0.500000 0.500000
vt 0.500000 0.500000
vt 0.500000 0.500000
vt 0.500000 0.500000
vt 0.500000 0.500000
vt 0.500000 0.500000
vt 0.500000 0.500000
vt 0.500000 0.500000
vt 0.500000 0.500000
vt 0.500000 0.500000
vt 0.500000 0.500000
vt 0.500000 0.500000
vt 0.500000 0.500000
vt 0.500000 0.500000
vt 0.500000 0.500000
vt 0.500000 0.500000
vt 0.500000 0.500000
vt 0.500000 0.500000
vt 0.500000 0.500000
vt 0.500000 0.500000
vt 0.500000 0.500000
vt 0.500000 0.500000
vt 0.500000 0.500000
vt 0.500000 0.500000
vt 0.500000 0.500000
vt 0.500000 0.500000
vt 0.500000 0.500000
vt 0.500000 0.500000
vt 0.500000 0.500000
vt 0.500000 0.500000
vt 0.500000 0.500000
vt 0.500000 0.500000
vt 0.500000 0.500000
vt 0.500000 0.500000
vt 0.500000 0.500000
vt 0.500000 0.500000
vt 0.500000 0.500000
vt 0.500000 0.500000
vt 0.500000 0.500000
vt 0.500000 0.500000
vt 0.500000 0.500000
vt 0.500000 0.500000
vt 0.500000 0.500000
vt 0.500000 0.500000
vt 0.500000 0.500000
vt 0.500000 0.500000
vt 0.500000 0.500000
vt 0.500000 0.500000
vt 0.500000 0.500000
vt 0.500000 0.500000
vt 0.500000 0.500000
vt 0.500000 0.500000
vt 0.500000 0.500000
vt 0.500000 0.500000
vt 0.500000 0.500000
vt 0.500000 0.500000
vt 0.500000 0.500000
vt 0.500000 0.500000
vt 0.500000 0.500000
vt 0.500000 0.500000
vt 0.500000 0.500000
vt 0.500000 0.500000
vt 0.500000 0.500000
vt 0.500000 0.500000
vt 0.500000 0.500000
vt 0.500000 0.500000
vt 0.500000 0.500000
vt 0.500000 0.500000
vt 0.500000 0.500000
vt 0.500000 0.500000
vt 0.500000 0.500000
vt 0.500000 0.500000
vt 0.500000 0.500000
vt 0.500000 0.500000
vt 0.500000 0.500000
vt 0.500000 0.500000
vt 0.500000 0.500000
vt 0.500000 0.500000
vt 0.500000 0.500000
vt 0.500000 0.500000
vt 0.500000 0.500000
vt 0.500000 0.500000
vt 0.500000 0.500000
vt 0.500000 0.500000
vt 0.500000 0.500000
vt 0.500000 0.500000
vt 0.500000 0.500000
vt 0.500000 0.500000
vt 0.500000 0.500000
vt 0.500000 0.500000
vt 0.500000 0.500000
vt 0.500000 0.500000
vt 0.500000 0.500000
vt 0.500000 0.500000
vt 0.500000 0.500000
vt 0.500000 0.500000
vt 0.500000 0.500000
vt 0.500000 0.500000
vt 0.500000 0.500000
vt 0.500000 0.500000
vt 0.500000 0.500000
vt 0.500000 0.500000
vt 0.500000 0.500000
vt 0.500000 0.500000
vt 0.500000 0.500000
vt 0.500000 0.500000
vt 0.500000 0.500000
vt 0.500000 0.500000
vt 0.500000 0.500000
vt 0.500000 0.500000
vt 0.500000 0.500000
vt 0.500000 0.500000
vt 0.500000 0.500000
vt 0.500000 0.500000
vt 0.500000 0.500000
vt 0.500000 0.500000
vt 0.500000 0.500000
vt 0.500000 0.500000
vt 0.500000 0.500000
vt 0.454948 0.248393
vt 0.454922 0.250924
vt 0.449547 0.250503
vt 0.455767 0.214842
vt 0.454734 0.211059
vt 0.457615 0.206912
vt 0.456060 0.254350
vt 0.450764 0.258839
vt 0.455973 0.218010
vt 0.461785 0.207090
vt 0.466005 0.234089
vt 0.468704 0.232803
vt 0.470969 0.236320
vt 0.461703 0.231916
vt 0.449617 0.248007
vt 0.451062 0.219026
vt 0.447325 0.247388
vt 0.438373 0.237153
vt 0.450396 0.210336
vt 0.449304 0.213812
vt 0.447907 0.206801
vt 0.438807 0.217960
vt 0.444026 0.207068
vt 0.470138 0.222653
vt 0.467205 0.226794
vt 0.464423 0.225786
vt 0.453990 0.219423
vt 0.461216 0.228273
vt 0.443672 0.248071
vt 0.438274 0.241970
vt 0.449083 0.217033
vt 0.439183 0.223732
vt 0.448503 0.253964
vt 0.433519 0.226337
vt 0.436373 0.227780
vt 0.435683 0.233741
vt 0.463403 0.234355
vt 0.457607 0.247683
vt 0.448469 0.257101
vt 0.456240 0.257380
vt 0.454029 0.258941
vt 0.470358 0.241441
vt 0.437500 0.208333
vt 0.462131 0.225727
vt 0.429717 0.228328
vt 0.429733 0.232079
vt 0.433184 0.234793
vt 0.438515 0.227528
vt 0.437615 0.233981
vt 0.430962 0.234765
vt 0.431012 0.225901
vt 0.454888 0.208072
vt 0.437500 0.250000
vt 0.450385 0.207731
vt 0.470574 0.232977
vt 0.469877 0.217256
vt 0.469378 0.226307
vt 0.468750 0.250000
vt 0.468750 0.208333
vn 0.0000 -1.0000 0.0000
vn 0.9997 0.0000 -0.0234
vn 0.8838 0.0000 0.4679
vn 0.8695 0.0000 -0.4938
vn -0.0787 0.0000 0.9969
vn -0.0142 0.0000 -0.9999
vn -0.4050 0.0000 0.9143
vn -0.3735 0.0000 -0.9276
vn 0.0134 0.0000 0.9999
vn -0.0374 0.0000 -0.9993
vn 0.9736 0.0000 0.2282
vn 0.9805 0.0000 0.1964
vn 0.9881 0.0000 -0.1541
vn 0.9903 0.0000 0.1387
vn 0.9801 0.0000 -0.1984
vn -0.1276 0.0000 -0.9918
vn 0.2431 0.0000 0.9700
vn -0.0273 0.0000 -0.9996
vn 0.1570 0.0000 0.9876
vn 0.3035 0.0000 -0.9528
vn -0.9971 0.0000 -0.0764
vn -0.1555 0.0000 0.9878
vn 1.0000 0.0000 -0.0095
vn 0.9536 0.0000 0.3010
vn 0.5209 0.0000 -0.8536
vn -0.6808 0.0000 0.7325
vn -0.9417 0.0000 -0.3365
vn -0.9976 0.0000 0.0698
vn 0.9957 0.0000 -0.0927
vn 0.0054 0.0000 -1.0000
vn -0.1756 0.0000 0.9845
vn -0.5796 0.0000 -0.8149
vn 0.4323 0.0000 0.9017
vn -0.9916 0.0000 0.1291
vn -0.9350 0.0000 0.3546
vn -0.9961 0.0000 -0.0878
vn -0.2286 0.0000 -0.9735
vn 0.9650 0.0000 -0.2623
vn 0.9862 0.0000 0.1658
vn 0.2674 0.0000 0.9636
vn 0.9998 0.0000 -0.0192
vn 0.0867 0.0000 -0.9962
vn -0.0645 0.0000 0.9979
vn -0.9949 0.0000 0.1013
vn -0.8820 0.0000 -0.4713
vn -0.7981 0.0000 0.6026
vn 0.0866 0.0000 -0.9962
vn 0.0910 0.0000 0.9958
vn 0.3422 0.0000 -0.9396
vn 0.3864 0.0000 0.9223
vn 0.1781 0.0000 -0.9840
vn -0.0687 0.0000 -0.9976
vn -0.0054 0.0000 1.0000
vn -0.1661 0.0000 0.9861
vn -0.9527 0.0000 -0.3039
vn -0.9995 0.0000 0.0320
vn -0.9912 0.0000 0.1327
vn -0.9896 0.0000 -0.1439
vn -0.9987 0.0000 -0.0515
vn -0.9626 0.0000 0.2709
vn 0.0000 1.0000 0.0000
usemtl BackMat.001
s off
f 205/1/1 204/2/1 203/3/1
f 255/4/1 267/5/1 257/6/1
f 203/3/1 195/7/1 201/8/1
f 252/9/1 268/10/1 255/4/1
f 222/11/1 219/12/1 231/13/1
f 230/14/1 207/15/1 205/1/1
f 251/16/1 218/17/1 215/18/1
f 258/19/1 270/20/1 256/21/1
f 248/22/1 256/21/1 269/23/1
f 247/24/1 243/25/1 244/26/1
f 250/27/1 230/14/1 233/28/1
f 211/29/1 218/17/1 216/30/1
f 248/22/1 242/31/1 254/32/1
f 203/3/1 204/2/1 202/33/1
f 238/34/1 228/35/1 239/36/1
f 230/14/1 212/37/1 223/38/1
f 195/7/1 202/33/1 199/39/1
f 250/27/1 233/28/1 252/9/1
f 251/16/1 230/14/1 250/27/1
f 201/8/1 196/40/1 197/41/1
f 219/12/1 222/11/1 217/42/1
f 259/43/1 248/22/1 269/23/1
f 252/9/1 233/28/1 236/44/1
f 232/45/1 229/46/1 238/34/1
f 227/47/1 238/34/1 229/46/1
f 205/1/1 212/37/1 230/14/1
f 239/36/1 220/48/1 240/49/1
f 240/49/1 220/48/1 218/17/1
f 226/50/1 227/47/1 229/46/1
f 234/51/1 232/45/1 238/34/1
f 251/16/1 207/15/1 230/14/1
f 228/35/1 238/34/1 227/47/1
f 254/32/1 242/31/1 251/16/1
f 261/52/1 257/6/1 267/5/1
f 240/49/1 218/17/1 251/16/1
f 248/22/1 254/32/1 256/21/1
f 269/23/1 256/21/1 270/20/1
f 242/31/1 240/49/1 251/16/1
f 207/15/1 204/2/1 205/1/1
f 211/29/1 216/30/1 209/53/1
f 263/54/1 270/20/1 258/19/1
f 231/13/1 219/12/1 224/55/1
f 195/7/1 203/3/1 202/33/1
f 249/56/1 252/9/1 236/44/1
f 215/18/1 218/17/1 211/29/1
f 249/56/1 236/44/1 243/25/1
f 268/10/1 252/9/1 249/56/1
f 249/56/1 243/25/1 247/24/1
f 201/8/1 195/7/1 196/40/1
f 247/24/1 244/26/1 245/57/1
f 267/5/1 255/4/1 268/10/1
f 217/42/1 212/37/1 213/58/1
f 265/59/1 268/10/1 249/56/1
f 217/42/1 223/38/1 212/37/1
f 239/36/1 228/35/1 220/48/1
f 223/38/1 217/42/1 222/11/1
f 251/16/1 215/18/1 207/15/1
f 7/60/2 8/61/2 67/62/2 66/63/2
f 8/61/3 122/64/3 198/65/3 67/62/3
f 124/66/4 7/60/4 66/63/4 200/67/4
f 9/68/5 10/69/5 69/70/5 68/71/5
f 5/72/6 6/73/6 65/74/6 64/75/6
f 10/69/7 11/76/7 70/77/7 69/70/7
f 4/78/8 5/72/8 64/75/8 63/79/8
f 11/76/9 130/80/9 206/81/9 70/77/9
f 132/82/10 4/78/10 63/79/10 208/83/10
f 134/84/11 1/85/11 60/86/11 210/87/11
f 12/88/12 13/89/12 72/90/12 71/91/12
f 13/89/13 138/92/13 214/93/13 72/90/13
f 1/85/14 2/94/14 61/95/14 60/86/14
f 2/94/15 3/96/15 62/97/15 61/95/15
f 58/98/16 59/99/16 118/100/16 117/101/16
f 14/102/17 15/103/17 74/104/17 73/105/17
f 57/106/18 58/98/18 117/101/18 116/107/18
f 15/103/19 16/108/19 75/109/19 74/104/19
f 145/110/20 57/106/20 116/107/20 221/111/20
f 19/112/21 20/113/21 79/114/21 78/115/21
f 16/108/22 149/116/22 225/117/22 75/109/22
f 53/118/23 54/119/23 113/120/23 112/121/23
f 54/119/24 55/122/24 114/123/24 113/120/24
f 52/124/25 53/118/25 112/121/25 111/125/25
f 20/113/26 21/126/26 80/127/26 79/114/26
f 18/128/27 19/112/27 78/115/27 77/129/27
f 17/130/28 18/128/28 77/129/28 76/131/28
f 55/122/29 56/132/29 115/133/29 114/123/29
f 51/134/30 52/124/30 111/125/30 110/135/30
f 21/126/31 22/136/31 81/137/31 80/127/31
f 159/138/32 51/134/32 110/135/32 235/139/32
f 22/136/33 161/140/33 237/141/33 81/137/33
f 49/142/34 50/143/34 109/144/34 108/145/34
f 48/146/35 49/142/35 108/145/35 107/147/35
f 165/148/36 48/146/36 107/147/36 241/149/36
f 46/150/37 47/151/37 106/152/37 105/153/37
f 24/154/38 25/155/38 84/156/38 83/157/38
f 25/155/39 170/158/39 246/159/39 84/156/39
f 26/160/40 27/161/40 86/162/40 85/163/40
f 23/164/41 24/154/41 83/157/41 82/165/41
f 45/166/42 46/150/42 105/153/42 104/167/42
f 27/161/43 28/168/43 87/169/43 86/162/43
f 36/170/44 37/171/44 96/172/44 95/173/44
f 177/174/45 36/170/45 95/173/45 253/175/45
f 37/171/46 38/176/46 97/177/46 96/172/46
f 34/178/47 35/179/47 94/180/47 93/181/47
f 38/176/48 39/182/48 98/183/48 97/177/48
f 33/184/49 34/178/49 93/181/49 92/185/49
f 39/182/50 40/186/50 99/187/50 98/183/50
f 184/188/51 45/166/51 104/167/51 260/189/51
f 186/190/52 33/184/52 92/185/52 262/191/52
f 40/186/53 188/192/53 264/193/53 99/187/53
f 28/168/54 190/194/54 266/195/54 87/169/54
f 31/196/55 32/197/55 91/198/55 90/199/55
f 30/200/56 31/196/56 90/199/56 89/201/56
f 29/202/57 30/200/57 89/201/57 88/203/57
f 43/204/58 44/205/58 103/206/58 102/207/58
f 42/208/59 43/204/59 102/207/59 101/209/59
f 41/210/60 42/208/60 101/209/60 100/211/60
usemtl FrontMat.001
f 129/212/61 127/213/61 128/214/61
f 179/215/61 181/216/61 191/217/61
f 127/213/61 125/218/61 119/219/61
f 176/220/61 179/215/61 192/221/61
f 146/222/61 155/223/61 143/224/61
f 154/225/61 129/212/61 131/226/61
f 175/227/61 139/228/61 142/229/61
f 182/230/61 180/231/61 194/232/61
f 172/233/61 193/234/61 180/231/61
f 171/235/61 168/236/61 167/237/61
f 174/238/61 157/239/61 154/225/61
f 135/240/61 140/241/61 142/229/61
f 172/233/61 178/242/61 166/243/61
f 127/213/61 126/244/61 128/214/61
f 162/245/61 163/246/61 152/247/61
f 154/225/61 147/248/61 136/249/61
f 119/219/61 123/250/61 126/244/61
f 174/238/61 176/220/61 157/239/61
f 175/227/61 174/238/61 154/225/61
f 125/218/61 121/251/61 120/252/61
f 143/224/61 141/253/61 146/222/61
f 183/254/61 193/234/61 172/233/61
f 176/220/61 160/255/61 157/239/61
f 156/256/61 162/245/61 153/257/61
f 151/258/61 153/257/61 162/245/61
f 129/212/61 154/225/61 136/249/61
f 163/246/61 164/259/61 144/260/61
f 164/259/61 142/229/61 144/260/61
f 150/261/61 153/257/61 151/258/61
f 158/262/61 162/245/61 156/256/61
f 175/227/61 154/225/61 131/226/61
f 152/247/61 151/258/61 162/245/61
f 178/242/61 175/227/61 166/243/61
f 185/263/61 191/217/61 181/216/61
f 164/259/61 175/227/61 142/229/61
f 172/233/61 180/231/61 178/242/61
f 193/234/61 194/232/61 180/231/61
f 166/243/61 175/227/61 164/259/61
f 131/226/61 129/212/61 128/214/61
f 135/240/61 133/264/61 140/241/61
f 187/265/61 182/230/61 194/232/61
f 155/223/61 148/266/61 143/224/61
f 119/219/61 126/244/61 127/213/61
f 173/267/61 160/255/61 176/220/61
f 139/228/61 135/240/61 142/229/61
f 173/267/61 167/237/61 160/255/61
f 192/221/61 173/267/61 176/220/61
f 173/267/61 171/235/61 167/237/61
f 125/218/61 120/252/61 119/219/61
f 171/235/61 169/268/61 168/236/61
f 191/217/61 192/221/61 179/215/61
f 141/253/61 137/269/61 136/249/61
f 189/270/61 173/267/61 192/221/61
f 141/253/61 136/249/61 147/248/61
f 163/246/61 144/260/61 152/247/61
f 147/248/61 146/222/61 141/253/61
f 175/227/61 131/226/61 139/228/61
