# Blender v2.83.1 OBJ File: 'jigsaw-16x12-3-step2.blend'
# www.blender.org
mtllib piece.124.mtl
o path248
v 0.172294 0.037500 0.565769
v 0.097135 0.037500 0.553068
v 0.101075 0.037500 0.493063
v 0.139245 0.037500 0.408287
v 0.147162 0.037500 0.330632
v 0.081432 0.037500 0.286829
v -0.016997 0.037500 0.282957
v -0.086086 0.037500 0.319942
v -0.084776 0.037500 0.393229
v -0.055926 0.037500 0.476384
v -0.063374 0.037500 0.537501
v -0.151106 0.037500 0.553756
v -0.504411 0.037500 0.494076
v -0.476502 0.037500 0.134258
v -0.496119 0.037500 0.046000
v -0.548779 0.037500 0.040778
v -0.617701 0.037500 0.074122
v -0.679609 0.037500 0.081318
v -0.714915 0.037500 0.018564
v -0.718761 0.037500 -0.074285
v -0.689974 0.037500 -0.136464
v -0.631558 0.037500 -0.127957
v -0.563233 0.037500 -0.091739
v -0.508895 0.037500 -0.091528
v -0.486031 0.037500 -0.171395
v -0.504411 0.037500 -0.507834
v -0.141489 0.037500 -0.549558
v -0.054246 0.037500 -0.527793
v -0.052347 0.037500 -0.464565
v -0.089094 0.037500 -0.382472
v -0.096844 0.037500 -0.312716
v -0.029772 0.037500 -0.280406
v 0.070678 0.037500 -0.286300
v 0.141249 0.037500 -0.325059
v 0.139627 0.037500 -0.388579
v 0.107296 0.037500 -0.457702
v 0.106683 0.037500 -0.510504
v 0.181298 0.037500 -0.531219
v 0.497287 0.037500 -0.507834
v 0.476161 0.037500 -0.301352
v 0.476919 0.037500 -0.178576
v 0.507621 0.037500 -0.100172
v 0.577974 0.037500 -0.099864
v 0.662795 0.037500 -0.134509
v 0.728183 0.037500 -0.141742
v 0.747925 0.037500 -0.079426
v 0.726568 0.037500 0.013680
v 0.676351 0.037500 0.078599
v 0.610298 0.037500 0.076477
v 0.544607 0.037500 0.048919
v 0.496267 0.037500 0.057651
v 0.477205 0.037500 0.145071
v 0.497287 0.037500 0.494076
v 0.172294 -0.037500 0.565769
v 0.097135 -0.037500 0.553068
v 0.101075 -0.037500 0.493063
v 0.139245 -0.037500 0.408287
v 0.147162 -0.037500 0.330632
v 0.081432 -0.037500 0.286829
v -0.016997 -0.037500 0.282957
v -0.086086 -0.037500 0.319942
v -0.084776 -0.037500 0.393229
v -0.055926 -0.037500 0.476384
v -0.063374 -0.037500 0.537501
v -0.151106 -0.037500 0.553756
v -0.504411 -0.037500 0.494076
v -0.476502 -0.037500 0.134258
v -0.496119 -0.037500 0.046000
v -0.548779 -0.037500 0.040778
v -0.617701 -0.037500 0.074122
v -0.679609 -0.037500 0.081318
v -0.714915 -0.037500 0.018564
v -0.718761 -0.037500 -0.074285
v -0.689974 -0.037500 -0.136464
v -0.631558 -0.037498 -0.127957
v -0.563233 -0.037500 -0.091739
v -0.508895 -0.037500 -0.091528
v -0.486031 -0.037500 -0.171395
v -0.504411 -0.037500 -0.507834
v -0.141489 -0.037500 -0.549558
v -0.054246 -0.037500 -0.527793
v -0.052347 -0.037500 -0.464565
v -0.089094 -0.037500 -0.382472
v -0.096844 -0.037500 -0.312716
v -0.029772 -0.037500 -0.280406
v 0.070678 -0.037500 -0.286300
v 0.141249 -0.037500 -0.325059
v 0.139627 -0.037500 -0.388579
v 0.107296 -0.037500 -0.457702
v 0.106683 -0.037500 -0.510504
v 0.181298 -0.037500 -0.531219
v 0.497287 -0.037500 -0.507834
v 0.476161 -0.037500 -0.301352
v 0.476919 -0.037498 -0.178576
v 0.507621 -0.037500 -0.100172
v 0.577974 -0.037500 -0.099864
v 0.662795 -0.037498 -0.134509
v 0.728183 -0.037500 -0.141742
v 0.747925 -0.037500 -0.079426
v 0.726568 -0.037500 0.013680
v 0.676351 -0.037500 0.078599
v 0.610298 -0.037500 0.076477
v 0.544607 -0.037500 0.048919
v 0.496267 -0.037500 0.057651
v 0.477205 -0.037500 0.145071
v 0.497287 -0.037500 0.494076
v 0.728183 0.037500 -0.141742
v 0.728183 0.037500 -0.141742
v 0.747925 0.037500 -0.079426
v 0.726568 0.037500 0.013680
v 0.662795 0.037500 -0.134509
v 0.676351 0.037500 0.078599
v 0.610298 0.037500 0.076477
v 0.577974 0.037500 -0.099864
v 0.544607 0.037500 0.048919
v 0.507621 0.037500 -0.100172
v 0.507621 0.037500 -0.100172
v 0.496267 0.037500 0.057651
v 0.496267 0.037500 0.057651
v 0.476919 0.037500 -0.178576
v 0.477205 0.037500 0.145071
v 0.497287 0.037500 -0.507834
v 0.497287 0.037500 -0.507834
v 0.476161 0.037500 -0.301352
v 0.497287 0.037500 0.494076
v 0.497287 0.037500 0.494076
v 0.181298 0.037500 -0.531219
v 0.172294 0.037500 0.565769
v 0.106683 0.037500 -0.510504
v 0.106683 0.037500 -0.510504
v 0.141249 0.037500 -0.325059
v 0.141249 0.037500 -0.325059
v 0.139627 0.037500 -0.388579
v 0.139245 0.037500 0.408287
v 0.147162 0.037500 0.330632
v 0.147162 0.037500 0.330632
v 0.097135 0.037500 0.553068
v 0.097135 0.037500 0.553068
v 0.081432 0.037500 0.286829
v 0.070678 0.037500 -0.286300
v 0.107296 0.037500 -0.457702
v 0.101075 0.037500 0.493063
v -0.016997 0.037500 0.282957
v -0.029772 0.037500 -0.280406
v -0.086086 0.037500 0.319942
v -0.086086 0.037500 0.319942
v -0.096844 0.037500 -0.312716
v -0.096844 0.037500 -0.312716
v -0.054246 0.037500 -0.527793
v -0.054246 0.037500 -0.527793
v -0.052347 0.037500 -0.464565
v -0.089094 0.037500 -0.382472
v -0.141489 0.037500 -0.549558
v -0.084776 0.037500 0.393229
v -0.055926 0.037500 0.476384
v -0.063374 0.037500 0.537501
v -0.063374 0.037500 0.537501
v -0.151106 0.037500 0.553756
v -0.504411 0.037500 -0.507834
v -0.504411 0.037500 -0.507834
v -0.486031 0.037500 -0.171395
v -0.476502 0.037500 0.134258
v -0.496119 0.037500 0.046000
v -0.496119 0.037500 0.046000
v -0.504411 0.037500 0.494076
v -0.504411 0.037500 0.494076
v -0.508895 0.037500 -0.091528
v -0.508895 0.037500 -0.091528
v -0.548779 0.037500 0.040778
v -0.563233 0.037500 -0.091739
v -0.617701 0.037500 0.074122
v -0.631558 0.037500 -0.127957
v -0.679609 0.037500 0.081318
v -0.679609 0.037500 0.081318
v -0.689974 0.037500 -0.136464
v -0.689974 0.037500 -0.136464
v -0.714915 0.037500 0.018564
v -0.718761 0.037500 -0.074285
v 0.728183 -0.037500 -0.141742
v 0.728183 -0.037500 -0.141742
v 0.747925 -0.037500 -0.079426
v 0.726568 -0.037500 0.013680
v 0.662795 -0.037498 -0.134509
v 0.676351 -0.037500 0.078599
v 0.610298 -0.037500 0.076477
v 0.577974 -0.037500 -0.099864
v 0.544607 -0.037500 0.048919
v 0.507621 -0.037500 -0.100172
v 0.507621 -0.037500 -0.100172
v 0.496267 -0.037500 0.057651
v 0.496267 -0.037500 0.057651
v 0.476919 -0.037498 -0.178576
v 0.477205 -0.037500 0.145071
v 0.497287 -0.037500 -0.507834
v 0.497287 -0.037500 -0.507834
v 0.476161 -0.037500 -0.301352
v 0.497287 -0.037500 0.494076
v 0.497287 -0.037500 0.494076
v 0.181298 -0.037500 -0.531219
v 0.172294 -0.037500 0.565769
v 0.106683 -0.037500 -0.510504
v 0.106683 -0.037500 -0.510504
v 0.141249 -0.037500 -0.325059
v 0.141249 -0.037500 -0.325059
v 0.139627 -0.037500 -0.388579
v 0.139245 -0.037500 0.408287
v 0.147162 -0.037500 0.330632
v 0.147162 -0.037500 0.330632
v 0.097135 -0.037500 0.553068
v 0.097135 -0.037500 0.553068
v 0.081432 -0.037500 0.286829
v 0.070678 -0.037500 -0.286300
v 0.107296 -0.037500 -0.457702
v 0.101075 -0.037500 0.493063
v -0.016997 -0.037500 0.282957
v -0.029772 -0.037500 -0.280406
v -0.086086 -0.037500 0.319942
v -0.086086 -0.037500 0.319942
v -0.096844 -0.037500 -0.312716
v -0.096844 -0.037500 -0.312716
v -0.054246 -0.037500 -0.527793
v -0.054246 -0.037500 -0.527793
v -0.052347 -0.037500 -0.464565
v -0.089094 -0.037500 -0.382472
v -0.141489 -0.037500 -0.549558
v -0.084776 -0.037500 0.393229
v -0.055926 -0.037500 0.476384
v -0.063374 -0.037500 0.537501
v -0.063374 -0.037500 0.537501
v -0.151106 -0.037500 0.553756
v -0.504411 -0.037500 -0.507834
v -0.504411 -0.037500 -0.507834
v -0.486031 -0.037500 -0.171395
v -0.476502 -0.037500 0.134258
v -0.496119 -0.037500 0.046000
v -0.496119 -0.037500 0.046000
v -0.504411 -0.037500 0.494076
v -0.504411 -0.037500 0.494076
v -0.508895 -0.037500 -0.091528
v -0.508895 -0.037500 -0.091528
v -0.548779 -0.037500 0.040778
v -0.563233 -0.037500 -0.091739
v -0.617701 -0.037500 0.074122
v -0.631558 -0.037498 -0.127957
v -0.679609 -0.037500 0.081318
v -0.679609 -0.037500 0.081318
v -0.689974 -0.037500 -0.136464
v -0.689974 -0.037500 -0.136464
v -0.714915 -0.037500 0.018564
v -0.718761 -0.037500 -0.074285
vt 0.500000 0.500000
vt 0.500000 0.500000
vt 0.500000 0.500000
vt 0.500000 0.500000
vt 0.500000 0.500000
vt 0.500000 0.500000
vt 0.500000 0.500000
vt 0.500000 0.500000
vt 0.500000 0.500000
vt 0.500000 0.500000
vt 0.500000 0.500000
vt 0.500000 0.500000
vt 0.500000 0.500000
vt 0.500000 0.500000
vt 0.500000 0.500000
vt 0.500000 0.500000
vt 0.500000 0.500000
vt 0.500000 0.500000
vt 0.500000 0.500000
vt 0.500000 0.500000
vt 0.500000 0.500000
vt 0.500000 0.500000
vt 0.500000 0.500000
vt 0.500000 0.500000
vt 0.500000 0.500000
vt 0.500000 0.500000
vt 0.500000 0.500000
vt 0.500000 0.500000
vt 0.500000 0.500000
vt 0.500000 0.500000
vt 0.500000 0.500000
vt 0.500000 0.500000
vt 0.500000 0.500000
vt 0.500000 0.500000
vt 0.500000 0.500000
vt 0.500000 0.500000
vt 0.500000 0.500000
vt 0.500000 0.500000
vt 0.500000 0.500000
vt 0.500000 0.500000
vt 0.500000 0.500000
vt 0.500000 0.500000
vt 0.500000 0.500000
vt 0.500000 0.500000
vt 0.500000 0.500000
vt 0.500000 0.500000
vt 0.500000 0.500000
vt 0.500000 0.500000
vt 0.500000 0.500000
vt 0.500000 0.500000
vt 0.500000 0.500000
vt 0.500000 0.500000
vt 0.500000 0.500000
vt 0.500000 0.500000
vt 0.500000 0.500000
vt 0.500000 0.500000
vt 0.500000 0.500000
vt 0.500000 0.500000
vt 0.500000 0.500000
vt 0.500000 0.500000
vt 0.500000 0.500000
vt 0.500000 0.500000
vt 0.500000 0.500000
vt 0.500000 0.500000
vt 0.500000 0.500000
vt 0.500000 0.500000
vt 0.500000 0.500000
vt 0.500000 0.500000
vt 0.500000 0.500000
vt 0.500000 0.500000
vt 0.500000 0.500000
vt 0.500000 0.500000
vt 0.500000 0.500000
vt 0.500000 0.500000
vt 0.500000 0.500000
vt 0.500000 0.500000
vt 0.500000 0.500000
vt 0.500000 0.500000
vt 0.500000 0.500000
vt 0.500000 0.500000
vt 0.500000 0.500000
vt 0.500000 0.500000
vt 0.500000 0.500000
vt 0.500000 0.500000
vt 0.500000 0.500000
vt 0.500000 0.500000
vt 0.500000 0.500000
vt 0.500000 0.500000
vt 0.500000 0.500000
vt 0.500000 0.500000
vt 0.500000 0.500000
vt 0.500000 0.500000
vt 0.500000 0.500000
vt 0.500000 0.500000
vt 0.500000 0.500000
vt 0.500000 0.500000
vt 0.500000 0.500000
vt 0.500000 0.500000
vt 0.500000 0.500000
vt 0.500000 0.500000
vt 0.500000 0.500000
vt 0.500000 0.500000
vt 0.500000 0.500000
vt 0.500000 0.500000
vt 0.500000 0.500000
vt 0.500000 0.500000
vt 0.500000 0.500000
vt 0.500000 0.500000
vt 0.500000 0.500000
vt 0.500000 0.500000
vt 0.500000 0.500000
vt 0.500000 0.500000
vt 0.500000 0.500000
vt 0.500000 0.500000
vt 0.500000 0.500000
vt 0.500000 0.500000
vt 0.500000 0.500000
vt 0.500000 0.500000
vt 0.500000 0.500000
vt 0.500000 0.500000
vt 0.500000 0.500000
vt 0.500000 0.500000
vt 0.500000 0.500000
vt 0.500000 0.500000
vt 0.500000 0.500000
vt 0.500000 0.500000
vt 0.500000 0.500000
vt 0.500000 0.500000
vt 0.500000 0.500000
vt 0.500000 0.500000
vt 0.500000 0.500000
vt 0.500000 0.500000
vt 0.500000 0.500000
vt 0.500000 0.500000
vt 0.500000 0.500000
vt 0.500000 0.500000
vt 0.500000 0.500000
vt 0.500000 0.500000
vt 0.500000 0.500000
vt 0.500000 0.500000
vt 0.500000 0.500000
vt 0.500000 0.500000
vt 0.500000 0.500000
vt 0.500000 0.500000
vt 0.500000 0.500000
vt 0.500000 0.500000
vt 0.500000 0.500000
vt 0.500000 0.500000
vt 0.500000 0.500000
vt 0.500000 0.500000
vt 0.500000 0.500000
vt 0.500000 0.500000
vt 0.500000 0.500000
vt 0.500000 0.500000
vt 0.500000 0.500000
vt 0.500000 0.500000
vt 0.500000 0.500000
vt 0.500000 0.500000
vt 0.500000 0.500000
vt 0.500000 0.500000
vt 0.500000 0.500000
vt 0.500000 0.500000
vt 0.500000 0.500000
vt 0.500000 0.500000
vt 0.500000 0.500000
vt 0.500000 0.500000
vt 0.500000 0.500000
vt 0.500000 0.500000
vt 0.500000 0.500000
vt 0.500000 0.500000
vt 0.500000 0.500000
vt 0.500000 0.500000
vt 0.500000 0.500000
vt 0.500000 0.500000
vt 0.500000 0.500000
vt 0.500000 0.500000
vt 0.500000 0.500000
vt 0.500000 0.500000
vt 0.500000 0.500000
vt 0.500000 0.500000
vt 0.500000 0.500000
vt 0.500000 0.500000
vt 0.500000 0.500000
vt 0.500000 0.500000
vt 0.500000 0.500000
vt 0.500000 0.500000
vt 0.500000 0.500000
vt 0.500000 0.500000
vt 0.500000 0.500000
vt 0.500000 0.500000
vt 0.500000 0.500000
vt 0.500000 0.500000
vt 0.500000 0.500000
vt 0.500000 0.500000
vt 0.500000 0.500000
vt 0.500000 0.500000
vt 0.500000 0.500000
vt 0.750000 0.333333
vt 0.743709 0.368244
vt 0.739137 0.368135
vt 0.713456 0.328440
vt 0.721723 0.329642
vt 0.713469 0.332960
vt 0.720337 0.315821
vt 0.723803 0.323909
vt 0.749937 0.383705
vt 0.753680 0.383377
vt 0.754472 0.389630
vt 0.684897 0.363526
vt 0.687500 0.333333
vt 0.695320 0.367884
vt 0.698902 0.387047
vt 0.701320 0.381176
vt 0.708039 0.414972
vt 0.722775 0.416582
vt 0.744648 0.386880
vt 0.750000 0.416667
vt 0.736830 0.373882
vt 0.737072 0.382071
vt 0.710788 0.430436
vt 0.712949 0.423379
vt 0.720032 0.435741
vt 0.700381 0.414909
vt 0.687500 0.416667
vt 0.686041 0.390379
vt 0.722049 0.334023
vt 0.701687 0.372820
vt 0.699672 0.367240
vt 0.708487 0.334862
vt 0.728229 0.414996
vt 0.739804 0.387539
vt 0.714545 0.315501
vt 0.710666 0.317896
vt 0.711197 0.322756
vt 0.723950 0.426068
vt 0.724082 0.431563
vt 0.690199 0.370941
vt 0.694939 0.386912
vt 0.710337 0.435875
vt 0.714224 0.437518
vt 0.727554 0.335655
vt 0.722231 0.420603
vt 0.712930 0.417526
vt 0.690627 0.384223
vt 0.687333 0.384172
vt 0.753723 0.362726
vt 0.752709 0.370024
vt 0.748896 0.370644
vt 0.686255 0.370784
vt 0.724252 0.318758
vn 0.0000 -1.0000 0.0000
vn -0.0001 -1.0000 -0.0000
vn -0.0000 -1.0000 -0.0001
vn 0.9533 0.0000 -0.3020
vn 0.9747 0.0000 0.2236
vn -0.1099 0.0000 -0.9939
vn 0.7910 0.0000 0.6118
vn -0.0321 0.0000 0.9995
vn -0.3781 0.0000 -0.9258
vn -0.3869 0.0000 0.9221
vn 0.0044 0.0000 -1.0000
vn 0.1778 0.0000 0.9841
vn 0.9312 0.0000 -0.3646
vn 0.9770 0.0000 0.2130
vn 0.9948 0.0000 0.1018
vn 0.9983 0.0000 -0.0574
vn 1.0000 0.0000 -0.0062
vn 0.0738 0.0000 -0.9973
vn 0.2154 0.0000 0.9765
vn -0.2675 0.0000 -0.9636
vn -0.9997 0.0000 0.0255
vn -0.9948 0.0000 -0.1014
vn -0.1666 0.0000 0.9860
vn -0.5545 0.0000 0.8322
vn -0.4814 0.0000 -0.8765
vn -0.9999 0.0000 0.0116
vn -0.9058 0.0000 0.4237
vn -0.9118 0.0000 -0.4105
vn -0.9979 0.0000 -0.0655
vn -0.0393 0.0000 0.9992
vn -0.0586 0.0000 -0.9983
vn 0.4719 0.0000 0.8816
vn 0.4340 0.0000 -0.9009
vn 0.9995 0.0000 -0.0300
vn 0.9127 0.0000 0.4086
vn 0.2421 0.0000 -0.9703
vn 0.9448 0.0000 -0.3278
vn 0.9927 0.0000 0.1210
vn 0.1822 0.0000 0.9833
vn 0.9998 0.0000 -0.0179
vn 0.9939 0.0000 0.1104
vn -0.1142 0.0000 -0.9935
vn -0.9985 0.0000 0.0546
vn -0.9762 0.0000 0.2170
vn -0.9970 0.0000 -0.0773
vn -0.9614 0.0000 -0.2752
vn -0.0987 0.0000 0.9951
vn 0.0039 0.0000 -1.0000
vn 0.4355 0.0000 0.9002
vn 0.4684 0.0000 -0.8835
vn 0.1155 0.0000 0.9933
vn 0.1441 0.0000 -0.9896
vn -0.8715 0.0000 0.4903
vn -0.9075 0.0000 -0.4201
vn -0.9991 0.0000 0.0414
vn 0.0000 1.0000 -0.0000
usemtl BackMat.001
s off
f 237/1/1 217/2/1 226/3/1
f 242/4/1 239/5/1 241/6/1
f 249/7/1 242/4/1 243/8/1
f 214/9/1 200/10/1 209/11/1
f 225/12/1 224/13/1 231/14/1
f 203/15/1 192/16/1 212/17/1
f 212/17/1 192/16/1 190/18/1
f 206/19/1 197/20/1 200/10/1
f 215/21/1 212/17/1 211/22/1
f 183/23/1 182/24/1 186/25/1
f 196/26/1 199/27/1 194/28/1
f 235/29/1 219/30/1 216/31/1
f 233/32/1 219/30/1 239/5/1
f 197/20/1 207/33/1 193/34/1
f 250/35/1 242/4/1 249/7/1
f 247/36/1 244/37/1 250/35/1
f 192/16/1 203/15/1 196/26/1
f 185/38/1 182/24/1 184/39/1
f 241/6/1 239/5/1 235/29/1
f 224/13/1 225/12/1 223/40/1
f 196/26/1 205/41/1 199/27/1
f 190/18/1 193/34/1 211/22/1
f 206/19/1 200/10/1 214/9/1
f 212/17/1 190/18/1 211/22/1
f 179/42/1 181/43/1 183/23/1
f 234/44/1 217/2/1 237/1/1
f 231/14/1 219/30/1 233/32/1
f 190/18/1 188/45/1 187/46/1
f 213/47/1 199/27/1 205/41/1
f 207/33/1 197/20/1 206/19/1
f 216/31/1 212/17/1 215/21/1
f 192/16/2 188/45/2 190/18/2
f 239/5/1 219/30/1 235/29/1
f 187/46/1 186/25/1 185/38/1
f 234/44/1 215/21/1 217/2/1
f 186/25/1 187/46/1 188/45/1
f 211/22/1 193/34/1 207/33/1
f 205/41/1 196/26/1 203/15/1
f 224/13/1 219/30/1 231/14/1
f 201/48/1 199/27/1 213/47/1
f 230/49/1 227/50/1 228/51/1
f 185/38/1 186/25/1 182/24/1
f 221/52/1 223/40/1 225/12/1
f 243/8/1 242/4/1 241/6/1
f 226/3/1 227/50/1 230/49/1
f 237/1/1 226/3/1 230/49/1
f 242/4/3 250/35/3 244/37/3
f 235/29/1 215/21/1 234/44/1
f 181/43/1 182/24/1 183/23/1
f 245/53/1 249/7/1 243/8/1
f 235/29/1 216/31/1 215/21/1
f 108/54/4 46/55/4 99/56/4 180/57/4
f 46/55/5 47/58/5 100/59/5 99/56/5
f 44/60/6 45/61/6 98/62/6 97/63/6
f 47/58/7 48/64/7 101/65/7 100/59/7
f 48/64/8 49/66/8 102/67/8 101/65/8
f 43/68/9 44/60/9 97/63/9 96/69/9
f 49/66/10 50/70/10 103/71/10 102/67/10
f 117/72/11 43/68/11 96/69/11 189/73/11
f 50/70/12 119/74/12 191/75/12 103/71/12
f 41/76/13 42/77/13 95/78/13 94/79/13
f 51/80/14 52/81/14 105/82/14 104/83/14
f 123/84/15 40/85/15 93/86/15 195/87/15
f 52/81/16 126/88/16 198/89/16 105/82/16
f 40/85/17 41/76/17 94/79/17 93/86/17
f 38/90/18 39/91/18 92/92/18 91/93/18
f 53/94/19 1/95/19 54/96/19 106/97/19
f 130/98/20 38/90/20 91/93/20 202/99/20
f 132/100/21 35/101/21 88/102/21 204/103/21
f 4/104/22 136/105/22 208/106/22 57/107/22
f 1/95/23 138/108/23 210/109/23 54/96/23
f 5/110/24 6/111/24 59/112/24 58/113/24
f 33/114/25 34/115/25 87/116/25 86/117/25
f 36/118/26 37/119/26 90/120/26 89/121/26
f 35/101/27 36/118/27 89/121/27 88/102/27
f 3/122/28 4/104/28 57/107/28 56/123/28
f 2/124/29 3/122/29 56/123/29 55/125/29
f 6/111/30 7/126/30 60/127/30 59/112/30
f 32/128/31 33/114/31 86/117/31 85/129/31
f 7/126/32 146/130/32 218/131/32 60/127/32
f 148/132/33 32/128/33 85/129/33 220/133/33
f 150/134/34 29/135/34 82/136/34 222/137/34
f 29/135/35 30/138/35 83/139/35 82/136/35
f 27/140/36 28/141/36 81/142/36 80/143/36
f 9/144/37 10/145/37 63/146/37 62/147/37
f 10/145/38 157/148/38 229/149/38 63/146/38
f 11/150/39 12/151/39 65/152/39 64/153/39
f 8/154/40 9/144/40 62/147/40 61/155/40
f 30/138/41 31/156/41 84/157/41 83/139/41
f 160/158/42 27/140/42 80/143/42 232/159/42
f 25/160/43 26/161/43 79/162/43 78/163/43
f 14/164/44 164/165/44 236/166/44 67/167/44
f 166/168/45 14/164/45 67/167/45 238/169/45
f 12/151/23 13/170/23 66/171/23 65/152/23
f 168/172/46 25/160/46 78/163/46 240/173/46
f 15/174/47 16/175/47 69/176/47 68/177/47
f 23/178/48 24/179/48 77/180/48 76/181/48
f 16/175/49 17/182/49 70/183/49 69/176/49
f 22/184/50 23/178/50 76/181/50 75/185/50
f 17/182/51 174/186/51 246/187/51 70/183/51
f 176/188/52 22/184/52 75/185/52 248/189/52
f 18/190/53 19/191/53 72/192/53 71/193/53
f 20/194/54 21/195/54 74/196/54 73/197/54
f 19/191/55 20/194/55 73/197/55 72/192/55
usemtl FrontMat.001
f 165/198/56 154/199/56 145/200/56
f 170/201/56 169/202/56 167/203/56
f 177/204/56 171/205/56 170/201/56
f 142/206/56 137/207/56 128/208/56
f 153/209/56 159/210/56 152/211/56
f 131/212/56 140/213/56 120/214/56
f 140/213/56 118/215/56 120/214/56
f 134/216/56 128/208/56 125/217/56
f 143/218/56 139/219/56 140/213/56
f 111/220/56 114/221/56 110/222/56
f 124/223/56 122/224/56 127/225/56
f 163/226/56 144/227/56 147/228/56
f 161/229/56 167/203/56 147/228/56
f 125/217/56 121/230/56 135/231/56
f 178/232/56 177/204/56 170/201/56
f 175/233/56 178/232/56 172/234/56
f 120/214/56 124/223/56 131/212/56
f 113/235/56 112/236/56 110/222/56
f 169/202/56 163/226/56 167/203/56
f 152/211/56 151/237/56 153/209/56
f 124/223/56 127/225/56 133/238/56
f 118/215/56 139/219/56 121/230/56
f 134/216/56 142/206/56 128/208/56
f 140/213/56 139/219/56 118/215/56
f 107/239/56 111/220/56 109/240/56
f 162/241/56 165/198/56 145/200/56
f 159/210/56 161/229/56 147/228/56
f 118/215/56 115/242/56 116/243/56
f 141/244/56 133/238/56 127/225/56
f 135/231/56 134/216/56 125/217/56
f 144/227/56 143/218/56 140/213/56
f 120/214/56 118/215/56 116/243/56
f 167/203/56 163/226/56 147/228/56
f 115/242/56 113/235/56 114/221/56
f 162/241/56 145/200/56 143/218/56
f 114/221/56 116/243/56 115/242/56
f 139/219/56 135/231/56 121/230/56
f 133/238/56 131/212/56 124/223/56
f 152/211/56 159/210/56 147/228/56
f 129/245/56 141/244/56 127/225/56
f 158/246/56 156/247/56 155/248/56
f 113/235/56 110/222/56 114/221/56
f 149/249/56 153/209/56 151/237/56
f 171/205/56 169/202/56 170/201/56
f 154/199/56 158/246/56 155/248/56
f 165/198/56 158/246/56 154/199/56
f 170/201/56 172/234/56 178/232/56
f 163/226/56 162/241/56 143/218/56
f 109/240/56 111/220/56 110/222/56
f 173/250/56 171/205/56 177/204/56
f 163/226/56 143/218/56 144/227/56
