# Blender v2.83.1 OBJ File: 'jigsaw-16x12-3-step2.blend'
# www.blender.org
mtllib piece.160.mtl
o path320
v 0.533339 0.037500 -0.302671
v 0.541380 0.037500 -0.168947
v 0.517436 0.037500 -0.080434
v 0.448776 0.037500 -0.072851
v 0.358123 0.037500 -0.101881
v 0.277009 0.037500 -0.103197
v 0.231833 0.037500 -0.033552
v 0.228423 0.037500 0.065900
v 0.267472 0.037500 0.132925
v 0.344340 0.037500 0.126310
v 0.433091 0.037500 0.088931
v 0.502461 0.037500 0.084682
v 0.529704 0.037500 0.158114
v 0.526159 0.037500 0.276327
v 0.498260 0.037500 0.476662
v 0.127873 0.037500 0.406555
v 0.035934 0.037500 0.422107
v 0.028428 0.037500 0.487196
v 0.060384 0.037500 0.578795
v 0.066247 0.037500 0.664277
v 0.001474 0.037500 0.716123
v -0.094418 0.037500 0.727244
v -0.160905 0.037500 0.695658
v -0.157647 0.037500 0.624897
v -0.125078 0.037500 0.540558
v -0.123821 0.037500 0.473751
v -0.196092 0.037500 0.447230
v -0.310483 0.037500 0.450331
v -0.503438 0.037500 0.476662
v -0.524848 0.037500 0.275540
v -0.525888 0.037500 0.156337
v -0.500035 0.037500 0.081099
v -0.437368 0.037500 0.082528
v -0.355945 0.037500 0.116356
v -0.280813 0.037500 0.119070
v -0.233761 0.037500 0.048172
v -0.223538 0.037500 -0.054772
v -0.255639 0.037500 -0.127182
v -0.329256 0.037500 -0.127501
v -0.418403 0.037500 -0.098289
v -0.490794 0.037500 -0.103136
v -0.522629 0.037500 -0.186085
v -0.524027 0.037500 -0.313070
v -0.503438 0.037500 -0.525248
v 0.498260 0.037500 -0.525248
v 0.533339 -0.037500 -0.302671
v 0.541380 -0.037500 -0.168947
v 0.517436 -0.037500 -0.080434
v 0.448776 -0.037500 -0.072851
v 0.358123 -0.037500 -0.101881
v 0.277009 -0.037500 -0.103197
v 0.231833 -0.037500 -0.033552
v 0.228423 -0.037498 0.065900
v 0.267472 -0.037500 0.132925
v 0.344340 -0.037500 0.126310
v 0.433091 -0.037500 0.088931
v 0.502461 -0.037500 0.084682
v 0.529704 -0.037500 0.158114
v 0.526159 -0.037500 0.276327
v 0.498260 -0.037498 0.476662
v 0.127873 -0.037500 0.406555
v 0.035934 -0.037500 0.422107
v 0.028428 -0.037500 0.487196
v 0.060384 -0.037500 0.578795
v 0.066247 -0.037500 0.664277
v 0.001474 -0.037500 0.716123
v -0.094418 -0.037500 0.727244
v -0.160905 -0.037498 0.695658
v -0.157647 -0.037500 0.624897
v -0.125078 -0.037498 0.540558
v -0.123821 -0.037500 0.473751
v -0.196092 -0.037498 0.447230
v -0.310483 -0.037498 0.450331
v -0.503438 -0.037500 0.476662
v -0.524848 -0.037500 0.275540
v -0.525888 -0.037500 0.156337
v -0.500035 -0.037500 0.081099
v -0.437368 -0.037500 0.082528
v -0.355945 -0.037498 0.116356
v -0.280813 -0.037500 0.119070
v -0.233761 -0.037500 0.048172
v -0.223538 -0.037500 -0.054772
v -0.255639 -0.037500 -0.127182
v -0.329256 -0.037500 -0.127501
v -0.418403 -0.037500 -0.098289
v -0.490794 -0.037500 -0.103136
v -0.522629 -0.037500 -0.186085
v -0.524027 -0.037500 -0.313070
v -0.503438 -0.037500 -0.525248
v 0.498260 -0.037500 -0.525248
v -0.524848 0.037500 0.275540
v -0.525888 0.037500 0.156337
v -0.500035 0.037500 0.081099
v -0.500035 0.037500 0.081099
v -0.522629 0.037500 -0.186085
v -0.524027 0.037500 -0.313070
v -0.490794 0.037500 -0.103136
v -0.490794 0.037500 -0.103136
v -0.503438 0.037500 0.476662
v -0.503438 0.037500 0.476662
v -0.503438 0.037500 -0.525248
v -0.503438 0.037500 -0.525248
v 0.498260 0.037500 -0.525248
v 0.498260 0.037500 -0.525248
v -0.437368 0.037500 0.082528
v -0.418403 0.037500 -0.098289
v -0.355945 0.037500 0.116356
v -0.329256 0.037500 -0.127501
v -0.310483 0.037500 0.450331
v -0.280813 0.037500 0.119070
v -0.255639 0.037500 -0.127182
v -0.255639 0.037500 -0.127182
v -0.196092 0.037500 0.447230
v -0.233761 0.037500 0.048172
v -0.223538 0.037500 -0.054772
v -0.123821 0.037500 0.473751
v -0.123821 0.037500 0.473751
v -0.094418 0.037500 0.727244
v -0.160905 0.037500 0.695658
v -0.160905 0.037500 0.695658
v -0.157647 0.037500 0.624897
v -0.125078 0.037500 0.540558
v 0.001474 0.037500 0.716123
v 0.066247 0.037500 0.664277
v 0.035934 0.037500 0.422107
v 0.035934 0.037500 0.422107
v 0.028428 0.037500 0.487196
v 0.060384 0.037500 0.578795
v 0.127873 0.037500 0.406555
v 0.231833 0.037500 -0.033552
v 0.228423 0.037500 0.065900
v 0.267472 0.037500 0.132925
v 0.267472 0.037500 0.132925
v 0.277009 0.037500 -0.103197
v 0.344340 0.037500 0.126310
v 0.358123 0.037500 -0.101881
v 0.433091 0.037500 0.088931
v 0.448776 0.037500 -0.072851
v 0.498260 0.037500 0.476662
v 0.498260 0.037500 0.476662
v 0.502461 0.037500 0.084682
v 0.502461 0.037500 0.084682
v 0.517436 0.037500 -0.080434
v 0.517436 0.037500 -0.080434
v 0.529704 0.037500 0.158114
v 0.526159 0.037500 0.276327
v 0.533339 0.037500 -0.302671
v 0.541380 0.037500 -0.168947
v -0.524848 -0.037500 0.275540
v -0.525888 -0.037500 0.156337
v -0.500035 -0.037500 0.081099
v -0.500035 -0.037500 0.081099
v -0.522629 -0.037500 -0.186085
v -0.524027 -0.037500 -0.313070
v -0.490794 -0.037500 -0.103136
v -0.490794 -0.037500 -0.103136
v -0.503438 -0.037500 0.476662
v -0.503438 -0.037500 0.476662
v -0.503438 -0.037500 -0.525248
v -0.503438 -0.037500 -0.525248
v 0.498260 -0.037500 -0.525248
v 0.498260 -0.037500 -0.525248
v -0.437368 -0.037500 0.082528
v -0.418403 -0.037500 -0.098289
v -0.355945 -0.037498 0.116356
v -0.329256 -0.037500 -0.127501
v -0.310483 -0.037498 0.450331
v -0.280813 -0.037500 0.119070
v -0.255639 -0.037500 -0.127182
v -0.255639 -0.037500 -0.127182
v -0.196092 -0.037498 0.447230
v -0.233761 -0.037500 0.048172
v -0.223538 -0.037500 -0.054772
v -0.123821 -0.037500 0.473751
v -0.123821 -0.037500 0.473751
v -0.094418 -0.037500 0.727244
v -0.160905 -0.037498 0.695658
v -0.160905 -0.037498 0.695658
v -0.157647 -0.037500 0.624897
v -0.125078 -0.037498 0.540558
v 0.001474 -0.037500 0.716123
v 0.066247 -0.037500 0.664277
v 0.035934 -0.037500 0.422107
v 0.035934 -0.037500 0.422107
v 0.028428 -0.037500 0.487196
v 0.060384 -0.037500 0.578795
v 0.127873 -0.037500 0.406555
v 0.231833 -0.037500 -0.033552
v 0.228423 -0.037498 0.065900
v 0.267472 -0.037500 0.132925
v 0.267472 -0.037500 0.132925
v 0.277009 -0.037500 -0.103197
v 0.344340 -0.037500 0.126310
v 0.358123 -0.037500 -0.101881
v 0.433091 -0.037500 0.088931
v 0.448776 -0.037500 -0.072851
v 0.498260 -0.037498 0.476662
v 0.498260 -0.037498 0.476662
v 0.502461 -0.037500 0.084682
v 0.502461 -0.037500 0.084682
v 0.517436 -0.037500 -0.080434
v 0.517436 -0.037500 -0.080434
v 0.529704 -0.037500 0.158114
v 0.526159 -0.037500 0.276327
v 0.533339 -0.037500 -0.302671
v 0.541380 -0.037500 -0.168947
vt 0.500000 0.500000
vt 0.500000 0.500000
vt 0.500000 0.500000
vt 0.500000 0.500000
vt 0.500000 0.500000
vt 0.500000 0.500000
vt 0.500000 0.500000
vt 0.500000 0.500000
vt 0.500000 0.500000
vt 0.500000 0.500000
vt 0.500000 0.500000
vt 0.500000 0.500000
vt 0.500000 0.500000
vt 0.500000 0.500000
vt 0.500000 0.500000
vt 0.500000 0.500000
vt 0.500000 0.500000
vt 0.500000 0.500000
vt 0.500000 0.500000
vt 0.500000 0.500000
vt 0.500000 0.500000
vt 0.500000 0.500000
vt 0.500000 0.500000
vt 0.500000 0.500000
vt 0.500000 0.500000
vt 0.500000 0.500000
vt 0.500000 0.500000
vt 0.500000 0.500000
vt 0.500000 0.500000
vt 0.500000 0.500000
vt 0.500000 0.500000
vt 0.500000 0.500000
vt 0.500000 0.500000
vt 0.500000 0.500000
vt 0.500000 0.500000
vt 0.500000 0.500000
vt 0.500000 0.500000
vt 0.500000 0.500000
vt 0.500000 0.500000
vt 0.500000 0.500000
vt 0.500000 0.500000
vt 0.500000 0.500000
vt 0.500000 0.500000
vt 0.500000 0.500000
vt 0.500000 0.500000
vt 0.500000 0.500000
vt 0.500000 0.500000
vt 0.500000 0.500000
vt 0.500000 0.500000
vt 0.500000 0.500000
vt 0.500000 0.500000
vt 0.500000 0.500000
vt 0.500000 0.500000
vt 0.500000 0.500000
vt 0.500000 0.500000
vt 0.500000 0.500000
vt 0.500000 0.500000
vt 0.500000 0.500000
vt 0.500000 0.500000
vt 0.500000 0.500000
vt 0.500000 0.500000
vt 0.500000 0.500000
vt 0.500000 0.500000
vt 0.500000 0.500000
vt 0.500000 0.500000
vt 0.500000 0.500000
vt 0.500000 0.500000
vt 0.500000 0.500000
vt 0.500000 0.500000
vt 0.500000 0.500000
vt 0.500000 0.500000
vt 0.500000 0.500000
vt 0.500000 0.500000
vt 0.500000 0.500000
vt 0.500000 0.500000
vt 0.500000 0.500000
vt 0.500000 0.500000
vt 0.500000 0.500000
vt 0.500000 0.500000
vt 0.500000 0.500000
vt 0.500000 0.500000
vt 0.500000 0.500000
vt 0.500000 0.500000
vt 0.500000 0.500000
vt 0.500000 0.500000
vt 0.500000 0.500000
vt 0.500000 0.500000
vt 0.500000 0.500000
vt 0.500000 0.500000
vt 0.500000 0.500000
vt 0.500000 0.500000
vt 0.500000 0.500000
vt 0.500000 0.500000
vt 0.500000 0.500000
vt 0.500000 0.500000
vt 0.500000 0.500000
vt 0.500000 0.500000
vt 0.500000 0.500000
vt 0.500000 0.500000
vt 0.500000 0.500000
vt 0.500000 0.500000
vt 0.500000 0.500000
vt 0.500000 0.500000
vt 0.500000 0.500000
vt 0.500000 0.500000
vt 0.500000 0.500000
vt 0.500000 0.500000
vt 0.500000 0.500000
vt 0.500000 0.500000
vt 0.500000 0.500000
vt 0.500000 0.500000
vt 0.500000 0.500000
vt 0.500000 0.500000
vt 0.500000 0.500000
vt 0.500000 0.500000
vt 0.500000 0.500000
vt 0.500000 0.500000
vt 0.500000 0.500000
vt 0.500000 0.500000
vt 0.500000 0.500000
vt 0.500000 0.500000
vt 0.500000 0.500000
vt 0.500000 0.500000
vt 0.500000 0.500000
vt 0.500000 0.500000
vt 0.500000 0.500000
vt 0.500000 0.500000
vt 0.500000 0.500000
vt 0.500000 0.500000
vt 0.500000 0.500000
vt 0.500000 0.500000
vt 0.500000 0.500000
vt 0.500000 0.500000
vt 0.500000 0.500000
vt 0.500000 0.500000
vt 0.500000 0.500000
vt 0.500000 0.500000
vt 0.500000 0.500000
vt 0.500000 0.500000
vt 0.500000 0.500000
vt 0.500000 0.500000
vt 0.500000 0.500000
vt 0.500000 0.500000
vt 0.500000 0.500000
vt 0.500000 0.500000
vt 0.500000 0.500000
vt 0.500000 0.500000
vt 0.500000 0.500000
vt 0.500000 0.500000
vt 0.500000 0.500000
vt 0.500000 0.500000
vt 0.500000 0.500000
vt 0.500000 0.500000
vt 0.500000 0.500000
vt 0.500000 0.500000
vt 0.500000 0.500000
vt 0.500000 0.500000
vt 0.500000 0.500000
vt 0.500000 0.500000
vt 0.500000 0.500000
vt 0.500000 0.500000
vt 0.972252 0.165071
vt 0.977774 0.163079
vt 0.971779 0.170783
vt 1.000000 0.166667
vt 1.000000 0.250000
vt 0.975168 0.229385
vt 0.941873 0.197480
vt 0.949997 0.164346
vt 0.959355 0.179472
vt 0.928253 0.221233
vt 0.923839 0.221504
vt 0.921868 0.215973
vt 0.939142 0.233948
vt 0.939336 0.224431
vt 0.959807 0.231479
vt 0.957371 0.164051
vt 0.940903 0.205128
vt 0.937681 0.218419
vt 0.978843 0.251597
vt 0.973366 0.242926
vt 0.975188 0.235510
vt 0.973672 0.185073
vt 0.969328 0.188831
vt 0.959976 0.237730
vt 0.986115 0.163748
vt 0.933514 0.218524
vt 0.922562 0.207995
vt 0.931129 0.203095
vt 0.970651 0.226715
vt 0.937500 0.166667
vt 0.950046 0.251781
vt 0.963124 0.189115
vt 0.964229 0.227565
vt 0.957482 0.251868
vt 0.973590 0.178325
vt 0.958943 0.185866
vt 0.962086 0.244504
vt 0.962176 0.249717
vt 0.937500 0.250000
vt 0.961687 0.172088
vt 0.936843 0.205753
vt 0.986764 0.251713
vt 0.961952 0.166317
vt 0.973668 0.248948
vt 0.925796 0.202607
vn 0.0000 -1.0000 0.0000
vn -1.0000 0.0000 0.0087
vn -0.9457 0.0000 -0.3250
vn -0.9999 0.0000 0.0110
vn -0.9336 0.0000 0.3583
vn -0.9944 0.0000 0.1059
vn -0.9953 0.0000 -0.0966
vn 0.0000 0.0000 -1.0000
vn 0.0228 0.0000 -0.9997
vn -0.0668 0.0000 0.9978
vn 0.3837 0.0000 -0.9235
vn 0.3114 0.0000 0.9503
vn 0.1352 0.0000 0.9908
vn 0.0361 0.0000 -0.9993
vn -0.0043 0.0000 1.0000
vn 0.0271 0.0000 0.9996
vn -0.8332 0.0000 -0.5530
vn -0.9142 0.0000 0.4053
vn -0.9951 0.0000 -0.0988
vn -0.3445 0.0000 0.9388
vn -0.4291 0.0000 0.9032
vn -0.9989 0.0000 -0.0460
vn -0.9329 0.0000 -0.3602
vn -0.9998 0.0000 -0.0188
vn 0.1152 0.0000 0.9933
vn 0.6249 0.0000 0.7807
vn 0.9934 0.0000 0.1146
vn 0.9977 0.0000 -0.0684
vn 0.9442 0.0000 -0.3294
vn 0.1668 0.0000 0.9860
vn 0.9994 0.0000 0.0343
vn 0.8641 0.0000 -0.5034
vn 0.8390 0.0000 0.5442
vn -0.0857 0.0000 -0.9963
vn -0.0162 0.0000 0.9999
vn -0.3881 0.0000 -0.9216
vn -0.3050 0.0000 0.9524
vn -0.1860 0.0000 0.9826
vn -0.0611 0.0000 -0.9981
vn 0.1098 0.0000 0.9940
vn 0.9376 0.0000 -0.3478
vn 0.9904 0.0000 0.1379
vn 0.9996 0.0000 0.0300
vn 0.9878 0.0000 -0.1557
vn 0.9653 0.0000 0.2611
vn 0.9982 0.0000 -0.0600
vn 0.0000 1.0000 0.0000
usemtl BackMat.001
s off
f 201/1/1 196/2/1 206/3/1
f 161/4/1 169/5/1 159/6/1
f 187/7/1 193/8/1 204/9/1
f 179/10/1 176/11/1 177/12/1
f 167/13/1 168/14/1 171/15/1
f 204/9/1 193/8/1 203/16/1
f 183/17/1 174/18/1 171/15/1
f 153/19/1 166/20/1 164/21/1
f 168/14/1 183/17/1 171/15/1
f 192/22/1 188/23/1 169/5/1
f 165/24/1 168/14/1 167/13/1
f 205/25/1 192/22/1 161/4/1
f 180/26/1 186/27/1 181/28/1
f 169/5/1 188/23/1 173/29/1
f 197/30/1 187/7/1 204/9/1
f 180/26/1 181/28/1 179/10/1
f 149/31/1 165/24/1 167/13/1
f 189/32/1 187/7/1 183/17/1
f 172/33/1 183/17/1 168/14/1
f 150/34/1 165/24/1 149/31/1
f 196/2/1 194/35/1 206/3/1
f 192/22/1 205/25/1 194/35/1
f 190/36/1 187/7/1 189/32/1
f 163/37/1 150/34/1 151/38/1
f 165/24/1 150/34/1 163/37/1
f 149/31/1 167/13/1 157/39/1
f 195/40/1 203/16/1 193/8/1
f 174/18/1 185/41/1 180/26/1
f 173/29/1 189/32/1 172/33/1
f 188/23/1 189/32/1 173/29/1
f 193/8/1 187/7/1 190/36/1
f 206/3/1 194/35/1 205/25/1
f 186/27/1 180/26/1 185/41/1
f 189/32/1 183/17/1 172/33/1
f 154/42/1 169/5/1 166/20/1
f 159/6/1 169/5/1 154/42/1
f 199/43/1 203/16/1 195/40/1
f 179/10/1 181/28/1 176/11/1
f 154/42/1 166/20/1 153/19/1
f 183/17/1 185/41/1 174/18/1
f 153/19/1 164/21/1 155/44/1
f 181/28/1 186/27/1 182/45/1
f 161/4/1 192/22/1 169/5/1
f 30/46/2 31/47/2 76/48/2 75/49/2
f 31/47/3 94/50/3 152/51/3 76/48/3
f 42/52/4 43/53/4 88/54/4 87/55/4
f 98/56/5 42/52/5 87/55/5 156/57/5
f 100/58/6 30/46/6 75/49/6 158/59/6
f 43/53/7 102/60/7 160/61/7 88/54/7
f 44/62/8 104/63/8 162/64/8 89/65/8
f 32/66/9 33/67/9 78/68/9 77/69/9
f 40/70/10 41/71/10 86/72/10 85/73/10
f 33/67/11 34/74/11 79/75/11 78/68/11
f 39/76/12 40/70/12 85/73/12 84/77/12
f 28/78/13 29/79/13 74/80/13 73/81/13
f 34/74/14 35/82/14 80/83/14 79/75/14
f 112/84/15 39/76/15 84/77/15 170/85/15
f 27/86/16 28/78/16 73/81/16 72/87/16
f 35/82/17 36/88/17 81/89/17 80/83/17
f 37/90/18 38/91/18 83/92/18 82/93/18
f 36/88/19 37/90/19 82/93/19 81/89/19
f 117/94/20 27/86/20 72/87/20 175/95/20
f 22/96/21 120/97/21 178/98/21 67/99/21
f 23/100/22 24/101/22 69/102/22 68/103/22
f 24/101/23 25/104/23 70/105/23 69/102/23
f 25/104/24 26/106/24 71/107/24 70/105/24
f 21/108/25 22/96/25 67/99/25 66/109/25
f 20/110/26 21/108/26 66/109/26 65/111/26
f 126/112/27 18/113/27 63/114/27 184/115/27
f 19/116/28 20/110/28 65/111/28 64/117/28
f 18/113/29 19/116/29 64/117/29 63/114/29
f 16/118/30 17/119/30 62/120/30 61/121/30
f 7/122/31 8/123/31 53/124/31 52/125/31
f 8/123/32 133/126/32 191/127/32 53/124/32
f 6/128/33 7/122/33 52/125/33 51/129/33
f 9/130/34 10/131/34 55/132/34 54/133/34
f 5/134/35 6/128/35 51/129/35 50/135/35
f 10/131/36 11/136/36 56/137/36 55/132/36
f 4/138/37 5/134/37 50/135/37 49/139/37
f 140/140/38 16/118/38 61/121/38 198/141/38
f 11/136/39 142/142/39 200/143/39 56/137/39
f 144/144/40 4/138/40 49/139/40 202/145/40
f 12/146/41 13/147/41 58/148/41 57/149/41
f 14/150/42 15/151/42 60/152/42 59/153/42
f 13/147/43 14/150/43 59/153/43 58/148/43
f 45/154/44 1/155/44 46/156/44 90/157/44
f 2/158/45 3/159/45 48/160/45 47/161/45
f 1/155/46 2/158/46 47/161/46 46/156/46
usemtl FrontMat.001
f 143/162/47 148/163/47 138/164/47
f 103/165/47 101/166/47 111/167/47
f 129/168/47 146/169/47 135/170/47
f 121/171/47 119/172/47 118/173/47
f 109/174/47 113/175/47 110/176/47
f 146/169/47 145/177/47 135/170/47
f 125/178/47 113/175/47 116/179/47
f 95/180/47 106/181/47 108/182/47
f 110/176/47 113/175/47 125/178/47
f 134/183/47 111/167/47 130/184/47
f 107/185/47 109/174/47 110/176/47
f 147/186/47 103/165/47 134/183/47
f 122/187/47 123/188/47 128/189/47
f 111/167/47 115/190/47 130/184/47
f 139/191/47 146/169/47 129/168/47
f 122/187/47 121/171/47 123/188/47
f 91/192/47 109/174/47 107/185/47
f 131/193/47 125/178/47 129/168/47
f 114/194/47 110/176/47 125/178/47
f 92/195/47 91/192/47 107/185/47
f 138/164/47 148/163/47 136/196/47
f 134/183/47 136/196/47 147/186/47
f 132/197/47 131/193/47 129/168/47
f 105/198/47 93/199/47 92/195/47
f 107/185/47 105/198/47 92/195/47
f 91/192/47 99/200/47 109/174/47
f 137/201/47 135/170/47 145/177/47
f 116/179/47 122/187/47 127/202/47
f 115/190/47 114/194/47 131/193/47
f 130/184/47 115/190/47 131/193/47
f 135/170/47 132/197/47 129/168/47
f 148/163/47 147/186/47 136/196/47
f 128/189/47 127/202/47 122/187/47
f 131/193/47 114/194/47 125/178/47
f 96/203/47 108/182/47 111/167/47
f 101/166/47 96/203/47 111/167/47
f 141/204/47 137/201/47 145/177/47
f 121/171/47 118/173/47 123/188/47
f 96/203/47 95/180/47 108/182/47
f 125/178/47 116/179/47 127/202/47
f 95/180/47 97/205/47 106/181/47
f 123/188/47 124/206/47 128/189/47
f 103/165/47 111/167/47 134/183/47
