# Blender v2.83.1 OBJ File: 'jigsaw-24x24-3-step2.blend'
# www.blender.org
mtllib piece.27.mtl
o path54_path54.001
v -0.554334 0.037500 0.165971
v -0.540999 0.037500 0.091063
v -0.486632 0.037500 0.089363
v -0.408720 0.037500 0.119130
v -0.332350 0.037500 0.120285
v -0.279814 0.037500 0.052593
v -0.262221 0.037500 -0.044793
v -0.287887 0.037500 -0.112876
v -0.357930 0.037500 -0.112770
v -0.444678 0.037500 -0.086043
v -0.513261 0.037500 -0.094373
v -0.538156 0.037500 -0.180239
v -0.531214 0.037500 -0.309315
v -0.497798 0.037500 -0.523837
v -0.296972 0.037500 -0.555346
v -0.176731 0.037500 -0.560385
v -0.098078 0.037500 -0.532531
v -0.093398 0.037500 -0.459733
v -0.121858 0.037500 -0.367593
v -0.124322 0.037500 -0.291121
v -0.061067 0.037500 -0.258743
v 0.029961 0.037500 -0.272537
v 0.091403 0.037500 -0.327996
v 0.085841 0.037500 -0.416018
v 0.055626 0.037500 -0.509123
v 0.063053 0.037500 -0.575239
v 0.150835 0.037500 -0.591782
v 0.283362 0.037500 -0.574134
v 0.503900 0.037500 -0.523837
v 0.524475 0.037500 -0.181272
v 0.502821 0.037500 -0.093605
v 0.449675 0.037500 -0.081250
v 0.381541 0.037500 -0.103290
v 0.321152 0.037500 -0.100128
v 0.288028 0.037500 -0.031693
v 0.288851 0.037500 0.063989
v 0.327092 0.037500 0.129369
v 0.400420 0.037500 0.126440
v 0.483285 0.037500 0.095362
v 0.544334 0.037500 0.095839
v 0.561139 0.037500 0.169347
v 0.546946 0.037500 0.284467
v 0.503900 0.037500 0.478072
v 0.151345 0.037500 0.404103
v 0.067092 0.037500 0.414938
v 0.066137 0.037500 0.472832
v 0.102311 0.037500 0.558323
v 0.108897 0.037500 0.643255
v 0.040815 0.037500 0.702788
v -0.060485 0.037500 0.725348
v -0.131916 0.037500 0.702677
v -0.131318 0.037500 0.633735
v -0.100241 0.037500 0.546348
v -0.101159 0.037500 0.475561
v -0.177565 0.037500 0.447214
v -0.297013 0.037500 0.450333
v -0.497798 0.037500 0.478072
v -0.554334 -0.037498 0.165971
v -0.540999 -0.037500 0.091063
v -0.486632 -0.037500 0.089363
v -0.408720 -0.037498 0.119130
v -0.332350 -0.037500 0.120285
v -0.279814 -0.037500 0.052593
v -0.262221 -0.037500 -0.044793
v -0.287887 -0.037500 -0.112876
v -0.357930 -0.037500 -0.112770
v -0.444678 -0.037500 -0.086043
v -0.513261 -0.037500 -0.094373
v -0.538156 -0.037500 -0.180239
v -0.531214 -0.037500 -0.309315
v -0.497798 -0.037500 -0.523837
v -0.296972 -0.037500 -0.555346
v -0.176731 -0.037500 -0.560385
v -0.098078 -0.037500 -0.532531
v -0.093398 -0.037500 -0.459733
v -0.121858 -0.037500 -0.367593
v -0.124322 -0.037500 -0.291121
v -0.061067 -0.037500 -0.258743
v 0.029961 -0.037500 -0.272537
v 0.091403 -0.037500 -0.327996
v 0.085841 -0.037498 -0.416018
v 0.055626 -0.037500 -0.509123
v 0.063053 -0.037500 -0.575239
v 0.150835 -0.037500 -0.591782
v 0.283362 -0.037498 -0.574134
v 0.503900 -0.037500 -0.523837
v 0.524475 -0.037500 -0.181272
v 0.502821 -0.037500 -0.093605
v 0.449675 -0.037500 -0.081250
v 0.381541 -0.037500 -0.103290
v 0.321152 -0.037500 -0.100128
v 0.288028 -0.037500 -0.031693
v 0.288851 -0.037500 0.063989
v 0.327092 -0.037500 0.129369
v 0.400420 -0.037498 0.126440
v 0.483285 -0.037500 0.095362
v 0.544334 -0.037500 0.095839
v 0.561139 -0.037500 0.169347
v 0.546946 -0.037500 0.284467
v 0.503900 -0.037500 0.478072
v 0.151345 -0.037500 0.404103
v 0.067092 -0.037500 0.414938
v 0.066137 -0.037498 0.472832
v 0.102311 -0.037500 0.558323
v 0.108897 -0.037500 0.643255
v 0.040815 -0.037500 0.702788
v -0.060485 -0.037500 0.725348
v -0.131916 -0.037498 0.702677
v -0.131318 -0.037500 0.633735
v -0.100241 -0.037498 0.546348
v -0.101159 -0.037500 0.475561
v -0.177565 -0.037500 0.447214
v -0.297013 -0.037500 0.450333
v -0.497798 -0.037500 0.478072
v -0.554334 0.037500 0.165971
v -0.540999 0.037500 0.091063
v -0.540999 0.037500 0.091063
v -0.486632 0.037500 0.089363
v -0.513261 0.037500 -0.094373
v -0.513261 0.037500 -0.094373
v -0.538156 0.037500 -0.180239
v -0.531214 0.037500 -0.309315
v -0.444678 0.037500 -0.086043
v -0.497798 0.037500 0.478072
v -0.497798 0.037500 0.478072
v -0.497798 0.037500 -0.523837
v -0.497798 0.037500 -0.523837
v -0.408720 0.037500 0.119130
v -0.357930 0.037500 -0.112770
v -0.332350 0.037500 0.120285
v -0.296972 0.037500 -0.555346
v -0.297013 0.037500 0.450333
v -0.287887 0.037500 -0.112876
v -0.287887 0.037500 -0.112876
v -0.279814 0.037500 0.052593
v -0.177565 0.037500 0.447214
v -0.176731 0.037500 -0.560385
v -0.262221 0.037500 -0.044793
v -0.101159 0.037500 0.475561
v -0.101159 0.037500 0.475561
v -0.121858 0.037500 -0.367593
v -0.124322 0.037500 -0.291121
v -0.124322 0.037500 -0.291121
v -0.098078 0.037500 -0.532531
v -0.098078 0.037500 -0.532531
v -0.060485 0.037500 0.725348
v -0.131916 0.037500 0.702677
v -0.131916 0.037500 0.702677
v -0.131318 0.037500 0.633735
v -0.100241 0.037500 0.546348
v -0.061067 0.037500 -0.258743
v -0.093398 0.037500 -0.459733
v 0.029961 0.037500 -0.272537
v 0.040815 0.037500 0.702788
v 0.091403 0.037500 -0.327996
v 0.108897 0.037500 0.643255
v 0.067092 0.037500 0.414938
v 0.067092 0.037500 0.414938
v 0.066137 0.037500 0.472832
v 0.085841 0.037500 -0.416018
v 0.055626 0.037500 -0.509123
v 0.063053 0.037500 -0.575239
v 0.063053 0.037500 -0.575239
v 0.150835 0.037500 -0.591782
v 0.102311 0.037500 0.558323
v 0.151345 0.037500 0.404103
v 0.283362 0.037500 -0.574134
v 0.288028 0.037500 -0.031693
v 0.288851 0.037500 0.063989
v 0.321152 0.037500 -0.100128
v 0.321152 0.037500 -0.100128
v 0.327092 0.037500 0.129369
v 0.327092 0.037500 0.129369
v 0.381541 0.037500 -0.103290
v 0.400420 0.037500 0.126440
v 0.449675 0.037500 -0.081250
v 0.483285 0.037500 0.095362
v 0.503900 0.037500 0.478072
v 0.503900 0.037500 0.478072
v 0.502821 0.037500 -0.093605
v 0.502821 0.037500 -0.093605
v 0.503900 0.037500 -0.523837
v 0.503900 0.037500 -0.523837
v 0.544334 0.037500 0.095839
v 0.544334 0.037500 0.095839
v 0.524475 0.037500 -0.181272
v 0.546946 0.037500 0.284467
v 0.561139 0.037500 0.169347
v -0.554334 -0.037498 0.165971
v -0.540999 -0.037500 0.091063
v -0.540999 -0.037500 0.091063
v -0.486632 -0.037500 0.089363
v -0.513261 -0.037500 -0.094373
v -0.513261 -0.037500 -0.094373
v -0.538156 -0.037500 -0.180239
v -0.531214 -0.037500 -0.309315
v -0.444678 -0.037500 -0.086043
v -0.497798 -0.037500 0.478072
v -0.497798 -0.037500 0.478072
v -0.497798 -0.037500 -0.523837
v -0.497798 -0.037500 -0.523837
v -0.408720 -0.037498 0.119130
v -0.357930 -0.037500 -0.112770
v -0.332350 -0.037500 0.120285
v -0.296972 -0.037500 -0.555346
v -0.297013 -0.037500 0.450333
v -0.287887 -0.037500 -0.112876
v -0.287887 -0.037500 -0.112876
v -0.279814 -0.037500 0.052593
v -0.177565 -0.037500 0.447214
v -0.176731 -0.037500 -0.560385
v -0.262221 -0.037500 -0.044793
v -0.101159 -0.037500 0.475561
v -0.101159 -0.037500 0.475561
v -0.121858 -0.037500 -0.367593
v -0.124322 -0.037500 -0.291121
v -0.124322 -0.037500 -0.291121
v -0.098078 -0.037500 -0.532531
v -0.098078 -0.037500 -0.532531
v -0.060485 -0.037500 0.725348
v -0.131916 -0.037498 0.702677
v -0.131916 -0.037498 0.702677
v -0.131318 -0.037500 0.633735
v -0.100241 -0.037498 0.546348
v -0.061067 -0.037500 -0.258743
v -0.093398 -0.037500 -0.459733
v 0.029961 -0.037500 -0.272537
v 0.040815 -0.037500 0.702788
v 0.091403 -0.037500 -0.327996
v 0.108897 -0.037500 0.643255
v 0.067092 -0.037500 0.414938
v 0.067092 -0.037500 0.414938
v 0.066137 -0.037498 0.472832
v 0.085841 -0.037498 -0.416018
v 0.055626 -0.037500 -0.509123
v 0.063053 -0.037500 -0.575239
v 0.063053 -0.037500 -0.575239
v 0.150835 -0.037500 -0.591782
v 0.102311 -0.037500 0.558323
v 0.151345 -0.037500 0.404103
v 0.283362 -0.037498 -0.574134
v 0.288028 -0.037500 -0.031693
v 0.288851 -0.037500 0.063989
v 0.321152 -0.037500 -0.100128
v 0.321152 -0.037500 -0.100128
v 0.327092 -0.037500 0.129369
v 0.327092 -0.037500 0.129369
v 0.381541 -0.037500 -0.103290
v 0.400420 -0.037498 0.126440
v 0.449675 -0.037500 -0.081250
v 0.483285 -0.037500 0.095362
v 0.503900 -0.037500 0.478072
v 0.503900 -0.037500 0.478072
v 0.502821 -0.037500 -0.093605
v 0.502821 -0.037500 -0.093605
v 0.503900 -0.037500 -0.523837
v 0.503900 -0.037500 -0.523837
v 0.544334 -0.037500 0.095839
v 0.544334 -0.037500 0.095839
v 0.524475 -0.037500 -0.181272
v 0.546946 -0.037500 0.284467
v 0.561139 -0.037500 0.169347
vt 0.500000 0.500000
vt 0.500000 0.500000
vt 0.500000 0.500000
vt 0.500000 0.500000
vt 0.500000 0.500000
vt 0.500000 0.500000
vt 0.500000 0.500000
vt 0.500000 0.500000
vt 0.500000 0.500000
vt 0.500000 0.500000
vt 0.500000 0.500000
vt 0.500000 0.500000
vt 0.500000 0.500000
vt 0.500000 0.500000
vt 0.500000 0.500000
vt 0.500000 0.500000
vt 0.500000 0.500000
vt 0.500000 0.500000
vt 0.500000 0.500000
vt 0.500000 0.500000
vt 0.500000 0.500000
vt 0.500000 0.500000
vt 0.500000 0.500000
vt 0.500000 0.500000
vt 0.500000 0.500000
vt 0.500000 0.500000
vt 0.500000 0.500000
vt 0.500000 0.500000
vt 0.500000 0.500000
vt 0.500000 0.500000
vt 0.500000 0.500000
vt 0.500000 0.500000
vt 0.500000 0.500000
vt 0.500000 0.500000
vt 0.500000 0.500000
vt 0.500000 0.500000
vt 0.500000 0.500000
vt 0.500000 0.500000
vt 0.500000 0.500000
vt 0.500000 0.500000
vt 0.500000 0.500000
vt 0.500000 0.500000
vt 0.500000 0.500000
vt 0.500000 0.500000
vt 0.500000 0.500000
vt 0.500000 0.500000
vt 0.500000 0.500000
vt 0.500000 0.500000
vt 0.500000 0.500000
vt 0.500000 0.500000
vt 0.500000 0.500000
vt 0.500000 0.500000
vt 0.500000 0.500000
vt 0.500000 0.500000
vt 0.500000 0.500000
vt 0.500000 0.500000
vt 0.500000 0.500000
vt 0.500000 0.500000
vt 0.500000 0.500000
vt 0.500000 0.500000
vt 0.500000 0.500000
vt 0.500000 0.500000
vt 0.500000 0.500000
vt 0.500000 0.500000
vt 0.500000 0.500000
vt 0.500000 0.500000
vt 0.500000 0.500000
vt 0.500000 0.500000
vt 0.500000 0.500000
vt 0.500000 0.500000
vt 0.500000 0.500000
vt 0.500000 0.500000
vt 0.500000 0.500000
vt 0.500000 0.500000
vt 0.500000 0.500000
vt 0.500000 0.500000
vt 0.500000 0.500000
vt 0.500000 0.500000
vt 0.500000 0.500000
vt 0.500000 0.500000
vt 0.500000 0.500000
vt 0.500000 0.500000
vt 0.500000 0.500000
vt 0.500000 0.500000
vt 0.500000 0.500000
vt 0.500000 0.500000
vt 0.500000 0.500000
vt 0.500000 0.500000
vt 0.500000 0.500000
vt 0.500000 0.500000
vt 0.500000 0.500000
vt 0.500000 0.500000
vt 0.500000 0.500000
vt 0.500000 0.500000
vt 0.500000 0.500000
vt 0.500000 0.500000
vt 0.500000 0.500000
vt 0.500000 0.500000
vt 0.500000 0.500000
vt 0.500000 0.500000
vt 0.500000 0.500000
vt 0.500000 0.500000
vt 0.500000 0.500000
vt 0.500000 0.500000
vt 0.500000 0.500000
vt 0.500000 0.500000
vt 0.500000 0.500000
vt 0.500000 0.500000
vt 0.500000 0.500000
vt 0.500000 0.500000
vt 0.500000 0.500000
vt 0.500000 0.500000
vt 0.500000 0.500000
vt 0.500000 0.500000
vt 0.500000 0.500000
vt 0.500000 0.500000
vt 0.500000 0.500000
vt 0.500000 0.500000
vt 0.500000 0.500000
vt 0.500000 0.500000
vt 0.500000 0.500000
vt 0.500000 0.500000
vt 0.500000 0.500000
vt 0.500000 0.500000
vt 0.500000 0.500000
vt 0.500000 0.500000
vt 0.500000 0.500000
vt 0.500000 0.500000
vt 0.500000 0.500000
vt 0.500000 0.500000
vt 0.500000 0.500000
vt 0.500000 0.500000
vt 0.500000 0.500000
vt 0.500000 0.500000
vt 0.500000 0.500000
vt 0.500000 0.500000
vt 0.500000 0.500000
vt 0.500000 0.500000
vt 0.500000 0.500000
vt 0.500000 0.500000
vt 0.500000 0.500000
vt 0.500000 0.500000
vt 0.500000 0.500000
vt 0.500000 0.500000
vt 0.500000 0.500000
vt 0.500000 0.500000
vt 0.500000 0.500000
vt 0.500000 0.500000
vt 0.500000 0.500000
vt 0.500000 0.500000
vt 0.500000 0.500000
vt 0.500000 0.500000
vt 0.500000 0.500000
vt 0.500000 0.500000
vt 0.500000 0.500000
vt 0.500000 0.500000
vt 0.500000 0.500000
vt 0.500000 0.500000
vt 0.500000 0.500000
vt 0.500000 0.500000
vt 0.500000 0.500000
vt 0.500000 0.500000
vt 0.500000 0.500000
vt 0.500000 0.500000
vt 0.500000 0.500000
vt 0.500000 0.500000
vt 0.500000 0.500000
vt 0.500000 0.500000
vt 0.500000 0.500000
vt 0.500000 0.500000
vt 0.500000 0.500000
vt 0.500000 0.500000
vt 0.500000 0.500000
vt 0.500000 0.500000
vt 0.500000 0.500000
vt 0.500000 0.500000
vt 0.500000 0.500000
vt 0.500000 0.500000
vt 0.500000 0.500000
vt 0.500000 0.500000
vt 0.500000 0.500000
vt 0.500000 0.500000
vt 0.500000 0.500000
vt 0.500000 0.500000
vt 0.500000 0.500000
vt 0.500000 0.500000
vt 0.500000 0.500000
vt 0.500000 0.500000
vt 0.500000 0.500000
vt 0.500000 0.500000
vt 0.500000 0.500000
vt 0.500000 0.500000
vt 0.500000 0.500000
vt 0.500000 0.500000
vt 0.500000 0.500000
vt 0.500000 0.500000
vt 0.500000 0.500000
vt 0.500000 0.500000
vt 0.500000 0.500000
vt 0.500000 0.500000
vt 0.500000 0.500000
vt 0.500000 0.500000
vt 0.500000 0.500000
vt 0.500000 0.500000
vt 0.500000 0.500000
vt 0.125000 0.916667
vt 0.127092 0.925840
vt 0.110754 0.915811
vt 0.091385 0.914876
vt 0.097957 0.920971
vt 0.097835 0.924021
vt 0.096313 0.960685
vt 0.083333 0.958333
vt 0.098261 0.954628
vt 0.076860 0.943089
vt 0.073993 0.943114
vt 0.073050 0.940143
vt 0.073988 0.935929
vt 0.076464 0.933097
vt 0.079996 0.933371
vt 0.101028 0.949266
vt 0.084617 0.945013
vt 0.085959 0.934836
vt 0.118502 0.942696
vt 0.122334 0.941512
vt 0.126520 0.944978
vt 0.083438 0.941835
vt 0.080494 0.941797
vt 0.083551 0.934876
vt 0.126310 0.949980
vt 0.120516 0.934056
vt 0.116856 0.933825
vt 0.084487 0.949982
vt 0.098213 0.951451
vt 0.114549 0.936381
vt 0.104533 0.925646
vt 0.107379 0.924268
vt 0.116079 0.959723
vt 0.113975 0.940167
vt 0.105078 0.948534
vt 0.107511 0.921756
vt 0.106594 0.918922
vt 0.110711 0.960012
vt 0.107905 0.952515
vt 0.125362 0.941707
vt 0.086410 0.931332
vt 0.100554 0.925612
vt 0.115322 0.942798
vt 0.107909 0.949602
vt 0.107140 0.958977
vt 0.106793 0.956124
vt 0.099428 0.960130
vt 0.099499 0.957869
vt 0.125000 0.958333
vt 0.096172 0.914286
vt 0.099229 0.914985
vt 0.099249 0.917524
vt 0.127826 0.931353
vt 0.083333 0.916667
vt 0.124388 0.935313
vt 0.127138 0.935004
vt 0.107108 0.916712
vn -0.0000 -1.0000 0.0000
vn -0.9845 0.0000 -0.1753
vn -0.0312 0.0000 -0.9995
vn -0.9604 0.0000 0.2785
vn -0.9986 0.0000 -0.0537
vn -0.1206 0.0000 0.9927
vn -0.9840 0.0000 0.1782
vn -0.9881 0.0000 -0.1539
vn 0.3569 0.0000 -0.9341
vn 0.2944 0.0000 0.9557
vn 0.0151 0.0000 -0.9999
vn -0.1550 0.0000 -0.9879
vn 0.1369 0.0000 0.9906
vn 0.0015 0.0000 1.0000
vn -0.7900 0.0000 -0.6131
vn 0.0261 0.0000 0.9997
vn -0.0419 0.0000 -0.9991
vn -0.9357 0.0000 0.3527
vn -0.9841 0.0000 -0.1778
vn -0.3478 0.0000 0.9376
vn 0.9995 0.0000 0.0322
vn 0.3338 0.0000 -0.9426
vn -0.3025 0.0000 0.9531
vn -1.0000 0.0000 -0.0087
vn -0.9422 0.0000 -0.3351
vn 0.4556 0.0000 -0.8902
vn 0.9555 0.0000 0.2951
vn 0.9979 0.0000 -0.0642
vn -0.9999 0.0000 0.0130
vn -0.1498 0.0000 -0.9887
vn 0.2174 0.0000 0.9761
vn -0.6700 0.0000 -0.7423
vn 0.6583 0.0000 0.7528
vn 0.9999 0.0000 0.0165
vn -0.9512 0.0000 0.3087
vn -0.9937 0.0000 -0.1116
vn -0.1852 0.0000 -0.9827
vn 0.9970 0.0000 -0.0773
vn 0.9209 0.0000 -0.3897
vn 0.1276 0.0000 0.9918
vn -0.9980 0.0000 0.0631
vn 0.1320 0.0000 -0.9913
vn 1.0000 0.0000 -0.0086
vn 0.9001 0.0000 0.4357
vn 0.8632 0.0000 -0.5049
vn 0.0523 0.0000 0.9986
vn -0.0399 0.0000 -0.9992
vn -0.3078 0.0000 0.9515
vn -0.3512 0.0000 -0.9363
vn -0.2053 0.0000 0.9787
vn 0.2264 0.0000 0.9740
vn 0.2224 0.0000 -0.9750
vn 0.0078 0.0000 -1.0000
vn 0.9708 0.0000 0.2398
vn 0.9982 0.0000 -0.0600
vn 0.9762 0.0000 0.2170
vn 0.9925 0.0000 0.1224
vn 0.9748 0.0000 -0.2229
vn 0.0000 1.0000 0.0000
usemtl BackMat.001
s off
f 256/1/1 260/2/1 241/3/1
f 261/4/1 246/5/1 249/6/1
f 189/7/1 202/8/1 198/9/1
f 223/10/1 220/11/1 221/12/1
f 228/13/1 239/14/1 230/15/1
f 223/10/1 228/13/1 220/11/1
f 209/16/1 231/17/1 210/18/1
f 215/19/1 211/20/1 226/21/1
f 213/22/1 233/23/1 224/24/1
f 211/20/1 215/19/1 205/25/1
f 234/26/1 241/3/1 229/27/1
f 202/8/1 204/28/1 206/29/1
f 227/30/1 244/31/1 242/32/1
f 229/27/1 241/3/1 244/31/1
f 205/25/1 215/19/1 196/33/1
f 225/34/1 242/32/1 212/35/1
f 248/36/1 260/2/1 250/37/1
f 196/33/1 203/38/1 195/39/1
f 233/23/1 239/14/1 224/24/1
f 218/40/1 226/21/1 211/20/1
f 240/41/1 243/42/1 246/5/1
f 225/34/1 207/43/1 216/44/1
f 216/44/1 196/33/1 215/19/1
f 193/45/1 195/39/1 197/46/1
f 197/46/1 195/39/1 203/38/1
f 190/47/1 192/48/1 189/7/1
f 205/25/1 196/33/1 200/49/1
f 262/50/1 251/51/1 258/52/1
f 261/4/1 249/6/1 262/50/1
f 241/3/1 234/26/1 238/53/1
f 240/41/1 261/4/1 252/54/1
f 189/7/1 192/48/1 202/8/1
f 262/50/1 249/6/1 251/51/1
f 235/55/1 238/53/1 234/26/1
f 212/35/1 243/42/1 209/16/1
f 236/56/1 238/53/1 235/55/1
f 213/22/1 231/17/1 233/23/1
f 212/35/1 242/32/1 243/42/1
f 224/24/1 239/14/1 228/13/1
f 196/33/1 216/44/1 203/38/1
f 254/57/1 250/37/1 260/2/1
f 244/31/1 241/3/1 248/36/1
f 198/9/1 202/8/1 206/29/1
f 207/43/1 225/34/1 212/35/1
f 204/28/1 209/16/1 210/18/1
f 206/29/1 204/28/1 210/18/1
f 216/44/1 207/43/1 203/38/1
f 229/27/1 244/31/1 227/30/1
f 248/36/1 241/3/1 260/2/1
f 227/30/1 242/32/1 225/34/1
f 210/18/1 231/17/1 213/22/1
f 231/17/1 243/42/1 240/41/1
f 224/24/1 228/13/1 223/10/1
f 209/16/1 243/42/1 231/17/1
f 240/41/1 246/5/1 261/4/1
f 1/58/2 117/59/2 191/60/2 58/61/2
f 2/62/3 3/63/3 60/64/3 59/65/3
f 120/66/4 12/67/4 69/68/4 194/69/4
f 12/67/5 13/70/5 70/71/5 69/68/5
f 10/72/6 11/73/6 68/74/6 67/75/6
f 125/76/7 1/58/7 58/61/7 199/77/7
f 13/70/8 127/78/8 201/79/8 70/71/8
f 3/63/9 4/80/9 61/81/9 60/64/9
f 9/82/10 10/72/10 67/75/10 66/83/10
f 4/80/11 5/84/11 62/85/11 61/81/11
f 14/86/12 15/87/12 72/88/12 71/89/12
f 56/90/13 57/91/13 114/92/13 113/93/13
f 134/94/14 9/82/14 66/83/14 208/95/14
f 5/84/15 6/96/15 63/97/15 62/85/15
f 55/98/16 56/90/16 113/93/16 112/99/16
f 15/87/17 16/100/17 73/101/17 72/88/17
f 7/102/18 8/103/18 65/104/18 64/105/18
f 6/96/19 7/102/19 64/105/19 63/97/19
f 140/106/20 55/98/20 112/99/20 214/107/20
f 19/108/21 143/109/21 217/110/21 76/111/21
f 16/100/22 145/112/22 219/113/22 73/101/22
f 50/114/23 148/115/23 222/116/23 107/117/23
f 51/118/24 52/119/24 109/120/24 108/121/24
f 52/119/25 53/122/25 110/123/25 109/120/25
f 20/124/26 21/125/26 78/126/26 77/127/26
f 18/128/27 19/108/27 76/111/27 75/129/27
f 17/130/28 18/128/28 75/129/28 74/131/28
f 53/122/29 54/132/29 111/133/29 110/123/29
f 21/125/30 22/134/30 79/135/30 78/126/30
f 49/136/31 50/114/31 107/117/31 106/137/31
f 22/134/32 23/138/32 80/139/32 79/135/32
f 48/140/33 49/136/33 106/137/33 105/141/33
f 158/142/34 46/143/34 103/144/34 232/145/34
f 24/146/35 25/147/35 82/148/35 81/149/35
f 25/147/36 163/150/36 237/151/36 82/148/36
f 26/152/37 27/153/37 84/154/37 83/155/37
f 47/156/38 48/140/38 105/141/38 104/157/38
f 46/143/39 47/156/39 104/157/39 103/144/39
f 44/158/40 45/159/40 102/160/40 101/161/40
f 23/138/41 24/146/41 81/149/41 80/139/41
f 27/153/42 28/162/42 85/163/42 84/154/42
f 35/164/43 36/165/43 93/166/43 92/167/43
f 171/168/44 35/164/44 92/167/44 245/169/44
f 36/165/45 173/170/45 247/171/45 93/166/45
f 33/172/46 34/173/46 91/174/46 90/175/46
f 37/176/47 38/177/47 95/178/47 94/179/47
f 32/180/48 33/172/48 90/175/48 89/181/48
f 38/177/49 39/182/49 96/183/49 95/178/49
f 179/184/50 44/158/50 101/161/50 253/185/50
f 181/186/51 32/180/51 89/181/51 255/187/51
f 28/162/52 183/188/52 257/189/52 85/163/52
f 39/182/53 185/190/53 259/191/53 96/183/53
f 30/192/54 31/193/54 88/194/54 87/195/54
f 29/196/55 30/192/55 87/195/55 86/197/55
f 42/198/56 43/199/56 100/200/56 99/201/56
f 41/202/57 42/198/57 99/201/57 98/203/57
f 40/204/58 41/202/58 98/203/58 97/205/58
usemtl FrontMat.001
f 182/206/59 167/207/59 186/208/59
f 187/209/59 175/210/59 172/211/59
f 115/212/59 124/213/59 128/214/59
f 149/215/59 147/216/59 146/217/59
f 154/218/59 156/219/59 165/220/59
f 149/215/59 146/217/59 154/218/59
f 135/221/59 136/222/59 157/223/59
f 141/224/59 152/225/59 137/226/59
f 139/227/59 150/228/59 159/229/59
f 137/226/59 131/230/59 141/224/59
f 160/231/59 155/232/59 167/207/59
f 128/214/59 132/233/59 130/234/59
f 153/235/59 168/236/59 170/237/59
f 155/232/59 170/237/59 167/207/59
f 131/230/59 122/238/59 141/224/59
f 151/239/59 138/240/59 168/236/59
f 174/241/59 176/242/59 186/208/59
f 122/238/59 121/243/59 129/244/59
f 159/229/59 150/228/59 165/220/59
f 144/245/59 137/226/59 152/225/59
f 166/246/59 172/211/59 169/247/59
f 151/239/59 142/248/59 133/249/59
f 142/248/59 141/224/59 122/238/59
f 119/250/59 123/251/59 121/243/59
f 123/251/59 129/244/59 121/243/59
f 116/252/59 115/212/59 118/253/59
f 131/230/59 126/254/59 122/238/59
f 188/255/59 184/256/59 177/257/59
f 187/209/59 188/255/59 175/210/59
f 167/207/59 164/258/59 160/231/59
f 166/246/59 178/259/59 187/209/59
f 115/212/59 128/214/59 118/253/59
f 188/255/59 177/257/59 175/210/59
f 161/260/59 160/231/59 164/258/59
f 138/240/59 135/221/59 169/247/59
f 162/261/59 161/260/59 164/258/59
f 139/227/59 159/229/59 157/223/59
f 138/240/59 169/247/59 168/236/59
f 150/228/59 154/218/59 165/220/59
f 122/238/59 129/244/59 142/248/59
f 180/262/59 186/208/59 176/242/59
f 170/237/59 174/241/59 167/207/59
f 124/213/59 132/233/59 128/214/59
f 133/249/59 138/240/59 151/239/59
f 130/234/59 136/222/59 135/221/59
f 132/233/59 136/222/59 130/234/59
f 142/248/59 129/244/59 133/249/59
f 155/232/59 153/235/59 170/237/59
f 174/241/59 186/208/59 167/207/59
f 153/235/59 151/239/59 168/236/59
f 136/222/59 139/227/59 157/223/59
f 157/223/59 166/246/59 169/247/59
f 150/228/59 149/215/59 154/218/59
f 135/221/59 157/223/59 169/247/59
f 166/246/59 187/209/59 172/211/59
