# Blender v2.83.1 OBJ File: 'jigsaw-24x24-3-step2.blend'
# www.blender.org
mtllib piece.339.mtl
o path678
v 0.193532 0.037500 0.550659
v 0.117292 0.037500 0.531773
v 0.123232 0.037500 0.484304
v 0.165640 0.037500 0.422002
v 0.178670 0.037500 0.364013
v 0.117697 0.037500 0.327181
v 0.022991 0.037500 0.319102
v -0.043953 0.037500 0.345070
v -0.042436 0.037500 0.404968
v -0.014934 0.037500 0.477100
v -0.024719 0.037500 0.534361
v -0.115218 0.037500 0.556904
v -0.474942 0.037500 0.530825
v -0.440180 0.037500 0.339603
v -0.433217 0.037500 0.225551
v -0.459864 0.037500 0.151930
v -0.532665 0.037500 0.149597
v -0.625156 0.037500 0.178045
v -0.701116 0.037500 0.178926
v -0.731847 0.037500 0.113204
v -0.718731 0.037500 0.019051
v -0.670672 0.037500 -0.046053
v -0.598852 0.037500 -0.044475
v -0.523558 0.037500 -0.018001
v -0.467358 0.037500 -0.028262
v -0.446311 0.037500 -0.117510
v -0.474942 0.037500 -0.470873
v -0.247251 0.037500 -0.426007
v -0.110159 0.037500 -0.413022
v -0.018754 0.037500 -0.435794
v -0.009615 0.037500 -0.509163
v -0.038760 0.037500 -0.607880
v -0.042067 0.037500 -0.696656
v 0.023611 0.037500 -0.745945
v 0.117514 0.037500 -0.749166
v 0.177905 0.037500 -0.705470
v 0.164339 0.037500 -0.620071
v 0.121535 0.037500 -0.522397
v 0.115509 0.037500 -0.447928
v 0.192065 0.037500 -0.422285
v 0.316198 0.037500 -0.431646
v 0.526968 0.037500 -0.470873
v 0.595882 0.037500 -0.131297
v 0.584687 0.037500 -0.046977
v 0.528445 0.037500 -0.039808
v 0.445347 0.037500 -0.067452
v 0.361792 0.037500 -0.068462
v 0.301357 0.037500 -0.001382
v 0.276339 0.037500 0.095321
v 0.296212 0.037500 0.163193
v 0.363077 0.037500 0.163428
v 0.449525 0.037500 0.135785
v 0.520771 0.037500 0.139674
v 0.551031 0.037500 0.216281
v 0.550515 0.037500 0.333973
v 0.526968 0.037500 0.530825
v 0.193532 -0.037498 0.550659
v 0.117292 -0.037500 0.531773
v 0.123232 -0.037500 0.484304
v 0.165640 -0.037500 0.422002
v 0.178670 -0.037500 0.364013
v 0.117697 -0.037500 0.327181
v 0.022991 -0.037500 0.319102
v -0.043953 -0.037500 0.345070
v -0.042436 -0.037500 0.404968
v -0.014934 -0.037500 0.477100
v -0.024719 -0.037500 0.534361
v -0.115218 -0.037500 0.556904
v -0.474942 -0.037500 0.530825
v -0.440180 -0.037500 0.339603
v -0.433217 -0.037498 0.225551
v -0.459864 -0.037500 0.151930
v -0.532665 -0.037500 0.149597
v -0.625156 -0.037500 0.178045
v -0.701116 -0.037500 0.178926
v -0.731847 -0.037500 0.113204
v -0.718731 -0.037498 0.019051
v -0.670672 -0.037500 -0.046053
v -0.598852 -0.037500 -0.044475
v -0.523558 -0.037500 -0.018001
v -0.467358 -0.037498 -0.028262
v -0.446311 -0.037500 -0.117510
v -0.474942 -0.037500 -0.470873
v -0.247251 -0.037498 -0.426007
v -0.110159 -0.037498 -0.413022
v -0.018754 -0.037500 -0.435794
v -0.009615 -0.037500 -0.509163
v -0.038760 -0.037500 -0.607880
v -0.042067 -0.037500 -0.696656
v 0.023611 -0.037500 -0.745945
v 0.117514 -0.037500 -0.749166
v 0.177905 -0.037500 -0.705470
v 0.164339 -0.037500 -0.620071
v 0.121535 -0.037500 -0.522397
v 0.115509 -0.037500 -0.447928
v 0.192065 -0.037500 -0.422285
v 0.316198 -0.037500 -0.431646
v 0.526968 -0.037500 -0.470873
v 0.595882 -0.037500 -0.131297
v 0.584687 -0.037500 -0.046977
v 0.528445 -0.037500 -0.039808
v 0.445347 -0.037500 -0.067452
v 0.361792 -0.037500 -0.068462
v 0.301357 -0.037500 -0.001382
v 0.276339 -0.037500 0.095321
v 0.296212 -0.037500 0.163193
v 0.363077 -0.037498 0.163428
v 0.449525 -0.037498 0.135785
v 0.520771 -0.037500 0.139674
v 0.551031 -0.037498 0.216281
v 0.550515 -0.037498 0.333973
v 0.526968 -0.037500 0.530825
v -0.024719 0.037500 0.534361
v -0.024719 0.037500 0.534361
v -0.115218 0.037500 0.556904
v 0.193532 0.037500 0.550659
v 0.117292 0.037500 0.531773
v 0.117292 0.037500 0.531773
v -0.014934 0.037500 0.477100
v -0.474942 0.037500 0.530825
v -0.474942 0.037500 0.530825
v 0.526968 0.037500 0.530825
v 0.526968 0.037500 0.530825
v 0.123232 0.037500 0.484304
v 0.165640 0.037500 0.422002
v -0.042436 0.037500 0.404968
v -0.440180 0.037500 0.339603
v 0.550515 0.037500 0.333973
v 0.178670 0.037500 0.364013
v 0.178670 0.037500 0.364013
v -0.043953 0.037500 0.345070
v -0.043953 0.037500 0.345070
v 0.117697 0.037500 0.327181
v 0.022991 0.037500 0.319102
v -0.433217 0.037500 0.225551
v 0.551031 0.037500 0.216281
v -0.459864 0.037500 0.151930
v -0.459864 0.037500 0.151930
v 0.520771 0.037500 0.139674
v 0.520771 0.037500 0.139674
v 0.296212 0.037500 0.163193
v 0.296212 0.037500 0.163193
v 0.363077 0.037500 0.163428
v -0.625156 0.037500 0.178045
v -0.701116 0.037500 0.178926
v -0.701116 0.037500 0.178926
v -0.731847 0.037500 0.113204
v -0.532665 0.037500 0.149597
v 0.449525 0.037500 0.135785
v 0.276339 0.037500 0.095321
v -0.718731 0.037500 0.019051
v 0.301357 0.037500 -0.001382
v -0.670672 0.037500 -0.046053
v 0.361792 0.037500 -0.068462
v -0.523558 0.037500 -0.018001
v -0.467358 0.037500 -0.028262
v -0.467358 0.037500 -0.028262
v -0.598852 0.037500 -0.044475
v -0.446311 0.037500 -0.117510
v 0.584687 0.037500 -0.046977
v 0.584687 0.037500 -0.046977
v 0.528445 0.037500 -0.039808
v 0.445347 0.037500 -0.067452
v 0.595882 0.037500 -0.131297
v 0.526968 0.037500 -0.470873
v 0.526968 0.037500 -0.470873
v 0.192065 0.037500 -0.422285
v 0.316198 0.037500 -0.431646
v -0.110159 0.037500 -0.413022
v -0.018754 0.037500 -0.435794
v -0.018754 0.037500 -0.435794
v -0.247251 0.037500 -0.426007
v 0.115509 0.037500 -0.447928
v 0.115509 0.037500 -0.447928
v -0.009615 0.037500 -0.509163
v -0.474942 0.037500 -0.470873
v -0.474942 0.037500 -0.470873
v 0.121535 0.037500 -0.522397
v -0.038760 0.037500 -0.607880
v 0.164339 0.037500 -0.620071
v -0.042067 0.037500 -0.696656
v 0.177905 0.037500 -0.705470
v 0.177905 0.037500 -0.705470
v 0.023611 0.037500 -0.745945
v 0.117514 0.037500 -0.749166
v -0.024719 -0.037500 0.534361
v -0.024719 -0.037500 0.534361
v -0.115218 -0.037500 0.556904
v 0.193532 -0.037498 0.550659
v 0.117292 -0.037500 0.531773
v 0.117292 -0.037500 0.531773
v -0.014934 -0.037500 0.477100
v -0.474942 -0.037500 0.530825
v -0.474942 -0.037500 0.530825
v 0.526968 -0.037500 0.530825
v 0.526968 -0.037500 0.530825
v 0.123232 -0.037500 0.484304
v 0.165640 -0.037500 0.422002
v -0.042436 -0.037500 0.404968
v -0.440180 -0.037500 0.339603
v 0.550515 -0.037498 0.333973
v 0.178670 -0.037500 0.364013
v 0.178670 -0.037500 0.364013
v -0.043953 -0.037500 0.345070
v -0.043953 -0.037500 0.345070
v 0.117697 -0.037500 0.327181
v 0.022991 -0.037500 0.319102
v -0.433217 -0.037498 0.225551
v 0.551031 -0.037498 0.216281
v -0.459864 -0.037500 0.151930
v -0.459864 -0.037500 0.151930
v 0.520771 -0.037500 0.139674
v 0.520771 -0.037500 0.139674
v 0.296212 -0.037500 0.163193
v 0.296212 -0.037500 0.163193
v 0.363077 -0.037498 0.163428
v -0.625156 -0.037500 0.178045
v -0.701116 -0.037500 0.178926
v -0.701116 -0.037500 0.178926
v -0.731847 -0.037500 0.113204
v -0.532665 -0.037500 0.149597
v 0.449525 -0.037498 0.135785
v 0.276339 -0.037500 0.095321
v -0.718731 -0.037498 0.019051
v 0.301357 -0.037500 -0.001382
v -0.670672 -0.037500 -0.046053
v 0.361792 -0.037500 -0.068462
v -0.523558 -0.037500 -0.018001
v -0.467358 -0.037498 -0.028262
v -0.467358 -0.037498 -0.028262
v -0.598852 -0.037500 -0.044475
v -0.446311 -0.037500 -0.117510
v 0.584687 -0.037500 -0.046977
v 0.584687 -0.037500 -0.046977
v 0.528445 -0.037500 -0.039808
v 0.445347 -0.037500 -0.067452
v 0.595882 -0.037500 -0.131297
v 0.526968 -0.037500 -0.470873
v 0.526968 -0.037500 -0.470873
v 0.192065 -0.037500 -0.422285
v 0.316198 -0.037500 -0.431646
v -0.110159 -0.037498 -0.413022
v -0.018754 -0.037500 -0.435794
v -0.018754 -0.037500 -0.435794
v -0.247251 -0.037498 -0.426007
v 0.115509 -0.037500 -0.447928
v 0.115509 -0.037500 -0.447928
v -0.009615 -0.037500 -0.509163
v -0.474942 -0.037500 -0.470873
v -0.474942 -0.037500 -0.470873
v 0.121535 -0.037500 -0.522397
v -0.038760 -0.037500 -0.607880
v 0.164339 -0.037500 -0.620071
v -0.042067 -0.037500 -0.696656
v 0.177905 -0.037500 -0.705470
v 0.177905 -0.037500 -0.705470
v 0.023611 -0.037500 -0.745945
v 0.117514 -0.037500 -0.749166
vt 0.500000 0.500000
vt 0.500000 0.500000
vt 0.500000 0.500000
vt 0.500000 0.500000
vt 0.500000 0.500000
vt 0.500000 0.500000
vt 0.500000 0.500000
vt 0.500000 0.500000
vt 0.500000 0.500000
vt 0.500000 0.500000
vt 0.500000 0.500000
vt 0.500000 0.500000
vt 0.500000 0.500000
vt 0.500000 0.500000
vt 0.500000 0.500000
vt 0.500000 0.500000
vt 0.500000 0.500000
vt 0.500000 0.500000
vt 0.500000 0.500000
vt 0.500000 0.500000
vt 0.500000 0.500000
vt 0.500000 0.500000
vt 0.500000 0.500000
vt 0.500000 0.500000
vt 0.500000 0.500000
vt 0.500000 0.500000
vt 0.500000 0.500000
vt 0.500000 0.500000
vt 0.500000 0.500000
vt 0.500000 0.500000
vt 0.500000 0.500000
vt 0.500000 0.500000
vt 0.500000 0.500000
vt 0.500000 0.500000
vt 0.500000 0.500000
vt 0.500000 0.500000
vt 0.500000 0.500000
vt 0.500000 0.500000
vt 0.500000 0.500000
vt 0.500000 0.500000
vt 0.500000 0.500000
vt 0.500000 0.500000
vt 0.500000 0.500000
vt 0.500000 0.500000
vt 0.500000 0.500000
vt 0.500000 0.500000
vt 0.500000 0.500000
vt 0.500000 0.500000
vt 0.500000 0.500000
vt 0.500000 0.500000
vt 0.500000 0.500000
vt 0.500000 0.500000
vt 0.500000 0.500000
vt 0.500000 0.500000
vt 0.500000 0.500000
vt 0.500000 0.500000
vt 0.500000 0.500000
vt 0.500000 0.500000
vt 0.500000 0.500000
vt 0.500000 0.500000
vt 0.500000 0.500000
vt 0.500000 0.500000
vt 0.500000 0.500000
vt 0.500000 0.500000
vt 0.500000 0.500000
vt 0.500000 0.500000
vt 0.500000 0.500000
vt 0.500000 0.500000
vt 0.500000 0.500000
vt 0.500000 0.500000
vt 0.500000 0.500000
vt 0.500000 0.500000
vt 0.500000 0.500000
vt 0.500000 0.500000
vt 0.500000 0.500000
vt 0.500000 0.500000
vt 0.500000 0.500000
vt 0.500000 0.500000
vt 0.500000 0.500000
vt 0.500000 0.500000
vt 0.500000 0.500000
vt 0.500000 0.500000
vt 0.500000 0.500000
vt 0.500000 0.500000
vt 0.500000 0.500000
vt 0.500000 0.500000
vt 0.500000 0.500000
vt 0.500000 0.500000
vt 0.500000 0.500000
vt 0.500000 0.500000
vt 0.500000 0.500000
vt 0.500000 0.500000
vt 0.500000 0.500000
vt 0.500000 0.500000
vt 0.500000 0.500000
vt 0.500000 0.500000
vt 0.500000 0.500000
vt 0.500000 0.500000
vt 0.500000 0.500000
vt 0.500000 0.500000
vt 0.500000 0.500000
vt 0.500000 0.500000
vt 0.500000 0.500000
vt 0.500000 0.500000
vt 0.500000 0.500000
vt 0.500000 0.500000
vt 0.500000 0.500000
vt 0.500000 0.500000
vt 0.500000 0.500000
vt 0.500000 0.500000
vt 0.500000 0.500000
vt 0.500000 0.500000
vt 0.500000 0.500000
vt 0.500000 0.500000
vt 0.500000 0.500000
vt 0.500000 0.500000
vt 0.500000 0.500000
vt 0.500000 0.500000
vt 0.500000 0.500000
vt 0.500000 0.500000
vt 0.500000 0.500000
vt 0.500000 0.500000
vt 0.500000 0.500000
vt 0.500000 0.500000
vt 0.500000 0.500000
vt 0.500000 0.500000
vt 0.500000 0.500000
vt 0.500000 0.500000
vt 0.500000 0.500000
vt 0.500000 0.500000
vt 0.500000 0.500000
vt 0.500000 0.500000
vt 0.500000 0.500000
vt 0.500000 0.500000
vt 0.500000 0.500000
vt 0.500000 0.500000
vt 0.500000 0.500000
vt 0.500000 0.500000
vt 0.500000 0.500000
vt 0.500000 0.500000
vt 0.500000 0.500000
vt 0.500000 0.500000
vt 0.500000 0.500000
vt 0.500000 0.500000
vt 0.500000 0.500000
vt 0.500000 0.500000
vt 0.500000 0.500000
vt 0.500000 0.500000
vt 0.500000 0.500000
vt 0.500000 0.500000
vt 0.500000 0.500000
vt 0.500000 0.500000
vt 0.500000 0.500000
vt 0.500000 0.500000
vt 0.500000 0.500000
vt 0.500000 0.500000
vt 0.500000 0.500000
vt 0.500000 0.500000
vt 0.500000 0.500000
vt 0.500000 0.500000
vt 0.500000 0.500000
vt 0.500000 0.500000
vt 0.500000 0.500000
vt 0.500000 0.500000
vt 0.500000 0.500000
vt 0.500000 0.500000
vt 0.500000 0.500000
vt 0.500000 0.500000
vt 0.500000 0.500000
vt 0.500000 0.500000
vt 0.500000 0.500000
vt 0.500000 0.500000
vt 0.500000 0.500000
vt 0.500000 0.500000
vt 0.500000 0.500000
vt 0.500000 0.500000
vt 0.500000 0.500000
vt 0.500000 0.500000
vt 0.500000 0.500000
vt 0.500000 0.500000
vt 0.500000 0.500000
vt 0.500000 0.500000
vt 0.500000 0.500000
vt 0.500000 0.500000
vt 0.500000 0.500000
vt 0.500000 0.500000
vt 0.500000 0.500000
vt 0.500000 0.500000
vt 0.500000 0.500000
vt 0.500000 0.500000
vt 0.500000 0.500000
vt 0.500000 0.500000
vt 0.500000 0.500000
vt 0.500000 0.500000
vt 0.500000 0.500000
vt 0.500000 0.500000
vt 0.500000 0.500000
vt 0.500000 0.500000
vt 0.500000 0.500000
vt 0.500000 0.500000
vt 0.500000 0.500000
vt 0.500000 0.500000
vt 0.107013 0.411432
vt 0.110040 0.417751
vt 0.105870 0.414432
vt 0.107076 0.408940
vt 0.104292 0.407860
vt 0.124685 0.393411
vt 0.125000 0.416667
vt 0.123554 0.408713
vt 0.092099 0.376632
vt 0.097261 0.377021
vt 0.090202 0.391739
vt 0.092930 0.401375
vt 0.093756 0.398551
vt 0.100354 0.408196
vt 0.092716 0.394529
vt 0.106860 0.369301
vt 0.105648 0.373407
vt 0.100194 0.372857
vt 0.106028 0.376459
vt 0.109830 0.377406
vt 0.123265 0.403968
vt 0.124373 0.400906
vt 0.097818 0.409728
vt 0.090149 0.401384
vt 0.098414 0.368794
vt 0.082354 0.408478
vt 0.082333 0.403583
vt 0.106276 0.416814
vt 0.080467 0.389125
vt 0.083333 0.375000
vt 0.086728 0.391781
vt 0.134406 0.402029
vt 0.131247 0.401992
vt 0.135684 0.399295
vt 0.130153 0.392736
vt 0.135138 0.395379
vt 0.127022 0.393838
vt 0.100361 0.363424
vt 0.104267 0.363558
vt 0.098360 0.412140
vt 0.097200 0.417492
vt 0.083333 0.416667
vt 0.123809 0.389698
vt 0.127401 0.400809
vt 0.080933 0.392632
vt 0.083272 0.392931
vt 0.100124 0.414732
vt 0.083591 0.400396
vt 0.086554 0.400235
vt 0.133140 0.392671
vt 0.097850 0.365242
vt 0.106998 0.365608
vt 0.100445 0.375954
vt 0.115531 0.376866
vt 0.100371 0.416706
vt 0.125000 0.375000
vn 0.0000 -1.0000 0.0000
vn 0.2417 0.0000 0.9703
vn -0.2405 0.0000 0.9707
vn 0.9857 0.0000 0.1684
vn -0.0723 0.0000 0.9974
vn 0.0594 0.0000 0.9982
vn -0.9923 0.0000 -0.1242
vn -0.8267 0.0000 -0.5627
vn 0.9344 0.0000 -0.3562
vn -0.9839 0.0000 -0.1789
vn 0.9929 0.0000 0.1188
vn -0.9757 0.0000 -0.2192
vn 0.9997 0.0000 -0.0253
vn -0.5171 0.0000 0.8560
vn 0.3616 0.0000 0.9323
vn -0.9981 0.0000 -0.0609
vn 1.0000 0.0000 0.0044
vn -0.0850 0.0000 0.9964
vn -0.9403 0.0000 0.3403
vn 0.9301 0.0000 -0.3674
vn 0.0035 0.0000 -1.0000
vn 0.0116 0.0000 0.9999
vn -0.9059 0.0000 0.4236
vn 0.2940 0.0000 0.9558
vn 0.0545 0.0000 -0.9985
vn -0.3046 0.0000 -0.9525
vn 0.9597 0.0000 -0.2810
vn -0.0320 0.0000 0.9995
vn -0.9904 0.0000 -0.1380
vn 0.9681 0.0000 0.2505
vn -0.8045 0.0000 -0.5939
vn 0.7429 0.0000 0.6693
vn -0.1796 0.0000 -0.9837
vn 0.3317 0.0000 -0.9434
vn 0.0220 0.0000 -0.9998
vn -0.9733 0.0000 -0.2295
vn 0.1264 0.0000 0.9920
vn -0.3157 0.0000 0.9489
vn 0.9913 0.0000 0.1316
vn -0.0121 0.0000 0.9999
vn 0.9800 0.0000 -0.1989
vn -0.0752 0.0000 -0.9972
vn -0.2417 0.0000 -0.9703
vn 0.0943 0.0000 -0.9955
vn 0.3176 0.0000 -0.9482
vn -0.9923 0.0000 -0.1236
vn 0.1933 0.0000 -0.9811
vn -0.9967 0.0000 0.0808
vn 0.9967 0.0000 0.0807
vn -0.1830 0.0000 -0.9831
vn -0.9591 0.0000 0.2832
vn 0.9159 0.0000 0.4014
vn -0.9993 0.0000 0.0372
vn 0.9876 0.0000 0.1569
vn -0.6002 0.0000 -0.7998
vn 0.5862 0.0000 -0.8102
vn -0.0343 0.0000 -0.9994
vn 0.0000 1.0000 0.0000
usemtl BackMat.001
s off
f 199/1/1 192/2/1 188/3/1
f 204/4/1 229/5/1 207/6/1
f 193/7/1 200/8/1 188/3/1
f 241/9/1 227/10/1 240/11/1
f 200/8/1 204/4/1 199/1/1
f 214/12/1 206/13/1 223/14/1
f 240/11/1 227/10/1 225/15/1
f 252/16/1 251/17/1 248/18/1
f 243/19/1 225/15/1 242/20/1
f 208/21/1 210/22/1 204/4/1
f 202/23/1 214/12/1 216/24/1
f 252/16/1 253/25/1 251/17/1
f 208/21/1 204/4/1 200/8/1
f 207/6/1 223/14/1 206/13/1
f 201/26/1 216/24/1 209/27/1
f 188/3/1 192/2/1 186/28/1
f 237/29/1 241/9/1 238/30/1
f 237/29/1 236/31/1 241/9/1
f 218/32/1 220/33/1 217/34/1
f 231/35/1 217/34/1 224/36/1
f 229/5/1 210/22/1 228/37/1
f 258/38/1 253/25/1 257/39/1
f 198/40/1 195/41/1 189/42/1
f 232/43/1 242/20/1 207/6/1
f 228/37/1 221/44/1 231/35/1
f 233/45/1 235/46/1 237/29/1
f 198/40/1 189/42/1 197/47/1
f 209/27/1 222/48/1 212/49/1
f 210/22/1 229/5/1 204/4/1
f 202/23/1 195/41/1 198/40/1
f 236/31/1 237/29/1 235/46/1
f 226/50/1 231/35/1 224/36/1
f 243/19/1 240/11/1 225/15/1
f 217/34/1 231/35/1 221/44/1
f 221/44/1 228/37/1 210/22/1
f 220/33/1 224/36/1 217/34/1
f 207/6/1 242/20/1 223/14/1
f 255/51/1 253/25/1 258/38/1
f 253/25/1 252/16/1 257/39/1
f 254/52/1 257/39/1 252/16/1
f 248/18/1 246/53/1 243/19/1
f 248/18/1 251/17/1 246/53/1
f 216/24/1 222/48/1 209/27/1
f 202/23/1 216/24/1 201/26/1
f 242/20/1 232/43/1 245/54/1
f 227/10/1 241/9/1 236/31/1
f 197/47/1 189/42/1 190/55/1
f 229/5/1 232/43/1 207/6/1
f 246/53/1 240/11/1 243/19/1
f 225/15/1 223/14/1 242/20/1
f 188/3/1 200/8/1 199/1/1
f 195/41/1 202/23/1 201/26/1
f 245/54/1 232/43/1 249/56/1
f 206/13/1 214/12/1 202/23/1
f 114/57/2 12/58/2 68/59/2 187/60/2
f 1/61/3 118/62/3 191/63/3 57/64/3
f 10/65/4 11/66/4 67/67/4 66/68/4
f 12/58/5 121/69/5 194/70/5 68/59/5
f 123/71/6 1/61/6 57/64/6 196/72/6
f 2/73/7 3/74/7 59/75/7 58/76/7
f 3/74/8 4/77/8 60/78/8 59/75/8
f 9/79/9 10/65/9 66/68/9 65/80/9
f 13/81/10 14/82/10 70/83/10 69/84/10
f 55/85/11 56/86/11 112/87/11 111/88/11
f 4/77/12 130/89/12 203/90/12 60/78/12
f 132/91/13 9/79/13 65/80/13 205/92/13
f 5/93/14 6/94/14 62/95/14 61/96/14
f 7/97/15 8/98/15 64/99/15 63/100/15
f 14/82/16 15/101/16 71/102/16 70/83/16
f 54/103/17 55/85/17 111/88/17 110/104/17
f 6/94/18 7/97/18 63/100/18 62/95/18
f 15/101/19 138/105/19 211/106/19 71/102/19
f 140/107/20 54/103/20 110/104/20 213/108/20
f 142/109/21 51/110/21 107/111/21 215/112/21
f 18/113/22 146/114/22 219/115/22 74/116/22
f 19/117/23 20/118/23 76/119/23 75/120/23
f 17/121/24 18/113/24 74/116/24 73/122/24
f 52/123/25 53/124/25 109/125/25 108/126/25
f 51/110/26 52/123/26 108/126/26 107/111/26
f 49/127/27 50/128/27 106/129/27 105/130/27
f 16/131/28 17/121/28 73/122/28 72/132/28
f 20/118/29 21/133/29 77/134/29 76/119/29
f 48/135/30 49/127/30 105/130/30 104/136/30
f 21/133/31 22/137/31 78/138/31 77/134/31
f 47/139/32 48/135/32 104/136/32 103/140/32
f 24/141/33 157/142/33 230/143/33 80/144/33
f 23/145/34 24/141/34 80/144/34 79/146/34
f 22/137/35 23/145/35 79/146/35 78/138/35
f 25/147/36 26/148/36 82/149/36 81/150/36
f 161/151/37 45/152/37 101/153/37 234/154/37
f 45/152/38 46/155/38 102/156/38 101/153/38
f 43/157/39 44/158/39 100/159/39 99/160/39
f 46/155/40 47/139/40 103/140/40 102/156/40
f 166/161/41 43/157/41 99/160/41 239/162/41
f 40/163/42 41/164/42 97/165/42 96/166/42
f 29/167/43 171/168/43 244/169/43 85/170/43
f 28/171/44 29/167/44 85/170/44 84/172/44
f 174/173/45 40/163/45 96/166/45 247/174/45
f 30/175/46 31/176/46 87/177/46 86/178/46
f 177/179/47 28/171/47 84/172/47 250/180/47
f 26/148/48 27/181/48 83/182/48 82/149/48
f 38/183/49 39/184/49 95/185/49 94/186/49
f 41/164/50 42/187/50 98/188/50 97/165/50
f 31/176/51 32/189/51 88/190/51 87/177/51
f 37/191/52 38/183/52 94/186/52 93/192/52
f 32/189/53 33/193/53 89/194/53 88/190/53
f 183/195/54 37/191/54 93/192/54 256/196/54
f 33/193/55 34/197/55 90/198/55 89/194/55
f 35/199/56 36/200/56 92/201/56 91/202/56
f 34/197/57 35/199/57 91/202/57 90/198/57
usemtl FrontMat.001
f 126/203/58 115/204/58 119/205/58
f 131/206/58 134/207/58 156/208/58
f 120/209/58 115/204/58 127/210/58
f 168/211/58 167/212/58 154/213/58
f 127/210/58 126/203/58 131/206/58
f 141/214/58 150/215/58 133/216/58
f 167/212/58 152/217/58 154/213/58
f 179/218/58 175/219/58 178/220/58
f 170/221/58 169/222/58 152/217/58
f 135/223/58 131/206/58 137/224/58
f 129/225/58 143/226/58 141/214/58
f 179/218/58 178/220/58 180/227/58
f 135/223/58 127/210/58 131/206/58
f 134/207/58 133/216/58 150/215/58
f 128/228/58 136/229/58 143/226/58
f 115/204/58 113/230/58 119/205/58
f 164/231/58 165/232/58 168/211/58
f 164/231/58 168/211/58 163/233/58
f 145/234/58 144/235/58 147/236/58
f 158/237/58 151/238/58 144/235/58
f 156/208/58 155/239/58 137/224/58
f 185/240/58 184/241/58 180/227/58
f 125/242/58 116/243/58 122/244/58
f 159/245/58 134/207/58 169/222/58
f 155/239/58 158/237/58 148/246/58
f 160/247/58 164/231/58 162/248/58
f 125/242/58 124/249/58 116/243/58
f 136/229/58 139/250/58 149/251/58
f 137/224/58 131/206/58 156/208/58
f 129/225/58 125/242/58 122/244/58
f 163/233/58 162/248/58 164/231/58
f 153/252/58 151/238/58 158/237/58
f 170/221/58 152/217/58 167/212/58
f 144/235/58 148/246/58 158/237/58
f 148/246/58 137/224/58 155/239/58
f 147/236/58 144/235/58 151/238/58
f 134/207/58 150/215/58 169/222/58
f 182/253/58 185/240/58 180/227/58
f 180/227/58 184/241/58 179/218/58
f 181/254/58 179/218/58 184/241/58
f 175/219/58 170/221/58 173/255/58
f 175/219/58 173/255/58 178/220/58
f 143/226/58 136/229/58 149/251/58
f 129/225/58 128/228/58 143/226/58
f 169/222/58 172/256/58 159/245/58
f 154/213/58 163/233/58 168/211/58
f 124/249/58 117/257/58 116/243/58
f 156/208/58 134/207/58 159/245/58
f 173/255/58 170/221/58 167/212/58
f 152/217/58 169/222/58 150/215/58
f 115/204/58 126/203/58 127/210/58
f 122/244/58 128/228/58 129/225/58
f 172/256/58 176/258/58 159/245/58
f 133/216/58 129/225/58 141/214/58
