# Blender v2.83.1 OBJ File: 'jigsaw-24x24-3-step2.blend'
# www.blender.org
mtllib piece.154.mtl
o path308
v -0.283626 0.037500 -0.563584
v -0.159983 0.037500 -0.582051
v -0.083875 0.037500 -0.565475
v -0.089909 0.037500 -0.497990
v -0.130779 0.037500 -0.402541
v -0.138701 0.037500 -0.311778
v -0.068159 0.037500 -0.253770
v 0.037299 0.037500 -0.238276
v 0.111857 0.037500 -0.270477
v 0.111588 0.037500 -0.348651
v 0.080121 0.037500 -0.443475
v 0.082972 0.037500 -0.518724
v 0.165644 0.037500 -0.547876
v 0.293584 0.037500 -0.543194
v 0.508025 0.037500 -0.511498
v 0.463540 0.037500 -0.296419
v 0.449261 0.037500 -0.167555
v 0.467754 0.037500 -0.083056
v 0.532639 0.037500 -0.077449
v 0.618833 0.037500 -0.106553
v 0.691576 0.037500 -0.106518
v 0.723184 0.037500 -0.034431
v 0.714260 0.037500 0.068864
v 0.672484 0.037500 0.141581
v 0.607866 0.037500 0.142427
v 0.539732 0.037500 0.112090
v 0.489739 0.037500 0.111748
v 0.473242 0.037500 0.184135
v 0.508025 0.037500 0.490411
v 0.276494 0.037500 0.535633
v 0.139166 0.037500 0.549364
v 0.052253 0.037500 0.528280
v 0.053726 0.037500 0.458055
v 0.094613 0.037500 0.364854
v 0.104209 0.037500 0.284962
v 0.034703 0.037500 0.248011
v -0.070130 0.037500 0.257014
v -0.143618 0.037500 0.308330
v -0.141027 0.037500 0.393470
v -0.105374 0.037500 0.484556
v -0.101615 0.037500 0.548866
v -0.175180 0.037500 0.563349
v -0.293409 0.037500 0.543635
v -0.493673 0.037500 0.490411
v -0.473909 0.037500 0.294030
v -0.473969 0.037500 0.176273
v -0.500804 0.037500 0.098840
v -0.563923 0.037500 0.093335
v -0.644446 0.037500 0.120211
v -0.716393 0.037500 0.122129
v -0.757389 0.037500 0.060437
v -0.759458 0.037500 -0.028794
v -0.718226 0.037500 -0.090813
v -0.635901 0.037500 -0.089820
v -0.541017 0.037500 -0.065830
v -0.468689 0.037500 -0.077811
v -0.444288 0.037500 -0.166073
v -0.454206 0.037500 -0.296291
v -0.493673 0.037500 -0.511498
v -0.283626 -0.037500 -0.563584
v -0.159983 -0.037498 -0.582051
v -0.083875 -0.037498 -0.565475
v -0.089909 -0.037500 -0.497990
v -0.130779 -0.037500 -0.402541
v -0.138701 -0.037500 -0.311778
v -0.068159 -0.037500 -0.253770
v 0.037299 -0.037500 -0.238276
v 0.111857 -0.037500 -0.270477
v 0.111588 -0.037498 -0.348651
v 0.080121 -0.037498 -0.443475
v 0.082972 -0.037498 -0.518724
v 0.165644 -0.037500 -0.547876
v 0.293584 -0.037500 -0.543194
v 0.508025 -0.037500 -0.511498
v 0.463540 -0.037500 -0.296419
v 0.449261 -0.037500 -0.167555
v 0.467754 -0.037500 -0.083056
v 0.532639 -0.037498 -0.077449
v 0.618833 -0.037500 -0.106553
v 0.691576 -0.037500 -0.106518
v 0.723184 -0.037500 -0.034431
v 0.714260 -0.037500 0.068864
v 0.672484 -0.037500 0.141581
v 0.607866 -0.037500 0.142427
v 0.539732 -0.037498 0.112090
v 0.489739 -0.037500 0.111748
v 0.473242 -0.037500 0.184135
v 0.508025 -0.037500 0.490411
v 0.276494 -0.037500 0.535633
v 0.139166 -0.037500 0.549364
v 0.052253 -0.037500 0.528280
v 0.053726 -0.037500 0.458055
v 0.094613 -0.037500 0.364854
v 0.104209 -0.037500 0.284962
v 0.034703 -0.037500 0.248011
v -0.070130 -0.037500 0.257014
v -0.143618 -0.037500 0.308330
v -0.141027 -0.037500 0.393470
v -0.105374 -0.037500 0.484556
v -0.101615 -0.037500 0.548866
v -0.175180 -0.037500 0.563349
v -0.293409 -0.037500 0.543635
v -0.493673 -0.037498 0.490411
v -0.473909 -0.037500 0.294030
v -0.473969 -0.037500 0.176273
v -0.500804 -0.037500 0.098840
v -0.563923 -0.037498 0.093335
v -0.644446 -0.037500 0.120211
v -0.716393 -0.037500 0.122129
v -0.757389 -0.037500 0.060437
v -0.759458 -0.037500 -0.028794
v -0.718226 -0.037500 -0.090813
v -0.635901 -0.037500 -0.089820
v -0.541017 -0.037500 -0.065830
v -0.468689 -0.037500 -0.077811
v -0.444288 -0.037500 -0.166073
v -0.454206 -0.037498 -0.296291
v -0.493673 -0.037500 -0.511498
v -0.757389 0.037500 0.060437
v -0.759458 0.037500 -0.028794
v -0.718226 0.037500 -0.090813
v -0.716393 0.037500 0.122129
v -0.635901 0.037500 -0.089820
v -0.644446 0.037500 0.120211
v -0.563923 0.037500 0.093335
v -0.541017 0.037500 -0.065830
v -0.500804 0.037500 0.098840
v -0.500804 0.037500 0.098840
v -0.468689 0.037500 -0.077811
v -0.468689 0.037500 -0.077811
v -0.473969 0.037500 0.176273
v -0.493673 0.037500 0.490411
v -0.493673 0.037500 0.490411
v -0.473909 0.037500 0.294030
v -0.454206 0.037500 -0.296291
v -0.493673 0.037500 -0.511498
v -0.493673 0.037500 -0.511498
v -0.444288 0.037500 -0.166073
v -0.293409 0.037500 0.543635
v -0.283626 0.037500 -0.563584
v -0.175180 0.037500 0.563349
v -0.159983 0.037500 -0.582051
v -0.101615 0.037500 0.548866
v -0.101615 0.037500 0.548866
v -0.143618 0.037500 0.308330
v -0.141027 0.037500 0.393470
v -0.130779 0.037500 -0.402541
v -0.138701 0.037500 -0.311778
v -0.083875 0.037500 -0.565475
v -0.083875 0.037500 -0.565475
v -0.070130 0.037500 0.257014
v -0.105374 0.037500 0.484556
v -0.068159 0.037500 -0.253770
v -0.089909 0.037500 -0.497990
v 0.034703 0.037500 0.248011
v 0.037299 0.037500 -0.238276
v 0.104209 0.037500 0.284962
v 0.104209 0.037500 0.284962
v 0.111857 0.037500 -0.270477
v 0.111857 0.037500 -0.270477
v 0.139166 0.037500 0.549364
v 0.052253 0.037500 0.528280
v 0.052253 0.037500 0.528280
v 0.053726 0.037500 0.458055
v 0.094613 0.037500 0.364854
v 0.111588 0.037500 -0.348651
v 0.080121 0.037500 -0.443475
v 0.082972 0.037500 -0.518724
v 0.082972 0.037500 -0.518724
v 0.165644 0.037500 -0.547876
v 0.276494 0.037500 0.535633
v 0.293584 0.037500 -0.543194
v 0.508025 0.037500 0.490411
v 0.508025 0.037500 0.490411
v 0.473242 0.037500 0.184135
v 0.449261 0.037500 -0.167555
v 0.467754 0.037500 -0.083056
v 0.467754 0.037500 -0.083056
v 0.463540 0.037500 -0.296419
v 0.532639 0.037500 -0.077449
v 0.489739 0.037500 0.111748
v 0.489739 0.037500 0.111748
v 0.508025 0.037500 -0.511498
v 0.508025 0.037500 -0.511498
v 0.539732 0.037500 0.112090
v 0.618833 0.037500 -0.106553
v 0.607866 0.037500 0.142427
v 0.672484 0.037500 0.141581
v 0.691576 0.037500 -0.106518
v 0.691576 0.037500 -0.106518
v 0.714260 0.037500 0.068864
v 0.723184 0.037500 -0.034431
v -0.757389 -0.037500 0.060437
v -0.759458 -0.037500 -0.028794
v -0.718226 -0.037500 -0.090813
v -0.716393 -0.037500 0.122129
v -0.635901 -0.037500 -0.089820
v -0.644446 -0.037500 0.120211
v -0.563923 -0.037498 0.093335
v -0.541017 -0.037500 -0.065830
v -0.500804 -0.037500 0.098840
v -0.500804 -0.037500 0.098840
v -0.468689 -0.037500 -0.077811
v -0.468689 -0.037500 -0.077811
v -0.473969 -0.037500 0.176273
v -0.493673 -0.037498 0.490411
v -0.493673 -0.037498 0.490411
v -0.473909 -0.037500 0.294030
v -0.454206 -0.037498 -0.296291
v -0.493673 -0.037500 -0.511498
v -0.493673 -0.037500 -0.511498
v -0.444288 -0.037500 -0.166073
v -0.293409 -0.037500 0.543635
v -0.283626 -0.037500 -0.563584
v -0.175180 -0.037500 0.563349
v -0.159983 -0.037498 -0.582051
v -0.101615 -0.037500 0.548866
v -0.101615 -0.037500 0.548866
v -0.143618 -0.037500 0.308330
v -0.141027 -0.037500 0.393470
v -0.130779 -0.037500 -0.402541
v -0.138701 -0.037500 -0.311778
v -0.083875 -0.037498 -0.565475
v -0.083875 -0.037498 -0.565475
v -0.070130 -0.037500 0.257014
v -0.105374 -0.037500 0.484556
v -0.068159 -0.037500 -0.253770
v -0.089909 -0.037500 -0.497990
v 0.034703 -0.037500 0.248011
v 0.037299 -0.037500 -0.238276
v 0.104209 -0.037500 0.284962
v 0.104209 -0.037500 0.284962
v 0.111857 -0.037500 -0.270477
v 0.111857 -0.037500 -0.270477
v 0.139166 -0.037500 0.549364
v 0.052253 -0.037500 0.528280
v 0.052253 -0.037500 0.528280
v 0.053726 -0.037500 0.458055
v 0.094613 -0.037500 0.364854
v 0.111588 -0.037498 -0.348651
v 0.080121 -0.037498 -0.443475
v 0.082972 -0.037498 -0.518724
v 0.082972 -0.037498 -0.518724
v 0.165644 -0.037500 -0.547876
v 0.276494 -0.037500 0.535633
v 0.293584 -0.037500 -0.543194
v 0.508025 -0.037500 0.490411
v 0.508025 -0.037500 0.490411
v 0.473242 -0.037500 0.184135
v 0.449261 -0.037500 -0.167555
v 0.467754 -0.037500 -0.083056
v 0.467754 -0.037500 -0.083056
v 0.463540 -0.037500 -0.296419
v 0.532639 -0.037498 -0.077449
v 0.489739 -0.037500 0.111748
v 0.489739 -0.037500 0.111748
v 0.508025 -0.037500 -0.511498
v 0.508025 -0.037500 -0.511498
v 0.539732 -0.037498 0.112090
v 0.618833 -0.037500 -0.106553
v 0.607866 -0.037500 0.142427
v 0.672484 -0.037500 0.141581
v 0.691576 -0.037500 -0.106518
v 0.691576 -0.037500 -0.106518
v 0.714260 -0.037500 0.068864
v 0.723184 -0.037500 -0.034431
vt 0.500000 0.500000
vt 0.500000 0.500000
vt 0.500000 0.500000
vt 0.500000 0.500000
vt 0.500000 0.500000
vt 0.500000 0.500000
vt 0.500000 0.500000
vt 0.500000 0.500000
vt 0.500000 0.500000
vt 0.500000 0.500000
vt 0.500000 0.500000
vt 0.500000 0.500000
vt 0.500000 0.500000
vt 0.500000 0.500000
vt 0.500000 0.500000
vt 0.500000 0.500000
vt 0.500000 0.500000
vt 0.500000 0.500000
vt 0.500000 0.500000
vt 0.500000 0.500000
vt 0.500000 0.500000
vt 0.500000 0.500000
vt 0.500000 0.500000
vt 0.500000 0.500000
vt 0.500000 0.500000
vt 0.500000 0.500000
vt 0.500000 0.500000
vt 0.500000 0.500000
vt 0.500000 0.500000
vt 0.500000 0.500000
vt 0.500000 0.500000
vt 0.500000 0.500000
vt 0.500000 0.500000
vt 0.500000 0.500000
vt 0.500000 0.500000
vt 0.500000 0.500000
vt 0.500000 0.500000
vt 0.500000 0.500000
vt 0.500000 0.500000
vt 0.500000 0.500000
vt 0.500000 0.500000
vt 0.500000 0.500000
vt 0.500000 0.500000
vt 0.500000 0.500000
vt 0.500000 0.500000
vt 0.500000 0.500000
vt 0.500000 0.500000
vt 0.500000 0.500000
vt 0.500000 0.500000
vt 0.500000 0.500000
vt 0.500000 0.500000
vt 0.500000 0.500000
vt 0.500000 0.500000
vt 0.500000 0.500000
vt 0.500000 0.500000
vt 0.500000 0.500000
vt 0.500000 0.500000
vt 0.500000 0.500000
vt 0.500000 0.500000
vt 0.500000 0.500000
vt 0.500000 0.500000
vt 0.500000 0.500000
vt 0.500000 0.500000
vt 0.500000 0.500000
vt 0.500000 0.500000
vt 0.500000 0.500000
vt 0.500000 0.500000
vt 0.500000 0.500000
vt 0.500000 0.500000
vt 0.500000 0.500000
vt 0.500000 0.500000
vt 0.500000 0.500000
vt 0.500000 0.500000
vt 0.500000 0.500000
vt 0.500000 0.500000
vt 0.500000 0.500000
vt 0.500000 0.500000
vt 0.500000 0.500000
vt 0.500000 0.500000
vt 0.500000 0.500000
vt 0.500000 0.500000
vt 0.500000 0.500000
vt 0.500000 0.500000
vt 0.500000 0.500000
vt 0.500000 0.500000
vt 0.500000 0.500000
vt 0.500000 0.500000
vt 0.500000 0.500000
vt 0.500000 0.500000
vt 0.500000 0.500000
vt 0.500000 0.500000
vt 0.500000 0.500000
vt 0.500000 0.500000
vt 0.500000 0.500000
vt 0.500000 0.500000
vt 0.500000 0.500000
vt 0.500000 0.500000
vt 0.500000 0.500000
vt 0.500000 0.500000
vt 0.500000 0.500000
vt 0.500000 0.500000
vt 0.500000 0.500000
vt 0.500000 0.500000
vt 0.500000 0.500000
vt 0.500000 0.500000
vt 0.500000 0.500000
vt 0.500000 0.500000
vt 0.500000 0.500000
vt 0.500000 0.500000
vt 0.500000 0.500000
vt 0.500000 0.500000
vt 0.500000 0.500000
vt 0.500000 0.500000
vt 0.500000 0.500000
vt 0.500000 0.500000
vt 0.500000 0.500000
vt 0.500000 0.500000
vt 0.500000 0.500000
vt 0.500000 0.500000
vt 0.500000 0.500000
vt 0.500000 0.500000
vt 0.500000 0.500000
vt 0.500000 0.500000
vt 0.500000 0.500000
vt 0.500000 0.500000
vt 0.500000 0.500000
vt 0.500000 0.500000
vt 0.500000 0.500000
vt 0.500000 0.500000
vt 0.500000 0.500000
vt 0.500000 0.500000
vt 0.500000 0.500000
vt 0.500000 0.500000
vt 0.500000 0.500000
vt 0.500000 0.500000
vt 0.500000 0.500000
vt 0.500000 0.500000
vt 0.500000 0.500000
vt 0.500000 0.500000
vt 0.500000 0.500000
vt 0.500000 0.500000
vt 0.500000 0.500000
vt 0.500000 0.500000
vt 0.500000 0.500000
vt 0.500000 0.500000
vt 0.500000 0.500000
vt 0.500000 0.500000
vt 0.500000 0.500000
vt 0.500000 0.500000
vt 0.500000 0.500000
vt 0.500000 0.500000
vt 0.500000 0.500000
vt 0.500000 0.500000
vt 0.500000 0.500000
vt 0.500000 0.500000
vt 0.500000 0.500000
vt 0.500000 0.500000
vt 0.500000 0.500000
vt 0.500000 0.500000
vt 0.500000 0.500000
vt 0.500000 0.500000
vt 0.500000 0.500000
vt 0.500000 0.500000
vt 0.500000 0.500000
vt 0.500000 0.500000
vt 0.500000 0.500000
vt 0.500000 0.500000
vt 0.500000 0.500000
vt 0.500000 0.500000
vt 0.500000 0.500000
vt 0.500000 0.500000
vt 0.500000 0.500000
vt 0.500000 0.500000
vt 0.500000 0.500000
vt 0.500000 0.500000
vt 0.500000 0.500000
vt 0.500000 0.500000
vt 0.500000 0.500000
vt 0.500000 0.500000
vt 0.500000 0.500000
vt 0.500000 0.500000
vt 0.500000 0.500000
vt 0.500000 0.500000
vt 0.500000 0.500000
vt 0.500000 0.500000
vt 0.500000 0.500000
vt 0.500000 0.500000
vt 0.500000 0.500000
vt 0.500000 0.500000
vt 0.500000 0.500000
vt 0.500000 0.500000
vt 0.500000 0.500000
vt 0.500000 0.500000
vt 0.500000 0.500000
vt 0.500000 0.500000
vt 0.500000 0.500000
vt 0.500000 0.500000
vt 0.500000 0.500000
vt 0.500000 0.500000
vt 0.500000 0.500000
vt 0.500000 0.500000
vt 0.500000 0.500000
vt 0.500000 0.500000
vt 0.500000 0.500000
vt 0.500000 0.500000
vt 0.500000 0.500000
vt 0.500000 0.500000
vt 0.398132 0.751969
vt 0.391513 0.752922
vt 0.391284 0.750297
vt 0.380222 0.725530
vt 0.376346 0.727230
vt 0.372548 0.723676
vt 0.399825 0.700698
vt 0.399826 0.703724
vt 0.396827 0.699384
vt 0.382572 0.735439
vt 0.383167 0.749178
vt 0.379032 0.735331
vt 0.389507 0.701492
vt 0.392531 0.699755
vt 0.389472 0.704180
vt 0.406643 0.724812
vt 0.405304 0.727914
vt 0.385081 0.728022
vt 0.409894 0.724824
vt 0.407722 0.710184
vt 0.412135 0.734905
vt 0.407717 0.748358
vt 0.408361 0.735235
vt 0.390733 0.707015
vt 0.398616 0.707310
vt 0.383544 0.725131
vt 0.398849 0.710008
vt 0.390747 0.709094
vt 0.387737 0.709780
vt 0.371967 0.736752
vt 0.372569 0.733692
vt 0.375243 0.733848
vt 0.402363 0.710778
vt 0.419601 0.736120
vt 0.418833 0.741263
vt 0.392881 0.760970
vt 0.390316 0.759264
vt 0.390396 0.756272
vt 0.399130 0.755916
vt 0.402301 0.747946
vt 0.405948 0.732300
vt 0.396592 0.761056
vt 0.398631 0.748961
vt 0.416105 0.733205
vt 0.416967 0.726014
vt 0.413838 0.726133
vt 0.418179 0.722575
vt 0.417985 0.717253
vt 0.399171 0.759341
vt 0.416667 0.750000
vt 0.388064 0.749180
vt 0.372786 0.741670
vt 0.373119 0.717964
vt 0.373425 0.727292
vt 0.375000 0.708333
vt 0.384706 0.732382
vt 0.418911 0.732954
vt 0.375000 0.750000
vt 0.416667 0.708333
vn -0.0000 -1.0000 0.0000
vn -0.9997 0.0000 0.0232
vn -0.8328 0.0000 -0.5536
vn -0.8329 0.0000 0.5535
vn 0.0121 0.0000 -0.9999
vn 0.0267 0.0000 0.9996
vn 0.3166 0.0000 0.9486
vn 0.2451 0.0000 -0.9695
vn -0.0869 0.0000 0.9962
vn -0.1634 0.0000 -0.9866
vn -0.9449 0.0000 0.3274
vn -0.9950 0.0000 -0.1001
vn -0.9836 0.0000 0.1804
vn -1.0000 0.0000 0.0005
vn -0.9638 0.0000 -0.2665
vn -0.9971 0.0000 0.0759
vn -0.2569 0.0000 0.9664
vn -0.2407 0.0000 -0.9706
vn -0.1645 0.0000 0.9864
vn -0.1477 0.0000 -0.9890
vn 0.1932 0.0000 0.9812
vn 0.9995 0.0000 -0.0304
vn 0.9962 0.0000 0.0869
vn 0.2128 0.0000 -0.9771
vn 0.5725 0.0000 0.8199
vn 0.9983 0.0000 -0.0584
vn 0.9312 0.0000 -0.3645
vn 0.6351 0.0000 -0.7724
vn 0.9193 0.0000 0.3936
vn 0.9960 0.0000 0.0891
vn 0.0856 0.0000 0.9963
vn 0.1454 0.0000 -0.9894
vn -0.4694 0.0000 0.8830
vn -0.3965 0.0000 -0.9180
vn -0.2357 0.0000 0.9718
vn -0.9998 0.0000 -0.0210
vn -0.9158 0.0000 -0.4017
vn -0.9491 0.0000 0.3150
vn -0.9993 0.0000 -0.0379
vn -0.3326 0.0000 -0.9431
vn -0.9929 0.0000 -0.1193
vn -1.0000 0.0000 0.0034
vn 0.0995 0.0000 0.9950
vn 0.0366 0.0000 -0.9993
vn 0.1917 0.0000 0.9815
vn 0.9936 0.0000 -0.1128
vn 0.9769 0.0000 -0.2138
vn 0.9939 0.0000 0.1101
vn 0.0861 0.0000 -0.9963
vn 0.9750 0.0000 0.2222
vn 0.9793 0.0000 0.2025
vn 0.1462 0.0000 -0.9893
vn -0.0068 0.0000 1.0000
vn -0.3199 0.0000 -0.9474
vn -0.4068 0.0000 0.9135
vn 0.0131 0.0000 0.9999
vn 0.0005 0.0000 -1.0000
vn 0.8671 0.0000 0.4981
vn 0.9963 0.0000 0.0861
vn 0.9158 0.0000 -0.4016
vn 0.0000 1.0000 0.0000
usemtl BackMat.001
s off
f 200/1/1 201/2/1 199/3/1
f 239/4/1 235/5/1 238/6/1
f 263/7/1 266/8/1 260/9/1
f 219/10/1 220/11/1 208/12/1
f 262/13/1 261/14/1 265/15/1
f 233/16/1 229/17/1 230/18/1
f 240/19/1 253/20/1 233/16/1
f 221/21/1 222/22/1 209/23/1
f 259/24/1 254/25/1 265/15/1
f 260/9/1 265/15/1 254/25/1
f 231/26/1 229/17/1 251/27/1
f 255/28/1 249/29/1 231/26/1
f 215/30/1 226/31/1 217/32/1
f 251/27/1 233/16/1 250/33/1
f 216/34/1 221/21/1 214/35/1
f 193/36/1 198/37/1 196/38/1
f 199/3/1 198/37/1 197/39/1
f 222/22/1 227/40/1 212/41/1
f 197/39/1 193/36/1 194/42/1
f 203/43/1 201/2/1 200/1/1
f 255/28/1 231/26/1 251/27/1
f 221/21/1 216/34/1 228/44/1
f 242/45/1 244/46/1 241/47/1
f 253/20/1 240/19/1 246/48/1
f 259/24/1 255/28/1 254/25/1
f 197/39/1 194/42/1 195/49/1
f 214/35/1 209/23/1 210/50/1
f 203/43/1 205/51/1 201/2/1
f 213/52/1 220/11/1 215/30/1
f 251/27/1 229/17/1 233/16/1
f 249/29/1 245/53/1 231/26/1
f 220/11/1 226/31/1 215/30/1
f 266/8/1 265/15/1 260/9/1
f 238/6/1 235/5/1 236/54/1
f 245/53/1 249/29/1 247/55/1
f 230/18/1 229/17/1 225/56/1
f 230/18/1 225/56/1 227/40/1
f 244/46/1 246/48/1 240/19/1
f 214/35/1 221/21/1 209/23/1
f 209/23/1 222/22/1 212/41/1
f 259/24/1 265/15/1 261/14/1
f 212/41/1 227/40/1 203/43/1
f 223/57/1 228/44/1 216/34/1
f 239/4/1 245/53/1 235/5/1
f 208/12/1 213/52/1 206/58/1
f 205/51/1 219/10/1 208/12/1
f 250/33/1 233/16/1 253/20/1
f 241/47/1 244/46/1 240/19/1
f 257/59/1 253/20/1 246/48/1
f 208/12/1 220/11/1 213/52/1
f 225/56/1 219/10/1 205/51/1
f 231/26/1 245/53/1 239/4/1
f 254/25/1 255/28/1 251/27/1
f 227/40/1 225/56/1 203/43/1
f 225/56/1 205/51/1 203/43/1
f 200/1/1 199/3/1 197/39/1
f 193/36/1 197/39/1 198/37/1
f 51/60/2 52/61/2 111/62/2 110/63/2
f 52/61/3 53/64/3 112/65/3 111/62/3
f 50/66/4 51/60/4 110/63/4 109/67/4
f 53/64/5 54/68/5 113/69/5 112/65/5
f 49/70/6 50/66/6 109/67/6 108/71/6
f 48/72/7 49/70/7 108/71/7 107/73/7
f 54/68/8 55/74/8 114/75/8 113/69/8
f 128/76/9 48/72/9 107/73/9 202/77/9
f 55/74/10 130/78/10 204/79/10 114/75/10
f 46/80/11 47/81/11 106/82/11 105/83/11
f 133/84/12 45/85/12 104/86/12 207/87/12
f 58/88/13 137/89/13 211/90/13 117/91/13
f 45/85/14 46/80/14 105/83/14 104/86/14
f 56/92/15 57/93/15 116/94/15 115/95/15
f 57/93/16 58/88/16 117/91/16 116/94/16
f 43/96/17 44/97/17 103/98/17 102/99/17
f 59/100/18 1/101/18 60/102/18 118/103/18
f 42/104/19 43/96/19 102/99/19 101/105/19
f 1/101/20 2/106/20 61/107/20 60/102/20
f 144/108/21 42/104/21 101/105/21 218/109/21
f 38/110/22 39/111/22 98/112/22 97/113/22
f 5/114/23 6/115/23 65/116/23 64/117/23
f 2/106/24 150/118/24 224/119/24 61/107/24
f 37/120/25 38/110/25 97/113/25 96/121/25
f 40/122/26 41/123/26 100/124/26 99/125/26
f 39/111/27 40/122/27 99/125/27 98/112/27
f 6/115/28 7/126/28 66/127/28 65/116/28
f 4/128/29 5/114/29 64/117/29 63/129/29
f 3/130/30 4/128/30 63/129/30 62/131/30
f 36/132/31 37/120/31 96/121/31 95/133/31
f 7/126/32 8/134/32 67/135/32 66/127/32
f 158/136/33 36/132/33 95/133/33 232/137/33
f 8/134/34 160/138/34 234/139/34 67/135/34
f 31/140/35 163/141/35 237/142/35 90/143/35
f 32/144/36 33/145/36 92/146/36 91/147/36
f 33/145/37 34/148/37 93/149/37 92/146/37
f 10/150/38 11/151/38 70/152/38 69/153/38
f 11/151/39 169/154/39 243/155/39 70/152/39
f 12/156/40 13/157/40 72/158/40 71/159/40
f 34/148/41 35/160/41 94/161/41 93/149/41
f 9/162/42 10/150/42 69/153/42 68/163/42
f 30/164/43 31/140/43 90/143/43 89/165/43
f 13/157/44 14/166/44 73/167/44 72/158/44
f 174/168/45 30/164/45 89/165/45 248/169/45
f 28/170/46 29/171/46 88/172/46 87/173/46
f 17/174/47 178/175/47 252/176/47 76/177/47
f 16/178/48 17/174/48 76/177/48 75/179/48
f 18/180/49 19/181/49 78/182/49 77/183/49
f 182/184/50 28/170/50 87/173/50 256/185/50
f 184/186/51 16/178/51 75/179/51 258/187/51
f 14/166/52 15/188/52 74/189/52 73/167/52
f 26/190/53 27/191/53 86/192/53 85/193/53
f 19/181/54 20/194/54 79/195/54 78/182/54
f 25/196/55 26/190/55 85/193/55 84/197/55
f 24/198/56 25/196/56 84/197/56 83/199/56
f 20/194/57 190/200/57 264/201/57 79/195/57
f 23/202/58 24/198/58 83/199/58 82/203/58
f 22/204/59 23/202/59 82/203/59 81/205/59
f 21/206/60 22/204/60 81/205/60 80/207/60
usemtl FrontMat.001
f 126/208/61 125/209/61 127/210/61
f 165/211/61 164/212/61 161/213/61
f 189/214/61 186/215/61 192/216/61
f 145/217/61 134/218/61 146/219/61
f 188/220/61 191/221/61 187/222/61
f 159/223/61 156/224/61 155/225/61
f 166/226/61 159/223/61 179/227/61
f 147/228/61 135/229/61 148/230/61
f 185/231/61 191/221/61 180/232/61
f 186/215/61 180/232/61 191/221/61
f 157/233/61 177/234/61 155/225/61
f 181/235/61 157/233/61 175/236/61
f 141/237/61 143/238/61 152/239/61
f 177/234/61 176/240/61 159/223/61
f 142/241/61 140/242/61 147/228/61
f 119/243/61 122/244/61 124/245/61
f 125/209/61 123/246/61 124/245/61
f 148/230/61 138/247/61 153/248/61
f 123/246/61 120/249/61 119/243/61
f 129/250/61 126/208/61 127/210/61
f 181/235/61 177/234/61 157/233/61
f 147/228/61 154/251/61 142/241/61
f 168/252/61 167/253/61 170/254/61
f 179/227/61 172/255/61 166/226/61
f 185/231/61 180/232/61 181/235/61
f 123/246/61 121/256/61 120/249/61
f 140/242/61 136/257/61 135/229/61
f 129/250/61 127/210/61 131/258/61
f 139/259/61 141/237/61 146/219/61
f 177/234/61 159/223/61 155/225/61
f 175/236/61 157/233/61 171/260/61
f 146/219/61 141/237/61 152/239/61
f 192/216/61 186/215/61 191/221/61
f 164/212/61 162/261/61 161/213/61
f 171/260/61 173/262/61 175/236/61
f 156/224/61 151/263/61 155/225/61
f 156/224/61 153/248/61 151/263/61
f 170/254/61 166/226/61 172/255/61
f 140/242/61 135/229/61 147/228/61
f 135/229/61 138/247/61 148/230/61
f 185/231/61 187/222/61 191/221/61
f 138/247/61 129/250/61 153/248/61
f 149/264/61 142/241/61 154/251/61
f 165/211/61 161/213/61 171/260/61
f 134/218/61 132/265/61 139/259/61
f 131/258/61 134/218/61 145/217/61
f 176/240/61 179/227/61 159/223/61
f 167/253/61 166/226/61 170/254/61
f 183/266/61 172/255/61 179/227/61
f 134/218/61 139/259/61 146/219/61
f 151/263/61 131/258/61 145/217/61
f 157/233/61 165/211/61 171/260/61
f 180/232/61 177/234/61 181/235/61
f 153/248/61 129/250/61 151/263/61
f 151/263/61 129/250/61 131/258/61
f 126/208/61 123/246/61 125/209/61
f 119/243/61 124/245/61 123/246/61
