# Blender v2.83.1 OBJ File: 'jigsaw-24x24-3-step2.blend'
# www.blender.org
mtllib piece.114.mtl
o path228_path228.001
v 0.301108 0.037500 0.548363
v 0.183281 0.037500 0.558874
v 0.109056 0.037500 0.532743
v 0.110707 0.037500 0.455584
v 0.143842 0.037500 0.355074
v 0.144905 0.037500 0.269417
v 0.071675 0.037500 0.229475
v -0.032722 0.037500 0.236809
v -0.103823 0.037500 0.285637
v -0.099102 0.037500 0.366364
v -0.063774 0.037500 0.454123
v -0.064990 0.037500 0.520224
v -0.149291 0.037500 0.544111
v -0.280787 0.037500 0.537750
v -0.501681 0.037500 0.506338
v -0.449758 0.037500 0.279381
v -0.432902 0.037500 0.143476
v -0.453939 0.037500 0.054537
v -0.528953 0.037500 0.049339
v -0.630331 0.037500 0.082706
v -0.719534 0.037500 0.088970
v -0.765281 0.037500 0.023771
v -0.765315 0.037500 -0.072033
v -0.724633 0.037500 -0.136278
v -0.651859 0.037500 -0.127893
v -0.570132 0.037500 -0.090199
v -0.506215 0.037500 -0.087614
v -0.479554 0.037500 -0.164864
v -0.480302 0.037500 -0.287828
v -0.501681 0.037500 -0.495571
v -0.137423 0.037500 -0.524603
v -0.047714 0.037500 -0.501617
v -0.041707 0.037500 -0.441784
v -0.074588 0.037500 -0.364555
v -0.081123 0.037500 -0.296741
v -0.017147 0.037500 -0.260738
v 0.077204 0.037500 -0.261295
v 0.140721 0.037500 -0.298746
v 0.132962 0.037500 -0.368715
v 0.096562 0.037500 -0.448008
v 0.094920 0.037500 -0.508713
v 0.172009 0.037500 -0.530674
v 0.294081 0.037500 -0.524712
v 0.500016 0.037500 -0.495571
v 0.479623 0.037500 -0.286631
v 0.478734 0.037500 -0.162323
v 0.503657 0.037500 -0.082798
v 0.563695 0.037500 -0.082226
v 0.640530 0.037500 -0.117414
v 0.708938 0.037500 -0.125830
v 0.747445 0.037500 -0.065052
v 0.749556 0.037500 0.026856
v 0.712524 0.037500 0.091707
v 0.639150 0.037500 0.091078
v 0.554397 0.037500 0.065561
v 0.488773 0.037500 0.075504
v 0.464414 0.037500 0.162336
v 0.469973 0.037500 0.291767
v 0.500016 0.037500 0.506338
v 0.301108 -0.037500 0.548363
v 0.183281 -0.037500 0.558874
v 0.109056 -0.037500 0.532743
v 0.110707 -0.037500 0.455584
v 0.143842 -0.037500 0.355074
v 0.144905 -0.037500 0.269417
v 0.071675 -0.037500 0.229475
v -0.032722 -0.037500 0.236809
v -0.103823 -0.037500 0.285637
v -0.099102 -0.037500 0.366364
v -0.063774 -0.037500 0.454123
v -0.064990 -0.037500 0.520224
v -0.149291 -0.037500 0.544111
v -0.280787 -0.037500 0.537750
v -0.501681 -0.037500 0.506338
v -0.449758 -0.037500 0.279381
v -0.432902 -0.037500 0.143476
v -0.453939 -0.037500 0.054537
v -0.528953 -0.037500 0.049339
v -0.630331 -0.037500 0.082706
v -0.719534 -0.037498 0.088970
v -0.765281 -0.037500 0.023771
v -0.765315 -0.037500 -0.072033
v -0.724633 -0.037500 -0.136278
v -0.651859 -0.037500 -0.127893
v -0.570132 -0.037500 -0.090199
v -0.506215 -0.037500 -0.087614
v -0.479554 -0.037500 -0.164864
v -0.480302 -0.037500 -0.287828
v -0.501681 -0.037500 -0.495571
v -0.137423 -0.037498 -0.524603
v -0.047714 -0.037498 -0.501617
v -0.041707 -0.037500 -0.441784
v -0.074588 -0.037500 -0.364555
v -0.081123 -0.037500 -0.296741
v -0.017147 -0.037498 -0.260738
v 0.077204 -0.037500 -0.261295
v 0.140721 -0.037500 -0.298746
v 0.132962 -0.037500 -0.368715
v 0.096562 -0.037500 -0.448008
v 0.094920 -0.037498 -0.508713
v 0.172009 -0.037500 -0.530674
v 0.294081 -0.037500 -0.524712
v 0.500016 -0.037500 -0.495571
v 0.479623 -0.037500 -0.286631
v 0.478734 -0.037500 -0.162323
v 0.503657 -0.037500 -0.082798
v 0.563695 -0.037500 -0.082226
v 0.640530 -0.037498 -0.117414
v 0.708938 -0.037500 -0.125830
v 0.747445 -0.037500 -0.065052
v 0.749556 -0.037500 0.026856
v 0.712524 -0.037500 0.091707
v 0.639150 -0.037500 0.091078
v 0.554397 -0.037498 0.065561
v 0.488773 -0.037500 0.075504
v 0.464414 -0.037500 0.162336
v 0.469973 -0.037500 0.291767
v 0.500016 -0.037500 0.506338
v 0.747445 0.037500 -0.065052
v 0.749556 0.037500 0.026856
v 0.712524 0.037500 0.091707
v 0.712524 0.037500 0.091707
v 0.708938 0.037500 -0.125830
v 0.708938 0.037500 -0.125830
v 0.639150 0.037500 0.091078
v 0.640530 0.037500 -0.117414
v 0.563695 0.037500 -0.082226
v 0.554397 0.037500 0.065561
v 0.503657 0.037500 -0.082798
v 0.503657 0.037500 -0.082798
v 0.488773 0.037500 0.075504
v 0.488773 0.037500 0.075504
v 0.478734 0.037500 -0.162323
v 0.500016 0.037500 -0.495571
v 0.500016 0.037500 -0.495571
v 0.479623 0.037500 -0.286631
v 0.464414 0.037500 0.162336
v 0.469973 0.037500 0.291767
v 0.500016 0.037500 0.506338
v 0.500016 0.037500 0.506338
v 0.301108 0.037500 0.548363
v 0.294081 0.037500 -0.524712
v 0.183281 0.037500 0.558874
v 0.172009 0.037500 -0.530674
v 0.109056 0.037500 0.532743
v 0.109056 0.037500 0.532743
v 0.094920 0.037500 -0.508713
v 0.094920 0.037500 -0.508713
v 0.140721 0.037500 -0.298746
v 0.140721 0.037500 -0.298746
v 0.132962 0.037500 -0.368715
v 0.143842 0.037500 0.355074
v 0.144905 0.037500 0.269417
v 0.144905 0.037500 0.269417
v 0.071675 0.037500 0.229475
v 0.110707 0.037500 0.455584
v 0.077204 0.037500 -0.261295
v 0.096562 0.037500 -0.448008
v -0.017147 0.037500 -0.260738
v -0.032722 0.037500 0.236809
v -0.081123 0.037500 -0.296741
v -0.081123 0.037500 -0.296741
v -0.103823 0.037500 0.285637
v -0.047714 0.037500 -0.501617
v -0.047714 0.037500 -0.501617
v -0.041707 0.037500 -0.441784
v -0.074588 0.037500 -0.364555
v -0.137423 0.037500 -0.524603
v -0.099102 0.037500 0.366364
v -0.063774 0.037500 0.454123
v -0.064990 0.037500 0.520224
v -0.064990 0.037500 0.520224
v -0.149291 0.037500 0.544111
v -0.280787 0.037500 0.537750
v -0.501681 0.037500 -0.495571
v -0.501681 0.037500 -0.495571
v -0.432902 0.037500 0.143476
v -0.453939 0.037500 0.054537
v -0.453939 0.037500 0.054537
v -0.449758 0.037500 0.279381
v -0.479554 0.037500 -0.164864
v -0.480302 0.037500 -0.287828
v -0.528953 0.037500 0.049339
v -0.501681 0.037500 0.506338
v -0.501681 0.037500 0.506338
v -0.506215 0.037500 -0.087614
v -0.506215 0.037500 -0.087614
v -0.570132 0.037500 -0.090199
v -0.630331 0.037500 0.082706
v -0.651859 0.037500 -0.127893
v -0.719534 0.037500 0.088970
v -0.724633 0.037500 -0.136278
v -0.724633 0.037500 -0.136278
v -0.765281 0.037500 0.023771
v -0.765315 0.037500 -0.072033
v 0.747445 -0.037500 -0.065052
v 0.749556 -0.037500 0.026856
v 0.712524 -0.037500 0.091707
v 0.712524 -0.037500 0.091707
v 0.708938 -0.037500 -0.125830
v 0.708938 -0.037500 -0.125830
v 0.639150 -0.037500 0.091078
v 0.640530 -0.037498 -0.117414
v 0.563695 -0.037500 -0.082226
v 0.554397 -0.037498 0.065561
v 0.503657 -0.037500 -0.082798
v 0.503657 -0.037500 -0.082798
v 0.488773 -0.037500 0.075504
v 0.488773 -0.037500 0.075504
v 0.478734 -0.037500 -0.162323
v 0.500016 -0.037500 -0.495571
v 0.500016 -0.037500 -0.495571
v 0.479623 -0.037500 -0.286631
v 0.464414 -0.037500 0.162336
v 0.469973 -0.037500 0.291767
v 0.500016 -0.037500 0.506338
v 0.500016 -0.037500 0.506338
v 0.301108 -0.037500 0.548363
v 0.294081 -0.037500 -0.524712
v 0.183281 -0.037500 0.558874
v 0.172009 -0.037500 -0.530674
v 0.109056 -0.037500 0.532743
v 0.109056 -0.037500 0.532743
v 0.094920 -0.037498 -0.508713
v 0.094920 -0.037498 -0.508713
v 0.140721 -0.037500 -0.298746
v 0.140721 -0.037500 -0.298746
v 0.132962 -0.037500 -0.368715
v 0.143842 -0.037500 0.355074
v 0.144905 -0.037500 0.269417
v 0.144905 -0.037500 0.269417
v 0.071675 -0.037500 0.229475
v 0.110707 -0.037500 0.455584
v 0.077204 -0.037500 -0.261295
v 0.096562 -0.037500 -0.448008
v -0.017147 -0.037498 -0.260738
v -0.032722 -0.037500 0.236809
v -0.081123 -0.037500 -0.296741
v -0.081123 -0.037500 -0.296741
v -0.103823 -0.037500 0.285637
v -0.047714 -0.037498 -0.501617
v -0.047714 -0.037498 -0.501617
v -0.041707 -0.037500 -0.441784
v -0.074588 -0.037500 -0.364555
v -0.137423 -0.037498 -0.524603
v -0.099102 -0.037500 0.366364
v -0.063774 -0.037500 0.454123
v -0.064990 -0.037500 0.520224
v -0.064990 -0.037500 0.520224
v -0.149291 -0.037500 0.544111
v -0.280787 -0.037500 0.537750
v -0.501681 -0.037500 -0.495571
v -0.501681 -0.037500 -0.495571
v -0.432902 -0.037500 0.143476
v -0.453939 -0.037500 0.054537
v -0.453939 -0.037500 0.054537
v -0.449758 -0.037500 0.279381
v -0.479554 -0.037500 -0.164864
v -0.480302 -0.037500 -0.287828
v -0.528953 -0.037500 0.049339
v -0.501681 -0.037500 0.506338
v -0.501681 -0.037500 0.506338
v -0.506215 -0.037500 -0.087614
v -0.506215 -0.037500 -0.087614
v -0.570132 -0.037500 -0.090199
v -0.630331 -0.037500 0.082706
v -0.651859 -0.037500 -0.127893
v -0.719534 -0.037498 0.088970
v -0.724633 -0.037500 -0.136278
v -0.724633 -0.037500 -0.136278
v -0.765281 -0.037500 0.023771
v -0.765315 -0.037500 -0.072033
vt 0.500000 0.500000
vt 0.500000 0.500000
vt 0.500000 0.500000
vt 0.500000 0.500000
vt 0.500000 0.500000
vt 0.500000 0.500000
vt 0.500000 0.500000
vt 0.500000 0.500000
vt 0.500000 0.500000
vt 0.500000 0.500000
vt 0.500000 0.500000
vt 0.500000 0.500000
vt 0.500000 0.500000
vt 0.500000 0.500000
vt 0.500000 0.500000
vt 0.500000 0.500000
vt 0.500000 0.500000
vt 0.500000 0.500000
vt 0.500000 0.500000
vt 0.500000 0.500000
vt 0.500000 0.500000
vt 0.500000 0.500000
vt 0.500000 0.500000
vt 0.500000 0.500000
vt 0.500000 0.500000
vt 0.500000 0.500000
vt 0.500000 0.500000
vt 0.500000 0.500000
vt 0.500000 0.500000
vt 0.500000 0.500000
vt 0.500000 0.500000
vt 0.500000 0.500000
vt 0.500000 0.500000
vt 0.500000 0.500000
vt 0.500000 0.500000
vt 0.500000 0.500000
vt 0.500000 0.500000
vt 0.500000 0.500000
vt 0.500000 0.500000
vt 0.500000 0.500000
vt 0.500000 0.500000
vt 0.500000 0.500000
vt 0.500000 0.500000
vt 0.500000 0.500000
vt 0.500000 0.500000
vt 0.500000 0.500000
vt 0.500000 0.500000
vt 0.500000 0.500000
vt 0.500000 0.500000
vt 0.500000 0.500000
vt 0.500000 0.500000
vt 0.500000 0.500000
vt 0.500000 0.500000
vt 0.500000 0.500000
vt 0.500000 0.500000
vt 0.500000 0.500000
vt 0.500000 0.500000
vt 0.500000 0.500000
vt 0.500000 0.500000
vt 0.500000 0.500000
vt 0.500000 0.500000
vt 0.500000 0.500000
vt 0.500000 0.500000
vt 0.500000 0.500000
vt 0.500000 0.500000
vt 0.500000 0.500000
vt 0.500000 0.500000
vt 0.500000 0.500000
vt 0.500000 0.500000
vt 0.500000 0.500000
vt 0.500000 0.500000
vt 0.500000 0.500000
vt 0.500000 0.500000
vt 0.500000 0.500000
vt 0.500000 0.500000
vt 0.500000 0.500000
vt 0.500000 0.500000
vt 0.500000 0.500000
vt 0.500000 0.500000
vt 0.500000 0.500000
vt 0.500000 0.500000
vt 0.500000 0.500000
vt 0.500000 0.500000
vt 0.500000 0.500000
vt 0.500000 0.500000
vt 0.500000 0.500000
vt 0.500000 0.500000
vt 0.500000 0.500000
vt 0.500000 0.500000
vt 0.500000 0.500000
vt 0.500000 0.500000
vt 0.500000 0.500000
vt 0.500000 0.500000
vt 0.500000 0.500000
vt 0.500000 0.500000
vt 0.500000 0.500000
vt 0.500000 0.500000
vt 0.500000 0.500000
vt 0.500000 0.500000
vt 0.500000 0.500000
vt 0.500000 0.500000
vt 0.500000 0.500000
vt 0.500000 0.500000
vt 0.500000 0.500000
vt 0.500000 0.500000
vt 0.500000 0.500000
vt 0.500000 0.500000
vt 0.500000 0.500000
vt 0.500000 0.500000
vt 0.500000 0.500000
vt 0.500000 0.500000
vt 0.500000 0.500000
vt 0.500000 0.500000
vt 0.500000 0.500000
vt 0.500000 0.500000
vt 0.500000 0.500000
vt 0.500000 0.500000
vt 0.500000 0.500000
vt 0.500000 0.500000
vt 0.500000 0.500000
vt 0.500000 0.500000
vt 0.500000 0.500000
vt 0.500000 0.500000
vt 0.500000 0.500000
vt 0.500000 0.500000
vt 0.500000 0.500000
vt 0.500000 0.500000
vt 0.500000 0.500000
vt 0.500000 0.500000
vt 0.500000 0.500000
vt 0.500000 0.500000
vt 0.500000 0.500000
vt 0.500000 0.500000
vt 0.500000 0.500000
vt 0.500000 0.500000
vt 0.500000 0.500000
vt 0.500000 0.500000
vt 0.500000 0.500000
vt 0.500000 0.500000
vt 0.500000 0.500000
vt 0.500000 0.500000
vt 0.500000 0.500000
vt 0.500000 0.500000
vt 0.500000 0.500000
vt 0.500000 0.500000
vt 0.500000 0.500000
vt 0.500000 0.500000
vt 0.500000 0.500000
vt 0.500000 0.500000
vt 0.500000 0.500000
vt 0.500000 0.500000
vt 0.500000 0.500000
vt 0.500000 0.500000
vt 0.500000 0.500000
vt 0.500000 0.500000
vt 0.500000 0.500000
vt 0.500000 0.500000
vt 0.500000 0.500000
vt 0.500000 0.500000
vt 0.500000 0.500000
vt 0.500000 0.500000
vt 0.500000 0.500000
vt 0.500000 0.500000
vt 0.500000 0.500000
vt 0.500000 0.500000
vt 0.500000 0.500000
vt 0.500000 0.500000
vt 0.500000 0.500000
vt 0.500000 0.500000
vt 0.500000 0.500000
vt 0.500000 0.500000
vt 0.500000 0.500000
vt 0.500000 0.500000
vt 0.500000 0.500000
vt 0.500000 0.500000
vt 0.500000 0.500000
vt 0.500000 0.500000
vt 0.500000 0.500000
vt 0.500000 0.500000
vt 0.500000 0.500000
vt 0.500000 0.500000
vt 0.500000 0.500000
vt 0.500000 0.500000
vt 0.500000 0.500000
vt 0.500000 0.500000
vt 0.500000 0.500000
vt 0.500000 0.500000
vt 0.500000 0.500000
vt 0.500000 0.500000
vt 0.500000 0.500000
vt 0.500000 0.500000
vt 0.500000 0.500000
vt 0.500000 0.500000
vt 0.500000 0.500000
vt 0.500000 0.500000
vt 0.500000 0.500000
vt 0.500000 0.500000
vt 0.500000 0.500000
vt 0.500000 0.500000
vt 0.500000 0.500000
vt 0.500000 0.500000
vt 0.500000 0.500000
vt 0.500000 0.500000
vt 0.500000 0.500000
vt 0.500000 0.500000
vt 0.500000 0.500000
vt 0.500000 0.500000
vt 0.500000 0.500000
vt 0.500000 0.500000
vt 0.500000 0.500000
vt 0.500000 0.500000
vt 0.500000 0.500000
vt 0.500000 0.500000
vt 0.729931 0.780702
vt 0.732643 0.782605
vt 0.732382 0.786315
vt 0.740822 0.808216
vt 0.740561 0.793827
vt 0.744179 0.808412
vt 0.713609 0.818065
vt 0.716519 0.818388
vt 0.707121 0.824767
vt 0.723624 0.785420
vt 0.725947 0.780701
vt 0.730995 0.790532
vt 0.725192 0.788819
vt 0.751306 0.800855
vt 0.751571 0.806325
vt 0.750000 0.791667
vt 0.707787 0.816483
vt 0.710311 0.816551
vt 0.706873 0.819690
vt 0.713782 0.809432
vt 0.710570 0.810800
vt 0.707126 0.806818
vt 0.738486 0.815516
vt 0.740147 0.818562
vt 0.732083 0.832866
vt 0.743709 0.818518
vt 0.747889 0.817140
vt 0.751748 0.825060
vt 0.735694 0.831852
vt 0.741076 0.832084
vt 0.725523 0.835982
vt 0.725499 0.833485
vt 0.731669 0.835595
vt 0.725299 0.791478
vt 0.716602 0.809160
vt 0.722086 0.792587
vt 0.731211 0.793653
vt 0.734909 0.794528
vt 0.716973 0.792556
vt 0.722192 0.832448
vt 0.718076 0.815746
vt 0.732730 0.839121
vt 0.730060 0.843713
vt 0.724060 0.839178
vt 0.750577 0.809831
vt 0.747828 0.809882
vt 0.708333 0.791667
vt 0.726237 0.843625
vt 0.718099 0.811821
vt 0.738791 0.811174
vt 0.752185 0.820158
vt 0.723710 0.842024
vt 0.717022 0.832485
vt 0.732757 0.842173
vt 0.708082 0.810550
vt 0.708333 0.833333
vt 0.723275 0.782393
vt 0.751098 0.817071
vt 0.750000 0.833333
vn -0.0000 -1.0000 0.0001
vn 0.0000 -1.0000 0.0000
vn 0.9997 0.0000 -0.0230
vn 0.8684 0.0000 0.4959
vn 0.8447 0.0000 -0.5352
vn -0.0086 0.0000 1.0000
vn -0.1221 0.0000 -0.9925
vn -0.4164 0.0000 -0.9092
vn -0.2883 0.0000 0.9575
vn 0.0095 0.0000 -1.0000
vn 0.1498 0.0000 0.9887
vn 0.9542 0.0000 -0.2991
vn 0.9953 0.0000 0.0971
vn 0.9628 0.0000 0.2701
vn 0.9903 0.0000 -0.1387
vn 1.0000 0.0000 0.0072
vn 0.9991 0.0000 -0.0429
vn 0.2067 0.0000 0.9784
vn 0.1401 0.0000 -0.9901
vn 0.0889 0.0000 0.9960
vn 0.0488 0.0000 -0.9988
vn -0.3321 0.0000 0.9433
vn -0.2740 0.0000 -0.9617
vn -0.9939 0.0000 0.1102
vn -0.9999 0.0000 -0.0124
vn -0.4788 0.0000 0.8779
vn -0.9497 0.0000 -0.3131
vn -0.9998 0.0000 -0.0214
vn -0.5079 0.0000 -0.8614
vn -0.9996 0.0000 0.0270
vn -0.9088 0.0000 0.4172
vn -0.0059 0.0000 -1.0000
vn 0.0701 0.0000 0.9975
vn 0.4904 0.0000 -0.8715
vn 0.5661 0.0000 0.8243
vn 0.9950 0.0000 -0.0999
vn 0.9201 0.0000 0.3917
vn 0.2482 0.0000 -0.9687
vn 0.9277 0.0000 -0.3734
vn 0.9998 0.0000 0.0184
vn 0.2726 0.0000 0.9621
vn 0.9954 0.0000 0.0959
vn 0.9983 0.0000 -0.0584
vn -0.0483 0.0000 0.9988
vn -0.0794 0.0000 -0.9968
vn -0.9731 0.0000 0.2302
vn -0.9924 0.0000 -0.1231
vn -1.0000 0.0000 0.0061
vn -0.0691 0.0000 0.9976
vn -0.9748 0.0000 -0.2230
vn -0.1408 0.0000 0.9900
vn -0.9453 0.0000 -0.3262
vn -0.9947 0.0000 0.1024
vn 0.0404 0.0000 -0.9992
vn 0.3126 0.0000 0.9499
vn 0.4188 0.0000 -0.9081
vn 0.0700 0.0000 0.9975
vn 0.1145 0.0000 -0.9934
vn -0.8186 0.0000 0.5744
vn -0.8449 0.0000 -0.5350
vn -1.0000 0.0000 0.0004
vn 0.0000 1.0000 0.0000
usemtl BackMat.001
s off
f 271/1/1 266/2/1 268/3/1
f 240/4/2 246/5/2 257/6/2
f 228/7/2 219/8/2 226/9/2
f 267/10/2 271/1/2 272/11/2
f 260/12/2 266/2/2 265/13/2
f 251/14/2 246/5/2 250/15/2
f 257/6/2 251/14/2 261/16/2
f 224/17/2 221/18/2 235/19/2
f 244/20/2 245/21/2 243/22/2
f 232/23/2 208/24/2 230/25/2
f 229/26/2 218/27/2 233/28/2
f 214/29/2 215/30/2 230/25/2
f 204/31/2 205/32/2 206/33/2
f 263/34/2 260/12/2 265/13/2
f 266/2/2 271/1/2 267/10/2
f 238/35/2 255/36/2 258/37/2
f 258/37/2 255/36/2 263/34/2
f 254/38/2 240/4/2 257/6/2
f 221/18/2 219/8/2 228/7/2
f 245/21/2 244/20/2 259/39/2
f 206/33/2 234/40/2 210/41/2
f 202/42/2 203/43/2 197/44/2
f 250/15/2 247/45/2 248/46/2
f 245/21/2 259/39/2 252/47/2
f 259/39/2 238/35/2 258/37/2
f 196/48/2 197/44/2 203/43/2
f 236/49/2 237/50/2 255/36/2
f 235/19/2 221/18/2 228/7/2
f 237/50/2 240/4/2 254/38/2
f 208/24/2 234/40/2 206/33/2
f 233/28/2 218/27/2 220/51/2
f 200/52/2 196/48/2 203/43/2
f 205/32/2 204/31/2 202/42/2
f 234/40/2 232/23/2 236/49/2
f 208/24/2 214/29/2 230/25/2
f 205/32/2 208/24/2 206/33/2
f 244/20/2 238/35/2 259/39/2
f 246/5/2 247/45/2 250/15/2
f 236/49/2 232/23/2 237/50/2
f 210/41/2 226/9/2 213/53/2
f 198/54/2 202/42/2 197/44/2
f 234/40/2 208/24/2 232/23/2
f 263/34/2 255/36/2 260/12/2
f 243/22/2 245/21/2 241/55/2
f 211/56/2 213/53/2 219/8/2
f 236/49/2 255/36/2 238/35/2
f 267/10/2 272/11/2 269/57/2
f 257/6/2 246/5/2 251/14/2
f 213/53/2 226/9/2 219/8/2
f 265/13/2 266/2/2 267/10/2
f 229/26/2 215/30/2 218/27/2
f 203/43/2 202/42/2 204/31/2
f 233/28/2 220/51/2 222/58/2
f 218/27/2 215/30/2 216/59/2
f 230/25/2 215/30/2 229/26/2
f 226/9/2 210/41/2 234/40/2
f 237/50/2 254/38/2 255/36/2
f 51/60/3 52/61/3 111/62/3 110/63/3
f 52/61/4 122/64/4 199/65/4 111/62/4
f 124/66/5 51/60/5 110/63/5 201/67/5
f 53/68/6 54/69/6 113/70/6 112/71/6
f 49/72/7 50/73/7 109/74/7 108/75/7
f 48/76/8 49/72/8 108/75/8 107/77/8
f 54/69/9 55/78/9 114/79/9 113/70/9
f 130/80/10 48/76/10 107/77/10 207/81/10
f 55/78/11 132/82/11 209/83/11 114/79/11
f 46/84/12 47/85/12 106/86/12 105/87/12
f 135/88/13 45/89/13 104/90/13 212/91/13
f 56/92/14 57/93/14 116/94/14 115/95/14
f 58/96/15 140/97/15 217/98/15 117/99/15
f 45/89/16 46/84/16 105/87/16 104/90/16
f 57/93/17 58/96/17 117/99/17 116/94/17
f 59/100/18 1/101/18 60/102/18 118/103/18
f 43/104/19 44/105/19 103/106/19 102/107/19
f 1/101/20 2/108/20 61/109/20 60/102/20
f 42/110/21 43/104/21 102/107/21 101/111/21
f 2/108/22 146/112/22 223/113/22 61/109/22
f 148/114/23 42/110/23 101/111/23 225/115/23
f 150/116/24 39/117/24 98/118/24 227/119/24
f 5/120/25 154/121/25 231/122/25 64/123/25
f 6/124/26 7/125/26 66/126/26 65/127/26
f 4/128/27 5/120/27 64/123/27 63/129/27
f 3/130/28 4/128/28 63/129/28 62/131/28
f 37/132/29 38/133/29 97/134/29 96/135/29
f 40/136/30 41/137/30 100/138/30 99/139/30
f 39/117/31 40/136/31 99/139/31 98/118/31
f 36/140/32 37/132/32 96/135/32 95/141/32
f 7/125/33 8/142/33 67/143/33 66/126/33
f 162/144/34 36/140/34 95/141/34 239/145/34
f 8/142/35 9/146/35 68/147/35 67/143/35
f 165/148/36 33/149/36 92/150/36 242/151/36
f 33/149/37 34/152/37 93/153/37 92/150/37
f 31/154/38 32/155/38 91/156/38 90/157/38
f 10/158/39 11/159/39 70/160/39 69/161/39
f 11/159/40 172/162/40 249/163/40 70/160/40
f 12/164/41 13/165/41 72/166/41 71/167/41
f 34/152/42 35/168/42 94/169/42 93/153/42
f 9/146/43 10/158/43 69/161/43 68/147/43
f 13/165/44 14/170/44 73/171/44 72/166/44
f 176/172/45 31/154/45 90/157/45 253/173/45
f 17/174/46 179/175/46 256/176/46 76/177/46
f 16/178/47 17/174/47 76/177/47 75/179/47
f 28/180/48 29/181/48 88/182/48 87/183/48
f 18/184/49 19/185/49 78/186/49 77/187/49
f 185/188/50 16/178/50 75/179/50 262/189/50
f 14/170/51 15/190/51 74/191/51 73/171/51
f 187/192/52 28/180/52 87/183/52 264/193/52
f 29/181/53 30/194/53 89/195/53 88/182/53
f 26/196/54 27/197/54 86/198/54 85/199/54
f 19/185/55 20/200/55 79/201/55 78/186/55
f 25/202/56 26/196/56 85/199/56 84/203/56
f 20/200/57 21/204/57 80/205/57 79/201/57
f 193/206/58 25/202/58 84/203/58 270/207/58
f 21/204/59 22/208/59 81/209/59 80/205/59
f 23/210/60 24/211/60 83/212/60 82/213/60
f 22/208/61 23/210/61 82/213/61 81/209/61
usemtl FrontMat.001
f 194/214/62 191/215/62 189/216/62
f 163/217/62 180/218/62 169/219/62
f 151/220/62 149/221/62 142/222/62
f 190/223/62 195/224/62 194/214/62
f 183/225/62 188/226/62 189/216/62
f 174/227/62 173/228/62 169/219/62
f 180/218/62 184/229/62 174/227/62
f 147/230/62 158/231/62 144/232/62
f 167/233/62 166/234/62 168/235/62
f 155/236/62 153/237/62 131/238/62
f 152/239/62 156/240/62 141/241/62
f 137/242/62 153/237/62 138/243/62
f 127/244/62 129/245/62 128/246/62
f 186/247/62 188/226/62 183/225/62
f 189/216/62 190/223/62 194/214/62
f 161/248/62 181/249/62 178/250/62
f 181/249/62 186/247/62 178/250/62
f 177/251/62 180/218/62 163/217/62
f 144/232/62 151/220/62 142/222/62
f 168/235/62 182/252/62 167/233/62
f 129/245/62 133/253/62 157/254/62
f 125/255/62 120/256/62 126/257/62
f 173/228/62 171/258/62 170/259/62
f 168/235/62 175/260/62 182/252/62
f 182/252/62 181/249/62 161/248/62
f 119/261/62 126/257/62 120/256/62
f 159/262/62 178/250/62 160/263/62
f 158/231/62 151/220/62 144/232/62
f 160/263/62 177/251/62 163/217/62
f 131/238/62 129/245/62 157/254/62
f 156/240/62 143/264/62 141/241/62
f 123/265/62 126/257/62 119/261/62
f 128/246/62 125/255/62 127/244/62
f 157/254/62 159/262/62 155/236/62
f 131/238/62 153/237/62 137/242/62
f 128/246/62 129/245/62 131/238/62
f 167/233/62 182/252/62 161/248/62
f 169/219/62 173/228/62 170/259/62
f 159/262/62 160/263/62 155/236/62
f 133/253/62 136/266/62 149/221/62
f 121/267/62 120/256/62 125/255/62
f 157/254/62 155/236/62 131/238/62
f 186/247/62 183/225/62 178/250/62
f 166/234/62 164/268/62 168/235/62
f 134/269/62 142/222/62 136/266/62
f 159/262/62 161/248/62 178/250/62
f 190/223/62 192/270/62 195/224/62
f 180/218/62 174/227/62 169/219/62
f 136/266/62 142/222/62 149/221/62
f 188/226/62 190/223/62 189/216/62
f 152/239/62 141/241/62 138/243/62
f 126/257/62 127/244/62 125/255/62
f 156/240/62 145/271/62 143/264/62
f 141/241/62 139/272/62 138/243/62
f 153/237/62 152/239/62 138/243/62
f 149/221/62 157/254/62 133/253/62
f 160/263/62 178/250/62 177/251/62
