# Blender v2.83.1 OBJ File: 'jigsaw-24x24-3-step2.blend'
# www.blender.org
mtllib piece.70.mtl
o path140_path140.001
v 0.541254 0.037500 -0.113618
v 0.513729 0.037500 -0.024633
v 0.450865 0.037500 -0.021738
v 0.374409 0.037500 -0.059124
v 0.313726 0.037500 -0.070118
v 0.292057 0.037500 -0.009244
v 0.308172 0.037500 0.084183
v 0.354713 0.037500 0.149655
v 0.422051 0.037500 0.146885
v 0.491440 0.037500 0.116483
v 0.541861 0.037500 0.119283
v 0.558498 0.037500 0.197408
v 0.523687 0.037500 0.520424
v 0.323420 0.037500 0.572028
v 0.204628 0.037500 0.589675
v 0.129429 0.037500 0.571369
v 0.130566 0.037500 0.501677
v 0.165211 0.037500 0.407289
v 0.171650 0.037500 0.325429
v 0.108263 0.037500 0.286034
v 0.013851 0.037500 0.289893
v -0.052692 0.037500 0.330508
v -0.052534 0.037500 0.398449
v -0.027063 0.037500 0.472564
v -0.037733 0.037500 0.528766
v -0.126720 0.037500 0.549758
v -0.478222 0.037500 0.520424
v -0.431210 0.037500 0.328516
v -0.417158 0.037500 0.214533
v -0.439724 0.037500 0.142041
v -0.513685 0.037500 0.142170
v -0.610434 0.037500 0.173232
v -0.690502 0.037500 0.175331
v -0.722609 0.037500 0.108554
v -0.708212 0.037500 0.012894
v -0.656948 0.037500 -0.051677
v -0.580978 0.037500 -0.046031
v -0.502573 0.037500 -0.014431
v -0.446531 0.037500 -0.021985
v -0.430271 0.037500 -0.113358
v -0.478222 0.037500 -0.481274
v -0.138256 0.037500 -0.433601
v -0.051312 0.037500 -0.450119
v -0.039297 0.037500 -0.506626
v -0.062201 0.037500 -0.586145
v -0.061592 0.037500 -0.664397
v 0.001877 0.037500 -0.719395
v 0.091259 0.037500 -0.738322
v 0.150534 0.037500 -0.710650
v 0.143137 0.037500 -0.634029
v 0.110393 0.037500 -0.538804
v 0.113083 0.037500 -0.463496
v 0.193077 0.037500 -0.436307
v 0.316660 0.037500 -0.444170
v 0.523687 0.037500 -0.481274
v 0.541254 -0.037500 -0.113618
v 0.513729 -0.037500 -0.024633
v 0.450865 -0.037500 -0.021738
v 0.374409 -0.037500 -0.059124
v 0.313726 -0.037500 -0.070118
v 0.292057 -0.037500 -0.009244
v 0.308172 -0.037500 0.084183
v 0.354713 -0.037500 0.149655
v 0.422051 -0.037500 0.146885
v 0.491440 -0.037500 0.116483
v 0.541861 -0.037498 0.119283
v 0.558498 -0.037498 0.197408
v 0.523687 -0.037498 0.520424
v 0.323420 -0.037500 0.572028
v 0.204628 -0.037500 0.589675
v 0.129429 -0.037500 0.571369
v 0.130566 -0.037500 0.501677
v 0.165211 -0.037500 0.407289
v 0.171650 -0.037500 0.325429
v 0.108263 -0.037500 0.286034
v 0.013851 -0.037498 0.289893
v -0.052692 -0.037500 0.330508
v -0.052534 -0.037500 0.398449
v -0.027063 -0.037500 0.472564
v -0.037733 -0.037500 0.528766
v -0.126720 -0.037500 0.549758
v -0.478222 -0.037500 0.520424
v -0.431210 -0.037500 0.328516
v -0.417158 -0.037498 0.214533
v -0.439724 -0.037500 0.142041
v -0.513685 -0.037498 0.142170
v -0.610434 -0.037500 0.173232
v -0.690502 -0.037500 0.175331
v -0.722609 -0.037500 0.108554
v -0.708212 -0.037500 0.012894
v -0.656948 -0.037500 -0.051677
v -0.580978 -0.037500 -0.046031
v -0.502573 -0.037498 -0.014431
v -0.446531 -0.037500 -0.021985
v -0.430271 -0.037500 -0.113358
v -0.478222 -0.037500 -0.481274
v -0.138256 -0.037500 -0.433601
v -0.051312 -0.037498 -0.450119
v -0.039297 -0.037500 -0.506626
v -0.062201 -0.037500 -0.586145
v -0.061592 -0.037500 -0.664397
v 0.001877 -0.037500 -0.719395
v 0.091259 -0.037498 -0.738322
v 0.150534 -0.037500 -0.710650
v 0.143137 -0.037500 -0.634029
v 0.110393 -0.037498 -0.538804
v 0.113083 -0.037500 -0.463496
v 0.193077 -0.037500 -0.436307
v 0.316660 -0.037500 -0.444170
v 0.523687 -0.037500 -0.481274
v 0.323420 0.037500 0.572028
v 0.204628 0.037500 0.589675
v 0.129429 0.037500 0.571369
v 0.129429 0.037500 0.571369
v 0.130566 0.037500 0.501677
v -0.037733 0.037500 0.528766
v -0.037733 0.037500 0.528766
v -0.126720 0.037500 0.549758
v 0.523687 0.037500 0.520424
v 0.523687 0.037500 0.520424
v -0.027063 0.037500 0.472564
v -0.478222 0.037500 0.520424
v -0.478222 0.037500 0.520424
v 0.165211 0.037500 0.407289
v -0.052534 0.037500 0.398449
v -0.431210 0.037500 0.328516
v 0.171650 0.037500 0.325429
v 0.171650 0.037500 0.325429
v -0.052692 0.037500 0.330508
v 0.013851 0.037500 0.289893
v -0.417158 0.037500 0.214533
v 0.108263 0.037500 0.286034
v 0.558498 0.037500 0.197408
v -0.439724 0.037500 0.142041
v -0.439724 0.037500 0.142041
v 0.541861 0.037500 0.119283
v 0.541861 0.037500 0.119283
v 0.354713 0.037500 0.149655
v 0.422051 0.037500 0.146885
v -0.610434 0.037500 0.173232
v -0.690502 0.037500 0.175331
v -0.690502 0.037500 0.175331
v -0.722609 0.037500 0.108554
v -0.513685 0.037500 0.142170
v 0.308172 0.037500 0.084183
v 0.491440 0.037500 0.116483
v -0.708212 0.037500 0.012894
v 0.292057 0.037500 -0.009244
v -0.656948 0.037500 -0.051677
v 0.313726 0.037500 -0.070118
v 0.313726 0.037500 -0.070118
v -0.502573 0.037500 -0.014431
v -0.446531 0.037500 -0.021985
v -0.446531 0.037500 -0.021985
v -0.580978 0.037500 -0.046031
v 0.513729 0.037500 -0.024633
v 0.513729 0.037500 -0.024633
v 0.450865 0.037500 -0.021738
v 0.374409 0.037500 -0.059124
v -0.430271 0.037500 -0.113358
v 0.541254 0.037500 -0.113618
v -0.138256 0.037500 -0.433601
v -0.051312 0.037500 -0.450119
v -0.051312 0.037500 -0.450119
v 0.193077 0.037500 -0.436307
v 0.316660 0.037500 -0.444170
v 0.113083 0.037500 -0.463496
v 0.113083 0.037500 -0.463496
v -0.039297 0.037500 -0.506626
v 0.523687 0.037500 -0.481274
v 0.523687 0.037500 -0.481274
v -0.478222 0.037500 -0.481274
v -0.478222 0.037500 -0.481274
v 0.110393 0.037500 -0.538804
v -0.062201 0.037500 -0.586145
v 0.143137 0.037500 -0.634029
v -0.061592 0.037500 -0.664397
v 0.150534 0.037500 -0.710650
v 0.150534 0.037500 -0.710650
v 0.001877 0.037500 -0.719395
v 0.091259 0.037500 -0.738322
v 0.323420 -0.037500 0.572028
v 0.204628 -0.037500 0.589675
v 0.129429 -0.037500 0.571369
v 0.129429 -0.037500 0.571369
v 0.130566 -0.037500 0.501677
v -0.037733 -0.037500 0.528766
v -0.037733 -0.037500 0.528766
v -0.126720 -0.037500 0.549758
v 0.523687 -0.037498 0.520424
v 0.523687 -0.037498 0.520424
v -0.027063 -0.037500 0.472564
v -0.478222 -0.037500 0.520424
v -0.478222 -0.037500 0.520424
v 0.165211 -0.037500 0.407289
v -0.052534 -0.037500 0.398449
v -0.431210 -0.037500 0.328516
v 0.171650 -0.037500 0.325429
v 0.171650 -0.037500 0.325429
v -0.052692 -0.037500 0.330508
v 0.013851 -0.037498 0.289893
v -0.417158 -0.037498 0.214533
v 0.108263 -0.037500 0.286034
v 0.558498 -0.037498 0.197408
v -0.439724 -0.037500 0.142041
v -0.439724 -0.037500 0.142041
v 0.541861 -0.037498 0.119283
v 0.541861 -0.037498 0.119283
v 0.354713 -0.037500 0.149655
v 0.422051 -0.037500 0.146885
v -0.610434 -0.037500 0.173232
v -0.690502 -0.037500 0.175331
v -0.690502 -0.037500 0.175331
v -0.722609 -0.037500 0.108554
v -0.513685 -0.037498 0.142170
v 0.308172 -0.037500 0.084183
v 0.491440 -0.037500 0.116483
v -0.708212 -0.037500 0.012894
v 0.292057 -0.037500 -0.009244
v -0.656948 -0.037500 -0.051677
v 0.313726 -0.037500 -0.070118
v 0.313726 -0.037500 -0.070118
v -0.502573 -0.037498 -0.014431
v -0.446531 -0.037500 -0.021985
v -0.446531 -0.037500 -0.021985
v -0.580978 -0.037500 -0.046031
v 0.513729 -0.037500 -0.024633
v 0.513729 -0.037500 -0.024633
v 0.450865 -0.037500 -0.021738
v 0.374409 -0.037500 -0.059124
v -0.430271 -0.037500 -0.113358
v 0.541254 -0.037500 -0.113618
v -0.138256 -0.037500 -0.433601
v -0.051312 -0.037498 -0.450119
v -0.051312 -0.037498 -0.450119
v 0.193077 -0.037500 -0.436307
v 0.316660 -0.037500 -0.444170
v 0.113083 -0.037500 -0.463496
v 0.113083 -0.037500 -0.463496
v -0.039297 -0.037500 -0.506626
v 0.523687 -0.037500 -0.481274
v 0.523687 -0.037500 -0.481274
v -0.478222 -0.037500 -0.481274
v -0.478222 -0.037500 -0.481274
v 0.110393 -0.037498 -0.538804
v -0.062201 -0.037500 -0.586145
v 0.143137 -0.037500 -0.634029
v -0.061592 -0.037500 -0.664397
v 0.150534 -0.037500 -0.710650
v 0.150534 -0.037500 -0.710650
v 0.001877 -0.037500 -0.719395
v 0.091259 -0.037498 -0.738322
vt 0.500000 0.500000
vt 0.500000 0.500000
vt 0.500000 0.500000
vt 0.500000 0.500000
vt 0.500000 0.500000
vt 0.500000 0.500000
vt 0.500000 0.500000
vt 0.500000 0.500000
vt 0.500000 0.500000
vt 0.500000 0.500000
vt 0.500000 0.500000
vt 0.500000 0.500000
vt 0.500000 0.500000
vt 0.500000 0.500000
vt 0.500000 0.500000
vt 0.500000 0.500000
vt 0.500000 0.500000
vt 0.500000 0.500000
vt 0.500000 0.500000
vt 0.500000 0.500000
vt 0.500000 0.500000
vt 0.500000 0.500000
vt 0.500000 0.500000
vt 0.500000 0.500000
vt 0.500000 0.500000
vt 0.500000 0.500000
vt 0.500000 0.500000
vt 0.500000 0.500000
vt 0.500000 0.500000
vt 0.500000 0.500000
vt 0.500000 0.500000
vt 0.500000 0.500000
vt 0.500000 0.500000
vt 0.500000 0.500000
vt 0.500000 0.500000
vt 0.500000 0.500000
vt 0.500000 0.500000
vt 0.500000 0.500000
vt 0.500000 0.500000
vt 0.500000 0.500000
vt 0.500000 0.500000
vt 0.500000 0.500000
vt 0.500000 0.500000
vt 0.500000 0.500000
vt 0.500000 0.500000
vt 0.500000 0.500000
vt 0.500000 0.500000
vt 0.500000 0.500000
vt 0.500000 0.500000
vt 0.500000 0.500000
vt 0.500000 0.500000
vt 0.500000 0.500000
vt 0.500000 0.500000
vt 0.500000 0.500000
vt 0.500000 0.500000
vt 0.500000 0.500000
vt 0.500000 0.500000
vt 0.500000 0.500000
vt 0.500000 0.500000
vt 0.500000 0.500000
vt 0.500000 0.500000
vt 0.500000 0.500000
vt 0.500000 0.500000
vt 0.500000 0.500000
vt 0.500000 0.500000
vt 0.500000 0.500000
vt 0.500000 0.500000
vt 0.500000 0.500000
vt 0.500000 0.500000
vt 0.500000 0.500000
vt 0.500000 0.500000
vt 0.500000 0.500000
vt 0.500000 0.500000
vt 0.500000 0.500000
vt 0.500000 0.500000
vt 0.500000 0.500000
vt 0.500000 0.500000
vt 0.500000 0.500000
vt 0.500000 0.500000
vt 0.500000 0.500000
vt 0.500000 0.500000
vt 0.500000 0.500000
vt 0.500000 0.500000
vt 0.500000 0.500000
vt 0.500000 0.500000
vt 0.500000 0.500000
vt 0.500000 0.500000
vt 0.500000 0.500000
vt 0.500000 0.500000
vt 0.500000 0.500000
vt 0.500000 0.500000
vt 0.500000 0.500000
vt 0.500000 0.500000
vt 0.500000 0.500000
vt 0.500000 0.500000
vt 0.500000 0.500000
vt 0.500000 0.500000
vt 0.500000 0.500000
vt 0.500000 0.500000
vt 0.500000 0.500000
vt 0.500000 0.500000
vt 0.500000 0.500000
vt 0.500000 0.500000
vt 0.500000 0.500000
vt 0.500000 0.500000
vt 0.500000 0.500000
vt 0.500000 0.500000
vt 0.500000 0.500000
vt 0.500000 0.500000
vt 0.500000 0.500000
vt 0.500000 0.500000
vt 0.500000 0.500000
vt 0.500000 0.500000
vt 0.500000 0.500000
vt 0.500000 0.500000
vt 0.500000 0.500000
vt 0.500000 0.500000
vt 0.500000 0.500000
vt 0.500000 0.500000
vt 0.500000 0.500000
vt 0.500000 0.500000
vt 0.500000 0.500000
vt 0.500000 0.500000
vt 0.500000 0.500000
vt 0.500000 0.500000
vt 0.500000 0.500000
vt 0.500000 0.500000
vt 0.500000 0.500000
vt 0.500000 0.500000
vt 0.500000 0.500000
vt 0.500000 0.500000
vt 0.500000 0.500000
vt 0.500000 0.500000
vt 0.500000 0.500000
vt 0.500000 0.500000
vt 0.500000 0.500000
vt 0.500000 0.500000
vt 0.500000 0.500000
vt 0.500000 0.500000
vt 0.500000 0.500000
vt 0.500000 0.500000
vt 0.500000 0.500000
vt 0.500000 0.500000
vt 0.500000 0.500000
vt 0.500000 0.500000
vt 0.500000 0.500000
vt 0.500000 0.500000
vt 0.500000 0.500000
vt 0.500000 0.500000
vt 0.500000 0.500000
vt 0.500000 0.500000
vt 0.500000 0.500000
vt 0.500000 0.500000
vt 0.500000 0.500000
vt 0.500000 0.500000
vt 0.500000 0.500000
vt 0.500000 0.500000
vt 0.500000 0.500000
vt 0.500000 0.500000
vt 0.500000 0.500000
vt 0.500000 0.500000
vt 0.500000 0.500000
vt 0.500000 0.500000
vt 0.500000 0.500000
vt 0.500000 0.500000
vt 0.500000 0.500000
vt 0.500000 0.500000
vt 0.500000 0.500000
vt 0.500000 0.500000
vt 0.500000 0.500000
vt 0.500000 0.500000
vt 0.500000 0.500000
vt 0.500000 0.500000
vt 0.500000 0.500000
vt 0.500000 0.500000
vt 0.500000 0.500000
vt 0.500000 0.500000
vt 0.500000 0.500000
vt 0.500000 0.500000
vt 0.500000 0.500000
vt 0.500000 0.500000
vt 0.500000 0.500000
vt 0.500000 0.500000
vt 0.500000 0.500000
vt 0.500000 0.500000
vt 0.500000 0.500000
vt 0.500000 0.500000
vt 0.500000 0.500000
vt 0.500000 0.500000
vt 0.500000 0.500000
vt 0.500000 0.500000
vt 0.500000 0.500000
vt 0.500000 0.500000
vt 0.500000 0.500000
vt 0.500000 0.500000
vt 0.500000 0.500000
vt 0.500000 0.500000
vt 0.899365 0.870638
vt 0.898413 0.873945
vt 0.892188 0.872607
vt 0.883328 0.918813
vt 0.875000 0.916667
vt 0.889640 0.908556
vt 0.892076 0.875740
vt 0.914711 0.908684
vt 0.916667 0.916667
vt 0.902049 0.917887
vt 0.896701 0.865095
vt 0.899340 0.867383
vt 0.873552 0.903231
vt 0.874244 0.899981
vt 0.876341 0.899864
vt 0.878028 0.894115
vt 0.875414 0.893994
vt 0.874269 0.890293
vt 0.898913 0.876296
vt 0.881208 0.892560
vt 0.890826 0.868646
vt 0.898963 0.911593
vt 0.889908 0.911961
vt 0.879227 0.901129
vt 0.914127 0.903943
vt 0.898970 0.908767
vt 0.884633 0.894635
vt 0.883732 0.892102
vt 0.915065 0.900927
vt 0.915349 0.894104
vt 0.917679 0.894419
vt 0.896203 0.907077
vt 0.891349 0.915887
vt 0.891396 0.918786
vt 0.888269 0.919547
vt 0.890518 0.865459
vt 0.892983 0.864308
vt 0.914672 0.890304
vt 0.925495 0.902312
vt 0.922165 0.902225
vt 0.926830 0.899534
vt 0.920940 0.893104
vt 0.926231 0.895555
vt 0.892276 0.906917
vt 0.883963 0.898521
vt 0.902528 0.876983
vt 0.882027 0.901244
vt 0.898348 0.917014
vt 0.897904 0.914676
vt 0.918141 0.900933
vt 0.883610 0.876543
vt 0.888749 0.876870
vt 0.875000 0.875000
vt 0.916667 0.875000
vt 0.924099 0.892869
vn 0.0000 -1.0000 -0.0000
vn 0.1469 0.0000 0.9891
vn -0.2365 0.0000 0.9716
vn -0.9999 0.0000 -0.0163
vn 0.2296 0.0000 0.9733
vn 0.2495 0.0000 0.9684
vn 0.9825 0.0000 0.1865
vn -0.0832 0.0000 0.9965
vn -0.9388 0.0000 -0.3446
vn 0.9457 0.0000 -0.3250
vn -0.9713 0.0000 -0.2379
vn -0.9969 0.0000 -0.0784
vn 1.0000 0.0000 -0.0023
vn 0.5210 0.0000 0.8536
vn -0.9925 0.0000 -0.1224
vn -0.5279 0.0000 0.8493
vn 0.9942 0.0000 0.1071
vn 0.0408 0.0000 0.9992
vn -0.9548 0.0000 0.2972
vn 0.9781 0.0000 -0.2083
vn -0.0411 0.0000 -0.9992
vn 0.0262 0.0000 0.9997
vn -0.9012 0.0000 0.4333
vn 0.3057 0.0000 0.9521
vn 0.8151 0.0000 -0.5794
vn 0.0554 0.0000 -0.9985
vn -0.4013 0.0000 -0.9159
vn 0.0017 0.0000 1.0000
vn -0.9889 0.0000 -0.1488
vn 0.9854 0.0000 -0.1700
vn -0.7832 0.0000 -0.6218
vn 0.9421 0.0000 0.3354
vn -0.1336 0.0000 -0.9910
vn 0.3738 0.0000 -0.9275
vn 0.0741 0.0000 -0.9973
vn 0.0460 0.0000 0.9989
vn -0.4393 0.0000 0.8983
vn -0.9845 0.0000 -0.1752
vn 0.9553 0.0000 0.2955
vn -0.1783 0.0000 0.9840
vn -0.1866 0.0000 -0.9824
vn -0.0635 0.0000 -0.9980
vn 0.3218 0.0000 -0.9468
vn -0.9781 0.0000 -0.2080
vn 0.9989 0.0000 -0.0477
vn 0.1389 0.0000 -0.9903
vn -0.9916 0.0000 0.1292
vn 0.9994 0.0000 -0.0357
vn -0.1764 0.0000 -0.9843
vn -0.9609 0.0000 0.2768
vn 0.9457 0.0000 0.3252
vn -1.0000 0.0000 -0.0078
vn 0.9954 0.0000 0.0961
vn -0.6549 0.0000 -0.7557
vn 0.4230 0.0000 -0.9061
vn -0.2072 0.0000 -0.9783
vn 0.0000 1.0000 -0.0000
usemtl BackMat.001
s off
f 246/1/1 245/2/1 240/3/1
f 182/4/1 198/5/1 190/6/1
f 238/7/1 240/3/1 245/2/1
f 197/8/1 189/9/1 193/10/1
f 251/11/1 246/1/1 248/12/1
f 204/13/1 217/14/1 207/15/1
f 229/16/1 232/17/1 227/18/1
f 238/7/1 234/19/1 240/3/1
f 230/20/1 232/17/1 229/16/1
f 245/2/1 246/1/1 247/21/1
f 197/8/1 196/22/1 189/9/1
f 195/23/1 198/5/1 182/4/1
f 190/6/1 210/24/1 204/13/1
f 202/25/1 200/26/1 197/8/1
f 219/27/1 234/19/1 221/28/1
f 205/29/1 223/30/1 224/31/1
f 200/26/1 196/22/1 197/8/1
f 200/26/1 205/29/1 201/32/1
f 186/33/1 183/34/1 184/35/1
f 247/21/1 252/36/1 249/37/1
f 224/31/1 231/38/1 201/32/1
f 212/39/1 214/40/1 211/41/1
f 211/41/1 218/42/1 226/43/1
f 247/21/1 251/11/1 252/36/1
f 210/24/1 217/14/1 204/13/1
f 205/29/1 224/31/1 201/32/1
f 201/32/1 231/38/1 219/27/1
f 203/44/1 219/27/1 216/45/1
f 231/38/1 233/46/1 219/27/1
f 201/32/1 219/27/1 203/44/1
f 190/6/1 198/5/1 209/47/1
f 203/44/1 216/45/1 198/5/1
f 190/6/1 209/47/1 210/24/1
f 187/48/1 189/9/1 192/49/1
f 215/50/1 226/43/1 223/30/1
f 183/34/1 186/33/1 195/23/1
f 237/51/1 221/28/1 236/52/1
f 221/28/1 234/19/1 238/7/1
f 232/17/1 237/51/1 241/53/1
f 233/46/1 231/38/1 243/54/1
f 211/41/1 226/43/1 215/50/1
f 209/47/1 198/5/1 216/45/1
f 205/29/1 200/26/1 202/25/1
f 215/50/1 223/30/1 205/29/1
f 220/55/1 226/43/1 218/42/1
f 214/40/1 218/42/1 211/41/1
f 230/20/1 237/51/1 232/17/1
f 246/1/1 251/11/1 247/21/1
f 233/46/1 234/19/1 219/27/1
f 221/28/1 237/51/1 230/20/1
f 236/52/1 221/28/1 238/7/1
f 183/34/1 195/23/1 182/4/1
f 192/49/1 189/9/1 196/22/1
f 14/56/2 15/57/2 70/58/2 69/59/2
f 15/57/3 114/60/3 185/61/3 70/58/3
f 16/62/4 17/63/4 72/64/4 71/65/4
f 117/66/5 26/67/5 81/68/5 188/69/5
f 120/70/6 14/56/6 69/59/6 191/71/6
f 24/72/7 25/73/7 80/74/7 79/75/7
f 26/67/8 123/76/8 194/77/8 81/68/8
f 17/63/9 18/78/9 73/79/9 72/64/9
f 23/80/10 24/72/10 79/75/10 78/81/10
f 27/82/11 28/83/11 83/84/11 82/85/11
f 18/78/12 128/86/12 199/87/12 73/79/12
f 22/88/13 23/80/13 78/81/13 77/89/13
f 21/90/14 22/88/14 77/89/14 76/91/14
f 28/83/15 29/92/15 84/93/15 83/84/15
f 19/94/16 20/95/16 75/96/16 74/97/16
f 12/98/17 13/99/17 68/100/17 67/101/17
f 20/95/18 21/90/18 76/91/18 75/96/18
f 29/92/19 135/102/19 206/103/19 84/93/19
f 137/104/20 12/98/20 67/101/20 208/105/20
f 8/106/21 9/107/21 64/108/21 63/109/21
f 32/110/22 142/111/22 213/112/22 87/113/22
f 33/114/23 34/115/23 89/116/23 88/117/23
f 31/118/24 32/110/24 87/113/24 86/119/24
f 7/120/25 8/106/25 63/109/25 62/121/25
f 10/122/26 11/123/26 66/124/26 65/125/26
f 9/107/27 10/122/27 65/125/27 64/108/27
f 30/126/28 31/118/28 86/119/28 85/127/28
f 34/115/29 35/128/29 90/129/29 89/116/29
f 6/130/30 7/120/30 62/121/30 61/131/30
f 35/128/31 36/132/31 91/133/31 90/129/31
f 151/134/32 6/130/32 61/131/32 222/135/32
f 38/136/33 154/137/33 225/138/33 93/139/33
f 37/140/34 38/136/34 93/139/34 92/141/34
f 36/132/35 37/140/35 92/141/35 91/133/35
f 157/142/36 3/143/36 58/144/36 228/145/36
f 3/143/37 4/146/37 59/147/37 58/144/37
f 39/148/38 40/149/38 95/150/38 94/151/38
f 1/152/39 2/153/39 57/154/39 56/155/39
f 4/146/40 5/156/40 60/157/40 59/147/40
f 42/158/41 164/159/41 235/160/41 97/161/41
f 53/162/42 54/163/42 109/164/42 108/165/42
f 168/166/43 53/162/43 108/165/43 239/167/43
f 43/168/44 44/169/44 99/170/44 98/171/44
f 171/172/45 1/152/45 56/155/45 242/173/45
f 173/174/46 42/158/46 97/161/46 244/175/46
f 40/149/47 41/176/47 96/177/47 95/150/47
f 51/178/48 52/179/48 107/180/48 106/181/48
f 54/163/49 55/182/49 110/183/49 109/164/49
f 44/169/50 45/184/50 100/185/50 99/170/50
f 50/186/51 51/178/51 106/181/51 105/187/51
f 45/184/52 46/188/52 101/189/52 100/185/52
f 179/190/53 50/186/53 105/187/53 250/191/53
f 46/188/54 47/192/54 102/193/54 101/189/54
f 48/194/55 49/195/55 104/196/55 103/197/55
f 47/192/56 48/194/56 103/197/56 102/193/56
usemtl FrontMat.001
f 175/198/57 169/199/57 174/200/57
f 111/201/57 119/202/57 127/203/57
f 167/204/57 174/200/57 169/199/57
f 126/205/57 122/206/57 118/207/57
f 180/208/57 177/209/57 175/198/57
f 133/210/57 136/211/57 146/212/57
f 158/213/57 156/214/57 161/215/57
f 167/204/57 169/199/57 163/216/57
f 159/217/57 158/213/57 161/215/57
f 174/200/57 176/218/57 175/198/57
f 126/205/57 118/207/57 125/219/57
f 124/220/57 111/201/57 127/203/57
f 119/202/57 133/210/57 139/221/57
f 131/222/57 126/205/57 129/223/57
f 148/224/57 150/225/57 163/216/57
f 134/226/57 153/227/57 152/228/57
f 129/223/57 126/205/57 125/219/57
f 129/223/57 130/229/57 134/226/57
f 115/230/57 113/231/57 112/232/57
f 176/218/57 178/233/57 181/234/57
f 153/227/57 130/229/57 160/235/57
f 141/236/57 140/237/57 143/238/57
f 140/237/57 155/239/57 147/240/57
f 176/218/57 181/234/57 180/208/57
f 139/221/57 133/210/57 146/212/57
f 134/226/57 130/229/57 153/227/57
f 130/229/57 148/224/57 160/235/57
f 132/241/57 145/242/57 148/224/57
f 160/235/57 148/224/57 162/243/57
f 130/229/57 132/241/57 148/224/57
f 119/202/57 138/244/57 127/203/57
f 132/241/57 127/203/57 145/242/57
f 119/202/57 139/221/57 138/244/57
f 116/245/57 121/246/57 118/207/57
f 144/247/57 152/228/57 155/239/57
f 112/232/57 124/220/57 115/230/57
f 166/248/57 165/249/57 150/225/57
f 150/225/57 167/204/57 163/216/57
f 161/215/57 170/250/57 166/248/57
f 162/243/57 172/251/57 160/235/57
f 140/237/57 144/247/57 155/239/57
f 138/244/57 145/242/57 127/203/57
f 134/226/57 131/222/57 129/223/57
f 144/247/57 134/226/57 152/228/57
f 149/252/57 147/240/57 155/239/57
f 143/238/57 140/237/57 147/240/57
f 159/217/57 161/215/57 166/248/57
f 175/198/57 176/218/57 180/208/57
f 162/243/57 148/224/57 163/216/57
f 150/225/57 159/217/57 166/248/57
f 165/249/57 167/204/57 150/225/57
f 112/232/57 111/201/57 124/220/57
f 121/246/57 125/219/57 118/207/57
