# Blender v2.83.1 OBJ File: 'jigsaw-30x24-3-step2.blend'
# www.blender.org
mtllib piece.319.mtl
o path638_path638.001
v -0.283359 0.037500 -0.428108
v -0.167548 0.037500 -0.413807
v -0.091298 0.037500 -0.437288
v -0.085543 0.037500 -0.514072
v -0.110890 0.037500 -0.616112
v -0.110371 0.037500 -0.704472
v -0.045808 0.037500 -0.747355
v 0.045713 0.037500 -0.741535
v 0.108310 0.037500 -0.690926
v 0.105531 0.037500 -0.604290
v 0.078653 0.037500 -0.509747
v 0.088395 0.037500 -0.440254
v 0.176349 0.037500 -0.419306
v 0.307603 0.037500 -0.432468
v 0.525278 0.037500 -0.476337
v 0.564596 0.037500 -0.256819
v 0.575945 0.037500 -0.124186
v 0.555909 0.037500 -0.034714
v 0.491159 0.037500 -0.023521
v 0.402369 0.037500 -0.049248
v 0.318721 0.037500 -0.051405
v 0.265676 0.037500 0.011082
v 0.253840 0.037500 0.101740
v 0.290102 0.037500 0.164694
v 0.373732 0.037500 0.162998
v 0.473541 0.037500 0.135395
v 0.550729 0.037500 0.139549
v 0.577099 0.037500 0.215334
v 0.566884 0.037500 0.331470
v 0.525278 0.037500 0.525572
v 0.309341 0.037500 0.566853
v 0.179432 0.037500 0.578657
v 0.093058 0.037500 0.557293
v 0.084753 0.037500 0.488953
v 0.111595 0.037500 0.396736
v 0.111299 0.037500 0.312973
v 0.042048 0.037500 0.264744
v -0.056024 0.037500 0.258129
v -0.122309 0.037500 0.293959
v -0.116782 0.037500 0.367828
v -0.081733 0.037500 0.454369
v -0.080027 0.037500 0.522966
v -0.155370 0.037500 0.551243
v -0.274827 0.037500 0.549747
v -0.476420 0.037500 0.525572
v -0.455251 0.037500 0.215433
v -0.476710 0.037500 0.139191
v -0.530224 0.037500 0.133932
v -0.601697 0.037500 0.159319
v -0.671277 0.037500 0.157177
v -0.720449 0.037500 0.088905
v -0.736037 0.037500 -0.005800
v -0.706202 0.037500 -0.067671
v -0.627582 0.037500 -0.058271
v -0.530735 0.037500 -0.022478
v -0.454700 0.037500 -0.026001
v -0.427994 0.037500 -0.114014
v -0.437057 0.037500 -0.249533
v -0.476420 0.037500 -0.476337
v -0.283359 -0.037500 -0.428108
v -0.167548 -0.037500 -0.413807
v -0.091298 -0.037500 -0.437288
v -0.085543 -0.037500 -0.514072
v -0.110890 -0.037498 -0.616112
v -0.110371 -0.037500 -0.704472
v -0.045808 -0.037500 -0.747355
v 0.045713 -0.037500 -0.741535
v 0.108310 -0.037500 -0.690926
v 0.105531 -0.037500 -0.604290
v 0.078653 -0.037500 -0.509747
v 0.088395 -0.037500 -0.440254
v 0.176349 -0.037500 -0.419306
v 0.307603 -0.037500 -0.432468
v 0.525278 -0.037498 -0.476337
v 0.564596 -0.037500 -0.256819
v 0.575945 -0.037500 -0.124186
v 0.555909 -0.037500 -0.034714
v 0.491159 -0.037500 -0.023521
v 0.402369 -0.037500 -0.049248
v 0.318721 -0.037500 -0.051405
v 0.265676 -0.037498 0.011082
v 0.253840 -0.037500 0.101740
v 0.290102 -0.037500 0.164694
v 0.373732 -0.037500 0.162998
v 0.473541 -0.037500 0.135395
v 0.550729 -0.037498 0.139549
v 0.577099 -0.037500 0.215334
v 0.566884 -0.037500 0.331470
v 0.525278 -0.037500 0.525572
v 0.309341 -0.037500 0.566853
v 0.179432 -0.037500 0.578657
v 0.093058 -0.037498 0.557293
v 0.084753 -0.037500 0.488953
v 0.111595 -0.037500 0.396736
v 0.111299 -0.037500 0.312973
v 0.042048 -0.037500 0.264744
v -0.056024 -0.037500 0.258129
v -0.122309 -0.037500 0.293959
v -0.116782 -0.037500 0.367828
v -0.081733 -0.037500 0.454369
v -0.080027 -0.037498 0.522966
v -0.155370 -0.037500 0.551243
v -0.274827 -0.037500 0.549747
v -0.476420 -0.037500 0.525572
v -0.455251 -0.037498 0.215433
v -0.476710 -0.037500 0.139191
v -0.530224 -0.037500 0.133932
v -0.601697 -0.037500 0.159319
v -0.671277 -0.037500 0.157177
v -0.720449 -0.037500 0.088905
v -0.736037 -0.037500 -0.005800
v -0.706202 -0.037500 -0.067671
v -0.627582 -0.037500 -0.058271
v -0.530735 -0.037500 -0.022478
v -0.454700 -0.037500 -0.026001
v -0.427994 -0.037500 -0.114014
v -0.437057 -0.037500 -0.249533
v -0.476420 -0.037500 -0.476337
v -0.720449 0.037500 0.088905
v -0.736037 0.037500 -0.005800
v -0.706202 0.037500 -0.067671
v -0.706202 0.037500 -0.067671
v -0.671277 0.037500 0.157177
v -0.627582 0.037500 -0.058271
v -0.601697 0.037500 0.159319
v -0.530735 0.037500 -0.022478
v -0.530224 0.037500 0.133932
v -0.454700 0.037500 -0.026001
v -0.454700 0.037500 -0.026001
v -0.476710 0.037500 0.139191
v -0.476710 0.037500 0.139191
v -0.455251 0.037500 0.215433
v -0.437057 0.037500 -0.249533
v -0.476420 0.037500 -0.476337
v -0.476420 0.037500 -0.476337
v -0.476420 0.037500 0.525572
v -0.476420 0.037500 0.525572
v -0.427994 0.037500 -0.114014
v -0.283359 0.037500 -0.428108
v -0.274827 0.037500 0.549747
v -0.167548 0.037500 -0.413807
v -0.155370 0.037500 0.551243
v -0.091298 0.037500 -0.437288
v -0.091298 0.037500 -0.437288
v -0.080027 0.037500 0.522966
v -0.080027 0.037500 0.522966
v -0.122309 0.037500 0.293959
v -0.122309 0.037500 0.293959
v -0.116782 0.037500 0.367828
v -0.056024 0.037500 0.258129
v -0.081733 0.037500 0.454369
v -0.085543 0.037500 -0.514072
v -0.110890 0.037500 -0.616112
v -0.110371 0.037500 -0.704472
v -0.045808 0.037500 -0.747355
v 0.042048 0.037500 0.264744
v 0.045713 0.037500 -0.741535
v 0.111299 0.037500 0.312973
v 0.108310 0.037500 -0.690926
v 0.078653 0.037500 -0.509747
v 0.088395 0.037500 -0.440254
v 0.088395 0.037500 -0.440254
v 0.105531 0.037500 -0.604290
v 0.093058 0.037500 0.557293
v 0.093058 0.037500 0.557293
v 0.084753 0.037500 0.488953
v 0.111595 0.037500 0.396736
v 0.176349 0.037500 -0.419306
v 0.179432 0.037500 0.578657
v 0.307603 0.037500 -0.432468
v 0.309341 0.037500 0.566853
v 0.253840 0.037500 0.101740
v 0.290102 0.037500 0.164694
v 0.290102 0.037500 0.164694
v 0.265676 0.037500 0.011082
v 0.318721 0.037500 -0.051405
v 0.373732 0.037500 0.162998
v 0.402369 0.037500 -0.049248
v 0.473541 0.037500 0.135395
v 0.491159 0.037500 -0.023521
v 0.525278 0.037500 0.525572
v 0.525278 0.037500 0.525572
v 0.550729 0.037500 0.139549
v 0.550729 0.037500 0.139549
v 0.555909 0.037500 -0.034714
v 0.555909 0.037500 -0.034714
v 0.525278 0.037500 -0.476337
v 0.525278 0.037500 -0.476337
v 0.564596 0.037500 -0.256819
v 0.566884 0.037500 0.331470
v 0.577099 0.037500 0.215334
v 0.575945 0.037500 -0.124186
v -0.720449 -0.037500 0.088905
v -0.736037 -0.037500 -0.005800
v -0.706202 -0.037500 -0.067671
v -0.706202 -0.037500 -0.067671
v -0.671277 -0.037500 0.157177
v -0.627582 -0.037500 -0.058271
v -0.601697 -0.037500 0.159319
v -0.530735 -0.037500 -0.022478
v -0.530224 -0.037500 0.133932
v -0.454700 -0.037500 -0.026001
v -0.454700 -0.037500 -0.026001
v -0.476710 -0.037500 0.139191
v -0.476710 -0.037500 0.139191
v -0.455251 -0.037498 0.215433
v -0.437057 -0.037500 -0.249533
v -0.476420 -0.037500 -0.476337
v -0.476420 -0.037500 -0.476337
v -0.476420 -0.037500 0.525572
v -0.476420 -0.037500 0.525572
v -0.427994 -0.037500 -0.114014
v -0.283359 -0.037500 -0.428108
v -0.274827 -0.037500 0.549747
v -0.167548 -0.037500 -0.413807
v -0.155370 -0.037500 0.551243
v -0.091298 -0.037500 -0.437288
v -0.091298 -0.037500 -0.437288
v -0.080027 -0.037498 0.522966
v -0.080027 -0.037498 0.522966
v -0.122309 -0.037500 0.293959
v -0.122309 -0.037500 0.293959
v -0.116782 -0.037500 0.367828
v -0.056024 -0.037500 0.258129
v -0.081733 -0.037500 0.454369
v -0.085543 -0.037500 -0.514072
v -0.110890 -0.037498 -0.616112
v -0.110371 -0.037500 -0.704472
v -0.045808 -0.037500 -0.747355
v 0.042048 -0.037500 0.264744
v 0.045713 -0.037500 -0.741535
v 0.111299 -0.037500 0.312973
v 0.108310 -0.037500 -0.690926
v 0.078653 -0.037500 -0.509747
v 0.088395 -0.037500 -0.440254
v 0.088395 -0.037500 -0.440254
v 0.105531 -0.037500 -0.604290
v 0.093058 -0.037498 0.557293
v 0.093058 -0.037498 0.557293
v 0.084753 -0.037500 0.488953
v 0.111595 -0.037500 0.396736
v 0.176349 -0.037500 -0.419306
v 0.179432 -0.037500 0.578657
v 0.307603 -0.037500 -0.432468
v 0.309341 -0.037500 0.566853
v 0.253840 -0.037500 0.101740
v 0.290102 -0.037500 0.164694
v 0.290102 -0.037500 0.164694
v 0.265676 -0.037498 0.011082
v 0.318721 -0.037500 -0.051405
v 0.373732 -0.037500 0.162998
v 0.402369 -0.037500 -0.049248
v 0.473541 -0.037500 0.135395
v 0.491159 -0.037500 -0.023521
v 0.525278 -0.037500 0.525572
v 0.525278 -0.037500 0.525572
v 0.550729 -0.037498 0.139549
v 0.550729 -0.037498 0.139549
v 0.555909 -0.037500 -0.034714
v 0.555909 -0.037500 -0.034714
v 0.525278 -0.037498 -0.476337
v 0.525278 -0.037498 -0.476337
v 0.564596 -0.037500 -0.256819
v 0.566884 -0.037500 0.331470
v 0.577099 -0.037500 0.215334
v 0.575945 -0.037500 -0.124186
vt 0.500000 0.500000
vt 0.500000 0.500000
vt 0.500000 0.500000
vt 0.500000 0.500000
vt 0.500000 0.500000
vt 0.500000 0.500000
vt 0.500000 0.500000
vt 0.500000 0.500000
vt 0.500000 0.500000
vt 0.500000 0.500000
vt 0.500000 0.500000
vt 0.500000 0.500000
vt 0.500000 0.500000
vt 0.500000 0.500000
vt 0.500000 0.500000
vt 0.500000 0.500000
vt 0.500000 0.500000
vt 0.500000 0.500000
vt 0.500000 0.500000
vt 0.500000 0.500000
vt 0.500000 0.500000
vt 0.500000 0.500000
vt 0.500000 0.500000
vt 0.500000 0.500000
vt 0.500000 0.500000
vt 0.500000 0.500000
vt 0.500000 0.500000
vt 0.500000 0.500000
vt 0.500000 0.500000
vt 0.500000 0.500000
vt 0.500000 0.500000
vt 0.500000 0.500000
vt 0.500000 0.500000
vt 0.500000 0.500000
vt 0.500000 0.500000
vt 0.500000 0.500000
vt 0.500000 0.500000
vt 0.500000 0.500000
vt 0.500000 0.500000
vt 0.500000 0.500000
vt 0.500000 0.500000
vt 0.500000 0.500000
vt 0.500000 0.500000
vt 0.500000 0.500000
vt 0.500000 0.500000
vt 0.500000 0.500000
vt 0.500000 0.500000
vt 0.500000 0.500000
vt 0.500000 0.500000
vt 0.500000 0.500000
vt 0.500000 0.500000
vt 0.500000 0.500000
vt 0.500000 0.500000
vt 0.500000 0.500000
vt 0.500000 0.500000
vt 0.500000 0.500000
vt 0.500000 0.500000
vt 0.500000 0.500000
vt 0.500000 0.500000
vt 0.500000 0.500000
vt 0.500000 0.500000
vt 0.500000 0.500000
vt 0.500000 0.500000
vt 0.500000 0.500000
vt 0.500000 0.500000
vt 0.500000 0.500000
vt 0.500000 0.500000
vt 0.500000 0.500000
vt 0.500000 0.500000
vt 0.500000 0.500000
vt 0.500000 0.500000
vt 0.500000 0.500000
vt 0.500000 0.500000
vt 0.500000 0.500000
vt 0.500000 0.500000
vt 0.500000 0.500000
vt 0.500000 0.500000
vt 0.500000 0.500000
vt 0.500000 0.500000
vt 0.500000 0.500000
vt 0.500000 0.500000
vt 0.500000 0.500000
vt 0.500000 0.500000
vt 0.500000 0.500000
vt 0.500000 0.500000
vt 0.500000 0.500000
vt 0.500000 0.500000
vt 0.500000 0.500000
vt 0.500000 0.500000
vt 0.500000 0.500000
vt 0.500000 0.500000
vt 0.500000 0.500000
vt 0.500000 0.500000
vt 0.500000 0.500000
vt 0.500000 0.500000
vt 0.500000 0.500000
vt 0.500000 0.500000
vt 0.500000 0.500000
vt 0.500000 0.500000
vt 0.500000 0.500000
vt 0.500000 0.500000
vt 0.500000 0.500000
vt 0.500000 0.500000
vt 0.500000 0.500000
vt 0.500000 0.500000
vt 0.500000 0.500000
vt 0.500000 0.500000
vt 0.500000 0.500000
vt 0.500000 0.500000
vt 0.500000 0.500000
vt 0.500000 0.500000
vt 0.500000 0.500000
vt 0.500000 0.500000
vt 0.500000 0.500000
vt 0.500000 0.500000
vt 0.500000 0.500000
vt 0.500000 0.500000
vt 0.500000 0.500000
vt 0.500000 0.500000
vt 0.500000 0.500000
vt 0.500000 0.500000
vt 0.500000 0.500000
vt 0.500000 0.500000
vt 0.500000 0.500000
vt 0.500000 0.500000
vt 0.500000 0.500000
vt 0.500000 0.500000
vt 0.500000 0.500000
vt 0.500000 0.500000
vt 0.500000 0.500000
vt 0.500000 0.500000
vt 0.500000 0.500000
vt 0.500000 0.500000
vt 0.500000 0.500000
vt 0.500000 0.500000
vt 0.500000 0.500000
vt 0.500000 0.500000
vt 0.500000 0.500000
vt 0.500000 0.500000
vt 0.500000 0.500000
vt 0.500000 0.500000
vt 0.500000 0.500000
vt 0.500000 0.500000
vt 0.500000 0.500000
vt 0.500000 0.500000
vt 0.500000 0.500000
vt 0.500000 0.500000
vt 0.500000 0.500000
vt 0.500000 0.500000
vt 0.500000 0.500000
vt 0.500000 0.500000
vt 0.500000 0.500000
vt 0.500000 0.500000
vt 0.500000 0.500000
vt 0.500000 0.500000
vt 0.500000 0.500000
vt 0.500000 0.500000
vt 0.500000 0.500000
vt 0.500000 0.500000
vt 0.500000 0.500000
vt 0.500000 0.500000
vt 0.500000 0.500000
vt 0.500000 0.500000
vt 0.500000 0.500000
vt 0.500000 0.500000
vt 0.500000 0.500000
vt 0.500000 0.500000
vt 0.500000 0.500000
vt 0.500000 0.500000
vt 0.500000 0.500000
vt 0.500000 0.500000
vt 0.500000 0.500000
vt 0.500000 0.500000
vt 0.500000 0.500000
vt 0.500000 0.500000
vt 0.500000 0.500000
vt 0.500000 0.500000
vt 0.500000 0.500000
vt 0.500000 0.500000
vt 0.500000 0.500000
vt 0.500000 0.500000
vt 0.500000 0.500000
vt 0.500000 0.500000
vt 0.500000 0.500000
vt 0.500000 0.500000
vt 0.500000 0.500000
vt 0.500000 0.500000
vt 0.500000 0.500000
vt 0.500000 0.500000
vt 0.500000 0.500000
vt 0.500000 0.500000
vt 0.500000 0.500000
vt 0.500000 0.500000
vt 0.500000 0.500000
vt 0.500000 0.500000
vt 0.500000 0.500000
vt 0.500000 0.500000
vt 0.500000 0.500000
vt 0.500000 0.500000
vt 0.500000 0.500000
vt 0.500000 0.500000
vt 0.500000 0.500000
vt 0.500000 0.500000
vt 0.500000 0.500000
vt 0.500000 0.500000
vt 0.500000 0.500000
vt 0.500000 0.500000
vt 0.625788 0.581696
vt 0.621279 0.581319
vt 0.631253 0.570485
vt 0.634589 0.567074
vt 0.632034 0.567314
vt 0.634445 0.560245
vt 0.637984 0.568129
vt 0.637590 0.559127
vt 0.618268 0.543086
vt 0.618641 0.540393
vt 0.621617 0.539559
vt 0.599196 0.574948
vt 0.599146 0.569979
vt 0.605248 0.568374
vt 0.617679 0.594132
vt 0.614528 0.593484
vt 0.619424 0.589621
vt 0.607706 0.568604
vt 0.608898 0.565847
vt 0.618351 0.582430
vt 0.604286 0.558874
vt 0.598627 0.550649
vt 0.612006 0.551449
vt 0.600000 0.541667
vt 0.606458 0.539936
vt 0.619737 0.592891
vt 0.632133 0.559839
vt 0.626030 0.540031
vt 0.631874 0.550721
vt 0.619124 0.546779
vt 0.617117 0.552465
vt 0.610322 0.539511
vt 0.612843 0.540608
vt 0.612981 0.543819
vt 0.610318 0.582453
vt 0.600000 0.583333
vt 0.612185 0.588544
vt 0.613030 0.585571
vt 0.612855 0.583345
vt 0.618234 0.585593
vt 0.601218 0.559991
vt 0.598234 0.556052
vt 0.607073 0.558887
vt 0.614101 0.552957
vt 0.619196 0.550259
vt 0.602369 0.566916
vt 0.598945 0.559645
vt 0.608678 0.561767
vt 0.640473 0.559011
vt 0.642156 0.561615
vt 0.631436 0.556181
vt 0.631729 0.575303
vt 0.633333 0.583333
vt 0.640923 0.568107
vt 0.642350 0.565422
vt 0.612063 0.547970
vt 0.612256 0.591439
vt 0.633333 0.541667
vt 0.600087 0.566845
vn 0.0000 -1.0000 0.0000
vn -0.9867 0.0000 0.1624
vn -0.9007 0.0000 -0.4344
vn -0.8114 0.0000 0.5844
vn 0.1187 0.0000 -0.9929
vn -0.0308 0.0000 0.9995
vn 0.3467 0.0000 -0.9380
vn 0.3347 0.0000 0.9423
vn -0.0463 0.0000 -0.9989
vn -0.0978 0.0000 0.9952
vn -0.9626 0.0000 0.2709
vn -0.9853 0.0000 0.1710
vn -0.9977 0.0000 -0.0681
vn -0.9569 0.0000 -0.2904
vn -0.9978 0.0000 0.0667
vn 0.2424 0.0000 -0.9702
vn -0.1191 0.0000 0.9929
vn 0.1226 0.0000 -0.9925
vn -0.0125 0.0000 0.9999
vn -0.2943 0.0000 -0.9557
vn 0.3514 0.0000 0.9362
vn 0.9972 0.0000 -0.0746
vn 0.4755 0.0000 0.8797
vn 0.9997 0.0000 -0.0249
vn 0.9269 0.0000 -0.3754
vn -0.9705 0.0000 0.2411
vn -1.0000 0.0000 -0.0059
vn -0.5533 0.0000 -0.8330
vn -0.9972 0.0000 -0.0747
vn -0.0673 0.0000 0.9977
vn 0.0635 0.0000 -0.9980
vn -0.5715 0.0000 0.8206
vn 0.6287 0.0000 -0.7776
vn 0.9903 0.0000 -0.1388
vn 0.9619 0.0000 0.2735
vn 0.9995 0.0000 0.0321
vn -0.9927 0.0000 0.1206
vn -0.9602 0.0000 -0.2795
vn 0.2317 0.0000 -0.9728
vn -0.2401 0.0000 0.9707
vn -1.0000 0.0000 0.0035
vn -0.0998 0.0000 -0.9950
vn 0.0905 0.0000 0.9959
vn 0.8665 0.0000 -0.4991
vn 0.9916 0.0000 0.1295
vn 0.7624 0.0000 0.6472
vn -0.0203 0.0000 -0.9998
vn -0.0258 0.0000 0.9997
vn -0.2666 0.0000 -0.9638
vn -0.2783 0.0000 0.9605
vn 0.1878 0.0000 0.9822
vn 0.0537 0.0000 -0.9986
vn 0.1703 0.0000 0.9854
vn -0.1976 0.0000 -0.9803
vn 0.9843 0.0000 -0.1763
vn 0.9778 0.0000 0.2096
vn 0.9962 0.0000 0.0876
vn 0.9445 0.0000 -0.3286
vn 0.9758 0.0000 0.2185
vn 0.9964 0.0000 -0.0853
vn 0.0000 1.0000 0.0000
usemtl BackMat.001
s off
f 207/1/1 215/2/1 212/3/1
f 226/4/1 234/5/1 217/6/1
f 227/7/1 237/8/1 226/4/1
f 254/9/1 266/10/1 259/11/1
f 214/12/1 223/13/1 216/14/1
f 194/15/1 198/16/1 193/17/1
f 221/18/1 202/19/1 224/20/1
f 241/21/1 247/22/1 245/23/1
f 245/23/1 264/24/1 255/25/1
f 195/26/1 198/16/1 194/15/1
f 217/6/1 234/5/1 235/27/1
f 263/28/1 252/29/1 244/30/1
f 215/2/1 249/31/1 224/20/1
f 265/32/1 253/33/1 257/34/1
f 206/35/1 214/12/1 210/36/1
f 193/17/1 198/16/1 199/37/1
f 201/38/1 200/39/1 204/40/1
f 241/21/1 243/41/1 240/42/1
f 234/5/1 226/4/1 237/8/1
f 264/24/1 253/33/1 265/32/1
f 202/19/1 212/3/1 224/20/1
f 232/43/1 246/44/1 247/22/1
f 204/40/1 221/18/1 206/35/1
f 206/35/1 223/13/1 214/12/1
f 244/30/1 252/29/1 250/45/1
f 266/10/1 252/29/1 263/28/1
f 223/13/1 225/46/1 216/14/1
f 240/42/1 243/41/1 238/47/1
f 249/31/1 246/44/1 230/48/1
f 237/8/1 231/49/1 233/50/1
f 206/35/1 221/18/1 223/13/1
f 244/30/1 250/45/1 242/51/1
f 235/27/1 249/31/1 217/6/1
f 213/52/1 207/1/1 208/53/1
f 252/29/1 266/10/1 254/9/1
f 217/6/1 249/31/1 215/2/1
f 199/37/1 198/16/1 200/39/1
f 241/21/1 245/23/1 243/41/1
f 231/49/1 237/8/1 227/7/1
f 242/51/1 250/45/1 249/31/1
f 228/54/1 229/55/1 227/7/1
f 199/37/1 200/39/1 201/38/1
f 224/20/1 249/31/1 230/48/1
f 245/23/1 247/22/1 251/56/1
f 197/57/1 193/17/1 199/37/1
f 245/23/1 251/56/1 264/24/1
f 231/49/1 227/7/1 229/55/1
f 263/28/1 244/30/1 261/58/1
f 204/40/1 202/19/1 221/18/1
f 253/33/1 264/24/1 251/56/1
f 242/51/1 249/31/1 235/27/1
f 213/52/1 215/2/1 207/1/1
f 202/19/1 204/40/1 200/39/1
f 232/43/1 247/22/1 241/21/1
f 216/14/1 225/46/1 219/59/1
f 230/48/1 246/44/1 232/43/1
f 212/3/1 215/2/1 224/20/1
f 51/60/2 52/61/2 111/62/2 110/63/2
f 52/61/3 122/64/3 196/65/3 111/62/3
f 50/66/4 51/60/4 110/63/4 109/67/4
f 53/68/5 54/69/5 113/70/5 112/71/5
f 49/72/6 50/66/6 109/67/6 108/73/6
f 54/69/7 55/74/7 114/75/7 113/70/7
f 48/76/8 49/72/8 108/73/8 107/77/8
f 55/74/9 129/78/9 203/79/9 114/75/9
f 131/80/10 48/76/10 107/77/10 205/81/10
f 46/82/11 47/83/11 106/84/11 105/85/11
f 58/86/12 135/87/12 209/88/12 117/89/12
f 137/90/13 46/82/13 105/85/13 211/91/13
f 56/92/14 57/93/14 116/94/14 115/95/14
f 57/93/15 58/86/15 117/89/15 116/94/15
f 59/96/16 1/97/16 60/98/16 118/99/16
f 44/100/17 45/101/17 104/102/17 103/103/17
f 1/97/18 2/104/18 61/105/18 60/98/18
f 43/106/19 44/100/19 103/103/19 102/107/19
f 2/104/20 144/108/20 218/109/20 61/105/20
f 146/110/21 43/106/21 102/107/21 220/111/21
f 148/112/22 40/113/22 99/114/22 222/115/22
f 38/116/23 39/117/23 98/118/23 97/119/23
f 41/120/24 42/121/24 101/122/24 100/123/24
f 40/113/25 41/120/25 100/123/25 99/114/25
f 4/124/26 5/125/26 64/126/26 63/127/26
f 5/125/27 6/128/27 65/129/27 64/126/27
f 6/128/28 7/130/28 66/131/28 65/129/28
f 3/132/29 4/124/29 63/127/29 62/133/29
f 37/134/30 38/116/30 97/119/30 96/135/30
f 7/130/31 8/136/31 67/137/31 66/131/31
f 36/138/32 37/134/32 96/135/32 95/139/32
f 8/136/33 9/140/33 68/141/33 67/137/33
f 11/142/34 162/143/34 236/144/34 70/145/34
f 10/146/35 11/142/35 70/145/35 69/147/35
f 9/140/36 10/146/36 69/147/36 68/141/36
f 165/148/37 34/149/37 93/150/37 239/151/37
f 34/149/38 35/152/38 94/153/38 93/150/38
f 12/154/39 13/155/39 72/156/39 71/157/39
f 32/158/40 33/159/40 92/160/40 91/161/40
f 35/152/41 36/138/41 95/139/41 94/153/41
f 13/155/42 14/162/42 73/163/42 72/156/42
f 31/164/43 32/158/43 91/161/43 90/165/43
f 23/166/44 174/167/44 248/168/44 82/169/44
f 22/170/45 23/166/45 82/169/45 81/171/45
f 21/172/46 22/170/46 81/171/46 80/173/46
f 24/174/47 25/175/47 84/176/47 83/177/47
f 20/178/48 21/172/48 80/173/48 79/179/48
f 25/175/49 26/180/49 85/181/49 84/176/49
f 19/182/50 20/178/50 79/179/50 78/183/50
f 182/184/51 31/164/51 90/165/51 256/185/51
f 26/180/52 184/186/52 258/187/52 85/181/52
f 186/188/53 19/182/53 78/183/53 260/189/53
f 14/162/54 188/190/54 262/191/54 73/163/54
f 15/192/55 16/193/55 75/194/55 74/195/55
f 29/196/56 30/197/56 89/198/56 88/199/56
f 28/200/57 29/196/57 88/199/57 87/201/57
f 27/202/58 28/200/58 87/201/58 86/203/58
f 17/204/59 18/205/59 77/206/59 76/207/59
f 16/193/60 17/204/60 76/207/60 75/194/60
usemtl FrontMat.001
f 133/208/61 138/209/61 141/210/61
f 152/211/61 143/212/61 160/213/61
f 153/214/61 152/211/61 163/215/61
f 180/216/61 185/217/61 192/218/61
f 140/219/61 142/220/61 149/221/61
f 120/222/61 119/223/61 124/224/61
f 147/225/61 150/226/61 128/227/61
f 167/228/61 171/229/61 173/230/61
f 171/229/61 181/231/61 190/232/61
f 121/233/61 120/222/61 124/224/61
f 143/212/61 161/234/61 160/213/61
f 189/235/61 170/236/61 178/237/61
f 141/210/61 150/226/61 175/238/61
f 191/239/61 183/240/61 179/241/61
f 132/242/61 136/243/61 140/219/61
f 119/223/61 125/244/61 124/224/61
f 127/245/61 130/246/61 126/247/61
f 167/228/61 166/248/61 169/249/61
f 160/213/61 163/215/61 152/211/61
f 190/232/61 191/239/61 179/241/61
f 128/227/61 150/226/61 138/209/61
f 158/250/61 173/230/61 172/251/61
f 130/246/61 132/242/61 147/225/61
f 132/242/61 140/219/61 149/221/61
f 170/236/61 176/252/61 178/237/61
f 192/218/61 189/235/61 178/237/61
f 149/221/61 142/220/61 151/253/61
f 166/248/61 164/254/61 169/249/61
f 175/238/61 156/255/61 172/251/61
f 163/215/61 159/256/61 157/257/61
f 132/242/61 149/221/61 147/225/61
f 170/236/61 168/258/61 176/252/61
f 161/234/61 143/212/61 175/238/61
f 139/259/61 134/260/61 133/208/61
f 178/237/61 180/216/61 192/218/61
f 143/212/61 141/210/61 175/238/61
f 125/244/61 126/247/61 124/224/61
f 167/228/61 169/249/61 171/229/61
f 157/257/61 153/214/61 163/215/61
f 168/258/61 175/238/61 176/252/61
f 154/261/61 153/214/61 155/262/61
f 125/244/61 127/245/61 126/247/61
f 150/226/61 156/255/61 175/238/61
f 171/229/61 177/263/61 173/230/61
f 123/264/61 125/244/61 119/223/61
f 171/229/61 190/232/61 177/263/61
f 157/257/61 155/262/61 153/214/61
f 189/235/61 187/265/61 170/236/61
f 130/246/61 147/225/61 128/227/61
f 179/241/61 177/263/61 190/232/61
f 168/258/61 161/234/61 175/238/61
f 139/259/61 133/208/61 141/210/61
f 128/227/61 126/247/61 130/246/61
f 158/250/61 167/228/61 173/230/61
f 142/220/61 145/266/61 151/253/61
f 156/255/61 158/250/61 172/251/61
f 138/209/61 150/226/61 141/210/61
