# Blender v2.83.1 OBJ File: 'jigsaw-30x24-3-step2.blend'
# www.blender.org
mtllib piece.639.mtl
o path1278
v 0.540951 0.037500 -0.328376
v 0.543667 0.037500 -0.211575
v 0.521898 0.037500 -0.136076
v 0.466293 0.037500 -0.133411
v 0.393358 0.037500 -0.162051
v 0.326021 0.037500 -0.162201
v 0.284651 0.037500 -0.093968
v 0.279388 0.037500 0.002921
v 0.317808 0.037500 0.068837
v 0.399916 0.037500 0.064710
v 0.495455 0.037500 0.033704
v 0.566603 0.037500 0.039545
v 0.586168 0.037500 0.126114
v 0.569475 0.037500 0.257914
v 0.518959 0.037500 0.477783
v 0.197647 0.037500 0.417202
v 0.119587 0.037500 0.429772
v 0.116213 0.037500 0.484625
v 0.146336 0.037500 0.564081
v 0.150330 0.037500 0.642680
v 0.088091 0.037500 0.697707
v -0.002342 0.037500 0.717440
v -0.063395 0.037500 0.692902
v -0.057533 0.037500 0.622551
v -0.027348 0.037500 0.534563
v -0.035467 0.037500 0.464545
v -0.124784 0.037500 0.438616
v -0.259218 0.037500 0.444937
v -0.482739 0.037500 0.477783
v -0.447826 0.037500 0.113628
v -0.466864 0.037500 0.025545
v -0.521786 0.037500 0.022649
v -0.594761 0.037500 0.058835
v -0.660936 0.037500 0.067184
v -0.699099 0.037500 0.002411
v -0.702579 0.037500 -0.094240
v -0.668350 0.037500 -0.159889
v -0.598936 0.037500 -0.152868
v -0.518826 0.037500 -0.116343
v -0.458038 0.037500 -0.114687
v -0.438242 0.037500 -0.192585
v -0.447683 0.037500 -0.315968
v -0.482738 0.037500 -0.524126
v -0.143646 0.037500 -0.554997
v -0.059498 0.037500 -0.536301
v -0.052212 0.037500 -0.483667
v -0.078306 0.037500 -0.412123
v -0.074991 0.037500 -0.342910
v -0.000509 0.037500 -0.295527
v 0.102802 0.037500 -0.282491
v 0.171576 0.037500 -0.314574
v 0.163998 0.037500 -0.394198
v 0.124464 0.037500 -0.490377
v 0.118917 0.037500 -0.563778
v 0.193356 0.037500 -0.585889
v 0.314043 0.037500 -0.571509
v 0.518959 0.037500 -0.524126
v 0.540951 -0.037500 -0.328376
v 0.543667 -0.037500 -0.211575
v 0.521898 -0.037500 -0.136076
v 0.466293 -0.037498 -0.133411
v 0.393358 -0.037500 -0.162051
v 0.326021 -0.037500 -0.162201
v 0.284651 -0.037498 -0.093968
v 0.279388 -0.037500 0.002921
v 0.317808 -0.037500 0.068837
v 0.399916 -0.037500 0.064710
v 0.495455 -0.037500 0.033704
v 0.566603 -0.037500 0.039545
v 0.586168 -0.037500 0.126114
v 0.569475 -0.037498 0.257914
v 0.518959 -0.037500 0.477783
v 0.197647 -0.037500 0.417202
v 0.119587 -0.037500 0.429772
v 0.116213 -0.037500 0.484625
v 0.146336 -0.037500 0.564081
v 0.150330 -0.037500 0.642680
v 0.088091 -0.037500 0.697707
v -0.002342 -0.037500 0.717440
v -0.063395 -0.037500 0.692902
v -0.057533 -0.037500 0.622551
v -0.027348 -0.037498 0.534563
v -0.035467 -0.037500 0.464545
v -0.124784 -0.037498 0.438616
v -0.259218 -0.037500 0.444937
v -0.482739 -0.037500 0.477783
v -0.447826 -0.037500 0.113628
v -0.466864 -0.037500 0.025545
v -0.521786 -0.037498 0.022649
v -0.594761 -0.037500 0.058835
v -0.660936 -0.037500 0.067184
v -0.699099 -0.037500 0.002411
v -0.702579 -0.037498 -0.094240
v -0.668350 -0.037500 -0.159889
v -0.598936 -0.037500 -0.152868
v -0.518826 -0.037500 -0.116343
v -0.458038 -0.037500 -0.114687
v -0.438242 -0.037500 -0.192585
v -0.447683 -0.037498 -0.315968
v -0.482738 -0.037500 -0.524126
v -0.143646 -0.037500 -0.554997
v -0.059498 -0.037500 -0.536301
v -0.052212 -0.037500 -0.483667
v -0.078306 -0.037500 -0.412123
v -0.074991 -0.037500 -0.342910
v -0.000509 -0.037500 -0.295527
v 0.102802 -0.037500 -0.282491
v 0.171576 -0.037500 -0.314574
v 0.163998 -0.037500 -0.394198
v 0.124464 -0.037500 -0.490377
v 0.118917 -0.037498 -0.563778
v 0.193356 -0.037500 -0.585889
v 0.314043 -0.037500 -0.571509
v 0.518959 -0.037500 -0.524126
v 0.566603 0.037500 0.039545
v 0.566603 0.037500 0.039545
v 0.586168 0.037500 0.126114
v 0.569475 0.037500 0.257914
v 0.495455 0.037500 0.033704
v 0.540951 0.037500 -0.328376
v 0.543667 0.037500 -0.211575
v 0.521898 0.037500 -0.136076
v 0.521898 0.037500 -0.136076
v 0.518959 0.037500 0.477783
v 0.518959 0.037500 0.477783
v 0.466293 0.037500 -0.133411
v 0.518959 0.037500 -0.524126
v 0.518959 0.037500 -0.524126
v 0.399916 0.037500 0.064710
v 0.393358 0.037500 -0.162051
v 0.314043 0.037500 -0.571509
v 0.317808 0.037500 0.068837
v 0.317808 0.037500 0.068837
v 0.326021 0.037500 -0.162201
v 0.284651 0.037500 -0.093968
v 0.197647 0.037500 0.417202
v 0.279388 0.037500 0.002921
v 0.193356 0.037500 -0.585889
v 0.119587 0.037500 0.429772
v 0.119587 0.037500 0.429772
v 0.118917 0.037500 -0.563778
v 0.118917 0.037500 -0.563778
v 0.171576 0.037500 -0.314574
v 0.171576 0.037500 -0.314574
v 0.163998 0.037500 -0.394198
v 0.102802 0.037500 -0.282491
v 0.124464 0.037500 -0.490377
v 0.146336 0.037500 0.564081
v 0.150330 0.037500 0.642680
v 0.088091 0.037500 0.697707
v 0.116213 0.037500 0.484625
v -0.000509 0.037500 -0.295527
v -0.002342 0.037500 0.717440
v -0.074991 0.037500 -0.342910
v -0.063395 0.037500 0.692902
v -0.063395 0.037500 0.692902
v -0.027348 0.037500 0.534563
v -0.035467 0.037500 0.464545
v -0.035467 0.037500 0.464545
v -0.057533 0.037500 0.622551
v -0.124784 0.037500 0.438616
v -0.059498 0.037500 -0.536301
v -0.059498 0.037500 -0.536301
v -0.052212 0.037500 -0.483667
v -0.078306 0.037500 -0.412123
v -0.143646 0.037500 -0.554997
v -0.259218 0.037500 0.444937
v -0.482738 0.037500 -0.524126
v -0.482738 0.037500 -0.524126
v -0.438242 0.037500 -0.192585
v -0.447683 0.037500 -0.315968
v -0.458038 0.037500 -0.114687
v -0.458038 0.037500 -0.114687
v -0.447826 0.037500 0.113628
v -0.466864 0.037500 0.025545
v -0.466864 0.037500 0.025545
v -0.482739 0.037500 0.477783
v -0.482739 0.037500 0.477783
v -0.518826 0.037500 -0.116343
v -0.521786 0.037500 0.022649
v -0.598936 0.037500 -0.152868
v -0.594761 0.037500 0.058835
v -0.660936 0.037500 0.067184
v -0.660936 0.037500 0.067184
v -0.668350 0.037500 -0.159889
v -0.668350 0.037500 -0.159889
v -0.699099 0.037500 0.002411
v -0.702579 0.037500 -0.094240
v 0.566603 -0.037500 0.039545
v 0.566603 -0.037500 0.039545
v 0.586168 -0.037500 0.126114
v 0.569475 -0.037498 0.257914
v 0.495455 -0.037500 0.033704
v 0.540951 -0.037500 -0.328376
v 0.543667 -0.037500 -0.211575
v 0.521898 -0.037500 -0.136076
v 0.521898 -0.037500 -0.136076
v 0.518959 -0.037500 0.477783
v 0.518959 -0.037500 0.477783
v 0.466293 -0.037498 -0.133411
v 0.518959 -0.037500 -0.524126
v 0.518959 -0.037500 -0.524126
v 0.399916 -0.037500 0.064710
v 0.393358 -0.037500 -0.162051
v 0.314043 -0.037500 -0.571509
v 0.317808 -0.037500 0.068837
v 0.317808 -0.037500 0.068837
v 0.326021 -0.037500 -0.162201
v 0.284651 -0.037498 -0.093968
v 0.197647 -0.037500 0.417202
v 0.279388 -0.037500 0.002921
v 0.193356 -0.037500 -0.585889
v 0.119587 -0.037500 0.429772
v 0.119587 -0.037500 0.429772
v 0.118917 -0.037498 -0.563778
v 0.118917 -0.037498 -0.563778
v 0.171576 -0.037500 -0.314574
v 0.171576 -0.037500 -0.314574
v 0.163998 -0.037500 -0.394198
v 0.102802 -0.037500 -0.282491
v 0.124464 -0.037500 -0.490377
v 0.146336 -0.037500 0.564081
v 0.150330 -0.037500 0.642680
v 0.088091 -0.037500 0.697707
v 0.116213 -0.037500 0.484625
v -0.000509 -0.037500 -0.295527
v -0.002342 -0.037500 0.717440
v -0.074991 -0.037500 -0.342910
v -0.063395 -0.037500 0.692902
v -0.063395 -0.037500 0.692902
v -0.027348 -0.037498 0.534563
v -0.035467 -0.037500 0.464545
v -0.035467 -0.037500 0.464545
v -0.057533 -0.037500 0.622551
v -0.124784 -0.037498 0.438616
v -0.059498 -0.037500 -0.536301
v -0.059498 -0.037500 -0.536301
v -0.052212 -0.037500 -0.483667
v -0.078306 -0.037500 -0.412123
v -0.143646 -0.037500 -0.554997
v -0.259218 -0.037500 0.444937
v -0.482738 -0.037500 -0.524126
v -0.482738 -0.037500 -0.524126
v -0.438242 -0.037500 -0.192585
v -0.447683 -0.037498 -0.315968
v -0.458038 -0.037500 -0.114687
v -0.458038 -0.037500 -0.114687
v -0.447826 -0.037500 0.113628
v -0.466864 -0.037500 0.025545
v -0.466864 -0.037500 0.025545
v -0.482739 -0.037500 0.477783
v -0.482739 -0.037500 0.477783
v -0.518826 -0.037500 -0.116343
v -0.521786 -0.037498 0.022649
v -0.598936 -0.037500 -0.152868
v -0.594761 -0.037500 0.058835
v -0.660936 -0.037500 0.067184
v -0.660936 -0.037500 0.067184
v -0.668350 -0.037500 -0.159889
v -0.668350 -0.037500 -0.159889
v -0.699099 -0.037500 0.002411
v -0.702579 -0.037498 -0.094240
vt 0.500000 0.500000
vt 0.500000 0.500000
vt 0.500000 0.500000
vt 0.500000 0.500000
vt 0.500000 0.500000
vt 0.500000 0.500000
vt 0.500000 0.500000
vt 0.500000 0.500000
vt 0.500000 0.500000
vt 0.500000 0.500000
vt 0.500000 0.500000
vt 0.500000 0.500000
vt 0.500000 0.500000
vt 0.500000 0.500000
vt 0.500000 0.500000
vt 0.500000 0.500000
vt 0.500000 0.500000
vt 0.500000 0.500000
vt 0.500000 0.500000
vt 0.500000 0.500000
vt 0.500000 0.500000
vt 0.500000 0.500000
vt 0.500000 0.500000
vt 0.500000 0.500000
vt 0.500000 0.500000
vt 0.500000 0.500000
vt 0.500000 0.500000
vt 0.500000 0.500000
vt 0.500000 0.500000
vt 0.500000 0.500000
vt 0.500000 0.500000
vt 0.500000 0.500000
vt 0.500000 0.500000
vt 0.500000 0.500000
vt 0.500000 0.500000
vt 0.500000 0.500000
vt 0.500000 0.500000
vt 0.500000 0.500000
vt 0.500000 0.500000
vt 0.500000 0.500000
vt 0.500000 0.500000
vt 0.500000 0.500000
vt 0.500000 0.500000
vt 0.500000 0.500000
vt 0.500000 0.500000
vt 0.500000 0.500000
vt 0.500000 0.500000
vt 0.500000 0.500000
vt 0.500000 0.500000
vt 0.500000 0.500000
vt 0.500000 0.500000
vt 0.500000 0.500000
vt 0.500000 0.500000
vt 0.500000 0.500000
vt 0.500000 0.500000
vt 0.500000 0.500000
vt 0.500000 0.500000
vt 0.500000 0.500000
vt 0.500000 0.500000
vt 0.500000 0.500000
vt 0.500000 0.500000
vt 0.500000 0.500000
vt 0.500000 0.500000
vt 0.500000 0.500000
vt 0.500000 0.500000
vt 0.500000 0.500000
vt 0.500000 0.500000
vt 0.500000 0.500000
vt 0.500000 0.500000
vt 0.500000 0.500000
vt 0.500000 0.500000
vt 0.500000 0.500000
vt 0.500000 0.500000
vt 0.500000 0.500000
vt 0.500000 0.500000
vt 0.500000 0.500000
vt 0.500000 0.500000
vt 0.500000 0.500000
vt 0.500000 0.500000
vt 0.500000 0.500000
vt 0.500000 0.500000
vt 0.500000 0.500000
vt 0.500000 0.500000
vt 0.500000 0.500000
vt 0.500000 0.500000
vt 0.500000 0.500000
vt 0.500000 0.500000
vt 0.500000 0.500000
vt 0.500000 0.500000
vt 0.500000 0.500000
vt 0.500000 0.500000
vt 0.500000 0.500000
vt 0.500000 0.500000
vt 0.500000 0.500000
vt 0.500000 0.500000
vt 0.500000 0.500000
vt 0.500000 0.500000
vt 0.500000 0.500000
vt 0.500000 0.500000
vt 0.500000 0.500000
vt 0.500000 0.500000
vt 0.500000 0.500000
vt 0.500000 0.500000
vt 0.500000 0.500000
vt 0.500000 0.500000
vt 0.500000 0.500000
vt 0.500000 0.500000
vt 0.500000 0.500000
vt 0.500000 0.500000
vt 0.500000 0.500000
vt 0.500000 0.500000
vt 0.500000 0.500000
vt 0.500000 0.500000
vt 0.500000 0.500000
vt 0.500000 0.500000
vt 0.500000 0.500000
vt 0.500000 0.500000
vt 0.500000 0.500000
vt 0.500000 0.500000
vt 0.500000 0.500000
vt 0.500000 0.500000
vt 0.500000 0.500000
vt 0.500000 0.500000
vt 0.500000 0.500000
vt 0.500000 0.500000
vt 0.500000 0.500000
vt 0.500000 0.500000
vt 0.500000 0.500000
vt 0.500000 0.500000
vt 0.500000 0.500000
vt 0.500000 0.500000
vt 0.500000 0.500000
vt 0.500000 0.500000
vt 0.500000 0.500000
vt 0.500000 0.500000
vt 0.500000 0.500000
vt 0.500000 0.500000
vt 0.500000 0.500000
vt 0.500000 0.500000
vt 0.500000 0.500000
vt 0.500000 0.500000
vt 0.500000 0.500000
vt 0.500000 0.500000
vt 0.500000 0.500000
vt 0.500000 0.500000
vt 0.500000 0.500000
vt 0.500000 0.500000
vt 0.500000 0.500000
vt 0.500000 0.500000
vt 0.500000 0.500000
vt 0.500000 0.500000
vt 0.500000 0.500000
vt 0.500000 0.500000
vt 0.500000 0.500000
vt 0.500000 0.500000
vt 0.500000 0.500000
vt 0.500000 0.500000
vt 0.500000 0.500000
vt 0.500000 0.500000
vt 0.500000 0.500000
vt 0.500000 0.500000
vt 0.500000 0.500000
vt 0.500000 0.500000
vt 0.500000 0.500000
vt 0.500000 0.500000
vt 0.500000 0.500000
vt 0.500000 0.500000
vt 0.500000 0.500000
vt 0.500000 0.500000
vt 0.500000 0.500000
vt 0.500000 0.500000
vt 0.500000 0.500000
vt 0.500000 0.500000
vt 0.500000 0.500000
vt 0.500000 0.500000
vt 0.500000 0.500000
vt 0.500000 0.500000
vt 0.500000 0.500000
vt 0.500000 0.500000
vt 0.500000 0.500000
vt 0.500000 0.500000
vt 0.500000 0.500000
vt 0.500000 0.500000
vt 0.500000 0.500000
vt 0.500000 0.500000
vt 0.500000 0.500000
vt 0.500000 0.500000
vt 0.500000 0.500000
vt 0.500000 0.500000
vt 0.500000 0.500000
vt 0.500000 0.500000
vt 0.500000 0.500000
vt 0.500000 0.500000
vt 0.500000 0.500000
vt 0.500000 0.500000
vt 0.500000 0.500000
vt 0.500000 0.500000
vt 0.500000 0.500000
vt 0.500000 0.500000
vt 0.500000 0.500000
vt 0.500000 0.500000
vt 0.500000 0.500000
vt 0.500000 0.500000
vt 0.500000 0.500000
vt 0.500000 0.500000
vt 0.270393 0.100156
vt 0.268013 0.101242
vt 0.265640 0.097438
vt 0.284185 0.074334
vt 0.286339 0.075921
vt 0.286062 0.078674
vt 0.297984 0.111635
vt 0.292685 0.127101
vt 0.286394 0.116633
vt 0.301889 0.102276
vt 0.307317 0.107078
vt 0.302871 0.109500
vt 0.288300 0.127796
vt 0.286257 0.120048
vt 0.300228 0.108247
vt 0.265347 0.108360
vt 0.267789 0.108591
vt 0.264612 0.111456
vt 0.274706 0.107689
vt 0.284201 0.115035
vt 0.280978 0.115254
vt 0.280234 0.081832
vt 0.284858 0.081709
vt 0.284954 0.083994
vt 0.279666 0.122809
vt 0.279577 0.125122
vt 0.277065 0.126028
vt 0.279018 0.078500
vt 0.274272 0.103392
vt 0.287885 0.084785
vt 0.265090 0.116476
vt 0.270989 0.110235
vt 0.273179 0.125915
vt 0.272696 0.100294
vt 0.277697 0.085184
vt 0.273592 0.084791
vt 0.278708 0.116974
vt 0.278713 0.119775
vt 0.266667 0.083333
vt 0.304816 0.101020
vt 0.280289 0.084361
vt 0.266667 0.125000
vt 0.300000 0.083333
vt 0.298907 0.092631
vt 0.273638 0.110550
vt 0.307973 0.103316
vt 0.266262 0.100938
vt 0.278785 0.075613
vt 0.280969 0.074189
vt 0.285420 0.126982
vt 0.285226 0.124022
vt 0.298403 0.108388
vt 0.299560 0.101938
vt 0.307157 0.100776
vt 0.305486 0.109666
vt 0.300000 0.125000
vt 0.298697 0.098223
vn 0.0000 -1.0000 -0.0000
vn 0.9754 0.0000 -0.2205
vn 0.9921 0.0000 0.1257
vn 0.0818 0.0000 -0.9966
vn 0.9997 0.0000 -0.0232
vn 0.9609 0.0000 0.2770
vn 0.9746 0.0000 0.2239
vn 0.0479 0.0000 0.9989
vn 0.9937 0.0000 -0.1116
vn -0.3087 0.0000 -0.9512
vn -0.3655 0.0000 0.9308
vn 0.2253 0.0000 -0.9743
vn -0.0502 0.0000 -0.9987
vn -0.0022 0.0000 1.0000
vn 0.8551 0.0000 0.5185
vn -0.1853 0.0000 0.9827
vn 0.8640 0.0000 -0.5036
vn 0.1183 0.0000 -0.9930
vn 0.9985 0.0000 0.0542
vn 0.1590 0.0000 0.9873
vn -0.2847 0.0000 -0.9586
vn -0.9955 0.0000 0.0947
vn -0.4228 0.0000 -0.9062
vn -0.9972 0.0000 0.0754
vn -0.9249 0.0000 0.3802
vn 0.9987 0.0000 -0.0507
vn 0.6624 0.0000 0.7492
vn 0.9351 0.0000 -0.3545
vn 0.9981 0.0000 0.0614
vn 0.1252 0.0000 -0.9921
vn 0.2132 0.0000 0.9770
vn 0.5368 0.0000 -0.8437
vn -0.3729 0.0000 0.9279
vn -0.9933 0.0000 0.1152
vn -0.9459 0.0000 -0.3245
vn -0.9965 0.0000 -0.0830
vn -0.2788 0.0000 0.9604
vn 0.9906 0.0000 -0.1371
vn 0.9395 0.0000 0.3426
vn 0.2169 0.0000 -0.9762
vn 0.9989 0.0000 -0.0478
vn 0.0470 0.0000 0.9989
vn -0.0907 0.0000 -0.9959
vn -0.9971 0.0000 0.0763
vn -0.9692 0.0000 -0.2463
vn -0.9774 0.0000 0.2113
vn -0.9954 0.0000 -0.0954
vn 0.1454 0.0000 0.9894
vn 0.0272 0.0000 -0.9996
vn -0.0527 0.0000 0.9986
vn -0.9861 0.0000 0.1661
vn 0.4149 0.0000 -0.9099
vn 0.4443 0.0000 0.8959
vn 0.1252 0.0000 0.9921
vn 0.1006 0.0000 -0.9949
vn -0.8616 0.0000 0.5076
vn -0.8867 0.0000 -0.4623
vn -0.9994 0.0000 0.0360
vn 0.0000 1.0000 0.0000
usemtl BackMat.001
s off
f 239/1/1 240/2/1 238/3/1
f 261/4/1 256/5/1 257/6/1
f 210/7/1 206/8/1 192/9/1
f 231/10/1 222/11/1 224/12/1
f 192/9/1 203/13/1 191/14/1
f 222/11/1 231/10/1 225/15/1
f 192/9/1 206/8/1 203/13/1
f 215/16/1 212/17/1 221/18/1
f 220/19/1 209/20/1 211/21/1
f 253/22/1 249/23/1 254/24/1
f 200/25/1 195/26/1 196/27/1
f 261/4/1 255/28/1 256/5/1
f 226/29/1 211/21/1 248/30/1
f 220/19/1 211/21/1 226/29/1
f 205/31/1 194/32/1 219/33/1
f 253/22/1 254/24/1 255/28/1
f 228/34/1 226/29/1 244/35/1
f 240/2/1 239/1/1 245/36/1
f 208/37/1 194/32/1 204/38/1
f 240/2/1 245/36/1 242/39/1
f 231/10/1 224/12/1 234/40/1
f 246/41/1 249/23/1 253/22/1
f 201/42/1 194/32/1 205/31/1
f 248/30/1 241/43/1 251/44/1
f 226/29/1 249/23/1 246/41/1
f 217/45/1 209/20/1 220/19/1
f 234/40/1 224/12/1 227/46/1
f 238/3/1 240/2/1 236/47/1
f 255/28/1 262/48/1 259/49/1
f 226/29/1 248/30/1 249/23/1
f 191/14/1 193/50/1 189/51/1
f 254/24/1 256/5/1 255/28/1
f 203/13/1 193/50/1 191/14/1
f 213/52/1 225/15/1 232/53/1
f 195/26/1 204/38/1 194/32/1
f 212/17/1 205/31/1 219/33/1
f 209/20/1 217/45/1 208/37/1
f 219/33/1 194/32/1 217/45/1
f 234/40/1 227/46/1 229/54/1
f 224/12/1 222/11/1 223/55/1
f 210/7/1 192/9/1 198/56/1
f 221/18/1 212/17/1 219/33/1
f 206/8/1 213/52/1 211/21/1
f 235/57/1 213/52/1 232/53/1
f 204/38/1 195/26/1 200/25/1
f 213/52/1 206/8/1 210/7/1
f 211/21/1 213/52/1 235/57/1
f 248/30/1 235/57/1 241/43/1
f 232/53/1 225/15/1 231/10/1
f 244/35/1 226/29/1 246/41/1
f 255/28/1 261/4/1 262/48/1
f 211/21/1 235/57/1 248/30/1
f 194/32/1 208/37/1 217/45/1
f 245/36/1 228/34/1 244/35/1
f 239/1/1 228/34/1 245/36/1
f 116/58/2 13/59/2 70/60/2 190/61/2
f 13/59/3 14/62/3 71/63/3 70/60/3
f 11/64/4 12/65/4 69/66/4 68/67/4
f 1/68/5 2/69/5 59/70/5 58/71/5
f 2/69/6 123/72/6 197/73/6 59/70/6
f 14/62/7 125/74/7 199/75/7 71/63/7
f 3/76/8 4/77/8 61/78/8 60/79/8
f 128/80/9 1/68/9 58/71/9 202/81/9
f 10/82/10 11/64/10 68/67/10 67/83/10
f 4/77/11 5/84/11 62/85/11 61/78/11
f 56/86/12 57/87/12 114/88/12 113/89/12
f 133/90/13 10/82/13 67/83/13 207/91/13
f 5/84/14 6/92/14 63/93/14 62/85/14
f 6/92/15 7/94/15 64/95/15 63/93/15
f 15/96/16 16/97/16 73/98/16 72/99/16
f 8/100/17 9/101/17 66/102/17 65/103/17
f 55/104/18 56/86/18 113/89/18 112/105/18
f 7/94/19 8/100/19 65/103/19 64/95/19
f 16/97/20 140/106/20 214/107/20 73/98/20
f 142/108/21 55/104/21 112/105/21 216/109/21
f 144/110/22 52/111/22 109/112/22 218/113/22
f 50/114/23 51/115/23 108/116/23 107/117/23
f 53/118/24 54/119/24 111/120/24 110/121/24
f 52/111/25 53/118/25 110/121/25 109/112/25
f 19/122/26 20/123/26 77/124/26 76/125/26
f 20/123/27 21/126/27 78/127/27 77/124/27
f 18/128/28 19/122/28 76/125/28 75/129/28
f 17/130/29 18/128/29 75/129/29 74/131/29
f 49/132/30 50/114/30 107/117/30 106/133/30
f 21/126/31 22/134/31 79/135/31 78/127/31
f 48/136/32 49/132/32 106/133/32 105/137/32
f 22/134/33 156/138/33 230/139/33 79/135/33
f 25/140/34 159/141/34 233/142/34 82/143/34
f 24/144/35 25/140/35 82/143/35 81/145/35
f 23/146/36 24/144/36 81/145/36 80/147/36
f 26/148/37 27/149/37 84/150/37 83/151/37
f 163/152/38 46/153/38 103/154/38 237/155/38
f 46/153/39 47/156/39 104/157/39 103/154/39
f 44/158/40 45/159/40 102/160/40 101/161/40
f 47/156/41 48/136/41 105/137/41 104/157/41
f 27/149/42 28/162/42 85/163/42 84/150/42
f 169/164/43 44/158/43 101/161/43 243/165/43
f 41/166/44 42/167/44 99/168/44 98/169/44
f 173/170/45 41/166/45 98/169/45 247/171/45
f 30/172/46 176/173/46 250/174/46 87/175/46
f 178/176/47 30/172/47 87/175/47 252/177/47
f 28/162/48 29/178/48 86/179/48 85/163/48
f 39/180/49 40/181/49 97/182/49 96/183/49
f 31/184/50 32/185/50 89/186/50 88/187/50
f 42/167/51 43/188/51 100/189/51 99/168/51
f 38/190/52 39/180/52 96/183/52 95/191/52
f 32/185/53 33/192/53 90/193/53 89/186/53
f 33/192/54 184/194/54 258/195/54 90/193/54
f 186/196/55 38/190/55 95/191/55 260/197/55
f 34/198/56 35/199/56 92/200/56 91/201/56
f 36/202/57 37/203/57 94/204/57 93/205/57
f 35/199/58 36/202/58 93/205/58 92/200/58
usemtl FrontMat.001
f 165/206/59 164/207/59 166/208/59
f 187/209/59 183/210/59 182/211/59
f 136/212/59 118/213/59 132/214/59
f 157/215/59 150/216/59 148/217/59
f 118/213/59 117/218/59 129/219/59
f 148/217/59 151/220/59 157/215/59
f 118/213/59 129/219/59 132/214/59
f 141/221/59 147/222/59 138/223/59
f 146/224/59 137/225/59 135/226/59
f 179/227/59 180/228/59 175/229/59
f 126/230/59 122/231/59 121/232/59
f 187/209/59 182/211/59 181/233/59
f 152/234/59 174/235/59 137/225/59
f 146/224/59 152/234/59 137/225/59
f 131/236/59 145/237/59 120/238/59
f 179/227/59 181/233/59 180/228/59
f 154/239/59 170/240/59 152/234/59
f 166/208/59 171/241/59 165/206/59
f 134/242/59 130/243/59 120/238/59
f 166/208/59 168/244/59 171/241/59
f 157/215/59 160/245/59 150/216/59
f 172/246/59 179/227/59 175/229/59
f 127/247/59 131/236/59 120/238/59
f 174/235/59 177/248/59 167/249/59
f 152/234/59 172/246/59 175/229/59
f 143/250/59 146/224/59 135/226/59
f 160/245/59 153/251/59 150/216/59
f 164/207/59 162/252/59 166/208/59
f 181/233/59 185/253/59 188/254/59
f 152/234/59 175/229/59 174/235/59
f 117/218/59 115/255/59 119/256/59
f 180/228/59 181/233/59 182/211/59
f 129/219/59 117/218/59 119/256/59
f 139/257/59 158/258/59 151/220/59
f 121/232/59 120/238/59 130/243/59
f 138/223/59 145/237/59 131/236/59
f 135/226/59 134/242/59 143/250/59
f 145/237/59 143/250/59 120/238/59
f 160/245/59 155/259/59 153/251/59
f 150/216/59 149/260/59 148/217/59
f 136/212/59 124/261/59 118/213/59
f 147/222/59 145/237/59 138/223/59
f 132/214/59 137/225/59 139/257/59
f 161/262/59 158/258/59 139/257/59
f 130/243/59 126/230/59 121/232/59
f 139/257/59 136/212/59 132/214/59
f 137/225/59 161/262/59 139/257/59
f 174/235/59 167/249/59 161/262/59
f 158/258/59 157/215/59 151/220/59
f 170/240/59 172/246/59 152/234/59
f 181/233/59 188/254/59 187/209/59
f 137/225/59 174/235/59 161/262/59
f 120/238/59 143/250/59 134/242/59
f 171/241/59 170/240/59 154/239/59
f 165/206/59 171/241/59 154/239/59
