# Blender v2.83.1 OBJ File: 'jigsaw-30x24-3-step2.blend'
# www.blender.org
mtllib piece.229.mtl
o path458_path458.001
v -0.476625 0.037500 0.309466
v -0.474297 0.037500 0.185854
v -0.502417 0.037500 0.107004
v -0.571793 0.037500 0.106988
v -0.658997 0.037500 0.142740
v -0.732025 0.037500 0.151910
v -0.764990 0.037500 0.092387
v -0.756464 0.037500 0.003015
v -0.711134 0.037500 -0.057125
v -0.637190 0.037500 -0.049472
v -0.556845 0.037500 -0.017555
v -0.495815 0.037500 -0.025426
v -0.472567 0.037500 -0.116897
v -0.502493 0.037500 -0.484286
v -0.290651 0.037500 -0.451028
v -0.163076 0.037500 -0.442745
v -0.077953 0.037500 -0.463523
v -0.069176 0.037500 -0.524689
v -0.095234 0.037500 -0.603870
v -0.095759 0.037500 -0.670275
v -0.030213 0.037500 -0.699257
v 0.062637 0.037500 -0.690790
v 0.124187 0.037500 -0.651001
v 0.116106 0.037500 -0.588510
v 0.081098 0.037500 -0.521913
v 0.082138 0.037500 -0.472303
v 0.162722 0.037500 -0.454717
v 0.499416 0.037500 -0.484286
v 0.457167 0.037500 -0.261940
v 0.446283 0.037500 -0.129489
v 0.471622 0.037500 -0.044367
v 0.547190 0.037500 -0.042707
v 0.644102 0.037500 -0.078047
v 0.722736 0.037500 -0.083280
v 0.751688 0.037500 -0.013065
v 0.732426 0.037500 0.090845
v 0.674635 0.037500 0.164928
v 0.590967 0.037500 0.166525
v 0.505997 0.037500 0.136432
v 0.447273 0.037500 0.136306
v 0.433956 0.037500 0.209238
v 0.451588 0.037500 0.324048
v 0.499416 0.037500 0.517411
v 0.304266 0.037500 0.566892
v 0.187285 0.037500 0.582670
v 0.110449 0.037500 0.561797
v 0.105074 0.037500 0.489208
v 0.131247 0.037500 0.393645
v 0.131249 0.037500 0.314801
v 0.066460 0.037500 0.283758
v -0.025366 0.037500 0.297159
v -0.087381 0.037500 0.343037
v -0.082560 0.037500 0.408253
v -0.053150 0.037500 0.474986
v -0.061232 0.037500 0.524243
v -0.149359 0.037500 0.542605
v -0.502493 0.037500 0.517411
v -0.476625 -0.037500 0.309466
v -0.474297 -0.037500 0.185854
v -0.502417 -0.037500 0.107004
v -0.571793 -0.037498 0.106988
v -0.658997 -0.037500 0.142740
v -0.732025 -0.037500 0.151910
v -0.764990 -0.037500 0.092387
v -0.756464 -0.037500 0.003015
v -0.711134 -0.037500 -0.057125
v -0.637190 -0.037500 -0.049472
v -0.556845 -0.037500 -0.017555
v -0.495815 -0.037500 -0.025426
v -0.472567 -0.037500 -0.116897
v -0.502493 -0.037498 -0.484286
v -0.290651 -0.037498 -0.451028
v -0.163076 -0.037500 -0.442745
v -0.077953 -0.037500 -0.463523
v -0.069176 -0.037498 -0.524689
v -0.095234 -0.037500 -0.603870
v -0.095759 -0.037500 -0.670275
v -0.030213 -0.037500 -0.699257
v 0.062637 -0.037500 -0.690790
v 0.124187 -0.037500 -0.651001
v 0.116106 -0.037500 -0.588510
v 0.081098 -0.037500 -0.521913
v 0.082138 -0.037500 -0.472303
v 0.162722 -0.037500 -0.454717
v 0.499416 -0.037500 -0.484286
v 0.457167 -0.037500 -0.261940
v 0.446283 -0.037500 -0.129489
v 0.471622 -0.037500 -0.044367
v 0.547190 -0.037500 -0.042707
v 0.644102 -0.037500 -0.078047
v 0.722736 -0.037500 -0.083280
v 0.751688 -0.037500 -0.013065
v 0.732426 -0.037500 0.090845
v 0.674635 -0.037500 0.164928
v 0.590967 -0.037500 0.166525
v 0.505997 -0.037500 0.136432
v 0.447273 -0.037500 0.136306
v 0.433956 -0.037500 0.209238
v 0.451588 -0.037500 0.324048
v 0.499416 -0.037500 0.517411
v 0.304266 -0.037498 0.566892
v 0.187285 -0.037500 0.582670
v 0.110449 -0.037500 0.561797
v 0.105074 -0.037498 0.489208
v 0.131247 -0.037500 0.393645
v 0.131249 -0.037500 0.314801
v 0.066460 -0.037498 0.283758
v -0.025366 -0.037500 0.297159
v -0.087381 -0.037500 0.343037
v -0.082560 -0.037500 0.408253
v -0.053150 -0.037500 0.474986
v -0.061232 -0.037500 0.524243
v -0.149359 -0.037500 0.542605
v -0.502493 -0.037500 0.517411
v 0.304266 0.037500 0.566892
v 0.187285 0.037500 0.582670
v 0.110449 0.037500 0.561797
v 0.110449 0.037500 0.561797
v 0.105074 0.037500 0.489208
v -0.061232 0.037500 0.524243
v -0.061232 0.037500 0.524243
v -0.149359 0.037500 0.542605
v 0.499416 0.037500 0.517411
v 0.499416 0.037500 0.517411
v -0.053150 0.037500 0.474986
v -0.502493 0.037500 0.517411
v -0.502493 0.037500 0.517411
v 0.131247 0.037500 0.393645
v -0.082560 0.037500 0.408253
v 0.451588 0.037500 0.324048
v -0.476625 0.037500 0.309466
v -0.087381 0.037500 0.343037
v 0.131249 0.037500 0.314801
v 0.131249 0.037500 0.314801
v -0.025366 0.037500 0.297159
v 0.433956 0.037500 0.209238
v 0.066460 0.037500 0.283758
v -0.474297 0.037500 0.185854
v 0.447273 0.037500 0.136306
v 0.447273 0.037500 0.136306
v -0.502417 0.037500 0.107004
v -0.502417 0.037500 0.107004
v 0.674635 0.037500 0.164928
v 0.590967 0.037500 0.166525
v 0.505997 0.037500 0.136432
v 0.732426 0.037500 0.090845
v -0.658997 0.037500 0.142740
v -0.732025 0.037500 0.151910
v -0.732025 0.037500 0.151910
v -0.764990 0.037500 0.092387
v -0.571793 0.037500 0.106988
v -0.756464 0.037500 0.003015
v 0.751688 0.037500 -0.013065
v -0.711134 0.037500 -0.057125
v 0.722736 0.037500 -0.083280
v 0.722736 0.037500 -0.083280
v -0.556845 0.037500 -0.017555
v -0.495815 0.037500 -0.025426
v -0.495815 0.037500 -0.025426
v -0.637190 0.037500 -0.049472
v 0.471622 0.037500 -0.044367
v 0.471622 0.037500 -0.044367
v 0.547190 0.037500 -0.042707
v -0.472567 0.037500 -0.116897
v 0.644102 0.037500 -0.078047
v 0.446283 0.037500 -0.129489
v 0.457167 0.037500 -0.261940
v 0.499416 0.037500 -0.484286
v 0.499416 0.037500 -0.484286
v -0.163076 0.037500 -0.442745
v -0.077953 0.037500 -0.463523
v -0.077953 0.037500 -0.463523
v -0.290651 0.037500 -0.451028
v 0.082138 0.037500 -0.472303
v 0.082138 0.037500 -0.472303
v 0.162722 0.037500 -0.454717
v -0.502493 0.037500 -0.484286
v -0.502493 0.037500 -0.484286
v -0.069176 0.037500 -0.524689
v 0.081098 0.037500 -0.521913
v 0.116106 0.037500 -0.588510
v -0.095234 0.037500 -0.603870
v 0.124187 0.037500 -0.651001
v 0.124187 0.037500 -0.651001
v -0.095759 0.037500 -0.670275
v -0.095759 0.037500 -0.670275
v 0.062637 0.037500 -0.690790
v -0.030213 0.037500 -0.699257
v 0.304266 -0.037498 0.566892
v 0.187285 -0.037500 0.582670
v 0.110449 -0.037500 0.561797
v 0.110449 -0.037500 0.561797
v 0.105074 -0.037498 0.489208
v -0.061232 -0.037500 0.524243
v -0.061232 -0.037500 0.524243
v -0.149359 -0.037500 0.542605
v 0.499416 -0.037500 0.517411
v 0.499416 -0.037500 0.517411
v -0.053150 -0.037500 0.474986
v -0.502493 -0.037500 0.517411
v -0.502493 -0.037500 0.517411
v 0.131247 -0.037500 0.393645
v -0.082560 -0.037500 0.408253
v 0.451588 -0.037500 0.324048
v -0.476625 -0.037500 0.309466
v -0.087381 -0.037500 0.343037
v 0.131249 -0.037500 0.314801
v 0.131249 -0.037500 0.314801
v -0.025366 -0.037500 0.297159
v 0.433956 -0.037500 0.209238
v 0.066460 -0.037498 0.283758
v -0.474297 -0.037500 0.185854
v 0.447273 -0.037500 0.136306
v 0.447273 -0.037500 0.136306
v -0.502417 -0.037500 0.107004
v -0.502417 -0.037500 0.107004
v 0.674635 -0.037500 0.164928
v 0.590967 -0.037500 0.166525
v 0.505997 -0.037500 0.136432
v 0.732426 -0.037500 0.090845
v -0.658997 -0.037500 0.142740
v -0.732025 -0.037500 0.151910
v -0.732025 -0.037500 0.151910
v -0.764990 -0.037500 0.092387
v -0.571793 -0.037498 0.106988
v -0.756464 -0.037500 0.003015
v 0.751688 -0.037500 -0.013065
v -0.711134 -0.037500 -0.057125
v 0.722736 -0.037500 -0.083280
v 0.722736 -0.037500 -0.083280
v -0.556845 -0.037500 -0.017555
v -0.495815 -0.037500 -0.025426
v -0.495815 -0.037500 -0.025426
v -0.637190 -0.037500 -0.049472
v 0.471622 -0.037500 -0.044367
v 0.471622 -0.037500 -0.044367
v 0.547190 -0.037500 -0.042707
v -0.472567 -0.037500 -0.116897
v 0.644102 -0.037500 -0.078047
v 0.446283 -0.037500 -0.129489
v 0.457167 -0.037500 -0.261940
v 0.499416 -0.037500 -0.484286
v 0.499416 -0.037500 -0.484286
v -0.163076 -0.037500 -0.442745
v -0.077953 -0.037500 -0.463523
v -0.077953 -0.037500 -0.463523
v -0.290651 -0.037498 -0.451028
v 0.082138 -0.037500 -0.472303
v 0.082138 -0.037500 -0.472303
v 0.162722 -0.037500 -0.454717
v -0.502493 -0.037498 -0.484286
v -0.502493 -0.037498 -0.484286
v -0.069176 -0.037498 -0.524689
v 0.081098 -0.037500 -0.521913
v 0.116106 -0.037500 -0.588510
v -0.095234 -0.037500 -0.603870
v 0.124187 -0.037500 -0.651001
v 0.124187 -0.037500 -0.651001
v -0.095759 -0.037500 -0.670275
v -0.095759 -0.037500 -0.670275
v 0.062637 -0.037500 -0.690790
v -0.030213 -0.037500 -0.699257
vt 0.500000 0.500000
vt 0.500000 0.500000
vt 0.500000 0.500000
vt 0.500000 0.500000
vt 0.500000 0.500000
vt 0.500000 0.500000
vt 0.500000 0.500000
vt 0.500000 0.500000
vt 0.500000 0.500000
vt 0.500000 0.500000
vt 0.500000 0.500000
vt 0.500000 0.500000
vt 0.500000 0.500000
vt 0.500000 0.500000
vt 0.500000 0.500000
vt 0.500000 0.500000
vt 0.500000 0.500000
vt 0.500000 0.500000
vt 0.500000 0.500000
vt 0.500000 0.500000
vt 0.500000 0.500000
vt 0.500000 0.500000
vt 0.500000 0.500000
vt 0.500000 0.500000
vt 0.500000 0.500000
vt 0.500000 0.500000
vt 0.500000 0.500000
vt 0.500000 0.500000
vt 0.500000 0.500000
vt 0.500000 0.500000
vt 0.500000 0.500000
vt 0.500000 0.500000
vt 0.500000 0.500000
vt 0.500000 0.500000
vt 0.500000 0.500000
vt 0.500000 0.500000
vt 0.500000 0.500000
vt 0.500000 0.500000
vt 0.500000 0.500000
vt 0.500000 0.500000
vt 0.500000 0.500000
vt 0.500000 0.500000
vt 0.500000 0.500000
vt 0.500000 0.500000
vt 0.500000 0.500000
vt 0.500000 0.500000
vt 0.500000 0.500000
vt 0.500000 0.500000
vt 0.500000 0.500000
vt 0.500000 0.500000
vt 0.500000 0.500000
vt 0.500000 0.500000
vt 0.500000 0.500000
vt 0.500000 0.500000
vt 0.500000 0.500000
vt 0.500000 0.500000
vt 0.500000 0.500000
vt 0.500000 0.500000
vt 0.500000 0.500000
vt 0.500000 0.500000
vt 0.500000 0.500000
vt 0.500000 0.500000
vt 0.500000 0.500000
vt 0.500000 0.500000
vt 0.500000 0.500000
vt 0.500000 0.500000
vt 0.500000 0.500000
vt 0.500000 0.500000
vt 0.500000 0.500000
vt 0.500000 0.500000
vt 0.500000 0.500000
vt 0.500000 0.500000
vt 0.500000 0.500000
vt 0.500000 0.500000
vt 0.500000 0.500000
vt 0.500000 0.500000
vt 0.500000 0.500000
vt 0.500000 0.500000
vt 0.500000 0.500000
vt 0.500000 0.500000
vt 0.500000 0.500000
vt 0.500000 0.500000
vt 0.500000 0.500000
vt 0.500000 0.500000
vt 0.500000 0.500000
vt 0.500000 0.500000
vt 0.500000 0.500000
vt 0.500000 0.500000
vt 0.500000 0.500000
vt 0.500000 0.500000
vt 0.500000 0.500000
vt 0.500000 0.500000
vt 0.500000 0.500000
vt 0.500000 0.500000
vt 0.500000 0.500000
vt 0.500000 0.500000
vt 0.500000 0.500000
vt 0.500000 0.500000
vt 0.500000 0.500000
vt 0.500000 0.500000
vt 0.500000 0.500000
vt 0.500000 0.500000
vt 0.500000 0.500000
vt 0.500000 0.500000
vt 0.500000 0.500000
vt 0.500000 0.500000
vt 0.500000 0.500000
vt 0.500000 0.500000
vt 0.500000 0.500000
vt 0.500000 0.500000
vt 0.500000 0.500000
vt 0.500000 0.500000
vt 0.500000 0.500000
vt 0.500000 0.500000
vt 0.500000 0.500000
vt 0.500000 0.500000
vt 0.500000 0.500000
vt 0.500000 0.500000
vt 0.500000 0.500000
vt 0.500000 0.500000
vt 0.500000 0.500000
vt 0.500000 0.500000
vt 0.500000 0.500000
vt 0.500000 0.500000
vt 0.500000 0.500000
vt 0.500000 0.500000
vt 0.500000 0.500000
vt 0.500000 0.500000
vt 0.500000 0.500000
vt 0.500000 0.500000
vt 0.500000 0.500000
vt 0.500000 0.500000
vt 0.500000 0.500000
vt 0.500000 0.500000
vt 0.500000 0.500000
vt 0.500000 0.500000
vt 0.500000 0.500000
vt 0.500000 0.500000
vt 0.500000 0.500000
vt 0.500000 0.500000
vt 0.500000 0.500000
vt 0.500000 0.500000
vt 0.500000 0.500000
vt 0.500000 0.500000
vt 0.500000 0.500000
vt 0.500000 0.500000
vt 0.500000 0.500000
vt 0.500000 0.500000
vt 0.500000 0.500000
vt 0.500000 0.500000
vt 0.500000 0.500000
vt 0.500000 0.500000
vt 0.500000 0.500000
vt 0.500000 0.500000
vt 0.500000 0.500000
vt 0.500000 0.500000
vt 0.500000 0.500000
vt 0.500000 0.500000
vt 0.500000 0.500000
vt 0.500000 0.500000
vt 0.500000 0.500000
vt 0.500000 0.500000
vt 0.500000 0.500000
vt 0.500000 0.500000
vt 0.500000 0.500000
vt 0.500000 0.500000
vt 0.500000 0.500000
vt 0.500000 0.500000
vt 0.500000 0.500000
vt 0.500000 0.500000
vt 0.500000 0.500000
vt 0.500000 0.500000
vt 0.500000 0.500000
vt 0.500000 0.500000
vt 0.500000 0.500000
vt 0.500000 0.500000
vt 0.500000 0.500000
vt 0.500000 0.500000
vt 0.500000 0.500000
vt 0.500000 0.500000
vt 0.500000 0.500000
vt 0.500000 0.500000
vt 0.500000 0.500000
vt 0.500000 0.500000
vt 0.500000 0.500000
vt 0.500000 0.500000
vt 0.500000 0.500000
vt 0.500000 0.500000
vt 0.500000 0.500000
vt 0.500000 0.500000
vt 0.500000 0.500000
vt 0.500000 0.500000
vt 0.500000 0.500000
vt 0.500000 0.500000
vt 0.500000 0.500000
vt 0.500000 0.500000
vt 0.500000 0.500000
vt 0.500000 0.500000
vt 0.500000 0.500000
vt 0.500000 0.500000
vt 0.500000 0.500000
vt 0.500000 0.500000
vt 0.500000 0.500000
vt 0.500000 0.500000
vt 0.500000 0.500000
vt 0.613120 0.707160
vt 0.612941 0.710180
vt 0.610385 0.711048
vt 0.600925 0.684966
vt 0.601735 0.692481
vt 0.599781 0.692486
vt 0.611202 0.667897
vt 0.613883 0.667165
vt 0.614404 0.698614
vt 0.613917 0.665102
vt 0.612753 0.662331
vt 0.614532 0.658077
vt 0.617459 0.699172
vt 0.632395 0.694542
vt 0.619523 0.701080
vt 0.621585 0.709381
vt 0.619362 0.703793
vt 0.633111 0.685753
vt 0.633331 0.691262
vt 0.635142 0.686081
vt 0.635639 0.691261
vt 0.606493 0.710392
vt 0.601591 0.700290
vt 0.612249 0.703185
vt 0.618653 0.708618
vt 0.618384 0.706569
vt 0.641783 0.686936
vt 0.642067 0.690654
vt 0.638540 0.692749
vt 0.601406 0.675915
vt 0.600000 0.666667
vt 0.591607 0.686268
vt 0.595186 0.683565
vt 0.592248 0.690590
vt 0.626285 0.668050
vt 0.632338 0.681949
vt 0.622041 0.668395
vt 0.601768 0.681425
vt 0.602178 0.695515
vt 0.612249 0.699906
vt 0.619209 0.667530
vt 0.592570 0.683347
vt 0.640970 0.693130
vt 0.596954 0.693738
vt 0.594171 0.693671
vt 0.632473 0.699684
vt 0.633333 0.708333
vt 0.617621 0.657725
vt 0.619784 0.661692
vt 0.598411 0.685035
vt 0.633333 0.666667
vt 0.637815 0.684753
vt 0.600000 0.708333
vt 0.618917 0.664986
vt 0.640275 0.684435
vt 0.619801 0.658930
vt 0.612484 0.659732
vn 0.0000 -1.0000 -0.0000
vn 0.1337 0.0000 0.9910
vn -0.2622 0.0000 0.9650
vn -0.9973 0.0000 0.0738
vn 0.2040 0.0000 0.9790
vn 0.2458 0.0000 0.9693
vn 0.9868 0.0000 0.1619
vn -0.0712 0.0000 0.9975
vn -0.9645 0.0000 -0.2642
vn 0.9151 0.0000 -0.4033
vn 0.9707 0.0000 -0.2401
vn -0.9924 0.0000 -0.1234
vn 0.9973 0.0000 -0.0737
vn -1.0000 0.0000 -0.0000
vn 0.5947 0.0000 0.8039
vn 0.9884 0.0000 -0.1518
vn -0.4321 0.0000 0.9018
vn -0.9998 0.0000 -0.0188
vn 0.1444 0.0000 0.9895
vn 0.9837 0.0000 0.1796
vn -0.9419 0.0000 0.3359
vn 0.0191 0.0000 0.9998
vn -0.3338 0.0000 0.9426
vn 0.7885 0.0000 0.6151
vn 0.1246 0.0000 0.9922
vn -0.8748 0.0000 0.4845
vn 0.3793 0.0000 0.9253
vn -0.0021 0.0000 1.0000
vn -0.0002 0.0000 1.0000
vn -0.9955 0.0000 -0.0950
vn 0.9832 0.0000 0.1823
vn -0.7986 0.0000 -0.6019
vn 0.9245 0.0000 -0.3812
vn -0.1279 0.0000 -0.9918
vn 0.3692 0.0000 -0.9294
vn 0.1029 0.0000 -0.9947
vn 0.0220 0.0000 -0.9998
vn -0.9692 0.0000 -0.2463
vn -0.0664 0.0000 -0.9978
vn -0.3426 0.0000 -0.9395
vn 0.9584 0.0000 -0.2853
vn 0.9966 0.0000 0.0819
vn 0.9824 0.0000 0.1867
vn -0.2371 0.0000 -0.9715
vn 0.0648 0.0000 -0.9979
vn 0.2132 0.0000 -0.9770
vn 0.1551 0.0000 -0.9879
vn -0.9967 0.0000 0.0812
vn -0.9899 0.0000 -0.1421
vn 0.9998 0.0000 -0.0209
vn -0.0875 0.0000 -0.9962
vn 0.8852 0.0000 0.4653
vn -0.9499 0.0000 0.3126
vn 0.9917 0.0000 0.1283
vn -1.0000 0.0000 0.0079
vn 0.5429 0.0000 -0.8398
vn 0.0908 0.0000 -0.9959
vn -0.4044 0.0000 -0.9146
vn 0.0000 1.0000 0.0000
usemtl BackMat.001
s off
f 193/1/1 190/2/1 191/3/1
f 235/4/1 219/5/1 213/6/1
f 250/7/1 211/8/1 248/9/1
f 254/10/1 261/11/1 255/12/1
f 209/13/1 206/14/1 212/15/1
f 196/16/1 206/14/1 203/17/1
f 232/18/1 212/15/1 215/19/1
f 231/20/1 215/19/1 225/21/1
f 189/22/1 202/23/1 204/24/1
f 190/2/1 202/23/1 189/22/1
f 196/16/1 199/25/1 194/26/1
f 226/27/1 221/28/1 224/29/1
f 241/30/1 250/7/1 242/31/1
f 227/32/1 220/33/1 239/34/1
f 247/35/1 244/36/1 238/37/1
f 240/38/1 211/8/1 250/7/1
f 204/24/1 207/39/1 210/40/1
f 248/9/1 211/8/1 245/41/1
f 229/42/1 227/32/1 239/34/1
f 241/30/1 240/38/1 250/7/1
f 213/6/1 210/40/1 207/39/1
f 224/29/1 221/28/1 222/43/1
f 218/44/1 220/33/1 217/45/1
f 211/8/1 213/6/1 207/39/1
f 196/16/1 203/17/1 199/25/1
f 202/23/1 190/2/1 193/1/1
f 212/15/1 206/14/1 205/46/1
f 205/46/1 196/16/1 200/47/1
f 235/4/1 213/6/1 211/8/1
f 262/48/1 261/11/1 256/49/1
f 218/44/1 237/50/1 220/33/1
f 232/18/1 209/13/1 212/15/1
f 247/35/1 238/37/1 251/51/1
f 207/39/1 204/24/1 202/23/1
f 225/21/1 221/28/1 234/52/1
f 219/5/1 237/50/1 218/44/1
f 239/34/1 220/33/1 237/50/1
f 189/22/1 204/24/1 197/53/1
f 237/50/1 219/5/1 235/4/1
f 244/36/1 209/13/1 238/37/1
f 244/36/1 211/8/1 209/13/1
f 254/10/1 248/9/1 253/54/1
f 235/4/1 211/8/1 240/38/1
f 245/41/1 211/8/1 244/36/1
f 232/18/1 215/19/1 231/20/1
f 234/52/1 226/27/1 228/55/1
f 234/52/1 221/28/1 226/27/1
f 259/56/1 262/48/1 256/49/1
f 256/49/1 254/10/1 253/54/1
f 206/14/1 196/16/1 205/46/1
f 238/37/1 209/13/1 232/18/1
f 231/20/1 225/21/1 234/52/1
f 256/49/1 261/11/1 254/10/1
f 253/54/1 248/9/1 245/41/1
f 257/57/1 255/12/1 261/11/1
f 44/58/2 45/59/2 102/60/2 101/61/2
f 45/59/3 118/62/3 192/63/3 102/60/3
f 46/64/4 47/65/4 104/66/4 103/67/4
f 121/68/5 56/69/5 113/70/5 195/71/5
f 124/72/6 44/58/6 101/61/6 198/73/6
f 54/74/7 55/75/7 112/76/7 111/77/7
f 56/69/8 127/78/8 201/79/8 113/70/8
f 47/65/9 48/80/9 105/81/9 104/66/9
f 53/82/10 54/74/10 111/77/10 110/83/10
f 42/84/11 43/85/11 100/86/11 99/87/11
f 57/88/12 1/89/12 58/90/12 114/91/12
f 52/92/13 53/82/13 110/83/13 109/93/13
f 48/80/14 134/94/14 208/95/14 105/81/14
f 51/96/15 52/92/15 109/93/15 108/97/15
f 41/98/16 42/84/16 99/87/16 98/99/16
f 49/100/17 50/101/17 107/102/17 106/103/17
f 1/89/18 2/104/18 59/105/18 58/90/18
f 50/101/19 51/96/19 108/97/19 107/102/19
f 140/106/20 41/98/20 98/99/20 214/107/20
f 2/104/21 142/108/21 216/109/21 59/105/21
f 37/110/22 38/111/22 95/112/22 94/113/22
f 38/111/23 39/114/23 96/115/23 95/112/23
f 36/116/24 37/110/24 94/113/24 93/117/24
f 5/118/25 149/119/25 223/120/25 62/121/25
f 6/122/26 7/123/26 64/124/26 63/125/26
f 4/126/27 5/118/27 62/121/27 61/127/27
f 39/114/28 40/128/28 97/129/28 96/115/28
f 3/130/29 4/126/29 61/127/29 60/131/29
f 7/123/30 8/132/30 65/133/30 64/124/30
f 35/134/31 36/116/31 93/117/31 92/135/31
f 8/132/32 9/136/32 66/137/32 65/133/32
f 156/138/33 35/134/33 92/135/33 230/139/33
f 11/140/34 159/141/34 233/142/34 68/143/34
f 10/144/35 11/140/35 68/143/35 67/145/35
f 9/136/36 10/144/36 67/145/36 66/137/36
f 162/146/37 32/147/37 89/148/37 236/149/37
f 12/150/38 13/151/38 70/152/38 69/153/38
f 33/154/39 34/155/39 91/156/39 90/157/39
f 32/147/40 33/154/40 90/157/40 89/148/40
f 30/158/41 31/159/41 88/160/41 87/161/41
f 29/162/42 30/158/42 87/161/42 86/163/42
f 169/164/43 29/162/43 86/163/43 243/165/43
f 16/166/44 172/167/44 246/168/44 73/169/44
f 15/170/45 16/166/45 73/169/45 72/171/45
f 175/172/46 27/173/46 84/174/46 249/175/46
f 178/176/47 15/170/47 72/171/47 252/177/47
f 13/151/48 14/178/48 71/179/48 70/152/48
f 17/180/49 18/181/49 75/182/49 74/183/49
f 25/184/50 26/185/50 83/186/50 82/187/50
f 27/173/51 28/188/51 85/189/51 84/174/51
f 24/190/52 25/184/52 82/187/52 81/191/52
f 18/181/53 19/192/53 76/193/53 75/182/53
f 184/194/54 24/190/54 81/191/54 258/195/54
f 19/192/55 186/196/55 260/197/55 76/193/55
f 22/198/56 23/199/56 80/200/56 79/201/56
f 21/202/57 22/198/57 79/201/57 78/203/57
f 20/204/58 21/202/58 78/203/58 77/205/58
usemtl FrontMat.001
f 119/206/59 117/207/59 116/208/59
f 161/209/59 139/210/59 145/211/59
f 176/212/59 174/213/59 137/214/59
f 180/215/59 181/216/59 187/217/59
f 135/218/59 138/219/59 132/220/59
f 122/221/59 129/222/59 132/220/59
f 158/223/59 141/224/59 138/219/59
f 157/225/59 151/226/59 141/224/59
f 115/227/59 130/228/59 128/229/59
f 116/208/59 115/227/59 128/229/59
f 122/221/59 120/230/59 125/231/59
f 152/232/59 150/233/59 147/234/59
f 167/235/59 168/236/59 176/212/59
f 153/237/59 165/238/59 146/239/59
f 173/240/59 164/241/59 170/242/59
f 166/243/59 176/212/59 137/214/59
f 130/228/59 136/244/59 133/245/59
f 174/213/59 171/246/59 137/214/59
f 155/247/59 165/238/59 153/237/59
f 167/235/59 176/212/59 166/243/59
f 139/210/59 133/245/59 136/244/59
f 150/233/59 148/248/59 147/234/59
f 144/249/59 143/250/59 146/239/59
f 137/214/59 133/245/59 139/210/59
f 122/221/59 125/231/59 129/222/59
f 128/229/59 119/206/59 116/208/59
f 138/219/59 131/251/59 132/220/59
f 131/251/59 126/252/59 122/221/59
f 161/209/59 137/214/59 139/210/59
f 188/253/59 182/254/59 187/217/59
f 144/249/59 146/239/59 163/255/59
f 158/223/59 138/219/59 135/218/59
f 173/240/59 177/256/59 164/241/59
f 133/245/59 128/229/59 130/228/59
f 151/226/59 160/257/59 147/234/59
f 145/211/59 144/249/59 163/255/59
f 165/238/59 163/255/59 146/239/59
f 115/227/59 123/258/59 130/228/59
f 163/255/59 161/209/59 145/211/59
f 170/242/59 164/241/59 135/218/59
f 170/242/59 135/218/59 137/214/59
f 180/215/59 179/259/59 174/213/59
f 161/209/59 166/243/59 137/214/59
f 171/246/59 170/242/59 137/214/59
f 158/223/59 157/225/59 141/224/59
f 160/257/59 154/260/59 152/232/59
f 160/257/59 152/232/59 147/234/59
f 185/261/59 182/254/59 188/253/59
f 182/254/59 179/259/59 180/215/59
f 132/220/59 131/251/59 122/221/59
f 164/241/59 158/223/59 135/218/59
f 157/225/59 160/257/59 151/226/59
f 182/254/59 180/215/59 187/217/59
f 179/259/59 171/246/59 174/213/59
f 183/262/59 187/217/59 181/216/59
