# Blender v2.83.1 OBJ File: 'jigsaw-30x24-3-step2.blend'
# www.blender.org
mtllib piece.258.mtl
o path516_path516.001
v -0.572830 0.037500 0.278389
v -0.591875 0.037500 0.159188
v -0.578526 0.037500 0.081021
v -0.517817 0.037500 0.075768
v -0.431120 0.037500 0.102284
v -0.348907 0.037500 0.101172
v -0.297567 0.037500 0.033050
v -0.287161 0.037500 -0.061397
v -0.323681 0.037500 -0.121468
v -0.405649 0.037500 -0.107909
v -0.501760 0.037500 -0.067266
v -0.573254 0.037500 -0.067529
v -0.592257 0.037500 -0.155479
v -0.574431 0.037500 -0.293059
v -0.521881 0.037500 -0.524361
v -0.303400 0.037500 -0.564114
v -0.172901 0.037500 -0.575850
v -0.088236 0.037500 -0.556350
v -0.084702 0.037500 -0.492423
v -0.116982 0.037500 -0.405402
v -0.119614 0.037500 -0.325250
v -0.048620 0.037500 -0.277483
v 0.054077 0.037500 -0.269848
v 0.125065 0.037500 -0.305645
v 0.122129 0.037500 -0.382044
v 0.087795 0.037500 -0.471692
v 0.085781 0.037500 -0.541106
v 0.160526 0.037500 -0.565969
v 0.279354 0.037500 -0.558623
v 0.480028 0.037500 -0.524361
v 0.459251 0.037500 -0.298845
v 0.460285 0.037500 -0.163214
v 0.491320 0.037500 -0.073118
v 0.562279 0.037500 -0.064766
v 0.649164 0.037500 -0.093884
v 0.719496 0.037500 -0.096079
v 0.747385 0.037500 -0.028126
v 0.733307 0.037500 0.068529
v 0.684330 0.037500 0.131272
v 0.610289 0.037500 0.118968
v 0.532097 0.037500 0.076406
v 0.473434 0.037500 0.069856
v 0.451185 0.037500 0.145397
v 0.480028 0.037500 0.477337
v 0.277269 0.037500 0.442215
v 0.156889 0.037500 0.432685
v 0.080427 0.037500 0.452355
v 0.080942 0.037500 0.513174
v 0.115017 0.037500 0.594525
v 0.120125 0.037500 0.667650
v 0.054209 0.037500 0.708277
v -0.042908 0.037500 0.710094
v -0.110931 0.037500 0.671277
v -0.110025 0.037500 0.595650
v -0.082157 0.037500 0.509605
v -0.089760 0.037500 0.445180
v -0.175842 0.037500 0.425395
v -0.305742 0.037500 0.437208
v -0.521881 0.037500 0.477337
v -0.572830 -0.037500 0.278389
v -0.591875 -0.037500 0.159188
v -0.578526 -0.037498 0.081021
v -0.517817 -0.037500 0.075768
v -0.431120 -0.037500 0.102284
v -0.348907 -0.037500 0.101172
v -0.297567 -0.037500 0.033050
v -0.287161 -0.037500 -0.061397
v -0.323681 -0.037498 -0.121468
v -0.405649 -0.037500 -0.107909
v -0.501760 -0.037500 -0.067266
v -0.573254 -0.037500 -0.067529
v -0.592257 -0.037500 -0.155479
v -0.574431 -0.037500 -0.293059
v -0.521881 -0.037500 -0.524361
v -0.303400 -0.037498 -0.564114
v -0.172901 -0.037500 -0.575850
v -0.088236 -0.037500 -0.556350
v -0.084702 -0.037500 -0.492423
v -0.116982 -0.037500 -0.405402
v -0.119614 -0.037500 -0.325250
v -0.048620 -0.037498 -0.277483
v 0.054077 -0.037498 -0.269848
v 0.125065 -0.037500 -0.305645
v 0.122129 -0.037500 -0.382044
v 0.087795 -0.037500 -0.471692
v 0.085781 -0.037500 -0.541106
v 0.160526 -0.037500 -0.565969
v 0.279354 -0.037498 -0.558623
v 0.480028 -0.037500 -0.524361
v 0.459251 -0.037498 -0.298845
v 0.460285 -0.037500 -0.163214
v 0.491320 -0.037500 -0.073118
v 0.562279 -0.037500 -0.064766
v 0.649164 -0.037500 -0.093884
v 0.719496 -0.037498 -0.096079
v 0.747385 -0.037500 -0.028126
v 0.733307 -0.037500 0.068529
v 0.684330 -0.037500 0.131272
v 0.610289 -0.037500 0.118968
v 0.532097 -0.037500 0.076406
v 0.473434 -0.037500 0.069856
v 0.451185 -0.037498 0.145397
v 0.480028 -0.037500 0.477337
v 0.277269 -0.037500 0.442215
v 0.156889 -0.037500 0.432685
v 0.080427 -0.037500 0.452355
v 0.080942 -0.037498 0.513174
v 0.115017 -0.037500 0.594525
v 0.120125 -0.037500 0.667650
v 0.054209 -0.037500 0.708277
v -0.042908 -0.037500 0.710094
v -0.110931 -0.037500 0.671277
v -0.110025 -0.037498 0.595650
v -0.082157 -0.037500 0.509605
v -0.089760 -0.037500 0.445180
v -0.175842 -0.037500 0.425395
v -0.305742 -0.037498 0.437208
v -0.521881 -0.037500 0.477337
v 0.054209 0.037500 0.708277
v -0.042908 0.037500 0.710094
v -0.110931 0.037500 0.671277
v -0.110931 0.037500 0.671277
v 0.120125 0.037500 0.667650
v 0.120125 0.037500 0.667650
v -0.110025 0.037500 0.595650
v 0.115017 0.037500 0.594525
v -0.082157 0.037500 0.509605
v 0.080942 0.037500 0.513174
v 0.080427 0.037500 0.452355
v 0.080427 0.037500 0.452355
v -0.089760 0.037500 0.445180
v -0.089760 0.037500 0.445180
v 0.480028 0.037500 0.477337
v 0.480028 0.037500 0.477337
v 0.277269 0.037500 0.442215
v -0.305742 0.037500 0.437208
v -0.521881 0.037500 0.477337
v -0.521881 0.037500 0.477337
v 0.156889 0.037500 0.432685
v -0.175842 0.037500 0.425395
v -0.572830 0.037500 0.278389
v -0.591875 0.037500 0.159188
v 0.451185 0.037500 0.145397
v -0.578526 0.037500 0.081021
v -0.578526 0.037500 0.081021
v 0.473434 0.037500 0.069856
v 0.473434 0.037500 0.069856
v -0.431120 0.037500 0.102284
v -0.348907 0.037500 0.101172
v 0.733307 0.037500 0.068529
v 0.684330 0.037500 0.131272
v 0.684330 0.037500 0.131272
v 0.610289 0.037500 0.118968
v 0.532097 0.037500 0.076406
v -0.517817 0.037500 0.075768
v -0.297567 0.037500 0.033050
v 0.747385 0.037500 -0.028126
v -0.287161 0.037500 -0.061397
v 0.719496 0.037500 -0.096079
v 0.719496 0.037500 -0.096079
v -0.323681 0.037500 -0.121468
v -0.323681 0.037500 -0.121468
v 0.649164 0.037500 -0.093884
v 0.562279 0.037500 -0.064766
v 0.491320 0.037500 -0.073118
v 0.491320 0.037500 -0.073118
v -0.405649 0.037500 -0.107909
v -0.501760 0.037500 -0.067266
v -0.573254 0.037500 -0.067529
v -0.573254 0.037500 -0.067529
v -0.592257 0.037500 -0.155479
v 0.460285 0.037500 -0.163214
v -0.574431 0.037500 -0.293059
v 0.459251 0.037500 -0.298845
v 0.054077 0.037500 -0.269848
v 0.125065 0.037500 -0.305645
v 0.125065 0.037500 -0.305645
v -0.048620 0.037500 -0.277483
v -0.119614 0.037500 -0.325250
v 0.122129 0.037500 -0.382044
v -0.116982 0.037500 -0.405402
v 0.087795 0.037500 -0.471692
v -0.084702 0.037500 -0.492423
v 0.480028 0.037500 -0.524361
v 0.480028 0.037500 -0.524361
v 0.085781 0.037500 -0.541106
v 0.085781 0.037500 -0.541106
v -0.088236 0.037500 -0.556350
v -0.088236 0.037500 -0.556350
v -0.521881 0.037500 -0.524361
v -0.521881 0.037500 -0.524361
v 0.279354 0.037500 -0.558623
v 0.160526 0.037500 -0.565969
v -0.303400 0.037500 -0.564114
v -0.172901 0.037500 -0.575850
v 0.054209 -0.037500 0.708277
v -0.042908 -0.037500 0.710094
v -0.110931 -0.037500 0.671277
v -0.110931 -0.037500 0.671277
v 0.120125 -0.037500 0.667650
v 0.120125 -0.037500 0.667650
v -0.110025 -0.037498 0.595650
v 0.115017 -0.037500 0.594525
v -0.082157 -0.037500 0.509605
v 0.080942 -0.037498 0.513174
v 0.080427 -0.037500 0.452355
v 0.080427 -0.037500 0.452355
v -0.089760 -0.037500 0.445180
v -0.089760 -0.037500 0.445180
v 0.480028 -0.037500 0.477337
v 0.480028 -0.037500 0.477337
v 0.277269 -0.037500 0.442215
v -0.305742 -0.037498 0.437208
v -0.521881 -0.037500 0.477337
v -0.521881 -0.037500 0.477337
v 0.156889 -0.037500 0.432685
v -0.175842 -0.037500 0.425395
v -0.572830 -0.037500 0.278389
v -0.591875 -0.037500 0.159188
v 0.451185 -0.037498 0.145397
v -0.578526 -0.037498 0.081021
v -0.578526 -0.037498 0.081021
v 0.473434 -0.037500 0.069856
v 0.473434 -0.037500 0.069856
v -0.431120 -0.037500 0.102284
v -0.348907 -0.037500 0.101172
v 0.733307 -0.037500 0.068529
v 0.684330 -0.037500 0.131272
v 0.684330 -0.037500 0.131272
v 0.610289 -0.037500 0.118968
v 0.532097 -0.037500 0.076406
v -0.517817 -0.037500 0.075768
v -0.297567 -0.037500 0.033050
v 0.747385 -0.037500 -0.028126
v -0.287161 -0.037500 -0.061397
v 0.719496 -0.037498 -0.096079
v 0.719496 -0.037498 -0.096079
v -0.323681 -0.037498 -0.121468
v -0.323681 -0.037498 -0.121468
v 0.649164 -0.037500 -0.093884
v 0.562279 -0.037500 -0.064766
v 0.491320 -0.037500 -0.073118
v 0.491320 -0.037500 -0.073118
v -0.405649 -0.037500 -0.107909
v -0.501760 -0.037500 -0.067266
v -0.573254 -0.037500 -0.067529
v -0.573254 -0.037500 -0.067529
v -0.592257 -0.037500 -0.155479
v 0.460285 -0.037500 -0.163214
v -0.574431 -0.037500 -0.293059
v 0.459251 -0.037498 -0.298845
v 0.054077 -0.037498 -0.269848
v 0.125065 -0.037500 -0.305645
v 0.125065 -0.037500 -0.305645
v -0.048620 -0.037498 -0.277483
v -0.119614 -0.037500 -0.325250
v 0.122129 -0.037500 -0.382044
v -0.116982 -0.037500 -0.405402
v 0.087795 -0.037500 -0.471692
v -0.084702 -0.037500 -0.492423
v 0.480028 -0.037500 -0.524361
v 0.480028 -0.037500 -0.524361
v 0.085781 -0.037500 -0.541106
v 0.085781 -0.037500 -0.541106
v -0.088236 -0.037500 -0.556350
v -0.088236 -0.037500 -0.556350
v -0.521881 -0.037500 -0.524361
v -0.521881 -0.037500 -0.524361
v 0.279354 -0.037498 -0.558623
v 0.160526 -0.037500 -0.565969
v -0.303400 -0.037498 -0.564114
v -0.172901 -0.037500 -0.575850
vt 0.500000 0.500000
vt 0.500000 0.500000
vt 0.500000 0.500000
vt 0.500000 0.500000
vt 0.500000 0.500000
vt 0.500000 0.500000
vt 0.500000 0.500000
vt 0.500000 0.500000
vt 0.500000 0.500000
vt 0.500000 0.500000
vt 0.500000 0.500000
vt 0.500000 0.500000
vt 0.500000 0.500000
vt 0.500000 0.500000
vt 0.500000 0.500000
vt 0.500000 0.500000
vt 0.500000 0.500000
vt 0.500000 0.500000
vt 0.500000 0.500000
vt 0.500000 0.500000
vt 0.500000 0.500000
vt 0.500000 0.500000
vt 0.500000 0.500000
vt 0.500000 0.500000
vt 0.500000 0.500000
vt 0.500000 0.500000
vt 0.500000 0.500000
vt 0.500000 0.500000
vt 0.500000 0.500000
vt 0.500000 0.500000
vt 0.500000 0.500000
vt 0.500000 0.500000
vt 0.500000 0.500000
vt 0.500000 0.500000
vt 0.500000 0.500000
vt 0.500000 0.500000
vt 0.500000 0.500000
vt 0.500000 0.500000
vt 0.500000 0.500000
vt 0.500000 0.500000
vt 0.500000 0.500000
vt 0.500000 0.500000
vt 0.500000 0.500000
vt 0.500000 0.500000
vt 0.500000 0.500000
vt 0.500000 0.500000
vt 0.500000 0.500000
vt 0.500000 0.500000
vt 0.500000 0.500000
vt 0.500000 0.500000
vt 0.500000 0.500000
vt 0.500000 0.500000
vt 0.500000 0.500000
vt 0.500000 0.500000
vt 0.500000 0.500000
vt 0.500000 0.500000
vt 0.500000 0.500000
vt 0.500000 0.500000
vt 0.500000 0.500000
vt 0.500000 0.500000
vt 0.500000 0.500000
vt 0.500000 0.500000
vt 0.500000 0.500000
vt 0.500000 0.500000
vt 0.500000 0.500000
vt 0.500000 0.500000
vt 0.500000 0.500000
vt 0.500000 0.500000
vt 0.500000 0.500000
vt 0.500000 0.500000
vt 0.500000 0.500000
vt 0.500000 0.500000
vt 0.500000 0.500000
vt 0.500000 0.500000
vt 0.500000 0.500000
vt 0.500000 0.500000
vt 0.500000 0.500000
vt 0.500000 0.500000
vt 0.500000 0.500000
vt 0.500000 0.500000
vt 0.500000 0.500000
vt 0.500000 0.500000
vt 0.500000 0.500000
vt 0.500000 0.500000
vt 0.500000 0.500000
vt 0.500000 0.500000
vt 0.500000 0.500000
vt 0.500000 0.500000
vt 0.500000 0.500000
vt 0.500000 0.500000
vt 0.500000 0.500000
vt 0.500000 0.500000
vt 0.500000 0.500000
vt 0.500000 0.500000
vt 0.500000 0.500000
vt 0.500000 0.500000
vt 0.500000 0.500000
vt 0.500000 0.500000
vt 0.500000 0.500000
vt 0.500000 0.500000
vt 0.500000 0.500000
vt 0.500000 0.500000
vt 0.500000 0.500000
vt 0.500000 0.500000
vt 0.500000 0.500000
vt 0.500000 0.500000
vt 0.500000 0.500000
vt 0.500000 0.500000
vt 0.500000 0.500000
vt 0.500000 0.500000
vt 0.500000 0.500000
vt 0.500000 0.500000
vt 0.500000 0.500000
vt 0.500000 0.500000
vt 0.500000 0.500000
vt 0.500000 0.500000
vt 0.500000 0.500000
vt 0.500000 0.500000
vt 0.500000 0.500000
vt 0.500000 0.500000
vt 0.500000 0.500000
vt 0.500000 0.500000
vt 0.500000 0.500000
vt 0.500000 0.500000
vt 0.500000 0.500000
vt 0.500000 0.500000
vt 0.500000 0.500000
vt 0.500000 0.500000
vt 0.500000 0.500000
vt 0.500000 0.500000
vt 0.500000 0.500000
vt 0.500000 0.500000
vt 0.500000 0.500000
vt 0.500000 0.500000
vt 0.500000 0.500000
vt 0.500000 0.500000
vt 0.500000 0.500000
vt 0.500000 0.500000
vt 0.500000 0.500000
vt 0.500000 0.500000
vt 0.500000 0.500000
vt 0.500000 0.500000
vt 0.500000 0.500000
vt 0.500000 0.500000
vt 0.500000 0.500000
vt 0.500000 0.500000
vt 0.500000 0.500000
vt 0.500000 0.500000
vt 0.500000 0.500000
vt 0.500000 0.500000
vt 0.500000 0.500000
vt 0.500000 0.500000
vt 0.500000 0.500000
vt 0.500000 0.500000
vt 0.500000 0.500000
vt 0.500000 0.500000
vt 0.500000 0.500000
vt 0.500000 0.500000
vt 0.500000 0.500000
vt 0.500000 0.500000
vt 0.500000 0.500000
vt 0.500000 0.500000
vt 0.500000 0.500000
vt 0.500000 0.500000
vt 0.500000 0.500000
vt 0.500000 0.500000
vt 0.500000 0.500000
vt 0.500000 0.500000
vt 0.500000 0.500000
vt 0.500000 0.500000
vt 0.500000 0.500000
vt 0.500000 0.500000
vt 0.500000 0.500000
vt 0.500000 0.500000
vt 0.500000 0.500000
vt 0.500000 0.500000
vt 0.500000 0.500000
vt 0.500000 0.500000
vt 0.500000 0.500000
vt 0.500000 0.500000
vt 0.500000 0.500000
vt 0.500000 0.500000
vt 0.500000 0.500000
vt 0.500000 0.500000
vt 0.500000 0.500000
vt 0.500000 0.500000
vt 0.500000 0.500000
vt 0.500000 0.500000
vt 0.500000 0.500000
vt 0.500000 0.500000
vt 0.500000 0.500000
vt 0.500000 0.500000
vt 0.500000 0.500000
vt 0.500000 0.500000
vt 0.500000 0.500000
vt 0.500000 0.500000
vt 0.500000 0.500000
vt 0.500000 0.500000
vt 0.500000 0.500000
vt 0.500000 0.500000
vt 0.500000 0.500000
vt 0.500000 0.500000
vt 0.500000 0.500000
vt 0.500000 0.500000
vt 0.500000 0.500000
vt 0.500000 0.500000
vt 0.500000 0.500000
vt 0.500000 0.500000
vt 0.500000 0.500000
vt 0.500000 0.500000
vt 0.500000 0.500000
vt 0.500000 0.500000
vt 0.500000 0.500000
vt 0.592537 0.648186
vt 0.577417 0.664809
vt 0.580838 0.635587
vt 0.588487 0.664506
vt 0.585623 0.665329
vt 0.573412 0.665206
vt 0.567626 0.652859
vt 0.599330 0.644013
vt 0.596133 0.642323
vt 0.602341 0.640344
vt 0.588389 0.622858
vt 0.592731 0.623346
vt 0.586529 0.629948
vt 0.594245 0.651020
vt 0.596980 0.651066
vt 0.592809 0.664997
vt 0.566886 0.649717
vt 0.566291 0.643770
vt 0.567324 0.640022
vt 0.567358 0.634381
vt 0.573343 0.623575
vt 0.578574 0.630920
vt 0.593406 0.641759
vt 0.601748 0.634621
vt 0.586617 0.633282
vt 0.585370 0.668009
vt 0.579961 0.665628
vt 0.586298 0.671588
vt 0.579944 0.668157
vt 0.578476 0.634098
vt 0.563930 0.644117
vt 0.562333 0.651760
vt 0.561040 0.642906
vt 0.577296 0.623269
vt 0.558240 0.649662
vt 0.557772 0.645641
vt 0.592191 0.644257
vt 0.584255 0.635269
vt 0.584065 0.676348
vt 0.578810 0.671541
vt 0.564934 0.649990
vt 0.601695 0.658391
vt 0.600000 0.666667
vt 0.558700 0.642815
vt 0.602329 0.653433
vt 0.580833 0.676273
vt 0.579716 0.627191
vt 0.566667 0.625000
vt 0.585455 0.626328
vt 0.566667 0.666667
vt 0.599865 0.649963
vt 0.586328 0.674734
vt 0.601709 0.644002
vt 0.600000 0.625000
vt 0.601884 0.650182
vt 0.585573 0.623669
vt 0.559870 0.652272
vt 0.579783 0.624303
vt 0.578641 0.674583
vn 0.0000 -1.0000 -0.0000
vn 0.0187 0.0000 0.9998
vn -0.4956 0.0000 0.8685
vn 0.5247 0.0000 0.8513
vn -0.9999 0.0000 -0.0120
vn 0.9976 0.0000 -0.0697
vn -0.9513 0.0000 -0.3081
vn 0.9224 0.0000 -0.3863
vn 1.0000 0.0000 -0.0085
vn -0.9931 0.0000 0.1172
vn -0.1707 0.0000 0.9853
vn 0.1825 0.0000 0.9832
vn 0.2491 0.0000 0.9685
vn -0.2240 0.0000 0.9746
vn -0.0789 0.0000 0.9969
vn 0.0906 0.0000 0.9959
vn -0.9687 0.0000 0.2481
vn -0.9875 0.0000 0.1578
vn 0.9962 0.0000 -0.0866
vn -0.9857 0.0000 -0.1683
vn 0.9593 0.0000 0.2825
vn -0.0135 0.0000 -0.9999
vn 0.7883 0.0000 0.6153
vn -0.1639 0.0000 0.9865
vn -0.4781 0.0000 0.8783
vn 0.2925 0.0000 -0.9563
vn -0.0862 0.0000 -0.9963
vn -0.7986 0.0000 -0.6019
vn -0.1110 0.0000 0.9938
vn 0.9896 0.0000 0.1441
vn -0.9940 0.0000 -0.1095
vn 0.9251 0.0000 -0.3797
vn -0.8545 0.0000 0.5195
vn -0.0312 0.0000 -0.9995
vn -0.3178 0.0000 -0.9482
vn 0.1169 0.0000 -0.9931
vn 0.3895 0.0000 0.9210
vn -0.0037 0.0000 1.0000
vn -0.9774 0.0000 0.2112
vn 0.9455 0.0000 -0.3257
vn 0.1632 0.0000 0.9866
vn -0.9917 0.0000 -0.1285
vn 1.0000 0.0000 -0.0076
vn -0.4503 0.0000 -0.8929
vn 0.0741 0.0000 -0.9972
vn 0.5582 0.0000 -0.8297
vn -0.9993 0.0000 0.0384
vn 0.9995 0.0000 0.0328
vn -0.9339 0.0000 0.3577
vn 0.9376 0.0000 0.3478
vn 0.9958 0.0000 0.0917
vn -0.9996 0.0000 0.0290
vn 0.9985 0.0000 -0.0552
vn -0.9752 0.0000 -0.2215
vn 0.1683 0.0000 -0.9857
vn 0.0617 0.0000 -0.9981
vn -0.3156 0.0000 -0.9489
vn -0.1790 0.0000 -0.9838
vn 0.2245 0.0000 -0.9745
vn -0.0896 0.0000 -0.9960
vn 0.0000 1.0000 0.0000
usemtl BackMat.001
s off
f 233/1/1 252/2/1 216/3/1
f 217/4/1 233/1/1 208/5/1
f 216/3/1 220/6/1 212/7/1
f 245/8/1 248/9/1 244/10/1
f 272/11/1 258/12/1 271/13/1
f 226/14/1 213/15/1 225/16/1
f 223/17/1 249/18/1 242/19/1
f 251/20/1 257/21/1 269/22/1
f 238/23/1 250/24/1 271/13/1
f 256/25/1 271/13/1 258/12/1
f 208/5/1 206/26/1 204/27/1
f 204/27/1 205/28/1 202/29/1
f 252/2/1 253/30/1 249/18/1
f 252/2/1 220/6/1 216/3/1
f 241/31/1 240/32/1 230/33/1
f 269/22/1 257/21/1 270/34/1
f 227/35/1 240/32/1 234/36/1
f 235/37/1 255/38/1 252/2/1
f 202/29/1 203/39/1 197/40/1
f 231/41/1 241/31/1 230/33/1
f 233/1/1 206/26/1 208/5/1
f 233/1/1 216/3/1 206/26/1
f 218/42/1 213/15/1 214/43/1
f 234/36/1 240/32/1 236/44/1
f 218/42/1 225/16/1 213/15/1
f 244/10/1 250/24/1 238/23/1
f 213/15/1 226/14/1 217/4/1
f 219/45/1 225/16/1 218/42/1
f 197/40/1 203/39/1 196/46/1
f 271/13/1 256/25/1 238/23/1
f 257/21/1 251/20/1 253/30/1
f 235/37/1 252/2/1 233/1/1
f 259/47/1 270/34/1 257/21/1
f 238/23/1 256/25/1 235/37/1
f 251/20/1 269/22/1 261/48/1
f 252/2/1 249/18/1 223/17/1
f 249/18/1 253/30/1 251/20/1
f 258/12/1 272/11/1 260/49/1
f 212/7/1 220/6/1 210/50/1
f 223/17/1 242/19/1 231/41/1
f 225/16/1 219/45/1 232/51/1
f 230/33/1 240/32/1 227/35/1
f 226/14/1 233/1/1 217/4/1
f 204/27/1 206/26/1 205/28/1
f 202/29/1 197/40/1 198/52/1
f 246/53/1 248/9/1 245/8/1
f 248/9/1 250/24/1 244/10/1
f 205/28/1 203/39/1 202/29/1
f 267/54/1 271/13/1 250/24/1
f 220/6/1 252/2/1 223/17/1
f 255/38/1 235/37/1 256/25/1
f 231/41/1 242/19/1 241/31/1
f 232/51/1 219/45/1 221/55/1
f 260/49/1 272/11/1 265/56/1
f 230/33/1 227/35/1 228/57/1
f 263/58/1 270/34/1 259/47/1
f 196/46/1 203/39/1 200/59/1
f 51/60/2 52/61/2 111/62/2 110/63/2
f 52/61/3 122/64/3 199/65/3 111/62/3
f 124/66/4 51/60/4 110/63/4 201/67/4
f 53/68/5 54/69/5 113/70/5 112/71/5
f 49/72/6 50/73/6 109/74/6 108/75/6
f 54/69/7 55/76/7 114/77/7 113/70/7
f 48/78/8 49/72/8 108/75/8 107/79/8
f 130/80/9 48/78/9 107/79/9 207/81/9
f 55/76/10 132/82/10 209/83/10 114/77/10
f 134/84/11 45/85/11 104/86/11 211/87/11
f 58/88/12 138/89/12 215/90/12 117/91/12
f 46/92/13 47/93/13 106/94/13 105/95/13
f 56/96/14 57/97/14 116/98/14 115/99/14
f 45/85/15 46/92/15 105/95/15 104/86/15
f 57/97/16 58/88/16 117/91/16 116/98/16
f 59/100/17 1/101/17 60/102/17 118/103/17
f 1/101/18 2/104/18 61/105/18 60/102/18
f 43/106/19 44/107/19 103/108/19 102/109/19
f 2/104/20 145/110/20 222/111/20 61/105/20
f 147/112/21 43/106/21 102/109/21 224/113/21
f 5/114/22 6/115/22 65/116/22 64/117/22
f 38/118/23 152/119/23 229/120/23 97/121/23
f 39/122/24 40/123/24 99/124/24 98/125/24
f 40/123/25 41/126/25 100/127/25 99/124/25
f 4/128/26 5/114/26 64/117/26 63/129/26
f 3/130/27 4/128/27 63/129/27 62/131/27
f 6/115/28 7/132/28 66/133/28 65/116/28
f 41/126/29 42/134/29 101/135/29 100/127/29
f 37/136/30 38/118/30 97/121/30 96/137/30
f 7/132/31 8/138/31 67/139/31 66/133/31
f 160/140/32 37/136/32 96/137/32 237/141/32
f 8/138/33 162/142/33 239/143/33 67/139/33
f 35/144/34 36/145/34 95/146/34 94/147/34
f 34/148/35 35/144/35 94/147/35 93/149/35
f 166/150/36 34/148/36 93/149/36 243/151/36
f 10/152/37 11/153/37 70/154/37 69/155/37
f 11/153/38 170/156/38 247/157/38 70/154/38
f 12/158/39 13/159/39 72/160/39 71/161/39
f 32/162/40 33/163/40 92/164/40 91/165/40
f 9/166/41 10/152/41 69/155/41 68/167/41
f 13/159/42 14/168/42 73/169/42 72/160/42
f 31/170/43 32/162/43 91/165/43 90/171/43
f 23/172/44 177/173/44 254/174/44 82/175/44
f 22/176/45 23/172/45 82/175/45 81/177/45
f 21/178/46 22/176/46 81/177/46 80/179/46
f 24/180/47 25/181/47 84/182/47 83/183/47
f 20/184/48 21/178/48 80/179/48 79/185/48
f 25/181/49 26/186/49 85/187/49 84/182/49
f 19/188/50 20/184/50 79/185/50 78/189/50
f 185/190/51 31/170/51 90/171/51 262/191/51
f 26/186/52 187/192/52 264/193/52 85/187/52
f 189/194/53 19/188/53 78/189/53 266/195/53
f 14/168/54 191/196/54 268/197/54 73/169/54
f 29/198/55 30/199/55 89/200/55 88/201/55
f 28/202/56 29/198/56 88/201/56 87/203/56
f 27/204/57 28/202/57 87/203/57 86/205/57
f 15/206/58 16/207/58 75/208/58 74/209/58
f 17/210/59 18/211/59 77/212/59 76/213/59
f 16/207/60 17/210/60 76/213/60 75/208/60
usemtl FrontMat.001
f 156/214/61 139/215/61 175/216/61
f 140/217/61 131/218/61 156/214/61
f 139/215/61 135/219/61 143/220/61
f 168/221/61 167/222/61 171/223/61
f 195/224/61 194/225/61 181/226/61
f 149/227/61 148/228/61 136/229/61
f 146/230/61 165/231/61 172/232/61
f 174/233/61 192/234/61 180/235/61
f 161/236/61 194/225/61 173/237/61
f 179/238/61 181/226/61 194/225/61
f 131/218/61 127/239/61 129/240/61
f 127/239/61 125/241/61 128/242/61
f 175/216/61 172/232/61 176/243/61
f 175/216/61 139/215/61 143/220/61
f 164/244/61 153/245/61 163/246/61
f 192/234/61 193/247/61 180/235/61
f 150/248/61 157/249/61 163/246/61
f 158/250/61 175/216/61 178/251/61
f 125/241/61 120/252/61 126/253/61
f 154/254/61 153/245/61 164/244/61
f 156/214/61 131/218/61 129/240/61
f 156/214/61 129/240/61 139/215/61
f 141/255/61 137/256/61 136/229/61
f 157/249/61 159/257/61 163/246/61
f 141/255/61 136/229/61 148/228/61
f 167/222/61 161/236/61 173/237/61
f 136/229/61 140/217/61 149/227/61
f 142/258/61 141/255/61 148/228/61
f 120/252/61 119/259/61 126/253/61
f 194/225/61 161/236/61 179/238/61
f 180/235/61 176/243/61 174/233/61
f 158/250/61 156/214/61 175/216/61
f 182/260/61 180/235/61 193/247/61
f 161/236/61 158/250/61 179/238/61
f 174/233/61 184/261/61 192/234/61
f 175/216/61 146/230/61 172/232/61
f 172/232/61 174/233/61 176/243/61
f 181/226/61 183/262/61 195/224/61
f 135/219/61 133/263/61 143/220/61
f 146/230/61 154/254/61 165/231/61
f 148/228/61 155/264/61 142/258/61
f 153/245/61 150/248/61 163/246/61
f 149/227/61 140/217/61 156/214/61
f 127/239/61 128/242/61 129/240/61
f 125/241/61 121/265/61 120/252/61
f 169/266/61 168/221/61 171/223/61
f 171/223/61 167/222/61 173/237/61
f 128/242/61 125/241/61 126/253/61
f 190/267/61 173/237/61 194/225/61
f 143/220/61 146/230/61 175/216/61
f 178/251/61 179/238/61 158/250/61
f 154/254/61 164/244/61 165/231/61
f 155/264/61 144/268/61 142/258/61
f 183/262/61 188/269/61 195/224/61
f 153/245/61 151/270/61 150/248/61
f 186/271/61 182/260/61 193/247/61
f 119/259/61 123/272/61 126/253/61
