# Blender v2.83.1 OBJ File: 'jigsaw-30x24-3-step2.blend'
# www.blender.org
mtllib piece.315.mtl
o path630_path630.001
v 0.272789 0.037500 0.551981
v 0.149498 0.037500 0.554288
v 0.070312 0.037500 0.530066
v 0.068927 0.037500 0.469996
v 0.102292 0.037500 0.394889
v 0.108166 0.037500 0.333157
v 0.044643 0.037500 0.307689
v -0.048832 0.037500 0.319303
v -0.112481 0.037500 0.363294
v -0.107071 0.037500 0.431774
v -0.075575 0.037500 0.504128
v -0.081518 0.037500 0.556558
v -0.168572 0.037500 0.572241
v -0.521901 0.037500 0.529047
v -0.555688 0.037500 0.301140
v -0.563181 0.037500 0.164090
v -0.539381 0.037500 0.073101
v -0.472262 0.037500 0.065086
v -0.385962 0.037500 0.096830
v -0.313592 0.037500 0.105094
v -0.282029 0.037500 0.046651
v -0.293162 0.037500 -0.041593
v -0.342642 0.037500 -0.102716
v -0.422009 0.037500 -0.099072
v -0.506303 0.037500 -0.070100
v -0.566451 0.037500 -0.074513
v -0.581941 0.037500 -0.152814
v -0.566556 0.037500 -0.272649
v -0.521901 0.037500 -0.472862
v -0.299993 0.037500 -0.436906
v -0.166614 0.037500 -0.428179
v -0.078201 0.037500 -0.451302
v -0.070563 0.037500 -0.519072
v -0.100677 0.037500 -0.609053
v -0.105828 0.037500 -0.690025
v -0.043286 0.037500 -0.735802
v 0.049772 0.037500 -0.740361
v 0.116179 0.037500 -0.702719
v 0.117818 0.037500 -0.627210
v 0.092767 0.037500 -0.539517
v 0.098158 0.037500 -0.470654
v 0.173558 0.037500 -0.443217
v 0.288337 0.037500 -0.446161
v 0.479797 0.037500 -0.472862
v 0.429050 0.037500 -0.265534
v 0.410370 0.037500 -0.142016
v 0.424513 0.037500 -0.062593
v 0.486698 0.037500 -0.061156
v 0.576071 0.037500 -0.095476
v 0.662765 0.037500 -0.104293
v 0.720945 0.037500 -0.045930
v 0.740899 0.037500 0.042880
v 0.716947 0.037500 0.105821
v 0.649712 0.037500 0.105782
v 0.565032 0.037500 0.082517
v 0.495049 0.037500 0.094990
v 0.463604 0.037500 0.183513
v 0.461349 0.037500 0.313827
v 0.479797 0.037500 0.529047
v 0.272789 -0.037500 0.551981
v 0.149498 -0.037500 0.554288
v 0.070312 -0.037500 0.530066
v 0.068927 -0.037500 0.469996
v 0.102292 -0.037500 0.394889
v 0.108166 -0.037500 0.333157
v 0.044643 -0.037500 0.307689
v -0.048832 -0.037500 0.319303
v -0.112481 -0.037500 0.363294
v -0.107071 -0.037500 0.431774
v -0.075575 -0.037500 0.504128
v -0.081518 -0.037500 0.556558
v -0.168572 -0.037500 0.572241
v -0.521901 -0.037500 0.529047
v -0.555688 -0.037500 0.301140
v -0.563181 -0.037500 0.164090
v -0.539381 -0.037500 0.073101
v -0.472262 -0.037500 0.065086
v -0.385962 -0.037500 0.096830
v -0.313592 -0.037500 0.105094
v -0.282029 -0.037500 0.046651
v -0.293162 -0.037500 -0.041593
v -0.342642 -0.037500 -0.102716
v -0.422009 -0.037500 -0.099072
v -0.506303 -0.037500 -0.070100
v -0.566451 -0.037500 -0.074513
v -0.581941 -0.037500 -0.152814
v -0.566556 -0.037500 -0.272649
v -0.521901 -0.037500 -0.472862
v -0.299993 -0.037500 -0.436906
v -0.166614 -0.037500 -0.428179
v -0.078201 -0.037500 -0.451302
v -0.070563 -0.037500 -0.519072
v -0.100677 -0.037500 -0.609053
v -0.105828 -0.037500 -0.690025
v -0.043286 -0.037500 -0.735802
v 0.049772 -0.037500 -0.740361
v 0.116179 -0.037500 -0.702719
v 0.117818 -0.037500 -0.627210
v 0.092767 -0.037500 -0.539517
v 0.098158 -0.037500 -0.470654
v 0.173558 -0.037500 -0.443217
v 0.288337 -0.037500 -0.446161
v 0.479797 -0.037500 -0.472862
v 0.429050 -0.037498 -0.265534
v 0.410370 -0.037498 -0.142016
v 0.424513 -0.037500 -0.062593
v 0.486698 -0.037500 -0.061156
v 0.576071 -0.037500 -0.095476
v 0.662765 -0.037500 -0.104293
v 0.720945 -0.037500 -0.045930
v 0.740899 -0.037500 0.042880
v 0.716947 -0.037500 0.105821
v 0.649712 -0.037500 0.105782
v 0.565032 -0.037500 0.082517
v 0.495049 -0.037500 0.094990
v 0.463604 -0.037500 0.183513
v 0.461349 -0.037498 0.313827
v 0.479797 -0.037498 0.529047
v 0.720945 0.037500 -0.045930
v 0.740899 0.037500 0.042880
v 0.716947 0.037500 0.105821
v 0.716947 0.037500 0.105821
v 0.662765 0.037500 -0.104293
v 0.649712 0.037500 0.105782
v 0.576071 0.037500 -0.095476
v 0.565032 0.037500 0.082517
v 0.486698 0.037500 -0.061156
v 0.495049 0.037500 0.094990
v 0.495049 0.037500 0.094990
v 0.463604 0.037500 0.183513
v 0.424513 0.037500 -0.062593
v 0.424513 0.037500 -0.062593
v 0.461349 0.037500 0.313827
v 0.479797 0.037500 0.529047
v 0.479797 0.037500 0.529047
v 0.479797 0.037500 -0.472862
v 0.479797 0.037500 -0.472862
v 0.429050 0.037500 -0.265534
v 0.410370 0.037500 -0.142016
v 0.288337 0.037500 -0.446161
v 0.272789 0.037500 0.551981
v 0.173558 0.037500 -0.443217
v 0.149498 0.037500 0.554288
v 0.098158 0.037500 -0.470654
v 0.098158 0.037500 -0.470654
v 0.102292 0.037500 0.394889
v 0.108166 0.037500 0.333157
v 0.108166 0.037500 0.333157
v 0.070312 0.037500 0.530066
v 0.070312 0.037500 0.530066
v 0.116179 0.037500 -0.702719
v 0.117818 0.037500 -0.627210
v 0.092767 0.037500 -0.539517
v 0.049772 0.037500 -0.740361
v 0.044643 0.037500 0.307689
v 0.068927 0.037500 0.469996
v -0.043286 0.037500 -0.735802
v -0.048832 0.037500 0.319303
v -0.105828 0.037500 -0.690025
v -0.112481 0.037500 0.363294
v -0.100677 0.037500 -0.609053
v -0.070563 0.037500 -0.519072
v -0.078201 0.037500 -0.451302
v -0.078201 0.037500 -0.451302
v -0.107071 0.037500 0.431774
v -0.075575 0.037500 0.504128
v -0.081518 0.037500 0.556558
v -0.081518 0.037500 0.556558
v -0.166614 0.037500 -0.428179
v -0.168572 0.037500 0.572241
v -0.299993 0.037500 -0.436906
v -0.282029 0.037500 0.046651
v -0.293162 0.037500 -0.041593
v -0.313592 0.037500 0.105094
v -0.313592 0.037500 0.105094
v -0.342642 0.037500 -0.102716
v -0.385962 0.037500 0.096830
v -0.422009 0.037500 -0.099072
v -0.472262 0.037500 0.065086
v -0.506303 0.037500 -0.070100
v -0.521901 0.037500 -0.472862
v -0.521901 0.037500 -0.472862
v -0.539381 0.037500 0.073101
v -0.539381 0.037500 0.073101
v -0.521901 0.037500 0.529047
v -0.521901 0.037500 0.529047
v -0.566451 0.037500 -0.074513
v -0.566451 0.037500 -0.074513
v -0.555688 0.037500 0.301140
v -0.563181 0.037500 0.164090
v -0.566556 0.037500 -0.272649
v -0.581941 0.037500 -0.152814
v 0.720945 -0.037500 -0.045930
v 0.740899 -0.037500 0.042880
v 0.716947 -0.037500 0.105821
v 0.716947 -0.037500 0.105821
v 0.662765 -0.037500 -0.104293
v 0.649712 -0.037500 0.105782
v 0.576071 -0.037500 -0.095476
v 0.565032 -0.037500 0.082517
v 0.486698 -0.037500 -0.061156
v 0.495049 -0.037500 0.094990
v 0.495049 -0.037500 0.094990
v 0.463604 -0.037500 0.183513
v 0.424513 -0.037500 -0.062593
v 0.424513 -0.037500 -0.062593
v 0.461349 -0.037498 0.313827
v 0.479797 -0.037498 0.529047
v 0.479797 -0.037498 0.529047
v 0.479797 -0.037500 -0.472862
v 0.479797 -0.037500 -0.472862
v 0.429050 -0.037498 -0.265534
v 0.410370 -0.037498 -0.142016
v 0.288337 -0.037500 -0.446161
v 0.272789 -0.037500 0.551981
v 0.173558 -0.037500 -0.443217
v 0.149498 -0.037500 0.554288
v 0.098158 -0.037500 -0.470654
v 0.098158 -0.037500 -0.470654
v 0.102292 -0.037500 0.394889
v 0.108166 -0.037500 0.333157
v 0.108166 -0.037500 0.333157
v 0.070312 -0.037500 0.530066
v 0.070312 -0.037500 0.530066
v 0.116179 -0.037500 -0.702719
v 0.117818 -0.037500 -0.627210
v 0.092767 -0.037500 -0.539517
v 0.049772 -0.037500 -0.740361
v 0.044643 -0.037500 0.307689
v 0.068927 -0.037500 0.469996
v -0.043286 -0.037500 -0.735802
v -0.048832 -0.037500 0.319303
v -0.105828 -0.037500 -0.690025
v -0.112481 -0.037500 0.363294
v -0.100677 -0.037500 -0.609053
v -0.070563 -0.037500 -0.519072
v -0.078201 -0.037500 -0.451302
v -0.078201 -0.037500 -0.451302
v -0.107071 -0.037500 0.431774
v -0.075575 -0.037500 0.504128
v -0.081518 -0.037500 0.556558
v -0.081518 -0.037500 0.556558
v -0.166614 -0.037500 -0.428179
v -0.168572 -0.037500 0.572241
v -0.299993 -0.037500 -0.436906
v -0.282029 -0.037500 0.046651
v -0.293162 -0.037500 -0.041593
v -0.313592 -0.037500 0.105094
v -0.313592 -0.037500 0.105094
v -0.342642 -0.037500 -0.102716
v -0.385962 -0.037500 0.096830
v -0.422009 -0.037500 -0.099072
v -0.472262 -0.037500 0.065086
v -0.506303 -0.037500 -0.070100
v -0.521901 -0.037500 -0.472862
v -0.521901 -0.037500 -0.472862
v -0.539381 -0.037500 0.073101
v -0.539381 -0.037500 0.073101
v -0.521901 -0.037500 0.529047
v -0.521901 -0.037500 0.529047
v -0.566451 -0.037500 -0.074513
v -0.566451 -0.037500 -0.074513
v -0.555688 -0.037500 0.301140
v -0.563181 -0.037500 0.164090
v -0.566556 -0.037500 -0.272649
v -0.581941 -0.037500 -0.152814
vt 0.500000 0.500000
vt 0.500000 0.500000
vt 0.500000 0.500000
vt 0.500000 0.500000
vt 0.500000 0.500000
vt 0.500000 0.500000
vt 0.500000 0.500000
vt 0.500000 0.500000
vt 0.500000 0.500000
vt 0.500000 0.500000
vt 0.500000 0.500000
vt 0.500000 0.500000
vt 0.500000 0.500000
vt 0.500000 0.500000
vt 0.500000 0.500000
vt 0.500000 0.500000
vt 0.500000 0.500000
vt 0.500000 0.500000
vt 0.500000 0.500000
vt 0.500000 0.500000
vt 0.500000 0.500000
vt 0.500000 0.500000
vt 0.500000 0.500000
vt 0.500000 0.500000
vt 0.500000 0.500000
vt 0.500000 0.500000
vt 0.500000 0.500000
vt 0.500000 0.500000
vt 0.500000 0.500000
vt 0.500000 0.500000
vt 0.500000 0.500000
vt 0.500000 0.500000
vt 0.500000 0.500000
vt 0.500000 0.500000
vt 0.500000 0.500000
vt 0.500000 0.500000
vt 0.500000 0.500000
vt 0.500000 0.500000
vt 0.500000 0.500000
vt 0.500000 0.500000
vt 0.500000 0.500000
vt 0.500000 0.500000
vt 0.500000 0.500000
vt 0.500000 0.500000
vt 0.500000 0.500000
vt 0.500000 0.500000
vt 0.500000 0.500000
vt 0.500000 0.500000
vt 0.500000 0.500000
vt 0.500000 0.500000
vt 0.500000 0.500000
vt 0.500000 0.500000
vt 0.500000 0.500000
vt 0.500000 0.500000
vt 0.500000 0.500000
vt 0.500000 0.500000
vt 0.500000 0.500000
vt 0.500000 0.500000
vt 0.500000 0.500000
vt 0.500000 0.500000
vt 0.500000 0.500000
vt 0.500000 0.500000
vt 0.500000 0.500000
vt 0.500000 0.500000
vt 0.500000 0.500000
vt 0.500000 0.500000
vt 0.500000 0.500000
vt 0.500000 0.500000
vt 0.500000 0.500000
vt 0.500000 0.500000
vt 0.500000 0.500000
vt 0.500000 0.500000
vt 0.500000 0.500000
vt 0.500000 0.500000
vt 0.500000 0.500000
vt 0.500000 0.500000
vt 0.500000 0.500000
vt 0.500000 0.500000
vt 0.500000 0.500000
vt 0.500000 0.500000
vt 0.500000 0.500000
vt 0.500000 0.500000
vt 0.500000 0.500000
vt 0.500000 0.500000
vt 0.500000 0.500000
vt 0.500000 0.500000
vt 0.500000 0.500000
vt 0.500000 0.500000
vt 0.500000 0.500000
vt 0.500000 0.500000
vt 0.500000 0.500000
vt 0.500000 0.500000
vt 0.500000 0.500000
vt 0.500000 0.500000
vt 0.500000 0.500000
vt 0.500000 0.500000
vt 0.500000 0.500000
vt 0.500000 0.500000
vt 0.500000 0.500000
vt 0.500000 0.500000
vt 0.500000 0.500000
vt 0.500000 0.500000
vt 0.500000 0.500000
vt 0.500000 0.500000
vt 0.500000 0.500000
vt 0.500000 0.500000
vt 0.500000 0.500000
vt 0.500000 0.500000
vt 0.500000 0.500000
vt 0.500000 0.500000
vt 0.500000 0.500000
vt 0.500000 0.500000
vt 0.500000 0.500000
vt 0.500000 0.500000
vt 0.500000 0.500000
vt 0.500000 0.500000
vt 0.500000 0.500000
vt 0.500000 0.500000
vt 0.500000 0.500000
vt 0.500000 0.500000
vt 0.500000 0.500000
vt 0.500000 0.500000
vt 0.500000 0.500000
vt 0.500000 0.500000
vt 0.500000 0.500000
vt 0.500000 0.500000
vt 0.500000 0.500000
vt 0.500000 0.500000
vt 0.500000 0.500000
vt 0.500000 0.500000
vt 0.500000 0.500000
vt 0.500000 0.500000
vt 0.500000 0.500000
vt 0.500000 0.500000
vt 0.500000 0.500000
vt 0.500000 0.500000
vt 0.500000 0.500000
vt 0.500000 0.500000
vt 0.500000 0.500000
vt 0.500000 0.500000
vt 0.500000 0.500000
vt 0.500000 0.500000
vt 0.500000 0.500000
vt 0.500000 0.500000
vt 0.500000 0.500000
vt 0.500000 0.500000
vt 0.500000 0.500000
vt 0.500000 0.500000
vt 0.500000 0.500000
vt 0.500000 0.500000
vt 0.500000 0.500000
vt 0.500000 0.500000
vt 0.500000 0.500000
vt 0.500000 0.500000
vt 0.500000 0.500000
vt 0.500000 0.500000
vt 0.500000 0.500000
vt 0.500000 0.500000
vt 0.500000 0.500000
vt 0.500000 0.500000
vt 0.500000 0.500000
vt 0.500000 0.500000
vt 0.500000 0.500000
vt 0.500000 0.500000
vt 0.500000 0.500000
vt 0.500000 0.500000
vt 0.500000 0.500000
vt 0.500000 0.500000
vt 0.500000 0.500000
vt 0.500000 0.500000
vt 0.500000 0.500000
vt 0.500000 0.500000
vt 0.500000 0.500000
vt 0.500000 0.500000
vt 0.500000 0.500000
vt 0.500000 0.500000
vt 0.500000 0.500000
vt 0.500000 0.500000
vt 0.500000 0.500000
vt 0.500000 0.500000
vt 0.500000 0.500000
vt 0.500000 0.500000
vt 0.500000 0.500000
vt 0.500000 0.500000
vt 0.500000 0.500000
vt 0.500000 0.500000
vt 0.500000 0.500000
vt 0.500000 0.500000
vt 0.500000 0.500000
vt 0.500000 0.500000
vt 0.500000 0.500000
vt 0.500000 0.500000
vt 0.500000 0.500000
vt 0.500000 0.500000
vt 0.500000 0.500000
vt 0.500000 0.500000
vt 0.500000 0.500000
vt 0.500000 0.500000
vt 0.500000 0.500000
vt 0.500000 0.500000
vt 0.500000 0.500000
vt 0.500000 0.500000
vt 0.500000 0.500000
vt 0.500000 0.500000
vt 0.500000 0.500000
vt 0.500000 0.500000
vt 0.500000 0.500000
vt 0.483951 0.551644
vt 0.485895 0.550332
vt 0.493022 0.561344
vt 0.500915 0.559985
vt 0.499171 0.560232
vt 0.501437 0.556364
vt 0.488504 0.582660
vt 0.485559 0.583968
vt 0.480316 0.581034
vt 0.493483 0.567875
vt 0.485918 0.590401
vt 0.483825 0.594194
vt 0.480871 0.593364
vt 0.478981 0.549123
vt 0.481015 0.551181
vt 0.468153 0.556445
vt 0.467863 0.550897
vt 0.461532 0.568276
vt 0.459019 0.568208
vt 0.457767 0.565446
vt 0.496764 0.558922
vt 0.485144 0.586879
vt 0.480066 0.542315
vt 0.479103 0.545822
vt 0.477315 0.539169
vt 0.485919 0.593198
vt 0.492635 0.565233
vt 0.473328 0.539809
vt 0.485620 0.547321
vt 0.492418 0.540261
vt 0.480364 0.583620
vt 0.494485 0.558697
vt 0.479920 0.539814
vt 0.473564 0.581223
vt 0.467555 0.575369
vt 0.467653 0.570595
vt 0.466667 0.583333
vt 0.492840 0.582566
vt 0.495537 0.567631
vt 0.500763 0.574723
vt 0.500000 0.541667
vt 0.477674 0.580445
vt 0.498035 0.566243
vt 0.500034 0.566300
vt 0.500840 0.569594
vt 0.484831 0.540940
vt 0.487858 0.539950
vt 0.484564 0.543731
vt 0.464449 0.567234
vt 0.462136 0.559188
vt 0.467384 0.560123
vt 0.457919 0.561575
vt 0.459442 0.558974
vt 0.466740 0.567459
vt 0.465129 0.560441
vt 0.479222 0.587338
vt 0.478929 0.590944
vt 0.500000 0.583333
vt 0.466667 0.541667
vn 0.0000 -1.0000 -0.0000
vn 0.9757 0.0000 -0.2192
vn 0.9346 0.0000 0.3557
vn 0.7082 0.0000 -0.7060
vn -0.0006 0.0000 1.0000
vn -0.1012 0.0000 -0.9949
vn -0.2649 0.0000 0.9643
vn -0.3585 0.0000 -0.9335
vn 0.1755 0.0000 0.9845
vn 0.9423 0.0000 0.3347
vn 0.0231 0.0000 -0.9997
vn 0.9963 0.0000 -0.0854
vn 0.9999 0.0000 0.0173
vn 0.9713 0.0000 0.2377
vn 0.9888 0.0000 0.1495
vn 0.9845 0.0000 -0.1753
vn -0.1381 0.0000 -0.9904
vn 0.1101 0.0000 0.9939
vn -0.0256 0.0000 -0.9997
vn 0.0187 0.0000 0.9998
vn 0.3419 0.0000 -0.9397
vn -0.9955 0.0000 -0.0947
vn -0.2925 0.0000 0.9563
vn 0.9998 0.0000 -0.0217
vn 0.9615 0.0000 0.2747
vn 0.4931 0.0000 -0.8700
vn -0.3721 0.0000 0.9282
vn -0.9139 0.0000 -0.4060
vn -0.9997 0.0000 0.0231
vn 0.9969 0.0000 -0.0780
vn -0.0489 0.0000 -0.9988
vn 0.1233 0.0000 0.9924
vn -0.5906 0.0000 -0.8069
vn 0.5686 0.0000 0.8226
vn -0.9980 0.0000 0.0635
vn -0.9483 0.0000 0.3174
vn -0.9937 0.0000 -0.1120
vn 0.9169 0.0000 -0.3991
vn 0.9936 0.0000 0.1126
vn -0.2530 0.0000 -0.9675
vn 0.1773 0.0000 0.9842
vn 0.9969 0.0000 -0.0788
vn 0.0653 0.0000 -0.9979
vn -0.9921 0.0000 0.1252
vn -0.8799 0.0000 -0.4752
vn -0.7773 0.0000 0.6292
vn 0.1134 0.0000 -0.9935
vn 0.0459 0.0000 0.9989
vn 0.3452 0.0000 -0.9385
vn 0.3250 0.0000 0.9457
vn 0.1599 0.0000 -0.9871
vn -0.1186 0.0000 -0.9929
vn -0.1213 0.0000 0.9926
vn -0.0732 0.0000 0.9973
vn -0.9892 0.0000 0.1466
vn -0.9675 0.0000 -0.2531
vn -0.9985 0.0000 0.0546
vn -0.9760 0.0000 -0.2177
vn -0.9919 0.0000 -0.1273
vn -0.9810 0.0000 0.1941
vn 0.0000 1.0000 0.0000
usemtl BackMat.001
s off
f 246/1/1 232/2/1 248/3/1
f 241/4/1 244/5/1 240/6/1
f 204/7/1 205/8/1 202/9/1
f 221/10/1 205/8/1 204/7/1
f 198/11/1 193/12/1 194/13/1
f 250/14/1 243/15/1 247/16/1
f 250/14/1 245/17/1 243/15/1
f 226/18/1 228/19/1 225/20/1
f 240/6/1 244/5/1 239/21/1
f 200/22/1 193/12/1 198/11/1
f 254/23/1 266/24/1 252/25/1
f 198/11/1 194/13/1 195/26/1
f 229/27/1 205/8/1 221/10/1
f 250/14/1 265/28/1 245/17/1
f 251/29/1 248/3/1 263/30/1
f 202/9/1 201/31/1 200/22/1
f 234/32/1 248/3/1 232/2/1
f 261/33/1 266/24/1 254/23/1
f 212/34/1 216/35/1 214/36/1
f 212/34/1 214/36/1 210/37/1
f 207/38/1 221/10/1 204/7/1
f 221/10/1 215/39/1 220/40/1
f 263/30/1 234/32/1 259/41/1
f 247/16/1 216/35/1 213/42/1
f 230/43/1 217/44/1 223/45/1
f 220/40/1 217/44/1 230/43/1
f 257/46/1 253/47/1 264/48/1
f 227/49/1 235/50/1 226/18/1
f 202/9/1 205/8/1 201/31/1
f 229/27/1 213/42/1 205/8/1
f 232/2/1 246/1/1 229/27/1
f 247/16/1 243/15/1 237/51/1
f 215/39/1 221/10/1 207/38/1
f 213/42/1 216/35/1 212/34/1
f 264/48/1 251/29/1 263/30/1
f 244/5/1 259/41/1 239/21/1
f 231/52/1 235/50/1 233/53/1
f 218/54/1 237/51/1 236/55/1
f 247/16/1 237/51/1 216/35/1
f 218/54/1 236/55/1 227/49/1
f 201/31/1 199/56/1 200/22/1
f 231/52/1 226/18/1 235/50/1
f 265/28/1 252/25/1 266/24/1
f 200/22/1 199/56/1 193/12/1
f 251/29/1 264/48/1 253/47/1
f 229/27/1 246/1/1 247/16/1
f 229/27/1 247/16/1 213/42/1
f 193/12/1 199/56/1 197/57/1
f 239/21/1 259/41/1 234/32/1
f 227/49/1 236/55/1 235/50/1
f 215/39/1 207/38/1 208/58/1
f 263/30/1 248/3/1 234/32/1
f 245/17/1 265/28/1 255/59/1
f 216/35/1 237/51/1 218/54/1
f 228/19/1 226/18/1 231/52/1
f 252/25/1 265/28/1 250/14/1
f 217/44/1 220/40/1 215/39/1
f 51/60/2 52/61/2 111/62/2 110/63/2
f 52/61/3 122/64/3 196/65/3 111/62/3
f 50/66/4 51/60/4 110/63/4 109/67/4
f 53/68/5 54/69/5 113/70/5 112/71/5
f 49/72/6 50/66/6 109/67/6 108/73/6
f 54/69/7 55/74/7 114/75/7 113/70/7
f 48/76/8 49/72/8 108/73/8 107/77/8
f 55/74/9 129/78/9 203/79/9 114/75/9
f 56/80/10 57/81/10 116/82/10 115/83/10
f 132/84/11 48/76/11 107/77/11 206/85/11
f 58/86/12 135/87/12 209/88/12 117/89/12
f 57/81/13 58/86/13 117/89/13 116/82/13
f 137/90/14 45/91/14 104/92/14 211/93/14
f 45/91/15 46/94/15 105/95/15 104/92/15
f 46/94/16 47/96/16 106/97/16 105/95/16
f 43/98/17 44/99/17 103/100/17 102/101/17
f 59/102/18 1/103/18 60/104/18 118/105/18
f 42/106/19 43/98/19 102/101/19 101/107/19
f 1/103/20 2/108/20 61/109/20 60/104/20
f 145/110/21 42/106/21 101/107/21 219/111/21
f 5/112/22 148/113/22 222/114/22 64/115/22
f 2/108/23 150/116/23 224/117/23 61/109/23
f 38/118/24 39/119/24 98/120/24 97/121/24
f 39/119/25 40/122/25 99/123/25 98/120/25
f 37/124/26 38/118/26 97/121/26 96/125/26
f 6/126/27 7/127/27 66/128/27 65/129/27
f 4/130/28 5/112/28 64/115/28 63/131/28
f 3/132/29 4/130/29 63/131/29 62/133/29
f 40/122/30 41/134/30 100/135/30 99/123/30
f 36/136/31 37/124/31 96/125/31 95/137/31
f 7/127/32 8/138/32 67/139/32 66/128/32
f 35/140/33 36/136/33 95/137/33 94/141/33
f 8/138/34 9/142/34 68/143/34 67/139/34
f 34/144/35 35/140/35 94/141/35 93/145/35
f 33/146/36 34/144/36 93/145/36 92/147/36
f 164/148/37 33/146/37 92/147/37 238/149/37
f 10/150/38 11/151/38 70/152/38 69/153/38
f 11/151/39 168/154/39 242/155/39 70/152/39
f 31/156/40 32/157/40 91/158/40 90/159/40
f 12/160/41 13/161/41 72/162/41 71/163/41
f 9/142/42 10/150/42 69/153/42 68/143/42
f 30/164/43 31/156/43 90/159/43 89/165/43
f 21/166/44 22/167/44 81/168/44 80/169/44
f 175/170/45 21/166/45 80/169/45 249/171/45
f 22/167/46 23/172/46 82/173/46 81/168/46
f 19/174/47 20/175/47 79/176/47 78/177/47
f 23/172/48 24/178/48 83/179/48 82/173/48
f 18/180/49 19/174/49 78/177/49 77/181/49
f 24/178/50 25/182/50 84/183/50 83/179/50
f 182/184/51 30/164/51 89/165/51 256/185/51
f 184/186/52 18/180/52 77/181/52 258/187/52
f 13/161/53 186/188/53 260/189/53 72/162/53
f 25/182/54 188/190/54 262/191/54 84/183/54
f 14/192/55 15/193/55 74/194/55 73/195/55
f 16/196/56 17/197/56 76/198/56 75/199/56
f 15/193/57 16/196/57 75/199/57 74/194/57
f 28/200/58 29/201/58 88/202/58 87/203/58
f 27/204/59 28/200/59 87/203/59 86/205/59
f 26/206/60 27/204/60 86/205/60 85/207/60
usemtl FrontMat.001
f 172/208/61 174/209/61 158/210/61
f 167/211/61 166/212/61 170/213/61
f 130/214/61 128/215/61 131/216/61
f 147/217/61 130/214/61 131/216/61
f 124/218/61 120/219/61 119/220/61
f 176/221/61 173/222/61 169/223/61
f 176/221/61 169/223/61 171/224/61
f 152/225/61 151/226/61 154/227/61
f 166/212/61 165/228/61 170/213/61
f 126/229/61 124/218/61 119/220/61
f 180/230/61 178/231/61 192/232/61
f 124/218/61 121/233/61 120/219/61
f 155/234/61 147/217/61 131/216/61
f 176/221/61 171/224/61 191/235/61
f 177/236/61 189/237/61 174/209/61
f 128/215/61 126/229/61 127/238/61
f 160/239/61 158/210/61 174/209/61
f 187/240/61 180/230/61 192/232/61
f 138/241/61 140/242/61 142/243/61
f 138/241/61 136/244/61 140/242/61
f 133/245/61 130/214/61 147/217/61
f 147/217/61 146/246/61 141/247/61
f 189/237/61 185/248/61 160/239/61
f 173/222/61 139/249/61 142/243/61
f 156/250/61 149/251/61 143/252/61
f 146/246/61 156/250/61 143/252/61
f 183/253/61 190/254/61 179/255/61
f 153/256/61 152/225/61 161/257/61
f 128/215/61 127/238/61 131/216/61
f 155/234/61 131/216/61 139/249/61
f 158/210/61 155/234/61 172/208/61
f 173/222/61 163/258/61 169/223/61
f 141/247/61 133/245/61 147/217/61
f 139/249/61 138/241/61 142/243/61
f 190/254/61 189/237/61 177/236/61
f 170/213/61 165/228/61 185/248/61
f 157/259/61 159/260/61 161/257/61
f 144/261/61 162/262/61 163/258/61
f 173/222/61 142/243/61 163/258/61
f 144/261/61 153/256/61 162/262/61
f 127/238/61 126/229/61 125/263/61
f 157/259/61 161/257/61 152/225/61
f 191/235/61 192/232/61 178/231/61
f 126/229/61 119/220/61 125/263/61
f 177/236/61 179/255/61 190/254/61
f 155/234/61 173/222/61 172/208/61
f 155/234/61 139/249/61 173/222/61
f 119/220/61 123/264/61 125/263/61
f 165/228/61 160/239/61 185/248/61
f 153/256/61 161/257/61 162/262/61
f 141/247/61 134/265/61 133/245/61
f 189/237/61 160/239/61 174/209/61
f 171/224/61 181/266/61 191/235/61
f 142/243/61 144/261/61 163/258/61
f 154/227/61 157/259/61 152/225/61
f 178/231/61 176/221/61 191/235/61
f 143/252/61 141/247/61 146/246/61
