# Blender v2.83.1 OBJ File: 'jigsaw-30x24-3-step2.blend'
# www.blender.org
mtllib piece.596.mtl
o path1192
v 0.135756 0.037500 0.534948
v 0.052826 0.037500 0.517002
v 0.047627 0.037500 0.467571
v 0.077312 0.037500 0.400080
v 0.079811 0.037500 0.333628
v 0.013332 0.037500 0.285870
v -0.082804 0.037500 0.268669
v -0.149000 0.037500 0.292448
v -0.145889 0.037500 0.360218
v -0.115023 0.037500 0.445337
v -0.118189 0.037500 0.513748
v -0.198139 0.037500 0.540409
v -0.321472 0.037500 0.536287
v -0.528002 0.037500 0.507647
v -0.551090 0.037500 0.297758
v -0.553349 0.037500 0.173840
v -0.528772 0.037500 0.096716
v -0.467335 0.037500 0.100941
v -0.387421 0.037500 0.140532
v -0.314520 0.037500 0.149364
v -0.270864 0.037500 0.083132
v -0.265673 0.037500 -0.015257
v -0.304903 0.037500 -0.081091
v -0.387407 0.037500 -0.071863
v -0.483671 0.037500 -0.033892
v -0.557079 0.037500 -0.035704
v -0.581158 0.037500 -0.124554
v -0.569983 0.037500 -0.262608
v -0.528002 0.037500 -0.494263
v -0.320507 0.037500 -0.541929
v -0.198305 0.037500 -0.555773
v -0.122946 0.037500 -0.531713
v -0.128613 0.037500 -0.454382
v -0.168768 0.037500 -0.352507
v -0.176697 0.037500 -0.265844
v -0.107653 0.037500 -0.226507
v -0.004707 0.037500 -0.236050
v 0.067097 0.037500 -0.288387
v 0.064585 0.037500 -0.373327
v 0.032053 0.037500 -0.464235
v 0.035652 0.037500 -0.530363
v 0.121187 0.037500 -0.549915
v 0.253008 0.037500 -0.536873
v 0.473696 0.037500 -0.494263
v 0.434141 0.037500 -0.126783
v 0.453791 0.037500 -0.034977
v 0.512550 0.037500 -0.026533
v 0.593100 0.037500 -0.058062
v 0.670908 0.037500 -0.066036
v 0.724169 0.037500 -0.006983
v 0.742016 0.037500 0.082367
v 0.716305 0.037500 0.145231
v 0.645876 0.037500 0.143875
v 0.557510 0.037500 0.116735
v 0.484980 0.037500 0.121304
v 0.453272 0.037500 0.197321
v 0.452291 0.037500 0.313536
v 0.473696 0.037500 0.507647
v 0.135756 -0.037500 0.534948
v 0.052826 -0.037500 0.517002
v 0.047627 -0.037500 0.467571
v 0.077312 -0.037500 0.400080
v 0.079811 -0.037500 0.333628
v 0.013332 -0.037500 0.285870
v -0.082804 -0.037500 0.268669
v -0.149000 -0.037500 0.292448
v -0.145889 -0.037500 0.360218
v -0.115023 -0.037500 0.445337
v -0.118189 -0.037500 0.513748
v -0.198139 -0.037500 0.540409
v -0.321472 -0.037500 0.536287
v -0.528002 -0.037500 0.507647
v -0.551090 -0.037498 0.297758
v -0.553349 -0.037500 0.173840
v -0.528772 -0.037500 0.096716
v -0.467335 -0.037500 0.100941
v -0.387421 -0.037500 0.140532
v -0.314520 -0.037500 0.149364
v -0.270864 -0.037500 0.083132
v -0.265673 -0.037500 -0.015257
v -0.304903 -0.037500 -0.081091
v -0.387407 -0.037498 -0.071863
v -0.483671 -0.037498 -0.033892
v -0.557079 -0.037498 -0.035704
v -0.581158 -0.037500 -0.124554
v -0.569983 -0.037500 -0.262608
v -0.528002 -0.037500 -0.494263
v -0.320507 -0.037500 -0.541929
v -0.198305 -0.037500 -0.555773
v -0.122946 -0.037500 -0.531713
v -0.128613 -0.037500 -0.454382
v -0.168768 -0.037500 -0.352507
v -0.176697 -0.037500 -0.265844
v -0.107653 -0.037498 -0.226507
v -0.004707 -0.037498 -0.236050
v 0.067097 -0.037500 -0.288387
v 0.064585 -0.037498 -0.373327
v 0.032053 -0.037500 -0.464235
v 0.035652 -0.037500 -0.530363
v 0.121187 -0.037500 -0.549915
v 0.253008 -0.037500 -0.536873
v 0.473696 -0.037500 -0.494263
v 0.434141 -0.037500 -0.126783
v 0.453791 -0.037500 -0.034977
v 0.512550 -0.037500 -0.026533
v 0.593100 -0.037500 -0.058062
v 0.670908 -0.037500 -0.066036
v 0.724169 -0.037500 -0.006983
v 0.742016 -0.037500 0.082367
v 0.716305 -0.037500 0.145231
v 0.645876 -0.037500 0.143875
v 0.557510 -0.037498 0.116735
v 0.484980 -0.037500 0.121304
v 0.453272 -0.037500 0.197321
v 0.452291 -0.037500 0.313536
v 0.473696 -0.037500 0.507647
v -0.557079 0.037500 -0.035704
v -0.557079 0.037500 -0.035704
v -0.581158 0.037500 -0.124554
v -0.569983 0.037500 -0.262608
v -0.483671 0.037500 -0.033892
v -0.551090 0.037500 0.297758
v -0.553349 0.037500 0.173840
v -0.528772 0.037500 0.096716
v -0.528772 0.037500 0.096716
v -0.528002 0.037500 0.507647
v -0.528002 0.037500 0.507647
v -0.528002 0.037500 -0.494263
v -0.528002 0.037500 -0.494263
v -0.467335 0.037500 0.100941
v -0.387407 0.037500 -0.071863
v -0.387421 0.037500 0.140532
v -0.321472 0.037500 0.536287
v -0.320507 0.037500 -0.541929
v -0.314520 0.037500 0.149364
v -0.314520 0.037500 0.149364
v -0.304903 0.037500 -0.081091
v -0.304903 0.037500 -0.081091
v -0.198139 0.037500 0.540409
v -0.198305 0.037500 -0.555773
v -0.270864 0.037500 0.083132
v -0.265673 0.037500 -0.015257
v -0.168768 0.037500 -0.352507
v -0.176697 0.037500 -0.265844
v -0.176697 0.037500 -0.265844
v -0.122946 0.037500 -0.531713
v -0.122946 0.037500 -0.531713
v -0.118189 0.037500 0.513748
v -0.118189 0.037500 0.513748
v -0.149000 0.037500 0.292448
v -0.149000 0.037500 0.292448
v -0.145889 0.037500 0.360218
v -0.107653 0.037500 -0.226507
v -0.128613 0.037500 -0.454382
v -0.082804 0.037500 0.268669
v -0.115023 0.037500 0.445337
v -0.004707 0.037500 -0.236050
v 0.013332 0.037500 0.285870
v 0.067097 0.037500 -0.288387
v 0.079811 0.037500 0.333628
v 0.064585 0.037500 -0.373327
v 0.032053 0.037500 -0.464235
v 0.035652 0.037500 -0.530363
v 0.035652 0.037500 -0.530363
v 0.121187 0.037500 -0.549915
v 0.052826 0.037500 0.517002
v 0.052826 0.037500 0.517002
v 0.047627 0.037500 0.467571
v 0.077312 0.037500 0.400080
v 0.135756 0.037500 0.534948
v 0.253008 0.037500 -0.536873
v 0.434141 0.037500 -0.126783
v 0.453791 0.037500 -0.034977
v 0.453791 0.037500 -0.034977
v 0.473696 0.037500 -0.494263
v 0.473696 0.037500 -0.494263
v 0.473696 0.037500 0.507647
v 0.473696 0.037500 0.507647
v 0.453272 0.037500 0.197321
v 0.452291 0.037500 0.313536
v 0.484980 0.037500 0.121304
v 0.484980 0.037500 0.121304
v 0.512550 0.037500 -0.026533
v 0.557510 0.037500 0.116735
v 0.593100 0.037500 -0.058062
v 0.645876 0.037500 0.143875
v 0.670908 0.037500 -0.066036
v 0.716305 0.037500 0.145231
v 0.716305 0.037500 0.145231
v 0.724169 0.037500 -0.006983
v 0.742016 0.037500 0.082367
v -0.557079 -0.037498 -0.035704
v -0.557079 -0.037498 -0.035704
v -0.581158 -0.037500 -0.124554
v -0.569983 -0.037500 -0.262608
v -0.483671 -0.037498 -0.033892
v -0.551090 -0.037498 0.297758
v -0.553349 -0.037500 0.173840
v -0.528772 -0.037500 0.096716
v -0.528772 -0.037500 0.096716
v -0.528002 -0.037500 0.507647
v -0.528002 -0.037500 0.507647
v -0.528002 -0.037500 -0.494263
v -0.528002 -0.037500 -0.494263
v -0.467335 -0.037500 0.100941
v -0.387407 -0.037498 -0.071863
v -0.387421 -0.037500 0.140532
v -0.321472 -0.037500 0.536287
v -0.320507 -0.037500 -0.541929
v -0.314520 -0.037500 0.149364
v -0.314520 -0.037500 0.149364
v -0.304903 -0.037500 -0.081091
v -0.304903 -0.037500 -0.081091
v -0.198139 -0.037500 0.540409
v -0.198305 -0.037500 -0.555773
v -0.270864 -0.037500 0.083132
v -0.265673 -0.037500 -0.015257
v -0.168768 -0.037500 -0.352507
v -0.176697 -0.037500 -0.265844
v -0.176697 -0.037500 -0.265844
v -0.122946 -0.037500 -0.531713
v -0.122946 -0.037500 -0.531713
v -0.118189 -0.037500 0.513748
v -0.118189 -0.037500 0.513748
v -0.149000 -0.037500 0.292448
v -0.149000 -0.037500 0.292448
v -0.145889 -0.037500 0.360218
v -0.107653 -0.037498 -0.226507
v -0.128613 -0.037500 -0.454382
v -0.082804 -0.037500 0.268669
v -0.115023 -0.037500 0.445337
v -0.004707 -0.037498 -0.236050
v 0.013332 -0.037500 0.285870
v 0.067097 -0.037500 -0.288387
v 0.079811 -0.037500 0.333628
v 0.064585 -0.037498 -0.373327
v 0.032053 -0.037500 -0.464235
v 0.035652 -0.037500 -0.530363
v 0.035652 -0.037500 -0.530363
v 0.121187 -0.037500 -0.549915
v 0.052826 -0.037500 0.517002
v 0.052826 -0.037500 0.517002
v 0.047627 -0.037500 0.467571
v 0.077312 -0.037500 0.400080
v 0.135756 -0.037500 0.534948
v 0.253008 -0.037500 -0.536873
v 0.434141 -0.037500 -0.126783
v 0.453791 -0.037500 -0.034977
v 0.453791 -0.037500 -0.034977
v 0.473696 -0.037500 -0.494263
v 0.473696 -0.037500 -0.494263
v 0.473696 -0.037500 0.507647
v 0.473696 -0.037500 0.507647
v 0.453272 -0.037500 0.197321
v 0.452291 -0.037500 0.313536
v 0.484980 -0.037500 0.121304
v 0.484980 -0.037500 0.121304
v 0.512550 -0.037500 -0.026533
v 0.557510 -0.037498 0.116735
v 0.593100 -0.037500 -0.058062
v 0.645876 -0.037500 0.143875
v 0.670908 -0.037500 -0.066036
v 0.716305 -0.037500 0.145231
v 0.716305 -0.037500 0.145231
v 0.724169 -0.037500 -0.006983
v 0.742016 -0.037500 0.082367
vt 0.500000 0.500000
vt 0.500000 0.500000
vt 0.500000 0.500000
vt 0.500000 0.500000
vt 0.500000 0.500000
vt 0.500000 0.500000
vt 0.500000 0.500000
vt 0.500000 0.500000
vt 0.500000 0.500000
vt 0.500000 0.500000
vt 0.500000 0.500000
vt 0.500000 0.500000
vt 0.500000 0.500000
vt 0.500000 0.500000
vt 0.500000 0.500000
vt 0.500000 0.500000
vt 0.500000 0.500000
vt 0.500000 0.500000
vt 0.500000 0.500000
vt 0.500000 0.500000
vt 0.500000 0.500000
vt 0.500000 0.500000
vt 0.500000 0.500000
vt 0.500000 0.500000
vt 0.500000 0.500000
vt 0.500000 0.500000
vt 0.500000 0.500000
vt 0.500000 0.500000
vt 0.500000 0.500000
vt 0.500000 0.500000
vt 0.500000 0.500000
vt 0.500000 0.500000
vt 0.500000 0.500000
vt 0.500000 0.500000
vt 0.500000 0.500000
vt 0.500000 0.500000
vt 0.500000 0.500000
vt 0.500000 0.500000
vt 0.500000 0.500000
vt 0.500000 0.500000
vt 0.500000 0.500000
vt 0.500000 0.500000
vt 0.500000 0.500000
vt 0.500000 0.500000
vt 0.500000 0.500000
vt 0.500000 0.500000
vt 0.500000 0.500000
vt 0.500000 0.500000
vt 0.500000 0.500000
vt 0.500000 0.500000
vt 0.500000 0.500000
vt 0.500000 0.500000
vt 0.500000 0.500000
vt 0.500000 0.500000
vt 0.500000 0.500000
vt 0.500000 0.500000
vt 0.500000 0.500000
vt 0.500000 0.500000
vt 0.500000 0.500000
vt 0.500000 0.500000
vt 0.500000 0.500000
vt 0.500000 0.500000
vt 0.500000 0.500000
vt 0.500000 0.500000
vt 0.500000 0.500000
vt 0.500000 0.500000
vt 0.500000 0.500000
vt 0.500000 0.500000
vt 0.500000 0.500000
vt 0.500000 0.500000
vt 0.500000 0.500000
vt 0.500000 0.500000
vt 0.500000 0.500000
vt 0.500000 0.500000
vt 0.500000 0.500000
vt 0.500000 0.500000
vt 0.500000 0.500000
vt 0.500000 0.500000
vt 0.500000 0.500000
vt 0.500000 0.500000
vt 0.500000 0.500000
vt 0.500000 0.500000
vt 0.500000 0.500000
vt 0.500000 0.500000
vt 0.500000 0.500000
vt 0.500000 0.500000
vt 0.500000 0.500000
vt 0.500000 0.500000
vt 0.500000 0.500000
vt 0.500000 0.500000
vt 0.500000 0.500000
vt 0.500000 0.500000
vt 0.500000 0.500000
vt 0.500000 0.500000
vt 0.500000 0.500000
vt 0.500000 0.500000
vt 0.500000 0.500000
vt 0.500000 0.500000
vt 0.500000 0.500000
vt 0.500000 0.500000
vt 0.500000 0.500000
vt 0.500000 0.500000
vt 0.500000 0.500000
vt 0.500000 0.500000
vt 0.500000 0.500000
vt 0.500000 0.500000
vt 0.500000 0.500000
vt 0.500000 0.500000
vt 0.500000 0.500000
vt 0.500000 0.500000
vt 0.500000 0.500000
vt 0.500000 0.500000
vt 0.500000 0.500000
vt 0.500000 0.500000
vt 0.500000 0.500000
vt 0.500000 0.500000
vt 0.500000 0.500000
vt 0.500000 0.500000
vt 0.500000 0.500000
vt 0.500000 0.500000
vt 0.500000 0.500000
vt 0.500000 0.500000
vt 0.500000 0.500000
vt 0.500000 0.500000
vt 0.500000 0.500000
vt 0.500000 0.500000
vt 0.500000 0.500000
vt 0.500000 0.500000
vt 0.500000 0.500000
vt 0.500000 0.500000
vt 0.500000 0.500000
vt 0.500000 0.500000
vt 0.500000 0.500000
vt 0.500000 0.500000
vt 0.500000 0.500000
vt 0.500000 0.500000
vt 0.500000 0.500000
vt 0.500000 0.500000
vt 0.500000 0.500000
vt 0.500000 0.500000
vt 0.500000 0.500000
vt 0.500000 0.500000
vt 0.500000 0.500000
vt 0.500000 0.500000
vt 0.500000 0.500000
vt 0.500000 0.500000
vt 0.500000 0.500000
vt 0.500000 0.500000
vt 0.500000 0.500000
vt 0.500000 0.500000
vt 0.500000 0.500000
vt 0.500000 0.500000
vt 0.500000 0.500000
vt 0.500000 0.500000
vt 0.500000 0.500000
vt 0.500000 0.500000
vt 0.500000 0.500000
vt 0.500000 0.500000
vt 0.500000 0.500000
vt 0.500000 0.500000
vt 0.500000 0.500000
vt 0.500000 0.500000
vt 0.500000 0.500000
vt 0.500000 0.500000
vt 0.500000 0.500000
vt 0.500000 0.500000
vt 0.500000 0.500000
vt 0.500000 0.500000
vt 0.500000 0.500000
vt 0.500000 0.500000
vt 0.500000 0.500000
vt 0.500000 0.500000
vt 0.500000 0.500000
vt 0.500000 0.500000
vt 0.500000 0.500000
vt 0.500000 0.500000
vt 0.500000 0.500000
vt 0.500000 0.500000
vt 0.500000 0.500000
vt 0.500000 0.500000
vt 0.500000 0.500000
vt 0.500000 0.500000
vt 0.500000 0.500000
vt 0.500000 0.500000
vt 0.500000 0.500000
vt 0.500000 0.500000
vt 0.500000 0.500000
vt 0.500000 0.500000
vt 0.500000 0.500000
vt 0.500000 0.500000
vt 0.500000 0.500000
vt 0.500000 0.500000
vt 0.500000 0.500000
vt 0.500000 0.500000
vt 0.500000 0.500000
vt 0.500000 0.500000
vt 0.500000 0.500000
vt 0.500000 0.500000
vt 0.500000 0.500000
vt 0.500000 0.500000
vt 0.500000 0.500000
vt 0.500000 0.500000
vt 0.500000 0.500000
vt 0.500000 0.500000
vt 0.500000 0.500000
vt 0.500000 0.500000
vt 0.500000 0.500000
vt 0.500000 0.500000
vt 0.866667 0.208333
vt 0.858960 0.210080
vt 0.868253 0.199702
vt 0.854367 0.210544
vt 0.851350 0.206489
vt 0.852613 0.202485
vt 0.846187 0.166197
vt 0.846339 0.163180
vt 0.851105 0.165050
vt 0.857759 0.190848
vt 0.850730 0.197422
vt 0.858076 0.186566
vt 0.841284 0.189815
vt 0.840712 0.185816
vt 0.840316 0.209294
vt 0.832380 0.199743
vt 0.845253 0.199453
vt 0.832425 0.180724
vt 0.839791 0.167557
vt 0.836912 0.183155
vt 0.852154 0.161700
vt 0.845436 0.159505
vt 0.859067 0.193720
vt 0.851386 0.167495
vt 0.832243 0.194612
vt 0.838238 0.192439
vt 0.847457 0.197637
vt 0.840493 0.192568
vt 0.844439 0.209388
vt 0.845547 0.202486
vt 0.843658 0.167516
vt 0.839123 0.183051
vt 0.861950 0.193391
vt 0.854441 0.168312
vt 0.868084 0.175847
vt 0.859817 0.183580
vt 0.845391 0.156575
vt 0.847482 0.155506
vt 0.852920 0.199053
vt 0.867868 0.184888
vt 0.865668 0.185037
vt 0.868518 0.181330
vt 0.862643 0.183684
vt 0.833333 0.208333
vt 0.866667 0.166667
vt 0.846864 0.205810
vt 0.847005 0.208365
vt 0.834667 0.184389
vt 0.833022 0.184173
vt 0.850455 0.156248
vt 0.833130 0.191287
vt 0.835406 0.191155
vt 0.852420 0.158463
vt 0.867912 0.191485
vt 0.868713 0.194619
vt 0.865340 0.191720
vt 0.833333 0.166667
vt 0.851410 0.209543
vn 0.0000 -1.0000 0.0000
vn -0.9652 0.0000 0.2616
vn -0.9967 0.0000 -0.0807
vn -0.0247 0.0000 0.9997
vn -0.9998 0.0000 0.0182
vn -0.9528 0.0000 -0.3036
vn -0.9940 0.0000 0.1093
vn -0.9840 0.0000 -0.1783
vn 0.0686 0.0000 -0.9976
vn 0.3669 0.0000 0.9302
vn 0.4439 0.0000 -0.8961
vn -0.1374 0.0000 0.9905
vn -0.2239 0.0000 -0.9746
vn 0.1203 0.0000 -0.9927
vn 0.1112 0.0000 0.9938
vn -0.0334 0.0000 0.9994
vn -0.1126 0.0000 -0.9936
vn -0.8349 0.0000 -0.5503
vn -0.8590 0.0000 0.5119
vn -0.9986 0.0000 -0.0527
vn 0.9958 0.0000 0.0911
vn 0.3041 0.0000 -0.9526
vn 0.3163 0.0000 0.9486
vn 0.9989 0.0000 -0.0459
vn 0.4950 0.0000 -0.8689
vn 0.9303 0.0000 0.3667
vn 0.9973 0.0000 0.0731
vn 0.3381 0.0000 0.9411
vn 0.9989 0.0000 0.0462
vn 0.9401 0.0000 -0.3409
vn -0.0923 0.0000 -0.9957
vn -0.1761 0.0000 0.9844
vn -0.5890 0.0000 -0.8081
vn -0.5834 0.0000 0.8122
vn -0.9415 0.0000 0.3369
vn -0.9985 0.0000 -0.0543
vn -0.2228 0.0000 -0.9749
vn -0.9945 0.0000 0.1046
vn -0.9154 0.0000 -0.4026
vn -0.2115 0.0000 0.9774
vn -0.9996 0.0000 0.0296
vn -0.9993 0.0000 -0.0376
vn 0.0985 0.0000 -0.9951
vn 0.9779 0.0000 -0.2093
vn 0.9943 0.0000 0.1070
vn 0.1896 0.0000 -0.9819
vn 0.0805 0.0000 0.9968
vn 1.0000 0.0000 0.0084
vn 0.9229 0.0000 0.3850
vn 0.1422 0.0000 -0.9898
vn 0.9940 0.0000 -0.1096
vn 0.0629 0.0000 0.9980
vn -0.3645 0.0000 -0.9312
vn -0.2936 0.0000 0.9559
vn -0.1020 0.0000 -0.9948
vn -0.0193 0.0000 0.9998
vn 0.7426 0.0000 -0.6697
vn 0.9256 0.0000 0.3786
vn 0.9806 0.0000 -0.1959
vn 0.0000 1.0000 0.0000
usemtl BackMat.001
s off
f 203/1/1 209/2/1 195/3/1
f 194/4/1 206/5/1 196/6/1
f 256/7/1 258/8/1 259/9/1
f 228/10/1 232/11/1 217/12/1
f 232/11/1 233/13/1 230/14/1
f 197/15/1 210/16/1 208/17/1
f 245/18/1 244/19/1 255/20/1
f 260/21/1 261/22/1 259/9/1
f 195/3/1 219/23/1 206/5/1
f 258/8/1 256/7/1 248/24/1
f 208/17/1 227/25/1 214/26/1
f 230/14/1 225/27/1 216/28/1
f 198/29/1 207/30/1 197/15/1
f 254/31/1 255/20/1 235/32/1
f 195/3/1 206/5/1 194/4/1
f 195/3/1 218/33/1 219/23/1
f 247/34/1 234/35/1 246/36/1
f 261/22/1 266/37/1 263/38/1
f 209/2/1 218/33/1 195/3/1
f 233/13/1 254/31/1 235/32/1
f 206/5/1 219/23/1 212/39/1
f 238/40/1 240/41/1 237/42/1
f 210/16/1 197/15/1 207/30/1
f 240/41/1 246/36/1 236/43/1
f 212/39/1 228/10/1 217/12/1
f 197/15/1 208/17/1 201/44/1
f 250/45/1 247/34/1 246/36/1
f 260/21/1 259/9/1 258/8/1
f 219/23/1 228/10/1 212/39/1
f 205/46/1 198/29/1 199/47/1
f 232/11/1 247/34/1 248/24/1
f 243/48/1 245/18/1 241/49/1
f 244/19/1 245/18/1 243/48/1
f 265/50/1 261/22/1 260/21/1
f 266/37/1 261/22/1 265/50/1
f 207/30/1 198/29/1 205/46/1
f 248/24/1 256/7/1 254/31/1
f 248/24/1 254/31/1 233/13/1
f 217/12/1 230/14/1 216/28/1
f 235/32/1 255/20/1 244/19/1
f 232/11/1 230/14/1 217/12/1
f 216/28/1 225/27/1 210/16/1
f 214/26/1 231/51/1 223/52/1
f 237/42/1 240/41/1 236/43/1
f 234/35/1 247/34/1 232/11/1
f 232/11/1 248/24/1 233/13/1
f 214/26/1 227/25/1 231/51/1
f 210/16/1 225/27/1 227/25/1
f 236/43/1 246/36/1 234/35/1
f 262/53/1 265/50/1 260/21/1
f 221/54/1 229/55/1 215/56/1
f 245/18/1 255/20/1 252/57/1
f 218/33/1 209/2/1 229/55/1
f 215/56/1 229/55/1 209/2/1
f 210/16/1 227/25/1 208/17/1
f 194/4/1 196/6/1 192/58/1
f 118/59/2 27/60/2 85/61/2 193/62/2
f 27/60/3 28/63/3 86/64/3 85/61/3
f 25/65/4 26/66/4 84/67/4 83/68/4
f 15/69/5 16/70/5 74/71/5 73/72/5
f 16/70/6 125/73/6 200/74/6 74/71/6
f 127/75/7 15/69/7 73/72/7 202/76/7
f 28/63/8 129/77/8 204/78/8 86/64/8
f 17/79/9 18/80/9 76/81/9 75/82/9
f 24/83/10 25/65/10 83/68/10 82/84/10
f 18/80/11 19/85/11 77/86/11 76/81/11
f 13/87/12 14/88/12 72/89/12 71/90/12
f 29/91/13 30/92/13 88/93/13 87/94/13
f 19/85/14 136/95/14 211/96/14 77/86/14
f 138/97/15 24/83/15 82/84/15 213/98/15
f 12/99/16 13/87/16 71/90/16 70/100/16
f 30/92/17 31/101/17 89/102/17 88/93/17
f 20/103/18 21/104/18 79/105/18 78/106/18
f 22/107/19 23/108/19 81/109/19 80/110/19
f 21/104/20 22/107/20 80/110/20 79/105/20
f 34/111/21 145/112/21 220/113/21 92/114/21
f 31/101/22 147/115/22 222/116/22 89/102/22
f 149/117/23 12/99/23 70/100/23 224/118/23
f 151/119/24 9/120/24 67/121/24 226/122/24
f 35/123/25 36/124/25 94/125/25 93/126/25
f 33/127/26 34/111/26 92/114/26 91/128/26
f 32/129/27 33/127/27 91/128/27 90/130/27
f 7/131/28 8/132/28 66/133/28 65/134/28
f 10/135/29 11/136/29 69/137/29 68/138/29
f 9/120/30 10/135/30 68/138/30 67/121/30
f 36/124/31 37/139/31 95/140/31 94/125/31
f 6/141/32 7/131/32 65/134/32 64/142/32
f 37/139/33 38/143/33 96/144/33 95/140/33
f 5/145/34 6/141/34 64/142/34 63/146/34
f 39/147/35 40/148/35 98/149/35 97/150/35
f 40/148/36 164/151/36 239/152/36 98/149/36
f 41/153/37 42/154/37 100/155/37 99/156/37
f 167/157/38 3/158/38 61/159/38 242/160/38
f 3/158/39 4/161/39 62/162/39 61/159/39
f 1/163/40 2/164/40 60/165/40 59/166/40
f 38/143/41 39/147/41 97/150/41 96/144/41
f 4/161/42 5/145/42 63/146/42 62/162/42
f 42/154/43 43/167/43 101/168/43 100/155/43
f 45/169/44 174/170/44 249/171/44 103/172/44
f 176/173/45 45/169/45 103/172/45 251/174/45
f 43/167/46 44/175/46 102/176/46 101/168/46
f 178/177/47 1/163/47 59/166/47 253/178/47
f 56/179/48 57/180/48 115/181/48 114/182/48
f 182/183/49 56/179/49 114/182/49 257/184/49
f 46/185/50 47/186/50 105/187/50 104/188/50
f 57/180/51 58/189/51 116/190/51 115/181/51
f 54/191/52 55/192/52 113/193/52 112/194/52
f 47/186/53 48/195/53 106/196/53 105/187/53
f 53/197/54 54/191/54 112/194/54 111/198/54
f 48/195/55 49/199/55 107/200/55 106/196/55
f 189/201/56 53/197/56 111/198/56 264/202/56
f 49/199/57 50/203/57 108/204/57 107/200/57
f 51/205/58 52/206/58 110/207/58 109/208/58
f 50/203/59 51/205/59 109/208/59 108/204/59
usemtl FrontMat.001
f 128/209/60 120/210/60 134/211/60
f 119/212/60 121/213/60 131/214/60
f 181/215/60 184/216/60 183/217/60
f 153/218/60 142/219/60 157/220/60
f 157/220/60 155/221/60 158/222/60
f 122/223/60 133/224/60 135/225/60
f 170/226/60 180/227/60 169/228/60
f 185/229/60 184/216/60 186/230/60
f 120/210/60 131/214/60 144/231/60
f 183/217/60 173/232/60 181/215/60
f 133/224/60 139/233/60 152/234/60
f 155/221/60 141/235/60 150/236/60
f 123/237/60 122/223/60 132/238/60
f 179/239/60 160/240/60 180/227/60
f 120/210/60 119/212/60 131/214/60
f 120/210/60 144/231/60 143/241/60
f 172/242/60 171/243/60 159/244/60
f 186/230/60 188/245/60 191/246/60
f 134/211/60 120/210/60 143/241/60
f 158/222/60 160/240/60 179/239/60
f 131/214/60 137/247/60 144/231/60
f 163/248/60 162/249/60 165/250/60
f 135/225/60 132/238/60 122/223/60
f 165/250/60 161/251/60 171/243/60
f 137/247/60 142/219/60 153/218/60
f 122/223/60 126/252/60 133/224/60
f 175/253/60 171/243/60 172/242/60
f 185/229/60 183/217/60 184/216/60
f 144/231/60 137/247/60 153/218/60
f 130/254/60 124/255/60 123/237/60
f 157/220/60 173/232/60 172/242/60
f 168/256/60 166/257/60 170/226/60
f 169/228/60 168/256/60 170/226/60
f 190/258/60 185/229/60 186/230/60
f 191/246/60 190/258/60 186/230/60
f 132/238/60 130/254/60 123/237/60
f 173/232/60 179/239/60 181/215/60
f 173/232/60 158/222/60 179/239/60
f 142/219/60 141/235/60 155/221/60
f 160/240/60 169/228/60 180/227/60
f 157/220/60 142/219/60 155/221/60
f 141/235/60 135/225/60 150/236/60
f 139/233/60 148/259/60 156/260/60
f 162/249/60 161/251/60 165/250/60
f 159/244/60 157/220/60 172/242/60
f 157/220/60 158/222/60 173/232/60
f 139/233/60 156/260/60 152/234/60
f 135/225/60 152/234/60 150/236/60
f 161/251/60 159/244/60 171/243/60
f 187/261/60 185/229/60 190/258/60
f 146/262/60 140/263/60 154/264/60
f 170/226/60 177/265/60 180/227/60
f 143/241/60 154/264/60 134/211/60
f 140/263/60 134/211/60 154/264/60
f 135/225/60 133/224/60 152/234/60
f 119/212/60 117/266/60 121/213/60
