# Blender v2.83.1 OBJ File: 'jigsaw-30x24-3-step2.blend'
# www.blender.org
mtllib piece.695.mtl
o path1390
v -0.161884 0.037500 -0.457161
v -0.071411 0.037500 -0.476414
v -0.063896 0.037500 -0.534728
v -0.095978 0.037500 -0.612115
v -0.104237 0.037500 -0.680777
v -0.045492 0.037500 -0.717774
v 0.042475 0.037500 -0.719586
v 0.101646 0.037500 -0.687550
v 0.093880 0.037500 -0.626717
v 0.060562 0.037500 -0.557018
v 0.062960 0.037500 -0.502104
v 0.143284 0.037500 -0.479213
v 0.475899 0.037500 -0.498482
v 0.453991 0.037500 -0.186325
v 0.473093 0.037500 -0.113209
v 0.521952 0.037500 -0.114847
v 0.586004 0.037500 -0.147155
v 0.645004 0.037500 -0.147089
v 0.680939 0.037500 -0.072997
v 0.684748 0.037500 0.031209
v 0.649612 0.037500 0.100220
v 0.575512 0.037500 0.091242
v 0.489819 0.037500 0.051526
v 0.426729 0.037500 0.050836
v 0.410753 0.037500 0.137461
v 0.475899 0.037500 0.503427
v 0.271784 0.037500 0.480200
v 0.149670 0.037500 0.477355
v 0.070013 0.037500 0.500417
v 0.065767 0.037500 0.558785
v 0.095228 0.037500 0.632792
v 0.098028 0.037500 0.695502
v 0.033516 0.037500 0.724727
v -0.060112 0.037500 0.717259
v -0.124939 0.037500 0.674638
v -0.122858 0.037500 0.602725
v -0.094984 0.037500 0.524662
v -0.102240 0.037500 0.467912
v -0.186556 0.037500 0.451981
v -0.525799 0.037500 0.503427
v -0.525799 0.037500 -0.498482
v -0.161884 -0.037500 -0.457161
v -0.071411 -0.037500 -0.476414
v -0.063896 -0.037500 -0.534728
v -0.095978 -0.037498 -0.612115
v -0.104237 -0.037500 -0.680777
v -0.045492 -0.037500 -0.717774
v 0.042475 -0.037500 -0.719586
v 0.101646 -0.037500 -0.687550
v 0.093880 -0.037500 -0.626717
v 0.060562 -0.037500 -0.557018
v 0.062960 -0.037500 -0.502104
v 0.143284 -0.037500 -0.479213
v 0.475899 -0.037500 -0.498482
v 0.453991 -0.037498 -0.186325
v 0.473093 -0.037500 -0.113209
v 0.521952 -0.037500 -0.114847
v 0.586004 -0.037498 -0.147155
v 0.645004 -0.037500 -0.147089
v 0.680939 -0.037500 -0.072997
v 0.684748 -0.037500 0.031209
v 0.649612 -0.037500 0.100220
v 0.575512 -0.037500 0.091242
v 0.489819 -0.037500 0.051526
v 0.426729 -0.037500 0.050836
v 0.410753 -0.037500 0.137461
v 0.475899 -0.037500 0.503427
v 0.271784 -0.037500 0.480200
v 0.149670 -0.037500 0.477355
v 0.070013 -0.037500 0.500417
v 0.065767 -0.037500 0.558785
v 0.095228 -0.037500 0.632792
v 0.098028 -0.037498 0.695502
v 0.033516 -0.037500 0.724727
v -0.060112 -0.037500 0.717259
v -0.124939 -0.037500 0.674638
v -0.122858 -0.037500 0.602725
v -0.094984 -0.037500 0.524662
v -0.102240 -0.037498 0.467912
v -0.186556 -0.037500 0.451981
v -0.525799 -0.037500 0.503427
v -0.525799 -0.037500 -0.498482
v 0.680939 0.037500 -0.072997
v 0.684748 0.037500 0.031209
v 0.649612 0.037500 0.100220
v 0.649612 0.037500 0.100220
v 0.645004 0.037500 -0.147089
v 0.645004 0.037500 -0.147089
v 0.575512 0.037500 0.091242
v 0.586004 0.037500 -0.147155
v 0.521952 0.037500 -0.114847
v 0.489819 0.037500 0.051526
v 0.473093 0.037500 -0.113209
v 0.473093 0.037500 -0.113209
v 0.426729 0.037500 0.050836
v 0.426729 0.037500 0.050836
v 0.453991 0.037500 -0.186325
v 0.475899 0.037500 -0.498482
v 0.475899 0.037500 -0.498482
v 0.410753 0.037500 0.137461
v 0.475899 0.037500 0.503427
v 0.475899 0.037500 0.503427
v 0.271784 0.037500 0.480200
v 0.149670 0.037500 0.477355
v 0.143284 0.037500 -0.479213
v 0.070013 0.037500 0.500417
v 0.070013 0.037500 0.500417
v 0.062960 0.037500 -0.502104
v 0.062960 0.037500 -0.502104
v 0.042475 0.037500 -0.719586
v 0.101646 0.037500 -0.687550
v 0.101646 0.037500 -0.687550
v 0.093880 0.037500 -0.626717
v 0.095228 0.037500 0.632792
v 0.098028 0.037500 0.695502
v 0.098028 0.037500 0.695502
v 0.033516 0.037500 0.724727
v 0.065767 0.037500 0.558785
v 0.060562 0.037500 -0.557018
v -0.045492 0.037500 -0.717774
v -0.060112 0.037500 0.717259
v -0.104237 0.037500 -0.680777
v -0.104237 0.037500 -0.680777
v -0.124939 0.037500 0.674638
v -0.095978 0.037500 -0.612115
v -0.063896 0.037500 -0.534728
v -0.071411 0.037500 -0.476414
v -0.071411 0.037500 -0.476414
v -0.161884 0.037500 -0.457161
v -0.094984 0.037500 0.524662
v -0.102240 0.037500 0.467912
v -0.102240 0.037500 0.467912
v -0.122858 0.037500 0.602725
v -0.186556 0.037500 0.451981
v -0.525799 0.037500 -0.498482
v -0.525799 0.037500 -0.498482
v -0.525799 0.037500 0.503427
v -0.525799 0.037500 0.503427
v 0.680939 -0.037500 -0.072997
v 0.684748 -0.037500 0.031209
v 0.649612 -0.037500 0.100220
v 0.649612 -0.037500 0.100220
v 0.645004 -0.037500 -0.147089
v 0.645004 -0.037500 -0.147089
v 0.575512 -0.037500 0.091242
v 0.586004 -0.037498 -0.147155
v 0.521952 -0.037500 -0.114847
v 0.489819 -0.037500 0.051526
v 0.473093 -0.037500 -0.113209
v 0.473093 -0.037500 -0.113209
v 0.426729 -0.037500 0.050836
v 0.426729 -0.037500 0.050836
v 0.453991 -0.037498 -0.186325
v 0.475899 -0.037500 -0.498482
v 0.475899 -0.037500 -0.498482
v 0.410753 -0.037500 0.137461
v 0.475899 -0.037500 0.503427
v 0.475899 -0.037500 0.503427
v 0.271784 -0.037500 0.480200
v 0.149670 -0.037500 0.477355
v 0.143284 -0.037500 -0.479213
v 0.070013 -0.037500 0.500417
v 0.070013 -0.037500 0.500417
v 0.062960 -0.037500 -0.502104
v 0.062960 -0.037500 -0.502104
v 0.042475 -0.037500 -0.719586
v 0.101646 -0.037500 -0.687550
v 0.101646 -0.037500 -0.687550
v 0.093880 -0.037500 -0.626717
v 0.095228 -0.037500 0.632792
v 0.098028 -0.037498 0.695502
v 0.098028 -0.037498 0.695502
v 0.033516 -0.037500 0.724727
v 0.065767 -0.037500 0.558785
v 0.060562 -0.037500 -0.557018
v -0.045492 -0.037500 -0.717774
v -0.060112 -0.037500 0.717259
v -0.104237 -0.037500 -0.680777
v -0.104237 -0.037500 -0.680777
v -0.124939 -0.037500 0.674638
v -0.095978 -0.037498 -0.612115
v -0.063896 -0.037500 -0.534728
v -0.071411 -0.037500 -0.476414
v -0.071411 -0.037500 -0.476414
v -0.161884 -0.037500 -0.457161
v -0.094984 -0.037500 0.524662
v -0.102240 -0.037498 0.467912
v -0.102240 -0.037498 0.467912
v -0.122858 -0.037500 0.602725
v -0.186556 -0.037500 0.451981
v -0.525799 -0.037500 -0.498482
v -0.525799 -0.037500 -0.498482
v -0.525799 -0.037500 0.503427
v -0.525799 -0.037500 0.503427
vt 0.500000 0.500000
vt 0.500000 0.500000
vt 0.500000 0.500000
vt 0.500000 0.500000
vt 0.500000 0.500000
vt 0.500000 0.500000
vt 0.500000 0.500000
vt 0.500000 0.500000
vt 0.500000 0.500000
vt 0.500000 0.500000
vt 0.500000 0.500000
vt 0.500000 0.500000
vt 0.500000 0.500000
vt 0.500000 0.500000
vt 0.500000 0.500000
vt 0.500000 0.500000
vt 0.500000 0.500000
vt 0.500000 0.500000
vt 0.500000 0.500000
vt 0.500000 0.500000
vt 0.500000 0.500000
vt 0.500000 0.500000
vt 0.500000 0.500000
vt 0.500000 0.500000
vt 0.500000 0.500000
vt 0.500000 0.500000
vt 0.500000 0.500000
vt 0.500000 0.500000
vt 0.500000 0.500000
vt 0.500000 0.500000
vt 0.500000 0.500000
vt 0.500000 0.500000
vt 0.500000 0.500000
vt 0.500000 0.500000
vt 0.500000 0.500000
vt 0.500000 0.500000
vt 0.500000 0.500000
vt 0.500000 0.500000
vt 0.500000 0.500000
vt 0.500000 0.500000
vt 0.500000 0.500000
vt 0.500000 0.500000
vt 0.500000 0.500000
vt 0.500000 0.500000
vt 0.500000 0.500000
vt 0.500000 0.500000
vt 0.500000 0.500000
vt 0.500000 0.500000
vt 0.500000 0.500000
vt 0.500000 0.500000
vt 0.500000 0.500000
vt 0.500000 0.500000
vt 0.500000 0.500000
vt 0.500000 0.500000
vt 0.500000 0.500000
vt 0.500000 0.500000
vt 0.500000 0.500000
vt 0.500000 0.500000
vt 0.500000 0.500000
vt 0.500000 0.500000
vt 0.500000 0.500000
vt 0.500000 0.500000
vt 0.500000 0.500000
vt 0.500000 0.500000
vt 0.500000 0.500000
vt 0.500000 0.500000
vt 0.500000 0.500000
vt 0.500000 0.500000
vt 0.500000 0.500000
vt 0.500000 0.500000
vt 0.500000 0.500000
vt 0.500000 0.500000
vt 0.500000 0.500000
vt 0.500000 0.500000
vt 0.500000 0.500000
vt 0.500000 0.500000
vt 0.500000 0.500000
vt 0.500000 0.500000
vt 0.500000 0.500000
vt 0.500000 0.500000
vt 0.500000 0.500000
vt 0.500000 0.500000
vt 0.500000 0.500000
vt 0.500000 0.500000
vt 0.500000 0.500000
vt 0.500000 0.500000
vt 0.500000 0.500000
vt 0.500000 0.500000
vt 0.500000 0.500000
vt 0.500000 0.500000
vt 0.500000 0.500000
vt 0.500000 0.500000
vt 0.500000 0.500000
vt 0.500000 0.500000
vt 0.500000 0.500000
vt 0.500000 0.500000
vt 0.500000 0.500000
vt 0.500000 0.500000
vt 0.500000 0.500000
vt 0.500000 0.500000
vt 0.500000 0.500000
vt 0.500000 0.500000
vt 0.500000 0.500000
vt 0.500000 0.500000
vt 0.500000 0.500000
vt 0.500000 0.500000
vt 0.500000 0.500000
vt 0.500000 0.500000
vt 0.500000 0.500000
vt 0.500000 0.500000
vt 0.500000 0.500000
vt 0.500000 0.500000
vt 0.500000 0.500000
vt 0.500000 0.500000
vt 0.500000 0.500000
vt 0.500000 0.500000
vt 0.500000 0.500000
vt 0.500000 0.500000
vt 0.500000 0.500000
vt 0.500000 0.500000
vt 0.500000 0.500000
vt 0.500000 0.500000
vt 0.500000 0.500000
vt 0.500000 0.500000
vt 0.500000 0.500000
vt 0.500000 0.500000
vt 0.500000 0.500000
vt 0.500000 0.500000
vt 0.500000 0.500000
vt 0.500000 0.500000
vt 0.500000 0.500000
vt 0.500000 0.500000
vt 0.500000 0.500000
vt 0.500000 0.500000
vt 0.500000 0.500000
vt 0.500000 0.500000
vt 0.500000 0.500000
vt 0.500000 0.500000
vt 0.500000 0.500000
vt 0.500000 0.500000
vt 0.500000 0.500000
vt 0.500000 0.500000
vt 0.500000 0.500000
vt 0.500000 0.500000
vt 0.500000 0.500000
vt 0.500000 0.500000
vt 0.500000 0.500000
vt 0.500000 0.500000
vt 0.500000 0.500000
vt 0.500000 0.500000
vt 0.500000 0.500000
vt 0.500000 0.500000
vt 0.500000 0.500000
vt 0.132127 0.019213
vt 0.134068 0.018901
vt 0.133213 0.024490
vt 0.143719 0.040755
vt 0.133974 0.027831
vt 0.151609 0.039621
vt 0.169970 0.016761
vt 0.172363 0.016674
vt 0.173781 0.019371
vt 0.127043 0.026099
vt 0.125977 0.023638
vt 0.129067 0.025776
vt 0.165894 0.033176
vt 0.154491 0.038957
vt 0.165799 0.028097
vt 0.170971 0.025832
vt 0.168508 0.024607
vt 0.126038 0.019979
vt 0.129553 0.017879
vt 0.165485 0.017618
vt 0.166567 0.024783
vt 0.134708 0.015137
vt 0.131386 0.024390
vt 0.151632 0.042246
vt 0.152953 0.045810
vt 0.146097 0.043582
vt 0.145024 0.048701
vt 0.145022 0.046247
vt 0.147489 0.050195
vt 0.153252 0.048892
vt 0.150956 0.050354
vt 0.174029 0.023265
vt 0.146151 0.041550
vt 0.133333 0.000000
vt 0.166667 0.000000
vt 0.164955 0.014111
vt 0.167373 0.017920
vt 0.173057 0.025949
vt 0.133333 0.041667
vt 0.127268 0.017535
vt 0.166667 0.041667
vn 0.0000 -1.0000 0.0000
vn -0.0001 -1.0000 -0.0000
vn 0.0001 -1.0000 0.0000
vn 0.9993 0.0000 -0.0365
vn 0.8912 0.0000 0.4537
vn 0.8998 0.0000 -0.4364
vn -0.1203 0.0000 0.9927
vn 0.0011 0.0000 -1.0000
vn -0.4504 0.0000 -0.8929
vn -0.4205 0.0000 0.9073
vn -0.0335 0.0000 -0.9994
vn -0.0109 0.0000 0.9999
vn 0.9675 0.0000 -0.2528
vn 0.9975 0.0000 0.0700
vn 0.9845 0.0000 -0.1753
vn 0.9834 0.0000 0.1814
vn -0.1131 0.0000 0.9936
vn -0.0233 0.0000 0.9997
vn -0.0578 0.0000 -0.9983
vn 0.2781 0.0000 0.9606
vn 0.2741 0.0000 -0.9617
vn 0.4761 0.0000 -0.8794
vn 0.9919 0.0000 0.1266
vn 0.9990 0.0000 -0.0446
vn 0.4126 0.0000 0.9109
vn 0.9291 0.0000 -0.3699
vn 0.9022 0.0000 0.4313
vn 0.9974 0.0000 0.0725
vn 0.9990 0.0000 -0.0436
vn -0.0206 0.0000 -0.9998
vn -0.0795 0.0000 0.9968
vn -0.5329 0.0000 -0.8462
vn -0.5494 0.0000 0.8356
vn -0.9928 0.0000 0.1194
vn -0.9238 0.0000 0.3830
vn -0.9918 0.0000 -0.1278
vn -0.2081 0.0000 -0.9781
vn -0.9919 0.0000 0.1268
vn -0.9418 0.0000 -0.3363
vn -0.9996 0.0000 -0.0289
vn -0.1857 0.0000 0.9826
vn 0.1128 0.0000 -0.9936
vn -1.0000 0.0000 0.0000
vn 0.1499 0.0000 0.9887
vn 0.0000 1.0000 0.0000
usemtl BackMat.001
s off
f 182/1/1 164/2/1 183/3/1
f 153/4/1 151/5/1 161/6/1
f 189/7/1 177/8/1 180/9/1
f 167/10/1 169/11/1 166/12/1
f 159/13/1 160/14/1 156/15/1
f 170/16/1 177/8/1 174/17/1
f 176/18/1 169/11/1 181/19/1
f 187/20/1 160/14/1 162/21/1
f 183/3/1 151/5/1 185/22/1
f 164/2/1 161/6/1 183/3/1
f 175/23/1 181/19/1 169/11/1
f 148/24/1 147/25/1 145/26/1
f 143/27/1 139/28/1 146/29/1
f 141/30/1 145/26/1 140/31/1
f 145/26/1 147/25/1 139/28/1
f 177/8/1 170/16/1 173/32/1
f 181/19/1 175/23/1 182/1/1
f 183/3/1 161/6/1 151/5/1
f 182/1/1 175/23/1 164/2/1
f 149/33/2 151/5/2 153/4/2
f 166/12/1 169/11/1 176/18/1
f 151/5/1 149/33/1 148/24/1
f 191/34/1 190/35/1 193/36/1
f 146/29/1 139/28/1 147/25/1
f 140/31/1 145/26/1 139/28/1
f 185/22/1 187/20/1 190/35/1
f 189/7/1 174/17/1 177/8/1
f 186/37/1 162/21/1 174/17/1
f 185/22/1 190/35/1 191/34/1
f 187/20/1 156/15/1 160/14/1
f 173/32/3 170/16/3 171/38/3
f 151/5/1 156/15/1 187/20/1
f 186/37/1 174/17/1 189/7/1
f 187/20/1 162/21/1 186/37/1
f 153/4/1 161/6/1 154/39/1
f 147/25/1 148/24/1 149/33/1
f 178/40/1 176/18/1 181/19/1
f 185/22/1 151/5/1 187/20/1
f 159/13/1 156/15/1 157/41/1
f 19/42/4 20/43/4 61/44/4 60/45/4
f 20/43/5 86/46/5 142/47/5 61/44/5
f 88/48/6 19/42/6 60/45/6 144/49/6
f 21/50/7 22/51/7 63/52/7 62/53/7
f 17/54/8 18/55/8 59/56/8 58/57/8
f 16/58/9 17/54/9 58/57/9 57/59/9
f 22/51/10 23/60/10 64/61/10 63/52/10
f 94/62/11 16/58/11 57/59/11 150/63/11
f 23/60/12 96/64/12 152/65/12 64/61/12
f 14/66/13 15/67/13 56/68/13 55/69/13
f 99/70/14 14/66/14 55/69/14 155/71/14
f 25/72/15 102/73/15 158/74/15 66/75/15
f 24/76/16 25/72/16 66/75/16 65/77/16
f 26/78/17 27/79/17 68/80/17 67/81/17
f 27/79/18 28/82/18 69/83/18 68/80/18
f 12/84/19 13/85/19 54/86/19 53/87/19
f 28/82/20 107/88/20 163/89/20 69/83/20
f 109/90/21 12/84/21 53/87/21 165/91/21
f 7/92/22 112/93/22 168/94/22 48/95/22
f 8/96/23 9/97/23 50/98/23 49/99/23
f 31/100/24 116/101/24 172/102/24 72/103/24
f 32/104/25 33/105/25 74/106/25 73/107/25
f 30/108/26 31/100/26 72/103/26 71/109/26
f 9/97/27 10/110/27 51/111/27 50/98/27
f 29/112/28 30/108/28 71/109/28 70/113/28
f 10/110/29 11/114/29 52/115/29 51/111/29
f 6/116/30 7/92/30 48/95/30 47/117/30
f 33/105/31 34/118/31 75/119/31 74/106/31
f 123/120/32 6/116/32 47/117/32 179/121/32
f 34/118/33 35/122/33 76/123/33 75/119/33
f 4/124/34 5/125/34 46/126/34 45/127/34
f 3/128/35 4/124/35 45/127/35 44/129/35
f 128/130/36 3/128/36 44/129/36 184/131/36
f 1/132/37 2/133/37 43/134/37 42/135/37
f 37/136/38 132/137/38 188/138/38 78/139/38
f 36/140/39 37/136/39 78/139/39 77/141/39
f 35/122/40 36/140/40 77/141/40 76/123/40
f 38/142/41 39/143/41 80/144/41 79/145/41
f 136/146/42 1/132/42 42/135/42 192/147/42
f 138/148/43 41/149/43 82/150/43 194/151/43
f 39/143/44 40/152/44 81/153/44 80/144/44
usemtl FrontMat.001
f 126/154/45 127/155/45 108/156/45
f 97/157/45 105/158/45 95/159/45
f 133/160/45 124/161/45 121/162/45
f 111/163/45 110/164/45 113/165/45
f 103/166/45 100/167/45 104/168/45
f 114/169/45 118/170/45 121/162/45
f 120/171/45 125/172/45 113/165/45
f 131/173/45 106/174/45 104/168/45
f 127/155/45 129/175/45 95/159/45
f 108/156/45 127/155/45 105/158/45
f 119/176/45 113/165/45 125/172/45
f 92/177/45 89/178/45 91/179/45
f 87/180/45 90/181/45 83/182/45
f 85/183/45 84/184/45 89/178/45
f 89/178/45 83/182/45 91/179/45
f 121/162/45 117/185/45 114/169/45
f 125/172/45 126/154/45 119/176/45
f 127/155/45 95/159/45 105/158/45
f 126/154/45 108/156/45 119/176/45
f 93/186/45 97/157/45 95/159/45
f 110/164/45 120/171/45 113/165/45
f 95/159/45 92/177/45 93/186/45
f 135/187/45 137/188/45 134/189/45
f 90/181/45 91/179/45 83/182/45
f 84/184/45 83/182/45 89/178/45
f 129/175/45 134/189/45 131/173/45
f 133/160/45 121/162/45 118/170/45
f 130/190/45 118/170/45 106/174/45
f 129/175/45 135/187/45 134/189/45
f 131/173/45 104/168/45 100/167/45
f 117/185/45 115/191/45 114/169/45
f 95/159/45 131/173/45 100/167/45
f 130/190/45 133/160/45 118/170/45
f 131/173/45 130/190/45 106/174/45
f 97/157/45 98/192/45 105/158/45
f 91/179/45 93/186/45 92/177/45
f 122/193/45 125/172/45 120/171/45
f 129/175/45 131/173/45 95/159/45
f 103/166/45 101/194/45 100/167/45
