# Blender v2.83.1 OBJ File: 'jigsaw-30x24-3-step2.blend'
# www.blender.org
mtllib piece.388.mtl
o path776
v 0.332776 0.037500 0.557264
v 0.218397 0.037500 0.558155
v 0.145108 0.037500 0.531946
v 0.143826 0.037500 0.469160
v 0.172461 0.037500 0.390429
v 0.170672 0.037500 0.323921
v 0.098491 0.037500 0.292656
v -0.002586 0.037500 0.299040
v -0.070698 0.037500 0.340332
v -0.065313 0.037500 0.410034
v -0.031198 0.037500 0.486635
v -0.034447 0.037500 0.544874
v -0.120709 0.037500 0.566578
v -0.476748 0.037500 0.535908
v -0.442939 0.037500 0.169895
v -0.460331 0.037500 0.079638
v -0.511920 0.037500 0.073488
v -0.583837 0.037500 0.107075
v -0.656140 0.037500 0.115646
v -0.709990 0.037500 0.055006
v -0.730933 0.037500 -0.036821
v -0.705625 0.037500 -0.101254
v -0.629551 0.037500 -0.099327
v -0.533578 0.037500 -0.070539
v -0.457405 0.037500 -0.074003
v -0.430142 0.037500 -0.150641
v -0.438529 0.037500 -0.268599
v -0.476747 0.037500 -0.466002
v -0.263074 0.037500 -0.443110
v -0.135086 0.037500 -0.441391
v -0.051249 0.037500 -0.467264
v -0.045848 0.037500 -0.530733
v -0.074771 0.037500 -0.611883
v -0.074298 0.037500 -0.683325
v -0.001848 0.037500 -0.721684
v 0.100676 0.037500 -0.719643
v 0.170240 0.037500 -0.673908
v 0.165099 0.037500 -0.587812
v 0.128637 0.037500 -0.491003
v 0.125525 0.037500 -0.419743
v 0.200836 0.037500 -0.399958
v 0.321257 0.037500 -0.416233
v 0.524950 0.037500 -0.466001
v 0.565988 0.037500 -0.271130
v 0.577284 0.037500 -0.154081
v 0.554761 0.037500 -0.076660
v 0.484461 0.037500 -0.070005
v 0.389916 0.037500 -0.094538
v 0.304030 0.037500 -0.093008
v 0.254699 0.037500 -0.027126
v 0.249786 0.037500 0.065529
v 0.292150 0.037500 0.128401
v 0.378023 0.037500 0.124592
v 0.477138 0.037500 0.095831
v 0.552597 0.037500 0.103491
v 0.577747 0.037500 0.189722
v 0.566920 0.037500 0.319704
v 0.524950 0.037500 0.535908
v 0.332776 -0.037500 0.557264
v 0.218397 -0.037500 0.558155
v 0.145108 -0.037500 0.531946
v 0.143826 -0.037500 0.469160
v 0.172461 -0.037500 0.390429
v 0.170672 -0.037500 0.323921
v 0.098491 -0.037500 0.292656
v -0.002586 -0.037500 0.299040
v -0.070698 -0.037500 0.340332
v -0.065313 -0.037500 0.410034
v -0.031198 -0.037500 0.486635
v -0.034447 -0.037500 0.544874
v -0.120709 -0.037500 0.566578
v -0.476748 -0.037500 0.535908
v -0.442939 -0.037500 0.169895
v -0.460331 -0.037498 0.079638
v -0.511920 -0.037498 0.073488
v -0.583837 -0.037500 0.107075
v -0.656140 -0.037500 0.115646
v -0.709990 -0.037500 0.055006
v -0.730933 -0.037500 -0.036821
v -0.705625 -0.037500 -0.101254
v -0.629551 -0.037500 -0.099327
v -0.533578 -0.037498 -0.070539
v -0.457405 -0.037500 -0.074003
v -0.430142 -0.037498 -0.150641
v -0.438529 -0.037500 -0.268599
v -0.476747 -0.037500 -0.466002
v -0.263074 -0.037500 -0.443110
v -0.135086 -0.037500 -0.441391
v -0.051249 -0.037500 -0.467264
v -0.045848 -0.037500 -0.530733
v -0.074771 -0.037500 -0.611883
v -0.074298 -0.037500 -0.683325
v -0.001848 -0.037500 -0.721684
v 0.100676 -0.037500 -0.719643
v 0.170240 -0.037500 -0.673908
v 0.165099 -0.037500 -0.587812
v 0.128637 -0.037500 -0.491003
v 0.125525 -0.037498 -0.419743
v 0.200836 -0.037500 -0.399958
v 0.321257 -0.037500 -0.416233
v 0.524950 -0.037500 -0.466001
v 0.565988 -0.037500 -0.271130
v 0.577284 -0.037500 -0.154081
v 0.554761 -0.037498 -0.076660
v 0.484461 -0.037500 -0.070005
v 0.389916 -0.037500 -0.094538
v 0.304030 -0.037500 -0.093008
v 0.254699 -0.037500 -0.027126
v 0.249786 -0.037500 0.065529
v 0.292150 -0.037500 0.128401
v 0.378023 -0.037500 0.124592
v 0.477138 -0.037500 0.095831
v 0.552597 -0.037500 0.103491
v 0.577747 -0.037500 0.189722
v 0.566920 -0.037500 0.319704
v 0.524950 -0.037500 0.535908
v 0.552597 0.037500 0.103491
v 0.552597 0.037500 0.103491
v 0.577747 0.037500 0.189722
v 0.566920 0.037500 0.319704
v 0.565988 0.037500 -0.271130
v 0.577284 0.037500 -0.154081
v 0.554761 0.037500 -0.076660
v 0.554761 0.037500 -0.076660
v 0.484461 0.037500 -0.070005
v 0.477138 0.037500 0.095831
v 0.524950 0.037500 -0.466001
v 0.524950 0.037500 -0.466001
v 0.524950 0.037500 0.535908
v 0.524950 0.037500 0.535908
v 0.389916 0.037500 -0.094538
v 0.378023 0.037500 0.124592
v 0.332776 0.037500 0.557264
v 0.321257 0.037500 -0.416233
v 0.304030 0.037500 -0.093008
v 0.292150 0.037500 0.128401
v 0.218397 0.037500 0.558155
v 0.200836 0.037500 -0.399958
v 0.254699 0.037500 -0.027126
v 0.249786 0.037500 0.065529
v 0.145108 0.037500 0.531946
v 0.145108 0.037500 0.531946
v 0.125525 0.037500 -0.419743
v 0.125525 0.037500 -0.419743
v 0.172461 0.037500 0.390429
v 0.170672 0.037500 0.323921
v 0.170672 0.037500 0.323921
v 0.143826 0.037500 0.469160
v 0.098491 0.037500 0.292656
v 0.100676 0.037500 -0.719643
v 0.170240 0.037500 -0.673908
v 0.165099 0.037500 -0.587812
v 0.128637 0.037500 -0.491003
v -0.001848 0.037500 -0.721684
v -0.002586 0.037500 0.299040
v -0.074298 0.037500 -0.683325
v -0.074298 0.037500 -0.683325
v -0.070698 0.037500 0.340332
v -0.070698 0.037500 0.340332
v -0.065313 0.037500 0.410034
v -0.031198 0.037500 0.486635
v -0.034447 0.037500 0.544874
v -0.034447 0.037500 0.544874
v -0.120709 0.037500 0.566578
v -0.074771 0.037500 -0.611883
v -0.045848 0.037500 -0.530733
v -0.051249 0.037500 -0.467264
v -0.051249 0.037500 -0.467264
v -0.135086 0.037500 -0.441391
v -0.263074 0.037500 -0.443110
v -0.476747 0.037500 -0.466002
v -0.476747 0.037500 -0.466002
v -0.438529 0.037500 -0.268599
v -0.430142 0.037500 -0.150641
v -0.457405 0.037500 -0.074003
v -0.457405 0.037500 -0.074003
v -0.442939 0.037500 0.169895
v -0.460331 0.037500 0.079638
v -0.460331 0.037500 0.079638
v -0.476748 0.037500 0.535908
v -0.476748 0.037500 0.535908
v -0.533578 0.037500 -0.070539
v -0.511920 0.037500 0.073488
v -0.583837 0.037500 0.107075
v -0.629551 0.037500 -0.099327
v -0.656140 0.037500 0.115646
v -0.705625 0.037500 -0.101254
v -0.705625 0.037500 -0.101254
v -0.709990 0.037500 0.055006
v -0.730933 0.037500 -0.036821
v 0.552597 -0.037500 0.103491
v 0.552597 -0.037500 0.103491
v 0.577747 -0.037500 0.189722
v 0.566920 -0.037500 0.319704
v 0.565988 -0.037500 -0.271130
v 0.577284 -0.037500 -0.154081
v 0.554761 -0.037498 -0.076660
v 0.554761 -0.037498 -0.076660
v 0.484461 -0.037500 -0.070005
v 0.477138 -0.037500 0.095831
v 0.524950 -0.037500 -0.466001
v 0.524950 -0.037500 -0.466001
v 0.524950 -0.037500 0.535908
v 0.524950 -0.037500 0.535908
v 0.389916 -0.037500 -0.094538
v 0.378023 -0.037500 0.124592
v 0.332776 -0.037500 0.557264
v 0.321257 -0.037500 -0.416233
v 0.304030 -0.037500 -0.093008
v 0.292150 -0.037500 0.128401
v 0.218397 -0.037500 0.558155
v 0.200836 -0.037500 -0.399958
v 0.254699 -0.037500 -0.027126
v 0.249786 -0.037500 0.065529
v 0.145108 -0.037500 0.531946
v 0.145108 -0.037500 0.531946
v 0.125525 -0.037498 -0.419743
v 0.125525 -0.037498 -0.419743
v 0.172461 -0.037500 0.390429
v 0.170672 -0.037500 0.323921
v 0.170672 -0.037500 0.323921
v 0.143826 -0.037500 0.469160
v 0.098491 -0.037500 0.292656
v 0.100676 -0.037500 -0.719643
v 0.170240 -0.037500 -0.673908
v 0.165099 -0.037500 -0.587812
v 0.128637 -0.037500 -0.491003
v -0.001848 -0.037500 -0.721684
v -0.002586 -0.037500 0.299040
v -0.074298 -0.037500 -0.683325
v -0.074298 -0.037500 -0.683325
v -0.070698 -0.037500 0.340332
v -0.070698 -0.037500 0.340332
v -0.065313 -0.037500 0.410034
v -0.031198 -0.037500 0.486635
v -0.034447 -0.037500 0.544874
v -0.034447 -0.037500 0.544874
v -0.120709 -0.037500 0.566578
v -0.074771 -0.037500 -0.611883
v -0.045848 -0.037500 -0.530733
v -0.051249 -0.037500 -0.467264
v -0.051249 -0.037500 -0.467264
v -0.135086 -0.037500 -0.441391
v -0.263074 -0.037500 -0.443110
v -0.476747 -0.037500 -0.466002
v -0.476747 -0.037500 -0.466002
v -0.438529 -0.037500 -0.268599
v -0.430142 -0.037498 -0.150641
v -0.457405 -0.037500 -0.074003
v -0.457405 -0.037500 -0.074003
v -0.442939 -0.037500 0.169895
v -0.460331 -0.037498 0.079638
v -0.460331 -0.037498 0.079638
v -0.476748 -0.037500 0.535908
v -0.476748 -0.037500 0.535908
v -0.533578 -0.037498 -0.070539
v -0.511920 -0.037498 0.073488
v -0.583837 -0.037500 0.107075
v -0.629551 -0.037500 -0.099327
v -0.656140 -0.037500 0.115646
v -0.705625 -0.037500 -0.101254
v -0.705625 -0.037500 -0.101254
v -0.709990 -0.037500 0.055006
v -0.730933 -0.037500 -0.036821
vt 0.500000 0.500000
vt 0.500000 0.500000
vt 0.500000 0.500000
vt 0.500000 0.500000
vt 0.500000 0.500000
vt 0.500000 0.500000
vt 0.500000 0.500000
vt 0.500000 0.500000
vt 0.500000 0.500000
vt 0.500000 0.500000
vt 0.500000 0.500000
vt 0.500000 0.500000
vt 0.500000 0.500000
vt 0.500000 0.500000
vt 0.500000 0.500000
vt 0.500000 0.500000
vt 0.500000 0.500000
vt 0.500000 0.500000
vt 0.500000 0.500000
vt 0.500000 0.500000
vt 0.500000 0.500000
vt 0.500000 0.500000
vt 0.500000 0.500000
vt 0.500000 0.500000
vt 0.500000 0.500000
vt 0.500000 0.500000
vt 0.500000 0.500000
vt 0.500000 0.500000
vt 0.500000 0.500000
vt 0.500000 0.500000
vt 0.500000 0.500000
vt 0.500000 0.500000
vt 0.500000 0.500000
vt 0.500000 0.500000
vt 0.500000 0.500000
vt 0.500000 0.500000
vt 0.500000 0.500000
vt 0.500000 0.500000
vt 0.500000 0.500000
vt 0.500000 0.500000
vt 0.500000 0.500000
vt 0.500000 0.500000
vt 0.500000 0.500000
vt 0.500000 0.500000
vt 0.500000 0.500000
vt 0.500000 0.500000
vt 0.500000 0.500000
vt 0.500000 0.500000
vt 0.500000 0.500000
vt 0.500000 0.500000
vt 0.500000 0.500000
vt 0.500000 0.500000
vt 0.500000 0.500000
vt 0.500000 0.500000
vt 0.500000 0.500000
vt 0.500000 0.500000
vt 0.500000 0.500000
vt 0.500000 0.500000
vt 0.500000 0.500000
vt 0.500000 0.500000
vt 0.500000 0.500000
vt 0.500000 0.500000
vt 0.500000 0.500000
vt 0.500000 0.500000
vt 0.500000 0.500000
vt 0.500000 0.500000
vt 0.500000 0.500000
vt 0.500000 0.500000
vt 0.500000 0.500000
vt 0.500000 0.500000
vt 0.500000 0.500000
vt 0.500000 0.500000
vt 0.500000 0.500000
vt 0.500000 0.500000
vt 0.500000 0.500000
vt 0.500000 0.500000
vt 0.500000 0.500000
vt 0.500000 0.500000
vt 0.500000 0.500000
vt 0.500000 0.500000
vt 0.500000 0.500000
vt 0.500000 0.500000
vt 0.500000 0.500000
vt 0.500000 0.500000
vt 0.500000 0.500000
vt 0.500000 0.500000
vt 0.500000 0.500000
vt 0.500000 0.500000
vt 0.500000 0.500000
vt 0.500000 0.500000
vt 0.500000 0.500000
vt 0.500000 0.500000
vt 0.500000 0.500000
vt 0.500000 0.500000
vt 0.500000 0.500000
vt 0.500000 0.500000
vt 0.500000 0.500000
vt 0.500000 0.500000
vt 0.500000 0.500000
vt 0.500000 0.500000
vt 0.500000 0.500000
vt 0.500000 0.500000
vt 0.500000 0.500000
vt 0.500000 0.500000
vt 0.500000 0.500000
vt 0.500000 0.500000
vt 0.500000 0.500000
vt 0.500000 0.500000
vt 0.500000 0.500000
vt 0.500000 0.500000
vt 0.500000 0.500000
vt 0.500000 0.500000
vt 0.500000 0.500000
vt 0.500000 0.500000
vt 0.500000 0.500000
vt 0.500000 0.500000
vt 0.500000 0.500000
vt 0.500000 0.500000
vt 0.500000 0.500000
vt 0.500000 0.500000
vt 0.500000 0.500000
vt 0.500000 0.500000
vt 0.500000 0.500000
vt 0.500000 0.500000
vt 0.500000 0.500000
vt 0.500000 0.500000
vt 0.500000 0.500000
vt 0.500000 0.500000
vt 0.500000 0.500000
vt 0.500000 0.500000
vt 0.500000 0.500000
vt 0.500000 0.500000
vt 0.500000 0.500000
vt 0.500000 0.500000
vt 0.500000 0.500000
vt 0.500000 0.500000
vt 0.500000 0.500000
vt 0.500000 0.500000
vt 0.500000 0.500000
vt 0.500000 0.500000
vt 0.500000 0.500000
vt 0.500000 0.500000
vt 0.500000 0.500000
vt 0.500000 0.500000
vt 0.500000 0.500000
vt 0.500000 0.500000
vt 0.500000 0.500000
vt 0.500000 0.500000
vt 0.500000 0.500000
vt 0.500000 0.500000
vt 0.500000 0.500000
vt 0.500000 0.500000
vt 0.500000 0.500000
vt 0.500000 0.500000
vt 0.500000 0.500000
vt 0.500000 0.500000
vt 0.500000 0.500000
vt 0.500000 0.500000
vt 0.500000 0.500000
vt 0.500000 0.500000
vt 0.500000 0.500000
vt 0.500000 0.500000
vt 0.500000 0.500000
vt 0.500000 0.500000
vt 0.500000 0.500000
vt 0.500000 0.500000
vt 0.500000 0.500000
vt 0.500000 0.500000
vt 0.500000 0.500000
vt 0.500000 0.500000
vt 0.500000 0.500000
vt 0.500000 0.500000
vt 0.500000 0.500000
vt 0.500000 0.500000
vt 0.500000 0.500000
vt 0.500000 0.500000
vt 0.500000 0.500000
vt 0.500000 0.500000
vt 0.500000 0.500000
vt 0.500000 0.500000
vt 0.500000 0.500000
vt 0.500000 0.500000
vt 0.500000 0.500000
vt 0.500000 0.500000
vt 0.500000 0.500000
vt 0.500000 0.500000
vt 0.500000 0.500000
vt 0.500000 0.500000
vt 0.500000 0.500000
vt 0.500000 0.500000
vt 0.500000 0.500000
vt 0.500000 0.500000
vt 0.500000 0.500000
vt 0.500000 0.500000
vt 0.500000 0.500000
vt 0.500000 0.500000
vt 0.500000 0.500000
vt 0.500000 0.500000
vt 0.500000 0.500000
vt 0.500000 0.500000
vt 0.500000 0.500000
vt 0.500000 0.500000
vt 0.500000 0.500000
vt 0.500000 0.500000
vt 0.500000 0.500000
vt 0.500000 0.500000
vt 0.926281 0.485263
vt 0.926140 0.501746
vt 0.919649 0.493888
vt 0.928493 0.485338
vt 0.934073 0.487249
vt 0.934044 0.492006
vt 0.933333 0.458333
vt 0.934354 0.473143
vt 0.929146 0.475447
vt 0.895147 0.475054
vt 0.897846 0.476257
vt 0.895947 0.485032
vt 0.921816 0.502196
vt 0.918692 0.498011
vt 0.910378 0.502177
vt 0.906483 0.501707
vt 0.912358 0.494383
vt 0.900762 0.467221
vt 0.910492 0.460272
vt 0.900819 0.472545
vt 0.933333 0.500000
vt 0.914601 0.488759
vt 0.901539 0.483386
vt 0.906568 0.459923
vt 0.891561 0.482352
vt 0.891494 0.478087
vt 0.900000 0.500000
vt 0.901656 0.491527
vt 0.913042 0.459138
vt 0.925453 0.478057
vt 0.919066 0.453879
vt 0.913157 0.455969
vt 0.912199 0.451977
vt 0.917949 0.456870
vt 0.918153 0.459016
vt 0.931694 0.476866
vt 0.921156 0.459740
vt 0.926826 0.475223
vt 0.912409 0.490811
vt 0.933632 0.476731
vt 0.899958 0.476032
vt 0.899168 0.483515
vt 0.919776 0.490316
vt 0.919351 0.450871
vt 0.917334 0.448631
vt 0.913175 0.498316
vt 0.912953 0.501240
vt 0.925240 0.482261
vt 0.917684 0.488554
vt 0.893083 0.485245
vt 0.914279 0.447760
vt 0.918947 0.501150
vt 0.902197 0.486518
vt 0.900000 0.458333
vt 0.931113 0.484147
vt 0.892770 0.475074
vt 0.933201 0.484200
vt 0.912135 0.448813
vn 0.0000 -1.0000 0.0000
vn 0.9600 0.0000 -0.2800
vn 0.9965 0.0000 0.0830
vn 0.9954 0.0000 -0.0961
vn 0.9602 0.0000 0.2793
vn 0.0942 0.0000 0.9955
vn 0.1010 0.0000 -0.9949
vn 0.9785 0.0000 -0.2061
vn 0.9817 0.0000 0.1906
vn -0.2512 0.0000 0.9679
vn -0.2787 0.0000 -0.9604
vn 0.1105 0.0000 0.9939
vn -0.2373 0.0000 -0.9714
vn 0.0178 0.0000 0.9998
vn -0.0443 0.0000 -0.9990
vn 0.0078 0.0000 1.0000
vn -0.1339 0.0000 -0.9910
vn 0.8005 0.0000 0.5994
vn 0.8293 0.0000 -0.5588
vn 0.9986 0.0000 0.0529
vn -0.3367 0.0000 0.9416
vn 0.2541 0.0000 -0.9672
vn -0.9996 0.0000 0.0269
vn -0.9398 0.0000 -0.3418
vn -0.9998 0.0000 0.0204
vn -0.3975 0.0000 0.9176
vn 0.5493 0.0000 -0.8356
vn 0.9982 0.0000 0.0596
vn 0.9358 0.0000 0.3525
vn 0.9990 0.0000 0.0436
vn 0.0199 0.0000 -0.9998
vn 0.0630 0.0000 0.9980
vn -0.4679 0.0000 -0.8838
vn 0.5184 0.0000 0.8551
vn 0.9135 0.0000 -0.4068
vn 0.9984 0.0000 0.0557
vn 0.2440 0.0000 0.9698
vn -1.0000 0.0000 -0.0066
vn -0.9420 0.0000 0.3357
vn -0.9964 0.0000 -0.0848
vn -0.2949 0.0000 -0.9555
vn 0.9970 0.0000 -0.0770
vn 0.0134 0.0000 -0.9999
vn 0.1065 0.0000 -0.9943
vn -0.9818 0.0000 0.1901
vn -0.9975 0.0000 0.0709
vn -0.9422 0.0000 -0.3352
vn -0.9819 0.0000 0.1892
vn -0.9958 0.0000 -0.0920
vn -0.0858 0.0000 0.9963
vn -0.0454 0.0000 -0.9990
vn -0.1184 0.0000 0.9930
vn 0.4231 0.0000 0.9061
vn 0.2873 0.0000 -0.9578
vn 0.1177 0.0000 0.9930
vn 0.0253 0.0000 -0.9997
vn -0.7477 0.0000 0.6640
vn -0.9308 0.0000 -0.3656
vn -0.9750 0.0000 0.2224
vn 0.0000 1.0000 0.0000
usemtl BackMat.001
s off
f 220/1/1 206/2/1 194/3/1
f 219/4/1 207/5/1 211/6/1
f 254/7/1 234/8/1 238/9/1
f 239/10/1 226/11/1 240/12/1
f 193/13/1 206/2/1 200/14/1
f 196/15/1 205/16/1 195/17/1
f 244/18/1 243/19/1 248/20/1
f 207/5/1 194/3/1 203/21/1
f 243/19/1 217/22/1 213/23/1
f 247/24/1 244/18/1 248/20/1
f 224/25/1 226/11/1 228/26/1
f 195/17/1 208/27/1 201/28/1
f 249/29/1 248/20/1 229/30/1
f 258/31/1 259/32/1 256/33/1
f 257/34/1 249/29/1 252/35/1
f 234/8/1 235/36/1 238/9/1
f 243/19/1 213/23/1 248/20/1
f 228/26/1 226/11/1 239/10/1
f 251/37/1 229/30/1 232/38/1
f 213/23/1 217/22/1 209/39/1
f 238/9/1 235/36/1 236/40/1
f 240/12/1 227/41/1 241/42/1
f 252/35/1 249/29/1 229/30/1
f 194/3/1 206/2/1 193/13/1
f 251/37/1 232/38/1 254/7/1
f 227/41/1 240/12/1 226/11/1
f 241/42/1 217/22/1 243/19/1
f 258/31/1 256/33/1 257/34/1
f 195/17/1 205/16/1 208/27/1
f 220/1/1 210/43/1 206/2/1
f 260/44/1 263/45/1 258/31/1
f 263/45/1 259/32/1 258/31/1
f 199/46/1 196/15/1 197/47/1
f 229/30/1 214/48/1 223/49/1
f 226/11/1 224/25/1 225/50/1
f 264/51/1 259/32/1 263/45/1
f 209/39/1 208/27/1 205/16/1
f 223/49/1 210/43/1 220/1/1
f 193/13/1 200/14/1 191/52/1
f 241/42/1 227/41/1 217/22/1
f 217/22/1 212/53/1 209/39/1
f 245/54/1 244/18/1 247/24/1
f 254/7/1 232/38/1 234/8/1
f 208/27/1 209/39/1 212/53/1
f 194/3/1 207/5/1 219/4/1
f 219/4/1 211/6/1 222/55/1
f 220/1/1 194/3/1 219/4/1
f 230/56/1 228/26/1 239/10/1
f 214/48/1 210/43/1 223/49/1
f 256/33/1 249/29/1 257/34/1
f 222/55/1 211/6/1 215/57/1
f 248/20/1 213/23/1 229/30/1
f 205/16/1 196/15/1 199/46/1
f 252/35/1 229/30/1 251/37/1
f 229/30/1 213/23/1 214/48/1
f 259/32/1 264/51/1 261/58/1
f 118/59/2 56/60/2 114/61/2 192/62/2
f 56/60/3 57/63/3 115/64/3 114/61/3
f 44/65/4 45/66/4 103/67/4 102/68/4
f 45/66/5 124/69/5 198/70/5 103/67/5
f 46/71/6 47/72/6 105/73/6 104/74/6
f 54/75/7 55/76/7 113/77/7 112/78/7
f 128/79/8 44/65/8 102/68/8 202/80/8
f 57/63/9 130/81/9 204/82/9 115/64/9
f 47/72/10 48/83/10 106/84/10 105/73/10
f 53/85/11 54/75/11 112/78/11 111/86/11
f 58/87/12 1/88/12 59/89/12 116/90/12
f 42/91/13 43/92/13 101/93/13 100/94/13
f 48/83/14 49/95/14 107/96/14 106/84/14
f 52/97/15 53/85/15 111/86/15 110/98/15
f 1/88/16 2/99/16 60/100/16 59/89/16
f 41/101/17 42/91/17 100/94/17 99/102/17
f 49/95/18 50/103/18 108/104/18 107/96/18
f 51/105/19 52/97/19 110/98/19 109/106/19
f 50/103/20 51/105/20 109/106/20 108/104/20
f 2/99/21 142/107/21 216/108/21 60/100/21
f 144/109/22 41/101/22 99/102/22 218/110/22
f 5/111/23 147/112/23 221/113/23 63/114/23
f 4/115/24 5/111/24 63/114/24 62/116/24
f 3/117/25 4/115/25 62/116/25 61/118/25
f 6/119/26 7/120/26 65/121/26 64/122/26
f 36/123/27 37/124/27 95/125/27 94/126/27
f 37/124/28 38/127/28 96/128/28 95/125/28
f 38/127/29 39/129/29 97/130/29 96/128/29
f 39/129/30 40/131/30 98/132/30 97/130/30
f 35/133/31 36/123/31 94/126/31 93/134/31
f 7/120/32 8/135/32 66/136/32 65/121/32
f 157/137/33 35/133/33 93/134/33 231/138/33
f 8/135/34 159/139/34 233/140/34 66/136/34
f 10/141/35 11/142/35 69/143/35 68/144/35
f 11/142/36 163/145/36 237/146/36 69/143/36
f 12/147/37 13/148/37 71/149/37 70/150/37
f 33/151/38 34/152/38 92/153/38 91/154/38
f 32/155/39 33/151/39 91/154/39 90/156/39
f 168/157/40 32/155/40 90/156/40 242/158/40
f 30/159/41 31/160/41 89/161/41 88/162/41
f 9/163/42 10/141/42 68/144/42 67/164/42
f 29/165/43 30/159/43 88/162/43 87/166/43
f 172/167/44 29/165/44 87/166/44 246/168/44
f 27/169/45 28/170/45 86/171/45 85/172/45
f 26/173/46 27/169/46 85/172/46 84/174/46
f 176/175/47 26/173/47 84/174/47 250/176/47
f 15/177/48 179/178/48 253/179/48 73/180/48
f 181/181/49 15/177/49 73/180/49 255/182/49
f 13/148/50 14/183/50 72/184/50 71/149/50
f 24/185/51 25/186/51 83/187/51 82/188/51
f 16/189/52 17/190/52 75/191/52 74/192/52
f 17/190/53 18/193/53 76/194/53 75/191/53
f 23/195/54 24/185/54 82/188/54 81/196/54
f 18/193/55 19/197/55 77/198/55 76/194/55
f 188/199/56 23/195/56 81/196/56 262/200/56
f 19/197/57 20/201/57 78/202/57 77/198/57
f 21/203/58 22/204/58 80/205/58 79/206/58
f 20/201/59 21/203/59 79/206/59 78/202/59
usemtl FrontMat.001
f 146/207/60 120/208/60 132/209/60
f 145/210/60 137/211/60 133/212/60
f 180/213/60 164/214/60 160/215/60
f 165/216/60 166/217/60 152/218/60
f 119/219/60 126/220/60 132/209/60
f 122/221/60 121/222/60 131/223/60
f 170/224/60 174/225/60 169/226/60
f 133/212/60 129/227/60 120/208/60
f 169/226/60 139/228/60 143/229/60
f 173/230/60 174/225/60 170/224/60
f 150/231/60 154/232/60 152/218/60
f 121/222/60 127/233/60 134/234/60
f 175/235/60 155/236/60 174/225/60
f 184/237/60 182/238/60 185/239/60
f 183/240/60 178/241/60 175/235/60
f 160/215/60 164/214/60 161/242/60
f 169/226/60 174/225/60 139/228/60
f 154/232/60 165/216/60 152/218/60
f 177/243/60 158/244/60 155/236/60
f 139/228/60 135/245/60 143/229/60
f 164/214/60 162/246/60 161/242/60
f 166/217/60 167/247/60 153/248/60
f 178/241/60 155/236/60 175/235/60
f 120/208/60 119/219/60 132/209/60
f 177/243/60 180/213/60 158/244/60
f 153/248/60 152/218/60 166/217/60
f 167/247/60 169/226/60 143/229/60
f 184/237/60 183/240/60 182/238/60
f 121/222/60 134/234/60 131/223/60
f 146/207/60 132/209/60 136/249/60
f 186/250/60 184/237/60 189/251/60
f 189/251/60 184/237/60 185/239/60
f 125/252/60 123/253/60 122/221/60
f 155/236/60 149/254/60 140/255/60
f 152/218/60 151/256/60 150/231/60
f 190/257/60 189/251/60 185/239/60
f 135/245/60 131/223/60 134/234/60
f 149/254/60 146/207/60 136/249/60
f 119/219/60 117/258/60 126/220/60
f 167/247/60 143/229/60 153/248/60
f 143/229/60 135/245/60 138/259/60
f 171/260/60 173/230/60 170/224/60
f 180/213/60 160/215/60 158/244/60
f 134/234/60 138/259/60 135/245/60
f 120/208/60 145/210/60 133/212/60
f 145/210/60 148/261/60 137/211/60
f 146/207/60 145/210/60 120/208/60
f 156/262/60 165/216/60 154/232/60
f 140/255/60 149/254/60 136/249/60
f 182/238/60 183/240/60 175/235/60
f 148/261/60 141/263/60 137/211/60
f 174/225/60 155/236/60 139/228/60
f 131/223/60 125/252/60 122/221/60
f 178/241/60 177/243/60 155/236/60
f 155/236/60 140/255/60 139/228/60
f 185/239/60 187/264/60 190/257/60
