# Blender v2.83.1 OBJ File: 'jigsaw-30x24-3-step2.blend'
# www.blender.org
mtllib piece.422.mtl
o path844
v 0.573361 0.037500 -0.251891
v 0.586537 0.037500 -0.121446
v 0.563107 0.037500 -0.037363
v 0.487937 0.037500 -0.035031
v 0.387137 0.037500 -0.068340
v 0.297129 0.037500 -0.070806
v 0.248194 0.037500 0.002123
v 0.246060 0.037500 0.107259
v 0.290318 0.037500 0.179481
v 0.374921 0.037500 0.175416
v 0.471232 0.037500 0.138684
v 0.544980 0.037500 0.134657
v 0.571389 0.037500 0.209005
v 0.563711 0.037500 0.328599
v 0.527593 0.037500 0.531225
v 0.186397 0.037500 0.584471
v 0.100255 0.037500 0.568809
v 0.090381 0.037500 0.511437
v 0.115818 0.037500 0.430660
v 0.116862 0.037500 0.352572
v 0.053123 0.037500 0.299925
v -0.038550 0.037500 0.282110
v -0.101996 0.037500 0.305178
v -0.100172 0.037500 0.369098
v -0.072508 0.037500 0.449526
v -0.077554 0.037500 0.516035
v -0.155743 0.037500 0.546051
v -0.275017 0.037500 0.548405
v -0.474105 0.037500 0.531225
v -0.449676 0.037500 0.198871
v -0.472603 0.037500 0.123290
v -0.530215 0.037500 0.129946
v -0.605042 0.037500 0.172604
v -0.672856 0.037500 0.184791
v -0.712783 0.037500 0.121376
v -0.717334 0.037500 0.022593
v -0.682372 0.037500 -0.049984
v -0.609681 0.037500 -0.055136
v -0.524770 0.037500 -0.033076
v -0.459069 0.037500 -0.044373
v -0.435396 0.037500 -0.130790
v -0.442112 0.037500 -0.258821
v -0.474105 0.037500 -0.470684
v -0.268220 0.037500 -0.443457
v -0.145762 0.037500 -0.440375
v -0.067483 0.037500 -0.468140
v -0.067028 0.037500 -0.538093
v -0.101600 0.037500 -0.627799
v -0.109285 0.037500 -0.706382
v -0.048419 0.037500 -0.748178
v 0.041698 0.037500 -0.748376
v 0.101531 0.037500 -0.707383
v 0.092321 0.037500 -0.630502
v 0.058442 0.037500 -0.542650
v 0.065040 0.037500 -0.473643
v 0.156707 0.037500 -0.445191
v 0.295794 0.037500 -0.446585
v 0.527593 0.037500 -0.470684
v 0.573361 -0.037500 -0.251891
v 0.586537 -0.037500 -0.121446
v 0.563107 -0.037500 -0.037363
v 0.487937 -0.037500 -0.035031
v 0.387137 -0.037500 -0.068340
v 0.297129 -0.037500 -0.070806
v 0.248194 -0.037498 0.002123
v 0.246060 -0.037500 0.107259
v 0.290318 -0.037500 0.179481
v 0.374921 -0.037498 0.175416
v 0.471232 -0.037500 0.138684
v 0.544980 -0.037498 0.134657
v 0.571389 -0.037500 0.209005
v 0.563711 -0.037498 0.328599
v 0.527593 -0.037500 0.531225
v 0.186397 -0.037500 0.584471
v 0.100255 -0.037500 0.568809
v 0.090381 -0.037500 0.511437
v 0.115818 -0.037498 0.430660
v 0.116862 -0.037500 0.352572
v 0.053123 -0.037498 0.299925
v -0.038550 -0.037500 0.282110
v -0.101996 -0.037500 0.305178
v -0.100172 -0.037500 0.369098
v -0.072508 -0.037500 0.449526
v -0.077554 -0.037500 0.516035
v -0.155743 -0.037500 0.546051
v -0.275017 -0.037500 0.548405
v -0.474105 -0.037500 0.531225
v -0.449676 -0.037500 0.198871
v -0.472603 -0.037498 0.123290
v -0.530215 -0.037498 0.129946
v -0.605042 -0.037500 0.172604
v -0.672856 -0.037500 0.184791
v -0.712783 -0.037500 0.121376
v -0.717334 -0.037500 0.022593
v -0.682372 -0.037500 -0.049984
v -0.609681 -0.037500 -0.055136
v -0.524770 -0.037500 -0.033076
v -0.459069 -0.037500 -0.044373
v -0.435396 -0.037500 -0.130790
v -0.442112 -0.037500 -0.258821
v -0.474105 -0.037500 -0.470684
v -0.268220 -0.037500 -0.443457
v -0.145762 -0.037500 -0.440375
v -0.067483 -0.037500 -0.468140
v -0.067028 -0.037500 -0.538093
v -0.101600 -0.037500 -0.627799
v -0.109285 -0.037500 -0.706382
v -0.048419 -0.037500 -0.748178
v 0.041698 -0.037500 -0.748376
v 0.101531 -0.037500 -0.707383
v 0.092321 -0.037500 -0.630502
v 0.058442 -0.037500 -0.542650
v 0.065040 -0.037500 -0.473643
v 0.156707 -0.037500 -0.445191
v 0.295794 -0.037500 -0.446585
v 0.527593 -0.037500 -0.470684
v -0.712783 0.037500 0.121376
v -0.717334 0.037500 0.022593
v -0.682372 0.037500 -0.049984
v -0.682372 0.037500 -0.049984
v -0.672856 0.037500 0.184791
v -0.672856 0.037500 0.184791
v -0.609681 0.037500 -0.055136
v -0.605042 0.037500 0.172604
v -0.524770 0.037500 -0.033076
v -0.530215 0.037500 0.129946
v -0.472603 0.037500 0.123290
v -0.472603 0.037500 0.123290
v -0.459069 0.037500 -0.044373
v -0.459069 0.037500 -0.044373
v -0.449676 0.037500 0.198871
v -0.435396 0.037500 -0.130790
v -0.442112 0.037500 -0.258821
v -0.474105 0.037500 -0.470684
v -0.474105 0.037500 -0.470684
v -0.474105 0.037500 0.531225
v -0.474105 0.037500 0.531225
v -0.275017 0.037500 0.548405
v -0.268220 0.037500 -0.443457
v -0.155743 0.037500 0.546051
v -0.145762 0.037500 -0.440375
v -0.077554 0.037500 0.516035
v -0.077554 0.037500 0.516035
v -0.101996 0.037500 0.305178
v -0.101996 0.037500 0.305178
v -0.100172 0.037500 0.369098
v -0.067483 0.037500 -0.468140
v -0.067483 0.037500 -0.468140
v -0.101600 0.037500 -0.627799
v -0.109285 0.037500 -0.706382
v -0.109285 0.037500 -0.706382
v -0.048419 0.037500 -0.748178
v -0.038550 0.037500 0.282110
v -0.067028 0.037500 -0.538093
v -0.072508 0.037500 0.449526
v 0.041698 0.037500 -0.748376
v 0.053123 0.037500 0.299925
v 0.101531 0.037500 -0.707383
v 0.101531 0.037500 -0.707383
v 0.116862 0.037500 0.352572
v 0.058442 0.037500 -0.542650
v 0.065040 0.037500 -0.473643
v 0.065040 0.037500 -0.473643
v 0.092321 0.037500 -0.630502
v 0.156707 0.037500 -0.445191
v 0.100255 0.037500 0.568809
v 0.100255 0.037500 0.568809
v 0.090381 0.037500 0.511437
v 0.115818 0.037500 0.430660
v 0.186397 0.037500 0.584471
v 0.295794 0.037500 -0.446585
v 0.248194 0.037500 0.002123
v 0.246060 0.037500 0.107259
v 0.290318 0.037500 0.179481
v 0.290318 0.037500 0.179481
v 0.297129 0.037500 -0.070806
v 0.374921 0.037500 0.175416
v 0.387137 0.037500 -0.068340
v 0.471232 0.037500 0.138684
v 0.487937 0.037500 -0.035031
v 0.527593 0.037500 0.531225
v 0.527593 0.037500 0.531225
v 0.544980 0.037500 0.134657
v 0.544980 0.037500 0.134657
v 0.563107 0.037500 -0.037363
v 0.563107 0.037500 -0.037363
v 0.527593 0.037500 -0.470684
v 0.527593 0.037500 -0.470684
v 0.563711 0.037500 0.328599
v 0.571389 0.037500 0.209005
v 0.573361 0.037500 -0.251891
v 0.586537 0.037500 -0.121446
v -0.712783 -0.037500 0.121376
v -0.717334 -0.037500 0.022593
v -0.682372 -0.037500 -0.049984
v -0.682372 -0.037500 -0.049984
v -0.672856 -0.037500 0.184791
v -0.672856 -0.037500 0.184791
v -0.609681 -0.037500 -0.055136
v -0.605042 -0.037500 0.172604
v -0.524770 -0.037500 -0.033076
v -0.530215 -0.037498 0.129946
v -0.472603 -0.037498 0.123290
v -0.472603 -0.037498 0.123290
v -0.459069 -0.037500 -0.044373
v -0.459069 -0.037500 -0.044373
v -0.449676 -0.037500 0.198871
v -0.435396 -0.037500 -0.130790
v -0.442112 -0.037500 -0.258821
v -0.474105 -0.037500 -0.470684
v -0.474105 -0.037500 -0.470684
v -0.474105 -0.037500 0.531225
v -0.474105 -0.037500 0.531225
v -0.275017 -0.037500 0.548405
v -0.268220 -0.037500 -0.443457
v -0.155743 -0.037500 0.546051
v -0.145762 -0.037500 -0.440375
v -0.077554 -0.037500 0.516035
v -0.077554 -0.037500 0.516035
v -0.101996 -0.037500 0.305178
v -0.101996 -0.037500 0.305178
v -0.100172 -0.037500 0.369098
v -0.067483 -0.037500 -0.468140
v -0.067483 -0.037500 -0.468140
v -0.101600 -0.037500 -0.627799
v -0.109285 -0.037500 -0.706382
v -0.109285 -0.037500 -0.706382
v -0.048419 -0.037500 -0.748178
v -0.038550 -0.037500 0.282110
v -0.067028 -0.037500 -0.538093
v -0.072508 -0.037500 0.449526
v 0.041698 -0.037500 -0.748376
v 0.053123 -0.037498 0.299925
v 0.101531 -0.037500 -0.707383
v 0.101531 -0.037500 -0.707383
v 0.116862 -0.037500 0.352572
v 0.058442 -0.037500 -0.542650
v 0.065040 -0.037500 -0.473643
v 0.065040 -0.037500 -0.473643
v 0.092321 -0.037500 -0.630502
v 0.156707 -0.037500 -0.445191
v 0.100255 -0.037500 0.568809
v 0.100255 -0.037500 0.568809
v 0.090381 -0.037500 0.511437
v 0.115818 -0.037498 0.430660
v 0.186397 -0.037500 0.584471
v 0.295794 -0.037500 -0.446585
v 0.248194 -0.037498 0.002123
v 0.246060 -0.037500 0.107259
v 0.290318 -0.037500 0.179481
v 0.290318 -0.037500 0.179481
v 0.297129 -0.037500 -0.070806
v 0.374921 -0.037498 0.175416
v 0.387137 -0.037500 -0.068340
v 0.471232 -0.037500 0.138684
v 0.487937 -0.037500 -0.035031
v 0.527593 -0.037500 0.531225
v 0.527593 -0.037500 0.531225
v 0.544980 -0.037498 0.134657
v 0.544980 -0.037498 0.134657
v 0.563107 -0.037500 -0.037363
v 0.563107 -0.037500 -0.037363
v 0.527593 -0.037500 -0.470684
v 0.527593 -0.037500 -0.470684
v 0.563711 -0.037498 0.328599
v 0.571389 -0.037500 0.209005
v 0.573361 -0.037500 -0.251891
v 0.586537 -0.037500 -0.121446
vt 0.500000 0.500000
vt 0.500000 0.500000
vt 0.500000 0.500000
vt 0.500000 0.500000
vt 0.500000 0.500000
vt 0.500000 0.500000
vt 0.500000 0.500000
vt 0.500000 0.500000
vt 0.500000 0.500000
vt 0.500000 0.500000
vt 0.500000 0.500000
vt 0.500000 0.500000
vt 0.500000 0.500000
vt 0.500000 0.500000
vt 0.500000 0.500000
vt 0.500000 0.500000
vt 0.500000 0.500000
vt 0.500000 0.500000
vt 0.500000 0.500000
vt 0.500000 0.500000
vt 0.500000 0.500000
vt 0.500000 0.500000
vt 0.500000 0.500000
vt 0.500000 0.500000
vt 0.500000 0.500000
vt 0.500000 0.500000
vt 0.500000 0.500000
vt 0.500000 0.500000
vt 0.500000 0.500000
vt 0.500000 0.500000
vt 0.500000 0.500000
vt 0.500000 0.500000
vt 0.500000 0.500000
vt 0.500000 0.500000
vt 0.500000 0.500000
vt 0.500000 0.500000
vt 0.500000 0.500000
vt 0.500000 0.500000
vt 0.500000 0.500000
vt 0.500000 0.500000
vt 0.500000 0.500000
vt 0.500000 0.500000
vt 0.500000 0.500000
vt 0.500000 0.500000
vt 0.500000 0.500000
vt 0.500000 0.500000
vt 0.500000 0.500000
vt 0.500000 0.500000
vt 0.500000 0.500000
vt 0.500000 0.500000
vt 0.500000 0.500000
vt 0.500000 0.500000
vt 0.500000 0.500000
vt 0.500000 0.500000
vt 0.500000 0.500000
vt 0.500000 0.500000
vt 0.500000 0.500000
vt 0.500000 0.500000
vt 0.500000 0.500000
vt 0.500000 0.500000
vt 0.500000 0.500000
vt 0.500000 0.500000
vt 0.500000 0.500000
vt 0.500000 0.500000
vt 0.500000 0.500000
vt 0.500000 0.500000
vt 0.500000 0.500000
vt 0.500000 0.500000
vt 0.500000 0.500000
vt 0.500000 0.500000
vt 0.500000 0.500000
vt 0.500000 0.500000
vt 0.500000 0.500000
vt 0.500000 0.500000
vt 0.500000 0.500000
vt 0.500000 0.500000
vt 0.500000 0.500000
vt 0.500000 0.500000
vt 0.500000 0.500000
vt 0.500000 0.500000
vt 0.500000 0.500000
vt 0.500000 0.500000
vt 0.500000 0.500000
vt 0.500000 0.500000
vt 0.500000 0.500000
vt 0.500000 0.500000
vt 0.500000 0.500000
vt 0.500000 0.500000
vt 0.500000 0.500000
vt 0.500000 0.500000
vt 0.500000 0.500000
vt 0.500000 0.500000
vt 0.500000 0.500000
vt 0.500000 0.500000
vt 0.500000 0.500000
vt 0.500000 0.500000
vt 0.500000 0.500000
vt 0.500000 0.500000
vt 0.500000 0.500000
vt 0.500000 0.500000
vt 0.500000 0.500000
vt 0.500000 0.500000
vt 0.500000 0.500000
vt 0.500000 0.500000
vt 0.500000 0.500000
vt 0.500000 0.500000
vt 0.500000 0.500000
vt 0.500000 0.500000
vt 0.500000 0.500000
vt 0.500000 0.500000
vt 0.500000 0.500000
vt 0.500000 0.500000
vt 0.500000 0.500000
vt 0.500000 0.500000
vt 0.500000 0.500000
vt 0.500000 0.500000
vt 0.500000 0.500000
vt 0.500000 0.500000
vt 0.500000 0.500000
vt 0.500000 0.500000
vt 0.500000 0.500000
vt 0.500000 0.500000
vt 0.500000 0.500000
vt 0.500000 0.500000
vt 0.500000 0.500000
vt 0.500000 0.500000
vt 0.500000 0.500000
vt 0.500000 0.500000
vt 0.500000 0.500000
vt 0.500000 0.500000
vt 0.500000 0.500000
vt 0.500000 0.500000
vt 0.500000 0.500000
vt 0.500000 0.500000
vt 0.500000 0.500000
vt 0.500000 0.500000
vt 0.500000 0.500000
vt 0.500000 0.500000
vt 0.500000 0.500000
vt 0.500000 0.500000
vt 0.500000 0.500000
vt 0.500000 0.500000
vt 0.500000 0.500000
vt 0.500000 0.500000
vt 0.500000 0.500000
vt 0.500000 0.500000
vt 0.500000 0.500000
vt 0.500000 0.500000
vt 0.500000 0.500000
vt 0.500000 0.500000
vt 0.500000 0.500000
vt 0.500000 0.500000
vt 0.500000 0.500000
vt 0.500000 0.500000
vt 0.500000 0.500000
vt 0.500000 0.500000
vt 0.500000 0.500000
vt 0.500000 0.500000
vt 0.500000 0.500000
vt 0.500000 0.500000
vt 0.500000 0.500000
vt 0.500000 0.500000
vt 0.500000 0.500000
vt 0.500000 0.500000
vt 0.500000 0.500000
vt 0.500000 0.500000
vt 0.500000 0.500000
vt 0.500000 0.500000
vt 0.500000 0.500000
vt 0.500000 0.500000
vt 0.500000 0.500000
vt 0.500000 0.500000
vt 0.500000 0.500000
vt 0.500000 0.500000
vt 0.500000 0.500000
vt 0.500000 0.500000
vt 0.500000 0.500000
vt 0.500000 0.500000
vt 0.500000 0.500000
vt 0.500000 0.500000
vt 0.500000 0.500000
vt 0.500000 0.500000
vt 0.500000 0.500000
vt 0.500000 0.500000
vt 0.500000 0.500000
vt 0.500000 0.500000
vt 0.500000 0.500000
vt 0.500000 0.500000
vt 0.500000 0.500000
vt 0.500000 0.500000
vt 0.500000 0.500000
vt 0.500000 0.500000
vt 0.500000 0.500000
vt 0.500000 0.500000
vt 0.500000 0.500000
vt 0.500000 0.500000
vt 0.500000 0.500000
vt 0.500000 0.500000
vt 0.500000 0.500000
vt 0.500000 0.500000
vt 0.500000 0.500000
vt 0.500000 0.500000
vt 0.500000 0.500000
vt 0.500000 0.500000
vt 0.500000 0.500000
vt 0.500000 0.500000
vt 0.500000 0.500000
vt 0.500000 0.500000
vt 0.500000 0.500000
vt 0.500000 0.500000
vt 0.059618 0.415336
vt 0.055359 0.415056
vt 0.065658 0.403009
vt 0.052483 0.416041
vt 0.046905 0.416604
vt 0.040854 0.401188
vt 0.052173 0.376649
vt 0.052250 0.373523
vt 0.055048 0.372548
vt 0.044054 0.373178
vt 0.045171 0.381350
vt 0.040075 0.373498
vt 0.044391 0.415650
vt 0.033333 0.416667
vt 0.032762 0.408385
vt 0.052108 0.418774
vt 0.052841 0.422306
vt 0.046684 0.419001
vt 0.066765 0.394240
vt 0.069061 0.394515
vt 0.066582 0.399753
vt 0.045036 0.384870
vt 0.033333 0.375000
vt 0.036679 0.392128
vt 0.033992 0.393186
vt 0.031562 0.389192
vt 0.050255 0.426784
vt 0.039277 0.392085
vt 0.065761 0.408103
vt 0.066667 0.416667
vt 0.050937 0.386622
vt 0.046393 0.377344
vt 0.047439 0.386711
vt 0.041029 0.394736
vt 0.041621 0.398549
vt 0.071984 0.393106
vt 0.075899 0.398960
vt 0.071894 0.401172
vt 0.032840 0.403424
vt 0.033839 0.400172
vt 0.036052 0.399962
vt 0.074542 0.392722
vt 0.075905 0.395211
vt 0.059388 0.373096
vt 0.065865 0.384642
vt 0.053281 0.380842
vt 0.068909 0.399734
vt 0.074508 0.401492
vt 0.045265 0.422113
vt 0.038727 0.401112
vt 0.066667 0.375000
vt 0.046969 0.426595
vt 0.053363 0.384586
vt 0.065818 0.390427
vt 0.032083 0.392776
vt 0.052670 0.425330
vt 0.046527 0.374277
vt 0.044859 0.424934
vn 0.0000 -1.0000 0.0000
vn -0.9989 0.0000 0.0460
vn -0.9009 0.0000 -0.4340
vn -0.8462 0.0000 0.5328
vn -0.0707 0.0000 -0.9975
vn 0.1769 0.0000 0.9842
vn 0.2515 0.0000 -0.9679
vn 0.4953 0.0000 0.8687
vn 0.1148 0.0000 0.9934
vn -0.1695 0.0000 -0.9855
vn -0.9569 0.0000 0.2903
vn -0.9645 0.0000 -0.2642
vn -0.9888 0.0000 0.1493
vn -0.9973 0.0000 -0.0733
vn -0.9986 0.0000 0.0524
vn -0.0860 0.0000 0.9963
vn 0.1311 0.0000 -0.9914
vn 0.0197 0.0000 0.9998
vn 0.0252 0.0000 -0.9997
vn 0.3584 0.0000 0.9336
vn 0.9996 0.0000 -0.0285
vn -0.3343 0.0000 -0.9425
vn -0.9953 0.0000 0.0973
vn -0.5661 0.0000 -0.8244
vn 0.3417 0.0000 0.9398
vn -0.9331 0.0000 0.3596
vn 0.9971 0.0000 0.0757
vn 0.9456 0.0000 -0.3253
vn -1.0000 0.0000 -0.0065
vn -0.0022 0.0000 -1.0000
vn -0.1908 0.0000 0.9816
vn 0.5652 0.0000 -0.8249
vn -0.6368 0.0000 0.7710
vn 0.9955 0.0000 -0.0952
vn 0.9330 0.0000 0.3598
vn 0.9929 0.0000 0.1189
vn 0.2964 0.0000 -0.9551
vn -0.9855 0.0000 0.1696
vn -0.9538 0.0000 -0.3004
vn -0.1789 0.0000 0.9839
vn -0.9999 0.0000 -0.0134
vn -0.0100 0.0000 -0.9999
vn 0.9998 0.0000 0.0203
vn 0.8526 0.0000 -0.5225
vn 0.8304 0.0000 0.5572
vn -0.0480 0.0000 -0.9988
vn -0.0274 0.0000 0.9996
vn -0.3563 0.0000 -0.9344
vn -0.3138 0.0000 0.9495
vn 0.1542 0.0000 0.9880
vn -0.0545 0.0000 -0.9985
vn 0.0310 0.0000 0.9995
vn -0.1034 0.0000 -0.9946
vn 0.9845 0.0000 0.1755
vn 0.9979 0.0000 0.0641
vn 0.9423 0.0000 -0.3347
vn 0.9788 0.0000 -0.2048
vn 0.9633 0.0000 0.2684
vn 0.9949 0.0000 -0.1005
vn 0.0000 1.0000 0.0000
usemtl BackMat.001
s off
f 209/1/1 217/2/1 208/3/1
f 205/4/1 220/5/1 203/6/1
f 256/7/1 268/8/1 261/9/1
f 266/10/1 265/11/1 253/12/1
f 207/13/1 214/14/1 212/15/1
f 201/16/1 202/17/1 199/18/1
f 238/19/1 223/20/1 237/21/1
f 253/12/1 257/22/1 250/23/1
f 245/24/1 246/25/1 244/26/1
f 199/18/1 202/17/1 194/27/1
f 246/25/1 245/24/1 257/22/1
f 205/4/1 203/6/1 201/16/1
f 236/28/1 250/23/1 245/24/1
f 215/29/1 209/1/1 210/30/1
f 248/31/1 208/3/1 217/2/1
f 245/24/1 250/23/1 257/22/1
f 255/32/1 266/10/1 253/12/1
f 250/23/1 233/33/1 249/34/1
f 249/34/1 233/33/1 229/35/1
f 240/36/1 225/37/1 228/38/1
f 248/31/1 217/2/1 223/20/1
f 216/39/1 231/40/1 218/41/1
f 240/36/1 232/42/1 234/43/1
f 248/31/1 223/20/1 238/19/1
f 249/34/1 229/35/1 248/31/1
f 267/44/1 254/45/1 247/46/1
f 237/21/1 223/20/1 230/47/1
f 230/47/1 225/37/1 237/21/1
f 233/33/1 250/23/1 236/28/1
f 228/38/1 225/37/1 226/48/1
f 254/45/1 268/8/1 256/7/1
f 200/49/1 194/27/1 202/17/1
f 207/13/1 222/50/1 214/14/1
f 222/50/1 231/40/1 216/39/1
f 214/14/1 222/50/1 216/39/1
f 268/8/1 254/45/1 267/44/1
f 267/44/1 247/46/1 263/51/1
f 229/35/1 205/4/1 208/3/1
f 265/11/1 257/22/1 253/12/1
f 240/36/1 228/38/1 232/42/1
f 194/27/1 200/49/1 193/52/1
f 229/35/1 220/5/1 205/4/1
f 252/53/1 247/46/1 254/45/1
f 217/2/1 209/1/1 215/29/1
f 252/53/1 248/31/1 241/54/1
f 242/55/1 244/26/1 246/25/1
f 199/18/1 194/27/1 195/56/1
f 207/13/1 220/5/1 222/50/1
f 247/46/1 252/53/1 241/54/1
f 259/57/1 266/10/1 255/32/1
f 203/6/1 202/17/1 201/16/1
f 193/52/1 200/49/1 197/58/1
f 237/21/1 225/37/1 240/36/1
f 203/6/1 220/5/1 207/13/1
f 241/54/1 248/31/1 238/19/1
f 248/31/1 229/35/1 208/3/1
f 35/59/2 36/60/2 94/61/2 93/62/2
f 36/60/3 120/63/3 196/64/3 94/61/3
f 122/65/4 35/59/4 93/62/4 198/66/4
f 37/67/5 38/68/5 96/69/5 95/70/5
f 33/71/6 34/72/6 92/73/6 91/74/6
f 38/68/7 39/75/7 97/76/7 96/69/7
f 32/77/8 33/71/8 91/74/8 90/78/8
f 128/79/9 32/77/9 90/78/9 204/80/9
f 39/75/10 130/81/10 206/82/10 97/76/10
f 30/83/11 31/84/11 89/85/11 88/86/11
f 40/87/12 41/88/12 99/89/12 98/90/12
f 42/91/13 135/92/13 211/93/13 100/94/13
f 137/95/14 30/83/14 88/86/14 213/96/14
f 41/88/15 42/91/15 100/94/15 99/89/15
f 28/97/16 29/98/16 87/99/16 86/100/16
f 43/101/17 44/102/17 102/103/17 101/104/17
f 27/105/18 28/97/18 86/100/18 85/106/18
f 44/102/19 45/107/19 103/108/19 102/103/19
f 143/109/20 27/105/20 85/106/20 219/110/20
f 145/111/21 24/112/21 82/113/21 221/114/21
f 45/107/22 148/115/22 224/116/22 103/108/22
f 48/117/23 151/118/23 227/119/23 106/120/23
f 49/121/24 50/122/24 108/123/24 107/124/24
f 22/125/25 23/126/25 81/127/25 80/128/25
f 47/129/26 48/117/26 106/120/26 105/130/26
f 25/131/27 26/132/27 84/133/27 83/134/27
f 24/112/28 25/131/28 83/134/28 82/113/28
f 46/135/29 47/129/29 105/130/29 104/136/29
f 50/122/30 51/137/30 109/138/30 108/123/30
f 21/139/31 22/125/31 80/128/31 79/140/31
f 51/137/32 159/141/32 235/142/32 109/138/32
f 20/143/33 21/139/33 79/140/33 78/144/33
f 54/145/34 163/146/34 239/147/34 112/148/34
f 53/149/35 54/145/35 112/148/35 111/150/35
f 52/151/36 53/149/36 111/150/36 110/152/36
f 55/153/37 56/154/37 114/155/37 113/156/37
f 167/157/38 18/158/38 76/159/38 243/160/38
f 18/158/39 19/161/39 77/162/39 76/159/39
f 16/163/40 17/164/40 75/165/40 74/166/40
f 19/161/41 20/143/41 78/144/41 77/162/41
f 56/154/42 57/167/42 115/168/42 114/155/42
f 7/169/43 8/170/43 66/171/43 65/172/43
f 8/170/44 175/173/44 251/174/44 66/171/44
f 6/175/45 7/169/45 65/172/45 64/176/45
f 9/177/46 10/178/46 68/179/46 67/180/46
f 5/181/47 6/175/47 64/176/47 63/182/47
f 10/178/48 11/183/48 69/184/48 68/179/48
f 4/185/49 5/181/49 63/182/49 62/186/49
f 182/187/50 16/163/50 74/166/50 258/188/50
f 11/183/51 184/189/51 260/190/51 69/184/51
f 186/191/52 4/185/52 62/186/52 262/192/52
f 57/167/53 188/193/53 264/194/53 115/168/53
f 14/195/54 15/196/54 73/197/54 72/198/54
f 13/199/55 14/195/55 72/198/55 71/200/55
f 12/201/56 13/199/56 71/200/56 70/202/56
f 58/203/57 1/204/57 59/205/57 116/206/57
f 2/207/58 3/208/58 61/209/58 60/210/58
f 1/204/59 2/207/59 60/210/59 59/205/59
usemtl FrontMat.001
f 133/211/60 132/212/60 141/213/60
f 129/214/60 127/215/60 144/216/60
f 180/217/60 185/218/60 192/219/60
f 190/220/60 177/221/60 189/222/60
f 131/223/60 136/224/60 138/225/60
f 125/226/60 123/227/60 126/228/60
f 162/229/60 161/230/60 147/231/60
f 177/221/60 174/232/60 181/233/60
f 169/234/60 168/235/60 170/236/60
f 123/227/60 118/237/60 126/228/60
f 170/236/60 181/233/60 169/234/60
f 129/214/60 125/226/60 127/215/60
f 160/238/60 169/234/60 174/232/60
f 139/239/60 134/240/60 133/211/60
f 172/241/60 141/213/60 132/212/60
f 169/234/60 181/233/60 174/232/60
f 179/242/60 177/221/60 190/220/60
f 174/232/60 173/243/60 157/244/60
f 173/243/60 153/245/60 157/244/60
f 164/246/60 152/247/60 149/248/60
f 172/241/60 147/231/60 141/213/60
f 140/249/60 142/250/60 155/251/60
f 164/246/60 158/252/60 156/253/60
f 172/241/60 162/229/60 147/231/60
f 173/243/60 172/241/60 153/245/60
f 191/254/60 171/255/60 178/256/60
f 161/230/60 154/257/60 147/231/60
f 154/257/60 161/230/60 149/248/60
f 157/244/60 160/238/60 174/232/60
f 152/247/60 150/258/60 149/248/60
f 178/256/60 180/217/60 192/219/60
f 124/259/60 126/228/60 118/237/60
f 131/223/60 138/225/60 146/260/60
f 146/260/60 140/249/60 155/251/60
f 138/225/60 140/249/60 146/260/60
f 192/219/60 191/254/60 178/256/60
f 191/254/60 187/261/60 171/255/60
f 153/245/60 132/212/60 129/214/60
f 189/222/60 177/221/60 181/233/60
f 164/246/60 156/253/60 152/247/60
f 118/237/60 117/262/60 124/259/60
f 153/245/60 129/214/60 144/216/60
f 176/263/60 178/256/60 171/255/60
f 141/213/60 139/239/60 133/211/60
f 176/263/60 165/264/60 172/241/60
f 166/265/60 170/236/60 168/235/60
f 123/227/60 119/266/60 118/237/60
f 131/223/60 146/260/60 144/216/60
f 171/255/60 165/264/60 176/263/60
f 183/267/60 179/242/60 190/220/60
f 127/215/60 125/226/60 126/228/60
f 117/262/60 121/268/60 124/259/60
f 161/230/60 164/246/60 149/248/60
f 127/215/60 131/223/60 144/216/60
f 165/264/60 162/229/60 172/241/60
f 172/241/60 132/212/60 153/245/60
