# Blender v2.83.1 OBJ File: 'jigsaw-30x24-3-step2.blend'
# www.blender.org
mtllib piece.316.mtl
o path632_path632.001
v -0.170398 0.037500 -0.436965
v -0.083347 0.037500 -0.452642
v -0.077405 0.037500 -0.505074
v -0.108901 0.037500 -0.577428
v -0.114310 0.037500 -0.645906
v -0.050662 0.037500 -0.689896
v 0.042813 0.037500 -0.701508
v 0.106337 0.037500 -0.676044
v 0.100463 0.037500 -0.614312
v 0.067098 0.037500 -0.539207
v 0.068482 0.037500 -0.479134
v 0.147669 0.037500 -0.454947
v 0.270960 0.037500 -0.457254
v 0.477973 0.037500 -0.480198
v 0.441006 0.037500 -0.285632
v 0.433212 0.037500 -0.170337
v 0.460420 0.037500 -0.097617
v 0.535611 0.037500 -0.099142
v 0.630369 0.037500 -0.132111
v 0.705926 0.037500 -0.135118
v 0.732128 0.037500 -0.067180
v 0.713284 0.037500 0.030997
v 0.662322 0.037500 0.098280
v 0.593152 0.037500 0.094548
v 0.523627 0.037500 0.063720
v 0.472585 0.037500 0.070728
v 0.453272 0.037500 0.160233
v 0.477973 0.037500 0.521711
v 0.147551 0.037500 0.550186
v 0.069072 0.037500 0.532785
v 0.069209 0.037500 0.484197
v 0.104745 0.037500 0.419724
v 0.113177 0.037500 0.360708
v 0.052279 0.037500 0.325703
v -0.039066 0.037500 0.322100
v -0.101704 0.037500 0.354497
v -0.096827 0.037500 0.421759
v -0.067066 0.037500 0.499460
v -0.075398 0.037500 0.557415
v -0.164988 0.037500 0.573917
v -0.523726 0.037500 0.521711
v -0.561322 0.037500 0.306894
v -0.571506 0.037500 0.177927
v -0.550390 0.037500 0.092775
v -0.485419 0.037500 0.085974
v -0.400184 0.037500 0.114680
v -0.327278 0.037500 0.116701
v -0.293496 0.037500 0.049979
v -0.302440 0.037500 -0.046996
v -0.351919 0.037500 -0.115596
v -0.434697 0.037500 -0.116789
v -0.523415 0.037500 -0.089901
v -0.585670 0.037500 -0.093854
v -0.598660 0.037500 -0.169548
v -0.577970 0.037500 -0.285790
v -0.523726 0.037500 -0.480198
v -0.170398 -0.037500 -0.436965
v -0.083347 -0.037500 -0.452642
v -0.077405 -0.037500 -0.505074
v -0.108901 -0.037500 -0.577428
v -0.114310 -0.037500 -0.645906
v -0.050662 -0.037500 -0.689896
v 0.042813 -0.037500 -0.701508
v 0.106337 -0.037500 -0.676044
v 0.100463 -0.037500 -0.614312
v 0.067098 -0.037500 -0.539207
v 0.068482 -0.037500 -0.479134
v 0.147669 -0.037500 -0.454947
v 0.270960 -0.037500 -0.457254
v 0.477973 -0.037500 -0.480198
v 0.441006 -0.037500 -0.285632
v 0.433212 -0.037500 -0.170337
v 0.460420 -0.037500 -0.097617
v 0.535611 -0.037500 -0.099142
v 0.630369 -0.037500 -0.132111
v 0.705926 -0.037500 -0.135118
v 0.732128 -0.037500 -0.067180
v 0.713284 -0.037500 0.030997
v 0.662322 -0.037500 0.098280
v 0.593152 -0.037500 0.094548
v 0.523627 -0.037500 0.063720
v 0.472585 -0.037500 0.070728
v 0.453272 -0.037500 0.160233
v 0.477973 -0.037500 0.521711
v 0.147551 -0.037500 0.550186
v 0.069072 -0.037498 0.532785
v 0.069209 -0.037500 0.484197
v 0.104745 -0.037500 0.419724
v 0.113177 -0.037500 0.360708
v 0.052279 -0.037500 0.325703
v -0.039066 -0.037500 0.322100
v -0.101704 -0.037500 0.354497
v -0.096827 -0.037500 0.421759
v -0.067066 -0.037500 0.499460
v -0.075398 -0.037500 0.557415
v -0.164988 -0.037500 0.573917
v -0.523726 -0.037498 0.521711
v -0.561322 -0.037500 0.306894
v -0.571506 -0.037500 0.177927
v -0.550390 -0.037500 0.092775
v -0.485419 -0.037500 0.085974
v -0.400184 -0.037500 0.114680
v -0.327278 -0.037500 0.116701
v -0.293496 -0.037500 0.049979
v -0.302440 -0.037500 -0.046996
v -0.351919 -0.037500 -0.115596
v -0.434697 -0.037500 -0.116789
v -0.523415 -0.037498 -0.089901
v -0.585670 -0.037500 -0.093854
v -0.598660 -0.037500 -0.169548
v -0.577970 -0.037500 -0.285790
v -0.523726 -0.037500 -0.480198
v 0.705926 0.037500 -0.135118
v 0.705926 0.037500 -0.135118
v 0.732128 0.037500 -0.067180
v 0.713284 0.037500 0.030997
v 0.662322 0.037500 0.098280
v 0.630369 0.037500 -0.132111
v 0.593152 0.037500 0.094548
v 0.535611 0.037500 -0.099142
v 0.523627 0.037500 0.063720
v 0.460420 0.037500 -0.097617
v 0.460420 0.037500 -0.097617
v 0.472585 0.037500 0.070728
v 0.472585 0.037500 0.070728
v 0.453272 0.037500 0.160233
v 0.477973 0.037500 -0.480198
v 0.477973 0.037500 -0.480198
v 0.441006 0.037500 -0.285632
v 0.433212 0.037500 -0.170337
v 0.477973 0.037500 0.521711
v 0.477973 0.037500 0.521711
v 0.270960 0.037500 -0.457254
v 0.147669 0.037500 -0.454947
v 0.147551 0.037500 0.550186
v 0.068482 0.037500 -0.479134
v 0.068482 0.037500 -0.479134
v 0.104745 0.037500 0.419724
v 0.113177 0.037500 0.360708
v 0.113177 0.037500 0.360708
v 0.069072 0.037500 0.532785
v 0.069072 0.037500 0.532785
v 0.052279 0.037500 0.325703
v 0.042813 0.037500 -0.701508
v 0.106337 0.037500 -0.676044
v 0.106337 0.037500 -0.676044
v 0.100463 0.037500 -0.614312
v 0.069209 0.037500 0.484197
v 0.067098 0.037500 -0.539207
v -0.039066 0.037500 0.322100
v -0.050662 0.037500 -0.689896
v -0.101704 0.037500 0.354497
v -0.101704 0.037500 0.354497
v -0.114310 0.037500 -0.645906
v -0.096827 0.037500 0.421759
v -0.067066 0.037500 0.499460
v -0.075398 0.037500 0.557415
v -0.075398 0.037500 0.557415
v -0.164988 0.037500 0.573917
v -0.108901 0.037500 -0.577428
v -0.077405 0.037500 -0.505074
v -0.083347 0.037500 -0.452642
v -0.083347 0.037500 -0.452642
v -0.170398 0.037500 -0.436965
v -0.293496 0.037500 0.049979
v -0.302440 0.037500 -0.046996
v -0.327278 0.037500 0.116701
v -0.327278 0.037500 0.116701
v -0.351919 0.037500 -0.115596
v -0.400184 0.037500 0.114680
v -0.434697 0.037500 -0.116789
v -0.485419 0.037500 0.085974
v -0.523415 0.037500 -0.089901
v -0.550390 0.037500 0.092775
v -0.550390 0.037500 0.092775
v -0.523726 0.037500 0.521711
v -0.523726 0.037500 0.521711
v -0.523726 0.037500 -0.480198
v -0.523726 0.037500 -0.480198
v -0.585670 0.037500 -0.093854
v -0.585670 0.037500 -0.093854
v -0.561322 0.037500 0.306894
v -0.577970 0.037500 -0.285790
v -0.571506 0.037500 0.177927
v -0.598660 0.037500 -0.169548
v 0.705926 -0.037500 -0.135118
v 0.705926 -0.037500 -0.135118
v 0.732128 -0.037500 -0.067180
v 0.713284 -0.037500 0.030997
v 0.662322 -0.037500 0.098280
v 0.630369 -0.037500 -0.132111
v 0.593152 -0.037500 0.094548
v 0.535611 -0.037500 -0.099142
v 0.523627 -0.037500 0.063720
v 0.460420 -0.037500 -0.097617
v 0.460420 -0.037500 -0.097617
v 0.472585 -0.037500 0.070728
v 0.472585 -0.037500 0.070728
v 0.453272 -0.037500 0.160233
v 0.477973 -0.037500 -0.480198
v 0.477973 -0.037500 -0.480198
v 0.441006 -0.037500 -0.285632
v 0.433212 -0.037500 -0.170337
v 0.477973 -0.037500 0.521711
v 0.477973 -0.037500 0.521711
v 0.270960 -0.037500 -0.457254
v 0.147669 -0.037500 -0.454947
v 0.147551 -0.037500 0.550186
v 0.068482 -0.037500 -0.479134
v 0.068482 -0.037500 -0.479134
v 0.104745 -0.037500 0.419724
v 0.113177 -0.037500 0.360708
v 0.113177 -0.037500 0.360708
v 0.069072 -0.037498 0.532785
v 0.069072 -0.037498 0.532785
v 0.052279 -0.037500 0.325703
v 0.042813 -0.037500 -0.701508
v 0.106337 -0.037500 -0.676044
v 0.106337 -0.037500 -0.676044
v 0.100463 -0.037500 -0.614312
v 0.069209 -0.037500 0.484197
v 0.067098 -0.037500 -0.539207
v -0.039066 -0.037500 0.322100
v -0.050662 -0.037500 -0.689896
v -0.101704 -0.037500 0.354497
v -0.101704 -0.037500 0.354497
v -0.114310 -0.037500 -0.645906
v -0.096827 -0.037500 0.421759
v -0.067066 -0.037500 0.499460
v -0.075398 -0.037500 0.557415
v -0.075398 -0.037500 0.557415
v -0.164988 -0.037500 0.573917
v -0.108901 -0.037500 -0.577428
v -0.077405 -0.037500 -0.505074
v -0.083347 -0.037500 -0.452642
v -0.083347 -0.037500 -0.452642
v -0.170398 -0.037500 -0.436965
v -0.293496 -0.037500 0.049979
v -0.302440 -0.037500 -0.046996
v -0.327278 -0.037500 0.116701
v -0.327278 -0.037500 0.116701
v -0.351919 -0.037500 -0.115596
v -0.400184 -0.037500 0.114680
v -0.434697 -0.037500 -0.116789
v -0.485419 -0.037500 0.085974
v -0.523415 -0.037498 -0.089901
v -0.550390 -0.037500 0.092775
v -0.550390 -0.037500 0.092775
v -0.523726 -0.037498 0.521711
v -0.523726 -0.037498 0.521711
v -0.523726 -0.037500 -0.480198
v -0.523726 -0.037500 -0.480198
v -0.585670 -0.037500 -0.093854
v -0.585670 -0.037500 -0.093854
v -0.561322 -0.037500 0.306894
v -0.577970 -0.037500 -0.285790
v -0.571506 -0.037500 0.177927
v -0.598660 -0.037500 -0.169548
vt 0.500000 0.500000
vt 0.500000 0.500000
vt 0.500000 0.500000
vt 0.500000 0.500000
vt 0.500000 0.500000
vt 0.500000 0.500000
vt 0.500000 0.500000
vt 0.500000 0.500000
vt 0.500000 0.500000
vt 0.500000 0.500000
vt 0.500000 0.500000
vt 0.500000 0.500000
vt 0.500000 0.500000
vt 0.500000 0.500000
vt 0.500000 0.500000
vt 0.500000 0.500000
vt 0.500000 0.500000
vt 0.500000 0.500000
vt 0.500000 0.500000
vt 0.500000 0.500000
vt 0.500000 0.500000
vt 0.500000 0.500000
vt 0.500000 0.500000
vt 0.500000 0.500000
vt 0.500000 0.500000
vt 0.500000 0.500000
vt 0.500000 0.500000
vt 0.500000 0.500000
vt 0.500000 0.500000
vt 0.500000 0.500000
vt 0.500000 0.500000
vt 0.500000 0.500000
vt 0.500000 0.500000
vt 0.500000 0.500000
vt 0.500000 0.500000
vt 0.500000 0.500000
vt 0.500000 0.500000
vt 0.500000 0.500000
vt 0.500000 0.500000
vt 0.500000 0.500000
vt 0.500000 0.500000
vt 0.500000 0.500000
vt 0.500000 0.500000
vt 0.500000 0.500000
vt 0.500000 0.500000
vt 0.500000 0.500000
vt 0.500000 0.500000
vt 0.500000 0.500000
vt 0.500000 0.500000
vt 0.500000 0.500000
vt 0.500000 0.500000
vt 0.500000 0.500000
vt 0.500000 0.500000
vt 0.500000 0.500000
vt 0.500000 0.500000
vt 0.500000 0.500000
vt 0.500000 0.500000
vt 0.500000 0.500000
vt 0.500000 0.500000
vt 0.500000 0.500000
vt 0.500000 0.500000
vt 0.500000 0.500000
vt 0.500000 0.500000
vt 0.500000 0.500000
vt 0.500000 0.500000
vt 0.500000 0.500000
vt 0.500000 0.500000
vt 0.500000 0.500000
vt 0.500000 0.500000
vt 0.500000 0.500000
vt 0.500000 0.500000
vt 0.500000 0.500000
vt 0.500000 0.500000
vt 0.500000 0.500000
vt 0.500000 0.500000
vt 0.500000 0.500000
vt 0.500000 0.500000
vt 0.500000 0.500000
vt 0.500000 0.500000
vt 0.500000 0.500000
vt 0.500000 0.500000
vt 0.500000 0.500000
vt 0.500000 0.500000
vt 0.500000 0.500000
vt 0.500000 0.500000
vt 0.500000 0.500000
vt 0.500000 0.500000
vt 0.500000 0.500000
vt 0.500000 0.500000
vt 0.500000 0.500000
vt 0.500000 0.500000
vt 0.500000 0.500000
vt 0.500000 0.500000
vt 0.500000 0.500000
vt 0.500000 0.500000
vt 0.500000 0.500000
vt 0.500000 0.500000
vt 0.500000 0.500000
vt 0.500000 0.500000
vt 0.500000 0.500000
vt 0.500000 0.500000
vt 0.500000 0.500000
vt 0.500000 0.500000
vt 0.500000 0.500000
vt 0.500000 0.500000
vt 0.500000 0.500000
vt 0.500000 0.500000
vt 0.500000 0.500000
vt 0.500000 0.500000
vt 0.500000 0.500000
vt 0.500000 0.500000
vt 0.500000 0.500000
vt 0.500000 0.500000
vt 0.500000 0.500000
vt 0.500000 0.500000
vt 0.500000 0.500000
vt 0.500000 0.500000
vt 0.500000 0.500000
vt 0.500000 0.500000
vt 0.500000 0.500000
vt 0.500000 0.500000
vt 0.500000 0.500000
vt 0.500000 0.500000
vt 0.500000 0.500000
vt 0.500000 0.500000
vt 0.500000 0.500000
vt 0.500000 0.500000
vt 0.500000 0.500000
vt 0.500000 0.500000
vt 0.500000 0.500000
vt 0.500000 0.500000
vt 0.500000 0.500000
vt 0.500000 0.500000
vt 0.500000 0.500000
vt 0.500000 0.500000
vt 0.500000 0.500000
vt 0.500000 0.500000
vt 0.500000 0.500000
vt 0.500000 0.500000
vt 0.500000 0.500000
vt 0.500000 0.500000
vt 0.500000 0.500000
vt 0.500000 0.500000
vt 0.500000 0.500000
vt 0.500000 0.500000
vt 0.500000 0.500000
vt 0.500000 0.500000
vt 0.500000 0.500000
vt 0.500000 0.500000
vt 0.500000 0.500000
vt 0.500000 0.500000
vt 0.500000 0.500000
vt 0.500000 0.500000
vt 0.500000 0.500000
vt 0.500000 0.500000
vt 0.500000 0.500000
vt 0.500000 0.500000
vt 0.500000 0.500000
vt 0.500000 0.500000
vt 0.500000 0.500000
vt 0.500000 0.500000
vt 0.500000 0.500000
vt 0.500000 0.500000
vt 0.500000 0.500000
vt 0.500000 0.500000
vt 0.500000 0.500000
vt 0.500000 0.500000
vt 0.500000 0.500000
vt 0.500000 0.500000
vt 0.500000 0.500000
vt 0.500000 0.500000
vt 0.500000 0.500000
vt 0.500000 0.500000
vt 0.500000 0.500000
vt 0.500000 0.500000
vt 0.500000 0.500000
vt 0.500000 0.500000
vt 0.500000 0.500000
vt 0.500000 0.500000
vt 0.500000 0.500000
vt 0.500000 0.500000
vt 0.500000 0.500000
vt 0.500000 0.500000
vt 0.500000 0.500000
vt 0.500000 0.500000
vt 0.500000 0.500000
vt 0.500000 0.500000
vt 0.500000 0.500000
vt 0.500000 0.500000
vt 0.500000 0.500000
vt 0.500000 0.500000
vt 0.500000 0.500000
vt 0.500000 0.500000
vt 0.500000 0.500000
vt 0.500000 0.500000
vt 0.500000 0.500000
vt 0.500000 0.500000
vt 0.500000 0.500000
vt 0.500000 0.500000
vt 0.500000 0.500000
vt 0.500000 0.500000
vt 0.500000 0.500000
vt 0.526812 0.565626
vt 0.517639 0.551243
vt 0.526692 0.561827
vt 0.492637 0.565232
vt 0.493023 0.561344
vt 0.495538 0.567630
vt 0.530008 0.559424
vt 0.535070 0.556589
vt 0.532593 0.560662
vt 0.501438 0.556364
vt 0.512130 0.548813
vt 0.514412 0.550871
vt 0.494487 0.558697
vt 0.496765 0.558922
vt 0.500917 0.559985
vt 0.500840 0.569594
vt 0.533333 0.583333
vt 0.521307 0.582306
vt 0.527977 0.568159
vt 0.510309 0.581471
vt 0.526186 0.540103
vt 0.533333 0.541667
vt 0.527770 0.559221
vt 0.519859 0.549838
vt 0.506468 0.539410
vt 0.512091 0.545370
vt 0.519791 0.546806
vt 0.510335 0.538550
vt 0.529940 0.567809
vt 0.512678 0.585731
vt 0.512728 0.582603
vt 0.518096 0.585232
vt 0.511481 0.592815
vt 0.511581 0.589673
vt 0.513741 0.593905
vt 0.534281 0.569589
vt 0.498037 0.566243
vt 0.533702 0.566325
vt 0.532085 0.566330
vt 0.518329 0.583109
vt 0.500035 0.566300
vt 0.519122 0.588124
vt 0.519246 0.591002
vt 0.517007 0.593121
vt 0.518836 0.543260
vt 0.519063 0.540558
vt 0.521896 0.539679
vt 0.499172 0.560232
vt 0.534521 0.560315
vt 0.500000 0.541667
vt 0.512854 0.539090
vt 0.512985 0.541680
vt 0.493484 0.567875
vt 0.500763 0.574722
vt 0.506473 0.581796
vt 0.500000 0.583333
vn 0.0000 -1.0000 0.0000
vn 0.9330 0.0000 -0.3598
vn 0.9821 0.0000 0.1885
vn 0.7971 0.0000 0.6038
vn -0.0398 0.0000 -0.9992
vn -0.0539 0.0000 0.9985
vn -0.3286 0.0000 -0.9445
vn -0.4054 0.0000 0.9142
vn -0.0203 0.0000 -0.9998
vn 0.1360 0.0000 0.9907
vn 0.9775 0.0000 0.2109
vn 0.9824 0.0000 0.1867
vn 0.9366 0.0000 -0.3504
vn 0.9977 0.0000 -0.0682
vn 0.9977 0.0000 0.0674
vn -0.1102 0.0000 -0.9939
vn -0.0187 0.0000 -0.9998
vn 0.0859 0.0000 0.9963
vn 0.2921 0.0000 -0.9564
vn -0.9899 0.0000 -0.1414
vn -0.2165 0.0000 0.9763
vn -0.4984 0.0000 0.8670
vn 0.3721 0.0000 -0.9282
vn 0.9955 0.0000 0.0947
vn -0.8758 0.0000 -0.4827
vn -1.0000 0.0000 -0.0028
vn 0.9139 0.0000 0.4060
vn 0.9997 0.0000 -0.0230
vn -0.0394 0.0000 0.9992
vn -0.1233 0.0000 -0.9924
vn 0.4594 0.0000 0.8882
vn -0.5686 0.0000 -0.8226
vn 0.9338 0.0000 -0.3577
vn 0.9898 0.0000 0.1423
vn 0.1812 0.0000 0.9835
vn -0.9969 0.0000 0.0787
vn -0.9169 0.0000 0.3991
vn -0.9936 0.0000 -0.1126
vn -0.1772 0.0000 -0.9842
vn 0.9974 0.0000 -0.0723
vn -0.9958 0.0000 0.0918
vn -0.8922 0.0000 -0.4517
vn -0.8110 0.0000 0.5850
vn 0.0277 0.0000 -0.9996
vn -0.0144 0.0000 0.9999
vn 0.3192 0.0000 -0.9477
vn 0.2900 0.0000 0.9570
vn -0.1041 0.0000 -0.9946
vn -0.1440 0.0000 0.9896
vn 0.1215 0.0000 -0.9926
vn -0.0634 0.0000 0.9980
vn -0.9850 0.0000 0.1724
vn -0.9632 0.0000 -0.2688
vn -0.9706 0.0000 -0.2407
vn -0.9845 0.0000 -0.1752
vn -0.9856 0.0000 0.1691
vn 0.0000 1.0000 0.0000
usemtl BackMat.001
s off
f 216/1/1 223/2/1 238/3/1
f 217/4/1 220/5/1 224/6/1
f 228/7/1 229/8/1 232/9/1
f 237/10/1 239/11/1 242/12/1
f 227/13/1 224/6/1 233/14/1
f 235/15/1 207/16/1 239/11/1
f 204/17/1 212/18/1 199/19/1
f 203/20/1 216/1/1 239/11/1
f 255/21/1 225/22/1 249/23/1
f 238/3/1 223/2/1 240/24/1
f 240/24/1 225/22/1 255/21/1
f 242/12/1 244/25/1 256/26/1
f 240/24/1 255/21/1 243/27/1
f 256/26/1 244/25/1 258/28/1
f 249/23/1 228/7/1 232/9/1
f 211/29/1 212/18/1 204/17/1
f 193/30/1 194/31/1 195/32/1
f 249/23/1 225/22/1 228/7/1
f 186/33/1 188/34/1 191/35/1
f 208/36/1 211/29/1 204/17/1
f 224/6/1 222/37/1 233/14/1
f 214/38/1 221/39/1 208/36/1
f 197/40/1 216/1/1 195/32/1
f 209/41/1 207/16/1 235/15/1
f 192/42/1 189/43/1 190/44/1
f 189/43/1 192/42/1 193/30/1
f 222/37/1 224/6/1 220/5/1
f 239/11/1 216/1/1 238/3/1
f 245/45/1 257/46/1 247/47/1
f 199/19/1 216/1/1 197/40/1
f 207/16/1 203/20/1 239/11/1
f 222/37/1 209/41/1 234/48/1
f 233/14/1 222/37/1 234/48/1
f 194/31/1 193/30/1 192/42/1
f 232/9/1 229/8/1 230/49/1
f 195/32/1 216/1/1 203/20/1
f 199/19/1 212/18/1 216/1/1
f 235/15/1 239/11/1 237/10/1
f 237/10/1 242/12/1 251/50/1
f 251/50/1 242/12/1 256/26/1
f 253/51/1 258/28/1 246/52/1
f 191/35/1 189/43/1 193/30/1
f 240/24/1 223/2/1 225/22/1
f 243/27/1 255/21/1 257/46/1
f 191/35/1 188/34/1 189/43/1
f 218/53/1 220/5/1 217/4/1
f 206/54/1 203/20/1 207/16/1
f 194/31/1 197/40/1 195/32/1
f 246/52/1 258/28/1 244/25/1
f 211/29/1 208/36/1 221/39/1
f 243/27/1 257/46/1 245/45/1
f 234/48/1 209/41/1 235/15/1
f 202/55/1 203/20/1 206/54/1
f 202/55/1 206/54/1 200/56/1
f 114/57/2 21/58/2 77/59/2 187/60/2
f 21/58/3 22/61/3 78/62/3 77/59/3
f 22/61/4 23/63/4 79/64/4 78/62/4
f 19/65/5 20/66/5 76/67/5 75/68/5
f 23/63/6 24/69/6 80/70/6 79/64/6
f 18/71/7 19/65/7 75/68/7 74/72/7
f 24/69/8 25/73/8 81/74/8 80/70/8
f 123/75/9 18/71/9 74/72/9 196/76/9
f 25/73/10 125/77/10 198/78/10 81/74/10
f 26/79/11 27/80/11 83/81/11 82/82/11
f 128/83/12 15/84/12 71/85/12 201/86/12
f 16/87/13 17/88/13 73/89/13 72/90/13
f 27/80/14 132/91/14 205/92/14 83/81/14
f 15/84/15 16/87/15 72/90/15 71/85/15
f 13/93/16 14/94/16 70/95/16 69/96/16
f 12/97/17 13/93/17 69/96/17 68/98/17
f 28/99/18 29/100/18 85/101/18 84/102/18
f 137/103/19 12/97/19 68/98/19 210/104/19
f 32/105/20 140/106/20 213/107/20 88/108/20
f 29/100/21 142/109/21 215/110/21 85/101/21
f 33/111/22 34/112/22 90/113/22 89/114/22
f 7/115/23 146/116/23 219/117/23 63/118/23
f 8/119/24 9/120/24 65/121/24 64/122/24
f 31/123/25 32/105/25 88/108/25 87/124/25
f 30/125/26 31/123/26 87/124/26 86/126/26
f 9/120/27 10/127/27 66/128/27 65/121/27
f 10/127/28 11/129/28 67/130/28 66/128/28
f 34/112/29 35/131/29 91/132/29 90/113/29
f 6/133/30 7/115/30 63/118/30 62/134/30
f 35/131/31 153/135/31 226/136/31 91/132/31
f 5/137/32 6/133/32 62/134/32 61/138/32
f 37/139/33 38/140/33 94/141/33 93/142/33
f 38/140/34 158/143/34 231/144/34 94/141/34
f 39/145/35 40/146/35 96/147/35 95/148/35
f 4/149/36 5/137/36 61/138/36 60/150/36
f 3/151/37 4/149/37 60/150/37 59/152/37
f 163/153/38 3/151/38 59/152/38 236/154/38
f 1/155/39 2/156/39 58/157/39 57/158/39
f 36/159/40 37/139/40 93/142/40 92/160/40
f 48/161/41 49/162/41 105/163/41 104/164/41
f 168/165/42 48/161/42 104/164/42 241/166/42
f 49/162/43 50/167/43 106/168/43 105/163/43
f 46/169/44 47/170/44 103/171/44 102/172/44
f 50/167/45 51/173/45 107/174/45 106/168/45
f 45/175/46 46/169/46 102/172/46 101/176/46
f 51/173/47 52/177/47 108/178/47 107/174/47
f 175/179/48 45/175/48 101/176/48 248/180/48
f 40/146/49 177/181/49 250/182/49 96/147/49
f 179/183/50 1/155/50 57/158/50 252/184/50
f 52/177/51 181/185/51 254/186/51 108/178/51
f 41/187/52 42/188/52 98/189/52 97/190/52
f 55/191/53 56/192/53 112/193/53 111/194/53
f 43/195/54 44/196/54 100/197/54 99/198/54
f 42/188/36 43/195/36 99/198/36 98/189/36
f 54/199/55 55/191/55 111/194/55 110/200/55
f 53/201/56 54/199/56 110/200/56 109/202/56
usemtl FrontMat.001
f 143/203/57 165/204/57 150/205/57
f 144/206/57 151/207/57 147/208/57
f 155/209/57 159/210/57 156/211/57
f 164/212/57 169/213/57 166/214/57
f 154/215/57 160/216/57 151/207/57
f 162/217/57 166/214/57 134/218/57
f 131/219/57 126/220/57 139/221/57
f 130/222/57 166/214/57 143/203/57
f 182/223/57 176/224/57 152/225/57
f 165/204/57 167/226/57 150/205/57
f 167/226/57 182/223/57 152/225/57
f 169/213/57 183/227/57 171/228/57
f 167/226/57 170/229/57 182/223/57
f 183/227/57 185/230/57 171/228/57
f 176/224/57 159/210/57 155/209/57
f 138/231/57 131/219/57 139/221/57
f 120/232/57 122/233/57 121/234/57
f 176/224/57 155/209/57 152/225/57
f 113/235/57 118/236/57 115/237/57
f 135/238/57 131/219/57 138/231/57
f 151/207/57 160/216/57 149/239/57
f 141/240/57 135/238/57 148/241/57
f 124/242/57 122/233/57 143/203/57
f 136/243/57 162/217/57 134/218/57
f 119/244/57 117/245/57 116/246/57
f 116/246/57 120/232/57 119/244/57
f 149/239/57 147/208/57 151/207/57
f 166/214/57 165/204/57 143/203/57
f 172/247/57 174/248/57 184/249/57
f 126/220/57 124/242/57 143/203/57
f 134/218/57 166/214/57 130/222/57
f 149/239/57 161/250/57 136/243/57
f 160/216/57 161/250/57 149/239/57
f 121/234/57 119/244/57 120/232/57
f 159/210/57 157/251/57 156/211/57
f 122/233/57 130/222/57 143/203/57
f 126/220/57 143/203/57 139/221/57
f 162/217/57 164/212/57 166/214/57
f 164/212/57 178/252/57 169/213/57
f 178/252/57 183/227/57 169/213/57
f 180/253/57 173/254/57 185/230/57
f 118/236/57 120/232/57 116/246/57
f 167/226/57 152/225/57 150/205/57
f 170/229/57 184/249/57 182/223/57
f 118/236/57 116/246/57 115/237/57
f 145/255/57 144/206/57 147/208/57
f 133/256/57 134/218/57 130/222/57
f 121/234/57 122/233/57 124/242/57
f 173/254/57 171/228/57 185/230/57
f 138/231/57 148/241/57 135/238/57
f 170/229/57 172/247/57 184/249/57
f 161/250/57 162/217/57 136/243/57
f 129/257/57 133/256/57 130/222/57
f 129/257/57 127/258/57 133/256/57
