# Blender v2.83.1 OBJ File: 'jigsaw-30x24-3-step2.blend'
# www.blender.org
mtllib piece.484.mtl
o path968
v -0.286650 0.037500 -0.469065
v -0.167036 0.037500 -0.468433
v -0.091799 0.037500 -0.497513
v -0.093900 0.037500 -0.566437
v -0.128982 0.037500 -0.651649
v -0.133353 0.037500 -0.721155
v -0.064500 0.037500 -0.749362
v 0.035395 0.037500 -0.736228
v 0.102975 0.037500 -0.688110
v 0.096597 0.037500 -0.614366
v 0.061474 0.037500 -0.536332
v 0.064534 0.037500 -0.478348
v 0.151968 0.037500 -0.457737
v 0.513249 0.037500 -0.491983
v 0.548027 0.037500 -0.299938
v 0.555530 0.037500 -0.184925
v 0.530429 0.037500 -0.109621
v 0.460095 0.037500 -0.104650
v 0.368541 0.037500 -0.129324
v 0.288942 0.037500 -0.125128
v 0.248845 0.037500 -0.053223
v 0.253288 0.037500 0.046606
v 0.301681 0.037500 0.114904
v 0.387823 0.037500 0.112619
v 0.483071 0.037500 0.082304
v 0.553167 0.037500 0.086916
v 0.573663 0.037500 0.169956
v 0.559332 0.037500 0.297153
v 0.513249 0.037500 0.509714
v 0.165694 0.037500 0.443260
v 0.077062 0.037500 0.455318
v 0.065240 0.037500 0.511868
v 0.089000 0.037500 0.593609
v 0.088186 0.037500 0.672876
v 0.022316 0.037500 0.725426
v -0.070410 0.037500 0.740711
v -0.132125 0.037500 0.711613
v -0.124860 0.037500 0.638187
v -0.090253 0.037500 0.549179
v -0.089844 0.037500 0.480511
v -0.166248 0.037500 0.458298
v -0.286386 0.037500 0.469385
v -0.488661 0.037500 0.509714
v -0.541008 0.037500 0.286741
v -0.558553 0.037500 0.153545
v -0.538948 0.037500 0.067102
v -0.466613 0.037500 0.063719
v -0.370398 0.037500 0.098612
v -0.290261 0.037500 0.106728
v -0.258028 0.037500 0.043871
v -0.272997 0.037500 -0.050802
v -0.326335 0.037500 -0.117281
v -0.406097 0.037500 -0.115652
v -0.487896 0.037500 -0.086405
v -0.544232 0.037500 -0.090126
v -0.555964 0.037500 -0.168756
v -0.488661 0.037500 -0.491983
v -0.286650 -0.037500 -0.469065
v -0.167036 -0.037500 -0.468433
v -0.091799 -0.037500 -0.497513
v -0.093900 -0.037500 -0.566437
v -0.128982 -0.037500 -0.651649
v -0.133353 -0.037498 -0.721155
v -0.064500 -0.037500 -0.749362
v 0.035395 -0.037500 -0.736228
v 0.102975 -0.037500 -0.688110
v 0.096597 -0.037498 -0.614366
v 0.061474 -0.037500 -0.536332
v 0.064534 -0.037500 -0.478348
v 0.151968 -0.037500 -0.457737
v 0.513249 -0.037498 -0.491983
v 0.548027 -0.037500 -0.299938
v 0.555530 -0.037500 -0.184925
v 0.530429 -0.037500 -0.109621
v 0.460095 -0.037500 -0.104650
v 0.368541 -0.037500 -0.129324
v 0.288942 -0.037500 -0.125128
v 0.248845 -0.037500 -0.053223
v 0.253288 -0.037500 0.046606
v 0.301681 -0.037500 0.114904
v 0.387823 -0.037500 0.112619
v 0.483071 -0.037500 0.082304
v 0.553167 -0.037498 0.086916
v 0.573663 -0.037500 0.169956
v 0.559332 -0.037498 0.297153
v 0.513249 -0.037500 0.509714
v 0.165694 -0.037500 0.443260
v 0.077062 -0.037500 0.455318
v 0.065240 -0.037498 0.511868
v 0.089000 -0.037498 0.593609
v 0.088186 -0.037500 0.672876
v 0.022316 -0.037500 0.725426
v -0.070410 -0.037500 0.740711
v -0.132125 -0.037498 0.711613
v -0.124860 -0.037500 0.638187
v -0.090253 -0.037500 0.549179
v -0.089844 -0.037500 0.480511
v -0.166248 -0.037500 0.458298
v -0.286386 -0.037498 0.469385
v -0.488661 -0.037500 0.509714
v -0.541008 -0.037500 0.286741
v -0.558553 -0.037500 0.153545
v -0.538948 -0.037500 0.067102
v -0.466613 -0.037498 0.063719
v -0.370398 -0.037498 0.098612
v -0.290261 -0.037500 0.106728
v -0.258028 -0.037500 0.043871
v -0.272997 -0.037500 -0.050802
v -0.326335 -0.037500 -0.117281
v -0.406097 -0.037500 -0.115652
v -0.487896 -0.037500 -0.086405
v -0.544232 -0.037500 -0.090126
v -0.555964 -0.037500 -0.168756
v -0.488661 -0.037500 -0.491983
v -0.133353 0.037500 -0.721155
v -0.133353 0.037500 -0.721155
v -0.064500 0.037500 -0.749362
v 0.035395 0.037500 -0.736228
v 0.102975 0.037500 -0.688110
v -0.128982 0.037500 -0.651649
v 0.096597 0.037500 -0.614366
v -0.093900 0.037500 -0.566437
v 0.061474 0.037500 -0.536332
v -0.091799 0.037500 -0.497513
v -0.091799 0.037500 -0.497513
v 0.064534 0.037500 -0.478348
v 0.064534 0.037500 -0.478348
v -0.167036 0.037500 -0.468433
v -0.488661 0.037500 -0.491983
v -0.488661 0.037500 -0.491983
v -0.286650 0.037500 -0.469065
v 0.151968 0.037500 -0.457737
v 0.513249 0.037500 -0.491983
v 0.513249 0.037500 -0.491983
v 0.548027 0.037500 -0.299938
v 0.555530 0.037500 -0.184925
v -0.555964 0.037500 -0.168756
v 0.530429 0.037500 -0.109621
v 0.530429 0.037500 -0.109621
v -0.544232 0.037500 -0.090126
v -0.544232 0.037500 -0.090126
v -0.326335 0.037500 -0.117281
v -0.406097 0.037500 -0.115652
v 0.368541 0.037500 -0.129324
v 0.288942 0.037500 -0.125128
v 0.460095 0.037500 -0.104650
v 0.248845 0.037500 -0.053223
v -0.272997 0.037500 -0.050802
v -0.487896 0.037500 -0.086405
v 0.253288 0.037500 0.046606
v -0.258028 0.037500 0.043871
v -0.290261 0.037500 0.106728
v -0.290261 0.037500 0.106728
v 0.301681 0.037500 0.114904
v -0.538948 0.037500 0.067102
v -0.538948 0.037500 0.067102
v -0.466613 0.037500 0.063719
v -0.370398 0.037500 0.098612
v -0.558553 0.037500 0.153545
v 0.387823 0.037500 0.112619
v 0.483071 0.037500 0.082304
v 0.553167 0.037500 0.086916
v 0.553167 0.037500 0.086916
v 0.573663 0.037500 0.169956
v -0.541008 0.037500 0.286741
v 0.559332 0.037500 0.297153
v -0.488661 0.037500 0.509714
v -0.488661 0.037500 0.509714
v -0.166248 0.037500 0.458298
v -0.286386 0.037500 0.469385
v 0.165694 0.037500 0.443260
v 0.077062 0.037500 0.455318
v 0.077062 0.037500 0.455318
v 0.065240 0.037500 0.511868
v -0.089844 0.037500 0.480511
v -0.089844 0.037500 0.480511
v -0.090253 0.037500 0.549179
v 0.513249 0.037500 0.509714
v 0.513249 0.037500 0.509714
v 0.089000 0.037500 0.593609
v -0.124860 0.037500 0.638187
v 0.088186 0.037500 0.672876
v -0.132125 0.037500 0.711613
v -0.132125 0.037500 0.711613
v 0.022316 0.037500 0.725426
v -0.070410 0.037500 0.740711
v -0.133353 -0.037498 -0.721155
v -0.133353 -0.037498 -0.721155
v -0.064500 -0.037500 -0.749362
v 0.035395 -0.037500 -0.736228
v 0.102975 -0.037500 -0.688110
v -0.128982 -0.037500 -0.651649
v 0.096597 -0.037498 -0.614366
v -0.093900 -0.037500 -0.566437
v 0.061474 -0.037500 -0.536332
v -0.091799 -0.037500 -0.497513
v -0.091799 -0.037500 -0.497513
v 0.064534 -0.037500 -0.478348
v 0.064534 -0.037500 -0.478348
v -0.167036 -0.037500 -0.468433
v -0.488661 -0.037500 -0.491983
v -0.488661 -0.037500 -0.491983
v -0.286650 -0.037500 -0.469065
v 0.151968 -0.037500 -0.457737
v 0.513249 -0.037498 -0.491983
v 0.513249 -0.037498 -0.491983
v 0.548027 -0.037500 -0.299938
v 0.555530 -0.037500 -0.184925
v -0.555964 -0.037500 -0.168756
v 0.530429 -0.037500 -0.109621
v 0.530429 -0.037500 -0.109621
v -0.544232 -0.037500 -0.090126
v -0.544232 -0.037500 -0.090126
v -0.326335 -0.037500 -0.117281
v -0.406097 -0.037500 -0.115652
v 0.368541 -0.037500 -0.129324
v 0.288942 -0.037500 -0.125128
v 0.460095 -0.037500 -0.104650
v 0.248845 -0.037500 -0.053223
v -0.272997 -0.037500 -0.050802
v -0.487896 -0.037500 -0.086405
v 0.253288 -0.037500 0.046606
v -0.258028 -0.037500 0.043871
v -0.290261 -0.037500 0.106728
v -0.290261 -0.037500 0.106728
v 0.301681 -0.037500 0.114904
v -0.538948 -0.037500 0.067102
v -0.538948 -0.037500 0.067102
v -0.466613 -0.037498 0.063719
v -0.370398 -0.037498 0.098612
v -0.558553 -0.037500 0.153545
v 0.387823 -0.037500 0.112619
v 0.483071 -0.037500 0.082304
v 0.553167 -0.037498 0.086916
v 0.553167 -0.037498 0.086916
v 0.573663 -0.037500 0.169956
v -0.541008 -0.037500 0.286741
v 0.559332 -0.037498 0.297153
v -0.488661 -0.037500 0.509714
v -0.488661 -0.037500 0.509714
v -0.166248 -0.037500 0.458298
v -0.286386 -0.037498 0.469385
v 0.165694 -0.037500 0.443260
v 0.077062 -0.037500 0.455318
v 0.077062 -0.037500 0.455318
v 0.065240 -0.037498 0.511868
v -0.089844 -0.037500 0.480511
v -0.089844 -0.037500 0.480511
v -0.090253 -0.037500 0.549179
v 0.513249 -0.037500 0.509714
v 0.513249 -0.037500 0.509714
v 0.089000 -0.037498 0.593609
v -0.124860 -0.037500 0.638187
v 0.088186 -0.037500 0.672876
v -0.132125 -0.037498 0.711613
v -0.132125 -0.037498 0.711613
v 0.022316 -0.037500 0.725426
v -0.070410 -0.037500 0.740711
vt 0.500000 0.500000
vt 0.500000 0.500000
vt 0.500000 0.500000
vt 0.500000 0.500000
vt 0.500000 0.500000
vt 0.500000 0.500000
vt 0.500000 0.500000
vt 0.500000 0.500000
vt 0.500000 0.500000
vt 0.500000 0.500000
vt 0.500000 0.500000
vt 0.500000 0.500000
vt 0.500000 0.500000
vt 0.500000 0.500000
vt 0.500000 0.500000
vt 0.500000 0.500000
vt 0.500000 0.500000
vt 0.500000 0.500000
vt 0.500000 0.500000
vt 0.500000 0.500000
vt 0.500000 0.500000
vt 0.500000 0.500000
vt 0.500000 0.500000
vt 0.500000 0.500000
vt 0.500000 0.500000
vt 0.500000 0.500000
vt 0.500000 0.500000
vt 0.500000 0.500000
vt 0.500000 0.500000
vt 0.500000 0.500000
vt 0.500000 0.500000
vt 0.500000 0.500000
vt 0.500000 0.500000
vt 0.500000 0.500000
vt 0.500000 0.500000
vt 0.500000 0.500000
vt 0.500000 0.500000
vt 0.500000 0.500000
vt 0.500000 0.500000
vt 0.500000 0.500000
vt 0.500000 0.500000
vt 0.500000 0.500000
vt 0.500000 0.500000
vt 0.500000 0.500000
vt 0.500000 0.500000
vt 0.500000 0.500000
vt 0.500000 0.500000
vt 0.500000 0.500000
vt 0.500000 0.500000
vt 0.500000 0.500000
vt 0.500000 0.500000
vt 0.500000 0.500000
vt 0.500000 0.500000
vt 0.500000 0.500000
vt 0.500000 0.500000
vt 0.500000 0.500000
vt 0.500000 0.500000
vt 0.500000 0.500000
vt 0.500000 0.500000
vt 0.500000 0.500000
vt 0.500000 0.500000
vt 0.500000 0.500000
vt 0.500000 0.500000
vt 0.500000 0.500000
vt 0.500000 0.500000
vt 0.500000 0.500000
vt 0.500000 0.500000
vt 0.500000 0.500000
vt 0.500000 0.500000
vt 0.500000 0.500000
vt 0.500000 0.500000
vt 0.500000 0.500000
vt 0.500000 0.500000
vt 0.500000 0.500000
vt 0.500000 0.500000
vt 0.500000 0.500000
vt 0.500000 0.500000
vt 0.500000 0.500000
vt 0.500000 0.500000
vt 0.500000 0.500000
vt 0.500000 0.500000
vt 0.500000 0.500000
vt 0.500000 0.500000
vt 0.500000 0.500000
vt 0.500000 0.500000
vt 0.500000 0.500000
vt 0.500000 0.500000
vt 0.500000 0.500000
vt 0.500000 0.500000
vt 0.500000 0.500000
vt 0.500000 0.500000
vt 0.500000 0.500000
vt 0.500000 0.500000
vt 0.500000 0.500000
vt 0.500000 0.500000
vt 0.500000 0.500000
vt 0.500000 0.500000
vt 0.500000 0.500000
vt 0.500000 0.500000
vt 0.500000 0.500000
vt 0.500000 0.500000
vt 0.500000 0.500000
vt 0.500000 0.500000
vt 0.500000 0.500000
vt 0.500000 0.500000
vt 0.500000 0.500000
vt 0.500000 0.500000
vt 0.500000 0.500000
vt 0.500000 0.500000
vt 0.500000 0.500000
vt 0.500000 0.500000
vt 0.500000 0.500000
vt 0.500000 0.500000
vt 0.500000 0.500000
vt 0.500000 0.500000
vt 0.500000 0.500000
vt 0.500000 0.500000
vt 0.500000 0.500000
vt 0.500000 0.500000
vt 0.500000 0.500000
vt 0.500000 0.500000
vt 0.500000 0.500000
vt 0.500000 0.500000
vt 0.500000 0.500000
vt 0.500000 0.500000
vt 0.500000 0.500000
vt 0.500000 0.500000
vt 0.500000 0.500000
vt 0.500000 0.500000
vt 0.500000 0.500000
vt 0.500000 0.500000
vt 0.500000 0.500000
vt 0.500000 0.500000
vt 0.500000 0.500000
vt 0.500000 0.500000
vt 0.500000 0.500000
vt 0.500000 0.500000
vt 0.500000 0.500000
vt 0.500000 0.500000
vt 0.500000 0.500000
vt 0.500000 0.500000
vt 0.500000 0.500000
vt 0.500000 0.500000
vt 0.500000 0.500000
vt 0.500000 0.500000
vt 0.500000 0.500000
vt 0.500000 0.500000
vt 0.500000 0.500000
vt 0.500000 0.500000
vt 0.500000 0.500000
vt 0.500000 0.500000
vt 0.500000 0.500000
vt 0.500000 0.500000
vt 0.500000 0.500000
vt 0.500000 0.500000
vt 0.500000 0.500000
vt 0.500000 0.500000
vt 0.500000 0.500000
vt 0.500000 0.500000
vt 0.500000 0.500000
vt 0.500000 0.500000
vt 0.500000 0.500000
vt 0.500000 0.500000
vt 0.500000 0.500000
vt 0.500000 0.500000
vt 0.500000 0.500000
vt 0.500000 0.500000
vt 0.500000 0.500000
vt 0.500000 0.500000
vt 0.500000 0.500000
vt 0.500000 0.500000
vt 0.500000 0.500000
vt 0.500000 0.500000
vt 0.500000 0.500000
vt 0.500000 0.500000
vt 0.500000 0.500000
vt 0.500000 0.500000
vt 0.500000 0.500000
vt 0.500000 0.500000
vt 0.500000 0.500000
vt 0.500000 0.500000
vt 0.500000 0.500000
vt 0.500000 0.500000
vt 0.500000 0.500000
vt 0.500000 0.500000
vt 0.500000 0.500000
vt 0.500000 0.500000
vt 0.500000 0.500000
vt 0.500000 0.500000
vt 0.500000 0.500000
vt 0.500000 0.500000
vt 0.500000 0.500000
vt 0.500000 0.500000
vt 0.500000 0.500000
vt 0.500000 0.500000
vt 0.500000 0.500000
vt 0.500000 0.500000
vt 0.500000 0.500000
vt 0.500000 0.500000
vt 0.500000 0.500000
vt 0.500000 0.500000
vt 0.119471 0.338424
vt 0.119684 0.341491
vt 0.117435 0.343493
vt 0.134866 0.300508
vt 0.129160 0.308184
vt 0.126295 0.308089
vt 0.135343 0.305799
vt 0.134661 0.309253
vt 0.132329 0.309445
vt 0.110700 0.332354
vt 0.118405 0.332766
vt 0.113204 0.333563
vt 0.107175 0.314982
vt 0.124537 0.315083
vt 0.113269 0.292881
vt 0.113255 0.290025
vt 0.118428 0.291577
vt 0.134490 0.325345
vt 0.121314 0.331909
vt 0.128519 0.318248
vt 0.131565 0.317222
vt 0.134740 0.320561
vt 0.133333 0.333333
vt 0.110727 0.293805
vt 0.106601 0.308429
vt 0.107673 0.311044
vt 0.124684 0.310930
vt 0.133905 0.317429
vt 0.106721 0.332380
vt 0.105401 0.317747
vt 0.113134 0.336430
vt 0.118303 0.335178
vt 0.118821 0.293929
vt 0.121770 0.294431
vt 0.111862 0.283268
vt 0.113915 0.282058
vt 0.112104 0.286323
vt 0.102747 0.317679
vt 0.111821 0.342866
vt 0.111966 0.339975
vt 0.114112 0.344039
vt 0.117000 0.282694
vt 0.119219 0.288177
vt 0.133333 0.291667
vt 0.106730 0.293344
vt 0.125871 0.318074
vt 0.097675 0.306482
vt 0.098258 0.300941
vt 0.103935 0.308767
vt 0.098327 0.310077
vt 0.100734 0.310218
vt 0.097761 0.319888
vt 0.100000 0.333333
vt 0.098151 0.316618
vt 0.100025 0.316463
vt 0.100000 0.291667
vt 0.119192 0.284880
vn -0.0000 -1.0000 0.0000
vn -0.3791 0.0000 -0.9254
vn 0.1304 0.0000 -0.9915
vn 0.5800 0.0000 -0.8146
vn -0.9980 0.0000 0.0628
vn 0.9963 0.0000 0.0862
vn -0.9247 0.0000 0.3807
vn 0.9119 0.0000 0.4104
vn -0.9995 0.0000 0.0305
vn 0.9986 0.0000 -0.0527
vn -0.3605 0.0000 -0.9328
vn 0.1127 0.0000 -0.9936
vn 0.2294 0.0000 -0.9733
vn 0.0053 0.0000 -1.0000
vn -0.0944 0.0000 -0.9955
vn 0.9840 0.0000 -0.1782
vn 0.9979 0.0000 -0.0651
vn -0.9790 0.0000 -0.2039
vn 0.9487 0.0000 0.3162
vn -0.9891 0.0000 0.1476
vn 0.0204 0.0000 0.9998
vn 0.0526 0.0000 0.9986
vn -0.2602 0.0000 0.9656
vn 0.0705 0.0000 0.9975
vn 0.8734 0.0000 0.4870
vn -0.7800 0.0000 0.6258
vn -0.0659 0.0000 0.9978
vn 0.3367 0.0000 0.9416
vn 0.9990 0.0000 -0.0445
vn -0.9877 0.0000 0.1562
vn -0.8898 0.0000 -0.4563
vn 0.8159 0.0000 -0.5781
vn -0.0467 0.0000 -0.9989
vn 0.3409 0.0000 -0.9401
vn -0.9752 0.0000 -0.2212
vn -0.3033 0.0000 -0.9529
vn 0.0657 0.0000 -0.9978
vn 0.9709 0.0000 -0.2396
vn 0.1008 0.0000 -0.9949
vn -0.0265 0.0000 -0.9996
vn -0.9914 0.0000 0.1306
vn 0.9937 0.0000 0.1120
vn -0.9735 0.0000 0.2286
vn 0.0919 0.0000 0.9958
vn 0.1348 0.0000 0.9909
vn 0.9788 0.0000 0.2046
vn -0.2792 0.0000 0.9602
vn -1.0000 0.0000 -0.0060
vn -0.1878 0.0000 0.9822
vn 0.9773 0.0000 0.2119
vn 0.1955 0.0000 0.9807
vn 0.9603 0.0000 -0.2791
vn -0.9320 0.0000 -0.3624
vn 0.9999 0.0000 0.0103
vn -0.9951 0.0000 -0.0985
vn 0.6236 0.0000 0.7817
vn -0.4265 0.0000 0.9045
vn 0.1626 0.0000 0.9867
vn 0.0000 1.0000 0.0000
usemtl BackMat.001
s off
f 193/1/1 190/2/1 191/3/1
f 238/4/1 226/5/1 232/6/1
f 236/7/1 233/8/1 234/9/1
f 200/10/1 196/11/1 198/12/1
f 220/13/1 198/12/1 219/14/1
f 247/15/1 246/16/1 249/17/1
f 207/18/1 216/19/1 204/20/1
f 216/19/1 208/21/1 218/22/1
f 207/18/1 204/20/1 205/23/1
f 208/21/1 216/19/1 207/18/1
f 241/24/1 224/25/1 247/15/1
f 223/26/1 219/14/1 222/27/1
f 218/22/1 208/21/1 210/28/1
f 200/10/1 214/29/1 203/30/1
f 194/31/1 195/32/1 196/11/1
f 200/10/1 198/12/1 220/13/1
f 244/33/1 226/5/1 243/34/1
f 255/35/1 253/36/1 258/37/1
f 215/38/1 203/30/1 214/29/1
f 224/25/1 223/26/1 244/33/1
f 247/15/1 244/33/1 246/16/1
f 247/15/1 224/25/1 244/33/1
f 187/39/1 189/40/1 192/41/1
f 243/34/1 226/5/1 238/4/1
f 257/42/1 249/17/1 252/43/1
f 220/13/1 219/14/1 223/26/1
f 243/34/1 238/4/1 250/44/1
f 241/24/1 242/45/1 224/25/1
f 217/46/1 204/20/1 216/19/1
f 231/47/1 230/48/1 237/49/1
f 227/50/1 229/51/1 231/47/1
f 196/11/1 195/32/1 198/12/1
f 193/1/1 194/31/1 190/2/1
f 189/40/1 190/2/1 192/41/1
f 244/33/1 222/27/1 226/5/1
f 232/6/1 233/8/1 236/7/1
f 219/14/1 198/12/1 217/46/1
f 238/4/1 232/6/1 236/7/1
f 209/52/1 201/53/1 215/38/1
f 195/32/1 194/31/1 193/1/1
f 230/48/1 224/25/1 242/45/1
f 212/54/1 209/52/1 221/55/1
f 237/49/1 242/45/1 239/56/1
f 230/48/1 231/47/1 229/51/1
f 258/37/1 253/36/1 257/42/1
f 252/43/1 249/17/1 246/16/1
f 257/42/1 252/43/1 254/57/1
f 237/49/1 230/48/1 242/45/1
f 203/30/1 215/38/1 201/53/1
f 204/20/1 217/46/1 198/12/1
f 249/17/1 257/42/1 253/36/1
f 192/41/1 190/2/1 194/31/1
f 223/26/1 222/27/1 244/33/1
f 221/55/1 209/52/1 215/38/1
f 214/29/1 200/10/1 220/13/1
f 116/58/2 7/59/2 64/60/2 188/61/2
f 7/59/3 8/62/3 65/63/3 64/60/3
f 8/62/4 9/64/4 66/65/4 65/63/4
f 5/66/5 6/67/5 63/68/5 62/69/5
f 9/64/6 10/70/6 67/71/6 66/65/6
f 4/72/7 5/66/7 62/69/7 61/73/7
f 10/70/8 11/74/8 68/75/8 67/71/8
f 125/76/9 4/72/9 61/73/9 197/77/9
f 11/74/10 127/78/10 199/79/10 68/75/10
f 2/80/11 3/81/11 60/82/11 59/83/11
f 130/84/12 1/85/12 58/86/12 202/87/12
f 12/88/13 13/89/13 70/90/13 69/91/13
f 1/85/14 2/80/14 59/83/14 58/86/14
f 13/89/15 134/92/15 206/93/15 70/90/15
f 14/94/16 15/95/16 72/96/16 71/97/16
f 15/95/17 16/98/17 73/99/17 72/96/17
f 56/100/18 57/101/18 114/102/18 113/103/18
f 16/98/19 139/104/19 211/105/19 73/99/19
f 141/106/20 56/100/20 113/103/20 213/107/20
f 52/108/21 53/109/21 110/110/21 109/111/21
f 19/112/22 20/113/22 77/114/22 76/115/22
f 18/116/23 19/112/23 76/115/23 75/117/23
f 17/118/24 18/116/24 75/117/24 74/119/24
f 20/113/25 21/120/25 78/121/25 77/114/25
f 51/122/26 52/108/26 109/111/26 108/123/26
f 54/124/27 55/125/27 112/126/27 111/127/27
f 53/109/28 54/124/28 111/127/28 110/110/28
f 21/120/29 22/128/29 79/129/29 78/121/29
f 50/130/30 51/122/30 108/123/30 107/131/30
f 153/132/31 50/130/31 107/131/31 225/133/31
f 22/128/32 23/134/32 80/135/32 79/129/32
f 156/136/33 47/137/33 104/138/33 228/139/33
f 47/137/34 48/140/34 105/141/34 104/138/34
f 45/142/35 46/143/35 103/144/35 102/145/35
f 24/146/36 25/147/36 82/148/36 81/149/36
f 25/147/37 163/150/37 235/151/37 82/148/37
f 26/152/38 27/153/38 84/154/38 83/155/38
f 48/140/39 49/156/39 106/157/39 105/141/39
f 23/134/40 24/146/40 81/149/40 80/135/40
f 44/158/41 45/142/41 102/145/41 101/159/41
f 27/153/42 28/160/42 85/161/42 84/154/42
f 168/162/43 44/158/43 101/159/43 240/163/43
f 41/164/44 42/165/44 99/166/44 98/167/44
f 30/168/45 173/169/45 245/170/45 87/171/45
f 31/172/46 32/173/46 89/174/46 88/175/46
f 176/176/47 41/164/47 98/167/47 248/177/47
f 39/178/48 40/179/48 97/180/48 96/181/48
f 179/182/49 30/168/49 87/171/49 251/183/49
f 28/160/50 29/184/50 86/185/50 85/161/50
f 42/165/51 43/186/51 100/187/51 99/166/51
f 32/173/52 33/188/52 90/189/52 89/174/52
f 38/190/53 39/178/53 96/181/53 95/191/53
f 33/188/54 34/192/54 91/193/54 90/189/54
f 184/194/55 38/190/55 95/191/55 256/195/55
f 34/192/56 35/196/56 92/197/56 91/193/56
f 36/198/57 37/199/57 94/200/57 93/201/57
f 35/196/58 36/198/58 93/201/58 92/197/58
usemtl FrontMat.001
f 121/202/59 119/203/59 118/204/59
f 166/205/59 160/206/59 154/207/59
f 164/208/59 162/209/59 161/210/59
f 128/211/59 126/212/59 124/213/59
f 148/214/59 147/215/59 126/212/59
f 175/216/59 177/217/59 174/218/59
f 135/219/59 132/220/59 144/221/59
f 144/221/59 146/222/59 136/223/59
f 135/219/59 133/224/59 132/220/59
f 136/223/59 135/219/59 144/221/59
f 169/225/59 175/216/59 152/226/59
f 151/227/59 150/228/59 147/215/59
f 146/222/59 138/229/59 136/223/59
f 128/211/59 131/230/59 142/231/59
f 122/232/59 124/213/59 123/233/59
f 128/211/59 148/214/59 126/212/59
f 172/234/59 171/235/59 154/207/59
f 183/236/59 186/237/59 181/238/59
f 143/239/59 142/231/59 131/230/59
f 152/226/59 172/234/59 151/227/59
f 175/216/59 174/218/59 172/234/59
f 175/216/59 172/234/59 152/226/59
f 115/240/59 120/241/59 117/242/59
f 171/235/59 166/205/59 154/207/59
f 185/243/59 180/244/59 177/217/59
f 148/214/59 151/227/59 147/215/59
f 171/235/59 178/245/59 166/205/59
f 169/225/59 152/226/59 170/246/59
f 145/247/59 144/221/59 132/220/59
f 159/248/59 165/249/59 158/250/59
f 155/251/59 159/248/59 157/252/59
f 124/213/59 126/212/59 123/233/59
f 121/202/59 118/204/59 122/232/59
f 117/242/59 120/241/59 118/204/59
f 172/234/59 154/207/59 150/228/59
f 160/206/59 164/208/59 161/210/59
f 147/215/59 145/247/59 126/212/59
f 166/205/59 164/208/59 160/206/59
f 137/253/59 143/239/59 129/254/59
f 123/233/59 121/202/59 122/232/59
f 158/250/59 170/246/59 152/226/59
f 140/255/59 149/256/59 137/253/59
f 165/249/59 167/257/59 170/246/59
f 158/250/59 157/252/59 159/248/59
f 186/237/59 185/243/59 181/238/59
f 180/244/59 174/218/59 177/217/59
f 185/243/59 182/258/59 180/244/59
f 165/249/59 170/246/59 158/250/59
f 131/230/59 129/254/59 143/239/59
f 132/220/59 126/212/59 145/247/59
f 177/217/59 181/238/59 185/243/59
f 120/241/59 122/232/59 118/204/59
f 151/227/59 172/234/59 150/228/59
f 149/256/59 143/239/59 137/253/59
f 142/231/59 148/214/59 128/211/59
