# Blender v2.83.1 OBJ File: 'jigsaw-64x36-3-step2.blend'
# www.blender.org
mtllib piece.1275.mtl
o path7166
v -0.571110 0.037500 0.147919
v -0.559570 0.037500 0.062773
v -0.501568 0.037500 0.060125
v -0.417370 0.037500 0.095186
v -0.336052 0.037500 0.102982
v -0.282825 0.037500 0.039305
v -0.267433 0.037500 -0.056982
v -0.295765 0.037500 -0.126249
v -0.367001 0.037500 -0.128616
v -0.453484 0.037500 -0.103209
v -0.520851 0.037500 -0.108898
v -0.544048 0.037500 -0.186491
v -0.535347 0.037500 -0.304531
v -0.499432 0.037500 -0.501398
v -0.299343 0.037500 -0.533461
v -0.180622 0.037500 -0.540667
v -0.105389 0.037500 -0.518356
v -0.106323 0.037500 -0.455215
v -0.140648 0.037500 -0.373844
v -0.146713 0.037500 -0.305325
v -0.083145 0.037500 -0.274864
v 0.010326 0.037500 -0.284136
v 0.073685 0.037500 -0.328936
v 0.067692 0.037500 -0.401371
v 0.036243 0.037500 -0.478785
v 0.044014 0.037500 -0.534824
v 0.135326 0.037500 -0.550846
v 0.502476 0.037500 -0.501398
v 0.554237 0.037500 -0.309134
v 0.572475 0.037500 -0.194744
v 0.555679 0.037500 -0.121555
v 0.488556 0.037500 -0.120720
v 0.396748 0.037500 -0.151030
v 0.316139 0.037500 -0.153189
v 0.275745 0.037500 -0.087383
v 0.277119 0.037500 0.008230
v 0.314941 0.037500 0.076006
v 0.380821 0.037500 0.077950
v 0.453697 0.037500 0.054665
v 0.509392 0.037500 0.066391
v 0.530472 0.037500 0.154522
v 0.502476 0.037500 0.500299
v 0.286472 0.037500 0.552942
v 0.157242 0.037500 0.571114
v 0.072922 0.037500 0.552938
v 0.068211 0.037500 0.482618
v 0.098194 0.037500 0.386412
v 0.098042 0.037500 0.301098
v 0.024414 0.037500 0.256863
v -0.080166 0.037500 0.257559
v -0.151699 0.037500 0.300446
v -0.147629 0.037500 0.378119
v -0.111214 0.037500 0.464523
v -0.107159 0.037500 0.528934
v -0.180668 0.037500 0.549353
v -0.298969 0.037500 0.538616
v -0.499432 0.037500 0.500299
v -0.571110 -0.037500 0.147919
v -0.559570 -0.037500 0.062773
v -0.501568 -0.037500 0.060125
v -0.417370 -0.037500 0.095186
v -0.336052 -0.037500 0.102982
v -0.282825 -0.037500 0.039305
v -0.267433 -0.037500 -0.056982
v -0.295765 -0.037500 -0.126249
v -0.367001 -0.037498 -0.128616
v -0.453484 -0.037500 -0.103209
v -0.520851 -0.037500 -0.108898
v -0.544048 -0.037500 -0.186491
v -0.535347 -0.037500 -0.304531
v -0.499432 -0.037498 -0.501398
v -0.299343 -0.037500 -0.533461
v -0.180622 -0.037500 -0.540667
v -0.105389 -0.037500 -0.518356
v -0.106323 -0.037500 -0.455215
v -0.140648 -0.037500 -0.373844
v -0.146713 -0.037500 -0.305325
v -0.083145 -0.037500 -0.274864
v 0.010326 -0.037500 -0.284136
v 0.073685 -0.037498 -0.328936
v 0.067692 -0.037500 -0.401371
v 0.036243 -0.037500 -0.478785
v 0.044014 -0.037500 -0.534824
v 0.135326 -0.037500 -0.550846
v 0.502476 -0.037498 -0.501398
v 0.554237 -0.037500 -0.309134
v 0.572475 -0.037500 -0.194744
v 0.555679 -0.037500 -0.121555
v 0.488556 -0.037500 -0.120720
v 0.396748 -0.037500 -0.151030
v 0.316139 -0.037500 -0.153189
v 0.275745 -0.037500 -0.087383
v 0.277119 -0.037500 0.008230
v 0.314941 -0.037500 0.076006
v 0.380821 -0.037500 0.077950
v 0.453697 -0.037500 0.054665
v 0.509392 -0.037500 0.066391
v 0.530472 -0.037500 0.154522
v 0.502476 -0.037500 0.500299
v 0.286472 -0.037498 0.552942
v 0.157242 -0.037500 0.571114
v 0.072922 -0.037500 0.552938
v 0.068211 -0.037500 0.482618
v 0.098194 -0.037500 0.386412
v 0.098042 -0.037500 0.301098
v 0.024414 -0.037500 0.256863
v -0.080166 -0.037500 0.257559
v -0.151699 -0.037500 0.300446
v -0.147629 -0.037500 0.378119
v -0.111214 -0.037500 0.464523
v -0.107159 -0.037500 0.528934
v -0.180668 -0.037500 0.549353
v -0.298969 -0.037500 0.538616
v -0.499432 -0.037500 0.500299
v 0.044014 0.037500 -0.534824
v 0.044014 0.037500 -0.534824
v 0.135326 0.037500 -0.550846
v -0.299343 0.037500 -0.533461
v -0.180622 0.037500 -0.540667
v -0.105389 0.037500 -0.518356
v -0.105389 0.037500 -0.518356
v 0.036243 0.037500 -0.478785
v -0.106323 0.037500 -0.455215
v -0.499432 0.037500 -0.501398
v -0.499432 0.037500 -0.501398
v 0.502476 0.037500 -0.501398
v 0.502476 0.037500 -0.501398
v 0.067692 0.037500 -0.401371
v -0.140648 0.037500 -0.373844
v 0.554237 0.037500 -0.309134
v -0.535347 0.037500 -0.304531
v 0.073685 0.037500 -0.328936
v -0.146713 0.037500 -0.305325
v -0.146713 0.037500 -0.305325
v 0.010326 0.037500 -0.284136
v 0.572475 0.037500 -0.194744
v -0.083145 0.037500 -0.274864
v -0.544048 0.037500 -0.186491
v 0.555679 0.037500 -0.121555
v 0.555679 0.037500 -0.121555
v -0.520851 0.037500 -0.108898
v -0.520851 0.037500 -0.108898
v 0.396748 0.037500 -0.151030
v 0.316139 0.037500 -0.153189
v -0.295765 0.037500 -0.126249
v -0.295765 0.037500 -0.126249
v -0.367001 0.037500 -0.128616
v 0.275745 0.037500 -0.087383
v 0.488556 0.037500 -0.120720
v -0.453484 0.037500 -0.103209
v -0.267433 0.037500 -0.056982
v 0.277119 0.037500 0.008230
v -0.282825 0.037500 0.039305
v 0.314941 0.037500 0.076006
v -0.336052 0.037500 0.102982
v 0.380821 0.037500 0.077950
v 0.453697 0.037500 0.054665
v 0.509392 0.037500 0.066391
v 0.509392 0.037500 0.066391
v -0.559570 0.037500 0.062773
v -0.559570 0.037500 0.062773
v -0.501568 0.037500 0.060125
v -0.417370 0.037500 0.095186
v -0.571110 0.037500 0.147919
v 0.530472 0.037500 0.154522
v 0.024414 0.037500 0.256863
v -0.080166 0.037500 0.257559
v 0.098042 0.037500 0.301098
v -0.151699 0.037500 0.300446
v -0.151699 0.037500 0.300446
v -0.147629 0.037500 0.378119
v 0.098194 0.037500 0.386412
v -0.111214 0.037500 0.464523
v 0.068211 0.037500 0.482618
v -0.107159 0.037500 0.528934
v -0.107159 0.037500 0.528934
v -0.499432 0.037500 0.500299
v -0.499432 0.037500 0.500299
v 0.502476 0.037500 0.500299
v 0.502476 0.037500 0.500299
v 0.072922 0.037500 0.552938
v 0.072922 0.037500 0.552938
v -0.298969 0.037500 0.538616
v 0.286472 0.037500 0.552942
v -0.180668 0.037500 0.549353
v 0.157242 0.037500 0.571114
v 0.044014 -0.037500 -0.534824
v 0.044014 -0.037500 -0.534824
v 0.135326 -0.037500 -0.550846
v -0.299343 -0.037500 -0.533461
v -0.180622 -0.037500 -0.540667
v -0.105389 -0.037500 -0.518356
v -0.105389 -0.037500 -0.518356
v 0.036243 -0.037500 -0.478785
v -0.106323 -0.037500 -0.455215
v -0.499432 -0.037498 -0.501398
v -0.499432 -0.037498 -0.501398
v 0.502476 -0.037498 -0.501398
v 0.502476 -0.037498 -0.501398
v 0.067692 -0.037500 -0.401371
v -0.140648 -0.037500 -0.373844
v 0.554237 -0.037500 -0.309134
v -0.535347 -0.037500 -0.304531
v 0.073685 -0.037498 -0.328936
v -0.146713 -0.037500 -0.305325
v -0.146713 -0.037500 -0.305325
v 0.010326 -0.037500 -0.284136
v 0.572475 -0.037500 -0.194744
v -0.083145 -0.037500 -0.274864
v -0.544048 -0.037500 -0.186491
v 0.555679 -0.037500 -0.121555
v 0.555679 -0.037500 -0.121555
v -0.520851 -0.037500 -0.108898
v -0.520851 -0.037500 -0.108898
v 0.396748 -0.037500 -0.151030
v 0.316139 -0.037500 -0.153189
v -0.295765 -0.037500 -0.126249
v -0.295765 -0.037500 -0.126249
v -0.367001 -0.037498 -0.128616
v 0.275745 -0.037500 -0.087383
v 0.488556 -0.037500 -0.120720
v -0.453484 -0.037500 -0.103209
v -0.267433 -0.037500 -0.056982
v 0.277119 -0.037500 0.008230
v -0.282825 -0.037500 0.039305
v 0.314941 -0.037500 0.076006
v -0.336052 -0.037500 0.102982
v 0.380821 -0.037500 0.077950
v 0.453697 -0.037500 0.054665
v 0.509392 -0.037500 0.066391
v 0.509392 -0.037500 0.066391
v -0.559570 -0.037500 0.062773
v -0.559570 -0.037500 0.062773
v -0.501568 -0.037500 0.060125
v -0.417370 -0.037500 0.095186
v -0.571110 -0.037500 0.147919
v 0.530472 -0.037500 0.154522
v 0.024414 -0.037500 0.256863
v -0.080166 -0.037500 0.257559
v 0.098042 -0.037500 0.301098
v -0.151699 -0.037500 0.300446
v -0.151699 -0.037500 0.300446
v -0.147629 -0.037500 0.378119
v 0.098194 -0.037500 0.386412
v -0.111214 -0.037500 0.464523
v 0.068211 -0.037500 0.482618
v -0.107159 -0.037500 0.528934
v -0.107159 -0.037500 0.528934
v -0.499432 -0.037500 0.500299
v -0.499432 -0.037500 0.500299
v 0.502476 -0.037500 0.500299
v 0.502476 -0.037500 0.500299
v 0.072922 -0.037500 0.552938
v 0.072922 -0.037500 0.552938
v -0.298969 -0.037500 0.538616
v 0.286472 -0.037498 0.552942
v -0.180668 -0.037500 0.549353
v 0.157242 -0.037500 0.571114
vt 0.500000 0.500000
vt 0.500000 0.500000
vt 0.500000 0.500000
vt 0.500000 0.500000
vt 0.500000 0.500000
vt 0.500000 0.500000
vt 0.500000 0.500000
vt 0.500000 0.500000
vt 0.500000 0.500000
vt 0.500000 0.500000
vt 0.500000 0.500000
vt 0.500000 0.500000
vt 0.500000 0.500000
vt 0.500000 0.500000
vt 0.500000 0.500000
vt 0.500000 0.500000
vt 0.500000 0.500000
vt 0.500000 0.500000
vt 0.500000 0.500000
vt 0.500000 0.500000
vt 0.500000 0.500000
vt 0.500000 0.500000
vt 0.500000 0.500000
vt 0.500000 0.500000
vt 0.500000 0.500000
vt 0.500000 0.500000
vt 0.500000 0.500000
vt 0.500000 0.500000
vt 0.500000 0.500000
vt 0.500000 0.500000
vt 0.500000 0.500000
vt 0.500000 0.500000
vt 0.500000 0.500000
vt 0.500000 0.500000
vt 0.500000 0.500000
vt 0.500000 0.500000
vt 0.500000 0.500000
vt 0.500000 0.500000
vt 0.500000 0.500000
vt 0.500000 0.500000
vt 0.500000 0.500000
vt 0.500000 0.500000
vt 0.500000 0.500000
vt 0.500000 0.500000
vt 0.500000 0.500000
vt 0.500000 0.500000
vt 0.500000 0.500000
vt 0.500000 0.500000
vt 0.500000 0.500000
vt 0.500000 0.500000
vt 0.500000 0.500000
vt 0.500000 0.500000
vt 0.500000 0.500000
vt 0.500000 0.500000
vt 0.500000 0.500000
vt 0.500000 0.500000
vt 0.500000 0.500000
vt 0.500000 0.500000
vt 0.500000 0.500000
vt 0.500000 0.500000
vt 0.500000 0.500000
vt 0.500000 0.500000
vt 0.500000 0.500000
vt 0.500000 0.500000
vt 0.500000 0.500000
vt 0.500000 0.500000
vt 0.500000 0.500000
vt 0.500000 0.500000
vt 0.500000 0.500000
vt 0.500000 0.500000
vt 0.500000 0.500000
vt 0.500000 0.500000
vt 0.500000 0.500000
vt 0.500000 0.500000
vt 0.500000 0.500000
vt 0.500000 0.500000
vt 0.500000 0.500000
vt 0.500000 0.500000
vt 0.500000 0.500000
vt 0.500000 0.500000
vt 0.500000 0.500000
vt 0.500000 0.500000
vt 0.500000 0.500000
vt 0.500000 0.500000
vt 0.500000 0.500000
vt 0.500000 0.500000
vt 0.500000 0.500000
vt 0.500000 0.500000
vt 0.500000 0.500000
vt 0.500000 0.500000
vt 0.500000 0.500000
vt 0.500000 0.500000
vt 0.500000 0.500000
vt 0.500000 0.500000
vt 0.500000 0.500000
vt 0.500000 0.500000
vt 0.500000 0.500000
vt 0.500000 0.500000
vt 0.500000 0.500000
vt 0.500000 0.500000
vt 0.500000 0.500000
vt 0.500000 0.500000
vt 0.500000 0.500000
vt 0.500000 0.500000
vt 0.500000 0.500000
vt 0.500000 0.500000
vt 0.500000 0.500000
vt 0.500000 0.500000
vt 0.500000 0.500000
vt 0.500000 0.500000
vt 0.500000 0.500000
vt 0.500000 0.500000
vt 0.500000 0.500000
vt 0.500000 0.500000
vt 0.500000 0.500000
vt 0.500000 0.500000
vt 0.500000 0.500000
vt 0.500000 0.500000
vt 0.500000 0.500000
vt 0.500000 0.500000
vt 0.500000 0.500000
vt 0.500000 0.500000
vt 0.500000 0.500000
vt 0.500000 0.500000
vt 0.500000 0.500000
vt 0.500000 0.500000
vt 0.500000 0.500000
vt 0.500000 0.500000
vt 0.500000 0.500000
vt 0.500000 0.500000
vt 0.500000 0.500000
vt 0.500000 0.500000
vt 0.500000 0.500000
vt 0.500000 0.500000
vt 0.500000 0.500000
vt 0.500000 0.500000
vt 0.500000 0.500000
vt 0.500000 0.500000
vt 0.500000 0.500000
vt 0.500000 0.500000
vt 0.500000 0.500000
vt 0.500000 0.500000
vt 0.500000 0.500000
vt 0.500000 0.500000
vt 0.500000 0.500000
vt 0.500000 0.500000
vt 0.500000 0.500000
vt 0.500000 0.500000
vt 0.500000 0.500000
vt 0.500000 0.500000
vt 0.500000 0.500000
vt 0.500000 0.500000
vt 0.500000 0.500000
vt 0.500000 0.500000
vt 0.500000 0.500000
vt 0.500000 0.500000
vt 0.500000 0.500000
vt 0.500000 0.500000
vt 0.500000 0.500000
vt 0.500000 0.500000
vt 0.500000 0.500000
vt 0.500000 0.500000
vt 0.500000 0.500000
vt 0.500000 0.500000
vt 0.500000 0.500000
vt 0.500000 0.500000
vt 0.500000 0.500000
vt 0.500000 0.500000
vt 0.500000 0.500000
vt 0.500000 0.500000
vt 0.500000 0.500000
vt 0.500000 0.500000
vt 0.500000 0.500000
vt 0.500000 0.500000
vt 0.500000 0.500000
vt 0.500000 0.500000
vt 0.500000 0.500000
vt 0.500000 0.500000
vt 0.500000 0.500000
vt 0.500000 0.500000
vt 0.500000 0.500000
vt 0.500000 0.500000
vt 0.500000 0.500000
vt 0.500000 0.500000
vt 0.500000 0.500000
vt 0.500000 0.500000
vt 0.500000 0.500000
vt 0.500000 0.500000
vt 0.500000 0.500000
vt 0.500000 0.500000
vt 0.500000 0.500000
vt 0.500000 0.500000
vt 0.500000 0.500000
vt 0.500000 0.500000
vt 0.500000 0.500000
vt 0.500000 0.500000
vt 0.500000 0.500000
vt 0.500000 0.500000
vt 0.500000 0.500000
vt 0.500000 0.500000
vt 0.500000 0.500000
vt 0.905554 0.463490
vt 0.905916 0.461338
vt 0.906967 0.461180
vt 0.915570 0.447603
vt 0.915102 0.444935
vt 0.916491 0.442481
vt 0.918506 0.442985
vt 0.918950 0.456210
vt 0.915568 0.449968
vt 0.915188 0.467440
vt 0.914200 0.466197
vt 0.918339 0.460741
vt 0.908315 0.461885
vt 0.907530 0.455679
vt 0.906217 0.456651
vt 0.905132 0.454216
vt 0.909376 0.443382
vt 0.911221 0.443084
vt 0.911736 0.447833
vt 0.911751 0.466785
vt 0.909426 0.461819
vt 0.909868 0.459898
vt 0.912742 0.465940
vt 0.909370 0.473111
vt 0.906250 0.472222
vt 0.905690 0.466763
vt 0.921658 0.461666
vt 0.922705 0.461689
vt 0.922967 0.463719
vt 0.915094 0.469448
vt 0.918969 0.462566
vt 0.911222 0.473311
vt 0.911845 0.468685
vt 0.916149 0.473594
vt 0.914604 0.471595
vt 0.921875 0.444444
vt 0.919978 0.456157
vt 0.908798 0.455462
vt 0.906250 0.444444
vt 0.909628 0.457228
vt 0.912789 0.451176
vt 0.922682 0.466891
vt 0.921875 0.472222
vt 0.920226 0.462506
vt 0.918361 0.458090
vt 0.914420 0.451195
vt 0.911673 0.449987
vt 0.912368 0.443650
vt 0.912304 0.445437
vt 0.921114 0.456802
vt 0.922312 0.454033
vt 0.915176 0.442985
vt 0.912381 0.470942
vt 0.912395 0.472692
vt 0.921983 0.456477
vt 0.905312 0.456577
vt 0.914725 0.473149
vn 0.0000 -1.0000 0.0000
vn -0.1728 0.0000 -0.9850
vn -0.0606 0.0000 -0.9982
vn 0.2843 0.0000 -0.9587
vn -0.9905 0.0000 -0.1373
vn 0.9999 0.0000 0.0148
vn -0.1582 0.0000 -0.9874
vn 0.1335 0.0000 -0.9911
vn -0.9265 0.0000 0.3764
vn 0.9214 0.0000 0.3887
vn 0.9656 0.0000 -0.2600
vn -0.9838 0.0000 -0.1795
vn -0.9966 0.0000 0.0825
vn 0.9961 0.0000 0.0882
vn -0.5773 0.0000 -0.8165
vn 0.9875 0.0000 -0.1574
vn 0.4321 0.0000 -0.9018
vn -0.9973 0.0000 -0.0735
vn -0.0987 0.0000 -0.9951
vn 0.9747 0.0000 0.2237
vn -0.9581 0.0000 0.2864
vn -0.0268 0.0000 0.9996
vn -0.0332 0.0000 0.9994
vn 0.8522 0.0000 0.5231
vn -0.3135 0.0000 0.9496
vn 0.0124 0.0000 0.9999
vn -0.0842 0.0000 0.9965
vn 0.2819 0.0000 0.9595
vn -0.9256 0.0000 0.3786
vn 0.9999 0.0000 -0.0144
vn -0.9875 0.0000 -0.1579
vn 0.8732 0.0000 -0.4873
vn -0.7673 0.0000 -0.6413
vn -0.3044 0.0000 -0.9526
vn 0.2060 0.0000 -0.9785
vn -0.0456 0.0000 -0.9990
vn 0.3844 0.0000 -0.9232
vn -0.9909 0.0000 -0.1343
vn 0.9726 0.0000 -0.2326
vn 0.0295 0.0000 -0.9996
vn 0.0954 0.0000 -0.9954
vn 0.0067 0.0000 1.0000
vn -0.5150 0.0000 0.8572
vn 0.5142 0.0000 0.8577
vn 0.9986 0.0000 -0.0523
vn -1.0000 0.0000 0.0018
vn 0.9215 0.0000 -0.3884
vn -0.9547 0.0000 -0.2975
vn 0.9980 0.0000 -0.0628
vn -0.9799 0.0000 0.1993
vn 0.9967 0.0000 0.0807
vn -0.9978 0.0000 0.0668
vn -0.1877 0.0000 0.9822
vn 0.2368 0.0000 0.9716
vn -0.0904 0.0000 0.9959
vn 0.2676 0.0000 0.9635
vn -0.2107 0.0000 0.9775
vn 0.1392 0.0000 0.9903
vn 0.0000 1.0000 0.0000
usemtl BackMat.001
s off
f 210/1/1 222/2/1 213/3/1
f 244/4/1 258/5/1 246/6/1
f 258/5/1 244/4/1 256/7/1
f 256/7/1 240/8/1 226/9/1
f 204/10/1 220/11/1 207/12/1
f 210/1/1 219/13/1 222/2/1
f 235/14/1 236/15/1 234/16/1
f 255/17/1 243/18/1 257/19/1
f 205/20/1 217/21/1 219/13/1
f 223/22/1 217/21/1 209/23/1
f 190/24/1 203/25/1 196/26/1
f 203/25/1 219/13/1 210/1/1
f 221/27/1 208/28/1 211/29/1
f 200/30/1 216/31/1 204/10/1
f 191/32/1 201/33/1 190/24/1
f 189/34/1 200/30/1 194/35/1
f 251/36/1 256/7/1 228/37/1
f 227/38/1 249/39/1 235/14/1
f 223/22/1 239/40/1 225/41/1
f 202/42/1 216/31/1 198/43/1
f 208/28/1 215/44/1 202/42/1
f 224/45/1 238/46/1 207/12/1
f 241/47/1 249/39/1 227/38/1
f 202/42/1 215/44/1 216/31/1
f 198/43/1 200/30/1 189/34/1
f 190/24/1 201/33/1 205/20/1
f 205/20/1 203/25/1 190/24/1
f 216/31/1 220/11/1 204/10/1
f 207/12/1 223/22/1 209/23/1
f 225/41/1 241/47/1 227/38/1
f 247/48/1 257/19/1 245/49/1
f 244/4/1 240/8/1 256/7/1
f 229/50/1 237/51/1 228/37/1
f 236/15/1 235/14/1 249/39/1
f 209/23/1 217/21/1 205/20/1
f 207/12/1 238/46/1 223/22/1
f 215/44/1 208/28/1 221/27/1
f 245/49/1 257/19/1 243/18/1
f 253/52/1 246/6/1 258/5/1
f 195/53/1 191/32/1 192/54/1
f 238/46/1 226/9/1 240/8/1
f 228/37/1 256/7/1 226/9/1
f 238/46/1 239/40/1 223/22/1
f 243/18/1 255/17/1 241/47/1
f 237/51/1 251/36/1 228/37/1
f 230/55/1 237/51/1 229/50/1
f 201/33/1 191/32/1 195/53/1
f 220/11/1 224/45/1 207/12/1
f 216/31/1 200/30/1 198/43/1
f 234/16/1 236/15/1 232/56/1
f 189/34/1 194/35/1 187/57/1
f 239/40/1 241/47/1 225/41/1
f 255/17/1 249/39/1 241/47/1
f 226/9/1 238/46/1 224/45/1
f 205/20/1 219/13/1 203/25/1
f 116/58/2 27/59/2 84/60/2 188/61/2
f 15/62/3 16/63/3 73/64/3 72/65/3
f 16/63/4 121/66/4 193/67/4 73/64/4
f 25/68/5 26/69/5 83/70/5 82/71/5
f 17/72/6 18/73/6 75/74/6 74/75/6
f 125/76/7 15/62/7 72/65/7 197/77/7
f 27/59/8 127/78/8 199/79/8 84/60/8
f 24/80/9 25/68/9 82/71/9 81/81/9
f 18/73/10 19/82/10 76/83/10 75/74/10
f 28/84/11 29/85/11 86/86/11 85/87/11
f 13/88/12 14/89/12 71/90/12 70/91/12
f 23/92/13 24/80/13 81/81/13 80/93/13
f 19/82/14 134/94/14 206/95/14 76/83/14
f 22/96/15 23/92/15 80/93/15 79/97/15
f 29/85/16 30/98/16 87/99/16 86/86/16
f 20/100/17 21/101/17 78/102/17 77/103/17
f 12/104/18 13/88/18 70/91/18 69/105/18
f 21/101/19 22/96/19 79/97/19 78/102/19
f 30/98/20 140/106/20 212/107/20 87/99/20
f 142/108/21 12/104/21 69/105/21 214/109/21
f 33/110/22 34/111/22 91/112/22 90/113/22
f 146/114/23 9/115/23 66/116/23 218/117/23
f 34/111/24 35/118/24 92/119/24 91/112/24
f 32/120/25 33/110/25 90/113/25 89/121/25
f 31/122/26 32/120/26 89/121/26 88/123/26
f 10/124/27 11/125/27 68/126/27 67/127/27
f 9/115/28 10/124/28 67/127/28 66/116/28
f 7/128/29 8/129/29 65/130/29 64/131/29
f 35/118/30 36/132/30 93/133/30 92/119/30
f 6/134/31 7/128/31 64/131/31 63/135/31
f 36/132/32 37/136/32 94/137/32 93/133/32
f 5/138/33 6/134/33 63/135/33 62/139/33
f 38/140/34 39/141/34 96/142/34 95/143/34
f 39/141/35 159/144/35 231/145/35 96/142/35
f 161/146/36 3/147/36 60/148/36 233/149/36
f 3/147/37 4/150/37 61/151/37 60/148/37
f 1/152/38 2/153/38 59/154/38 58/155/38
f 40/156/39 41/157/39 98/158/39 97/159/39
f 37/136/40 38/140/40 95/143/40 94/137/40
f 4/150/41 5/138/41 62/139/41 61/151/41
f 49/160/42 50/161/42 107/162/42 106/163/42
f 48/164/43 49/160/43 106/163/43 105/165/43
f 50/161/44 170/166/44 242/167/44 107/162/44
f 51/168/45 52/169/45 109/170/45 108/171/45
f 47/172/46 48/164/46 105/165/46 104/173/46
f 52/169/47 53/174/47 110/175/47 109/170/47
f 46/176/48 47/172/48 104/173/48 103/177/48
f 53/174/49 176/178/49 248/179/49 110/175/49
f 178/180/50 1/152/50 58/155/50 250/181/50
f 41/157/51 180/182/51 252/183/51 98/158/51
f 182/184/52 46/176/52 103/177/52 254/185/52
f 56/186/53 57/187/53 114/188/53 113/189/53
f 42/190/54 43/191/54 100/192/54 99/193/54
f 55/194/55 56/186/55 113/189/55 112/195/55
f 54/196/56 55/194/56 112/195/56 111/197/56
f 44/198/57 45/199/57 102/200/57 101/201/57
f 43/191/58 44/198/58 101/201/58 100/192/58
usemtl FrontMat.001
f 138/202/59 141/203/59 150/204/59
f 172/205/59 174/206/59 186/207/59
f 186/207/59 184/208/59 172/205/59
f 184/208/59 154/209/59 168/210/59
f 132/211/59 135/212/59 148/213/59
f 138/202/59 150/204/59 147/214/59
f 163/215/59 162/216/59 164/217/59
f 183/218/59 185/219/59 171/220/59
f 133/221/59 147/214/59 145/222/59
f 151/223/59 137/224/59 145/222/59
f 118/225/59 124/226/59 131/227/59
f 131/227/59 138/202/59 147/214/59
f 149/228/59 139/229/59 136/230/59
f 128/231/59 132/211/59 144/232/59
f 119/233/59 118/225/59 129/234/59
f 117/235/59 122/236/59 128/231/59
f 179/237/59 156/238/59 184/208/59
f 155/239/59 163/215/59 177/240/59
f 151/223/59 153/241/59 167/242/59
f 130/243/59 126/244/59 144/232/59
f 136/230/59 130/243/59 143/245/59
f 152/246/59 135/212/59 166/247/59
f 169/248/59 155/239/59 177/240/59
f 130/243/59 144/232/59 143/245/59
f 126/244/59 117/235/59 128/231/59
f 118/225/59 133/221/59 129/234/59
f 133/221/59 118/225/59 131/227/59
f 144/232/59 132/211/59 148/213/59
f 135/212/59 137/224/59 151/223/59
f 153/241/59 155/239/59 169/248/59
f 175/249/59 173/250/59 185/219/59
f 172/205/59 184/208/59 168/210/59
f 157/251/59 156/238/59 165/252/59
f 164/217/59 177/240/59 163/215/59
f 137/224/59 133/221/59 145/222/59
f 135/212/59 151/223/59 166/247/59
f 143/245/59 149/228/59 136/230/59
f 173/250/59 171/220/59 185/219/59
f 181/253/59 186/207/59 174/206/59
f 123/254/59 120/255/59 119/233/59
f 166/247/59 168/210/59 154/209/59
f 156/238/59 154/209/59 184/208/59
f 166/247/59 151/223/59 167/242/59
f 171/220/59 169/248/59 183/218/59
f 165/252/59 156/238/59 179/237/59
f 158/256/59 157/251/59 165/252/59
f 129/234/59 123/254/59 119/233/59
f 148/213/59 135/212/59 152/246/59
f 144/232/59 126/244/59 128/231/59
f 162/216/59 160/257/59 164/217/59
f 117/235/59 115/258/59 122/236/59
f 167/242/59 153/241/59 169/248/59
f 183/218/59 169/248/59 177/240/59
f 154/209/59 152/246/59 166/247/59
f 133/221/59 131/227/59 147/214/59
