# Blender v2.83.1 OBJ File: 'jigsaw-64x36-3-step2.blend'
# www.blender.org
mtllib piece.303.mtl
o path5222
v 0.560345 0.037500 -0.150117
v 0.537930 0.037500 -0.058006
v 0.476734 0.037500 -0.049522
v 0.397022 0.037500 -0.080722
v 0.326809 0.037500 -0.087378
v 0.289341 0.037500 -0.025774
v 0.288826 0.037500 0.065763
v 0.324707 0.037500 0.128392
v 0.392090 0.037500 0.123146
v 0.468891 0.037500 0.090553
v 0.528713 0.037500 0.091015
v 0.552380 0.037500 0.166390
v 0.549629 0.037500 0.284367
v 0.526138 0.037500 0.482748
v 0.330349 0.037500 0.436622
v 0.214520 0.037500 0.419935
v 0.141880 0.037500 0.433641
v 0.144398 0.037500 0.491432
v 0.178757 0.037500 0.572483
v 0.182831 0.037500 0.647340
v 0.115040 0.037500 0.691107
v 0.015854 0.037500 0.697113
v -0.053718 0.037500 0.663240
v -0.053402 0.037500 0.592908
v -0.025825 0.037500 0.511675
v -0.034347 0.037500 0.450634
v -0.122597 0.037500 0.432173
v -0.475773 0.037500 0.482748
v -0.430523 0.037500 0.287711
v -0.416626 0.037500 0.172413
v -0.437260 0.037500 0.100319
v -0.506668 0.037500 0.103340
v -0.598888 0.037500 0.138342
v -0.677895 0.037500 0.143429
v -0.714611 0.037500 0.077122
v -0.707729 0.037500 -0.020417
v -0.662888 0.037500 -0.088614
v -0.589222 0.037500 -0.087570
v -0.509819 0.037500 -0.060088
v -0.451271 0.037500 -0.069649
v -0.432488 0.037500 -0.159866
v -0.475773 0.037500 -0.518949
v -0.257107 0.037500 -0.564108
v -0.126480 0.037500 -0.576467
v -0.041699 0.037500 -0.551481
v -0.038185 0.037500 -0.474475
v -0.071209 0.037500 -0.375021
v -0.076004 0.037500 -0.293751
v -0.008801 0.037500 -0.262724
v 0.090183 0.037500 -0.279708
v 0.159725 0.037500 -0.333897
v 0.159016 0.037500 -0.412177
v 0.128971 0.037500 -0.492201
v 0.130928 0.037500 -0.549316
v 0.207508 0.037500 -0.566246
v 0.326492 0.037500 -0.555234
v 0.526138 0.037500 -0.518950
v 0.560345 -0.037500 -0.150117
v 0.537930 -0.037500 -0.058006
v 0.476734 -0.037500 -0.049522
v 0.397022 -0.037500 -0.080722
v 0.326809 -0.037500 -0.087378
v 0.289341 -0.037500 -0.025774
v 0.288826 -0.037500 0.065763
v 0.324707 -0.037500 0.128392
v 0.392090 -0.037498 0.123146
v 0.468891 -0.037500 0.090553
v 0.528713 -0.037500 0.091015
v 0.552380 -0.037500 0.166390
v 0.549629 -0.037498 0.284367
v 0.526138 -0.037500 0.482748
v 0.330349 -0.037500 0.436622
v 0.214520 -0.037500 0.419935
v 0.141880 -0.037500 0.433641
v 0.144398 -0.037500 0.491432
v 0.178757 -0.037500 0.572483
v 0.182831 -0.037500 0.647340
v 0.115040 -0.037500 0.691107
v 0.015854 -0.037500 0.697113
v -0.053718 -0.037500 0.663240
v -0.053402 -0.037500 0.592908
v -0.025825 -0.037500 0.511675
v -0.034347 -0.037500 0.450634
v -0.122597 -0.037498 0.432173
v -0.475773 -0.037498 0.482748
v -0.430523 -0.037500 0.287711
v -0.416626 -0.037500 0.172413
v -0.437260 -0.037500 0.100319
v -0.506668 -0.037500 0.103340
v -0.598888 -0.037498 0.138342
v -0.677895 -0.037500 0.143429
v -0.714611 -0.037500 0.077122
v -0.707729 -0.037500 -0.020417
v -0.662888 -0.037500 -0.088614
v -0.589222 -0.037498 -0.087570
v -0.509819 -0.037498 -0.060088
v -0.451271 -0.037500 -0.069649
v -0.432488 -0.037498 -0.159866
v -0.475773 -0.037500 -0.518949
v -0.257107 -0.037500 -0.564108
v -0.126480 -0.037500 -0.576467
v -0.041699 -0.037500 -0.551481
v -0.038185 -0.037500 -0.474475
v -0.071209 -0.037500 -0.375021
v -0.076004 -0.037500 -0.293751
v -0.008801 -0.037500 -0.262724
v 0.090183 -0.037498 -0.279708
v 0.159725 -0.037500 -0.333897
v 0.159016 -0.037500 -0.412177
v 0.128971 -0.037500 -0.492201
v 0.130928 -0.037498 -0.549316
v 0.207508 -0.037500 -0.566246
v 0.326492 -0.037500 -0.555234
v 0.526138 -0.037500 -0.518950
v 0.115040 0.037500 0.691107
v 0.015854 0.037500 0.697113
v -0.053718 0.037500 0.663240
v -0.053718 0.037500 0.663240
v 0.182831 0.037500 0.647340
v 0.182831 0.037500 0.647340
v -0.053402 0.037500 0.592908
v 0.178757 0.037500 0.572483
v -0.025825 0.037500 0.511675
v 0.144398 0.037500 0.491432
v -0.034347 0.037500 0.450634
v -0.034347 0.037500 0.450634
v 0.141880 0.037500 0.433641
v 0.141880 0.037500 0.433641
v 0.526138 0.037500 0.482748
v 0.526138 0.037500 0.482748
v 0.330349 0.037500 0.436622
v -0.122597 0.037500 0.432173
v -0.475773 0.037500 0.482748
v -0.475773 0.037500 0.482748
v 0.214520 0.037500 0.419935
v -0.430523 0.037500 0.287711
v 0.549629 0.037500 0.284367
v -0.416626 0.037500 0.172413
v 0.552380 0.037500 0.166390
v -0.437260 0.037500 0.100319
v -0.437260 0.037500 0.100319
v 0.528713 0.037500 0.091015
v 0.528713 0.037500 0.091015
v 0.324707 0.037500 0.128392
v 0.324707 0.037500 0.128392
v 0.392090 0.037500 0.123146
v -0.598888 0.037500 0.138342
v -0.677895 0.037500 0.143429
v -0.677895 0.037500 0.143429
v -0.714611 0.037500 0.077122
v -0.506668 0.037500 0.103340
v 0.288826 0.037500 0.065763
v 0.468891 0.037500 0.090553
v -0.707729 0.037500 -0.020417
v 0.289341 0.037500 -0.025774
v -0.662888 0.037500 -0.088614
v 0.326809 0.037500 -0.087378
v 0.326809 0.037500 -0.087378
v 0.537930 0.037500 -0.058006
v 0.537930 0.037500 -0.058006
v 0.476734 0.037500 -0.049522
v 0.397022 0.037500 -0.080722
v 0.560345 0.037500 -0.150117
v -0.509819 0.037500 -0.060088
v -0.451271 0.037500 -0.069649
v -0.451271 0.037500 -0.069649
v -0.589222 0.037500 -0.087570
v -0.432488 0.037500 -0.159866
v -0.008801 0.037500 -0.262724
v 0.090183 0.037500 -0.279708
v -0.076004 0.037500 -0.293751
v -0.076004 0.037500 -0.293751
v 0.159725 0.037500 -0.333897
v -0.071209 0.037500 -0.375021
v 0.159016 0.037500 -0.412177
v -0.038185 0.037500 -0.474475
v 0.128971 0.037500 -0.492201
v -0.041699 0.037500 -0.551481
v -0.041699 0.037500 -0.551481
v 0.130928 0.037500 -0.549316
v 0.130928 0.037500 -0.549316
v 0.526138 0.037500 -0.518950
v 0.526138 0.037500 -0.518950
v -0.475773 0.037500 -0.518949
v -0.475773 0.037500 -0.518949
v 0.326492 0.037500 -0.555234
v -0.257107 0.037500 -0.564108
v 0.207508 0.037500 -0.566246
v -0.126480 0.037500 -0.576467
v 0.115040 -0.037500 0.691107
v 0.015854 -0.037500 0.697113
v -0.053718 -0.037500 0.663240
v -0.053718 -0.037500 0.663240
v 0.182831 -0.037500 0.647340
v 0.182831 -0.037500 0.647340
v -0.053402 -0.037500 0.592908
v 0.178757 -0.037500 0.572483
v -0.025825 -0.037500 0.511675
v 0.144398 -0.037500 0.491432
v -0.034347 -0.037500 0.450634
v -0.034347 -0.037500 0.450634
v 0.141880 -0.037500 0.433641
v 0.141880 -0.037500 0.433641
v 0.526138 -0.037500 0.482748
v 0.526138 -0.037500 0.482748
v 0.330349 -0.037500 0.436622
v -0.122597 -0.037498 0.432173
v -0.475773 -0.037498 0.482748
v -0.475773 -0.037498 0.482748
v 0.214520 -0.037500 0.419935
v -0.430523 -0.037500 0.287711
v 0.549629 -0.037498 0.284367
v -0.416626 -0.037500 0.172413
v 0.552380 -0.037500 0.166390
v -0.437260 -0.037500 0.100319
v -0.437260 -0.037500 0.100319
v 0.528713 -0.037500 0.091015
v 0.528713 -0.037500 0.091015
v 0.324707 -0.037500 0.128392
v 0.324707 -0.037500 0.128392
v 0.392090 -0.037498 0.123146
v -0.598888 -0.037498 0.138342
v -0.677895 -0.037500 0.143429
v -0.677895 -0.037500 0.143429
v -0.714611 -0.037500 0.077122
v -0.506668 -0.037500 0.103340
v 0.288826 -0.037500 0.065763
v 0.468891 -0.037500 0.090553
v -0.707729 -0.037500 -0.020417
v 0.289341 -0.037500 -0.025774
v -0.662888 -0.037500 -0.088614
v 0.326809 -0.037500 -0.087378
v 0.326809 -0.037500 -0.087378
v 0.537930 -0.037500 -0.058006
v 0.537930 -0.037500 -0.058006
v 0.476734 -0.037500 -0.049522
v 0.397022 -0.037500 -0.080722
v 0.560345 -0.037500 -0.150117
v -0.509819 -0.037498 -0.060088
v -0.451271 -0.037500 -0.069649
v -0.451271 -0.037500 -0.069649
v -0.589222 -0.037498 -0.087570
v -0.432488 -0.037498 -0.159866
v -0.008801 -0.037500 -0.262724
v 0.090183 -0.037498 -0.279708
v -0.076004 -0.037500 -0.293751
v -0.076004 -0.037500 -0.293751
v 0.159725 -0.037500 -0.333897
v -0.071209 -0.037500 -0.375021
v 0.159016 -0.037500 -0.412177
v -0.038185 -0.037500 -0.474475
v 0.128971 -0.037500 -0.492201
v -0.041699 -0.037500 -0.551481
v -0.041699 -0.037500 -0.551481
v 0.130928 -0.037498 -0.549316
v 0.130928 -0.037498 -0.549316
v 0.526138 -0.037500 -0.518950
v 0.526138 -0.037500 -0.518950
v -0.475773 -0.037500 -0.518949
v -0.475773 -0.037500 -0.518949
v 0.326492 -0.037500 -0.555234
v -0.257107 -0.037500 -0.564108
v 0.207508 -0.037500 -0.566246
v -0.126480 -0.037500 -0.576467
vt 0.500000 0.500000
vt 0.500000 0.500000
vt 0.500000 0.500000
vt 0.500000 0.500000
vt 0.500000 0.500000
vt 0.500000 0.500000
vt 0.500000 0.500000
vt 0.500000 0.500000
vt 0.500000 0.500000
vt 0.500000 0.500000
vt 0.500000 0.500000
vt 0.500000 0.500000
vt 0.500000 0.500000
vt 0.500000 0.500000
vt 0.500000 0.500000
vt 0.500000 0.500000
vt 0.500000 0.500000
vt 0.500000 0.500000
vt 0.500000 0.500000
vt 0.500000 0.500000
vt 0.500000 0.500000
vt 0.500000 0.500000
vt 0.500000 0.500000
vt 0.500000 0.500000
vt 0.500000 0.500000
vt 0.500000 0.500000
vt 0.500000 0.500000
vt 0.500000 0.500000
vt 0.500000 0.500000
vt 0.500000 0.500000
vt 0.500000 0.500000
vt 0.500000 0.500000
vt 0.500000 0.500000
vt 0.500000 0.500000
vt 0.500000 0.500000
vt 0.500000 0.500000
vt 0.500000 0.500000
vt 0.500000 0.500000
vt 0.500000 0.500000
vt 0.500000 0.500000
vt 0.500000 0.500000
vt 0.500000 0.500000
vt 0.500000 0.500000
vt 0.500000 0.500000
vt 0.500000 0.500000
vt 0.500000 0.500000
vt 0.500000 0.500000
vt 0.500000 0.500000
vt 0.500000 0.500000
vt 0.500000 0.500000
vt 0.500000 0.500000
vt 0.500000 0.500000
vt 0.500000 0.500000
vt 0.500000 0.500000
vt 0.500000 0.500000
vt 0.500000 0.500000
vt 0.500000 0.500000
vt 0.500000 0.500000
vt 0.500000 0.500000
vt 0.500000 0.500000
vt 0.500000 0.500000
vt 0.500000 0.500000
vt 0.500000 0.500000
vt 0.500000 0.500000
vt 0.500000 0.500000
vt 0.500000 0.500000
vt 0.500000 0.500000
vt 0.500000 0.500000
vt 0.500000 0.500000
vt 0.500000 0.500000
vt 0.500000 0.500000
vt 0.500000 0.500000
vt 0.500000 0.500000
vt 0.500000 0.500000
vt 0.500000 0.500000
vt 0.500000 0.500000
vt 0.500000 0.500000
vt 0.500000 0.500000
vt 0.500000 0.500000
vt 0.500000 0.500000
vt 0.500000 0.500000
vt 0.500000 0.500000
vt 0.500000 0.500000
vt 0.500000 0.500000
vt 0.500000 0.500000
vt 0.500000 0.500000
vt 0.500000 0.500000
vt 0.500000 0.500000
vt 0.500000 0.500000
vt 0.500000 0.500000
vt 0.500000 0.500000
vt 0.500000 0.500000
vt 0.500000 0.500000
vt 0.500000 0.500000
vt 0.500000 0.500000
vt 0.500000 0.500000
vt 0.500000 0.500000
vt 0.500000 0.500000
vt 0.500000 0.500000
vt 0.500000 0.500000
vt 0.500000 0.500000
vt 0.500000 0.500000
vt 0.500000 0.500000
vt 0.500000 0.500000
vt 0.500000 0.500000
vt 0.500000 0.500000
vt 0.500000 0.500000
vt 0.500000 0.500000
vt 0.500000 0.500000
vt 0.500000 0.500000
vt 0.500000 0.500000
vt 0.500000 0.500000
vt 0.500000 0.500000
vt 0.500000 0.500000
vt 0.500000 0.500000
vt 0.500000 0.500000
vt 0.500000 0.500000
vt 0.500000 0.500000
vt 0.500000 0.500000
vt 0.500000 0.500000
vt 0.500000 0.500000
vt 0.500000 0.500000
vt 0.500000 0.500000
vt 0.500000 0.500000
vt 0.500000 0.500000
vt 0.500000 0.500000
vt 0.500000 0.500000
vt 0.500000 0.500000
vt 0.500000 0.500000
vt 0.500000 0.500000
vt 0.500000 0.500000
vt 0.500000 0.500000
vt 0.500000 0.500000
vt 0.500000 0.500000
vt 0.500000 0.500000
vt 0.500000 0.500000
vt 0.500000 0.500000
vt 0.500000 0.500000
vt 0.500000 0.500000
vt 0.500000 0.500000
vt 0.500000 0.500000
vt 0.500000 0.500000
vt 0.500000 0.500000
vt 0.500000 0.500000
vt 0.500000 0.500000
vt 0.500000 0.500000
vt 0.500000 0.500000
vt 0.500000 0.500000
vt 0.500000 0.500000
vt 0.500000 0.500000
vt 0.500000 0.500000
vt 0.500000 0.500000
vt 0.500000 0.500000
vt 0.500000 0.500000
vt 0.500000 0.500000
vt 0.500000 0.500000
vt 0.500000 0.500000
vt 0.500000 0.500000
vt 0.500000 0.500000
vt 0.500000 0.500000
vt 0.500000 0.500000
vt 0.500000 0.500000
vt 0.500000 0.500000
vt 0.500000 0.500000
vt 0.500000 0.500000
vt 0.500000 0.500000
vt 0.500000 0.500000
vt 0.500000 0.500000
vt 0.500000 0.500000
vt 0.500000 0.500000
vt 0.500000 0.500000
vt 0.500000 0.500000
vt 0.500000 0.500000
vt 0.500000 0.500000
vt 0.500000 0.500000
vt 0.500000 0.500000
vt 0.500000 0.500000
vt 0.500000 0.500000
vt 0.500000 0.500000
vt 0.500000 0.500000
vt 0.500000 0.500000
vt 0.500000 0.500000
vt 0.500000 0.500000
vt 0.500000 0.500000
vt 0.500000 0.500000
vt 0.500000 0.500000
vt 0.500000 0.500000
vt 0.500000 0.500000
vt 0.500000 0.500000
vt 0.500000 0.500000
vt 0.500000 0.500000
vt 0.500000 0.500000
vt 0.500000 0.500000
vt 0.500000 0.500000
vt 0.500000 0.500000
vt 0.500000 0.500000
vt 0.500000 0.500000
vt 0.500000 0.500000
vt 0.500000 0.500000
vt 0.500000 0.500000
vt 0.500000 0.500000
vt 0.500000 0.500000
vt 0.500000 0.500000
vt 0.500000 0.500000
vt 0.500000 0.500000
vt 0.500000 0.500000
vt 0.500000 0.500000
vt 0.730965 0.859859
vt 0.733700 0.871069
vt 0.728141 0.867356
vt 0.733669 0.883480
vt 0.734375 0.888889
vt 0.728867 0.887486
vt 0.728066 0.865102
vt 0.727551 0.862344
vt 0.728928 0.859516
vt 0.736144 0.873074
vt 0.737293 0.873045
vt 0.737992 0.874936
vt 0.727793 0.893894
vt 0.726708 0.894833
vt 0.727788 0.891944
vt 0.727093 0.868217
vt 0.733993 0.873571
vt 0.724703 0.889130
vt 0.724743 0.887527
vt 0.727491 0.887998
vt 0.722443 0.874787
vt 0.721859 0.873079
vt 0.725549 0.867745
vt 0.734375 0.861111
vt 0.718566 0.873893
vt 0.718217 0.871339
vt 0.719520 0.874129
vt 0.723719 0.859800
vt 0.724913 0.860269
vt 0.724944 0.861853
vt 0.723610 0.887147
vt 0.721803 0.887610
vt 0.721891 0.879062
vt 0.724464 0.866243
vt 0.733774 0.878284
vt 0.734906 0.873836
vt 0.734857 0.878368
vt 0.725161 0.894667
vt 0.724168 0.891377
vt 0.727358 0.889691
vt 0.718710 0.878026
vt 0.719643 0.878013
vt 0.718341 0.880116
vt 0.738100 0.877641
vt 0.736295 0.879338
vt 0.721864 0.860105
vt 0.724475 0.864072
vt 0.720764 0.873264
vt 0.720841 0.878917
vt 0.724104 0.893453
vt 0.718384 0.883388
vt 0.722451 0.877326
vt 0.733453 0.880283
vt 0.737527 0.879479
vt 0.718750 0.888889
vt 0.718750 0.861111
vt 0.727606 0.860209
vn -0.0000 -1.0000 0.0000
vn 0.0604 0.0000 0.9982
vn -0.4377 0.0000 0.8991
vn 0.5424 0.0000 0.8401
vn -1.0000 0.0000 -0.0045
vn 0.9985 0.0000 -0.0543
vn -0.9469 0.0000 -0.3215
vn 0.9207 0.0000 -0.3903
vn -0.9904 0.0000 0.1383
vn 0.9991 0.0000 -0.0435
vn -0.2293 0.0000 0.9734
vn -0.2048 0.0000 0.9788
vn 0.1418 0.0000 0.9899
vn -0.1426 0.0000 0.9898
vn 0.1854 0.0000 0.9827
vn -0.9741 0.0000 -0.2260
vn 0.9931 0.0000 0.1176
vn -0.9928 0.0000 -0.1197
vn 0.9997 0.0000 0.0233
vn -0.9614 0.0000 0.2752
vn 0.9541 0.0000 -0.2996
vn -0.0776 0.0000 -0.9970
vn 0.0643 0.0000 0.9979
vn -0.8748 0.0000 0.4844
vn 0.3548 0.0000 0.9349
vn 0.8677 0.0000 -0.4971
vn 0.0077 0.0000 -1.0000
vn -0.3907 0.0000 -0.9205
vn 0.0435 0.0000 0.9991
vn -0.9975 0.0000 -0.0704
vn 1.0000 0.0000 0.0056
vn -0.8356 0.0000 -0.5494
vn 0.8544 0.0000 0.5196
vn 0.1373 0.0000 0.9905
vn -0.3645 0.0000 0.9312
vn 0.9716 0.0000 0.2364
vn -0.1612 0.0000 -0.9869
vn 0.3271 0.0000 -0.9450
vn 0.0142 0.0000 -0.9999
vn -0.9790 0.0000 -0.2038
vn -0.0944 0.0000 0.9955
vn -0.1691 0.0000 -0.9856
vn 0.4192 0.0000 -0.9079
vn -0.6147 0.0000 -0.7888
vn 0.9983 0.0000 0.0589
vn -1.0000 0.0000 0.0091
vn 0.9490 0.0000 0.3151
vn -0.9362 0.0000 0.3515
vn 0.9990 0.0000 -0.0456
vn -0.9994 0.0000 -0.0342
vn 0.9957 0.0000 -0.0923
vn -0.9928 0.0000 0.1197
vn 0.1788 0.0000 -0.9839
vn -0.2023 0.0000 -0.9793
vn 0.0922 0.0000 -0.9957
vn -0.2159 0.0000 -0.9764
vn 0.2827 0.0000 -0.9592
vn -0.0942 0.0000 -0.9956
vn 0.0000 1.0000 -0.0000
usemtl BackMat.001
s off
f 262/1/1 246/2/1 243/3/1
f 211/4/1 207/5/1 208/6/1
f 246/2/1 262/1/1 249/7/1
f 249/7/1 264/8/1 251/9/1
f 242/10/1 229/11/1 231/12/1
f 192/13/1 196/14/1 191/15/1
f 244/16/1 240/17/1 246/2/1
f 199/18/1 200/19/1 202/20/1
f 230/21/1 245/22/1 232/23/1
f 262/1/1 243/3/1 259/24/1
f 234/25/1 236/26/1 238/27/1
f 263/28/1 252/29/1 255/30/1
f 210/31/1 219/32/1 206/33/1
f 245/22/1 248/34/1 232/23/1
f 215/35/1 226/36/1 239/37/1
f 190/38/1 198/39/1 197/40/1
f 217/41/1 214/42/1 228/43/1
f 229/11/1 222/44/1 225/45/1
f 261/46/1 248/34/1 250/47/1
f 210/31/1 202/20/1 219/32/1
f 237/48/1 248/34/1 238/27/1
f 237/48/1 238/27/1 236/26/1
f 249/7/1 262/1/1 264/8/1
f 242/10/1 222/44/1 229/11/1
f 197/40/1 198/39/1 199/18/1
f 191/15/1 196/14/1 190/38/1
f 206/33/1 219/32/1 221/49/1
f 244/16/1 215/35/1 240/17/1
f 194/50/1 190/38/1 197/40/1
f 206/33/1 221/49/1 212/51/1
f 227/52/1 207/5/1 244/16/1
f 227/52/1 202/20/1 200/19/1
f 213/53/1 207/5/1 211/4/1
f 213/53/1 244/16/1 207/5/1
f 230/21/1 244/16/1 245/22/1
f 227/52/1 244/16/1 230/21/1
f 226/36/1 222/44/1 242/10/1
f 198/39/1 190/38/1 196/14/1
f 225/45/1 222/44/1 223/54/1
f 239/37/1 226/36/1 242/10/1
f 204/55/1 206/33/1 212/51/1
f 232/23/1 248/34/1 237/48/1
f 219/32/1 202/20/1 227/52/1
f 228/43/1 214/42/1 221/49/1
f 212/51/1 221/49/1 214/42/1
f 257/56/1 248/34/1 261/46/1
f 246/2/1 240/17/1 243/3/1
f 244/16/1 213/53/1 215/35/1
f 263/28/1 250/47/1 252/29/1
f 240/17/1 215/35/1 239/37/1
f 200/19/1 199/18/1 198/39/1
f 238/27/1 248/34/1 257/56/1
f 200/19/1 207/5/1 227/52/1
f 261/46/1 250/47/1 263/28/1
f 251/9/1 264/8/1 253/57/1
f 21/58/2 22/59/2 79/60/2 78/61/2
f 22/59/3 118/62/3 193/63/3 79/60/3
f 120/64/4 21/58/4 78/61/4 195/65/4
f 23/66/5 24/67/5 81/68/5 80/69/5
f 19/70/6 20/71/6 77/72/6 76/73/6
f 24/67/7 25/74/7 82/75/7 81/68/7
f 18/76/8 19/70/8 76/73/8 75/77/8
f 25/74/9 126/78/9 201/79/9 82/75/9
f 128/80/10 18/76/10 75/77/10 203/81/10
f 130/82/11 15/83/11 72/84/11 205/85/11
f 26/86/12 27/87/12 84/88/12 83/89/12
f 27/87/13 134/90/13 209/91/13 84/88/13
f 15/83/14 16/92/14 73/93/14 72/84/14
f 16/92/15 17/94/15 74/95/15 73/93/15
f 28/96/16 29/97/16 86/98/16 85/99/16
f 13/100/17 14/101/17 71/102/17 70/103/17
f 29/97/18 30/104/18 87/105/18 86/98/18
f 12/106/19 13/100/19 70/103/19 69/107/19
f 30/104/20 141/108/20 216/109/20 87/105/20
f 143/110/21 12/106/21 69/107/21 218/111/21
f 145/112/22 9/113/22 66/114/22 220/115/22
f 33/116/23 149/117/23 224/118/23 90/119/23
f 34/120/24 35/121/24 92/122/24 91/123/24
f 32/124/25 33/116/25 90/119/25 89/125/25
f 7/126/26 8/127/26 65/128/26 64/129/26
f 10/130/27 11/131/27 68/132/27 67/133/27
f 9/113/28 10/130/28 67/133/28 66/114/28
f 31/134/29 32/124/29 89/125/29 88/135/29
f 35/121/30 36/136/30 93/137/30 92/122/30
f 6/138/31 7/126/31 64/129/31 63/139/31
f 36/136/32 37/140/32 94/141/32 93/137/32
f 158/142/33 6/138/33 63/139/33 233/143/33
f 160/144/34 3/145/34 60/146/34 235/147/34
f 3/145/35 4/148/35 61/149/35 60/146/35
f 1/150/36 2/151/36 59/152/36 58/153/36
f 39/154/37 166/155/37 241/156/37 96/157/37
f 38/158/38 39/154/38 96/157/38 95/159/38
f 37/140/39 38/158/39 95/159/39 94/141/39
f 40/160/40 41/161/40 98/162/40 97/163/40
f 4/148/41 5/164/41 62/165/41 61/149/41
f 49/166/42 50/167/42 107/168/42 106/169/42
f 172/170/43 49/166/43 106/169/43 247/171/43
f 50/167/44 51/172/44 108/173/44 107/168/44
f 47/174/45 48/175/45 105/176/45 104/177/45
f 51/172/46 52/178/46 109/179/46 108/173/46
f 46/180/47 47/174/47 104/177/47 103/181/47
f 52/178/48 53/182/48 110/183/48 109/179/48
f 179/184/49 46/180/49 103/181/49 254/185/49
f 53/182/50 181/186/50 256/187/50 110/183/50
f 183/188/51 1/150/51 58/153/51 258/189/51
f 41/161/52 185/190/52 260/191/52 98/162/52
f 56/192/53 57/193/53 114/194/53 113/195/53
f 42/196/54 43/197/54 100/198/54 99/199/54
f 55/200/55 56/192/55 113/195/55 112/201/55
f 54/202/56 55/200/56 112/201/56 111/203/56
f 44/204/57 45/205/57 102/206/57 101/207/57
f 43/197/58 44/204/58 101/207/58 100/198/58
usemtl FrontMat.001
f 187/208/59 168/209/59 171/210/59
f 136/211/59 133/212/59 132/213/59
f 171/210/59 174/214/59 187/208/59
f 174/214/59 176/215/59 189/216/59
f 167/217/59 156/218/59 154/219/59
f 117/220/59 116/221/59 121/222/59
f 169/223/59 171/210/59 165/224/59
f 124/225/59 127/226/59 125/227/59
f 155/228/59 157/229/59 170/230/59
f 187/208/59 184/231/59 168/209/59
f 159/232/59 163/233/59 161/234/59
f 188/235/59 180/236/59 177/237/59
f 135/238/59 131/239/59 144/240/59
f 170/230/59 157/229/59 173/241/59
f 140/242/59 164/243/59 151/244/59
f 115/245/59 122/246/59 123/247/59
f 142/248/59 153/249/59 139/250/59
f 154/219/59 150/251/59 147/252/59
f 186/253/59 175/254/59 173/241/59
f 135/238/59 144/240/59 127/226/59
f 162/255/59 163/233/59 173/241/59
f 162/255/59 161/234/59 163/233/59
f 174/214/59 189/216/59 187/208/59
f 167/217/59 154/219/59 147/252/59
f 122/246/59 124/225/59 123/247/59
f 116/221/59 115/245/59 121/222/59
f 131/239/59 146/256/59 144/240/59
f 169/223/59 165/224/59 140/242/59
f 119/257/59 122/246/59 115/245/59
f 131/239/59 137/258/59 146/256/59
f 152/259/59 169/223/59 132/213/59
f 152/259/59 125/227/59 127/226/59
f 138/260/59 136/211/59 132/213/59
f 138/260/59 132/213/59 169/223/59
f 155/228/59 170/230/59 169/223/59
f 152/259/59 155/228/59 169/223/59
f 151/244/59 167/217/59 147/252/59
f 123/247/59 121/222/59 115/245/59
f 150/251/59 148/261/59 147/252/59
f 164/243/59 167/217/59 151/244/59
f 129/262/59 137/258/59 131/239/59
f 157/229/59 162/255/59 173/241/59
f 144/240/59 152/259/59 127/226/59
f 153/249/59 146/256/59 139/250/59
f 137/258/59 139/250/59 146/256/59
f 182/263/59 186/253/59 173/241/59
f 171/210/59 168/209/59 165/224/59
f 169/223/59 140/242/59 138/260/59
f 188/235/59 177/237/59 175/254/59
f 165/224/59 164/243/59 140/242/59
f 125/227/59 123/247/59 124/225/59
f 163/233/59 182/263/59 173/241/59
f 125/227/59 152/259/59 132/213/59
f 186/253/59 188/235/59 175/254/59
f 176/215/59 178/264/59 189/216/59
