# Blender v2.83.1 OBJ File: 'jigsaw-64x36-3-step2.blend'
# www.blender.org
mtllib piece.129.mtl
o path4874
v -0.497037 0.037500 -0.497661
v -0.287665 0.037500 -0.474946
v -0.163013 0.037500 -0.472664
v -0.083062 0.037500 -0.496674
v -0.082099 0.037500 -0.556508
v -0.117404 0.037500 -0.632666
v -0.127011 0.037500 -0.698391
v -0.068841 0.037500 -0.731476
v 0.019630 0.037500 -0.727932
v 0.081034 0.037500 -0.688323
v 0.077719 0.037500 -0.617684
v 0.050877 0.037500 -0.538944
v 0.061417 0.037500 -0.479506
v 0.150984 0.037500 -0.459066
v 0.504872 0.037500 -0.497661
v 0.529890 0.037500 -0.300704
v 0.533837 0.037500 -0.183313
v 0.511565 0.037500 -0.107719
v 0.452936 0.037500 -0.105611
v 0.375616 0.037500 -0.134485
v 0.304226 0.037500 -0.133295
v 0.260108 0.037500 -0.061692
v 0.251511 0.037500 0.037875
v 0.283410 0.037500 0.102258
v 0.354692 0.037500 0.090374
v 0.439903 0.037500 0.049412
v 0.507501 0.037500 0.048621
v 0.534403 0.037500 0.135810
v 0.531365 0.037500 0.273003
v 0.504872 0.037500 0.504036
v 0.146785 0.037500 0.467457
v 0.058283 0.037500 0.484312
v 0.051721 0.037500 0.535755
v 0.083060 0.037500 0.605153
v 0.088213 0.037500 0.669193
v 0.023817 0.037500 0.707686
v -0.070597 0.037500 0.712937
v -0.134777 0.037500 0.680375
v -0.128889 0.037500 0.611384
v -0.094789 0.037500 0.531156
v -0.094752 0.037500 0.470835
v -0.171949 0.037500 0.452861
v -0.293122 0.037500 0.464856
v -0.497037 0.037500 0.504036
v -0.497037 -0.037498 -0.497661
v -0.287665 -0.037500 -0.474946
v -0.163013 -0.037500 -0.472664
v -0.083062 -0.037500 -0.496674
v -0.082099 -0.037500 -0.556508
v -0.117404 -0.037500 -0.632666
v -0.127011 -0.037500 -0.698391
v -0.068841 -0.037500 -0.731476
v 0.019630 -0.037498 -0.727932
v 0.081034 -0.037500 -0.688323
v 0.077719 -0.037500 -0.617684
v 0.050877 -0.037500 -0.538944
v 0.061417 -0.037500 -0.479506
v 0.150984 -0.037500 -0.459066
v 0.504872 -0.037500 -0.497661
v 0.529890 -0.037500 -0.300704
v 0.533837 -0.037500 -0.183313
v 0.511565 -0.037500 -0.107719
v 0.452936 -0.037500 -0.105611
v 0.375616 -0.037498 -0.134485
v 0.304226 -0.037500 -0.133295
v 0.260108 -0.037498 -0.061692
v 0.251511 -0.037500 0.037875
v 0.283410 -0.037500 0.102258
v 0.354692 -0.037500 0.090374
v 0.439903 -0.037500 0.049412
v 0.507501 -0.037500 0.048621
v 0.534403 -0.037500 0.135810
v 0.531365 -0.037500 0.273003
v 0.504872 -0.037500 0.504036
v 0.146785 -0.037500 0.467457
v 0.058283 -0.037500 0.484312
v 0.051721 -0.037498 0.535755
v 0.083060 -0.037500 0.605153
v 0.088213 -0.037500 0.669193
v 0.023817 -0.037500 0.707686
v -0.070597 -0.037500 0.712937
v -0.134777 -0.037500 0.680375
v -0.128889 -0.037500 0.611384
v -0.094789 -0.037500 0.531156
v -0.094752 -0.037498 0.470835
v -0.171949 -0.037498 0.452861
v -0.293122 -0.037498 0.464856
v -0.497037 -0.037500 0.504036
v -0.127011 0.037500 -0.698391
v -0.127011 0.037500 -0.698391
v -0.068841 0.037500 -0.731476
v 0.019630 0.037500 -0.727932
v 0.081034 0.037500 -0.688323
v -0.117404 0.037500 -0.632666
v 0.077719 0.037500 -0.617684
v -0.082099 0.037500 -0.556508
v 0.050877 0.037500 -0.538944
v -0.083062 0.037500 -0.496674
v -0.083062 0.037500 -0.496674
v 0.061417 0.037500 -0.479506
v 0.061417 0.037500 -0.479506
v -0.497037 0.037500 -0.497661
v -0.497037 0.037500 -0.497661
v -0.497037 0.037500 0.504036
v -0.497037 0.037500 0.504036
v -0.163013 0.037500 -0.472664
v -0.287665 0.037500 -0.474946
v 0.150984 0.037500 -0.459066
v 0.504872 0.037500 -0.497661
v 0.504872 0.037500 -0.497661
v 0.529890 0.037500 -0.300704
v 0.533837 0.037500 -0.183313
v 0.375616 0.037500 -0.134485
v 0.304226 0.037500 -0.133295
v 0.511565 0.037500 -0.107719
v 0.511565 0.037500 -0.107719
v 0.452936 0.037500 -0.105611
v 0.260108 0.037500 -0.061692
v 0.251511 0.037500 0.037875
v 0.283410 0.037500 0.102258
v 0.283410 0.037500 0.102258
v 0.439903 0.037500 0.049412
v 0.507501 0.037500 0.048621
v 0.507501 0.037500 0.048621
v 0.534403 0.037500 0.135810
v 0.354692 0.037500 0.090374
v 0.531365 0.037500 0.273003
v -0.293122 0.037500 0.464856
v -0.171949 0.037500 0.452861
v -0.094752 0.037500 0.470835
v -0.094752 0.037500 0.470835
v 0.146785 0.037500 0.467457
v 0.058283 0.037500 0.484312
v 0.058283 0.037500 0.484312
v -0.094789 0.037500 0.531156
v 0.504872 0.037500 0.504036
v 0.504872 0.037500 0.504036
v 0.051721 0.037500 0.535755
v -0.128889 0.037500 0.611384
v 0.083060 0.037500 0.605153
v 0.088213 0.037500 0.669193
v 0.088213 0.037500 0.669193
v -0.134777 0.037500 0.680375
v -0.134777 0.037500 0.680375
v 0.023817 0.037500 0.707686
v -0.070597 0.037500 0.712937
v -0.127011 -0.037500 -0.698391
v -0.127011 -0.037500 -0.698391
v -0.068841 -0.037500 -0.731476
v 0.019630 -0.037498 -0.727932
v 0.081034 -0.037500 -0.688323
v -0.117404 -0.037500 -0.632666
v 0.077719 -0.037500 -0.617684
v -0.082099 -0.037500 -0.556508
v 0.050877 -0.037500 -0.538944
v -0.083062 -0.037500 -0.496674
v -0.083062 -0.037500 -0.496674
v 0.061417 -0.037500 -0.479506
v 0.061417 -0.037500 -0.479506
v -0.497037 -0.037498 -0.497661
v -0.497037 -0.037498 -0.497661
v -0.497037 -0.037500 0.504036
v -0.497037 -0.037500 0.504036
v -0.163013 -0.037500 -0.472664
v -0.287665 -0.037500 -0.474946
v 0.150984 -0.037500 -0.459066
v 0.504872 -0.037500 -0.497661
v 0.504872 -0.037500 -0.497661
v 0.529890 -0.037500 -0.300704
v 0.533837 -0.037500 -0.183313
v 0.375616 -0.037498 -0.134485
v 0.304226 -0.037500 -0.133295
v 0.511565 -0.037500 -0.107719
v 0.511565 -0.037500 -0.107719
v 0.452936 -0.037500 -0.105611
v 0.260108 -0.037498 -0.061692
v 0.251511 -0.037500 0.037875
v 0.283410 -0.037500 0.102258
v 0.283410 -0.037500 0.102258
v 0.439903 -0.037500 0.049412
v 0.507501 -0.037500 0.048621
v 0.507501 -0.037500 0.048621
v 0.534403 -0.037500 0.135810
v 0.354692 -0.037500 0.090374
v 0.531365 -0.037500 0.273003
v -0.293122 -0.037498 0.464856
v -0.171949 -0.037498 0.452861
v -0.094752 -0.037498 0.470835
v -0.094752 -0.037498 0.470835
v 0.146785 -0.037500 0.467457
v 0.058283 -0.037500 0.484312
v 0.058283 -0.037500 0.484312
v -0.094789 -0.037500 0.531156
v 0.504872 -0.037500 0.504036
v 0.504872 -0.037500 0.504036
v 0.051721 -0.037498 0.535755
v -0.128889 -0.037500 0.611384
v 0.083060 -0.037500 0.605153
v 0.088213 -0.037500 0.669193
v 0.088213 -0.037500 0.669193
v -0.134777 -0.037500 0.680375
v -0.134777 -0.037500 0.680375
v 0.023817 -0.037500 0.707686
v -0.070597 -0.037500 0.712937
vt 0.500000 0.500000
vt 0.500000 0.500000
vt 0.500000 0.500000
vt 0.500000 0.500000
vt 0.500000 0.500000
vt 0.500000 0.500000
vt 0.500000 0.500000
vt 0.500000 0.500000
vt 0.500000 0.500000
vt 0.500000 0.500000
vt 0.500000 0.500000
vt 0.500000 0.500000
vt 0.500000 0.500000
vt 0.500000 0.500000
vt 0.500000 0.500000
vt 0.500000 0.500000
vt 0.500000 0.500000
vt 0.500000 0.500000
vt 0.500000 0.500000
vt 0.500000 0.500000
vt 0.500000 0.500000
vt 0.500000 0.500000
vt 0.500000 0.500000
vt 0.500000 0.500000
vt 0.500000 0.500000
vt 0.500000 0.500000
vt 0.500000 0.500000
vt 0.500000 0.500000
vt 0.500000 0.500000
vt 0.500000 0.500000
vt 0.500000 0.500000
vt 0.500000 0.500000
vt 0.500000 0.500000
vt 0.500000 0.500000
vt 0.500000 0.500000
vt 0.500000 0.500000
vt 0.500000 0.500000
vt 0.500000 0.500000
vt 0.500000 0.500000
vt 0.500000 0.500000
vt 0.500000 0.500000
vt 0.500000 0.500000
vt 0.500000 0.500000
vt 0.500000 0.500000
vt 0.500000 0.500000
vt 0.500000 0.500000
vt 0.500000 0.500000
vt 0.500000 0.500000
vt 0.500000 0.500000
vt 0.500000 0.500000
vt 0.500000 0.500000
vt 0.500000 0.500000
vt 0.500000 0.500000
vt 0.500000 0.500000
vt 0.500000 0.500000
vt 0.500000 0.500000
vt 0.500000 0.500000
vt 0.500000 0.500000
vt 0.500000 0.500000
vt 0.500000 0.500000
vt 0.500000 0.500000
vt 0.500000 0.500000
vt 0.500000 0.500000
vt 0.500000 0.500000
vt 0.500000 0.500000
vt 0.500000 0.500000
vt 0.500000 0.500000
vt 0.500000 0.500000
vt 0.500000 0.500000
vt 0.500000 0.500000
vt 0.500000 0.500000
vt 0.500000 0.500000
vt 0.500000 0.500000
vt 0.500000 0.500000
vt 0.500000 0.500000
vt 0.500000 0.500000
vt 0.500000 0.500000
vt 0.500000 0.500000
vt 0.500000 0.500000
vt 0.500000 0.500000
vt 0.500000 0.500000
vt 0.500000 0.500000
vt 0.500000 0.500000
vt 0.500000 0.500000
vt 0.500000 0.500000
vt 0.500000 0.500000
vt 0.500000 0.500000
vt 0.500000 0.500000
vt 0.500000 0.500000
vt 0.500000 0.500000
vt 0.500000 0.500000
vt 0.500000 0.500000
vt 0.500000 0.500000
vt 0.500000 0.500000
vt 0.500000 0.500000
vt 0.500000 0.500000
vt 0.500000 0.500000
vt 0.500000 0.500000
vt 0.500000 0.500000
vt 0.500000 0.500000
vt 0.500000 0.500000
vt 0.500000 0.500000
vt 0.500000 0.500000
vt 0.500000 0.500000
vt 0.500000 0.500000
vt 0.500000 0.500000
vt 0.500000 0.500000
vt 0.500000 0.500000
vt 0.500000 0.500000
vt 0.500000 0.500000
vt 0.500000 0.500000
vt 0.500000 0.500000
vt 0.500000 0.500000
vt 0.500000 0.500000
vt 0.500000 0.500000
vt 0.500000 0.500000
vt 0.500000 0.500000
vt 0.500000 0.500000
vt 0.500000 0.500000
vt 0.500000 0.500000
vt 0.500000 0.500000
vt 0.500000 0.500000
vt 0.500000 0.500000
vt 0.500000 0.500000
vt 0.500000 0.500000
vt 0.500000 0.500000
vt 0.500000 0.500000
vt 0.500000 0.500000
vt 0.500000 0.500000
vt 0.500000 0.500000
vt 0.500000 0.500000
vt 0.500000 0.500000
vt 0.500000 0.500000
vt 0.500000 0.500000
vt 0.500000 0.500000
vt 0.500000 0.500000
vt 0.500000 0.500000
vt 0.500000 0.500000
vt 0.500000 0.500000
vt 0.500000 0.500000
vt 0.500000 0.500000
vt 0.500000 0.500000
vt 0.500000 0.500000
vt 0.500000 0.500000
vt 0.500000 0.500000
vt 0.500000 0.500000
vt 0.500000 0.500000
vt 0.500000 0.500000
vt 0.500000 0.500000
vt 0.500000 0.500000
vt 0.500000 0.500000
vt 0.500000 0.500000
vt 0.500000 0.500000
vt 0.500000 0.500000
vt 0.500000 0.500000
vt 0.500000 0.500000
vt 0.500000 0.500000
vt 0.500000 0.500000
vt 0.500000 0.500000
vt 0.500000 0.500000
vt 0.005771 0.950011
vt 0.005920 0.948188
vt 0.006678 0.950928
vt 0.008660 0.917214
vt 0.011674 0.929594
vt 0.006274 0.917587
vt 0.006471 0.946076
vt 0.006456 0.944417
vt 0.008545 0.945589
vt 0.005070 0.918086
vt 0.005209 0.943751
vt 0.011808 0.932355
vt 0.008963 0.947773
vt 0.012171 0.927808
vt 0.010041 0.917681
vt 0.016038 0.923074
vt 0.014815 0.933573
vt 0.015729 0.933631
vt 0.016077 0.935727
vt 0.008058 0.950830
vt 0.012496 0.934340
vt 0.010106 0.943374
vt 0.008123 0.911019
vt 0.009047 0.913863
vt 0.005741 0.913690
vt 0.003265 0.943815
vt 0.003180 0.917753
vt 0.006273 0.915915
vt 0.008558 0.915787
vt 0.006650 0.910874
vt 0.005650 0.911777
vt 0.008709 0.943941
vt 0.013283 0.928138
vt 0.016086 0.926878
vt 0.014612 0.929274
vt 0.016015 0.938983
vt 0.015625 0.944445
vt 0.013609 0.934373
vt 0.000000 0.944445
vt 0.015666 0.929296
vt 0.009015 0.949732
vt 0.015625 0.916667
vt 0.009127 0.912087
vt 0.000000 0.916667
vn 0.0000 -1.0000 0.0000
vn -0.4944 0.0000 -0.8692
vn 0.0400 0.0000 -0.9992
vn 0.5421 0.0000 -0.8403
vn -0.9895 0.0000 0.1446
vn 0.9989 0.0000 0.0469
vn -0.9073 0.0000 0.4206
vn 0.9465 0.0000 0.3227
vn -0.9999 0.0000 -0.0161
vn 0.9846 0.0000 -0.1746
vn -1.0000 0.0000 0.0000
vn -0.2876 0.0000 -0.9577
vn 0.1079 0.0000 -0.9942
vn 0.2225 0.0000 -0.9749
vn 0.0183 0.0000 -0.9998
vn -0.1084 0.0000 -0.9941
vn 0.9920 0.0000 -0.1260
vn 0.9994 0.0000 -0.0336
vn 0.0167 0.0000 0.9999
vn 0.9592 0.0000 0.2826
vn -0.3498 0.0000 0.9368
vn 0.0359 0.0000 0.9994
vn 0.8514 0.0000 0.5246
vn 0.9963 0.0000 0.0860
vn 0.8960 0.0000 -0.4440
vn -0.0117 0.0000 -0.9999
vn 0.9555 0.0000 -0.2948
vn -0.4333 0.0000 -0.9013
vn -0.1644 0.0000 -0.9864
vn 0.9998 0.0000 0.0221
vn 0.1887 0.0000 0.9820
vn 0.0985 0.0000 0.9951
vn -0.2268 0.0000 0.9739
vn 0.1871 0.0000 0.9823
vn -1.0000 0.0000 -0.0006
vn -0.1016 0.0000 0.9948
vn 0.9935 0.0000 0.1139
vn 0.9920 0.0000 0.1265
vn -0.9203 0.0000 -0.3912
vn 0.9114 0.0000 -0.4116
vn 0.9968 0.0000 -0.0802
vn -0.9964 0.0000 -0.0850
vn 0.5131 0.0000 0.8583
vn -0.4524 0.0000 0.8918
vn 0.0555 0.0000 0.9985
vn 0.0000 1.0000 0.0000
usemtl BackMat.001
s off
f 147/1/1 149/2/1 152/3/1
f 191/4/1 188/5/1 177/6/1
f 154/7/1 155/8/1 156/9/1
f 187/10/1 164/11/1 177/6/1
f 177/6/1 164/11/1 176/12/1
f 155/8/1 154/7/1 153/13/1
f 191/4/1 177/6/1 178/14/1
f 190/15/1 178/14/1 185/16/1
f 175/17/1 170/18/1 173/19/1
f 150/20/1 152/3/1 149/2/1
f 176/12/1 166/21/1 172/22/1
f 203/23/1 197/24/1 198/25/1
f 187/10/1 165/26/1 164/11/1
f 186/27/1 165/26/1 187/10/1
f 188/5/1 187/10/1 177/6/1
f 193/28/1 188/5/1 196/29/1
f 204/30/1 197/24/1 203/23/1
f 196/29/1 188/5/1 191/4/1
f 191/4/1 178/14/1 190/15/1
f 201/31/1 197/24/1 204/30/1
f 193/28/1 196/29/1 197/24/1
f 156/9/1 155/8/1 158/32/1
f 178/14/1 184/33/1 185/16/1
f 183/34/1 184/33/1 180/35/1
f 166/21/1 176/12/1 158/32/1
f 169/36/1 166/21/1 167/37/1
f 172/22/1 169/36/1 171/38/1
f 160/39/1 165/26/1 186/27/1
f 152/3/1 153/13/1 154/7/1
f 183/34/1 180/35/1 181/40/1
f 164/11/1 158/32/1 176/12/1
f 169/36/1 172/22/1 166/21/1
f 153/13/1 150/20/1 151/41/1
f 150/20/1 153/13/1 152/3/1
f 185/16/1 184/33/1 183/34/1
f 171/38/1 170/18/1 175/17/1
f 194/42/1 190/15/1 185/16/1
f 199/43/1 203/23/1 198/25/1
f 198/25/1 197/24/1 196/29/1
f 160/39/1 186/27/1 162/44/1
f 156/9/1 158/32/1 164/11/1
f 171/38/1 169/36/1 170/18/1
f 90/45/2 8/46/2 52/47/2 148/48/2
f 8/46/3 9/49/3 53/50/3 52/47/3
f 9/49/4 10/51/4 54/52/4 53/50/4
f 6/53/5 7/54/5 51/55/5 50/56/5
f 10/51/6 11/57/6 55/58/6 54/52/6
f 5/59/7 6/53/7 50/56/7 49/60/7
f 11/57/8 12/61/8 56/62/8 55/58/8
f 99/63/9 5/59/9 49/60/9 157/64/9
f 12/61/10 101/65/10 159/66/10 56/62/10
f 105/67/11 103/68/11 161/69/11 163/70/11
f 3/71/12 4/72/12 48/73/12 47/74/12
f 1/75/13 2/76/13 46/77/13 45/78/13
f 13/79/14 14/80/14 58/81/14 57/82/14
f 2/76/15 3/71/15 47/74/15 46/77/15
f 14/80/16 110/83/16 168/84/16 58/81/16
f 15/85/17 16/86/17 60/87/17 59/88/17
f 16/86/18 17/89/18 61/90/18 60/87/18
f 20/91/19 21/92/19 65/93/19 64/94/19
f 17/89/20 116/95/20 174/96/20 61/90/20
f 19/97/21 20/91/21 64/94/21 63/98/21
f 18/99/22 19/97/22 63/98/22 62/100/22
f 21/92/23 22/101/23 66/102/23 65/93/23
f 22/101/24 23/103/24 67/104/24 66/102/24
f 23/103/25 121/105/25 179/106/25 67/104/25
f 26/107/26 124/108/26 182/109/26 70/110/26
f 27/111/27 28/112/27 72/113/27 71/114/27
f 25/115/28 26/107/28 70/110/28 69/116/28
f 24/117/29 25/115/29 69/116/29 68/118/29
f 28/112/30 29/119/30 73/120/30 72/113/30
f 43/121/31 44/122/31 88/123/31 87/124/31
f 42/125/32 43/121/32 87/124/32 86/126/32
f 131/127/33 42/125/33 86/126/33 189/128/33
f 31/129/34 134/130/34 192/131/34 75/132/34
f 40/133/35 41/134/35 85/135/35 84/136/35
f 137/137/36 31/129/36 75/132/36 195/138/36
f 29/119/37 30/139/37 74/140/37 73/120/37
f 32/141/38 33/142/38 77/143/38 76/144/38
f 39/145/39 40/133/39 84/136/39 83/146/39
f 33/142/40 34/147/40 78/148/40 77/143/40
f 34/147/41 142/149/41 200/150/41 78/148/41
f 144/151/42 39/145/42 83/146/42 202/152/42
f 35/153/43 36/154/43 80/155/43 79/156/43
f 37/157/44 38/158/44 82/159/44 81/160/44
f 36/154/45 37/157/45 81/160/45 80/155/45
usemtl FrontMat.001
f 89/161/46 94/162/46 91/163/46
f 133/164/46 119/165/46 130/166/46
f 96/167/46 98/168/46 97/169/46
f 129/170/46 119/165/46 106/171/46
f 119/165/46 118/172/46 106/171/46
f 97/169/46 95/173/46 96/167/46
f 133/164/46 120/174/46 119/165/46
f 132/175/46 127/176/46 120/174/46
f 117/177/46 115/178/46 112/179/46
f 92/180/46 91/163/46 94/162/46
f 118/172/46 114/181/46 108/182/46
f 145/183/46 140/184/46 139/185/46
f 129/170/46 106/171/46 107/186/46
f 128/187/46 129/170/46 107/186/46
f 130/166/46 119/165/46 129/170/46
f 135/188/46 138/189/46 130/166/46
f 146/190/46 145/183/46 139/185/46
f 138/189/46 133/164/46 130/166/46
f 133/164/46 132/175/46 120/174/46
f 143/191/46 146/190/46 139/185/46
f 135/188/46 139/185/46 138/189/46
f 98/168/46 100/192/46 97/169/46
f 120/174/46 127/176/46 126/193/46
f 125/194/46 122/195/46 126/193/46
f 108/182/46 100/192/46 118/172/46
f 111/196/46 109/197/46 108/182/46
f 114/181/46 113/198/46 111/196/46
f 102/199/46 128/187/46 107/186/46
f 94/162/46 96/167/46 95/173/46
f 125/194/46 123/200/46 122/195/46
f 106/171/46 118/172/46 100/192/46
f 111/196/46 108/182/46 114/181/46
f 95/173/46 93/201/46 92/180/46
f 92/180/46 94/162/46 95/173/46
f 127/176/46 125/194/46 126/193/46
f 113/198/46 117/177/46 112/179/46
f 136/202/46 127/176/46 132/175/46
f 141/203/46 140/184/46 145/183/46
f 140/184/46 138/189/46 139/185/46
f 102/199/46 104/204/46 128/187/46
f 98/168/46 106/171/46 100/192/46
f 113/198/46 112/179/46 111/196/46
