# Blender v2.83.1 OBJ File: 'jigsaw-64x36-3-step2.blend'
# www.blender.org
mtllib piece.1309.mtl
o path7234
v -0.250116 0.037500 -0.461924
v -0.116066 0.037500 -0.458221
v -0.027100 0.037500 -0.482958
v -0.019096 0.037500 -0.546436
v -0.048576 0.037500 -0.626659
v -0.052218 0.037500 -0.693539
v 0.012831 0.037500 -0.722633
v 0.107508 0.037500 -0.712114
v 0.172287 0.037500 -0.665802
v 0.167763 0.037500 -0.591383
v 0.135004 0.037500 -0.511940
v 0.135195 0.037500 -0.454418
v 0.210806 0.037500 -0.437883
v 0.329369 0.037500 -0.449957
v 0.528847 0.037500 -0.488241
v 0.547985 0.037500 -0.125254
v 0.527845 0.037500 -0.037651
v 0.478521 0.037500 -0.035111
v 0.416031 0.037500 -0.071306
v 0.362282 0.037500 -0.079081
v 0.335571 0.037500 -0.013094
v 0.339718 0.037500 0.084749
v 0.374928 0.037500 0.150738
v 0.437254 0.037500 0.142675
v 0.506155 0.037500 0.104475
v 0.556931 0.037500 0.101574
v 0.571943 0.037500 0.179430
v 0.528847 0.037500 0.513458
v 0.318005 0.037500 0.540394
v 0.192724 0.037500 0.544453
v 0.112928 0.037500 0.519918
v 0.113220 0.037500 0.456348
v 0.150028 0.037500 0.376173
v 0.160240 0.037500 0.309996
v 0.101124 0.037500 0.282755
v 0.011501 0.037500 0.296696
v -0.049427 0.037500 0.348400
v -0.042894 0.037500 0.429966
v -0.011906 0.037500 0.515570
v -0.019901 0.037500 0.574905
v -0.110310 0.037500 0.586769
v -0.473062 0.037500 0.513458
v -0.449974 0.037500 0.305780
v -0.448919 0.037500 0.182859
v -0.476999 0.037500 0.105654
v -0.544413 0.037500 0.108284
v -0.628902 0.037500 0.146170
v -0.700102 0.037500 0.155037
v -0.732973 0.037500 0.091444
v -0.723764 0.037500 -0.004818
v -0.674046 0.037500 -0.073135
v -0.590420 0.037500 -0.073324
v -0.499640 0.037500 -0.046860
v -0.433495 0.037500 -0.055649
v -0.414579 0.037500 -0.142305
v -0.428677 0.037500 -0.272308
v -0.473063 0.037500 -0.488241
v -0.250116 -0.037500 -0.461924
v -0.116066 -0.037500 -0.458221
v -0.027100 -0.037500 -0.482958
v -0.019096 -0.037500 -0.546436
v -0.048576 -0.037500 -0.626659
v -0.052218 -0.037500 -0.693539
v 0.012831 -0.037500 -0.722633
v 0.107508 -0.037500 -0.712114
v 0.172287 -0.037500 -0.665802
v 0.167763 -0.037500 -0.591383
v 0.135004 -0.037500 -0.511940
v 0.135195 -0.037500 -0.454418
v 0.210806 -0.037500 -0.437883
v 0.329369 -0.037500 -0.449957
v 0.528847 -0.037498 -0.488241
v 0.547985 -0.037500 -0.125254
v 0.527845 -0.037500 -0.037651
v 0.478521 -0.037500 -0.035111
v 0.416031 -0.037500 -0.071306
v 0.362282 -0.037500 -0.079081
v 0.335571 -0.037500 -0.013094
v 0.339718 -0.037498 0.084749
v 0.374928 -0.037500 0.150738
v 0.437254 -0.037498 0.142675
v 0.506155 -0.037500 0.104475
v 0.556931 -0.037500 0.101574
v 0.571943 -0.037500 0.179430
v 0.528847 -0.037498 0.513458
v 0.318005 -0.037500 0.540394
v 0.192724 -0.037500 0.544453
v 0.112928 -0.037500 0.519918
v 0.113220 -0.037500 0.456348
v 0.150028 -0.037500 0.376173
v 0.160240 -0.037500 0.309996
v 0.101124 -0.037500 0.282755
v 0.011501 -0.037500 0.296696
v -0.049427 -0.037500 0.348400
v -0.042894 -0.037500 0.429966
v -0.011906 -0.037500 0.515570
v -0.019901 -0.037500 0.574905
v -0.110310 -0.037500 0.586769
v -0.473062 -0.037500 0.513458
v -0.449974 -0.037500 0.305780
v -0.448919 -0.037500 0.182859
v -0.476999 -0.037500 0.105654
v -0.544413 -0.037498 0.108284
v -0.628902 -0.037500 0.146170
v -0.700102 -0.037500 0.155037
v -0.732973 -0.037500 0.091444
v -0.723764 -0.037500 -0.004818
v -0.674046 -0.037498 -0.073135
v -0.590420 -0.037500 -0.073324
v -0.499640 -0.037500 -0.046860
v -0.433495 -0.037500 -0.055649
v -0.414579 -0.037500 -0.142305
v -0.428677 -0.037500 -0.272308
v -0.473063 -0.037500 -0.488241
v -0.019901 0.037500 0.574905
v -0.019901 0.037500 0.574905
v -0.110310 0.037500 0.586769
v -0.011906 0.037500 0.515570
v 0.318005 0.037500 0.540394
v 0.192724 0.037500 0.544453
v 0.112928 0.037500 0.519918
v 0.112928 0.037500 0.519918
v 0.528847 0.037500 0.513458
v 0.528847 0.037500 0.513458
v 0.113220 0.037500 0.456348
v -0.473062 0.037500 0.513458
v -0.473062 0.037500 0.513458
v -0.042894 0.037500 0.429966
v 0.150028 0.037500 0.376173
v -0.049427 0.037500 0.348400
v -0.449974 0.037500 0.305780
v 0.160240 0.037500 0.309996
v 0.160240 0.037500 0.309996
v 0.011501 0.037500 0.296696
v 0.101124 0.037500 0.282755
v -0.448919 0.037500 0.182859
v 0.571943 0.037500 0.179430
v -0.476999 0.037500 0.105654
v -0.476999 0.037500 0.105654
v 0.556931 0.037500 0.101574
v 0.556931 0.037500 0.101574
v 0.374928 0.037500 0.150738
v 0.374928 0.037500 0.150738
v 0.437254 0.037500 0.142675
v -0.628902 0.037500 0.146170
v -0.700102 0.037500 0.155037
v -0.700102 0.037500 0.155037
v -0.732973 0.037500 0.091444
v 0.339718 0.037500 0.084749
v -0.544413 0.037500 0.108284
v 0.506155 0.037500 0.104475
v -0.723764 0.037500 -0.004818
v 0.335571 0.037500 -0.013094
v -0.674046 0.037500 -0.073135
v 0.362282 0.037500 -0.079081
v 0.362282 0.037500 -0.079081
v 0.527845 0.037500 -0.037651
v 0.527845 0.037500 -0.037651
v 0.478521 0.037500 -0.035111
v 0.416031 0.037500 -0.071306
v 0.547985 0.037500 -0.125254
v -0.499640 0.037500 -0.046860
v -0.433495 0.037500 -0.055649
v -0.433495 0.037500 -0.055649
v -0.590420 0.037500 -0.073324
v -0.414579 0.037500 -0.142305
v -0.428677 0.037500 -0.272308
v 0.528847 0.037500 -0.488241
v 0.528847 0.037500 -0.488241
v 0.329369 0.037500 -0.449957
v 0.210806 0.037500 -0.437883
v 0.135195 0.037500 -0.454418
v 0.135195 0.037500 -0.454418
v 0.135004 0.037500 -0.511940
v -0.116066 0.037500 -0.458221
v -0.027100 0.037500 -0.482958
v -0.027100 0.037500 -0.482958
v -0.250116 0.037500 -0.461924
v -0.473063 0.037500 -0.488241
v -0.473063 0.037500 -0.488241
v -0.019096 0.037500 -0.546436
v 0.167763 0.037500 -0.591383
v -0.048576 0.037500 -0.626659
v 0.172287 0.037500 -0.665802
v -0.052218 0.037500 -0.693539
v -0.052218 0.037500 -0.693539
v 0.107508 0.037500 -0.712114
v 0.012831 0.037500 -0.722633
v -0.019901 -0.037500 0.574905
v -0.019901 -0.037500 0.574905
v -0.110310 -0.037500 0.586769
v -0.011906 -0.037500 0.515570
v 0.318005 -0.037500 0.540394
v 0.192724 -0.037500 0.544453
v 0.112928 -0.037500 0.519918
v 0.112928 -0.037500 0.519918
v 0.528847 -0.037498 0.513458
v 0.528847 -0.037498 0.513458
v 0.113220 -0.037500 0.456348
v -0.473062 -0.037500 0.513458
v -0.473062 -0.037500 0.513458
v -0.042894 -0.037500 0.429966
v 0.150028 -0.037500 0.376173
v -0.049427 -0.037500 0.348400
v -0.449974 -0.037500 0.305780
v 0.160240 -0.037500 0.309996
v 0.160240 -0.037500 0.309996
v 0.011501 -0.037500 0.296696
v 0.101124 -0.037500 0.282755
v -0.448919 -0.037500 0.182859
v 0.571943 -0.037500 0.179430
v -0.476999 -0.037500 0.105654
v -0.476999 -0.037500 0.105654
v 0.556931 -0.037500 0.101574
v 0.556931 -0.037500 0.101574
v 0.374928 -0.037500 0.150738
v 0.374928 -0.037500 0.150738
v 0.437254 -0.037498 0.142675
v -0.628902 -0.037500 0.146170
v -0.700102 -0.037500 0.155037
v -0.700102 -0.037500 0.155037
v -0.732973 -0.037500 0.091444
v 0.339718 -0.037498 0.084749
v -0.544413 -0.037498 0.108284
v 0.506155 -0.037500 0.104475
v -0.723764 -0.037500 -0.004818
v 0.335571 -0.037500 -0.013094
v -0.674046 -0.037498 -0.073135
v 0.362282 -0.037500 -0.079081
v 0.362282 -0.037500 -0.079081
v 0.527845 -0.037500 -0.037651
v 0.527845 -0.037500 -0.037651
v 0.478521 -0.037500 -0.035111
v 0.416031 -0.037500 -0.071306
v 0.547985 -0.037500 -0.125254
v -0.499640 -0.037500 -0.046860
v -0.433495 -0.037500 -0.055649
v -0.433495 -0.037500 -0.055649
v -0.590420 -0.037500 -0.073324
v -0.414579 -0.037500 -0.142305
v -0.428677 -0.037500 -0.272308
v 0.528847 -0.037498 -0.488241
v 0.528847 -0.037498 -0.488241
v 0.329369 -0.037500 -0.449957
v 0.210806 -0.037500 -0.437883
v 0.135195 -0.037500 -0.454418
v 0.135195 -0.037500 -0.454418
v 0.135004 -0.037500 -0.511940
v -0.116066 -0.037500 -0.458221
v -0.027100 -0.037500 -0.482958
v -0.027100 -0.037500 -0.482958
v -0.250116 -0.037500 -0.461924
v -0.473063 -0.037500 -0.488241
v -0.473063 -0.037500 -0.488241
v -0.019096 -0.037500 -0.546436
v 0.167763 -0.037500 -0.591383
v -0.048576 -0.037500 -0.626659
v 0.172287 -0.037500 -0.665802
v -0.052218 -0.037500 -0.693539
v -0.052218 -0.037500 -0.693539
v 0.107508 -0.037500 -0.712114
v 0.012831 -0.037500 -0.722633
vt 0.500000 0.500000
vt 0.500000 0.500000
vt 0.500000 0.500000
vt 0.500000 0.500000
vt 0.500000 0.500000
vt 0.500000 0.500000
vt 0.500000 0.500000
vt 0.500000 0.500000
vt 0.500000 0.500000
vt 0.500000 0.500000
vt 0.500000 0.500000
vt 0.500000 0.500000
vt 0.500000 0.500000
vt 0.500000 0.500000
vt 0.500000 0.500000
vt 0.500000 0.500000
vt 0.500000 0.500000
vt 0.500000 0.500000
vt 0.500000 0.500000
vt 0.500000 0.500000
vt 0.500000 0.500000
vt 0.500000 0.500000
vt 0.500000 0.500000
vt 0.500000 0.500000
vt 0.500000 0.500000
vt 0.500000 0.500000
vt 0.500000 0.500000
vt 0.500000 0.500000
vt 0.500000 0.500000
vt 0.500000 0.500000
vt 0.500000 0.500000
vt 0.500000 0.500000
vt 0.500000 0.500000
vt 0.500000 0.500000
vt 0.500000 0.500000
vt 0.500000 0.500000
vt 0.500000 0.500000
vt 0.500000 0.500000
vt 0.500000 0.500000
vt 0.500000 0.500000
vt 0.500000 0.500000
vt 0.500000 0.500000
vt 0.500000 0.500000
vt 0.500000 0.500000
vt 0.500000 0.500000
vt 0.500000 0.500000
vt 0.500000 0.500000
vt 0.500000 0.500000
vt 0.500000 0.500000
vt 0.500000 0.500000
vt 0.500000 0.500000
vt 0.500000 0.500000
vt 0.500000 0.500000
vt 0.500000 0.500000
vt 0.500000 0.500000
vt 0.500000 0.500000
vt 0.500000 0.500000
vt 0.500000 0.500000
vt 0.500000 0.500000
vt 0.500000 0.500000
vt 0.500000 0.500000
vt 0.500000 0.500000
vt 0.500000 0.500000
vt 0.500000 0.500000
vt 0.500000 0.500000
vt 0.500000 0.500000
vt 0.500000 0.500000
vt 0.500000 0.500000
vt 0.500000 0.500000
vt 0.500000 0.500000
vt 0.500000 0.500000
vt 0.500000 0.500000
vt 0.500000 0.500000
vt 0.500000 0.500000
vt 0.500000 0.500000
vt 0.500000 0.500000
vt 0.500000 0.500000
vt 0.500000 0.500000
vt 0.500000 0.500000
vt 0.500000 0.500000
vt 0.500000 0.500000
vt 0.500000 0.500000
vt 0.500000 0.500000
vt 0.500000 0.500000
vt 0.500000 0.500000
vt 0.500000 0.500000
vt 0.500000 0.500000
vt 0.500000 0.500000
vt 0.500000 0.500000
vt 0.500000 0.500000
vt 0.500000 0.500000
vt 0.500000 0.500000
vt 0.500000 0.500000
vt 0.500000 0.500000
vt 0.500000 0.500000
vt 0.500000 0.500000
vt 0.500000 0.500000
vt 0.500000 0.500000
vt 0.500000 0.500000
vt 0.500000 0.500000
vt 0.500000 0.500000
vt 0.500000 0.500000
vt 0.500000 0.500000
vt 0.500000 0.500000
vt 0.500000 0.500000
vt 0.500000 0.500000
vt 0.500000 0.500000
vt 0.500000 0.500000
vt 0.500000 0.500000
vt 0.500000 0.500000
vt 0.500000 0.500000
vt 0.500000 0.500000
vt 0.500000 0.500000
vt 0.500000 0.500000
vt 0.500000 0.500000
vt 0.500000 0.500000
vt 0.500000 0.500000
vt 0.500000 0.500000
vt 0.500000 0.500000
vt 0.500000 0.500000
vt 0.500000 0.500000
vt 0.500000 0.500000
vt 0.500000 0.500000
vt 0.500000 0.500000
vt 0.500000 0.500000
vt 0.500000 0.500000
vt 0.500000 0.500000
vt 0.500000 0.500000
vt 0.500000 0.500000
vt 0.500000 0.500000
vt 0.500000 0.500000
vt 0.500000 0.500000
vt 0.500000 0.500000
vt 0.500000 0.500000
vt 0.500000 0.500000
vt 0.500000 0.500000
vt 0.500000 0.500000
vt 0.500000 0.500000
vt 0.500000 0.500000
vt 0.500000 0.500000
vt 0.500000 0.500000
vt 0.500000 0.500000
vt 0.500000 0.500000
vt 0.500000 0.500000
vt 0.500000 0.500000
vt 0.500000 0.500000
vt 0.500000 0.500000
vt 0.500000 0.500000
vt 0.500000 0.500000
vt 0.500000 0.500000
vt 0.500000 0.500000
vt 0.500000 0.500000
vt 0.500000 0.500000
vt 0.500000 0.500000
vt 0.500000 0.500000
vt 0.500000 0.500000
vt 0.500000 0.500000
vt 0.500000 0.500000
vt 0.500000 0.500000
vt 0.500000 0.500000
vt 0.500000 0.500000
vt 0.500000 0.500000
vt 0.500000 0.500000
vt 0.500000 0.500000
vt 0.500000 0.500000
vt 0.500000 0.500000
vt 0.500000 0.500000
vt 0.500000 0.500000
vt 0.500000 0.500000
vt 0.500000 0.500000
vt 0.500000 0.500000
vt 0.500000 0.500000
vt 0.500000 0.500000
vt 0.500000 0.500000
vt 0.500000 0.500000
vt 0.500000 0.500000
vt 0.500000 0.500000
vt 0.500000 0.500000
vt 0.500000 0.500000
vt 0.500000 0.500000
vt 0.500000 0.500000
vt 0.500000 0.500000
vt 0.500000 0.500000
vt 0.500000 0.500000
vt 0.500000 0.500000
vt 0.500000 0.500000
vt 0.500000 0.500000
vt 0.500000 0.500000
vt 0.500000 0.500000
vt 0.500000 0.500000
vt 0.500000 0.500000
vt 0.500000 0.500000
vt 0.500000 0.500000
vt 0.500000 0.500000
vt 0.500000 0.500000
vt 0.500000 0.500000
vt 0.500000 0.500000
vt 0.500000 0.500000
vt 0.500000 0.500000
vt 0.500000 0.500000
vt 0.500000 0.500000
vt 0.500000 0.500000
vt 0.500000 0.500000
vt 0.500000 0.500000
vt 0.500000 0.500000
vt 0.444170 0.438047
vt 0.443249 0.438802
vt 0.440450 0.432556
vt 0.440514 0.429843
vt 0.443639 0.417605
vt 0.447558 0.417499
vt 0.440611 0.417728
vt 0.442460 0.418063
vt 0.440098 0.428013
vt 0.452508 0.428663
vt 0.445568 0.438433
vt 0.452213 0.426260
vt 0.440788 0.445191
vt 0.439900 0.434386
vt 0.443131 0.413806
vt 0.444071 0.410458
vt 0.446045 0.415053
vt 0.456666 0.434505
vt 0.455555 0.434259
vt 0.457178 0.432742
vt 0.445547 0.410167
vt 0.446505 0.412828
vt 0.449648 0.417396
vt 0.452433 0.422655
vt 0.453125 0.416667
vt 0.438285 0.429232
vt 0.437516 0.429162
vt 0.437202 0.426733
vt 0.443408 0.440637
vt 0.452749 0.435277
vt 0.452765 0.438685
vt 0.446518 0.439867
vt 0.453186 0.433136
vt 0.454238 0.433209
vt 0.457035 0.430072
vt 0.443061 0.411743
vt 0.446562 0.410974
vt 0.437500 0.444444
vt 0.443982 0.442861
vt 0.442742 0.445304
vt 0.438928 0.434162
vt 0.446416 0.442129
vt 0.443986 0.444624
vt 0.453539 0.428907
vt 0.454955 0.428173
vt 0.443642 0.416009
vt 0.446170 0.416813
vt 0.456259 0.428178
vt 0.436828 0.435182
vt 0.437854 0.433103
vt 0.437062 0.433023
vt 0.446058 0.446148
vt 0.445933 0.444503
vt 0.447468 0.446477
vt 0.439259 0.428229
vt 0.453125 0.444444
vt 0.437500 0.416667
vn 0.0000 -1.0000 -0.0000
vn -0.0000 -1.0000 -0.0001
vn 0.1301 0.0000 0.9915
vn 0.9910 0.0000 0.1335
vn 0.0324 0.0000 0.9995
vn -0.2939 0.0000 0.9558
vn 0.1267 0.0000 0.9919
vn -1.0000 0.0000 -0.0046
vn -0.1981 0.0000 0.9802
vn 0.9403 0.0000 -0.3404
vn -0.9088 0.0000 -0.4172
vn 0.9968 0.0000 -0.0798
vn -0.9939 0.0000 -0.1105
vn -0.9883 0.0000 -0.1525
vn 0.6470 0.0000 0.7625
vn -0.4185 0.0000 0.9082
vn -1.0000 0.0000 -0.0086
vn 0.9918 0.0000 0.1280
vn 0.1537 0.0000 0.9881
vn -0.9398 0.0000 0.3418
vn 0.9819 0.0000 -0.1893
vn -0.1283 0.0000 -0.9917
vn 0.1236 0.0000 0.9923
vn -0.8883 0.0000 0.4592
vn 0.8823 0.0000 -0.4708
vn 0.4092 0.0000 0.9125
vn -0.0570 0.0000 -0.9984
vn -0.4849 0.0000 -0.8746
vn 0.0390 0.0000 0.9992
vn -0.9955 0.0000 -0.0952
vn 0.9991 0.0000 -0.0423
vn -0.8085 0.0000 -0.5884
vn 0.9269 0.0000 0.3752
vn 0.0514 0.0000 0.9987
vn -0.5012 0.0000 0.8653
vn 0.9746 0.0000 0.2241
vn -0.1317 0.0000 -0.9913
vn 0.2799 0.0000 -0.9600
vn -0.0023 0.0000 -1.0000
vn -0.9770 0.0000 -0.2133
vn -0.1432 0.0000 0.9897
vn -0.9942 0.0000 0.1078
vn 0.9986 0.0000 -0.0527
vn -0.1885 0.0000 -0.9821
vn -0.1013 0.0000 -0.9949
vn 0.2136 0.0000 -0.9769
vn 1.0000 0.0000 -0.0033
vn -0.2679 0.0000 -0.9635
vn 0.0276 0.0000 -0.9996
vn -0.9795 0.0000 0.2013
vn 0.1172 0.0000 -0.9931
vn -0.9921 0.0000 -0.1251
vn 0.9245 0.0000 0.3812
vn -0.9386 0.0000 0.3449
vn 0.9982 0.0000 0.0607
vn -0.9985 0.0000 0.0544
vn 0.5816 0.0000 -0.8135
vn 0.1104 0.0000 -0.9939
vn -0.4083 0.0000 -0.9128
vn 0.0000 1.0000 -0.0000
usemtl BackMat.001
s off
f 209/1/1 223/2/1 206/3/1
f 227/4/1 249/5/1 246/6/1
f 244/7/1 229/8/1 245/9/1
f 237/10/1 240/11/1 208/12/1
f 206/3/1 216/13/1 193/14/1
f 256/15/1 255/16/1 261/17/1
f 227/4/1 246/6/1 229/8/1
f 220/18/1 222/19/1 219/20/1
f 261/17/1 257/21/1 262/22/1
f 252/23/1 240/11/1 241/24/1
f 252/23/1 241/24/1 253/25/1
f 206/3/1 223/2/1 216/13/1
f 233/26/1 235/27/1 231/28/1
f 206/3/1 193/14/1 203/29/1
f 210/30/1 204/31/1 205/32/1
f 210/30/1 212/33/1 237/10/1
f 219/20/1 226/34/1 224/35/1
f 256/15/1 261/17/1 258/36/1
f 262/22/1 257/21/1 259/37/1
f 193/14/1 216/13/1 197/38/1
f 203/29/1 194/39/1 199/40/1
f 197/38/1 216/13/1 218/41/1
f 204/31/1 202/42/1 205/32/1
f 209/1/1 227/4/1 223/2/1
f 195/43/1 199/40/1 194/39/1
f 208/12/1 240/11/1 227/4/1
f 194/39/1 203/29/1 193/14/1
f 249/5/1 240/11/1 252/23/1
f 224/35/1 236/44/1 212/33/1
f 237/10/1 212/33/1 236/44/1
f 222/19/1 226/34/1 219/20/1
f 239/45/1 224/35/1 226/34/1
f 248/46/1 250/47/1 255/16/1
f 255/16/1 257/21/1 261/17/1
f 239/45/2 226/34/2 228/48/2
f 211/49/1 218/41/1 225/50/1
f 227/4/1 240/11/1 249/5/1
f 211/49/1 225/50/1 214/51/1
f 189/52/1 191/53/1 192/54/1
f 237/10/1 208/12/1 210/30/1
f 205/32/1 202/42/1 191/53/1
f 234/55/1 235/27/1 233/26/1
f 192/54/1 191/53/1 202/42/1
f 246/6/1 250/47/1 248/46/1
f 249/5/1 250/47/1 246/6/1
f 205/32/1 191/53/1 200/56/1
f 236/44/1 224/35/1 239/45/1
f 235/27/1 244/7/1 242/57/1
f 229/8/1 246/6/1 245/9/1
f 248/46/1 255/16/1 256/15/1
f 197/38/1 218/41/1 211/49/1
f 208/12/1 227/4/1 209/1/1
f 235/27/1 229/8/1 244/7/1
f 229/8/1 235/27/1 234/55/1
f 204/31/1 210/30/1 208/12/1
f 116/58/3 41/59/3 98/60/3 190/61/3
f 39/62/4 40/63/4 97/64/4 96/65/4
f 29/66/5 30/67/5 87/68/5 86/69/5
f 30/67/6 122/70/6 196/71/6 87/68/6
f 124/72/7 29/66/7 86/69/7 198/73/7
f 31/74/8 32/75/8 89/76/8 88/77/8
f 41/59/9 127/78/9 201/79/9 98/60/9
f 38/80/10 39/62/10 96/65/10 95/81/10
f 32/75/11 33/82/11 90/83/11 89/76/11
f 37/84/12 38/80/12 95/81/12 94/85/12
f 42/86/13 43/87/13 100/88/13 99/89/13
f 33/82/14 133/90/14 207/91/14 90/83/14
f 36/92/15 37/84/15 94/85/15 93/93/15
f 34/94/16 35/95/16 92/96/16 91/97/16
f 43/87/17 44/98/17 101/99/17 100/88/17
f 27/100/18 28/101/18 85/102/18 84/103/18
f 35/95/19 36/92/19 93/93/19 92/96/19
f 44/98/20 139/104/20 213/105/20 101/99/20
f 141/106/21 27/100/21 84/103/21 215/107/21
f 143/108/22 24/109/22 81/110/22 217/111/22
f 47/112/23 147/113/23 221/114/23 104/115/23
f 48/116/24 49/117/24 106/118/24 105/119/24
f 22/120/25 23/121/25 80/122/25 79/123/25
f 46/124/26 47/112/26 104/115/26 103/125/26
f 25/126/27 26/127/27 83/128/27 82/129/27
f 24/109/28 25/126/28 82/129/28 81/110/28
f 45/130/29 46/124/29 103/125/29 102/131/29
f 49/117/30 50/132/30 107/133/30 106/118/30
f 21/134/31 22/120/31 79/123/31 78/135/31
f 50/132/32 51/136/32 108/137/32 107/133/32
f 156/138/33 21/134/33 78/135/33 230/139/33
f 158/140/34 18/141/34 75/142/34 232/143/34
f 18/141/35 19/144/35 76/145/35 75/142/35
f 16/146/36 17/147/36 74/148/36 73/149/36
f 53/150/37 164/151/37 238/152/37 110/153/37
f 52/154/38 53/150/38 110/153/38 109/155/38
f 51/136/39 52/154/39 109/155/39 108/137/39
f 54/156/40 55/157/40 112/158/40 111/159/40
f 19/144/41 20/160/41 77/161/41 76/145/41
f 55/157/42 56/162/42 113/163/42 112/158/42
f 169/164/43 16/146/43 73/149/43 243/165/43
f 14/166/44 15/167/44 72/168/44 71/169/44
f 13/170/45 14/166/45 71/169/45 70/171/45
f 173/172/46 13/170/46 70/171/46 247/173/46
f 11/174/47 12/175/47 69/176/47 68/177/47
f 2/178/48 177/179/48 251/180/48 59/181/48
f 1/182/49 2/178/49 59/181/49 58/183/49
f 56/162/50 180/184/50 254/185/50 113/163/50
f 57/186/51 1/182/51 58/183/51 114/187/51
f 3/188/52 4/189/52 61/190/52 60/191/52
f 10/192/53 11/174/53 68/177/53 67/193/53
f 4/189/54 5/194/54 62/195/54 61/190/54
f 9/196/55 10/192/55 67/193/55 66/197/55
f 5/194/56 186/198/56 260/199/56 62/195/56
f 8/200/57 9/196/57 66/197/57 65/201/57
f 7/202/58 8/200/58 65/201/58 64/203/58
f 6/204/59 7/202/59 64/203/59 63/205/59
usemtl FrontMat.001
f 135/206/60 132/207/60 149/208/60
f 153/209/60 172/210/60 175/211/60
f 170/212/60 171/213/60 155/214/60
f 163/215/60 134/216/60 166/217/60
f 132/207/60 119/218/60 142/219/60
f 182/220/60 187/221/60 181/222/60
f 153/209/60 155/214/60 172/210/60
f 146/223/60 145/224/60 148/225/60
f 187/221/60 188/226/60 183/227/60
f 178/228/60 167/229/60 166/217/60
f 178/228/60 179/230/60 167/229/60
f 132/207/60 142/219/60 149/208/60
f 159/231/60 157/232/60 161/233/60
f 132/207/60 129/234/60 119/218/60
f 136/235/60 131/236/60 130/237/60
f 136/235/60 163/215/60 138/238/60
f 145/224/60 150/239/60 152/240/60
f 182/220/60 184/241/60 187/221/60
f 188/226/60 185/242/60 183/227/60
f 119/218/60 123/243/60 142/219/60
f 129/234/60 125/244/60 120/245/60
f 123/243/60 144/246/60 142/219/60
f 130/237/60 131/236/60 128/247/60
f 135/206/60 149/208/60 153/209/60
f 121/248/60 120/245/60 125/244/60
f 134/216/60 153/209/60 166/217/60
f 120/245/60 119/218/60 129/234/60
f 175/211/60 178/228/60 166/217/60
f 150/239/60 138/238/60 162/249/60
f 163/215/60 162/249/60 138/238/60
f 148/225/60 145/224/60 152/240/60
f 165/250/60 152/240/60 150/239/60
f 174/251/60 181/222/60 176/252/60
f 181/222/60 187/221/60 183/227/60
f 165/250/60 154/253/60 152/240/60
f 137/254/60 151/255/60 144/246/60
f 153/209/60 175/211/60 166/217/60
f 137/254/60 140/256/60 151/255/60
f 115/257/60 118/258/60 117/259/60
f 163/215/60 136/235/60 134/216/60
f 131/236/60 117/259/60 128/247/60
f 160/260/60 159/231/60 161/233/60
f 118/258/60 128/247/60 117/259/60
f 172/210/60 174/251/60 176/252/60
f 175/211/60 172/210/60 176/252/60
f 131/236/60 126/261/60 117/259/60
f 162/249/60 165/250/60 150/239/60
f 161/233/60 168/262/60 170/212/60
f 155/214/60 171/213/60 172/210/60
f 174/251/60 182/220/60 181/222/60
f 123/243/60 137/254/60 144/246/60
f 134/216/60 135/206/60 153/209/60
f 161/233/60 170/212/60 155/214/60
f 155/214/60 160/260/60 161/233/60
f 130/237/60 134/216/60 136/235/60
