# Blender v2.83.1 OBJ File: 'jigsaw-64x36-3-step2.blend'
# www.blender.org
mtllib piece.1741.mtl
o path8098
v 0.284584 0.037500 0.553144
v 0.163612 0.037500 0.559027
v 0.088528 0.037500 0.534401
v 0.093111 0.037500 0.467729
v 0.132233 0.037500 0.382210
v 0.141027 0.037500 0.309678
v 0.075710 0.037500 0.276051
v -0.023273 0.037500 0.283580
v -0.094399 0.037500 0.328603
v -0.096725 0.037500 0.403499
v -0.071610 0.037500 0.484819
v -0.080988 0.037500 0.545169
v -0.167559 0.037500 0.564992
v -0.297091 0.037500 0.556104
v -0.512070 0.037500 0.522210
v -0.540897 0.037500 0.164974
v -0.519100 0.037500 0.075560
v -0.461996 0.037500 0.066973
v -0.389259 0.037500 0.096890
v -0.327885 0.037500 0.103413
v -0.299662 0.037500 0.044348
v -0.305508 0.037500 -0.043649
v -0.341125 0.037500 -0.104210
v -0.399584 0.037500 -0.100175
v -0.463377 0.037500 -0.071221
v -0.512356 0.037500 -0.076237
v -0.532003 0.037500 -0.155786
v -0.512070 0.037500 -0.479699
v -0.167711 0.037500 -0.434021
v -0.082876 0.037500 -0.452336
v -0.077009 0.037500 -0.510778
v -0.107073 0.037500 -0.588398
v -0.110596 0.037500 -0.656101
v -0.045317 0.037500 -0.690019
v 0.050158 0.037500 -0.687166
v 0.117010 0.037500 -0.649789
v 0.116213 0.037500 -0.583998
v 0.087889 0.037500 -0.511326
v 0.091959 0.037500 -0.457175
v 0.169924 0.037500 -0.439742
v 0.489630 0.037500 -0.479699
v 0.543127 0.037500 -0.284819
v 0.564283 0.037500 -0.167722
v 0.553629 0.037500 -0.090176
v 0.496054 0.037500 -0.083178
v 0.412476 0.037500 -0.106654
v 0.332819 0.037500 -0.102749
v 0.282930 0.037500 -0.032950
v 0.272350 0.037500 0.063874
v 0.306536 0.037500 0.129506
v 0.383900 0.037500 0.125826
v 0.474600 0.037500 0.095115
v 0.541748 0.037500 0.099750
v 0.558842 0.037500 0.182770
v 0.540926 0.037500 0.309860
v 0.489630 0.037500 0.522210
v 0.284584 -0.037498 0.553144
v 0.163612 -0.037500 0.559027
v 0.088528 -0.037498 0.534401
v 0.093111 -0.037500 0.467729
v 0.132233 -0.037500 0.382210
v 0.141027 -0.037500 0.309678
v 0.075710 -0.037500 0.276051
v -0.023273 -0.037500 0.283580
v -0.094399 -0.037500 0.328603
v -0.096725 -0.037500 0.403499
v -0.071610 -0.037500 0.484819
v -0.080988 -0.037500 0.545169
v -0.167559 -0.037500 0.564992
v -0.297091 -0.037500 0.556104
v -0.512070 -0.037500 0.522210
v -0.540897 -0.037500 0.164974
v -0.519100 -0.037500 0.075560
v -0.461996 -0.037500 0.066973
v -0.389259 -0.037498 0.096890
v -0.327885 -0.037500 0.103413
v -0.299662 -0.037500 0.044348
v -0.305508 -0.037498 -0.043649
v -0.341125 -0.037500 -0.104210
v -0.399584 -0.037500 -0.100175
v -0.463377 -0.037500 -0.071221
v -0.512356 -0.037500 -0.076237
v -0.532003 -0.037500 -0.155786
v -0.512070 -0.037500 -0.479699
v -0.167711 -0.037498 -0.434021
v -0.082876 -0.037500 -0.452336
v -0.077009 -0.037500 -0.510778
v -0.107073 -0.037500 -0.588398
v -0.110596 -0.037498 -0.656101
v -0.045317 -0.037500 -0.690019
v 0.050158 -0.037500 -0.687166
v 0.117010 -0.037498 -0.649789
v 0.116213 -0.037500 -0.583998
v 0.087889 -0.037500 -0.511326
v 0.091959 -0.037500 -0.457175
v 0.169924 -0.037498 -0.439742
v 0.489630 -0.037500 -0.479699
v 0.543127 -0.037500 -0.284819
v 0.564283 -0.037500 -0.167722
v 0.553629 -0.037500 -0.090176
v 0.496054 -0.037500 -0.083178
v 0.412476 -0.037500 -0.106654
v 0.332819 -0.037500 -0.102749
v 0.282930 -0.037500 -0.032950
v 0.272350 -0.037500 0.063874
v 0.306536 -0.037500 0.129506
v 0.383900 -0.037498 0.125826
v 0.474600 -0.037500 0.095115
v 0.541748 -0.037500 0.099750
v 0.558842 -0.037500 0.182770
v 0.540926 -0.037500 0.309860
v 0.489630 -0.037500 0.522210
v 0.543127 0.037500 -0.284819
v 0.564283 0.037500 -0.167722
v 0.553629 0.037500 -0.090176
v 0.553629 0.037500 -0.090176
v 0.541748 0.037500 0.099750
v 0.541748 0.037500 0.099750
v 0.558842 0.037500 0.182770
v 0.540926 0.037500 0.309860
v 0.496054 0.037500 -0.083178
v 0.474600 0.037500 0.095115
v 0.489630 0.037500 -0.479699
v 0.489630 0.037500 -0.479699
v 0.412476 0.037500 -0.106654
v 0.489630 0.037500 0.522210
v 0.489630 0.037500 0.522210
v 0.383900 0.037500 0.125826
v 0.332819 0.037500 -0.102749
v 0.284584 0.037500 0.553144
v 0.306536 0.037500 0.129506
v 0.306536 0.037500 0.129506
v 0.282930 0.037500 -0.032950
v 0.272350 0.037500 0.063874
v 0.169924 0.037500 -0.439742
v 0.163612 0.037500 0.559027
v 0.091959 0.037500 -0.457175
v 0.091959 0.037500 -0.457175
v 0.132233 0.037500 0.382210
v 0.141027 0.037500 0.309678
v 0.141027 0.037500 0.309678
v 0.088528 0.037500 0.534401
v 0.088528 0.037500 0.534401
v 0.075710 0.037500 0.276051
v 0.093111 0.037500 0.467729
v 0.050158 0.037500 -0.687166
v 0.117010 0.037500 -0.649789
v 0.117010 0.037500 -0.649789
v 0.116213 0.037500 -0.583998
v 0.087889 0.037500 -0.511326
v -0.023273 0.037500 0.283580
v -0.045317 0.037500 -0.690019
v -0.094399 0.037500 0.328603
v -0.110596 0.037500 -0.656101
v -0.110596 0.037500 -0.656101
v -0.096725 0.037500 0.403499
v -0.071610 0.037500 0.484819
v -0.080988 0.037500 0.545169
v -0.080988 0.037500 0.545169
v -0.107073 0.037500 -0.588398
v -0.077009 0.037500 -0.510778
v -0.082876 0.037500 -0.452336
v -0.082876 0.037500 -0.452336
v -0.167559 0.037500 0.564992
v -0.167711 0.037500 -0.434021
v -0.297091 0.037500 0.556104
v -0.299662 0.037500 0.044348
v -0.305508 0.037500 -0.043649
v -0.327885 0.037500 0.103413
v -0.327885 0.037500 0.103413
v -0.341125 0.037500 -0.104210
v -0.341125 0.037500 -0.104210
v -0.389259 0.037500 0.096890
v -0.399584 0.037500 -0.100175
v -0.461996 0.037500 0.066973
v -0.463377 0.037500 -0.071221
v -0.512070 0.037500 -0.479699
v -0.512070 0.037500 -0.479699
v -0.519100 0.037500 0.075560
v -0.519100 0.037500 0.075560
v -0.512356 0.037500 -0.076237
v -0.512356 0.037500 -0.076237
v -0.512070 0.037500 0.522210
v -0.512070 0.037500 0.522210
v -0.532003 0.037500 -0.155786
v -0.540897 0.037500 0.164974
v 0.543127 -0.037500 -0.284819
v 0.564283 -0.037500 -0.167722
v 0.553629 -0.037500 -0.090176
v 0.553629 -0.037500 -0.090176
v 0.541748 -0.037500 0.099750
v 0.541748 -0.037500 0.099750
v 0.558842 -0.037500 0.182770
v 0.540926 -0.037500 0.309860
v 0.496054 -0.037500 -0.083178
v 0.474600 -0.037500 0.095115
v 0.489630 -0.037500 -0.479699
v 0.489630 -0.037500 -0.479699
v 0.412476 -0.037500 -0.106654
v 0.489630 -0.037500 0.522210
v 0.489630 -0.037500 0.522210
v 0.383900 -0.037498 0.125826
v 0.332819 -0.037500 -0.102749
v 0.284584 -0.037498 0.553144
v 0.306536 -0.037500 0.129506
v 0.306536 -0.037500 0.129506
v 0.282930 -0.037500 -0.032950
v 0.272350 -0.037500 0.063874
v 0.169924 -0.037498 -0.439742
v 0.163612 -0.037500 0.559027
v 0.091959 -0.037500 -0.457175
v 0.091959 -0.037500 -0.457175
v 0.132233 -0.037500 0.382210
v 0.141027 -0.037500 0.309678
v 0.141027 -0.037500 0.309678
v 0.088528 -0.037498 0.534401
v 0.088528 -0.037498 0.534401
v 0.075710 -0.037500 0.276051
v 0.093111 -0.037500 0.467729
v 0.050158 -0.037500 -0.687166
v 0.117010 -0.037498 -0.649789
v 0.117010 -0.037498 -0.649789
v 0.116213 -0.037500 -0.583998
v 0.087889 -0.037500 -0.511326
v -0.023273 -0.037500 0.283580
v -0.045317 -0.037500 -0.690019
v -0.094399 -0.037500 0.328603
v -0.110596 -0.037498 -0.656101
v -0.110596 -0.037498 -0.656101
v -0.096725 -0.037500 0.403499
v -0.071610 -0.037500 0.484819
v -0.080988 -0.037500 0.545169
v -0.080988 -0.037500 0.545169
v -0.107073 -0.037500 -0.588398
v -0.077009 -0.037500 -0.510778
v -0.082876 -0.037500 -0.452336
v -0.082876 -0.037500 -0.452336
v -0.167559 -0.037500 0.564992
v -0.167711 -0.037498 -0.434021
v -0.297091 -0.037500 0.556104
v -0.299662 -0.037500 0.044348
v -0.305508 -0.037498 -0.043649
v -0.327885 -0.037500 0.103413
v -0.327885 -0.037500 0.103413
v -0.341125 -0.037500 -0.104210
v -0.341125 -0.037500 -0.104210
v -0.389259 -0.037498 0.096890
v -0.399584 -0.037500 -0.100175
v -0.461996 -0.037500 0.066973
v -0.463377 -0.037500 -0.071221
v -0.512070 -0.037500 -0.479699
v -0.512070 -0.037500 -0.479699
v -0.519100 -0.037500 0.075560
v -0.519100 -0.037500 0.075560
v -0.512356 -0.037500 -0.076237
v -0.512356 -0.037500 -0.076237
v -0.512070 -0.037500 0.522210
v -0.512070 -0.037500 0.522210
v -0.532003 -0.037500 -0.155786
v -0.540897 -0.037500 0.164974
vt 0.500000 0.500000
vt 0.500000 0.500000
vt 0.500000 0.500000
vt 0.500000 0.500000
vt 0.500000 0.500000
vt 0.500000 0.500000
vt 0.500000 0.500000
vt 0.500000 0.500000
vt 0.500000 0.500000
vt 0.500000 0.500000
vt 0.500000 0.500000
vt 0.500000 0.500000
vt 0.500000 0.500000
vt 0.500000 0.500000
vt 0.500000 0.500000
vt 0.500000 0.500000
vt 0.500000 0.500000
vt 0.500000 0.500000
vt 0.500000 0.500000
vt 0.500000 0.500000
vt 0.500000 0.500000
vt 0.500000 0.500000
vt 0.500000 0.500000
vt 0.500000 0.500000
vt 0.500000 0.500000
vt 0.500000 0.500000
vt 0.500000 0.500000
vt 0.500000 0.500000
vt 0.500000 0.500000
vt 0.500000 0.500000
vt 0.500000 0.500000
vt 0.500000 0.500000
vt 0.500000 0.500000
vt 0.500000 0.500000
vt 0.500000 0.500000
vt 0.500000 0.500000
vt 0.500000 0.500000
vt 0.500000 0.500000
vt 0.500000 0.500000
vt 0.500000 0.500000
vt 0.500000 0.500000
vt 0.500000 0.500000
vt 0.500000 0.500000
vt 0.500000 0.500000
vt 0.500000 0.500000
vt 0.500000 0.500000
vt 0.500000 0.500000
vt 0.500000 0.500000
vt 0.500000 0.500000
vt 0.500000 0.500000
vt 0.500000 0.500000
vt 0.500000 0.500000
vt 0.500000 0.500000
vt 0.500000 0.500000
vt 0.500000 0.500000
vt 0.500000 0.500000
vt 0.500000 0.500000
vt 0.500000 0.500000
vt 0.500000 0.500000
vt 0.500000 0.500000
vt 0.500000 0.500000
vt 0.500000 0.500000
vt 0.500000 0.500000
vt 0.500000 0.500000
vt 0.500000 0.500000
vt 0.500000 0.500000
vt 0.500000 0.500000
vt 0.500000 0.500000
vt 0.500000 0.500000
vt 0.500000 0.500000
vt 0.500000 0.500000
vt 0.500000 0.500000
vt 0.500000 0.500000
vt 0.500000 0.500000
vt 0.500000 0.500000
vt 0.500000 0.500000
vt 0.500000 0.500000
vt 0.500000 0.500000
vt 0.500000 0.500000
vt 0.500000 0.500000
vt 0.500000 0.500000
vt 0.500000 0.500000
vt 0.500000 0.500000
vt 0.500000 0.500000
vt 0.500000 0.500000
vt 0.500000 0.500000
vt 0.500000 0.500000
vt 0.500000 0.500000
vt 0.500000 0.500000
vt 0.500000 0.500000
vt 0.500000 0.500000
vt 0.500000 0.500000
vt 0.500000 0.500000
vt 0.500000 0.500000
vt 0.500000 0.500000
vt 0.500000 0.500000
vt 0.500000 0.500000
vt 0.500000 0.500000
vt 0.500000 0.500000
vt 0.500000 0.500000
vt 0.500000 0.500000
vt 0.500000 0.500000
vt 0.500000 0.500000
vt 0.500000 0.500000
vt 0.500000 0.500000
vt 0.500000 0.500000
vt 0.500000 0.500000
vt 0.500000 0.500000
vt 0.500000 0.500000
vt 0.500000 0.500000
vt 0.500000 0.500000
vt 0.500000 0.500000
vt 0.500000 0.500000
vt 0.500000 0.500000
vt 0.500000 0.500000
vt 0.500000 0.500000
vt 0.500000 0.500000
vt 0.500000 0.500000
vt 0.500000 0.500000
vt 0.500000 0.500000
vt 0.500000 0.500000
vt 0.500000 0.500000
vt 0.500000 0.500000
vt 0.500000 0.500000
vt 0.500000 0.500000
vt 0.500000 0.500000
vt 0.500000 0.500000
vt 0.500000 0.500000
vt 0.500000 0.500000
vt 0.500000 0.500000
vt 0.500000 0.500000
vt 0.500000 0.500000
vt 0.500000 0.500000
vt 0.500000 0.500000
vt 0.500000 0.500000
vt 0.500000 0.500000
vt 0.500000 0.500000
vt 0.500000 0.500000
vt 0.500000 0.500000
vt 0.500000 0.500000
vt 0.500000 0.500000
vt 0.500000 0.500000
vt 0.500000 0.500000
vt 0.500000 0.500000
vt 0.500000 0.500000
vt 0.500000 0.500000
vt 0.500000 0.500000
vt 0.500000 0.500000
vt 0.500000 0.500000
vt 0.500000 0.500000
vt 0.500000 0.500000
vt 0.500000 0.500000
vt 0.500000 0.500000
vt 0.500000 0.500000
vt 0.500000 0.500000
vt 0.500000 0.500000
vt 0.500000 0.500000
vt 0.500000 0.500000
vt 0.500000 0.500000
vt 0.500000 0.500000
vt 0.500000 0.500000
vt 0.500000 0.500000
vt 0.500000 0.500000
vt 0.500000 0.500000
vt 0.500000 0.500000
vt 0.500000 0.500000
vt 0.500000 0.500000
vt 0.500000 0.500000
vt 0.500000 0.500000
vt 0.500000 0.500000
vt 0.500000 0.500000
vt 0.500000 0.500000
vt 0.500000 0.500000
vt 0.500000 0.500000
vt 0.500000 0.500000
vt 0.500000 0.500000
vt 0.500000 0.500000
vt 0.500000 0.500000
vt 0.500000 0.500000
vt 0.500000 0.500000
vt 0.500000 0.500000
vt 0.500000 0.500000
vt 0.500000 0.500000
vt 0.500000 0.500000
vt 0.500000 0.500000
vt 0.500000 0.500000
vt 0.500000 0.500000
vt 0.500000 0.500000
vt 0.500000 0.500000
vt 0.500000 0.500000
vt 0.500000 0.500000
vt 0.500000 0.500000
vt 0.500000 0.500000
vt 0.500000 0.500000
vt 0.500000 0.500000
vt 0.500000 0.500000
vt 0.500000 0.500000
vt 0.500000 0.500000
vt 0.500000 0.500000
vt 0.500000 0.500000
vt 0.500000 0.500000
vt 0.500000 0.500000
vt 0.500000 0.500000
vt 0.500000 0.500000
vt 0.203654 0.228184
vt 0.203792 0.231776
vt 0.201274 0.233740
vt 0.187500 0.222222
vt 0.193419 0.225341
vt 0.193356 0.226963
vt 0.200106 0.233805
vt 0.188123 0.241134
vt 0.187851 0.238972
vt 0.194467 0.244268
vt 0.196492 0.225628
vt 0.197554 0.221423
vt 0.196594 0.227330
vt 0.203607 0.244314
vt 0.203125 0.250000
vt 0.199813 0.251422
vt 0.185873 0.239645
vt 0.184265 0.237813
vt 0.187015 0.234287
vt 0.192552 0.221669
vt 0.193792 0.222214
vt 0.193870 0.223572
vt 0.197831 0.251919
vt 0.196537 0.251445
vt 0.196464 0.249583
vt 0.184220 0.235165
vt 0.185805 0.233453
vt 0.193684 0.250178
vt 0.193575 0.251775
vt 0.192365 0.252070
vt 0.199811 0.240333
vt 0.200942 0.240089
vt 0.197001 0.244923
vt 0.203125 0.222222
vt 0.193379 0.245652
vt 0.193318 0.247860
vt 0.190539 0.251484
vt 0.187927 0.234124
vt 0.188212 0.231771
vt 0.194300 0.227950
vt 0.199404 0.235777
vt 0.199286 0.238522
vt 0.195977 0.243975
vt 0.184749 0.233355
vt 0.187500 0.250000
vt 0.196943 0.247068
vt 0.187007 0.238859
vt 0.203699 0.240959
vt 0.195673 0.228112
vt 0.202542 0.234436
vt 0.203483 0.234176
vt 0.196025 0.223611
vt 0.196159 0.222027
vt 0.184847 0.239667
vt 0.202275 0.239004
vt 0.203315 0.238877
vn 0.0000 -1.0000 -0.0000
vn -0.0000 -1.0000 -0.0001
vn -0.0001 -1.0000 -0.0000
vn 0.0001 -1.0000 -0.0000
vn 0.9841 0.0000 -0.1778
vn 0.9907 0.0000 0.1361
vn 0.9795 0.0000 -0.2017
vn 0.9902 0.0000 0.1396
vn 0.1206 0.0000 0.9927
vn 0.0689 0.0000 -0.9976
vn 0.9643 0.0000 -0.2647
vn -0.2704 0.0000 0.9627
vn 0.9720 0.0000 0.2348
vn -0.3207 0.0000 -0.9472
vn 0.0490 0.0000 0.9988
vn 0.1492 0.0000 0.9888
vn -0.0475 0.0000 -0.9989
vn 0.8136 0.0000 0.5815
vn 0.8869 0.0000 -0.4620
vn -0.1240 0.0000 -0.9923
vn 0.0486 0.0000 0.9988
vn 0.9941 0.0000 0.1086
vn 0.2182 0.0000 -0.9759
vn -0.9927 0.0000 -0.1204
vn -0.3116 0.0000 0.9502
vn -0.4577 0.0000 0.8891
vn -0.9094 0.0000 -0.4160
vn -0.9976 0.0000 -0.0686
vn 0.4880 0.0000 -0.8728
vn 0.9999 0.0000 0.0121
vn 0.9317 0.0000 0.3631
vn 0.9972 0.0000 -0.0750
vn 0.0758 0.0000 0.9971
vn 0.0299 0.0000 -0.9996
vn 0.5349 0.0000 0.8449
vn -0.4611 0.0000 -0.8874
vn 0.9555 0.0000 -0.2951
vn 0.9881 0.0000 0.1536
vn -0.9986 0.0000 0.0520
vn -0.9325 0.0000 0.3612
vn -0.9950 0.0000 -0.0999
vn 0.2232 0.0000 0.9748
vn -0.2110 0.0000 -0.9775
vn 0.9995 0.0000 0.0311
vn -0.0685 0.0000 0.9977
vn -0.9978 0.0000 0.0663
vn -0.9023 0.0000 -0.4311
vn -0.8620 0.0000 0.5070
vn 0.1057 0.0000 -0.9944
vn 0.0689 0.0000 0.9976
vn 0.3804 0.0000 -0.9248
vn 0.4133 0.0000 0.9106
vn 0.1315 0.0000 -0.9913
vn -0.1487 0.0000 -0.9889
vn -0.1019 0.0000 0.9948
vn -0.1557 0.0000 0.9878
vn -0.9708 0.0000 0.2398
vn -0.9715 0.0000 -0.2368
vn -0.9981 0.0000 -0.0614
vn -0.9968 0.0000 0.0804
vn 0.0000 1.0000 -0.0000
usemtl BackMat.001
s off
f 240/1/1 230/2/1 238/3/1
f 251/4/1 245/5/1 248/6/1
f 227/7/1 230/2/1 240/1/1
f 209/8/1 207/9/1 211/10/1
f 247/11/2 243/12/2 260/13/2
f 204/14/1 194/15/1 200/16/1
f 223/17/1 235/18/1 220/19/1
f 240/1/1 243/12/1 227/7/1
f 259/20/1 250/21/1 255/22/1
f 193/23/1 196/24/1 191/25/1
f 226/26/1 220/19/1 234/27/1
f 195/28/1 188/29/1 189/30/1
f 194/15/1 204/14/1 214/31/1
f 214/31/1 204/14/1 213/32/1
f 205/33/1 194/15/1 214/31/1
f 257/34/1 243/12/1 240/1/1
f 234/27/1 220/19/1 235/18/1
f 207/9/1 209/8/1 203/35/1
f 199/36/1 203/35/1 187/37/1
f 236/38/1 242/39/1 239/40/1
f 225/41/1 208/42/1 218/43/1
f 228/44/3 226/26/3 234/27/3
f 239/40/1 242/39/1 245/5/1
f 187/37/1 203/35/1 209/8/1
f 251/4/1 248/6/1 259/20/1
f 260/13/1 243/12/1 257/34/1
f 235/18/1 211/10/1 236/38/1
f 187/37/1 209/8/1 197/45/1
f 202/46/1 196/24/1 193/23/1
f 194/15/1 202/46/1 193/23/1
f 223/17/1 224/47/1 235/18/1
f 213/32/1 204/14/1 210/48/1
f 224/47/1 211/10/1 235/18/1
f 236/38/1 207/9/1 242/39/1
f 242/39/1 207/9/1 241/49/1
f 241/49/1 208/42/1 225/41/1
f 218/43/1 205/33/1 214/31/1
f 238/3/1 230/2/1 231/50/1
f 239/40/1 245/5/1 251/4/1
f 259/20/1 248/6/1 250/21/1
f 241/49/1 207/9/1 208/42/1
f 208/42/1 205/33/1 218/43/1
f 238/3/1 231/50/1 232/51/1
f 199/36/1 188/29/1 195/28/1
f 249/52/1 260/13/1 253/53/1
f 221/54/4 223/17/4 220/19/4
f 247/11/1 260/13/1 249/52/1
f 241/49/1 225/41/1 243/12/1
f 243/12/1 225/41/1 227/7/1
f 202/46/1 194/15/1 205/33/1
f 188/29/1 199/36/1 187/37/1
f 213/32/1 210/48/1 219/55/1
f 219/55/1 210/48/1 216/56/1
f 211/10/1 207/9/1 236/38/1
f 42/57/5 43/58/5 99/59/5 98/60/5
f 43/58/6 116/61/6 190/62/6 99/59/6
f 118/63/7 54/64/7 110/65/7 192/66/7
f 54/64/8 55/67/8 111/68/8 110/65/8
f 44/69/9 45/70/9 101/71/9 100/72/9
f 52/73/10 53/74/10 109/75/10 108/76/10
f 124/77/11 42/57/11 98/60/11 198/78/11
f 45/70/12 46/79/12 102/80/12 101/71/12
f 55/67/13 127/81/13 201/82/13 111/68/13
f 51/83/14 52/73/14 108/76/14 107/84/14
f 46/79/15 47/85/15 103/86/15 102/80/15
f 56/87/16 1/88/16 57/89/16 112/90/16
f 132/91/17 51/83/17 107/84/17 206/92/17
f 47/85/18 48/93/18 104/94/18 103/86/18
f 49/95/19 50/96/19 106/97/19 105/98/19
f 40/99/20 41/100/20 97/101/20 96/102/20
f 1/88/21 2/103/21 58/104/21 57/89/21
f 48/93/22 49/95/22 105/98/22 104/94/22
f 138/105/23 40/99/23 96/102/23 212/106/23
f 5/107/24 141/108/24 215/109/24 61/110/24
f 2/103/25 143/111/25 217/112/25 58/104/25
f 6/113/26 7/114/26 63/115/26 62/116/26
f 4/117/27 5/107/27 61/110/27 60/118/27
f 3/119/28 4/117/28 60/118/28 59/120/28
f 35/121/29 148/122/29 222/123/29 91/124/29
f 36/125/30 37/126/30 93/127/30 92/128/30
f 37/126/31 38/129/31 94/130/31 93/127/31
f 38/129/32 39/131/32 95/132/32 94/130/32
f 7/114/33 8/133/33 64/134/33 63/115/33
f 34/135/34 35/121/34 91/124/34 90/136/34
f 8/133/35 9/137/35 65/138/35 64/134/35
f 155/139/36 34/135/36 90/136/36 229/140/36
f 10/141/37 11/142/37 67/143/37 66/144/37
f 11/142/38 159/145/38 233/146/38 67/143/38
f 32/147/39 33/148/39 89/149/39 88/150/39
f 31/151/40 32/147/40 88/150/40 87/152/40
f 163/153/41 31/151/41 87/152/41 237/154/41
f 12/155/42 13/156/42 69/157/42 68/158/42
f 29/159/43 30/160/43 86/161/43 85/162/43
f 9/137/44 10/141/44 66/144/44 65/138/44
f 13/156/45 14/163/45 70/164/45 69/157/45
f 21/165/46 22/166/46 78/167/46 77/168/46
f 170/169/47 21/165/47 77/168/47 244/170/47
f 22/166/48 172/171/48 246/172/48 78/167/48
f 19/173/49 20/174/49 76/175/49 75/176/49
f 23/177/50 24/178/50 80/179/50 79/180/50
f 18/181/51 19/173/51 75/176/51 74/182/51
f 24/178/52 25/183/52 81/184/52 80/179/52
f 178/185/53 29/159/53 85/162/53 252/186/53
f 180/187/54 18/181/54 74/182/54 254/188/54
f 25/183/55 182/189/55 256/190/55 81/184/55
f 14/163/56 184/191/56 258/192/56 70/164/56
f 26/193/57 27/194/57 83/195/57 82/196/57
f 16/197/58 17/198/58 73/199/58 72/200/58
f 27/194/59 28/201/59 84/202/59 83/195/59
f 15/203/60 16/197/60 72/200/60 71/204/60
usemtl FrontMat.001
f 166/205/61 164/206/61 156/207/61
f 177/208/61 174/209/61 171/210/61
f 153/211/61 166/205/61 156/207/61
f 135/212/61 137/213/61 133/214/61
f 173/215/61 186/216/61 169/217/61
f 130/218/61 126/219/61 120/220/61
f 149/221/61 146/222/61 161/223/61
f 166/205/61 153/211/61 169/217/61
f 185/224/61 181/225/61 176/226/61
f 119/227/61 117/228/61 122/229/61
f 152/230/61 160/231/61 146/222/61
f 121/232/61 115/233/61 114/234/61
f 120/220/61 140/235/61 130/218/61
f 140/235/61 139/236/61 130/218/61
f 131/237/61 140/235/61 120/220/61
f 183/238/61 166/205/61 169/217/61
f 160/231/61 161/223/61 146/222/61
f 133/214/61 129/239/61 135/212/61
f 125/240/61 113/241/61 129/239/61
f 162/242/61 165/243/61 168/244/61
f 151/245/61 144/246/61 134/247/61
f 154/248/61 160/231/61 152/230/61
f 165/243/61 171/210/61 168/244/61
f 113/241/61 135/212/61 129/239/61
f 177/208/61 185/224/61 174/209/61
f 186/216/61 183/238/61 169/217/61
f 161/223/61 162/242/61 137/213/61
f 113/241/61 123/249/61 135/212/61
f 128/250/61 119/227/61 122/229/61
f 120/220/61 119/227/61 128/250/61
f 149/221/61 161/223/61 150/251/61
f 139/236/61 136/252/61 130/218/61
f 150/251/61 161/223/61 137/213/61
f 162/242/61 168/244/61 133/214/61
f 168/244/61 167/253/61 133/214/61
f 167/253/61 151/245/61 134/247/61
f 144/246/61 140/235/61 131/237/61
f 164/206/61 157/254/61 156/207/61
f 165/243/61 177/208/61 171/210/61
f 185/224/61 176/226/61 174/209/61
f 167/253/61 134/247/61 133/214/61
f 134/247/61 144/246/61 131/237/61
f 164/206/61 158/255/61 157/254/61
f 125/240/61 121/232/61 114/234/61
f 175/256/61 179/257/61 186/216/61
f 147/258/61 146/222/61 149/221/61
f 173/215/61 175/256/61 186/216/61
f 167/253/61 169/217/61 151/245/61
f 169/217/61 153/211/61 151/245/61
f 128/250/61 131/237/61 120/220/61
f 114/234/61 113/241/61 125/240/61
f 139/236/61 145/259/61 136/252/61
f 145/259/61 142/260/61 136/252/61
f 137/213/61 162/242/61 133/214/61
