# Blender v2.83.1 OBJ File: 'jigsaw-64x36-3-step2.blend'
# www.blender.org
mtllib piece.210.mtl
o path5036
v 0.579029 0.037500 -0.288093
v 0.599646 0.037500 -0.160756
v 0.586798 0.037500 -0.075803
v 0.525280 0.037500 -0.066911
v 0.439188 0.037500 -0.091862
v 0.362444 0.037500 -0.089464
v 0.322538 0.037500 -0.018837
v 0.321251 0.037500 0.079649
v 0.353928 0.037500 0.145312
v 0.412937 0.037500 0.138236
v 0.478994 0.037500 0.101562
v 0.529858 0.037500 0.099200
v 0.549448 0.037500 0.175554
v 0.525076 0.037500 0.502155
v 0.332796 0.037500 0.521993
v 0.217556 0.037500 0.520606
v 0.141920 0.037500 0.489827
v 0.136736 0.037500 0.419798
v 0.162563 0.037500 0.333058
v 0.162390 0.037500 0.260243
v 0.098196 0.037500 0.226405
v 0.007971 0.037500 0.234246
v -0.051289 0.037500 0.280885
v -0.042755 0.037500 0.359216
v -0.010273 0.037500 0.445248
v -0.017845 0.037500 0.510767
v -0.109232 0.037500 0.535472
v -0.247213 0.037500 0.530719
v -0.476833 0.037500 0.502155
v -0.459829 0.037500 0.297817
v -0.462734 0.037500 0.177228
v -0.494045 0.037500 0.102297
v -0.562639 0.037500 0.106551
v -0.644798 0.037500 0.144453
v -0.708656 0.037500 0.150704
v -0.728865 0.037500 0.081594
v -0.706139 0.037500 -0.020241
v -0.647711 0.037500 -0.090575
v -0.564173 0.037500 -0.086934
v -0.479650 0.037500 -0.053840
v -0.421633 0.037500 -0.057568
v -0.409193 0.037500 -0.143935
v -0.476833 0.037500 -0.499543
v -0.261658 0.037500 -0.517698
v -0.131609 0.037500 -0.515139
v -0.043787 0.037500 -0.483212
v -0.032578 0.037500 -0.412317
v -0.057497 0.037500 -0.325253
v -0.059326 0.037500 -0.252915
v 0.002195 0.037500 -0.220746
v 0.091505 0.037500 -0.232363
v 0.154091 0.037500 -0.285927
v 0.153936 0.037500 -0.374402
v 0.129032 0.037500 -0.469959
v 0.135866 0.037500 -0.539570
v 0.213375 0.037500 -0.559784
v 0.330381 0.037500 -0.545442
v 0.525076 0.037500 -0.499543
v 0.579029 -0.037500 -0.288093
v 0.599646 -0.037500 -0.160756
v 0.586798 -0.037498 -0.075803
v 0.525280 -0.037500 -0.066911
v 0.439188 -0.037500 -0.091862
v 0.362444 -0.037500 -0.089464
v 0.322538 -0.037500 -0.018837
v 0.321251 -0.037500 0.079649
v 0.353928 -0.037500 0.145312
v 0.412937 -0.037500 0.138236
v 0.478994 -0.037500 0.101562
v 0.529858 -0.037500 0.099200
v 0.549448 -0.037500 0.175554
v 0.525076 -0.037500 0.502155
v 0.332796 -0.037500 0.521993
v 0.217556 -0.037500 0.520606
v 0.141920 -0.037500 0.489827
v 0.136736 -0.037500 0.419798
v 0.162563 -0.037500 0.333058
v 0.162390 -0.037500 0.260243
v 0.098196 -0.037500 0.226405
v 0.007971 -0.037500 0.234246
v -0.051289 -0.037500 0.280885
v -0.042755 -0.037500 0.359216
v -0.010273 -0.037500 0.445248
v -0.017845 -0.037500 0.510767
v -0.109232 -0.037500 0.535472
v -0.247213 -0.037500 0.530719
v -0.476833 -0.037500 0.502155
v -0.459829 -0.037500 0.297817
v -0.462734 -0.037500 0.177228
v -0.494045 -0.037500 0.102297
v -0.562639 -0.037500 0.106551
v -0.644798 -0.037500 0.144453
v -0.708656 -0.037500 0.150704
v -0.728865 -0.037500 0.081594
v -0.706139 -0.037500 -0.020241
v -0.647711 -0.037500 -0.090575
v -0.564173 -0.037500 -0.086934
v -0.479650 -0.037500 -0.053840
v -0.421633 -0.037500 -0.057568
v -0.409193 -0.037500 -0.143935
v -0.476833 -0.037500 -0.499543
v -0.261658 -0.037500 -0.517698
v -0.131609 -0.037500 -0.515139
v -0.043787 -0.037500 -0.483212
v -0.032578 -0.037500 -0.412317
v -0.057497 -0.037500 -0.325253
v -0.059326 -0.037500 -0.252915
v 0.002195 -0.037498 -0.220746
v 0.091505 -0.037500 -0.232363
v 0.154091 -0.037500 -0.285927
v 0.153936 -0.037500 -0.374402
v 0.129032 -0.037500 -0.469959
v 0.135866 -0.037498 -0.539570
v 0.213375 -0.037500 -0.559784
v 0.330381 -0.037500 -0.545442
v 0.525076 -0.037500 -0.499543
v -0.017845 0.037500 0.510767
v -0.017845 0.037500 0.510767
v -0.109232 0.037500 0.535472
v -0.247213 0.037500 0.530719
v 0.332796 0.037500 0.521993
v 0.217556 0.037500 0.520606
v 0.141920 0.037500 0.489827
v 0.141920 0.037500 0.489827
v 0.525076 0.037500 0.502155
v 0.525076 0.037500 0.502155
v -0.010273 0.037500 0.445248
v -0.476833 0.037500 0.502155
v -0.476833 0.037500 0.502155
v 0.136736 0.037500 0.419798
v -0.042755 0.037500 0.359216
v 0.162563 0.037500 0.333058
v -0.459829 0.037500 0.297817
v -0.051289 0.037500 0.280885
v 0.162390 0.037500 0.260243
v 0.162390 0.037500 0.260243
v -0.462734 0.037500 0.177228
v 0.549448 0.037500 0.175554
v 0.007971 0.037500 0.234246
v 0.098196 0.037500 0.226405
v -0.494045 0.037500 0.102297
v -0.494045 0.037500 0.102297
v 0.529858 0.037500 0.099200
v 0.529858 0.037500 0.099200
v 0.353928 0.037500 0.145312
v 0.353928 0.037500 0.145312
v 0.412937 0.037500 0.138236
v -0.644798 0.037500 0.144453
v -0.708656 0.037500 0.150704
v -0.708656 0.037500 0.150704
v -0.728865 0.037500 0.081594
v 0.321251 0.037500 0.079649
v -0.562639 0.037500 0.106551
v 0.478994 0.037500 0.101562
v -0.706139 0.037500 -0.020241
v 0.322538 0.037500 -0.018837
v 0.362444 0.037500 -0.089464
v -0.647711 0.037500 -0.090575
v -0.479650 0.037500 -0.053840
v -0.421633 0.037500 -0.057568
v -0.421633 0.037500 -0.057568
v -0.564173 0.037500 -0.086934
v -0.409193 0.037500 -0.143935
v 0.586798 0.037500 -0.075803
v 0.586798 0.037500 -0.075803
v 0.525280 0.037500 -0.066911
v 0.439188 0.037500 -0.091862
v 0.599646 0.037500 -0.160756
v 0.579029 0.037500 -0.288093
v 0.002195 0.037500 -0.220746
v 0.091505 0.037500 -0.232363
v -0.059326 0.037500 -0.252915
v -0.059326 0.037500 -0.252915
v 0.154091 0.037500 -0.285927
v -0.057497 0.037500 -0.325253
v 0.153936 0.037500 -0.374402
v -0.032578 0.037500 -0.412317
v 0.129032 0.037500 -0.469959
v -0.043787 0.037500 -0.483212
v -0.043787 0.037500 -0.483212
v 0.135866 0.037500 -0.539570
v 0.135866 0.037500 -0.539570
v -0.476833 0.037500 -0.499543
v -0.476833 0.037500 -0.499543
v 0.525076 0.037500 -0.499543
v 0.525076 0.037500 -0.499543
v -0.131609 0.037500 -0.515139
v -0.261658 0.037500 -0.517698
v 0.330381 0.037500 -0.545442
v 0.213375 0.037500 -0.559784
v -0.017845 -0.037500 0.510767
v -0.017845 -0.037500 0.510767
v -0.109232 -0.037500 0.535472
v -0.247213 -0.037500 0.530719
v 0.332796 -0.037500 0.521993
v 0.217556 -0.037500 0.520606
v 0.141920 -0.037500 0.489827
v 0.141920 -0.037500 0.489827
v 0.525076 -0.037500 0.502155
v 0.525076 -0.037500 0.502155
v -0.010273 -0.037500 0.445248
v -0.476833 -0.037500 0.502155
v -0.476833 -0.037500 0.502155
v 0.136736 -0.037500 0.419798
v -0.042755 -0.037500 0.359216
v 0.162563 -0.037500 0.333058
v -0.459829 -0.037500 0.297817
v -0.051289 -0.037500 0.280885
v 0.162390 -0.037500 0.260243
v 0.162390 -0.037500 0.260243
v -0.462734 -0.037500 0.177228
v 0.549448 -0.037500 0.175554
v 0.007971 -0.037500 0.234246
v 0.098196 -0.037500 0.226405
v -0.494045 -0.037500 0.102297
v -0.494045 -0.037500 0.102297
v 0.529858 -0.037500 0.099200
v 0.529858 -0.037500 0.099200
v 0.353928 -0.037500 0.145312
v 0.353928 -0.037500 0.145312
v 0.412937 -0.037500 0.138236
v -0.644798 -0.037500 0.144453
v -0.708656 -0.037500 0.150704
v -0.708656 -0.037500 0.150704
v -0.728865 -0.037500 0.081594
v 0.321251 -0.037500 0.079649
v -0.562639 -0.037500 0.106551
v 0.478994 -0.037500 0.101562
v -0.706139 -0.037500 -0.020241
v 0.322538 -0.037500 -0.018837
v 0.362444 -0.037500 -0.089464
v -0.647711 -0.037500 -0.090575
v -0.479650 -0.037500 -0.053840
v -0.421633 -0.037500 -0.057568
v -0.421633 -0.037500 -0.057568
v -0.564173 -0.037500 -0.086934
v -0.409193 -0.037500 -0.143935
v 0.586798 -0.037498 -0.075803
v 0.586798 -0.037498 -0.075803
v 0.525280 -0.037500 -0.066911
v 0.439188 -0.037500 -0.091862
v 0.599646 -0.037500 -0.160756
v 0.579029 -0.037500 -0.288093
v 0.002195 -0.037498 -0.220746
v 0.091505 -0.037500 -0.232363
v -0.059326 -0.037500 -0.252915
v -0.059326 -0.037500 -0.252915
v 0.154091 -0.037500 -0.285927
v -0.057497 -0.037500 -0.325253
v 0.153936 -0.037500 -0.374402
v -0.032578 -0.037500 -0.412317
v 0.129032 -0.037500 -0.469959
v -0.043787 -0.037500 -0.483212
v -0.043787 -0.037500 -0.483212
v 0.135866 -0.037498 -0.539570
v 0.135866 -0.037498 -0.539570
v -0.476833 -0.037500 -0.499543
v -0.476833 -0.037500 -0.499543
v 0.525076 -0.037500 -0.499543
v 0.525076 -0.037500 -0.499543
v -0.131609 -0.037500 -0.515139
v -0.261658 -0.037500 -0.517698
v 0.330381 -0.037500 -0.545442
v 0.213375 -0.037500 -0.559784
vt 0.500000 0.500000
vt 0.500000 0.500000
vt 0.500000 0.500000
vt 0.500000 0.500000
vt 0.500000 0.500000
vt 0.500000 0.500000
vt 0.500000 0.500000
vt 0.500000 0.500000
vt 0.500000 0.500000
vt 0.500000 0.500000
vt 0.500000 0.500000
vt 0.500000 0.500000
vt 0.500000 0.500000
vt 0.500000 0.500000
vt 0.500000 0.500000
vt 0.500000 0.500000
vt 0.500000 0.500000
vt 0.500000 0.500000
vt 0.500000 0.500000
vt 0.500000 0.500000
vt 0.500000 0.500000
vt 0.500000 0.500000
vt 0.500000 0.500000
vt 0.500000 0.500000
vt 0.500000 0.500000
vt 0.500000 0.500000
vt 0.500000 0.500000
vt 0.500000 0.500000
vt 0.500000 0.500000
vt 0.500000 0.500000
vt 0.500000 0.500000
vt 0.500000 0.500000
vt 0.500000 0.500000
vt 0.500000 0.500000
vt 0.500000 0.500000
vt 0.500000 0.500000
vt 0.500000 0.500000
vt 0.500000 0.500000
vt 0.500000 0.500000
vt 0.500000 0.500000
vt 0.500000 0.500000
vt 0.500000 0.500000
vt 0.500000 0.500000
vt 0.500000 0.500000
vt 0.500000 0.500000
vt 0.500000 0.500000
vt 0.500000 0.500000
vt 0.500000 0.500000
vt 0.500000 0.500000
vt 0.500000 0.500000
vt 0.500000 0.500000
vt 0.500000 0.500000
vt 0.500000 0.500000
vt 0.500000 0.500000
vt 0.500000 0.500000
vt 0.500000 0.500000
vt 0.500000 0.500000
vt 0.500000 0.500000
vt 0.500000 0.500000
vt 0.500000 0.500000
vt 0.500000 0.500000
vt 0.500000 0.500000
vt 0.500000 0.500000
vt 0.500000 0.500000
vt 0.500000 0.500000
vt 0.500000 0.500000
vt 0.500000 0.500000
vt 0.500000 0.500000
vt 0.500000 0.500000
vt 0.500000 0.500000
vt 0.500000 0.500000
vt 0.500000 0.500000
vt 0.500000 0.500000
vt 0.500000 0.500000
vt 0.500000 0.500000
vt 0.500000 0.500000
vt 0.500000 0.500000
vt 0.500000 0.500000
vt 0.500000 0.500000
vt 0.500000 0.500000
vt 0.500000 0.500000
vt 0.500000 0.500000
vt 0.500000 0.500000
vt 0.500000 0.500000
vt 0.500000 0.500000
vt 0.500000 0.500000
vt 0.500000 0.500000
vt 0.500000 0.500000
vt 0.500000 0.500000
vt 0.500000 0.500000
vt 0.500000 0.500000
vt 0.500000 0.500000
vt 0.500000 0.500000
vt 0.500000 0.500000
vt 0.500000 0.500000
vt 0.500000 0.500000
vt 0.500000 0.500000
vt 0.500000 0.500000
vt 0.500000 0.500000
vt 0.500000 0.500000
vt 0.500000 0.500000
vt 0.500000 0.500000
vt 0.500000 0.500000
vt 0.500000 0.500000
vt 0.500000 0.500000
vt 0.500000 0.500000
vt 0.500000 0.500000
vt 0.500000 0.500000
vt 0.500000 0.500000
vt 0.500000 0.500000
vt 0.500000 0.500000
vt 0.500000 0.500000
vt 0.500000 0.500000
vt 0.500000 0.500000
vt 0.500000 0.500000
vt 0.500000 0.500000
vt 0.500000 0.500000
vt 0.500000 0.500000
vt 0.500000 0.500000
vt 0.500000 0.500000
vt 0.500000 0.500000
vt 0.500000 0.500000
vt 0.500000 0.500000
vt 0.500000 0.500000
vt 0.500000 0.500000
vt 0.500000 0.500000
vt 0.500000 0.500000
vt 0.500000 0.500000
vt 0.500000 0.500000
vt 0.500000 0.500000
vt 0.500000 0.500000
vt 0.500000 0.500000
vt 0.500000 0.500000
vt 0.500000 0.500000
vt 0.500000 0.500000
vt 0.500000 0.500000
vt 0.500000 0.500000
vt 0.500000 0.500000
vt 0.500000 0.500000
vt 0.500000 0.500000
vt 0.500000 0.500000
vt 0.500000 0.500000
vt 0.500000 0.500000
vt 0.500000 0.500000
vt 0.500000 0.500000
vt 0.500000 0.500000
vt 0.500000 0.500000
vt 0.500000 0.500000
vt 0.500000 0.500000
vt 0.500000 0.500000
vt 0.500000 0.500000
vt 0.500000 0.500000
vt 0.500000 0.500000
vt 0.500000 0.500000
vt 0.500000 0.500000
vt 0.500000 0.500000
vt 0.500000 0.500000
vt 0.500000 0.500000
vt 0.500000 0.500000
vt 0.500000 0.500000
vt 0.500000 0.500000
vt 0.500000 0.500000
vt 0.500000 0.500000
vt 0.500000 0.500000
vt 0.500000 0.500000
vt 0.500000 0.500000
vt 0.500000 0.500000
vt 0.500000 0.500000
vt 0.500000 0.500000
vt 0.500000 0.500000
vt 0.500000 0.500000
vt 0.500000 0.500000
vt 0.500000 0.500000
vt 0.500000 0.500000
vt 0.500000 0.500000
vt 0.500000 0.500000
vt 0.500000 0.500000
vt 0.500000 0.500000
vt 0.500000 0.500000
vt 0.500000 0.500000
vt 0.500000 0.500000
vt 0.500000 0.500000
vt 0.500000 0.500000
vt 0.500000 0.500000
vt 0.500000 0.500000
vt 0.500000 0.500000
vt 0.500000 0.500000
vt 0.500000 0.500000
vt 0.500000 0.500000
vt 0.500000 0.500000
vt 0.500000 0.500000
vt 0.500000 0.500000
vt 0.500000 0.500000
vt 0.500000 0.500000
vt 0.500000 0.500000
vt 0.500000 0.500000
vt 0.500000 0.500000
vt 0.500000 0.500000
vt 0.500000 0.500000
vt 0.500000 0.500000
vt 0.500000 0.500000
vt 0.500000 0.500000
vt 0.500000 0.500000
vt 0.500000 0.500000
vt 0.500000 0.500000
vt 0.500000 0.500000
vt 0.270486 0.887218
vt 0.271695 0.887779
vt 0.271801 0.889709
vt 0.274739 0.895728
vt 0.274710 0.893722
vt 0.280195 0.898750
vt 0.265622 0.900886
vt 0.264662 0.900639
vt 0.264462 0.898284
vt 0.273974 0.915089
vt 0.274480 0.912703
vt 0.275517 0.917591
vt 0.268294 0.906771
vt 0.268624 0.917217
vt 0.267374 0.906575
vt 0.271281 0.909958
vt 0.271279 0.911977
vt 0.277894 0.888385
vt 0.282588 0.905696
vt 0.282612 0.900331
vt 0.284826 0.902180
vt 0.268804 0.904950
vt 0.272282 0.909020
vt 0.272387 0.896298
vt 0.273779 0.896620
vt 0.285181 0.905004
vt 0.268161 0.900261
vt 0.264784 0.894753
vt 0.271411 0.894813
vt 0.268784 0.902219
vt 0.265245 0.907610
vt 0.266344 0.905558
vt 0.274614 0.910531
vt 0.273689 0.909237
vt 0.280389 0.901145
vt 0.281250 0.916667
vt 0.277669 0.917459
vt 0.280985 0.911000
vt 0.274322 0.891308
vt 0.275866 0.888456
vt 0.268661 0.887616
vt 0.271413 0.892359
vt 0.281030 0.907656
vt 0.270421 0.917178
vt 0.281250 0.888889
vt 0.274092 0.916906
vt 0.283915 0.900230
vt 0.281518 0.905578
vt 0.281294 0.901249
vt 0.274497 0.889342
vt 0.265625 0.916667
vt 0.284865 0.906921
vt 0.283869 0.906748
vt 0.266964 0.900194
vt 0.271681 0.914383
vt 0.271600 0.916325
vt 0.265625 0.888889
vt 0.265550 0.905493
vn -0.0000 -1.0000 -0.0000
vn 0.2610 0.0000 0.9653
vn -0.0344 0.0000 0.9994
vn -0.0120 0.0000 0.9999
vn -0.3769 0.0000 0.9262
vn 0.1026 0.0000 0.9947
vn 0.9934 0.0000 0.1148
vn -0.1234 0.0000 0.9924
vn -0.9973 0.0000 0.0738
vn 0.9355 0.0000 -0.3532
vn -0.9584 0.0000 -0.2854
vn -0.9966 0.0000 -0.0829
vn 0.9941 0.0000 -0.1083
vn -1.0000 0.0000 0.0024
vn -0.9997 0.0000 0.0241
vn 0.9972 0.0000 0.0744
vn 0.6185 0.0000 0.7858
vn -0.4663 0.0000 0.8846
vn 0.0866 0.0000 0.9962
vn -0.9227 0.0000 0.3856
vn 0.9686 0.0000 -0.2485
vn -0.1191 0.0000 -0.9929
vn 0.0974 0.0000 0.9952
vn -0.9598 0.0000 0.2807
vn 0.8953 0.0000 -0.4455
vn 0.4189 0.0000 0.9080
vn -0.0464 0.0000 -0.9989
vn -0.4854 0.0000 -0.8743
vn 0.0619 0.0000 0.9981
vn -0.9760 0.0000 -0.2178
vn 0.9999 0.0000 0.0131
vn 0.8706 0.0000 0.4919
vn -0.7692 0.0000 -0.6390
vn -0.0641 0.0000 -0.9979
vn 0.3646 0.0000 -0.9312
vn 0.0436 0.0000 -0.9991
vn -0.9898 0.0000 -0.1426
vn 0.1431 0.0000 0.9897
vn -0.2784 0.0000 0.9605
vn 0.9888 0.0000 0.1495
vn 0.0312 0.0000 0.9995
vn 0.9871 0.0000 -0.1598
vn -0.1290 0.0000 -0.9916
vn 0.4634 0.0000 -0.8862
vn -0.6502 0.0000 -0.7597
vn 0.9997 0.0000 0.0253
vn -1.0000 0.0000 0.0017
vn 0.9614 0.0000 0.2752
vn -0.9677 0.0000 0.2522
vn 0.9877 0.0000 -0.1562
vn -0.9952 0.0000 -0.0977
vn -0.9824 0.0000 0.1869
vn 0.9690 0.0000 -0.2472
vn 0.3417 0.0000 -0.9398
vn 0.0197 0.0000 -0.9998
vn -0.0841 0.0000 -0.9965
vn 0.2295 0.0000 -0.9733
vn 0.1217 0.0000 -0.9926
vn -0.2524 0.0000 -0.9676
vn 0.0000 1.0000 -0.0000
usemtl BackMat.001
s off
f 264/1/1 252/2/1 255/3/1
f 246/4/1 237/5/1 249/6/1
f 240/7/1 242/8/1 238/9/1
f 201/10/1 193/11/1 205/12/1
f 219/13/1 221/14/1 195/15/1
f 209/16/1 219/13/1 206/17/1
f 262/18/1 249/6/1 237/5/1
f 227/19/1 229/20/1 236/21/1
f 209/16/1 214/22/1 226/23/1
f 214/22/1 244/24/1 245/25/1
f 229/20/1 227/19/1 225/26/1
f 231/27/1 248/28/1 243/29/1
f 214/22/1 245/25/1 230/30/1
f 221/14/1 228/31/1 212/32/1
f 226/23/1 214/22/1 230/30/1
f 208/33/1 234/34/1 213/35/1
f 202/36/1 207/37/1 194/38/1
f 207/37/1 208/33/1 194/38/1
f 249/6/1 261/39/1 251/40/1
f 263/41/1 250/42/1 264/1/1
f 213/35/1 244/24/1 214/22/1
f 248/28/1 250/42/1 243/29/1
f 243/29/1 250/42/1 263/41/1
f 249/6/1 262/18/1 261/39/1
f 234/34/1 208/33/1 211/43/1
f 196/44/1 206/17/1 195/15/1
f 262/18/1 237/5/1 257/45/1
f 191/46/1 193/11/1 201/10/1
f 232/47/1 236/21/1 229/20/1
f 230/30/1 245/25/1 231/27/1
f 227/19/1 233/48/1 215/49/1
f 244/24/1 234/34/1 246/4/1
f 233/48/1 227/19/1 236/21/1
f 251/40/1 261/39/1 253/50/1
f 199/51/1 221/14/1 212/32/1
f 205/12/1 194/38/1 208/33/1
f 234/34/1 237/5/1 246/4/1
f 211/43/1 215/49/1 234/34/1
f 231/27/1 245/25/1 248/28/1
f 223/52/1 225/26/1 222/53/1
f 213/35/1 234/34/1 244/24/1
f 219/13/1 209/16/1 226/23/1
f 241/54/1 243/29/1 242/8/1
f 264/1/1 250/42/1 252/2/1
f 241/54/1 242/8/1 240/7/1
f 206/17/1 219/13/1 195/15/1
f 193/11/1 194/38/1 205/12/1
f 206/17/1 196/44/1 204/55/1
f 197/56/1 204/55/1 196/44/1
f 222/53/1 225/26/1 227/19/1
f 211/43/1 208/33/1 207/37/1
f 195/15/1 221/14/1 199/51/1
f 243/29/1 263/41/1 259/57/1
f 212/32/1 228/31/1 217/58/1
f 215/49/1 233/48/1 234/34/1
f 231/27/1 243/29/1 241/54/1
f 118/59/2 27/60/2 85/61/2 192/62/2
f 27/60/3 28/63/3 86/64/3 85/61/3
f 15/65/4 16/66/4 74/67/4 73/68/4
f 16/66/5 124/69/5 198/70/5 74/67/5
f 126/71/6 15/65/6 73/68/6 200/72/6
f 25/73/7 26/74/7 84/75/7 83/76/7
f 28/63/8 129/77/8 203/78/8 86/64/8
f 17/79/9 18/80/9 76/81/9 75/82/9
f 24/83/10 25/73/10 83/76/10 82/84/10
f 18/80/11 19/85/11 77/86/11 76/81/11
f 29/87/12 30/88/12 88/89/12 87/90/12
f 23/91/13 24/83/13 82/84/13 81/92/13
f 19/85/14 136/93/14 210/94/14 77/86/14
f 30/88/15 31/95/15 89/96/15 88/89/15
f 13/97/16 14/98/16 72/99/16 71/100/16
f 22/101/17 23/91/17 81/92/17 80/102/17
f 20/103/18 21/104/18 79/105/18 78/106/18
f 21/104/19 22/101/19 80/102/19 79/105/19
f 31/95/20 142/107/20 216/108/20 89/96/20
f 144/109/21 13/97/21 71/100/21 218/110/21
f 146/111/22 10/112/22 68/113/22 220/114/22
f 34/115/23 150/116/23 224/117/23 92/118/23
f 35/119/24 36/120/24 94/121/24 93/122/24
f 8/123/25 9/124/25 67/125/25 66/126/25
f 33/127/26 34/115/26 92/118/26 91/128/26
f 11/129/27 12/130/27 70/131/27 69/132/27
f 10/112/28 11/129/28 69/132/28 68/113/28
f 32/133/29 33/127/29 91/128/29 90/134/29
f 36/120/30 37/135/30 95/136/30 94/121/30
f 7/137/31 8/123/31 66/126/31 65/138/31
f 6/139/32 7/137/32 65/138/32 64/140/32
f 37/135/33 38/141/33 96/142/33 95/136/33
f 40/143/34 161/144/34 235/145/34 98/146/34
f 39/147/35 40/143/35 98/146/35 97/148/35
f 38/141/36 39/147/36 97/148/36 96/142/36
f 41/149/37 42/150/37 100/151/37 99/152/37
f 165/153/38 4/154/38 62/155/38 239/156/38
f 4/154/39 5/157/39 63/158/39 62/155/39
f 2/159/40 3/160/40 61/161/40 60/162/40
f 5/157/41 6/139/41 64/140/41 63/158/41
f 1/163/42 2/159/42 60/162/42 59/164/42
f 50/165/43 51/166/43 109/167/43 108/168/43
f 173/169/44 50/165/44 108/168/44 247/170/44
f 51/166/45 52/171/45 110/172/45 109/167/45
f 48/173/46 49/174/46 107/175/46 106/176/46
f 52/171/47 53/177/47 111/178/47 110/172/47
f 47/179/48 48/173/48 106/176/48 105/180/48
f 53/177/49 54/181/49 112/182/49 111/178/49
f 180/183/50 47/179/50 105/180/50 254/184/50
f 54/181/51 182/185/51 256/186/51 112/182/51
f 42/150/52 184/187/52 258/188/52 100/151/52
f 186/189/53 1/163/53 59/164/53 260/190/53
f 45/191/54 46/192/54 104/193/54 103/194/54
f 44/195/55 45/191/55 103/194/55 102/196/55
f 43/197/56 44/195/56 102/196/56 101/198/56
f 57/199/57 58/200/57 116/201/57 115/202/57
f 56/203/58 57/199/58 115/202/58 114/204/58
f 55/205/59 56/203/59 114/204/59 113/206/59
usemtl FrontMat.001
f 190/207/60 181/208/60 178/209/60
f 172/210/60 175/211/60 163/212/60
f 166/213/60 164/214/60 168/215/60
f 127/216/60 131/217/60 119/218/60
f 145/219/60 121/220/60 147/221/60
f 135/222/60 132/223/60 145/219/60
f 188/224/60 163/212/60 175/211/60
f 153/225/60 162/226/60 155/227/60
f 135/222/60 152/228/60 140/229/60
f 140/229/60 171/230/60 170/231/60
f 155/227/60 151/232/60 153/225/60
f 157/233/60 169/234/60 174/235/60
f 140/229/60 156/236/60 171/230/60
f 147/221/60 138/237/60 154/238/60
f 152/228/60 156/236/60 140/229/60
f 134/239/60 139/240/60 160/241/60
f 128/242/60 120/243/60 133/244/60
f 133/244/60 120/243/60 134/239/60
f 175/211/60 177/245/60 187/246/60
f 189/247/60 190/207/60 176/248/60
f 139/240/60 140/229/60 170/231/60
f 174/235/60 169/234/60 176/248/60
f 169/234/60 189/247/60 176/248/60
f 175/211/60 187/246/60 188/224/60
f 160/241/60 137/249/60 134/239/60
f 122/250/60 121/220/60 132/223/60
f 188/224/60 183/251/60 163/212/60
f 117/252/60 127/216/60 119/218/60
f 158/253/60 155/227/60 162/226/60
f 156/236/60 157/233/60 171/230/60
f 153/225/60 141/254/60 159/255/60
f 170/231/60 172/210/60 160/241/60
f 159/255/60 162/226/60 153/225/60
f 177/245/60 179/256/60 187/246/60
f 125/257/60 138/237/60 147/221/60
f 131/217/60 134/239/60 120/243/60
f 160/241/60 172/210/60 163/212/60
f 137/249/60 160/241/60 141/254/60
f 157/233/60 174/235/60 171/230/60
f 149/258/60 148/259/60 151/232/60
f 139/240/60 170/231/60 160/241/60
f 145/219/60 152/228/60 135/222/60
f 167/260/60 168/215/60 169/234/60
f 190/207/60 178/209/60 176/248/60
f 167/260/60 166/213/60 168/215/60
f 132/223/60 121/220/60 145/219/60
f 119/218/60 131/217/60 120/243/60
f 132/223/60 130/261/60 122/250/60
f 123/262/60 122/250/60 130/261/60
f 148/259/60 153/225/60 151/232/60
f 137/249/60 133/244/60 134/239/60
f 121/220/60 125/257/60 147/221/60
f 169/234/60 185/263/60 189/247/60
f 138/237/60 143/264/60 154/238/60
f 141/254/60 160/241/60 159/255/60
f 157/233/60 167/260/60 169/234/60
