# Blender v2.83.1 OBJ File: 'jigsaw-64x36-3-step2.blend'
# www.blender.org
mtllib piece.1864.mtl
o path8344
v 0.453472 0.037500 -0.302788
v 0.454955 0.037500 -0.188387
v 0.486490 0.037500 -0.116457
v 0.557761 0.037500 -0.118454
v 0.643806 0.037500 -0.151554
v 0.711000 0.037500 -0.154371
v 0.732735 0.037500 -0.085735
v 0.710473 0.037500 0.014584
v 0.652688 0.037500 0.086590
v 0.570788 0.037500 0.090469
v 0.487900 0.037500 0.067108
v 0.430081 0.037500 0.077574
v 0.415461 0.037500 0.164011
v 0.473653 0.037500 0.505684
v 0.244103 0.037500 0.455702
v 0.107050 0.037500 0.439634
v 0.018266 0.037500 0.460346
v 0.015248 0.037500 0.533506
v 0.052210 0.037500 0.632835
v 0.062544 0.037500 0.721581
v 0.000710 0.037500 0.769577
v -0.094580 0.037500 0.773027
v -0.163546 0.037500 0.734724
v -0.166065 0.037500 0.661711
v -0.140635 0.037500 0.578011
v -0.145408 0.037500 0.511887
v -0.220756 0.037500 0.483965
v -0.335919 0.037500 0.484285
v -0.528256 0.037500 0.505684
v -0.554757 0.037500 0.276619
v -0.556788 0.037500 0.139067
v -0.526950 0.037500 0.048185
v -0.453724 0.037500 0.041063
v -0.360326 0.037500 0.073494
v -0.278655 0.037500 0.080931
v -0.235118 0.037500 0.019409
v -0.234157 0.037500 -0.072708
v -0.274717 0.037500 -0.136478
v -0.351109 0.037500 -0.132786
v -0.439080 0.037500 -0.101807
v -0.509740 0.037500 -0.103542
v -0.541893 0.037500 -0.179573
v -0.545126 0.037500 -0.297728
v -0.528256 0.037500 -0.496014
v -0.319345 0.037500 -0.471569
v -0.194799 0.037500 -0.470757
v -0.114532 0.037500 -0.501373
v -0.112544 0.037500 -0.574474
v -0.145832 0.037500 -0.666651
v -0.152142 0.037500 -0.745880
v -0.089573 0.037500 -0.785614
v 0.002344 0.037500 -0.781176
v 0.063725 0.037500 -0.733360
v 0.055440 0.037500 -0.648266
v 0.021362 0.037500 -0.553205
v 0.026118 0.037500 -0.480803
v 0.114097 0.037500 -0.454561
v 0.248727 0.037500 -0.461544
v 0.473653 0.037500 -0.496014
v 0.453472 -0.037500 -0.302788
v 0.454955 -0.037498 -0.188387
v 0.486490 -0.037500 -0.116457
v 0.557761 -0.037500 -0.118454
v 0.643806 -0.037500 -0.151554
v 0.711000 -0.037500 -0.154371
v 0.732735 -0.037500 -0.085735
v 0.710473 -0.037500 0.014584
v 0.652688 -0.037500 0.086590
v 0.570788 -0.037500 0.090469
v 0.487900 -0.037498 0.067108
v 0.430081 -0.037500 0.077574
v 0.415461 -0.037498 0.164011
v 0.473653 -0.037500 0.505684
v 0.244103 -0.037500 0.455702
v 0.107050 -0.037500 0.439634
v 0.018266 -0.037500 0.460346
v 0.015248 -0.037500 0.533506
v 0.052210 -0.037498 0.632835
v 0.062544 -0.037500 0.721581
v 0.000710 -0.037500 0.769577
v -0.094580 -0.037500 0.773027
v -0.163546 -0.037500 0.734724
v -0.166065 -0.037500 0.661711
v -0.140635 -0.037500 0.578011
v -0.145408 -0.037500 0.511887
v -0.220756 -0.037500 0.483965
v -0.335919 -0.037500 0.484285
v -0.528256 -0.037500 0.505684
v -0.554757 -0.037500 0.276619
v -0.556788 -0.037500 0.139067
v -0.526950 -0.037500 0.048185
v -0.453724 -0.037500 0.041063
v -0.360326 -0.037500 0.073494
v -0.278655 -0.037500 0.080931
v -0.235118 -0.037500 0.019409
v -0.234157 -0.037500 -0.072708
v -0.274717 -0.037500 -0.136478
v -0.351109 -0.037498 -0.132786
v -0.439080 -0.037500 -0.101807
v -0.509740 -0.037500 -0.103542
v -0.541893 -0.037500 -0.179573
v -0.545126 -0.037500 -0.297728
v -0.528256 -0.037500 -0.496014
v -0.319345 -0.037500 -0.471569
v -0.194799 -0.037498 -0.470757
v -0.114532 -0.037500 -0.501373
v -0.112544 -0.037498 -0.574474
v -0.145832 -0.037500 -0.666651
v -0.152142 -0.037500 -0.745880
v -0.089573 -0.037500 -0.785614
v 0.002344 -0.037498 -0.781176
v 0.063725 -0.037500 -0.733360
v 0.055440 -0.037500 -0.648266
v 0.021362 -0.037500 -0.553205
v 0.026118 -0.037500 -0.480803
v 0.114097 -0.037500 -0.454561
v 0.248727 -0.037500 -0.461544
v 0.473653 -0.037500 -0.496014
v -0.152142 0.037500 -0.745880
v -0.152142 0.037500 -0.745880
v -0.089573 0.037500 -0.785614
v 0.002344 0.037500 -0.781176
v 0.063725 0.037500 -0.733360
v -0.145832 0.037500 -0.666651
v 0.055440 0.037500 -0.648266
v -0.112544 0.037500 -0.574474
v 0.021362 0.037500 -0.553205
v -0.114532 0.037500 -0.501373
v -0.114532 0.037500 -0.501373
v 0.026118 0.037500 -0.480803
v 0.026118 0.037500 -0.480803
v -0.194799 0.037500 -0.470757
v -0.528256 0.037500 -0.496014
v -0.528256 0.037500 -0.496014
v -0.319345 0.037500 -0.471569
v 0.114097 0.037500 -0.454561
v 0.248727 0.037500 -0.461544
v 0.473653 0.037500 -0.496014
v 0.473653 0.037500 -0.496014
v 0.453472 0.037500 -0.302788
v -0.545126 0.037500 -0.297728
v 0.454955 0.037500 -0.188387
v -0.541893 0.037500 -0.179573
v 0.486490 0.037500 -0.116457
v 0.486490 0.037500 -0.116457
v -0.509740 0.037500 -0.103542
v -0.509740 0.037500 -0.103542
v -0.274717 0.037500 -0.136478
v -0.274717 0.037500 -0.136478
v -0.351109 0.037500 -0.132786
v 0.643806 0.037500 -0.151554
v 0.711000 0.037500 -0.154371
v 0.711000 0.037500 -0.154371
v 0.732735 0.037500 -0.085735
v 0.557761 0.037500 -0.118454
v -0.234157 0.037500 -0.072708
v -0.439080 0.037500 -0.101807
v 0.710473 0.037500 0.014584
v -0.235118 0.037500 0.019409
v 0.652688 0.037500 0.086590
v -0.278655 0.037500 0.080931
v -0.526950 0.037500 0.048185
v -0.526950 0.037500 0.048185
v -0.453724 0.037500 0.041063
v -0.360326 0.037500 0.073494
v -0.556788 0.037500 0.139067
v 0.487900 0.037500 0.067108
v 0.430081 0.037500 0.077574
v 0.430081 0.037500 0.077574
v 0.570788 0.037500 0.090469
v 0.415461 0.037500 0.164011
v -0.554757 0.037500 0.276619
v -0.528256 0.037500 0.505684
v -0.528256 0.037500 0.505684
v -0.335919 0.037500 0.484285
v 0.107050 0.037500 0.439634
v 0.018266 0.037500 0.460346
v 0.018266 0.037500 0.460346
v 0.244103 0.037500 0.455702
v -0.220756 0.037500 0.483965
v 0.015248 0.037500 0.533506
v 0.473653 0.037500 0.505684
v 0.473653 0.037500 0.505684
v -0.145408 0.037500 0.511887
v -0.145408 0.037500 0.511887
v -0.140635 0.037500 0.578011
v 0.052210 0.037500 0.632835
v -0.166065 0.037500 0.661711
v 0.062544 0.037500 0.721581
v -0.163546 0.037500 0.734724
v 0.000710 0.037500 0.769577
v -0.094580 0.037500 0.773027
v -0.152142 -0.037500 -0.745880
v -0.152142 -0.037500 -0.745880
v -0.089573 -0.037500 -0.785614
v 0.002344 -0.037498 -0.781176
v 0.063725 -0.037500 -0.733360
v -0.145832 -0.037500 -0.666651
v 0.055440 -0.037500 -0.648266
v -0.112544 -0.037498 -0.574474
v 0.021362 -0.037500 -0.553205
v -0.114532 -0.037500 -0.501373
v -0.114532 -0.037500 -0.501373
v 0.026118 -0.037500 -0.480803
v 0.026118 -0.037500 -0.480803
v -0.194799 -0.037498 -0.470757
v -0.528256 -0.037500 -0.496014
v -0.528256 -0.037500 -0.496014
v -0.319345 -0.037500 -0.471569
v 0.114097 -0.037500 -0.454561
v 0.248727 -0.037500 -0.461544
v 0.473653 -0.037500 -0.496014
v 0.473653 -0.037500 -0.496014
v 0.453472 -0.037500 -0.302788
v -0.545126 -0.037500 -0.297728
v 0.454955 -0.037498 -0.188387
v -0.541893 -0.037500 -0.179573
v 0.486490 -0.037500 -0.116457
v 0.486490 -0.037500 -0.116457
v -0.509740 -0.037500 -0.103542
v -0.509740 -0.037500 -0.103542
v -0.274717 -0.037500 -0.136478
v -0.274717 -0.037500 -0.136478
v -0.351109 -0.037498 -0.132786
v 0.643806 -0.037500 -0.151554
v 0.711000 -0.037500 -0.154371
v 0.711000 -0.037500 -0.154371
v 0.732735 -0.037500 -0.085735
v 0.557761 -0.037500 -0.118454
v -0.234157 -0.037500 -0.072708
v -0.439080 -0.037500 -0.101807
v 0.710473 -0.037500 0.014584
v -0.235118 -0.037500 0.019409
v 0.652688 -0.037500 0.086590
v -0.278655 -0.037500 0.080931
v -0.526950 -0.037500 0.048185
v -0.526950 -0.037500 0.048185
v -0.453724 -0.037500 0.041063
v -0.360326 -0.037500 0.073494
v -0.556788 -0.037500 0.139067
v 0.487900 -0.037498 0.067108
v 0.430081 -0.037500 0.077574
v 0.430081 -0.037500 0.077574
v 0.570788 -0.037500 0.090469
v 0.415461 -0.037498 0.164011
v -0.554757 -0.037500 0.276619
v -0.528256 -0.037500 0.505684
v -0.528256 -0.037500 0.505684
v -0.335919 -0.037500 0.484285
v 0.107050 -0.037500 0.439634
v 0.018266 -0.037500 0.460346
v 0.018266 -0.037500 0.460346
v 0.244103 -0.037500 0.455702
v -0.220756 -0.037500 0.483965
v 0.015248 -0.037500 0.533506
v 0.473653 -0.037500 0.505684
v 0.473653 -0.037500 0.505684
v -0.145408 -0.037500 0.511887
v -0.145408 -0.037500 0.511887
v -0.140635 -0.037500 0.578011
v 0.052210 -0.037498 0.632835
v -0.166065 -0.037500 0.661711
v 0.062544 -0.037500 0.721581
v -0.163546 -0.037500 0.734724
v 0.000710 -0.037500 0.769577
v -0.094580 -0.037500 0.773027
vt 0.500000 0.500000
vt 0.500000 0.500000
vt 0.500000 0.500000
vt 0.500000 0.500000
vt 0.500000 0.500000
vt 0.500000 0.500000
vt 0.500000 0.500000
vt 0.500000 0.500000
vt 0.500000 0.500000
vt 0.500000 0.500000
vt 0.500000 0.500000
vt 0.500000 0.500000
vt 0.500000 0.500000
vt 0.500000 0.500000
vt 0.500000 0.500000
vt 0.500000 0.500000
vt 0.500000 0.500000
vt 0.500000 0.500000
vt 0.500000 0.500000
vt 0.500000 0.500000
vt 0.500000 0.500000
vt 0.500000 0.500000
vt 0.500000 0.500000
vt 0.500000 0.500000
vt 0.500000 0.500000
vt 0.500000 0.500000
vt 0.500000 0.500000
vt 0.500000 0.500000
vt 0.500000 0.500000
vt 0.500000 0.500000
vt 0.500000 0.500000
vt 0.500000 0.500000
vt 0.500000 0.500000
vt 0.500000 0.500000
vt 0.500000 0.500000
vt 0.500000 0.500000
vt 0.500000 0.500000
vt 0.500000 0.500000
vt 0.500000 0.500000
vt 0.500000 0.500000
vt 0.500000 0.500000
vt 0.500000 0.500000
vt 0.500000 0.500000
vt 0.500000 0.500000
vt 0.500000 0.500000
vt 0.500000 0.500000
vt 0.500000 0.500000
vt 0.500000 0.500000
vt 0.500000 0.500000
vt 0.500000 0.500000
vt 0.500000 0.500000
vt 0.500000 0.500000
vt 0.500000 0.500000
vt 0.500000 0.500000
vt 0.500000 0.500000
vt 0.500000 0.500000
vt 0.500000 0.500000
vt 0.500000 0.500000
vt 0.500000 0.500000
vt 0.500000 0.500000
vt 0.500000 0.500000
vt 0.500000 0.500000
vt 0.500000 0.500000
vt 0.500000 0.500000
vt 0.500000 0.500000
vt 0.500000 0.500000
vt 0.500000 0.500000
vt 0.500000 0.500000
vt 0.500000 0.500000
vt 0.500000 0.500000
vt 0.500000 0.500000
vt 0.500000 0.500000
vt 0.500000 0.500000
vt 0.500000 0.500000
vt 0.500000 0.500000
vt 0.500000 0.500000
vt 0.500000 0.500000
vt 0.500000 0.500000
vt 0.500000 0.500000
vt 0.500000 0.500000
vt 0.500000 0.500000
vt 0.500000 0.500000
vt 0.500000 0.500000
vt 0.500000 0.500000
vt 0.500000 0.500000
vt 0.500000 0.500000
vt 0.500000 0.500000
vt 0.500000 0.500000
vt 0.500000 0.500000
vt 0.500000 0.500000
vt 0.500000 0.500000
vt 0.500000 0.500000
vt 0.500000 0.500000
vt 0.500000 0.500000
vt 0.500000 0.500000
vt 0.500000 0.500000
vt 0.500000 0.500000
vt 0.500000 0.500000
vt 0.500000 0.500000
vt 0.500000 0.500000
vt 0.500000 0.500000
vt 0.500000 0.500000
vt 0.500000 0.500000
vt 0.500000 0.500000
vt 0.500000 0.500000
vt 0.500000 0.500000
vt 0.500000 0.500000
vt 0.500000 0.500000
vt 0.500000 0.500000
vt 0.500000 0.500000
vt 0.500000 0.500000
vt 0.500000 0.500000
vt 0.500000 0.500000
vt 0.500000 0.500000
vt 0.500000 0.500000
vt 0.500000 0.500000
vt 0.500000 0.500000
vt 0.500000 0.500000
vt 0.500000 0.500000
vt 0.500000 0.500000
vt 0.500000 0.500000
vt 0.500000 0.500000
vt 0.500000 0.500000
vt 0.500000 0.500000
vt 0.500000 0.500000
vt 0.500000 0.500000
vt 0.500000 0.500000
vt 0.500000 0.500000
vt 0.500000 0.500000
vt 0.500000 0.500000
vt 0.500000 0.500000
vt 0.500000 0.500000
vt 0.500000 0.500000
vt 0.500000 0.500000
vt 0.500000 0.500000
vt 0.500000 0.500000
vt 0.500000 0.500000
vt 0.500000 0.500000
vt 0.500000 0.500000
vt 0.500000 0.500000
vt 0.500000 0.500000
vt 0.500000 0.500000
vt 0.500000 0.500000
vt 0.500000 0.500000
vt 0.500000 0.500000
vt 0.500000 0.500000
vt 0.500000 0.500000
vt 0.500000 0.500000
vt 0.500000 0.500000
vt 0.500000 0.500000
vt 0.500000 0.500000
vt 0.500000 0.500000
vt 0.500000 0.500000
vt 0.500000 0.500000
vt 0.500000 0.500000
vt 0.500000 0.500000
vt 0.500000 0.500000
vt 0.500000 0.500000
vt 0.500000 0.500000
vt 0.500000 0.500000
vt 0.500000 0.500000
vt 0.500000 0.500000
vt 0.500000 0.500000
vt 0.500000 0.500000
vt 0.500000 0.500000
vt 0.500000 0.500000
vt 0.500000 0.500000
vt 0.500000 0.500000
vt 0.500000 0.500000
vt 0.500000 0.500000
vt 0.500000 0.500000
vt 0.500000 0.500000
vt 0.500000 0.500000
vt 0.500000 0.500000
vt 0.500000 0.500000
vt 0.500000 0.500000
vt 0.500000 0.500000
vt 0.500000 0.500000
vt 0.500000 0.500000
vt 0.500000 0.500000
vt 0.500000 0.500000
vt 0.500000 0.500000
vt 0.500000 0.500000
vt 0.500000 0.500000
vt 0.500000 0.500000
vt 0.500000 0.500000
vt 0.500000 0.500000
vt 0.500000 0.500000
vt 0.500000 0.500000
vt 0.500000 0.500000
vt 0.500000 0.500000
vt 0.500000 0.500000
vt 0.500000 0.500000
vt 0.500000 0.500000
vt 0.500000 0.500000
vt 0.500000 0.500000
vt 0.500000 0.500000
vt 0.500000 0.500000
vt 0.500000 0.500000
vt 0.500000 0.500000
vt 0.500000 0.500000
vt 0.500000 0.500000
vt 0.500000 0.500000
vt 0.500000 0.500000
vt 0.500000 0.500000
vt 0.500000 0.500000
vt 0.500000 0.500000
vt 0.109162 0.185669
vt 0.109664 0.183561
vt 0.110766 0.183513
vt 0.108962 0.173019
vt 0.109375 0.166667
vt 0.112375 0.167260
vt 0.118478 0.198666
vt 0.117650 0.202352
vt 0.115339 0.199176
vt 0.116216 0.202475
vt 0.119283 0.168498
vt 0.113947 0.180151
vt 0.117898 0.167924
vt 0.117946 0.196030
vt 0.115858 0.196620
vt 0.113962 0.182706
vt 0.124320 0.178538
vt 0.113268 0.178445
vt 0.114171 0.167269
vt 0.121420 0.168053
vt 0.125000 0.166667
vt 0.124093 0.176142
vt 0.109112 0.188946
vt 0.112138 0.184372
vt 0.118428 0.163141
vt 0.117851 0.165895
vt 0.115420 0.164661
vt 0.129040 0.183067
vt 0.127654 0.184892
vt 0.128693 0.180285
vt 0.113329 0.184474
vt 0.112633 0.193767
vt 0.124708 0.185914
vt 0.119393 0.193295
vt 0.118021 0.194023
vt 0.115827 0.194593
vt 0.111994 0.178652
vt 0.110537 0.179551
vt 0.108930 0.176833
vt 0.126312 0.183974
vt 0.125222 0.178829
vt 0.125200 0.183919
vt 0.114575 0.193744
vt 0.115346 0.166495
vt 0.115063 0.160315
vt 0.116138 0.159253
vt 0.115023 0.162340
vt 0.117624 0.159349
vt 0.124685 0.189086
vt 0.121492 0.193489
vt 0.118589 0.160680
vt 0.115241 0.201373
vt 0.109395 0.179353
vt 0.126515 0.178181
vt 0.125000 0.194444
vt 0.127792 0.178288
vt 0.109375 0.194444
vt 0.118607 0.201026
vt 0.128701 0.184970
vn 0.0000 -1.0000 -0.0000
vn -0.0000 -1.0000 0.0001
vn -0.5361 0.0000 -0.8442
vn 0.0482 0.0000 -0.9988
vn 0.6145 0.0000 -0.7889
vn -0.9968 0.0000 0.0794
vn 0.9953 0.0000 0.0969
vn -0.9405 0.0000 0.3397
vn 0.9413 0.0000 0.3375
vn -0.9996 0.0000 -0.0272
vn 0.9978 0.0000 -0.0655
vn -0.3564 0.0000 -0.9343
vn 0.1162 0.0000 -0.9932
vn 0.2858 0.0000 -0.9583
vn -0.1515 0.0000 -0.9885
vn 0.0065 0.0000 -1.0000
vn -0.0518 0.0000 -0.9987
vn 0.9946 0.0000 0.1039
vn -0.9964 0.0000 -0.0848
vn 0.9999 0.0000 -0.0130
vn -0.9996 0.0000 0.0274
vn 0.9159 0.0000 -0.4015
vn -0.9210 0.0000 0.3895
vn 0.0483 0.0000 0.9988
vn -0.0419 0.0000 -0.9991
vn 0.9533 0.0000 -0.3019
vn -0.3590 0.0000 -0.9333
vn -0.8438 0.0000 0.5367
vn -0.0246 0.0000 0.9997
vn 0.3322 0.0000 0.9432
vn -0.0280 0.0000 -0.9996
vn 0.9762 0.0000 0.2166
vn -0.9999 0.0000 -0.0104
vn 0.7799 0.0000 0.6259
vn -0.8163 0.0000 -0.5777
vn -0.0968 0.0000 -0.9953
vn 0.3280 0.0000 -0.9447
vn -0.9501 0.0000 -0.3119
vn 0.1781 0.0000 0.9840
vn -0.2713 0.0000 0.9625
vn 0.0473 0.0000 0.9989
vn 0.0907 0.0000 -0.9959
vn 0.9860 0.0000 0.1668
vn -0.9999 0.0000 0.0148
vn -0.9934 0.0000 0.1149
vn 0.1106 0.0000 0.9939
vn 0.2272 0.0000 0.9739
vn -0.1164 0.0000 0.9932
vn 0.0028 0.0000 1.0000
vn 0.9992 0.0000 0.0412
vn -0.2128 0.0000 0.9771
vn 0.9858 0.0000 -0.1679
vn -0.3475 0.0000 0.9377
vn -0.9974 0.0000 0.0720
vn 0.9372 0.0000 -0.3487
vn -0.9568 0.0000 -0.2907
vn 0.9933 0.0000 -0.1157
vn -0.9994 0.0000 0.0345
vn 0.6132 0.0000 0.7900
vn -0.4855 0.0000 0.8742
vn 0.0362 0.0000 0.9993
vn 0.0000 1.0000 0.0000
usemtl BackMat.001
s off
f 217/1/1 231/2/1 220/3/1
f 246/4/1 249/5/1 247/6/1
f 199/7/1 198/8/1 196/9/1
f 198/8/1 195/10/1 196/9/1
f 250/11/1 251/12/1 233/13/1
f 201/14/1 200/15/1 199/7/1
f 230/16/1 242/17/1 233/13/1
f 251/12/1 254/18/1 235/19/1
f 253/20/1 245/21/1 256/22/1
f 215/23/1 224/24/1 217/1/1
f 261/25/1 260/26/1 255/27/1
f 228/28/1 232/29/1 225/30/1
f 222/31/1 224/24/1 209/32/1
f 216/33/1 230/16/1 210/34/1
f 204/35/1 202/36/1 201/14/1
f 204/35/1 230/16/1 222/31/1
f 233/13/1 251/12/1 235/19/1
f 239/37/1 240/38/1 238/39/1
f 225/30/1 232/29/1 229/40/1
f 242/17/1 218/41/1 241/42/1
f 204/35/2 206/43/2 202/36/2
f 206/43/1 222/31/1 209/32/1
f 198/8/1 199/7/1 200/15/1
f 210/34/1 230/16/1 204/35/1
f 255/27/1 258/44/1 251/12/1
f 264/45/1 262/46/1 266/47/1
f 265/48/1 266/47/1 261/25/1
f 214/49/1 216/33/1 211/50/1
f 235/19/1 249/5/1 239/37/1
f 263/51/1 265/48/1 261/25/1
f 217/1/1 224/24/1 231/2/1
f 211/50/1 216/33/1 210/34/1
f 209/32/1 224/24/1 215/23/1
f 249/5/1 235/19/1 254/18/1
f 195/10/1 198/8/1 193/52/1
f 239/37/1 246/4/1 240/38/1
f 250/11/1 245/21/1 253/20/1
f 251/12/1 258/44/1 254/18/1
f 218/41/1 242/17/1 216/33/1
f 229/40/1 241/42/1 218/41/1
f 242/17/1 245/21/1 233/13/1
f 258/44/1 255/27/1 260/26/1
f 238/39/1 240/38/1 236/53/1
f 241/42/1 229/40/1 244/54/1
f 214/49/1 211/50/1 212/55/1
f 216/33/1 242/17/1 230/16/1
f 234/56/1 244/54/1 232/29/1
f 229/40/1 232/29/1 244/54/1
f 209/32/1 215/23/1 207/57/1
f 204/35/1 222/31/1 206/43/1
f 245/21/1 250/11/1 233/13/1
f 199/7/1 196/9/1 197/58/1
f 262/46/1 261/25/1 266/47/1
f 226/59/1 228/28/1 225/30/1
f 260/26/1 261/25/1 262/46/1
f 202/36/1 200/15/1 201/14/1
f 246/4/1 239/37/1 249/5/1
f 120/60/3 51/61/3 110/62/3 194/63/3
f 51/61/4 52/64/4 111/65/4 110/62/4
f 52/64/5 53/66/5 112/67/5 111/65/5
f 49/68/6 50/69/6 109/70/6 108/71/6
f 53/66/7 54/72/7 113/73/7 112/67/7
f 48/74/8 49/68/8 108/71/8 107/75/8
f 54/72/9 55/76/9 114/77/9 113/73/9
f 129/78/10 48/74/10 107/75/10 203/79/10
f 55/76/11 131/80/11 205/81/11 114/77/11
f 46/82/12 47/83/12 106/84/12 105/85/12
f 134/86/13 45/87/13 104/88/13 208/89/13
f 56/90/14 57/91/14 116/92/14 115/93/14
f 58/94/15 139/95/15 213/96/15 117/97/15
f 45/87/16 46/82/16 105/85/16 104/88/16
f 57/91/17 58/94/17 117/97/17 116/92/17
f 59/98/18 1/99/18 60/100/18 118/101/18
f 43/102/19 44/103/19 103/104/19 102/105/19
f 1/99/20 2/106/20 61/107/20 60/100/20
f 42/108/21 43/102/21 102/105/21 101/109/21
f 2/106/22 145/110/22 219/111/22 61/107/22
f 147/112/23 42/108/23 101/109/23 221/113/23
f 149/114/24 39/115/24 98/116/24 223/117/24
f 5/118/25 153/119/25 227/120/25 64/121/25
f 6/122/26 7/123/26 66/124/26 65/125/26
f 4/126/27 5/118/27 64/121/27 63/127/27
f 37/128/28 38/129/28 97/130/28 96/131/28
f 40/132/29 41/133/29 100/134/29 99/135/29
f 39/115/30 40/132/30 99/135/30 98/116/30
f 3/136/31 4/126/31 63/127/31 62/137/31
f 7/123/32 8/138/32 67/139/32 66/124/32
f 36/140/33 37/128/33 96/131/33 95/141/33
f 8/138/34 9/142/34 68/143/34 67/139/34
f 35/144/35 36/140/35 95/141/35 94/145/35
f 163/146/36 33/147/36 92/148/36 237/149/36
f 33/147/37 34/150/37 93/151/37 92/148/37
f 31/152/38 32/153/38 91/154/38 90/155/38
f 11/156/39 169/157/39 243/158/39 70/159/39
f 10/160/40 11/156/40 70/159/40 69/161/40
f 9/142/41 10/160/41 69/161/41 68/143/41
f 34/150/42 35/144/42 94/145/42 93/151/42
f 12/162/43 13/163/43 72/164/43 71/165/43
f 30/166/44 31/152/44 90/155/44 89/167/44
f 174/168/45 30/166/45 89/167/45 248/169/45
f 28/170/46 29/171/46 88/172/46 87/173/46
f 16/174/47 178/175/47 252/176/47 75/177/47
f 15/178/48 16/174/48 75/177/48 74/179/48
f 27/180/49 28/170/49 87/173/49 86/181/49
f 17/182/50 18/183/50 77/184/50 76/185/50
f 183/186/51 15/178/51 74/179/51 257/187/51
f 13/163/52 14/188/52 73/189/52 72/164/52
f 185/190/53 27/180/53 86/181/53 259/191/53
f 25/192/54 26/193/54 85/194/54 84/195/54
f 18/183/55 19/196/55 78/197/55 77/184/55
f 24/198/56 25/192/56 84/195/56 83/199/56
f 19/196/57 20/200/57 79/201/57 78/197/57
f 23/202/58 24/198/58 83/199/58 82/203/58
f 20/200/59 21/204/59 80/205/59 79/201/59
f 22/206/60 23/202/60 82/203/60 81/207/60
f 21/204/61 22/206/61 81/207/61 80/205/61
usemtl FrontMat.001
f 143/208/62 146/209/62 157/210/62
f 172/211/62 173/212/62 175/213/62
f 125/214/62 122/215/62 124/216/62
f 124/216/62 122/215/62 121/217/62
f 176/218/62 159/219/62 177/220/62
f 127/221/62 125/214/62 126/222/62
f 156/223/62 159/219/62 168/224/62
f 177/220/62 161/225/62 180/226/62
f 179/227/62 182/228/62 171/229/62
f 141/230/62 143/208/62 150/231/62
f 187/232/62 181/233/62 186/234/62
f 154/235/62 151/236/62 158/237/62
f 148/238/62 135/239/62 150/231/62
f 142/240/62 136/241/62 156/223/62
f 130/242/62 127/221/62 128/243/62
f 130/242/62 148/238/62 156/223/62
f 159/219/62 161/225/62 177/220/62
f 165/244/62 164/245/62 166/246/62
f 151/236/62 155/247/62 158/237/62
f 168/224/62 167/248/62 144/249/62
f 130/242/62 128/243/62 132/250/62
f 132/250/62 135/239/62 148/238/62
f 124/216/62 126/222/62 125/214/62
f 136/241/62 130/242/62 156/223/62
f 181/233/62 177/220/62 184/251/62
f 190/252/62 192/253/62 188/254/62
f 191/255/62 187/232/62 192/253/62
f 140/256/62 137/257/62 142/240/62
f 161/225/62 165/244/62 175/213/62
f 189/258/62 187/232/62 191/255/62
f 143/208/62 157/210/62 150/231/62
f 137/257/62 136/241/62 142/240/62
f 135/239/62 141/230/62 150/231/62
f 175/213/62 180/226/62 161/225/62
f 121/217/62 119/259/62 124/216/62
f 165/244/62 166/246/62 172/211/62
f 176/218/62 179/227/62 171/229/62
f 177/220/62 180/226/62 184/251/62
f 144/249/62 142/240/62 168/224/62
f 155/247/62 144/249/62 167/248/62
f 168/224/62 159/219/62 171/229/62
f 184/251/62 186/234/62 181/233/62
f 164/245/62 162/260/62 166/246/62
f 167/248/62 170/261/62 155/247/62
f 140/256/62 138/262/62 137/257/62
f 142/240/62 156/223/62 168/224/62
f 160/263/62 158/237/62 170/261/62
f 155/247/62 170/261/62 158/237/62
f 135/239/62 133/264/62 141/230/62
f 130/242/62 132/250/62 148/238/62
f 171/229/62 159/219/62 176/218/62
f 125/214/62 123/265/62 122/215/62
f 188/254/62 192/253/62 187/232/62
f 152/266/62 151/236/62 154/235/62
f 186/234/62 188/254/62 187/232/62
f 128/243/62 127/221/62 126/222/62
f 172/211/62 175/213/62 165/244/62
