# Blender v2.83.1 OBJ File: 'jigsaw-64x36-3-step2.blend'
# www.blender.org
mtllib piece.2112.mtl
o path8840
v 0.434730 0.037500 -0.158905
v 0.449364 0.037500 -0.068626
v 0.500610 0.037500 -0.063637
v 0.570675 0.037500 -0.098244
v 0.634571 0.037500 -0.105961
v 0.671181 0.037500 -0.041523
v 0.674923 0.037500 0.055336
v 0.644085 0.037500 0.123661
v 0.581699 0.037500 0.122677
v 0.509949 0.037500 0.092361
v 0.455791 0.037500 0.092892
v 0.438656 0.037500 0.166161
v 0.480267 0.037500 0.473972
v 0.283203 0.037500 0.438801
v 0.166195 0.037500 0.430641
v 0.091854 0.037500 0.454357
v 0.092136 0.037500 0.522118
v 0.124146 0.037500 0.608822
v 0.126244 0.037500 0.680063
v 0.057396 0.037500 0.708414
v -0.041023 0.037500 0.694357
v -0.107029 0.037500 0.645355
v -0.100059 0.037500 0.571735
v -0.065266 0.037500 0.495296
v -0.069206 0.037500 0.440712
v -0.157745 0.037500 0.425312
v -0.521645 0.037500 0.473972
v -0.521645 0.037500 -0.527725
v -0.303795 0.037500 -0.551304
v -0.172531 0.037500 -0.552814
v -0.084789 0.037500 -0.525402
v -0.075527 0.037500 -0.459156
v -0.102837 0.037500 -0.377594
v -0.105598 0.037500 -0.312588
v -0.042347 0.037500 -0.289391
v 0.049766 0.037500 -0.306732
v 0.113945 0.037500 -0.356728
v 0.112595 0.037500 -0.428967
v 0.084904 0.037500 -0.503010
v 0.089275 0.037500 -0.555916
v 0.166096 0.037500 -0.571583
v 0.480266 0.037500 -0.527725
v 0.434730 -0.037500 -0.158905
v 0.449364 -0.037500 -0.068626
v 0.500610 -0.037498 -0.063637
v 0.570675 -0.037500 -0.098244
v 0.634571 -0.037500 -0.105961
v 0.671181 -0.037500 -0.041523
v 0.674923 -0.037498 0.055336
v 0.644085 -0.037498 0.123661
v 0.581699 -0.037500 0.122677
v 0.509949 -0.037500 0.092361
v 0.455791 -0.037500 0.092892
v 0.438656 -0.037500 0.166161
v 0.480267 -0.037500 0.473972
v 0.283203 -0.037500 0.438801
v 0.166195 -0.037498 0.430641
v 0.091854 -0.037500 0.454357
v 0.092136 -0.037500 0.522118
v 0.124146 -0.037500 0.608822
v 0.126244 -0.037498 0.680063
v 0.057396 -0.037500 0.708414
v -0.041023 -0.037500 0.694357
v -0.107029 -0.037500 0.645355
v -0.100059 -0.037498 0.571735
v -0.065266 -0.037500 0.495296
v -0.069206 -0.037500 0.440712
v -0.157745 -0.037500 0.425312
v -0.521645 -0.037500 0.473972
v -0.521645 -0.037500 -0.527725
v -0.303795 -0.037498 -0.551304
v -0.172531 -0.037498 -0.552814
v -0.084789 -0.037500 -0.525402
v -0.075527 -0.037500 -0.459156
v -0.102837 -0.037500 -0.377594
v -0.105598 -0.037500 -0.312588
v -0.042347 -0.037500 -0.289391
v 0.049766 -0.037498 -0.306732
v 0.113945 -0.037500 -0.356728
v 0.112595 -0.037500 -0.428967
v 0.084904 -0.037500 -0.503010
v 0.089275 -0.037500 -0.555916
v 0.166096 -0.037500 -0.571583
v 0.480266 -0.037500 -0.527725
v 0.126244 0.037500 0.680063
v 0.126244 0.037500 0.680063
v 0.057396 0.037500 0.708414
v -0.041023 0.037500 0.694357
v -0.107029 0.037500 0.645355
v 0.124146 0.037500 0.608822
v -0.100059 0.037500 0.571735
v 0.092136 0.037500 0.522118
v -0.065266 0.037500 0.495296
v 0.091854 0.037500 0.454357
v 0.091854 0.037500 0.454357
v -0.069206 0.037500 0.440712
v -0.069206 0.037500 0.440712
v -0.521645 0.037500 0.473972
v -0.521645 0.037500 0.473972
v -0.521645 0.037500 -0.527725
v -0.521645 0.037500 -0.527725
v 0.480267 0.037500 0.473972
v 0.480267 0.037500 0.473972
v 0.283203 0.037500 0.438801
v 0.166195 0.037500 0.430641
v -0.157745 0.037500 0.425312
v 0.438656 0.037500 0.166161
v 0.455791 0.037500 0.092892
v 0.455791 0.037500 0.092892
v 0.674923 0.037500 0.055336
v 0.644085 0.037500 0.123661
v 0.644085 0.037500 0.123661
v 0.581699 0.037500 0.122677
v 0.509949 0.037500 0.092361
v 0.671181 0.037500 -0.041523
v 0.634571 0.037500 -0.105961
v 0.634571 0.037500 -0.105961
v 0.449364 0.037500 -0.068626
v 0.449364 0.037500 -0.068626
v 0.500610 0.037500 -0.063637
v 0.570675 0.037500 -0.098244
v 0.434730 0.037500 -0.158905
v -0.105598 0.037500 -0.312588
v -0.105598 0.037500 -0.312588
v -0.042347 0.037500 -0.289391
v 0.049766 0.037500 -0.306732
v 0.113945 0.037500 -0.356728
v -0.102837 0.037500 -0.377594
v 0.112595 0.037500 -0.428967
v -0.075527 0.037500 -0.459156
v 0.084904 0.037500 -0.503010
v -0.084789 0.037500 -0.525402
v -0.084789 0.037500 -0.525402
v 0.480266 0.037500 -0.527725
v 0.480266 0.037500 -0.527725
v 0.089275 0.037500 -0.555916
v 0.089275 0.037500 -0.555916
v -0.172531 0.037500 -0.552814
v -0.303795 0.037500 -0.551304
v 0.166096 0.037500 -0.571583
v 0.126244 -0.037498 0.680063
v 0.126244 -0.037498 0.680063
v 0.057396 -0.037500 0.708414
v -0.041023 -0.037500 0.694357
v -0.107029 -0.037500 0.645355
v 0.124146 -0.037500 0.608822
v -0.100059 -0.037498 0.571735
v 0.092136 -0.037500 0.522118
v -0.065266 -0.037500 0.495296
v 0.091854 -0.037500 0.454357
v 0.091854 -0.037500 0.454357
v -0.069206 -0.037500 0.440712
v -0.069206 -0.037500 0.440712
v -0.521645 -0.037500 0.473972
v -0.521645 -0.037500 0.473972
v -0.521645 -0.037500 -0.527725
v -0.521645 -0.037500 -0.527725
v 0.480267 -0.037500 0.473972
v 0.480267 -0.037500 0.473972
v 0.283203 -0.037500 0.438801
v 0.166195 -0.037498 0.430641
v -0.157745 -0.037500 0.425312
v 0.438656 -0.037500 0.166161
v 0.455791 -0.037500 0.092892
v 0.455791 -0.037500 0.092892
v 0.674923 -0.037498 0.055336
v 0.644085 -0.037498 0.123661
v 0.644085 -0.037498 0.123661
v 0.581699 -0.037500 0.122677
v 0.509949 -0.037500 0.092361
v 0.671181 -0.037500 -0.041523
v 0.634571 -0.037500 -0.105961
v 0.634571 -0.037500 -0.105961
v 0.449364 -0.037500 -0.068626
v 0.449364 -0.037500 -0.068626
v 0.500610 -0.037498 -0.063637
v 0.570675 -0.037500 -0.098244
v 0.434730 -0.037500 -0.158905
v -0.105598 -0.037500 -0.312588
v -0.105598 -0.037500 -0.312588
v -0.042347 -0.037500 -0.289391
v 0.049766 -0.037498 -0.306732
v 0.113945 -0.037500 -0.356728
v -0.102837 -0.037500 -0.377594
v 0.112595 -0.037500 -0.428967
v -0.075527 -0.037500 -0.459156
v 0.084904 -0.037500 -0.503010
v -0.084789 -0.037500 -0.525402
v -0.084789 -0.037500 -0.525402
v 0.480266 -0.037500 -0.527725
v 0.480266 -0.037500 -0.527725
v 0.089275 -0.037500 -0.555916
v 0.089275 -0.037500 -0.555916
v -0.172531 -0.037498 -0.552814
v -0.303795 -0.037498 -0.551304
v 0.166096 -0.037500 -0.571583
vt 0.500000 0.500000
vt 0.500000 0.500000
vt 0.500000 0.500000
vt 0.500000 0.500000
vt 0.500000 0.500000
vt 0.500000 0.500000
vt 0.500000 0.500000
vt 0.500000 0.500000
vt 0.500000 0.500000
vt 0.500000 0.500000
vt 0.500000 0.500000
vt 0.500000 0.500000
vt 0.500000 0.500000
vt 0.500000 0.500000
vt 0.500000 0.500000
vt 0.500000 0.500000
vt 0.500000 0.500000
vt 0.500000 0.500000
vt 0.500000 0.500000
vt 0.500000 0.500000
vt 0.500000 0.500000
vt 0.500000 0.500000
vt 0.500000 0.500000
vt 0.500000 0.500000
vt 0.500000 0.500000
vt 0.500000 0.500000
vt 0.500000 0.500000
vt 0.500000 0.500000
vt 0.500000 0.500000
vt 0.500000 0.500000
vt 0.500000 0.500000
vt 0.500000 0.500000
vt 0.500000 0.500000
vt 0.500000 0.500000
vt 0.500000 0.500000
vt 0.500000 0.500000
vt 0.500000 0.500000
vt 0.500000 0.500000
vt 0.500000 0.500000
vt 0.500000 0.500000
vt 0.500000 0.500000
vt 0.500000 0.500000
vt 0.500000 0.500000
vt 0.500000 0.500000
vt 0.500000 0.500000
vt 0.500000 0.500000
vt 0.500000 0.500000
vt 0.500000 0.500000
vt 0.500000 0.500000
vt 0.500000 0.500000
vt 0.500000 0.500000
vt 0.500000 0.500000
vt 0.500000 0.500000
vt 0.500000 0.500000
vt 0.500000 0.500000
vt 0.500000 0.500000
vt 0.500000 0.500000
vt 0.500000 0.500000
vt 0.500000 0.500000
vt 0.500000 0.500000
vt 0.500000 0.500000
vt 0.500000 0.500000
vt 0.500000 0.500000
vt 0.500000 0.500000
vt 0.500000 0.500000
vt 0.500000 0.500000
vt 0.500000 0.500000
vt 0.500000 0.500000
vt 0.500000 0.500000
vt 0.500000 0.500000
vt 0.500000 0.500000
vt 0.500000 0.500000
vt 0.500000 0.500000
vt 0.500000 0.500000
vt 0.500000 0.500000
vt 0.500000 0.500000
vt 0.500000 0.500000
vt 0.500000 0.500000
vt 0.500000 0.500000
vt 0.500000 0.500000
vt 0.500000 0.500000
vt 0.500000 0.500000
vt 0.500000 0.500000
vt 0.500000 0.500000
vt 0.500000 0.500000
vt 0.500000 0.500000
vt 0.500000 0.500000
vt 0.500000 0.500000
vt 0.500000 0.500000
vt 0.500000 0.500000
vt 0.500000 0.500000
vt 0.500000 0.500000
vt 0.500000 0.500000
vt 0.500000 0.500000
vt 0.500000 0.500000
vt 0.500000 0.500000
vt 0.500000 0.500000
vt 0.500000 0.500000
vt 0.500000 0.500000
vt 0.500000 0.500000
vt 0.500000 0.500000
vt 0.500000 0.500000
vt 0.500000 0.500000
vt 0.500000 0.500000
vt 0.500000 0.500000
vt 0.500000 0.500000
vt 0.500000 0.500000
vt 0.500000 0.500000
vt 0.500000 0.500000
vt 0.500000 0.500000
vt 0.500000 0.500000
vt 0.500000 0.500000
vt 0.500000 0.500000
vt 0.500000 0.500000
vt 0.500000 0.500000
vt 0.500000 0.500000
vt 0.500000 0.500000
vt 0.500000 0.500000
vt 0.500000 0.500000
vt 0.500000 0.500000
vt 0.500000 0.500000
vt 0.500000 0.500000
vt 0.500000 0.500000
vt 0.500000 0.500000
vt 0.500000 0.500000
vt 0.500000 0.500000
vt 0.500000 0.500000
vt 0.500000 0.500000
vt 0.500000 0.500000
vt 0.500000 0.500000
vt 0.500000 0.500000
vt 0.500000 0.500000
vt 0.500000 0.500000
vt 0.500000 0.500000
vt 0.500000 0.500000
vt 0.500000 0.500000
vt 0.500000 0.500000
vt 0.500000 0.500000
vt 0.500000 0.500000
vt 0.500000 0.500000
vt 0.500000 0.500000
vt 0.500000 0.500000
vt 0.500000 0.500000
vt 0.500000 0.500000
vt 0.500000 0.500000
vt 0.500000 0.500000
vt 0.500000 0.500000
vt 0.500000 0.500000
vt 0.500000 0.500000
vt 0.500000 0.500000
vt 0.500000 0.500000
vt 0.500000 0.500000
vt 0.500000 0.500000
vt 0.500000 0.500000
vt 0.990970 0.117612
vt 0.989896 0.116826
vt 0.989929 0.114851
vt 0.992883 0.111702
vt 0.993425 0.113822
vt 0.990428 0.112446
vt 0.984375 0.083333
vt 0.989275 0.082117
vt 0.990109 0.086072
vt 1.000000 0.111111
vt 0.994325 0.109762
vt 0.993512 0.089299
vt 0.992505 0.117222
vt 0.985024 0.102575
vt 0.984757 0.100543
vt 0.991089 0.089462
vt 0.992944 0.110189
vt 0.990432 0.110567
vt 0.984857 0.096064
vt 0.981398 0.096816
vt 0.981969 0.095029
vt 0.982965 0.095243
vt 0.983912 0.100529
vt 0.982793 0.101369
vt 0.981339 0.099502
vt 0.990473 0.082552
vt 0.990541 0.084019
vt 0.990088 0.088075
vt 0.985085 0.093561
vt 1.000000 0.083333
vt 0.996603 0.082679
vt 0.993469 0.087497
vt 0.992525 0.089942
vt 0.989273 0.109909
vt 0.981820 0.101397
vt 0.987448 0.110136
vt 0.984375 0.111111
vt 0.984058 0.096203
vt 0.994555 0.082638
vt 0.993187 0.083398
vt 0.993043 0.085235
vt 0.993534 0.115864
vn 0.0000 -1.0000 0.0000
vn 0.0000 -1.0000 -0.0001
vn 0.3808 0.0000 0.9247
vn -0.1414 0.0000 0.9900
vn -0.5961 0.0000 0.8029
vn 0.9996 0.0000 -0.0294
vn -0.9955 0.0000 -0.0942
vn 0.9381 0.0000 -0.3463
vn -0.9101 0.0000 -0.4143
vn 1.0000 0.0000 -0.0042
vn -0.9974 0.0000 0.0720
vn -1.0000 0.0000 0.0000
vn -0.1757 0.0000 0.9844
vn 0.3039 0.0000 0.9527
vn -0.1714 0.0000 0.9852
vn -0.0696 0.0000 0.9976
vn 0.1325 0.0000 0.9912
vn 0.9910 0.0000 -0.1340
vn 0.9737 0.0000 0.2277
vn 0.9115 0.0000 0.4114
vn -0.0158 0.0000 0.9999
vn -0.3892 0.0000 0.9212
vn 0.0098 0.0000 1.0000
vn 0.9993 0.0000 -0.0386
vn 0.8695 0.0000 -0.4940
vn 0.0969 0.0000 -0.9953
vn -0.1199 0.0000 -0.9928
vn -0.4429 0.0000 -0.8966
vn 0.9871 0.0000 -0.1600
vn 0.3443 0.0000 -0.9389
vn -0.1850 0.0000 -0.9827
vn -0.6145 0.0000 -0.7889
vn 0.9991 0.0000 0.0424
vn -0.9998 0.0000 0.0187
vn 0.9483 0.0000 0.3175
vn -0.9366 0.0000 0.3503
vn 0.9904 0.0000 -0.1385
vn 0.9925 0.0000 0.1225
vn -0.9966 0.0000 -0.0823
vn 0.2982 0.0000 -0.9545
vn -0.0115 0.0000 -0.9999
vn -0.1076 0.0000 -0.9942
vn 0.1383 0.0000 -0.9904
vn -0.1998 0.0000 -0.9798
vn 0.0000 1.0000 0.0000
usemtl BackMat.001
s off
f 143/1/1 146/2/1 141/3/1
f 149/4/1 148/5/1 147/6/1
f 190/7/1 185/8/1 196/9/1
f 154/10/1 179/11/1 162/12/1
f 146/2/1 144/13/1 148/5/1
f 144/13/1 146/2/1 143/1/1
f 163/14/1 182/15/1 164/16/1
f 152/17/1 150/18/1 149/4/1
f 182/15/1 174/19/1 164/16/1
f 171/20/1 177/21/1 172/22/1
f 170/23/1 166/24/1 169/25/1
f 192/26/1 196/9/1 187/27/1
f 185/8/1 190/7/1 183/28/1
f 182/15/1 178/29/1 174/19/1
f 156/30/1 179/11/1 154/10/1
f 195/31/1 179/11/1 156/30/1
f 179/11/1 195/31/1 184/32/1
f 147/6/1 148/5/1 144/13/1
f 162/12/1 179/11/1 181/33/1
f 170/23/1 171/20/1 166/24/1
f 161/34/1 181/33/1 182/15/1
f 169/25/1 166/24/1 167/35/1
f 160/36/1 163/14/1 158/37/1
f 150/18/1 148/5/1 149/4/1
f 170/23/1 176/38/1 171/20/1
f 152/17/2 161/34/2 150/18/2
f 161/34/1 182/15/1 163/14/1
f 164/16/1 176/38/1 170/23/1
f 162/12/1 181/33/1 152/17/1
f 152/17/1 181/33/1 161/34/1
f 194/39/1 184/32/1 195/31/1
f 188/40/1 186/41/1 194/39/1
f 183/28/1 178/29/1 182/15/1
f 178/29/1 183/28/1 190/7/1
f 184/32/1 194/39/1 186/41/1
f 174/19/1 176/38/1 164/16/1
f 187/27/1 196/9/1 185/8/1
f 171/20/1 176/38/1 177/21/1
f 161/34/1 163/14/1 160/36/1
f 147/6/1 144/13/1 145/42/1
f 86/43/3 20/44/3 62/45/3 142/46/3
f 20/44/4 21/47/4 63/48/4 62/45/4
f 21/47/5 22/49/5 64/50/5 63/48/5
f 18/51/6 19/52/6 61/53/6 60/54/6
f 22/49/7 23/55/7 65/56/7 64/50/7
f 17/57/8 18/51/8 60/54/8 59/58/8
f 23/55/9 24/59/9 66/60/9 65/56/9
f 95/61/10 17/57/10 59/58/10 151/62/10
f 24/59/11 97/63/11 153/64/11 66/60/11
f 99/65/12 101/66/12 157/67/12 155/68/12
f 103/69/13 14/70/13 56/71/13 159/72/13
f 15/73/14 16/74/14 58/75/14 57/76/14
f 25/77/15 26/78/15 68/79/15 67/80/15
f 14/70/16 15/73/16 57/76/16 56/71/16
f 26/78/17 27/81/17 69/82/17 68/79/17
f 12/83/18 13/84/18 55/85/18 54/86/18
f 109/87/19 12/83/19 54/86/19 165/88/19
f 7/89/20 112/90/20 168/91/20 49/92/20
f 8/93/21 9/94/21 51/95/21 50/96/21
f 9/94/22 10/97/22 52/98/22 51/95/22
f 10/97/23 11/99/23 53/100/23 52/98/23
f 6/101/24 7/89/24 49/92/24 48/102/24
f 117/103/25 6/101/25 48/102/25 173/104/25
f 119/105/26 3/106/26 45/107/26 175/108/26
f 4/109/27 5/110/27 47/111/27 46/112/27
f 3/106/28 4/109/28 46/112/28 45/107/28
f 1/113/29 2/114/29 44/115/29 43/116/29
f 124/117/30 35/118/30 77/119/30 180/120/30
f 35/118/31 36/121/31 78/122/31 77/119/31
f 36/121/32 37/123/32 79/124/32 78/122/32
f 33/125/33 34/126/33 76/127/33 75/128/33
f 37/123/34 38/129/34 80/130/34 79/124/34
f 32/131/35 33/125/35 75/128/35 74/132/35
f 38/129/36 39/133/36 81/134/36 80/130/36
f 133/135/37 32/131/37 74/132/37 189/136/37
f 135/137/38 1/113/38 43/116/38 191/138/38
f 39/133/39 137/139/39 193/140/39 81/134/39
f 30/141/40 31/142/40 73/143/40 72/144/40
f 29/145/41 30/141/41 72/144/41 71/146/41
f 28/147/42 29/145/42 71/146/42 70/148/42
f 41/149/43 42/150/43 84/151/43 83/152/43
f 40/153/44 41/149/44 83/152/44 82/154/44
usemtl FrontMat.001
f 87/155/45 85/156/45 90/157/45
f 93/158/45 91/159/45 92/160/45
f 134/161/45 140/162/45 129/163/45
f 98/164/45 106/165/45 123/166/45
f 90/157/45 92/160/45 88/167/45
f 88/167/45 87/155/45 90/157/45
f 107/168/45 108/169/45 126/170/45
f 96/171/45 93/158/45 94/172/45
f 126/170/45 108/169/45 118/173/45
f 115/174/45 116/175/45 121/176/45
f 114/177/45 113/178/45 110/179/45
f 136/180/45 131/181/45 140/162/45
f 129/163/45 127/182/45 134/161/45
f 126/170/45 118/173/45 122/183/45
f 100/184/45 98/164/45 123/166/45
f 139/185/45 100/184/45 123/166/45
f 123/166/45 128/186/45 139/185/45
f 91/159/45 88/167/45 92/160/45
f 106/165/45 125/187/45 123/166/45
f 114/177/45 110/179/45 115/174/45
f 105/188/45 126/170/45 125/187/45
f 113/178/45 111/189/45 110/179/45
f 104/190/45 102/191/45 107/168/45
f 94/172/45 93/158/45 92/160/45
f 114/177/45 115/174/45 120/192/45
f 96/171/45 94/172/45 105/188/45
f 105/188/45 107/168/45 126/170/45
f 108/169/45 114/177/45 120/192/45
f 106/165/45 96/171/45 125/187/45
f 96/171/45 105/188/45 125/187/45
f 138/193/45 139/185/45 128/186/45
f 132/194/45 138/193/45 130/195/45
f 127/182/45 126/170/45 122/183/45
f 122/183/45 134/161/45 127/182/45
f 128/186/45 130/195/45 138/193/45
f 118/173/45 108/169/45 120/192/45
f 131/181/45 129/163/45 140/162/45
f 115/174/45 121/176/45 120/192/45
f 105/188/45 104/190/45 107/168/45
f 91/159/45 89/196/45 88/167/45
