# Blender v2.83.1 OBJ File: 'jigsaw-64x36-3-step2.blend'
# www.blender.org
mtllib piece.265.mtl
o path5146
v 0.474385 0.037500 -0.267133
v 0.463712 0.037500 -0.143332
v 0.482678 0.037500 -0.066092
v 0.543269 0.037500 -0.069881
v 0.622963 0.037500 -0.108999
v 0.690617 0.037500 -0.117700
v 0.720771 0.037500 -0.051625
v 0.710713 0.037500 0.048042
v 0.663418 0.037500 0.118732
v 0.586319 0.037500 0.118826
v 0.504693 0.037500 0.090512
v 0.448279 0.037500 0.096928
v 0.437909 0.037500 0.181705
v 0.511451 0.037500 0.525017
v 0.284400 0.037500 0.577337
v 0.149408 0.037500 0.593490
v 0.063245 0.037500 0.569877
v 0.063089 0.037500 0.489988
v 0.101887 0.037500 0.383375
v 0.111526 0.037500 0.291106
v 0.045814 0.037500 0.246376
v -0.053782 0.037500 0.250891
v -0.123875 0.037500 0.298488
v -0.122099 0.037500 0.379180
v -0.090173 0.037500 0.467712
v -0.090838 0.037500 0.535007
v -0.167734 0.037500 0.560157
v -0.288087 0.037500 0.554930
v -0.490458 0.037500 0.525017
v -0.447868 0.037500 0.301192
v -0.434782 0.037500 0.166675
v -0.454185 0.037500 0.077541
v -0.519913 0.037500 0.069832
v -0.609651 0.037500 0.099762
v -0.692043 0.037500 0.103586
v -0.740587 0.037500 0.038076
v -0.748206 0.037500 -0.057927
v -0.712674 0.037500 -0.125065
v -0.637529 0.037500 -0.123812
v -0.549364 0.037500 -0.093957
v -0.480532 0.037500 -0.095121
v -0.454585 0.037500 -0.168758
v -0.459859 0.037500 -0.283653
v -0.490458 0.037500 -0.476680
v -0.281507 0.037500 -0.458695
v -0.157495 0.037500 -0.460165
v -0.078833 0.037500 -0.488707
v -0.079795 0.037500 -0.553356
v -0.116521 0.037500 -0.633289
v -0.125615 0.037500 -0.700218
v -0.064309 0.037500 -0.730624
v 0.027649 0.037500 -0.720056
v 0.089887 0.037500 -0.668831
v 0.082860 0.037500 -0.582785
v 0.050354 0.037500 -0.489813
v 0.056984 0.037500 -0.423325
v 0.147067 0.037500 -0.406953
v 0.283722 0.037500 -0.425208
v 0.511451 0.037500 -0.476680
v 0.474385 -0.037498 -0.267133
v 0.463712 -0.037500 -0.143332
v 0.482678 -0.037500 -0.066092
v 0.543269 -0.037498 -0.069881
v 0.622963 -0.037500 -0.108999
v 0.690617 -0.037500 -0.117700
v 0.720771 -0.037500 -0.051625
v 0.710713 -0.037500 0.048042
v 0.663418 -0.037500 0.118732
v 0.586319 -0.037498 0.118826
v 0.504693 -0.037500 0.090512
v 0.448279 -0.037500 0.096928
v 0.437909 -0.037500 0.181705
v 0.511451 -0.037500 0.525017
v 0.284400 -0.037500 0.577337
v 0.149408 -0.037498 0.593490
v 0.063245 -0.037500 0.569877
v 0.063089 -0.037500 0.489988
v 0.101887 -0.037500 0.383375
v 0.111526 -0.037500 0.291106
v 0.045814 -0.037500 0.246376
v -0.053782 -0.037500 0.250891
v -0.123875 -0.037500 0.298488
v -0.122099 -0.037500 0.379180
v -0.090173 -0.037500 0.467712
v -0.090838 -0.037500 0.535007
v -0.167734 -0.037500 0.560157
v -0.288087 -0.037500 0.554930
v -0.490458 -0.037498 0.525017
v -0.447868 -0.037500 0.301192
v -0.434782 -0.037498 0.166675
v -0.454185 -0.037500 0.077541
v -0.519913 -0.037500 0.069832
v -0.609651 -0.037500 0.099762
v -0.692043 -0.037500 0.103586
v -0.740587 -0.037500 0.038076
v -0.748206 -0.037500 -0.057927
v -0.712674 -0.037500 -0.125065
v -0.637529 -0.037500 -0.123812
v -0.549364 -0.037498 -0.093957
v -0.480532 -0.037500 -0.095121
v -0.454585 -0.037500 -0.168758
v -0.459859 -0.037500 -0.283653
v -0.490458 -0.037500 -0.476680
v -0.281507 -0.037500 -0.458695
v -0.157495 -0.037500 -0.460165
v -0.078833 -0.037500 -0.488707
v -0.079795 -0.037500 -0.553356
v -0.116521 -0.037500 -0.633289
v -0.125615 -0.037498 -0.700218
v -0.064309 -0.037500 -0.730624
v 0.027649 -0.037500 -0.720056
v 0.089887 -0.037500 -0.668831
v 0.082860 -0.037500 -0.582785
v 0.050354 -0.037500 -0.489813
v 0.056984 -0.037500 -0.423325
v 0.147067 -0.037500 -0.406953
v 0.283722 -0.037500 -0.425208
v 0.511451 -0.037500 -0.476680
v -0.125615 0.037500 -0.700218
v -0.125615 0.037500 -0.700218
v -0.064309 0.037500 -0.730624
v 0.027649 0.037500 -0.720056
v 0.089887 0.037500 -0.668831
v -0.116521 0.037500 -0.633289
v 0.082860 0.037500 -0.582785
v -0.079795 0.037500 -0.553356
v 0.050354 0.037500 -0.489813
v -0.078833 0.037500 -0.488707
v -0.078833 0.037500 -0.488707
v 0.056984 0.037500 -0.423325
v 0.056984 0.037500 -0.423325
v -0.157495 0.037500 -0.460165
v -0.490458 0.037500 -0.476680
v -0.490458 0.037500 -0.476680
v -0.281507 0.037500 -0.458695
v 0.283722 0.037500 -0.425208
v 0.511451 0.037500 -0.476680
v 0.511451 0.037500 -0.476680
v 0.147067 0.037500 -0.406953
v -0.459859 0.037500 -0.283653
v 0.474385 0.037500 -0.267133
v -0.454585 0.037500 -0.168758
v 0.463712 0.037500 -0.143332
v -0.480532 0.037500 -0.095121
v -0.480532 0.037500 -0.095121
v 0.482678 0.037500 -0.066092
v 0.482678 0.037500 -0.066092
v -0.748206 0.037500 -0.057927
v -0.712674 0.037500 -0.125065
v -0.712674 0.037500 -0.125065
v -0.637529 0.037500 -0.123812
v -0.549364 0.037500 -0.093957
v 0.622963 0.037500 -0.108999
v 0.690617 0.037500 -0.117700
v 0.690617 0.037500 -0.117700
v 0.720771 0.037500 -0.051625
v 0.543269 0.037500 -0.069881
v -0.740587 0.037500 0.038076
v 0.710713 0.037500 0.048042
v -0.692043 0.037500 0.103586
v 0.663418 0.037500 0.118732
v -0.609651 0.037500 0.099762
v -0.519913 0.037500 0.069832
v -0.454185 0.037500 0.077541
v -0.454185 0.037500 0.077541
v -0.434782 0.037500 0.166675
v 0.504693 0.037500 0.090512
v 0.448279 0.037500 0.096928
v 0.448279 0.037500 0.096928
v 0.586319 0.037500 0.118826
v 0.437909 0.037500 0.181705
v -0.447868 0.037500 0.301192
v 0.045814 0.037500 0.246376
v -0.053782 0.037500 0.250891
v 0.111526 0.037500 0.291106
v 0.111526 0.037500 0.291106
v -0.123875 0.037500 0.298488
v 0.101887 0.037500 0.383375
v -0.122099 0.037500 0.379180
v -0.090173 0.037500 0.467712
v 0.063089 0.037500 0.489988
v -0.490458 0.037500 0.525017
v -0.490458 0.037500 0.525017
v -0.090838 0.037500 0.535007
v -0.090838 0.037500 0.535007
v 0.063245 0.037500 0.569877
v 0.063245 0.037500 0.569877
v 0.511451 0.037500 0.525017
v 0.511451 0.037500 0.525017
v -0.167734 0.037500 0.560157
v -0.288087 0.037500 0.554930
v 0.284400 0.037500 0.577337
v 0.149408 0.037500 0.593490
v -0.125615 -0.037498 -0.700218
v -0.125615 -0.037498 -0.700218
v -0.064309 -0.037500 -0.730624
v 0.027649 -0.037500 -0.720056
v 0.089887 -0.037500 -0.668831
v -0.116521 -0.037500 -0.633289
v 0.082860 -0.037500 -0.582785
v -0.079795 -0.037500 -0.553356
v 0.050354 -0.037500 -0.489813
v -0.078833 -0.037500 -0.488707
v -0.078833 -0.037500 -0.488707
v 0.056984 -0.037500 -0.423325
v 0.056984 -0.037500 -0.423325
v -0.157495 -0.037500 -0.460165
v -0.490458 -0.037500 -0.476680
v -0.490458 -0.037500 -0.476680
v -0.281507 -0.037500 -0.458695
v 0.283722 -0.037500 -0.425208
v 0.511451 -0.037500 -0.476680
v 0.511451 -0.037500 -0.476680
v 0.147067 -0.037500 -0.406953
v -0.459859 -0.037500 -0.283653
v 0.474385 -0.037498 -0.267133
v -0.454585 -0.037500 -0.168758
v 0.463712 -0.037500 -0.143332
v -0.480532 -0.037500 -0.095121
v -0.480532 -0.037500 -0.095121
v 0.482678 -0.037500 -0.066092
v 0.482678 -0.037500 -0.066092
v -0.748206 -0.037500 -0.057927
v -0.712674 -0.037500 -0.125065
v -0.712674 -0.037500 -0.125065
v -0.637529 -0.037500 -0.123812
v -0.549364 -0.037498 -0.093957
v 0.622963 -0.037500 -0.108999
v 0.690617 -0.037500 -0.117700
v 0.690617 -0.037500 -0.117700
v 0.720771 -0.037500 -0.051625
v 0.543269 -0.037498 -0.069881
v -0.740587 -0.037500 0.038076
v 0.710713 -0.037500 0.048042
v -0.692043 -0.037500 0.103586
v 0.663418 -0.037500 0.118732
v -0.609651 -0.037500 0.099762
v -0.519913 -0.037500 0.069832
v -0.454185 -0.037500 0.077541
v -0.454185 -0.037500 0.077541
v -0.434782 -0.037498 0.166675
v 0.504693 -0.037500 0.090512
v 0.448279 -0.037500 0.096928
v 0.448279 -0.037500 0.096928
v 0.586319 -0.037498 0.118826
v 0.437909 -0.037500 0.181705
v -0.447868 -0.037500 0.301192
v 0.045814 -0.037500 0.246376
v -0.053782 -0.037500 0.250891
v 0.111526 -0.037500 0.291106
v 0.111526 -0.037500 0.291106
v -0.123875 -0.037500 0.298488
v 0.101887 -0.037500 0.383375
v -0.122099 -0.037500 0.379180
v -0.090173 -0.037500 0.467712
v 0.063089 -0.037500 0.489988
v -0.490458 -0.037498 0.525017
v -0.490458 -0.037498 0.525017
v -0.090838 -0.037500 0.535007
v -0.090838 -0.037500 0.535007
v 0.063245 -0.037500 0.569877
v 0.063245 -0.037500 0.569877
v 0.511451 -0.037500 0.525017
v 0.511451 -0.037500 0.525017
v -0.167734 -0.037500 0.560157
v -0.288087 -0.037500 0.554930
v 0.284400 -0.037500 0.577337
v 0.149408 -0.037498 0.593490
vt 0.500000 0.500000
vt 0.500000 0.500000
vt 0.500000 0.500000
vt 0.500000 0.500000
vt 0.500000 0.500000
vt 0.500000 0.500000
vt 0.500000 0.500000
vt 0.500000 0.500000
vt 0.500000 0.500000
vt 0.500000 0.500000
vt 0.500000 0.500000
vt 0.500000 0.500000
vt 0.500000 0.500000
vt 0.500000 0.500000
vt 0.500000 0.500000
vt 0.500000 0.500000
vt 0.500000 0.500000
vt 0.500000 0.500000
vt 0.500000 0.500000
vt 0.500000 0.500000
vt 0.500000 0.500000
vt 0.500000 0.500000
vt 0.500000 0.500000
vt 0.500000 0.500000
vt 0.500000 0.500000
vt 0.500000 0.500000
vt 0.500000 0.500000
vt 0.500000 0.500000
vt 0.500000 0.500000
vt 0.500000 0.500000
vt 0.500000 0.500000
vt 0.500000 0.500000
vt 0.500000 0.500000
vt 0.500000 0.500000
vt 0.500000 0.500000
vt 0.500000 0.500000
vt 0.500000 0.500000
vt 0.500000 0.500000
vt 0.500000 0.500000
vt 0.500000 0.500000
vt 0.500000 0.500000
vt 0.500000 0.500000
vt 0.500000 0.500000
vt 0.500000 0.500000
vt 0.500000 0.500000
vt 0.500000 0.500000
vt 0.500000 0.500000
vt 0.500000 0.500000
vt 0.500000 0.500000
vt 0.500000 0.500000
vt 0.500000 0.500000
vt 0.500000 0.500000
vt 0.500000 0.500000
vt 0.500000 0.500000
vt 0.500000 0.500000
vt 0.500000 0.500000
vt 0.500000 0.500000
vt 0.500000 0.500000
vt 0.500000 0.500000
vt 0.500000 0.500000
vt 0.500000 0.500000
vt 0.500000 0.500000
vt 0.500000 0.500000
vt 0.500000 0.500000
vt 0.500000 0.500000
vt 0.500000 0.500000
vt 0.500000 0.500000
vt 0.500000 0.500000
vt 0.500000 0.500000
vt 0.500000 0.500000
vt 0.500000 0.500000
vt 0.500000 0.500000
vt 0.500000 0.500000
vt 0.500000 0.500000
vt 0.500000 0.500000
vt 0.500000 0.500000
vt 0.500000 0.500000
vt 0.500000 0.500000
vt 0.500000 0.500000
vt 0.500000 0.500000
vt 0.500000 0.500000
vt 0.500000 0.500000
vt 0.500000 0.500000
vt 0.500000 0.500000
vt 0.500000 0.500000
vt 0.500000 0.500000
vt 0.500000 0.500000
vt 0.500000 0.500000
vt 0.500000 0.500000
vt 0.500000 0.500000
vt 0.500000 0.500000
vt 0.500000 0.500000
vt 0.500000 0.500000
vt 0.500000 0.500000
vt 0.500000 0.500000
vt 0.500000 0.500000
vt 0.500000 0.500000
vt 0.500000 0.500000
vt 0.500000 0.500000
vt 0.500000 0.500000
vt 0.500000 0.500000
vt 0.500000 0.500000
vt 0.500000 0.500000
vt 0.500000 0.500000
vt 0.500000 0.500000
vt 0.500000 0.500000
vt 0.500000 0.500000
vt 0.500000 0.500000
vt 0.500000 0.500000
vt 0.500000 0.500000
vt 0.500000 0.500000
vt 0.500000 0.500000
vt 0.500000 0.500000
vt 0.500000 0.500000
vt 0.500000 0.500000
vt 0.500000 0.500000
vt 0.500000 0.500000
vt 0.500000 0.500000
vt 0.500000 0.500000
vt 0.500000 0.500000
vt 0.500000 0.500000
vt 0.500000 0.500000
vt 0.500000 0.500000
vt 0.500000 0.500000
vt 0.500000 0.500000
vt 0.500000 0.500000
vt 0.500000 0.500000
vt 0.500000 0.500000
vt 0.500000 0.500000
vt 0.500000 0.500000
vt 0.500000 0.500000
vt 0.500000 0.500000
vt 0.500000 0.500000
vt 0.500000 0.500000
vt 0.500000 0.500000
vt 0.500000 0.500000
vt 0.500000 0.500000
vt 0.500000 0.500000
vt 0.500000 0.500000
vt 0.500000 0.500000
vt 0.500000 0.500000
vt 0.500000 0.500000
vt 0.500000 0.500000
vt 0.500000 0.500000
vt 0.500000 0.500000
vt 0.500000 0.500000
vt 0.500000 0.500000
vt 0.500000 0.500000
vt 0.500000 0.500000
vt 0.500000 0.500000
vt 0.500000 0.500000
vt 0.500000 0.500000
vt 0.500000 0.500000
vt 0.500000 0.500000
vt 0.500000 0.500000
vt 0.500000 0.500000
vt 0.500000 0.500000
vt 0.500000 0.500000
vt 0.500000 0.500000
vt 0.500000 0.500000
vt 0.500000 0.500000
vt 0.500000 0.500000
vt 0.500000 0.500000
vt 0.500000 0.500000
vt 0.500000 0.500000
vt 0.500000 0.500000
vt 0.500000 0.500000
vt 0.500000 0.500000
vt 0.500000 0.500000
vt 0.500000 0.500000
vt 0.500000 0.500000
vt 0.500000 0.500000
vt 0.500000 0.500000
vt 0.500000 0.500000
vt 0.500000 0.500000
vt 0.500000 0.500000
vt 0.500000 0.500000
vt 0.500000 0.500000
vt 0.500000 0.500000
vt 0.500000 0.500000
vt 0.500000 0.500000
vt 0.500000 0.500000
vt 0.500000 0.500000
vt 0.500000 0.500000
vt 0.500000 0.500000
vt 0.500000 0.500000
vt 0.500000 0.500000
vt 0.500000 0.500000
vt 0.500000 0.500000
vt 0.500000 0.500000
vt 0.500000 0.500000
vt 0.500000 0.500000
vt 0.500000 0.500000
vt 0.500000 0.500000
vt 0.500000 0.500000
vt 0.500000 0.500000
vt 0.500000 0.500000
vt 0.500000 0.500000
vt 0.500000 0.500000
vt 0.500000 0.500000
vt 0.500000 0.500000
vt 0.500000 0.500000
vt 0.500000 0.500000
vt 0.500000 0.500000
vt 0.500000 0.500000
vt 0.500000 0.500000
vt 0.500000 0.500000
vt 0.500000 0.500000
vt 0.500000 0.500000
vt 0.123141 0.872904
vt 0.124541 0.873734
vt 0.124081 0.878276
vt 0.130832 0.893232
vt 0.131404 0.891015
vt 0.133080 0.895638
vt 0.134388 0.867598
vt 0.139478 0.870632
vt 0.139640 0.872982
vt 0.143889 0.877102
vt 0.142364 0.878693
vt 0.143733 0.874338
vt 0.125559 0.880350
vt 0.131810 0.868713
vt 0.133537 0.887409
vt 0.122706 0.879104
vt 0.121535 0.879138
vt 0.120980 0.877277
vt 0.125477 0.883536
vt 0.128259 0.888390
vt 0.133363 0.868838
vt 0.134942 0.886955
vt 0.131419 0.889223
vt 0.130193 0.888431
vt 0.121099 0.874614
vt 0.139880 0.879645
vt 0.140047 0.883078
vt 0.137074 0.887461
vt 0.125664 0.867318
vt 0.128156 0.860282
vt 0.130745 0.865155
vt 0.130033 0.860137
vt 0.131243 0.862700
vt 0.141121 0.877608
vt 0.134238 0.865039
vt 0.134979 0.859212
vt 0.137084 0.859660
vt 0.140625 0.888889
vt 0.125566 0.873520
vt 0.125868 0.871048
vt 0.125155 0.878308
vt 0.133434 0.889253
vt 0.134051 0.894217
vt 0.133941 0.891831
vt 0.131232 0.860834
vt 0.140520 0.873160
vt 0.141793 0.872375
vt 0.140176 0.877503
vt 0.125000 0.861111
vt 0.143419 0.878934
vt 0.121856 0.872798
vt 0.142995 0.872378
vt 0.140625 0.861111
vt 0.131646 0.895931
vt 0.133633 0.862083
vt 0.133635 0.859867
vt 0.125000 0.888889
vt 0.130717 0.867393
vt 0.130690 0.895088
vn -0.0000 -1.0000 -0.0000
vn -0.0001 -1.0000 -0.0000
vn -0.4443 0.0000 -0.8959
vn 0.1142 0.0000 -0.9935
vn 0.6355 0.0000 -0.7721
vn -0.9909 0.0000 0.1346
vn 0.9967 0.0000 0.0814
vn -0.9087 0.0000 0.4175
vn 0.9440 0.0000 0.3300
vn -0.9999 0.0000 0.0149
vn 0.9951 0.0000 -0.0992
vn -0.3411 0.0000 -0.9400
vn 0.0858 0.0000 -0.9963
vn -0.0118 0.0000 -0.9999
vn -0.2205 0.0000 -0.9754
vn -0.1324 0.0000 -0.9912
vn 0.1788 0.0000 -0.9839
vn -0.9877 0.0000 0.1566
vn 0.9847 0.0000 0.1742
vn -0.9989 0.0000 0.0459
vn 0.9963 0.0000 0.0859
vn -0.9432 0.0000 -0.3323
vn 0.9711 0.0000 -0.2385
vn -0.8838 0.0000 -0.4678
vn 0.0167 0.0000 -0.9999
vn 0.3207 0.0000 -0.9472
vn -0.1276 0.0000 -0.9918
vn 0.9097 0.0000 -0.4152
vn -0.4406 0.0000 -0.8977
vn -0.0169 0.0000 -0.9999
vn -0.0624 0.0000 -0.9981
vn -0.9969 0.0000 0.0791
vn 0.9949 0.0000 0.1004
vn -0.8034 0.0000 0.5954
vn 0.8311 0.0000 0.5561
vn 0.0464 0.0000 0.9989
vn 0.3164 0.0000 0.9486
vn -0.1165 0.0000 0.9932
vn -0.9771 0.0000 0.2127
vn 0.1130 0.0000 0.9936
vn -0.3277 0.0000 0.9448
vn 0.0012 0.0000 1.0000
vn 0.9926 0.0000 0.1214
vn -0.9953 0.0000 -0.0968
vn 0.0453 0.0000 0.9990
vn -0.5627 0.0000 0.8267
vn 0.5618 0.0000 0.8273
vn -0.9946 0.0000 -0.1039
vn 0.9998 0.0000 -0.0220
vn 0.9407 0.0000 -0.3392
vn -0.9397 0.0000 -0.3420
vn -0.9824 0.0000 -0.1869
vn 1.0000 0.0000 0.0099
vn -1.0000 0.0000 0.0019
vn 0.9778 0.0000 -0.2095
vn 0.3109 0.0000 0.9505
vn -0.1462 0.0000 0.9893
vn -0.0434 0.0000 0.9991
vn 0.2245 0.0000 0.9745
vn -0.2643 0.0000 0.9644
vn 0.1188 0.0000 0.9929
vn 0.0000 1.0000 0.0000
usemtl BackMat.001
s off
f 237/1/1 227/2/1 238/3/1
f 199/4/1 197/5/1 201/6/1
f 250/7/1 243/8/1 246/9/1
f 231/10/1 234/11/1 228/12/1
f 217/13/1 205/14/1 249/15/1
f 226/16/1 223/17/1 224/18/1
f 215/19/1 210/20/1 217/13/1
f 205/14/1 214/21/1 248/22/1
f 203/23/1 205/14/1 207/24/1
f 233/25/1 226/16/1 237/1/1
f 218/26/1 211/27/1 216/28/1
f 247/29/1 254/30/1 266/31/1
f 254/30/1 255/32/1 265/33/1
f 228/12/1 234/11/1 232/34/1
f 253/35/1 267/36/1 268/37/1
f 216/28/1 211/27/1 212/38/1
f 239/39/1 249/15/1 241/40/1
f 219/41/1 238/3/1 227/2/1
f 203/23/1 202/42/1 205/14/1
f 198/43/1 200/44/1 197/5/1
f 233/25/1 223/17/1 226/16/1
f 265/33/1 255/32/1 259/45/1
f 248/22/1 218/26/1 243/8/1
f 242/46/1 232/34/1 245/47/1
f 232/34/1 242/46/1 221/48/1
f 248/22/1 243/8/1 250/7/1
f 266/31/1 254/30/1 265/33/1
f 247/29/1 266/31/1 257/49/1
f 229/50/1 231/10/1 228/12/1
f 211/27/1 218/26/1 214/21/1
f 233/25/1 237/1/1 235/51/1
f 245/47/1 234/11/1 236/52/1
f 267/36/1 246/9/1 263/53/1
f 221/48/1 242/46/1 243/8/1
f 267/36/1 253/35/1 246/9/1
f 196/54/1 197/5/1 199/4/1
f 256/55/1 268/37/1 261/56/1
f 210/20/1 215/19/1 208/57/1
f 249/15/1 252/58/1 241/40/1
f 253/35/1 268/37/1 256/55/1
f 250/7/1 246/9/1 253/35/1
f 217/13/1 249/15/1 239/39/1
f 217/13/1 239/39/1 219/41/1
f 249/15/1 205/14/1 248/22/1
f 202/42/1 201/6/1 200/44/1
f 194/59/2 196/54/2 199/4/2
f 207/24/1 205/14/1 217/13/1
f 201/6/1 202/42/1 203/23/1
f 201/6/1 197/5/1 200/44/1
f 214/21/1 218/26/1 248/22/1
f 252/58/1 254/30/1 247/29/1
f 245/47/1 232/34/1 234/11/1
f 210/20/1 207/24/1 217/13/1
f 218/26/1 221/48/1 243/8/1
f 241/40/1 252/58/1 247/29/1
f 227/2/1 237/1/1 226/16/1
f 238/3/1 219/41/1 239/39/1
f 120/60/3 51/61/3 110/62/3 195/63/3
f 51/61/4 52/64/4 111/65/4 110/62/4
f 52/64/5 53/66/5 112/67/5 111/65/5
f 49/68/6 50/69/6 109/70/6 108/71/6
f 53/66/7 54/72/7 113/73/7 112/67/7
f 48/74/8 49/68/8 108/71/8 107/75/8
f 54/72/9 55/76/9 114/77/9 113/73/9
f 129/78/10 48/74/10 107/75/10 204/79/10
f 55/76/11 131/80/11 206/81/11 114/77/11
f 46/82/12 47/83/12 106/84/12 105/85/12
f 134/86/13 45/87/13 104/88/13 209/89/13
f 45/87/14 46/82/14 105/85/14 104/88/14
f 58/90/15 138/91/15 213/92/15 117/93/15
f 57/94/16 58/90/16 117/93/16 116/95/16
f 56/96/17 57/94/17 116/95/17 115/97/17
f 43/98/18 44/99/18 103/100/18 102/101/18
f 59/102/19 1/103/19 60/104/19 118/105/19
f 42/106/20 43/98/20 102/101/20 101/107/20
f 1/103/21 2/108/21 61/109/21 60/104/21
f 145/110/22 42/106/22 101/107/22 220/111/22
f 2/108/23 147/112/23 222/113/23 61/109/23
f 37/114/24 150/115/24 225/116/24 96/117/24
f 38/118/25 39/119/25 98/120/25 97/121/25
f 39/119/26 40/122/26 99/123/26 98/120/26
f 5/124/27 155/125/27 230/126/27 64/127/27
f 6/128/28 7/129/28 66/130/28 65/131/28
f 4/132/29 5/124/29 64/127/29 63/133/29
f 40/122/30 41/134/30 100/135/30 99/123/30
f 3/136/31 4/132/31 63/133/31 62/137/31
f 36/138/32 37/114/32 96/117/32 95/139/32
f 7/129/33 8/140/33 67/141/33 66/130/33
f 35/142/34 36/138/34 95/139/34 94/143/34
f 8/140/35 9/144/35 68/145/35 67/141/35
f 34/146/36 35/142/36 94/143/36 93/147/36
f 33/148/37 34/146/37 93/147/37 92/149/37
f 165/150/38 33/148/38 92/149/38 240/151/38
f 31/152/39 32/153/39 91/154/39 90/155/39
f 11/156/40 169/157/40 244/158/40 70/159/40
f 10/160/41 11/156/41 70/159/41 69/161/41
f 9/144/42 10/160/42 69/161/42 68/145/42
f 12/162/43 13/163/43 72/164/43 71/165/43
f 30/166/44 31/152/44 90/155/44 89/167/44
f 21/168/45 22/169/45 81/170/45 80/171/45
f 176/172/46 21/168/46 80/171/46 251/173/46
f 22/169/47 23/174/47 82/175/47 81/170/47
f 19/176/48 20/177/48 79/178/48 78/179/48
f 23/174/49 24/180/49 83/181/49 82/175/49
f 24/180/50 25/182/50 84/183/50 83/181/50
f 18/184/51 19/176/51 78/179/51 77/185/51
f 183/186/52 30/166/52 89/167/52 258/187/52
f 25/182/53 185/188/53 260/189/53 84/183/53
f 187/190/54 18/184/54 77/185/54 262/191/54
f 13/163/55 189/192/55 264/193/55 72/164/55
f 26/194/56 27/195/56 86/196/56 85/197/56
f 28/198/57 29/199/57 88/200/57 87/201/57
f 27/195/58 28/198/58 87/201/58 86/196/58
f 14/202/59 15/203/59 74/204/59 73/205/59
f 16/206/60 17/207/60 76/208/60 75/209/60
f 15/203/61 16/206/61 75/209/61 74/204/61
usemtl FrontMat.001
f 162/210/62 163/211/62 152/212/62
f 124/213/62 126/214/62 122/215/62
f 175/216/62 171/217/62 168/218/62
f 156/219/62 153/220/62 159/221/62
f 142/222/62 174/223/62 130/224/62
f 151/225/62 149/226/62 148/227/62
f 140/228/62 142/222/62 135/229/62
f 130/224/62 173/230/62 139/231/62
f 128/232/62 132/233/62 130/224/62
f 158/234/62 162/210/62 151/225/62
f 143/235/62 141/236/62 136/237/62
f 172/238/62 191/239/62 179/240/62
f 179/240/62 190/241/62 180/242/62
f 153/220/62 157/243/62 159/221/62
f 178/244/62 193/245/62 192/246/62
f 141/236/62 137/247/62 136/237/62
f 164/248/62 166/249/62 174/223/62
f 144/250/62 152/212/62 163/211/62
f 128/232/62 130/224/62 127/251/62
f 123/252/62 122/215/62 125/253/62
f 158/234/62 151/225/62 148/227/62
f 190/241/62 184/254/62 180/242/62
f 173/230/62 168/218/62 143/235/62
f 167/255/62 170/256/62 157/243/62
f 157/243/62 146/257/62 167/255/62
f 173/230/62 175/216/62 168/218/62
f 191/239/62 190/241/62 179/240/62
f 172/238/62 182/258/62 191/239/62
f 154/259/62 153/220/62 156/219/62
f 136/237/62 139/231/62 143/235/62
f 158/234/62 160/260/62 162/210/62
f 170/256/62 161/261/62 159/221/62
f 192/246/62 188/262/62 171/217/62
f 146/257/62 168/218/62 167/255/62
f 192/246/62 171/217/62 178/244/62
f 121/263/62 124/213/62 122/215/62
f 181/264/62 186/265/62 193/245/62
f 135/229/62 133/266/62 140/228/62
f 174/223/62 166/249/62 177/267/62
f 178/244/62 181/264/62 193/245/62
f 175/216/62 178/244/62 171/217/62
f 142/222/62 164/248/62 174/223/62
f 142/222/62 144/250/62 164/248/62
f 174/223/62 173/230/62 130/224/62
f 127/251/62 125/253/62 126/214/62
f 119/268/62 124/213/62 121/263/62
f 132/233/62 142/222/62 130/224/62
f 126/214/62 128/232/62 127/251/62
f 126/214/62 125/253/62 122/215/62
f 139/231/62 173/230/62 143/235/62
f 177/267/62 172/238/62 179/240/62
f 170/256/62 159/221/62 157/243/62
f 135/229/62 142/222/62 132/233/62
f 143/235/62 168/218/62 146/257/62
f 166/249/62 172/238/62 177/267/62
f 152/212/62 151/225/62 162/210/62
f 163/211/62 164/248/62 144/250/62
