# Blender v2.83.1 OBJ File: 'jigsaw-64x36-3-step2.blend'
# www.blender.org
mtllib piece.643.mtl
o path5902
v -0.578452 0.037500 0.193113
v -0.562347 0.037500 0.115877
v -0.506214 0.037500 0.117620
v -0.430436 0.037500 0.153321
v -0.363463 0.037500 0.158289
v -0.328559 0.037500 0.089278
v -0.328240 0.037500 -0.011148
v -0.359836 0.037500 -0.078978
v -0.417459 0.037500 -0.072060
v -0.482335 0.037500 -0.035694
v -0.532467 0.037500 -0.037036
v -0.551932 0.037500 -0.122529
v -0.528543 0.037500 -0.479411
v -0.314373 0.037500 -0.461495
v -0.185006 0.037500 -0.462474
v -0.097817 0.037500 -0.489508
v -0.086994 0.037500 -0.551548
v -0.111685 0.037500 -0.629478
v -0.112278 0.037500 -0.697172
v -0.048350 0.037500 -0.732402
v 0.043766 0.037500 -0.728500
v 0.108550 0.037500 -0.682698
v 0.109218 0.037500 -0.598490
v 0.083930 0.037500 -0.504419
v 0.089583 0.037500 -0.435296
v 0.165529 0.037500 -0.415981
v 0.280941 0.037500 -0.431551
v 0.473366 0.037500 -0.479411
v 0.431094 0.037500 -0.263698
v 0.418553 0.037500 -0.133752
v 0.439112 0.037500 -0.046960
v 0.506769 0.037500 -0.037796
v 0.598945 0.037500 -0.063970
v 0.683918 0.037500 -0.063989
v 0.734772 0.037500 0.003650
v 0.743819 0.037500 0.100487
v 0.708176 0.037500 0.168078
v 0.631020 0.037500 0.167596
v 0.539767 0.037500 0.138687
v 0.467892 0.037500 0.140622
v 0.439830 0.037500 0.214593
v 0.443864 0.037500 0.329495
v 0.473366 0.037500 0.522287
v 0.273792 0.037500 0.553508
v 0.155421 0.037500 0.560659
v 0.080512 0.037500 0.539339
v 0.081459 0.037500 0.478337
v 0.114360 0.037500 0.398222
v 0.116238 0.037500 0.327507
v 0.045170 0.037500 0.290123
v -0.056564 0.037500 0.291656
v -0.125628 0.037500 0.333118
v -0.120340 0.037500 0.410065
v -0.085613 0.037500 0.496217
v -0.088014 0.037500 0.559829
v -0.173571 0.037500 0.578201
v -0.306180 0.037500 0.564794
v -0.528543 0.037500 0.522287
v -0.578452 -0.037500 0.193113
v -0.562347 -0.037500 0.115877
v -0.506214 -0.037500 0.117620
v -0.430436 -0.037500 0.153321
v -0.363463 -0.037500 0.158289
v -0.328559 -0.037500 0.089278
v -0.328240 -0.037500 -0.011148
v -0.359836 -0.037500 -0.078978
v -0.417459 -0.037500 -0.072060
v -0.482335 -0.037500 -0.035694
v -0.532467 -0.037500 -0.037036
v -0.551932 -0.037498 -0.122529
v -0.528543 -0.037500 -0.479411
v -0.314373 -0.037500 -0.461495
v -0.185006 -0.037500 -0.462474
v -0.097817 -0.037500 -0.489508
v -0.086994 -0.037498 -0.551548
v -0.111685 -0.037500 -0.629478
v -0.112278 -0.037500 -0.697172
v -0.048350 -0.037500 -0.732402
v 0.043766 -0.037500 -0.728500
v 0.108550 -0.037500 -0.682698
v 0.109218 -0.037500 -0.598490
v 0.083930 -0.037500 -0.504419
v 0.089583 -0.037500 -0.435296
v 0.165529 -0.037500 -0.415981
v 0.280941 -0.037500 -0.431551
v 0.473366 -0.037500 -0.479411
v 0.431094 -0.037498 -0.263698
v 0.418553 -0.037500 -0.133752
v 0.439112 -0.037500 -0.046960
v 0.506769 -0.037500 -0.037796
v 0.598945 -0.037500 -0.063970
v 0.683918 -0.037500 -0.063989
v 0.734772 -0.037500 0.003650
v 0.743819 -0.037500 0.100487
v 0.708176 -0.037500 0.168078
v 0.631020 -0.037500 0.167596
v 0.539767 -0.037500 0.138687
v 0.467892 -0.037500 0.140622
v 0.439830 -0.037500 0.214593
v 0.443864 -0.037500 0.329495
v 0.473366 -0.037500 0.522287
v 0.273792 -0.037500 0.553508
v 0.155421 -0.037500 0.560659
v 0.080512 -0.037500 0.539339
v 0.081459 -0.037500 0.478337
v 0.114360 -0.037500 0.398222
v 0.116238 -0.037500 0.327507
v 0.045170 -0.037500 0.290123
v -0.056564 -0.037500 0.291656
v -0.125628 -0.037500 0.333118
v -0.120340 -0.037500 0.410065
v -0.085613 -0.037500 0.496217
v -0.088014 -0.037500 0.559829
v -0.173571 -0.037500 0.578201
v -0.306180 -0.037500 0.564794
v -0.528543 -0.037500 0.522287
v -0.088014 0.037500 0.559829
v -0.088014 0.037500 0.559829
v -0.173571 0.037500 0.578201
v -0.306180 0.037500 0.564794
v 0.273792 0.037500 0.553508
v 0.155421 0.037500 0.560659
v 0.080512 0.037500 0.539339
v 0.080512 0.037500 0.539339
v -0.085613 0.037500 0.496217
v 0.081459 0.037500 0.478337
v 0.473366 0.037500 0.522287
v 0.473366 0.037500 0.522287
v -0.528543 0.037500 0.522287
v -0.528543 0.037500 0.522287
v -0.120340 0.037500 0.410065
v 0.114360 0.037500 0.398222
v 0.443864 0.037500 0.329495
v -0.125628 0.037500 0.333118
v -0.125628 0.037500 0.333118
v 0.116238 0.037500 0.327507
v 0.116238 0.037500 0.327507
v -0.056564 0.037500 0.291656
v 0.439830 0.037500 0.214593
v 0.045170 0.037500 0.290123
v -0.578452 0.037500 0.193113
v 0.467892 0.037500 0.140622
v 0.467892 0.037500 0.140622
v -0.430436 0.037500 0.153321
v -0.363463 0.037500 0.158289
v -0.363463 0.037500 0.158289
v -0.562347 0.037500 0.115877
v -0.562347 0.037500 0.115877
v 0.743819 0.037500 0.100487
v 0.708176 0.037500 0.168078
v 0.708176 0.037500 0.168078
v 0.631020 0.037500 0.167596
v 0.539767 0.037500 0.138687
v -0.328559 0.037500 0.089278
v -0.506214 0.037500 0.117620
v 0.734772 0.037500 0.003650
v -0.328240 0.037500 -0.011148
v 0.683918 0.037500 -0.063989
v -0.359836 0.037500 -0.078978
v -0.359836 0.037500 -0.078978
v -0.417459 0.037500 -0.072060
v -0.482335 0.037500 -0.035694
v -0.532467 0.037500 -0.037036
v -0.532467 0.037500 -0.037036
v -0.551932 0.037500 -0.122529
v 0.598945 0.037500 -0.063970
v 0.506769 0.037500 -0.037796
v 0.439112 0.037500 -0.046960
v 0.439112 0.037500 -0.046960
v 0.418553 0.037500 -0.133752
v 0.431094 0.037500 -0.263698
v 0.473366 0.037500 -0.479411
v 0.473366 0.037500 -0.479411
v 0.280941 0.037500 -0.431551
v 0.165529 0.037500 -0.415981
v 0.089583 0.037500 -0.435296
v 0.089583 0.037500 -0.435296
v 0.083930 0.037500 -0.504419
v -0.314373 0.037500 -0.461495
v -0.185006 0.037500 -0.462474
v -0.528543 0.037500 -0.479411
v -0.528543 0.037500 -0.479411
v -0.097817 0.037500 -0.489508
v -0.097817 0.037500 -0.489508
v -0.086994 0.037500 -0.551548
v 0.109218 0.037500 -0.598490
v -0.111685 0.037500 -0.629478
v 0.108550 0.037500 -0.682698
v -0.112278 0.037500 -0.697172
v -0.112278 0.037500 -0.697172
v 0.043766 0.037500 -0.728500
v -0.048350 0.037500 -0.732402
v -0.088014 -0.037500 0.559829
v -0.088014 -0.037500 0.559829
v -0.173571 -0.037500 0.578201
v -0.306180 -0.037500 0.564794
v 0.273792 -0.037500 0.553508
v 0.155421 -0.037500 0.560659
v 0.080512 -0.037500 0.539339
v 0.080512 -0.037500 0.539339
v -0.085613 -0.037500 0.496217
v 0.081459 -0.037500 0.478337
v 0.473366 -0.037500 0.522287
v 0.473366 -0.037500 0.522287
v -0.528543 -0.037500 0.522287
v -0.528543 -0.037500 0.522287
v -0.120340 -0.037500 0.410065
v 0.114360 -0.037500 0.398222
v 0.443864 -0.037500 0.329495
v -0.125628 -0.037500 0.333118
v -0.125628 -0.037500 0.333118
v 0.116238 -0.037500 0.327507
v 0.116238 -0.037500 0.327507
v -0.056564 -0.037500 0.291656
v 0.439830 -0.037500 0.214593
v 0.045170 -0.037500 0.290123
v -0.578452 -0.037500 0.193113
v 0.467892 -0.037500 0.140622
v 0.467892 -0.037500 0.140622
v -0.430436 -0.037500 0.153321
v -0.363463 -0.037500 0.158289
v -0.363463 -0.037500 0.158289
v -0.562347 -0.037500 0.115877
v -0.562347 -0.037500 0.115877
v 0.743819 -0.037500 0.100487
v 0.708176 -0.037500 0.168078
v 0.708176 -0.037500 0.168078
v 0.631020 -0.037500 0.167596
v 0.539767 -0.037500 0.138687
v -0.328559 -0.037500 0.089278
v -0.506214 -0.037500 0.117620
v 0.734772 -0.037500 0.003650
v -0.328240 -0.037500 -0.011148
v 0.683918 -0.037500 -0.063989
v -0.359836 -0.037500 -0.078978
v -0.359836 -0.037500 -0.078978
v -0.417459 -0.037500 -0.072060
v -0.482335 -0.037500 -0.035694
v -0.532467 -0.037500 -0.037036
v -0.532467 -0.037500 -0.037036
v -0.551932 -0.037498 -0.122529
v 0.598945 -0.037500 -0.063970
v 0.506769 -0.037500 -0.037796
v 0.439112 -0.037500 -0.046960
v 0.439112 -0.037500 -0.046960
v 0.418553 -0.037500 -0.133752
v 0.431094 -0.037498 -0.263698
v 0.473366 -0.037500 -0.479411
v 0.473366 -0.037500 -0.479411
v 0.280941 -0.037500 -0.431551
v 0.165529 -0.037500 -0.415981
v 0.089583 -0.037500 -0.435296
v 0.089583 -0.037500 -0.435296
v 0.083930 -0.037500 -0.504419
v -0.314373 -0.037500 -0.461495
v -0.185006 -0.037500 -0.462474
v -0.528543 -0.037500 -0.479411
v -0.528543 -0.037500 -0.479411
v -0.097817 -0.037500 -0.489508
v -0.097817 -0.037500 -0.489508
v -0.086994 -0.037498 -0.551548
v 0.109218 -0.037500 -0.598490
v -0.111685 -0.037500 -0.629478
v 0.108550 -0.037500 -0.682698
v -0.112278 -0.037500 -0.697172
v -0.112278 -0.037500 -0.697172
v 0.043766 -0.037500 -0.728500
v -0.048350 -0.037500 -0.732402
vt 0.500000 0.500000
vt 0.500000 0.500000
vt 0.500000 0.500000
vt 0.500000 0.500000
vt 0.500000 0.500000
vt 0.500000 0.500000
vt 0.500000 0.500000
vt 0.500000 0.500000
vt 0.500000 0.500000
vt 0.500000 0.500000
vt 0.500000 0.500000
vt 0.500000 0.500000
vt 0.500000 0.500000
vt 0.500000 0.500000
vt 0.500000 0.500000
vt 0.500000 0.500000
vt 0.500000 0.500000
vt 0.500000 0.500000
vt 0.500000 0.500000
vt 0.500000 0.500000
vt 0.500000 0.500000
vt 0.500000 0.500000
vt 0.500000 0.500000
vt 0.500000 0.500000
vt 0.500000 0.500000
vt 0.500000 0.500000
vt 0.500000 0.500000
vt 0.500000 0.500000
vt 0.500000 0.500000
vt 0.500000 0.500000
vt 0.500000 0.500000
vt 0.500000 0.500000
vt 0.500000 0.500000
vt 0.500000 0.500000
vt 0.500000 0.500000
vt 0.500000 0.500000
vt 0.500000 0.500000
vt 0.500000 0.500000
vt 0.500000 0.500000
vt 0.500000 0.500000
vt 0.500000 0.500000
vt 0.500000 0.500000
vt 0.500000 0.500000
vt 0.500000 0.500000
vt 0.500000 0.500000
vt 0.500000 0.500000
vt 0.500000 0.500000
vt 0.500000 0.500000
vt 0.500000 0.500000
vt 0.500000 0.500000
vt 0.500000 0.500000
vt 0.500000 0.500000
vt 0.500000 0.500000
vt 0.500000 0.500000
vt 0.500000 0.500000
vt 0.500000 0.500000
vt 0.500000 0.500000
vt 0.500000 0.500000
vt 0.500000 0.500000
vt 0.500000 0.500000
vt 0.500000 0.500000
vt 0.500000 0.500000
vt 0.500000 0.500000
vt 0.500000 0.500000
vt 0.500000 0.500000
vt 0.500000 0.500000
vt 0.500000 0.500000
vt 0.500000 0.500000
vt 0.500000 0.500000
vt 0.500000 0.500000
vt 0.500000 0.500000
vt 0.500000 0.500000
vt 0.500000 0.500000
vt 0.500000 0.500000
vt 0.500000 0.500000
vt 0.500000 0.500000
vt 0.500000 0.500000
vt 0.500000 0.500000
vt 0.500000 0.500000
vt 0.500000 0.500000
vt 0.500000 0.500000
vt 0.500000 0.500000
vt 0.500000 0.500000
vt 0.500000 0.500000
vt 0.500000 0.500000
vt 0.500000 0.500000
vt 0.500000 0.500000
vt 0.500000 0.500000
vt 0.500000 0.500000
vt 0.500000 0.500000
vt 0.500000 0.500000
vt 0.500000 0.500000
vt 0.500000 0.500000
vt 0.500000 0.500000
vt 0.500000 0.500000
vt 0.500000 0.500000
vt 0.500000 0.500000
vt 0.500000 0.500000
vt 0.500000 0.500000
vt 0.500000 0.500000
vt 0.500000 0.500000
vt 0.500000 0.500000
vt 0.500000 0.500000
vt 0.500000 0.500000
vt 0.500000 0.500000
vt 0.500000 0.500000
vt 0.500000 0.500000
vt 0.500000 0.500000
vt 0.500000 0.500000
vt 0.500000 0.500000
vt 0.500000 0.500000
vt 0.500000 0.500000
vt 0.500000 0.500000
vt 0.500000 0.500000
vt 0.500000 0.500000
vt 0.500000 0.500000
vt 0.500000 0.500000
vt 0.500000 0.500000
vt 0.500000 0.500000
vt 0.500000 0.500000
vt 0.500000 0.500000
vt 0.500000 0.500000
vt 0.500000 0.500000
vt 0.500000 0.500000
vt 0.500000 0.500000
vt 0.500000 0.500000
vt 0.500000 0.500000
vt 0.500000 0.500000
vt 0.500000 0.500000
vt 0.500000 0.500000
vt 0.500000 0.500000
vt 0.500000 0.500000
vt 0.500000 0.500000
vt 0.500000 0.500000
vt 0.500000 0.500000
vt 0.500000 0.500000
vt 0.500000 0.500000
vt 0.500000 0.500000
vt 0.500000 0.500000
vt 0.500000 0.500000
vt 0.500000 0.500000
vt 0.500000 0.500000
vt 0.500000 0.500000
vt 0.500000 0.500000
vt 0.500000 0.500000
vt 0.500000 0.500000
vt 0.500000 0.500000
vt 0.500000 0.500000
vt 0.500000 0.500000
vt 0.500000 0.500000
vt 0.500000 0.500000
vt 0.500000 0.500000
vt 0.500000 0.500000
vt 0.500000 0.500000
vt 0.500000 0.500000
vt 0.500000 0.500000
vt 0.500000 0.500000
vt 0.500000 0.500000
vt 0.500000 0.500000
vt 0.500000 0.500000
vt 0.500000 0.500000
vt 0.500000 0.500000
vt 0.500000 0.500000
vt 0.500000 0.500000
vt 0.500000 0.500000
vt 0.500000 0.500000
vt 0.500000 0.500000
vt 0.500000 0.500000
vt 0.500000 0.500000
vt 0.500000 0.500000
vt 0.500000 0.500000
vt 0.500000 0.500000
vt 0.500000 0.500000
vt 0.500000 0.500000
vt 0.500000 0.500000
vt 0.500000 0.500000
vt 0.500000 0.500000
vt 0.500000 0.500000
vt 0.500000 0.500000
vt 0.500000 0.500000
vt 0.500000 0.500000
vt 0.500000 0.500000
vt 0.500000 0.500000
vt 0.500000 0.500000
vt 0.500000 0.500000
vt 0.500000 0.500000
vt 0.500000 0.500000
vt 0.500000 0.500000
vt 0.500000 0.500000
vt 0.500000 0.500000
vt 0.500000 0.500000
vt 0.500000 0.500000
vt 0.500000 0.500000
vt 0.500000 0.500000
vt 0.500000 0.500000
vt 0.500000 0.500000
vt 0.500000 0.500000
vt 0.500000 0.500000
vt 0.500000 0.500000
vt 0.500000 0.500000
vt 0.500000 0.500000
vt 0.500000 0.500000
vt 0.500000 0.500000
vt 0.500000 0.500000
vt 0.500000 0.500000
vt 0.500000 0.500000
vt 0.500000 0.500000
vt 0.500000 0.500000
vt 0.500000 0.500000
vt 0.500000 0.500000
vt 0.027173 0.707840
vt 0.027966 0.705964
vt 0.029292 0.705965
vt 0.028791 0.712386
vt 0.027588 0.712400
vt 0.027032 0.710525
vt 0.031335 0.711638
vt 0.030214 0.711585
vt 0.030729 0.706691
vt 0.037235 0.695668
vt 0.037928 0.715784
vt 0.036051 0.696203
vt 0.046527 0.711001
vt 0.047402 0.710952
vt 0.047653 0.713094
vt 0.039989 0.692444
vt 0.040158 0.694165
vt 0.037323 0.693751
vt 0.031784 0.706437
vt 0.032105 0.704030
vt 0.034362 0.723088
vt 0.031250 0.722222
vt 0.031710 0.716876
vt 0.040591 0.716976
vt 0.039514 0.715827
vt 0.043756 0.710215
vt 0.046936 0.706712
vt 0.046154 0.706749
vt 0.047240 0.704341
vt 0.040374 0.690283
vt 0.036929 0.691142
vt 0.037950 0.687537
vt 0.043407 0.723401
vt 0.044301 0.712128
vt 0.031909 0.700426
vt 0.031250 0.694444
vt 0.034251 0.695772
vt 0.046875 0.722222
vt 0.045345 0.711991
vt 0.043751 0.707430
vt 0.041517 0.694914
vt 0.044244 0.705549
vt 0.041339 0.723773
vt 0.039967 0.721499
vt 0.040509 0.719110
vt 0.040005 0.723263
vt 0.036819 0.716821
vt 0.036849 0.718782
vt 0.037362 0.721004
vt 0.036208 0.723286
vt 0.045143 0.705741
vt 0.043535 0.694941
vt 0.046875 0.694444
vt 0.036939 0.688807
vt 0.040383 0.688406
vt 0.039386 0.687429
vt 0.031773 0.713690
vt 0.037377 0.722695
vn 0.0000 -1.0000 0.0000
vn 0.2100 0.0000 0.9777
vn -0.1006 0.0000 0.9949
vn 0.0603 0.0000 0.9982
vn -0.2737 0.0000 0.9618
vn 0.9993 0.0000 0.0377
vn -0.9999 0.0000 -0.0155
vn 0.1546 0.0000 0.9880
vn -0.1878 0.0000 0.9822
vn 0.9275 0.0000 -0.3739
vn -0.9250 0.0000 -0.3799
vn 0.9885 0.0000 -0.1513
vn 0.9976 0.0000 -0.0686
vn -0.9996 0.0000 -0.0266
vn 0.5147 0.0000 0.8574
vn 0.9994 0.0000 -0.0351
vn -0.4655 0.0000 0.8850
vn -0.9887 0.0000 0.1499
vn 0.0151 0.0000 0.9999
vn 0.9350 0.0000 0.3547
vn 0.0740 0.0000 -0.9973
vn -0.9789 0.0000 -0.2041
vn 0.8845 0.0000 0.4664
vn -0.0063 0.0000 1.0000
vn -0.3020 0.0000 0.9533
vn -0.8924 0.0000 -0.4513
vn 0.4262 0.0000 -0.9046
vn 0.0310 0.0000 -0.9995
vn 0.0269 0.0000 0.9996
vn 0.9957 0.0000 -0.0930
vn -1.0000 0.0000 -0.0032
vn 0.7993 0.0000 -0.6010
vn -0.9065 0.0000 0.4223
vn 0.4890 0.0000 0.8723
vn -0.0268 0.0000 0.9996
vn -0.9750 0.0000 0.2220
vn -0.0002 0.0000 -1.0000
vn -0.2732 0.0000 -0.9620
vn 0.1342 0.0000 -0.9910
vn 0.9731 0.0000 -0.2305
vn 0.1192 0.0000 0.9929
vn 0.9954 0.0000 0.0961
vn 0.9813 0.0000 0.1923
vn -0.2414 0.0000 -0.9704
vn -0.1337 0.0000 -0.9910
vn 0.2465 0.0000 -0.9691
vn 0.9967 0.0000 -0.0815
vn -0.0076 0.0000 -1.0000
vn 0.0834 0.0000 -0.9965
vn -0.9979 0.0000 -0.0654
vn -0.2962 0.0000 -0.9551
vn -0.9851 0.0000 -0.1719
vn 0.9657 0.0000 0.2596
vn -0.9533 0.0000 0.3020
vn 1.0000 0.0000 -0.0079
vn -1.0000 0.0000 0.0088
vn 0.5773 0.0000 -0.8165
vn 0.0423 0.0000 -0.9991
vn -0.4826 0.0000 -0.8758
vn 0.0000 1.0000 0.0000
usemtl BackMat.001
s off
f 232/1/1 242/2/1 234/3/1
f 228/4/1 225/5/1 226/6/1
f 218/7/1 243/8/1 229/9/1
f 242/2/1 232/1/1 228/4/1
f 252/10/1 251/11/1 216/12/1
f 231/13/1 217/14/1 223/15/1
f 261/16/1 254/17/1 259/18/1
f 216/12/1 246/19/1 244/20/1
f 197/21/1 209/22/1 203/23/1
f 210/24/1 230/25/1 214/26/1
f 239/27/1 241/28/1 238/29/1
f 263/30/1 262/31/1 261/16/1
f 262/31/1 263/30/1 267/32/1
f 196/33/1 221/34/1 210/24/1
f 247/35/1 250/36/1 248/37/1
f 217/14/1 220/38/1 205/39/1
f 230/25/1 233/40/1 214/26/1
f 256/41/1 252/10/1 235/42/1
f 233/40/1 252/10/1 216/12/1
f 195/43/1 207/44/1 201/45/1
f 195/43/1 201/45/1 193/46/1
f 244/20/1 243/8/1 218/7/1
f 212/47/1 244/20/1 218/7/1
f 208/48/1 198/49/1 202/50/1
f 241/28/1 255/51/1 237/52/1
f 208/48/1 212/47/1 209/22/1
f 255/51/1 241/28/1 257/53/1
f 228/4/1 232/1/1 225/5/1
f 198/49/1 208/48/1 197/21/1
f 197/21/1 208/48/1 209/22/1
f 216/12/1 251/11/1 246/19/1
f 220/38/1 217/14/1 231/13/1
f 214/26/1 233/40/1 216/12/1
f 216/12/1 244/20/1 212/47/1
f 205/39/1 220/38/1 221/34/1
f 238/29/1 241/28/1 237/52/1
f 264/54/1 262/31/1 267/32/1
f 235/42/1 252/10/1 233/40/1
f 254/17/1 261/16/1 262/31/1
f 242/2/1 229/9/1 243/8/1
f 252/10/1 259/18/1 254/17/1
f 196/33/1 207/44/1 195/43/1
f 196/33/1 210/24/1 207/44/1
f 265/55/1 268/56/1 263/30/1
f 256/41/1 235/42/1 255/51/1
f 237/52/1 255/51/1 235/42/1
f 229/9/1 242/2/1 228/4/1
f 221/34/1 230/25/1 210/24/1
f 259/18/1 252/10/1 256/41/1
f 212/47/1 218/7/1 215/57/1
f 268/56/1 267/32/1 263/30/1
f 202/50/1 198/49/1 199/58/1
f 212/47/1 215/57/1 209/22/1
f 246/19/1 251/11/1 247/35/1
f 247/35/1 251/11/1 250/36/1
f 205/39/1 221/34/1 196/33/1
f 118/59/2 56/60/2 114/61/2 194/62/2
f 56/60/3 57/63/3 115/64/3 114/61/3
f 44/65/4 45/66/4 103/67/4 102/68/4
f 45/66/5 124/69/5 200/70/5 103/67/5
f 54/71/6 55/72/6 113/73/6 112/74/6
f 46/75/7 47/76/7 105/77/7 104/78/7
f 128/79/8 44/65/8 102/68/8 204/80/8
f 57/63/9 130/81/9 206/82/9 115/64/9
f 53/83/10 54/71/10 112/74/10 111/84/10
f 47/76/11 48/85/11 106/86/11 105/77/11
f 42/87/12 43/88/12 101/89/12 100/90/12
f 135/91/13 53/83/13 111/84/13 211/92/13
f 48/85/14 137/93/14 213/94/14 106/86/14
f 51/95/15 52/96/15 110/97/15 109/98/15
f 41/99/16 42/87/16 100/90/16 99/100/16
f 49/101/17 50/102/17 108/103/17 107/104/17
f 58/105/18 1/106/18 59/107/18 116/108/18
f 50/102/19 51/95/19 109/98/19 108/103/19
f 143/109/20 41/99/20 99/100/20 219/110/20
f 4/111/21 146/112/21 222/113/21 62/114/21
f 1/106/22 148/115/22 224/116/22 59/107/22
f 36/117/23 151/118/23 227/119/23 94/120/23
f 37/121/24 38/122/24 96/123/24 95/124/24
f 38/122/25 39/125/25 97/126/25 96/123/25
f 5/127/26 6/128/26 64/129/26 63/130/26
f 3/131/27 4/111/27 62/114/27 61/132/27
f 2/133/28 3/131/28 61/132/28 60/134/28
f 39/125/29 40/135/29 98/136/29 97/126/29
f 35/137/30 36/117/30 94/120/30 93/138/30
f 6/128/31 7/139/31 65/140/31 64/129/31
f 34/141/32 35/137/32 93/138/32 92/142/32
f 7/139/33 160/143/33 236/144/33 65/140/33
f 9/145/34 10/146/34 68/147/34 67/148/34
f 10/146/35 164/149/35 240/150/35 68/147/35
f 11/151/36 12/152/36 70/153/36 69/154/36
f 33/155/37 34/141/37 92/142/37 91/156/37
f 32/157/38 33/155/38 91/156/38 90/158/38
f 169/159/39 32/157/39 90/158/39 245/160/39
f 30/161/40 31/162/40 89/163/40 88/164/40
f 8/165/41 9/145/41 67/148/41 66/166/41
f 29/167/42 30/161/42 88/164/42 87/168/42
f 173/169/43 29/167/43 87/168/43 249/170/43
f 27/171/44 28/172/44 86/173/44 85/174/44
f 26/175/45 27/171/45 85/174/45 84/176/45
f 177/177/46 26/175/46 84/176/46 253/178/46
f 24/179/47 25/180/47 83/181/47 82/182/47
f 14/183/48 15/184/48 73/185/48 72/186/48
f 182/187/49 14/183/49 72/186/49 258/188/49
f 12/152/50 13/189/50 71/190/50 70/153/50
f 15/184/51 184/191/51 260/192/51 73/185/51
f 16/193/52 17/194/52 75/195/52 74/196/52
f 23/197/53 24/179/53 82/182/53 81/198/53
f 17/194/54 18/199/54 76/200/54 75/195/54
f 22/201/55 23/197/55 81/198/55 80/202/55
f 18/199/56 190/203/56 266/204/56 76/200/56
f 21/205/57 22/201/57 80/202/57 79/206/57
f 20/207/58 21/205/58 79/206/58 78/208/58
f 19/209/59 20/207/59 78/208/59 77/210/59
usemtl FrontMat.001
f 156/211/60 158/212/60 166/213/60
f 152/214/60 150/215/60 149/216/60
f 142/217/60 153/218/60 167/219/60
f 166/213/60 152/214/60 156/211/60
f 176/220/60 140/221/60 175/222/60
f 155/223/60 147/224/60 141/225/60
f 185/226/60 183/227/60 178/228/60
f 140/221/60 168/229/60 170/230/60
f 121/231/60 127/232/60 133/233/60
f 134/234/60 138/235/60 154/236/60
f 163/237/60 162/238/60 165/239/60
f 187/240/60 185/226/60 186/241/60
f 186/241/60 191/242/60 187/240/60
f 120/243/60 134/234/60 145/244/60
f 171/245/60 172/246/60 174/247/60
f 141/225/60 129/248/60 144/249/60
f 154/236/60 138/235/60 157/250/60
f 180/251/60 159/252/60 176/220/60
f 157/250/60 140/221/60 176/220/60
f 119/253/60 125/254/60 131/255/60
f 119/253/60 117/256/60 125/254/60
f 168/229/60 142/217/60 167/219/60
f 136/257/60 142/217/60 168/229/60
f 132/258/60 126/259/60 122/260/60
f 165/239/60 161/261/60 179/262/60
f 132/258/60 133/233/60 136/257/60
f 179/262/60 181/263/60 165/239/60
f 152/214/60 149/216/60 156/211/60
f 122/260/60 121/231/60 132/258/60
f 121/231/60 133/233/60 132/258/60
f 140/221/60 170/230/60 175/222/60
f 144/249/60 155/223/60 141/225/60
f 138/235/60 140/221/60 157/250/60
f 140/221/60 136/257/60 168/229/60
f 129/248/60 145/244/60 144/249/60
f 162/238/60 161/261/60 165/239/60
f 188/264/60 191/242/60 186/241/60
f 159/252/60 157/250/60 176/220/60
f 178/228/60 186/241/60 185/226/60
f 166/213/60 167/219/60 153/218/60
f 176/220/60 178/228/60 183/227/60
f 120/243/60 119/253/60 131/255/60
f 120/243/60 131/255/60 134/234/60
f 189/265/60 187/240/60 192/266/60
f 180/251/60 179/262/60 159/252/60
f 161/261/60 159/252/60 179/262/60
f 153/218/60 152/214/60 166/213/60
f 145/244/60 134/234/60 154/236/60
f 183/227/60 180/251/60 176/220/60
f 136/257/60 139/267/60 142/217/60
f 192/266/60 187/240/60 191/242/60
f 126/259/60 123/268/60 122/260/60
f 136/257/60 133/233/60 139/267/60
f 170/230/60 171/245/60 175/222/60
f 171/245/60 174/247/60 175/222/60
f 129/248/60 120/243/60 145/244/60
