# Blender v2.83.1 OBJ File: 'jigsaw-64x36-3-step2.blend'
# www.blender.org
mtllib piece.1774.mtl
o path8164
v 0.543167 0.037500 -0.215445
v 0.526287 0.037500 -0.139555
v 0.474136 0.037500 -0.132988
v 0.402908 0.037500 -0.156717
v 0.335438 0.037500 -0.154331
v 0.291752 0.037500 -0.088091
v 0.280731 0.037500 0.005079
v 0.308464 0.037500 0.069595
v 0.374840 0.037500 0.069080
v 0.455032 0.037500 0.043985
v 0.518028 0.037500 0.053980
v 0.541172 0.037500 0.140003
v 0.535305 0.037500 0.268133
v 0.505535 0.037500 0.480497
v 0.287064 0.037500 0.447214
v 0.156895 0.037500 0.440662
v 0.073177 0.037500 0.466505
v 0.071499 0.037500 0.536676
v 0.106750 0.037500 0.625383
v 0.113659 0.037500 0.697330
v 0.047924 0.037500 0.724463
v -0.050812 0.037500 0.707706
v -0.121918 0.037500 0.655230
v -0.124786 0.037500 0.578072
v -0.098961 0.037500 0.498755
v -0.104004 0.037500 0.442673
v -0.181282 0.037500 0.427599
v -0.496372 0.037500 0.480497
v -0.540440 0.037500 0.126022
v -0.524929 0.037500 0.038969
v -0.472557 0.037500 0.033463
v -0.400890 0.037500 0.065002
v -0.334652 0.037500 0.069010
v -0.294991 0.037500 0.001854
v -0.288872 0.037500 -0.096313
v -0.319695 0.037500 -0.164389
v -0.385399 0.037500 -0.161736
v -0.462135 0.037500 -0.129572
v -0.520580 0.037500 -0.129589
v -0.539562 0.037500 -0.204691
v -0.530361 0.037500 -0.322651
v -0.496372 0.037500 -0.521202
v -0.180359 0.037500 -0.595301
v -0.102848 0.037500 -0.585070
v -0.097878 0.037500 -0.528572
v -0.124390 0.037500 -0.446211
v -0.123158 0.037500 -0.367228
v -0.054768 0.037500 -0.316751
v 0.041019 0.037500 -0.303509
v 0.104652 0.037500 -0.332108
v 0.097279 0.037500 -0.400932
v 0.062931 0.037500 -0.483479
v 0.066357 0.037500 -0.547020
v 0.152142 0.037500 -0.567785
v 0.284309 0.037500 -0.557880
v 0.505535 0.037500 -0.521202
v 0.543167 -0.037500 -0.215445
v 0.526287 -0.037500 -0.139555
v 0.474136 -0.037498 -0.132988
v 0.402908 -0.037500 -0.156717
v 0.335438 -0.037500 -0.154331
v 0.291752 -0.037500 -0.088091
v 0.280731 -0.037500 0.005079
v 0.308464 -0.037500 0.069595
v 0.374840 -0.037500 0.069080
v 0.455032 -0.037500 0.043985
v 0.518028 -0.037498 0.053980
v 0.541172 -0.037500 0.140003
v 0.535305 -0.037500 0.268133
v 0.505535 -0.037498 0.480497
v 0.287064 -0.037500 0.447214
v 0.156895 -0.037500 0.440662
v 0.073177 -0.037500 0.466505
v 0.071499 -0.037500 0.536676
v 0.106750 -0.037500 0.625383
v 0.113659 -0.037500 0.697330
v 0.047924 -0.037500 0.724463
v -0.050812 -0.037500 0.707706
v -0.121918 -0.037500 0.655230
v -0.124786 -0.037500 0.578072
v -0.098961 -0.037500 0.498755
v -0.104004 -0.037500 0.442673
v -0.181282 -0.037500 0.427599
v -0.496372 -0.037500 0.480497
v -0.540440 -0.037500 0.126022
v -0.524929 -0.037498 0.038969
v -0.472557 -0.037500 0.033463
v -0.400890 -0.037500 0.065002
v -0.334652 -0.037500 0.069010
v -0.294991 -0.037498 0.001854
v -0.288872 -0.037498 -0.096313
v -0.319695 -0.037500 -0.164389
v -0.385399 -0.037500 -0.161736
v -0.462135 -0.037498 -0.129572
v -0.520580 -0.037498 -0.129589
v -0.539562 -0.037500 -0.204691
v -0.530361 -0.037500 -0.322651
v -0.496372 -0.037500 -0.521202
v -0.180359 -0.037500 -0.595301
v -0.102848 -0.037500 -0.585070
v -0.097878 -0.037498 -0.528572
v -0.124390 -0.037500 -0.446211
v -0.123158 -0.037500 -0.367228
v -0.054768 -0.037500 -0.316751
v 0.041019 -0.037500 -0.303509
v 0.104652 -0.037500 -0.332108
v 0.097279 -0.037498 -0.400932
v 0.062931 -0.037500 -0.483479
v 0.066357 -0.037500 -0.547020
v 0.152142 -0.037500 -0.567785
v 0.284309 -0.037500 -0.557880
v 0.505535 -0.037500 -0.521202
v -0.180359 0.037500 -0.595301
v -0.102848 0.037500 -0.585070
v -0.102848 0.037500 -0.585070
v -0.097878 0.037500 -0.528572
v 0.066357 0.037500 -0.547020
v 0.066357 0.037500 -0.547020
v 0.152142 0.037500 -0.567785
v 0.284309 0.037500 -0.557880
v 0.062931 0.037500 -0.483479
v -0.496372 0.037500 -0.521202
v -0.496372 0.037500 -0.521202
v -0.124390 0.037500 -0.446211
v 0.505535 0.037500 -0.521202
v 0.505535 0.037500 -0.521202
v 0.097279 0.037500 -0.400932
v -0.123158 0.037500 -0.367228
v -0.530361 0.037500 -0.322651
v 0.104652 0.037500 -0.332108
v 0.104652 0.037500 -0.332108
v -0.054768 0.037500 -0.316751
v 0.041019 0.037500 -0.303509
v 0.543167 0.037500 -0.215445
v -0.539562 0.037500 -0.204691
v 0.526287 0.037500 -0.139555
v 0.526287 0.037500 -0.139555
v -0.520580 0.037500 -0.129589
v -0.520580 0.037500 -0.129589
v -0.319695 0.037500 -0.164389
v -0.319695 0.037500 -0.164389
v -0.385399 0.037500 -0.161736
v -0.288872 0.037500 -0.096313
v 0.402908 0.037500 -0.156717
v 0.335438 0.037500 -0.154331
v -0.462135 0.037500 -0.129572
v 0.474136 0.037500 -0.132988
v 0.291752 0.037500 -0.088091
v -0.294991 0.037500 0.001854
v 0.280731 0.037500 0.005079
v -0.334652 0.037500 0.069010
v -0.334652 0.037500 0.069010
v 0.308464 0.037500 0.069595
v 0.308464 0.037500 0.069595
v -0.524929 0.037500 0.038969
v -0.524929 0.037500 0.038969
v -0.472557 0.037500 0.033463
v -0.400890 0.037500 0.065002
v -0.540440 0.037500 0.126022
v 0.374840 0.037500 0.069080
v 0.455032 0.037500 0.043985
v 0.518028 0.037500 0.053980
v 0.518028 0.037500 0.053980
v 0.541172 0.037500 0.140003
v 0.535305 0.037500 0.268133
v -0.496372 0.037500 0.480497
v -0.496372 0.037500 0.480497
v -0.104004 0.037500 0.442673
v -0.104004 0.037500 0.442673
v -0.181282 0.037500 0.427599
v 0.156895 0.037500 0.440662
v 0.073177 0.037500 0.466505
v 0.073177 0.037500 0.466505
v 0.287064 0.037500 0.447214
v -0.098961 0.037500 0.498755
v 0.505535 0.037500 0.480497
v 0.505535 0.037500 0.480497
v 0.071499 0.037500 0.536676
v -0.124786 0.037500 0.578072
v 0.106750 0.037500 0.625383
v -0.121918 0.037500 0.655230
v 0.113659 0.037500 0.697330
v 0.113659 0.037500 0.697330
v -0.050812 0.037500 0.707706
v 0.047924 0.037500 0.724463
v -0.180359 -0.037500 -0.595301
v -0.102848 -0.037500 -0.585070
v -0.102848 -0.037500 -0.585070
v -0.097878 -0.037498 -0.528572
v 0.066357 -0.037500 -0.547020
v 0.066357 -0.037500 -0.547020
v 0.152142 -0.037500 -0.567785
v 0.284309 -0.037500 -0.557880
v 0.062931 -0.037500 -0.483479
v -0.496372 -0.037500 -0.521202
v -0.496372 -0.037500 -0.521202
v -0.124390 -0.037500 -0.446211
v 0.505535 -0.037500 -0.521202
v 0.505535 -0.037500 -0.521202
v 0.097279 -0.037498 -0.400932
v -0.123158 -0.037500 -0.367228
v -0.530361 -0.037500 -0.322651
v 0.104652 -0.037500 -0.332108
v 0.104652 -0.037500 -0.332108
v -0.054768 -0.037500 -0.316751
v 0.041019 -0.037500 -0.303509
v 0.543167 -0.037500 -0.215445
v -0.539562 -0.037500 -0.204691
v 0.526287 -0.037500 -0.139555
v 0.526287 -0.037500 -0.139555
v -0.520580 -0.037498 -0.129589
v -0.520580 -0.037498 -0.129589
v -0.319695 -0.037500 -0.164389
v -0.319695 -0.037500 -0.164389
v -0.385399 -0.037500 -0.161736
v -0.288872 -0.037498 -0.096313
v 0.402908 -0.037500 -0.156717
v 0.335438 -0.037500 -0.154331
v -0.462135 -0.037498 -0.129572
v 0.474136 -0.037498 -0.132988
v 0.291752 -0.037500 -0.088091
v -0.294991 -0.037498 0.001854
v 0.280731 -0.037500 0.005079
v -0.334652 -0.037500 0.069010
v -0.334652 -0.037500 0.069010
v 0.308464 -0.037500 0.069595
v 0.308464 -0.037500 0.069595
v -0.524929 -0.037498 0.038969
v -0.524929 -0.037498 0.038969
v -0.472557 -0.037500 0.033463
v -0.400890 -0.037500 0.065002
v -0.540440 -0.037500 0.126022
v 0.374840 -0.037500 0.069080
v 0.455032 -0.037500 0.043985
v 0.518028 -0.037498 0.053980
v 0.518028 -0.037498 0.053980
v 0.541172 -0.037500 0.140003
v 0.535305 -0.037500 0.268133
v -0.496372 -0.037500 0.480497
v -0.496372 -0.037500 0.480497
v -0.104004 -0.037500 0.442673
v -0.104004 -0.037500 0.442673
v -0.181282 -0.037500 0.427599
v 0.156895 -0.037500 0.440662
v 0.073177 -0.037500 0.466505
v 0.073177 -0.037500 0.466505
v 0.287064 -0.037500 0.447214
v -0.098961 -0.037500 0.498755
v 0.505535 -0.037498 0.480497
v 0.505535 -0.037498 0.480497
v 0.071499 -0.037500 0.536676
v -0.124786 -0.037500 0.578072
v 0.106750 -0.037500 0.625383
v -0.121918 -0.037500 0.655230
v 0.113659 -0.037500 0.697330
v 0.113659 -0.037500 0.697330
v -0.050812 -0.037500 0.707706
v 0.047924 -0.037500 0.724463
vt 0.500000 0.500000
vt 0.500000 0.500000
vt 0.500000 0.500000
vt 0.500000 0.500000
vt 0.500000 0.500000
vt 0.500000 0.500000
vt 0.500000 0.500000
vt 0.500000 0.500000
vt 0.500000 0.500000
vt 0.500000 0.500000
vt 0.500000 0.500000
vt 0.500000 0.500000
vt 0.500000 0.500000
vt 0.500000 0.500000
vt 0.500000 0.500000
vt 0.500000 0.500000
vt 0.500000 0.500000
vt 0.500000 0.500000
vt 0.500000 0.500000
vt 0.500000 0.500000
vt 0.500000 0.500000
vt 0.500000 0.500000
vt 0.500000 0.500000
vt 0.500000 0.500000
vt 0.500000 0.500000
vt 0.500000 0.500000
vt 0.500000 0.500000
vt 0.500000 0.500000
vt 0.500000 0.500000
vt 0.500000 0.500000
vt 0.500000 0.500000
vt 0.500000 0.500000
vt 0.500000 0.500000
vt 0.500000 0.500000
vt 0.500000 0.500000
vt 0.500000 0.500000
vt 0.500000 0.500000
vt 0.500000 0.500000
vt 0.500000 0.500000
vt 0.500000 0.500000
vt 0.500000 0.500000
vt 0.500000 0.500000
vt 0.500000 0.500000
vt 0.500000 0.500000
vt 0.500000 0.500000
vt 0.500000 0.500000
vt 0.500000 0.500000
vt 0.500000 0.500000
vt 0.500000 0.500000
vt 0.500000 0.500000
vt 0.500000 0.500000
vt 0.500000 0.500000
vt 0.500000 0.500000
vt 0.500000 0.500000
vt 0.500000 0.500000
vt 0.500000 0.500000
vt 0.500000 0.500000
vt 0.500000 0.500000
vt 0.500000 0.500000
vt 0.500000 0.500000
vt 0.500000 0.500000
vt 0.500000 0.500000
vt 0.500000 0.500000
vt 0.500000 0.500000
vt 0.500000 0.500000
vt 0.500000 0.500000
vt 0.500000 0.500000
vt 0.500000 0.500000
vt 0.500000 0.500000
vt 0.500000 0.500000
vt 0.500000 0.500000
vt 0.500000 0.500000
vt 0.500000 0.500000
vt 0.500000 0.500000
vt 0.500000 0.500000
vt 0.500000 0.500000
vt 0.500000 0.500000
vt 0.500000 0.500000
vt 0.500000 0.500000
vt 0.500000 0.500000
vt 0.500000 0.500000
vt 0.500000 0.500000
vt 0.500000 0.500000
vt 0.500000 0.500000
vt 0.500000 0.500000
vt 0.500000 0.500000
vt 0.500000 0.500000
vt 0.500000 0.500000
vt 0.500000 0.500000
vt 0.500000 0.500000
vt 0.500000 0.500000
vt 0.500000 0.500000
vt 0.500000 0.500000
vt 0.500000 0.500000
vt 0.500000 0.500000
vt 0.500000 0.500000
vt 0.500000 0.500000
vt 0.500000 0.500000
vt 0.500000 0.500000
vt 0.500000 0.500000
vt 0.500000 0.500000
vt 0.500000 0.500000
vt 0.500000 0.500000
vt 0.500000 0.500000
vt 0.500000 0.500000
vt 0.500000 0.500000
vt 0.500000 0.500000
vt 0.500000 0.500000
vt 0.500000 0.500000
vt 0.500000 0.500000
vt 0.500000 0.500000
vt 0.500000 0.500000
vt 0.500000 0.500000
vt 0.500000 0.500000
vt 0.500000 0.500000
vt 0.500000 0.500000
vt 0.500000 0.500000
vt 0.500000 0.500000
vt 0.500000 0.500000
vt 0.500000 0.500000
vt 0.500000 0.500000
vt 0.500000 0.500000
vt 0.500000 0.500000
vt 0.500000 0.500000
vt 0.500000 0.500000
vt 0.500000 0.500000
vt 0.500000 0.500000
vt 0.500000 0.500000
vt 0.500000 0.500000
vt 0.500000 0.500000
vt 0.500000 0.500000
vt 0.500000 0.500000
vt 0.500000 0.500000
vt 0.500000 0.500000
vt 0.500000 0.500000
vt 0.500000 0.500000
vt 0.500000 0.500000
vt 0.500000 0.500000
vt 0.500000 0.500000
vt 0.500000 0.500000
vt 0.500000 0.500000
vt 0.500000 0.500000
vt 0.500000 0.500000
vt 0.500000 0.500000
vt 0.500000 0.500000
vt 0.500000 0.500000
vt 0.500000 0.500000
vt 0.500000 0.500000
vt 0.500000 0.500000
vt 0.500000 0.500000
vt 0.500000 0.500000
vt 0.500000 0.500000
vt 0.500000 0.500000
vt 0.500000 0.500000
vt 0.500000 0.500000
vt 0.500000 0.500000
vt 0.500000 0.500000
vt 0.500000 0.500000
vt 0.500000 0.500000
vt 0.500000 0.500000
vt 0.500000 0.500000
vt 0.500000 0.500000
vt 0.500000 0.500000
vt 0.500000 0.500000
vt 0.500000 0.500000
vt 0.500000 0.500000
vt 0.500000 0.500000
vt 0.500000 0.500000
vt 0.500000 0.500000
vt 0.500000 0.500000
vt 0.500000 0.500000
vt 0.500000 0.500000
vt 0.500000 0.500000
vt 0.500000 0.500000
vt 0.500000 0.500000
vt 0.500000 0.500000
vt 0.500000 0.500000
vt 0.500000 0.500000
vt 0.500000 0.500000
vt 0.500000 0.500000
vt 0.500000 0.500000
vt 0.500000 0.500000
vt 0.500000 0.500000
vt 0.500000 0.500000
vt 0.500000 0.500000
vt 0.500000 0.500000
vt 0.500000 0.500000
vt 0.500000 0.500000
vt 0.500000 0.500000
vt 0.500000 0.500000
vt 0.500000 0.500000
vt 0.500000 0.500000
vt 0.500000 0.500000
vt 0.500000 0.500000
vt 0.500000 0.500000
vt 0.500000 0.500000
vt 0.500000 0.500000
vt 0.500000 0.500000
vt 0.500000 0.500000
vt 0.500000 0.500000
vt 0.500000 0.500000
vt 0.500000 0.500000
vt 0.715343 0.223145
vt 0.718750 0.222222
vt 0.719214 0.228111
vt 0.712498 0.244756
vt 0.716097 0.239826
vt 0.715300 0.251017
vt 0.711506 0.243963
vt 0.715416 0.237990
vt 0.718260 0.239235
vt 0.719074 0.239417
vt 0.719337 0.241521
vt 0.710074 0.215922
vt 0.711613 0.215457
vt 0.712531 0.218204
vt 0.711981 0.220664
vt 0.705880 0.240105
vt 0.706361 0.238218
vt 0.710012 0.244330
vt 0.718750 0.250000
vt 0.717149 0.239893
vt 0.719306 0.231664
vt 0.718945 0.234050
vt 0.717962 0.234327
vt 0.708920 0.219516
vt 0.708965 0.217377
vt 0.706266 0.235495
vt 0.709244 0.223271
vt 0.715244 0.235406
vt 0.715677 0.233617
vt 0.708926 0.247920
vt 0.709340 0.250204
vt 0.708053 0.252055
vt 0.708945 0.245730
vt 0.704856 0.240032
vt 0.702595 0.244494
vt 0.712007 0.222610
vt 0.709323 0.221716
vt 0.704614 0.233744
vt 0.703496 0.234619
vt 0.702438 0.232052
vt 0.702748 0.239140
vt 0.703659 0.239140
vt 0.702451 0.241223
vt 0.703125 0.250000
vt 0.713239 0.251292
vt 0.712383 0.246665
vt 0.716712 0.233631
vt 0.711848 0.248954
vt 0.705647 0.233633
vt 0.709262 0.251771
vt 0.713313 0.223327
vt 0.703125 0.222222
vt 0.708039 0.223689
vt 0.712639 0.216209
vt 0.702680 0.234466
vt 0.711901 0.250716
vn 0.0000 -1.0000 0.0000
vn 0.1309 0.0000 -0.9914
vn 0.9962 0.0000 -0.0876
vn -0.2353 0.0000 -0.9719
vn 0.0747 0.0000 -0.9972
vn -0.9985 0.0000 -0.0538
vn -0.2283 0.0000 -0.9736
vn 0.9519 0.0000 0.3064
vn 0.1636 0.0000 -0.9865
vn -0.9233 0.0000 0.3842
vn 0.9999 0.0000 -0.0156
vn -0.9857 0.0000 -0.1687
vn -0.9943 0.0000 0.1065
vn 0.5938 0.0000 -0.8046
vn -0.4099 0.0000 -0.9121
vn 0.9925 0.0000 -0.1222
vn -0.9970 0.0000 -0.0778
vn 0.1369 0.0000 -0.9906
vn 0.9761 0.0000 0.2171
vn -0.9695 0.0000 0.2450
vn 0.0403 0.0000 0.9992
vn -0.9110 0.0000 0.4125
vn 0.0353 0.0000 0.9994
vn -0.0003 0.0000 1.0000
vn 0.3866 0.0000 0.9223
vn -0.3161 0.0000 0.9487
vn 0.1249 0.0000 0.9922
vn 0.8348 0.0000 0.5506
vn -0.9981 0.0000 -0.0622
vn 0.9931 0.0000 0.1175
vn -0.8610 0.0000 -0.5085
vn 0.9187 0.0000 -0.3949
vn -0.1046 0.0000 -0.9945
vn 0.4028 0.0000 -0.9153
vn -0.9845 0.0000 -0.1754
vn -0.2987 0.0000 -0.9544
vn 0.1567 0.0000 -0.9876
vn 0.9657 0.0000 -0.2598
vn 0.0604 0.0000 -0.9982
vn -0.0078 0.0000 -1.0000
vn 0.9990 0.0000 0.0457
vn -0.9924 0.0000 0.1234
vn -0.1915 0.0000 0.9815
vn 0.2950 0.0000 0.9555
vn -0.0503 0.0000 0.9987
vn -0.9960 0.0000 0.0896
vn -0.1506 0.0000 0.9886
vn 0.9903 0.0000 0.1388
vn 0.9997 0.0000 0.0239
vn 0.1656 0.0000 0.9862
vn -0.9509 0.0000 -0.3096
vn 0.9293 0.0000 -0.3693
vn -0.9993 0.0000 0.0372
vn 0.9954 0.0000 -0.0956
vn -0.5938 0.0000 0.8046
vn -0.1673 0.0000 0.9859
vn 0.3815 0.0000 0.9244
vn 0.0000 1.0000 0.0000
usemtl BackMat.001
s off
f 247/1/1 238/2/1 249/3/1
f 203/4/1 193/5/1 218/6/1
f 203/4/1 221/7/1 206/8/1
f 220/9/1 207/10/1 209/11/1
f 257/12/1 253/13/1 258/14/1
f 253/13/1 257/12/1 251/15/1
f 213/16/1 205/17/1 216/18/1
f 198/19/1 217/20/1 193/5/1
f 237/21/1 234/22/1 235/23/1
f 252/24/1 257/12/1 254/25/1
f 222/26/1 223/27/1 241/28/1
f 247/1/1 226/29/1 238/2/1
f 197/30/1 186/31/1 189/32/1
f 205/17/1 213/16/1 201/33/1
f 215/34/1 202/35/1 213/16/1
f 226/29/1 245/36/1 241/28/1
f 241/28/1 245/36/1 248/37/1
f 241/28/1 223/27/1 226/29/1
f 206/8/1 221/7/1 223/27/1
f 231/38/1 232/39/1 230/40/1
f 211/41/1 208/42/1 219/43/1
f 216/18/1 206/8/1 222/26/1
f 252/24/1 251/15/1 257/12/1
f 248/37/1 245/36/1 251/15/1
f 205/17/1 206/8/1 216/18/1
f 186/31/1 197/30/1 195/44/1
f 193/5/1 200/45/1 192/46/1
f 238/2/1 226/29/1 233/47/1
f 248/37/1 251/15/1 252/24/1
f 202/35/1 201/33/1 213/16/1
f 194/48/1 192/46/1 200/45/1
f 200/45/1 193/5/1 203/4/1
f 222/26/1 241/28/1 224/49/1
f 217/20/1 207/10/1 220/9/1
f 219/43/1 208/42/1 215/34/1
f 187/50/1 189/32/1 186/31/1
f 238/2/1 233/47/1 237/21/1
f 201/33/1 195/44/1 197/30/1
f 203/4/1 218/6/1 221/7/1
f 222/26/1 206/8/1 223/27/1
f 244/51/1 226/29/1 247/1/1
f 207/10/1 217/20/1 198/19/1
f 239/52/1 224/49/1 243/53/1
f 243/53/1 224/49/1 241/28/1
f 258/14/1 253/13/1 255/54/1
f 231/38/1 224/49/1 239/52/1
f 195/44/1 201/33/1 202/35/1
f 233/47/1 234/22/1 237/21/1
f 218/6/1 193/5/1 217/20/1
f 230/40/1 232/39/1 228/55/1
f 190/56/1 192/46/1 194/48/1
f 232/39/1 231/38/1 239/52/1
f 208/42/1 202/35/1 215/34/1
f 245/36/1 226/29/1 244/51/1
f 43/57/2 115/58/2 188/59/2 99/60/2
f 44/61/3 45/62/3 101/63/3 100/64/3
f 118/65/4 54/66/4 110/67/4 191/68/4
f 54/66/5 55/69/5 111/70/5 110/67/5
f 52/71/6 53/72/6 109/73/6 108/74/6
f 123/75/7 43/57/7 99/60/7 196/76/7
f 45/62/8 46/77/8 102/78/8 101/63/8
f 55/69/9 126/79/9 199/80/9 111/70/9
f 51/81/10 52/71/10 108/74/10 107/82/10
f 46/77/11 47/83/11 103/84/11 102/78/11
f 41/85/12 42/86/12 98/87/12 97/88/12
f 131/89/13 51/81/13 107/82/13 204/90/13
f 47/83/14 48/91/14 104/92/14 103/84/14
f 49/93/15 50/94/15 106/95/15 105/96/15
f 56/97/16 1/98/16 57/99/16 112/100/16
f 40/101/17 41/85/17 97/88/17 96/102/17
f 48/91/18 49/93/18 105/96/18 104/92/18
f 1/98/19 137/103/19 210/104/19 57/99/19
f 139/105/20 40/101/20 96/102/20 212/106/20
f 141/107/21 37/108/21 93/109/21 214/110/21
f 35/111/22 36/112/22 92/113/22 91/114/22
f 4/115/23 5/116/23 61/117/23 60/118/23
f 38/119/24 39/120/24 95/121/24 94/122/24
f 37/108/25 38/119/25 94/122/25 93/109/25
f 3/123/26 4/115/26 60/118/26 59/124/26
f 2/125/27 3/123/27 59/124/27 58/126/27
f 5/116/28 6/127/28 62/128/28 61/117/28
f 34/129/29 35/111/29 91/114/29 90/130/29
f 6/127/30 7/131/30 63/132/30 62/128/30
f 152/133/31 34/129/31 90/130/31 225/134/31
f 7/131/32 154/135/32 227/136/32 63/132/32
f 156/137/33 31/138/33 87/139/33 229/140/33
f 31/138/34 32/141/34 88/142/34 87/139/34
f 29/143/35 30/144/35 86/145/35 85/146/35
f 9/147/36 10/148/36 66/149/36 65/150/36
f 10/148/37 163/151/37 236/152/37 66/149/37
f 11/153/38 12/154/38 68/155/38 67/156/38
f 32/141/39 33/157/39 89/158/39 88/142/39
f 8/159/40 9/147/40 65/150/40 64/160/40
f 12/154/41 13/161/41 69/162/41 68/155/41
f 167/163/42 29/143/42 85/146/42 240/164/42
f 169/165/43 27/166/43 83/167/43 242/168/43
f 16/169/44 173/170/44 246/171/44 72/172/44
f 15/173/45 16/169/45 72/172/45 71/174/45
f 25/175/46 26/176/46 82/177/46 81/178/46
f 177/179/47 15/173/47 71/174/47 250/180/47
f 13/161/48 14/181/48 70/182/48 69/162/48
f 17/183/49 18/184/49 74/185/49 73/186/49
f 27/166/50 28/187/50 84/188/50 83/167/50
f 24/189/51 25/175/51 81/178/51 80/190/51
f 18/184/52 19/191/52 75/192/52 74/185/52
f 23/193/53 24/189/53 80/190/53 79/194/53
f 19/191/54 183/195/54 256/196/54 75/192/54
f 22/197/55 23/193/55 79/194/55 78/198/55
f 21/199/56 22/197/56 78/198/56 77/200/56
f 20/201/57 21/199/57 77/200/57 76/202/57
usemtl FrontMat.001
f 174/203/58 176/204/58 165/205/58
f 130/206/58 145/207/58 120/208/58
f 130/206/58 133/209/58 148/210/58
f 147/211/58 136/212/58 134/213/58
f 184/214/58 185/215/58 180/216/58
f 180/216/58 178/217/58 184/214/58
f 140/218/58 143/219/58 132/220/58
f 125/221/58 120/208/58 144/222/58
f 164/223/58 162/224/58 161/225/58
f 179/226/58 181/227/58 184/214/58
f 149/228/58 168/229/58 150/230/58
f 174/203/58 165/205/58 153/231/58
f 124/232/58 116/233/58 113/234/58
f 132/220/58 128/235/58 140/218/58
f 142/236/58 140/218/58 129/237/58
f 153/231/58 168/229/58 172/238/58
f 168/229/58 175/239/58 172/238/58
f 168/229/58 153/231/58 150/230/58
f 133/209/58 150/230/58 148/210/58
f 158/240/58 157/241/58 159/242/58
f 138/243/58 146/244/58 135/245/58
f 143/219/58 149/228/58 133/209/58
f 179/226/58 184/214/58 178/217/58
f 175/239/58 178/217/58 172/238/58
f 132/220/58 143/219/58 133/209/58
f 113/234/58 122/246/58 124/232/58
f 120/208/58 119/247/58 127/248/58
f 165/205/58 160/249/58 153/231/58
f 175/239/58 179/226/58 178/217/58
f 129/237/58 140/218/58 128/235/58
f 121/250/58 127/248/58 119/247/58
f 127/248/58 130/206/58 120/208/58
f 149/228/58 151/251/58 168/229/58
f 144/222/58 147/211/58 134/213/58
f 146/244/58 142/236/58 135/245/58
f 114/252/58 113/234/58 116/233/58
f 165/205/58 164/223/58 160/249/58
f 128/235/58 124/232/58 122/246/58
f 130/206/58 148/210/58 145/207/58
f 149/228/58 150/230/58 133/209/58
f 171/253/58 174/203/58 153/231/58
f 134/213/58 125/221/58 144/222/58
f 166/254/58 170/255/58 151/251/58
f 170/255/58 168/229/58 151/251/58
f 185/215/58 182/256/58 180/216/58
f 158/240/58 166/254/58 151/251/58
f 122/246/58 129/237/58 128/235/58
f 160/249/58 164/223/58 161/225/58
f 145/207/58 144/222/58 120/208/58
f 157/241/58 155/257/58 159/242/58
f 117/258/58 121/250/58 119/247/58
f 159/242/58 166/254/58 158/240/58
f 135/245/58 142/236/58 129/237/58
f 172/238/58 171/253/58 153/231/58
