# Blender v2.83.1 OBJ File: 'jigsaw-64x36-3-step2.blend'
# www.blender.org
mtllib piece.748.mtl
o path6112
v 0.462650 0.037500 -0.299373
v 0.452076 0.037500 -0.177394
v 0.476490 0.037500 -0.102288
v 0.549519 0.037500 -0.108145
v 0.643589 0.037500 -0.148072
v 0.720848 0.037500 -0.154938
v 0.751137 0.037500 -0.083928
v 0.735153 0.037500 0.020462
v 0.681293 0.037500 0.091404
v 0.601036 0.037500 0.084733
v 0.518284 0.037500 0.046920
v 0.460033 0.037500 0.047099
v 0.445171 0.037500 0.133166
v 0.503536 0.037500 0.495118
v 0.289116 0.037500 0.451447
v 0.160343 0.037500 0.438353
v 0.075230 0.037500 0.459197
v 0.068172 0.037500 0.528341
v 0.096142 0.037500 0.622481
v 0.096752 0.037500 0.708892
v 0.027931 0.037500 0.759791
v -0.071148 0.037500 0.767151
v -0.141010 0.037500 0.727884
v -0.142006 0.037500 0.645399
v -0.113869 0.037500 0.549094
v -0.116169 0.037500 0.474868
v -0.190365 0.037500 0.448748
v -0.305416 0.037500 0.457314
v -0.498371 0.037500 0.495118
v -0.450733 0.037500 0.264016
v -0.436958 0.037500 0.126245
v -0.461182 0.037500 0.037465
v -0.538776 0.037500 0.035597
v -0.640896 0.037500 0.074574
v -0.727634 0.037500 0.087330
v -0.767166 0.037500 0.028137
v -0.759956 0.037500 -0.063398
v -0.714550 0.037500 -0.126337
v -0.642036 0.037500 -0.120313
v -0.563690 0.037500 -0.087256
v -0.503323 0.037500 -0.089674
v -0.478100 0.037500 -0.170728
v -0.478596 0.037500 -0.296216
v -0.498371 0.037500 -0.506579
v -0.296497 0.037500 -0.455706
v -0.175686 0.037500 -0.437140
v -0.096775 0.037500 -0.451787
v -0.092461 0.037500 -0.514738
v -0.122208 0.037500 -0.603613
v -0.127182 0.037500 -0.686663
v -0.067661 0.037500 -0.737044
v 0.019611 0.037500 -0.747540
v 0.078770 0.037500 -0.715851
v 0.073460 0.037500 -0.645274
v 0.045341 0.037500 -0.561542
v 0.055576 0.037500 -0.495996
v 0.145924 0.037500 -0.471479
v 0.280499 0.037500 -0.476833
v 0.503536 0.037500 -0.506579
v 0.462650 -0.037500 -0.299373
v 0.452076 -0.037500 -0.177394
v 0.476490 -0.037500 -0.102288
v 0.549519 -0.037498 -0.108145
v 0.643589 -0.037500 -0.148072
v 0.720848 -0.037500 -0.154938
v 0.751137 -0.037500 -0.083928
v 0.735153 -0.037500 0.020462
v 0.681293 -0.037500 0.091404
v 0.601036 -0.037500 0.084733
v 0.518284 -0.037500 0.046920
v 0.460033 -0.037500 0.047099
v 0.445171 -0.037500 0.133166
v 0.503536 -0.037500 0.495118
v 0.289116 -0.037500 0.451447
v 0.160343 -0.037498 0.438353
v 0.075230 -0.037500 0.459197
v 0.068172 -0.037500 0.528341
v 0.096142 -0.037500 0.622481
v 0.096752 -0.037500 0.708892
v 0.027931 -0.037500 0.759791
v -0.071148 -0.037500 0.767151
v -0.141010 -0.037500 0.727884
v -0.142006 -0.037498 0.645399
v -0.113869 -0.037500 0.549094
v -0.116169 -0.037500 0.474868
v -0.190365 -0.037500 0.448748
v -0.305416 -0.037498 0.457314
v -0.498371 -0.037500 0.495118
v -0.450733 -0.037500 0.264016
v -0.436958 -0.037500 0.126245
v -0.461182 -0.037500 0.037465
v -0.538776 -0.037500 0.035597
v -0.640896 -0.037500 0.074574
v -0.727634 -0.037500 0.087330
v -0.767166 -0.037498 0.028137
v -0.759956 -0.037500 -0.063398
v -0.714550 -0.037500 -0.126337
v -0.642036 -0.037500 -0.120313
v -0.563690 -0.037500 -0.087256
v -0.503323 -0.037500 -0.089674
v -0.478100 -0.037500 -0.170728
v -0.478596 -0.037500 -0.296216
v -0.498371 -0.037500 -0.506579
v -0.296497 -0.037500 -0.455706
v -0.175686 -0.037500 -0.437140
v -0.096775 -0.037500 -0.451787
v -0.092461 -0.037500 -0.514738
v -0.122208 -0.037500 -0.603613
v -0.127182 -0.037500 -0.686663
v -0.067661 -0.037500 -0.737044
v 0.019611 -0.037500 -0.747540
v 0.078770 -0.037498 -0.715851
v 0.073460 -0.037498 -0.645274
v 0.045341 -0.037500 -0.561542
v 0.055576 -0.037500 -0.495996
v 0.145924 -0.037498 -0.471479
v 0.280499 -0.037500 -0.476833
v 0.503536 -0.037500 -0.506579
v -0.067661 0.037500 -0.737044
v 0.019611 0.037500 -0.747540
v 0.078770 0.037500 -0.715851
v 0.078770 0.037500 -0.715851
v -0.127182 0.037500 -0.686663
v 0.073460 0.037500 -0.645274
v -0.122208 0.037500 -0.603613
v 0.045341 0.037500 -0.561542
v -0.092461 0.037500 -0.514738
v 0.055576 0.037500 -0.495996
v 0.055576 0.037500 -0.495996
v -0.096775 0.037500 -0.451787
v -0.096775 0.037500 -0.451787
v 0.145924 0.037500 -0.471479
v 0.280499 0.037500 -0.476833
v 0.503536 0.037500 -0.506579
v 0.503536 0.037500 -0.506579
v -0.498371 0.037500 -0.506579
v -0.498371 0.037500 -0.506579
v -0.296497 0.037500 -0.455706
v -0.175686 0.037500 -0.437140
v 0.462650 0.037500 -0.299373
v -0.478596 0.037500 -0.296216
v 0.452076 0.037500 -0.177394
v -0.478100 0.037500 -0.170728
v 0.476490 0.037500 -0.102288
v 0.476490 0.037500 -0.102288
v -0.503323 0.037500 -0.089674
v -0.503323 0.037500 -0.089674
v 0.643589 0.037500 -0.148072
v 0.720848 0.037500 -0.154938
v 0.720848 0.037500 -0.154938
v 0.751137 0.037500 -0.083928
v 0.549519 0.037500 -0.108145
v -0.759956 0.037500 -0.063398
v -0.714550 0.037500 -0.126337
v -0.642036 0.037500 -0.120313
v -0.563690 0.037500 -0.087256
v 0.735153 0.037500 0.020462
v -0.767166 0.037500 0.028137
v 0.681293 0.037500 0.091404
v -0.727634 0.037500 0.087330
v -0.727634 0.037500 0.087330
v -0.640896 0.037500 0.074574
v -0.538776 0.037500 0.035597
v -0.461182 0.037500 0.037465
v -0.461182 0.037500 0.037465
v -0.436958 0.037500 0.126245
v 0.518284 0.037500 0.046920
v 0.460033 0.037500 0.047099
v 0.460033 0.037500 0.047099
v 0.601036 0.037500 0.084733
v 0.445171 0.037500 0.133166
v -0.450733 0.037500 0.264016
v -0.498371 0.037500 0.495118
v -0.498371 0.037500 0.495118
v -0.190365 0.037500 0.448748
v -0.305416 0.037500 0.457314
v 0.160343 0.037500 0.438353
v 0.075230 0.037500 0.459197
v 0.075230 0.037500 0.459197
v 0.289116 0.037500 0.451447
v -0.116169 0.037500 0.474868
v -0.116169 0.037500 0.474868
v 0.068172 0.037500 0.528341
v 0.503536 0.037500 0.495118
v 0.503536 0.037500 0.495118
v -0.113869 0.037500 0.549094
v 0.096142 0.037500 0.622481
v -0.142006 0.037500 0.645399
v 0.096752 0.037500 0.708892
v -0.141010 0.037500 0.727884
v 0.027931 0.037500 0.759791
v -0.071148 0.037500 0.767151
v -0.067661 -0.037500 -0.737044
v 0.019611 -0.037500 -0.747540
v 0.078770 -0.037498 -0.715851
v 0.078770 -0.037498 -0.715851
v -0.127182 -0.037500 -0.686663
v 0.073460 -0.037498 -0.645274
v -0.122208 -0.037500 -0.603613
v 0.045341 -0.037500 -0.561542
v -0.092461 -0.037500 -0.514738
v 0.055576 -0.037500 -0.495996
v 0.055576 -0.037500 -0.495996
v -0.096775 -0.037500 -0.451787
v -0.096775 -0.037500 -0.451787
v 0.145924 -0.037498 -0.471479
v 0.280499 -0.037500 -0.476833
v 0.503536 -0.037500 -0.506579
v 0.503536 -0.037500 -0.506579
v -0.498371 -0.037500 -0.506579
v -0.498371 -0.037500 -0.506579
v -0.296497 -0.037500 -0.455706
v -0.175686 -0.037500 -0.437140
v 0.462650 -0.037500 -0.299373
v -0.478596 -0.037500 -0.296216
v 0.452076 -0.037500 -0.177394
v -0.478100 -0.037500 -0.170728
v 0.476490 -0.037500 -0.102288
v 0.476490 -0.037500 -0.102288
v -0.503323 -0.037500 -0.089674
v -0.503323 -0.037500 -0.089674
v 0.643589 -0.037500 -0.148072
v 0.720848 -0.037500 -0.154938
v 0.720848 -0.037500 -0.154938
v 0.751137 -0.037500 -0.083928
v 0.549519 -0.037498 -0.108145
v -0.759956 -0.037500 -0.063398
v -0.714550 -0.037500 -0.126337
v -0.642036 -0.037500 -0.120313
v -0.563690 -0.037500 -0.087256
v 0.735153 -0.037500 0.020462
v -0.767166 -0.037498 0.028137
v 0.681293 -0.037500 0.091404
v -0.727634 -0.037500 0.087330
v -0.727634 -0.037500 0.087330
v -0.640896 -0.037500 0.074574
v -0.538776 -0.037500 0.035597
v -0.461182 -0.037500 0.037465
v -0.461182 -0.037500 0.037465
v -0.436958 -0.037500 0.126245
v 0.518284 -0.037500 0.046920
v 0.460033 -0.037500 0.047099
v 0.460033 -0.037500 0.047099
v 0.601036 -0.037500 0.084733
v 0.445171 -0.037500 0.133166
v -0.450733 -0.037500 0.264016
v -0.498371 -0.037500 0.495118
v -0.498371 -0.037500 0.495118
v -0.190365 -0.037500 0.448748
v -0.305416 -0.037498 0.457314
v 0.160343 -0.037498 0.438353
v 0.075230 -0.037500 0.459197
v 0.075230 -0.037500 0.459197
v 0.289116 -0.037500 0.451447
v -0.116169 -0.037500 0.474868
v -0.116169 -0.037500 0.474868
v 0.068172 -0.037500 0.528341
v 0.503536 -0.037500 0.495118
v 0.503536 -0.037500 0.495118
v -0.113869 -0.037500 0.549094
v 0.096142 -0.037500 0.622481
v -0.142006 -0.037498 0.645399
v 0.096752 -0.037500 0.708892
v -0.141010 -0.037500 0.727884
v 0.027931 -0.037500 0.759791
v -0.071148 -0.037500 0.767151
vt 0.500000 0.500000
vt 0.500000 0.500000
vt 0.500000 0.500000
vt 0.500000 0.500000
vt 0.500000 0.500000
vt 0.500000 0.500000
vt 0.500000 0.500000
vt 0.500000 0.500000
vt 0.500000 0.500000
vt 0.500000 0.500000
vt 0.500000 0.500000
vt 0.500000 0.500000
vt 0.500000 0.500000
vt 0.500000 0.500000
vt 0.500000 0.500000
vt 0.500000 0.500000
vt 0.500000 0.500000
vt 0.500000 0.500000
vt 0.500000 0.500000
vt 0.500000 0.500000
vt 0.500000 0.500000
vt 0.500000 0.500000
vt 0.500000 0.500000
vt 0.500000 0.500000
vt 0.500000 0.500000
vt 0.500000 0.500000
vt 0.500000 0.500000
vt 0.500000 0.500000
vt 0.500000 0.500000
vt 0.500000 0.500000
vt 0.500000 0.500000
vt 0.500000 0.500000
vt 0.500000 0.500000
vt 0.500000 0.500000
vt 0.500000 0.500000
vt 0.500000 0.500000
vt 0.500000 0.500000
vt 0.500000 0.500000
vt 0.500000 0.500000
vt 0.500000 0.500000
vt 0.500000 0.500000
vt 0.500000 0.500000
vt 0.500000 0.500000
vt 0.500000 0.500000
vt 0.500000 0.500000
vt 0.500000 0.500000
vt 0.500000 0.500000
vt 0.500000 0.500000
vt 0.500000 0.500000
vt 0.500000 0.500000
vt 0.500000 0.500000
vt 0.500000 0.500000
vt 0.500000 0.500000
vt 0.500000 0.500000
vt 0.500000 0.500000
vt 0.500000 0.500000
vt 0.500000 0.500000
vt 0.500000 0.500000
vt 0.500000 0.500000
vt 0.500000 0.500000
vt 0.500000 0.500000
vt 0.500000 0.500000
vt 0.500000 0.500000
vt 0.500000 0.500000
vt 0.500000 0.500000
vt 0.500000 0.500000
vt 0.500000 0.500000
vt 0.500000 0.500000
vt 0.500000 0.500000
vt 0.500000 0.500000
vt 0.500000 0.500000
vt 0.500000 0.500000
vt 0.500000 0.500000
vt 0.500000 0.500000
vt 0.500000 0.500000
vt 0.500000 0.500000
vt 0.500000 0.500000
vt 0.500000 0.500000
vt 0.500000 0.500000
vt 0.500000 0.500000
vt 0.500000 0.500000
vt 0.500000 0.500000
vt 0.500000 0.500000
vt 0.500000 0.500000
vt 0.500000 0.500000
vt 0.500000 0.500000
vt 0.500000 0.500000
vt 0.500000 0.500000
vt 0.500000 0.500000
vt 0.500000 0.500000
vt 0.500000 0.500000
vt 0.500000 0.500000
vt 0.500000 0.500000
vt 0.500000 0.500000
vt 0.500000 0.500000
vt 0.500000 0.500000
vt 0.500000 0.500000
vt 0.500000 0.500000
vt 0.500000 0.500000
vt 0.500000 0.500000
vt 0.500000 0.500000
vt 0.500000 0.500000
vt 0.500000 0.500000
vt 0.500000 0.500000
vt 0.500000 0.500000
vt 0.500000 0.500000
vt 0.500000 0.500000
vt 0.500000 0.500000
vt 0.500000 0.500000
vt 0.500000 0.500000
vt 0.500000 0.500000
vt 0.500000 0.500000
vt 0.500000 0.500000
vt 0.500000 0.500000
vt 0.500000 0.500000
vt 0.500000 0.500000
vt 0.500000 0.500000
vt 0.500000 0.500000
vt 0.500000 0.500000
vt 0.500000 0.500000
vt 0.500000 0.500000
vt 0.500000 0.500000
vt 0.500000 0.500000
vt 0.500000 0.500000
vt 0.500000 0.500000
vt 0.500000 0.500000
vt 0.500000 0.500000
vt 0.500000 0.500000
vt 0.500000 0.500000
vt 0.500000 0.500000
vt 0.500000 0.500000
vt 0.500000 0.500000
vt 0.500000 0.500000
vt 0.500000 0.500000
vt 0.500000 0.500000
vt 0.500000 0.500000
vt 0.500000 0.500000
vt 0.500000 0.500000
vt 0.500000 0.500000
vt 0.500000 0.500000
vt 0.500000 0.500000
vt 0.500000 0.500000
vt 0.500000 0.500000
vt 0.500000 0.500000
vt 0.500000 0.500000
vt 0.500000 0.500000
vt 0.500000 0.500000
vt 0.500000 0.500000
vt 0.500000 0.500000
vt 0.500000 0.500000
vt 0.500000 0.500000
vt 0.500000 0.500000
vt 0.500000 0.500000
vt 0.500000 0.500000
vt 0.500000 0.500000
vt 0.500000 0.500000
vt 0.500000 0.500000
vt 0.500000 0.500000
vt 0.500000 0.500000
vt 0.500000 0.500000
vt 0.500000 0.500000
vt 0.500000 0.500000
vt 0.500000 0.500000
vt 0.500000 0.500000
vt 0.500000 0.500000
vt 0.500000 0.500000
vt 0.500000 0.500000
vt 0.500000 0.500000
vt 0.500000 0.500000
vt 0.500000 0.500000
vt 0.500000 0.500000
vt 0.500000 0.500000
vt 0.500000 0.500000
vt 0.500000 0.500000
vt 0.500000 0.500000
vt 0.500000 0.500000
vt 0.500000 0.500000
vt 0.500000 0.500000
vt 0.500000 0.500000
vt 0.500000 0.500000
vt 0.500000 0.500000
vt 0.500000 0.500000
vt 0.500000 0.500000
vt 0.500000 0.500000
vt 0.500000 0.500000
vt 0.500000 0.500000
vt 0.500000 0.500000
vt 0.500000 0.500000
vt 0.500000 0.500000
vt 0.500000 0.500000
vt 0.500000 0.500000
vt 0.500000 0.500000
vt 0.500000 0.500000
vt 0.500000 0.500000
vt 0.500000 0.500000
vt 0.500000 0.500000
vt 0.500000 0.500000
vt 0.500000 0.500000
vt 0.500000 0.500000
vt 0.500000 0.500000
vt 0.500000 0.500000
vt 0.500000 0.500000
vt 0.500000 0.500000
vt 0.500000 0.500000
vt 0.500000 0.500000
vt 0.500000 0.500000
vt 0.500000 0.500000
vt 0.681923 0.693471
vt 0.680514 0.694151
vt 0.678138 0.692925
vt 0.672191 0.685131
vt 0.671798 0.682883
vt 0.672455 0.679358
vt 0.686697 0.685316
vt 0.672833 0.676896
vt 0.684156 0.667878
vt 0.687500 0.666667
vt 0.686590 0.676704
vt 0.686822 0.679091
vt 0.682148 0.668241
vt 0.671245 0.679410
vt 0.680083 0.659327
vt 0.681147 0.663135
vt 0.677433 0.662499
vt 0.680354 0.695969
vt 0.678205 0.694671
vt 0.690889 0.684693
vt 0.689684 0.684503
vt 0.691361 0.682724
vt 0.680710 0.665745
vt 0.680820 0.667663
vt 0.677836 0.667228
vt 0.691112 0.679829
vt 0.677448 0.660212
vt 0.678538 0.659123
vt 0.688217 0.683396
vt 0.687078 0.683233
vt 0.687730 0.679096
vt 0.677741 0.697135
vt 0.676907 0.692519
vt 0.675023 0.693034
vt 0.672183 0.688611
vt 0.669635 0.683733
vt 0.668504 0.683900
vt 0.667796 0.682155
vt 0.671875 0.694444
vt 0.689021 0.678047
vt 0.669652 0.678329
vt 0.684022 0.693620
vt 0.667683 0.679616
vt 0.668300 0.677975
vt 0.672618 0.673075
vt 0.676678 0.667953
vt 0.670856 0.682816
vt 0.690272 0.677862
vt 0.686862 0.688698
vt 0.677871 0.665170
vt 0.681156 0.660739
vt 0.674884 0.667715
vt 0.678592 0.700835
vt 0.680793 0.698291
vt 0.687500 0.694444
vt 0.677664 0.699438
vt 0.679953 0.701127
vt 0.671875 0.666667
vt 0.680876 0.700248
vn 0.0000 -1.0000 0.0000
vn -0.1194 0.0000 -0.9928
vn 0.4722 0.0000 -0.8815
vn -0.6461 0.0000 -0.7633
vn 0.9972 0.0000 0.0750
vn -0.9982 0.0000 0.0598
vn 0.9480 0.0000 0.3183
vn -0.9483 0.0000 0.3174
vn 0.9880 0.0000 -0.1543
vn -0.9977 0.0000 -0.0684
vn 0.2619 0.0000 -0.9651
vn -0.1322 0.0000 -0.9912
vn 0.2444 0.0000 -0.9697
vn -0.0398 0.0000 -0.9992
vn 0.1519 0.0000 -0.9884
vn -0.1825 0.0000 -0.9832
vn 0.9811 0.0000 0.1936
vn -0.9956 0.0000 0.0936
vn 0.9963 0.0000 0.0864
vn -1.0000 0.0000 0.0040
vn 0.9510 0.0000 -0.3091
vn -0.9548 0.0000 -0.2971
vn -0.0885 0.0000 -0.9961
vn 0.9198 0.0000 -0.3923
vn -0.3907 0.0000 -0.9205
vn -0.8110 0.0000 -0.5851
vn 0.0828 0.0000 -0.9966
vn 0.3887 0.0000 -0.9213
vn -0.0799 0.0000 -0.9968
vn -0.0400 0.0000 -0.9992
vn 0.9885 0.0000 0.1514
vn -0.9969 0.0000 -0.0785
vn 0.7965 0.0000 0.6047
vn -0.8316 0.0000 0.5554
vn 0.1455 0.0000 0.9894
vn 0.3566 0.0000 0.9343
vn -0.0241 0.0000 0.9997
vn -0.9647 0.0000 0.2632
vn 0.0031 0.0000 1.0000
vn -0.4156 0.0000 0.9095
vn -0.0828 0.0000 0.9966
vn 0.9854 0.0000 0.1702
vn -0.9950 0.0000 -0.0995
vn -0.9794 0.0000 -0.2019
vn 0.0742 0.0000 0.9972
vn 0.2379 0.0000 0.9713
vn -0.1012 0.0000 0.9949
vn -0.3321 0.0000 0.9433
vn 0.9948 0.0000 0.1015
vn -0.1996 0.0000 0.9799
vn 0.9872 0.0000 -0.1592
vn -0.9995 0.0000 0.0310
vn 0.1923 0.0000 0.9813
vn 0.9586 0.0000 -0.2848
vn -0.9599 0.0000 -0.2804
vn 1.0000 0.0000 -0.0071
vn -0.9999 0.0000 0.0121
vn 0.5946 0.0000 0.8040
vn -0.4900 0.0000 0.8717
vn 0.0741 0.0000 0.9973
vn 0.0000 1.0000 0.0000
usemtl BackMat.001
s off
f 206/1/1 204/2/1 202/3/1
f 217/4/1 238/5/1 220/6/1
f 206/1/1 216/7/1 204/2/1
f 204/2/1 240/8/1 238/5/1
f 254/9/1 245/10/1 258/11/1
f 245/10/1 251/12/1 242/13/1
f 242/13/1 240/8/1 204/2/1
f 238/5/1 237/14/1 220/6/1
f 265/15/1 262/16/1 261/17/1
f 202/3/1 201/18/1 200/19/1
f 223/20/1 225/21/1 222/22/1
f 257/23/1 255/24/1 252/25/1
f 225/21/1 231/26/1 222/22/1
f 262/16/1 266/27/1 264/28/1
f 226/29/1 241/30/1 218/31/1
f 199/32/1 200/19/1 201/18/1
f 213/33/1 215/34/1 212/35/1
f 229/36/1 227/37/1 228/38/1
f 213/33/1 238/5/1 217/4/1
f 218/31/1 242/13/1 216/7/1
f 212/35/1 215/34/1 210/39/1
f 241/30/1 226/29/1 244/40/1
f 213/33/1 217/4/1 215/34/1
f 229/36/1 236/41/1 227/37/1
f 242/13/1 252/25/1 240/8/1
f 207/42/1 216/7/1 206/1/1
f 262/16/1 265/15/1 266/27/1
f 232/43/1 236/41/1 234/44/1
f 240/8/1 249/45/1 246/46/1
f 252/25/1 249/45/1 240/8/1
f 230/47/1 236/41/1 229/36/1
f 220/6/1 237/14/1 230/47/1
f 233/48/1 244/40/1 231/26/1
f 207/42/1 214/49/1 216/7/1
f 261/17/1 260/50/1 257/23/1
f 222/22/1 231/26/1 226/29/1
f 263/51/1 265/15/1 261/17/1
f 251/12/1 245/10/1 254/9/1
f 246/46/1 249/45/1 250/52/1
f 236/41/1 230/47/1 237/14/1
f 193/53/1 198/54/1 199/32/1
f 204/2/1 238/5/1 213/33/1
f 214/49/1 207/42/1 208/55/1
f 216/7/1 242/13/1 204/2/1
f 252/25/1 242/13/1 251/12/1
f 193/53/1 199/32/1 197/56/1
f 193/53/1 194/57/1 198/54/1
f 246/46/1 250/52/1 247/58/1
f 201/18/1 202/3/1 204/2/1
f 257/23/1 260/50/1 255/24/1
f 236/41/1 232/43/1 227/37/1
f 198/54/1 194/57/1 195/59/1
f 200/19/1 199/32/1 198/54/1
f 241/30/1 242/13/1 218/31/1
f 260/50/1 261/17/1 262/16/1
f 244/40/1 226/29/1 231/26/1
f 252/25/1 255/24/1 249/45/1
f 51/60/2 52/61/2 111/62/2 110/63/2
f 52/61/3 122/64/3 196/65/3 111/62/3
f 50/66/4 51/60/4 110/63/4 109/67/4
f 53/68/5 54/69/5 113/70/5 112/71/5
f 49/72/6 50/66/6 109/67/6 108/73/6
f 54/69/7 55/74/7 114/75/7 113/70/7
f 48/76/8 49/72/8 108/73/8 107/77/8
f 55/74/9 129/78/9 203/79/9 114/75/9
f 131/80/10 48/76/10 107/77/10 205/81/10
f 56/82/11 57/83/11 116/84/11 115/85/11
f 58/86/12 135/87/12 209/88/12 117/89/12
f 137/90/13 45/91/13 104/92/13 211/93/13
f 57/83/14 58/86/14 117/89/14 116/84/14
f 45/91/15 46/94/15 105/95/15 104/92/15
f 46/94/16 47/96/16 106/97/16 105/95/16
f 59/98/17 1/99/17 60/100/17 118/101/17
f 43/102/18 44/103/18 103/104/18 102/105/18
f 1/99/19 2/106/19 61/107/19 60/100/19
f 42/108/20 43/102/20 102/105/20 101/109/20
f 2/106/21 145/110/21 219/111/21 61/107/21
f 147/112/22 42/108/22 101/109/22 221/113/22
f 5/114/23 150/115/23 224/116/23 64/117/23
f 6/118/24 7/119/24 66/120/24 65/121/24
f 4/122/25 5/114/25 64/117/25 63/123/25
f 37/124/26 38/125/26 97/126/26 96/127/26
f 38/125/27 39/128/27 98/129/27 97/126/27
f 39/128/28 40/130/28 99/131/28 98/129/28
f 3/132/29 4/122/29 63/123/29 62/133/29
f 40/130/30 41/134/30 100/135/30 99/131/30
f 7/119/31 8/136/31 67/137/31 66/120/31
f 36/138/32 37/124/32 96/127/32 95/139/32
f 8/136/33 9/140/33 68/141/33 67/137/33
f 161/142/34 36/138/34 95/139/34 235/143/34
f 34/144/35 35/145/35 94/146/35 93/147/35
f 33/148/36 34/144/36 93/147/36 92/149/36
f 165/150/37 33/148/37 92/149/37 239/151/37
f 31/152/38 32/153/38 91/154/38 90/155/38
f 11/156/39 169/157/39 243/158/39 70/159/39
f 10/160/40 11/156/40 70/159/40 69/161/40
f 9/140/41 10/160/41 69/161/41 68/141/41
f 12/162/42 13/163/42 72/164/42 71/165/42
f 30/166/43 31/152/43 90/155/43 89/167/43
f 174/168/44 30/166/44 89/167/44 248/169/44
f 27/170/45 28/171/45 87/172/45 86/173/45
f 16/174/46 179/175/46 253/176/46 75/177/46
f 15/178/47 16/174/47 75/177/47 74/179/47
f 182/180/48 27/170/48 86/173/48 256/181/48
f 17/182/49 18/183/49 77/184/49 76/185/49
f 185/186/50 15/178/50 74/179/50 259/187/50
f 13/163/51 14/188/51 73/189/51 72/164/51
f 25/190/52 26/191/52 85/192/52 84/193/52
f 28/171/53 29/194/53 88/195/53 87/172/53
f 18/183/54 19/196/54 78/197/54 77/184/54
f 24/198/55 25/190/55 84/193/55 83/199/55
f 19/196/56 20/200/56 79/201/56 78/197/56
f 23/202/57 24/198/57 83/199/57 82/203/57
f 20/200/58 21/204/58 80/205/58 79/201/58
f 22/206/59 23/202/59 82/203/59 81/207/59
f 21/204/60 22/206/60 81/207/60 80/205/60
usemtl FrontMat.001
f 132/208/61 128/209/61 130/210/61
f 143/211/61 146/212/61 164/213/61
f 132/208/61 130/210/61 142/214/61
f 130/210/61 164/213/61 166/215/61
f 180/216/61 184/217/61 171/218/61
f 171/218/61 168/219/61 177/220/61
f 168/219/61 130/210/61 166/215/61
f 164/213/61 146/212/61 163/221/61
f 191/222/61 187/223/61 188/224/61
f 128/209/61 126/225/61 127/226/61
f 149/227/61 148/228/61 151/229/61
f 183/230/61 178/231/61 181/232/61
f 151/229/61 148/228/61 157/233/61
f 188/224/61 190/234/61 192/235/61
f 152/236/61 144/237/61 167/238/61
f 125/239/61 127/226/61 126/225/61
f 139/240/61 138/241/61 141/242/61
f 155/243/61 154/244/61 153/245/61
f 139/240/61 143/211/61 164/213/61
f 144/237/61 142/214/61 168/219/61
f 138/241/61 136/246/61 141/242/61
f 167/238/61 170/247/61 152/236/61
f 139/240/61 141/242/61 143/211/61
f 155/243/61 153/245/61 162/248/61
f 168/219/61 166/215/61 178/231/61
f 133/249/61 132/208/61 142/214/61
f 188/224/61 192/235/61 191/222/61
f 158/250/61 160/251/61 162/248/61
f 166/215/61 172/252/61 175/253/61
f 178/231/61 166/215/61 175/253/61
f 156/254/61 155/243/61 162/248/61
f 146/212/61 156/254/61 163/221/61
f 159/255/61 157/233/61 170/247/61
f 133/249/61 142/214/61 140/256/61
f 187/223/61 183/230/61 186/257/61
f 148/228/61 152/236/61 157/233/61
f 189/258/61 187/223/61 191/222/61
f 177/220/61 180/216/61 171/218/61
f 172/252/61 176/259/61 175/253/61
f 162/248/61 163/221/61 156/254/61
f 119/260/61 125/239/61 124/261/61
f 130/210/61 139/240/61 164/213/61
f 140/256/61 134/262/61 133/249/61
f 142/214/61 130/210/61 168/219/61
f 178/231/61 177/220/61 168/219/61
f 119/260/61 123/263/61 125/239/61
f 119/260/61 124/261/61 120/264/61
f 172/252/61 173/265/61 176/259/61
f 127/226/61 130/210/61 128/209/61
f 183/230/61 181/232/61 186/257/61
f 162/248/61 153/245/61 158/250/61
f 124/261/61 121/266/61 120/264/61
f 126/225/61 124/261/61 125/239/61
f 167/238/61 144/237/61 168/219/61
f 186/257/61 188/224/61 187/223/61
f 170/247/61 157/233/61 152/236/61
f 178/231/61 175/253/61 181/232/61
