# Blender v2.83.1 OBJ File: 'jigsaw-64x36-3-step2.blend'
# www.blender.org
mtllib piece.1470.mtl
o path7556
v -0.287647 0.037500 -0.452858
v -0.157619 0.037500 -0.436974
v -0.072386 0.037500 -0.455647
v -0.067066 0.037500 -0.523785
v -0.098442 0.037500 -0.616936
v -0.103701 0.037500 -0.700798
v -0.040234 0.037500 -0.746662
v 0.053762 0.037500 -0.748135
v 0.119898 0.037500 -0.704411
v 0.119417 0.037500 -0.620770
v 0.092081 0.037500 -0.526501
v 0.097290 0.037500 -0.456947
v 0.176126 0.037500 -0.437401
v 0.296349 0.037500 -0.452930
v 0.497007 0.037500 -0.500935
v 0.525421 0.037500 -0.298485
v 0.529892 0.037500 -0.178249
v 0.504560 0.037500 -0.101814
v 0.438263 0.037500 -0.102123
v 0.352610 0.037500 -0.135571
v 0.277449 0.037500 -0.139435
v 0.237965 0.037500 -0.071838
v 0.240694 0.037500 0.025597
v 0.287525 0.037500 0.090382
v 0.374048 0.037500 0.081650
v 0.470764 0.037500 0.044987
v 0.541889 0.037500 0.047596
v 0.561857 0.037500 0.135784
v 0.545984 0.037500 0.272247
v 0.497007 0.037500 0.500977
v 0.183544 0.037500 0.451756
v 0.106186 0.037500 0.466923
v 0.100363 0.037500 0.521095
v 0.125912 0.037500 0.595798
v 0.124779 0.037500 0.664989
v 0.058413 0.037500 0.706528
v -0.033711 0.037500 0.713894
v -0.092609 0.037500 0.684471
v -0.080223 0.037500 0.620758
v -0.042215 0.037500 0.545742
v -0.045168 0.037500 0.487534
v -0.134760 0.037500 0.466560
v -0.504690 0.037500 0.500977
v -0.551937 0.037500 0.139790
v -0.534399 0.037500 0.053761
v -0.476297 0.037500 0.053299
v -0.396225 0.037500 0.090691
v -0.320461 0.037500 0.097054
v -0.272057 0.037500 0.025860
v -0.261137 0.037500 -0.079987
v -0.294598 0.037500 -0.155243
v -0.372110 0.037500 -0.156029
v -0.464466 0.037500 -0.123859
v -0.535234 0.037500 -0.121601
v -0.558001 0.037500 -0.193295
v -0.546446 0.037500 -0.307648
v -0.504690 0.037500 -0.500935
v -0.287647 -0.037500 -0.452858
v -0.157619 -0.037500 -0.436974
v -0.072386 -0.037500 -0.455647
v -0.067066 -0.037500 -0.523785
v -0.098442 -0.037500 -0.616936
v -0.103701 -0.037500 -0.700798
v -0.040234 -0.037498 -0.746662
v 0.053762 -0.037500 -0.748135
v 0.119898 -0.037500 -0.704411
v 0.119417 -0.037500 -0.620770
v 0.092081 -0.037500 -0.526501
v 0.097290 -0.037500 -0.456947
v 0.176126 -0.037500 -0.437401
v 0.296349 -0.037498 -0.452930
v 0.497007 -0.037500 -0.500935
v 0.525421 -0.037500 -0.298485
v 0.529892 -0.037500 -0.178249
v 0.504560 -0.037500 -0.101814
v 0.438263 -0.037500 -0.102123
v 0.352610 -0.037500 -0.135571
v 0.277449 -0.037500 -0.139435
v 0.237965 -0.037500 -0.071838
v 0.240694 -0.037498 0.025597
v 0.287525 -0.037500 0.090382
v 0.374048 -0.037498 0.081650
v 0.470764 -0.037500 0.044987
v 0.541889 -0.037500 0.047596
v 0.561857 -0.037500 0.135784
v 0.545984 -0.037498 0.272247
v 0.497007 -0.037500 0.500977
v 0.183544 -0.037500 0.451756
v 0.106186 -0.037500 0.466923
v 0.100363 -0.037500 0.521095
v 0.125912 -0.037500 0.595798
v 0.124779 -0.037500 0.664989
v 0.058413 -0.037500 0.706528
v -0.033711 -0.037500 0.713894
v -0.092609 -0.037500 0.684471
v -0.080223 -0.037500 0.620758
v -0.042215 -0.037500 0.545742
v -0.045168 -0.037500 0.487534
v -0.134760 -0.037500 0.466560
v -0.504690 -0.037500 0.500977
v -0.551937 -0.037500 0.139790
v -0.534399 -0.037500 0.053761
v -0.476297 -0.037500 0.053299
v -0.396225 -0.037498 0.090691
v -0.320461 -0.037500 0.097054
v -0.272057 -0.037498 0.025860
v -0.261137 -0.037498 -0.079987
v -0.294598 -0.037500 -0.155243
v -0.372110 -0.037500 -0.156029
v -0.464466 -0.037500 -0.123859
v -0.535234 -0.037498 -0.121601
v -0.558001 -0.037500 -0.193295
v -0.546446 -0.037498 -0.307648
v -0.504690 -0.037498 -0.500935
v 0.541889 0.037500 0.047596
v 0.541889 0.037500 0.047596
v 0.561857 0.037500 0.135784
v 0.545984 0.037500 0.272247
v 0.470764 0.037500 0.044987
v 0.525421 0.037500 -0.298485
v 0.529892 0.037500 -0.178249
v 0.504560 0.037500 -0.101814
v 0.504560 0.037500 -0.101814
v 0.497007 0.037500 -0.500935
v 0.497007 0.037500 -0.500935
v 0.438263 0.037500 -0.102123
v 0.497007 0.037500 0.500977
v 0.497007 0.037500 0.500977
v 0.374048 0.037500 0.081650
v 0.352610 0.037500 -0.135571
v 0.296349 0.037500 -0.452930
v 0.287525 0.037500 0.090382
v 0.277449 0.037500 -0.139435
v 0.277449 0.037500 -0.139435
v 0.183544 0.037500 0.451756
v 0.176126 0.037500 -0.437401
v 0.240694 0.037500 0.025597
v 0.237965 0.037500 -0.071838
v 0.106186 0.037500 0.466923
v 0.106186 0.037500 0.466923
v 0.097290 0.037500 -0.456947
v 0.097290 0.037500 -0.456947
v 0.100363 0.037500 0.521095
v 0.125912 0.037500 0.595798
v 0.124779 0.037500 0.664989
v 0.058413 0.037500 0.706528
v 0.053762 0.037500 -0.748135
v 0.119898 0.037500 -0.704411
v 0.119417 0.037500 -0.620770
v 0.092081 0.037500 -0.526501
v -0.033711 0.037500 0.713894
v -0.040234 0.037500 -0.746662
v -0.092609 0.037500 0.684471
v -0.092609 0.037500 0.684471
v -0.103701 0.037500 -0.700798
v -0.042215 0.037500 0.545742
v -0.045168 0.037500 0.487534
v -0.045168 0.037500 0.487534
v -0.080223 0.037500 0.620758
v -0.134760 0.037500 0.466560
v -0.098442 0.037500 -0.616936
v -0.067066 0.037500 -0.523785
v -0.072386 0.037500 -0.455647
v -0.072386 0.037500 -0.455647
v -0.157619 0.037500 -0.436974
v -0.287647 0.037500 -0.452858
v -0.261137 0.037500 -0.079987
v -0.294598 0.037500 -0.155243
v -0.294598 0.037500 -0.155243
v -0.272057 0.037500 0.025860
v -0.320461 0.037500 0.097054
v -0.320461 0.037500 0.097054
v -0.372110 0.037500 -0.156029
v -0.396225 0.037500 0.090691
v -0.464466 0.037500 -0.123859
v -0.476297 0.037500 0.053299
v -0.535234 0.037500 -0.121601
v -0.535234 0.037500 -0.121601
v -0.534399 0.037500 0.053761
v -0.534399 0.037500 0.053761
v -0.504690 0.037500 0.500977
v -0.504690 0.037500 0.500977
v -0.504690 0.037500 -0.500935
v -0.504690 0.037500 -0.500935
v -0.546446 0.037500 -0.307648
v -0.551937 0.037500 0.139790
v -0.558001 0.037500 -0.193295
v 0.541889 -0.037500 0.047596
v 0.541889 -0.037500 0.047596
v 0.561857 -0.037500 0.135784
v 0.545984 -0.037498 0.272247
v 0.470764 -0.037500 0.044987
v 0.525421 -0.037500 -0.298485
v 0.529892 -0.037500 -0.178249
v 0.504560 -0.037500 -0.101814
v 0.504560 -0.037500 -0.101814
v 0.497007 -0.037500 -0.500935
v 0.497007 -0.037500 -0.500935
v 0.438263 -0.037500 -0.102123
v 0.497007 -0.037500 0.500977
v 0.497007 -0.037500 0.500977
v 0.374048 -0.037498 0.081650
v 0.352610 -0.037500 -0.135571
v 0.296349 -0.037498 -0.452930
v 0.287525 -0.037500 0.090382
v 0.277449 -0.037500 -0.139435
v 0.277449 -0.037500 -0.139435
v 0.183544 -0.037500 0.451756
v 0.176126 -0.037500 -0.437401
v 0.240694 -0.037498 0.025597
v 0.237965 -0.037500 -0.071838
v 0.106186 -0.037500 0.466923
v 0.106186 -0.037500 0.466923
v 0.097290 -0.037500 -0.456947
v 0.097290 -0.037500 -0.456947
v 0.100363 -0.037500 0.521095
v 0.125912 -0.037500 0.595798
v 0.124779 -0.037500 0.664989
v 0.058413 -0.037500 0.706528
v 0.053762 -0.037500 -0.748135
v 0.119898 -0.037500 -0.704411
v 0.119417 -0.037500 -0.620770
v 0.092081 -0.037500 -0.526501
v -0.033711 -0.037500 0.713894
v -0.040234 -0.037498 -0.746662
v -0.092609 -0.037500 0.684471
v -0.092609 -0.037500 0.684471
v -0.103701 -0.037500 -0.700798
v -0.042215 -0.037500 0.545742
v -0.045168 -0.037500 0.487534
v -0.045168 -0.037500 0.487534
v -0.080223 -0.037500 0.620758
v -0.134760 -0.037500 0.466560
v -0.098442 -0.037500 -0.616936
v -0.067066 -0.037500 -0.523785
v -0.072386 -0.037500 -0.455647
v -0.072386 -0.037500 -0.455647
v -0.157619 -0.037500 -0.436974
v -0.287647 -0.037500 -0.452858
v -0.261137 -0.037498 -0.079987
v -0.294598 -0.037500 -0.155243
v -0.294598 -0.037500 -0.155243
v -0.272057 -0.037498 0.025860
v -0.320461 -0.037500 0.097054
v -0.320461 -0.037500 0.097054
v -0.372110 -0.037500 -0.156029
v -0.396225 -0.037498 0.090691
v -0.464466 -0.037500 -0.123859
v -0.476297 -0.037500 0.053299
v -0.535234 -0.037498 -0.121601
v -0.535234 -0.037498 -0.121601
v -0.534399 -0.037500 0.053761
v -0.534399 -0.037500 0.053761
v -0.504690 -0.037500 0.500977
v -0.504690 -0.037500 0.500977
v -0.504690 -0.037498 -0.500935
v -0.504690 -0.037498 -0.500935
v -0.546446 -0.037498 -0.307648
v -0.551937 -0.037500 0.139790
v -0.558001 -0.037500 -0.193295
vt 0.500000 0.500000
vt 0.500000 0.500000
vt 0.500000 0.500000
vt 0.500000 0.500000
vt 0.500000 0.500000
vt 0.500000 0.500000
vt 0.500000 0.500000
vt 0.500000 0.500000
vt 0.500000 0.500000
vt 0.500000 0.500000
vt 0.500000 0.500000
vt 0.500000 0.500000
vt 0.500000 0.500000
vt 0.500000 0.500000
vt 0.500000 0.500000
vt 0.500000 0.500000
vt 0.500000 0.500000
vt 0.500000 0.500000
vt 0.500000 0.500000
vt 0.500000 0.500000
vt 0.500000 0.500000
vt 0.500000 0.500000
vt 0.500000 0.500000
vt 0.500000 0.500000
vt 0.500000 0.500000
vt 0.500000 0.500000
vt 0.500000 0.500000
vt 0.500000 0.500000
vt 0.500000 0.500000
vt 0.500000 0.500000
vt 0.500000 0.500000
vt 0.500000 0.500000
vt 0.500000 0.500000
vt 0.500000 0.500000
vt 0.500000 0.500000
vt 0.500000 0.500000
vt 0.500000 0.500000
vt 0.500000 0.500000
vt 0.500000 0.500000
vt 0.500000 0.500000
vt 0.500000 0.500000
vt 0.500000 0.500000
vt 0.500000 0.500000
vt 0.500000 0.500000
vt 0.500000 0.500000
vt 0.500000 0.500000
vt 0.500000 0.500000
vt 0.500000 0.500000
vt 0.500000 0.500000
vt 0.500000 0.500000
vt 0.500000 0.500000
vt 0.500000 0.500000
vt 0.500000 0.500000
vt 0.500000 0.500000
vt 0.500000 0.500000
vt 0.500000 0.500000
vt 0.500000 0.500000
vt 0.500000 0.500000
vt 0.500000 0.500000
vt 0.500000 0.500000
vt 0.500000 0.500000
vt 0.500000 0.500000
vt 0.500000 0.500000
vt 0.500000 0.500000
vt 0.500000 0.500000
vt 0.500000 0.500000
vt 0.500000 0.500000
vt 0.500000 0.500000
vt 0.500000 0.500000
vt 0.500000 0.500000
vt 0.500000 0.500000
vt 0.500000 0.500000
vt 0.500000 0.500000
vt 0.500000 0.500000
vt 0.500000 0.500000
vt 0.500000 0.500000
vt 0.500000 0.500000
vt 0.500000 0.500000
vt 0.500000 0.500000
vt 0.500000 0.500000
vt 0.500000 0.500000
vt 0.500000 0.500000
vt 0.500000 0.500000
vt 0.500000 0.500000
vt 0.500000 0.500000
vt 0.500000 0.500000
vt 0.500000 0.500000
vt 0.500000 0.500000
vt 0.500000 0.500000
vt 0.500000 0.500000
vt 0.500000 0.500000
vt 0.500000 0.500000
vt 0.500000 0.500000
vt 0.500000 0.500000
vt 0.500000 0.500000
vt 0.500000 0.500000
vt 0.500000 0.500000
vt 0.500000 0.500000
vt 0.500000 0.500000
vt 0.500000 0.500000
vt 0.500000 0.500000
vt 0.500000 0.500000
vt 0.500000 0.500000
vt 0.500000 0.500000
vt 0.500000 0.500000
vt 0.500000 0.500000
vt 0.500000 0.500000
vt 0.500000 0.500000
vt 0.500000 0.500000
vt 0.500000 0.500000
vt 0.500000 0.500000
vt 0.500000 0.500000
vt 0.500000 0.500000
vt 0.500000 0.500000
vt 0.500000 0.500000
vt 0.500000 0.500000
vt 0.500000 0.500000
vt 0.500000 0.500000
vt 0.500000 0.500000
vt 0.500000 0.500000
vt 0.500000 0.500000
vt 0.500000 0.500000
vt 0.500000 0.500000
vt 0.500000 0.500000
vt 0.500000 0.500000
vt 0.500000 0.500000
vt 0.500000 0.500000
vt 0.500000 0.500000
vt 0.500000 0.500000
vt 0.500000 0.500000
vt 0.500000 0.500000
vt 0.500000 0.500000
vt 0.500000 0.500000
vt 0.500000 0.500000
vt 0.500000 0.500000
vt 0.500000 0.500000
vt 0.500000 0.500000
vt 0.500000 0.500000
vt 0.500000 0.500000
vt 0.500000 0.500000
vt 0.500000 0.500000
vt 0.500000 0.500000
vt 0.500000 0.500000
vt 0.500000 0.500000
vt 0.500000 0.500000
vt 0.500000 0.500000
vt 0.500000 0.500000
vt 0.500000 0.500000
vt 0.500000 0.500000
vt 0.500000 0.500000
vt 0.500000 0.500000
vt 0.500000 0.500000
vt 0.500000 0.500000
vt 0.500000 0.500000
vt 0.500000 0.500000
vt 0.500000 0.500000
vt 0.500000 0.500000
vt 0.500000 0.500000
vt 0.500000 0.500000
vt 0.500000 0.500000
vt 0.500000 0.500000
vt 0.500000 0.500000
vt 0.500000 0.500000
vt 0.500000 0.500000
vt 0.500000 0.500000
vt 0.500000 0.500000
vt 0.500000 0.500000
vt 0.500000 0.500000
vt 0.500000 0.500000
vt 0.500000 0.500000
vt 0.500000 0.500000
vt 0.500000 0.500000
vt 0.500000 0.500000
vt 0.500000 0.500000
vt 0.500000 0.500000
vt 0.500000 0.500000
vt 0.500000 0.500000
vt 0.500000 0.500000
vt 0.500000 0.500000
vt 0.500000 0.500000
vt 0.500000 0.500000
vt 0.500000 0.500000
vt 0.500000 0.500000
vt 0.500000 0.500000
vt 0.500000 0.500000
vt 0.500000 0.500000
vt 0.500000 0.500000
vt 0.500000 0.500000
vt 0.500000 0.500000
vt 0.500000 0.500000
vt 0.500000 0.500000
vt 0.500000 0.500000
vt 0.500000 0.500000
vt 0.500000 0.500000
vt 0.500000 0.500000
vt 0.500000 0.500000
vt 0.500000 0.500000
vt 0.500000 0.500000
vt 0.500000 0.500000
vt 0.500000 0.500000
vt 0.500000 0.500000
vt 0.500000 0.500000
vt 0.500000 0.500000
vt 0.963055 0.390687
vt 0.961679 0.390133
vt 0.961639 0.388161
vt 0.970229 0.378598
vt 0.969064 0.377890
vt 0.969448 0.373936
vt 0.958516 0.366937
vt 0.959690 0.367865
vt 0.953831 0.373099
vt 0.953811 0.377804
vt 0.958763 0.382800
vt 0.954116 0.379991
vt 0.953875 0.367130
vt 0.956139 0.359953
vt 0.958504 0.364788
vt 0.972071 0.374172
vt 0.971956 0.376726
vt 0.970618 0.372882
vt 0.965183 0.390247
vt 0.962211 0.385479
vt 0.958823 0.384885
vt 0.958157 0.389801
vt 0.956282 0.389677
vt 0.961768 0.361898
vt 0.961776 0.360287
vt 0.963117 0.359801
vt 0.968219 0.378051
vt 0.968540 0.373854
vt 0.949270 0.376597
vt 0.949293 0.373991
vt 0.951316 0.372377
vt 0.954122 0.370736
vt 0.952769 0.373247
vt 0.953874 0.383324
vt 0.971308 0.378567
vt 0.951256 0.378418
vt 0.959817 0.381705
vt 0.967982 0.380196
vt 0.968750 0.388889
vt 0.959041 0.360264
vt 0.959006 0.362227
vt 0.957923 0.359633
vt 0.961336 0.381781
vt 0.962451 0.366220
vt 0.968213 0.371370
vt 0.961340 0.367562
vt 0.962347 0.383080
vt 0.953125 0.388889
vt 0.959345 0.387260
vt 0.959349 0.389098
vt 0.952726 0.377660
vt 0.949952 0.378431
vt 0.953125 0.361111
vt 0.968750 0.361111
vt 0.962352 0.364119
vt 0.971612 0.372538
vt 0.950008 0.372231
vn 0.0000 -1.0000 0.0000
vn 0.9753 0.0000 -0.2208
vn 0.9933 0.0000 0.1155
vn 0.0367 0.0000 -0.9993
vn 0.9993 0.0000 -0.0372
vn 0.9492 0.0000 0.3146
vn 0.9903 0.0000 -0.1390
vn -0.0047 0.0000 1.0000
vn 0.9778 0.0000 0.2094
vn -0.3545 0.0000 -0.9351
vn -0.3637 0.0000 0.9315
vn -0.2327 0.0000 -0.9726
vn -0.1004 0.0000 -0.9949
vn -0.0513 0.0000 0.9987
vn -0.1551 0.0000 0.9879
vn -0.1281 0.0000 -0.9918
vn 0.8104 0.0000 -0.5858
vn 0.8635 0.0000 0.5044
vn 0.9996 0.0000 -0.0280
vn 0.1924 0.0000 0.9813
vn 0.2407 0.0000 -0.9706
vn 0.9462 0.0000 -0.3236
vn 0.9999 0.0000 0.0164
vn 0.5305 0.0000 0.8477
vn 0.5515 0.0000 -0.8342
vn 1.0000 0.0000 0.0057
vn 0.9604 0.0000 0.2785
vn 0.9943 0.0000 0.1069
vn 0.9972 0.0000 -0.0747
vn 0.0797 0.0000 0.9968
vn -0.0157 0.0000 -0.9999
vn -0.4469 0.0000 0.8946
vn -0.5857 0.0000 -0.8105
vn -0.9987 0.0000 0.0507
vn -0.8920 0.0000 -0.4520
vn -0.9816 0.0000 -0.1908
vn -0.2279 0.0000 0.9737
vn -0.9980 0.0000 0.0626
vn -0.9477 0.0000 0.3192
vn -0.9970 0.0000 -0.0778
vn -0.2140 0.0000 -0.9768
vn 0.1213 0.0000 -0.9926
vn -0.9138 0.0000 0.4063
vn -0.9947 0.0000 -0.1026
vn -0.8270 0.0000 -0.5623
vn -0.0101 0.0000 0.9999
vn 0.0837 0.0000 -0.9965
vn 0.3289 0.0000 0.9444
vn 0.4231 0.0000 -0.9061
vn 0.0319 0.0000 0.9995
vn -0.0079 0.0000 -1.0000
vn 0.0926 0.0000 0.9957
vn 0.2163 0.0000 -0.9763
vn -0.9775 0.0000 -0.2112
vn -0.9798 0.0000 -0.1998
vn -0.9916 0.0000 0.1297
vn -0.9949 0.0000 -0.1005
vn -0.9531 0.0000 0.3027
vn 0.0000 1.0000 0.0000
usemtl BackMat.001
s off
f 190/1/1 192/2/1 188/3/1
f 217/4/1 229/5/1 216/6/1
f 241/7/1 236/8/1 240/9/1
f 214/10/1 209/11/1 206/12/1
f 239/13/1 246/14/1 258/15/1
f 224/16/1 232/17/1 219/18/1
f 191/19/1 202/20/1 190/1/1
f 219/18/1 232/17/1 229/5/1
f 203/21/1 193/22/1 194/23/1
f 249/24/1 259/25/1 252/26/1
f 216/6/1 230/27/1 212/28/1
f 220/29/1 234/30/1 225/31/1
f 241/7/1 238/32/1 236/8/1
f 236/8/1 235/33/1 214/10/1
f 206/12/1 204/34/1 203/21/1
f 219/18/1 217/4/1 218/35/1
f 222/36/1 234/30/1 220/29/1
f 240/9/1 236/8/1 211/37/1
f 208/38/1 191/19/1 200/39/1
f 250/40/1 260/41/1 248/42/1
f 230/27/1 210/43/1 212/28/1
f 244/44/1 243/45/1 233/46/1
f 205/47/1 202/20/1 191/19/1
f 193/22/1 204/34/1 197/48/1
f 211/37/1 214/10/1 206/12/1
f 199/49/1 194/23/1 195/50/1
f 223/51/1 235/33/1 222/36/1
f 214/10/1 235/33/1 223/51/1
f 238/32/1 241/7/1 239/13/1
f 222/36/1 220/29/1 221/52/1
f 236/8/1 214/10/1 211/37/1
f 239/13/1 258/15/1 256/53/1
f 246/14/1 239/13/1 241/7/1
f 235/33/1 234/30/1 222/36/1
f 254/54/1 244/44/1 233/46/1
f 212/28/1 210/43/1 205/47/1
f 247/55/1 259/25/1 249/24/1
f 232/17/1 224/16/1 226/56/1
f 203/21/1 194/23/1 199/49/1
f 248/42/1 260/41/1 246/14/1
f 204/34/1 206/12/1 209/11/1
f 212/28/1 205/47/1 208/38/1
f 193/22/1 203/21/1 204/34/1
f 225/31/1 234/30/1 228/57/1
f 229/5/1 230/27/1 216/6/1
f 202/20/1 192/2/1 190/1/1
f 259/25/1 247/55/1 254/54/1
f 210/43/1 240/9/1 211/37/1
f 247/55/1 244/44/1 254/54/1
f 243/45/1 240/9/1 210/43/1
f 233/46/1 243/45/1 230/27/1
f 229/5/1 217/4/1 219/18/1
f 258/15/1 246/14/1 260/41/1
f 208/38/1 205/47/1 191/19/1
f 243/45/1 210/43/1 230/27/1
f 116/58/2 28/59/2 85/60/2 189/61/2
f 28/59/3 29/62/3 86/63/3 85/60/3
f 26/64/4 27/65/4 84/66/4 83/67/4
f 16/68/5 17/69/5 74/70/5 73/71/5
f 17/69/6 123/72/6 196/73/6 74/70/6
f 125/74/7 16/68/7 73/71/7 198/75/7
f 18/76/8 19/77/8 76/78/8 75/79/8
f 29/62/9 128/80/9 201/81/9 86/63/9
f 25/82/10 26/64/10 83/67/10 82/83/10
f 19/77/11 20/84/11 77/85/11 76/78/11
f 14/86/12 15/87/12 72/88/12 71/89/12
f 24/90/13 25/82/13 82/83/13 81/91/13
f 20/84/14 134/92/14 207/93/14 77/85/14
f 30/94/15 31/95/15 88/96/15 87/97/15
f 13/98/16 14/86/16 71/89/16 70/99/16
f 23/100/17 24/90/17 81/91/17 80/101/17
f 21/102/18 22/103/18 79/104/18 78/105/18
f 22/103/19 23/100/19 80/101/19 79/104/19
f 31/95/20 140/106/20 213/107/20 88/96/20
f 142/108/21 13/98/21 70/99/21 215/109/21
f 33/110/22 34/111/22 91/112/22 90/113/22
f 34/111/23 35/114/23 92/115/23 91/112/23
f 35/114/24 36/116/24 93/117/24 92/115/24
f 8/118/25 9/119/25 66/120/25 65/121/25
f 9/119/26 10/122/26 67/123/26 66/120/26
f 10/122/27 11/124/27 68/125/27 67/123/27
f 32/126/28 33/110/28 90/113/28 89/127/28
f 11/124/29 12/128/29 69/129/29 68/125/29
f 36/116/30 37/130/30 94/131/30 93/117/30
f 7/132/31 8/118/31 65/121/31 64/133/31
f 37/130/32 154/134/32 227/135/32 94/131/32
f 6/136/33 7/132/33 64/133/33 63/137/33
f 40/138/34 158/139/34 231/140/34 97/141/34
f 39/142/35 40/138/35 97/141/35 96/143/35
f 38/144/36 39/142/36 96/143/36 95/145/36
f 41/146/37 42/147/37 99/148/37 98/149/37
f 5/150/38 6/136/38 63/137/38 62/151/38
f 4/152/39 5/150/39 62/151/39 61/153/39
f 164/154/40 4/152/40 61/153/40 237/155/40
f 2/156/41 3/157/41 60/158/41 59/159/41
f 1/160/42 2/156/42 59/159/42 58/161/42
f 50/162/43 169/163/43 242/164/43 107/165/43
f 49/166/44 50/162/44 107/165/44 106/167/44
f 172/168/45 49/166/45 106/167/45 245/169/45
f 51/170/46 52/171/46 109/172/46 108/173/46
f 47/174/47 48/175/47 105/176/47 104/177/47
f 52/171/48 53/178/48 110/179/48 109/172/48
f 46/180/49 47/174/49 104/177/49 103/181/49
f 53/178/50 178/182/50 251/183/50 110/179/50
f 180/184/51 46/180/51 103/181/51 253/185/51
f 42/147/52 182/186/52 255/187/52 99/148/52
f 184/188/53 1/160/53 58/161/53 257/189/53
f 56/190/54 57/191/54 114/192/54 113/193/54
f 44/194/55 45/195/55 102/196/55 101/197/55
f 43/198/56 44/194/56 101/197/56 100/199/56
f 55/200/57 56/190/57 113/193/57 112/201/57
f 54/202/58 55/200/58 112/201/58 111/203/58
usemtl FrontMat.001
f 117/204/59 115/205/59 119/206/59
f 144/207/59 143/208/59 156/209/59
f 168/210/59 167/211/59 163/212/59
f 141/213/59 133/214/59 136/215/59
f 166/216/59 185/217/59 173/218/59
f 151/219/59 146/220/59 159/221/59
f 118/222/59 117/204/59 129/223/59
f 146/220/59 156/209/59 159/221/59
f 130/224/59 121/225/59 120/226/59
f 176/227/59 179/228/59 186/229/59
f 143/208/59 139/230/59 157/231/59
f 147/232/59 152/233/59 161/234/59
f 168/210/59 163/212/59 165/235/59
f 163/212/59 141/213/59 162/236/59
f 133/214/59 130/224/59 131/237/59
f 146/220/59 145/238/59 144/207/59
f 149/239/59 147/232/59 161/234/59
f 167/211/59 138/240/59 163/212/59
f 135/241/59 127/242/59 118/222/59
f 177/243/59 175/244/59 187/245/59
f 157/231/59 139/230/59 137/246/59
f 171/247/59 160/248/59 170/249/59
f 132/250/59 118/222/59 129/223/59
f 120/226/59 124/251/59 131/237/59
f 138/240/59 133/214/59 141/213/59
f 126/252/59 122/253/59 121/225/59
f 150/254/59 149/239/59 162/236/59
f 141/213/59 150/254/59 162/236/59
f 165/235/59 166/216/59 168/210/59
f 149/239/59 148/255/59 147/232/59
f 163/212/59 138/240/59 141/213/59
f 166/216/59 183/256/59 185/217/59
f 173/218/59 168/210/59 166/216/59
f 162/236/59 149/239/59 161/234/59
f 181/257/59 160/248/59 171/247/59
f 139/230/59 132/250/59 137/246/59
f 174/258/59 176/227/59 186/229/59
f 159/221/59 153/259/59 151/219/59
f 130/224/59 126/252/59 121/225/59
f 175/244/59 173/218/59 187/245/59
f 131/237/59 136/215/59 133/214/59
f 139/230/59 135/241/59 132/250/59
f 120/226/59 131/237/59 130/224/59
f 152/233/59 155/260/59 161/234/59
f 156/209/59 143/208/59 157/231/59
f 129/223/59 117/204/59 119/206/59
f 186/229/59 181/257/59 174/258/59
f 137/246/59 138/240/59 167/211/59
f 174/258/59 181/257/59 171/247/59
f 170/249/59 137/246/59 167/211/59
f 160/248/59 157/231/59 170/249/59
f 156/209/59 146/220/59 144/207/59
f 185/217/59 187/245/59 173/218/59
f 135/241/59 118/222/59 132/250/59
f 170/249/59 157/231/59 137/246/59
