# Blender v2.83.1 OBJ File: 'jigsaw-64x36-3-step2.blend'
# www.blender.org
mtllib piece.142.mtl
o path4900
v 0.300763 0.037500 0.550137
v 0.179867 0.037500 0.550573
v 0.102177 0.037500 0.525537
v 0.100740 0.037500 0.466290
v 0.133474 0.037500 0.392823
v 0.139514 0.037500 0.332290
v 0.077815 0.037500 0.306742
v -0.013393 0.037500 0.317824
v -0.076060 0.037500 0.362077
v -0.072159 0.037500 0.432417
v -0.043755 0.037500 0.507289
v -0.052938 0.037500 0.561518
v -0.142241 0.037500 0.577287
v -0.497982 0.037500 0.530615
v -0.475600 0.037500 0.300208
v -0.474503 0.037500 0.161744
v -0.501503 0.037500 0.070012
v -0.566322 0.037500 0.062248
v -0.646914 0.037500 0.093986
v -0.713285 0.037500 0.100341
v -0.741467 0.037500 0.037176
v -0.731570 0.037500 -0.056659
v -0.689731 0.037500 -0.121568
v -0.624572 0.037500 -0.117930
v -0.554666 0.037500 -0.086028
v -0.501077 0.037500 -0.086111
v -0.478952 0.037500 -0.160031
v -0.497982 0.037500 -0.471294
v -0.274528 0.037500 -0.437444
v -0.141375 0.037500 -0.430269
v -0.055709 0.037500 -0.455080
v -0.054053 0.037500 -0.524254
v -0.090948 0.037500 -0.614353
v -0.100434 0.037500 -0.692980
v -0.037697 0.037500 -0.733356
v 0.057512 0.037500 -0.731181
v 0.124297 0.037500 -0.687770
v 0.122158 0.037500 -0.609316
v 0.092163 0.037500 -0.521450
v 0.095777 0.037500 -0.454677
v 0.175540 0.037500 -0.430968
v 0.298294 0.037500 -0.438175
v 0.503716 0.037500 -0.471294
v 0.465821 0.037500 -0.260765
v 0.456470 0.037500 -0.135681
v 0.480402 0.037500 -0.056044
v 0.550827 0.037500 -0.056188
v 0.643394 0.037500 -0.091428
v 0.724364 0.037500 -0.097322
v 0.765750 0.037500 -0.030731
v 0.762567 0.037500 0.066308
v 0.715579 0.037500 0.130468
v 0.631040 0.037500 0.120260
v 0.537168 0.037500 0.081547
v 0.467672 0.037500 0.082026
v 0.446656 0.037500 0.168414
v 0.459800 0.037500 0.303509
v 0.503716 0.037500 0.530615
v 0.300763 -0.037500 0.550137
v 0.179867 -0.037500 0.550573
v 0.102177 -0.037500 0.525537
v 0.100740 -0.037500 0.466290
v 0.133474 -0.037498 0.392823
v 0.139514 -0.037500 0.332290
v 0.077815 -0.037500 0.306742
v -0.013393 -0.037500 0.317824
v -0.076060 -0.037500 0.362077
v -0.072159 -0.037500 0.432417
v -0.043755 -0.037500 0.507289
v -0.052938 -0.037500 0.561518
v -0.142241 -0.037500 0.577287
v -0.497982 -0.037500 0.530615
v -0.475600 -0.037500 0.300208
v -0.474503 -0.037500 0.161744
v -0.501503 -0.037500 0.070012
v -0.566322 -0.037500 0.062248
v -0.646914 -0.037498 0.093986
v -0.713285 -0.037500 0.100341
v -0.741467 -0.037500 0.037176
v -0.731570 -0.037498 -0.056659
v -0.689731 -0.037500 -0.121568
v -0.624572 -0.037500 -0.117930
v -0.554666 -0.037500 -0.086028
v -0.501077 -0.037500 -0.086111
v -0.478952 -0.037498 -0.160031
v -0.497982 -0.037500 -0.471294
v -0.274528 -0.037500 -0.437444
v -0.141375 -0.037498 -0.430269
v -0.055709 -0.037500 -0.455080
v -0.054053 -0.037500 -0.524254
v -0.090948 -0.037500 -0.614353
v -0.100434 -0.037500 -0.692980
v -0.037697 -0.037500 -0.733356
v 0.057512 -0.037500 -0.731181
v 0.124297 -0.037500 -0.687770
v 0.122158 -0.037500 -0.609316
v 0.092163 -0.037498 -0.521450
v 0.095777 -0.037500 -0.454677
v 0.175540 -0.037498 -0.430968
v 0.298294 -0.037500 -0.438175
v 0.503716 -0.037500 -0.471294
v 0.465821 -0.037500 -0.260765
v 0.456470 -0.037498 -0.135681
v 0.480402 -0.037498 -0.056044
v 0.550827 -0.037500 -0.056188
v 0.643394 -0.037500 -0.091428
v 0.724364 -0.037500 -0.097322
v 0.765750 -0.037500 -0.030731
v 0.762567 -0.037500 0.066308
v 0.715579 -0.037500 0.130468
v 0.631040 -0.037500 0.120260
v 0.537168 -0.037500 0.081547
v 0.467672 -0.037500 0.082026
v 0.446656 -0.037498 0.168414
v 0.459800 -0.037500 0.303509
v 0.503716 -0.037500 0.530615
v 0.724364 0.037500 -0.097322
v 0.724364 0.037500 -0.097322
v 0.765750 0.037500 -0.030731
v 0.762567 0.037500 0.066308
v 0.715579 0.037500 0.130468
v 0.715579 0.037500 0.130468
v 0.643394 0.037500 -0.091428
v 0.631040 0.037500 0.120260
v 0.550827 0.037500 -0.056188
v 0.537168 0.037500 0.081547
v 0.480402 0.037500 -0.056044
v 0.480402 0.037500 -0.056044
v 0.467672 0.037500 0.082026
v 0.467672 0.037500 0.082026
v 0.503716 0.037500 -0.471294
v 0.503716 0.037500 -0.471294
v 0.465821 0.037500 -0.260765
v 0.459800 0.037500 0.303509
v 0.503716 0.037500 0.530615
v 0.503716 0.037500 0.530615
v 0.456470 0.037500 -0.135681
v 0.446656 0.037500 0.168414
v 0.300763 0.037500 0.550137
v 0.298294 0.037500 -0.438175
v 0.179867 0.037500 0.550573
v 0.175540 0.037500 -0.430968
v 0.133474 0.037500 0.392823
v 0.139514 0.037500 0.332290
v 0.139514 0.037500 0.332290
v 0.102177 0.037500 0.525537
v 0.102177 0.037500 0.525537
v 0.095777 0.037500 -0.454677
v 0.095777 0.037500 -0.454677
v 0.077815 0.037500 0.306742
v 0.100740 0.037500 0.466290
v 0.057512 0.037500 -0.731181
v 0.124297 0.037500 -0.687770
v 0.122158 0.037500 -0.609316
v 0.092163 0.037500 -0.521450
v -0.013393 0.037500 0.317824
v -0.037697 0.037500 -0.733356
v -0.076060 0.037500 0.362077
v -0.100434 0.037500 -0.692980
v -0.100434 0.037500 -0.692980
v -0.055709 0.037500 -0.455080
v -0.055709 0.037500 -0.455080
v -0.054053 0.037500 -0.524254
v -0.072159 0.037500 0.432417
v -0.043755 0.037500 0.507289
v -0.052938 0.037500 0.561518
v -0.052938 0.037500 0.561518
v -0.142241 0.037500 0.577287
v -0.090948 0.037500 -0.614353
v -0.141375 0.037500 -0.430269
v -0.274528 0.037500 -0.437444
v -0.497982 0.037500 -0.471294
v -0.497982 0.037500 -0.471294
v -0.475600 0.037500 0.300208
v -0.474503 0.037500 0.161744
v -0.497982 0.037500 0.530615
v -0.497982 0.037500 0.530615
v -0.501503 0.037500 0.070012
v -0.501503 0.037500 0.070012
v -0.501077 0.037500 -0.086111
v -0.501077 0.037500 -0.086111
v -0.478952 0.037500 -0.160031
v -0.554666 0.037500 -0.086028
v -0.566322 0.037500 0.062248
v -0.624572 0.037500 -0.117930
v -0.646914 0.037500 0.093986
v -0.689731 0.037500 -0.121568
v -0.689731 0.037500 -0.121568
v -0.713285 0.037500 0.100341
v -0.713285 0.037500 0.100341
v -0.731570 0.037500 -0.056659
v -0.741467 0.037500 0.037176
v 0.724364 -0.037500 -0.097322
v 0.724364 -0.037500 -0.097322
v 0.765750 -0.037500 -0.030731
v 0.762567 -0.037500 0.066308
v 0.715579 -0.037500 0.130468
v 0.715579 -0.037500 0.130468
v 0.643394 -0.037500 -0.091428
v 0.631040 -0.037500 0.120260
v 0.550827 -0.037500 -0.056188
v 0.537168 -0.037500 0.081547
v 0.480402 -0.037498 -0.056044
v 0.480402 -0.037498 -0.056044
v 0.467672 -0.037500 0.082026
v 0.467672 -0.037500 0.082026
v 0.503716 -0.037500 -0.471294
v 0.503716 -0.037500 -0.471294
v 0.465821 -0.037500 -0.260765
v 0.459800 -0.037500 0.303509
v 0.503716 -0.037500 0.530615
v 0.503716 -0.037500 0.530615
v 0.456470 -0.037498 -0.135681
v 0.446656 -0.037498 0.168414
v 0.300763 -0.037500 0.550137
v 0.298294 -0.037500 -0.438175
v 0.179867 -0.037500 0.550573
v 0.175540 -0.037498 -0.430968
v 0.133474 -0.037498 0.392823
v 0.139514 -0.037500 0.332290
v 0.139514 -0.037500 0.332290
v 0.102177 -0.037500 0.525537
v 0.102177 -0.037500 0.525537
v 0.095777 -0.037500 -0.454677
v 0.095777 -0.037500 -0.454677
v 0.077815 -0.037500 0.306742
v 0.100740 -0.037500 0.466290
v 0.057512 -0.037500 -0.731181
v 0.124297 -0.037500 -0.687770
v 0.122158 -0.037500 -0.609316
v 0.092163 -0.037498 -0.521450
v -0.013393 -0.037500 0.317824
v -0.037697 -0.037500 -0.733356
v -0.076060 -0.037500 0.362077
v -0.100434 -0.037500 -0.692980
v -0.100434 -0.037500 -0.692980
v -0.055709 -0.037500 -0.455080
v -0.055709 -0.037500 -0.455080
v -0.054053 -0.037500 -0.524254
v -0.072159 -0.037500 0.432417
v -0.043755 -0.037500 0.507289
v -0.052938 -0.037500 0.561518
v -0.052938 -0.037500 0.561518
v -0.142241 -0.037500 0.577287
v -0.090948 -0.037500 -0.614353
v -0.141375 -0.037498 -0.430269
v -0.274528 -0.037500 -0.437444
v -0.497982 -0.037500 -0.471294
v -0.497982 -0.037500 -0.471294
v -0.475600 -0.037500 0.300208
v -0.474503 -0.037500 0.161744
v -0.497982 -0.037500 0.530615
v -0.497982 -0.037500 0.530615
v -0.501503 -0.037500 0.070012
v -0.501503 -0.037500 0.070012
v -0.501077 -0.037500 -0.086111
v -0.501077 -0.037500 -0.086111
v -0.478952 -0.037498 -0.160031
v -0.554666 -0.037500 -0.086028
v -0.566322 -0.037500 0.062248
v -0.624572 -0.037500 -0.117930
v -0.646914 -0.037498 0.093986
v -0.689731 -0.037500 -0.121568
v -0.689731 -0.037500 -0.121568
v -0.713285 -0.037500 0.100341
v -0.713285 -0.037500 0.100341
v -0.731570 -0.037498 -0.056659
v -0.741467 -0.037500 0.037176
vt 0.500000 0.500000
vt 0.500000 0.500000
vt 0.500000 0.500000
vt 0.500000 0.500000
vt 0.500000 0.500000
vt 0.500000 0.500000
vt 0.500000 0.500000
vt 0.500000 0.500000
vt 0.500000 0.500000
vt 0.500000 0.500000
vt 0.500000 0.500000
vt 0.500000 0.500000
vt 0.500000 0.500000
vt 0.500000 0.500000
vt 0.500000 0.500000
vt 0.500000 0.500000
vt 0.500000 0.500000
vt 0.500000 0.500000
vt 0.500000 0.500000
vt 0.500000 0.500000
vt 0.500000 0.500000
vt 0.500000 0.500000
vt 0.500000 0.500000
vt 0.500000 0.500000
vt 0.500000 0.500000
vt 0.500000 0.500000
vt 0.500000 0.500000
vt 0.500000 0.500000
vt 0.500000 0.500000
vt 0.500000 0.500000
vt 0.500000 0.500000
vt 0.500000 0.500000
vt 0.500000 0.500000
vt 0.500000 0.500000
vt 0.500000 0.500000
vt 0.500000 0.500000
vt 0.500000 0.500000
vt 0.500000 0.500000
vt 0.500000 0.500000
vt 0.500000 0.500000
vt 0.500000 0.500000
vt 0.500000 0.500000
vt 0.500000 0.500000
vt 0.500000 0.500000
vt 0.500000 0.500000
vt 0.500000 0.500000
vt 0.500000 0.500000
vt 0.500000 0.500000
vt 0.500000 0.500000
vt 0.500000 0.500000
vt 0.500000 0.500000
vt 0.500000 0.500000
vt 0.500000 0.500000
vt 0.500000 0.500000
vt 0.500000 0.500000
vt 0.500000 0.500000
vt 0.500000 0.500000
vt 0.500000 0.500000
vt 0.500000 0.500000
vt 0.500000 0.500000
vt 0.500000 0.500000
vt 0.500000 0.500000
vt 0.500000 0.500000
vt 0.500000 0.500000
vt 0.500000 0.500000
vt 0.500000 0.500000
vt 0.500000 0.500000
vt 0.500000 0.500000
vt 0.500000 0.500000
vt 0.500000 0.500000
vt 0.500000 0.500000
vt 0.500000 0.500000
vt 0.500000 0.500000
vt 0.500000 0.500000
vt 0.500000 0.500000
vt 0.500000 0.500000
vt 0.500000 0.500000
vt 0.500000 0.500000
vt 0.500000 0.500000
vt 0.500000 0.500000
vt 0.500000 0.500000
vt 0.500000 0.500000
vt 0.500000 0.500000
vt 0.500000 0.500000
vt 0.500000 0.500000
vt 0.500000 0.500000
vt 0.500000 0.500000
vt 0.500000 0.500000
vt 0.500000 0.500000
vt 0.500000 0.500000
vt 0.500000 0.500000
vt 0.500000 0.500000
vt 0.500000 0.500000
vt 0.500000 0.500000
vt 0.500000 0.500000
vt 0.500000 0.500000
vt 0.500000 0.500000
vt 0.500000 0.500000
vt 0.500000 0.500000
vt 0.500000 0.500000
vt 0.500000 0.500000
vt 0.500000 0.500000
vt 0.500000 0.500000
vt 0.500000 0.500000
vt 0.500000 0.500000
vt 0.500000 0.500000
vt 0.500000 0.500000
vt 0.500000 0.500000
vt 0.500000 0.500000
vt 0.500000 0.500000
vt 0.500000 0.500000
vt 0.500000 0.500000
vt 0.500000 0.500000
vt 0.500000 0.500000
vt 0.500000 0.500000
vt 0.500000 0.500000
vt 0.500000 0.500000
vt 0.500000 0.500000
vt 0.500000 0.500000
vt 0.500000 0.500000
vt 0.500000 0.500000
vt 0.500000 0.500000
vt 0.500000 0.500000
vt 0.500000 0.500000
vt 0.500000 0.500000
vt 0.500000 0.500000
vt 0.500000 0.500000
vt 0.500000 0.500000
vt 0.500000 0.500000
vt 0.500000 0.500000
vt 0.500000 0.500000
vt 0.500000 0.500000
vt 0.500000 0.500000
vt 0.500000 0.500000
vt 0.500000 0.500000
vt 0.500000 0.500000
vt 0.500000 0.500000
vt 0.500000 0.500000
vt 0.500000 0.500000
vt 0.500000 0.500000
vt 0.500000 0.500000
vt 0.500000 0.500000
vt 0.500000 0.500000
vt 0.500000 0.500000
vt 0.500000 0.500000
vt 0.500000 0.500000
vt 0.500000 0.500000
vt 0.500000 0.500000
vt 0.500000 0.500000
vt 0.500000 0.500000
vt 0.500000 0.500000
vt 0.500000 0.500000
vt 0.500000 0.500000
vt 0.500000 0.500000
vt 0.500000 0.500000
vt 0.500000 0.500000
vt 0.500000 0.500000
vt 0.500000 0.500000
vt 0.500000 0.500000
vt 0.500000 0.500000
vt 0.500000 0.500000
vt 0.500000 0.500000
vt 0.500000 0.500000
vt 0.500000 0.500000
vt 0.500000 0.500000
vt 0.500000 0.500000
vt 0.500000 0.500000
vt 0.500000 0.500000
vt 0.500000 0.500000
vt 0.500000 0.500000
vt 0.500000 0.500000
vt 0.500000 0.500000
vt 0.500000 0.500000
vt 0.500000 0.500000
vt 0.500000 0.500000
vt 0.500000 0.500000
vt 0.500000 0.500000
vt 0.500000 0.500000
vt 0.500000 0.500000
vt 0.500000 0.500000
vt 0.500000 0.500000
vt 0.500000 0.500000
vt 0.500000 0.500000
vt 0.500000 0.500000
vt 0.500000 0.500000
vt 0.500000 0.500000
vt 0.500000 0.500000
vt 0.500000 0.500000
vt 0.500000 0.500000
vt 0.500000 0.500000
vt 0.500000 0.500000
vt 0.500000 0.500000
vt 0.500000 0.500000
vt 0.500000 0.500000
vt 0.500000 0.500000
vt 0.500000 0.500000
vt 0.500000 0.500000
vt 0.500000 0.500000
vt 0.500000 0.500000
vt 0.500000 0.500000
vt 0.500000 0.500000
vt 0.500000 0.500000
vt 0.500000 0.500000
vt 0.500000 0.500000
vt 0.500000 0.500000
vt 0.500000 0.500000
vt 0.500000 0.500000
vt 0.500000 0.500000
vt 0.500000 0.500000
vt 0.500000 0.500000
vt 0.215259 0.932634
vt 0.203378 0.928931
vt 0.203765 0.926556
vt 0.215431 0.930105
vt 0.206408 0.943394
vt 0.203125 0.944445
vt 0.203642 0.938748
vt 0.211754 0.943445
vt 0.209601 0.943798
vt 0.208359 0.943134
vt 0.208636 0.913156
vt 0.208579 0.911349
vt 0.209591 0.910189
vt 0.209132 0.916581
vt 0.209133 0.915095
vt 0.211446 0.914772
vt 0.215657 0.934345
vt 0.216601 0.934177
vt 0.219054 0.938816
vt 0.212350 0.947975
vt 0.212510 0.950320
vt 0.211509 0.951623
vt 0.211567 0.916569
vt 0.203653 0.922863
vt 0.207979 0.917194
vt 0.213101 0.942862
vt 0.215208 0.943227
vt 0.200973 0.933864
vt 0.200894 0.927954
vt 0.202299 0.928977
vt 0.203384 0.933132
vt 0.203754 0.935344
vt 0.218750 0.944445
vt 0.219061 0.935464
vt 0.209049 0.948318
vt 0.209599 0.945751
vt 0.202343 0.933032
vt 0.215157 0.917287
vt 0.218750 0.916667
vt 0.219478 0.926532
vt 0.211747 0.945372
vt 0.209996 0.951711
vt 0.208957 0.950563
vt 0.217219 0.928475
vt 0.199072 0.932071
vt 0.218671 0.933310
vt 0.217747 0.933270
vt 0.212997 0.917318
vt 0.216122 0.928367
vt 0.211941 0.912537
vt 0.199038 0.929431
vt 0.199749 0.933923
vt 0.218386 0.929263
vt 0.211055 0.909915
vt 0.219232 0.929008
vt 0.203125 0.916667
vt 0.199668 0.927691
vt 0.212040 0.910696
vn -0.0000 -1.0000 0.0000
vn 0.8493 0.0000 -0.5279
vn 0.9995 0.0000 0.0328
vn 0.8068 0.0000 0.5908
vn -0.0726 0.0000 -0.9974
vn -0.1199 0.0000 0.9928
vn -0.3558 0.0000 -0.9346
vn -0.3813 0.0000 0.9245
vn -0.0020 0.0000 -1.0000
vn 0.0069 0.0000 1.0000
vn 0.9842 0.0000 0.1772
vn 0.9818 0.0000 -0.1899
vn 0.9577 0.0000 -0.2878
vn 0.9717 0.0000 0.2364
vn 0.9972 0.0000 0.0745
vn 0.9953 0.0000 -0.0968
vn 0.0957 0.0000 0.9954
vn -0.1592 0.0000 -0.9873
vn 0.0036 0.0000 1.0000
vn -0.0586 0.0000 -0.9983
vn -0.9951 0.0000 -0.0993
vn -0.3067 0.0000 0.9518
vn 0.2849 0.0000 -0.9586
vn -0.3826 0.0000 0.9239
vn -0.9134 0.0000 -0.4070
vn -0.9997 0.0000 0.0242
vn 0.5450 0.0000 -0.8384
vn 0.9996 0.0000 0.0273
vn 0.9464 0.0000 0.3231
vn 0.9985 0.0000 -0.0540
vn 0.1206 0.0000 0.9927
vn 0.0228 0.0000 -0.9997
vn 0.5768 0.0000 0.8169
vn -0.5412 0.0000 -0.8409
vn -0.9997 0.0000 -0.0239
vn 0.9350 0.0000 -0.3547
vn 0.9860 0.0000 0.1670
vn 0.1739 0.0000 0.9848
vn -0.9928 0.0000 0.1198
vn -0.9254 0.0000 0.3789
vn -0.2782 0.0000 -0.9605
vn 0.9985 0.0000 -0.0554
vn 0.0538 0.0000 -0.9986
vn 0.1498 0.0000 -0.9887
vn -1.0000 0.0000 -0.0079
vn -0.9953 0.0000 -0.0967
vn -0.1301 0.0000 0.9915
vn -0.9593 0.0000 0.2824
vn -0.9580 0.0000 -0.2867
vn -0.9981 0.0000 0.0610
vn -0.0015 0.0000 -1.0000
vn -0.1189 0.0000 0.9929
vn 0.4152 0.0000 -0.9097
vn 0.3664 0.0000 0.9305
vn 0.0557 0.0000 -0.9984
vn 0.0953 0.0000 0.9954
vn -0.8405 0.0000 -0.5418
vn -0.9945 0.0000 -0.1049
vn -0.9132 0.0000 0.4074
vn 0.0000 1.0000 -0.0000
usemtl BackMat.001
s off
f 226/1/1 246/2/1 237/3/1
f 232/4/1 246/2/1 226/1/1
f 209/5/1 216/6/1 207/7/1
f 205/8/1 213/9/1 203/10/1
f 261/11/1 267/12/1 263/13/1
f 256/14/1 260/15/1 259/16/1
f 220/17/1 215/18/1 219/19/1
f 200/20/1 196/21/1 197/22/1
f 260/15/1 256/14/1 254/23/1
f 246/2/1 258/24/1 247/25/1
f 214/26/1 226/1/1 205/8/1
f 215/18/1 220/17/1 210/27/1
f 230/28/1 239/29/1 245/30/1
f 226/1/1 237/3/1 224/31/1
f 209/5/1 218/32/1 216/6/1
f 256/14/1 258/24/1 232/4/1
f 215/18/1 210/27/1 211/33/1
f 254/23/1 256/14/1 232/4/1
f 210/27/1 220/17/1 214/26/1
f 217/34/1 219/19/1 215/18/1
f 199/35/1 200/20/1 201/36/1
f 224/31/1 237/3/1 231/37/1
f 250/38/1 244/39/1 252/40/1
f 200/20/1 199/35/1 196/21/1
f 203/10/1 201/36/1 202/41/1
f 195/42/1 199/35/1 193/43/1
f 231/37/1 239/29/1 230/28/1
f 261/11/1 260/15/1 267/12/1
f 259/16/1 260/15/1 261/11/1
f 250/38/1 240/44/1 244/39/1
f 232/4/1 258/24/1 246/2/1
f 230/28/1 245/30/1 228/45/1
f 231/37/1 237/3/1 239/29/1
f 205/8/1 203/10/1 202/41/1
f 222/46/1 227/47/1 217/34/1
f 232/4/1 251/48/1 254/23/1
f 234/49/1 240/44/1 250/38/1
f 262/50/1 267/12/1 260/15/1
f 228/45/1 245/30/1 233/51/1
f 205/8/1 226/1/1 213/9/1
f 230/28/1 228/45/1 229/52/1
f 202/41/1 201/36/1 200/20/1
f 251/48/1 234/49/1 250/38/1
f 234/49/1 251/48/1 232/4/1
f 241/53/1 244/39/1 240/44/1
f 268/54/1 267/12/1 262/50/1
f 199/35/1 195/42/1 196/21/1
f 242/55/1 244/39/1 241/53/1
f 213/9/1 218/32/1 209/5/1
f 247/25/1 258/24/1 248/56/1
f 233/51/1 245/30/1 235/57/1
f 265/58/1 268/54/1 262/50/1
f 220/17/1 226/1/1 214/26/1
f 219/19/1 217/34/1 227/47/1
f 226/1/1 218/32/1 213/9/1
f 218/32/1 226/1/1 224/31/1
f 118/59/2 50/60/2 108/61/2 194/62/2
f 50/60/3 51/63/3 109/64/3 108/61/3
f 51/63/4 122/65/4 198/66/4 109/64/4
f 48/67/5 49/68/5 107/69/5 106/70/5
f 52/71/6 53/72/6 111/73/6 110/74/6
f 47/75/7 48/67/7 106/70/7 105/76/7
f 53/72/8 54/77/8 112/78/8 111/73/8
f 128/79/9 47/75/9 105/76/9 204/80/9
f 54/77/10 130/81/10 206/82/10 112/78/10
f 132/83/11 44/84/11 102/85/11 208/86/11
f 57/87/12 136/88/12 212/89/12 115/90/12
f 45/91/13 46/92/13 104/93/13 103/94/13
f 55/95/14 56/96/14 114/97/14 113/98/14
f 44/84/15 45/91/15 103/94/15 102/85/15
f 56/96/16 57/87/16 115/90/16 114/97/16
f 58/99/17 1/100/17 59/101/17 116/102/17
f 42/103/18 43/104/18 101/105/18 100/106/18
f 1/100/19 2/107/19 60/108/19 59/101/19
f 41/109/20 42/103/20 100/106/20 99/110/20
f 5/111/21 145/112/21 221/113/21 63/114/21
f 2/107/22 147/115/22 223/116/22 60/108/22
f 149/117/23 41/109/23 99/110/23 225/118/23
f 6/119/24 7/120/24 65/121/24 64/122/24
f 4/123/25 5/111/25 63/114/25 62/124/25
f 3/125/26 4/123/26 62/124/26 61/126/26
f 36/127/27 37/128/27 95/129/27 94/130/27
f 37/128/28 38/131/28 96/132/28 95/129/28
f 38/131/29 39/133/29 97/134/29 96/132/29
f 39/133/30 40/135/30 98/136/30 97/134/30
f 7/120/31 8/137/31 66/138/31 65/121/31
f 35/139/32 36/127/32 94/130/32 93/140/32
f 8/137/33 9/141/33 67/142/33 66/138/33
f 160/143/34 35/139/34 93/140/34 236/144/34
f 162/145/35 32/146/35 90/147/35 238/148/35
f 10/149/36 11/150/36 69/151/36 68/152/36
f 11/150/37 167/153/37 243/154/37 69/151/37
f 12/155/38 13/156/38 71/157/38 70/158/38
f 33/159/39 34/160/39 92/161/39 91/162/39
f 32/146/40 33/159/40 91/162/40 90/147/40
f 30/163/41 31/164/41 89/165/41 88/166/41
f 9/141/42 10/149/42 68/152/42 67/142/42
f 29/167/43 30/163/43 88/166/43 87/168/43
f 173/169/44 29/167/44 87/168/44 249/170/44
f 15/171/45 16/172/45 74/173/45 73/174/45
f 177/175/46 15/171/46 73/174/46 253/176/46
f 13/156/47 14/177/47 72/178/47 71/157/47
f 16/172/48 179/179/48 255/180/48 74/173/48
f 181/181/49 27/182/49 85/183/49 257/184/49
f 27/182/50 28/185/50 86/186/50 85/183/50
f 25/187/51 26/188/51 84/189/51 83/190/51
f 17/191/52 18/192/52 76/193/52 75/194/52
f 24/195/53 25/187/53 83/190/53 82/196/53
f 18/192/54 19/197/54 77/198/54 76/193/54
f 188/199/55 24/195/55 82/196/55 264/200/55
f 19/197/56 190/201/56 266/202/56 77/198/56
f 22/203/57 23/204/57 81/205/57 80/206/57
f 21/207/58 22/203/58 80/206/58 79/208/58
f 20/209/59 21/207/59 79/208/59 78/210/59
usemtl FrontMat.001
f 150/211/60 161/212/60 170/213/60
f 156/214/60 150/211/60 170/213/60
f 133/215/60 131/216/60 140/217/60
f 129/218/60 127/219/60 137/220/60
f 185/221/60 187/222/60 191/223/60
f 180/224/60 183/225/60 184/226/60
f 144/227/60 143/228/60 139/229/60
f 124/230/60 121/231/60 120/232/60
f 184/226/60 178/233/60 180/224/60
f 170/213/60 171/234/60 182/235/60
f 138/236/60 129/218/60 150/211/60
f 139/229/60 134/237/60 144/227/60
f 154/238/60 169/239/60 163/240/60
f 150/211/60 148/241/60 161/212/60
f 133/215/60 140/217/60 142/242/60
f 180/224/60 156/214/60 182/235/60
f 139/229/60 135/243/60 134/237/60
f 178/233/60 156/214/60 180/224/60
f 134/237/60 138/236/60 144/227/60
f 141/244/60 139/229/60 143/228/60
f 123/245/60 125/246/60 124/230/60
f 148/241/60 155/247/60 161/212/60
f 174/248/60 176/249/60 168/250/60
f 124/230/60 120/232/60 123/245/60
f 127/219/60 126/251/60 125/246/60
f 119/252/60 117/253/60 123/245/60
f 155/247/60 154/238/60 163/240/60
f 185/221/60 191/223/60 184/226/60
f 183/225/60 185/221/60 184/226/60
f 174/248/60 168/250/60 164/254/60
f 156/214/60 170/213/60 182/235/60
f 154/238/60 152/255/60 169/239/60
f 155/247/60 163/240/60 161/212/60
f 129/218/60 126/251/60 127/219/60
f 146/256/60 141/244/60 151/257/60
f 156/214/60 178/233/60 175/258/60
f 158/259/60 174/248/60 164/254/60
f 186/260/60 184/226/60 191/223/60
f 152/255/60 157/261/60 169/239/60
f 129/218/60 137/220/60 150/211/60
f 154/238/60 153/262/60 152/255/60
f 126/251/60 124/230/60 125/246/60
f 175/258/60 174/248/60 158/259/60
f 158/259/60 156/214/60 175/258/60
f 165/263/60 164/254/60 168/250/60
f 192/264/60 186/260/60 191/223/60
f 123/245/60 120/232/60 119/252/60
f 166/265/60 165/263/60 168/250/60
f 137/220/60 133/215/60 142/242/60
f 171/234/60 172/266/60 182/235/60
f 157/261/60 159/267/60 169/239/60
f 189/268/60 186/260/60 192/264/60
f 144/227/60 138/236/60 150/211/60
f 143/228/60 151/257/60 141/244/60
f 150/211/60 137/220/60 142/242/60
f 142/242/60 148/241/60 150/211/60
