# Blender v2.83.1 OBJ File: 'jigsaw-64x36-3-step2.blend'
# www.blender.org
mtllib piece.1740.mtl
o path8096
v 0.175676 0.037500 0.569283
v 0.097713 0.037500 0.551867
v 0.093645 0.037500 0.497719
v 0.121969 0.037500 0.425048
v 0.122766 0.037500 0.359255
v 0.055914 0.037500 0.321883
v -0.039560 0.037500 0.319031
v -0.104837 0.037500 0.352942
v -0.101316 0.037500 0.420647
v -0.071255 0.037500 0.498264
v -0.077122 0.037500 0.556705
v -0.161955 0.037500 0.575024
v -0.506315 0.037500 0.529321
v -0.532866 0.037500 0.168803
v -0.509350 0.037500 0.078234
v -0.449968 0.037500 0.068914
v -0.375162 0.037500 0.098407
v -0.312885 0.037500 0.104584
v -0.286135 0.037500 0.045105
v -0.298071 0.037500 -0.043244
v -0.346903 0.037500 -0.103905
v -0.426065 0.037500 -0.099563
v -0.509966 0.037500 -0.069897
v -0.568243 0.037500 -0.073837
v -0.579599 0.037500 -0.152030
v -0.506315 0.037500 -0.472590
v -0.278238 0.037500 -0.422643
v -0.140959 0.037500 -0.407350
v -0.049524 0.037500 -0.430268
v -0.040600 0.037500 -0.506948
v -0.070049 0.037500 -0.607608
v -0.073545 0.037500 -0.691136
v -0.007547 0.037500 -0.725265
v 0.088314 0.037500 -0.713111
v 0.153618 0.037500 -0.666638
v 0.148289 0.037500 -0.599102
v 0.113594 0.037500 -0.528936
v 0.111149 0.037500 -0.475876
v 0.183842 0.037500 -0.453995
v 0.495384 0.037500 -0.472589
v 0.548252 0.037500 -0.273025
v 0.565382 0.037500 -0.153878
v 0.543867 0.037500 -0.076699
v 0.467800 0.037500 -0.073635
v 0.367794 0.037500 -0.102612
v 0.286097 0.037500 -0.103000
v 0.255919 0.037500 -0.034282
v 0.274334 0.037500 0.063640
v 0.329390 0.037500 0.130760
v 0.407059 0.037500 0.127612
v 0.485056 0.037500 0.096865
v 0.539024 0.037500 0.101726
v 0.552073 0.037500 0.185810
v 0.495384 0.037500 0.529321
v 0.175676 -0.037500 0.569283
v 0.097713 -0.037498 0.551867
v 0.093645 -0.037500 0.497719
v 0.121969 -0.037500 0.425048
v 0.122766 -0.037500 0.359255
v 0.055914 -0.037500 0.321883
v -0.039560 -0.037500 0.319031
v -0.104837 -0.037500 0.352942
v -0.101316 -0.037500 0.420647
v -0.071255 -0.037500 0.498264
v -0.077122 -0.037500 0.556705
v -0.161955 -0.037498 0.575024
v -0.506315 -0.037500 0.529321
v -0.532866 -0.037500 0.168803
v -0.509350 -0.037500 0.078234
v -0.449968 -0.037500 0.068914
v -0.375162 -0.037500 0.098407
v -0.312885 -0.037500 0.104584
v -0.286135 -0.037498 0.045105
v -0.298071 -0.037500 -0.043244
v -0.346903 -0.037500 -0.103905
v -0.426065 -0.037500 -0.099563
v -0.509966 -0.037500 -0.069897
v -0.568243 -0.037498 -0.073837
v -0.579599 -0.037500 -0.152030
v -0.506315 -0.037500 -0.472590
v -0.278238 -0.037500 -0.422643
v -0.140959 -0.037500 -0.407350
v -0.049524 -0.037500 -0.430268
v -0.040600 -0.037498 -0.506948
v -0.070049 -0.037498 -0.607608
v -0.073545 -0.037500 -0.691136
v -0.007547 -0.037500 -0.725265
v 0.088314 -0.037500 -0.713111
v 0.153618 -0.037500 -0.666638
v 0.148289 -0.037500 -0.599102
v 0.113594 -0.037500 -0.528936
v 0.111149 -0.037500 -0.475876
v 0.183842 -0.037500 -0.453995
v 0.495384 -0.037498 -0.472589
v 0.548252 -0.037500 -0.273025
v 0.565382 -0.037500 -0.153878
v 0.543867 -0.037500 -0.076699
v 0.467800 -0.037500 -0.073635
v 0.367794 -0.037500 -0.102612
v 0.286097 -0.037500 -0.103000
v 0.255919 -0.037500 -0.034282
v 0.274334 -0.037500 0.063640
v 0.329390 -0.037500 0.130760
v 0.407059 -0.037500 0.127612
v 0.485056 -0.037498 0.096865
v 0.539024 -0.037500 0.101726
v 0.552073 -0.037498 0.185810
v 0.495384 -0.037500 0.529321
v 0.548252 0.037500 -0.273025
v 0.565382 0.037500 -0.153878
v 0.543867 0.037500 -0.076699
v 0.543867 0.037500 -0.076699
v 0.539024 0.037500 0.101726
v 0.539024 0.037500 0.101726
v 0.552073 0.037500 0.185810
v 0.467800 0.037500 -0.073635
v 0.485056 0.037500 0.096865
v 0.495384 0.037500 -0.472589
v 0.495384 0.037500 -0.472589
v 0.495384 0.037500 0.529321
v 0.495384 0.037500 0.529321
v 0.407059 0.037500 0.127612
v 0.367794 0.037500 -0.102612
v 0.329390 0.037500 0.130760
v 0.286097 0.037500 -0.103000
v 0.286097 0.037500 -0.103000
v 0.274334 0.037500 0.063640
v 0.183842 0.037500 -0.453995
v 0.175676 0.037500 0.569283
v 0.255919 0.037500 -0.034282
v 0.111149 0.037500 -0.475876
v 0.111149 0.037500 -0.475876
v 0.121969 0.037500 0.425048
v 0.122766 0.037500 0.359255
v 0.122766 0.037500 0.359255
v 0.097713 0.037500 0.551867
v 0.097713 0.037500 0.551867
v 0.088314 0.037500 -0.713111
v 0.153618 0.037500 -0.666638
v 0.148289 0.037500 -0.599102
v 0.113594 0.037500 -0.528936
v 0.055914 0.037500 0.321883
v 0.093645 0.037500 0.497719
v -0.007547 0.037500 -0.725265
v -0.039560 0.037500 0.319031
v -0.073545 0.037500 -0.691136
v -0.073545 0.037500 -0.691136
v -0.104837 0.037500 0.352942
v -0.104837 0.037500 0.352942
v -0.070049 0.037500 -0.607608
v -0.040600 0.037500 -0.506948
v -0.049524 0.037500 -0.430268
v -0.049524 0.037500 -0.430268
v -0.140959 0.037500 -0.407350
v -0.101316 0.037500 0.420647
v -0.071255 0.037500 0.498264
v -0.077122 0.037500 0.556705
v -0.077122 0.037500 0.556705
v -0.161955 0.037500 0.575024
v -0.278238 0.037500 -0.422643
v -0.286135 0.037500 0.045105
v -0.298071 0.037500 -0.043244
v -0.312885 0.037500 0.104584
v -0.312885 0.037500 0.104584
v -0.346903 0.037500 -0.103905
v -0.375162 0.037500 0.098407
v -0.426065 0.037500 -0.099563
v -0.449968 0.037500 0.068914
v -0.506315 0.037500 -0.472590
v -0.506315 0.037500 -0.472590
v -0.509966 0.037500 -0.069897
v -0.509350 0.037500 0.078234
v -0.509350 0.037500 0.078234
v -0.506315 0.037500 0.529321
v -0.506315 0.037500 0.529321
v -0.532866 0.037500 0.168803
v -0.568243 0.037500 -0.073837
v -0.568243 0.037500 -0.073837
v -0.579599 0.037500 -0.152030
v 0.548252 -0.037500 -0.273025
v 0.565382 -0.037500 -0.153878
v 0.543867 -0.037500 -0.076699
v 0.543867 -0.037500 -0.076699
v 0.539024 -0.037500 0.101726
v 0.539024 -0.037500 0.101726
v 0.552073 -0.037498 0.185810
v 0.467800 -0.037500 -0.073635
v 0.485056 -0.037498 0.096865
v 0.495384 -0.037498 -0.472589
v 0.495384 -0.037498 -0.472589
v 0.495384 -0.037500 0.529321
v 0.495384 -0.037500 0.529321
v 0.407059 -0.037500 0.127612
v 0.367794 -0.037500 -0.102612
v 0.329390 -0.037500 0.130760
v 0.286097 -0.037500 -0.103000
v 0.286097 -0.037500 -0.103000
v 0.274334 -0.037500 0.063640
v 0.183842 -0.037500 -0.453995
v 0.175676 -0.037500 0.569283
v 0.255919 -0.037500 -0.034282
v 0.111149 -0.037500 -0.475876
v 0.111149 -0.037500 -0.475876
v 0.121969 -0.037500 0.425048
v 0.122766 -0.037500 0.359255
v 0.122766 -0.037500 0.359255
v 0.097713 -0.037498 0.551867
v 0.097713 -0.037498 0.551867
v 0.088314 -0.037500 -0.713111
v 0.153618 -0.037500 -0.666638
v 0.148289 -0.037500 -0.599102
v 0.113594 -0.037500 -0.528936
v 0.055914 -0.037500 0.321883
v 0.093645 -0.037500 0.497719
v -0.007547 -0.037500 -0.725265
v -0.039560 -0.037500 0.319031
v -0.073545 -0.037500 -0.691136
v -0.073545 -0.037500 -0.691136
v -0.104837 -0.037500 0.352942
v -0.104837 -0.037500 0.352942
v -0.070049 -0.037498 -0.607608
v -0.040600 -0.037498 -0.506948
v -0.049524 -0.037500 -0.430268
v -0.049524 -0.037500 -0.430268
v -0.140959 -0.037500 -0.407350
v -0.101316 -0.037500 0.420647
v -0.071255 -0.037500 0.498264
v -0.077122 -0.037500 0.556705
v -0.077122 -0.037500 0.556705
v -0.161955 -0.037498 0.575024
v -0.278238 -0.037500 -0.422643
v -0.286135 -0.037498 0.045105
v -0.298071 -0.037500 -0.043244
v -0.312885 -0.037500 0.104584
v -0.312885 -0.037500 0.104584
v -0.346903 -0.037500 -0.103905
v -0.375162 -0.037500 0.098407
v -0.426065 -0.037500 -0.099563
v -0.449968 -0.037500 0.068914
v -0.506315 -0.037500 -0.472590
v -0.506315 -0.037500 -0.472590
v -0.509966 -0.037500 -0.069897
v -0.509350 -0.037500 0.078234
v -0.509350 -0.037500 0.078234
v -0.506315 -0.037500 0.529321
v -0.506315 -0.037500 0.529321
v -0.532866 -0.037500 0.168803
v -0.568243 -0.037498 -0.073837
v -0.568243 -0.037498 -0.073837
v -0.579599 -0.037500 -0.152030
vt 0.500000 0.500000
vt 0.500000 0.500000
vt 0.500000 0.500000
vt 0.500000 0.500000
vt 0.500000 0.500000
vt 0.500000 0.500000
vt 0.500000 0.500000
vt 0.500000 0.500000
vt 0.500000 0.500000
vt 0.500000 0.500000
vt 0.500000 0.500000
vt 0.500000 0.500000
vt 0.500000 0.500000
vt 0.500000 0.500000
vt 0.500000 0.500000
vt 0.500000 0.500000
vt 0.500000 0.500000
vt 0.500000 0.500000
vt 0.500000 0.500000
vt 0.500000 0.500000
vt 0.500000 0.500000
vt 0.500000 0.500000
vt 0.500000 0.500000
vt 0.500000 0.500000
vt 0.500000 0.500000
vt 0.500000 0.500000
vt 0.500000 0.500000
vt 0.500000 0.500000
vt 0.500000 0.500000
vt 0.500000 0.500000
vt 0.500000 0.500000
vt 0.500000 0.500000
vt 0.500000 0.500000
vt 0.500000 0.500000
vt 0.500000 0.500000
vt 0.500000 0.500000
vt 0.500000 0.500000
vt 0.500000 0.500000
vt 0.500000 0.500000
vt 0.500000 0.500000
vt 0.500000 0.500000
vt 0.500000 0.500000
vt 0.500000 0.500000
vt 0.500000 0.500000
vt 0.500000 0.500000
vt 0.500000 0.500000
vt 0.500000 0.500000
vt 0.500000 0.500000
vt 0.500000 0.500000
vt 0.500000 0.500000
vt 0.500000 0.500000
vt 0.500000 0.500000
vt 0.500000 0.500000
vt 0.500000 0.500000
vt 0.500000 0.500000
vt 0.500000 0.500000
vt 0.500000 0.500000
vt 0.500000 0.500000
vt 0.500000 0.500000
vt 0.500000 0.500000
vt 0.500000 0.500000
vt 0.500000 0.500000
vt 0.500000 0.500000
vt 0.500000 0.500000
vt 0.500000 0.500000
vt 0.500000 0.500000
vt 0.500000 0.500000
vt 0.500000 0.500000
vt 0.500000 0.500000
vt 0.500000 0.500000
vt 0.500000 0.500000
vt 0.500000 0.500000
vt 0.500000 0.500000
vt 0.500000 0.500000
vt 0.500000 0.500000
vt 0.500000 0.500000
vt 0.500000 0.500000
vt 0.500000 0.500000
vt 0.500000 0.500000
vt 0.500000 0.500000
vt 0.500000 0.500000
vt 0.500000 0.500000
vt 0.500000 0.500000
vt 0.500000 0.500000
vt 0.500000 0.500000
vt 0.500000 0.500000
vt 0.500000 0.500000
vt 0.500000 0.500000
vt 0.500000 0.500000
vt 0.500000 0.500000
vt 0.500000 0.500000
vt 0.500000 0.500000
vt 0.500000 0.500000
vt 0.500000 0.500000
vt 0.500000 0.500000
vt 0.500000 0.500000
vt 0.500000 0.500000
vt 0.500000 0.500000
vt 0.500000 0.500000
vt 0.500000 0.500000
vt 0.500000 0.500000
vt 0.500000 0.500000
vt 0.500000 0.500000
vt 0.500000 0.500000
vt 0.500000 0.500000
vt 0.500000 0.500000
vt 0.500000 0.500000
vt 0.500000 0.500000
vt 0.500000 0.500000
vt 0.500000 0.500000
vt 0.500000 0.500000
vt 0.500000 0.500000
vt 0.500000 0.500000
vt 0.500000 0.500000
vt 0.500000 0.500000
vt 0.500000 0.500000
vt 0.500000 0.500000
vt 0.500000 0.500000
vt 0.500000 0.500000
vt 0.500000 0.500000
vt 0.500000 0.500000
vt 0.500000 0.500000
vt 0.500000 0.500000
vt 0.500000 0.500000
vt 0.500000 0.500000
vt 0.500000 0.500000
vt 0.500000 0.500000
vt 0.500000 0.500000
vt 0.500000 0.500000
vt 0.500000 0.500000
vt 0.500000 0.500000
vt 0.500000 0.500000
vt 0.500000 0.500000
vt 0.500000 0.500000
vt 0.500000 0.500000
vt 0.500000 0.500000
vt 0.500000 0.500000
vt 0.500000 0.500000
vt 0.500000 0.500000
vt 0.500000 0.500000
vt 0.500000 0.500000
vt 0.500000 0.500000
vt 0.500000 0.500000
vt 0.500000 0.500000
vt 0.500000 0.500000
vt 0.500000 0.500000
vt 0.500000 0.500000
vt 0.500000 0.500000
vt 0.500000 0.500000
vt 0.500000 0.500000
vt 0.500000 0.500000
vt 0.500000 0.500000
vt 0.500000 0.500000
vt 0.500000 0.500000
vt 0.500000 0.500000
vt 0.500000 0.500000
vt 0.500000 0.500000
vt 0.500000 0.500000
vt 0.500000 0.500000
vt 0.500000 0.500000
vt 0.500000 0.500000
vt 0.500000 0.500000
vt 0.500000 0.500000
vt 0.500000 0.500000
vt 0.500000 0.500000
vt 0.500000 0.500000
vt 0.500000 0.500000
vt 0.500000 0.500000
vt 0.500000 0.500000
vt 0.500000 0.500000
vt 0.500000 0.500000
vt 0.500000 0.500000
vt 0.500000 0.500000
vt 0.500000 0.500000
vt 0.500000 0.500000
vt 0.500000 0.500000
vt 0.500000 0.500000
vt 0.500000 0.500000
vt 0.500000 0.500000
vt 0.500000 0.500000
vt 0.500000 0.500000
vt 0.500000 0.500000
vt 0.500000 0.500000
vt 0.500000 0.500000
vt 0.500000 0.500000
vt 0.500000 0.500000
vt 0.500000 0.500000
vt 0.500000 0.500000
vt 0.500000 0.500000
vt 0.500000 0.500000
vt 0.500000 0.500000
vt 0.500000 0.500000
vt 0.500000 0.500000
vt 0.500000 0.500000
vt 0.500000 0.500000
vt 0.500000 0.500000
vt 0.169902 0.240375
vt 0.168849 0.240523
vt 0.168124 0.238712
vt 0.182143 0.251572
vt 0.180756 0.249714
vt 0.181235 0.247551
vt 0.169769 0.234320
vt 0.188213 0.231771
vt 0.187927 0.234124
vt 0.187016 0.234287
vt 0.178094 0.220505
vt 0.178155 0.222121
vt 0.176874 0.220190
vt 0.177692 0.224448
vt 0.171875 0.222222
vt 0.171339 0.235137
vt 0.172535 0.234889
vt 0.171824 0.239345
vt 0.184848 0.239667
vt 0.181284 0.245397
vt 0.180238 0.243870
vt 0.184265 0.237813
vt 0.185805 0.233453
vt 0.177625 0.226643
vt 0.178571 0.227997
vt 0.172892 0.232354
vt 0.181878 0.221486
vt 0.187500 0.222222
vt 0.180876 0.227586
vt 0.177639 0.244196
vt 0.177645 0.246462
vt 0.172165 0.241361
vt 0.172654 0.228547
vt 0.180780 0.225859
vt 0.180320 0.223785
vt 0.178710 0.243359
vt 0.187500 0.250000
vt 0.174987 0.251466
vt 0.171875 0.250000
vt 0.185874 0.239645
vt 0.187007 0.238860
vt 0.188123 0.241134
vt 0.170996 0.239413
vt 0.184749 0.233355
vt 0.179949 0.228328
vt 0.184221 0.235166
vt 0.178097 0.249235
vt 0.176845 0.251941
vt 0.180832 0.251210
vt 0.180465 0.222138
vt 0.178049 0.251344
vt 0.167934 0.236053
vt 0.168467 0.234223
vt 0.187852 0.238972
vn 0.0000 -1.0000 0.0000
vn 0.9898 0.0000 -0.1423
vn 0.9633 0.0000 0.2685
vn 0.9882 0.0000 -0.1533
vn 0.0402 0.0000 0.9992
vn 0.0897 0.0000 -0.9960
vn 0.9667 0.0000 -0.2561
vn 0.9867 0.0000 0.1628
vn -0.3667 0.0000 -0.9303
vn -0.2783 0.0000 0.9605
vn -0.0405 0.0000 -0.9992
vn -0.0048 0.0000 1.0000
vn 0.7732 0.0000 -0.6342
vn -0.0596 0.0000 -0.9982
vn 0.1240 0.0000 0.9923
vn 0.9156 0.0000 0.4021
vn 0.9828 0.0000 -0.1848
vn 0.2882 0.0000 -0.9576
vn -0.9999 0.0000 -0.0121
vn -0.2180 0.0000 0.9759
vn 0.5798 0.0000 -0.8148
vn 0.9969 0.0000 0.0787
vn 0.8964 0.0000 0.4432
vn -0.4879 0.0000 0.8729
vn -0.9317 0.0000 -0.3631
vn -0.9972 0.0000 0.0749
vn 0.9989 0.0000 0.0460
vn 0.1258 0.0000 -0.9921
vn -0.0299 0.0000 0.9996
vn -0.4593 0.0000 -0.8883
vn 0.4610 0.0000 0.8874
vn -0.9991 0.0000 0.0418
vn -0.9598 0.0000 0.2808
vn -0.9933 0.0000 -0.1156
vn -0.2431 0.0000 -0.9700
vn 0.9325 0.0000 -0.3612
vn 0.9950 0.0000 0.0999
vn 0.2111 0.0000 0.9775
vn 0.9987 0.0000 -0.0519
vn 0.1107 0.0000 -0.9939
vn -0.9910 0.0000 0.1339
vn -0.9120 0.0000 -0.4102
vn -0.7790 0.0000 0.6271
vn 0.0987 0.0000 -0.9951
vn 0.0548 0.0000 0.9985
vn 0.3668 0.0000 -0.9303
vn 0.2139 0.0000 -0.9769
vn 0.3334 0.0000 0.9428
vn -0.1550 0.0000 -0.9879
vn -0.1316 0.0000 0.9913
vn -0.9679 0.0000 -0.2513
vn -0.0675 0.0000 0.9977
vn -0.9973 0.0000 0.0734
vn -0.9748 0.0000 -0.2229
vn -0.9896 0.0000 0.1437
vn 0.0000 1.0000 -0.0000
usemtl BackMat.001
s off
f 211/1/1 209/2/1 210/3/1
f 186/4/1 193/5/1 188/6/1
f 209/2/1 211/1/1 221/7/1
f 230/8/1 227/9/1 228/10/1
f 248/11/1 250/12/1 242/13/1
f 250/12/1 240/14/1 238/15/1
f 222/16/1 202/17/1 223/18/1
f 205/19/1 198/20/1 195/21/1
f 213/22/1 198/20/1 205/19/1
f 226/23/1 227/9/1 230/8/1
f 236/24/1 225/25/1 233/26/1
f 247/27/1 234/28/1 245/29/1
f 196/30/1 199/31/1 194/32/1
f 231/33/1 238/15/1 240/14/1
f 237/34/1 234/28/1 247/27/1
f 237/34/1 247/27/1 239/35/1
f 201/36/1 223/18/1 196/30/1
f 191/37/1 195/21/1 193/5/1
f 180/38/1 199/31/1 189/39/1
f 204/40/1 200/41/1 214/42/1
f 223/18/1 199/31/1 196/30/1
f 233/26/1 225/25/1 223/18/1
f 191/37/1 193/5/1 186/4/1
f 242/13/1 250/12/1 238/15/1
f 233/26/1 223/18/1 201/36/1
f 212/43/1 221/7/1 211/1/1
f 245/29/1 219/44/1 226/23/1
f 233/26/1 201/36/1 232/45/1
f 232/45/1 201/36/1 216/46/1
f 216/46/1 201/36/1 198/20/1
f 204/40/1 191/37/1 200/41/1
f 221/7/1 212/43/1 222/16/1
f 223/18/1 202/17/1 199/31/1
f 194/32/1 181/47/1 187/48/1
f 186/4/1 188/6/1 184/49/1
f 219/44/1 234/28/1 216/46/1
f 245/29/1 234/28/1 219/44/1
f 234/28/1 232/45/1 216/46/1
f 243/50/1 239/35/1 247/27/1
f 187/48/1 181/47/1 182/51/1
f 205/19/1 191/37/1 204/40/1
f 238/15/1 231/33/1 236/24/1
f 225/25/1 236/24/1 231/33/1
f 180/38/1 194/32/1 199/31/1
f 181/47/1 194/32/1 180/38/1
f 205/19/1 195/21/1 191/37/1
f 215/52/1 209/2/1 221/7/1
f 202/17/1 222/16/1 212/43/1
f 217/53/1 215/52/1 221/7/1
f 245/29/1 226/23/1 230/8/1
f 216/46/1 198/20/1 213/22/1
f 214/42/1 200/41/1 207/54/1
f 41/55/2 42/56/2 96/57/2 95/58/2
f 42/56/3 112/59/3 183/60/3 96/57/3
f 114/61/4 53/62/4 107/63/4 185/64/4
f 43/65/5 44/66/5 98/67/5 97/68/5
f 51/69/6 52/70/6 106/71/6 105/72/6
f 119/73/7 41/55/7 95/58/7 190/74/7
f 53/62/8 121/75/8 192/76/8 107/63/8
f 50/77/9 51/69/9 105/72/9 104/78/9
f 44/66/10 45/79/10 99/80/10 98/67/10
f 49/81/11 50/77/11 104/78/11 103/82/11
f 45/79/12 126/83/12 197/84/12 99/80/12
f 48/85/13 49/81/13 103/82/13 102/86/13
f 39/87/14 40/88/14 94/89/14 93/90/14
f 54/91/15 1/92/15 55/93/15 108/94/15
f 46/95/16 47/96/16 101/97/16 100/98/16
f 47/96/17 48/85/17 102/86/17 101/97/17
f 132/99/18 39/87/18 93/90/18 203/100/18
f 4/101/19 135/102/19 206/103/19 58/104/19
f 1/92/20 137/105/20 208/106/20 55/93/20
f 34/107/21 35/108/21 89/109/21 88/110/21
f 35/108/22 36/111/22 90/112/22 89/109/22
f 36/111/23 37/113/23 91/114/23 90/112/23
f 5/115/24 6/116/24 60/117/24 59/118/24
f 3/119/25 4/101/25 58/104/25 57/120/25
f 2/121/26 3/119/26 57/120/26 56/122/26
f 37/113/27 38/123/27 92/124/27 91/114/27
f 33/125/28 34/107/28 88/110/28 87/126/28
f 6/116/29 7/127/29 61/128/29 60/117/29
f 147/129/30 33/125/30 87/126/30 218/130/30
f 7/127/31 149/131/31 220/132/31 61/128/31
f 31/133/32 32/134/32 86/135/32 85/136/32
f 30/137/33 31/133/33 85/136/33 84/138/33
f 153/139/34 30/137/34 84/138/34 224/140/34
f 28/141/35 29/142/35 83/143/35 82/144/35
f 9/145/36 10/146/36 64/147/36 63/148/36
f 10/146/37 158/149/37 229/150/37 64/147/37
f 11/151/38 12/152/38 66/153/38 65/154/38
f 8/155/39 9/145/39 63/148/39 62/156/39
f 27/157/40 28/141/40 82/144/40 81/158/40
f 19/159/41 20/160/41 74/161/41 73/162/41
f 164/163/42 19/159/42 73/162/42 235/164/42
f 20/160/43 21/165/43 75/166/43 74/161/43
f 17/167/44 18/168/44 72/169/44 71/170/44
f 21/165/45 22/171/45 76/172/45 75/166/45
f 16/173/46 17/167/46 71/170/46 70/174/46
f 170/175/47 27/157/47 81/158/47 241/176/47
f 22/171/48 23/177/48 77/178/48 76/172/48
f 173/179/49 16/173/49 70/174/49 244/180/49
f 12/152/50 175/181/50 246/182/50 66/153/50
f 14/183/51 15/184/51 69/185/51 68/186/51
f 23/177/52 178/187/52 249/188/52 77/178/52
f 13/189/53 14/183/53 68/186/53 67/190/53
f 25/191/54 26/192/54 80/193/54 79/194/54
f 24/195/55 25/191/55 79/194/55 78/196/55
usemtl FrontMat.001
f 140/197/56 139/198/56 138/199/56
f 115/200/56 117/201/56 122/202/56
f 138/199/56 150/203/56 140/197/56
f 159/204/56 157/205/56 156/206/56
f 177/207/56 171/208/56 179/209/56
f 179/209/56 167/210/56 169/211/56
f 151/212/56 152/213/56 131/214/56
f 134/215/56 124/216/56 127/217/56
f 142/218/56 134/215/56 127/217/56
f 155/219/56 159/204/56 156/206/56
f 165/220/56 162/221/56 154/222/56
f 176/223/56 174/224/56 163/225/56
f 125/226/56 123/227/56 128/228/56
f 160/229/56 169/211/56 167/210/56
f 166/230/56 176/223/56 163/225/56
f 166/230/56 168/231/56 176/223/56
f 130/232/56 125/226/56 152/213/56
f 120/233/56 122/202/56 124/216/56
f 109/234/56 118/235/56 128/228/56
f 133/236/56 143/237/56 129/238/56
f 152/213/56 125/226/56 128/228/56
f 162/221/56 152/213/56 154/222/56
f 120/233/56 115/200/56 122/202/56
f 171/208/56 167/210/56 179/209/56
f 162/221/56 130/232/56 152/213/56
f 141/239/56 140/197/56 150/203/56
f 174/224/56 155/219/56 148/240/56
f 162/221/56 161/241/56 130/232/56
f 161/241/56 145/242/56 130/232/56
f 145/242/56 127/217/56 130/232/56
f 133/236/56 129/238/56 120/233/56
f 150/203/56 151/212/56 141/239/56
f 152/213/56 128/228/56 131/214/56
f 123/227/56 116/243/56 110/244/56
f 115/200/56 113/245/56 117/201/56
f 148/240/56 145/242/56 163/225/56
f 174/224/56 148/240/56 163/225/56
f 163/225/56 145/242/56 161/241/56
f 172/246/56 176/223/56 168/231/56
f 116/243/56 111/247/56 110/244/56
f 134/215/56 133/236/56 120/233/56
f 167/210/56 165/220/56 160/229/56
f 154/222/56 160/229/56 165/220/56
f 109/234/56 128/228/56 123/227/56
f 110/244/56 109/234/56 123/227/56
f 134/215/56 120/233/56 124/216/56
f 144/248/56 150/203/56 138/199/56
f 131/214/56 141/239/56 151/212/56
f 146/249/56 150/203/56 144/248/56
f 174/224/56 159/204/56 155/219/56
f 145/242/56 142/218/56 127/217/56
f 143/237/56 136/250/56 129/238/56
