# Blender v2.83.1 OBJ File: 'jigsaw-64x36-3-step2.blend'
# www.blender.org
mtllib piece.79.mtl
o path4774
v 0.460816 0.037500 -0.292280
v 0.445108 0.037500 -0.176280
v 0.465909 0.037500 -0.100142
v 0.538397 0.037500 -0.094896
v 0.634835 0.037500 -0.120723
v 0.716754 0.037500 -0.120092
v 0.753380 0.037500 -0.054568
v 0.744726 0.037500 0.037897
v 0.698508 0.037500 0.100253
v 0.625332 0.037500 0.095354
v 0.547441 0.037500 0.065668
v 0.489980 0.037500 0.073565
v 0.470810 0.037500 0.161813
v 0.510085 0.037500 0.515864
v 0.283122 0.037500 0.558886
v 0.147115 0.037500 0.571844
v 0.057880 0.037500 0.551484
v 0.052086 0.037500 0.483910
v 0.084384 0.037500 0.393087
v 0.088928 0.037500 0.312442
v 0.021271 0.037500 0.269916
v -0.077394 0.037500 0.271488
v -0.144467 0.037500 0.317651
v -0.138392 0.037500 0.402900
v -0.101794 0.037500 0.497773
v -0.098337 0.037500 0.566813
v -0.172386 0.037500 0.584763
v -0.291026 0.037500 0.567146
v -0.491824 0.037500 0.515864
v -0.457883 0.037500 0.297869
v -0.451192 0.037500 0.167540
v -0.477517 0.037500 0.082717
v -0.549235 0.037500 0.078699
v -0.641000 0.037500 0.111143
v -0.717980 0.037500 0.115792
v -0.752192 0.037500 0.049057
v -0.743011 0.037500 -0.049989
v -0.696650 0.037500 -0.121611
v -0.622519 0.037500 -0.125745
v -0.542734 0.037500 -0.101028
v -0.482602 0.037500 -0.105773
v -0.460238 0.037500 -0.180538
v -0.465008 0.037500 -0.294866
v -0.491824 0.037500 -0.485833
v -0.157553 0.037500 -0.452864
v -0.077287 0.037500 -0.473388
v -0.075789 0.037500 -0.530451
v -0.110341 0.037500 -0.606400
v -0.118977 0.037500 -0.676578
v -0.059865 0.037500 -0.719407
v 0.028302 0.037500 -0.725649
v 0.086702 0.037500 -0.689148
v 0.077066 0.037500 -0.610719
v 0.043349 0.037500 -0.519061
v 0.050051 0.037500 -0.449842
v 0.141288 0.037500 -0.428797
v 0.279611 0.037500 -0.441930
v 0.510085 0.037500 -0.485833
v 0.460816 -0.037500 -0.292280
v 0.445108 -0.037500 -0.176280
v 0.465909 -0.037500 -0.100142
v 0.538397 -0.037500 -0.094896
v 0.634835 -0.037500 -0.120723
v 0.716754 -0.037500 -0.120092
v 0.753380 -0.037500 -0.054568
v 0.744726 -0.037500 0.037897
v 0.698508 -0.037500 0.100253
v 0.625332 -0.037500 0.095354
v 0.547441 -0.037500 0.065668
v 0.489980 -0.037500 0.073565
v 0.470810 -0.037500 0.161813
v 0.510085 -0.037500 0.515864
v 0.283122 -0.037500 0.558886
v 0.147115 -0.037500 0.571844
v 0.057880 -0.037500 0.551484
v 0.052086 -0.037500 0.483910
v 0.084384 -0.037500 0.393087
v 0.088928 -0.037500 0.312442
v 0.021271 -0.037500 0.269916
v -0.077394 -0.037498 0.271488
v -0.144467 -0.037500 0.317651
v -0.138392 -0.037500 0.402900
v -0.101794 -0.037500 0.497773
v -0.098337 -0.037500 0.566813
v -0.172386 -0.037500 0.584763
v -0.291026 -0.037500 0.567146
v -0.491824 -0.037500 0.515864
v -0.457883 -0.037500 0.297869
v -0.451192 -0.037500 0.167540
v -0.477517 -0.037500 0.082717
v -0.549235 -0.037500 0.078699
v -0.641000 -0.037500 0.111143
v -0.717980 -0.037498 0.115792
v -0.752192 -0.037500 0.049057
v -0.743011 -0.037500 -0.049989
v -0.696650 -0.037500 -0.121611
v -0.622519 -0.037500 -0.125745
v -0.542734 -0.037500 -0.101028
v -0.482602 -0.037500 -0.105773
v -0.460238 -0.037498 -0.180538
v -0.465008 -0.037498 -0.294866
v -0.491824 -0.037500 -0.485833
v -0.157553 -0.037500 -0.452864
v -0.077287 -0.037500 -0.473388
v -0.075789 -0.037500 -0.530451
v -0.110341 -0.037500 -0.606400
v -0.118977 -0.037500 -0.676578
v -0.059865 -0.037500 -0.719407
v 0.028302 -0.037500 -0.725649
v 0.086702 -0.037500 -0.689148
v 0.077066 -0.037498 -0.610719
v 0.043349 -0.037500 -0.519061
v 0.050051 -0.037500 -0.449842
v 0.141288 -0.037500 -0.428797
v 0.279611 -0.037500 -0.441930
v 0.510085 -0.037500 -0.485833
v -0.059865 0.037500 -0.719407
v 0.028302 0.037500 -0.725649
v 0.086702 0.037500 -0.689148
v 0.086702 0.037500 -0.689148
v -0.118977 0.037500 -0.676578
v -0.118977 0.037500 -0.676578
v 0.077066 0.037500 -0.610719
v -0.110341 0.037500 -0.606400
v 0.043349 0.037500 -0.519061
v -0.075789 0.037500 -0.530451
v -0.077287 0.037500 -0.473388
v -0.077287 0.037500 -0.473388
v 0.050051 0.037500 -0.449842
v 0.050051 0.037500 -0.449842
v -0.157553 0.037500 -0.452864
v 0.279611 0.037500 -0.441930
v 0.510085 0.037500 -0.485833
v 0.510085 0.037500 -0.485833
v -0.491824 0.037500 -0.485833
v -0.491824 0.037500 -0.485833
v 0.141288 0.037500 -0.428797
v -0.465008 0.037500 -0.294866
v 0.460816 0.037500 -0.292280
v -0.460238 0.037500 -0.180538
v 0.445108 0.037500 -0.176280
v -0.482602 0.037500 -0.105773
v -0.482602 0.037500 -0.105773
v 0.465909 0.037500 -0.100142
v 0.465909 0.037500 -0.100142
v -0.696650 0.037500 -0.121611
v -0.622519 0.037500 -0.125745
v -0.542734 0.037500 -0.101028
v -0.743011 0.037500 -0.049989
v 0.538397 0.037500 -0.094896
v 0.634835 0.037500 -0.120723
v 0.716754 0.037500 -0.120092
v 0.716754 0.037500 -0.120092
v 0.753380 0.037500 -0.054568
v 0.744726 0.037500 0.037897
v -0.752192 0.037500 0.049057
v 0.698508 0.037500 0.100253
v -0.717980 0.037500 0.115792
v -0.717980 0.037500 0.115792
v 0.547441 0.037500 0.065668
v 0.489980 0.037500 0.073565
v 0.489980 0.037500 0.073565
v 0.625332 0.037500 0.095354
v -0.477517 0.037500 0.082717
v -0.477517 0.037500 0.082717
v -0.549235 0.037500 0.078699
v 0.470810 0.037500 0.161813
v -0.641000 0.037500 0.111143
v -0.451192 0.037500 0.167540
v -0.457883 0.037500 0.297869
v 0.021271 0.037500 0.269916
v -0.077394 0.037500 0.271488
v 0.088928 0.037500 0.312442
v 0.088928 0.037500 0.312442
v -0.144467 0.037500 0.317651
v 0.084384 0.037500 0.393087
v -0.138392 0.037500 0.402900
v 0.052086 0.037500 0.483910
v -0.101794 0.037500 0.497773
v -0.491824 0.037500 0.515864
v -0.491824 0.037500 0.515864
v 0.057880 0.037500 0.551484
v 0.057880 0.037500 0.551484
v 0.510085 0.037500 0.515864
v 0.510085 0.037500 0.515864
v -0.098337 0.037500 0.566813
v -0.098337 0.037500 0.566813
v 0.283122 0.037500 0.558886
v -0.291026 0.037500 0.567146
v 0.147115 0.037500 0.571844
v -0.172386 0.037500 0.584763
v -0.059865 -0.037500 -0.719407
v 0.028302 -0.037500 -0.725649
v 0.086702 -0.037500 -0.689148
v 0.086702 -0.037500 -0.689148
v -0.118977 -0.037500 -0.676578
v -0.118977 -0.037500 -0.676578
v 0.077066 -0.037498 -0.610719
v -0.110341 -0.037500 -0.606400
v 0.043349 -0.037500 -0.519061
v -0.075789 -0.037500 -0.530451
v -0.077287 -0.037500 -0.473388
v -0.077287 -0.037500 -0.473388
v 0.050051 -0.037500 -0.449842
v 0.050051 -0.037500 -0.449842
v -0.157553 -0.037500 -0.452864
v 0.279611 -0.037500 -0.441930
v 0.510085 -0.037500 -0.485833
v 0.510085 -0.037500 -0.485833
v -0.491824 -0.037500 -0.485833
v -0.491824 -0.037500 -0.485833
v 0.141288 -0.037500 -0.428797
v -0.465008 -0.037498 -0.294866
v 0.460816 -0.037500 -0.292280
v -0.460238 -0.037498 -0.180538
v 0.445108 -0.037500 -0.176280
v -0.482602 -0.037500 -0.105773
v -0.482602 -0.037500 -0.105773
v 0.465909 -0.037500 -0.100142
v 0.465909 -0.037500 -0.100142
v -0.696650 -0.037500 -0.121611
v -0.622519 -0.037500 -0.125745
v -0.542734 -0.037500 -0.101028
v -0.743011 -0.037500 -0.049989
v 0.538397 -0.037500 -0.094896
v 0.634835 -0.037500 -0.120723
v 0.716754 -0.037500 -0.120092
v 0.716754 -0.037500 -0.120092
v 0.753380 -0.037500 -0.054568
v 0.744726 -0.037500 0.037897
v -0.752192 -0.037500 0.049057
v 0.698508 -0.037500 0.100253
v -0.717980 -0.037498 0.115792
v -0.717980 -0.037498 0.115792
v 0.547441 -0.037500 0.065668
v 0.489980 -0.037500 0.073565
v 0.489980 -0.037500 0.073565
v 0.625332 -0.037500 0.095354
v -0.477517 -0.037500 0.082717
v -0.477517 -0.037500 0.082717
v -0.549235 -0.037500 0.078699
v 0.470810 -0.037500 0.161813
v -0.641000 -0.037500 0.111143
v -0.451192 -0.037500 0.167540
v -0.457883 -0.037500 0.297869
v 0.021271 -0.037500 0.269916
v -0.077394 -0.037498 0.271488
v 0.088928 -0.037500 0.312442
v 0.088928 -0.037500 0.312442
v -0.144467 -0.037500 0.317651
v 0.084384 -0.037500 0.393087
v -0.138392 -0.037500 0.402900
v 0.052086 -0.037500 0.483910
v -0.101794 -0.037500 0.497773
v -0.491824 -0.037500 0.515864
v -0.491824 -0.037500 0.515864
v 0.057880 -0.037500 0.551484
v 0.057880 -0.037500 0.551484
v 0.510085 -0.037500 0.515864
v 0.510085 -0.037500 0.515864
v -0.098337 -0.037500 0.566813
v -0.098337 -0.037500 0.566813
v 0.283122 -0.037500 0.558886
v -0.291026 -0.037500 0.567146
v 0.147115 -0.037500 0.571844
v -0.172386 -0.037500 0.584763
vt 0.500000 0.500000
vt 0.500000 0.500000
vt 0.500000 0.500000
vt 0.500000 0.500000
vt 0.500000 0.500000
vt 0.500000 0.500000
vt 0.500000 0.500000
vt 0.500000 0.500000
vt 0.500000 0.500000
vt 0.500000 0.500000
vt 0.500000 0.500000
vt 0.500000 0.500000
vt 0.500000 0.500000
vt 0.500000 0.500000
vt 0.500000 0.500000
vt 0.500000 0.500000
vt 0.500000 0.500000
vt 0.500000 0.500000
vt 0.500000 0.500000
vt 0.500000 0.500000
vt 0.500000 0.500000
vt 0.500000 0.500000
vt 0.500000 0.500000
vt 0.500000 0.500000
vt 0.500000 0.500000
vt 0.500000 0.500000
vt 0.500000 0.500000
vt 0.500000 0.500000
vt 0.500000 0.500000
vt 0.500000 0.500000
vt 0.500000 0.500000
vt 0.500000 0.500000
vt 0.500000 0.500000
vt 0.500000 0.500000
vt 0.500000 0.500000
vt 0.500000 0.500000
vt 0.500000 0.500000
vt 0.500000 0.500000
vt 0.500000 0.500000
vt 0.500000 0.500000
vt 0.500000 0.500000
vt 0.500000 0.500000
vt 0.500000 0.500000
vt 0.500000 0.500000
vt 0.500000 0.500000
vt 0.500000 0.500000
vt 0.500000 0.500000
vt 0.500000 0.500000
vt 0.500000 0.500000
vt 0.500000 0.500000
vt 0.500000 0.500000
vt 0.500000 0.500000
vt 0.500000 0.500000
vt 0.500000 0.500000
vt 0.500000 0.500000
vt 0.500000 0.500000
vt 0.500000 0.500000
vt 0.500000 0.500000
vt 0.500000 0.500000
vt 0.500000 0.500000
vt 0.500000 0.500000
vt 0.500000 0.500000
vt 0.500000 0.500000
vt 0.500000 0.500000
vt 0.500000 0.500000
vt 0.500000 0.500000
vt 0.500000 0.500000
vt 0.500000 0.500000
vt 0.500000 0.500000
vt 0.500000 0.500000
vt 0.500000 0.500000
vt 0.500000 0.500000
vt 0.500000 0.500000
vt 0.500000 0.500000
vt 0.500000 0.500000
vt 0.500000 0.500000
vt 0.500000 0.500000
vt 0.500000 0.500000
vt 0.500000 0.500000
vt 0.500000 0.500000
vt 0.500000 0.500000
vt 0.500000 0.500000
vt 0.500000 0.500000
vt 0.500000 0.500000
vt 0.500000 0.500000
vt 0.500000 0.500000
vt 0.500000 0.500000
vt 0.500000 0.500000
vt 0.500000 0.500000
vt 0.500000 0.500000
vt 0.500000 0.500000
vt 0.500000 0.500000
vt 0.500000 0.500000
vt 0.500000 0.500000
vt 0.500000 0.500000
vt 0.500000 0.500000
vt 0.500000 0.500000
vt 0.500000 0.500000
vt 0.500000 0.500000
vt 0.500000 0.500000
vt 0.500000 0.500000
vt 0.500000 0.500000
vt 0.500000 0.500000
vt 0.500000 0.500000
vt 0.500000 0.500000
vt 0.500000 0.500000
vt 0.500000 0.500000
vt 0.500000 0.500000
vt 0.500000 0.500000
vt 0.500000 0.500000
vt 0.500000 0.500000
vt 0.500000 0.500000
vt 0.500000 0.500000
vt 0.500000 0.500000
vt 0.500000 0.500000
vt 0.500000 0.500000
vt 0.500000 0.500000
vt 0.500000 0.500000
vt 0.500000 0.500000
vt 0.500000 0.500000
vt 0.500000 0.500000
vt 0.500000 0.500000
vt 0.500000 0.500000
vt 0.500000 0.500000
vt 0.500000 0.500000
vt 0.500000 0.500000
vt 0.500000 0.500000
vt 0.500000 0.500000
vt 0.500000 0.500000
vt 0.500000 0.500000
vt 0.500000 0.500000
vt 0.500000 0.500000
vt 0.500000 0.500000
vt 0.500000 0.500000
vt 0.500000 0.500000
vt 0.500000 0.500000
vt 0.500000 0.500000
vt 0.500000 0.500000
vt 0.500000 0.500000
vt 0.500000 0.500000
vt 0.500000 0.500000
vt 0.500000 0.500000
vt 0.500000 0.500000
vt 0.500000 0.500000
vt 0.500000 0.500000
vt 0.500000 0.500000
vt 0.500000 0.500000
vt 0.500000 0.500000
vt 0.500000 0.500000
vt 0.500000 0.500000
vt 0.500000 0.500000
vt 0.500000 0.500000
vt 0.500000 0.500000
vt 0.500000 0.500000
vt 0.500000 0.500000
vt 0.500000 0.500000
vt 0.500000 0.500000
vt 0.500000 0.500000
vt 0.500000 0.500000
vt 0.500000 0.500000
vt 0.500000 0.500000
vt 0.500000 0.500000
vt 0.500000 0.500000
vt 0.500000 0.500000
vt 0.500000 0.500000
vt 0.500000 0.500000
vt 0.500000 0.500000
vt 0.500000 0.500000
vt 0.500000 0.500000
vt 0.500000 0.500000
vt 0.500000 0.500000
vt 0.500000 0.500000
vt 0.500000 0.500000
vt 0.500000 0.500000
vt 0.500000 0.500000
vt 0.500000 0.500000
vt 0.500000 0.500000
vt 0.500000 0.500000
vt 0.500000 0.500000
vt 0.500000 0.500000
vt 0.500000 0.500000
vt 0.500000 0.500000
vt 0.500000 0.500000
vt 0.500000 0.500000
vt 0.500000 0.500000
vt 0.500000 0.500000
vt 0.500000 0.500000
vt 0.500000 0.500000
vt 0.500000 0.500000
vt 0.500000 0.500000
vt 0.500000 0.500000
vt 0.500000 0.500000
vt 0.500000 0.500000
vt 0.500000 0.500000
vt 0.500000 0.500000
vt 0.500000 0.500000
vt 0.500000 0.500000
vt 0.500000 0.500000
vt 0.500000 0.500000
vt 0.500000 0.500000
vt 0.500000 0.500000
vt 0.500000 0.500000
vt 0.500000 0.500000
vt 0.500000 0.500000
vt 0.500000 0.500000
vt 0.500000 0.500000
vt 0.500000 0.500000
vt 0.500000 0.500000
vt 0.219243 0.963756
vt 0.225213 0.951221
vt 0.223963 0.971308
vt 0.217855 0.956567
vt 0.218973 0.956456
vt 0.217956 0.961551
vt 0.215223 0.955539
vt 0.216424 0.955668
vt 0.214690 0.957389
vt 0.227201 0.971224
vt 0.233607 0.966855
vt 0.234375 0.972222
vt 0.230781 0.971005
vt 0.219168 0.966927
vt 0.224565 0.977512
vt 0.224699 0.975566
vt 0.225486 0.978699
vt 0.227807 0.950086
vt 0.227736 0.947849
vt 0.230835 0.943251
vt 0.218894 0.961683
vt 0.228624 0.970640
vt 0.233362 0.963638
vt 0.226752 0.951265
vt 0.227622 0.975685
vt 0.216712 0.962237
vt 0.218750 0.972222
vt 0.234061 0.956710
vt 0.233686 0.961527
vt 0.236172 0.956106
vt 0.237314 0.955970
vt 0.238034 0.957699
vt 0.219384 0.954104
vt 0.224167 0.949941
vt 0.233763 0.954262
vt 0.219279 0.950490
vt 0.224262 0.947577
vt 0.234375 0.944445
vt 0.234817 0.961381
vt 0.227232 0.945331
vt 0.227323 0.943457
vt 0.228714 0.942892
vt 0.225215 0.971877
vt 0.238169 0.960263
vt 0.236321 0.962097
vt 0.227096 0.973144
vt 0.225238 0.973460
vt 0.234958 0.956929
vt 0.227772 0.977860
vt 0.226861 0.978872
vt 0.237598 0.962080
vt 0.214833 0.960136
vt 0.221881 0.943022
vt 0.215556 0.962122
vt 0.224833 0.944946
vt 0.223732 0.942534
vt 0.224887 0.943032
vt 0.218750 0.944445
vn -0.0000 -1.0000 0.0000
vn -0.0706 0.0000 -0.9975
vn 0.5300 0.0000 -0.8480
vn -0.5867 0.0000 -0.8098
vn 0.9925 0.0000 0.1219
vn -0.9925 0.0000 0.1221
vn 0.9385 0.0000 0.3452
vn -0.9102 0.0000 0.4141
vn -0.9997 0.0000 -0.0262
vn 0.9953 0.0000 -0.0964
vn -0.2477 0.0000 -0.9688
vn -0.1871 0.0000 -0.9823
vn 0.0982 0.0000 -0.9952
vn 0.2248 0.0000 -0.9744
vn -0.0945 0.0000 -0.9955
vn -0.9903 0.0000 0.1391
vn 0.9691 0.0000 0.2467
vn -0.9991 0.0000 0.0417
vn 0.9910 0.0000 0.1342
vn -0.9581 0.0000 -0.2866
vn 0.9646 0.0000 -0.2635
vn -0.0557 0.0000 -0.9984
vn 0.2959 0.0000 -0.9552
vn -0.8395 0.0000 -0.5434
vn -0.2587 0.0000 -0.9660
vn 0.0077 0.0000 -1.0000
vn 0.8729 0.0000 -0.4879
vn -0.0787 0.0000 -0.9969
vn 0.0722 0.0000 -0.9974
vn 0.9956 0.0000 0.0932
vn -0.9957 0.0000 -0.0923
vn 0.8034 0.0000 0.5955
vn -0.8899 0.0000 0.4562
vn 0.1362 0.0000 0.9907
vn -0.3561 0.0000 0.9344
vn -0.0668 0.0000 0.9978
vn -0.0559 0.0000 0.9984
vn 0.9772 0.0000 0.2123
vn 0.0603 0.0000 0.9982
vn 0.3333 0.0000 0.9428
vn -0.9551 0.0000 0.2964
vn -0.9987 0.0000 -0.0513
vn 0.0159 0.0000 0.9999
vn -0.5322 0.0000 0.8466
vn 0.5669 0.0000 0.8238
vn -0.9984 0.0000 -0.0563
vn 0.9975 0.0000 -0.0711
vn -0.9422 0.0000 -0.3351
vn 0.9330 0.0000 -0.3599
vn -0.9881 0.0000 -0.1538
vn -0.9963 0.0000 0.0854
vn 0.9939 0.0000 -0.1103
vn 0.9987 0.0000 -0.0500
vn 0.1862 0.0000 0.9825
vn -0.2474 0.0000 0.9689
vn -0.2224 0.0000 0.9749
vn 0.0948 0.0000 0.9955
vn -0.1469 0.0000 0.9892
vn 0.2356 0.0000 0.9719
vn 0.0000 1.0000 -0.0000
usemtl BackMat.001
s off
f 215/1/1 206/2/1 247/3/1
f 241/4/1 223/5/1 239/6/1
f 233/7/1 231/8/1 243/9/1
f 206/2/1 204/10/1 247/3/1
f 214/11/1 207/12/1 208/13/1
f 213/14/1 206/2/1 215/1/1
f 196/15/1 192/16/1 199/17/1
f 248/18/1 263/19/1 251/20/1
f 239/6/1 217/21/1 247/3/1
f 207/12/1 216/22/1 212/23/1
f 247/3/1 204/10/1 246/24/1
f 192/16/1 198/25/1 199/17/1
f 222/26/1 223/5/1 241/4/1
f 206/2/1 213/14/1 210/27/1
f 246/24/1 219/28/1 236/29/1
f 238/30/1 230/31/1 232/32/1
f 244/33/1 247/3/1 250/34/1
f 263/19/1 248/18/1 242/35/1
f 245/36/1 250/34/1 252/37/1
f 263/19/1 242/35/1 259/38/1
f 236/29/1 242/35/1 248/18/1
f 225/39/1 236/29/1 219/28/1
f 253/40/1 265/41/1 257/42/1
f 202/43/1 204/10/1 206/2/1
f 230/31/1 226/44/1 229/45/1
f 200/46/1 201/47/1 198/25/1
f 226/44/1 235/48/1 225/39/1
f 251/20/1 265/41/1 253/40/1
f 246/24/1 216/22/1 219/28/1
f 194/49/1 198/25/1 193/50/1
f 238/30/1 226/44/1 230/31/1
f 229/45/1 226/44/1 227/51/1
f 239/6/1 247/3/1 244/33/1
f 246/24/1 236/29/1 248/18/1
f 224/52/1 222/26/1 243/9/1
f 193/50/1 198/25/1 192/16/1
f 199/17/1 198/25/1 201/47/1
f 201/47/1 200/46/1 202/43/1
f 245/36/1 252/37/1 264/53/1
f 217/21/1 239/6/1 223/5/1
f 202/43/1 200/46/1 204/10/1
f 244/33/1 250/34/1 245/36/1
f 243/9/1 222/26/1 241/4/1
f 221/54/1 222/26/1 224/52/1
f 254/55/1 266/56/1 252/37/1
f 235/48/1 226/44/1 238/30/1
f 216/22/1 207/12/1 214/11/1
f 236/29/1 225/39/1 235/48/1
f 212/23/1 216/22/1 246/24/1
f 264/53/1 252/37/1 266/56/1
f 261/57/1 266/56/1 254/55/1
f 251/20/1 263/19/1 265/41/1
f 231/8/1 224/52/1 243/9/1
f 255/58/1 245/36/1 264/53/1
f 204/10/1 212/23/1 246/24/1
f 217/21/1 215/1/1 247/3/1
f 50/59/2 51/60/2 109/61/2 108/62/2
f 51/60/3 120/63/3 195/64/3 109/61/3
f 122/65/4 50/59/4 108/62/4 197/66/4
f 52/67/5 53/68/5 111/69/5 110/70/5
f 48/71/6 49/72/6 107/73/6 106/74/6
f 53/68/7 54/75/7 112/76/7 111/69/7
f 47/77/8 48/71/8 106/74/8 105/78/8
f 128/79/9 47/77/9 105/78/9 203/80/9
f 54/75/10 130/81/10 205/82/10 112/76/10
f 45/83/11 46/84/11 104/85/11 103/86/11
f 57/87/12 134/88/12 209/89/12 115/90/12
f 136/91/13 45/83/13 103/86/13 211/92/13
f 55/93/14 56/94/14 114/95/14 113/96/14
f 56/94/15 57/87/15 115/90/15 114/95/15
f 43/97/16 44/98/16 102/99/16 101/100/16
f 58/101/17 1/102/17 59/103/17 116/104/17
f 42/105/18 43/97/18 101/100/18 100/106/18
f 1/102/19 2/107/19 60/108/19 59/103/19
f 143/109/20 42/105/20 100/106/20 218/110/20
f 2/107/21 145/111/21 220/112/21 60/108/21
f 38/113/22 39/114/22 97/115/22 96/116/22
f 39/114/23 40/117/23 98/118/23 97/115/23
f 37/119/24 38/113/24 96/116/24 95/120/24
f 4/121/25 5/122/25 63/123/25 62/124/25
f 5/122/26 153/125/26 228/126/26 63/123/26
f 6/127/27 7/128/27 65/129/27 64/130/27
f 40/117/28 41/131/28 99/132/28 98/118/28
f 3/133/29 4/121/29 62/124/29 61/134/29
f 7/128/30 8/135/30 66/136/30 65/129/30
f 36/137/31 37/119/31 95/120/31 94/138/31
f 8/135/32 9/139/32 67/140/32 66/136/32
f 159/141/33 36/137/33 94/138/33 234/142/33
f 11/143/34 162/144/34 237/145/34 69/146/34
f 10/147/35 11/143/35 69/146/35 68/148/35
f 9/139/36 10/147/36 68/148/36 67/140/36
f 165/149/37 33/150/37 91/151/37 240/152/37
f 12/153/38 13/154/38 71/155/38 70/156/38
f 34/157/39 35/158/39 93/159/39 92/160/39
f 33/150/40 34/157/40 92/160/40 91/151/40
f 31/161/41 32/162/41 90/163/41 89/164/41
f 30/165/42 31/161/42 89/164/42 88/166/42
f 21/167/43 22/168/43 80/169/43 79/170/43
f 174/171/44 21/167/44 79/170/44 249/172/44
f 22/168/45 23/173/45 81/174/45 80/169/45
f 19/175/46 20/176/46 78/177/46 77/178/46
f 23/173/47 24/179/47 82/180/47 81/174/47
f 18/181/48 19/175/48 77/178/48 76/182/48
f 24/179/49 25/183/49 83/184/49 82/180/49
f 181/185/50 30/165/50 88/166/50 256/186/50
f 183/187/51 18/181/51 76/182/51 258/188/51
f 13/154/52 185/189/52 260/190/52 71/155/52
f 25/183/53 187/191/53 262/192/53 83/184/53
f 14/193/54 15/194/54 73/195/54 72/196/54
f 28/197/55 29/198/55 87/199/55 86/200/55
f 16/201/56 17/202/56 75/203/56 74/204/56
f 15/194/57 16/201/57 74/204/57 73/195/57
f 27/205/58 28/197/58 86/200/58 85/206/58
f 26/207/59 27/205/59 85/206/59 84/208/59
usemtl FrontMat.001
f 140/209/60 172/210/60 131/211/60
f 166/212/60 164/213/60 148/214/60
f 158/215/60 168/216/60 156/217/60
f 131/211/60 172/210/60 129/218/60
f 139/219/60 133/220/60 132/221/60
f 138/222/60 140/209/60 131/211/60
f 121/223/60 124/224/60 117/225/60
f 173/226/60 176/227/60 188/228/60
f 164/213/60 172/210/60 142/229/60
f 132/221/60 137/230/60 141/231/60
f 172/210/60 171/232/60 129/218/60
f 117/225/60 124/224/60 123/233/60
f 147/234/60 166/212/60 148/214/60
f 131/211/60 135/235/60 138/222/60
f 171/232/60 161/236/60 144/237/60
f 163/238/60 157/239/60 155/240/60
f 169/241/60 175/242/60 172/210/60
f 188/228/60 167/243/60 173/226/60
f 170/244/60 177/245/60 175/242/60
f 188/228/60 184/246/60 167/243/60
f 161/236/60 173/226/60 167/243/60
f 150/247/60 144/237/60 161/236/60
f 178/248/60 182/249/60 190/250/60
f 127/251/60 131/211/60 129/218/60
f 155/240/60 154/252/60 151/253/60
f 125/254/60 123/233/60 126/255/60
f 151/253/60 150/247/60 160/256/60
f 176/227/60 178/248/60 190/250/60
f 171/232/60 144/237/60 141/231/60
f 119/257/60 118/258/60 123/233/60
f 163/238/60 155/240/60 151/253/60
f 154/252/60 152/259/60 151/253/60
f 164/213/60 169/241/60 172/210/60
f 171/232/60 173/226/60 161/236/60
f 149/260/60 168/216/60 147/234/60
f 118/258/60 117/225/60 123/233/60
f 124/224/60 126/255/60 123/233/60
f 126/255/60 127/251/60 125/254/60
f 170/244/60 189/261/60 177/245/60
f 142/229/60 148/214/60 164/213/60
f 127/251/60 129/218/60 125/254/60
f 169/241/60 170/244/60 175/242/60
f 168/216/60 166/212/60 147/234/60
f 146/262/60 149/260/60 147/234/60
f 179/263/60 177/245/60 191/264/60
f 160/256/60 163/238/60 151/253/60
f 141/231/60 139/219/60 132/221/60
f 161/236/60 160/256/60 150/247/60
f 137/230/60 171/232/60 141/231/60
f 189/261/60 191/264/60 177/245/60
f 186/265/60 179/263/60 191/264/60
f 176/227/60 190/250/60 188/228/60
f 156/217/60 168/216/60 149/260/60
f 180/266/60 189/261/60 170/244/60
f 129/218/60 171/232/60 137/230/60
f 142/229/60 172/210/60 140/209/60
