# Blender v2.83.1 OBJ File: 'jigsaw-64x36-3-step2.blend'
# www.blender.org
mtllib piece.1067.mtl
o path6750
v -0.550686 0.037500 0.297043
v -0.550713 0.037500 0.180315
v -0.527382 0.037500 0.103390
v -0.472343 0.037500 0.097372
v -0.401886 0.037500 0.122370
v -0.338463 0.037500 0.120741
v -0.301422 0.037500 0.054205
v -0.297752 0.037500 -0.038046
v -0.331352 0.037500 -0.097462
v -0.400513 0.037500 -0.086235
v -0.481266 0.037500 -0.049538
v -0.544052 0.037500 -0.053278
v -0.567387 0.037500 -0.142668
v -0.533299 0.037500 -0.510115
v -0.306904 0.037500 -0.459890
v -0.170929 0.037500 -0.442120
v -0.081024 0.037500 -0.458208
v -0.073742 0.037500 -0.522827
v -0.105007 0.037500 -0.610565
v -0.110569 0.037500 -0.685987
v -0.046833 0.037500 -0.720360
v 0.047211 0.037500 -0.711718
v 0.111935 0.037500 -0.664804
v 0.107792 0.037500 -0.588415
v 0.075554 0.037500 -0.507582
v 0.076080 0.037500 -0.451395
v 0.151615 0.037500 -0.440250
v 0.468613 0.037500 -0.510115
v 0.434048 0.037500 -0.284622
v 0.426037 0.037500 -0.148647
v 0.449383 0.037500 -0.057520
v 0.516602 0.037500 -0.047440
v 0.605827 0.037500 -0.075514
v 0.686581 0.037500 -0.079077
v 0.733147 0.037500 -0.015574
v 0.738838 0.037500 0.077124
v 0.701721 0.037500 0.141043
v 0.625492 0.037500 0.137749
v 0.536377 0.037500 0.106993
v 0.466236 0.037500 0.108055
v 0.438305 0.037500 0.182072
v 0.441345 0.037500 0.297562
v 0.468613 0.037500 0.491583
v 0.273224 0.037500 0.447624
v 0.156494 0.037500 0.433531
v 0.080711 0.037500 0.451855
v 0.077194 0.037500 0.516100
v 0.104206 0.037500 0.601659
v 0.101750 0.037500 0.674397
v 0.030041 0.037500 0.707081
v -0.069935 0.037500 0.700061
v -0.136970 0.037500 0.660594
v -0.130985 0.037500 0.598224
v -0.096367 0.037500 0.531634
v -0.098617 0.037500 0.481798
v -0.183006 0.037500 0.463688
v -0.533298 0.037500 0.491583
v -0.550686 -0.037500 0.297043
v -0.550713 -0.037500 0.180315
v -0.527382 -0.037500 0.103390
v -0.472343 -0.037500 0.097372
v -0.401886 -0.037498 0.122370
v -0.338463 -0.037500 0.120741
v -0.301422 -0.037500 0.054205
v -0.297752 -0.037500 -0.038046
v -0.331352 -0.037500 -0.097462
v -0.400513 -0.037500 -0.086235
v -0.481266 -0.037500 -0.049538
v -0.544052 -0.037500 -0.053278
v -0.567387 -0.037498 -0.142668
v -0.533299 -0.037500 -0.510115
v -0.306904 -0.037498 -0.459890
v -0.170929 -0.037500 -0.442120
v -0.081024 -0.037500 -0.458208
v -0.073742 -0.037500 -0.522827
v -0.105007 -0.037500 -0.610565
v -0.110569 -0.037500 -0.685987
v -0.046833 -0.037500 -0.720360
v 0.047211 -0.037500 -0.711718
v 0.111935 -0.037500 -0.664804
v 0.107792 -0.037500 -0.588415
v 0.075554 -0.037498 -0.507582
v 0.076080 -0.037500 -0.451395
v 0.151615 -0.037498 -0.440250
v 0.468613 -0.037500 -0.510115
v 0.434048 -0.037500 -0.284622
v 0.426037 -0.037498 -0.148647
v 0.449383 -0.037500 -0.057520
v 0.516602 -0.037498 -0.047440
v 0.605827 -0.037498 -0.075514
v 0.686581 -0.037500 -0.079077
v 0.733147 -0.037500 -0.015574
v 0.738838 -0.037500 0.077124
v 0.701721 -0.037500 0.141043
v 0.625492 -0.037500 0.137749
v 0.536377 -0.037500 0.106993
v 0.466236 -0.037500 0.108055
v 0.438305 -0.037498 0.182072
v 0.441345 -0.037500 0.297562
v 0.468613 -0.037500 0.491583
v 0.273224 -0.037498 0.447624
v 0.156494 -0.037500 0.433531
v 0.080711 -0.037500 0.451855
v 0.077194 -0.037500 0.516100
v 0.104206 -0.037500 0.601659
v 0.101750 -0.037500 0.674397
v 0.030041 -0.037500 0.707081
v -0.069935 -0.037500 0.700061
v -0.136970 -0.037500 0.660594
v -0.130985 -0.037498 0.598224
v -0.096367 -0.037500 0.531634
v -0.098617 -0.037498 0.481798
v -0.183006 -0.037500 0.463688
v -0.533298 -0.037500 0.491583
v 0.101750 0.037500 0.674397
v 0.101750 0.037500 0.674397
v 0.030041 0.037500 0.707081
v -0.069935 0.037500 0.700061
v -0.136970 0.037500 0.660594
v -0.136970 0.037500 0.660594
v 0.104206 0.037500 0.601659
v -0.130985 0.037500 0.598224
v 0.077194 0.037500 0.516100
v -0.096367 0.037500 0.531634
v -0.098617 0.037500 0.481798
v -0.098617 0.037500 0.481798
v 0.080711 0.037500 0.451855
v 0.080711 0.037500 0.451855
v -0.183006 0.037500 0.463688
v 0.468613 0.037500 0.491583
v 0.468613 0.037500 0.491583
v 0.273224 0.037500 0.447624
v -0.533298 0.037500 0.491583
v -0.533298 0.037500 0.491583
v 0.156494 0.037500 0.433531
v 0.441345 0.037500 0.297562
v -0.550686 0.037500 0.297043
v 0.438305 0.037500 0.182072
v -0.550713 0.037500 0.180315
v 0.466236 0.037500 0.108055
v 0.466236 0.037500 0.108055
v -0.527382 0.037500 0.103390
v -0.527382 0.037500 0.103390
v 0.738838 0.037500 0.077124
v 0.701721 0.037500 0.141043
v 0.701721 0.037500 0.141043
v 0.625492 0.037500 0.137749
v 0.536377 0.037500 0.106993
v -0.401886 0.037500 0.122370
v -0.338463 0.037500 0.120741
v -0.472343 0.037500 0.097372
v -0.301422 0.037500 0.054205
v 0.733147 0.037500 -0.015574
v -0.297752 0.037500 -0.038046
v 0.686581 0.037500 -0.079077
v -0.331352 0.037500 -0.097462
v -0.331352 0.037500 -0.097462
v 0.605827 0.037500 -0.075514
v 0.516602 0.037500 -0.047440
v 0.449383 0.037500 -0.057520
v 0.449383 0.037500 -0.057520
v -0.400513 0.037500 -0.086235
v -0.481266 0.037500 -0.049538
v -0.544052 0.037500 -0.053278
v -0.544052 0.037500 -0.053278
v -0.567387 0.037500 -0.142668
v 0.426037 0.037500 -0.148647
v 0.434048 0.037500 -0.284622
v 0.468613 0.037500 -0.510115
v 0.468613 0.037500 -0.510115
v 0.076080 0.037500 -0.451395
v 0.076080 0.037500 -0.451395
v 0.151615 0.037500 -0.440250
v -0.170929 0.037500 -0.442120
v -0.081024 0.037500 -0.458208
v -0.081024 0.037500 -0.458208
v -0.306904 0.037500 -0.459890
v 0.075554 0.037500 -0.507582
v -0.073742 0.037500 -0.522827
v -0.533299 0.037500 -0.510115
v -0.533299 0.037500 -0.510115
v 0.107792 0.037500 -0.588415
v -0.105007 0.037500 -0.610565
v 0.111935 0.037500 -0.664804
v -0.110569 0.037500 -0.685987
v -0.110569 0.037500 -0.685987
v 0.047211 0.037500 -0.711718
v -0.046833 0.037500 -0.720360
v 0.101750 -0.037500 0.674397
v 0.101750 -0.037500 0.674397
v 0.030041 -0.037500 0.707081
v -0.069935 -0.037500 0.700061
v -0.136970 -0.037500 0.660594
v -0.136970 -0.037500 0.660594
v 0.104206 -0.037500 0.601659
v -0.130985 -0.037498 0.598224
v 0.077194 -0.037500 0.516100
v -0.096367 -0.037500 0.531634
v -0.098617 -0.037498 0.481798
v -0.098617 -0.037498 0.481798
v 0.080711 -0.037500 0.451855
v 0.080711 -0.037500 0.451855
v -0.183006 -0.037500 0.463688
v 0.468613 -0.037500 0.491583
v 0.468613 -0.037500 0.491583
v 0.273224 -0.037498 0.447624
v -0.533298 -0.037500 0.491583
v -0.533298 -0.037500 0.491583
v 0.156494 -0.037500 0.433531
v 0.441345 -0.037500 0.297562
v -0.550686 -0.037500 0.297043
v 0.438305 -0.037498 0.182072
v -0.550713 -0.037500 0.180315
v 0.466236 -0.037500 0.108055
v 0.466236 -0.037500 0.108055
v -0.527382 -0.037500 0.103390
v -0.527382 -0.037500 0.103390
v 0.738838 -0.037500 0.077124
v 0.701721 -0.037500 0.141043
v 0.701721 -0.037500 0.141043
v 0.625492 -0.037500 0.137749
v 0.536377 -0.037500 0.106993
v -0.401886 -0.037498 0.122370
v -0.338463 -0.037500 0.120741
v -0.472343 -0.037500 0.097372
v -0.301422 -0.037500 0.054205
v 0.733147 -0.037500 -0.015574
v -0.297752 -0.037500 -0.038046
v 0.686581 -0.037500 -0.079077
v -0.331352 -0.037500 -0.097462
v -0.331352 -0.037500 -0.097462
v 0.605827 -0.037498 -0.075514
v 0.516602 -0.037498 -0.047440
v 0.449383 -0.037500 -0.057520
v 0.449383 -0.037500 -0.057520
v -0.400513 -0.037500 -0.086235
v -0.481266 -0.037500 -0.049538
v -0.544052 -0.037500 -0.053278
v -0.544052 -0.037500 -0.053278
v -0.567387 -0.037498 -0.142668
v 0.426037 -0.037498 -0.148647
v 0.434048 -0.037500 -0.284622
v 0.468613 -0.037500 -0.510115
v 0.468613 -0.037500 -0.510115
v 0.076080 -0.037500 -0.451395
v 0.076080 -0.037500 -0.451395
v 0.151615 -0.037498 -0.440250
v -0.170929 -0.037500 -0.442120
v -0.081024 -0.037500 -0.458208
v -0.081024 -0.037500 -0.458208
v -0.306904 -0.037498 -0.459890
v 0.075554 -0.037498 -0.507582
v -0.073742 -0.037500 -0.522827
v -0.533299 -0.037500 -0.510115
v -0.533299 -0.037500 -0.510115
v 0.107792 -0.037500 -0.588415
v -0.105007 -0.037500 -0.610565
v 0.111935 -0.037500 -0.664804
v -0.110569 -0.037500 -0.685987
v -0.110569 -0.037500 -0.685987
v 0.047211 -0.037500 -0.711718
v -0.046833 -0.037500 -0.720360
vt 0.500000 0.500000
vt 0.500000 0.500000
vt 0.500000 0.500000
vt 0.500000 0.500000
vt 0.500000 0.500000
vt 0.500000 0.500000
vt 0.500000 0.500000
vt 0.500000 0.500000
vt 0.500000 0.500000
vt 0.500000 0.500000
vt 0.500000 0.500000
vt 0.500000 0.500000
vt 0.500000 0.500000
vt 0.500000 0.500000
vt 0.500000 0.500000
vt 0.500000 0.500000
vt 0.500000 0.500000
vt 0.500000 0.500000
vt 0.500000 0.500000
vt 0.500000 0.500000
vt 0.500000 0.500000
vt 0.500000 0.500000
vt 0.500000 0.500000
vt 0.500000 0.500000
vt 0.500000 0.500000
vt 0.500000 0.500000
vt 0.500000 0.500000
vt 0.500000 0.500000
vt 0.500000 0.500000
vt 0.500000 0.500000
vt 0.500000 0.500000
vt 0.500000 0.500000
vt 0.500000 0.500000
vt 0.500000 0.500000
vt 0.500000 0.500000
vt 0.500000 0.500000
vt 0.500000 0.500000
vt 0.500000 0.500000
vt 0.500000 0.500000
vt 0.500000 0.500000
vt 0.500000 0.500000
vt 0.500000 0.500000
vt 0.500000 0.500000
vt 0.500000 0.500000
vt 0.500000 0.500000
vt 0.500000 0.500000
vt 0.500000 0.500000
vt 0.500000 0.500000
vt 0.500000 0.500000
vt 0.500000 0.500000
vt 0.500000 0.500000
vt 0.500000 0.500000
vt 0.500000 0.500000
vt 0.500000 0.500000
vt 0.500000 0.500000
vt 0.500000 0.500000
vt 0.500000 0.500000
vt 0.500000 0.500000
vt 0.500000 0.500000
vt 0.500000 0.500000
vt 0.500000 0.500000
vt 0.500000 0.500000
vt 0.500000 0.500000
vt 0.500000 0.500000
vt 0.500000 0.500000
vt 0.500000 0.500000
vt 0.500000 0.500000
vt 0.500000 0.500000
vt 0.500000 0.500000
vt 0.500000 0.500000
vt 0.500000 0.500000
vt 0.500000 0.500000
vt 0.500000 0.500000
vt 0.500000 0.500000
vt 0.500000 0.500000
vt 0.500000 0.500000
vt 0.500000 0.500000
vt 0.500000 0.500000
vt 0.500000 0.500000
vt 0.500000 0.500000
vt 0.500000 0.500000
vt 0.500000 0.500000
vt 0.500000 0.500000
vt 0.500000 0.500000
vt 0.500000 0.500000
vt 0.500000 0.500000
vt 0.500000 0.500000
vt 0.500000 0.500000
vt 0.500000 0.500000
vt 0.500000 0.500000
vt 0.500000 0.500000
vt 0.500000 0.500000
vt 0.500000 0.500000
vt 0.500000 0.500000
vt 0.500000 0.500000
vt 0.500000 0.500000
vt 0.500000 0.500000
vt 0.500000 0.500000
vt 0.500000 0.500000
vt 0.500000 0.500000
vt 0.500000 0.500000
vt 0.500000 0.500000
vt 0.500000 0.500000
vt 0.500000 0.500000
vt 0.500000 0.500000
vt 0.500000 0.500000
vt 0.500000 0.500000
vt 0.500000 0.500000
vt 0.500000 0.500000
vt 0.500000 0.500000
vt 0.500000 0.500000
vt 0.500000 0.500000
vt 0.500000 0.500000
vt 0.500000 0.500000
vt 0.500000 0.500000
vt 0.500000 0.500000
vt 0.500000 0.500000
vt 0.500000 0.500000
vt 0.500000 0.500000
vt 0.500000 0.500000
vt 0.500000 0.500000
vt 0.500000 0.500000
vt 0.500000 0.500000
vt 0.500000 0.500000
vt 0.500000 0.500000
vt 0.500000 0.500000
vt 0.500000 0.500000
vt 0.500000 0.500000
vt 0.500000 0.500000
vt 0.500000 0.500000
vt 0.500000 0.500000
vt 0.500000 0.500000
vt 0.500000 0.500000
vt 0.500000 0.500000
vt 0.500000 0.500000
vt 0.500000 0.500000
vt 0.500000 0.500000
vt 0.500000 0.500000
vt 0.500000 0.500000
vt 0.500000 0.500000
vt 0.500000 0.500000
vt 0.500000 0.500000
vt 0.500000 0.500000
vt 0.500000 0.500000
vt 0.500000 0.500000
vt 0.500000 0.500000
vt 0.500000 0.500000
vt 0.500000 0.500000
vt 0.500000 0.500000
vt 0.500000 0.500000
vt 0.500000 0.500000
vt 0.500000 0.500000
vt 0.500000 0.500000
vt 0.500000 0.500000
vt 0.500000 0.500000
vt 0.500000 0.500000
vt 0.500000 0.500000
vt 0.500000 0.500000
vt 0.500000 0.500000
vt 0.500000 0.500000
vt 0.500000 0.500000
vt 0.500000 0.500000
vt 0.500000 0.500000
vt 0.500000 0.500000
vt 0.500000 0.500000
vt 0.500000 0.500000
vt 0.500000 0.500000
vt 0.500000 0.500000
vt 0.500000 0.500000
vt 0.500000 0.500000
vt 0.500000 0.500000
vt 0.500000 0.500000
vt 0.500000 0.500000
vt 0.500000 0.500000
vt 0.500000 0.500000
vt 0.500000 0.500000
vt 0.500000 0.500000
vt 0.500000 0.500000
vt 0.500000 0.500000
vt 0.500000 0.500000
vt 0.500000 0.500000
vt 0.500000 0.500000
vt 0.500000 0.500000
vt 0.500000 0.500000
vt 0.500000 0.500000
vt 0.500000 0.500000
vt 0.500000 0.500000
vt 0.500000 0.500000
vt 0.500000 0.500000
vt 0.500000 0.500000
vt 0.500000 0.500000
vt 0.500000 0.500000
vt 0.500000 0.500000
vt 0.500000 0.500000
vt 0.500000 0.500000
vt 0.500000 0.500000
vt 0.500000 0.500000
vt 0.500000 0.500000
vt 0.500000 0.500000
vt 0.500000 0.500000
vt 0.500000 0.500000
vt 0.500000 0.500000
vt 0.500000 0.500000
vt 0.500000 0.500000
vt 0.500000 0.500000
vt 0.668259 0.543427
vt 0.656723 0.546973
vt 0.656550 0.540328
vt 0.663090 0.561531
vt 0.661933 0.558608
vt 0.665061 0.556666
vt 0.672146 0.550161
vt 0.671875 0.555556
vt 0.666412 0.554782
vt 0.655193 0.544891
vt 0.653803 0.545744
vt 0.654110 0.539830
vt 0.672147 0.546924
vt 0.669826 0.545317
vt 0.665282 0.522901
vt 0.665196 0.524992
vt 0.664288 0.521948
vt 0.664822 0.529217
vt 0.666224 0.529663
vt 0.668202 0.540869
vt 0.661813 0.523488
vt 0.662822 0.522187
vt 0.661877 0.525606
vt 0.652036 0.544062
vt 0.652125 0.541492
vt 0.656914 0.537802
vt 0.661194 0.529715
vt 0.659297 0.554337
vt 0.656675 0.550175
vt 0.662354 0.556235
vt 0.662299 0.554454
vt 0.665096 0.555284
vt 0.664708 0.527425
vt 0.662372 0.529406
vt 0.668836 0.545272
vt 0.661118 0.553946
vt 0.670924 0.544624
vt 0.664649 0.561337
vt 0.656287 0.544920
vt 0.672043 0.540446
vt 0.671064 0.540550
vt 0.672407 0.537967
vt 0.655502 0.540608
vt 0.661971 0.560625
vt 0.656789 0.534031
vt 0.656250 0.527778
vt 0.662380 0.527848
vt 0.665601 0.558513
vt 0.669804 0.539532
vt 0.668726 0.539221
vt 0.668344 0.529171
vt 0.671875 0.527778
vt 0.652851 0.539731
vt 0.665694 0.560242
vt 0.652615 0.545835
vt 0.656250 0.555556
vt 0.671783 0.544791
vn 0.0000 -1.0000 0.0000
vn -0.0001 -1.0000 0.0000
vn 0.4147 0.0000 0.9099
vn -0.0700 0.0000 0.9975
vn -0.5073 0.0000 0.8617
vn 0.9994 0.0000 0.0338
vn -0.9954 0.0000 -0.0955
vn 0.9536 0.0000 -0.3011
vn -0.8873 0.0000 -0.4613
vn -0.9990 0.0000 0.0451
vn 0.9985 0.0000 0.0547
vn -0.2098 0.0000 0.9777
vn -0.2195 0.0000 0.9756
vn 0.0794 0.0000 0.9968
vn 0.2350 0.0000 0.9720
vn -0.1199 0.0000 0.9928
vn 0.9903 0.0000 -0.1392
vn -0.9960 0.0000 0.0890
vn 0.9997 0.0000 -0.0263
vn -1.0000 0.0000 0.0002
vn 0.9356 0.0000 0.3531
vn -0.9570 0.0000 -0.2902
vn 0.8648 0.0000 0.5022
vn -0.0432 0.0000 0.9991
vn -0.3262 0.0000 0.9453
vn -0.0257 0.0000 -0.9997
vn 0.3344 0.0000 -0.9424
vn -0.1087 0.0000 -0.9941
vn -0.8737 0.0000 -0.4864
vn 0.0151 0.0000 0.9999
vn 0.9981 0.0000 -0.0613
vn -0.9992 0.0000 -0.0397
vn 0.8064 0.0000 -0.5913
vn -0.8705 0.0000 0.4922
vn -0.0441 0.0000 -0.9990
vn -0.3001 0.0000 -0.9539
vn 0.1483 0.0000 -0.9889
vn 0.4137 0.0000 0.9104
vn -0.0595 0.0000 0.9982
vn -0.9676 0.0000 0.2526
vn 0.9687 0.0000 -0.2482
vn 0.1602 0.0000 0.9871
vn 0.9983 0.0000 0.0588
vn 0.9885 0.0000 0.1515
vn 0.1460 0.0000 -0.9893
vn -0.1762 0.0000 -0.9844
vn 0.1296 0.0000 -0.9916
vn 1.0000 0.0000 -0.0094
vn -0.9937 0.0000 -0.1120
vn 0.2166 0.0000 -0.9763
vn -0.9957 0.0000 -0.0924
vn -0.2152 0.0000 -0.9766
vn 0.9289 0.0000 0.3704
vn -0.9420 0.0000 0.3357
vn 0.9985 0.0000 0.0542
vn -0.9973 0.0000 0.0735
vn 0.5869 0.0000 -0.8097
vn 0.0915 0.0000 -0.9958
vn -0.4747 0.0000 -0.8802
vn 0.0000 1.0000 0.0000
usemtl BackMat.001
s off
f 226/1/1 234/2/1 212/3/1
f 191/4/1 198/5/1 195/6/1
f 211/7/1 203/8/1 207/9/1
f 222/10/1 232/11/1 221/12/1
f 213/13/1 223/14/1 211/7/1
f 259/15/1 262/16/1 257/17/1
f 249/18/1 228/19/1 248/20/1
f 258/21/1 256/22/1 261/23/1
f 221/12/1 227/24/1 218/25/1
f 228/19/1 241/26/1 234/2/1
f 228/19/1 247/27/1 241/26/1
f 206/28/1 212/3/1 210/29/1
f 195/6/1 198/5/1 197/30/1
f 197/30/1 199/31/1 201/32/1
f 257/17/1 256/22/1 253/33/1
f 228/19/1 249/18/1 245/34/1
f 211/7/1 223/14/1 224/35/1
f 209/36/1 212/3/1 206/28/1
f 223/14/1 213/13/1 225/37/1
f 192/38/1 198/5/1 191/4/1
f 212/3/2 234/2/2 214/39/2
f 238/40/1 240/41/1 237/42/1
f 214/39/1 233/43/1 222/10/1
f 191/4/1 195/6/1 189/44/1
f 233/43/1 232/11/1 222/10/1
f 245/34/1 247/27/1 228/19/1
f 226/1/1 212/3/1 209/36/1
f 234/2/1 233/43/1 214/39/1
f 242/45/1 247/27/1 243/46/1
f 241/26/1 247/27/1 242/45/1
f 252/47/1 253/33/1 256/22/1
f 199/31/1 197/30/1 198/5/1
f 198/5/2 192/38/2 196/48/2
f 199/31/1 226/1/1 201/32/1
f 203/8/1 224/35/1 226/1/1
f 236/49/1 251/50/1 230/51/1
f 251/50/1 240/41/1 254/52/1
f 262/16/1 261/23/1 257/17/1
f 253/33/1 252/47/1 249/18/1
f 232/11/1 227/24/1 221/12/1
f 237/42/1 240/41/1 236/49/1
f 248/20/1 230/51/1 251/50/1
f 240/41/1 251/50/1 236/49/1
f 227/24/1 232/11/1 229/53/1
f 256/22/1 257/17/1 261/23/1
f 196/48/1 192/38/1 193/54/1
f 203/8/1 226/1/1 199/31/1
f 226/1/1 228/19/1 234/2/1
f 211/7/1 224/35/1 203/8/1
f 221/12/1 218/25/1 219/55/1
f 245/34/1 249/18/1 252/47/1
f 230/51/1 248/20/1 228/19/1
f 206/28/1 210/29/1 204/56/1
f 225/37/1 213/13/1 216/57/1
f 201/32/1 226/1/1 209/36/1
f 116/58/3 50/59/3 107/60/3 190/61/3
f 50/59/4 51/62/4 108/63/4 107/60/4
f 51/62/5 120/64/5 194/65/5 108/63/5
f 48/66/6 49/67/6 106/68/6 105/69/6
f 52/70/7 53/71/7 110/72/7 109/73/7
f 47/74/8 48/66/8 105/69/8 104/75/8
f 53/71/9 54/76/9 111/77/9 110/72/9
f 54/76/10 126/78/10 200/79/10 111/77/10
f 128/80/11 47/74/11 104/75/11 202/81/11
f 55/82/12 56/83/12 113/84/12 112/85/12
f 131/86/13 44/87/13 101/88/13 205/89/13
f 56/83/14 134/90/14 208/91/14 113/84/14
f 45/92/15 46/93/15 103/94/15 102/95/15
f 44/87/16 45/92/16 102/95/16 101/88/16
f 42/96/17 43/97/17 100/98/17 99/99/17
f 57/100/18 1/101/18 58/102/18 114/103/18
f 41/104/19 42/96/19 99/99/19 98/105/19
f 1/101/20 2/106/20 59/107/20 58/102/20
f 141/108/21 41/104/21 98/105/21 215/109/21
f 2/106/22 143/110/22 217/111/22 59/107/22
f 36/112/23 146/113/23 220/114/23 93/115/23
f 37/116/24 38/117/24 95/118/24 94/119/24
f 38/117/25 39/120/25 96/121/25 95/118/25
f 5/122/26 6/123/26 63/124/26 62/125/26
f 4/126/27 5/122/27 62/125/27 61/127/27
f 3/128/28 4/126/28 61/127/28 60/129/28
f 6/123/29 7/130/29 64/131/29 63/124/29
f 39/120/30 40/132/30 97/133/30 96/121/30
f 35/134/31 36/112/31 93/115/31 92/135/31
f 7/130/32 8/136/32 65/137/32 64/131/32
f 34/138/33 35/134/33 92/135/33 91/139/33
f 8/136/34 157/140/34 231/141/34 65/137/34
f 33/142/35 34/138/35 91/139/35 90/143/35
f 32/144/36 33/142/36 90/143/36 89/145/36
f 161/146/37 32/144/37 89/145/37 235/147/37
f 10/148/38 11/149/38 68/150/38 67/151/38
f 11/149/39 165/152/39 239/153/39 68/150/39
f 12/154/40 13/155/40 70/156/40 69/157/40
f 30/158/41 31/159/41 88/160/41 87/161/41
f 9/162/42 10/148/42 67/151/42 66/163/42
f 29/164/43 30/158/43 87/161/43 86/165/43
f 170/166/44 29/164/44 86/165/44 244/167/44
f 172/168/45 27/169/45 84/170/45 246/171/45
f 16/172/46 176/173/46 250/174/46 73/175/46
f 15/176/47 16/172/47 73/175/47 72/177/47
f 25/178/48 26/179/48 83/180/48 82/181/48
f 17/182/49 18/183/49 75/184/49 74/185/49
f 181/186/50 15/176/50 72/177/50 255/187/50
f 13/155/51 14/188/51 71/189/51 70/156/51
f 27/169/52 28/190/52 85/191/52 84/170/52
f 24/192/53 25/178/53 82/181/53 81/193/53
f 18/183/54 19/194/54 76/195/54 75/184/54
f 23/196/55 24/192/55 81/193/55 80/197/55
f 19/194/56 186/198/56 260/199/56 76/195/56
f 22/200/57 23/196/57 80/197/57 79/201/57
f 21/202/58 22/200/58 79/201/58 78/203/58
f 20/204/59 21/202/59 78/203/59 77/205/59
usemtl FrontMat.001
f 152/206/60 138/207/60 160/208/60
f 117/209/60 121/210/60 124/211/60
f 137/212/60 133/213/60 129/214/60
f 148/215/60 147/216/60 158/217/60
f 139/218/60 137/212/60 149/219/60
f 185/220/60 183/221/60 188/222/60
f 175/223/60 174/224/60 154/225/60
f 184/226/60 187/227/60 182/228/60
f 147/216/60 144/229/60 153/230/60
f 154/225/60 160/208/60 167/231/60
f 154/225/60 167/231/60 173/232/60
f 132/233/60 136/234/60 138/207/60
f 121/210/60 123/235/60 124/211/60
f 123/235/60 127/236/60 125/237/60
f 183/221/60 179/238/60 182/228/60
f 154/225/60 171/239/60 175/223/60
f 137/212/60 150/240/60 149/219/60
f 135/241/60 132/233/60 138/207/60
f 149/219/60 151/242/60 139/218/60
f 118/243/60 117/209/60 124/211/60
f 138/207/60 140/244/60 160/208/60
f 164/245/60 163/246/60 166/247/60
f 140/244/60 148/215/60 159/248/60
f 117/209/60 115/249/60 121/210/60
f 159/248/60 148/215/60 158/217/60
f 171/239/60 154/225/60 173/232/60
f 152/206/60 135/241/60 138/207/60
f 160/208/60 140/244/60 159/248/60
f 168/250/60 169/251/60 173/232/60
f 167/231/60 168/250/60 173/232/60
f 178/252/60 182/228/60 179/238/60
f 125/237/60 124/211/60 123/235/60
f 124/211/60 122/253/60 118/243/60
f 125/237/60 127/236/60 152/206/60
f 129/214/60 152/206/60 150/240/60
f 162/254/60 156/255/60 177/256/60
f 177/256/60 180/257/60 166/247/60
f 188/222/60 183/221/60 187/227/60
f 179/238/60 175/223/60 178/252/60
f 158/217/60 147/216/60 153/230/60
f 163/246/60 162/254/60 166/247/60
f 174/224/60 177/256/60 156/255/60
f 166/247/60 162/254/60 177/256/60
f 153/230/60 155/258/60 158/217/60
f 182/228/60 187/227/60 183/221/60
f 122/253/60 119/259/60 118/243/60
f 129/214/60 125/237/60 152/206/60
f 152/206/60 160/208/60 154/225/60
f 137/212/60 129/214/60 150/240/60
f 147/216/60 145/260/60 144/229/60
f 171/239/60 178/252/60 175/223/60
f 156/255/60 154/225/60 174/224/60
f 132/233/60 130/261/60 136/234/60
f 151/242/60 142/262/60 139/218/60
f 127/236/60 135/241/60 152/206/60
