# Blender v2.83.1 OBJ File: 'jigsaw-64x36-3-step2.blend'
# www.blender.org
mtllib piece.2283.mtl
o path9182
v -0.453304 0.037500 0.266087
v -0.447762 0.037500 0.142258
v -0.469261 0.037500 0.064499
v -0.528503 0.037500 0.067322
v -0.607063 0.037500 0.106415
v -0.679272 0.037500 0.117764
v -0.722797 0.037500 0.057938
v -0.728680 0.037500 -0.034084
v -0.691311 0.037500 -0.098740
v -0.611935 0.037500 -0.096737
v -0.519299 0.037500 -0.069851
v -0.449013 0.037500 -0.080131
v -0.426804 0.037500 -0.170093
v -0.438820 0.037500 -0.304157
v -0.481190 0.037500 -0.526390
v 0.520721 0.037500 -0.526390
v 0.557262 0.037500 -0.307297
v 0.566212 0.037500 -0.174828
v 0.542950 0.037500 -0.085274
v 0.475048 0.037500 -0.073639
v 0.387867 0.037500 -0.098793
v 0.316200 0.037500 -0.100555
v 0.287632 0.037500 -0.038116
v 0.300980 0.037500 0.051872
v 0.347858 0.037500 0.113399
v 0.417534 0.037500 0.109573
v 0.489868 0.037500 0.079937
v 0.542374 0.037500 0.083153
v 0.559189 0.037500 0.159752
v 0.520721 0.037500 0.475307
v 0.324150 0.037500 0.441635
v 0.207031 0.037500 0.435352
v 0.131722 0.037500 0.462505
v 0.130089 0.037500 0.535313
v 0.160797 0.037500 0.626492
v 0.164211 0.037500 0.698917
v 0.100151 0.037500 0.723389
v 0.006329 0.037500 0.702377
v -0.060074 0.037500 0.646290
v -0.061382 0.037500 0.567852
v -0.037914 0.037500 0.489075
v -0.049484 0.037500 0.434292
v -0.137138 0.037500 0.420391
v -0.481190 0.037500 0.475308
v -0.453304 -0.037500 0.266087
v -0.447762 -0.037500 0.142258
v -0.469261 -0.037500 0.064499
v -0.528503 -0.037500 0.067322
v -0.607063 -0.037500 0.106415
v -0.679272 -0.037500 0.117764
v -0.722797 -0.037500 0.057938
v -0.728680 -0.037500 -0.034084
v -0.691311 -0.037500 -0.098740
v -0.611935 -0.037498 -0.096737
v -0.519299 -0.037500 -0.069851
v -0.449013 -0.037500 -0.080131
v -0.426804 -0.037500 -0.170093
v -0.438820 -0.037500 -0.304157
v -0.481190 -0.037500 -0.526390
v 0.520721 -0.037500 -0.526390
v 0.557262 -0.037500 -0.307297
v 0.566212 -0.037500 -0.174828
v 0.542950 -0.037500 -0.085274
v 0.475048 -0.037500 -0.073639
v 0.387867 -0.037500 -0.098793
v 0.316200 -0.037500 -0.100555
v 0.287632 -0.037498 -0.038116
v 0.300980 -0.037500 0.051872
v 0.347858 -0.037500 0.113399
v 0.417534 -0.037498 0.109573
v 0.489868 -0.037498 0.079937
v 0.542374 -0.037500 0.083153
v 0.559189 -0.037500 0.159752
v 0.520721 -0.037500 0.475307
v 0.324150 -0.037498 0.441635
v 0.207031 -0.037500 0.435352
v 0.131722 -0.037500 0.462505
v 0.130089 -0.037500 0.535313
v 0.160797 -0.037500 0.626492
v 0.164211 -0.037500 0.698917
v 0.100151 -0.037500 0.723389
v 0.006329 -0.037500 0.702377
v -0.060074 -0.037500 0.646290
v -0.061382 -0.037500 0.567852
v -0.037914 -0.037500 0.489075
v -0.049484 -0.037500 0.434292
v -0.137138 -0.037500 0.420391
v -0.481190 -0.037500 0.475308
v 0.164211 0.037500 0.698917
v 0.164211 0.037500 0.698917
v 0.100151 0.037500 0.723389
v 0.006329 0.037500 0.702377
v -0.060074 0.037500 0.646290
v 0.160797 0.037500 0.626492
v -0.061382 0.037500 0.567852
v 0.130089 0.037500 0.535313
v -0.037914 0.037500 0.489075
v 0.131722 0.037500 0.462505
v 0.131722 0.037500 0.462505
v -0.049484 0.037500 0.434292
v -0.049484 0.037500 0.434292
v 0.207031 0.037500 0.435352
v 0.520721 0.037500 0.475307
v 0.520721 0.037500 0.475307
v 0.324150 0.037500 0.441635
v -0.137138 0.037500 0.420391
v -0.481190 0.037500 0.475308
v -0.481190 0.037500 0.475308
v -0.453304 0.037500 0.266087
v 0.559189 0.037500 0.159752
v -0.447762 0.037500 0.142258
v 0.542374 0.037500 0.083153
v 0.542374 0.037500 0.083153
v 0.347858 0.037500 0.113399
v 0.417534 0.037500 0.109573
v -0.469261 0.037500 0.064499
v -0.469261 0.037500 0.064499
v -0.607063 0.037500 0.106415
v -0.679272 0.037500 0.117764
v -0.679272 0.037500 0.117764
v -0.722797 0.037500 0.057938
v 0.300980 0.037500 0.051872
v 0.489868 0.037500 0.079937
v -0.528503 0.037500 0.067322
v -0.728680 0.037500 -0.034084
v 0.287632 0.037500 -0.038116
v -0.691311 0.037500 -0.098740
v -0.691311 0.037500 -0.098740
v 0.316200 0.037500 -0.100555
v 0.316200 0.037500 -0.100555
v -0.519299 0.037500 -0.069851
v -0.449013 0.037500 -0.080131
v -0.449013 0.037500 -0.080131
v -0.611935 0.037500 -0.096737
v 0.542950 0.037500 -0.085274
v 0.542950 0.037500 -0.085274
v 0.475048 0.037500 -0.073639
v 0.387867 0.037500 -0.098793
v -0.426804 0.037500 -0.170093
v 0.566212 0.037500 -0.174828
v -0.438820 0.037500 -0.304157
v 0.557262 0.037500 -0.307297
v 0.520721 0.037500 -0.526390
v 0.520721 0.037500 -0.526390
v -0.481190 0.037500 -0.526390
v -0.481190 0.037500 -0.526390
v 0.164211 -0.037500 0.698917
v 0.164211 -0.037500 0.698917
v 0.100151 -0.037500 0.723389
v 0.006329 -0.037500 0.702377
v -0.060074 -0.037500 0.646290
v 0.160797 -0.037500 0.626492
v -0.061382 -0.037500 0.567852
v 0.130089 -0.037500 0.535313
v -0.037914 -0.037500 0.489075
v 0.131722 -0.037500 0.462505
v 0.131722 -0.037500 0.462505
v -0.049484 -0.037500 0.434292
v -0.049484 -0.037500 0.434292
v 0.207031 -0.037500 0.435352
v 0.520721 -0.037500 0.475307
v 0.520721 -0.037500 0.475307
v 0.324150 -0.037498 0.441635
v -0.137138 -0.037500 0.420391
v -0.481190 -0.037500 0.475308
v -0.481190 -0.037500 0.475308
v -0.453304 -0.037500 0.266087
v 0.559189 -0.037500 0.159752
v -0.447762 -0.037500 0.142258
v 0.542374 -0.037500 0.083153
v 0.542374 -0.037500 0.083153
v 0.347858 -0.037500 0.113399
v 0.417534 -0.037498 0.109573
v -0.469261 -0.037500 0.064499
v -0.469261 -0.037500 0.064499
v -0.607063 -0.037500 0.106415
v -0.679272 -0.037500 0.117764
v -0.679272 -0.037500 0.117764
v -0.722797 -0.037500 0.057938
v 0.300980 -0.037500 0.051872
v 0.489868 -0.037498 0.079937
v -0.528503 -0.037500 0.067322
v -0.728680 -0.037500 -0.034084
v 0.287632 -0.037498 -0.038116
v -0.691311 -0.037500 -0.098740
v -0.691311 -0.037500 -0.098740
v 0.316200 -0.037500 -0.100555
v 0.316200 -0.037500 -0.100555
v -0.519299 -0.037500 -0.069851
v -0.449013 -0.037500 -0.080131
v -0.449013 -0.037500 -0.080131
v -0.611935 -0.037498 -0.096737
v 0.542950 -0.037500 -0.085274
v 0.542950 -0.037500 -0.085274
v 0.475048 -0.037500 -0.073639
v 0.387867 -0.037500 -0.098793
v -0.426804 -0.037500 -0.170093
v 0.566212 -0.037500 -0.174828
v -0.438820 -0.037500 -0.304157
v 0.557262 -0.037500 -0.307297
v 0.520721 -0.037500 -0.526390
v 0.520721 -0.037500 -0.526390
v -0.481190 -0.037500 -0.526390
v -0.481190 -0.037500 -0.526390
vt 0.500000 0.500000
vt 0.500000 0.500000
vt 0.500000 0.500000
vt 0.500000 0.500000
vt 0.500000 0.500000
vt 0.500000 0.500000
vt 0.500000 0.500000
vt 0.500000 0.500000
vt 0.500000 0.500000
vt 0.500000 0.500000
vt 0.500000 0.500000
vt 0.500000 0.500000
vt 0.500000 0.500000
vt 0.500000 0.500000
vt 0.500000 0.500000
vt 0.500000 0.500000
vt 0.500000 0.500000
vt 0.500000 0.500000
vt 0.500000 0.500000
vt 0.500000 0.500000
vt 0.500000 0.500000
vt 0.500000 0.500000
vt 0.500000 0.500000
vt 0.500000 0.500000
vt 0.500000 0.500000
vt 0.500000 0.500000
vt 0.500000 0.500000
vt 0.500000 0.500000
vt 0.500000 0.500000
vt 0.500000 0.500000
vt 0.500000 0.500000
vt 0.500000 0.500000
vt 0.500000 0.500000
vt 0.500000 0.500000
vt 0.500000 0.500000
vt 0.500000 0.500000
vt 0.500000 0.500000
vt 0.500000 0.500000
vt 0.500000 0.500000
vt 0.500000 0.500000
vt 0.500000 0.500000
vt 0.500000 0.500000
vt 0.500000 0.500000
vt 0.500000 0.500000
vt 0.500000 0.500000
vt 0.500000 0.500000
vt 0.500000 0.500000
vt 0.500000 0.500000
vt 0.500000 0.500000
vt 0.500000 0.500000
vt 0.500000 0.500000
vt 0.500000 0.500000
vt 0.500000 0.500000
vt 0.500000 0.500000
vt 0.500000 0.500000
vt 0.500000 0.500000
vt 0.500000 0.500000
vt 0.500000 0.500000
vt 0.500000 0.500000
vt 0.500000 0.500000
vt 0.500000 0.500000
vt 0.500000 0.500000
vt 0.500000 0.500000
vt 0.500000 0.500000
vt 0.500000 0.500000
vt 0.500000 0.500000
vt 0.500000 0.500000
vt 0.500000 0.500000
vt 0.500000 0.500000
vt 0.500000 0.500000
vt 0.500000 0.500000
vt 0.500000 0.500000
vt 0.500000 0.500000
vt 0.500000 0.500000
vt 0.500000 0.500000
vt 0.500000 0.500000
vt 0.500000 0.500000
vt 0.500000 0.500000
vt 0.500000 0.500000
vt 0.500000 0.500000
vt 0.500000 0.500000
vt 0.500000 0.500000
vt 0.500000 0.500000
vt 0.500000 0.500000
vt 0.500000 0.500000
vt 0.500000 0.500000
vt 0.500000 0.500000
vt 0.500000 0.500000
vt 0.500000 0.500000
vt 0.500000 0.500000
vt 0.500000 0.500000
vt 0.500000 0.500000
vt 0.500000 0.500000
vt 0.500000 0.500000
vt 0.500000 0.500000
vt 0.500000 0.500000
vt 0.500000 0.500000
vt 0.500000 0.500000
vt 0.500000 0.500000
vt 0.500000 0.500000
vt 0.500000 0.500000
vt 0.500000 0.500000
vt 0.500000 0.500000
vt 0.500000 0.500000
vt 0.500000 0.500000
vt 0.500000 0.500000
vt 0.500000 0.500000
vt 0.500000 0.500000
vt 0.500000 0.500000
vt 0.500000 0.500000
vt 0.500000 0.500000
vt 0.500000 0.500000
vt 0.500000 0.500000
vt 0.500000 0.500000
vt 0.500000 0.500000
vt 0.500000 0.500000
vt 0.500000 0.500000
vt 0.500000 0.500000
vt 0.500000 0.500000
vt 0.500000 0.500000
vt 0.500000 0.500000
vt 0.500000 0.500000
vt 0.500000 0.500000
vt 0.500000 0.500000
vt 0.500000 0.500000
vt 0.500000 0.500000
vt 0.500000 0.500000
vt 0.500000 0.500000
vt 0.500000 0.500000
vt 0.500000 0.500000
vt 0.500000 0.500000
vt 0.500000 0.500000
vt 0.500000 0.500000
vt 0.500000 0.500000
vt 0.500000 0.500000
vt 0.500000 0.500000
vt 0.500000 0.500000
vt 0.500000 0.500000
vt 0.500000 0.500000
vt 0.500000 0.500000
vt 0.500000 0.500000
vt 0.500000 0.500000
vt 0.500000 0.500000
vt 0.500000 0.500000
vt 0.500000 0.500000
vt 0.500000 0.500000
vt 0.500000 0.500000
vt 0.500000 0.500000
vt 0.500000 0.500000
vt 0.500000 0.500000
vt 0.500000 0.500000
vt 0.500000 0.500000
vt 0.500000 0.500000
vt 0.500000 0.500000
vt 0.500000 0.500000
vt 0.500000 0.500000
vt 0.500000 0.500000
vt 0.500000 0.500000
vt 0.500000 0.500000
vt 0.500000 0.500000
vt 0.671354 0.018542
vt 0.671440 0.021976
vt 0.666509 0.026255
vt 0.656250 0.000000
vt 0.671214 0.006163
vt 0.659440 0.011809
vt 0.671875 0.000000
vt 0.655541 0.009749
vt 0.655680 0.006076
vt 0.658322 0.011858
vt 0.659885 0.013540
vt 0.659677 0.016036
vt 0.675643 0.016204
vt 0.674964 0.017863
vt 0.673838 0.017548
vt 0.665328 0.030344
vt 0.665308 0.032519
vt 0.664272 0.034075
vt 0.665142 0.026640
vt 0.664962 0.028159
vt 0.662317 0.027423
vt 0.671373 0.012375
vt 0.672469 0.012660
vt 0.671689 0.016386
vt 0.673914 0.011915
vt 0.675735 0.013652
vt 0.661142 0.026670
vt 0.658946 0.017742
vt 0.672613 0.016464
vt 0.662342 0.029442
vt 0.675152 0.011859
vt 0.656962 0.012555
vt 0.655903 0.012232
vt 0.671027 0.009880
vt 0.662809 0.034657
vt 0.661810 0.033979
vt 0.661863 0.031970
vt 0.659316 0.026844
vt 0.657859 0.017636
vt 0.655650 0.019027
vt 0.656731 0.016814
vt 0.655912 0.016903
vt 0.671875 0.027778
vt 0.656250 0.027778
vn 0.0000 -1.0000 0.0000
vn 0.3569 0.0000 0.9342
vn -0.2185 0.0000 0.9758
vn -0.6453 0.0000 0.7639
vn 0.9989 0.0000 -0.0471
vn -0.9999 0.0000 0.0167
vn 0.9477 0.0000 -0.3192
vn -0.9584 0.0000 -0.2855
vn 0.9997 0.0000 0.0224
vn -0.9784 0.0000 0.2066
vn 0.3392 0.0000 0.9407
vn -0.1688 0.0000 0.9856
vn -0.0536 0.0000 0.9986
vn 0.1576 0.0000 0.9875
vn -0.1566 0.0000 0.9877
vn -0.9912 0.0000 -0.1321
vn 0.9927 0.0000 0.1210
vn -0.9990 0.0000 -0.0447
vn 0.9767 0.0000 -0.2144
vn -0.0548 0.0000 -0.9985
vn -0.9638 0.0000 0.2665
vn 0.1553 0.0000 0.9879
vn -0.8086 0.0000 0.5883
vn 0.7954 0.0000 -0.6061
vn 0.0611 0.0000 -0.9981
vn -0.3791 0.0000 -0.9253
vn 0.4455 0.0000 0.8953
vn 0.0476 0.0000 0.9989
vn -0.9980 0.0000 0.0638
vn 0.9892 0.0000 -0.1467
vn -0.8658 0.0000 -0.5004
vn 0.9093 0.0000 0.4161
vn -0.1447 0.0000 -0.9895
vn 0.2787 0.0000 -0.9604
vn 0.0252 0.0000 -0.9997
vn 0.1689 0.0000 0.9856
vn -0.2772 0.0000 0.9608
vn -0.9709 0.0000 -0.2397
vn 0.9679 0.0000 0.2514
vn -0.0246 0.0000 0.9997
vn -0.9960 0.0000 0.0893
vn 0.9977 0.0000 -0.0674
vn 0.9864 0.0000 -0.1645
vn -0.0000 0.0000 -1.0000
vn -0.9823 0.0000 0.1873
vn 0.0000 1.0000 0.0000
usemtl BackMat.001
s off
f 169/1/1 164/2/1 167/3/1
f 201/4/1 187/5/1 199/6/1
f 201/4/1 199/6/1 203/7/1
f 198/8/1 196/9/1 200/10/1
f 196/9/1 187/5/1 200/10/1
f 184/11/1 180/12/1 164/2/1
f 179/13/1 176/14/1 177/15/1
f 153/16/1 150/17/1 151/18/1
f 158/19/1 156/20/1 155/21/1
f 190/22/1 174/23/1 189/24/1
f 192/25/1 176/14/1 183/26/1
f 180/12/1 172/27/1 160/28/1
f 176/14/1 192/25/1 182/29/1
f 153/16/1 154/30/1 150/17/1
f 185/31/1 192/25/1 183/26/1
f 155/21/1 154/30/1 153/16/1
f 195/32/1 198/8/1 193/33/1
f 200/10/1 187/5/1 201/4/1
f 189/24/1 182/29/1 192/25/1
f 199/6/1 187/5/1 197/34/1
f 149/35/1 152/36/1 147/37/1
f 197/34/1 184/11/1 190/22/1
f 163/38/1 172/27/1 173/39/1
f 173/39/1 181/40/1 168/41/1
f 155/21/1 156/20/1 154/30/1
f 164/2/1 180/12/1 158/19/1
f 168/41/1 181/40/1 170/42/1
f 184/11/1 164/2/1 169/1/1
f 163/38/1 173/39/1 168/41/1
f 190/22/1 169/1/1 174/23/1
f 167/3/1 164/2/1 165/43/1
f 183/26/1 176/14/1 179/13/1
f 156/20/1 180/12/1 160/28/1
f 158/19/1 180/12/1 156/20/1
f 190/22/1 184/11/1 169/1/1
f 150/17/1 152/36/1 149/35/1
f 182/29/1 189/24/1 174/23/1
f 160/28/1 172/27/1 163/38/1
f 196/9/1 198/8/1 195/32/1
f 152/36/1 150/17/1 154/30/1
f 163/38/1 168/41/1 161/44/1
f 184/11/1 197/34/1 187/5/1
f 90/45/2 37/46/2 81/47/2 148/48/2
f 37/46/3 38/49/3 82/50/3 81/47/3
f 38/49/4 39/51/4 83/52/4 82/50/4
f 35/53/5 36/54/5 80/55/5 79/56/5
f 39/51/6 40/57/6 84/58/6 83/52/6
f 34/59/7 35/53/7 79/56/7 78/60/7
f 40/57/8 41/61/8 85/62/8 84/58/8
f 99/63/9 34/59/9 78/60/9 157/64/9
f 41/61/10 101/65/10 159/66/10 85/62/10
f 32/67/11 33/68/11 77/69/11 76/70/11
f 104/71/12 31/72/12 75/73/12 162/74/12
f 31/72/13 32/67/13 76/70/13 75/73/13
f 43/75/14 108/76/14 166/77/14 87/78/14
f 42/79/15 43/75/15 87/78/15 86/80/15
f 44/81/16 1/82/16 45/83/16 88/84/16
f 29/85/17 30/86/17 74/87/17 73/88/17
f 1/82/18 2/89/18 46/90/18 45/83/18
f 113/91/19 29/85/19 73/88/19 171/92/19
f 25/93/20 26/94/20 70/95/20 69/96/20
f 2/89/21 117/97/21 175/98/21 46/90/21
f 5/99/22 120/100/22 178/101/22 49/102/22
f 6/103/23 7/104/23 51/105/23 50/106/23
f 24/107/24 25/93/24 69/96/24 68/108/24
f 27/109/25 28/110/25 72/111/25 71/112/25
f 26/94/26 27/109/26 71/112/26 70/95/26
f 4/113/27 5/99/27 49/102/27 48/114/27
f 3/115/28 4/113/28 48/114/28 47/116/28
f 7/104/29 8/117/29 52/118/29 51/105/29
f 23/119/30 24/107/30 68/108/30 67/120/30
f 8/117/31 128/121/31 186/122/31 52/118/31
f 130/123/32 23/119/32 67/120/32 188/124/32
f 11/125/33 133/126/33 191/127/33 55/128/33
f 10/129/34 11/125/34 55/128/34 54/130/34
f 9/131/35 10/129/35 54/130/35 53/132/35
f 136/133/36 20/134/36 64/135/36 194/136/36
f 20/134/37 21/137/37 65/138/37 64/135/37
f 12/139/38 13/140/38 57/141/38 56/142/38
f 18/143/39 19/144/39 63/145/39 62/146/39
f 21/137/40 22/147/40 66/148/40 65/138/40
f 13/140/41 14/149/41 58/150/41 57/141/41
f 17/151/42 18/143/42 62/146/42 61/152/42
f 144/153/43 17/151/43 61/152/43 202/154/43
f 146/155/44 16/156/44 60/157/44 204/158/44
f 14/149/45 15/159/45 59/160/45 58/150/45
usemtl FrontMat.001
f 111/161/46 109/162/46 106/163/46
f 143/164/46 141/165/46 129/166/46
f 143/164/46 145/167/46 141/165/46
f 140/168/46 142/169/46 138/170/46
f 138/170/46 142/169/46 129/166/46
f 126/171/46 106/163/46 122/172/46
f 121/173/46 119/174/46 118/175/46
f 95/176/46 93/177/46 92/178/46
f 100/179/46 97/180/46 98/181/46
f 132/182/46 131/183/46 116/184/46
f 134/185/46 125/186/46 118/175/46
f 122/172/46 102/187/46 114/188/46
f 118/175/46 124/189/46 134/185/46
f 95/176/46 92/178/46 96/190/46
f 127/191/46 125/186/46 134/185/46
f 97/180/46 95/176/46 96/190/46
f 137/192/46 135/193/46 140/168/46
f 142/169/46 143/164/46 129/166/46
f 131/183/46 134/185/46 124/189/46
f 141/165/46 139/194/46 129/166/46
f 91/195/46 89/196/46 94/197/46
f 139/194/46 132/182/46 126/171/46
f 105/198/46 115/199/46 114/188/46
f 115/199/46 110/200/46 123/201/46
f 97/180/46 96/190/46 98/181/46
f 106/163/46 100/179/46 122/172/46
f 110/200/46 112/202/46 123/201/46
f 126/171/46 111/161/46 106/163/46
f 105/198/46 110/200/46 115/199/46
f 132/182/46 116/184/46 111/161/46
f 109/162/46 107/203/46 106/163/46
f 125/186/46 121/173/46 118/175/46
f 98/181/46 102/187/46 122/172/46
f 100/179/46 98/181/46 122/172/46
f 132/182/46 111/161/46 126/171/46
f 92/178/46 91/195/46 94/197/46
f 124/189/46 116/184/46 131/183/46
f 102/187/46 105/198/46 114/188/46
f 138/170/46 137/192/46 140/168/46
f 94/197/46 96/190/46 92/178/46
f 105/198/46 103/204/46 110/200/46
f 126/171/46 129/166/46 139/194/46
