# Blender v2.83.1 OBJ File: 'jigsaw-64x36-3-step2.blend'
# www.blender.org
mtllib piece.1384.mtl
o path7384
v -0.265648 0.037500 -0.442244
v -0.143909 0.037500 -0.436096
v -0.067753 0.037500 -0.457453
v -0.070961 0.037500 -0.517067
v -0.108585 0.037500 -0.595276
v -0.115982 0.037500 -0.664824
v -0.049847 0.037500 -0.702831
v 0.047764 0.037500 -0.703905
v 0.113457 0.037500 -0.667028
v 0.105625 0.037500 -0.596161
v 0.069809 0.037500 -0.515373
v 0.073349 0.037500 -0.453743
v 0.162609 0.037500 -0.432261
v 0.530354 0.037500 -0.471323
v 0.551014 0.037500 -0.270252
v 0.550434 0.037500 -0.150627
v 0.520866 0.037500 -0.074087
v 0.452595 0.037500 -0.073240
v 0.368538 0.037500 -0.105146
v 0.299778 0.037500 -0.107975
v 0.271248 0.037500 -0.040461
v 0.283337 0.037500 0.056393
v 0.330292 0.037500 0.121021
v 0.403267 0.037500 0.113159
v 0.481094 0.037500 0.077765
v 0.539509 0.037500 0.081093
v 0.561184 0.037500 0.168785
v 0.530354 0.037500 0.530375
v 0.172073 0.037500 0.556259
v 0.085903 0.037500 0.533068
v 0.084045 0.037500 0.474098
v 0.120899 0.037500 0.397043
v 0.130295 0.037500 0.326462
v 0.067295 0.037500 0.283434
v -0.028152 0.037500 0.275152
v -0.094864 0.037500 0.305336
v -0.092159 0.037500 0.372303
v -0.061337 0.037500 0.452757
v -0.064194 0.037500 0.517992
v -0.143539 0.037500 0.546862
v -0.266140 0.037500 0.548428
v -0.471554 0.037500 0.530375
v -0.443592 0.037500 0.163975
v -0.463982 0.037500 0.075054
v -0.518250 0.037500 0.071589
v -0.589397 0.037500 0.107508
v -0.653824 0.037500 0.115892
v -0.691383 0.037500 0.051367
v -0.695801 0.037500 -0.045301
v -0.664257 0.037500 -0.111809
v -0.599037 0.037500 -0.106741
v -0.522816 0.037500 -0.072216
v -0.463364 0.037500 -0.071241
v -0.440884 0.037500 -0.147594
v -0.445324 0.037500 -0.268139
v -0.471554 0.037500 -0.471323
v -0.265648 -0.037500 -0.442244
v -0.143909 -0.037500 -0.436096
v -0.067753 -0.037500 -0.457453
v -0.070961 -0.037500 -0.517067
v -0.108585 -0.037500 -0.595276
v -0.115982 -0.037498 -0.664824
v -0.049847 -0.037500 -0.702831
v 0.047764 -0.037500 -0.703905
v 0.113457 -0.037498 -0.667028
v 0.105625 -0.037498 -0.596161
v 0.069809 -0.037500 -0.515373
v 0.073349 -0.037500 -0.453743
v 0.162609 -0.037500 -0.432261
v 0.530354 -0.037500 -0.471323
v 0.551014 -0.037500 -0.270252
v 0.550434 -0.037500 -0.150627
v 0.520866 -0.037500 -0.074087
v 0.452595 -0.037500 -0.073240
v 0.368538 -0.037500 -0.105146
v 0.299778 -0.037500 -0.107975
v 0.271248 -0.037498 -0.040461
v 0.283337 -0.037498 0.056393
v 0.330292 -0.037500 0.121021
v 0.403267 -0.037498 0.113159
v 0.481094 -0.037500 0.077765
v 0.539509 -0.037500 0.081093
v 0.561184 -0.037500 0.168785
v 0.530354 -0.037500 0.530375
v 0.172073 -0.037500 0.556259
v 0.085903 -0.037498 0.533068
v 0.084045 -0.037500 0.474098
v 0.120899 -0.037500 0.397043
v 0.130295 -0.037500 0.326462
v 0.067295 -0.037500 0.283434
v -0.028152 -0.037500 0.275152
v -0.094864 -0.037500 0.305336
v -0.092159 -0.037500 0.372303
v -0.061337 -0.037500 0.452757
v -0.064194 -0.037500 0.517992
v -0.143539 -0.037500 0.546862
v -0.266140 -0.037500 0.548428
v -0.471554 -0.037500 0.530375
v -0.443592 -0.037498 0.163975
v -0.463982 -0.037500 0.075054
v -0.518250 -0.037500 0.071589
v -0.589397 -0.037500 0.107508
v -0.653824 -0.037498 0.115892
v -0.691383 -0.037500 0.051367
v -0.695801 -0.037500 -0.045301
v -0.664257 -0.037500 -0.111809
v -0.599037 -0.037500 -0.106741
v -0.522816 -0.037500 -0.072216
v -0.463364 -0.037500 -0.071241
v -0.440884 -0.037498 -0.147594
v -0.445324 -0.037500 -0.268139
v -0.471554 -0.037500 -0.471323
v -0.049847 0.037500 -0.702831
v 0.047764 0.037500 -0.703905
v 0.113457 0.037500 -0.667028
v 0.113457 0.037500 -0.667028
v -0.115982 0.037500 -0.664824
v -0.115982 0.037500 -0.664824
v 0.105625 0.037500 -0.596161
v -0.108585 0.037500 -0.595276
v 0.069809 0.037500 -0.515373
v -0.070961 0.037500 -0.517067
v -0.067753 0.037500 -0.457453
v -0.067753 0.037500 -0.457453
v 0.073349 0.037500 -0.453743
v 0.073349 0.037500 -0.453743
v -0.471554 0.037500 -0.471323
v -0.471554 0.037500 -0.471323
v -0.265648 0.037500 -0.442244
v -0.143909 0.037500 -0.436096
v 0.162609 0.037500 -0.432261
v 0.530354 0.037500 -0.471323
v 0.530354 0.037500 -0.471323
v 0.551014 0.037500 -0.270252
v -0.445324 0.037500 -0.268139
v 0.550434 0.037500 -0.150627
v -0.440884 0.037500 -0.147594
v 0.520866 0.037500 -0.074087
v 0.520866 0.037500 -0.074087
v -0.463364 0.037500 -0.071241
v -0.463364 0.037500 -0.071241
v 0.368538 0.037500 -0.105146
v 0.299778 0.037500 -0.107975
v 0.299778 0.037500 -0.107975
v -0.695801 0.037500 -0.045301
v -0.664257 0.037500 -0.111809
v -0.664257 0.037500 -0.111809
v -0.599037 0.037500 -0.106741
v 0.271248 0.037500 -0.040461
v -0.522816 0.037500 -0.072216
v 0.452595 0.037500 -0.073240
v -0.691383 0.037500 0.051367
v 0.283337 0.037500 0.056393
v -0.653824 0.037500 0.115892
v -0.653824 0.037500 0.115892
v 0.330292 0.037500 0.121021
v -0.589397 0.037500 0.107508
v -0.518250 0.037500 0.071589
v -0.463982 0.037500 0.075054
v -0.463982 0.037500 0.075054
v -0.443592 0.037500 0.163975
v 0.403267 0.037500 0.113159
v 0.481094 0.037500 0.077765
v 0.539509 0.037500 0.081093
v 0.539509 0.037500 0.081093
v 0.561184 0.037500 0.168785
v -0.028152 0.037500 0.275152
v -0.094864 0.037500 0.305336
v -0.094864 0.037500 0.305336
v 0.067295 0.037500 0.283434
v 0.130295 0.037500 0.326462
v 0.130295 0.037500 0.326462
v -0.092159 0.037500 0.372303
v 0.120899 0.037500 0.397043
v -0.061337 0.037500 0.452757
v 0.084045 0.037500 0.474098
v -0.471554 0.037500 0.530375
v -0.471554 0.037500 0.530375
v -0.064194 0.037500 0.517992
v -0.064194 0.037500 0.517992
v 0.085903 0.037500 0.533068
v 0.085903 0.037500 0.533068
v 0.530354 0.037500 0.530375
v 0.530354 0.037500 0.530375
v -0.143539 0.037500 0.546862
v 0.172073 0.037500 0.556259
v -0.266140 0.037500 0.548428
v -0.049847 -0.037500 -0.702831
v 0.047764 -0.037500 -0.703905
v 0.113457 -0.037498 -0.667028
v 0.113457 -0.037498 -0.667028
v -0.115982 -0.037498 -0.664824
v -0.115982 -0.037498 -0.664824
v 0.105625 -0.037498 -0.596161
v -0.108585 -0.037500 -0.595276
v 0.069809 -0.037500 -0.515373
v -0.070961 -0.037500 -0.517067
v -0.067753 -0.037500 -0.457453
v -0.067753 -0.037500 -0.457453
v 0.073349 -0.037500 -0.453743
v 0.073349 -0.037500 -0.453743
v -0.471554 -0.037500 -0.471323
v -0.471554 -0.037500 -0.471323
v -0.265648 -0.037500 -0.442244
v -0.143909 -0.037500 -0.436096
v 0.162609 -0.037500 -0.432261
v 0.530354 -0.037500 -0.471323
v 0.530354 -0.037500 -0.471323
v 0.551014 -0.037500 -0.270252
v -0.445324 -0.037500 -0.268139
v 0.550434 -0.037500 -0.150627
v -0.440884 -0.037498 -0.147594
v 0.520866 -0.037500 -0.074087
v 0.520866 -0.037500 -0.074087
v -0.463364 -0.037500 -0.071241
v -0.463364 -0.037500 -0.071241
v 0.368538 -0.037500 -0.105146
v 0.299778 -0.037500 -0.107975
v 0.299778 -0.037500 -0.107975
v -0.695801 -0.037500 -0.045301
v -0.664257 -0.037500 -0.111809
v -0.664257 -0.037500 -0.111809
v -0.599037 -0.037500 -0.106741
v 0.271248 -0.037498 -0.040461
v -0.522816 -0.037500 -0.072216
v 0.452595 -0.037500 -0.073240
v -0.691383 -0.037500 0.051367
v 0.283337 -0.037498 0.056393
v -0.653824 -0.037498 0.115892
v -0.653824 -0.037498 0.115892
v 0.330292 -0.037500 0.121021
v -0.589397 -0.037500 0.107508
v -0.518250 -0.037500 0.071589
v -0.463982 -0.037500 0.075054
v -0.463982 -0.037500 0.075054
v -0.443592 -0.037498 0.163975
v 0.403267 -0.037498 0.113159
v 0.481094 -0.037500 0.077765
v 0.539509 -0.037500 0.081093
v 0.539509 -0.037500 0.081093
v 0.561184 -0.037500 0.168785
v -0.028152 -0.037500 0.275152
v -0.094864 -0.037500 0.305336
v -0.094864 -0.037500 0.305336
v 0.067295 -0.037500 0.283434
v 0.130295 -0.037500 0.326462
v 0.130295 -0.037500 0.326462
v -0.092159 -0.037500 0.372303
v 0.120899 -0.037500 0.397043
v -0.061337 -0.037500 0.452757
v 0.084045 -0.037500 0.474098
v -0.471554 -0.037500 0.530375
v -0.471554 -0.037500 0.530375
v -0.064194 -0.037500 0.517992
v -0.064194 -0.037500 0.517992
v 0.085903 -0.037498 0.533068
v 0.085903 -0.037498 0.533068
v 0.530354 -0.037500 0.530375
v 0.530354 -0.037500 0.530375
v -0.143539 -0.037500 0.546862
v 0.172073 -0.037500 0.556259
v -0.266140 -0.037500 0.548428
vt 0.500000 0.500000
vt 0.500000 0.500000
vt 0.500000 0.500000
vt 0.500000 0.500000
vt 0.500000 0.500000
vt 0.500000 0.500000
vt 0.500000 0.500000
vt 0.500000 0.500000
vt 0.500000 0.500000
vt 0.500000 0.500000
vt 0.500000 0.500000
vt 0.500000 0.500000
vt 0.500000 0.500000
vt 0.500000 0.500000
vt 0.500000 0.500000
vt 0.500000 0.500000
vt 0.500000 0.500000
vt 0.500000 0.500000
vt 0.500000 0.500000
vt 0.500000 0.500000
vt 0.500000 0.500000
vt 0.500000 0.500000
vt 0.500000 0.500000
vt 0.500000 0.500000
vt 0.500000 0.500000
vt 0.500000 0.500000
vt 0.500000 0.500000
vt 0.500000 0.500000
vt 0.500000 0.500000
vt 0.500000 0.500000
vt 0.500000 0.500000
vt 0.500000 0.500000
vt 0.500000 0.500000
vt 0.500000 0.500000
vt 0.500000 0.500000
vt 0.500000 0.500000
vt 0.500000 0.500000
vt 0.500000 0.500000
vt 0.500000 0.500000
vt 0.500000 0.500000
vt 0.500000 0.500000
vt 0.500000 0.500000
vt 0.500000 0.500000
vt 0.500000 0.500000
vt 0.500000 0.500000
vt 0.500000 0.500000
vt 0.500000 0.500000
vt 0.500000 0.500000
vt 0.500000 0.500000
vt 0.500000 0.500000
vt 0.500000 0.500000
vt 0.500000 0.500000
vt 0.500000 0.500000
vt 0.500000 0.500000
vt 0.500000 0.500000
vt 0.500000 0.500000
vt 0.500000 0.500000
vt 0.500000 0.500000
vt 0.500000 0.500000
vt 0.500000 0.500000
vt 0.500000 0.500000
vt 0.500000 0.500000
vt 0.500000 0.500000
vt 0.500000 0.500000
vt 0.500000 0.500000
vt 0.500000 0.500000
vt 0.500000 0.500000
vt 0.500000 0.500000
vt 0.500000 0.500000
vt 0.500000 0.500000
vt 0.500000 0.500000
vt 0.500000 0.500000
vt 0.500000 0.500000
vt 0.500000 0.500000
vt 0.500000 0.500000
vt 0.500000 0.500000
vt 0.500000 0.500000
vt 0.500000 0.500000
vt 0.500000 0.500000
vt 0.500000 0.500000
vt 0.500000 0.500000
vt 0.500000 0.500000
vt 0.500000 0.500000
vt 0.500000 0.500000
vt 0.500000 0.500000
vt 0.500000 0.500000
vt 0.500000 0.500000
vt 0.500000 0.500000
vt 0.500000 0.500000
vt 0.500000 0.500000
vt 0.500000 0.500000
vt 0.500000 0.500000
vt 0.500000 0.500000
vt 0.500000 0.500000
vt 0.500000 0.500000
vt 0.500000 0.500000
vt 0.500000 0.500000
vt 0.500000 0.500000
vt 0.500000 0.500000
vt 0.500000 0.500000
vt 0.500000 0.500000
vt 0.500000 0.500000
vt 0.500000 0.500000
vt 0.500000 0.500000
vt 0.500000 0.500000
vt 0.500000 0.500000
vt 0.500000 0.500000
vt 0.500000 0.500000
vt 0.500000 0.500000
vt 0.500000 0.500000
vt 0.500000 0.500000
vt 0.500000 0.500000
vt 0.500000 0.500000
vt 0.500000 0.500000
vt 0.500000 0.500000
vt 0.500000 0.500000
vt 0.500000 0.500000
vt 0.500000 0.500000
vt 0.500000 0.500000
vt 0.500000 0.500000
vt 0.500000 0.500000
vt 0.500000 0.500000
vt 0.500000 0.500000
vt 0.500000 0.500000
vt 0.500000 0.500000
vt 0.500000 0.500000
vt 0.500000 0.500000
vt 0.500000 0.500000
vt 0.500000 0.500000
vt 0.500000 0.500000
vt 0.500000 0.500000
vt 0.500000 0.500000
vt 0.500000 0.500000
vt 0.500000 0.500000
vt 0.500000 0.500000
vt 0.500000 0.500000
vt 0.500000 0.500000
vt 0.500000 0.500000
vt 0.500000 0.500000
vt 0.500000 0.500000
vt 0.500000 0.500000
vt 0.500000 0.500000
vt 0.500000 0.500000
vt 0.500000 0.500000
vt 0.500000 0.500000
vt 0.500000 0.500000
vt 0.500000 0.500000
vt 0.500000 0.500000
vt 0.500000 0.500000
vt 0.500000 0.500000
vt 0.500000 0.500000
vt 0.500000 0.500000
vt 0.500000 0.500000
vt 0.500000 0.500000
vt 0.500000 0.500000
vt 0.500000 0.500000
vt 0.500000 0.500000
vt 0.500000 0.500000
vt 0.500000 0.500000
vt 0.500000 0.500000
vt 0.500000 0.500000
vt 0.500000 0.500000
vt 0.500000 0.500000
vt 0.500000 0.500000
vt 0.500000 0.500000
vt 0.500000 0.500000
vt 0.500000 0.500000
vt 0.500000 0.500000
vt 0.500000 0.500000
vt 0.500000 0.500000
vt 0.500000 0.500000
vt 0.500000 0.500000
vt 0.500000 0.500000
vt 0.500000 0.500000
vt 0.500000 0.500000
vt 0.500000 0.500000
vt 0.500000 0.500000
vt 0.500000 0.500000
vt 0.500000 0.500000
vt 0.500000 0.500000
vt 0.500000 0.500000
vt 0.500000 0.500000
vt 0.500000 0.500000
vt 0.500000 0.500000
vt 0.500000 0.500000
vt 0.500000 0.500000
vt 0.500000 0.500000
vt 0.500000 0.500000
vt 0.500000 0.500000
vt 0.500000 0.500000
vt 0.500000 0.500000
vt 0.500000 0.500000
vt 0.500000 0.500000
vt 0.500000 0.500000
vt 0.500000 0.500000
vt 0.500000 0.500000
vt 0.500000 0.500000
vt 0.500000 0.500000
vt 0.500000 0.500000
vt 0.500000 0.500000
vt 0.500000 0.500000
vt 0.500000 0.500000
vt 0.500000 0.500000
vt 0.500000 0.500000
vt 0.500000 0.500000
vt 0.500000 0.500000
vt 0.606533 0.400383
vt 0.607537 0.400615
vt 0.605947 0.402172
vt 0.608647 0.401611
vt 0.608576 0.405599
vt 0.625000 0.388889
vt 0.625481 0.398916
vt 0.623018 0.400459
vt 0.617779 0.395737
vt 0.618761 0.394544
vt 0.621880 0.400241
vt 0.625143 0.401348
vt 0.624232 0.401440
vt 0.621148 0.402033
vt 0.616290 0.395966
vt 0.617873 0.416179
vt 0.617818 0.417888
vt 0.615672 0.416282
vt 0.620959 0.404719
vt 0.614485 0.415690
vt 0.618376 0.420128
vt 0.618498 0.422094
vt 0.617474 0.423116
vt 0.612586 0.415860
vt 0.609853 0.407689
vt 0.615952 0.423087
vt 0.614920 0.422033
vt 0.615036 0.420104
vt 0.607387 0.406556
vt 0.606370 0.406697
vt 0.605878 0.404853
vt 0.609493 0.401515
vt 0.609503 0.405572
vt 0.619413 0.388171
vt 0.618614 0.392586
vt 0.623787 0.405628
vt 0.624852 0.405651
vt 0.625313 0.407773
vt 0.615772 0.391041
vt 0.615292 0.393272
vt 0.614491 0.388432
vt 0.615250 0.395129
vt 0.612579 0.388388
vt 0.609811 0.399049
vt 0.609375 0.388889
vt 0.621404 0.406591
vt 0.619265 0.415583
vt 0.609375 0.416667
vt 0.609784 0.411032
vt 0.615622 0.417935
vt 0.622476 0.406512
vt 0.625322 0.411091
vt 0.615728 0.389232
vt 0.625000 0.416667
vt 0.618040 0.390449
vt 0.618069 0.388814
vn -0.0000 -1.0000 0.0001
vn 0.0000 -1.0000 0.0000
vn -0.0001 -1.0000 -0.0000
vn -0.0110 0.0000 -0.9999
vn 0.4895 0.0000 -0.8720
vn -0.4983 0.0000 -0.8670
vn 0.9939 0.0000 0.1098
vn -0.9944 0.0000 0.1058
vn 0.9142 0.0000 0.4053
vn -0.9011 0.0000 0.4335
vn -0.9986 0.0000 0.0537
vn 0.9984 0.0000 -0.0573
vn 0.1398 0.0000 -0.9902
vn -0.2700 0.0000 -0.9629
vn 0.2340 0.0000 -0.9722
vn 0.0504 0.0000 -0.9987
vn -0.1056 0.0000 -0.9944
vn 0.9948 0.0000 -0.1022
vn -0.9918 0.0000 0.1280
vn 1.0000 0.0000 0.0048
vn -0.9993 0.0000 0.0368
vn 0.9328 0.0000 0.3604
vn -0.9593 0.0000 -0.2824
vn -0.0411 0.0000 0.9992
vn -0.9035 0.0000 -0.4285
vn 0.0775 0.0000 -0.9970
vn 0.9211 0.0000 0.3893
vn 0.4126 0.0000 -0.9109
vn -0.3549 0.0000 0.9349
vn 0.0124 0.0000 0.9999
vn 0.0164 0.0000 -0.9999
vn -0.9990 0.0000 0.0456
vn 0.9923 0.0000 -0.1239
vn -0.8642 0.0000 0.5031
vn 0.8090 0.0000 -0.5878
vn 0.1291 0.0000 0.9916
vn 0.4507 0.0000 0.8927
vn -0.0637 0.0000 0.9980
vn -0.9747 0.0000 0.2235
vn -0.4140 0.0000 -0.9103
vn 0.0569 0.0000 -0.9984
vn 0.9708 0.0000 -0.2400
vn -0.1071 0.0000 -0.9942
vn 0.4122 0.0000 0.9111
vn -0.0864 0.0000 0.9963
vn -0.5640 0.0000 0.8258
vn 0.9992 0.0000 -0.0404
vn -0.9913 0.0000 -0.1320
vn 0.9338 0.0000 -0.3578
vn -0.9021 0.0000 -0.4315
vn -0.9971 0.0000 -0.0761
vn 0.9990 0.0000 0.0438
vn -0.9995 0.0000 0.0315
vn 0.9964 0.0000 0.0850
vn 0.3419 0.0000 0.9397
vn -0.2599 0.0000 0.9656
vn -0.0875 0.0000 0.9962
vn 0.0128 0.0000 0.9999
vn 0.0721 0.0000 0.9974
vn 0.0000 1.0000 0.0000
usemtl BackMat.001
s off
f 229/1/1 227/2/1 232/3/1
f 227/2/2 225/4/2 233/5/2
f 258/6/2 237/7/2 241/8/2
f 245/9/2 231/10/2 246/11/2
f 241/8/2 238/12/2 239/13/2
f 245/9/2 242/14/2 228/15/2
f 200/16/2 198/17/2 196/18/2
f 258/6/2 231/10/2 237/7/2
f 224/19/2 205/20/2 198/17/2
f 194/21/2 189/22/2 190/23/2
f 205/20/2 212/24/2 204/25/2
f 242/14/2 205/20/2 224/19/2
f 237/7/2 238/12/2 241/8/2
f 188/26/3 195/27/3 192/28/3
f 223/29/2 220/30/2 221/31/2
f 194/21/2 195/27/2 188/26/2
f 234/32/2 215/33/2 242/14/2
f 261/34/2 249/35/2 258/6/2
f 226/36/2 211/37/2 213/38/2
f 250/39/2 260/40/2 248/41/2
f 243/42/2 248/41/2 262/43/2
f 231/10/2 245/9/2 228/15/2
f 224/19/2 198/17/2 200/16/2
f 236/44/2 243/42/2 262/43/2
f 252/45/2 236/44/2 262/43/2
f 224/19/2 200/16/2 218/46/2
f 194/21/2 188/26/2 189/22/2
f 218/46/2 200/16/2 206/47/2
f 242/14/2 212/24/2 205/20/2
f 204/25/2 210/48/2 202/49/2
f 220/30/2 225/4/2 227/2/2
f 225/4/2 220/30/2 223/29/2
f 204/25/2 212/24/2 210/48/2
f 197/50/2 195/27/2 194/21/2
f 215/33/2 233/5/2 225/4/2
f 196/18/2 198/17/2 197/50/2
f 262/43/2 248/41/2 260/40/2
f 218/46/2 209/51/2 217/52/2
f 232/3/2 227/2/2 233/5/2
f 243/42/2 234/32/2 242/14/2
f 209/51/2 218/46/2 206/47/2
f 234/32/2 243/42/2 236/44/2
f 254/53/2 260/40/2 250/39/2
f 233/5/2 215/33/2 234/32/2
f 228/15/2 242/14/2 224/19/2
f 246/11/2 258/6/2 249/35/2
f 196/18/2 197/50/2 194/21/2
f 209/51/2 206/47/2 207/54/2
f 217/52/2 211/37/2 226/36/2
f 211/37/2 217/52/2 209/51/2
f 251/55/2 261/34/2 256/56/2
f 258/6/2 246/11/2 231/10/2
f 215/33/2 212/24/2 242/14/2
f 249/35/2 261/34/2 251/55/2
f 7/57/4 8/58/4 64/59/4 63/60/4
f 8/58/5 116/61/5 191/62/5 64/59/5
f 118/63/6 7/57/6 63/60/6 193/64/6
f 9/65/7 10/66/7 66/67/7 65/68/7
f 5/69/8 6/70/8 62/71/8 61/72/8
f 10/66/9 11/73/9 67/74/9 66/67/9
f 4/75/10 5/69/10 61/72/10 60/76/10
f 124/77/11 4/75/11 60/76/11 199/78/11
f 11/73/12 126/79/12 201/80/12 67/74/12
f 128/81/13 1/82/13 57/83/13 203/84/13
f 2/85/14 3/86/14 59/87/14 58/88/14
f 12/89/15 13/90/15 69/91/15 68/92/15
f 1/82/16 2/85/16 58/88/16 57/83/16
f 13/90/17 133/93/17 208/94/17 69/91/17
f 14/95/18 15/96/18 71/97/18 70/98/18
f 55/99/19 56/100/19 112/101/19 111/102/19
f 15/96/20 16/103/20 72/104/20 71/97/20
f 54/105/21 55/99/21 111/102/21 110/106/21
f 16/103/22 139/107/22 214/108/22 72/104/22
f 141/109/23 54/105/23 110/106/23 216/110/23
f 19/111/24 144/112/24 219/113/24 75/114/24
f 49/115/25 147/116/25 222/117/25 105/118/25
f 50/119/26 51/120/26 107/121/26 106/122/26
f 20/123/27 21/124/27 77/125/27 76/126/27
f 51/120/28 52/127/28 108/128/28 107/121/28
f 18/129/29 19/111/29 75/114/29 74/130/29
f 17/131/30 18/129/30 74/130/30 73/132/30
f 52/127/31 53/133/31 109/134/31 108/128/31
f 48/135/32 49/115/32 105/118/32 104/136/32
f 21/124/33 22/137/33 78/138/33 77/125/33
f 155/139/34 48/135/34 104/136/34 230/140/34
f 22/137/35 23/141/35 79/142/35 78/138/35
f 46/143/36 47/144/36 103/145/36 102/146/36
f 45/147/37 46/143/37 102/146/37 101/148/37
f 160/149/38 45/147/38 101/148/38 235/150/38
f 43/151/39 44/152/39 100/153/39 99/154/39
f 24/155/40 25/156/40 81/157/40 80/158/40
f 25/156/41 165/159/41 240/160/41 81/157/41
f 26/161/42 27/162/42 83/163/42 82/164/42
f 23/141/43 24/155/43 80/158/43 79/142/43
f 35/165/44 169/166/44 244/167/44 91/168/44
f 34/169/45 35/165/45 91/168/45 90/170/45
f 172/171/46 34/169/46 90/170/46 247/172/46
f 36/173/47 37/174/47 93/175/47 92/176/47
f 32/177/48 33/178/48 89/179/48 88/180/48
f 37/174/49 38/181/49 94/182/49 93/175/49
f 31/183/50 32/177/50 88/180/50 87/184/50
f 178/185/51 43/151/51 99/154/51 253/186/51
f 38/181/52 180/187/52 255/188/52 94/182/52
f 182/189/53 31/183/53 87/184/53 257/190/53
f 27/162/54 184/191/54 259/192/54 83/163/54
f 39/193/55 40/194/55 96/195/55 95/196/55
f 29/197/56 30/198/56 86/199/56 85/200/56
f 41/201/57 42/202/57 98/203/57 97/204/57
f 40/194/58 41/201/58 97/204/58 96/195/58
f 28/205/59 29/197/59 85/200/59 84/206/59
usemtl FrontMat.001
f 154/207/60 157/208/60 152/209/60
f 152/209/60 158/210/60 150/211/60
f 183/212/60 166/213/60 162/214/60
f 170/215/60 171/216/60 156/217/60
f 166/213/60 164/218/60 163/219/60
f 170/215/60 153/220/60 167/221/60
f 125/222/60 121/223/60 123/224/60
f 183/212/60 162/214/60 156/217/60
f 149/225/60 123/224/60 130/226/60
f 119/227/60 115/228/60 114/229/60
f 130/226/60 129/230/60 137/231/60
f 167/221/60 149/225/60 130/226/60
f 162/214/60 166/213/60 163/219/60
f 113/232/60 117/233/60 120/234/60
f 148/235/60 146/236/60 145/237/60
f 119/227/60 113/232/60 120/234/60
f 159/238/60 167/221/60 140/239/60
f 186/240/60 183/212/60 174/241/60
f 151/242/60 138/243/60 136/244/60
f 175/245/60 173/246/60 185/247/60
f 168/248/60 187/249/60 173/246/60
f 156/217/60 153/220/60 170/215/60
f 149/225/60 125/222/60 123/224/60
f 161/250/60 187/249/60 168/248/60
f 177/251/60 187/249/60 161/250/60
f 149/225/60 143/252/60 125/222/60
f 119/227/60 114/229/60 113/232/60
f 143/252/60 131/253/60 125/222/60
f 167/221/60 130/226/60 137/231/60
f 129/230/60 127/254/60 135/255/60
f 145/237/60 152/209/60 150/211/60
f 150/211/60 148/235/60 145/237/60
f 129/230/60 135/255/60 137/231/60
f 122/256/60 119/227/60 120/234/60
f 140/239/60 150/211/60 158/210/60
f 121/223/60 122/256/60 123/224/60
f 187/249/60 185/247/60 173/246/60
f 143/252/60 142/257/60 134/258/60
f 157/208/60 158/210/60 152/209/60
f 168/248/60 167/221/60 159/238/60
f 134/258/60 131/253/60 143/252/60
f 159/238/60 161/250/60 168/248/60
f 179/259/60 175/245/60 185/247/60
f 158/210/60 159/238/60 140/239/60
f 153/220/60 149/225/60 167/221/60
f 171/216/60 174/241/60 183/212/60
f 121/223/60 119/227/60 122/256/60
f 134/258/60 132/260/60 131/253/60
f 142/257/60 151/242/60 136/244/60
f 136/244/60 134/258/60 142/257/60
f 176/261/60 181/262/60 186/240/60
f 183/212/60 156/217/60 171/216/60
f 140/239/60 167/221/60 137/231/60
f 174/241/60 176/261/60 186/240/60
