# Blender v2.83.1 OBJ File: 'jigsaw-64x36-3-step2.blend'
# www.blender.org
mtllib piece.323.mtl
o path5262
v -0.420263 0.037500 0.141198
v -0.434983 0.037500 0.049395
v -0.493918 0.037500 0.042026
v -0.574716 0.037500 0.074477
v -0.646072 0.037500 0.081630
v -0.682276 0.037500 0.019167
v -0.680002 0.037500 -0.074018
v -0.641517 0.037500 -0.138231
v -0.573250 0.037500 -0.133825
v -0.498276 0.037500 -0.101358
v -0.443827 0.037500 -0.101434
v -0.429269 0.037500 -0.176117
v -0.481779 0.037500 -0.490527
v -0.276221 0.037500 -0.465113
v -0.154978 0.037500 -0.463315
v -0.079792 0.037500 -0.492366
v -0.084477 0.037500 -0.563258
v -0.123425 0.037500 -0.652862
v -0.131165 0.037500 -0.729520
v -0.063573 0.037500 -0.766905
v 0.038121 0.037500 -0.760015
v 0.111345 0.037500 -0.709183
v 0.114339 0.037500 -0.620466
v 0.088595 0.037500 -0.522846
v 0.096415 0.037500 -0.451029
v 0.180890 0.037500 -0.429773
v 0.308259 0.037500 -0.444033
v 0.520130 0.037500 -0.490527
v 0.557743 0.037500 -0.298212
v 0.569705 0.037500 -0.182942
v 0.553746 0.037500 -0.107258
v 0.497630 0.037500 -0.101954
v 0.419415 0.037500 -0.127326
v 0.344726 0.037500 -0.126046
v 0.295797 0.037500 -0.060028
v 0.281287 0.037500 0.031838
v 0.306462 0.037500 0.091420
v 0.370717 0.037500 0.081185
v 0.449973 0.037500 0.045987
v 0.514279 0.037500 0.051278
v 0.541552 0.037500 0.141899
v 0.541172 0.037500 0.280230
v 0.520130 0.037500 0.511171
v 0.303027 0.037500 0.464775
v 0.173567 0.037500 0.450598
v 0.090067 0.037500 0.471969
v 0.087814 0.037500 0.543463
v 0.121993 0.037500 0.637985
v 0.127764 0.037500 0.718018
v 0.061144 0.037500 0.753419
v -0.038427 0.037500 0.743539
v -0.110651 0.037500 0.695101
v -0.115071 0.037500 0.618241
v -0.090608 0.037500 0.536739
v -0.096024 0.037500 0.477787
v -0.172162 0.037500 0.460614
v -0.288182 0.037500 0.472602
v -0.481779 0.037500 0.511171
v -0.420263 -0.037500 0.141198
v -0.434983 -0.037500 0.049395
v -0.493918 -0.037500 0.042026
v -0.574716 -0.037500 0.074477
v -0.646072 -0.037500 0.081630
v -0.682276 -0.037500 0.019167
v -0.680002 -0.037500 -0.074018
v -0.641517 -0.037500 -0.138231
v -0.573250 -0.037500 -0.133825
v -0.498276 -0.037500 -0.101358
v -0.443827 -0.037500 -0.101434
v -0.429269 -0.037498 -0.176117
v -0.481779 -0.037500 -0.490527
v -0.276221 -0.037500 -0.465113
v -0.154978 -0.037500 -0.463315
v -0.079792 -0.037500 -0.492366
v -0.084477 -0.037500 -0.563258
v -0.123425 -0.037500 -0.652862
v -0.131165 -0.037498 -0.729520
v -0.063573 -0.037500 -0.766905
v 0.038121 -0.037500 -0.760015
v 0.111345 -0.037500 -0.709183
v 0.114339 -0.037500 -0.620466
v 0.088595 -0.037500 -0.522846
v 0.096415 -0.037500 -0.451029
v 0.180890 -0.037500 -0.429773
v 0.308259 -0.037500 -0.444033
v 0.520130 -0.037500 -0.490527
v 0.557743 -0.037500 -0.298212
v 0.569705 -0.037500 -0.182942
v 0.553746 -0.037498 -0.107258
v 0.497630 -0.037500 -0.101954
v 0.419415 -0.037500 -0.127326
v 0.344726 -0.037500 -0.126046
v 0.295797 -0.037500 -0.060028
v 0.281287 -0.037500 0.031838
v 0.306462 -0.037500 0.091420
v 0.370717 -0.037500 0.081185
v 0.449973 -0.037500 0.045987
v 0.514279 -0.037498 0.051278
v 0.541552 -0.037500 0.141899
v 0.541172 -0.037500 0.280230
v 0.520130 -0.037500 0.511171
v 0.303027 -0.037500 0.464775
v 0.173567 -0.037500 0.450598
v 0.090067 -0.037500 0.471969
v 0.087814 -0.037500 0.543463
v 0.121993 -0.037500 0.637985
v 0.127764 -0.037500 0.718018
v 0.061144 -0.037500 0.753419
v -0.038427 -0.037498 0.743539
v -0.110651 -0.037500 0.695101
v -0.115071 -0.037500 0.618241
v -0.090608 -0.037500 0.536739
v -0.096024 -0.037500 0.477787
v -0.172162 -0.037500 0.460614
v -0.288182 -0.037500 0.472602
v -0.481779 -0.037500 0.511171
v -0.131165 0.037500 -0.729520
v -0.131165 0.037500 -0.729520
v -0.063573 0.037500 -0.766905
v 0.038121 0.037500 -0.760015
v 0.111345 0.037500 -0.709183
v -0.123425 0.037500 -0.652862
v 0.114339 0.037500 -0.620466
v -0.084477 0.037500 -0.563258
v 0.088595 0.037500 -0.522846
v -0.079792 0.037500 -0.492366
v -0.079792 0.037500 -0.492366
v 0.096415 0.037500 -0.451029
v 0.096415 0.037500 -0.451029
v -0.154978 0.037500 -0.463315
v -0.481779 0.037500 -0.490527
v -0.481779 0.037500 -0.490527
v -0.276221 0.037500 -0.465113
v 0.308259 0.037500 -0.444033
v 0.520130 0.037500 -0.490527
v 0.520130 0.037500 -0.490527
v 0.180890 0.037500 -0.429773
v 0.557743 0.037500 -0.298212
v 0.569705 0.037500 -0.182942
v -0.429269 0.037500 -0.176117
v 0.553746 0.037500 -0.107258
v 0.553746 0.037500 -0.107258
v -0.443827 0.037500 -0.101434
v -0.443827 0.037500 -0.101434
v 0.419415 0.037500 -0.127326
v 0.344726 0.037500 -0.126046
v -0.680002 0.037500 -0.074018
v -0.641517 0.037500 -0.138231
v -0.641517 0.037500 -0.138231
v -0.573250 0.037500 -0.133825
v -0.498276 0.037500 -0.101358
v 0.497630 0.037500 -0.101954
v 0.295797 0.037500 -0.060028
v -0.682276 0.037500 0.019167
v 0.281287 0.037500 0.031838
v -0.646072 0.037500 0.081630
v -0.646072 0.037500 0.081630
v 0.306462 0.037500 0.091420
v 0.306462 0.037500 0.091420
v -0.574716 0.037500 0.074477
v -0.493918 0.037500 0.042026
v -0.434983 0.037500 0.049395
v -0.434983 0.037500 0.049395
v 0.370717 0.037500 0.081185
v 0.449973 0.037500 0.045987
v 0.514279 0.037500 0.051278
v 0.514279 0.037500 0.051278
v -0.420263 0.037500 0.141198
v 0.541552 0.037500 0.141899
v 0.541172 0.037500 0.280230
v 0.173567 0.037500 0.450598
v 0.090067 0.037500 0.471969
v 0.090067 0.037500 0.471969
v 0.303027 0.037500 0.464775
v -0.172162 0.037500 0.460614
v -0.288182 0.037500 0.472602
v -0.096024 0.037500 0.477787
v -0.096024 0.037500 0.477787
v 0.087814 0.037500 0.543463
v -0.090608 0.037500 0.536739
v -0.481779 0.037500 0.511171
v -0.481779 0.037500 0.511171
v 0.520130 0.037500 0.511171
v 0.520130 0.037500 0.511171
v -0.115071 0.037500 0.618241
v 0.121993 0.037500 0.637985
v -0.110651 0.037500 0.695101
v 0.127764 0.037500 0.718018
v 0.127764 0.037500 0.718018
v -0.038427 0.037500 0.743539
v 0.061144 0.037500 0.753419
v -0.131165 -0.037498 -0.729520
v -0.131165 -0.037498 -0.729520
v -0.063573 -0.037500 -0.766905
v 0.038121 -0.037500 -0.760015
v 0.111345 -0.037500 -0.709183
v -0.123425 -0.037500 -0.652862
v 0.114339 -0.037500 -0.620466
v -0.084477 -0.037500 -0.563258
v 0.088595 -0.037500 -0.522846
v -0.079792 -0.037500 -0.492366
v -0.079792 -0.037500 -0.492366
v 0.096415 -0.037500 -0.451029
v 0.096415 -0.037500 -0.451029
v -0.154978 -0.037500 -0.463315
v -0.481779 -0.037500 -0.490527
v -0.481779 -0.037500 -0.490527
v -0.276221 -0.037500 -0.465113
v 0.308259 -0.037500 -0.444033
v 0.520130 -0.037500 -0.490527
v 0.520130 -0.037500 -0.490527
v 0.180890 -0.037500 -0.429773
v 0.557743 -0.037500 -0.298212
v 0.569705 -0.037500 -0.182942
v -0.429269 -0.037498 -0.176117
v 0.553746 -0.037498 -0.107258
v 0.553746 -0.037498 -0.107258
v -0.443827 -0.037500 -0.101434
v -0.443827 -0.037500 -0.101434
v 0.419415 -0.037500 -0.127326
v 0.344726 -0.037500 -0.126046
v -0.680002 -0.037500 -0.074018
v -0.641517 -0.037500 -0.138231
v -0.641517 -0.037500 -0.138231
v -0.573250 -0.037500 -0.133825
v -0.498276 -0.037500 -0.101358
v 0.497630 -0.037500 -0.101954
v 0.295797 -0.037500 -0.060028
v -0.682276 -0.037500 0.019167
v 0.281287 -0.037500 0.031838
v -0.646072 -0.037500 0.081630
v -0.646072 -0.037500 0.081630
v 0.306462 -0.037500 0.091420
v 0.306462 -0.037500 0.091420
v -0.574716 -0.037500 0.074477
v -0.493918 -0.037500 0.042026
v -0.434983 -0.037500 0.049395
v -0.434983 -0.037500 0.049395
v 0.370717 -0.037500 0.081185
v 0.449973 -0.037500 0.045987
v 0.514279 -0.037498 0.051278
v 0.514279 -0.037498 0.051278
v -0.420263 -0.037500 0.141198
v 0.541552 -0.037500 0.141899
v 0.541172 -0.037500 0.280230
v 0.173567 -0.037500 0.450598
v 0.090067 -0.037500 0.471969
v 0.090067 -0.037500 0.471969
v 0.303027 -0.037500 0.464775
v -0.172162 -0.037500 0.460614
v -0.288182 -0.037500 0.472602
v -0.096024 -0.037500 0.477787
v -0.096024 -0.037500 0.477787
v 0.087814 -0.037500 0.543463
v -0.090608 -0.037500 0.536739
v -0.481779 -0.037500 0.511171
v -0.481779 -0.037500 0.511171
v 0.520130 -0.037500 0.511171
v 0.520130 -0.037500 0.511171
v -0.115071 -0.037500 0.618241
v 0.121993 -0.037500 0.637985
v -0.110651 -0.037500 0.695101
v 0.127764 -0.037500 0.718018
v 0.127764 -0.037500 0.718018
v -0.038427 -0.037498 0.743539
v 0.061144 -0.037500 0.753419
vt 0.500000 0.500000
vt 0.500000 0.500000
vt 0.500000 0.500000
vt 0.500000 0.500000
vt 0.500000 0.500000
vt 0.500000 0.500000
vt 0.500000 0.500000
vt 0.500000 0.500000
vt 0.500000 0.500000
vt 0.500000 0.500000
vt 0.500000 0.500000
vt 0.500000 0.500000
vt 0.500000 0.500000
vt 0.500000 0.500000
vt 0.500000 0.500000
vt 0.500000 0.500000
vt 0.500000 0.500000
vt 0.500000 0.500000
vt 0.500000 0.500000
vt 0.500000 0.500000
vt 0.500000 0.500000
vt 0.500000 0.500000
vt 0.500000 0.500000
vt 0.500000 0.500000
vt 0.500000 0.500000
vt 0.500000 0.500000
vt 0.500000 0.500000
vt 0.500000 0.500000
vt 0.500000 0.500000
vt 0.500000 0.500000
vt 0.500000 0.500000
vt 0.500000 0.500000
vt 0.500000 0.500000
vt 0.500000 0.500000
vt 0.500000 0.500000
vt 0.500000 0.500000
vt 0.500000 0.500000
vt 0.500000 0.500000
vt 0.500000 0.500000
vt 0.500000 0.500000
vt 0.500000 0.500000
vt 0.500000 0.500000
vt 0.500000 0.500000
vt 0.500000 0.500000
vt 0.500000 0.500000
vt 0.500000 0.500000
vt 0.500000 0.500000
vt 0.500000 0.500000
vt 0.500000 0.500000
vt 0.500000 0.500000
vt 0.500000 0.500000
vt 0.500000 0.500000
vt 0.500000 0.500000
vt 0.500000 0.500000
vt 0.500000 0.500000
vt 0.500000 0.500000
vt 0.500000 0.500000
vt 0.500000 0.500000
vt 0.500000 0.500000
vt 0.500000 0.500000
vt 0.500000 0.500000
vt 0.500000 0.500000
vt 0.500000 0.500000
vt 0.500000 0.500000
vt 0.500000 0.500000
vt 0.500000 0.500000
vt 0.500000 0.500000
vt 0.500000 0.500000
vt 0.500000 0.500000
vt 0.500000 0.500000
vt 0.500000 0.500000
vt 0.500000 0.500000
vt 0.500000 0.500000
vt 0.500000 0.500000
vt 0.500000 0.500000
vt 0.500000 0.500000
vt 0.500000 0.500000
vt 0.500000 0.500000
vt 0.500000 0.500000
vt 0.500000 0.500000
vt 0.500000 0.500000
vt 0.500000 0.500000
vt 0.500000 0.500000
vt 0.500000 0.500000
vt 0.500000 0.500000
vt 0.500000 0.500000
vt 0.500000 0.500000
vt 0.500000 0.500000
vt 0.500000 0.500000
vt 0.500000 0.500000
vt 0.500000 0.500000
vt 0.500000 0.500000
vt 0.500000 0.500000
vt 0.500000 0.500000
vt 0.500000 0.500000
vt 0.500000 0.500000
vt 0.500000 0.500000
vt 0.500000 0.500000
vt 0.500000 0.500000
vt 0.500000 0.500000
vt 0.500000 0.500000
vt 0.500000 0.500000
vt 0.500000 0.500000
vt 0.500000 0.500000
vt 0.500000 0.500000
vt 0.500000 0.500000
vt 0.500000 0.500000
vt 0.500000 0.500000
vt 0.500000 0.500000
vt 0.500000 0.500000
vt 0.500000 0.500000
vt 0.500000 0.500000
vt 0.500000 0.500000
vt 0.500000 0.500000
vt 0.500000 0.500000
vt 0.500000 0.500000
vt 0.500000 0.500000
vt 0.500000 0.500000
vt 0.500000 0.500000
vt 0.500000 0.500000
vt 0.500000 0.500000
vt 0.500000 0.500000
vt 0.500000 0.500000
vt 0.500000 0.500000
vt 0.500000 0.500000
vt 0.500000 0.500000
vt 0.500000 0.500000
vt 0.500000 0.500000
vt 0.500000 0.500000
vt 0.500000 0.500000
vt 0.500000 0.500000
vt 0.500000 0.500000
vt 0.500000 0.500000
vt 0.500000 0.500000
vt 0.500000 0.500000
vt 0.500000 0.500000
vt 0.500000 0.500000
vt 0.500000 0.500000
vt 0.500000 0.500000
vt 0.500000 0.500000
vt 0.500000 0.500000
vt 0.500000 0.500000
vt 0.500000 0.500000
vt 0.500000 0.500000
vt 0.500000 0.500000
vt 0.500000 0.500000
vt 0.500000 0.500000
vt 0.500000 0.500000
vt 0.500000 0.500000
vt 0.500000 0.500000
vt 0.500000 0.500000
vt 0.500000 0.500000
vt 0.500000 0.500000
vt 0.500000 0.500000
vt 0.500000 0.500000
vt 0.500000 0.500000
vt 0.500000 0.500000
vt 0.500000 0.500000
vt 0.500000 0.500000
vt 0.500000 0.500000
vt 0.500000 0.500000
vt 0.500000 0.500000
vt 0.500000 0.500000
vt 0.500000 0.500000
vt 0.500000 0.500000
vt 0.500000 0.500000
vt 0.500000 0.500000
vt 0.500000 0.500000
vt 0.500000 0.500000
vt 0.500000 0.500000
vt 0.500000 0.500000
vt 0.500000 0.500000
vt 0.500000 0.500000
vt 0.500000 0.500000
vt 0.500000 0.500000
vt 0.500000 0.500000
vt 0.500000 0.500000
vt 0.500000 0.500000
vt 0.500000 0.500000
vt 0.500000 0.500000
vt 0.500000 0.500000
vt 0.500000 0.500000
vt 0.500000 0.500000
vt 0.500000 0.500000
vt 0.500000 0.500000
vt 0.500000 0.500000
vt 0.500000 0.500000
vt 0.500000 0.500000
vt 0.500000 0.500000
vt 0.500000 0.500000
vt 0.500000 0.500000
vt 0.500000 0.500000
vt 0.500000 0.500000
vt 0.500000 0.500000
vt 0.500000 0.500000
vt 0.500000 0.500000
vt 0.500000 0.500000
vt 0.500000 0.500000
vt 0.500000 0.500000
vt 0.500000 0.500000
vt 0.500000 0.500000
vt 0.500000 0.500000
vt 0.500000 0.500000
vt 0.500000 0.500000
vt 0.500000 0.500000
vt 0.500000 0.500000
vt 0.500000 0.500000
vt 0.500000 0.500000
vt 0.040133 0.832438
vt 0.036969 0.830364
vt 0.040666 0.829817
vt 0.041584 0.859426
vt 0.040267 0.860016
vt 0.043377 0.849173
vt 0.041470 0.835013
vt 0.043489 0.834620
vt 0.043543 0.844973
vt 0.036347 0.860357
vt 0.034456 0.860406
vt 0.032069 0.852392
vt 0.043150 0.846626
vt 0.036079 0.834735
vt 0.037266 0.834259
vt 0.047462 0.855778
vt 0.046875 0.861111
vt 0.043571 0.859822
vt 0.031842 0.850321
vt 0.045304 0.851039
vt 0.044139 0.851004
vt 0.037446 0.863128
vt 0.040547 0.864714
vt 0.039358 0.868584
vt 0.046784 0.846087
vt 0.045781 0.846233
vt 0.047209 0.843574
vt 0.047203 0.839738
vt 0.044545 0.845257
vt 0.037038 0.828233
vt 0.038164 0.826890
vt 0.032209 0.843593
vt 0.030993 0.850319
vt 0.029823 0.851220
vt 0.029801 0.845443
vt 0.028159 0.849561
vt 0.028123 0.846977
vt 0.040168 0.834420
vt 0.037350 0.832624
vt 0.031061 0.846343
vt 0.036839 0.865613
vt 0.040145 0.862007
vt 0.037519 0.861162
vt 0.046875 0.833333
vt 0.046524 0.850336
vt 0.047648 0.852582
vt 0.039717 0.826616
vt 0.040756 0.827597
vt 0.031980 0.846139
vt 0.031250 0.833333
vt 0.034269 0.834403
vt 0.028759 0.851342
vt 0.037772 0.868775
vt 0.036718 0.867739
vt 0.031250 0.861111
vt 0.028688 0.845245
vt 0.040500 0.867175
vt 0.047399 0.850483
vn 0.0000 -1.0000 0.0000
vn -0.4840 0.0000 -0.8751
vn 0.0676 0.0000 -0.9977
vn 0.5703 0.0000 -0.8215
vn -0.9949 0.0000 0.1005
vn 0.9994 0.0000 -0.0337
vn -0.9171 0.0000 0.3986
vn 0.9669 0.0000 0.2550
vn -0.9978 0.0000 0.0660
vn 0.9941 0.0000 -0.1083
vn -0.3604 0.0000 -0.9328
vn 0.1227 0.0000 -0.9924
vn -0.2143 0.0000 -0.9768
vn 0.0148 0.0000 -0.9999
vn 0.2440 0.0000 -0.9698
vn -0.1113 0.0000 -0.9938
vn 0.9814 0.0000 -0.1919
vn 0.9947 0.0000 -0.1032
vn -0.9863 0.0000 0.1647
vn 0.9785 0.0000 0.2063
vn -0.9815 0.0000 -0.1913
vn 0.0171 0.0000 0.9999
vn -0.8577 0.0000 -0.5141
vn 0.0644 0.0000 -0.9979
vn 0.3974 0.0000 -0.9177
vn -0.3086 0.0000 0.9512
vn 0.0941 0.0000 0.9956
vn 0.8034 0.0000 0.5954
vn -0.0014 0.0000 -1.0000
vn -0.9997 0.0000 -0.0244
vn 0.9878 0.0000 0.1560
vn -0.8652 0.0000 0.5015
vn 0.9211 0.0000 -0.3892
vn 0.0997 0.0000 0.9950
vn 0.3727 0.0000 0.9280
vn -0.1241 0.0000 0.9923
vn -0.4059 0.0000 -0.9139
vn 0.0820 0.0000 -0.9966
vn -0.9874 0.0000 0.1583
vn 0.9576 0.0000 -0.2882
vn -0.1573 0.0000 -0.9875
vn 1.0000 0.0000 0.0028
vn 0.2479 0.0000 0.9688
vn -0.1089 0.0000 0.9941
vn 0.1028 0.0000 0.9947
vn -0.2200 0.0000 0.9755
vn 0.9995 0.0000 0.0315
vn -0.9958 0.0000 0.0915
vn -0.9865 0.0000 -0.1640
vn -0.2090 0.0000 0.9779
vn 0.9959 0.0000 0.0907
vn 0.1954 0.0000 0.9807
vn -0.9578 0.0000 -0.2875
vn 0.9404 0.0000 -0.3401
vn -0.9984 0.0000 0.0574
vn 0.9974 0.0000 -0.0719
vn -0.5570 0.0000 0.8305
vn -0.0987 0.0000 0.9951
vn 0.4692 0.0000 0.8831
vn 0.0000 1.0000 0.0000
usemtl BackMat.001
s off
f 254/1/1 261/2/1 260/3/1
f 212/4/1 228/5/1 203/6/1
f 246/7/1 233/8/1 249/9/1
f 203/6/1 228/5/1 205/10/1
f 205/10/1 215/11/1 208/12/1
f 230/13/1 252/14/1 250/15/1
f 213/16/1 209/17/1 210/18/1
f 215/11/1 230/13/1 218/19/1
f 220/20/1 221/21/1 209/17/1
f 199/22/1 195/23/1 198/24/1
f 241/25/1 244/26/1 240/27/1
f 245/28/1 239/29/1 244/26/1
f 260/3/1 265/30/1 262/31/1
f 243/32/1 230/13/1 250/15/1
f 213/16/1 220/20/1 209/17/1
f 226/33/1 235/34/1 225/35/1
f 222/36/1 235/34/1 229/37/1
f 254/1/1 255/38/1 247/39/1
f 218/19/1 236/40/1 226/33/1
f 199/22/1 197/41/1 195/23/1
f 200/42/1 199/22/1 198/24/1
f 239/29/1 245/28/1 233/8/1
f 201/43/1 199/22/1 200/42/1
f 240/27/1 244/26/1 239/29/1
f 233/8/1 246/7/1 247/39/1
f 258/44/1 249/9/1 245/28/1
f 220/20/1 214/45/1 227/46/1
f 205/10/1 228/5/1 215/11/1
f 266/47/1 261/2/1 263/48/1
f 233/8/1 247/39/1 230/13/1
f 237/49/1 236/40/1 218/19/1
f 203/6/1 205/10/1 201/43/1
f 212/4/1 221/21/1 228/5/1
f 260/3/1 261/2/1 265/30/1
f 209/17/1 221/21/1 212/4/1
f 255/38/1 254/1/1 260/3/1
f 265/30/1 261/2/1 266/47/1
f 230/13/1 243/32/1 237/49/1
f 225/35/1 235/34/1 222/36/1
f 243/32/1 251/50/1 256/51/1
f 243/32/1 250/15/1 251/50/1
f 252/14/1 247/39/1 255/38/1
f 225/35/1 222/36/1 223/52/1
f 203/6/1 201/43/1 200/42/1
f 194/53/1 197/41/1 192/54/1
f 228/5/1 230/13/1 215/11/1
f 208/12/1 215/11/1 206/55/1
f 214/45/1 220/20/1 213/16/1
f 229/37/1 235/34/1 231/56/1
f 195/23/1 197/41/1 194/53/1
f 230/13/1 237/49/1 218/19/1
f 230/13/1 247/39/1 252/14/1
f 198/24/1 195/23/1 196/57/1
f 235/34/1 226/33/1 236/40/1
f 216/58/1 227/46/1 214/45/1
f 249/9/1 233/8/1 245/28/1
f 118/59/2 20/60/2 78/61/2 193/62/2
f 20/60/3 21/63/3 79/64/3 78/61/3
f 21/63/4 22/65/4 80/66/4 79/64/4
f 18/67/5 19/68/5 77/69/5 76/70/5
f 22/65/6 23/71/6 81/72/6 80/66/6
f 17/73/7 18/67/7 76/70/7 75/74/7
f 23/71/8 24/75/8 82/76/8 81/72/8
f 127/77/9 17/73/9 75/74/9 202/78/9
f 24/75/10 129/79/10 204/80/10 82/76/10
f 15/81/11 16/82/11 74/83/11 73/84/11
f 132/85/12 14/86/12 72/87/12 207/88/12
f 27/89/13 136/90/13 211/91/13 85/92/13
f 14/86/14 15/81/14 73/84/14 72/87/14
f 25/93/15 26/94/15 84/95/15 83/96/15
f 26/94/16 27/89/16 85/92/16 84/95/16
f 28/97/17 29/98/17 87/99/17 86/100/17
f 29/98/18 30/101/18 88/102/18 87/99/18
f 12/103/19 13/104/19 71/105/19 70/106/19
f 30/101/20 142/107/20 217/108/20 88/102/20
f 144/109/21 12/103/21 70/106/21 219/110/21
f 33/111/22 34/112/22 92/113/22 91/114/22
f 7/115/23 149/116/23 224/117/23 65/118/23
f 8/119/24 9/120/24 67/121/24 66/122/24
f 9/120/25 10/123/25 68/124/25 67/121/25
f 32/125/26 33/111/26 91/114/26 90/126/26
f 31/127/27 32/125/27 90/126/27 89/128/27
f 34/112/28 35/129/28 93/130/28 92/113/28
f 10/123/29 11/131/29 69/132/29 68/124/29
f 6/133/30 7/115/30 65/118/30 64/134/30
f 35/129/31 36/135/31 94/136/31 93/130/31
f 157/137/32 6/133/32 64/134/32 232/138/32
f 36/135/33 159/139/33 234/140/33 94/136/33
f 4/141/34 5/142/34 63/143/34 62/144/34
f 3/145/35 4/141/35 62/144/35 61/146/35
f 163/147/36 3/145/36 61/146/36 238/148/36
f 38/149/37 39/150/37 97/151/37 96/152/37
f 39/150/38 167/153/38 242/154/38 97/151/38
f 1/155/39 2/156/39 60/157/39 59/158/39
f 40/159/40 41/160/40 99/161/40 98/162/40
f 37/163/41 38/149/41 96/152/41 95/164/41
f 41/160/42 42/165/42 100/166/42 99/161/42
f 45/167/43 173/168/43 248/169/43 103/170/43
f 44/171/44 45/167/44 103/170/44 102/172/44
f 56/173/45 57/174/45 115/175/45 114/176/45
f 178/177/46 56/173/46 114/176/46 253/178/46
f 46/179/47 47/180/47 105/181/47 104/182/47
f 54/183/48 55/184/48 113/185/48 112/186/48
f 182/187/49 1/155/49 59/158/49 257/188/49
f 184/189/50 44/171/50 102/172/50 259/190/50
f 42/165/51 43/191/51 101/192/51 100/166/51
f 57/174/52 58/193/52 116/194/52 115/175/52
f 53/195/53 54/183/53 112/186/53 111/196/53
f 47/180/54 48/197/54 106/198/54 105/181/54
f 52/199/55 53/195/55 111/196/55 110/200/55
f 48/197/56 189/201/56 264/202/56 106/198/56
f 51/203/57 52/199/57 110/200/57 109/204/57
f 50/205/58 51/203/58 109/204/58 108/206/58
f 49/207/59 50/205/59 108/206/59 107/208/59
usemtl FrontMat.001
f 179/209/60 185/210/60 186/211/60
f 137/212/60 128/213/60 153/214/60
f 171/215/60 174/216/60 158/217/60
f 128/213/60 130/218/60 153/214/60
f 130/218/60 133/219/60 140/220/60
f 155/221/60 175/222/60 177/223/60
f 138/224/60 135/225/60 134/226/60
f 140/220/60 143/227/60 155/221/60
f 145/228/60 134/226/60 146/229/60
f 124/230/60 123/231/60 120/232/60
f 166/233/60 165/234/60 169/235/60
f 170/236/60 169/235/60 164/237/60
f 185/210/60 187/238/60 190/239/60
f 168/240/60 175/222/60 155/221/60
f 138/224/60 134/226/60 145/228/60
f 151/241/60 150/242/60 160/243/60
f 147/244/60 154/245/60 160/243/60
f 179/209/60 172/246/60 180/247/60
f 143/227/60 151/241/60 161/248/60
f 124/230/60 120/232/60 122/249/60
f 125/250/60 123/231/60 124/230/60
f 164/237/60 158/217/60 170/236/60
f 126/251/60 125/250/60 124/230/60
f 165/234/60 164/237/60 169/235/60
f 158/217/60 172/246/60 171/215/60
f 183/252/60 170/236/60 174/216/60
f 145/228/60 152/253/60 139/254/60
f 130/218/60 140/220/60 153/214/60
f 191/255/60 188/256/60 186/211/60
f 158/217/60 155/221/60 172/246/60
f 162/257/60 143/227/60 161/248/60
f 128/213/60 126/251/60 130/218/60
f 137/212/60 153/214/60 146/229/60
f 185/210/60 190/239/60 186/211/60
f 134/226/60 137/212/60 146/229/60
f 180/247/60 185/210/60 179/209/60
f 190/239/60 191/255/60 186/211/60
f 155/221/60 162/257/60 168/240/60
f 150/242/60 147/244/60 160/243/60
f 168/240/60 181/258/60 176/259/60
f 168/240/60 176/259/60 175/222/60
f 177/223/60 180/247/60 172/246/60
f 150/242/60 148/260/60 147/244/60
f 128/213/60 125/250/60 126/251/60
f 119/261/60 117/262/60 122/249/60
f 153/214/60 140/220/60 155/221/60
f 133/219/60 131/263/60 140/220/60
f 139/254/60 138/224/60 145/228/60
f 154/245/60 156/264/60 160/243/60
f 120/232/60 119/261/60 122/249/60
f 155/221/60 143/227/60 162/257/60
f 155/221/60 177/223/60 172/246/60
f 123/231/60 121/265/60 120/232/60
f 160/243/60 161/248/60 151/241/60
f 141/266/60 139/254/60 152/253/60
f 174/216/60 170/236/60 158/217/60
