# Blender v2.83.1 OBJ File: 'jigsaw-64x36-3-step2.blend'
# www.blender.org
mtllib piece.989.mtl
o path6594
v 0.590380 0.037500 -0.209311
v 0.579659 0.037500 -0.134966
v 0.523832 0.037500 -0.134109
v 0.444044 0.037500 -0.164513
v 0.370323 0.037500 -0.165499
v 0.327856 0.037500 -0.096632
v 0.322477 0.037500 0.001612
v 0.355194 0.037500 0.068516
v 0.421938 0.037500 0.064255
v 0.498381 0.037500 0.032578
v 0.555134 0.037500 0.038114
v 0.571104 0.037500 0.125402
v 0.519218 0.037500 0.480763
v 0.162674 0.037500 0.444248
v 0.072826 0.037500 0.465146
v 0.062895 0.037500 0.524159
v 0.090239 0.037500 0.600257
v 0.092640 0.037500 0.664481
v 0.027914 0.037500 0.693372
v -0.066011 0.037500 0.685456
v -0.131176 0.037500 0.644750
v -0.129124 0.037500 0.578582
v -0.099369 0.037500 0.507543
v -0.100941 0.037500 0.455537
v -0.174810 0.037500 0.439553
v -0.482691 0.037500 0.480763
v -0.446293 0.037500 0.115925
v -0.466408 0.037500 0.028189
v -0.523930 0.037500 0.026289
v -0.598997 0.037500 0.063650
v -0.664129 0.037500 0.072724
v -0.696550 0.037500 0.007714
v -0.692282 0.037500 -0.090159
v -0.652058 0.037500 -0.157924
v -0.581171 0.037500 -0.153650
v -0.503191 0.037500 -0.119570
v -0.446257 0.037500 -0.118967
v -0.430407 0.037500 -0.195825
v -0.482691 0.037500 -0.520934
v -0.277342 0.037500 -0.568491
v -0.155481 0.037500 -0.585374
v -0.078224 0.037500 -0.570308
v -0.078976 0.037500 -0.508737
v -0.113153 0.037500 -0.421183
v -0.116686 0.037500 -0.336936
v -0.046726 0.037500 -0.281335
v 0.054714 0.037500 -0.263873
v 0.124405 0.037500 -0.290097
v 0.120552 0.037500 -0.359200
v 0.087109 0.037500 -0.444902
v 0.089468 0.037500 -0.514575
v 0.172911 0.037500 -0.544137
v 0.302277 0.037500 -0.543728
v 0.519218 0.037500 -0.520934
v 0.590380 -0.037500 -0.209311
v 0.579659 -0.037498 -0.134966
v 0.523832 -0.037500 -0.134109
v 0.444044 -0.037500 -0.164513
v 0.370323 -0.037500 -0.165499
v 0.327856 -0.037500 -0.096632
v 0.322477 -0.037500 0.001612
v 0.355194 -0.037500 0.068516
v 0.421938 -0.037498 0.064255
v 0.498381 -0.037500 0.032578
v 0.555134 -0.037500 0.038114
v 0.571104 -0.037500 0.125402
v 0.519218 -0.037500 0.480763
v 0.162674 -0.037500 0.444248
v 0.072826 -0.037500 0.465146
v 0.062895 -0.037500 0.524159
v 0.090239 -0.037498 0.600257
v 0.092640 -0.037500 0.664481
v 0.027914 -0.037500 0.693372
v -0.066011 -0.037500 0.685456
v -0.131176 -0.037500 0.644750
v -0.129124 -0.037500 0.578582
v -0.099369 -0.037500 0.507543
v -0.100941 -0.037500 0.455537
v -0.174810 -0.037500 0.439553
v -0.482691 -0.037500 0.480763
v -0.446293 -0.037500 0.115925
v -0.466408 -0.037500 0.028189
v -0.523930 -0.037500 0.026289
v -0.598997 -0.037500 0.063650
v -0.664129 -0.037500 0.072724
v -0.696550 -0.037500 0.007714
v -0.692282 -0.037498 -0.090159
v -0.652058 -0.037500 -0.157924
v -0.581171 -0.037500 -0.153650
v -0.503191 -0.037500 -0.119570
v -0.446257 -0.037500 -0.118967
v -0.430407 -0.037500 -0.195825
v -0.482691 -0.037500 -0.520934
v -0.277342 -0.037500 -0.568491
v -0.155481 -0.037498 -0.585374
v -0.078224 -0.037500 -0.570308
v -0.078976 -0.037500 -0.508737
v -0.113153 -0.037500 -0.421183
v -0.116686 -0.037500 -0.336936
v -0.046726 -0.037500 -0.281335
v 0.054714 -0.037500 -0.263873
v 0.124405 -0.037500 -0.290097
v 0.120552 -0.037498 -0.359200
v 0.087109 -0.037500 -0.444902
v 0.089468 -0.037500 -0.514575
v 0.172911 -0.037500 -0.544137
v 0.302277 -0.037500 -0.543728
v 0.519218 -0.037500 -0.520934
v -0.277342 0.037500 -0.568491
v -0.155481 0.037500 -0.585374
v -0.078224 0.037500 -0.570308
v -0.078224 0.037500 -0.570308
v -0.078976 0.037500 -0.508737
v 0.089468 0.037500 -0.514575
v 0.089468 0.037500 -0.514575
v 0.172911 0.037500 -0.544137
v 0.302277 0.037500 -0.543728
v -0.482691 0.037500 -0.520934
v -0.482691 0.037500 -0.520934
v 0.519218 0.037500 -0.520934
v 0.519218 0.037500 -0.520934
v 0.087109 0.037500 -0.444902
v -0.113153 0.037500 -0.421183
v 0.120552 0.037500 -0.359200
v -0.116686 0.037500 -0.336936
v 0.124405 0.037500 -0.290097
v 0.124405 0.037500 -0.290097
v -0.046726 0.037500 -0.281335
v 0.590380 0.037500 -0.209311
v -0.430407 0.037500 -0.195825
v 0.054714 0.037500 -0.263873
v 0.579659 0.037500 -0.134966
v 0.579659 0.037500 -0.134966
v -0.446257 0.037500 -0.118967
v -0.446257 0.037500 -0.118967
v 0.444044 0.037500 -0.164513
v 0.370323 0.037500 -0.165499
v 0.327856 0.037500 -0.096632
v 0.523832 0.037500 -0.134109
v -0.692282 0.037500 -0.090159
v -0.652058 0.037500 -0.157924
v -0.652058 0.037500 -0.157924
v -0.581171 0.037500 -0.153650
v -0.503191 0.037500 -0.119570
v 0.322477 0.037500 0.001612
v -0.696550 0.037500 0.007714
v 0.355194 0.037500 0.068516
v 0.355194 0.037500 0.068516
v -0.664129 0.037500 0.072724
v -0.664129 0.037500 0.072724
v -0.466408 0.037500 0.028189
v -0.466408 0.037500 0.028189
v -0.523930 0.037500 0.026289
v -0.598997 0.037500 0.063650
v -0.446293 0.037500 0.115925
v 0.421938 0.037500 0.064255
v 0.498381 0.037500 0.032578
v 0.555134 0.037500 0.038114
v 0.555134 0.037500 0.038114
v 0.571104 0.037500 0.125402
v -0.482691 0.037500 0.480763
v -0.482691 0.037500 0.480763
v -0.100941 0.037500 0.455537
v -0.100941 0.037500 0.455537
v -0.174810 0.037500 0.439553
v 0.162674 0.037500 0.444248
v 0.072826 0.037500 0.465146
v 0.072826 0.037500 0.465146
v 0.519218 0.037500 0.480763
v 0.519218 0.037500 0.480763
v -0.099369 0.037500 0.507543
v 0.062895 0.037500 0.524159
v -0.129124 0.037500 0.578582
v 0.090239 0.037500 0.600257
v -0.131176 0.037500 0.644750
v 0.092640 0.037500 0.664481
v 0.092640 0.037500 0.664481
v -0.066011 0.037500 0.685456
v 0.027914 0.037500 0.693372
v -0.277342 -0.037500 -0.568491
v -0.155481 -0.037498 -0.585374
v -0.078224 -0.037500 -0.570308
v -0.078224 -0.037500 -0.570308
v -0.078976 -0.037500 -0.508737
v 0.089468 -0.037500 -0.514575
v 0.089468 -0.037500 -0.514575
v 0.172911 -0.037500 -0.544137
v 0.302277 -0.037500 -0.543728
v -0.482691 -0.037500 -0.520934
v -0.482691 -0.037500 -0.520934
v 0.519218 -0.037500 -0.520934
v 0.519218 -0.037500 -0.520934
v 0.087109 -0.037500 -0.444902
v -0.113153 -0.037500 -0.421183
v 0.120552 -0.037498 -0.359200
v -0.116686 -0.037500 -0.336936
v 0.124405 -0.037500 -0.290097
v 0.124405 -0.037500 -0.290097
v -0.046726 -0.037500 -0.281335
v 0.590380 -0.037500 -0.209311
v -0.430407 -0.037500 -0.195825
v 0.054714 -0.037500 -0.263873
v 0.579659 -0.037498 -0.134966
v 0.579659 -0.037498 -0.134966
v -0.446257 -0.037500 -0.118967
v -0.446257 -0.037500 -0.118967
v 0.444044 -0.037500 -0.164513
v 0.370323 -0.037500 -0.165499
v 0.327856 -0.037500 -0.096632
v 0.523832 -0.037500 -0.134109
v -0.692282 -0.037498 -0.090159
v -0.652058 -0.037500 -0.157924
v -0.652058 -0.037500 -0.157924
v -0.581171 -0.037500 -0.153650
v -0.503191 -0.037500 -0.119570
v 0.322477 -0.037500 0.001612
v -0.696550 -0.037500 0.007714
v 0.355194 -0.037500 0.068516
v 0.355194 -0.037500 0.068516
v -0.664129 -0.037500 0.072724
v -0.664129 -0.037500 0.072724
v -0.466408 -0.037500 0.028189
v -0.466408 -0.037500 0.028189
v -0.523930 -0.037500 0.026289
v -0.598997 -0.037500 0.063650
v -0.446293 -0.037500 0.115925
v 0.421938 -0.037498 0.064255
v 0.498381 -0.037500 0.032578
v 0.555134 -0.037500 0.038114
v 0.555134 -0.037500 0.038114
v 0.571104 -0.037500 0.125402
v -0.482691 -0.037500 0.480763
v -0.482691 -0.037500 0.480763
v -0.100941 -0.037500 0.455537
v -0.100941 -0.037500 0.455537
v -0.174810 -0.037500 0.439553
v 0.162674 -0.037500 0.444248
v 0.072826 -0.037500 0.465146
v 0.072826 -0.037500 0.465146
v 0.519218 -0.037500 0.480763
v 0.519218 -0.037500 0.480763
v -0.099369 -0.037500 0.507543
v 0.062895 -0.037500 0.524159
v -0.129124 -0.037500 0.578582
v 0.090239 -0.037498 0.600257
v -0.131176 -0.037500 0.644750
v 0.092640 -0.037500 0.664481
v 0.092640 -0.037500 0.664481
v -0.066011 -0.037500 0.685456
v 0.027914 -0.037500 0.693372
vt 0.500000 0.500000
vt 0.500000 0.500000
vt 0.500000 0.500000
vt 0.500000 0.500000
vt 0.500000 0.500000
vt 0.500000 0.500000
vt 0.500000 0.500000
vt 0.500000 0.500000
vt 0.500000 0.500000
vt 0.500000 0.500000
vt 0.500000 0.500000
vt 0.500000 0.500000
vt 0.500000 0.500000
vt 0.500000 0.500000
vt 0.500000 0.500000
vt 0.500000 0.500000
vt 0.500000 0.500000
vt 0.500000 0.500000
vt 0.500000 0.500000
vt 0.500000 0.500000
vt 0.500000 0.500000
vt 0.500000 0.500000
vt 0.500000 0.500000
vt 0.500000 0.500000
vt 0.500000 0.500000
vt 0.500000 0.500000
vt 0.500000 0.500000
vt 0.500000 0.500000
vt 0.500000 0.500000
vt 0.500000 0.500000
vt 0.500000 0.500000
vt 0.500000 0.500000
vt 0.500000 0.500000
vt 0.500000 0.500000
vt 0.500000 0.500000
vt 0.500000 0.500000
vt 0.500000 0.500000
vt 0.500000 0.500000
vt 0.500000 0.500000
vt 0.500000 0.500000
vt 0.500000 0.500000
vt 0.500000 0.500000
vt 0.500000 0.500000
vt 0.500000 0.500000
vt 0.500000 0.500000
vt 0.500000 0.500000
vt 0.500000 0.500000
vt 0.500000 0.500000
vt 0.500000 0.500000
vt 0.500000 0.500000
vt 0.500000 0.500000
vt 0.500000 0.500000
vt 0.500000 0.500000
vt 0.500000 0.500000
vt 0.500000 0.500000
vt 0.500000 0.500000
vt 0.500000 0.500000
vt 0.500000 0.500000
vt 0.500000 0.500000
vt 0.500000 0.500000
vt 0.500000 0.500000
vt 0.500000 0.500000
vt 0.500000 0.500000
vt 0.500000 0.500000
vt 0.500000 0.500000
vt 0.500000 0.500000
vt 0.500000 0.500000
vt 0.500000 0.500000
vt 0.500000 0.500000
vt 0.500000 0.500000
vt 0.500000 0.500000
vt 0.500000 0.500000
vt 0.500000 0.500000
vt 0.500000 0.500000
vt 0.500000 0.500000
vt 0.500000 0.500000
vt 0.500000 0.500000
vt 0.500000 0.500000
vt 0.500000 0.500000
vt 0.500000 0.500000
vt 0.500000 0.500000
vt 0.500000 0.500000
vt 0.500000 0.500000
vt 0.500000 0.500000
vt 0.500000 0.500000
vt 0.500000 0.500000
vt 0.500000 0.500000
vt 0.500000 0.500000
vt 0.500000 0.500000
vt 0.500000 0.500000
vt 0.500000 0.500000
vt 0.500000 0.500000
vt 0.500000 0.500000
vt 0.500000 0.500000
vt 0.500000 0.500000
vt 0.500000 0.500000
vt 0.500000 0.500000
vt 0.500000 0.500000
vt 0.500000 0.500000
vt 0.500000 0.500000
vt 0.500000 0.500000
vt 0.500000 0.500000
vt 0.500000 0.500000
vt 0.500000 0.500000
vt 0.500000 0.500000
vt 0.500000 0.500000
vt 0.500000 0.500000
vt 0.500000 0.500000
vt 0.500000 0.500000
vt 0.500000 0.500000
vt 0.500000 0.500000
vt 0.500000 0.500000
vt 0.500000 0.500000
vt 0.500000 0.500000
vt 0.500000 0.500000
vt 0.500000 0.500000
vt 0.500000 0.500000
vt 0.500000 0.500000
vt 0.500000 0.500000
vt 0.500000 0.500000
vt 0.500000 0.500000
vt 0.500000 0.500000
vt 0.500000 0.500000
vt 0.500000 0.500000
vt 0.500000 0.500000
vt 0.500000 0.500000
vt 0.500000 0.500000
vt 0.500000 0.500000
vt 0.500000 0.500000
vt 0.500000 0.500000
vt 0.500000 0.500000
vt 0.500000 0.500000
vt 0.500000 0.500000
vt 0.500000 0.500000
vt 0.500000 0.500000
vt 0.500000 0.500000
vt 0.500000 0.500000
vt 0.500000 0.500000
vt 0.500000 0.500000
vt 0.500000 0.500000
vt 0.500000 0.500000
vt 0.500000 0.500000
vt 0.500000 0.500000
vt 0.500000 0.500000
vt 0.500000 0.500000
vt 0.500000 0.500000
vt 0.500000 0.500000
vt 0.500000 0.500000
vt 0.500000 0.500000
vt 0.500000 0.500000
vt 0.500000 0.500000
vt 0.500000 0.500000
vt 0.500000 0.500000
vt 0.500000 0.500000
vt 0.500000 0.500000
vt 0.500000 0.500000
vt 0.500000 0.500000
vt 0.500000 0.500000
vt 0.500000 0.500000
vt 0.500000 0.500000
vt 0.500000 0.500000
vt 0.500000 0.500000
vt 0.500000 0.500000
vt 0.500000 0.500000
vt 0.500000 0.500000
vt 0.500000 0.500000
vt 0.500000 0.500000
vt 0.500000 0.500000
vt 0.500000 0.500000
vt 0.500000 0.500000
vt 0.500000 0.500000
vt 0.500000 0.500000
vt 0.500000 0.500000
vt 0.500000 0.500000
vt 0.500000 0.500000
vt 0.500000 0.500000
vt 0.500000 0.500000
vt 0.500000 0.500000
vt 0.500000 0.500000
vt 0.500000 0.500000
vt 0.500000 0.500000
vt 0.500000 0.500000
vt 0.500000 0.500000
vt 0.500000 0.500000
vt 0.500000 0.500000
vt 0.500000 0.500000
vt 0.500000 0.500000
vt 0.500000 0.500000
vt 0.500000 0.500000
vt 0.500000 0.500000
vt 0.500000 0.500000
vt 0.500000 0.500000
vt 0.500000 0.500000
vt 0.500000 0.500000
vt 0.500000 0.500000
vt 0.500000 0.500000
vt 0.450141 0.571567
vt 0.445881 0.576205
vt 0.450057 0.568843
vt 0.451953 0.573450
vt 0.453197 0.572606
vt 0.454235 0.574692
vt 0.444299 0.576689
vt 0.443454 0.556255
vt 0.442301 0.556698
vt 0.443014 0.552843
vt 0.443998 0.549879
vt 0.446009 0.554352
vt 0.453125 0.583333
vt 0.443263 0.580567
vt 0.443796 0.582995
vt 0.442603 0.585120
vt 0.435964 0.573148
vt 0.434231 0.571388
vt 0.436857 0.568159
vt 0.440702 0.584652
vt 0.437500 0.583333
vt 0.438315 0.574318
vt 0.447565 0.556568
vt 0.450567 0.566988
vt 0.453125 0.555556
vt 0.451608 0.567106
vt 0.434859 0.573267
vt 0.450803 0.573477
vt 0.453934 0.565410
vt 0.438068 0.572186
vt 0.437754 0.568106
vt 0.445463 0.549660
vt 0.446472 0.550461
vt 0.446435 0.552242
vt 0.437180 0.572203
vt 0.446968 0.576932
vt 0.442982 0.551008
vt 0.443478 0.554813
vt 0.446163 0.555989
vt 0.443208 0.578231
vt 0.435686 0.567122
vt 0.449742 0.583965
vt 0.438068 0.565673
vt 0.437500 0.555556
vt 0.446908 0.578848
vt 0.443808 0.584703
vt 0.446423 0.583157
vt 0.446386 0.581225
vt 0.447724 0.583977
vt 0.453685 0.567831
vt 0.452800 0.567984
vt 0.454068 0.572630
vt 0.434165 0.568674
vt 0.434670 0.566871
vn 0.0000 -1.0000 0.0000
vn -0.1372 0.0000 -0.9905
vn 0.1914 0.0000 -0.9815
vn 0.9999 0.0000 0.0122
vn -0.3339 0.0000 -0.9426
vn 0.0032 0.0000 -1.0000
vn -0.2256 0.0000 -0.9742
vn 0.1045 0.0000 -0.9945
vn -0.9994 0.0000 -0.0338
vn 0.9315 0.0000 0.3636
vn -0.9316 0.0000 0.3635
vn 0.9991 0.0000 0.0419
vn -0.9984 0.0000 0.0557
vn 0.6222 0.0000 -0.7829
vn 0.9749 0.0000 -0.2226
vn -0.9873 0.0000 0.1588
vn -0.3522 0.0000 -0.9359
vn 0.1696 0.0000 -0.9855
vn 0.9898 0.0000 0.1427
vn -0.9794 0.0000 -0.2020
vn -0.0134 0.0000 0.9999
vn 0.8512 0.0000 0.5249
vn -0.3561 0.0000 0.9345
vn 0.0153 0.0000 0.9999
vn -0.8599 0.0000 -0.5104
vn 0.0602 0.0000 -0.9982
vn 0.4005 0.0000 -0.9163
vn 0.0106 0.0000 -0.9999
vn 0.9985 0.0000 0.0547
vn -0.9991 0.0000 -0.0436
vn 0.8983 0.0000 -0.4393
vn -0.8949 0.0000 0.4463
vn -0.0330 0.0000 0.9995
vn 0.1380 0.0000 0.9904
vn 0.4456 0.0000 0.8952
vn -0.9747 0.0000 0.2235
vn -0.3828 0.0000 -0.9238
vn 0.0971 0.0000 -0.9953
vn 0.9837 0.0000 -0.1800
vn -0.0637 0.0000 -0.9980
vn -0.9951 0.0000 -0.0993
vn -0.2115 0.0000 0.9774
vn 0.2265 0.0000 0.9740
vn -0.1019 0.0000 0.9948
vn 0.9895 0.0000 0.1445
vn -0.9995 0.0000 0.0302
vn 0.9861 0.0000 0.1660
vn 0.1327 0.0000 0.9912
vn -0.9224 0.0000 -0.3863
vn 0.9411 0.0000 -0.3382
vn -0.9995 0.0000 -0.0310
vn 0.9993 0.0000 -0.0374
vn -0.5298 0.0000 0.8481
vn -0.0840 0.0000 0.9965
vn 0.4076 0.0000 0.9132
vn 0.0000 1.0000 0.0000
usemtl BackMat.001
s off
f 209/1/1 216/2/1 202/3/1
f 207/4/1 200/5/1 210/6/1
f 202/3/1 234/7/1 199/8/1
f 236/9/1 199/8/1 234/7/1
f 244/10/1 243/11/1 249/12/1
f 200/5/1 207/4/1 191/13/1
f 194/14/1 181/15/1 184/16/1
f 214/17/1 224/18/1 211/19/1
f 180/20/1 201/21/1 189/22/1
f 216/2/1 218/23/1 237/24/1
f 240/25/1 218/23/1 227/26/1
f 212/27/1 214/17/1 211/19/1
f 208/28/1 191/13/1 207/4/1
f 240/25/1 227/26/1 231/29/1
f 205/30/1 199/8/1 222/31/1
f 250/32/1 245/33/1 247/34/1
f 215/35/1 224/18/1 214/17/1
f 197/36/1 209/1/1 202/3/1
f 244/10/1 249/12/1 246/37/1
f 242/38/1 243/11/1 244/10/1
f 238/39/1 216/2/1 237/24/1
f 196/40/1 199/8/1 201/21/1
f 225/41/1 211/19/1 224/18/1
f 191/13/1 208/28/1 188/42/1
f 205/30/1 222/31/1 215/35/1
f 226/43/1 236/9/1 232/44/1
f 180/20/1 196/40/1 201/21/1
f 188/42/1 208/28/1 195/45/1
f 184/16/1 181/15/1 182/46/1
f 195/45/1 208/28/1 197/36/1
f 180/20/1 194/14/1 196/40/1
f 222/31/1 199/8/1 226/43/1
f 185/47/1 187/48/1 193/49/1
f 201/21/1 199/8/1 205/30/1
f 181/15/1 194/14/1 180/20/1
f 202/3/1 216/2/1 234/7/1
f 231/29/1 228/50/1 229/51/1
f 188/42/1 195/45/1 187/48/1
f 242/38/1 238/39/1 243/11/1
f 234/7/1 216/2/1 238/39/1
f 237/24/1 218/23/1 240/25/1
f 231/29/1 227/26/1 228/50/1
f 249/12/1 245/33/1 250/32/1
f 245/33/1 249/12/1 243/11/1
f 234/7/1 238/39/1 242/38/1
f 193/49/1 187/48/1 195/45/1
f 203/52/1 210/6/1 200/5/1
f 217/53/1 211/19/1 225/41/1
f 224/18/1 215/35/1 222/31/1
f 226/43/1 199/8/1 236/9/1
f 209/1/1 197/36/1 208/28/1
f 217/53/1 225/41/1 220/54/1
f 40/55/2 41/56/2 95/57/2 94/58/2
f 41/56/3 112/59/3 183/60/3 95/57/3
f 42/61/4 43/62/4 97/63/4 96/64/4
f 115/65/5 52/66/5 106/67/5 186/68/5
f 52/66/6 53/69/6 107/70/6 106/67/6
f 119/71/7 40/55/7 94/58/7 190/72/7
f 53/69/8 121/73/8 192/74/8 107/70/8
f 50/75/9 51/76/9 105/77/9 104/78/9
f 43/62/10 44/79/10 98/80/10 97/63/10
f 49/81/11 50/75/11 104/78/11 103/82/11
f 44/79/12 45/83/12 99/84/12 98/80/12
f 127/85/13 49/81/13 103/82/13 198/86/13
f 45/83/14 46/87/14 100/88/14 99/84/14
f 54/89/15 1/90/15 55/91/15 108/92/15
f 38/93/16 39/94/16 93/95/16 92/96/16
f 47/97/17 48/98/17 102/99/17 101/100/17
f 46/87/18 47/97/18 101/100/18 100/88/18
f 1/90/19 133/101/19 204/102/19 55/91/19
f 135/103/20 38/93/20 92/96/20 206/104/20
f 4/105/21 5/106/21 59/107/21 58/108/21
f 5/106/22 6/109/22 60/110/22 59/107/22
f 3/111/23 4/105/23 58/108/23 57/112/23
f 2/113/24 3/111/24 57/112/24 56/114/24
f 33/115/25 142/116/25 213/117/25 87/118/25
f 34/119/26 35/120/26 89/121/26 88/122/26
f 35/120/27 36/123/27 90/124/27 89/121/27
f 36/123/28 37/125/28 91/126/28 90/124/28
f 6/109/29 7/127/29 61/128/29 60/110/29
f 32/129/30 33/115/30 87/118/30 86/130/30
f 7/127/31 148/131/31 219/132/31 61/128/31
f 150/133/32 32/129/32 86/130/32 221/134/32
f 152/135/33 29/136/33 83/137/33 223/138/33
f 30/139/34 31/140/34 85/141/34 84/142/34
f 29/136/35 30/139/35 84/142/35 83/137/35
f 27/143/36 28/144/36 82/145/36 81/146/36
f 9/147/37 10/148/37 64/149/37 63/150/37
f 10/148/38 159/151/38 230/152/38 64/149/38
f 11/153/39 12/154/39 66/155/39 65/156/39
f 8/157/40 9/147/40 63/150/40 62/158/40
f 162/159/41 27/143/41 81/146/41 233/160/41
f 164/161/42 25/162/42 79/163/42 235/164/42
f 14/165/43 168/166/43 239/167/43 68/168/43
f 170/169/44 14/165/44 68/168/44 241/170/44
f 12/154/45 13/171/45 67/172/45 66/155/45
f 23/173/46 24/174/46 78/175/46 77/176/46
f 15/177/47 16/178/47 70/179/47 69/180/47
f 25/162/48 26/181/48 80/182/48 79/163/48
f 22/183/49 23/173/49 77/176/49 76/184/49
f 16/178/50 17/185/50 71/186/50 70/179/50
f 21/187/51 22/183/51 76/184/51 75/188/51
f 17/185/52 177/189/52 248/190/52 71/186/52
f 20/191/53 21/187/53 75/188/53 74/192/53
f 19/193/54 20/191/54 74/192/54 73/194/54
f 18/195/55 19/193/55 73/194/55 72/196/55
usemtl FrontMat.001
f 138/197/56 131/198/56 145/199/56
f 136/200/56 139/201/56 129/202/56
f 131/198/56 128/203/56 163/204/56
f 165/205/56 163/204/56 128/203/56
f 173/206/56 178/207/56 172/208/56
f 129/202/56 120/209/56 136/200/56
f 123/210/56 113/211/56 110/212/56
f 143/213/56 140/214/56 153/215/56
f 109/216/56 118/217/56 130/218/56
f 145/199/56 166/219/56 147/220/56
f 169/221/56 156/222/56 147/220/56
f 141/223/56 140/214/56 143/213/56
f 137/224/56 136/200/56 120/209/56
f 169/221/56 160/225/56 156/222/56
f 134/226/56 151/227/56 128/203/56
f 179/228/56 176/229/56 174/230/56
f 144/231/56 143/213/56 153/215/56
f 126/232/56 131/198/56 138/197/56
f 173/206/56 175/233/56 178/207/56
f 171/234/56 173/206/56 172/208/56
f 167/235/56 166/219/56 145/199/56
f 125/236/56 130/218/56 128/203/56
f 154/237/56 153/215/56 140/214/56
f 120/209/56 117/238/56 137/224/56
f 134/226/56 144/231/56 151/227/56
f 155/239/56 161/240/56 165/205/56
f 109/216/56 130/218/56 125/236/56
f 117/238/56 124/241/56 137/224/56
f 113/211/56 111/242/56 110/212/56
f 124/241/56 126/232/56 137/224/56
f 109/216/56 125/236/56 123/210/56
f 151/227/56 155/239/56 128/203/56
f 114/243/56 122/244/56 116/245/56
f 130/218/56 134/226/56 128/203/56
f 110/212/56 109/216/56 123/210/56
f 131/198/56 163/204/56 145/199/56
f 160/225/56 158/246/56 157/247/56
f 117/238/56 116/245/56 124/241/56
f 171/234/56 172/208/56 167/235/56
f 163/204/56 167/235/56 145/199/56
f 166/219/56 169/221/56 147/220/56
f 160/225/56 157/247/56 156/222/56
f 178/207/56 179/228/56 174/230/56
f 174/230/56 172/208/56 178/207/56
f 163/204/56 171/234/56 167/235/56
f 122/244/56 124/241/56 116/245/56
f 132/248/56 129/202/56 139/201/56
f 146/249/56 154/237/56 140/214/56
f 153/215/56 151/227/56 144/231/56
f 155/239/56 165/205/56 128/203/56
f 138/197/56 137/224/56 126/232/56
f 146/249/56 149/250/56 154/237/56
