# Blender v2.83.1 OBJ File: 'jigsaw-64x36-3-step2.blend'
# www.blender.org
mtllib piece.1672.mtl
o path7960
v -0.143496 0.037500 -0.591949
v -0.057896 0.037500 -0.577827
v -0.054750 0.037500 -0.516457
v -0.088873 0.037500 -0.428284
v -0.094789 0.037500 -0.342606
v -0.028347 0.037500 -0.285302
v 0.069332 0.037500 -0.268595
v 0.135809 0.037500 -0.301291
v 0.129753 0.037500 -0.383941
v 0.094267 0.037500 -0.484075
v 0.093559 0.037500 -0.560967
v 0.172184 0.037500 -0.585050
v 0.296074 0.037500 -0.571405
v 0.504784 0.037500 -0.524146
v 0.478102 0.037500 -0.326572
v 0.474121 0.037500 -0.208268
v 0.498543 0.037500 -0.130853
v 0.561769 0.037500 -0.126138
v 0.642126 0.037500 -0.153740
v 0.709896 0.037500 -0.155230
v 0.740587 0.037500 -0.091284
v 0.730627 0.037500 0.001006
v 0.681667 0.037500 0.065442
v 0.600328 0.037500 0.065122
v 0.513006 0.037500 0.040324
v 0.451057 0.037500 0.050624
v 0.436609 0.037500 0.136894
v 0.454838 0.037500 0.265200
v 0.504784 0.037500 0.477764
v 0.313305 0.037500 0.456725
v 0.199524 0.037500 0.457220
v 0.127031 0.037500 0.487038
v 0.126900 0.037500 0.556349
v 0.157812 0.037500 0.643607
v 0.160349 0.037500 0.719335
v 0.094845 0.037500 0.759104
v 0.000629 0.037500 0.758644
v -0.063227 0.037500 0.718723
v -0.058210 0.037500 0.644639
v -0.028032 0.037500 0.559783
v -0.036974 0.037500 0.492072
v -0.129051 0.037500 0.461939
v -0.267277 0.037500 0.459874
v -0.496914 0.037500 0.477764
v -0.477413 0.037500 0.117285
v -0.500532 0.037500 0.029559
v -0.556257 0.037500 0.025698
v -0.628469 0.037500 0.060697
v -0.694836 0.037500 0.069122
v -0.735987 0.037500 0.006623
v -0.744452 0.037500 -0.086804
v -0.715731 0.037500 -0.150077
v -0.650776 0.037500 -0.142864
v -0.572350 0.037500 -0.107839
v -0.508675 0.037500 -0.108427
v -0.480558 0.037500 -0.188495
v -0.479139 0.037500 -0.313690
v -0.496914 0.037500 -0.524146
v -0.143496 -0.037500 -0.591949
v -0.057896 -0.037500 -0.577827
v -0.054750 -0.037500 -0.516457
v -0.088873 -0.037500 -0.428284
v -0.094789 -0.037500 -0.342606
v -0.028347 -0.037498 -0.285302
v 0.069332 -0.037500 -0.268595
v 0.135809 -0.037500 -0.301291
v 0.129753 -0.037500 -0.383941
v 0.094267 -0.037500 -0.484075
v 0.093559 -0.037500 -0.560967
v 0.172184 -0.037500 -0.585050
v 0.296074 -0.037500 -0.571405
v 0.504784 -0.037500 -0.524146
v 0.478102 -0.037500 -0.326572
v 0.474121 -0.037498 -0.208268
v 0.498543 -0.037500 -0.130853
v 0.561769 -0.037500 -0.126138
v 0.642126 -0.037500 -0.153740
v 0.709896 -0.037498 -0.155230
v 0.740587 -0.037500 -0.091284
v 0.730627 -0.037500 0.001006
v 0.681667 -0.037500 0.065442
v 0.600328 -0.037500 0.065122
v 0.513006 -0.037500 0.040324
v 0.451057 -0.037500 0.050624
v 0.436609 -0.037498 0.136894
v 0.454838 -0.037500 0.265200
v 0.504784 -0.037498 0.477764
v 0.313305 -0.037500 0.456725
v 0.199524 -0.037500 0.457220
v 0.127031 -0.037500 0.487038
v 0.126900 -0.037500 0.556349
v 0.157812 -0.037500 0.643607
v 0.160349 -0.037500 0.719335
v 0.094845 -0.037500 0.759104
v 0.000629 -0.037498 0.758644
v -0.063227 -0.037500 0.718723
v -0.058210 -0.037500 0.644639
v -0.028032 -0.037500 0.559783
v -0.036974 -0.037500 0.492072
v -0.129051 -0.037500 0.461939
v -0.267277 -0.037500 0.459874
v -0.496914 -0.037500 0.477764
v -0.477413 -0.037500 0.117285
v -0.500532 -0.037500 0.029559
v -0.556257 -0.037500 0.025698
v -0.628469 -0.037500 0.060697
v -0.694836 -0.037500 0.069122
v -0.735987 -0.037500 0.006623
v -0.744452 -0.037500 -0.086804
v -0.715731 -0.037500 -0.150077
v -0.650776 -0.037500 -0.142864
v -0.572350 -0.037500 -0.107839
v -0.508675 -0.037500 -0.108427
v -0.480558 -0.037500 -0.188495
v -0.479139 -0.037500 -0.313690
v -0.496914 -0.037498 -0.524146
v 0.709896 0.037500 -0.155230
v 0.709896 0.037500 -0.155230
v 0.740587 0.037500 -0.091284
v 0.730627 0.037500 0.001006
v 0.681667 0.037500 0.065442
v 0.642126 0.037500 -0.153740
v 0.600328 0.037500 0.065122
v 0.561769 0.037500 -0.126138
v 0.513006 0.037500 0.040324
v 0.498543 0.037500 -0.130853
v 0.498543 0.037500 -0.130853
v 0.451057 0.037500 0.050624
v 0.451057 0.037500 0.050624
v 0.474121 0.037500 -0.208268
v 0.504784 0.037500 -0.524146
v 0.504784 0.037500 -0.524146
v 0.478102 0.037500 -0.326572
v 0.454838 0.037500 0.265200
v 0.504784 0.037500 0.477764
v 0.504784 0.037500 0.477764
v 0.436609 0.037500 0.136894
v 0.313305 0.037500 0.456725
v 0.296074 0.037500 -0.571405
v 0.199524 0.037500 0.457220
v 0.172184 0.037500 -0.585050
v 0.127031 0.037500 0.487038
v 0.127031 0.037500 0.487038
v 0.093559 0.037500 -0.560967
v 0.093559 0.037500 -0.560967
v 0.135809 0.037500 -0.301291
v 0.135809 0.037500 -0.301291
v 0.129753 0.037500 -0.383941
v 0.157812 0.037500 0.643607
v 0.160349 0.037500 0.719335
v 0.160349 0.037500 0.719335
v 0.094845 0.037500 0.759104
v 0.126900 0.037500 0.556349
v 0.069332 0.037500 -0.268595
v 0.094267 0.037500 -0.484075
v 0.000629 0.037500 0.758644
v -0.028347 0.037500 -0.285302
v -0.063227 0.037500 0.718723
v -0.063227 0.037500 0.718723
v -0.028032 0.037500 0.559783
v -0.036974 0.037500 0.492072
v -0.036974 0.037500 0.492072
v -0.058210 0.037500 0.644639
v -0.094789 0.037500 -0.342606
v -0.129051 0.037500 0.461939
v -0.057896 0.037500 -0.577827
v -0.057896 0.037500 -0.577827
v -0.054750 0.037500 -0.516457
v -0.088873 0.037500 -0.428284
v -0.143496 0.037500 -0.591949
v -0.267277 0.037500 0.459874
v -0.496914 0.037500 0.477764
v -0.496914 0.037500 0.477764
v -0.477413 0.037500 0.117285
v -0.496914 0.037500 -0.524146
v -0.496914 0.037500 -0.524146
v -0.480558 0.037500 -0.188495
v -0.479139 0.037500 -0.313690
v -0.500532 0.037500 0.029559
v -0.500532 0.037500 0.029559
v -0.508675 0.037500 -0.108427
v -0.508675 0.037500 -0.108427
v -0.556257 0.037500 0.025698
v -0.572350 0.037500 -0.107839
v -0.628469 0.037500 0.060697
v -0.650776 0.037500 -0.142864
v -0.694836 0.037500 0.069122
v -0.694836 0.037500 0.069122
v -0.715731 0.037500 -0.150077
v -0.715731 0.037500 -0.150077
v -0.735987 0.037500 0.006623
v -0.744452 0.037500 -0.086804
v 0.709896 -0.037498 -0.155230
v 0.709896 -0.037498 -0.155230
v 0.740587 -0.037500 -0.091284
v 0.730627 -0.037500 0.001006
v 0.681667 -0.037500 0.065442
v 0.642126 -0.037500 -0.153740
v 0.600328 -0.037500 0.065122
v 0.561769 -0.037500 -0.126138
v 0.513006 -0.037500 0.040324
v 0.498543 -0.037500 -0.130853
v 0.498543 -0.037500 -0.130853
v 0.451057 -0.037500 0.050624
v 0.451057 -0.037500 0.050624
v 0.474121 -0.037498 -0.208268
v 0.504784 -0.037500 -0.524146
v 0.504784 -0.037500 -0.524146
v 0.478102 -0.037500 -0.326572
v 0.454838 -0.037500 0.265200
v 0.504784 -0.037498 0.477764
v 0.504784 -0.037498 0.477764
v 0.436609 -0.037498 0.136894
v 0.313305 -0.037500 0.456725
v 0.296074 -0.037500 -0.571405
v 0.199524 -0.037500 0.457220
v 0.172184 -0.037500 -0.585050
v 0.127031 -0.037500 0.487038
v 0.127031 -0.037500 0.487038
v 0.093559 -0.037500 -0.560967
v 0.093559 -0.037500 -0.560967
v 0.135809 -0.037500 -0.301291
v 0.135809 -0.037500 -0.301291
v 0.129753 -0.037500 -0.383941
v 0.157812 -0.037500 0.643607
v 0.160349 -0.037500 0.719335
v 0.160349 -0.037500 0.719335
v 0.094845 -0.037500 0.759104
v 0.126900 -0.037500 0.556349
v 0.069332 -0.037500 -0.268595
v 0.094267 -0.037500 -0.484075
v 0.000629 -0.037498 0.758644
v -0.028347 -0.037498 -0.285302
v -0.063227 -0.037500 0.718723
v -0.063227 -0.037500 0.718723
v -0.028032 -0.037500 0.559783
v -0.036974 -0.037500 0.492072
v -0.036974 -0.037500 0.492072
v -0.058210 -0.037500 0.644639
v -0.094789 -0.037500 -0.342606
v -0.129051 -0.037500 0.461939
v -0.057896 -0.037500 -0.577827
v -0.057896 -0.037500 -0.577827
v -0.054750 -0.037500 -0.516457
v -0.088873 -0.037500 -0.428284
v -0.143496 -0.037500 -0.591949
v -0.267277 -0.037500 0.459874
v -0.496914 -0.037500 0.477764
v -0.496914 -0.037500 0.477764
v -0.477413 -0.037500 0.117285
v -0.496914 -0.037498 -0.524146
v -0.496914 -0.037498 -0.524146
v -0.480558 -0.037500 -0.188495
v -0.479139 -0.037500 -0.313690
v -0.500532 -0.037500 0.029559
v -0.500532 -0.037500 0.029559
v -0.508675 -0.037500 -0.108427
v -0.508675 -0.037500 -0.108427
v -0.556257 -0.037500 0.025698
v -0.572350 -0.037500 -0.107839
v -0.628469 -0.037500 0.060697
v -0.650776 -0.037500 -0.142864
v -0.694836 -0.037500 0.069122
v -0.694836 -0.037500 0.069122
v -0.715731 -0.037500 -0.150077
v -0.715731 -0.037500 -0.150077
v -0.735987 -0.037500 0.006623
v -0.744452 -0.037500 -0.086804
vt 0.500000 0.500000
vt 0.500000 0.500000
vt 0.500000 0.500000
vt 0.500000 0.500000
vt 0.500000 0.500000
vt 0.500000 0.500000
vt 0.500000 0.500000
vt 0.500000 0.500000
vt 0.500000 0.500000
vt 0.500000 0.500000
vt 0.500000 0.500000
vt 0.500000 0.500000
vt 0.500000 0.500000
vt 0.500000 0.500000
vt 0.500000 0.500000
vt 0.500000 0.500000
vt 0.500000 0.500000
vt 0.500000 0.500000
vt 0.500000 0.500000
vt 0.500000 0.500000
vt 0.500000 0.500000
vt 0.500000 0.500000
vt 0.500000 0.500000
vt 0.500000 0.500000
vt 0.500000 0.500000
vt 0.500000 0.500000
vt 0.500000 0.500000
vt 0.500000 0.500000
vt 0.500000 0.500000
vt 0.500000 0.500000
vt 0.500000 0.500000
vt 0.500000 0.500000
vt 0.500000 0.500000
vt 0.500000 0.500000
vt 0.500000 0.500000
vt 0.500000 0.500000
vt 0.500000 0.500000
vt 0.500000 0.500000
vt 0.500000 0.500000
vt 0.500000 0.500000
vt 0.500000 0.500000
vt 0.500000 0.500000
vt 0.500000 0.500000
vt 0.500000 0.500000
vt 0.500000 0.500000
vt 0.500000 0.500000
vt 0.500000 0.500000
vt 0.500000 0.500000
vt 0.500000 0.500000
vt 0.500000 0.500000
vt 0.500000 0.500000
vt 0.500000 0.500000
vt 0.500000 0.500000
vt 0.500000 0.500000
vt 0.500000 0.500000
vt 0.500000 0.500000
vt 0.500000 0.500000
vt 0.500000 0.500000
vt 0.500000 0.500000
vt 0.500000 0.500000
vt 0.500000 0.500000
vt 0.500000 0.500000
vt 0.500000 0.500000
vt 0.500000 0.500000
vt 0.500000 0.500000
vt 0.500000 0.500000
vt 0.500000 0.500000
vt 0.500000 0.500000
vt 0.500000 0.500000
vt 0.500000 0.500000
vt 0.500000 0.500000
vt 0.500000 0.500000
vt 0.500000 0.500000
vt 0.500000 0.500000
vt 0.500000 0.500000
vt 0.500000 0.500000
vt 0.500000 0.500000
vt 0.500000 0.500000
vt 0.500000 0.500000
vt 0.500000 0.500000
vt 0.500000 0.500000
vt 0.500000 0.500000
vt 0.500000 0.500000
vt 0.500000 0.500000
vt 0.500000 0.500000
vt 0.500000 0.500000
vt 0.500000 0.500000
vt 0.500000 0.500000
vt 0.500000 0.500000
vt 0.500000 0.500000
vt 0.500000 0.500000
vt 0.500000 0.500000
vt 0.500000 0.500000
vt 0.500000 0.500000
vt 0.500000 0.500000
vt 0.500000 0.500000
vt 0.500000 0.500000
vt 0.500000 0.500000
vt 0.500000 0.500000
vt 0.500000 0.500000
vt 0.500000 0.500000
vt 0.500000 0.500000
vt 0.500000 0.500000
vt 0.500000 0.500000
vt 0.500000 0.500000
vt 0.500000 0.500000
vt 0.500000 0.500000
vt 0.500000 0.500000
vt 0.500000 0.500000
vt 0.500000 0.500000
vt 0.500000 0.500000
vt 0.500000 0.500000
vt 0.500000 0.500000
vt 0.500000 0.500000
vt 0.500000 0.500000
vt 0.500000 0.500000
vt 0.500000 0.500000
vt 0.500000 0.500000
vt 0.500000 0.500000
vt 0.500000 0.500000
vt 0.500000 0.500000
vt 0.500000 0.500000
vt 0.500000 0.500000
vt 0.500000 0.500000
vt 0.500000 0.500000
vt 0.500000 0.500000
vt 0.500000 0.500000
vt 0.500000 0.500000
vt 0.500000 0.500000
vt 0.500000 0.500000
vt 0.500000 0.500000
vt 0.500000 0.500000
vt 0.500000 0.500000
vt 0.500000 0.500000
vt 0.500000 0.500000
vt 0.500000 0.500000
vt 0.500000 0.500000
vt 0.500000 0.500000
vt 0.500000 0.500000
vt 0.500000 0.500000
vt 0.500000 0.500000
vt 0.500000 0.500000
vt 0.500000 0.500000
vt 0.500000 0.500000
vt 0.500000 0.500000
vt 0.500000 0.500000
vt 0.500000 0.500000
vt 0.500000 0.500000
vt 0.500000 0.500000
vt 0.500000 0.500000
vt 0.500000 0.500000
vt 0.500000 0.500000
vt 0.500000 0.500000
vt 0.500000 0.500000
vt 0.500000 0.500000
vt 0.500000 0.500000
vt 0.500000 0.500000
vt 0.500000 0.500000
vt 0.500000 0.500000
vt 0.500000 0.500000
vt 0.500000 0.500000
vt 0.500000 0.500000
vt 0.500000 0.500000
vt 0.500000 0.500000
vt 0.500000 0.500000
vt 0.500000 0.500000
vt 0.500000 0.500000
vt 0.500000 0.500000
vt 0.500000 0.500000
vt 0.500000 0.500000
vt 0.500000 0.500000
vt 0.500000 0.500000
vt 0.500000 0.500000
vt 0.500000 0.500000
vt 0.500000 0.500000
vt 0.500000 0.500000
vt 0.500000 0.500000
vt 0.500000 0.500000
vt 0.500000 0.500000
vt 0.500000 0.500000
vt 0.500000 0.500000
vt 0.500000 0.500000
vt 0.500000 0.500000
vt 0.500000 0.500000
vt 0.500000 0.500000
vt 0.500000 0.500000
vt 0.500000 0.500000
vt 0.500000 0.500000
vt 0.500000 0.500000
vt 0.500000 0.500000
vt 0.500000 0.500000
vt 0.500000 0.500000
vt 0.500000 0.500000
vt 0.500000 0.500000
vt 0.500000 0.500000
vt 0.500000 0.500000
vt 0.500000 0.500000
vt 0.500000 0.500000
vt 0.500000 0.500000
vt 0.500000 0.500000
vt 0.500000 0.500000
vt 0.500000 0.500000
vt 0.500000 0.500000
vt 0.500000 0.500000
vt 0.500000 0.500000
vt 0.500000 0.500000
vt 0.500000 0.500000
vt 0.500000 0.500000
vt 0.500000 0.500000
vt 0.500000 0.500000
vt 0.115508 0.277605
vt 0.114301 0.276928
vt 0.112851 0.267546
vt 0.127586 0.268156
vt 0.126226 0.267299
vt 0.126279 0.263002
vt 0.118627 0.244511
vt 0.118496 0.246352
vt 0.117652 0.243370
vt 0.108318 0.259800
vt 0.109375 0.250000
vt 0.110870 0.261315
vt 0.124672 0.272468
vt 0.121685 0.276393
vt 0.124680 0.269313
vt 0.117950 0.248354
vt 0.118010 0.249900
vt 0.115858 0.249674
vt 0.116126 0.284317
vt 0.115128 0.283466
vt 0.115152 0.281586
vt 0.118339 0.276288
vt 0.118178 0.278006
vt 0.128767 0.268226
vt 0.129388 0.266410
vt 0.115867 0.247908
vt 0.112456 0.277038
vt 0.108638 0.271990
vt 0.111562 0.267378
vt 0.112657 0.250493
vt 0.124753 0.260201
vt 0.125223 0.262754
vt 0.114610 0.250454
vt 0.112206 0.261151
vt 0.115321 0.245733
vt 0.109495 0.262262
vt 0.108538 0.262174
vt 0.119684 0.275887
vt 0.113360 0.265702
vt 0.117565 0.284041
vt 0.127602 0.262166
vt 0.108425 0.268555
vt 0.108801 0.266374
vt 0.110000 0.266394
vt 0.119378 0.250541
vt 0.113100 0.262994
vt 0.118565 0.280427
vt 0.115582 0.279358
vt 0.125000 0.250000
vt 0.124721 0.256368
vt 0.125145 0.267302
vt 0.115209 0.243932
vt 0.116195 0.243136
vt 0.129380 0.263797
vt 0.109375 0.277778
vt 0.128758 0.262026
vt 0.118570 0.282683
vt 0.125000 0.277778
vn 0.0000 -1.0000 -0.0000
vn 0.0000 -1.0000 -0.0001
vn 0.9015 0.0000 -0.4327
vn 0.9942 0.0000 0.1073
vn 0.7962 0.0000 0.6050
vn -0.0220 0.0000 -0.9998
vn -0.0039 0.0000 1.0000
vn -0.3249 0.0000 -0.9458
vn -0.2732 0.0000 0.9620
vn 0.0744 0.0000 -0.9972
vn 0.1640 0.0000 0.9865
vn 0.9537 0.0000 -0.3009
vn 0.9910 0.0000 0.1338
vn 0.9735 0.0000 -0.2287
vn 0.9994 0.0000 0.0336
vn 0.9901 0.0000 -0.1407
vn 0.9863 0.0000 0.1652
vn -0.1092 0.0000 0.9940
vn 0.2208 0.0000 -0.9753
vn 0.0044 0.0000 1.0000
vn 0.1095 0.0000 -0.9940
vn 0.3804 0.0000 0.9248
vn -0.2929 0.0000 -0.9562
vn -0.9973 0.0000 0.0731
vn 0.9994 0.0000 -0.0335
vn 0.5190 0.0000 0.8548
vn 0.9426 0.0000 -0.3339
vn -0.4413 0.0000 -0.8973
vn -1.0000 0.0000 0.0092
vn -0.9426 0.0000 0.3340
vn 1.0000 0.0000 0.0019
vn -0.0049 0.0000 1.0000
vn 0.1686 0.0000 -0.9857
vn -0.5301 0.0000 0.8479
vn -0.9914 0.0000 0.1309
vn -0.9422 0.0000 -0.3351
vn -0.9977 0.0000 -0.0676
vn 0.6531 0.0000 -0.7573
vn -0.3110 0.0000 0.9504
vn 0.9987 0.0000 -0.0512
vn 0.9326 0.0000 0.3609
vn 0.1628 0.0000 -0.9867
vn 0.9976 0.0000 0.0689
vn -0.0149 0.0000 0.9999
vn -0.9985 0.0000 -0.0540
vn 0.0777 0.0000 0.9970
vn -0.1884 0.0000 -0.9821
vn -0.9999 0.0000 -0.0113
vn -0.9670 0.0000 0.2548
vn -0.9435 0.0000 -0.3313
vn -0.9965 0.0000 0.0842
vn -0.0691 0.0000 0.9976
vn -0.0092 0.0000 -1.0000
vn 0.4361 0.0000 0.8999
vn 0.4078 0.0000 -0.9131
vn 0.1259 0.0000 0.9920
vn 0.1104 0.0000 -0.9939
vn -0.8352 0.0000 0.5499
vn -0.9106 0.0000 -0.4133
vn -0.9959 0.0000 0.0902
vn 0.0000 1.0000 0.0000
usemtl BackMat.001
s off
f 202/1/1 222/2/1 206/3/1
f 225/4/1 236/5/1 229/6/1
f 263/7/1 267/8/1 261/9/1
f 246/10/1 245/11/1 251/12/1
f 214/13/1 216/14/1 210/15/1
f 259/16/1 257/17/1 255/18/1
f 195/19/2 198/20/2 193/21/2
f 204/22/1 202/1/1 201/23/1
f 226/24/1 228/25/1 225/4/1
f 259/16/1 260/26/1 257/17/1
f 209/27/1 224/28/1 215/29/1
f 251/12/1 245/11/1 254/30/1
f 267/8/1 260/26/1 261/9/1
f 241/31/1 216/14/1 237/32/1
f 253/33/1 254/30/1 240/34/1
f 260/26/1 267/8/1 262/35/1
f 244/36/1 246/10/1 242/37/1
f 206/3/1 222/2/1 209/27/1
f 213/38/1 230/39/1 204/22/1
f 196/40/1 198/20/1 195/19/1
f 225/4/1 239/41/1 236/5/1
f 217/42/1 231/43/1 220/44/1
f 255/18/1 233/45/1 250/46/1
f 201/23/1 200/47/1 199/48/1
f 215/29/1 224/28/1 217/42/1
f 216/14/1 230/39/1 213/38/1
f 233/45/1 253/33/1 240/34/1
f 198/20/1 196/40/1 200/47/1
f 250/46/1 247/49/1 248/50/1
f 255/18/1 253/33/1 233/45/1
f 218/51/1 237/32/1 216/14/1
f 233/45/1 230/39/1 241/31/1
f 204/22/1 230/39/1 222/2/1
f 265/52/1 262/35/1 268/53/1
f 201/23/1 202/1/1 200/47/1
f 257/17/1 253/33/1 255/18/1
f 232/54/1 239/41/1 228/25/1
f 217/42/1 224/28/1 231/43/1
f 222/2/1 224/28/1 209/27/1
f 209/27/1 215/29/1 207/55/1
f 250/46/1 233/45/1 241/31/1
f 261/9/1 260/26/1 259/16/1
f 210/15/1 216/14/1 213/38/1
f 234/56/1 239/41/1 232/54/1
f 237/32/1 218/51/1 236/5/1
f 216/14/1 241/31/1 230/39/1
f 204/22/1 222/2/1 202/1/1
f 199/48/1 200/47/1 196/40/1
f 229/6/1 236/5/1 218/51/1
f 199/48/1 196/40/1 197/57/1
f 268/53/1 262/35/1 267/8/1
f 245/11/1 246/10/1 244/36/1
f 250/46/1 241/31/1 247/49/1
f 240/34/1 254/30/1 245/11/1
f 228/25/1 239/41/1 225/4/1
f 214/13/1 210/15/1 211/58/1
f 118/59/3 21/60/3 79/61/3 194/62/3
f 21/60/4 22/63/4 80/64/4 79/61/4
f 22/63/5 23/65/5 81/66/5 80/64/5
f 19/67/6 20/68/6 78/69/6 77/70/6
f 23/65/7 24/71/7 82/72/7 81/66/7
f 18/73/8 19/67/8 77/70/8 76/74/8
f 24/71/9 25/75/9 83/76/9 82/72/9
f 127/77/10 18/73/10 76/74/10 203/78/10
f 25/75/11 129/79/11 205/80/11 83/76/11
f 16/81/12 17/82/12 75/83/12 74/84/12
f 132/85/13 15/86/13 73/87/13 208/88/13
f 28/89/14 136/90/14 212/91/14 86/92/14
f 15/86/15 16/81/15 74/84/15 73/87/15
f 27/93/16 28/89/16 86/92/16 85/94/16
f 26/95/17 27/93/17 85/94/17 84/96/17
f 29/97/18 30/98/18 88/99/18 87/100/18
f 13/101/19 14/102/19 72/103/19 71/104/19
f 30/98/20 31/105/20 89/106/20 88/99/20
f 12/107/21 13/101/21 71/104/21 70/108/21
f 31/105/22 143/109/22 219/110/22 89/106/22
f 145/111/23 12/107/23 70/108/23 221/112/23
f 147/113/24 9/114/24 67/115/24 223/116/24
f 34/117/25 151/118/25 227/119/25 92/120/25
f 35/121/26 36/122/26 94/123/26 93/124/26
f 33/125/27 34/117/27 92/120/27 91/126/27
f 7/127/28 8/128/28 66/129/28 65/130/28
f 10/131/29 11/132/29 69/133/29 68/134/29
f 9/114/30 10/131/30 68/134/30 67/115/30
f 32/135/31 33/125/31 91/126/31 90/136/31
f 36/122/32 37/137/32 95/138/32 94/123/32
f 6/139/33 7/127/33 65/130/33 64/140/33
f 37/137/34 159/141/34 235/142/34 95/138/34
f 40/143/35 162/144/35 238/145/35 98/146/35
f 39/147/36 40/143/36 98/146/36 97/148/36
f 38/149/37 39/147/37 97/148/37 96/150/37
f 5/151/38 6/139/38 64/140/38 63/152/38
f 41/153/39 42/154/39 100/155/39 99/156/39
f 167/157/40 3/158/40 61/159/40 243/160/40
f 3/158/41 4/161/41 62/162/41 61/159/41
f 1/163/42 2/164/42 60/165/42 59/166/42
f 4/161/43 5/151/43 63/152/43 62/162/43
f 42/154/44 43/167/44 101/168/44 100/155/44
f 173/169/45 45/170/45 103/171/45 249/172/45
f 43/167/46 44/173/46 102/174/46 101/168/46
f 176/175/47 1/163/47 59/166/47 252/176/47
f 56/177/48 57/178/48 115/179/48 114/180/48
f 45/170/49 180/181/49 256/182/49 103/171/49
f 182/183/50 56/177/50 114/180/50 258/184/50
f 57/178/51 58/185/51 116/186/51 115/179/51
f 46/187/52 47/188/52 105/189/52 104/190/52
f 54/191/53 55/192/53 113/193/53 112/194/53
f 47/188/54 48/195/54 106/196/54 105/189/54
f 53/197/55 54/191/55 112/194/55 111/198/55
f 48/195/56 188/199/56 264/200/56 106/196/56
f 190/201/57 53/197/57 111/198/57 266/202/57
f 49/203/58 50/204/58 108/205/58 107/206/58
f 51/207/59 52/208/59 110/209/59 109/210/59
f 50/204/60 51/207/60 109/210/60 108/205/60
usemtl FrontMat.001
f 126/211/61 130/212/61 146/213/61
f 149/214/61 153/215/61 160/216/61
f 187/217/61 185/218/61 191/219/61
f 170/220/61 175/221/61 169/222/61
f 138/223/61 134/224/61 140/225/61
f 183/226/61 179/227/61 181/228/61
f 119/229/61 117/230/61 122/231/61
f 128/232/61 125/233/61 126/211/61
f 150/234/61 149/214/61 152/235/61
f 183/226/61 181/228/61 184/236/61
f 133/237/61 139/238/61 148/239/61
f 175/221/61 178/240/61 169/222/61
f 191/219/61 185/218/61 184/236/61
f 165/241/61 161/242/61 140/225/61
f 177/243/61 164/244/61 178/240/61
f 184/236/61 186/245/61 191/219/61
f 168/246/61 166/247/61 170/220/61
f 130/212/61 133/237/61 146/213/61
f 137/248/61 128/232/61 154/249/61
f 120/250/61 119/229/61 122/231/61
f 149/214/61 160/216/61 163/251/61
f 141/252/61 144/253/61 155/254/61
f 179/227/61 174/255/61 157/256/61
f 125/233/61 123/257/61 124/258/61
f 139/238/61 141/252/61 148/239/61
f 140/225/61 137/248/61 154/249/61
f 157/256/61 164/244/61 177/243/61
f 122/231/61 124/258/61 120/250/61
f 174/255/61 172/259/61 171/260/61
f 179/227/61 157/256/61 177/243/61
f 142/261/61 140/225/61 161/242/61
f 157/256/61 165/241/61 154/249/61
f 128/232/61 146/213/61 154/249/61
f 189/262/61 192/263/61 186/245/61
f 125/233/61 124/258/61 126/211/61
f 181/228/61 179/227/61 177/243/61
f 156/264/61 152/235/61 163/251/61
f 141/252/61 155/254/61 148/239/61
f 146/213/61 133/237/61 148/239/61
f 133/237/61 131/265/61 139/238/61
f 174/255/61 165/241/61 157/256/61
f 185/218/61 183/226/61 184/236/61
f 134/224/61 137/248/61 140/225/61
f 158/266/61 156/264/61 163/251/61
f 161/242/61 160/216/61 142/261/61
f 140/225/61 154/249/61 165/241/61
f 128/232/61 126/211/61 146/213/61
f 123/257/61 120/250/61 124/258/61
f 153/215/61 142/261/61 160/216/61
f 123/257/61 121/267/61 120/250/61
f 192/263/61 191/219/61 186/245/61
f 169/222/61 168/246/61 170/220/61
f 174/255/61 171/260/61 165/241/61
f 164/244/61 169/222/61 178/240/61
f 152/235/61 149/214/61 163/251/61
f 138/223/61 135/268/61 134/224/61
