# Blender v2.83.1 OBJ File: 'jigsaw-64x36-3-step2.blend'
# www.blender.org
mtllib piece.1752.mtl
o path8120
v 0.428738 0.037500 -0.294172
v 0.411867 0.037500 -0.172358
v 0.431608 0.037500 -0.092617
v 0.503345 0.037500 -0.087816
v 0.599174 0.037500 -0.117041
v 0.680367 0.037500 -0.120934
v 0.716211 0.037500 -0.059463
v 0.708061 0.037500 0.029976
v 0.665291 0.037500 0.090658
v 0.599247 0.037500 0.085562
v 0.529169 0.037500 0.056450
v 0.476271 0.037500 0.064800
v 0.455717 0.037500 0.152714
v 0.479727 0.037500 0.504326
v 0.285995 0.037500 0.551804
v 0.169666 0.037500 0.567238
v 0.092808 0.037500 0.548067
v 0.086277 0.037500 0.479479
v 0.110125 0.037500 0.386017
v 0.106691 0.037500 0.302078
v 0.037630 0.037500 0.256071
v -0.058115 0.037500 0.252422
v -0.122295 0.037500 0.289566
v -0.116907 0.037500 0.361420
v -0.084953 0.037500 0.443813
v -0.089689 0.037500 0.508053
v -0.174671 0.037500 0.533289
v -0.304716 0.037500 0.530041
v -0.521973 0.037500 0.504326
v -0.563919 0.037500 0.147377
v -0.547935 0.037500 0.060524
v -0.495693 0.037500 0.056484
v -0.424803 0.037500 0.089502
v -0.359945 0.037500 0.093348
v -0.322405 0.037500 0.023275
v -0.319872 0.037500 -0.079422
v -0.356638 0.037500 -0.151962
v -0.430674 0.037500 -0.152277
v -0.514933 0.037500 -0.121126
v -0.576067 0.037500 -0.119991
v -0.590277 0.037500 -0.191845
v -0.571976 0.037500 -0.305630
v -0.521973 0.037500 -0.497585
v -0.302217 0.037500 -0.531944
v -0.170830 0.037500 -0.539383
v -0.085297 0.037500 -0.514647
v -0.081305 0.037500 -0.445396
v -0.114702 0.037500 -0.355959
v -0.121376 0.037500 -0.279831
v -0.057865 0.037500 -0.244476
v 0.036766 0.037500 -0.253233
v 0.102802 0.037500 -0.303406
v 0.100620 0.037500 -0.387413
v 0.070978 0.037500 -0.478121
v 0.074734 0.037500 -0.543505
v 0.153997 0.037500 -0.560879
v 0.275858 0.037500 -0.544907
v 0.479727 0.037500 -0.497585
v 0.428738 -0.037500 -0.294172
v 0.411867 -0.037498 -0.172358
v 0.431608 -0.037500 -0.092617
v 0.503345 -0.037500 -0.087816
v 0.599174 -0.037500 -0.117041
v 0.680367 -0.037500 -0.120934
v 0.716211 -0.037500 -0.059463
v 0.708061 -0.037500 0.029976
v 0.665291 -0.037500 0.090658
v 0.599247 -0.037500 0.085562
v 0.529169 -0.037498 0.056450
v 0.476271 -0.037500 0.064800
v 0.455717 -0.037500 0.152714
v 0.479727 -0.037500 0.504326
v 0.285995 -0.037500 0.551804
v 0.169666 -0.037500 0.567238
v 0.092808 -0.037498 0.548067
v 0.086277 -0.037500 0.479479
v 0.110125 -0.037500 0.386017
v 0.106691 -0.037500 0.302078
v 0.037630 -0.037500 0.256071
v -0.058115 -0.037498 0.252422
v -0.122295 -0.037500 0.289566
v -0.116907 -0.037500 0.361420
v -0.084953 -0.037500 0.443813
v -0.089689 -0.037498 0.508053
v -0.174671 -0.037500 0.533289
v -0.304716 -0.037500 0.530041
v -0.521973 -0.037498 0.504326
v -0.563919 -0.037500 0.147377
v -0.547935 -0.037500 0.060524
v -0.495693 -0.037498 0.056484
v -0.424803 -0.037498 0.089502
v -0.359945 -0.037500 0.093348
v -0.322405 -0.037498 0.023275
v -0.319872 -0.037500 -0.079422
v -0.356638 -0.037500 -0.151962
v -0.430674 -0.037500 -0.152277
v -0.514933 -0.037500 -0.121126
v -0.576067 -0.037500 -0.119991
v -0.590277 -0.037498 -0.191845
v -0.571976 -0.037500 -0.305630
v -0.521973 -0.037500 -0.497585
v -0.302217 -0.037500 -0.531944
v -0.170830 -0.037500 -0.539383
v -0.085297 -0.037500 -0.514647
v -0.081305 -0.037500 -0.445396
v -0.114702 -0.037500 -0.355959
v -0.121376 -0.037500 -0.279831
v -0.057865 -0.037500 -0.244476
v 0.036766 -0.037500 -0.253233
v 0.102802 -0.037500 -0.303406
v 0.100620 -0.037500 -0.387413
v 0.070978 -0.037500 -0.478121
v 0.074734 -0.037500 -0.543505
v 0.153997 -0.037500 -0.560879
v 0.275858 -0.037500 -0.544907
v 0.479727 -0.037498 -0.497585
v 0.680367 0.037500 -0.120934
v 0.680367 0.037500 -0.120934
v 0.716211 0.037500 -0.059463
v 0.708061 0.037500 0.029976
v 0.665291 0.037500 0.090658
v 0.599174 0.037500 -0.117041
v 0.599247 0.037500 0.085562
v 0.529169 0.037500 0.056450
v 0.503345 0.037500 -0.087816
v 0.476271 0.037500 0.064800
v 0.476271 0.037500 0.064800
v 0.431608 0.037500 -0.092617
v 0.431608 0.037500 -0.092617
v 0.455717 0.037500 0.152714
v 0.479727 0.037500 0.504326
v 0.479727 0.037500 0.504326
v 0.479727 0.037500 -0.497585
v 0.479727 0.037500 -0.497585
v 0.428738 0.037500 -0.294172
v 0.411867 0.037500 -0.172358
v 0.285995 0.037500 0.551804
v 0.275858 0.037500 -0.544907
v 0.169666 0.037500 0.567238
v 0.153997 0.037500 -0.560879
v 0.092808 0.037500 0.548067
v 0.092808 0.037500 0.548067
v 0.074734 0.037500 -0.543505
v 0.074734 0.037500 -0.543505
v 0.102802 0.037500 -0.303406
v 0.100620 0.037500 -0.387413
v 0.110125 0.037500 0.386017
v 0.106691 0.037500 0.302078
v 0.086277 0.037500 0.479479
v 0.037630 0.037500 0.256071
v 0.036766 0.037500 -0.253233
v 0.070978 0.037500 -0.478121
v -0.058115 0.037500 0.252422
v -0.057865 0.037500 -0.244476
v -0.121376 0.037500 -0.279831
v -0.121376 0.037500 -0.279831
v -0.122295 0.037500 0.289566
v -0.122295 0.037500 0.289566
v -0.085297 0.037500 -0.514647
v -0.085297 0.037500 -0.514647
v -0.081305 0.037500 -0.445396
v -0.114702 0.037500 -0.355959
v -0.116907 0.037500 0.361420
v -0.084953 0.037500 0.443813
v -0.089689 0.037500 0.508053
v -0.089689 0.037500 0.508053
v -0.170830 0.037500 -0.539383
v -0.174671 0.037500 0.533289
v -0.302217 0.037500 -0.531944
v -0.304716 0.037500 0.530041
v -0.322405 0.037500 0.023275
v -0.319872 0.037500 -0.079422
v -0.356638 0.037500 -0.151962
v -0.356638 0.037500 -0.151962
v -0.359945 0.037500 0.093348
v -0.359945 0.037500 0.093348
v -0.430674 0.037500 -0.152277
v -0.424803 0.037500 0.089502
v -0.521973 0.037500 -0.497585
v -0.521973 0.037500 -0.497585
v -0.495693 0.037500 0.056484
v -0.514933 0.037500 -0.121126
v -0.547935 0.037500 0.060524
v -0.547935 0.037500 0.060524
v -0.521973 0.037500 0.504326
v -0.521973 0.037500 0.504326
v -0.576067 0.037500 -0.119991
v -0.576067 0.037500 -0.119991
v -0.571976 0.037500 -0.305630
v -0.563919 0.037500 0.147377
v -0.590277 0.037500 -0.191845
v 0.680367 -0.037500 -0.120934
v 0.680367 -0.037500 -0.120934
v 0.716211 -0.037500 -0.059463
v 0.708061 -0.037500 0.029976
v 0.665291 -0.037500 0.090658
v 0.599174 -0.037500 -0.117041
v 0.599247 -0.037500 0.085562
v 0.529169 -0.037498 0.056450
v 0.503345 -0.037500 -0.087816
v 0.476271 -0.037500 0.064800
v 0.476271 -0.037500 0.064800
v 0.431608 -0.037500 -0.092617
v 0.431608 -0.037500 -0.092617
v 0.455717 -0.037500 0.152714
v 0.479727 -0.037500 0.504326
v 0.479727 -0.037500 0.504326
v 0.479727 -0.037498 -0.497585
v 0.479727 -0.037498 -0.497585
v 0.428738 -0.037500 -0.294172
v 0.411867 -0.037498 -0.172358
v 0.285995 -0.037500 0.551804
v 0.275858 -0.037500 -0.544907
v 0.169666 -0.037500 0.567238
v 0.153997 -0.037500 -0.560879
v 0.092808 -0.037498 0.548067
v 0.092808 -0.037498 0.548067
v 0.074734 -0.037500 -0.543505
v 0.074734 -0.037500 -0.543505
v 0.102802 -0.037500 -0.303406
v 0.100620 -0.037500 -0.387413
v 0.110125 -0.037500 0.386017
v 0.106691 -0.037500 0.302078
v 0.086277 -0.037500 0.479479
v 0.037630 -0.037500 0.256071
v 0.036766 -0.037500 -0.253233
v 0.070978 -0.037500 -0.478121
v -0.058115 -0.037498 0.252422
v -0.057865 -0.037500 -0.244476
v -0.121376 -0.037500 -0.279831
v -0.121376 -0.037500 -0.279831
v -0.122295 -0.037500 0.289566
v -0.122295 -0.037500 0.289566
v -0.085297 -0.037500 -0.514647
v -0.085297 -0.037500 -0.514647
v -0.081305 -0.037500 -0.445396
v -0.114702 -0.037500 -0.355959
v -0.116907 -0.037500 0.361420
v -0.084953 -0.037500 0.443813
v -0.089689 -0.037498 0.508053
v -0.089689 -0.037498 0.508053
v -0.170830 -0.037500 -0.539383
v -0.174671 -0.037500 0.533289
v -0.302217 -0.037500 -0.531944
v -0.304716 -0.037500 0.530041
v -0.322405 -0.037498 0.023275
v -0.319872 -0.037500 -0.079422
v -0.356638 -0.037500 -0.151962
v -0.356638 -0.037500 -0.151962
v -0.359945 -0.037500 0.093348
v -0.359945 -0.037500 0.093348
v -0.430674 -0.037500 -0.152277
v -0.424803 -0.037498 0.089502
v -0.521973 -0.037500 -0.497585
v -0.521973 -0.037500 -0.497585
v -0.495693 -0.037498 0.056484
v -0.514933 -0.037500 -0.121126
v -0.547935 -0.037500 0.060524
v -0.547935 -0.037500 0.060524
v -0.521973 -0.037498 0.504326
v -0.521973 -0.037498 0.504326
v -0.576067 -0.037500 -0.119991
v -0.576067 -0.037500 -0.119991
v -0.571976 -0.037500 -0.305630
v -0.563919 -0.037500 0.147377
v -0.590277 -0.037498 -0.191845
vt 0.500000 0.500000
vt 0.500000 0.500000
vt 0.500000 0.500000
vt 0.500000 0.500000
vt 0.500000 0.500000
vt 0.500000 0.500000
vt 0.500000 0.500000
vt 0.500000 0.500000
vt 0.500000 0.500000
vt 0.500000 0.500000
vt 0.500000 0.500000
vt 0.500000 0.500000
vt 0.500000 0.500000
vt 0.500000 0.500000
vt 0.500000 0.500000
vt 0.500000 0.500000
vt 0.500000 0.500000
vt 0.500000 0.500000
vt 0.500000 0.500000
vt 0.500000 0.500000
vt 0.500000 0.500000
vt 0.500000 0.500000
vt 0.500000 0.500000
vt 0.500000 0.500000
vt 0.500000 0.500000
vt 0.500000 0.500000
vt 0.500000 0.500000
vt 0.500000 0.500000
vt 0.500000 0.500000
vt 0.500000 0.500000
vt 0.500000 0.500000
vt 0.500000 0.500000
vt 0.500000 0.500000
vt 0.500000 0.500000
vt 0.500000 0.500000
vt 0.500000 0.500000
vt 0.500000 0.500000
vt 0.500000 0.500000
vt 0.500000 0.500000
vt 0.500000 0.500000
vt 0.500000 0.500000
vt 0.500000 0.500000
vt 0.500000 0.500000
vt 0.500000 0.500000
vt 0.500000 0.500000
vt 0.500000 0.500000
vt 0.500000 0.500000
vt 0.500000 0.500000
vt 0.500000 0.500000
vt 0.500000 0.500000
vt 0.500000 0.500000
vt 0.500000 0.500000
vt 0.500000 0.500000
vt 0.500000 0.500000
vt 0.500000 0.500000
vt 0.500000 0.500000
vt 0.500000 0.500000
vt 0.500000 0.500000
vt 0.500000 0.500000
vt 0.500000 0.500000
vt 0.500000 0.500000
vt 0.500000 0.500000
vt 0.500000 0.500000
vt 0.500000 0.500000
vt 0.500000 0.500000
vt 0.500000 0.500000
vt 0.500000 0.500000
vt 0.500000 0.500000
vt 0.500000 0.500000
vt 0.500000 0.500000
vt 0.500000 0.500000
vt 0.500000 0.500000
vt 0.500000 0.500000
vt 0.500000 0.500000
vt 0.500000 0.500000
vt 0.500000 0.500000
vt 0.500000 0.500000
vt 0.500000 0.500000
vt 0.500000 0.500000
vt 0.500000 0.500000
vt 0.500000 0.500000
vt 0.500000 0.500000
vt 0.500000 0.500000
vt 0.500000 0.500000
vt 0.500000 0.500000
vt 0.500000 0.500000
vt 0.500000 0.500000
vt 0.500000 0.500000
vt 0.500000 0.500000
vt 0.500000 0.500000
vt 0.500000 0.500000
vt 0.500000 0.500000
vt 0.500000 0.500000
vt 0.500000 0.500000
vt 0.500000 0.500000
vt 0.500000 0.500000
vt 0.500000 0.500000
vt 0.500000 0.500000
vt 0.500000 0.500000
vt 0.500000 0.500000
vt 0.500000 0.500000
vt 0.500000 0.500000
vt 0.500000 0.500000
vt 0.500000 0.500000
vt 0.500000 0.500000
vt 0.500000 0.500000
vt 0.500000 0.500000
vt 0.500000 0.500000
vt 0.500000 0.500000
vt 0.500000 0.500000
vt 0.500000 0.500000
vt 0.500000 0.500000
vt 0.500000 0.500000
vt 0.500000 0.500000
vt 0.500000 0.500000
vt 0.500000 0.500000
vt 0.500000 0.500000
vt 0.500000 0.500000
vt 0.500000 0.500000
vt 0.500000 0.500000
vt 0.500000 0.500000
vt 0.500000 0.500000
vt 0.500000 0.500000
vt 0.500000 0.500000
vt 0.500000 0.500000
vt 0.500000 0.500000
vt 0.500000 0.500000
vt 0.500000 0.500000
vt 0.500000 0.500000
vt 0.500000 0.500000
vt 0.500000 0.500000
vt 0.500000 0.500000
vt 0.500000 0.500000
vt 0.500000 0.500000
vt 0.500000 0.500000
vt 0.500000 0.500000
vt 0.500000 0.500000
vt 0.500000 0.500000
vt 0.500000 0.500000
vt 0.500000 0.500000
vt 0.500000 0.500000
vt 0.500000 0.500000
vt 0.500000 0.500000
vt 0.500000 0.500000
vt 0.500000 0.500000
vt 0.500000 0.500000
vt 0.500000 0.500000
vt 0.500000 0.500000
vt 0.500000 0.500000
vt 0.500000 0.500000
vt 0.500000 0.500000
vt 0.500000 0.500000
vt 0.500000 0.500000
vt 0.500000 0.500000
vt 0.500000 0.500000
vt 0.500000 0.500000
vt 0.500000 0.500000
vt 0.500000 0.500000
vt 0.500000 0.500000
vt 0.500000 0.500000
vt 0.500000 0.500000
vt 0.500000 0.500000
vt 0.500000 0.500000
vt 0.500000 0.500000
vt 0.500000 0.500000
vt 0.500000 0.500000
vt 0.500000 0.500000
vt 0.500000 0.500000
vt 0.500000 0.500000
vt 0.500000 0.500000
vt 0.500000 0.500000
vt 0.500000 0.500000
vt 0.500000 0.500000
vt 0.500000 0.500000
vt 0.500000 0.500000
vt 0.500000 0.500000
vt 0.500000 0.500000
vt 0.500000 0.500000
vt 0.500000 0.500000
vt 0.500000 0.500000
vt 0.500000 0.500000
vt 0.500000 0.500000
vt 0.500000 0.500000
vt 0.500000 0.500000
vt 0.500000 0.500000
vt 0.500000 0.500000
vt 0.500000 0.500000
vt 0.500000 0.500000
vt 0.500000 0.500000
vt 0.500000 0.500000
vt 0.500000 0.500000
vt 0.500000 0.500000
vt 0.500000 0.500000
vt 0.500000 0.500000
vt 0.500000 0.500000
vt 0.500000 0.500000
vt 0.500000 0.500000
vt 0.500000 0.500000
vt 0.500000 0.500000
vt 0.500000 0.500000
vt 0.500000 0.500000
vt 0.500000 0.500000
vt 0.500000 0.500000
vt 0.500000 0.500000
vt 0.500000 0.500000
vt 0.500000 0.500000
vt 0.500000 0.500000
vt 0.500000 0.500000
vt 0.358839 0.228316
vt 0.364765 0.226807
vt 0.361584 0.233516
vt 0.364447 0.248118
vt 0.362403 0.239548
vt 0.363186 0.237716
vt 0.364143 0.220328
vt 0.365264 0.220722
vt 0.365246 0.222417
vt 0.365896 0.227826
vt 0.362771 0.233331
vt 0.365310 0.253312
vt 0.365765 0.250655
vt 0.368015 0.251371
vt 0.362369 0.220836
vt 0.364760 0.224754
vt 0.369517 0.249334
vt 0.365691 0.248666
vt 0.371128 0.237740
vt 0.371072 0.235085
vt 0.363322 0.235092
vt 0.367498 0.227756
vt 0.368079 0.221502
vt 0.369433 0.221059
vt 0.368016 0.222951
vt 0.374056 0.234341
vt 0.372771 0.233455
vt 0.375452 0.231853
vt 0.358723 0.231960
vt 0.375981 0.241402
vt 0.375740 0.244628
vt 0.373155 0.239751
vt 0.371846 0.239655
vt 0.367602 0.256332
vt 0.368469 0.253314
vt 0.375682 0.239270
vt 0.374613 0.239089
vt 0.368549 0.255146
vt 0.362547 0.248586
vt 0.358637 0.244347
vt 0.358388 0.240967
vt 0.361093 0.239487
vt 0.359679 0.238665
vt 0.375000 0.222222
vt 0.375401 0.228247
vt 0.368591 0.226715
vt 0.366208 0.256558
vt 0.365249 0.255564
vt 0.371651 0.233306
vt 0.375000 0.250000
vt 0.368146 0.249904
vt 0.368531 0.224917
vt 0.360189 0.234442
vt 0.359375 0.222222
vt 0.359375 0.250000
vt 0.375058 0.234210
vt 0.358659 0.238769
vt 0.359109 0.234331
vn 0.0000 -1.0000 0.0000
vn 0.8639 0.0000 -0.5037
vn 0.9959 0.0000 0.0907
vn 0.8174 0.0000 0.5761
vn -0.0479 0.0000 -0.9989
vn -0.0769 0.0000 0.9970
vn -0.3836 0.0000 0.9235
vn -0.2917 0.0000 -0.9565
vn 0.1559 0.0000 0.9878
vn 0.0668 0.0000 -0.9978
vn 0.9737 0.0000 0.2277
vn 0.9977 0.0000 -0.0681
vn 0.9700 0.0000 0.2431
vn 0.9707 0.0000 -0.2403
vn 0.9905 0.0000 0.1372
vn 0.2380 0.0000 0.9713
vn 0.2261 0.0000 -0.9741
vn 0.1315 0.0000 0.9913
vn 0.1300 0.0000 -0.9915
vn -0.2420 0.0000 0.9703
vn -0.2141 0.0000 -0.9768
vn -0.9997 0.0000 0.0260
vn -0.9992 0.0000 0.0409
vn -0.9690 0.0000 -0.2472
vn -0.9955 0.0000 0.0948
vn -0.5544 0.0000 0.8322
vn -0.6050 0.0000 -0.7962
vn -0.9984 0.0000 -0.0573
vn -0.9505 0.0000 0.3106
vn -0.0381 0.0000 0.9993
vn -0.0921 0.0000 -0.9957
vn 0.4864 0.0000 -0.8737
vn 0.5009 0.0000 0.8655
vn 0.9983 0.0000 -0.0576
vn 0.9368 0.0000 0.3498
vn 0.9323 0.0000 -0.3616
vn 0.9973 0.0000 0.0735
vn 0.2778 0.0000 -0.9606
vn 0.2847 0.0000 0.9586
vn 0.9962 0.0000 0.0873
vn 0.9972 0.0000 -0.0748
vn -0.0565 0.0000 -0.9984
vn -0.0250 0.0000 0.9997
vn -0.9997 0.0000 -0.0247
vn -0.8920 0.0000 0.4521
vn -0.8815 0.0000 -0.4722
vn -0.0043 0.0000 1.0000
vn 0.0592 0.0000 -0.9982
vn -0.1545 0.0000 -0.9880
vn 0.4222 0.0000 -0.9065
vn 0.3468 0.0000 0.9380
vn -0.0771 0.0000 -0.9970
vn -0.1175 0.0000 0.9931
vn 0.0186 0.0000 0.9998
vn -0.9677 0.0000 -0.2521
vn -0.9835 0.0000 -0.1810
vn -0.9932 0.0000 0.1167
vn -0.9873 0.0000 -0.1588
vn -0.9810 0.0000 0.1940
vn 0.0000 1.0000 0.0000
usemtl BackMat.001
s off
f 244/1/1 237/2/1 248/3/1
f 211/4/1 226/5/1 220/6/1
f 266/7/1 257/8/1 262/9/1
f 247/10/1 248/3/1 230/11/1
f 197/12/1 199/13/1 200/14/1
f 248/3/1 252/15/1 264/16/1
f 205/17/1 225/18/1 203/19/1
f 228/20/1 246/21/1 229/22/1
f 258/23/1 256/24/1 265/25/1
f 239/26/1 243/27/1 238/28/1
f 242/29/1 237/2/1 244/1/1
f 252/15/1 257/8/1 266/7/1
f 230/11/1 248/3/1 237/2/1
f 214/30/1 222/31/1 212/32/1
f 212/32/1 223/33/1 205/17/1
f 195/34/1 198/35/1 197/12/1
f 216/36/1 224/37/1 214/30/1
f 198/35/1 195/34/1 196/38/1
f 211/4/1 220/6/1 210/39/1
f 213/40/1 221/41/1 215/42/1
f 215/42/1 221/41/1 227/43/1
f 210/39/1 220/6/1 221/41/1
f 229/22/1 247/10/1 230/11/1
f 260/44/1 250/45/1 245/46/1
f 225/18/1 229/22/1 226/5/1
f 194/47/1 197/12/1 192/48/1
f 238/28/1 245/46/1 232/49/1
f 199/13/1 197/12/1 198/35/1
f 212/32/1 205/17/1 206/50/1
f 203/19/1 226/5/1 211/4/1
f 246/21/1 232/49/1 250/45/1
f 205/17/1 203/19/1 201/51/1
f 250/45/1 260/44/1 253/52/1
f 210/39/1 221/41/1 213/40/1
f 237/2/1 242/29/1 236/53/1
f 244/1/1 264/16/1 254/54/1
f 200/14/1 201/51/1 203/19/1
f 223/33/1 225/18/1 205/17/1
f 265/25/1 253/52/1 260/44/1
f 199/13/1 201/51/1 200/14/1
f 232/49/1 246/21/1 228/20/1
f 243/27/1 245/46/1 238/28/1
f 253/52/1 265/25/1 256/24/1
f 222/31/1 214/30/1 224/37/1
f 210/39/1 213/40/1 208/55/1
f 240/56/1 243/27/1 239/26/1
f 228/20/1 229/22/1 225/18/1
f 223/33/1 212/32/1 222/31/1
f 225/18/1 226/5/1 203/19/1
f 215/42/1 227/43/1 218/57/1
f 246/21/1 247/10/1 229/22/1
f 236/53/1 242/29/1 234/58/1
f 264/16/1 252/15/1 266/7/1
f 244/1/1 248/3/1 264/16/1
f 245/46/1 250/45/1 232/49/1
f 195/34/1 197/12/1 194/47/1
f 118/59/2 7/60/2 65/61/2 193/62/2
f 7/60/3 8/63/3 66/64/3 65/61/3
f 8/63/4 9/65/4 67/66/4 66/64/4
f 5/67/5 6/68/5 64/69/5 63/70/5
f 9/65/6 10/71/6 68/72/6 67/66/6
f 10/71/7 11/73/7 69/74/7 68/72/7
f 4/75/8 5/67/8 63/70/8 62/76/8
f 11/73/9 127/77/9 202/78/9 69/74/9
f 129/79/10 4/75/10 62/76/10 204/80/10
f 12/81/11 13/82/11 71/83/11 70/84/11
f 13/82/12 132/85/12 207/86/12 71/83/12
f 134/87/13 1/88/13 59/89/13 209/90/13
f 2/91/14 3/92/14 61/93/14 60/94/14
f 1/88/15 2/91/15 60/94/15 59/89/15
f 14/95/16 15/96/16 73/97/16 72/98/16
f 57/99/17 58/100/17 116/101/17 115/102/17
f 15/96/18 16/103/18 74/104/18 73/97/18
f 56/105/19 57/99/19 115/102/19 114/106/19
f 16/103/20 142/107/20 217/108/20 74/104/20
f 144/109/21 56/105/21 114/106/21 219/110/21
f 52/111/22 53/112/22 111/113/22 110/114/22
f 19/115/23 20/116/23 78/117/23 77/118/23
f 18/119/24 19/115/24 77/118/24 76/120/24
f 17/121/25 18/119/25 76/120/25 75/122/25
f 20/116/26 21/123/26 79/124/26 78/117/26
f 51/125/27 52/111/27 110/114/27 109/126/27
f 54/127/28 55/128/28 113/129/28 112/130/28
f 53/112/29 54/127/29 112/130/29 111/113/29
f 21/123/30 22/131/30 80/132/30 79/124/30
f 50/133/31 51/125/31 109/126/31 108/134/31
f 156/135/32 50/133/32 108/134/32 231/136/32
f 22/131/33 158/137/33 233/138/33 80/132/33
f 160/139/34 47/140/34 105/141/34 235/142/34
f 47/140/35 48/143/35 106/144/35 105/141/35
f 24/145/36 25/146/36 83/147/36 82/148/36
f 25/146/37 166/149/37 241/150/37 83/147/37
f 45/151/38 46/152/38 104/153/38 103/154/38
f 26/155/39 27/156/39 85/157/39 84/158/39
f 48/143/40 49/159/40 107/160/40 106/144/40
f 23/161/41 24/145/41 82/148/41 81/162/41
f 44/163/42 45/151/42 103/154/42 102/164/42
f 27/156/43 28/165/43 86/166/43 85/157/43
f 35/167/44 36/168/44 94/169/44 93/170/44
f 36/168/45 174/171/45 249/172/45 94/169/45
f 176/173/46 35/167/46 93/170/46 251/174/46
f 37/175/47 38/176/47 96/177/47 95/178/47
f 33/179/48 34/180/48 92/181/48 91/182/48
f 180/183/49 44/163/49 102/164/49 255/184/49
f 32/185/50 33/179/50 91/182/50 90/186/50
f 38/176/51 39/187/51 97/188/51 96/177/51
f 184/189/52 32/185/52 90/186/52 259/190/52
f 28/165/53 186/191/53 261/192/53 86/166/53
f 39/187/54 188/193/54 263/194/54 97/188/54
f 42/195/55 43/196/55 101/197/55 100/198/55
f 30/199/56 31/200/56 89/201/56 88/202/56
f 29/203/57 30/199/57 88/202/57 87/204/57
f 41/205/58 42/195/58 100/198/58 99/206/58
f 40/207/59 41/205/59 99/206/59 98/208/59
usemtl FrontMat.001
f 169/209/60 173/210/60 162/211/60
f 136/212/60 145/213/60 151/214/60
f 191/215/60 187/216/60 182/217/60
f 172/218/60 155/219/60 173/210/60
f 122/220/60 125/221/60 124/222/60
f 173/210/60 189/223/60 177/224/60
f 130/225/60 128/226/60 150/227/60
f 153/228/60 154/229/60 171/230/60
f 183/231/60 190/232/60 181/233/60
f 164/234/60 163/235/60 168/236/60
f 167/237/60 169/209/60 162/211/60
f 177/224/60 191/215/60 182/217/60
f 155/219/60 162/211/60 173/210/60
f 139/238/60 137/239/60 147/240/60
f 137/239/60 130/225/60 148/241/60
f 120/242/60 122/220/60 123/243/60
f 141/244/60 139/238/60 149/245/60
f 123/243/60 121/246/60 120/242/60
f 136/212/60 135/247/60 145/213/60
f 138/248/60 140/249/60 146/250/60
f 140/249/60 152/251/60 146/250/60
f 135/247/60 146/250/60 145/213/60
f 154/229/60 155/219/60 172/218/60
f 185/252/60 170/253/60 175/254/60
f 150/227/60 151/214/60 154/229/60
f 119/255/60 117/256/60 122/220/60
f 163/235/60 157/257/60 170/253/60
f 124/222/60 123/243/60 122/220/60
f 137/239/60 131/258/60 130/225/60
f 128/226/60 136/212/60 151/214/60
f 171/230/60 175/254/60 157/257/60
f 130/225/60 126/259/60 128/226/60
f 175/254/60 178/260/60 185/252/60
f 135/247/60 138/248/60 146/250/60
f 162/211/60 161/261/60 167/237/60
f 169/209/60 179/262/60 189/223/60
f 125/221/60 128/226/60 126/259/60
f 148/241/60 130/225/60 150/227/60
f 190/232/60 185/252/60 178/260/60
f 124/222/60 125/221/60 126/259/60
f 157/257/60 153/228/60 171/230/60
f 168/236/60 163/235/60 170/253/60
f 178/260/60 181/233/60 190/232/60
f 147/240/60 149/245/60 139/238/60
f 135/247/60 133/263/60 138/248/60
f 165/264/60 164/234/60 168/236/60
f 153/228/60 150/227/60 154/229/60
f 148/241/60 147/240/60 137/239/60
f 150/227/60 128/226/60 151/214/60
f 140/249/60 143/265/60 152/251/60
f 171/230/60 154/229/60 172/218/60
f 161/261/60 159/266/60 167/237/60
f 189/223/60 191/215/60 177/224/60
f 169/209/60 189/223/60 173/210/60
f 170/253/60 157/257/60 175/254/60
f 120/242/60 119/255/60 122/220/60
