# Blender v2.83.1 OBJ File: 'jigsaw-64x36-3-step2.blend'
# www.blender.org
mtllib piece.1418.mtl
o path7452
v -0.563469 0.037500 0.283892
v -0.573435 0.037500 0.168450
v -0.550171 0.037500 0.092117
v -0.480415 0.037500 0.085591
v -0.388763 0.037500 0.109735
v -0.309252 0.037500 0.107946
v -0.269678 0.037500 0.042406
v -0.272903 0.037500 -0.049596
v -0.315563 0.037500 -0.111988
v -0.390182 0.037500 -0.108259
v -0.472960 0.037500 -0.080115
v -0.536005 0.037500 -0.088821
v -0.559231 0.037500 -0.176372
v -0.553757 0.037500 -0.307696
v -0.524740 0.037500 -0.525812
v -0.325224 0.037500 -0.564412
v -0.206751 0.037500 -0.576390
v -0.131479 0.037500 -0.559136
v -0.131708 0.037500 -0.500223
v -0.163633 0.037500 -0.419990
v -0.164423 0.037500 -0.346966
v -0.092215 0.037500 -0.305244
v 0.010998 0.037500 -0.301143
v 0.082249 0.037500 -0.336539
v 0.079901 0.037500 -0.407888
v 0.047640 0.037500 -0.489944
v 0.050476 0.037500 -0.552038
v 0.133459 0.037500 -0.572051
v 0.261824 0.037500 -0.562089
v 0.476957 0.037500 -0.525812
v 0.427217 0.037500 -0.307670
v 0.411955 0.037500 -0.177668
v 0.434677 0.037500 -0.093993
v 0.510920 0.037500 -0.091919
v 0.611422 0.037500 -0.125196
v 0.695732 0.037500 -0.127192
v 0.731394 0.037500 -0.053414
v 0.717926 0.037500 0.052081
v 0.662853 0.037500 0.123104
v 0.577486 0.037500 0.115750
v 0.488279 0.037500 0.075273
v 0.425488 0.037500 0.069217
v 0.410330 0.037500 0.144743
v 0.427895 0.037500 0.267508
v 0.476957 0.037500 0.476097
v 0.136093 0.037500 0.427856
v 0.053043 0.037500 0.442392
v 0.048821 0.037500 0.495028
v 0.079065 0.037500 0.568827
v 0.079739 0.037500 0.639697
v 0.007990 0.037500 0.686655
v -0.094286 0.037500 0.701165
v -0.164007 0.037500 0.677803
v -0.159374 0.037500 0.616844
v -0.123711 0.037500 0.541378
v -0.121614 0.037500 0.480196
v -0.198057 0.037500 0.454526
v -0.319561 0.037500 0.455332
v -0.524740 0.037500 0.476097
v -0.563469 -0.037500 0.283892
v -0.573435 -0.037500 0.168450
v -0.550171 -0.037500 0.092117
v -0.480415 -0.037498 0.085591
v -0.388763 -0.037500 0.109735
v -0.309252 -0.037500 0.107946
v -0.269678 -0.037498 0.042406
v -0.272903 -0.037500 -0.049596
v -0.315563 -0.037500 -0.111988
v -0.390182 -0.037500 -0.108259
v -0.472960 -0.037498 -0.080115
v -0.536005 -0.037500 -0.088821
v -0.559231 -0.037500 -0.176372
v -0.553757 -0.037498 -0.307696
v -0.524740 -0.037500 -0.525812
v -0.325224 -0.037500 -0.564412
v -0.206751 -0.037500 -0.576390
v -0.131479 -0.037500 -0.559136
v -0.131708 -0.037500 -0.500223
v -0.163633 -0.037498 -0.419990
v -0.164423 -0.037500 -0.346966
v -0.092215 -0.037500 -0.305244
v 0.010998 -0.037500 -0.301143
v 0.082249 -0.037500 -0.336539
v 0.079901 -0.037500 -0.407888
v 0.047640 -0.037500 -0.489944
v 0.050476 -0.037500 -0.552038
v 0.133459 -0.037500 -0.572051
v 0.261824 -0.037500 -0.562089
v 0.476957 -0.037500 -0.525812
v 0.427217 -0.037500 -0.307670
v 0.411955 -0.037500 -0.177668
v 0.434677 -0.037500 -0.093993
v 0.510920 -0.037500 -0.091919
v 0.611422 -0.037500 -0.125196
v 0.695732 -0.037500 -0.127192
v 0.731394 -0.037500 -0.053414
v 0.717926 -0.037500 0.052081
v 0.662853 -0.037500 0.123104
v 0.577486 -0.037500 0.115750
v 0.488279 -0.037500 0.075273
v 0.425488 -0.037500 0.069217
v 0.410330 -0.037498 0.144743
v 0.427895 -0.037498 0.267508
v 0.476957 -0.037500 0.476097
v 0.136093 -0.037500 0.427856
v 0.053043 -0.037500 0.442392
v 0.048821 -0.037500 0.495028
v 0.079065 -0.037500 0.568827
v 0.079739 -0.037500 0.639697
v 0.007990 -0.037500 0.686655
v -0.094286 -0.037500 0.701165
v -0.164007 -0.037500 0.677803
v -0.159374 -0.037500 0.616844
v -0.123711 -0.037500 0.541378
v -0.121614 -0.037500 0.480196
v -0.198057 -0.037500 0.454526
v -0.319561 -0.037500 0.455332
v -0.524740 -0.037500 0.476097
v -0.563469 0.037500 0.283892
v -0.573435 0.037500 0.168450
v -0.550171 0.037500 0.092117
v -0.550171 0.037500 0.092117
v -0.536005 0.037500 -0.088821
v -0.536005 0.037500 -0.088821
v -0.559231 0.037500 -0.176372
v -0.553757 0.037500 -0.307696
v -0.480415 0.037500 0.085591
v -0.472960 0.037500 -0.080115
v -0.524740 0.037500 0.476097
v -0.524740 0.037500 0.476097
v -0.524740 0.037500 -0.525812
v -0.524740 0.037500 -0.525812
v -0.388763 0.037500 0.109735
v -0.390182 0.037500 -0.108259
v -0.325224 0.037500 -0.564412
v -0.319561 0.037500 0.455332
v -0.315563 0.037500 -0.111988
v -0.309252 0.037500 0.107946
v -0.206751 0.037500 -0.576390
v -0.198057 0.037500 0.454526
v -0.272903 0.037500 -0.049596
v -0.269678 0.037500 0.042406
v -0.131479 0.037500 -0.559136
v -0.131479 0.037500 -0.559136
v -0.121614 0.037500 0.480196
v -0.121614 0.037500 0.480196
v -0.163633 0.037500 -0.419990
v -0.164423 0.037500 -0.346966
v -0.164423 0.037500 -0.346966
v -0.092215 0.037500 -0.305244
v -0.094286 0.037500 0.701165
v -0.164007 0.037500 0.677803
v -0.164007 0.037500 0.677803
v -0.159374 0.037500 0.616844
v -0.131708 0.037500 -0.500223
v -0.123711 0.037500 0.541378
v 0.007990 0.037500 0.686655
v 0.010998 0.037500 -0.301143
v 0.079739 0.037500 0.639697
v 0.082249 0.037500 -0.336539
v 0.082249 0.037500 -0.336539
v 0.079901 0.037500 -0.407888
v 0.047640 0.037500 -0.489944
v 0.050476 0.037500 -0.552038
v 0.050476 0.037500 -0.552038
v 0.079065 0.037500 0.568827
v 0.048821 0.037500 0.495028
v 0.053043 0.037500 0.442392
v 0.053043 0.037500 0.442392
v 0.133459 0.037500 -0.572051
v 0.136093 0.037500 0.427856
v 0.261824 0.037500 -0.562089
v 0.476957 0.037500 0.476097
v 0.476957 0.037500 0.476097
v 0.410330 0.037500 0.144743
v 0.427895 0.037500 0.267508
v 0.425488 0.037500 0.069217
v 0.425488 0.037500 0.069217
v 0.411955 0.037500 -0.177668
v 0.434677 0.037500 -0.093993
v 0.434677 0.037500 -0.093993
v 0.427217 0.037500 -0.307670
v 0.488279 0.037500 0.075273
v 0.510920 0.037500 -0.091919
v 0.476957 0.037500 -0.525812
v 0.476957 0.037500 -0.525812
v 0.577486 0.037500 0.115750
v 0.611422 0.037500 -0.125196
v 0.662853 0.037500 0.123104
v 0.695732 0.037500 -0.127192
v 0.695732 0.037500 -0.127192
v 0.717926 0.037500 0.052081
v 0.731394 0.037500 -0.053414
v -0.563469 -0.037500 0.283892
v -0.573435 -0.037500 0.168450
v -0.550171 -0.037500 0.092117
v -0.550171 -0.037500 0.092117
v -0.536005 -0.037500 -0.088821
v -0.536005 -0.037500 -0.088821
v -0.559231 -0.037500 -0.176372
v -0.553757 -0.037498 -0.307696
v -0.480415 -0.037498 0.085591
v -0.472960 -0.037498 -0.080115
v -0.524740 -0.037500 0.476097
v -0.524740 -0.037500 0.476097
v -0.524740 -0.037500 -0.525812
v -0.524740 -0.037500 -0.525812
v -0.388763 -0.037500 0.109735
v -0.390182 -0.037500 -0.108259
v -0.325224 -0.037500 -0.564412
v -0.319561 -0.037500 0.455332
v -0.315563 -0.037500 -0.111988
v -0.309252 -0.037500 0.107946
v -0.206751 -0.037500 -0.576390
v -0.198057 -0.037500 0.454526
v -0.272903 -0.037500 -0.049596
v -0.269678 -0.037498 0.042406
v -0.131479 -0.037500 -0.559136
v -0.131479 -0.037500 -0.559136
v -0.121614 -0.037500 0.480196
v -0.121614 -0.037500 0.480196
v -0.163633 -0.037498 -0.419990
v -0.164423 -0.037500 -0.346966
v -0.164423 -0.037500 -0.346966
v -0.092215 -0.037500 -0.305244
v -0.094286 -0.037500 0.701165
v -0.164007 -0.037500 0.677803
v -0.164007 -0.037500 0.677803
v -0.159374 -0.037500 0.616844
v -0.131708 -0.037500 -0.500223
v -0.123711 -0.037500 0.541378
v 0.007990 -0.037500 0.686655
v 0.010998 -0.037500 -0.301143
v 0.079739 -0.037500 0.639697
v 0.082249 -0.037500 -0.336539
v 0.082249 -0.037500 -0.336539
v 0.079901 -0.037500 -0.407888
v 0.047640 -0.037500 -0.489944
v 0.050476 -0.037500 -0.552038
v 0.050476 -0.037500 -0.552038
v 0.079065 -0.037500 0.568827
v 0.048821 -0.037500 0.495028
v 0.053043 -0.037500 0.442392
v 0.053043 -0.037500 0.442392
v 0.133459 -0.037500 -0.572051
v 0.136093 -0.037500 0.427856
v 0.261824 -0.037500 -0.562089
v 0.476957 -0.037500 0.476097
v 0.476957 -0.037500 0.476097
v 0.410330 -0.037498 0.144743
v 0.427895 -0.037498 0.267508
v 0.425488 -0.037500 0.069217
v 0.425488 -0.037500 0.069217
v 0.411955 -0.037500 -0.177668
v 0.434677 -0.037500 -0.093993
v 0.434677 -0.037500 -0.093993
v 0.427217 -0.037500 -0.307670
v 0.488279 -0.037500 0.075273
v 0.510920 -0.037500 -0.091919
v 0.476957 -0.037500 -0.525812
v 0.476957 -0.037500 -0.525812
v 0.577486 -0.037500 0.115750
v 0.611422 -0.037500 -0.125196
v 0.662853 -0.037500 0.123104
v 0.695732 -0.037500 -0.127192
v 0.695732 -0.037500 -0.127192
v 0.717926 -0.037500 0.052081
v 0.731394 -0.037500 -0.053414
vt 0.500000 0.500000
vt 0.500000 0.500000
vt 0.500000 0.500000
vt 0.500000 0.500000
vt 0.500000 0.500000
vt 0.500000 0.500000
vt 0.500000 0.500000
vt 0.500000 0.500000
vt 0.500000 0.500000
vt 0.500000 0.500000
vt 0.500000 0.500000
vt 0.500000 0.500000
vt 0.500000 0.500000
vt 0.500000 0.500000
vt 0.500000 0.500000
vt 0.500000 0.500000
vt 0.500000 0.500000
vt 0.500000 0.500000
vt 0.500000 0.500000
vt 0.500000 0.500000
vt 0.500000 0.500000
vt 0.500000 0.500000
vt 0.500000 0.500000
vt 0.500000 0.500000
vt 0.500000 0.500000
vt 0.500000 0.500000
vt 0.500000 0.500000
vt 0.500000 0.500000
vt 0.500000 0.500000
vt 0.500000 0.500000
vt 0.500000 0.500000
vt 0.500000 0.500000
vt 0.500000 0.500000
vt 0.500000 0.500000
vt 0.500000 0.500000
vt 0.500000 0.500000
vt 0.500000 0.500000
vt 0.500000 0.500000
vt 0.500000 0.500000
vt 0.500000 0.500000
vt 0.500000 0.500000
vt 0.500000 0.500000
vt 0.500000 0.500000
vt 0.500000 0.500000
vt 0.500000 0.500000
vt 0.500000 0.500000
vt 0.500000 0.500000
vt 0.500000 0.500000
vt 0.500000 0.500000
vt 0.500000 0.500000
vt 0.500000 0.500000
vt 0.500000 0.500000
vt 0.500000 0.500000
vt 0.500000 0.500000
vt 0.500000 0.500000
vt 0.500000 0.500000
vt 0.500000 0.500000
vt 0.500000 0.500000
vt 0.500000 0.500000
vt 0.500000 0.500000
vt 0.500000 0.500000
vt 0.500000 0.500000
vt 0.500000 0.500000
vt 0.500000 0.500000
vt 0.500000 0.500000
vt 0.500000 0.500000
vt 0.500000 0.500000
vt 0.500000 0.500000
vt 0.500000 0.500000
vt 0.500000 0.500000
vt 0.500000 0.500000
vt 0.500000 0.500000
vt 0.500000 0.500000
vt 0.500000 0.500000
vt 0.500000 0.500000
vt 0.500000 0.500000
vt 0.500000 0.500000
vt 0.500000 0.500000
vt 0.500000 0.500000
vt 0.500000 0.500000
vt 0.500000 0.500000
vt 0.500000 0.500000
vt 0.500000 0.500000
vt 0.500000 0.500000
vt 0.500000 0.500000
vt 0.500000 0.500000
vt 0.500000 0.500000
vt 0.500000 0.500000
vt 0.500000 0.500000
vt 0.500000 0.500000
vt 0.500000 0.500000
vt 0.500000 0.500000
vt 0.500000 0.500000
vt 0.500000 0.500000
vt 0.500000 0.500000
vt 0.500000 0.500000
vt 0.500000 0.500000
vt 0.500000 0.500000
vt 0.500000 0.500000
vt 0.500000 0.500000
vt 0.500000 0.500000
vt 0.500000 0.500000
vt 0.500000 0.500000
vt 0.500000 0.500000
vt 0.500000 0.500000
vt 0.500000 0.500000
vt 0.500000 0.500000
vt 0.500000 0.500000
vt 0.500000 0.500000
vt 0.500000 0.500000
vt 0.500000 0.500000
vt 0.500000 0.500000
vt 0.500000 0.500000
vt 0.500000 0.500000
vt 0.500000 0.500000
vt 0.500000 0.500000
vt 0.500000 0.500000
vt 0.500000 0.500000
vt 0.500000 0.500000
vt 0.500000 0.500000
vt 0.500000 0.500000
vt 0.500000 0.500000
vt 0.500000 0.500000
vt 0.500000 0.500000
vt 0.500000 0.500000
vt 0.500000 0.500000
vt 0.500000 0.500000
vt 0.500000 0.500000
vt 0.500000 0.500000
vt 0.500000 0.500000
vt 0.500000 0.500000
vt 0.500000 0.500000
vt 0.500000 0.500000
vt 0.500000 0.500000
vt 0.500000 0.500000
vt 0.500000 0.500000
vt 0.500000 0.500000
vt 0.500000 0.500000
vt 0.500000 0.500000
vt 0.500000 0.500000
vt 0.500000 0.500000
vt 0.500000 0.500000
vt 0.500000 0.500000
vt 0.500000 0.500000
vt 0.500000 0.500000
vt 0.500000 0.500000
vt 0.500000 0.500000
vt 0.500000 0.500000
vt 0.500000 0.500000
vt 0.500000 0.500000
vt 0.500000 0.500000
vt 0.500000 0.500000
vt 0.500000 0.500000
vt 0.500000 0.500000
vt 0.500000 0.500000
vt 0.500000 0.500000
vt 0.500000 0.500000
vt 0.500000 0.500000
vt 0.500000 0.500000
vt 0.500000 0.500000
vt 0.500000 0.500000
vt 0.500000 0.500000
vt 0.500000 0.500000
vt 0.500000 0.500000
vt 0.500000 0.500000
vt 0.500000 0.500000
vt 0.500000 0.500000
vt 0.500000 0.500000
vt 0.500000 0.500000
vt 0.500000 0.500000
vt 0.500000 0.500000
vt 0.500000 0.500000
vt 0.500000 0.500000
vt 0.500000 0.500000
vt 0.500000 0.500000
vt 0.500000 0.500000
vt 0.500000 0.500000
vt 0.500000 0.500000
vt 0.500000 0.500000
vt 0.500000 0.500000
vt 0.500000 0.500000
vt 0.500000 0.500000
vt 0.500000 0.500000
vt 0.500000 0.500000
vt 0.500000 0.500000
vt 0.500000 0.500000
vt 0.500000 0.500000
vt 0.500000 0.500000
vt 0.500000 0.500000
vt 0.500000 0.500000
vt 0.500000 0.500000
vt 0.500000 0.500000
vt 0.500000 0.500000
vt 0.500000 0.500000
vt 0.500000 0.500000
vt 0.500000 0.500000
vt 0.500000 0.500000
vt 0.500000 0.500000
vt 0.500000 0.500000
vt 0.500000 0.500000
vt 0.500000 0.500000
vt 0.500000 0.500000
vt 0.500000 0.500000
vt 0.500000 0.500000
vt 0.500000 0.500000
vt 0.500000 0.500000
vt 0.500000 0.500000
vt 0.500000 0.500000
vt 0.500000 0.500000
vt 0.145423 0.390239
vt 0.143623 0.389963
vt 0.146339 0.385118
vt 0.147389 0.381816
vt 0.141377 0.370563
vt 0.145793 0.362959
vt 0.152848 0.389693
vt 0.149796 0.383088
vt 0.153461 0.378897
vt 0.146970 0.362538
vt 0.152746 0.374032
vt 0.150002 0.357382
vt 0.149483 0.360169
vt 0.146245 0.358323
vt 0.139607 0.377768
vt 0.139179 0.372145
vt 0.140330 0.372984
vt 0.149738 0.385157
vt 0.146876 0.360797
vt 0.156852 0.383356
vt 0.153298 0.372057
vt 0.150821 0.362914
vt 0.152848 0.362490
vt 0.141151 0.372867
vt 0.140561 0.377710
vt 0.149516 0.362283
vt 0.148823 0.381905
vt 0.155691 0.373016
vt 0.154411 0.372122
vt 0.156971 0.370637
vt 0.140949 0.383199
vt 0.146366 0.382913
vt 0.157039 0.380071
vt 0.154600 0.378875
vt 0.156250 0.388889
vt 0.150800 0.389845
vt 0.149299 0.387453
vt 0.140961 0.379830
vt 0.147238 0.354429
vt 0.152810 0.376895
vt 0.138430 0.378757
vt 0.137115 0.376952
vt 0.137479 0.378885
vt 0.156816 0.367077
vt 0.143878 0.362472
vt 0.148883 0.354055
vt 0.146715 0.387660
vt 0.150033 0.355044
vt 0.140625 0.388889
vt 0.140625 0.361111
vt 0.146613 0.389594
vt 0.137341 0.374116
vt 0.138074 0.372126
vt 0.156659 0.372938
vt 0.156250 0.361111
vt 0.156770 0.377983
vt 0.155851 0.377990
vt 0.146130 0.355956
vt 0.149435 0.389201
vn 0.0000 -1.0000 0.0000
vn -0.9963 0.0000 0.0860
vn -0.9566 0.0000 -0.2915
vn -0.9666 0.0000 0.2564
vn -0.9991 0.0000 -0.0416
vn -0.0931 0.0000 -0.9957
vn -0.1368 0.0000 0.9906
vn -0.9803 0.0000 0.1975
vn -0.9913 0.0000 -0.1319
vn 0.2547 0.0000 -0.9670
vn 0.3219 0.0000 0.9468
vn -0.1899 0.0000 -0.9818
vn 0.1007 0.0000 0.9949
vn 0.0499 0.0000 0.9988
vn -0.0225 0.0000 -0.9997
vn -0.1006 0.0000 -0.9949
vn 0.0066 0.0000 1.0000
vn -0.8255 0.0000 0.5644
vn -0.8561 0.0000 -0.5169
vn -0.9994 0.0000 0.0350
vn 0.2234 0.0000 -0.9747
vn -0.3183 0.0000 0.9480
vn 0.9999 0.0000 0.0108
vn 0.5003 0.0000 -0.8659
vn -0.3177 0.0000 0.9482
vn -0.9971 0.0000 -0.0758
vn 0.9291 0.0000 0.3697
vn 1.0000 0.0000 0.0039
vn -0.9041 0.0000 -0.4273
vn -0.9994 0.0000 -0.0342
vn 0.1405 0.0000 0.9901
vn 0.0397 0.0000 -0.9992
vn 0.5476 0.0000 0.8367
vn -0.4449 0.0000 -0.8956
vn -0.9307 0.0000 0.3659
vn -0.9990 0.0000 -0.0456
vn 1.0000 0.0000 -0.0095
vn 0.9253 0.0000 -0.3792
vn 0.9968 0.0000 0.0800
vn -0.2344 0.0000 -0.9721
vn 0.1724 0.0000 0.9850
vn -0.9995 0.0000 0.0329
vn 0.0774 0.0000 -0.9970
vn -0.1401 0.0000 0.9901
vn 0.9899 0.0000 -0.1416
vn 0.9804 0.0000 0.1968
vn 0.9651 0.0000 -0.2621
vn 0.9932 0.0000 0.1166
vn -0.0960 0.0000 0.9954
vn 0.0272 0.0000 -0.9996
vn 0.9750 0.0000 0.2223
vn 0.1663 0.0000 -0.9861
vn 0.9734 0.0000 -0.2290
vn -0.4132 0.0000 0.9106
vn -0.3143 0.0000 -0.9493
vn -0.0858 0.0000 0.9963
vn -0.0237 0.0000 -0.9997
vn 0.7903 0.0000 0.6128
vn 0.9919 0.0000 0.1266
vn 0.9003 0.0000 -0.4352
vn 0.0000 1.0000 0.0000
usemtl BackMat.001
s off
f 195/1/1 208/2/1 194/3/1
f 217/4/1 250/5/1 246/6/1
f 201/7/1 223/8/1 212/9/1
f 252/10/1 250/5/1 233/11/1
f 263/12/1 262/13/1 259/14/1
f 231/15/1 242/16/1 241/17/1
f 201/7/1 212/9/1 209/18/1
f 258/19/1 259/14/1 262/13/1
f 210/20/1 223/8/1 201/7/1
f 235/21/1 254/22/1 233/11/1
f 254/22/1 235/21/1 257/23/1
f 243/24/1 242/16/1 220/25/1
f 259/14/1 258/19/1 255/26/1
f 216/27/1 233/11/1 217/4/1
f 238/28/1 245/29/1 237/30/1
f 208/2/1 213/31/1 211/32/1
f 252/10/1 255/26/1 258/19/1
f 214/33/1 222/34/1 210/20/1
f 206/35/1 210/20/1 201/7/1
f 217/4/1 243/24/1 213/31/1
f 200/36/1 209/18/1 203/37/1
f 217/4/1 246/6/1 243/24/1
f 243/24/1 220/25/1 215/38/1
f 267/39/1 262/13/1 263/12/1
f 223/8/1 225/40/1 212/9/1
f 233/11/1 254/22/1 255/26/1
f 201/7/1 209/18/1 200/36/1
f 225/40/1 233/11/1 216/27/1
f 231/15/1 226/41/1 229/42/1
f 229/42/1 226/41/1 227/43/1
f 245/29/1 247/44/1 237/30/1
f 246/6/1 250/5/1 251/45/1
f 233/11/1 255/26/1 252/10/1
f 267/39/1 263/12/1 268/46/1
f 208/2/1 195/1/1 202/47/1
f 265/48/1 268/46/1 263/12/1
f 194/3/1 211/32/1 204/49/1
f 246/6/1 251/45/1 248/50/1
f 220/25/1 242/16/1 231/15/1
f 223/8/1 210/20/1 222/34/1
f 202/47/1 195/1/1 196/51/1
f 237/30/1 257/23/1 235/21/1
f 232/52/1 241/17/1 234/53/1
f 232/52/1 231/15/1 241/17/1
f 239/54/1 245/29/1 238/28/1
f 194/3/1 208/2/1 211/32/1
f 247/44/1 257/23/1 237/30/1
f 213/31/1 243/24/1 215/38/1
f 212/9/1 225/40/1 216/27/1
f 260/55/1 257/23/1 247/44/1
f 218/56/1 230/57/1 214/33/1
f 226/41/1 231/15/1 232/52/1
f 262/13/1 267/39/1 264/58/1
f 222/34/1 214/33/1 230/57/1
f 200/36/1 203/37/1 198/59/1
f 213/31/1 215/38/1 211/32/1
f 233/11/1 250/5/1 217/4/1
f 1/60/2 2/61/2 61/62/2 60/63/2
f 2/61/3 122/64/3 197/65/3 61/62/3
f 124/66/4 13/67/4 72/68/4 199/69/4
f 13/67/5 14/70/5 73/71/5 72/68/5
f 3/72/6 4/73/6 63/74/6 62/75/6
f 11/76/7 12/77/7 71/78/7 70/79/7
f 130/80/8 1/60/8 60/63/8 205/81/8
f 14/70/9 132/82/9 207/83/9 73/71/9
f 4/73/10 5/84/10 64/85/10 63/74/10
f 10/86/11 11/76/11 70/79/11 69/87/11
f 15/88/12 16/89/12 75/90/12 74/91/12
f 58/92/13 59/93/13 118/94/13 117/95/13
f 9/96/14 10/86/14 69/87/14 68/97/14
f 5/84/15 6/98/15 65/99/15 64/85/15
f 16/89/16 17/100/16 76/101/16 75/90/16
f 57/102/17 58/92/17 117/95/17 116/103/17
f 8/104/18 9/96/18 68/97/18 67/105/18
f 6/98/19 7/106/19 66/107/19 65/99/19
f 7/106/20 8/104/20 67/105/20 66/107/20
f 17/100/21 144/108/21 219/109/21 76/101/21
f 146/110/22 57/102/22 116/103/22 221/111/22
f 20/112/23 149/113/23 224/114/23 79/115/23
f 21/116/24 22/117/24 81/118/24 80/119/24
f 52/120/25 153/121/25 228/122/25 111/123/25
f 53/124/26 54/125/26 113/126/26 112/127/26
f 19/128/27 20/112/27 79/115/27 78/129/27
f 18/130/28 19/128/28 78/129/28 77/131/28
f 54/125/29 55/132/29 114/133/29 113/126/29
f 55/132/30 56/134/30 115/135/30 114/133/30
f 51/136/31 52/120/31 111/123/31 110/137/31
f 22/117/32 23/138/32 82/139/32 81/118/32
f 50/140/33 51/136/33 110/137/33 109/141/33
f 23/138/34 161/142/34 236/143/34 82/139/34
f 25/144/35 26/145/35 85/146/35 84/147/35
f 26/145/36 165/148/36 240/149/36 85/146/36
f 49/150/37 50/140/37 109/141/37 108/151/37
f 48/152/38 49/150/38 108/151/38 107/153/38
f 169/154/39 48/152/39 107/153/39 244/155/39
f 27/156/40 28/157/40 87/158/40 86/159/40
f 46/160/41 47/161/41 106/162/41 105/163/41
f 24/164/42 25/144/42 84/147/42 83/165/42
f 28/157/43 29/166/43 88/167/43 87/158/43
f 174/168/44 46/160/44 105/163/44 249/169/44
f 43/170/45 44/171/45 103/172/45 102/173/45
f 178/174/46 43/170/46 102/173/46 253/175/46
f 32/176/47 181/177/47 256/178/47 91/179/47
f 31/180/48 32/176/48 91/179/48 90/181/48
f 41/182/49 42/183/49 101/184/49 100/185/49
f 33/186/50 34/187/50 93/188/50 92/189/50
f 186/190/51 31/180/51 90/181/51 261/191/51
f 29/166/52 30/192/52 89/193/52 88/167/52
f 44/171/53 45/194/53 104/195/53 103/172/53
f 40/196/54 41/182/54 100/185/54 99/197/54
f 34/187/55 35/198/55 94/199/55 93/188/55
f 39/200/56 40/196/56 99/197/56 98/201/56
f 35/198/57 191/202/57 266/203/57 94/199/57
f 38/204/58 39/200/58 98/201/58 97/205/58
f 37/206/59 38/204/59 97/205/59 96/207/59
f 36/208/60 37/206/60 96/207/60 95/209/60
usemtl FrontMat.001
f 120/210/61 119/211/61 133/212/61
f 142/213/61 171/214/61 175/215/61
f 126/216/61 137/217/61 148/218/61
f 177/219/61 158/220/61 175/215/61
f 188/221/61 184/222/61 187/223/61
f 156/224/61 166/225/61 167/226/61
f 126/216/61 134/227/61 137/217/61
f 183/228/61 187/223/61 184/222/61
f 135/229/61 126/216/61 148/218/61
f 160/230/61 158/220/61 179/231/61
f 179/231/61 182/232/61 160/230/61
f 168/233/61 145/234/61 167/226/61
f 184/222/61 180/235/61 183/228/61
f 141/236/61 142/213/61 158/220/61
f 163/237/61 162/238/61 170/239/61
f 133/212/61 136/240/61 138/241/61
f 177/219/61 183/228/61 180/235/61
f 139/242/61 135/229/61 147/243/61
f 131/244/61 126/216/61 135/229/61
f 142/213/61 138/241/61 168/233/61
f 125/245/61 128/246/61 134/227/61
f 142/213/61 168/233/61 171/214/61
f 168/233/61 140/247/61 145/234/61
f 192/248/61 188/221/61 187/223/61
f 148/218/61 137/217/61 150/249/61
f 158/220/61 180/235/61 179/231/61
f 126/216/61 125/245/61 134/227/61
f 150/249/61 141/236/61 158/220/61
f 156/224/61 154/250/61 151/251/61
f 154/250/61 152/252/61 151/251/61
f 170/239/61 162/238/61 172/253/61
f 171/214/61 176/254/61 175/215/61
f 158/220/61 177/219/61 180/235/61
f 192/248/61 193/255/61 188/221/61
f 133/212/61 127/256/61 120/210/61
f 190/257/61 188/221/61 193/255/61
f 119/211/61 129/258/61 136/240/61
f 171/214/61 173/259/61 176/254/61
f 145/234/61 156/224/61 167/226/61
f 148/218/61 147/243/61 135/229/61
f 127/256/61 121/260/61 120/210/61
f 162/238/61 160/230/61 182/232/61
f 157/261/61 159/262/61 166/225/61
f 157/261/61 166/225/61 156/224/61
f 164/263/61 163/237/61 170/239/61
f 119/211/61 136/240/61 133/212/61
f 172/253/61 162/238/61 182/232/61
f 138/241/61 140/247/61 168/233/61
f 137/217/61 141/236/61 150/249/61
f 185/264/61 172/253/61 182/232/61
f 143/265/61 139/242/61 155/266/61
f 151/251/61 157/261/61 156/224/61
f 187/223/61 189/267/61 192/248/61
f 147/243/61 155/266/61 139/242/61
f 125/245/61 123/268/61 128/246/61
f 138/241/61 136/240/61 140/247/61
f 158/220/61 142/213/61 175/215/61
