# Blender v2.83.1 OBJ File: 'jigsaw-32x18-3-step2.blend'
# www.blender.org
mtllib piece.135.mtl
o path1430
v 0.534117 0.037500 -0.317416
v 0.539750 0.037500 -0.202366
v 0.513482 0.037500 -0.129034
v 0.443199 0.037500 -0.128815
v 0.352179 0.037500 -0.159904
v 0.272549 0.037500 -0.162193
v 0.230970 0.037500 -0.095447
v 0.232254 0.037500 0.001092
v 0.275744 0.037500 0.068310
v 0.355680 0.037500 0.067344
v 0.445868 0.037500 0.040330
v 0.515006 0.037500 0.049655
v 0.540483 0.037500 0.138185
v 0.534431 0.037500 0.270712
v 0.502503 0.037500 0.490696
v 0.132622 0.037500 0.527716
v 0.041344 0.037500 0.505530
v 0.035075 0.037500 0.443587
v 0.069412 0.037500 0.363295
v 0.079451 0.037500 0.294177
v 0.020909 0.037500 0.260645
v -0.068009 0.037500 0.266672
v -0.128474 0.037500 0.311113
v -0.121657 0.037500 0.387989
v -0.088717 0.037500 0.471951
v -0.090816 0.037500 0.532813
v -0.170158 0.037500 0.549132
v -0.293153 0.037500 0.534447
v -0.499406 0.037500 0.490696
v -0.529673 0.037500 0.128480
v -0.506689 0.037500 0.041077
v -0.446587 0.037500 0.038721
v -0.370589 0.037500 0.075951
v -0.307709 0.037500 0.086664
v -0.281143 0.037500 0.025598
v -0.290810 0.037500 -0.069148
v -0.330812 0.037500 -0.138633
v -0.392815 0.037500 -0.143239
v -0.458741 0.037500 -0.120623
v -0.508080 0.037500 -0.127763
v -0.526196 0.037500 -0.204154
v -0.499406 0.037500 -0.511001
v -0.307668 0.037500 -0.550472
v -0.193755 0.037500 -0.562749
v -0.121239 0.037500 -0.545195
v -0.121028 0.037500 -0.484987
v -0.150623 0.037500 -0.402222
v -0.149173 0.037500 -0.325227
v -0.076397 0.037500 -0.277998
v 0.025687 0.037500 -0.267206
v 0.094491 0.037500 -0.295190
v 0.088980 0.037500 -0.359260
v 0.054343 0.037500 -0.436611
v 0.057322 0.037500 -0.499412
v 0.144024 0.037500 -0.527143
v 0.278013 0.037500 -0.528543
v 0.502503 0.037500 -0.511001
v 0.534117 -0.037500 -0.317416
v 0.539750 -0.037500 -0.202366
v 0.513482 -0.037500 -0.129034
v 0.443199 -0.037500 -0.128815
v 0.352179 -0.037500 -0.159904
v 0.272549 -0.037500 -0.162193
v 0.230970 -0.037500 -0.095447
v 0.232254 -0.037500 0.001092
v 0.275744 -0.037500 0.068310
v 0.355680 -0.037500 0.067344
v 0.445868 -0.037500 0.040330
v 0.515006 -0.037500 0.049655
v 0.540483 -0.037500 0.138185
v 0.534431 -0.037500 0.270712
v 0.502503 -0.037500 0.490696
v 0.132622 -0.037500 0.527716
v 0.041344 -0.037500 0.505530
v 0.035075 -0.037500 0.443587
v 0.069412 -0.037500 0.363295
v 0.079451 -0.037500 0.294177
v 0.020909 -0.037500 0.260645
v -0.068009 -0.037500 0.266672
v -0.128474 -0.037500 0.311113
v -0.121657 -0.037500 0.387989
v -0.088717 -0.037500 0.471951
v -0.090816 -0.037500 0.532813
v -0.170158 -0.037500 0.549132
v -0.293153 -0.037500 0.534447
v -0.499406 -0.037500 0.490696
v -0.529673 -0.037500 0.128480
v -0.506689 -0.037500 0.041077
v -0.446587 -0.037500 0.038721
v -0.370589 -0.037498 0.075951
v -0.307709 -0.037498 0.086664
v -0.281143 -0.037498 0.025598
v -0.290810 -0.037500 -0.069148
v -0.330812 -0.037500 -0.138633
v -0.392815 -0.037500 -0.143239
v -0.458741 -0.037500 -0.120623
v -0.508080 -0.037500 -0.127763
v -0.526196 -0.037500 -0.204154
v -0.499406 -0.037500 -0.511001
v -0.307668 -0.037498 -0.550472
v -0.193755 -0.037500 -0.562749
v -0.121239 -0.037500 -0.545195
v -0.121028 -0.037500 -0.484987
v -0.150623 -0.037500 -0.402222
v -0.149173 -0.037500 -0.325227
v -0.076397 -0.037500 -0.277998
v 0.025687 -0.037498 -0.267206
v 0.094491 -0.037500 -0.295190
v 0.088980 -0.037500 -0.359260
v 0.054343 -0.037500 -0.436611
v 0.057322 -0.037500 -0.499412
v 0.144024 -0.037500 -0.527143
v 0.278013 -0.037500 -0.528543
v 0.502503 -0.037500 -0.511001
v -0.307668 0.037500 -0.550472
v -0.193755 0.037500 -0.562749
v -0.121239 0.037500 -0.545195
v -0.121239 0.037500 -0.545195
v -0.121028 0.037500 -0.484987
v -0.499406 0.037500 -0.511001
v -0.499406 0.037500 -0.511001
v 0.144024 0.037500 -0.527143
v 0.278013 0.037500 -0.528543
v 0.057322 0.037500 -0.499412
v 0.057322 0.037500 -0.499412
v 0.502503 0.037500 -0.511001
v 0.502503 0.037500 -0.511001
v 0.054343 0.037500 -0.436611
v -0.150623 0.037500 -0.402222
v 0.088980 0.037500 -0.359260
v 0.534117 0.037500 -0.317416
v -0.149173 0.037500 -0.325227
v 0.094491 0.037500 -0.295190
v 0.094491 0.037500 -0.295190
v -0.076397 0.037500 -0.277998
v -0.526196 0.037500 -0.204154
v 0.539750 0.037500 -0.202366
v 0.025687 0.037500 -0.267206
v -0.508080 0.037500 -0.127763
v -0.508080 0.037500 -0.127763
v 0.352179 0.037500 -0.159904
v 0.272549 0.037500 -0.162193
v 0.513482 0.037500 -0.129034
v 0.513482 0.037500 -0.129034
v -0.330812 0.037500 -0.138633
v -0.392815 0.037500 -0.143239
v 0.230970 0.037500 -0.095447
v 0.443199 0.037500 -0.128815
v -0.458741 0.037500 -0.120623
v -0.290810 0.037500 -0.069148
v 0.232254 0.037500 0.001092
v -0.281143 0.037500 0.025598
v 0.275744 0.037500 0.068310
v -0.307709 0.037500 0.086664
v -0.307709 0.037500 0.086664
v -0.506689 0.037500 0.041077
v -0.506689 0.037500 0.041077
v -0.446587 0.037500 0.038721
v -0.370589 0.037500 0.075951
v 0.355680 0.037500 0.067344
v 0.445868 0.037500 0.040330
v 0.515006 0.037500 0.049655
v 0.515006 0.037500 0.049655
v -0.529673 0.037500 0.128480
v 0.540483 0.037500 0.138185
v 0.534431 0.037500 0.270712
v 0.020909 0.037500 0.260645
v -0.068009 0.037500 0.266672
v 0.079451 0.037500 0.294177
v 0.079451 0.037500 0.294177
v -0.128474 0.037500 0.311113
v 0.069412 0.037500 0.363295
v -0.121657 0.037500 0.387989
v 0.035075 0.037500 0.443587
v -0.088717 0.037500 0.471951
v -0.499406 0.037500 0.490696
v -0.499406 0.037500 0.490696
v 0.041344 0.037500 0.505530
v 0.041344 0.037500 0.505530
v 0.502503 0.037500 0.490696
v 0.502503 0.037500 0.490696
v -0.090816 0.037500 0.532813
v -0.090816 0.037500 0.532813
v 0.132622 0.037500 0.527716
v -0.293153 0.037500 0.534447
v -0.170158 0.037500 0.549132
v -0.307668 -0.037498 -0.550472
v -0.193755 -0.037500 -0.562749
v -0.121239 -0.037500 -0.545195
v -0.121239 -0.037500 -0.545195
v -0.121028 -0.037500 -0.484987
v -0.499406 -0.037500 -0.511001
v -0.499406 -0.037500 -0.511001
v 0.144024 -0.037500 -0.527143
v 0.278013 -0.037500 -0.528543
v 0.057322 -0.037500 -0.499412
v 0.057322 -0.037500 -0.499412
v 0.502503 -0.037500 -0.511001
v 0.502503 -0.037500 -0.511001
v 0.054343 -0.037500 -0.436611
v -0.150623 -0.037500 -0.402222
v 0.088980 -0.037500 -0.359260
v 0.534117 -0.037500 -0.317416
v -0.149173 -0.037500 -0.325227
v 0.094491 -0.037500 -0.295190
v 0.094491 -0.037500 -0.295190
v -0.076397 -0.037500 -0.277998
v -0.526196 -0.037500 -0.204154
v 0.539750 -0.037500 -0.202366
v 0.025687 -0.037498 -0.267206
v -0.508080 -0.037500 -0.127763
v -0.508080 -0.037500 -0.127763
v 0.352179 -0.037500 -0.159904
v 0.272549 -0.037500 -0.162193
v 0.513482 -0.037500 -0.129034
v 0.513482 -0.037500 -0.129034
v -0.330812 -0.037500 -0.138633
v -0.392815 -0.037500 -0.143239
v 0.230970 -0.037500 -0.095447
v 0.443199 -0.037500 -0.128815
v -0.458741 -0.037500 -0.120623
v -0.290810 -0.037500 -0.069148
v 0.232254 -0.037500 0.001092
v -0.281143 -0.037498 0.025598
v 0.275744 -0.037500 0.068310
v -0.307709 -0.037498 0.086664
v -0.307709 -0.037498 0.086664
v -0.506689 -0.037500 0.041077
v -0.506689 -0.037500 0.041077
v -0.446587 -0.037500 0.038721
v -0.370589 -0.037498 0.075951
v 0.355680 -0.037500 0.067344
v 0.445868 -0.037500 0.040330
v 0.515006 -0.037500 0.049655
v 0.515006 -0.037500 0.049655
v -0.529673 -0.037500 0.128480
v 0.540483 -0.037500 0.138185
v 0.534431 -0.037500 0.270712
v 0.020909 -0.037500 0.260645
v -0.068009 -0.037500 0.266672
v 0.079451 -0.037500 0.294177
v 0.079451 -0.037500 0.294177
v -0.128474 -0.037500 0.311113
v 0.069412 -0.037500 0.363295
v -0.121657 -0.037500 0.387989
v 0.035075 -0.037500 0.443587
v -0.088717 -0.037500 0.471951
v -0.499406 -0.037500 0.490696
v -0.499406 -0.037500 0.490696
v 0.041344 -0.037500 0.505530
v 0.041344 -0.037500 0.505530
v 0.502503 -0.037500 0.490696
v 0.502503 -0.037500 0.490696
v -0.090816 -0.037500 0.532813
v -0.090816 -0.037500 0.532813
v 0.132622 -0.037500 0.527716
v -0.293153 -0.037500 0.534447
v -0.170158 -0.037500 0.549132
vt 0.500000 0.500000
vt 0.500000 0.500000
vt 0.500000 0.500000
vt 0.500000 0.500000
vt 0.500000 0.500000
vt 0.500000 0.500000
vt 0.500000 0.500000
vt 0.500000 0.500000
vt 0.500000 0.500000
vt 0.500000 0.500000
vt 0.500000 0.500000
vt 0.500000 0.500000
vt 0.500000 0.500000
vt 0.500000 0.500000
vt 0.500000 0.500000
vt 0.500000 0.500000
vt 0.500000 0.500000
vt 0.500000 0.500000
vt 0.500000 0.500000
vt 0.500000 0.500000
vt 0.500000 0.500000
vt 0.500000 0.500000
vt 0.500000 0.500000
vt 0.500000 0.500000
vt 0.500000 0.500000
vt 0.500000 0.500000
vt 0.500000 0.500000
vt 0.500000 0.500000
vt 0.500000 0.500000
vt 0.500000 0.500000
vt 0.500000 0.500000
vt 0.500000 0.500000
vt 0.500000 0.500000
vt 0.500000 0.500000
vt 0.500000 0.500000
vt 0.500000 0.500000
vt 0.500000 0.500000
vt 0.500000 0.500000
vt 0.500000 0.500000
vt 0.500000 0.500000
vt 0.500000 0.500000
vt 0.500000 0.500000
vt 0.500000 0.500000
vt 0.500000 0.500000
vt 0.500000 0.500000
vt 0.500000 0.500000
vt 0.500000 0.500000
vt 0.500000 0.500000
vt 0.500000 0.500000
vt 0.500000 0.500000
vt 0.500000 0.500000
vt 0.500000 0.500000
vt 0.500000 0.500000
vt 0.500000 0.500000
vt 0.500000 0.500000
vt 0.500000 0.500000
vt 0.500000 0.500000
vt 0.500000 0.500000
vt 0.500000 0.500000
vt 0.500000 0.500000
vt 0.500000 0.500000
vt 0.500000 0.500000
vt 0.500000 0.500000
vt 0.500000 0.500000
vt 0.500000 0.500000
vt 0.500000 0.500000
vt 0.500000 0.500000
vt 0.500000 0.500000
vt 0.500000 0.500000
vt 0.500000 0.500000
vt 0.500000 0.500000
vt 0.500000 0.500000
vt 0.500000 0.500000
vt 0.500000 0.500000
vt 0.500000 0.500000
vt 0.500000 0.500000
vt 0.500000 0.500000
vt 0.500000 0.500000
vt 0.500000 0.500000
vt 0.500000 0.500000
vt 0.500000 0.500000
vt 0.500000 0.500000
vt 0.500000 0.500000
vt 0.500000 0.500000
vt 0.500000 0.500000
vt 0.500000 0.500000
vt 0.500000 0.500000
vt 0.500000 0.500000
vt 0.500000 0.500000
vt 0.500000 0.500000
vt 0.500000 0.500000
vt 0.500000 0.500000
vt 0.500000 0.500000
vt 0.500000 0.500000
vt 0.500000 0.500000
vt 0.500000 0.500000
vt 0.500000 0.500000
vt 0.500000 0.500000
vt 0.500000 0.500000
vt 0.500000 0.500000
vt 0.500000 0.500000
vt 0.500000 0.500000
vt 0.500000 0.500000
vt 0.500000 0.500000
vt 0.500000 0.500000
vt 0.500000 0.500000
vt 0.500000 0.500000
vt 0.500000 0.500000
vt 0.500000 0.500000
vt 0.500000 0.500000
vt 0.500000 0.500000
vt 0.500000 0.500000
vt 0.500000 0.500000
vt 0.500000 0.500000
vt 0.500000 0.500000
vt 0.500000 0.500000
vt 0.500000 0.500000
vt 0.500000 0.500000
vt 0.500000 0.500000
vt 0.500000 0.500000
vt 0.500000 0.500000
vt 0.500000 0.500000
vt 0.500000 0.500000
vt 0.500000 0.500000
vt 0.500000 0.500000
vt 0.500000 0.500000
vt 0.500000 0.500000
vt 0.500000 0.500000
vt 0.500000 0.500000
vt 0.500000 0.500000
vt 0.500000 0.500000
vt 0.500000 0.500000
vt 0.500000 0.500000
vt 0.500000 0.500000
vt 0.500000 0.500000
vt 0.500000 0.500000
vt 0.500000 0.500000
vt 0.500000 0.500000
vt 0.500000 0.500000
vt 0.500000 0.500000
vt 0.500000 0.500000
vt 0.500000 0.500000
vt 0.500000 0.500000
vt 0.500000 0.500000
vt 0.500000 0.500000
vt 0.500000 0.500000
vt 0.500000 0.500000
vt 0.500000 0.500000
vt 0.500000 0.500000
vt 0.500000 0.500000
vt 0.500000 0.500000
vt 0.500000 0.500000
vt 0.500000 0.500000
vt 0.500000 0.500000
vt 0.500000 0.500000
vt 0.500000 0.500000
vt 0.500000 0.500000
vt 0.500000 0.500000
vt 0.500000 0.500000
vt 0.500000 0.500000
vt 0.500000 0.500000
vt 0.500000 0.500000
vt 0.500000 0.500000
vt 0.500000 0.500000
vt 0.500000 0.500000
vt 0.500000 0.500000
vt 0.500000 0.500000
vt 0.500000 0.500000
vt 0.500000 0.500000
vt 0.500000 0.500000
vt 0.500000 0.500000
vt 0.500000 0.500000
vt 0.500000 0.500000
vt 0.500000 0.500000
vt 0.500000 0.500000
vt 0.500000 0.500000
vt 0.500000 0.500000
vt 0.500000 0.500000
vt 0.500000 0.500000
vt 0.500000 0.500000
vt 0.500000 0.500000
vt 0.500000 0.500000
vt 0.500000 0.500000
vt 0.500000 0.500000
vt 0.500000 0.500000
vt 0.500000 0.500000
vt 0.500000 0.500000
vt 0.500000 0.500000
vt 0.500000 0.500000
vt 0.500000 0.500000
vt 0.500000 0.500000
vt 0.500000 0.500000
vt 0.500000 0.500000
vt 0.500000 0.500000
vt 0.500000 0.500000
vt 0.500000 0.500000
vt 0.500000 0.500000
vt 0.500000 0.500000
vt 0.500000 0.500000
vt 0.500000 0.500000
vt 0.500000 0.500000
vt 0.193480 0.779967
vt 0.190825 0.757381
vt 0.198424 0.767475
vt 0.193479 0.744630
vt 0.191518 0.745225
vt 0.187500 0.722222
vt 0.219736 0.767041
vt 0.218750 0.777778
vt 0.211748 0.778751
vt 0.194006 0.753272
vt 0.194308 0.748017
vt 0.200694 0.764855
vt 0.210321 0.749376
vt 0.203878 0.764257
vt 0.197769 0.718981
vt 0.200244 0.719886
vt 0.200310 0.723262
vt 0.192759 0.757126
vt 0.200955 0.734647
vt 0.205852 0.769362
vt 0.211578 0.758432
vt 0.219746 0.734423
vt 0.214171 0.745702
vt 0.211677 0.745648
vt 0.203729 0.734981
vt 0.205555 0.733122
vt 0.186664 0.760760
vt 0.187500 0.777778
vt 0.198379 0.771745
vt 0.216900 0.756581
vt 0.219092 0.756593
vt 0.219912 0.760661
vt 0.199069 0.732182
vt 0.214061 0.758305
vt 0.188768 0.756127
vt 0.199295 0.779674
vt 0.197033 0.780648
vt 0.199302 0.776335
vt 0.210281 0.754731
vt 0.206024 0.765809
vt 0.189147 0.747289
vt 0.186556 0.742311
vt 0.207213 0.720169
vt 0.218750 0.722222
vt 0.205242 0.729288
vt 0.204171 0.724835
vt 0.193933 0.719796
vt 0.204772 0.773652
vt 0.207569 0.778673
vt 0.219935 0.741773
vt 0.219140 0.746683
vt 0.216983 0.747200
vt 0.204865 0.777135
vt 0.187229 0.756523
vt 0.199282 0.727919
vt 0.204366 0.721400
vt 0.187273 0.747159
vn -0.0000 -1.0000 -0.0000
vn -0.1072 0.0000 -0.9942
vn 0.2353 0.0000 -0.9719
vn 1.0000 0.0000 -0.0035
vn -0.2016 0.0000 -0.9795
vn -0.0105 0.0000 -0.9999
vn -0.3046 0.0000 -0.9525
vn 0.0779 0.0000 -0.9970
vn -0.9989 0.0000 -0.0474
vn 0.9416 0.0000 0.3367
vn -0.9127 0.0000 0.4087
vn 0.9869 0.0000 -0.1612
vn 0.9998 0.0000 -0.0188
vn -0.9963 0.0000 0.0857
vn 0.5444 0.0000 -0.8388
vn -0.9962 0.0000 -0.0870
vn 0.9988 0.0000 -0.0489
vn -0.3767 0.0000 -0.9263
vn 0.1051 0.0000 -0.9945
vn -0.9730 0.0000 0.2308
vn -0.0287 0.0000 0.9996
vn 0.9414 0.0000 0.3372
vn -0.0741 0.0000 0.9973
vn 0.8488 0.0000 0.5287
vn -0.3232 0.0000 0.9463
vn 0.0031 0.0000 1.0000
vn -0.1432 0.0000 0.9897
vn 0.3245 0.0000 0.9459
vn -0.8666 0.0000 0.4989
vn 0.9999 0.0000 -0.0133
vn -0.9948 0.0000 0.1015
vn 0.8396 0.0000 -0.5432
vn -0.9170 0.0000 -0.3989
vn -0.0392 0.0000 -0.9992
vn 0.4399 0.0000 -0.8980
vn -0.2869 0.0000 -0.9580
vn 0.1337 0.0000 -0.9910
vn -0.9671 0.0000 -0.2543
vn 0.9610 0.0000 -0.2766
vn -0.0121 0.0000 -0.9999
vn 0.1680 0.0000 -0.9858
vn 0.9990 0.0000 0.0456
vn 0.0676 0.0000 0.9977
vn -0.4970 0.0000 0.8677
vn 0.5922 0.0000 0.8058
vn -0.9896 0.0000 -0.1437
vn 0.9961 0.0000 -0.0883
vn -0.9194 0.0000 -0.3932
vn 0.9309 0.0000 -0.3652
vn -0.9965 0.0000 0.0833
vn -0.9949 0.0000 0.1007
vn 0.9896 0.0000 0.1436
vn 0.9994 0.0000 0.0345
vn -0.2362 0.0000 0.9717
vn 0.0996 0.0000 0.9950
vn -0.2075 0.0000 0.9782
vn -0.1186 0.0000 0.9929
vn 0.2015 0.0000 0.9795
vn 0.0000 1.0000 0.0000
usemtl BackMat.001
s off
f 187/1/1 204/2/1 218/3/1
f 226/4/1 248/5/1 231/6/1
f 203/7/1 195/8/1 198/9/1
f 222/10/1 207/11/1 224/12/1
f 224/12/1 210/13/1 223/14/1
f 258/15/1 247/16/1 254/17/1
f 217/18/1 207/11/1 222/10/1
f 224/12/1 240/19/1 226/4/1
f 202/20/1 195/8/1 214/21/1
f 238/22/1 225/23/1 232/24/1
f 239/25/1 225/23/1 241/26/1
f 208/27/1 192/28/1 218/3/1
f 201/29/1 204/2/1 187/1/1
f 220/30/1 209/31/1 215/32/1
f 226/4/1 240/19/1 243/33/1
f 224/12/1 223/14/1 239/25/1
f 223/14/1 225/23/1 239/25/1
f 209/31/1 213/34/1 203/7/1
f 241/26/1 225/23/1 238/22/1
f 224/12/1 239/25/1 240/19/1
f 221/35/1 208/27/1 218/3/1
f 189/36/1 191/37/1 188/38/1
f 210/13/1 205/39/1 219/40/1
f 231/6/1 236/41/1 230/42/1
f 256/43/1 244/44/1 252/45/1
f 207/11/1 217/18/1 204/2/1
f 213/34/1 209/31/1 220/30/1
f 244/44/1 256/43/1 246/46/1
f 248/5/1 243/33/1 257/47/1
f 205/39/1 202/20/1 214/21/1
f 200/48/1 194/49/1 202/20/1
f 236/41/1 231/6/1 248/5/1
f 195/8/1 203/7/1 213/34/1
f 195/8/1 202/20/1 194/49/1
f 237/50/1 233/51/1 234/52/1
f 219/40/1 205/39/1 214/21/1
f 196/53/1 194/49/1 200/48/1
f 187/1/1 218/3/1 192/28/1
f 188/38/1 201/29/1 187/1/1
f 218/3/1 204/2/1 217/18/1
f 214/21/1 195/8/1 213/34/1
f 248/5/1 226/4/1 243/33/1
f 211/54/1 208/27/1 221/35/1
f 224/12/1 207/11/1 210/13/1
f 257/47/1 245/55/1 258/15/1
f 257/47/1 243/33/1 245/55/1
f 252/45/1 241/26/1 238/22/1
f 223/14/1 210/13/1 219/40/1
f 201/29/1 188/38/1 191/37/1
f 238/22/1 232/24/1 237/50/1
f 246/46/1 256/43/1 250/56/1
f 230/42/1 236/41/1 228/57/1
f 232/24/1 233/51/1 237/50/1
f 258/15/1 245/55/1 247/16/1
f 244/44/1 241/26/1 252/45/1
f 43/58/2 44/59/2 101/60/2 100/61/2
f 44/59/3 118/62/3 190/63/3 101/60/3
f 45/64/4 46/65/4 103/66/4 102/67/4
f 121/68/5 43/58/5 100/61/5 193/69/5
f 55/70/6 56/71/6 113/72/6 112/73/6
f 125/74/7 55/70/7 112/73/7 197/75/7
f 56/71/8 127/76/8 199/77/8 113/72/8
f 53/78/9 54/79/9 111/80/9 110/81/9
f 46/65/10 47/82/10 104/83/10 103/66/10
f 52/84/11 53/78/11 110/81/11 109/85/11
f 57/86/12 1/87/12 58/88/12 114/89/12
f 47/82/13 48/90/13 105/91/13 104/83/13
f 134/92/14 52/84/14 109/85/14 206/93/14
f 48/90/15 49/94/15 106/95/15 105/91/15
f 41/96/16 42/97/16 99/98/16 98/99/16
f 1/87/17 2/100/17 59/101/17 58/88/17
f 50/102/18 51/103/18 108/104/18 107/105/18
f 49/94/19 50/102/19 107/105/19 106/95/19
f 140/106/20 41/96/20 98/99/20 212/107/20
f 5/108/21 6/109/21 63/110/21 62/111/21
f 2/100/22 144/112/22 216/113/22 59/101/22
f 37/114/23 38/115/23 95/116/23 94/117/23
f 6/109/24 7/118/24 64/119/24 63/110/24
f 4/120/25 5/108/25 62/111/25 61/121/25
f 3/122/26 4/120/26 61/121/26 60/123/26
f 39/124/27 40/125/27 97/126/27 96/127/27
f 38/115/28 39/124/28 96/127/28 95/116/28
f 36/128/29 37/114/29 94/117/29 93/129/29
f 7/118/30 8/130/30 65/131/30 64/119/30
f 35/132/31 36/128/31 93/129/31 92/133/31
f 8/130/32 9/134/32 66/135/32 65/131/32
f 155/136/33 35/132/33 92/133/33 227/137/33
f 157/138/34 32/139/34 89/140/34 229/141/34
f 32/139/35 33/142/35 90/143/35 89/140/35
f 10/144/36 11/145/36 68/146/36 67/147/36
f 11/145/37 163/148/37 235/149/37 68/146/37
f 30/150/38 31/151/38 88/152/38 87/153/38
f 12/154/39 13/155/39 70/156/39 69/157/39
f 9/134/40 10/144/40 67/147/40 66/135/40
f 33/142/41 34/158/41 91/159/41 90/143/41
f 13/155/42 14/160/42 71/161/42 70/156/42
f 21/162/43 22/163/43 79/164/43 78/165/43
f 170/166/44 21/162/44 78/165/44 242/167/44
f 22/163/45 23/168/45 80/169/45 79/164/45
f 19/170/46 20/171/46 77/172/46 76/173/46
f 23/168/47 24/174/47 81/175/47 80/169/47
f 18/176/48 19/170/48 76/173/48 75/177/48
f 24/174/49 25/178/49 82/179/49 81/175/49
f 177/180/50 30/150/50 87/153/50 249/181/50
f 179/182/51 18/176/51 75/177/51 251/183/51
f 14/160/52 181/184/52 253/185/52 71/161/52
f 25/178/53 183/186/53 255/187/53 82/179/53
f 16/188/54 17/189/54 74/190/54 73/191/54
f 15/192/55 16/188/55 73/191/55 72/193/55
f 28/194/56 29/195/56 86/196/56 85/197/56
f 27/198/57 28/194/57 85/197/57 84/199/57
f 26/200/58 27/198/58 84/199/58 83/201/58
usemtl FrontMat.001
f 115/202/59 146/203/59 132/204/59
f 154/205/59 159/206/59 176/207/59
f 131/208/59 126/209/59 123/210/59
f 150/211/59 152/212/59 135/213/59
f 152/212/59 151/214/59 138/215/59
f 186/216/59 182/217/59 175/218/59
f 145/219/59 150/211/59 135/213/59
f 152/212/59 154/205/59 168/220/59
f 130/221/59 142/222/59 123/210/59
f 166/223/59 160/224/59 153/225/59
f 167/226/59 169/227/59 153/225/59
f 136/228/59 146/203/59 120/229/59
f 129/230/59 115/202/59 132/204/59
f 148/231/59 143/232/59 137/233/59
f 154/205/59 171/234/59 168/220/59
f 152/212/59 167/226/59 151/214/59
f 151/214/59 167/226/59 153/225/59
f 137/233/59 131/208/59 141/235/59
f 169/227/59 166/223/59 153/225/59
f 152/212/59 168/220/59 167/226/59
f 149/236/59 146/203/59 136/228/59
f 117/237/59 116/238/59 119/239/59
f 138/215/59 147/240/59 133/241/59
f 159/206/59 158/242/59 164/243/59
f 184/244/59 180/245/59 172/246/59
f 135/213/59 132/204/59 145/219/59
f 141/235/59 148/231/59 137/233/59
f 172/246/59 174/247/59 184/244/59
f 176/207/59 185/248/59 171/234/59
f 133/241/59 142/222/59 130/221/59
f 128/249/59 130/221/59 122/250/59
f 164/243/59 176/207/59 159/206/59
f 123/210/59 141/235/59 131/208/59
f 123/210/59 122/250/59 130/221/59
f 165/251/59 162/252/59 161/253/59
f 147/240/59 142/222/59 133/241/59
f 124/254/59 128/249/59 122/250/59
f 115/202/59 120/229/59 146/203/59
f 116/238/59 115/202/59 129/230/59
f 146/203/59 145/219/59 132/204/59
f 142/222/59 141/235/59 123/210/59
f 176/207/59 171/234/59 154/205/59
f 139/255/59 149/236/59 136/228/59
f 152/212/59 138/215/59 135/213/59
f 185/248/59 186/216/59 173/256/59
f 185/248/59 173/256/59 171/234/59
f 180/245/59 166/223/59 169/227/59
f 151/214/59 147/240/59 138/215/59
f 129/230/59 119/239/59 116/238/59
f 166/223/59 165/251/59 160/224/59
f 174/247/59 178/257/59 184/244/59
f 158/242/59 156/258/59 164/243/59
f 160/224/59 165/251/59 161/253/59
f 186/216/59 175/218/59 173/256/59
f 172/246/59 180/245/59 169/227/59
