# Blender v2.83.1 OBJ File: 'jigsaw-32x18-3-step2.blend'
# www.blender.org
mtllib piece.466.mtl
o path2092
v 0.180882 0.037500 0.413504
v 0.107672 0.037500 0.424984
v 0.109276 0.037500 0.479954
v 0.141656 0.037500 0.558805
v 0.141830 0.037500 0.633577
v 0.067896 0.037500 0.680119
v -0.037664 0.037500 0.689507
v -0.111280 0.037500 0.656622
v -0.110804 0.037500 0.583002
v -0.079788 0.037500 0.496775
v -0.083213 0.037500 0.432714
v -0.166154 0.037500 0.415813
v -0.294102 0.037500 0.431982
v -0.508367 0.037500 0.479395
v -0.534292 0.037500 0.266300
v -0.535887 0.037500 0.137451
v -0.505561 0.037500 0.050310
v -0.432425 0.037500 0.038868
v -0.342613 0.037500 0.062906
v -0.271519 0.037500 0.063646
v -0.246955 0.037500 0.001425
v -0.266400 0.037500 -0.087008
v -0.319761 0.037500 -0.145802
v -0.394883 0.037500 -0.138508
v -0.471375 0.037500 -0.106287
v -0.526789 0.037500 -0.109703
v -0.545356 0.037500 -0.190434
v -0.508367 0.037500 -0.522514
v -0.141323 0.037500 -0.554790
v -0.053870 0.037500 -0.532309
v -0.053685 0.037500 -0.471670
v -0.093985 0.037500 -0.391647
v -0.106829 0.037500 -0.318352
v -0.045682 0.037500 -0.274544
v 0.050325 0.037500 -0.269594
v 0.120662 0.037500 -0.309534
v 0.124580 0.037500 -0.393089
v 0.100482 0.037500 -0.490023
v 0.106558 0.037500 -0.562820
v 0.183184 0.037500 -0.584476
v 0.299486 0.037500 -0.569950
v 0.493331 0.037500 -0.522514
v 0.526894 0.037500 -0.199160
v 0.506791 0.037500 -0.123093
v 0.450283 0.037500 -0.124477
v 0.374937 0.037500 -0.159573
v 0.305302 0.037500 -0.165413
v 0.262918 0.037500 -0.099688
v 0.257322 0.037500 -0.002707
v 0.295042 0.037500 0.064562
v 0.375383 0.037500 0.061918
v 0.468770 0.037500 0.032246
v 0.538413 0.037500 0.039194
v 0.557855 0.037500 0.126579
v 0.541973 0.037500 0.258934
v 0.493331 0.037500 0.479395
v 0.180882 -0.037500 0.413504
v 0.107672 -0.037500 0.424984
v 0.109276 -0.037500 0.479954
v 0.141656 -0.037498 0.558805
v 0.141830 -0.037500 0.633577
v 0.067896 -0.037500 0.680119
v -0.037664 -0.037500 0.689507
v -0.111280 -0.037500 0.656622
v -0.110804 -0.037500 0.583002
v -0.079788 -0.037498 0.496775
v -0.083213 -0.037500 0.432714
v -0.166154 -0.037498 0.415813
v -0.294102 -0.037500 0.431982
v -0.508367 -0.037500 0.479395
v -0.534292 -0.037500 0.266300
v -0.535887 -0.037500 0.137451
v -0.505561 -0.037500 0.050310
v -0.432425 -0.037500 0.038868
v -0.342613 -0.037498 0.062906
v -0.271519 -0.037500 0.063646
v -0.246955 -0.037500 0.001425
v -0.266400 -0.037500 -0.087008
v -0.319761 -0.037500 -0.145802
v -0.394883 -0.037498 -0.138508
v -0.471375 -0.037498 -0.106287
v -0.526789 -0.037500 -0.109703
v -0.545356 -0.037500 -0.190434
v -0.508367 -0.037500 -0.522514
v -0.141323 -0.037500 -0.554790
v -0.053870 -0.037500 -0.532309
v -0.053685 -0.037500 -0.471670
v -0.093985 -0.037500 -0.391647
v -0.106829 -0.037500 -0.318352
v -0.045682 -0.037498 -0.274544
v 0.050325 -0.037500 -0.269594
v 0.120662 -0.037500 -0.309534
v 0.124580 -0.037500 -0.393089
v 0.100482 -0.037500 -0.490023
v 0.106558 -0.037500 -0.562820
v 0.183184 -0.037500 -0.584476
v 0.299486 -0.037500 -0.569950
v 0.493331 -0.037500 -0.522514
v 0.526894 -0.037500 -0.199160
v 0.506791 -0.037500 -0.123093
v 0.450283 -0.037500 -0.124477
v 0.374937 -0.037500 -0.159573
v 0.305302 -0.037500 -0.165413
v 0.262918 -0.037500 -0.099688
v 0.257322 -0.037500 -0.002707
v 0.295042 -0.037500 0.064562
v 0.375383 -0.037500 0.061918
v 0.468770 -0.037500 0.032246
v 0.538413 -0.037500 0.039194
v 0.557855 -0.037498 0.126579
v 0.541973 -0.037500 0.258934
v 0.493331 -0.037500 0.479395
v 0.538413 0.037500 0.039194
v 0.538413 0.037500 0.039194
v 0.557855 0.037500 0.126579
v 0.541973 0.037500 0.258934
v 0.468770 0.037500 0.032246
v 0.526894 0.037500 -0.199160
v 0.506791 0.037500 -0.123093
v 0.506791 0.037500 -0.123093
v 0.450283 0.037500 -0.124477
v 0.493331 0.037500 -0.522514
v 0.493331 0.037500 -0.522514
v 0.493331 0.037500 0.479395
v 0.493331 0.037500 0.479395
v 0.375383 0.037500 0.061918
v 0.374937 0.037500 -0.159573
v 0.299486 0.037500 -0.569950
v 0.295042 0.037500 0.064562
v 0.295042 0.037500 0.064562
v 0.305302 0.037500 -0.165413
v 0.305302 0.037500 -0.165413
v 0.262918 0.037500 -0.099688
v 0.183184 0.037500 -0.584476
v 0.180882 0.037500 0.413504
v 0.257322 0.037500 -0.002707
v 0.106558 0.037500 -0.562820
v 0.106558 0.037500 -0.562820
v 0.107672 0.037500 0.424984
v 0.107672 0.037500 0.424984
v 0.141656 0.037500 0.558805
v 0.141830 0.037500 0.633577
v 0.067896 0.037500 0.680119
v 0.109276 0.037500 0.479954
v 0.100482 0.037500 -0.490023
v 0.124580 0.037500 -0.393089
v 0.120662 0.037500 -0.309534
v 0.050325 0.037500 -0.269594
v -0.037664 0.037500 0.689507
v -0.045682 0.037500 -0.274544
v -0.111280 0.037500 0.656622
v -0.111280 0.037500 0.656622
v -0.106829 0.037500 -0.318352
v -0.106829 0.037500 -0.318352
v -0.053870 0.037500 -0.532309
v -0.053870 0.037500 -0.532309
v -0.053685 0.037500 -0.471670
v -0.093985 0.037500 -0.391647
v -0.141323 0.037500 -0.554790
v -0.079788 0.037500 0.496775
v -0.083213 0.037500 0.432714
v -0.083213 0.037500 0.432714
v -0.110804 0.037500 0.583002
v -0.166154 0.037500 0.415813
v -0.294102 0.037500 0.431982
v -0.246955 0.037500 0.001425
v -0.266400 0.037500 -0.087008
v -0.271519 0.037500 0.063646
v -0.271519 0.037500 0.063646
v -0.319761 0.037500 -0.145802
v -0.342613 0.037500 0.062906
v -0.394883 0.037500 -0.138508
v -0.432425 0.037500 0.038868
v -0.471375 0.037500 -0.106287
v -0.508367 0.037500 -0.522514
v -0.508367 0.037500 -0.522514
v -0.505561 0.037500 0.050310
v -0.505561 0.037500 0.050310
v -0.526789 0.037500 -0.109703
v -0.526789 0.037500 -0.109703
v -0.508367 0.037500 0.479395
v -0.508367 0.037500 0.479395
v -0.535887 0.037500 0.137451
v -0.534292 0.037500 0.266300
v -0.545356 0.037500 -0.190434
v 0.538413 -0.037500 0.039194
v 0.538413 -0.037500 0.039194
v 0.557855 -0.037498 0.126579
v 0.541973 -0.037500 0.258934
v 0.468770 -0.037500 0.032246
v 0.526894 -0.037500 -0.199160
v 0.506791 -0.037500 -0.123093
v 0.506791 -0.037500 -0.123093
v 0.450283 -0.037500 -0.124477
v 0.493331 -0.037500 -0.522514
v 0.493331 -0.037500 -0.522514
v 0.493331 -0.037500 0.479395
v 0.493331 -0.037500 0.479395
v 0.375383 -0.037500 0.061918
v 0.374937 -0.037500 -0.159573
v 0.299486 -0.037500 -0.569950
v 0.295042 -0.037500 0.064562
v 0.295042 -0.037500 0.064562
v 0.305302 -0.037500 -0.165413
v 0.305302 -0.037500 -0.165413
v 0.262918 -0.037500 -0.099688
v 0.183184 -0.037500 -0.584476
v 0.180882 -0.037500 0.413504
v 0.257322 -0.037500 -0.002707
v 0.106558 -0.037500 -0.562820
v 0.106558 -0.037500 -0.562820
v 0.107672 -0.037500 0.424984
v 0.107672 -0.037500 0.424984
v 0.141656 -0.037498 0.558805
v 0.141830 -0.037500 0.633577
v 0.067896 -0.037500 0.680119
v 0.109276 -0.037500 0.479954
v 0.100482 -0.037500 -0.490023
v 0.124580 -0.037500 -0.393089
v 0.120662 -0.037500 -0.309534
v 0.050325 -0.037500 -0.269594
v -0.037664 -0.037500 0.689507
v -0.045682 -0.037498 -0.274544
v -0.111280 -0.037500 0.656622
v -0.111280 -0.037500 0.656622
v -0.106829 -0.037500 -0.318352
v -0.106829 -0.037500 -0.318352
v -0.053870 -0.037500 -0.532309
v -0.053870 -0.037500 -0.532309
v -0.053685 -0.037500 -0.471670
v -0.093985 -0.037500 -0.391647
v -0.141323 -0.037500 -0.554790
v -0.079788 -0.037498 0.496775
v -0.083213 -0.037500 0.432714
v -0.083213 -0.037500 0.432714
v -0.110804 -0.037500 0.583002
v -0.166154 -0.037498 0.415813
v -0.294102 -0.037500 0.431982
v -0.246955 -0.037500 0.001425
v -0.266400 -0.037500 -0.087008
v -0.271519 -0.037500 0.063646
v -0.271519 -0.037500 0.063646
v -0.319761 -0.037500 -0.145802
v -0.342613 -0.037498 0.062906
v -0.394883 -0.037498 -0.138508
v -0.432425 -0.037500 0.038868
v -0.471375 -0.037498 -0.106287
v -0.508367 -0.037500 -0.522514
v -0.508367 -0.037500 -0.522514
v -0.505561 -0.037500 0.050310
v -0.505561 -0.037500 0.050310
v -0.526789 -0.037500 -0.109703
v -0.526789 -0.037500 -0.109703
v -0.508367 -0.037500 0.479395
v -0.508367 -0.037500 0.479395
v -0.535887 -0.037500 0.137451
v -0.534292 -0.037500 0.266300
v -0.545356 -0.037500 -0.190434
vt 0.500000 0.500000
vt 0.500000 0.500000
vt 0.500000 0.500000
vt 0.500000 0.500000
vt 0.500000 0.500000
vt 0.500000 0.500000
vt 0.500000 0.500000
vt 0.500000 0.500000
vt 0.500000 0.500000
vt 0.500000 0.500000
vt 0.500000 0.500000
vt 0.500000 0.500000
vt 0.500000 0.500000
vt 0.500000 0.500000
vt 0.500000 0.500000
vt 0.500000 0.500000
vt 0.500000 0.500000
vt 0.500000 0.500000
vt 0.500000 0.500000
vt 0.500000 0.500000
vt 0.500000 0.500000
vt 0.500000 0.500000
vt 0.500000 0.500000
vt 0.500000 0.500000
vt 0.500000 0.500000
vt 0.500000 0.500000
vt 0.500000 0.500000
vt 0.500000 0.500000
vt 0.500000 0.500000
vt 0.500000 0.500000
vt 0.500000 0.500000
vt 0.500000 0.500000
vt 0.500000 0.500000
vt 0.500000 0.500000
vt 0.500000 0.500000
vt 0.500000 0.500000
vt 0.500000 0.500000
vt 0.500000 0.500000
vt 0.500000 0.500000
vt 0.500000 0.500000
vt 0.500000 0.500000
vt 0.500000 0.500000
vt 0.500000 0.500000
vt 0.500000 0.500000
vt 0.500000 0.500000
vt 0.500000 0.500000
vt 0.500000 0.500000
vt 0.500000 0.500000
vt 0.500000 0.500000
vt 0.500000 0.500000
vt 0.500000 0.500000
vt 0.500000 0.500000
vt 0.500000 0.500000
vt 0.500000 0.500000
vt 0.500000 0.500000
vt 0.500000 0.500000
vt 0.500000 0.500000
vt 0.500000 0.500000
vt 0.500000 0.500000
vt 0.500000 0.500000
vt 0.500000 0.500000
vt 0.500000 0.500000
vt 0.500000 0.500000
vt 0.500000 0.500000
vt 0.500000 0.500000
vt 0.500000 0.500000
vt 0.500000 0.500000
vt 0.500000 0.500000
vt 0.500000 0.500000
vt 0.500000 0.500000
vt 0.500000 0.500000
vt 0.500000 0.500000
vt 0.500000 0.500000
vt 0.500000 0.500000
vt 0.500000 0.500000
vt 0.500000 0.500000
vt 0.500000 0.500000
vt 0.500000 0.500000
vt 0.500000 0.500000
vt 0.500000 0.500000
vt 0.500000 0.500000
vt 0.500000 0.500000
vt 0.500000 0.500000
vt 0.500000 0.500000
vt 0.500000 0.500000
vt 0.500000 0.500000
vt 0.500000 0.500000
vt 0.500000 0.500000
vt 0.500000 0.500000
vt 0.500000 0.500000
vt 0.500000 0.500000
vt 0.500000 0.500000
vt 0.500000 0.500000
vt 0.500000 0.500000
vt 0.500000 0.500000
vt 0.500000 0.500000
vt 0.500000 0.500000
vt 0.500000 0.500000
vt 0.500000 0.500000
vt 0.500000 0.500000
vt 0.500000 0.500000
vt 0.500000 0.500000
vt 0.500000 0.500000
vt 0.500000 0.500000
vt 0.500000 0.500000
vt 0.500000 0.500000
vt 0.500000 0.500000
vt 0.500000 0.500000
vt 0.500000 0.500000
vt 0.500000 0.500000
vt 0.500000 0.500000
vt 0.500000 0.500000
vt 0.500000 0.500000
vt 0.500000 0.500000
vt 0.500000 0.500000
vt 0.500000 0.500000
vt 0.500000 0.500000
vt 0.500000 0.500000
vt 0.500000 0.500000
vt 0.500000 0.500000
vt 0.500000 0.500000
vt 0.500000 0.500000
vt 0.500000 0.500000
vt 0.500000 0.500000
vt 0.500000 0.500000
vt 0.500000 0.500000
vt 0.500000 0.500000
vt 0.500000 0.500000
vt 0.500000 0.500000
vt 0.500000 0.500000
vt 0.500000 0.500000
vt 0.500000 0.500000
vt 0.500000 0.500000
vt 0.500000 0.500000
vt 0.500000 0.500000
vt 0.500000 0.500000
vt 0.500000 0.500000
vt 0.500000 0.500000
vt 0.500000 0.500000
vt 0.500000 0.500000
vt 0.500000 0.500000
vt 0.500000 0.500000
vt 0.500000 0.500000
vt 0.500000 0.500000
vt 0.500000 0.500000
vt 0.500000 0.500000
vt 0.500000 0.500000
vt 0.500000 0.500000
vt 0.500000 0.500000
vt 0.500000 0.500000
vt 0.500000 0.500000
vt 0.500000 0.500000
vt 0.500000 0.500000
vt 0.500000 0.500000
vt 0.500000 0.500000
vt 0.500000 0.500000
vt 0.500000 0.500000
vt 0.500000 0.500000
vt 0.500000 0.500000
vt 0.500000 0.500000
vt 0.500000 0.500000
vt 0.500000 0.500000
vt 0.500000 0.500000
vt 0.500000 0.500000
vt 0.500000 0.500000
vt 0.500000 0.500000
vt 0.500000 0.500000
vt 0.500000 0.500000
vt 0.500000 0.500000
vt 0.500000 0.500000
vt 0.500000 0.500000
vt 0.500000 0.500000
vt 0.500000 0.500000
vt 0.500000 0.500000
vt 0.500000 0.500000
vt 0.500000 0.500000
vt 0.500000 0.500000
vt 0.500000 0.500000
vt 0.500000 0.500000
vt 0.500000 0.500000
vt 0.500000 0.500000
vt 0.500000 0.500000
vt 0.500000 0.500000
vt 0.500000 0.500000
vt 0.500000 0.500000
vt 0.500000 0.500000
vt 0.500000 0.500000
vt 0.500000 0.500000
vt 0.500000 0.500000
vt 0.500000 0.500000
vt 0.500000 0.500000
vt 0.500000 0.500000
vt 0.500000 0.500000
vt 0.500000 0.500000
vt 0.500000 0.500000
vt 0.500000 0.500000
vt 0.500000 0.500000
vt 0.500000 0.500000
vt 0.500000 0.500000
vt 0.500000 0.500000
vt 0.500000 0.500000
vt 0.500000 0.500000
vt 0.539139 0.197652
vt 0.547592 0.181165
vt 0.547463 0.209133
vt 0.568761 0.198627
vt 0.564977 0.202718
vt 0.563042 0.190436
vt 0.544438 0.209443
vt 0.541336 0.224084
vt 0.531250 0.222222
vt 0.542570 0.215656
vt 0.549533 0.179802
vt 0.549479 0.215681
vt 0.549561 0.211225
vt 0.555624 0.224920
vt 0.560445 0.204893
vt 0.567309 0.202727
vt 0.529770 0.211471
vt 0.535287 0.201771
vt 0.542388 0.211794
vt 0.562500 0.222222
vt 0.560517 0.185646
vt 0.561044 0.190246
vt 0.532263 0.200434
vt 0.529317 0.205021
vt 0.565731 0.188716
vt 0.568028 0.188690
vt 0.569053 0.192772
vt 0.560803 0.200833
vt 0.551495 0.225801
vt 0.538984 0.192328
vt 0.544834 0.180086
vt 0.537893 0.201553
vt 0.537618 0.188936
vt 0.549510 0.175860
vt 0.561021 0.178550
vt 0.551835 0.165140
vt 0.555853 0.165229
vt 0.543708 0.222969
vt 0.543665 0.219835
vt 0.531250 0.166667
vt 0.543227 0.172961
vt 0.543000 0.177127
vt 0.562500 0.166667
vt 0.562517 0.200922
vt 0.532836 0.191884
vt 0.530945 0.191874
vt 0.530243 0.187023
vt 0.548770 0.224723
vt 0.548553 0.220860
vt 0.548760 0.170878
vt 0.549117 0.166822
vt 0.529993 0.200771
vt 0.541608 0.164615
vt 0.544232 0.168718
vt 0.535332 0.189649
vt 0.544126 0.165645
vn 0.0000 -1.0000 0.0000
vn 0.9761 0.0000 -0.2172
vn 0.9929 0.0000 0.1191
vn 0.0993 0.0000 -0.9951
vn 0.9668 0.0000 0.2555
vn -0.0245 0.0000 0.9997
vn 0.9947 0.0000 -0.1032
vn 0.9765 0.0000 0.2155
vn -0.3028 0.0000 -0.9530
vn -0.4222 0.0000 0.9065
vn 0.2377 0.0000 -0.9713
vn -0.0329 0.0000 -0.9995
vn -0.0836 0.0000 0.9965
vn 0.8404 0.0000 0.5419
vn 0.1239 0.0000 -0.9923
vn -0.2063 0.0000 0.9785
vn 0.8722 0.0000 -0.4891
vn 0.9983 0.0000 0.0576
vn -0.2720 0.0000 -0.9623
vn 0.1549 0.0000 0.9879
vn 1.0000 0.0000 -0.0023
vn 0.5327 0.0000 0.8463
vn 0.9250 0.0000 -0.3799
vn -0.9965 0.0000 -0.0832
vn -0.9705 0.0000 0.2413
vn -0.9989 0.0000 -0.0468
vn -0.4938 0.0000 -0.8696
vn 0.9996 0.0000 -0.0292
vn 0.0886 0.0000 0.9961
vn 0.0515 0.0000 -0.9987
vn -0.4079 0.0000 0.9130
vn 0.5824 0.0000 -0.8129
vn 1.0000 0.0000 -0.0031
vn 0.8931 0.0000 0.4498
vn 0.2490 0.0000 -0.9685
vn -0.9986 0.0000 0.0534
vn -0.9410 0.0000 -0.3385
vn -1.0000 0.0000 -0.0065
vn -0.1997 0.0000 0.9799
vn 0.9850 0.0000 0.1726
vn 0.1254 0.0000 0.9921
vn -0.9767 0.0000 0.2148
vn -0.9301 0.0000 -0.3672
vn -0.7405 0.0000 0.6721
vn 0.0104 0.0000 -0.9999
vn 0.0966 0.0000 0.9953
vn 0.2585 0.0000 -0.9660
vn 0.3882 0.0000 0.9216
vn -0.0876 0.0000 -0.9962
vn -0.1546 0.0000 -0.9880
vn -0.0615 0.0000 0.9981
vn 0.2161 0.0000 0.9764
vn -0.9444 0.0000 -0.3287
vn -0.9999 0.0000 0.0124
vn -0.9927 0.0000 0.1208
vn -0.9939 0.0000 -0.1107
vn -0.9746 0.0000 0.2241
vn 0.0000 1.0000 -0.0000
usemtl BackMat.001
s off
f 221/1/1 209/2/1 239/3/1
f 216/4/1 233/5/1 214/6/1
f 221/1/1 206/7/1 209/2/1
f 191/8/1 200/9/1 195/10/1
f 239/3/1 209/2/1 241/11/1
f 199/12/1 189/13/1 202/14/1
f 208/15/1 202/14/1 189/13/1
f 216/4/1 214/6/1 215/16/1
f 201/17/1 204/18/1 219/19/1
f 197/20/1 208/15/1 189/13/1
f 241/11/1 234/21/1 237/22/1
f 218/23/1 207/24/1 219/19/1
f 236/25/1 222/26/1 224/27/1
f 207/24/1 201/17/1 219/19/1
f 236/25/1 216/4/1 222/26/1
f 241/11/1 212/28/1 234/21/1
f 189/13/1 199/12/1 188/29/1
f 223/30/1 239/3/1 240/31/1
f 220/32/1 206/7/1 221/1/1
f 223/30/1 240/31/1 226/33/1
f 244/34/1 241/11/1 238/35/1
f 195/10/1 204/18/1 201/17/1
f 256/36/1 244/34/1 257/37/1
f 192/38/1 194/39/1 191/8/1
f 248/40/1 243/41/1 245/42/1
f 257/37/1 238/35/1 254/43/1
f 234/21/1 217/44/1 233/5/1
f 241/11/1 237/22/1 238/35/1
f 230/45/1 232/46/1 228/47/1
f 233/5/1 216/4/1 236/25/1
f 186/48/1 188/29/1 190/49/1
f 246/50/1 256/36/1 250/51/1
f 190/49/1 188/29/1 199/12/1
f 233/5/1 217/44/1 214/6/1
f 257/37/1 244/34/1 238/35/1
f 202/14/1 208/15/1 212/28/1
f 221/1/1 239/3/1 223/30/1
f 200/9/1 191/8/1 194/39/1
f 219/19/1 204/18/1 220/32/1
f 209/2/1 212/28/1 241/11/1
f 210/52/1 207/24/1 218/23/1
f 212/28/1 217/44/1 234/21/1
f 204/18/1 195/10/1 200/9/1
f 226/33/1 240/31/1 243/41/1
f 202/14/1 212/28/1 209/2/1
f 258/53/1 245/42/1 247/54/1
f 226/33/1 248/40/1 231/55/1
f 231/55/1 232/46/1 230/45/1
f 206/7/1 220/32/1 204/18/1
f 248/40/1 245/42/1 258/53/1
f 232/46/1 231/55/1 248/40/1
f 244/34/1 256/36/1 246/50/1
f 248/40/1 226/33/1 243/41/1
f 258/53/1 247/54/1 252/56/1
f 114/57/2 54/58/2 110/59/2 187/60/2
f 54/58/3 55/61/3 111/62/3 110/59/3
f 52/63/4 53/64/4 109/65/4 108/66/4
f 43/67/5 120/68/5 193/69/5 99/70/5
f 44/71/6 45/72/6 101/73/6 100/74/6
f 123/75/7 43/67/7 99/70/7 196/76/7
f 55/61/8 125/77/8 198/78/8 111/62/8
f 51/79/9 52/63/9 108/66/9 107/80/9
f 45/72/10 46/81/10 102/82/10 101/73/10
f 41/83/11 42/84/11 98/85/11 97/86/11
f 130/87/12 51/79/12 107/80/12 203/88/12
f 46/81/13 132/89/13 205/90/13 102/82/13
f 47/91/14 48/92/14 104/93/14 103/94/14
f 40/95/15 41/83/15 97/86/15 96/96/15
f 56/97/16 1/98/16 57/99/16 112/100/16
f 49/101/17 50/102/17 106/103/17 105/104/17
f 48/92/18 49/101/18 105/104/18 104/93/18
f 138/105/19 40/95/19 96/96/19 211/106/19
f 1/98/20 140/107/20 213/108/20 57/99/20
f 4/109/21 5/110/21 61/111/21 60/112/21
f 5/110/22 6/113/22 62/114/22 61/111/22
f 3/115/23 4/109/23 60/112/23 59/116/23
f 38/117/24 39/118/24 95/119/24 94/120/24
f 37/121/25 38/117/25 94/120/25 93/122/25
f 36/123/26 37/121/26 93/122/26 92/124/26
f 35/125/27 36/123/27 92/124/27 91/126/27
f 2/127/28 3/115/28 59/116/28 58/128/28
f 6/113/29 7/129/29 63/130/29 62/114/29
f 34/131/30 35/125/30 91/126/30 90/132/30
f 7/129/31 152/133/31 225/134/31 63/130/31
f 154/135/32 34/131/32 90/132/32 227/136/32
f 156/137/33 31/138/33 87/139/33 229/140/33
f 31/138/34 32/141/34 88/142/34 87/139/34
f 29/143/35 30/144/35 86/145/35 85/146/35
f 10/147/36 162/148/36 235/149/36 66/150/36
f 9/151/37 10/147/37 66/150/37 65/152/37
f 8/153/38 9/151/38 65/152/38 64/154/38
f 11/155/39 12/156/39 68/157/39 67/158/39
f 32/141/40 33/159/40 89/160/40 88/142/40
f 12/156/41 13/161/41 69/162/41 68/157/41
f 21/163/42 22/164/42 78/165/42 77/166/42
f 169/167/43 21/163/43 77/166/43 242/168/43
f 22/164/44 23/169/44 79/170/44 78/165/44
f 19/171/45 20/172/45 76/173/45 75/174/45
f 23/169/46 24/175/46 80/176/46 79/170/46
f 18/177/47 19/171/47 75/174/47 74/178/47
f 24/175/48 25/179/48 81/180/48 80/176/48
f 176/181/49 29/143/49 85/146/49 249/182/49
f 178/183/50 18/177/50 74/178/50 251/184/50
f 25/179/51 180/185/51 253/186/51 81/180/51
f 13/161/52 182/187/52 255/188/52 69/162/52
f 16/189/53 17/190/53 73/191/53 72/192/53
f 15/193/54 16/189/54 72/192/54 71/194/54
f 14/195/55 15/193/55 71/194/55 70/196/55
f 27/197/56 28/198/56 84/199/56 83/200/56
f 26/201/57 27/197/57 83/200/57 82/202/57
usemtl FrontMat.001
f 148/203/58 166/204/58 136/205/58
f 143/206/58 141/207/58 160/208/58
f 148/203/58 136/205/58 133/209/58
f 118/210/58 122/211/58 127/212/58
f 166/204/58 168/213/58 136/205/58
f 126/214/58 129/215/58 116/216/58
f 135/217/58 116/216/58 129/215/58
f 143/206/58 142/218/58 141/207/58
f 128/219/58 146/220/58 131/221/58
f 124/222/58 116/216/58 135/217/58
f 168/213/58 164/223/58 161/224/58
f 145/225/58 146/220/58 134/226/58
f 163/227/58 151/228/58 149/229/58
f 134/226/58 146/220/58 128/219/58
f 163/227/58 149/229/58 143/206/58
f 168/213/58 161/224/58 139/230/58
f 116/216/58 115/231/58 126/214/58
f 150/232/58 167/233/58 166/204/58
f 147/234/58 148/203/58 133/209/58
f 150/232/58 153/235/58 167/233/58
f 171/236/58 165/237/58 168/213/58
f 122/211/58 128/219/58 131/221/58
f 183/238/58 184/239/58 171/236/58
f 119/240/58 118/210/58 121/241/58
f 175/242/58 172/243/58 170/244/58
f 184/239/58 181/245/58 165/237/58
f 161/224/58 160/208/58 144/246/58
f 168/213/58 165/237/58 164/223/58
f 157/247/58 155/248/58 159/249/58
f 160/208/58 163/227/58 143/206/58
f 113/250/58 117/251/58 115/231/58
f 173/252/58 177/253/58 183/238/58
f 117/251/58 126/214/58 115/231/58
f 160/208/58 141/207/58 144/246/58
f 184/239/58 165/237/58 171/236/58
f 129/215/58 139/230/58 135/217/58
f 148/203/58 150/232/58 166/204/58
f 127/212/58 121/241/58 118/210/58
f 146/220/58 147/234/58 131/221/58
f 136/205/58 168/213/58 139/230/58
f 137/254/58 145/225/58 134/226/58
f 139/230/58 161/224/58 144/246/58
f 131/221/58 127/212/58 122/211/58
f 153/235/58 170/244/58 167/233/58
f 129/215/58 136/205/58 139/230/58
f 185/255/58 174/256/58 172/243/58
f 153/235/58 158/257/58 175/242/58
f 158/257/58 157/247/58 159/249/58
f 133/209/58 131/221/58 147/234/58
f 175/242/58 185/255/58 172/243/58
f 159/249/58 175/242/58 158/257/58
f 171/236/58 173/252/58 183/238/58
f 175/242/58 170/244/58 153/235/58
f 185/255/58 179/258/58 174/256/58
