# Blender v2.83.1 OBJ File: 'jigsaw-32x18-3-step2.blend'
# www.blender.org
mtllib piece.39.mtl
o path1238
v -0.305307 0.037500 -0.424729
v -0.191354 0.037500 -0.408273
v -0.117901 0.037500 -0.422300
v -0.115628 0.037500 -0.480720
v -0.143077 0.037500 -0.563790
v -0.140755 0.037500 -0.643351
v -0.069131 0.037500 -0.694980
v 0.031465 0.037500 -0.709207
v 0.100744 0.037500 -0.680297
v 0.099047 0.037500 -0.609095
v 0.069258 0.037500 -0.522762
v 0.074891 0.037500 -0.455040
v 0.159808 0.037500 -0.430560
v 0.289248 0.037500 -0.437496
v 0.505258 0.037500 -0.470594
v 0.551212 0.037500 -0.255250
v 0.565110 0.037500 -0.125109
v 0.543526 0.037500 -0.037256
v 0.471692 0.037500 -0.026009
v 0.375359 0.037500 -0.050262
v 0.290406 0.037500 -0.050050
v 0.246156 0.037500 0.014997
v 0.245695 0.037500 0.106899
v 0.285548 0.037500 0.168082
v 0.358246 0.037500 0.160817
v 0.440331 0.037500 0.126752
v 0.504346 0.037500 0.127376
v 0.530357 0.037500 0.205205
v 0.528515 0.037500 0.326850
v 0.505258 0.037500 0.531315
v 0.159027 0.037500 0.561124
v 0.074608 0.037500 0.544007
v 0.070336 0.037500 0.495234
v 0.101851 0.037500 0.429691
v 0.104954 0.037500 0.368268
v 0.036234 0.037500 0.329287
v -0.064583 0.037500 0.320809
v -0.136986 0.037500 0.348329
v -0.140415 0.037500 0.411577
v -0.114125 0.037500 0.487216
v -0.117323 0.037500 0.546143
v -0.191259 0.037500 0.567167
v -0.305356 0.037500 0.560744
v -0.496440 0.037500 0.531315
v -0.541344 0.037500 0.326646
v -0.556893 0.037500 0.206064
v -0.541526 0.037500 0.131600
v -0.481654 0.037500 0.137093
v -0.398968 0.037500 0.177430
v -0.323978 0.037500 0.187766
v -0.282168 0.037500 0.124393
v -0.278930 0.037500 0.028155
v -0.314632 0.037500 -0.038964
v -0.384647 0.037500 -0.036075
v -0.464394 0.037500 -0.006655
v -0.524300 0.037500 -0.015275
v -0.543096 0.037500 -0.106282
v -0.496440 0.037500 -0.470594
v -0.305307 -0.037500 -0.424729
v -0.191354 -0.037500 -0.408273
v -0.117901 -0.037500 -0.422300
v -0.115628 -0.037500 -0.480720
v -0.143077 -0.037500 -0.563790
v -0.140755 -0.037500 -0.643351
v -0.069131 -0.037500 -0.694980
v 0.031465 -0.037500 -0.709207
v 0.100744 -0.037498 -0.680297
v 0.099047 -0.037498 -0.609095
v 0.069258 -0.037498 -0.522762
v 0.074891 -0.037500 -0.455040
v 0.159808 -0.037500 -0.430560
v 0.289248 -0.037500 -0.437496
v 0.505258 -0.037498 -0.470594
v 0.551212 -0.037500 -0.255250
v 0.565110 -0.037500 -0.125109
v 0.543526 -0.037500 -0.037256
v 0.471692 -0.037500 -0.026009
v 0.375359 -0.037498 -0.050262
v 0.290406 -0.037500 -0.050050
v 0.246156 -0.037500 0.014997
v 0.245695 -0.037500 0.106899
v 0.285548 -0.037500 0.168082
v 0.358246 -0.037500 0.160817
v 0.440331 -0.037500 0.126752
v 0.504346 -0.037500 0.127376
v 0.530357 -0.037500 0.205205
v 0.528515 -0.037500 0.326850
v 0.505258 -0.037500 0.531315
v 0.159027 -0.037500 0.561124
v 0.074608 -0.037498 0.544007
v 0.070336 -0.037498 0.495234
v 0.101851 -0.037500 0.429691
v 0.104954 -0.037500 0.368268
v 0.036234 -0.037500 0.329287
v -0.064583 -0.037498 0.320809
v -0.136986 -0.037500 0.348329
v -0.140415 -0.037500 0.411577
v -0.114125 -0.037500 0.487216
v -0.117323 -0.037500 0.546143
v -0.191259 -0.037500 0.567167
v -0.305356 -0.037500 0.560744
v -0.496440 -0.037500 0.531315
v -0.541344 -0.037500 0.326646
v -0.556893 -0.037500 0.206064
v -0.541526 -0.037498 0.131600
v -0.481654 -0.037498 0.137093
v -0.398968 -0.037500 0.177430
v -0.323978 -0.037500 0.187766
v -0.282168 -0.037498 0.124393
v -0.278930 -0.037500 0.028155
v -0.314632 -0.037500 -0.038964
v -0.384647 -0.037500 -0.036075
v -0.464394 -0.037500 -0.006655
v -0.524300 -0.037500 -0.015275
v -0.543096 -0.037500 -0.106282
v -0.496440 -0.037498 -0.470594
v -0.541344 0.037500 0.326646
v -0.556893 0.037500 0.206064
v -0.541526 0.037500 0.131600
v -0.541526 0.037500 0.131600
v -0.524300 0.037500 -0.015275
v -0.524300 0.037500 -0.015275
v -0.543096 0.037500 -0.106282
v -0.481654 0.037500 0.137093
v -0.464394 0.037500 -0.006655
v -0.496440 0.037500 0.531315
v -0.496440 0.037500 0.531315
v -0.496440 0.037500 -0.470594
v -0.496440 0.037500 -0.470594
v -0.398968 0.037500 0.177430
v -0.384647 0.037500 -0.036075
v -0.305356 0.037500 0.560744
v -0.305307 0.037500 -0.424729
v -0.323978 0.037500 0.187766
v -0.323978 0.037500 0.187766
v -0.314632 0.037500 -0.038964
v -0.314632 0.037500 -0.038964
v -0.282168 0.037500 0.124393
v -0.278930 0.037500 0.028155
v -0.191259 0.037500 0.567167
v -0.191354 0.037500 -0.408273
v -0.117901 0.037500 -0.422300
v -0.117901 0.037500 -0.422300
v -0.117323 0.037500 0.546143
v -0.117323 0.037500 0.546143
v -0.115628 0.037500 -0.480720
v -0.143077 0.037500 -0.563790
v -0.140755 0.037500 -0.643351
v -0.069131 0.037500 -0.694980
v -0.114125 0.037500 0.487216
v -0.140415 0.037500 0.411577
v -0.136986 0.037500 0.348329
v -0.136986 0.037500 0.348329
v -0.064583 0.037500 0.320809
v 0.031465 0.037500 -0.709207
v 0.036234 0.037500 0.329287
v 0.100744 0.037500 -0.680297
v 0.100744 0.037500 -0.680297
v 0.104954 0.037500 0.368268
v 0.104954 0.037500 0.368268
v 0.069258 0.037500 -0.522762
v 0.074891 0.037500 -0.455040
v 0.074891 0.037500 -0.455040
v 0.099047 0.037500 -0.609095
v 0.074608 0.037500 0.544007
v 0.074608 0.037500 0.544007
v 0.070336 0.037500 0.495234
v 0.101851 0.037500 0.429691
v 0.159027 0.037500 0.561124
v 0.159808 0.037500 -0.430560
v 0.246156 0.037500 0.014997
v 0.245695 0.037500 0.106899
v 0.289248 0.037500 -0.437496
v 0.285548 0.037500 0.168082
v 0.285548 0.037500 0.168082
v 0.290406 0.037500 -0.050050
v 0.358246 0.037500 0.160817
v 0.375359 0.037500 -0.050262
v 0.440331 0.037500 0.126752
v 0.471692 0.037500 -0.026009
v 0.505258 0.037500 0.531315
v 0.505258 0.037500 0.531315
v 0.504346 0.037500 0.127376
v 0.504346 0.037500 0.127376
v 0.543526 0.037500 -0.037256
v 0.543526 0.037500 -0.037256
v 0.505258 0.037500 -0.470594
v 0.505258 0.037500 -0.470594
v 0.530357 0.037500 0.205205
v 0.528515 0.037500 0.326850
v 0.551212 0.037500 -0.255250
v 0.565110 0.037500 -0.125109
v -0.541344 -0.037500 0.326646
v -0.556893 -0.037500 0.206064
v -0.541526 -0.037498 0.131600
v -0.541526 -0.037498 0.131600
v -0.524300 -0.037500 -0.015275
v -0.524300 -0.037500 -0.015275
v -0.543096 -0.037500 -0.106282
v -0.481654 -0.037498 0.137093
v -0.464394 -0.037500 -0.006655
v -0.496440 -0.037500 0.531315
v -0.496440 -0.037500 0.531315
v -0.496440 -0.037498 -0.470594
v -0.496440 -0.037498 -0.470594
v -0.398968 -0.037500 0.177430
v -0.384647 -0.037500 -0.036075
v -0.305356 -0.037500 0.560744
v -0.305307 -0.037500 -0.424729
v -0.323978 -0.037500 0.187766
v -0.323978 -0.037500 0.187766
v -0.314632 -0.037500 -0.038964
v -0.314632 -0.037500 -0.038964
v -0.282168 -0.037498 0.124393
v -0.278930 -0.037500 0.028155
v -0.191259 -0.037500 0.567167
v -0.191354 -0.037500 -0.408273
v -0.117901 -0.037500 -0.422300
v -0.117901 -0.037500 -0.422300
v -0.117323 -0.037500 0.546143
v -0.117323 -0.037500 0.546143
v -0.115628 -0.037500 -0.480720
v -0.143077 -0.037500 -0.563790
v -0.140755 -0.037500 -0.643351
v -0.069131 -0.037500 -0.694980
v -0.114125 -0.037500 0.487216
v -0.140415 -0.037500 0.411577
v -0.136986 -0.037500 0.348329
v -0.136986 -0.037500 0.348329
v -0.064583 -0.037498 0.320809
v 0.031465 -0.037500 -0.709207
v 0.036234 -0.037500 0.329287
v 0.100744 -0.037498 -0.680297
v 0.100744 -0.037498 -0.680297
v 0.104954 -0.037500 0.368268
v 0.104954 -0.037500 0.368268
v 0.069258 -0.037498 -0.522762
v 0.074891 -0.037500 -0.455040
v 0.074891 -0.037500 -0.455040
v 0.099047 -0.037498 -0.609095
v 0.074608 -0.037498 0.544007
v 0.074608 -0.037498 0.544007
v 0.070336 -0.037498 0.495234
v 0.101851 -0.037500 0.429691
v 0.159027 -0.037500 0.561124
v 0.159808 -0.037500 -0.430560
v 0.246156 -0.037500 0.014997
v 0.245695 -0.037500 0.106899
v 0.289248 -0.037500 -0.437496
v 0.285548 -0.037500 0.168082
v 0.285548 -0.037500 0.168082
v 0.290406 -0.037500 -0.050050
v 0.358246 -0.037500 0.160817
v 0.375359 -0.037498 -0.050262
v 0.440331 -0.037500 0.126752
v 0.471692 -0.037500 -0.026009
v 0.505258 -0.037500 0.531315
v 0.505258 -0.037500 0.531315
v 0.504346 -0.037500 0.127376
v 0.504346 -0.037500 0.127376
v 0.543526 -0.037500 -0.037256
v 0.543526 -0.037500 -0.037256
v 0.505258 -0.037498 -0.470594
v 0.505258 -0.037498 -0.470594
v 0.530357 -0.037500 0.205205
v 0.528515 -0.037500 0.326850
v 0.551212 -0.037500 -0.255250
v 0.565110 -0.037500 -0.125109
vt 0.500000 0.500000
vt 0.500000 0.500000
vt 0.500000 0.500000
vt 0.500000 0.500000
vt 0.500000 0.500000
vt 0.500000 0.500000
vt 0.500000 0.500000
vt 0.500000 0.500000
vt 0.500000 0.500000
vt 0.500000 0.500000
vt 0.500000 0.500000
vt 0.500000 0.500000
vt 0.500000 0.500000
vt 0.500000 0.500000
vt 0.500000 0.500000
vt 0.500000 0.500000
vt 0.500000 0.500000
vt 0.500000 0.500000
vt 0.500000 0.500000
vt 0.500000 0.500000
vt 0.500000 0.500000
vt 0.500000 0.500000
vt 0.500000 0.500000
vt 0.500000 0.500000
vt 0.500000 0.500000
vt 0.500000 0.500000
vt 0.500000 0.500000
vt 0.500000 0.500000
vt 0.500000 0.500000
vt 0.500000 0.500000
vt 0.500000 0.500000
vt 0.500000 0.500000
vt 0.500000 0.500000
vt 0.500000 0.500000
vt 0.500000 0.500000
vt 0.500000 0.500000
vt 0.500000 0.500000
vt 0.500000 0.500000
vt 0.500000 0.500000
vt 0.500000 0.500000
vt 0.500000 0.500000
vt 0.500000 0.500000
vt 0.500000 0.500000
vt 0.500000 0.500000
vt 0.500000 0.500000
vt 0.500000 0.500000
vt 0.500000 0.500000
vt 0.500000 0.500000
vt 0.500000 0.500000
vt 0.500000 0.500000
vt 0.500000 0.500000
vt 0.500000 0.500000
vt 0.500000 0.500000
vt 0.500000 0.500000
vt 0.500000 0.500000
vt 0.500000 0.500000
vt 0.500000 0.500000
vt 0.500000 0.500000
vt 0.500000 0.500000
vt 0.500000 0.500000
vt 0.500000 0.500000
vt 0.500000 0.500000
vt 0.500000 0.500000
vt 0.500000 0.500000
vt 0.500000 0.500000
vt 0.500000 0.500000
vt 0.500000 0.500000
vt 0.500000 0.500000
vt 0.500000 0.500000
vt 0.500000 0.500000
vt 0.500000 0.500000
vt 0.500000 0.500000
vt 0.500000 0.500000
vt 0.500000 0.500000
vt 0.500000 0.500000
vt 0.500000 0.500000
vt 0.500000 0.500000
vt 0.500000 0.500000
vt 0.500000 0.500000
vt 0.500000 0.500000
vt 0.500000 0.500000
vt 0.500000 0.500000
vt 0.500000 0.500000
vt 0.500000 0.500000
vt 0.500000 0.500000
vt 0.500000 0.500000
vt 0.500000 0.500000
vt 0.500000 0.500000
vt 0.500000 0.500000
vt 0.500000 0.500000
vt 0.500000 0.500000
vt 0.500000 0.500000
vt 0.500000 0.500000
vt 0.500000 0.500000
vt 0.500000 0.500000
vt 0.500000 0.500000
vt 0.500000 0.500000
vt 0.500000 0.500000
vt 0.500000 0.500000
vt 0.500000 0.500000
vt 0.500000 0.500000
vt 0.500000 0.500000
vt 0.500000 0.500000
vt 0.500000 0.500000
vt 0.500000 0.500000
vt 0.500000 0.500000
vt 0.500000 0.500000
vt 0.500000 0.500000
vt 0.500000 0.500000
vt 0.500000 0.500000
vt 0.500000 0.500000
vt 0.500000 0.500000
vt 0.500000 0.500000
vt 0.500000 0.500000
vt 0.500000 0.500000
vt 0.500000 0.500000
vt 0.500000 0.500000
vt 0.500000 0.500000
vt 0.500000 0.500000
vt 0.500000 0.500000
vt 0.500000 0.500000
vt 0.500000 0.500000
vt 0.500000 0.500000
vt 0.500000 0.500000
vt 0.500000 0.500000
vt 0.500000 0.500000
vt 0.500000 0.500000
vt 0.500000 0.500000
vt 0.500000 0.500000
vt 0.500000 0.500000
vt 0.500000 0.500000
vt 0.500000 0.500000
vt 0.500000 0.500000
vt 0.500000 0.500000
vt 0.500000 0.500000
vt 0.500000 0.500000
vt 0.500000 0.500000
vt 0.500000 0.500000
vt 0.500000 0.500000
vt 0.500000 0.500000
vt 0.500000 0.500000
vt 0.500000 0.500000
vt 0.500000 0.500000
vt 0.500000 0.500000
vt 0.500000 0.500000
vt 0.500000 0.500000
vt 0.500000 0.500000
vt 0.500000 0.500000
vt 0.500000 0.500000
vt 0.500000 0.500000
vt 0.500000 0.500000
vt 0.500000 0.500000
vt 0.500000 0.500000
vt 0.500000 0.500000
vt 0.500000 0.500000
vt 0.500000 0.500000
vt 0.500000 0.500000
vt 0.500000 0.500000
vt 0.500000 0.500000
vt 0.500000 0.500000
vt 0.500000 0.500000
vt 0.500000 0.500000
vt 0.500000 0.500000
vt 0.500000 0.500000
vt 0.500000 0.500000
vt 0.500000 0.500000
vt 0.500000 0.500000
vt 0.500000 0.500000
vt 0.500000 0.500000
vt 0.500000 0.500000
vt 0.500000 0.500000
vt 0.500000 0.500000
vt 0.500000 0.500000
vt 0.500000 0.500000
vt 0.500000 0.500000
vt 0.500000 0.500000
vt 0.500000 0.500000
vt 0.500000 0.500000
vt 0.500000 0.500000
vt 0.500000 0.500000
vt 0.500000 0.500000
vt 0.500000 0.500000
vt 0.500000 0.500000
vt 0.500000 0.500000
vt 0.500000 0.500000
vt 0.500000 0.500000
vt 0.500000 0.500000
vt 0.500000 0.500000
vt 0.500000 0.500000
vt 0.500000 0.500000
vt 0.500000 0.500000
vt 0.500000 0.500000
vt 0.500000 0.500000
vt 0.500000 0.500000
vt 0.500000 0.500000
vt 0.500000 0.500000
vt 0.500000 0.500000
vt 0.500000 0.500000
vt 0.500000 0.500000
vt 0.500000 0.500000
vt 0.500000 0.500000
vt 0.500000 0.500000
vt 0.500000 0.500000
vt 0.500000 0.500000
vt 0.500000 0.500000
vt 0.500000 0.500000
vt 0.500000 0.500000
vt 0.500000 0.500000
vt 0.500000 0.500000
vt 0.500000 0.500000
vt 0.223070 0.911418
vt 0.225291 0.911324
vt 0.226192 0.915166
vt 0.203604 0.903259
vt 0.205633 0.900805
vt 0.218265 0.912758
vt 0.221657 0.924846
vt 0.219066 0.923324
vt 0.220377 0.913070
vt 0.193877 0.887599
vt 0.197672 0.887497
vt 0.199056 0.897042
vt 0.204883 0.890750
vt 0.205234 0.886766
vt 0.207974 0.885569
vt 0.188875 0.923241
vt 0.191235 0.924699
vt 0.186382 0.927519
vt 0.186582 0.933847
vt 0.198215 0.934879
vt 0.205640 0.896093
vt 0.217319 0.933844
vt 0.205197 0.938244
vt 0.205287 0.934361
vt 0.192586 0.911090
vt 0.198829 0.901074
vt 0.193801 0.914902
vt 0.200192 0.932561
vt 0.193207 0.924509
vt 0.218750 0.944444
vt 0.207387 0.947032
vt 0.212033 0.886340
vt 0.218750 0.888889
vt 0.217718 0.900869
vt 0.216806 0.927524
vt 0.198538 0.939038
vt 0.199796 0.943624
vt 0.197645 0.947797
vt 0.194066 0.920493
vt 0.199967 0.946945
vt 0.225749 0.920745
vt 0.193884 0.946935
vt 0.187500 0.944444
vt 0.217244 0.923450
vt 0.200738 0.903285
vt 0.203194 0.932381
vt 0.204280 0.942667
vt 0.217501 0.908048
vt 0.204548 0.945990
vt 0.187500 0.888889
vt 0.190670 0.911263
vt 0.188625 0.913010
vt 0.187104 0.912773
vt 0.186570 0.908091
vt 0.224138 0.924718
vt 0.200119 0.892490
vt 0.200099 0.888939
vt 0.187038 0.923418
vn 0.0000 -1.0000 0.0000
vn -0.9918 0.0000 0.1279
vn -0.9794 0.0000 -0.2021
vn -0.9793 0.0000 0.2023
vn 0.0913 0.0000 -0.9958
vn -0.1424 0.0000 0.9898
vn -0.9768 0.0000 0.2143
vn -0.9919 0.0000 -0.1270
vn 0.4384 0.0000 -0.8988
vn 0.3461 0.0000 0.9382
vn -0.1522 0.0000 0.9883
vn 0.2333 0.0000 -0.9724
vn 0.1365 0.0000 -0.9906
vn 0.0412 0.0000 0.9991
vn -0.8347 0.0000 -0.5507
vn -0.8829 0.0000 0.4696
vn -0.0562 0.0000 0.9984
vn 0.1429 0.0000 -0.9897
vn -0.9994 0.0000 -0.0336
vn -0.1876 0.0000 -0.9822
vn 0.2735 0.0000 0.9619
vn -0.9495 0.0000 0.3137
vn -0.9996 0.0000 -0.0292
vn -0.5848 0.0000 -0.8112
vn 0.9985 0.0000 0.0542
vn 0.9446 0.0000 -0.3283
vn 0.9985 0.0000 0.0541
vn 0.3553 0.0000 0.9348
vn -0.9992 0.0000 -0.0389
vn -0.1400 0.0000 -0.9901
vn -0.0838 0.0000 0.9965
vn 0.3851 0.0000 -0.9229
vn -0.4934 0.0000 0.8698
vn 0.9966 0.0000 -0.0829
vn 0.9453 0.0000 0.3262
vn 0.9997 0.0000 0.0238
vn -0.9962 0.0000 0.0873
vn -0.9012 0.0000 -0.4333
vn -0.1987 0.0000 0.9801
vn 0.2770 0.0000 -0.9609
vn -0.9987 0.0000 -0.0505
vn 1.0000 0.0000 0.0050
vn -0.0535 0.0000 -0.9986
vn 0.8379 0.0000 -0.5458
vn 0.8268 0.0000 0.5625
vn -0.0994 0.0000 -0.9950
vn 0.0025 0.0000 1.0000
vn -0.3833 0.0000 -0.9236
vn -0.2441 0.0000 0.9697
vn 0.0858 0.0000 0.9963
vn 0.0098 0.0000 -1.0000
vn 0.1547 0.0000 0.9880
vn -0.1515 0.0000 -0.9885
vn 0.9484 0.0000 -0.3170
vn 0.9936 0.0000 0.1130
vn 0.9999 0.0000 0.0151
vn 0.9780 0.0000 -0.2087
vn 0.9711 0.0000 0.2386
vn 0.9943 0.0000 -0.1062
vn 0.0000 1.0000 0.0000
usemtl BackMat.001
s off
f 240/1/1 231/2/1 233/3/1
f 247/4/1 238/5/1 252/6/1
f 223/7/1 237/8/1 222/9/1
f 266/10/1 253/11/1 265/12/1
f 256/13/1 268/14/1 261/15/1
f 226/16/1 216/17/1 227/18/1
f 208/19/1 210/20/1 227/18/1
f 254/21/1 268/14/1 256/13/1
f 209/22/1 212/23/1 207/24/1
f 235/25/1 232/26/1 250/27/1
f 214/28/1 228/29/1 210/20/1
f 209/22/1 199/30/1 204/31/1
f 267/32/1 249/33/1 263/34/1
f 217/35/1 212/23/1 209/22/1
f 209/22/1 207/24/1 199/30/1
f 266/10/1 235/25/1 250/27/1
f 206/36/1 194/37/1 200/38/1
f 228/29/1 214/28/1 230/39/1
f 200/38/1 194/37/1 195/40/1
f 216/17/1 208/19/1 227/18/1
f 225/41/1 237/8/1 223/7/1
f 194/37/1 206/36/1 193/42/1
f 202/43/1 193/42/1 208/19/1
f 218/44/1 238/5/1 247/4/1
f 218/44/1 222/9/1 238/5/1
f 250/27/1 232/26/1 248/45/1
f 248/45/1 215/46/1 247/4/1
f 207/24/1 201/47/1 199/30/1
f 227/18/1 210/20/1 228/29/1
f 252/6/1 238/5/1 246/48/1
f 267/32/1 254/21/1 249/33/1
f 199/30/1 201/47/1 197/49/1
f 252/6/1 246/48/1 249/33/1
f 230/39/1 215/46/1 248/45/1
f 225/41/1 231/2/1 240/1/1
f 238/5/1 222/9/1 237/8/1
f 268/14/1 254/21/1 267/32/1
f 210/20/1 208/19/1 193/42/1
f 232/26/1 230/39/1 248/45/1
f 193/42/1 206/36/1 210/20/1
f 257/50/1 235/25/1 266/10/1
f 218/44/1 212/23/1 217/35/1
f 257/50/1 244/51/1 235/25/1
f 254/21/1 252/6/1 249/33/1
f 215/46/1 218/44/1 247/4/1
f 243/52/1 245/53/1 241/54/1
f 244/51/1 245/53/1 243/52/1
f 225/41/1 223/7/1 224/55/1
f 215/46/1 212/23/1 218/44/1
f 237/8/1 225/41/1 240/1/1
f 253/11/1 255/56/1 265/12/1
f 266/10/1 250/27/1 253/11/1
f 265/12/1 255/56/1 259/57/1
f 245/53/1 244/51/1 257/50/1
f 230/39/1 214/28/1 215/46/1
f 220/58/1 216/17/1 226/16/1
f 45/59/2 46/60/2 104/61/2 103/62/2
f 46/60/3 120/63/3 196/64/3 104/61/3
f 122/65/4 57/66/4 115/67/4 198/68/4
f 47/69/5 48/70/5 106/71/5 105/72/5
f 55/73/6 56/74/6 114/75/6 113/76/6
f 127/77/7 45/59/7 103/62/7 203/78/7
f 57/66/8 129/79/8 205/80/8 115/67/8
f 48/70/9 49/81/9 107/82/9 106/71/9
f 54/83/10 55/73/10 113/76/10 112/84/10
f 43/85/11 44/86/11 102/87/11 101/88/11
f 58/89/12 1/90/12 59/91/12 116/92/12
f 49/81/13 135/93/13 211/94/13 107/82/13
f 137/95/14 54/83/14 112/84/14 213/96/14
f 50/97/15 51/98/15 109/99/15 108/100/15
f 52/101/16 53/102/16 111/103/16 110/104/16
f 42/105/17 43/85/17 101/88/17 100/106/17
f 1/90/18 2/107/18 60/108/18 59/91/18
f 51/98/19 52/101/19 110/104/19 109/99/19
f 2/107/20 143/109/20 219/110/20 60/108/20
f 145/111/21 42/105/21 100/106/21 221/112/21
f 4/113/22 5/114/22 63/115/22 62/116/22
f 5/114/23 6/117/23 64/118/23 63/115/23
f 6/117/24 7/119/24 65/120/24 64/118/24
f 40/121/25 41/122/25 99/123/25 98/124/25
f 39/125/26 40/121/26 98/124/26 97/126/26
f 153/127/27 39/125/27 97/126/27 229/128/27
f 37/129/28 38/130/28 96/131/28 95/132/28
f 3/133/29 4/113/29 62/116/29 61/134/29
f 7/119/30 8/135/30 66/136/30 65/120/30
f 36/137/31 37/129/31 95/132/31 94/138/31
f 8/135/32 158/139/32 234/140/32 66/136/32
f 160/141/33 36/137/33 94/138/33 236/142/33
f 11/143/34 163/144/34 239/145/34 69/146/34
f 10/147/35 11/143/35 69/146/35 68/148/35
f 9/149/36 10/147/36 68/148/36 67/150/36
f 166/151/37 33/152/37 91/153/37 242/154/37
f 33/152/38 34/155/38 92/156/38 91/153/38
f 31/157/39 32/158/39 90/159/39 89/160/39
f 12/161/40 13/162/40 71/163/40 70/164/40
f 34/155/41 35/165/41 93/166/41 92/156/41
f 22/167/42 23/168/42 81/169/42 80/170/42
f 13/162/43 14/171/43 72/172/43 71/163/43
f 23/168/44 175/173/44 251/174/44 81/169/44
f 21/175/45 22/167/45 80/170/45 79/176/45
f 24/177/46 25/178/46 83/179/46 82/180/46
f 20/181/47 21/175/47 79/176/47 78/182/47
f 25/178/48 26/183/48 84/184/48 83/179/48
f 19/185/49 20/181/49 78/182/49 77/186/49
f 182/187/50 31/157/50 89/160/50 258/188/50
f 26/183/51 184/189/51 260/190/51 84/184/51
f 186/191/52 19/185/52 77/186/52 262/192/52
f 14/171/53 188/193/53 264/194/53 72/172/53
f 27/195/54 28/196/54 86/197/54 85/198/54
f 29/199/55 30/200/55 88/201/55 87/202/55
f 28/196/56 29/199/56 87/202/56 86/197/56
f 15/203/57 16/204/57 74/205/57 73/206/57
f 17/207/58 18/208/58 76/209/58 75/210/58
f 16/204/59 17/207/59 75/210/59 74/205/59
usemtl FrontMat.001
f 164/211/60 157/212/60 155/213/60
f 171/214/60 176/215/60 162/216/60
f 147/217/60 146/218/60 161/219/60
f 190/220/60 189/221/60 177/222/60
f 180/223/60 185/224/60 192/225/60
f 150/226/60 151/227/60 140/228/60
f 132/229/60 151/227/60 134/230/60
f 178/231/60 180/223/60 192/225/60
f 133/232/60 131/233/60 136/234/60
f 159/235/60 174/236/60 156/237/60
f 138/238/60 134/230/60 152/239/60
f 133/232/60 128/240/60 123/241/60
f 191/242/60 187/243/60 173/244/60
f 141/245/60 133/232/60 136/234/60
f 133/232/60 123/241/60 131/233/60
f 190/220/60 174/236/60 159/235/60
f 130/246/60 124/247/60 118/248/60
f 152/239/60 154/249/60 138/238/60
f 124/247/60 119/250/60 118/248/60
f 140/228/60 151/227/60 132/229/60
f 149/251/60 147/217/60 161/219/60
f 118/248/60 117/252/60 130/246/60
f 126/253/60 132/229/60 117/252/60
f 142/254/60 171/214/60 162/216/60
f 142/254/60 162/216/60 146/218/60
f 174/236/60 172/255/60 156/237/60
f 172/255/60 171/214/60 139/256/60
f 131/233/60 123/241/60 125/257/60
f 151/227/60 152/239/60 134/230/60
f 176/215/60 170/258/60 162/216/60
f 191/242/60 173/244/60 178/231/60
f 123/241/60 121/259/60 125/257/60
f 176/215/60 173/244/60 170/258/60
f 154/249/60 172/255/60 139/256/60
f 149/251/60 164/211/60 155/213/60
f 162/216/60 161/219/60 146/218/60
f 192/225/60 191/242/60 178/231/60
f 134/230/60 117/252/60 132/229/60
f 156/237/60 172/255/60 154/249/60
f 117/252/60 134/230/60 130/246/60
f 181/260/60 190/220/60 159/235/60
f 142/254/60 141/245/60 136/234/60
f 181/260/60 159/235/60 168/261/60
f 178/231/60 173/244/60 176/215/60
f 139/256/60 171/214/60 142/254/60
f 167/262/60 165/263/60 169/264/60
f 168/261/60 167/262/60 169/264/60
f 149/251/60 148/265/60 147/217/60
f 139/256/60 142/254/60 136/234/60
f 161/219/60 164/211/60 149/251/60
f 177/222/60 189/221/60 179/266/60
f 190/220/60 177/222/60 174/236/60
f 189/221/60 183/267/60 179/266/60
f 169/264/60 181/260/60 168/261/60
f 154/249/60 139/256/60 138/238/60
f 144/268/60 150/226/60 140/228/60
