# Blender v2.83.1 OBJ File: 'jigsaw-32x18-3-step2.blend'
# www.blender.org
mtllib piece.523.mtl
o path2206
v -0.454981 0.037500 0.261707
v -0.452114 0.037500 0.132065
v -0.481238 0.037500 0.046217
v -0.553439 0.037500 0.038706
v -0.642337 0.037500 0.066185
v -0.712188 0.037500 0.065830
v -0.734807 0.037500 -0.004622
v -0.712255 0.037500 -0.105289
v -0.654153 0.037500 -0.175745
v -0.572790 0.037500 -0.175707
v -0.491144 0.037500 -0.145508
v -0.434862 0.037500 -0.145617
v -0.421716 0.037500 -0.218208
v -0.437968 0.037500 -0.332258
v -0.482747 0.037500 -0.524233
v -0.274802 0.037500 -0.549099
v -0.152142 0.037500 -0.552748
v -0.076048 0.037500 -0.529812
v -0.080891 0.037500 -0.470058
v -0.121397 0.037500 -0.391275
v -0.132385 0.037500 -0.318264
v -0.069598 0.037500 -0.273064
v 0.027514 0.037500 -0.266636
v 0.098577 0.037500 -0.307175
v 0.103272 0.037500 -0.394758
v 0.081512 0.037500 -0.497000
v 0.093266 0.037500 -0.573393
v 0.179810 0.037500 -0.594785
v 0.307704 0.037500 -0.577449
v 0.519162 0.037500 -0.524233
v 0.558543 0.037500 -0.316284
v 0.568824 0.037500 -0.192621
v 0.545592 0.037500 -0.113634
v 0.475536 0.037500 -0.113297
v 0.384082 0.037500 -0.148218
v 0.306286 0.037500 -0.155663
v 0.270715 0.037500 -0.093451
v 0.279970 0.037500 -0.001621
v 0.330161 0.037500 0.059227
v 0.412871 0.037500 0.049570
v 0.501576 0.037500 0.014204
v 0.565223 0.037500 0.018986
v 0.581862 0.037500 0.109104
v 0.519162 0.037500 0.477465
v 0.293817 0.037500 0.459841
v 0.158011 0.037500 0.461443
v 0.067182 0.037500 0.489916
v 0.057578 0.037500 0.554144
v 0.086363 0.037500 0.633148
v 0.090938 0.037500 0.698486
v 0.028807 0.037500 0.726976
v -0.062125 0.037500 0.716486
v -0.123848 0.037500 0.670149
v -0.118091 0.037500 0.595058
v -0.085534 0.037500 0.514160
v -0.086596 0.037500 0.454353
v -0.163088 0.037500 0.434803
v -0.282375 0.037500 0.443737
v -0.482747 0.037500 0.477465
v -0.454981 -0.037500 0.261707
v -0.452114 -0.037498 0.132065
v -0.481238 -0.037500 0.046217
v -0.553439 -0.037500 0.038706
v -0.642337 -0.037500 0.066185
v -0.712188 -0.037498 0.065830
v -0.734807 -0.037500 -0.004622
v -0.712255 -0.037500 -0.105289
v -0.654153 -0.037500 -0.175745
v -0.572790 -0.037500 -0.175707
v -0.491144 -0.037500 -0.145508
v -0.434862 -0.037500 -0.145617
v -0.421716 -0.037500 -0.218208
v -0.437968 -0.037500 -0.332258
v -0.482747 -0.037500 -0.524233
v -0.274802 -0.037500 -0.549099
v -0.152142 -0.037500 -0.552748
v -0.076048 -0.037500 -0.529812
v -0.080891 -0.037500 -0.470058
v -0.121397 -0.037500 -0.391275
v -0.132385 -0.037500 -0.318264
v -0.069598 -0.037500 -0.273064
v 0.027514 -0.037498 -0.266636
v 0.098577 -0.037500 -0.307175
v 0.103272 -0.037498 -0.394758
v 0.081512 -0.037500 -0.497000
v 0.093266 -0.037500 -0.573393
v 0.179810 -0.037500 -0.594785
v 0.307704 -0.037500 -0.577449
v 0.519162 -0.037500 -0.524233
v 0.558543 -0.037500 -0.316284
v 0.568824 -0.037500 -0.192621
v 0.545592 -0.037500 -0.113634
v 0.475536 -0.037500 -0.113297
v 0.384082 -0.037500 -0.148218
v 0.306286 -0.037500 -0.155663
v 0.270715 -0.037500 -0.093451
v 0.279970 -0.037500 -0.001621
v 0.330161 -0.037500 0.059227
v 0.412871 -0.037498 0.049570
v 0.501576 -0.037500 0.014204
v 0.565223 -0.037498 0.018986
v 0.581862 -0.037500 0.109104
v 0.519162 -0.037500 0.477465
v 0.293817 -0.037500 0.459841
v 0.158011 -0.037500 0.461443
v 0.067182 -0.037500 0.489916
v 0.057578 -0.037500 0.554144
v 0.086363 -0.037500 0.633148
v 0.090938 -0.037500 0.698486
v 0.028807 -0.037500 0.726976
v -0.062125 -0.037500 0.716486
v -0.123848 -0.037500 0.670149
v -0.118091 -0.037500 0.595058
v -0.085534 -0.037500 0.514160
v -0.086596 -0.037500 0.454353
v -0.163088 -0.037500 0.434803
v -0.282375 -0.037500 0.443737
v -0.482747 -0.037498 0.477465
v 0.093266 0.037500 -0.573393
v 0.093266 0.037500 -0.573393
v 0.179810 0.037500 -0.594785
v 0.307704 0.037500 -0.577449
v 0.081512 0.037500 -0.497000
v -0.274802 0.037500 -0.549099
v -0.152142 0.037500 -0.552748
v -0.076048 0.037500 -0.529812
v -0.076048 0.037500 -0.529812
v -0.482747 0.037500 -0.524233
v -0.482747 0.037500 -0.524233
v 0.519162 0.037500 -0.524233
v 0.519162 0.037500 -0.524233
v -0.080891 0.037500 -0.470058
v 0.103272 0.037500 -0.394758
v -0.121397 0.037500 -0.391275
v -0.437968 0.037500 -0.332258
v 0.558543 0.037500 -0.316284
v 0.098577 0.037500 -0.307175
v -0.132385 0.037500 -0.318264
v -0.132385 0.037500 -0.318264
v -0.421716 0.037500 -0.218208
v -0.069598 0.037500 -0.273064
v 0.568824 0.037500 -0.192621
v 0.027514 0.037500 -0.266636
v -0.434862 0.037500 -0.145617
v -0.434862 0.037500 -0.145617
v 0.384082 0.037500 -0.148218
v 0.306286 0.037500 -0.155663
v 0.306286 0.037500 -0.155663
v 0.545592 0.037500 -0.113634
v 0.545592 0.037500 -0.113634
v -0.712255 0.037500 -0.105289
v -0.654153 0.037500 -0.175745
v -0.572790 0.037500 -0.175707
v -0.491144 0.037500 -0.145508
v 0.270715 0.037500 -0.093451
v 0.475536 0.037500 -0.113297
v -0.734807 0.037500 -0.004622
v 0.279970 0.037500 -0.001621
v -0.712188 0.037500 0.065830
v -0.712188 0.037500 0.065830
v 0.330161 0.037500 0.059227
v 0.412871 0.037500 0.049570
v 0.501576 0.037500 0.014204
v 0.565223 0.037500 0.018986
v 0.565223 0.037500 0.018986
v 0.581862 0.037500 0.109104
v -0.642337 0.037500 0.066185
v -0.553439 0.037500 0.038706
v -0.481238 0.037500 0.046217
v -0.481238 0.037500 0.046217
v -0.452114 0.037500 0.132065
v -0.454981 0.037500 0.261707
v -0.163088 0.037500 0.434803
v -0.282375 0.037500 0.443737
v -0.086596 0.037500 0.454353
v -0.086596 0.037500 0.454353
v 0.519162 0.037500 0.477465
v 0.519162 0.037500 0.477465
v 0.293817 0.037500 0.459841
v -0.482747 0.037500 0.477465
v -0.482747 0.037500 0.477465
v -0.085534 0.037500 0.514160
v 0.158011 0.037500 0.461443
v 0.067182 0.037500 0.489916
v 0.067182 0.037500 0.489916
v 0.057578 0.037500 0.554144
v -0.118091 0.037500 0.595058
v 0.086363 0.037500 0.633148
v -0.123848 0.037500 0.670149
v 0.090938 0.037500 0.698486
v 0.090938 0.037500 0.698486
v -0.062125 0.037500 0.716486
v 0.028807 0.037500 0.726976
v 0.093266 -0.037500 -0.573393
v 0.093266 -0.037500 -0.573393
v 0.179810 -0.037500 -0.594785
v 0.307704 -0.037500 -0.577449
v 0.081512 -0.037500 -0.497000
v -0.274802 -0.037500 -0.549099
v -0.152142 -0.037500 -0.552748
v -0.076048 -0.037500 -0.529812
v -0.076048 -0.037500 -0.529812
v -0.482747 -0.037500 -0.524233
v -0.482747 -0.037500 -0.524233
v 0.519162 -0.037500 -0.524233
v 0.519162 -0.037500 -0.524233
v -0.080891 -0.037500 -0.470058
v 0.103272 -0.037498 -0.394758
v -0.121397 -0.037500 -0.391275
v -0.437968 -0.037500 -0.332258
v 0.558543 -0.037500 -0.316284
v 0.098577 -0.037500 -0.307175
v -0.132385 -0.037500 -0.318264
v -0.132385 -0.037500 -0.318264
v -0.421716 -0.037500 -0.218208
v -0.069598 -0.037500 -0.273064
v 0.568824 -0.037500 -0.192621
v 0.027514 -0.037498 -0.266636
v -0.434862 -0.037500 -0.145617
v -0.434862 -0.037500 -0.145617
v 0.384082 -0.037500 -0.148218
v 0.306286 -0.037500 -0.155663
v 0.306286 -0.037500 -0.155663
v 0.545592 -0.037500 -0.113634
v 0.545592 -0.037500 -0.113634
v -0.712255 -0.037500 -0.105289
v -0.654153 -0.037500 -0.175745
v -0.572790 -0.037500 -0.175707
v -0.491144 -0.037500 -0.145508
v 0.270715 -0.037500 -0.093451
v 0.475536 -0.037500 -0.113297
v -0.734807 -0.037500 -0.004622
v 0.279970 -0.037500 -0.001621
v -0.712188 -0.037498 0.065830
v -0.712188 -0.037498 0.065830
v 0.330161 -0.037500 0.059227
v 0.412871 -0.037498 0.049570
v 0.501576 -0.037500 0.014204
v 0.565223 -0.037498 0.018986
v 0.565223 -0.037498 0.018986
v 0.581862 -0.037500 0.109104
v -0.642337 -0.037500 0.066185
v -0.553439 -0.037500 0.038706
v -0.481238 -0.037500 0.046217
v -0.481238 -0.037500 0.046217
v -0.452114 -0.037498 0.132065
v -0.454981 -0.037500 0.261707
v -0.163088 -0.037500 0.434803
v -0.282375 -0.037500 0.443737
v -0.086596 -0.037500 0.454353
v -0.086596 -0.037500 0.454353
v 0.519162 -0.037500 0.477465
v 0.519162 -0.037500 0.477465
v 0.293817 -0.037500 0.459841
v -0.482747 -0.037498 0.477465
v -0.482747 -0.037498 0.477465
v -0.085534 -0.037500 0.514160
v 0.158011 -0.037500 0.461443
v 0.067182 -0.037500 0.489916
v 0.067182 -0.037500 0.489916
v 0.057578 -0.037500 0.554144
v -0.118091 -0.037500 0.595058
v 0.086363 -0.037500 0.633148
v -0.123848 -0.037500 0.670149
v 0.090938 -0.037500 0.698486
v 0.090938 -0.037500 0.698486
v -0.062125 -0.037500 0.716486
v 0.028807 -0.037500 0.726976
vt 0.500000 0.500000
vt 0.500000 0.500000
vt 0.500000 0.500000
vt 0.500000 0.500000
vt 0.500000 0.500000
vt 0.500000 0.500000
vt 0.500000 0.500000
vt 0.500000 0.500000
vt 0.500000 0.500000
vt 0.500000 0.500000
vt 0.500000 0.500000
vt 0.500000 0.500000
vt 0.500000 0.500000
vt 0.500000 0.500000
vt 0.500000 0.500000
vt 0.500000 0.500000
vt 0.500000 0.500000
vt 0.500000 0.500000
vt 0.500000 0.500000
vt 0.500000 0.500000
vt 0.500000 0.500000
vt 0.500000 0.500000
vt 0.500000 0.500000
vt 0.500000 0.500000
vt 0.500000 0.500000
vt 0.500000 0.500000
vt 0.500000 0.500000
vt 0.500000 0.500000
vt 0.500000 0.500000
vt 0.500000 0.500000
vt 0.500000 0.500000
vt 0.500000 0.500000
vt 0.500000 0.500000
vt 0.500000 0.500000
vt 0.500000 0.500000
vt 0.500000 0.500000
vt 0.500000 0.500000
vt 0.500000 0.500000
vt 0.500000 0.500000
vt 0.500000 0.500000
vt 0.500000 0.500000
vt 0.500000 0.500000
vt 0.500000 0.500000
vt 0.500000 0.500000
vt 0.500000 0.500000
vt 0.500000 0.500000
vt 0.500000 0.500000
vt 0.500000 0.500000
vt 0.500000 0.500000
vt 0.500000 0.500000
vt 0.500000 0.500000
vt 0.500000 0.500000
vt 0.500000 0.500000
vt 0.500000 0.500000
vt 0.500000 0.500000
vt 0.500000 0.500000
vt 0.500000 0.500000
vt 0.500000 0.500000
vt 0.500000 0.500000
vt 0.500000 0.500000
vt 0.500000 0.500000
vt 0.500000 0.500000
vt 0.500000 0.500000
vt 0.500000 0.500000
vt 0.500000 0.500000
vt 0.500000 0.500000
vt 0.500000 0.500000
vt 0.500000 0.500000
vt 0.500000 0.500000
vt 0.500000 0.500000
vt 0.500000 0.500000
vt 0.500000 0.500000
vt 0.500000 0.500000
vt 0.500000 0.500000
vt 0.500000 0.500000
vt 0.500000 0.500000
vt 0.500000 0.500000
vt 0.500000 0.500000
vt 0.500000 0.500000
vt 0.500000 0.500000
vt 0.500000 0.500000
vt 0.500000 0.500000
vt 0.500000 0.500000
vt 0.500000 0.500000
vt 0.500000 0.500000
vt 0.500000 0.500000
vt 0.500000 0.500000
vt 0.500000 0.500000
vt 0.500000 0.500000
vt 0.500000 0.500000
vt 0.500000 0.500000
vt 0.500000 0.500000
vt 0.500000 0.500000
vt 0.500000 0.500000
vt 0.500000 0.500000
vt 0.500000 0.500000
vt 0.500000 0.500000
vt 0.500000 0.500000
vt 0.500000 0.500000
vt 0.500000 0.500000
vt 0.500000 0.500000
vt 0.500000 0.500000
vt 0.500000 0.500000
vt 0.500000 0.500000
vt 0.500000 0.500000
vt 0.500000 0.500000
vt 0.500000 0.500000
vt 0.500000 0.500000
vt 0.500000 0.500000
vt 0.500000 0.500000
vt 0.500000 0.500000
vt 0.500000 0.500000
vt 0.500000 0.500000
vt 0.500000 0.500000
vt 0.500000 0.500000
vt 0.500000 0.500000
vt 0.500000 0.500000
vt 0.500000 0.500000
vt 0.500000 0.500000
vt 0.500000 0.500000
vt 0.500000 0.500000
vt 0.500000 0.500000
vt 0.500000 0.500000
vt 0.500000 0.500000
vt 0.500000 0.500000
vt 0.500000 0.500000
vt 0.500000 0.500000
vt 0.500000 0.500000
vt 0.500000 0.500000
vt 0.500000 0.500000
vt 0.500000 0.500000
vt 0.500000 0.500000
vt 0.500000 0.500000
vt 0.500000 0.500000
vt 0.500000 0.500000
vt 0.500000 0.500000
vt 0.500000 0.500000
vt 0.500000 0.500000
vt 0.500000 0.500000
vt 0.500000 0.500000
vt 0.500000 0.500000
vt 0.500000 0.500000
vt 0.500000 0.500000
vt 0.500000 0.500000
vt 0.500000 0.500000
vt 0.500000 0.500000
vt 0.500000 0.500000
vt 0.500000 0.500000
vt 0.500000 0.500000
vt 0.500000 0.500000
vt 0.500000 0.500000
vt 0.500000 0.500000
vt 0.500000 0.500000
vt 0.500000 0.500000
vt 0.500000 0.500000
vt 0.500000 0.500000
vt 0.500000 0.500000
vt 0.500000 0.500000
vt 0.500000 0.500000
vt 0.500000 0.500000
vt 0.500000 0.500000
vt 0.500000 0.500000
vt 0.500000 0.500000
vt 0.500000 0.500000
vt 0.500000 0.500000
vt 0.500000 0.500000
vt 0.500000 0.500000
vt 0.500000 0.500000
vt 0.500000 0.500000
vt 0.500000 0.500000
vt 0.500000 0.500000
vt 0.500000 0.500000
vt 0.500000 0.500000
vt 0.500000 0.500000
vt 0.500000 0.500000
vt 0.500000 0.500000
vt 0.500000 0.500000
vt 0.500000 0.500000
vt 0.500000 0.500000
vt 0.500000 0.500000
vt 0.500000 0.500000
vt 0.500000 0.500000
vt 0.500000 0.500000
vt 0.500000 0.500000
vt 0.500000 0.500000
vt 0.500000 0.500000
vt 0.500000 0.500000
vt 0.500000 0.500000
vt 0.500000 0.500000
vt 0.500000 0.500000
vt 0.500000 0.500000
vt 0.500000 0.500000
vt 0.500000 0.500000
vt 0.500000 0.500000
vt 0.500000 0.500000
vt 0.500000 0.500000
vt 0.500000 0.500000
vt 0.500000 0.500000
vt 0.500000 0.500000
vt 0.500000 0.500000
vt 0.500000 0.500000
vt 0.500000 0.500000
vt 0.500000 0.500000
vt 0.500000 0.500000
vt 0.500000 0.500000
vt 0.500000 0.500000
vt 0.500000 0.500000
vt 0.500000 0.500000
vt 0.500000 0.500000
vt 0.323874 0.049034
vt 0.325619 0.042299
vt 0.329353 0.051303
vt 0.324856 0.056837
vt 0.332486 0.056444
vt 0.336289 0.082126
vt 0.339537 0.090257
vt 0.342389 0.088320
vt 0.345299 0.092719
vt 0.330632 0.099073
vt 0.328415 0.096824
vt 0.336001 0.087219
vt 0.337154 0.114063
vt 0.330778 0.103930
vt 0.337110 0.090670
vt 0.344978 0.099578
vt 0.310295 0.079890
vt 0.312547 0.079473
vt 0.312238 0.090106
vt 0.330251 0.046921
vt 0.323771 0.103737
vt 0.318986 0.112490
vt 0.313897 0.100464
vt 0.333165 0.115024
vt 0.330466 0.113838
vt 0.330099 0.109601
vt 0.343750 0.055556
vt 0.345706 0.075985
vt 0.340435 0.079287
vt 0.313455 0.074712
vt 0.322470 0.057922
vt 0.325386 0.097181
vt 0.343750 0.111111
vt 0.324889 0.053520
vt 0.329652 0.054865
vt 0.309692 0.091781
vt 0.305341 0.087876
vt 0.345187 0.080983
vt 0.343201 0.081249
vt 0.312500 0.111111
vt 0.322812 0.112693
vt 0.325034 0.108106
vt 0.314404 0.094139
vt 0.313994 0.090112
vt 0.323428 0.099688
vt 0.305344 0.078385
vt 0.307522 0.078366
vt 0.304638 0.082293
vt 0.313366 0.067522
vt 0.318750 0.057426
vt 0.312500 0.055556
vt 0.307154 0.091783
vt 0.344574 0.088339
vt 0.328456 0.041717
vt 0.336721 0.056533
vt 0.337855 0.078752
vt 0.323694 0.044869
vt 0.325185 0.111420
vt 0.330393 0.043297
vn 0.0000 -1.0000 0.0000
vn -0.2400 0.0000 -0.9708
vn 0.1343 0.0000 -0.9909
vn -0.9884 0.0000 -0.1521
vn -0.0297 0.0000 -0.9996
vn 0.2886 0.0000 -0.9575
vn -0.1187 0.0000 -0.9929
vn 0.2441 0.0000 -0.9698
vn 0.9967 0.0000 0.0808
vn -0.9781 0.0000 0.2082
vn 0.8893 0.0000 0.4573
vn -0.9739 0.0000 0.2272
vn 0.9825 0.0000 -0.1861
vn -0.9986 0.0000 -0.0535
vn 0.9889 0.0000 0.1488
vn -0.9900 0.0000 0.1411
vn 0.5843 0.0000 -0.8116
vn 0.9966 0.0000 -0.0828
vn -0.4955 0.0000 -0.8686
vn 0.0660 0.0000 -0.9978
vn -0.9840 0.0000 -0.1782
vn -0.0953 0.0000 0.9955
vn 0.9594 0.0000 0.2822
vn -0.7715 0.0000 -0.6362
vn 0.0005 0.0000 -1.0000
vn 0.3469 0.0000 -0.9379
vn 0.8681 0.0000 0.4964
vn -0.3567 0.0000 0.9342
vn 0.0048 0.0000 1.0000
vn -0.0019 0.0000 -1.0000
vn -0.9758 0.0000 -0.2186
vn 0.9950 0.0000 -0.1003
vn -0.9521 0.0000 0.3057
vn 0.7714 0.0000 -0.6363
vn -0.3703 0.0000 -0.9289
vn 0.0749 0.0000 -0.9972
vn 0.9834 0.0000 -0.1816
vn -0.0051 0.0000 1.0000
vn 0.2953 0.0000 0.9554
vn -0.1035 0.0000 0.9946
vn -0.9470 0.0000 0.3213
vn -0.1160 0.0000 -0.9933
vn -0.9998 0.0000 -0.0221
vn 0.0747 0.0000 0.9972
vn -0.2476 0.0000 0.9689
vn -0.0780 0.0000 0.9970
vn 0.9858 0.0000 0.1678
vn -0.9918 0.0000 -0.1276
vn -0.9998 0.0000 0.0178
vn 0.0118 0.0000 0.9999
vn 0.2991 0.0000 0.9542
vn 0.1660 0.0000 0.9861
vn 0.9890 0.0000 0.1479
vn -0.9277 0.0000 -0.3733
vn 0.9396 0.0000 -0.3423
vn -0.9971 0.0000 -0.0764
vn 0.9976 0.0000 -0.0698
vn -0.6004 0.0000 0.7997
vn -0.1146 0.0000 0.9934
vn 0.4168 0.0000 0.9090
vn 0.0000 1.0000 0.0000
usemtl BackMat.001
s off
f 262/1/1 261/2/1 267/3/1
f 250/4/1 233/5/1 258/6/1
f 221/7/1 217/8/1 231/9/1
f 212/10/1 230/11/1 218/12/1
f 197/13/1 222/14/1 208/15/1
f 222/14/1 211/16/1 221/7/1
f 243/17/1 229/18/1 244/19/1
f 263/20/1 267/3/1 261/2/1
f 209/21/1 210/22/1 199/23/1
f 196/24/1 198/25/1 194/26/1
f 252/27/1 237/28/1 241/29/1
f 246/30/1 216/31/1 248/32/1
f 211/16/1 197/13/1 205/33/1
f 250/4/1 259/34/1 257/35/1
f 261/2/1 257/35/1 259/34/1
f 243/17/1 226/36/1 228/37/1
f 230/11/1 212/10/1 222/14/1
f 221/7/1 211/16/1 217/8/1
f 241/29/1 238/38/1 239/39/1
f 199/23/1 210/22/1 203/40/1
f 200/41/1 209/21/1 199/23/1
f 209/21/1 200/41/1 207/42/1
f 215/43/1 213/44/1 219/45/1
f 197/13/1 208/15/1 196/24/1
f 234/46/1 232/47/1 242/48/1
f 208/15/1 198/25/1 196/24/1
f 208/15/1 222/14/1 212/10/1
f 257/35/1 261/2/1 262/1/1
f 210/22/1 213/44/1 215/43/1
f 247/49/1 248/32/1 249/50/1
f 247/49/1 249/50/1 255/51/1
f 213/44/1 210/22/1 209/21/1
f 227/52/1 228/37/1 226/36/1
f 250/4/1 258/6/1 259/34/1
f 219/45/1 213/44/1 216/31/1
f 233/5/1 218/12/1 230/11/1
f 216/31/1 233/5/1 248/32/1
f 211/16/1 222/14/1 197/13/1
f 216/31/1 218/12/1 233/5/1
f 231/9/1 217/8/1 224/53/1
f 268/54/1 267/3/1 263/20/1
f 258/6/1 236/55/1 254/56/1
f 264/57/1 262/1/1 267/3/1
f 244/19/1 219/45/1 246/30/1
f 242/48/1 226/36/1 243/17/1
f 229/18/1 243/17/1 228/37/1
f 201/58/1 207/42/1 200/41/1
f 254/56/1 237/28/1 252/27/1
f 233/5/1 236/55/1 258/6/1
f 219/45/1 244/19/1 229/18/1
f 232/47/1 226/36/1 242/48/1
f 268/54/1 263/20/1 265/59/1
f 246/30/1 219/45/1 216/31/1
f 254/56/1 236/55/1 237/28/1
f 237/28/1 238/38/1 241/29/1
f 248/32/1 233/5/1 250/4/1
f 246/30/1 248/32/1 247/49/1
f 120/60/2 28/61/2 87/62/2 195/63/2
f 28/61/3 29/64/3 88/65/3 87/62/3
f 26/66/4 27/67/4 86/68/4 85/69/4
f 16/70/5 17/71/5 76/72/5 75/73/5
f 17/71/6 127/74/6 202/75/6 76/72/6
f 129/76/7 16/70/7 75/73/7 204/77/7
f 29/64/8 131/78/8 206/79/8 88/65/8
f 18/80/9 19/81/9 78/82/9 77/83/9
f 25/84/10 26/66/10 85/69/10 84/85/10
f 19/81/11 20/86/11 79/87/11 78/82/11
f 14/88/12 15/89/12 74/90/12 73/91/12
f 30/92/13 31/93/13 90/94/13 89/95/13
f 24/96/14 25/84/14 84/85/14 83/97/14
f 20/86/15 139/98/15 214/99/15 79/87/15
f 13/100/16 14/88/16 73/91/16 72/101/16
f 21/102/17 22/103/17 81/104/17 80/105/17
f 31/93/18 32/106/18 91/107/18 90/94/18
f 23/108/19 24/96/19 83/97/19 82/109/19
f 22/103/20 23/108/20 82/109/20 81/104/20
f 145/110/21 13/100/21 72/101/21 220/111/21
f 35/112/22 148/113/22 223/114/22 94/115/22
f 32/106/23 150/116/23 225/117/23 91/107/23
f 8/118/24 9/119/24 68/120/24 67/121/24
f 9/119/25 10/122/25 69/123/25 68/120/25
f 10/122/26 11/124/26 70/125/26 69/123/26
f 36/126/27 37/127/27 96/128/27 95/129/27
f 34/130/28 35/112/28 94/115/28 93/131/28
f 33/132/29 34/130/29 93/131/29 92/133/29
f 11/124/30 12/134/30 71/135/30 70/125/30
f 7/136/31 8/118/31 67/121/31 66/137/31
f 37/127/32 38/138/32 97/139/32 96/128/32
f 160/140/33 7/136/33 66/137/33 235/141/33
f 38/138/34 39/142/34 98/143/34 97/139/34
f 40/144/35 41/145/35 100/146/35 99/147/35
f 41/145/36 165/148/36 240/149/36 100/146/36
f 42/150/37 43/151/37 102/152/37 101/153/37
f 5/154/38 6/155/38 65/156/38 64/157/38
f 4/158/39 5/154/39 64/157/39 63/159/39
f 170/160/40 4/158/40 63/159/40 245/161/40
f 2/162/41 3/163/41 62/164/41 61/165/41
f 39/142/42 40/144/42 99/147/42 98/143/42
f 1/166/43 2/162/43 61/165/43 60/167/43
f 57/168/44 58/169/44 117/170/44 116/171/44
f 176/172/45 57/168/45 116/171/45 251/173/45
f 178/174/46 45/175/46 104/176/46 253/177/46
f 43/151/47 44/178/47 103/179/47 102/152/47
f 181/180/48 1/166/48 60/167/48 256/181/48
f 55/182/49 56/183/49 115/184/49 114/185/49
f 45/175/50 46/186/50 105/187/50 104/176/50
f 46/186/51 185/188/51 260/189/51 105/187/51
f 58/169/52 59/190/52 118/191/52 117/170/52
f 47/192/53 48/193/53 107/194/53 106/195/53
f 54/196/54 55/182/54 114/185/54 113/197/54
f 48/193/55 49/198/55 108/199/55 107/194/55
f 53/200/56 54/196/56 113/197/56 112/201/56
f 49/198/57 191/202/57 266/203/57 108/199/57
f 52/204/58 53/200/58 112/201/58 111/205/58
f 51/206/59 52/204/59 111/205/59 110/207/59
f 50/208/60 51/206/60 110/207/60 109/209/60
usemtl FrontMat.001
f 187/210/61 192/211/61 186/212/61
f 175/213/61 183/214/61 158/215/61
f 146/216/61 156/217/61 142/218/61
f 137/219/61 143/220/61 155/221/61
f 122/222/61 133/223/61 147/224/61
f 147/224/61 146/216/61 136/225/61
f 168/226/61 169/227/61 154/228/61
f 188/229/61 186/212/61 192/211/61
f 134/230/61 124/231/61 135/232/61
f 121/233/61 119/234/61 123/235/61
f 177/236/61 166/237/61 162/238/61
f 171/239/61 173/240/61 141/241/61
f 136/225/61 130/242/61 122/222/61
f 175/213/61 182/243/61 184/244/61
f 186/212/61 184/244/61 182/243/61
f 168/226/61 153/245/61 151/246/61
f 155/221/61 147/224/61 137/219/61
f 146/216/61 142/218/61 136/225/61
f 166/237/61 164/247/61 163/248/61
f 124/231/61 128/249/61 135/232/61
f 125/250/61 124/231/61 134/230/61
f 134/230/61 132/251/61 125/250/61
f 140/252/61 144/253/61 138/254/61
f 122/222/61 121/233/61 133/223/61
f 159/255/61 167/256/61 157/257/61
f 133/223/61 121/233/61 123/235/61
f 133/223/61 137/219/61 147/224/61
f 182/243/61 187/210/61 186/212/61
f 135/232/61 140/252/61 138/254/61
f 172/258/61 174/259/61 173/240/61
f 172/258/61 180/260/61 174/259/61
f 138/254/61 134/230/61 135/232/61
f 152/261/61 151/246/61 153/245/61
f 175/213/61 184/244/61 183/214/61
f 144/253/61 141/241/61 138/254/61
f 158/215/61 155/221/61 143/220/61
f 141/241/61 173/240/61 158/215/61
f 136/225/61 122/222/61 147/224/61
f 141/241/61 158/215/61 143/220/61
f 156/217/61 149/262/61 142/218/61
f 193/263/61 188/229/61 192/211/61
f 183/214/61 179/264/61 161/265/61
f 189/266/61 192/211/61 187/210/61
f 169/227/61 171/239/61 144/253/61
f 167/256/61 168/226/61 151/246/61
f 154/228/61 153/245/61 168/226/61
f 126/267/61 125/250/61 132/251/61
f 179/264/61 177/236/61 162/238/61
f 158/215/61 183/214/61 161/265/61
f 144/253/61 154/228/61 169/227/61
f 157/257/61 167/256/61 151/246/61
f 193/263/61 190/268/61 188/229/61
f 171/239/61 141/241/61 144/253/61
f 179/264/61 162/238/61 161/265/61
f 162/238/61 166/237/61 163/248/61
f 173/240/61 175/213/61 158/215/61
f 171/239/61 172/258/61 173/240/61
