# Blender v2.83.1 OBJ File: 'jigsaw-32x18-3-step2.blend'
# www.blender.org
mtllib piece.383.mtl
o path1926
v -0.315910 0.037500 -0.424245
v -0.200588 0.037500 -0.404751
v -0.127636 0.037500 -0.419429
v -0.128620 0.037500 -0.483822
v -0.160751 0.037500 -0.574660
v -0.162651 0.037500 -0.658970
v -0.093393 0.037500 -0.709192
v 0.006159 0.037500 -0.719447
v 0.074690 0.037500 -0.689260
v 0.071871 0.037500 -0.622972
v 0.041340 0.037500 -0.544157
v 0.047728 0.037500 -0.481193
v 0.135571 0.037500 -0.454886
v 0.269033 0.037500 -0.455759
v 0.491549 0.037500 -0.477139
v 0.458385 0.037500 -0.275576
v 0.451284 0.037500 -0.156269
v 0.475382 0.037500 -0.081334
v 0.542961 0.037500 -0.083632
v 0.632126 0.037500 -0.118563
v 0.712421 0.037500 -0.122164
v 0.758139 0.037500 -0.051744
v 0.762508 0.037500 0.050297
v 0.723505 0.037500 0.120298
v 0.644907 0.037500 0.116232
v 0.553701 0.037500 0.082643
v 0.482674 0.037500 0.085710
v 0.455666 0.037500 0.171204
v 0.460701 0.037500 0.303283
v 0.491549 0.037500 0.524559
v 0.268244 0.037500 0.578107
v 0.134293 0.037500 0.595438
v 0.046118 0.037500 0.573592
v 0.039701 0.037500 0.495876
v 0.070436 0.037500 0.390430
v 0.073572 0.037500 0.296598
v 0.005407 0.037500 0.246923
v -0.093531 0.037500 0.246718
v -0.161663 0.037500 0.294495
v -0.158052 0.037500 0.383049
v -0.124269 0.037500 0.482368
v -0.122528 0.037500 0.556726
v -0.196173 0.037500 0.580482
v -0.313055 0.037500 0.568345
v -0.510361 0.037500 0.524559
v -0.456865 0.037500 0.295583
v -0.438280 0.037500 0.157906
v -0.456417 0.037500 0.066534
v -0.527576 0.037500 0.058508
v -0.626698 0.037500 0.090124
v -0.718376 0.037500 0.097496
v -0.772768 0.037500 0.037083
v -0.782261 0.037500 -0.053227
v -0.744797 0.037500 -0.115199
v -0.664488 0.037500 -0.110301
v -0.570127 0.037500 -0.078834
v -0.496687 0.037500 -0.080801
v -0.469595 0.037500 -0.157693
v -0.476143 0.037500 -0.277006
v -0.510361 0.037500 -0.477139
v -0.315910 -0.037498 -0.424245
v -0.200588 -0.037500 -0.404751
v -0.127636 -0.037498 -0.419429
v -0.128620 -0.037500 -0.483822
v -0.160751 -0.037500 -0.574660
v -0.162651 -0.037500 -0.658970
v -0.093393 -0.037500 -0.709192
v 0.006159 -0.037500 -0.719447
v 0.074690 -0.037500 -0.689260
v 0.071871 -0.037500 -0.622972
v 0.041340 -0.037500 -0.544157
v 0.047728 -0.037500 -0.481193
v 0.135571 -0.037498 -0.454886
v 0.269033 -0.037500 -0.455759
v 0.491549 -0.037498 -0.477139
v 0.458385 -0.037500 -0.275576
v 0.451284 -0.037500 -0.156269
v 0.475382 -0.037500 -0.081334
v 0.542961 -0.037500 -0.083632
v 0.632126 -0.037500 -0.118563
v 0.712421 -0.037500 -0.122164
v 0.758139 -0.037500 -0.051744
v 0.762508 -0.037498 0.050297
v 0.723505 -0.037500 0.120298
v 0.644907 -0.037500 0.116232
v 0.553701 -0.037500 0.082643
v 0.482674 -0.037500 0.085710
v 0.455666 -0.037500 0.171204
v 0.460701 -0.037500 0.303283
v 0.491549 -0.037498 0.524559
v 0.268244 -0.037498 0.578107
v 0.134293 -0.037500 0.595438
v 0.046118 -0.037498 0.573592
v 0.039701 -0.037500 0.495876
v 0.070436 -0.037500 0.390430
v 0.073572 -0.037500 0.296598
v 0.005407 -0.037500 0.246923
v -0.093531 -0.037500 0.246718
v -0.161663 -0.037500 0.294495
v -0.158052 -0.037498 0.383049
v -0.124269 -0.037500 0.482368
v -0.122528 -0.037500 0.556726
v -0.196173 -0.037500 0.580482
v -0.313055 -0.037500 0.568345
v -0.510361 -0.037500 0.524559
v -0.456865 -0.037500 0.295583
v -0.438280 -0.037498 0.157906
v -0.456417 -0.037500 0.066534
v -0.527576 -0.037500 0.058508
v -0.626698 -0.037500 0.090124
v -0.718376 -0.037500 0.097496
v -0.772768 -0.037500 0.037083
v -0.782261 -0.037500 -0.053227
v -0.744797 -0.037500 -0.115199
v -0.664488 -0.037498 -0.110301
v -0.570127 -0.037500 -0.078834
v -0.496687 -0.037500 -0.080801
v -0.469595 -0.037500 -0.157693
v -0.476143 -0.037500 -0.277006
v -0.510361 -0.037500 -0.477139
v -0.093393 0.037500 -0.709192
v 0.006159 0.037500 -0.719447
v 0.074690 0.037500 -0.689260
v 0.074690 0.037500 -0.689260
v -0.162651 0.037500 -0.658970
v 0.071871 0.037500 -0.622972
v -0.160751 0.037500 -0.574660
v 0.041340 0.037500 -0.544157
v -0.128620 0.037500 -0.483822
v 0.047728 0.037500 -0.481193
v 0.047728 0.037500 -0.481193
v -0.127636 0.037500 -0.419429
v -0.127636 0.037500 -0.419429
v 0.135571 0.037500 -0.454886
v 0.269033 0.037500 -0.455759
v 0.491549 0.037500 -0.477139
v 0.491549 0.037500 -0.477139
v -0.510361 0.037500 -0.477139
v -0.510361 0.037500 -0.477139
v -0.315910 0.037500 -0.424245
v -0.200588 0.037500 -0.404751
v -0.476143 0.037500 -0.277006
v 0.458385 0.037500 -0.275576
v -0.469595 0.037500 -0.157693
v 0.451284 0.037500 -0.156269
v -0.496687 0.037500 -0.080801
v -0.496687 0.037500 -0.080801
v 0.475382 0.037500 -0.081334
v 0.475382 0.037500 -0.081334
v 0.632126 0.037500 -0.118563
v 0.712421 0.037500 -0.122164
v 0.758139 0.037500 -0.051744
v 0.542961 0.037500 -0.083632
v -0.782261 0.037500 -0.053227
v -0.744797 0.037500 -0.115199
v -0.744797 0.037500 -0.115199
v -0.664488 0.037500 -0.110301
v -0.570127 0.037500 -0.078834
v -0.772768 0.037500 0.037083
v 0.762508 0.037500 0.050297
v -0.718376 0.037500 0.097496
v 0.723505 0.037500 0.120298
v 0.723505 0.037500 0.120298
v -0.626698 0.037500 0.090124
v -0.527576 0.037500 0.058508
v -0.456417 0.037500 0.066534
v -0.456417 0.037500 0.066534
v -0.438280 0.037500 0.157906
v 0.553701 0.037500 0.082643
v 0.482674 0.037500 0.085710
v 0.482674 0.037500 0.085710
v 0.644907 0.037500 0.116232
v 0.455666 0.037500 0.171204
v -0.456865 0.037500 0.295583
v 0.005407 0.037500 0.246923
v -0.093531 0.037500 0.246718
v 0.460701 0.037500 0.303283
v -0.161663 0.037500 0.294495
v 0.073572 0.037500 0.296598
v -0.158052 0.037500 0.383049
v 0.070436 0.037500 0.390430
v -0.124269 0.037500 0.482368
v 0.039701 0.037500 0.495876
v -0.510361 0.037500 0.524559
v -0.510361 0.037500 0.524559
v -0.122528 0.037500 0.556726
v -0.122528 0.037500 0.556726
v 0.046118 0.037500 0.573592
v 0.046118 0.037500 0.573592
v 0.491549 0.037500 0.524559
v 0.491549 0.037500 0.524559
v -0.313055 0.037500 0.568345
v 0.268244 0.037500 0.578107
v -0.196173 0.037500 0.580482
v 0.134293 0.037500 0.595438
v -0.093393 -0.037500 -0.709192
v 0.006159 -0.037500 -0.719447
v 0.074690 -0.037500 -0.689260
v 0.074690 -0.037500 -0.689260
v -0.162651 -0.037500 -0.658970
v 0.071871 -0.037500 -0.622972
v -0.160751 -0.037500 -0.574660
v 0.041340 -0.037500 -0.544157
v -0.128620 -0.037500 -0.483822
v 0.047728 -0.037500 -0.481193
v 0.047728 -0.037500 -0.481193
v -0.127636 -0.037498 -0.419429
v -0.127636 -0.037498 -0.419429
v 0.135571 -0.037498 -0.454886
v 0.269033 -0.037500 -0.455759
v 0.491549 -0.037498 -0.477139
v 0.491549 -0.037498 -0.477139
v -0.510361 -0.037500 -0.477139
v -0.510361 -0.037500 -0.477139
v -0.315910 -0.037498 -0.424245
v -0.200588 -0.037500 -0.404751
v -0.476143 -0.037500 -0.277006
v 0.458385 -0.037500 -0.275576
v -0.469595 -0.037500 -0.157693
v 0.451284 -0.037500 -0.156269
v -0.496687 -0.037500 -0.080801
v -0.496687 -0.037500 -0.080801
v 0.475382 -0.037500 -0.081334
v 0.475382 -0.037500 -0.081334
v 0.632126 -0.037500 -0.118563
v 0.712421 -0.037500 -0.122164
v 0.758139 -0.037500 -0.051744
v 0.542961 -0.037500 -0.083632
v -0.782261 -0.037500 -0.053227
v -0.744797 -0.037500 -0.115199
v -0.744797 -0.037500 -0.115199
v -0.664488 -0.037498 -0.110301
v -0.570127 -0.037500 -0.078834
v -0.772768 -0.037500 0.037083
v 0.762508 -0.037498 0.050297
v -0.718376 -0.037500 0.097496
v 0.723505 -0.037500 0.120298
v 0.723505 -0.037500 0.120298
v -0.626698 -0.037500 0.090124
v -0.527576 -0.037500 0.058508
v -0.456417 -0.037500 0.066534
v -0.456417 -0.037500 0.066534
v -0.438280 -0.037498 0.157906
v 0.553701 -0.037500 0.082643
v 0.482674 -0.037500 0.085710
v 0.482674 -0.037500 0.085710
v 0.644907 -0.037500 0.116232
v 0.455666 -0.037500 0.171204
v -0.456865 -0.037500 0.295583
v 0.005407 -0.037500 0.246923
v -0.093531 -0.037500 0.246718
v 0.460701 -0.037500 0.303283
v -0.161663 -0.037500 0.294495
v 0.073572 -0.037500 0.296598
v -0.158052 -0.037498 0.383049
v 0.070436 -0.037500 0.390430
v -0.124269 -0.037500 0.482368
v 0.039701 -0.037500 0.495876
v -0.510361 -0.037500 0.524559
v -0.510361 -0.037500 0.524559
v -0.122528 -0.037500 0.556726
v -0.122528 -0.037500 0.556726
v 0.046118 -0.037498 0.573592
v 0.046118 -0.037498 0.573592
v 0.491549 -0.037498 0.524559
v 0.491549 -0.037498 0.524559
v -0.313055 -0.037500 0.568345
v 0.268244 -0.037498 0.578107
v -0.196173 -0.037500 0.580482
v 0.134293 -0.037500 0.595438
vt 0.500000 0.500000
vt 0.500000 0.500000
vt 0.500000 0.500000
vt 0.500000 0.500000
vt 0.500000 0.500000
vt 0.500000 0.500000
vt 0.500000 0.500000
vt 0.500000 0.500000
vt 0.500000 0.500000
vt 0.500000 0.500000
vt 0.500000 0.500000
vt 0.500000 0.500000
vt 0.500000 0.500000
vt 0.500000 0.500000
vt 0.500000 0.500000
vt 0.500000 0.500000
vt 0.500000 0.500000
vt 0.500000 0.500000
vt 0.500000 0.500000
vt 0.500000 0.500000
vt 0.500000 0.500000
vt 0.500000 0.500000
vt 0.500000 0.500000
vt 0.500000 0.500000
vt 0.500000 0.500000
vt 0.500000 0.500000
vt 0.500000 0.500000
vt 0.500000 0.500000
vt 0.500000 0.500000
vt 0.500000 0.500000
vt 0.500000 0.500000
vt 0.500000 0.500000
vt 0.500000 0.500000
vt 0.500000 0.500000
vt 0.500000 0.500000
vt 0.500000 0.500000
vt 0.500000 0.500000
vt 0.500000 0.500000
vt 0.500000 0.500000
vt 0.500000 0.500000
vt 0.500000 0.500000
vt 0.500000 0.500000
vt 0.500000 0.500000
vt 0.500000 0.500000
vt 0.500000 0.500000
vt 0.500000 0.500000
vt 0.500000 0.500000
vt 0.500000 0.500000
vt 0.500000 0.500000
vt 0.500000 0.500000
vt 0.500000 0.500000
vt 0.500000 0.500000
vt 0.500000 0.500000
vt 0.500000 0.500000
vt 0.500000 0.500000
vt 0.500000 0.500000
vt 0.500000 0.500000
vt 0.500000 0.500000
vt 0.500000 0.500000
vt 0.500000 0.500000
vt 0.500000 0.500000
vt 0.500000 0.500000
vt 0.500000 0.500000
vt 0.500000 0.500000
vt 0.500000 0.500000
vt 0.500000 0.500000
vt 0.500000 0.500000
vt 0.500000 0.500000
vt 0.500000 0.500000
vt 0.500000 0.500000
vt 0.500000 0.500000
vt 0.500000 0.500000
vt 0.500000 0.500000
vt 0.500000 0.500000
vt 0.500000 0.500000
vt 0.500000 0.500000
vt 0.500000 0.500000
vt 0.500000 0.500000
vt 0.500000 0.500000
vt 0.500000 0.500000
vt 0.500000 0.500000
vt 0.500000 0.500000
vt 0.500000 0.500000
vt 0.500000 0.500000
vt 0.500000 0.500000
vt 0.500000 0.500000
vt 0.500000 0.500000
vt 0.500000 0.500000
vt 0.500000 0.500000
vt 0.500000 0.500000
vt 0.500000 0.500000
vt 0.500000 0.500000
vt 0.500000 0.500000
vt 0.500000 0.500000
vt 0.500000 0.500000
vt 0.500000 0.500000
vt 0.500000 0.500000
vt 0.500000 0.500000
vt 0.500000 0.500000
vt 0.500000 0.500000
vt 0.500000 0.500000
vt 0.500000 0.500000
vt 0.500000 0.500000
vt 0.500000 0.500000
vt 0.500000 0.500000
vt 0.500000 0.500000
vt 0.500000 0.500000
vt 0.500000 0.500000
vt 0.500000 0.500000
vt 0.500000 0.500000
vt 0.500000 0.500000
vt 0.500000 0.500000
vt 0.500000 0.500000
vt 0.500000 0.500000
vt 0.500000 0.500000
vt 0.500000 0.500000
vt 0.500000 0.500000
vt 0.500000 0.500000
vt 0.500000 0.500000
vt 0.500000 0.500000
vt 0.500000 0.500000
vt 0.500000 0.500000
vt 0.500000 0.500000
vt 0.500000 0.500000
vt 0.500000 0.500000
vt 0.500000 0.500000
vt 0.500000 0.500000
vt 0.500000 0.500000
vt 0.500000 0.500000
vt 0.500000 0.500000
vt 0.500000 0.500000
vt 0.500000 0.500000
vt 0.500000 0.500000
vt 0.500000 0.500000
vt 0.500000 0.500000
vt 0.500000 0.500000
vt 0.500000 0.500000
vt 0.500000 0.500000
vt 0.500000 0.500000
vt 0.500000 0.500000
vt 0.500000 0.500000
vt 0.500000 0.500000
vt 0.500000 0.500000
vt 0.500000 0.500000
vt 0.500000 0.500000
vt 0.500000 0.500000
vt 0.500000 0.500000
vt 0.500000 0.500000
vt 0.500000 0.500000
vt 0.500000 0.500000
vt 0.500000 0.500000
vt 0.500000 0.500000
vt 0.500000 0.500000
vt 0.500000 0.500000
vt 0.500000 0.500000
vt 0.500000 0.500000
vt 0.500000 0.500000
vt 0.500000 0.500000
vt 0.500000 0.500000
vt 0.500000 0.500000
vt 0.500000 0.500000
vt 0.500000 0.500000
vt 0.500000 0.500000
vt 0.500000 0.500000
vt 0.500000 0.500000
vt 0.500000 0.500000
vt 0.500000 0.500000
vt 0.500000 0.500000
vt 0.500000 0.500000
vt 0.500000 0.500000
vt 0.500000 0.500000
vt 0.500000 0.500000
vt 0.500000 0.500000
vt 0.500000 0.500000
vt 0.500000 0.500000
vt 0.500000 0.500000
vt 0.500000 0.500000
vt 0.500000 0.500000
vt 0.500000 0.500000
vt 0.500000 0.500000
vt 0.500000 0.500000
vt 0.500000 0.500000
vt 0.500000 0.500000
vt 0.500000 0.500000
vt 0.500000 0.500000
vt 0.500000 0.500000
vt 0.500000 0.500000
vt 0.500000 0.500000
vt 0.500000 0.500000
vt 0.500000 0.500000
vt 0.500000 0.500000
vt 0.500000 0.500000
vt 0.500000 0.500000
vt 0.500000 0.500000
vt 0.500000 0.500000
vt 0.500000 0.500000
vt 0.500000 0.500000
vt 0.500000 0.500000
vt 0.500000 0.500000
vt 0.500000 0.500000
vt 0.500000 0.500000
vt 0.500000 0.500000
vt 0.500000 0.500000
vt 0.500000 0.500000
vt 0.500000 0.500000
vt 0.500000 0.500000
vt 0.500000 0.500000
vt 0.500000 0.500000
vt 0.500000 0.500000
vt 0.500000 0.500000
vt 0.955660 0.396977
vt 0.955748 0.400653
vt 0.953610 0.402328
vt 0.932693 0.368543
vt 0.929019 0.365378
vt 0.929316 0.360369
vt 0.977065 0.365296
vt 0.975639 0.369201
vt 0.973135 0.369002
vt 0.970354 0.367064
vt 0.968246 0.366937
vt 0.968473 0.357673
vt 0.931012 0.357019
vt 0.933871 0.357428
vt 0.953587 0.348731
vt 0.970689 0.357843
vt 0.949407 0.389259
vt 0.949437 0.385688
vt 0.954907 0.389114
vt 0.967494 0.371093
vt 0.967716 0.377710
vt 0.961810 0.387703
vt 0.948489 0.341182
vt 0.948376 0.346093
vt 0.939169 0.346033
vt 0.949597 0.331549
vt 0.949542 0.335673
vt 0.947300 0.330232
vt 0.950501 0.348743
vt 0.938771 0.371172
vt 0.939183 0.358736
vt 0.943654 0.330905
vt 0.943565 0.385955
vt 0.937500 0.388889
vt 0.938567 0.377789
vt 0.954708 0.392606
vt 0.947162 0.384874
vt 0.975985 0.355754
vt 0.977201 0.359637
vt 0.973533 0.355980
vt 0.936963 0.359181
vt 0.935636 0.366798
vt 0.950505 0.401759
vt 0.948404 0.394298
vt 0.961785 0.330363
vt 0.968750 0.333333
vt 0.967788 0.345606
vt 0.937927 0.366907
vt 0.939748 0.353668
vt 0.955615 0.340772
vt 0.954657 0.334924
vt 0.957607 0.329402
vt 0.955713 0.345976
vt 0.967631 0.352931
vt 0.937500 0.333333
vt 0.957647 0.387655
vt 0.948345 0.398973
vt 0.968750 0.388889
vt 0.954857 0.330614
vt 0.930188 0.368815
vn 0.0000 -1.0000 0.0000
vn 0.0000 -1.0000 0.0001
vn -0.1025 0.0000 -0.9947
vn 0.4031 0.0000 -0.9152
vn -0.5870 0.0000 -0.8096
vn 0.9991 0.0000 0.0425
vn -0.9997 0.0000 0.0225
vn 0.9325 0.0000 0.3612
vn -0.9428 0.0000 0.3335
vn 0.9949 0.0000 -0.1009
vn -0.9999 0.0000 0.0153
vn 0.2869 0.0000 -0.9580
vn -0.0956 0.0000 -0.9954
vn -0.0065 0.0000 -1.0000
vn 0.2625 0.0000 -0.9649
vn 0.1667 0.0000 -0.9860
vn -0.1972 0.0000 -0.9804
vn -0.9857 0.0000 0.1685
vn 0.9867 0.0000 0.1623
vn -0.9985 0.0000 0.0548
vn 0.9982 0.0000 0.0594
vn -0.9432 0.0000 -0.3323
vn 0.9520 0.0000 -0.3061
vn -0.0448 0.0000 -0.9990
vn 0.8387 0.0000 -0.5445
vn -0.3648 0.0000 -0.9311
vn -0.8558 0.0000 -0.5173
vn 0.0609 0.0000 -0.9981
vn 0.3164 0.0000 -0.9486
vn -0.0340 0.0000 -0.9994
vn -0.0268 0.0000 -0.9996
vn -0.9945 0.0000 0.1045
vn 0.9991 0.0000 -0.0428
vn -0.7432 0.0000 0.6691
vn 0.8736 0.0000 0.4867
vn 0.0802 0.0000 0.9968
vn 0.3039 0.0000 0.9527
vn -0.1121 0.0000 0.9937
vn -0.9809 0.0000 0.1947
vn 0.0431 0.0000 0.9991
vn -0.3456 0.0000 0.9384
vn -0.0517 0.0000 0.9987
vn 0.9536 0.0000 0.3012
vn -0.9910 0.0000 -0.1338
vn -0.0021 0.0000 1.0000
vn 0.9993 0.0000 -0.0381
vn 0.5741 0.0000 0.8188
vn -0.5890 0.0000 0.8082
vn 0.9992 0.0000 -0.0407
vn -0.9994 0.0000 -0.0334
vn 0.9467 0.0000 -0.3220
vn -0.9600 0.0000 -0.2798
vn -0.9738 0.0000 -0.2275
vn 0.9997 0.0000 -0.0234
vn -0.9966 0.0000 0.0823
vn 0.9904 0.0000 -0.1381
vn -0.2166 0.0000 0.9762
vn 0.2332 0.0000 0.9724
vn -0.1033 0.0000 0.9947
vn 0.3070 0.0000 0.9517
vn -0.2405 0.0000 0.9707
vn 0.1283 0.0000 0.9917
vn 0.0000 1.0000 0.0000
usemtl BackMat.001
s off
f 201/1/1 197/2/1 198/3/1
f 232/4/1 234/5/1 229/6/1
f 227/7/1 225/8/1 226/9/1
f 228/10/1 245/11/1 223/12/1
f 234/5/1 239/13/1 236/14/1
f 245/11/1 250/15/1 223/12/1
f 244/16/1 245/11/1 228/10/1
f 204/17/1 205/18/1 207/19/1
f 220/20/1 210/21/1 218/22/1
f 255/23/1 249/24/1 253/25/1
f 261/26/1 269/27/1 257/28/1
f 239/13/1 234/5/1 232/4/1
f 250/15/1 251/29/1 207/19/1
f 251/29/1 241/30/1 219/31/1
f 249/24/1 255/23/1 267/32/1
f 215/33/1 217/34/1 213/35/1
f 205/18/1 204/17/1 203/36/1
f 223/12/1 250/15/1 220/20/1
f 251/29/1 219/31/1 216/37/1
f 237/38/1 247/39/1 235/40/1
f 227/7/1 247/39/1 225/8/1
f 239/13/1 233/41/1 240/42/1
f 203/36/1 202/43/1 196/44/1
f 268/45/1 252/46/1 265/47/1
f 241/30/1 240/42/1 221/48/1
f 243/49/1 253/25/1 249/24/1
f 221/48/1 240/42/1 233/41/1
f 256/50/1 270/51/1 258/52/1
f 257/28/1 267/32/1 255/23/1
f 251/29/1 243/49/1 241/30/1
f 207/19/1 251/29/1 216/37/1
f 252/46/1 256/50/1 254/53/1
f 245/11/1 248/54/1 250/15/1
f 249/24/1 267/32/1 259/55/1
f 217/34/1 216/37/1 219/31/1
f 216/37/1 217/34/1 215/33/1
f 233/41/1 239/13/1 232/4/1
f 253/25/1 243/49/1 251/29/1
f 244/16/1 225/8/1 247/39/1
f 204/17/1 202/43/1 203/36/1
f 220/20/1 250/15/1 209/56/1
f 248/54/1 254/53/1 250/15/1
f 241/30/1 221/48/1 219/31/1
f 209/56/1 250/15/1 207/19/1
f 270/51/1 256/50/1 268/45/1
f 225/8/1 244/16/1 228/10/1
f 220/20/1 209/56/1 210/21/1
f 209/56/2 207/19/2 205/18/2
f 235/40/1 247/39/1 227/7/1
f 196/44/1 202/43/1 200/57/1
f 201/1/1 196/44/1 197/2/1
f 252/46/1 254/53/1 248/54/1
f 267/32/1 257/28/1 269/27/1
f 268/45/1 256/50/1 252/46/1
f 218/22/1 210/21/1 211/58/1
f 258/52/1 270/51/1 263/59/1
f 232/4/1 229/6/1 230/60/1
f 203/36/1 196/44/1 201/1/1
f 7/61/3 8/62/3 68/63/3 67/64/3
f 8/62/4 124/65/4 199/66/4 68/63/4
f 6/67/5 7/61/5 67/64/5 66/68/5
f 9/69/6 10/70/6 70/71/6 69/72/6
f 5/73/7 6/67/7 66/68/7 65/74/7
f 10/70/8 11/75/8 71/76/8 70/71/8
f 4/77/9 5/73/9 65/74/9 64/78/9
f 11/75/10 131/79/10 206/80/10 71/76/10
f 133/81/11 4/77/11 64/78/11 208/82/11
f 12/83/12 13/84/12 73/85/12 72/86/12
f 14/87/13 137/88/13 212/89/13 74/90/13
f 13/84/14 14/87/14 74/90/14 73/85/14
f 139/91/15 1/92/15 61/93/15 214/94/15
f 1/92/16 2/95/16 62/96/16 61/93/16
f 2/95/17 3/97/17 63/98/17 62/96/17
f 59/99/18 60/100/18 120/101/18 119/102/18
f 15/103/19 16/104/19 76/105/19 75/106/19
f 58/107/20 59/99/20 119/102/20 118/108/20
f 16/104/21 17/109/21 77/110/21 76/105/21
f 147/111/22 58/107/22 118/108/22 222/112/22
f 17/109/23 149/113/23 224/114/23 77/110/23
f 20/115/24 21/116/24 81/117/24 80/118/24
f 21/116/25 22/119/25 82/120/25 81/117/25
f 19/121/26 20/115/26 80/118/26 79/122/26
f 53/123/27 156/124/27 231/125/27 113/126/27
f 54/127/28 55/128/28 115/129/28 114/130/28
f 55/128/29 56/131/29 116/132/29 115/129/29
f 18/133/30 19/121/30 79/122/30 78/134/30
f 56/131/31 57/135/31 117/136/31 116/132/31
f 52/137/32 53/123/32 113/126/32 112/138/32
f 22/119/33 23/139/33 83/140/33 82/120/33
f 51/141/34 52/137/34 112/138/34 111/142/34
f 23/139/35 163/143/35 238/144/35 83/140/35
f 50/145/36 51/141/36 111/142/36 110/146/36
f 49/147/37 50/145/37 110/146/37 109/148/37
f 167/149/38 49/147/38 109/148/38 242/150/38
f 47/151/39 48/152/39 108/153/39 107/154/39
f 26/155/40 171/156/40 246/157/40 86/158/40
f 25/159/41 26/155/41 86/158/41 85/160/41
f 24/161/42 25/159/42 85/160/42 84/162/42
f 27/163/43 28/164/43 88/165/43 87/166/43
f 46/167/44 47/151/44 107/154/44 106/168/44
f 37/169/45 38/170/45 98/171/45 97/172/45
f 28/164/46 29/173/46 89/174/46 88/165/46
f 38/170/47 39/175/47 99/176/47 98/171/47
f 36/177/48 37/169/48 97/172/48 96/178/48
f 39/175/49 40/179/49 100/180/49 99/176/49
f 35/181/50 36/177/50 96/178/50 95/182/50
f 40/179/51 41/183/51 101/184/51 100/180/51
f 34/185/52 35/181/52 95/182/52 94/186/52
f 185/187/53 46/167/53 106/168/53 260/188/53
f 41/183/54 187/189/54 262/190/54 101/184/54
f 189/191/55 34/185/55 94/186/55 264/192/55
f 29/173/56 191/193/56 266/194/56 89/174/56
f 44/195/57 45/196/57 105/197/57 104/198/57
f 30/199/58 31/200/58 91/201/58 90/202/58
f 43/203/59 44/195/59 104/198/59 103/204/59
f 42/205/60 43/203/60 103/204/60 102/206/60
f 32/207/61 33/208/61 93/209/61 92/210/61
f 31/200/62 32/207/62 92/210/62 91/201/62
usemtl FrontMat.001
f 126/211/63 123/212/63 122/213/63
f 157/214/63 154/215/63 159/216/63
f 152/217/63 151/218/63 150/219/63
f 153/220/63 148/221/63 170/222/63
f 159/216/63 161/223/63 164/224/63
f 170/222/63 148/221/63 175/225/63
f 169/226/63 153/220/63 170/222/63
f 129/227/63 132/228/63 130/229/63
f 145/230/63 143/231/63 135/232/63
f 180/233/63 178/234/63 174/235/63
f 186/236/63 182/237/63 194/238/63
f 164/224/63 157/214/63 159/216/63
f 175/225/63 132/228/63 176/239/63
f 176/239/63 144/240/63 166/241/63
f 174/235/63 192/242/63 180/233/63
f 140/243/63 138/244/63 142/245/63
f 130/229/63 128/246/63 129/227/63
f 148/221/63 145/230/63 175/225/63
f 176/239/63 141/247/63 144/240/63
f 162/248/63 160/249/63 172/250/63
f 152/217/63 150/219/63 172/250/63
f 164/224/63 165/251/63 158/252/63
f 128/246/63 121/253/63 127/254/63
f 193/255/63 190/256/63 177/257/63
f 166/241/63 146/258/63 165/251/63
f 168/259/63 174/235/63 178/234/63
f 146/258/63 158/252/63 165/251/63
f 181/260/63 183/261/63 195/262/63
f 182/237/63 180/233/63 192/242/63
f 176/239/63 166/241/63 168/259/63
f 132/228/63 141/247/63 176/239/63
f 177/257/63 179/263/63 181/260/63
f 170/222/63 175/225/63 173/264/63
f 174/235/63 184/265/63 192/242/63
f 142/245/63 144/240/63 141/247/63
f 141/247/63 140/243/63 142/245/63
f 158/252/63 157/214/63 164/224/63
f 178/234/63 176/239/63 168/259/63
f 169/226/63 172/250/63 150/219/63
f 129/227/63 128/246/63 127/254/63
f 145/230/63 134/266/63 175/225/63
f 173/264/63 175/225/63 179/263/63
f 166/241/63 144/240/63 146/258/63
f 134/266/63 132/228/63 175/225/63
f 195/262/63 193/255/63 181/260/63
f 150/219/63 153/220/63 169/226/63
f 145/230/63 135/232/63 134/266/63
f 134/266/63 130/229/63 132/228/63
f 160/249/63 152/217/63 172/250/63
f 121/253/63 125/267/63 127/254/63
f 126/211/63 122/213/63 121/253/63
f 177/257/63 173/264/63 179/263/63
f 192/242/63 194/238/63 182/237/63
f 193/255/63 177/257/63 181/260/63
f 143/231/63 136/268/63 135/232/63
f 183/261/63 188/269/63 195/262/63
f 157/214/63 155/270/63 154/215/63
f 128/246/63 126/211/63 121/253/63
