# Blender v2.83.1 OBJ File: 'jigsaw-32x18-3-step2.blend'
# www.blender.org
mtllib piece.476.mtl
o path2112
v 0.564243 0.037500 -0.310289
v 0.576014 0.037500 -0.195858
v 0.550959 0.037500 -0.120832
v 0.474610 0.037500 -0.115660
v 0.376144 0.037500 -0.140013
v 0.295590 0.037500 -0.135881
v 0.264538 0.037500 -0.064766
v 0.280836 0.037500 0.033842
v 0.333894 0.037500 0.100933
v 0.410849 0.037500 0.097849
v 0.489792 0.037500 0.067329
v 0.546556 0.037500 0.072460
v 0.564162 0.037500 0.156769
v 0.520302 0.037500 0.500624
v 0.323232 0.037500 0.478346
v 0.206057 0.037500 0.477640
v 0.131246 0.037500 0.505632
v 0.130583 0.037500 0.572138
v 0.160823 0.037500 0.654375
v 0.159965 0.037500 0.721420
v 0.086768 0.037500 0.748302
v -0.016974 0.037500 0.733843
v -0.088714 0.037500 0.682817
v -0.087091 0.037500 0.603821
v -0.055489 0.037500 0.520758
v -0.058474 0.037500 0.461363
v -0.140827 0.037500 0.445175
v -0.481396 0.037500 0.500624
v -0.434237 0.037500 0.134991
v -0.449752 0.037500 0.048487
v -0.503489 0.037500 0.049276
v -0.576549 0.037500 0.089153
v -0.642460 0.037500 0.098473
v -0.679238 0.037500 0.030014
v -0.682859 0.037500 -0.073753
v -0.653781 0.037500 -0.147940
v -0.596280 0.037500 -0.148870
v -0.529920 0.037500 -0.117758
v -0.478080 0.037500 -0.117031
v -0.457759 0.037500 -0.190321
v -0.481396 0.037500 -0.501286
v -0.140527 0.037500 -0.473063
v -0.055363 0.037500 -0.495644
v -0.047212 0.037500 -0.554396
v -0.074266 0.037500 -0.630569
v -0.075739 0.037500 -0.698303
v -0.010497 0.037500 -0.735672
v 0.083942 0.037500 -0.736486
v 0.150404 0.037500 -0.698492
v 0.150958 0.037500 -0.624929
v 0.124669 0.037500 -0.541016
v 0.129859 0.037500 -0.477461
v 0.206882 0.037500 -0.456387
v 0.324317 0.037500 -0.465631
v 0.520302 0.037500 -0.501286
v 0.564243 -0.037498 -0.310289
v 0.576014 -0.037500 -0.195858
v 0.550959 -0.037500 -0.120832
v 0.474610 -0.037500 -0.115660
v 0.376144 -0.037500 -0.140013
v 0.295590 -0.037500 -0.135881
v 0.264538 -0.037500 -0.064766
v 0.280836 -0.037500 0.033842
v 0.333894 -0.037500 0.100933
v 0.410849 -0.037500 0.097849
v 0.489792 -0.037500 0.067329
v 0.546556 -0.037500 0.072460
v 0.564162 -0.037500 0.156769
v 0.520302 -0.037498 0.500624
v 0.323232 -0.037500 0.478346
v 0.206057 -0.037500 0.477640
v 0.131246 -0.037500 0.505632
v 0.130583 -0.037500 0.572138
v 0.160823 -0.037500 0.654375
v 0.159965 -0.037498 0.721420
v 0.086768 -0.037500 0.748302
v -0.016974 -0.037500 0.733843
v -0.088714 -0.037500 0.682817
v -0.087091 -0.037500 0.603821
v -0.055489 -0.037500 0.520758
v -0.058474 -0.037500 0.461363
v -0.140827 -0.037498 0.445175
v -0.481396 -0.037500 0.500624
v -0.434237 -0.037500 0.134991
v -0.449752 -0.037500 0.048487
v -0.503489 -0.037500 0.049276
v -0.576549 -0.037498 0.089153
v -0.642460 -0.037500 0.098473
v -0.679238 -0.037500 0.030014
v -0.682859 -0.037500 -0.073753
v -0.653781 -0.037500 -0.147940
v -0.596280 -0.037500 -0.148870
v -0.529920 -0.037500 -0.117758
v -0.478080 -0.037500 -0.117031
v -0.457759 -0.037500 -0.190321
v -0.481396 -0.037500 -0.501286
v -0.140527 -0.037500 -0.473063
v -0.055363 -0.037500 -0.495644
v -0.047212 -0.037500 -0.554396
v -0.074266 -0.037500 -0.630569
v -0.075739 -0.037500 -0.698303
v -0.010497 -0.037500 -0.735672
v 0.083942 -0.037500 -0.736486
v 0.150404 -0.037500 -0.698492
v 0.150958 -0.037500 -0.624929
v 0.124669 -0.037500 -0.541016
v 0.129859 -0.037500 -0.477461
v 0.206882 -0.037498 -0.456387
v 0.324317 -0.037498 -0.465631
v 0.520302 -0.037498 -0.501286
v 0.564243 0.037500 -0.310289
v 0.576014 0.037500 -0.195858
v 0.550959 0.037500 -0.120832
v 0.550959 0.037500 -0.120832
v 0.546556 0.037500 0.072460
v 0.546556 0.037500 0.072460
v 0.564162 0.037500 0.156769
v 0.474610 0.037500 -0.115660
v 0.489792 0.037500 0.067329
v 0.520302 0.037500 -0.501286
v 0.520302 0.037500 -0.501286
v 0.520302 0.037500 0.500624
v 0.520302 0.037500 0.500624
v 0.410849 0.037500 0.097849
v 0.376144 0.037500 -0.140013
v 0.324317 0.037500 -0.465631
v 0.323232 0.037500 0.478346
v 0.333894 0.037500 0.100933
v 0.295590 0.037500 -0.135881
v 0.295590 0.037500 -0.135881
v 0.280836 0.037500 0.033842
v 0.206882 0.037500 -0.456387
v 0.206057 0.037500 0.477640
v 0.264538 0.037500 -0.064766
v 0.129859 0.037500 -0.477461
v 0.129859 0.037500 -0.477461
v 0.131246 0.037500 0.505632
v 0.131246 0.037500 0.505632
v 0.130583 0.037500 0.572138
v 0.160823 0.037500 0.654375
v 0.159965 0.037500 0.721420
v 0.159965 0.037500 0.721420
v 0.086768 0.037500 0.748302
v 0.150404 0.037500 -0.698492
v 0.150958 0.037500 -0.624929
v 0.124669 0.037500 -0.541016
v 0.083942 0.037500 -0.736486
v -0.016974 0.037500 0.733843
v -0.010497 0.037500 -0.735672
v -0.075739 0.037500 -0.698303
v -0.075739 0.037500 -0.698303
v -0.088714 0.037500 0.682817
v -0.074266 0.037500 -0.630569
v -0.047212 0.037500 -0.554396
v -0.055363 0.037500 -0.495644
v -0.055363 0.037500 -0.495644
v -0.140527 0.037500 -0.473063
v -0.055489 0.037500 0.520758
v -0.058474 0.037500 0.461363
v -0.058474 0.037500 0.461363
v -0.087091 0.037500 0.603821
v -0.140827 0.037500 0.445175
v -0.481396 0.037500 -0.501286
v -0.481396 0.037500 -0.501286
v -0.434237 0.037500 0.134991
v -0.449752 0.037500 0.048487
v -0.449752 0.037500 0.048487
v -0.503489 0.037500 0.049276
v -0.481396 0.037500 0.500624
v -0.481396 0.037500 0.500624
v -0.478080 0.037500 -0.117031
v -0.478080 0.037500 -0.117031
v -0.457759 0.037500 -0.190321
v -0.529920 0.037500 -0.117758
v -0.576549 0.037500 0.089153
v -0.596280 0.037500 -0.148870
v -0.642460 0.037500 0.098473
v -0.642460 0.037500 0.098473
v -0.653781 0.037500 -0.147940
v -0.653781 0.037500 -0.147940
v -0.679238 0.037500 0.030014
v -0.682859 0.037500 -0.073753
v 0.564243 -0.037498 -0.310289
v 0.576014 -0.037500 -0.195858
v 0.550959 -0.037500 -0.120832
v 0.550959 -0.037500 -0.120832
v 0.546556 -0.037500 0.072460
v 0.546556 -0.037500 0.072460
v 0.564162 -0.037500 0.156769
v 0.474610 -0.037500 -0.115660
v 0.489792 -0.037500 0.067329
v 0.520302 -0.037498 -0.501286
v 0.520302 -0.037498 -0.501286
v 0.520302 -0.037498 0.500624
v 0.520302 -0.037498 0.500624
v 0.410849 -0.037500 0.097849
v 0.376144 -0.037500 -0.140013
v 0.324317 -0.037498 -0.465631
v 0.323232 -0.037500 0.478346
v 0.333894 -0.037500 0.100933
v 0.295590 -0.037500 -0.135881
v 0.295590 -0.037500 -0.135881
v 0.280836 -0.037500 0.033842
v 0.206882 -0.037498 -0.456387
v 0.206057 -0.037500 0.477640
v 0.264538 -0.037500 -0.064766
v 0.129859 -0.037500 -0.477461
v 0.129859 -0.037500 -0.477461
v 0.131246 -0.037500 0.505632
v 0.131246 -0.037500 0.505632
v 0.130583 -0.037500 0.572138
v 0.160823 -0.037500 0.654375
v 0.159965 -0.037498 0.721420
v 0.159965 -0.037498 0.721420
v 0.086768 -0.037500 0.748302
v 0.150404 -0.037500 -0.698492
v 0.150958 -0.037500 -0.624929
v 0.124669 -0.037500 -0.541016
v 0.083942 -0.037500 -0.736486
v -0.016974 -0.037500 0.733843
v -0.010497 -0.037500 -0.735672
v -0.075739 -0.037500 -0.698303
v -0.075739 -0.037500 -0.698303
v -0.088714 -0.037500 0.682817
v -0.074266 -0.037500 -0.630569
v -0.047212 -0.037500 -0.554396
v -0.055363 -0.037500 -0.495644
v -0.055363 -0.037500 -0.495644
v -0.140527 -0.037500 -0.473063
v -0.055489 -0.037500 0.520758
v -0.058474 -0.037500 0.461363
v -0.058474 -0.037500 0.461363
v -0.087091 -0.037500 0.603821
v -0.140827 -0.037498 0.445175
v -0.481396 -0.037500 -0.501286
v -0.481396 -0.037500 -0.501286
v -0.434237 -0.037500 0.134991
v -0.449752 -0.037500 0.048487
v -0.449752 -0.037500 0.048487
v -0.503489 -0.037500 0.049276
v -0.481396 -0.037500 0.500624
v -0.481396 -0.037500 0.500624
v -0.478080 -0.037500 -0.117031
v -0.478080 -0.037500 -0.117031
v -0.457759 -0.037500 -0.190321
v -0.529920 -0.037500 -0.117758
v -0.576549 -0.037498 0.089153
v -0.596280 -0.037500 -0.148870
v -0.642460 -0.037500 0.098473
v -0.642460 -0.037500 0.098473
v -0.653781 -0.037500 -0.147940
v -0.653781 -0.037500 -0.147940
v -0.679238 -0.037500 0.030014
v -0.682859 -0.037500 -0.073753
vt 0.500000 0.500000
vt 0.500000 0.500000
vt 0.500000 0.500000
vt 0.500000 0.500000
vt 0.500000 0.500000
vt 0.500000 0.500000
vt 0.500000 0.500000
vt 0.500000 0.500000
vt 0.500000 0.500000
vt 0.500000 0.500000
vt 0.500000 0.500000
vt 0.500000 0.500000
vt 0.500000 0.500000
vt 0.500000 0.500000
vt 0.500000 0.500000
vt 0.500000 0.500000
vt 0.500000 0.500000
vt 0.500000 0.500000
vt 0.500000 0.500000
vt 0.500000 0.500000
vt 0.500000 0.500000
vt 0.500000 0.500000
vt 0.500000 0.500000
vt 0.500000 0.500000
vt 0.500000 0.500000
vt 0.500000 0.500000
vt 0.500000 0.500000
vt 0.500000 0.500000
vt 0.500000 0.500000
vt 0.500000 0.500000
vt 0.500000 0.500000
vt 0.500000 0.500000
vt 0.500000 0.500000
vt 0.500000 0.500000
vt 0.500000 0.500000
vt 0.500000 0.500000
vt 0.500000 0.500000
vt 0.500000 0.500000
vt 0.500000 0.500000
vt 0.500000 0.500000
vt 0.500000 0.500000
vt 0.500000 0.500000
vt 0.500000 0.500000
vt 0.500000 0.500000
vt 0.500000 0.500000
vt 0.500000 0.500000
vt 0.500000 0.500000
vt 0.500000 0.500000
vt 0.500000 0.500000
vt 0.500000 0.500000
vt 0.500000 0.500000
vt 0.500000 0.500000
vt 0.500000 0.500000
vt 0.500000 0.500000
vt 0.500000 0.500000
vt 0.500000 0.500000
vt 0.500000 0.500000
vt 0.500000 0.500000
vt 0.500000 0.500000
vt 0.500000 0.500000
vt 0.500000 0.500000
vt 0.500000 0.500000
vt 0.500000 0.500000
vt 0.500000 0.500000
vt 0.500000 0.500000
vt 0.500000 0.500000
vt 0.500000 0.500000
vt 0.500000 0.500000
vt 0.500000 0.500000
vt 0.500000 0.500000
vt 0.500000 0.500000
vt 0.500000 0.500000
vt 0.500000 0.500000
vt 0.500000 0.500000
vt 0.500000 0.500000
vt 0.500000 0.500000
vt 0.500000 0.500000
vt 0.500000 0.500000
vt 0.500000 0.500000
vt 0.500000 0.500000
vt 0.500000 0.500000
vt 0.500000 0.500000
vt 0.500000 0.500000
vt 0.500000 0.500000
vt 0.500000 0.500000
vt 0.500000 0.500000
vt 0.500000 0.500000
vt 0.500000 0.500000
vt 0.500000 0.500000
vt 0.500000 0.500000
vt 0.500000 0.500000
vt 0.500000 0.500000
vt 0.500000 0.500000
vt 0.500000 0.500000
vt 0.500000 0.500000
vt 0.500000 0.500000
vt 0.500000 0.500000
vt 0.500000 0.500000
vt 0.500000 0.500000
vt 0.500000 0.500000
vt 0.500000 0.500000
vt 0.500000 0.500000
vt 0.500000 0.500000
vt 0.500000 0.500000
vt 0.500000 0.500000
vt 0.500000 0.500000
vt 0.500000 0.500000
vt 0.500000 0.500000
vt 0.500000 0.500000
vt 0.500000 0.500000
vt 0.500000 0.500000
vt 0.500000 0.500000
vt 0.500000 0.500000
vt 0.500000 0.500000
vt 0.500000 0.500000
vt 0.500000 0.500000
vt 0.500000 0.500000
vt 0.500000 0.500000
vt 0.500000 0.500000
vt 0.500000 0.500000
vt 0.500000 0.500000
vt 0.500000 0.500000
vt 0.500000 0.500000
vt 0.500000 0.500000
vt 0.500000 0.500000
vt 0.500000 0.500000
vt 0.500000 0.500000
vt 0.500000 0.500000
vt 0.500000 0.500000
vt 0.500000 0.500000
vt 0.500000 0.500000
vt 0.500000 0.500000
vt 0.500000 0.500000
vt 0.500000 0.500000
vt 0.500000 0.500000
vt 0.500000 0.500000
vt 0.500000 0.500000
vt 0.500000 0.500000
vt 0.500000 0.500000
vt 0.500000 0.500000
vt 0.500000 0.500000
vt 0.500000 0.500000
vt 0.500000 0.500000
vt 0.500000 0.500000
vt 0.500000 0.500000
vt 0.500000 0.500000
vt 0.500000 0.500000
vt 0.500000 0.500000
vt 0.500000 0.500000
vt 0.500000 0.500000
vt 0.500000 0.500000
vt 0.500000 0.500000
vt 0.500000 0.500000
vt 0.500000 0.500000
vt 0.500000 0.500000
vt 0.500000 0.500000
vt 0.500000 0.500000
vt 0.500000 0.500000
vt 0.500000 0.500000
vt 0.500000 0.500000
vt 0.500000 0.500000
vt 0.500000 0.500000
vt 0.500000 0.500000
vt 0.500000 0.500000
vt 0.500000 0.500000
vt 0.500000 0.500000
vt 0.500000 0.500000
vt 0.500000 0.500000
vt 0.500000 0.500000
vt 0.500000 0.500000
vt 0.500000 0.500000
vt 0.500000 0.500000
vt 0.500000 0.500000
vt 0.500000 0.500000
vt 0.500000 0.500000
vt 0.500000 0.500000
vt 0.500000 0.500000
vt 0.500000 0.500000
vt 0.500000 0.500000
vt 0.500000 0.500000
vt 0.500000 0.500000
vt 0.500000 0.500000
vt 0.500000 0.500000
vt 0.500000 0.500000
vt 0.500000 0.500000
vt 0.500000 0.500000
vt 0.500000 0.500000
vt 0.500000 0.500000
vt 0.500000 0.500000
vt 0.500000 0.500000
vt 0.500000 0.500000
vt 0.500000 0.500000
vt 0.500000 0.500000
vt 0.500000 0.500000
vt 0.500000 0.500000
vt 0.500000 0.500000
vt 0.500000 0.500000
vt 0.500000 0.500000
vt 0.500000 0.500000
vt 0.843926 0.190295
vt 0.844630 0.185572
vt 0.857365 0.208037
vt 0.864275 0.224655
vt 0.861485 0.220530
vt 0.862437 0.216152
vt 0.860922 0.165441
vt 0.860898 0.168422
vt 0.855735 0.166851
vt 0.855018 0.214227
vt 0.844862 0.211353
vt 0.855147 0.209759
vt 0.839718 0.189247
vt 0.842093 0.190747
vt 0.839894 0.201738
vt 0.853449 0.167978
vt 0.842511 0.200280
vt 0.874283 0.204794
vt 0.874305 0.211292
vt 0.862533 0.211884
vt 0.857085 0.155493
vt 0.860322 0.155694
vt 0.855712 0.163975
vt 0.875628 0.190288
vt 0.878219 0.188535
vt 0.877231 0.200608
vt 0.860441 0.208941
vt 0.863596 0.169282
vt 0.873271 0.185555
vt 0.855616 0.223923
vt 0.853276 0.225312
vt 0.855778 0.219688
vt 0.843750 0.166667
vt 0.882274 0.192424
vt 0.882725 0.198178
vt 0.875156 0.200645
vt 0.837599 0.201707
vt 0.836414 0.198021
vt 0.849707 0.224659
vt 0.861645 0.223678
vt 0.845150 0.204839
vt 0.880683 0.188445
vt 0.873775 0.190122
vt 0.844493 0.200568
vt 0.837605 0.189165
vt 0.836439 0.192783
vt 0.881887 0.202237
vt 0.879796 0.202285
vt 0.854771 0.157106
vt 0.854742 0.160295
vt 0.843750 0.222222
vt 0.875000 0.166667
vt 0.875000 0.222222
vt 0.862457 0.157734
vt 0.862166 0.161389
vn 0.0000 -1.0000 -0.0000
vn 0.9948 0.0000 -0.1023
vn 0.9485 0.0000 0.3168
vn 0.9789 0.0000 -0.2044
vn 0.0676 0.0000 0.9977
vn 0.0900 0.0000 -0.9959
vn 0.9745 0.0000 -0.2242
vn 0.9920 0.0000 0.1265
vn -0.3606 0.0000 -0.9327
vn -0.2401 0.0000 0.9708
vn -0.1790 0.0000 -0.9839
vn -0.1123 0.0000 0.9937
vn -0.0400 0.0000 -0.9992
vn 0.0512 0.0000 0.9987
vn 0.7844 0.0000 -0.6203
vn -0.0785 0.0000 -0.9969
vn -0.0060 0.0000 1.0000
vn 0.9164 0.0000 0.4002
vn 0.9866 0.0000 -0.1631
vn 0.2639 0.0000 -0.9645
vn 0.3504 0.0000 0.9366
vn 0.9386 0.0000 -0.3451
vn 0.9999 0.0000 0.0128
vn 0.3447 0.0000 0.9387
vn 1.0000 0.0000 -0.0075
vn 0.9543 0.0000 0.2990
vn 0.4963 0.0000 -0.8682
vn 1.0000 0.0000 0.0100
vn 0.9967 0.0000 -0.0814
vn -0.1380 0.0000 0.9904
vn -0.0086 0.0000 -1.0000
vn -0.4970 0.0000 -0.8677
vn -0.5796 0.0000 0.8149
vn -0.9998 0.0000 0.0217
vn -0.9423 0.0000 0.3347
vn -0.9905 0.0000 -0.1374
vn -0.2563 0.0000 -0.9666
vn -0.9987 0.0000 0.0502
vn -0.9346 0.0000 -0.3556
vn -0.9998 0.0000 -0.0205
vn -0.1929 0.0000 0.9812
vn 0.0825 0.0000 -0.9966
vn -0.9843 0.0000 0.1765
vn 0.0147 0.0000 0.9999
vn -0.9918 0.0000 -0.1279
vn 0.1607 0.0000 0.9870
vn -0.9636 0.0000 -0.2672
vn -0.9971 0.0000 0.0758
vn 0.0140 0.0000 -0.9999
vn 0.4791 0.0000 0.8778
vn 0.4245 0.0000 -0.9054
vn 0.1400 0.0000 0.9902
vn -0.0162 0.0000 -0.9999
vn -0.8809 0.0000 0.4733
vn -0.9310 0.0000 -0.3649
vn -0.9994 0.0000 0.0349
vn 0.0000 1.0000 -0.0000
usemtl BackMat.001
s off
f 227/1/1 206/2/1 229/3/1
f 189/4/1 196/5/1 191/6/1
f 240/7/1 243/8/1 238/9/1
f 197/10/1 201/11/1 198/12/1
f 225/13/1 217/14/1 226/15/1
f 245/16/1 238/9/1 243/8/1
f 218/17/1 226/15/1 217/14/1
f 205/18/1 200/19/1 199/20/1
f 254/21/1 246/22/1 253/23/1
f 230/24/1 211/25/1 233/26/1
f 246/22/1 243/8/1 240/7/1
f 200/19/1 205/18/1 203/27/1
f 237/28/1 203/27/1 234/29/1
f 185/30/1 190/31/1 184/32/1
f 229/3/1 245/16/1 235/33/1
f 220/34/1 211/25/1 215/35/1
f 209/36/1 211/25/1 230/24/1
f 217/14/1 219/37/1 216/38/1
f 184/32/1 190/31/1 183/39/1
f 189/4/1 191/6/1 187/40/1
f 198/12/1 201/11/1 204/41/1
f 245/16/1 229/3/1 206/2/1
f 233/26/1 220/34/1 224/42/1
f 234/29/1 203/27/1 231/43/1
f 227/1/1 207/44/1 206/2/1
f 199/20/1 200/19/1 196/5/1
f 219/37/1 217/14/1 225/13/1
f 226/15/1 218/17/1 227/1/1
f 222/45/1 221/46/1 225/13/1
f 215/35/1 212/47/1 213/48/1
f 251/49/1 248/50/1 254/21/1
f 207/44/1 201/11/1 206/2/1
f 183/39/1 198/12/1 192/51/1
f 197/10/1 183/39/1 190/31/1
f 231/43/1 205/18/1 209/36/1
f 253/23/1 246/22/1 240/7/1
f 231/43/1 209/36/1 230/24/1
f 204/41/1 201/11/1 207/44/1
f 203/27/1 205/18/1 231/43/1
f 237/28/1 234/29/1 241/52/1
f 211/25/1 212/47/1 215/35/1
f 218/17/1 207/44/1 227/1/1
f 221/46/1 219/37/1 225/13/1
f 183/39/1 197/10/1 198/12/1
f 199/20/1 189/4/1 194/53/1
f 248/50/1 246/22/1 254/21/1
f 199/20/1 196/5/1 189/4/1
f 253/23/1 247/54/1 249/55/1
f 233/26/1 211/25/1 220/34/1
f 238/9/1 206/2/1 237/28/1
f 206/2/1 203/27/1 237/28/1
f 253/23/1 240/7/1 247/54/1
f 245/16/1 206/2/1 238/9/1
f 1/56/2 2/57/2 57/58/2 56/59/2
f 2/57/3 114/60/3 186/61/3 57/58/3
f 116/62/4 13/63/4 68/64/4 188/65/4
f 3/66/5 4/67/5 59/68/5 58/69/5
f 11/70/6 12/71/6 67/72/6 66/73/6
f 121/74/7 1/56/7 56/59/7 193/75/7
f 13/63/8 123/76/8 195/77/8 68/64/8
f 10/78/9 11/70/9 66/73/9 65/79/9
f 4/67/10 5/80/10 60/81/10 59/68/10
f 54/82/11 55/83/11 110/84/11 109/85/11
f 14/86/12 15/87/12 70/88/12 69/89/12
f 9/90/13 10/78/13 65/79/13 64/91/13
f 5/80/14 130/92/14 202/93/14 60/81/14
f 8/94/15 9/90/15 64/91/15 63/95/15
f 53/96/16 54/82/16 109/85/16 108/97/16
f 15/87/17 16/98/17 71/99/17 70/88/17
f 6/100/18 7/101/18 62/102/18 61/103/18
f 7/101/19 8/94/19 63/95/19 62/102/19
f 136/104/20 53/96/20 108/97/20 208/105/20
f 16/98/21 138/106/21 210/107/21 71/99/21
f 18/108/22 19/109/22 74/110/22 73/111/22
f 19/109/23 142/112/23 214/113/23 74/110/23
f 20/114/24 21/115/24 76/116/24 75/117/24
f 49/118/25 50/119/25 105/120/25 104/121/25
f 50/119/26 51/122/26 106/123/26 105/120/26
f 48/124/27 49/118/27 104/121/27 103/125/27
f 17/126/28 18/108/28 73/111/28 72/127/28
f 51/122/29 52/128/29 107/129/29 106/123/29
f 21/115/30 22/130/30 77/131/30 76/116/30
f 47/132/31 48/124/31 103/125/31 102/133/31
f 151/134/32 47/132/32 102/133/32 223/135/32
f 22/130/33 23/136/33 78/137/33 77/131/33
f 45/138/34 46/139/34 101/140/34 100/141/34
f 44/142/35 45/138/35 100/141/35 99/143/35
f 156/144/36 44/142/36 99/143/36 228/145/36
f 42/146/37 43/147/37 98/148/37 97/149/37
f 25/150/38 160/151/38 232/152/38 80/153/38
f 24/154/39 25/150/39 80/153/39 79/155/39
f 23/136/40 24/154/40 79/155/40 78/137/40
f 26/156/41 27/157/41 82/158/41 81/159/41
f 164/160/42 42/146/42 97/149/42 236/161/42
f 29/162/43 167/163/43 239/164/43 84/165/43
f 30/166/44 31/167/44 86/168/44 85/169/44
f 170/170/45 29/162/45 84/165/45 242/171/45
f 27/157/46 28/172/46 83/173/46 82/158/46
f 172/174/47 40/175/47 95/176/47 244/177/47
f 40/175/48 41/178/48 96/179/48 95/176/48
f 38/180/49 39/181/49 94/182/49 93/183/49
f 31/167/50 32/184/50 87/185/50 86/168/50
f 37/186/51 38/180/51 93/183/51 92/187/51
f 32/184/52 178/188/52 250/189/52 87/185/52
f 180/190/53 37/186/53 92/187/53 252/191/53
f 33/192/54 34/193/54 89/194/54 88/195/54
f 35/196/55 36/197/55 91/198/55 90/199/55
f 34/193/56 35/196/56 90/199/56 89/194/56
usemtl FrontMat.001
f 155/200/57 157/201/57 134/202/57
f 117/203/57 119/204/57 124/205/57
f 168/206/57 166/207/57 171/208/57
f 125/209/57 126/210/57 129/211/57
f 153/212/57 154/213/57 145/214/57
f 173/215/57 171/208/57 166/207/57
f 146/216/57 145/214/57 154/213/57
f 133/217/57 127/218/57 128/219/57
f 182/220/57 181/221/57 174/222/57
f 158/223/57 161/224/57 139/225/57
f 174/222/57 168/206/57 171/208/57
f 128/219/57 131/226/57 133/217/57
f 165/227/57 162/228/57 131/226/57
f 113/229/57 112/230/57 118/231/57
f 157/201/57 163/232/57 173/215/57
f 148/233/57 143/234/57 139/225/57
f 137/235/57 158/223/57 139/225/57
f 145/214/57 144/236/57 147/237/57
f 112/230/57 111/238/57 118/231/57
f 117/203/57 115/239/57 119/204/57
f 126/210/57 132/240/57 129/211/57
f 173/215/57 134/202/57 157/201/57
f 161/224/57 152/241/57 148/233/57
f 162/228/57 159/242/57 131/226/57
f 155/200/57 134/202/57 135/243/57
f 127/218/57 124/205/57 128/219/57
f 147/237/57 153/212/57 145/214/57
f 154/213/57 155/200/57 146/216/57
f 150/244/57 153/212/57 149/245/57
f 143/234/57 141/246/57 140/247/57
f 179/248/57 182/220/57 176/249/57
f 135/243/57 134/202/57 129/211/57
f 111/238/57 120/250/57 126/210/57
f 125/209/57 118/231/57 111/238/57
f 159/242/57 137/235/57 133/217/57
f 181/221/57 168/206/57 174/222/57
f 159/242/57 158/223/57 137/235/57
f 132/240/57 135/243/57 129/211/57
f 131/226/57 159/242/57 133/217/57
f 165/227/57 169/251/57 162/228/57
f 139/225/57 143/234/57 140/247/57
f 146/216/57 155/200/57 135/243/57
f 149/245/57 153/212/57 147/237/57
f 111/238/57 126/210/57 125/209/57
f 127/218/57 122/252/57 117/203/57
f 176/249/57 182/220/57 174/222/57
f 127/218/57 117/203/57 124/205/57
f 181/221/57 177/253/57 175/254/57
f 161/224/57 148/233/57 139/225/57
f 166/207/57 165/227/57 134/202/57
f 134/202/57 165/227/57 131/226/57
f 181/221/57 175/254/57 168/206/57
f 173/215/57 166/207/57 134/202/57
