# Blender v2.83.1 OBJ File: 'jigsaw-32x18-3-step2.blend'
# www.blender.org
mtllib piece.183.mtl
o path1526
v -0.459153 0.037500 0.311815
v -0.452158 0.037500 0.191448
v -0.474671 0.037500 0.113419
v -0.538464 0.037500 0.110310
v -0.623341 0.037500 0.140333
v -0.701114 0.037500 0.143097
v -0.747600 0.037500 0.078033
v -0.754617 0.037500 -0.016096
v -0.717985 0.037500 -0.080702
v -0.639908 0.037500 -0.077322
v -0.548122 0.037500 -0.048046
v -0.476744 0.037500 -0.055094
v -0.450583 0.037500 -0.141243
v -0.457219 0.037500 -0.271555
v -0.490919 0.037500 -0.488529
v -0.176203 0.037500 -0.468887
v -0.099876 0.037500 -0.490053
v -0.096709 0.037500 -0.542267
v -0.125664 0.037500 -0.612251
v -0.127496 0.037500 -0.681238
v -0.062677 0.037500 -0.731737
v 0.029453 0.037500 -0.751408
v 0.089838 0.037500 -0.729189
v 0.080193 0.037500 -0.661509
v 0.045309 0.037500 -0.574734
v 0.050749 0.037500 -0.502716
v 0.141446 0.037500 -0.470608
v 0.279814 0.037500 -0.468733
v 0.510779 0.037500 -0.488529
v 0.460701 0.037500 -0.263603
v 0.444340 0.037500 -0.128775
v 0.464329 0.037500 -0.040224
v 0.536281 0.037500 -0.034504
v 0.634482 0.037500 -0.067890
v 0.722887 0.037500 -0.076595
v 0.771335 0.037500 -0.017147
v 0.773216 0.037500 0.072659
v 0.727805 0.037500 0.134708
v 0.640619 0.037500 0.130592
v 0.542122 0.037500 0.100704
v 0.469016 0.037500 0.105152
v 0.447607 0.037500 0.185368
v 0.462598 0.037500 0.308176
v 0.510779 0.037500 0.513380
v 0.140772 0.037500 0.440817
v 0.048913 0.037500 0.454376
v 0.041387 0.037500 0.516279
v 0.073280 0.037500 0.602180
v 0.079120 0.037500 0.677902
v 0.014714 0.037500 0.715532
v -0.079001 0.037500 0.712221
v -0.139811 0.037500 0.671389
v -0.126847 0.037500 0.600542
v -0.084647 0.037500 0.523575
v -0.079096 0.037500 0.468462
v -0.155914 0.037500 0.455009
v -0.490919 0.037500 0.513380
v -0.459153 -0.037500 0.311815
v -0.452158 -0.037500 0.191448
v -0.474671 -0.037500 0.113419
v -0.538464 -0.037500 0.110310
v -0.623341 -0.037500 0.140333
v -0.701114 -0.037500 0.143097
v -0.747600 -0.037500 0.078033
v -0.754617 -0.037500 -0.016096
v -0.717985 -0.037500 -0.080702
v -0.639908 -0.037498 -0.077322
v -0.548122 -0.037500 -0.048046
v -0.476744 -0.037500 -0.055094
v -0.450583 -0.037500 -0.141243
v -0.457219 -0.037498 -0.271555
v -0.490919 -0.037500 -0.488529
v -0.176203 -0.037500 -0.468887
v -0.099876 -0.037500 -0.490053
v -0.096709 -0.037498 -0.542267
v -0.125664 -0.037500 -0.612251
v -0.127496 -0.037500 -0.681238
v -0.062677 -0.037498 -0.731737
v 0.029453 -0.037500 -0.751408
v 0.089838 -0.037500 -0.729189
v 0.080193 -0.037500 -0.661509
v 0.045309 -0.037500 -0.574734
v 0.050749 -0.037500 -0.502716
v 0.141446 -0.037500 -0.470608
v 0.279814 -0.037498 -0.468733
v 0.510779 -0.037500 -0.488529
v 0.460701 -0.037500 -0.263603
v 0.444340 -0.037498 -0.128775
v 0.464329 -0.037500 -0.040224
v 0.536281 -0.037500 -0.034504
v 0.634482 -0.037498 -0.067890
v 0.722887 -0.037500 -0.076595
v 0.771335 -0.037500 -0.017147
v 0.773216 -0.037500 0.072659
v 0.727805 -0.037500 0.134708
v 0.640619 -0.037500 0.130592
v 0.542122 -0.037500 0.100704
v 0.469016 -0.037500 0.105152
v 0.447607 -0.037500 0.185368
v 0.462598 -0.037500 0.308176
v 0.510779 -0.037500 0.513380
v 0.140772 -0.037500 0.440817
v 0.048913 -0.037500 0.454376
v 0.041387 -0.037498 0.516279
v 0.073280 -0.037498 0.602180
v 0.079120 -0.037500 0.677902
v 0.014714 -0.037500 0.715532
v -0.079001 -0.037500 0.712221
v -0.139811 -0.037500 0.671389
v -0.126847 -0.037498 0.600542
v -0.084647 -0.037500 0.523575
v -0.079096 -0.037500 0.468462
v -0.155914 -0.037500 0.455009
v -0.490919 -0.037498 0.513380
v -0.747600 0.037500 0.078033
v -0.754617 0.037500 -0.016096
v -0.717985 0.037500 -0.080702
v -0.717985 0.037500 -0.080702
v -0.701114 0.037500 0.143097
v -0.639908 0.037500 -0.077322
v -0.623341 0.037500 0.140333
v -0.548122 0.037500 -0.048046
v -0.538464 0.037500 0.110310
v -0.476744 0.037500 -0.055094
v -0.476744 0.037500 -0.055094
v -0.474671 0.037500 0.113419
v -0.474671 0.037500 0.113419
v -0.450583 0.037500 -0.141243
v -0.490919 0.037500 0.513380
v -0.490919 0.037500 0.513380
v -0.459153 0.037500 0.311815
v -0.457219 0.037500 -0.271555
v -0.490919 0.037500 -0.488529
v -0.490919 0.037500 -0.488529
v -0.452158 0.037500 0.191448
v -0.176203 0.037500 -0.468887
v -0.155914 0.037500 0.455009
v -0.099876 0.037500 -0.490053
v -0.099876 0.037500 -0.490053
v -0.079096 0.037500 0.468462
v -0.079096 0.037500 0.468462
v -0.079001 0.037500 0.712221
v -0.139811 0.037500 0.671389
v -0.139811 0.037500 0.671389
v -0.126847 0.037500 0.600542
v -0.125664 0.037500 -0.612251
v -0.127496 0.037500 -0.681238
v -0.062677 0.037500 -0.731737
v -0.084647 0.037500 0.523575
v -0.096709 0.037500 -0.542267
v 0.014714 0.037500 0.715532
v 0.029453 0.037500 -0.751408
v 0.079120 0.037500 0.677902
v 0.079120 0.037500 0.677902
v 0.089838 0.037500 -0.729189
v 0.089838 0.037500 -0.729189
v 0.073280 0.037500 0.602180
v 0.041387 0.037500 0.516279
v 0.048913 0.037500 0.454376
v 0.048913 0.037500 0.454376
v 0.045309 0.037500 -0.574734
v 0.050749 0.037500 -0.502716
v 0.050749 0.037500 -0.502716
v 0.080193 0.037500 -0.661509
v 0.140772 0.037500 0.440817
v 0.141446 0.037500 -0.470608
v 0.279814 0.037500 -0.468733
v 0.510779 0.037500 0.513380
v 0.510779 0.037500 0.513380
v 0.447607 0.037500 0.185368
v 0.462598 0.037500 0.308176
v 0.444340 0.037500 -0.128775
v 0.464329 0.037500 -0.040224
v 0.464329 0.037500 -0.040224
v 0.460701 0.037500 -0.263603
v 0.469016 0.037500 0.105152
v 0.469016 0.037500 0.105152
v 0.536281 0.037500 -0.034504
v 0.542122 0.037500 0.100704
v 0.510779 0.037500 -0.488529
v 0.510779 0.037500 -0.488529
v 0.634482 0.037500 -0.067890
v 0.640619 0.037500 0.130592
v 0.722887 0.037500 -0.076595
v 0.727805 0.037500 0.134708
v 0.771335 0.037500 -0.017147
v 0.773216 0.037500 0.072659
v -0.747600 -0.037500 0.078033
v -0.754617 -0.037500 -0.016096
v -0.717985 -0.037500 -0.080702
v -0.717985 -0.037500 -0.080702
v -0.701114 -0.037500 0.143097
v -0.639908 -0.037498 -0.077322
v -0.623341 -0.037500 0.140333
v -0.548122 -0.037500 -0.048046
v -0.538464 -0.037500 0.110310
v -0.476744 -0.037500 -0.055094
v -0.476744 -0.037500 -0.055094
v -0.474671 -0.037500 0.113419
v -0.474671 -0.037500 0.113419
v -0.450583 -0.037500 -0.141243
v -0.490919 -0.037498 0.513380
v -0.490919 -0.037498 0.513380
v -0.459153 -0.037500 0.311815
v -0.457219 -0.037498 -0.271555
v -0.490919 -0.037500 -0.488529
v -0.490919 -0.037500 -0.488529
v -0.452158 -0.037500 0.191448
v -0.176203 -0.037500 -0.468887
v -0.155914 -0.037500 0.455009
v -0.099876 -0.037500 -0.490053
v -0.099876 -0.037500 -0.490053
v -0.079096 -0.037500 0.468462
v -0.079096 -0.037500 0.468462
v -0.079001 -0.037500 0.712221
v -0.139811 -0.037500 0.671389
v -0.139811 -0.037500 0.671389
v -0.126847 -0.037498 0.600542
v -0.125664 -0.037500 -0.612251
v -0.127496 -0.037500 -0.681238
v -0.062677 -0.037498 -0.731737
v -0.084647 -0.037500 0.523575
v -0.096709 -0.037498 -0.542267
v 0.014714 -0.037500 0.715532
v 0.029453 -0.037500 -0.751408
v 0.079120 -0.037500 0.677902
v 0.079120 -0.037500 0.677902
v 0.089838 -0.037500 -0.729189
v 0.089838 -0.037500 -0.729189
v 0.073280 -0.037498 0.602180
v 0.041387 -0.037498 0.516279
v 0.048913 -0.037500 0.454376
v 0.048913 -0.037500 0.454376
v 0.045309 -0.037500 -0.574734
v 0.050749 -0.037500 -0.502716
v 0.050749 -0.037500 -0.502716
v 0.080193 -0.037500 -0.661509
v 0.140772 -0.037500 0.440817
v 0.141446 -0.037500 -0.470608
v 0.279814 -0.037498 -0.468733
v 0.510779 -0.037500 0.513380
v 0.510779 -0.037500 0.513380
v 0.447607 -0.037500 0.185368
v 0.462598 -0.037500 0.308176
v 0.444340 -0.037498 -0.128775
v 0.464329 -0.037500 -0.040224
v 0.464329 -0.037500 -0.040224
v 0.460701 -0.037500 -0.263603
v 0.469016 -0.037500 0.105152
v 0.469016 -0.037500 0.105152
v 0.536281 -0.037500 -0.034504
v 0.542122 -0.037500 0.100704
v 0.510779 -0.037500 -0.488529
v 0.510779 -0.037500 -0.488529
v 0.634482 -0.037498 -0.067890
v 0.640619 -0.037500 0.130592
v 0.722887 -0.037500 -0.076595
v 0.727805 -0.037500 0.134708
v 0.771335 -0.037500 -0.017147
v 0.773216 -0.037500 0.072659
vt 0.500000 0.500000
vt 0.500000 0.500000
vt 0.500000 0.500000
vt 0.500000 0.500000
vt 0.500000 0.500000
vt 0.500000 0.500000
vt 0.500000 0.500000
vt 0.500000 0.500000
vt 0.500000 0.500000
vt 0.500000 0.500000
vt 0.500000 0.500000
vt 0.500000 0.500000
vt 0.500000 0.500000
vt 0.500000 0.500000
vt 0.500000 0.500000
vt 0.500000 0.500000
vt 0.500000 0.500000
vt 0.500000 0.500000
vt 0.500000 0.500000
vt 0.500000 0.500000
vt 0.500000 0.500000
vt 0.500000 0.500000
vt 0.500000 0.500000
vt 0.500000 0.500000
vt 0.500000 0.500000
vt 0.500000 0.500000
vt 0.500000 0.500000
vt 0.500000 0.500000
vt 0.500000 0.500000
vt 0.500000 0.500000
vt 0.500000 0.500000
vt 0.500000 0.500000
vt 0.500000 0.500000
vt 0.500000 0.500000
vt 0.500000 0.500000
vt 0.500000 0.500000
vt 0.500000 0.500000
vt 0.500000 0.500000
vt 0.500000 0.500000
vt 0.500000 0.500000
vt 0.500000 0.500000
vt 0.500000 0.500000
vt 0.500000 0.500000
vt 0.500000 0.500000
vt 0.500000 0.500000
vt 0.500000 0.500000
vt 0.500000 0.500000
vt 0.500000 0.500000
vt 0.500000 0.500000
vt 0.500000 0.500000
vt 0.500000 0.500000
vt 0.500000 0.500000
vt 0.500000 0.500000
vt 0.500000 0.500000
vt 0.500000 0.500000
vt 0.500000 0.500000
vt 0.500000 0.500000
vt 0.500000 0.500000
vt 0.500000 0.500000
vt 0.500000 0.500000
vt 0.500000 0.500000
vt 0.500000 0.500000
vt 0.500000 0.500000
vt 0.500000 0.500000
vt 0.500000 0.500000
vt 0.500000 0.500000
vt 0.500000 0.500000
vt 0.500000 0.500000
vt 0.500000 0.500000
vt 0.500000 0.500000
vt 0.500000 0.500000
vt 0.500000 0.500000
vt 0.500000 0.500000
vt 0.500000 0.500000
vt 0.500000 0.500000
vt 0.500000 0.500000
vt 0.500000 0.500000
vt 0.500000 0.500000
vt 0.500000 0.500000
vt 0.500000 0.500000
vt 0.500000 0.500000
vt 0.500000 0.500000
vt 0.500000 0.500000
vt 0.500000 0.500000
vt 0.500000 0.500000
vt 0.500000 0.500000
vt 0.500000 0.500000
vt 0.500000 0.500000
vt 0.500000 0.500000
vt 0.500000 0.500000
vt 0.500000 0.500000
vt 0.500000 0.500000
vt 0.500000 0.500000
vt 0.500000 0.500000
vt 0.500000 0.500000
vt 0.500000 0.500000
vt 0.500000 0.500000
vt 0.500000 0.500000
vt 0.500000 0.500000
vt 0.500000 0.500000
vt 0.500000 0.500000
vt 0.500000 0.500000
vt 0.500000 0.500000
vt 0.500000 0.500000
vt 0.500000 0.500000
vt 0.500000 0.500000
vt 0.500000 0.500000
vt 0.500000 0.500000
vt 0.500000 0.500000
vt 0.500000 0.500000
vt 0.500000 0.500000
vt 0.500000 0.500000
vt 0.500000 0.500000
vt 0.500000 0.500000
vt 0.500000 0.500000
vt 0.500000 0.500000
vt 0.500000 0.500000
vt 0.500000 0.500000
vt 0.500000 0.500000
vt 0.500000 0.500000
vt 0.500000 0.500000
vt 0.500000 0.500000
vt 0.500000 0.500000
vt 0.500000 0.500000
vt 0.500000 0.500000
vt 0.500000 0.500000
vt 0.500000 0.500000
vt 0.500000 0.500000
vt 0.500000 0.500000
vt 0.500000 0.500000
vt 0.500000 0.500000
vt 0.500000 0.500000
vt 0.500000 0.500000
vt 0.500000 0.500000
vt 0.500000 0.500000
vt 0.500000 0.500000
vt 0.500000 0.500000
vt 0.500000 0.500000
vt 0.500000 0.500000
vt 0.500000 0.500000
vt 0.500000 0.500000
vt 0.500000 0.500000
vt 0.500000 0.500000
vt 0.500000 0.500000
vt 0.500000 0.500000
vt 0.500000 0.500000
vt 0.500000 0.500000
vt 0.500000 0.500000
vt 0.500000 0.500000
vt 0.500000 0.500000
vt 0.500000 0.500000
vt 0.500000 0.500000
vt 0.500000 0.500000
vt 0.500000 0.500000
vt 0.500000 0.500000
vt 0.500000 0.500000
vt 0.500000 0.500000
vt 0.500000 0.500000
vt 0.500000 0.500000
vt 0.500000 0.500000
vt 0.500000 0.500000
vt 0.500000 0.500000
vt 0.500000 0.500000
vt 0.500000 0.500000
vt 0.500000 0.500000
vt 0.500000 0.500000
vt 0.500000 0.500000
vt 0.500000 0.500000
vt 0.500000 0.500000
vt 0.500000 0.500000
vt 0.500000 0.500000
vt 0.500000 0.500000
vt 0.500000 0.500000
vt 0.500000 0.500000
vt 0.500000 0.500000
vt 0.500000 0.500000
vt 0.500000 0.500000
vt 0.500000 0.500000
vt 0.500000 0.500000
vt 0.500000 0.500000
vt 0.500000 0.500000
vt 0.500000 0.500000
vt 0.500000 0.500000
vt 0.500000 0.500000
vt 0.500000 0.500000
vt 0.500000 0.500000
vt 0.500000 0.500000
vt 0.500000 0.500000
vt 0.500000 0.500000
vt 0.500000 0.500000
vt 0.500000 0.500000
vt 0.500000 0.500000
vt 0.500000 0.500000
vt 0.500000 0.500000
vt 0.500000 0.500000
vt 0.500000 0.500000
vt 0.500000 0.500000
vt 0.500000 0.500000
vt 0.500000 0.500000
vt 0.500000 0.500000
vt 0.500000 0.500000
vt 0.500000 0.500000
vt 0.500000 0.500000
vt 0.699135 0.729566
vt 0.700072 0.724859
vt 0.705011 0.725395
vt 0.700372 0.664928
vt 0.699439 0.659466
vt 0.705630 0.659806
vt 0.687182 0.699690
vt 0.684781 0.702030
vt 0.684730 0.690931
vt 0.724145 0.690548
vt 0.726256 0.690013
vt 0.726949 0.693362
vt 0.699311 0.654630
vt 0.701246 0.652111
vt 0.718191 0.687150
vt 0.718797 0.700535
vt 0.707918 0.719985
vt 0.701079 0.736458
vt 0.699049 0.733880
vt 0.704589 0.665252
vt 0.700233 0.668983
vt 0.697541 0.720073
vt 0.693787 0.720460
vt 0.689321 0.703642
vt 0.704767 0.669243
vt 0.697731 0.670170
vt 0.719193 0.692181
vt 0.721439 0.692482
vt 0.720426 0.700359
vt 0.689340 0.692282
vt 0.688901 0.699382
vt 0.687409 0.692700
vt 0.681195 0.694179
vt 0.682368 0.690607
vt 0.705924 0.730485
vt 0.704047 0.652216
vt 0.699975 0.721321
vt 0.718137 0.704768
vt 0.718750 0.722222
vt 0.711982 0.720353
vt 0.707529 0.670351
vt 0.681298 0.699377
vt 0.705231 0.721436
vt 0.705902 0.654903
vt 0.726336 0.698471
vt 0.722609 0.701965
vt 0.718132 0.679476
vt 0.704015 0.736847
vt 0.682572 0.702749
vt 0.689763 0.687188
vt 0.687500 0.722222
vt 0.687500 0.666667
vt 0.693900 0.669339
vt 0.711734 0.669444
vt 0.718750 0.666667
vt 0.706030 0.734816
vt 0.724761 0.702066
vn 0.0000 -1.0000 0.0000
vn -0.9972 0.0000 0.0743
vn -0.8699 0.0000 -0.4932
vn -0.8137 0.0000 0.5813
vn 0.0432 0.0000 -0.9991
vn 0.0355 0.0000 0.9994
vn 0.3039 0.0000 -0.9527
vn 0.3335 0.0000 0.9428
vn -0.0983 0.0000 -0.9952
vn -0.0487 0.0000 0.9988
vn -0.9569 0.0000 -0.2906
vn -0.9878 0.0000 -0.1557
vn -0.9882 0.0000 0.1535
vn -0.9608 0.0000 0.2772
vn -0.9983 0.0000 -0.0580
vn -0.9987 0.0000 0.0509
vn 0.0623 0.0000 -0.9981
vn 0.1717 0.0000 0.9852
vn -0.2672 0.0000 -0.9636
vn -0.1725 0.0000 0.9850
vn -0.5575 0.0000 0.8302
vn -0.9837 0.0000 -0.1800
vn -0.9996 0.0000 0.0265
vn -0.6146 0.0000 -0.7889
vn -0.8768 0.0000 -0.4808
vn -0.9240 0.0000 0.3823
vn -0.9982 0.0000 -0.0606
vn -0.9950 0.0000 -0.1002
vn -0.0353 0.0000 0.9994
vn -0.2088 0.0000 -0.9780
vn 0.5045 0.0000 0.8634
vn 0.3453 0.0000 -0.9385
vn 0.9970 0.0000 -0.0769
vn 0.9375 0.0000 -0.3481
vn 0.9927 0.0000 0.1207
vn 0.9972 0.0000 -0.0753
vn 0.9278 0.0000 0.3730
vn 0.9900 0.0000 0.1411
vn 0.1460 0.0000 0.9893
vn 0.3337 0.0000 -0.9427
vn 0.0135 0.0000 -0.9999
vn -0.1924 0.0000 0.9813
vn 0.9926 0.0000 -0.1212
vn 0.9755 0.0000 -0.2202
vn 0.9927 0.0000 0.1205
vn 0.9662 0.0000 0.2579
vn 0.0792 0.0000 -0.9969
vn 0.0607 0.0000 0.9982
vn 0.9761 0.0000 0.2173
vn -0.0854 0.0000 -0.9963
vn 0.9735 0.0000 -0.2286
vn -0.3219 0.0000 -0.9468
vn -0.2904 0.0000 0.9569
vn -0.0980 0.0000 -0.9952
vn -0.0472 0.0000 0.9989
vn 0.7752 0.0000 -0.6317
vn 0.8070 0.0000 0.5906
vn 0.9998 0.0000 -0.0209
vn 0.0000 1.0000 -0.0000
usemtl BackMat.001
s off
f 194/1/1 195/2/1 196/3/1
f 252/4/1 255/5/1 256/6/1
f 222/7/1 230/8/1 218/9/1
f 237/10/1 225/11/1 228/12/1
f 258/13/1 256/6/1 260/14/1
f 239/15/1 201/16/1 211/17/1
f 188/18/1 194/1/1 192/19/1
f 251/20/1 252/4/1 249/21/1
f 208/22/1 210/23/1 204/24/1
f 249/21/1 243/25/1 246/26/1
f 235/27/1 223/28/1 234/29/1
f 232/30/1 231/31/1 213/32/1
f 224/33/1 230/8/1 226/34/1
f 195/2/1 194/1/1 193/35/1
f 259/36/1 260/14/1 255/5/1
f 232/30/1 199/37/1 201/16/1
f 223/28/1 235/27/1 211/17/1
f 199/37/1 232/30/1 208/22/1
f 209/38/1 205/39/1 206/40/1
f 239/15/1 245/41/1 201/16/1
f 245/41/1 246/26/1 232/30/1
f 239/15/1 211/17/1 235/27/1
f 218/9/1 224/33/1 215/42/1
f 201/16/1 199/37/1 197/43/1
f 257/44/1 259/36/1 255/5/1
f 193/35/1 194/1/1 188/18/1
f 221/45/1 234/29/1 219/46/1
f 230/8/1 222/7/1 231/31/1
f 240/47/1 245/41/1 239/15/1
f 251/20/1 249/21/1 246/26/1
f 255/5/1 252/4/1 251/20/1
f 245/41/1 232/30/1 201/16/1
f 193/35/1 188/18/1 189/48/1
f 218/9/1 215/42/1 216/49/1
f 246/26/1 243/25/1 238/50/1
f 209/38/1 201/16/1 205/39/1
f 204/24/1 210/23/1 202/51/1
f 232/30/1 213/32/1 210/23/1
f 238/50/1 244/52/1 241/53/1
f 199/37/1 196/3/1 197/43/1
f 197/43/1 196/3/1 195/2/1
f 246/26/1 238/50/1 232/30/1
f 248/54/1 240/47/1 253/55/1
f 219/46/1 234/29/1 223/28/1
f 221/45/1 225/11/1 237/10/1
f 213/32/1 231/31/1 222/7/1
f 256/6/1 255/5/1 260/14/1
f 218/9/1 230/8/1 224/33/1
f 193/35/1 189/48/1 190/56/1
f 238/50/1 243/25/1 244/52/1
f 248/54/1 245/41/1 240/47/1
f 234/29/1 221/45/1 237/10/1
f 221/45/1 219/46/1 220/57/1
f 210/23/1 208/22/1 232/30/1
f 211/17/1 201/16/1 209/38/1
f 7/58/2 8/59/2 65/60/2 64/61/2
f 8/59/3 118/62/3 191/63/3 65/60/3
f 6/64/4 7/58/4 64/61/4 63/65/4
f 9/66/5 10/67/5 67/68/5 66/69/5
f 5/70/6 6/64/6 63/65/6 62/71/6
f 10/67/7 11/72/7 68/73/7 67/68/7
f 4/74/8 5/70/8 62/71/8 61/75/8
f 11/72/9 125/76/9 198/77/9 68/73/9
f 127/78/10 4/74/10 61/75/10 200/79/10
f 12/80/11 13/81/11 70/82/11 69/83/11
f 130/84/12 1/85/12 58/86/12 203/87/12
f 14/88/13 134/89/13 207/90/13 71/91/13
f 2/92/14 3/93/14 60/94/14 59/95/14
f 1/85/15 2/92/15 59/95/15 58/86/15
f 13/81/16 14/88/16 71/91/16 70/82/16
f 15/96/17 16/97/17 73/98/17 72/99/17
f 56/100/18 57/101/18 114/102/18 113/103/18
f 16/97/19 139/104/19 212/105/19 73/98/19
f 141/106/20 56/100/20 113/103/20 214/107/20
f 51/108/21 144/109/21 217/110/21 108/111/21
f 52/112/22 53/113/22 110/114/22 109/115/22
f 19/116/23 20/117/23 77/118/23 76/119/23
f 20/117/24 21/120/24 78/121/24 77/118/24
f 53/113/25 54/122/25 111/123/25 110/114/25
f 18/124/26 19/116/26 76/119/26 75/125/26
f 17/126/27 18/124/27 75/125/27 74/127/27
f 54/122/28 55/128/28 112/129/28 111/123/28
f 50/130/29 51/108/29 108/111/29 107/131/29
f 21/120/30 22/132/30 79/133/30 78/121/30
f 154/134/31 50/130/31 107/131/31 227/135/31
f 22/132/32 156/136/32 229/137/32 79/133/32
f 48/138/33 49/139/33 106/140/33 105/141/33
f 47/142/34 48/138/34 105/141/34 104/143/34
f 160/144/35 47/142/35 104/143/35 233/145/35
f 25/146/36 163/147/36 236/148/36 82/149/36
f 24/150/37 25/146/37 82/149/37 81/151/37
f 23/152/38 24/150/38 81/151/38 80/153/38
f 45/154/39 46/155/39 103/156/39 102/157/39
f 26/158/40 27/159/40 84/160/40 83/161/40
f 27/159/41 28/162/41 85/163/41 84/160/41
f 169/164/42 45/154/42 102/157/42 242/165/42
f 42/166/43 43/167/43 100/168/43 99/169/43
f 31/170/44 174/171/44 247/172/44 88/173/44
f 30/174/45 31/170/45 88/173/45 87/175/45
f 177/176/46 42/166/46 99/169/46 250/177/46
f 32/178/47 33/179/47 90/180/47 89/181/47
f 40/182/48 41/183/48 98/184/48 97/185/48
f 181/186/49 30/174/49 87/175/49 254/187/49
f 28/162/50 29/188/50 86/189/50 85/163/50
f 43/167/51 44/190/51 101/191/51 100/168/51
f 33/179/52 34/192/52 91/193/52 90/180/52
f 39/194/53 40/182/53 97/185/53 96/195/53
f 34/192/54 35/196/54 92/197/54 91/193/54
f 38/198/55 39/194/55 96/195/55 95/199/55
f 35/196/56 36/200/56 93/201/56 92/197/56
f 37/202/57 38/198/57 95/199/57 94/203/57
f 36/200/58 37/202/58 94/203/58 93/201/58
usemtl FrontMat.001
f 121/204/59 123/205/59 122/206/59
f 179/207/59 183/208/59 182/209/59
f 149/210/59 145/211/59 157/212/59
f 164/213/59 155/214/59 152/215/59
f 185/216/59 187/217/59 183/208/59
f 166/218/59 138/219/59 128/220/59
f 115/221/59 119/222/59 121/204/59
f 178/223/59 176/224/59 179/207/59
f 135/225/59 131/226/59 137/227/59
f 176/224/59 173/228/59 170/229/59
f 162/230/59 161/231/59 150/232/59
f 159/233/59 140/234/59 158/235/59
f 151/236/59 153/237/59 157/212/59
f 122/206/59 120/238/59 121/204/59
f 186/239/59 182/209/59 187/217/59
f 159/233/59 128/220/59 126/240/59
f 150/232/59 138/219/59 162/230/59
f 126/240/59 135/225/59 159/233/59
f 136/241/59 133/242/59 132/243/59
f 166/218/59 128/220/59 172/244/59
f 172/244/59 159/233/59 173/228/59
f 166/218/59 162/230/59 138/219/59
f 145/211/59 142/245/59 151/236/59
f 128/220/59 124/246/59 126/240/59
f 184/247/59 182/209/59 186/239/59
f 120/238/59 115/221/59 121/204/59
f 148/248/59 146/249/59 161/231/59
f 157/212/59 158/235/59 149/210/59
f 167/250/59 166/218/59 172/244/59
f 178/223/59 173/228/59 176/224/59
f 182/209/59 178/223/59 179/207/59
f 172/244/59 128/220/59 159/233/59
f 120/238/59 116/251/59 115/221/59
f 145/211/59 143/252/59 142/245/59
f 173/228/59 165/253/59 170/229/59
f 136/241/59 132/243/59 128/220/59
f 131/226/59 129/254/59 137/227/59
f 159/233/59 137/227/59 140/234/59
f 165/253/59 168/255/59 171/256/59
f 126/240/59 124/246/59 123/205/59
f 124/246/59 122/206/59 123/205/59
f 173/228/59 159/233/59 165/253/59
f 175/257/59 180/258/59 167/250/59
f 146/249/59 150/232/59 161/231/59
f 148/248/59 164/213/59 152/215/59
f 140/234/59 149/210/59 158/235/59
f 183/208/59 187/217/59 182/209/59
f 145/211/59 151/236/59 157/212/59
f 120/238/59 117/259/59 116/251/59
f 165/253/59 171/256/59 170/229/59
f 175/257/59 167/250/59 172/244/59
f 161/231/59 164/213/59 148/248/59
f 148/248/59 147/260/59 146/249/59
f 137/227/59 159/233/59 135/225/59
f 138/219/59 136/241/59 128/220/59
