# Blender v2.83.1 OBJ File: 'jigsaw-32x18-3-step2.blend'
# www.blender.org
mtllib piece.250.mtl
o path1660
v -0.255284 0.037500 -0.549040
v -0.125274 0.037500 -0.560297
v -0.041540 0.037500 -0.534937
v -0.039412 0.037500 -0.458513
v -0.073055 0.037500 -0.359230
v -0.076346 0.037500 -0.275917
v -0.004786 0.037500 -0.239670
v 0.099613 0.037500 -0.250673
v 0.173211 0.037500 -0.301384
v 0.173418 0.037500 -0.380978
v 0.141830 0.037500 -0.465530
v 0.141094 0.037500 -0.527851
v 0.214964 0.037500 -0.548620
v 0.331629 0.037500 -0.540005
v 0.528297 0.037500 -0.505974
v 0.557192 0.037500 -0.180471
v 0.539401 0.037500 -0.100990
v 0.489324 0.037500 -0.096844
v 0.420018 0.037500 -0.126926
v 0.350182 0.037500 -0.131598
v 0.297780 0.037500 -0.070719
v 0.277833 0.037500 0.017952
v 0.304627 0.037500 0.077162
v 0.383196 0.037500 0.069681
v 0.481575 0.037500 0.038345
v 0.558551 0.037500 0.046013
v 0.584022 0.037500 0.135683
v 0.572346 0.037500 0.270931
v 0.528297 0.037500 0.495935
v 0.212132 0.037500 0.550547
v 0.138689 0.037500 0.535660
v 0.141659 0.037500 0.479401
v 0.176517 0.037500 0.401085
v 0.179508 0.037500 0.328022
v 0.108135 0.037500 0.283871
v 0.004932 0.037500 0.277702
v -0.066308 0.037500 0.314928
v -0.063431 0.037500 0.393951
v -0.030840 0.037500 0.485161
v -0.034574 0.037500 0.551949
v -0.120323 0.037500 0.568102
v -0.252376 0.037500 0.549028
v -0.473400 0.037500 0.495935
v -0.422151 0.037500 0.264776
v -0.405572 0.037500 0.125854
v -0.426506 0.037500 0.033808
v -0.501113 0.037500 0.026070
v -0.603341 0.037500 0.058477
v -0.696586 0.037500 0.066452
v -0.750072 0.037500 0.005877
v -0.756343 0.037500 -0.085545
v -0.713775 0.037500 -0.149660
v -0.627168 0.037500 -0.147760
v -0.527040 0.037500 -0.118917
v -0.450335 0.037500 -0.121647
v -0.423784 0.037500 -0.196501
v -0.433270 0.037500 -0.312174
v -0.473400 0.037500 -0.505974
v -0.255284 -0.037498 -0.549040
v -0.125274 -0.037500 -0.560297
v -0.041540 -0.037498 -0.534937
v -0.039412 -0.037500 -0.458513
v -0.073055 -0.037498 -0.359230
v -0.076346 -0.037500 -0.275917
v -0.004786 -0.037500 -0.239670
v 0.099613 -0.037498 -0.250673
v 0.173211 -0.037500 -0.301384
v 0.173418 -0.037500 -0.380978
v 0.141830 -0.037498 -0.465530
v 0.141094 -0.037500 -0.527851
v 0.214964 -0.037500 -0.548620
v 0.331629 -0.037500 -0.540005
v 0.528297 -0.037500 -0.505974
v 0.557192 -0.037500 -0.180471
v 0.539401 -0.037500 -0.100990
v 0.489324 -0.037500 -0.096844
v 0.420018 -0.037500 -0.126926
v 0.350182 -0.037500 -0.131598
v 0.297780 -0.037500 -0.070719
v 0.277833 -0.037498 0.017952
v 0.304627 -0.037498 0.077162
v 0.383196 -0.037500 0.069681
v 0.481575 -0.037500 0.038345
v 0.558551 -0.037500 0.046013
v 0.584022 -0.037500 0.135683
v 0.572346 -0.037500 0.270931
v 0.528297 -0.037498 0.495935
v 0.212132 -0.037500 0.550547
v 0.138689 -0.037500 0.535660
v 0.141659 -0.037500 0.479401
v 0.176517 -0.037500 0.401085
v 0.179508 -0.037500 0.328022
v 0.108135 -0.037500 0.283871
v 0.004932 -0.037498 0.277702
v -0.066308 -0.037500 0.314928
v -0.063431 -0.037500 0.393951
v -0.030840 -0.037500 0.485161
v -0.034574 -0.037498 0.551949
v -0.120323 -0.037498 0.568102
v -0.252376 -0.037500 0.549028
v -0.473400 -0.037498 0.495935
v -0.422151 -0.037498 0.264776
v -0.405572 -0.037500 0.125854
v -0.426506 -0.037500 0.033808
v -0.501113 -0.037500 0.026070
v -0.603341 -0.037500 0.058477
v -0.696586 -0.037500 0.066452
v -0.750072 -0.037500 0.005877
v -0.756343 -0.037500 -0.085545
v -0.713775 -0.037500 -0.149660
v -0.627168 -0.037500 -0.147760
v -0.527040 -0.037500 -0.118917
v -0.450335 -0.037500 -0.121647
v -0.423784 -0.037500 -0.196501
v -0.433270 -0.037500 -0.312174
v -0.473400 -0.037500 -0.505974
v 0.558551 0.037500 0.046013
v 0.558551 0.037500 0.046013
v 0.584022 0.037500 0.135683
v 0.572346 0.037500 0.270931
v 0.481575 0.037500 0.038345
v 0.557192 0.037500 -0.180471
v 0.539401 0.037500 -0.100990
v 0.539401 0.037500 -0.100990
v 0.528297 0.037500 -0.505974
v 0.528297 0.037500 -0.505974
v 0.489324 0.037500 -0.096844
v 0.528297 0.037500 0.495935
v 0.528297 0.037500 0.495935
v 0.420018 0.037500 -0.126926
v 0.383196 0.037500 0.069681
v 0.331629 0.037500 -0.540005
v 0.350182 0.037500 -0.131598
v 0.304627 0.037500 0.077162
v 0.304627 0.037500 0.077162
v 0.297780 0.037500 -0.070719
v 0.214964 0.037500 -0.548620
v 0.212132 0.037500 0.550547
v 0.277833 0.037500 0.017952
v 0.141094 0.037500 -0.527851
v 0.141094 0.037500 -0.527851
v 0.176517 0.037500 0.401085
v 0.179508 0.037500 0.328022
v 0.179508 0.037500 0.328022
v 0.138689 0.037500 0.535660
v 0.138689 0.037500 0.535660
v 0.173211 0.037500 -0.301384
v 0.173418 0.037500 -0.380978
v 0.108135 0.037500 0.283871
v 0.141659 0.037500 0.479401
v 0.141830 0.037500 -0.465530
v 0.099613 0.037500 -0.250673
v 0.004932 0.037500 0.277702
v -0.004786 0.037500 -0.239670
v -0.066308 0.037500 0.314928
v -0.066308 0.037500 0.314928
v -0.076346 0.037500 -0.275917
v -0.076346 0.037500 -0.275917
v -0.063431 0.037500 0.393951
v -0.030840 0.037500 0.485161
v -0.034574 0.037500 0.551949
v -0.034574 0.037500 0.551949
v -0.120323 0.037500 0.568102
v -0.041540 0.037500 -0.534937
v -0.041540 0.037500 -0.534937
v -0.039412 0.037500 -0.458513
v -0.073055 0.037500 -0.359230
v -0.125274 0.037500 -0.560297
v -0.252376 0.037500 0.549028
v -0.255284 0.037500 -0.549040
v -0.405572 0.037500 0.125854
v -0.426506 0.037500 0.033808
v -0.426506 0.037500 0.033808
v -0.422151 0.037500 0.264776
v -0.423784 0.037500 -0.196501
v -0.433270 0.037500 -0.312174
v -0.450335 0.037500 -0.121647
v -0.450335 0.037500 -0.121647
v -0.501113 0.037500 0.026070
v -0.473400 0.037500 0.495935
v -0.473400 0.037500 0.495935
v -0.473400 0.037500 -0.505974
v -0.473400 0.037500 -0.505974
v -0.527040 0.037500 -0.118917
v -0.603341 0.037500 0.058477
v -0.627168 0.037500 -0.147760
v -0.696586 0.037500 0.066452
v -0.713775 0.037500 -0.149660
v -0.750072 0.037500 0.005877
v -0.756343 0.037500 -0.085545
v 0.558551 -0.037500 0.046013
v 0.558551 -0.037500 0.046013
v 0.584022 -0.037500 0.135683
v 0.572346 -0.037500 0.270931
v 0.481575 -0.037500 0.038345
v 0.557192 -0.037500 -0.180471
v 0.539401 -0.037500 -0.100990
v 0.539401 -0.037500 -0.100990
v 0.528297 -0.037500 -0.505974
v 0.528297 -0.037500 -0.505974
v 0.489324 -0.037500 -0.096844
v 0.528297 -0.037498 0.495935
v 0.528297 -0.037498 0.495935
v 0.420018 -0.037500 -0.126926
v 0.383196 -0.037500 0.069681
v 0.331629 -0.037500 -0.540005
v 0.350182 -0.037500 -0.131598
v 0.304627 -0.037498 0.077162
v 0.304627 -0.037498 0.077162
v 0.297780 -0.037500 -0.070719
v 0.214964 -0.037500 -0.548620
v 0.212132 -0.037500 0.550547
v 0.277833 -0.037498 0.017952
v 0.141094 -0.037500 -0.527851
v 0.141094 -0.037500 -0.527851
v 0.176517 -0.037500 0.401085
v 0.179508 -0.037500 0.328022
v 0.179508 -0.037500 0.328022
v 0.138689 -0.037500 0.535660
v 0.138689 -0.037500 0.535660
v 0.173211 -0.037500 -0.301384
v 0.173418 -0.037500 -0.380978
v 0.108135 -0.037500 0.283871
v 0.141659 -0.037500 0.479401
v 0.141830 -0.037498 -0.465530
v 0.099613 -0.037498 -0.250673
v 0.004932 -0.037498 0.277702
v -0.004786 -0.037500 -0.239670
v -0.066308 -0.037500 0.314928
v -0.066308 -0.037500 0.314928
v -0.076346 -0.037500 -0.275917
v -0.076346 -0.037500 -0.275917
v -0.063431 -0.037500 0.393951
v -0.030840 -0.037500 0.485161
v -0.034574 -0.037498 0.551949
v -0.034574 -0.037498 0.551949
v -0.120323 -0.037498 0.568102
v -0.041540 -0.037498 -0.534937
v -0.041540 -0.037498 -0.534937
v -0.039412 -0.037500 -0.458513
v -0.073055 -0.037498 -0.359230
v -0.125274 -0.037500 -0.560297
v -0.252376 -0.037500 0.549028
v -0.255284 -0.037498 -0.549040
v -0.405572 -0.037500 0.125854
v -0.426506 -0.037500 0.033808
v -0.426506 -0.037500 0.033808
v -0.422151 -0.037498 0.264776
v -0.423784 -0.037500 -0.196501
v -0.433270 -0.037500 -0.312174
v -0.450335 -0.037500 -0.121647
v -0.450335 -0.037500 -0.121647
v -0.501113 -0.037500 0.026070
v -0.473400 -0.037498 0.495935
v -0.473400 -0.037498 0.495935
v -0.473400 -0.037500 -0.505974
v -0.473400 -0.037500 -0.505974
v -0.527040 -0.037500 -0.118917
v -0.603341 -0.037500 0.058477
v -0.627168 -0.037500 -0.147760
v -0.696586 -0.037500 0.066452
v -0.713775 -0.037500 -0.149660
v -0.750072 -0.037500 0.005877
v -0.756343 -0.037500 -0.085545
vt 0.500000 0.500000
vt 0.500000 0.500000
vt 0.500000 0.500000
vt 0.500000 0.500000
vt 0.500000 0.500000
vt 0.500000 0.500000
vt 0.500000 0.500000
vt 0.500000 0.500000
vt 0.500000 0.500000
vt 0.500000 0.500000
vt 0.500000 0.500000
vt 0.500000 0.500000
vt 0.500000 0.500000
vt 0.500000 0.500000
vt 0.500000 0.500000
vt 0.500000 0.500000
vt 0.500000 0.500000
vt 0.500000 0.500000
vt 0.500000 0.500000
vt 0.500000 0.500000
vt 0.500000 0.500000
vt 0.500000 0.500000
vt 0.500000 0.500000
vt 0.500000 0.500000
vt 0.500000 0.500000
vt 0.500000 0.500000
vt 0.500000 0.500000
vt 0.500000 0.500000
vt 0.500000 0.500000
vt 0.500000 0.500000
vt 0.500000 0.500000
vt 0.500000 0.500000
vt 0.500000 0.500000
vt 0.500000 0.500000
vt 0.500000 0.500000
vt 0.500000 0.500000
vt 0.500000 0.500000
vt 0.500000 0.500000
vt 0.500000 0.500000
vt 0.500000 0.500000
vt 0.500000 0.500000
vt 0.500000 0.500000
vt 0.500000 0.500000
vt 0.500000 0.500000
vt 0.500000 0.500000
vt 0.500000 0.500000
vt 0.500000 0.500000
vt 0.500000 0.500000
vt 0.500000 0.500000
vt 0.500000 0.500000
vt 0.500000 0.500000
vt 0.500000 0.500000
vt 0.500000 0.500000
vt 0.500000 0.500000
vt 0.500000 0.500000
vt 0.500000 0.500000
vt 0.500000 0.500000
vt 0.500000 0.500000
vt 0.500000 0.500000
vt 0.500000 0.500000
vt 0.500000 0.500000
vt 0.500000 0.500000
vt 0.500000 0.500000
vt 0.500000 0.500000
vt 0.500000 0.500000
vt 0.500000 0.500000
vt 0.500000 0.500000
vt 0.500000 0.500000
vt 0.500000 0.500000
vt 0.500000 0.500000
vt 0.500000 0.500000
vt 0.500000 0.500000
vt 0.500000 0.500000
vt 0.500000 0.500000
vt 0.500000 0.500000
vt 0.500000 0.500000
vt 0.500000 0.500000
vt 0.500000 0.500000
vt 0.500000 0.500000
vt 0.500000 0.500000
vt 0.500000 0.500000
vt 0.500000 0.500000
vt 0.500000 0.500000
vt 0.500000 0.500000
vt 0.500000 0.500000
vt 0.500000 0.500000
vt 0.500000 0.500000
vt 0.500000 0.500000
vt 0.500000 0.500000
vt 0.500000 0.500000
vt 0.500000 0.500000
vt 0.500000 0.500000
vt 0.500000 0.500000
vt 0.500000 0.500000
vt 0.500000 0.500000
vt 0.500000 0.500000
vt 0.500000 0.500000
vt 0.500000 0.500000
vt 0.500000 0.500000
vt 0.500000 0.500000
vt 0.500000 0.500000
vt 0.500000 0.500000
vt 0.500000 0.500000
vt 0.500000 0.500000
vt 0.500000 0.500000
vt 0.500000 0.500000
vt 0.500000 0.500000
vt 0.500000 0.500000
vt 0.500000 0.500000
vt 0.500000 0.500000
vt 0.500000 0.500000
vt 0.500000 0.500000
vt 0.500000 0.500000
vt 0.500000 0.500000
vt 0.500000 0.500000
vt 0.500000 0.500000
vt 0.500000 0.500000
vt 0.500000 0.500000
vt 0.500000 0.500000
vt 0.500000 0.500000
vt 0.500000 0.500000
vt 0.500000 0.500000
vt 0.500000 0.500000
vt 0.500000 0.500000
vt 0.500000 0.500000
vt 0.500000 0.500000
vt 0.500000 0.500000
vt 0.500000 0.500000
vt 0.500000 0.500000
vt 0.500000 0.500000
vt 0.500000 0.500000
vt 0.500000 0.500000
vt 0.500000 0.500000
vt 0.500000 0.500000
vt 0.500000 0.500000
vt 0.500000 0.500000
vt 0.500000 0.500000
vt 0.500000 0.500000
vt 0.500000 0.500000
vt 0.500000 0.500000
vt 0.500000 0.500000
vt 0.500000 0.500000
vt 0.500000 0.500000
vt 0.500000 0.500000
vt 0.500000 0.500000
vt 0.500000 0.500000
vt 0.500000 0.500000
vt 0.500000 0.500000
vt 0.500000 0.500000
vt 0.500000 0.500000
vt 0.500000 0.500000
vt 0.500000 0.500000
vt 0.500000 0.500000
vt 0.500000 0.500000
vt 0.500000 0.500000
vt 0.500000 0.500000
vt 0.500000 0.500000
vt 0.500000 0.500000
vt 0.500000 0.500000
vt 0.500000 0.500000
vt 0.500000 0.500000
vt 0.500000 0.500000
vt 0.500000 0.500000
vt 0.500000 0.500000
vt 0.500000 0.500000
vt 0.500000 0.500000
vt 0.500000 0.500000
vt 0.500000 0.500000
vt 0.500000 0.500000
vt 0.500000 0.500000
vt 0.500000 0.500000
vt 0.500000 0.500000
vt 0.500000 0.500000
vt 0.500000 0.500000
vt 0.500000 0.500000
vt 0.500000 0.500000
vt 0.500000 0.500000
vt 0.500000 0.500000
vt 0.500000 0.500000
vt 0.500000 0.500000
vt 0.500000 0.500000
vt 0.500000 0.500000
vt 0.500000 0.500000
vt 0.500000 0.500000
vt 0.500000 0.500000
vt 0.500000 0.500000
vt 0.500000 0.500000
vt 0.500000 0.500000
vt 0.500000 0.500000
vt 0.500000 0.500000
vt 0.500000 0.500000
vt 0.500000 0.500000
vt 0.500000 0.500000
vt 0.500000 0.500000
vt 0.500000 0.500000
vt 0.500000 0.500000
vt 0.500000 0.500000
vt 0.500000 0.500000
vt 0.500000 0.500000
vt 0.500000 0.500000
vt 0.500000 0.500000
vt 0.500000 0.500000
vt 0.500000 0.500000
vt 0.500000 0.500000
vt 0.500000 0.500000
vt 0.500000 0.500000
vt 0.800957 0.559317
vt 0.806854 0.578133
vt 0.805693 0.582084
vt 0.805886 0.587808
vt 0.807263 0.591767
vt 0.799438 0.598706
vt 0.814156 0.567814
vt 0.809319 0.578293
vt 0.805482 0.613554
vt 0.799205 0.603064
vt 0.797592 0.597220
vt 0.794826 0.598326
vt 0.789213 0.587336
vt 0.793073 0.605106
vt 0.794011 0.608949
vt 0.791403 0.612714
vt 0.792423 0.547027
vt 0.792364 0.542224
vt 0.794363 0.539863
vt 0.792927 0.601233
vt 0.781250 0.611111
vt 0.798086 0.558156
vt 0.789556 0.581546
vt 0.788426 0.577577
vt 0.811984 0.589668
vt 0.813739 0.589503
vt 0.814203 0.593576
vt 0.790903 0.558307
vt 0.793237 0.556835
vt 0.809542 0.591601
vt 0.797215 0.540211
vt 0.798855 0.548349
vt 0.785149 0.591429
vt 0.787631 0.591417
vt 0.780189 0.600204
vt 0.793882 0.611727
vt 0.801264 0.614202
vt 0.798228 0.608520
vt 0.785827 0.577759
vt 0.787295 0.557781
vt 0.814751 0.575138
vt 0.779556 0.574863
vt 0.779907 0.567653
vt 0.799104 0.543177
vt 0.812500 0.611111
vt 0.782730 0.579625
vt 0.780568 0.589636
vt 0.782511 0.589677
vt 0.779920 0.593733
vt 0.812164 0.580100
vt 0.797845 0.554018
vt 0.793322 0.552581
vt 0.798467 0.612789
vt 0.814247 0.579893
vt 0.805290 0.558398
vt 0.780347 0.579507
vt 0.812500 0.555555
vt 0.781250 0.555555
vn 0.0000 -1.0000 -0.0000
vn 0.9619 0.0000 -0.2732
vn 0.9963 0.0000 0.0860
vn 0.0991 0.0000 -0.9951
vn 0.9759 0.0000 0.2184
vn 0.9961 0.0000 -0.0884
vn 0.0825 0.0000 0.9966
vn 0.9814 0.0000 0.1921
vn -0.3982 0.0000 0.9173
vn -0.3035 0.0000 -0.9528
vn 0.1705 0.0000 -0.9854
vn -0.0667 0.0000 0.9978
vn -0.0948 0.0000 -0.9955
vn 0.7579 0.0000 0.6524
vn 0.0736 0.0000 -0.9973
vn 0.1702 0.0000 0.9854
vn 0.9111 0.0000 -0.4123
vn 0.9756 0.0000 0.2195
vn -0.2707 0.0000 -0.9627
vn -0.9992 0.0000 -0.0409
vn -0.1987 0.0000 0.9801
vn -1.0000 0.0000 -0.0026
vn -0.5261 0.0000 0.8504
vn -0.9136 0.0000 -0.4066
vn -0.9986 0.0000 -0.0527
vn -0.9999 0.0000 0.0118
vn -0.9368 0.0000 0.3500
vn -0.5674 0.0000 -0.8235
vn -0.0597 0.0000 0.9982
vn -0.1048 0.0000 -0.9945
vn 0.4631 0.0000 0.8863
vn 0.4519 0.0000 -0.8921
vn 0.9417 0.0000 -0.3365
vn 0.9984 0.0000 0.0558
vn 0.1851 0.0000 0.9827
vn 0.9996 0.0000 -0.0278
vn 0.9471 0.0000 0.3209
vn 0.2899 0.0000 -0.9571
vn 0.9993 0.0000 -0.0364
vn 0.9992 0.0000 0.0395
vn -0.1430 0.0000 0.9897
vn -0.0863 0.0000 -0.9963
vn -0.9751 0.0000 0.2218
vn -0.9930 0.0000 -0.1185
vn -0.9967 0.0000 0.0817
vn -0.9425 0.0000 -0.3343
vn -0.1032 0.0000 0.9947
vn -0.9763 0.0000 -0.2165
vn -0.2336 0.0000 0.9723
vn -0.1937 0.0000 -0.9811
vn -0.0356 0.0000 -0.9994
vn -0.9792 0.0000 0.2028
vn 0.3022 0.0000 0.9532
vn 0.2768 0.0000 -0.9609
vn 0.0852 0.0000 0.9964
vn 0.0219 0.0000 -0.9998
vn -0.7496 0.0000 0.6619
vn -0.8331 0.0000 -0.5531
vn -0.9977 0.0000 0.0684
vn 0.0000 1.0000 0.0000
usemtl BackMat.001
s off
f 245/1/1 227/2/1 229/3/1
f 223/4/1 208/5/1 217/6/1
f 243/7/1 229/3/1 233/8/1
f 217/6/1 205/9/1 194/10/1
f 213/11/1 226/12/1 210/13/1
f 204/14/1 196/15/1 201/16/1
f 260/17/1 264/18/1 262/19/1
f 207/20/1 199/21/1 204/14/1
f 246/22/1 231/23/1 228/24/1
f 224/25/1 212/26/1 219/27/1
f 249/28/1 231/23/1 251/29/1
f 216/30/1 212/26/1 224/25/1
f 263/31/1 260/17/1 259/32/1
f 226/12/1 213/11/1 228/24/1
f 222/33/1 206/34/1 221/35/1
f 201/16/1 196/15/1 197/36/1
f 208/5/1 223/4/1 213/11/1
f 205/9/1 195/37/1 193/38/1
f 231/23/1 250/39/1 241/40/1
f 243/7/1 233/8/1 237/41/1
f 242/42/1 241/40/1 244/43/1
f 250/39/1 231/23/1 249/28/1
f 194/10/1 205/9/1 193/38/1
f 206/34/1 199/21/1 207/20/1
f 261/44/1 263/31/1 259/32/1
f 216/30/1 202/45/1 212/26/1
f 263/31/1 264/18/1 260/17/1
f 241/40/1 242/42/1 240/46/1
f 214/47/1 211/48/1 225/49/1
f 221/35/1 206/34/1 207/20/1
f 196/15/1 204/14/1 199/21/1
f 233/8/1 234/50/1 237/41/1
f 253/51/1 251/29/1 246/22/1
f 251/29/1 231/23/1 246/22/1
f 221/35/1 207/20/1 210/13/1
f 206/34/1 222/33/1 211/48/1
f 258/52/1 251/29/1 253/51/1
f 217/6/1 208/5/1 205/9/1
f 259/32/1 258/52/1 253/51/1
f 193/38/1 195/37/1 191/53/1
f 217/6/1 202/45/1 216/30/1
f 221/35/1 210/13/1 226/12/1
f 225/49/1 211/48/1 222/33/1
f 245/1/1 228/24/1 227/2/1
f 237/41/1 234/50/1 235/54/1
f 245/1/1 229/3/1 248/55/1
f 248/55/1 229/3/1 243/7/1
f 246/22/1 228/24/1 245/1/1
f 258/52/1 259/32/1 260/17/1
f 244/43/1 241/40/1 250/39/1
f 227/2/1 213/11/1 223/4/1
f 202/45/1 217/6/1 194/10/1
f 238/56/1 240/46/1 242/42/1
f 248/55/1 243/7/1 254/57/1
f 228/24/1 213/11/1 227/2/1
f 244/43/1 250/39/1 256/58/1
f 118/59/2 27/60/2 85/61/2 192/62/2
f 27/60/3 28/63/3 86/64/3 85/61/3
f 25/65/4 26/66/4 84/67/4 83/68/4
f 16/69/5 124/70/5 198/71/5 74/72/5
f 126/73/6 16/69/6 74/72/6 200/74/6
f 17/75/7 18/76/7 76/77/7 75/78/7
f 28/63/8 129/79/8 203/80/8 86/64/8
f 18/76/9 19/81/9 77/82/9 76/77/9
f 24/83/10 25/65/10 83/68/10 82/84/10
f 14/85/11 15/86/11 73/87/11 72/88/11
f 19/81/12 20/89/12 78/90/12 77/82/12
f 135/91/13 24/83/13 82/84/13 209/92/13
f 20/89/14 21/93/14 79/94/14 78/90/14
f 13/95/15 14/85/15 72/88/15 71/96/15
f 29/97/16 30/98/16 88/99/16 87/100/16
f 22/101/17 23/102/17 81/103/17 80/104/17
f 21/93/18 22/101/18 80/104/18 79/94/18
f 141/105/19 13/95/19 71/96/19 215/106/19
f 33/107/20 144/108/20 218/109/20 91/110/20
f 30/98/21 146/111/21 220/112/21 88/99/21
f 9/113/22 10/114/22 68/115/22 67/116/22
f 34/117/23 35/118/23 93/119/23 92/120/23
f 32/121/24 33/107/24 91/110/24 90/122/24
f 31/123/25 32/121/25 90/122/25 89/124/25
f 11/125/26 12/126/26 70/127/26 69/128/26
f 10/114/27 11/125/27 69/128/27 68/115/27
f 8/129/28 9/113/28 67/116/28 66/130/28
f 35/118/29 36/131/29 94/132/29 93/119/29
f 7/133/30 8/129/30 66/130/30 65/134/30
f 36/131/31 156/135/31 230/136/31 94/132/31
f 158/137/32 7/133/32 65/134/32 232/138/32
f 38/139/33 39/140/33 97/141/33 96/142/33
f 39/140/34 162/143/34 236/144/34 97/141/34
f 40/145/35 41/146/35 99/147/35 98/148/35
f 165/149/36 4/150/36 62/151/36 239/152/36
f 4/150/37 5/153/37 63/154/37 62/151/37
f 2/155/38 3/156/38 61/157/38 60/158/38
f 37/159/39 38/139/39 96/142/39 95/160/39
f 5/153/40 6/161/40 64/162/40 63/154/40
f 41/146/41 42/163/41 100/164/41 99/147/41
f 1/165/42 2/155/42 60/158/42 59/166/42
f 45/167/43 173/168/43 247/169/43 103/170/43
f 44/171/44 45/167/44 103/170/44 102/172/44
f 56/173/45 57/174/45 115/175/45 114/176/45
f 178/177/46 56/173/46 114/176/46 252/178/46
f 46/179/47 47/180/47 105/181/47 104/182/47
f 181/183/48 44/171/48 102/172/48 255/184/48
f 42/163/49 43/185/49 101/186/49 100/164/49
f 183/187/50 1/165/50 59/166/50 257/188/50
f 54/189/51 55/190/51 113/191/51 112/192/51
f 57/174/52 58/193/52 116/194/52 115/175/52
f 47/180/53 48/195/53 106/196/53 105/181/53
f 53/197/54 54/189/54 112/192/54 111/198/54
f 48/195/55 49/199/55 107/200/55 106/196/55
f 52/201/56 53/197/56 111/198/56 110/202/56
f 49/199/57 50/203/57 108/204/57 107/200/57
f 51/205/58 52/201/58 110/202/58 109/206/58
f 50/203/59 51/205/59 109/206/59 108/204/59
usemtl FrontMat.001
f 171/207/60 155/208/60 153/209/60
f 149/210/60 143/211/60 134/212/60
f 169/213/60 159/214/60 155/208/60
f 143/211/60 120/215/60 131/216/60
f 139/217/60 136/218/60 152/219/60
f 130/220/60 127/221/60 122/222/60
f 186/223/60 188/224/60 190/225/60
f 133/226/60 130/220/60 125/227/60
f 172/228/60 154/229/60 157/230/60
f 150/231/60 145/232/60 138/233/60
f 175/234/60 177/235/60 157/230/60
f 142/236/60 150/231/60 138/233/60
f 189/237/60 185/238/60 186/223/60
f 152/219/60 154/229/60 139/217/60
f 148/239/60 147/240/60 132/241/60
f 127/221/60 123/242/60 122/222/60
f 134/212/60 139/217/60 149/210/60
f 131/216/60 119/243/60 121/244/60
f 157/230/60 167/245/60 176/246/60
f 169/213/60 163/247/60 159/214/60
f 168/248/60 170/249/60 167/245/60
f 176/246/60 175/234/60 157/230/60
f 120/215/60 119/243/60 131/216/60
f 132/241/60 133/226/60 125/227/60
f 187/250/60 185/238/60 189/237/60
f 142/236/60 138/233/60 128/251/60
f 189/237/60 186/223/60 190/225/60
f 167/245/60 166/252/60 168/248/60
f 140/253/60 151/254/60 137/255/60
f 147/240/60 133/226/60 132/241/60
f 122/222/60 125/227/60 130/220/60
f 159/214/60 163/247/60 160/256/60
f 179/257/60 172/228/60 177/235/60
f 177/235/60 172/228/60 157/230/60
f 147/240/60 136/218/60 133/226/60
f 132/241/60 137/255/60 148/239/60
f 184/258/60 179/257/60 177/235/60
f 143/211/60 131/216/60 134/212/60
f 185/238/60 179/257/60 184/258/60
f 119/243/60 117/259/60 121/244/60
f 143/211/60 142/236/60 128/251/60
f 147/240/60 152/219/60 136/218/60
f 151/254/60 148/239/60 137/255/60
f 171/207/60 153/209/60 154/229/60
f 163/247/60 161/260/60 160/256/60
f 171/207/60 174/261/60 155/208/60
f 174/261/60 169/213/60 155/208/60
f 172/228/60 171/207/60 154/229/60
f 184/258/60 186/223/60 185/238/60
f 170/249/60 176/246/60 167/245/60
f 153/209/60 149/210/60 139/217/60
f 128/251/60 120/215/60 143/211/60
f 164/262/60 168/248/60 166/252/60
f 174/261/60 180/263/60 169/213/60
f 154/229/60 153/209/60 139/217/60
f 170/249/60 182/264/60 176/246/60
